<?xml version="1.0" encoding="utf-8"?>
<!-- Generated by IcoMoon.io -->
<!DOCTYPE svg PUBLIC "-//W3C//DTD SVG 1.1//EN" "http://www.w3.org/Graphics/SVG/1.1/DTD/svg11.dtd">
<svg version="1.1" xmlns="http://www.w3.org/2000/svg" xmlns:xlink="http://www.w3.org/1999/xlink" width="32" height="32" viewBox="0 0 32 32">
<path fill="#444444" d="M21.755 4.404c0.404-0.39 0.792-0.797 1.151-1.231 0.222-0.268 0.264-0.64 0-0.905-0.229-0.229-0.683-0.269-0.905 0-0.387 0.468-0.807 0.903-1.245 1.321-1.377-0.934-3.086-1.403-5.105-1.215-1.191 0.111-2.312 0.464-3.311 1.007-0.313-0.409-0.612-0.828-0.907-1.25-0.2-0.285-0.556-0.417-0.876-0.23-0.283 0.165-0.43 0.589-0.23 0.876 0.307 0.438 0.621 0.87 0.944 1.296-0.146-0.192-2.043 2.215-2.181 2.452-0.401 0.687-1.741 3.323-0.909 3.972 0.355 0.277 1.061 0.082 1.49 0.084 0.668 0.003 1.337 0.027 2.005 0.044 1.371 0.035 2.742 0.081 4.113 0.122 2.7 0.081 5.402 0.154 8.104 0.134 0.329-0.003 0.525-0.209 0.592-0.454 0.077-0.126 0.114-0.282 0.079-0.463-0.431-2.225-1.382-4.182-2.809-5.561zM9.377 9.295c0.563-3.062 3.174-5.228 6.274-5.642 4.098-0.547 6.603 2.339 7.521 5.947-4.6 0.008-9.196-0.227-13.795-0.305z"></path>
<path fill="#444444" d="M23.894 11.52c-5.013-0.002-10.026-0.051-15.040-0.053-0.342 0-0.54 0.22-0.599 0.477-0.081 0.096-0.136 0.221-0.148 0.376-0.241 3.196-0.076 6.4-0.213 9.6-0.003 0.058 0.003 0.111 0.013 0.161 0.001 0.038 0.003 0.076 0.010 0.116 0.29 1.52 1.533 2.456 3.061 2.355-0.22 0.014 0.012 3.768 0.036 4.003 0.084 0.82 0.286 1.744 1.133 2.088 0.976 0.396 2.133-0.159 2.773-0.903 1.155-1.34 1.052-3.372 0.955-5.023 0.316-0.013 0.633-0.018 0.949-0.020-0.218 0.002-0.172 3.549-0.096 3.892 0.336 1.541 1.806 2.64 3.334 2.052 1.489-0.573 1.82-1.99 1.752-3.43-0.038-0.814-0.061-1.655-0.155-2.463 0.502-0.044 0.992-0.186 1.406-0.489 0.698-0.51 0.966-1.295 1.041-2.127 0-0.036 0.001-0.069 0-0.107 0.257-3.213 0.363-6.429 0.372-9.651 0.116-0.373-0.079-0.854-0.585-0.855zM22.828 22.028c-0.003 0.034 0 0.065 0.002 0.097-0 0.004-0.002 0.006-0.002 0.010-0.105 1.144-0.939 1.424-1.973 1.333-0.58-0.051-0.746 0.571-0.507 0.966 0.221 1.74 0.943 4.658-1.232 5.158-2.114-0.656-1.012-3.85-0.98-5.485 0.009-0.48-0.42-0.679-0.784-0.6-0.595 0.128-1.412-0.093-2.043-0.040-0.046 0.004-0.091 0.012-0.134 0.023-0.323-0.003-0.634 0.202-0.612 0.617 0.082 1.531 0.761 5.098-1.493 5.333-0.019 0.002-0.035 0.008-0.053 0.011-1.643-0.861-0.707-4.144-0.747-5.611-0.011-0.394-0.309-0.598-0.615-0.615-0.077-0.014-0.159-0.018-0.248-0.002-0.487 0.086-1.033 0.127-1.492-0.093-0.468-0.224-0.643-0.707-0.741-1.183 0.001-0.010 0.004-0.018 0.004-0.027 0.132-3.057-0.010-6.118 0.187-9.172 4.612 0.005 9.223 0.043 13.834 0.049-0.017 3.080-0.122 6.157-0.368 9.229z"></path>
<path fill="#444444" d="M28.614 10.818c-0.049-0.066-0.112-0.125-0.185-0.171-0.38-0.239-0.829-0.337-1.275-0.306-0.070-0.027-0.144-0.044-0.222-0.049-0.956-0.051-1.733 0.529-1.897 1.483-0.009 0.053-0.012 0.106-0.011 0.158-0.039 0.079-0.063 0.172-0.065 0.279-0.048 2.475-0.038 4.945 0.16 7.414 0 0.006 0.003 0.012 0 0.018-0.002 0.029-0.005 0.057-0 0.089 0.043 0.679 0.243 1.331 0.815 1.745 0.513 0.371 1.159 0.371 1.756 0.267 0.015-0.002 0.030-0.005 0.045-0.007 0.002-0 0.004-0.001 0.006-0.001 0.001-0 0.002-0.001 0.003-0.001 0.069-0.012 0.138-0.032 0.204-0.064 0.621-0.294 1.006-0.899 1.148-1.556 0.010-0.044 0.014-0.089 0.016-0.132 0.002-0.013 0.006-0.024 0.007-0.038 0.239-2.937 0.59-6.009-0.343-8.863-0.036-0.111-0.094-0.197-0.163-0.265zM27.893 19.475c-0.018 0.099-0.041 0.217-0.075 0.337-0.096 0.345-0.276 0.713-0.65 0.719-1.419 0.023-0.909-5.516-0.941-6.445-0.021-0.628-0.273-1.855 0.249-2.357 1.359-1.31 1.561 2.221 1.592 2.735 0.098 1.606 0.112 3.425-0.175 5.011z"></path>
<path fill="#444444" d="M4.314 10.788c-1.37 0.612-1.253 2.116-1.263 3.376-0.016 1.93 0.046 3.859 0.189 5.782 0 0.006 0.003 0.012 0 0.018-0.002 0.029-0.005 0.057-0 0.089 0.155 2.442 3.438 2.893 3.977 0.384 0.010-0.044 0.014-0.089 0.016-0.132 0.002-0.013 0.006-0.024 0.007-0.038 0.239-2.937 0.59-6.009-0.343-8.863-0.374-1.145-1.732-0.995-2.582-0.615zM5.971 20.142c-0.022 0.096-0.047 0.191-0.080 0.285-0.004 0.009-0.009 0.018-0.015 0.032-0.028 0.058-0.062 0.113-0.097 0.167-0.043 0.062-0.049 0.070-0.016 0.021-0.037 0.044-0.080 0.083-0.123 0.121-0.009 0.006-0.021 0.015-0.039 0.027-0.016 0.011-0.034 0.017-0.050 0.027-0.009 0.001-0.018 0.001-0.027 0.003-0.305 0.056-0.553 0.044-0.765-0.089-0.132-0.083-0.222-0.419-0.238-0.681-0-0.004-0.002-0.007-0.002-0.011 0.002-0.031 0.005-0.061 0.002-0.095-0.156-1.9-0.112-3.787-0.172-5.689-0.019-0.593-0.266-1.788 0.272-2.239 1.412-1.182 1.539 2.289 1.575 2.842 0.115 1.762-0.080 3.523-0.225 5.279z"></path>
<path fill="#444444" d="M12.693 6.293c-0.825 0-0.825 1.28 0 1.28s0.825-1.28 0-1.28z"></path>
<path fill="#444444" d="M20 6.24c-0.826 0-0.826 1.28 0 1.28s0.826-1.28 0-1.28z"></path>
</svg>
