<?xml version="1.0" encoding="utf-8"?>
<!-- Generated by IcoMoon.io -->
<!DOCTYPE svg PUBLIC "-//W3C//DTD SVG 1.1//EN" "http://www.w3.org/Graphics/SVG/1.1/DTD/svg11.dtd">
<svg version="1.1" xmlns="http://www.w3.org/2000/svg" xmlns:xlink="http://www.w3.org/1999/xlink" width="32" height="32" viewBox="0 0 32 32">
<path fill="#444444" d="M27.162 21.703c-1.588-0.784-2.595-2.276-2.761-4.094-0.179-1.948 0.649-3.809 2.214-4.976 0.219-0.163 0.349-0.388 0.377-0.652 0.029-0.279-0.065-0.572-0.242-0.771-0.034-0.047-0.072-0.093-0.119-0.137-1.531-1.446-3.455-2.243-5.418-2.243l-0.083 0c-0.935 0.011-1.874 0.238-2.782 0.458-0.918 0.222-1.867 0.452-2.8 0.452-0.383 0-0.738-0.037-1.083-0.114-2.243-1.293-4.224-1.575-5.871-0.845-1.603 0.712-2.801 2.287-3.555 4.68-0.659 2.085-0.833 4.579-0.504 7.212 0.401 3.216 1.958 5.675 3.58 7.856 0.093 0.125 0.21 0.221 0.349 0.288 0.031 0.030 0.063 0.059 0.1 0.086 0.801 0.586 1.698 0.86 2.823 0.86 0.728 0 1.478-0.114 2.203-0.224 0.724-0.11 1.471-0.224 2.195-0.224 0.42 0 0.799 0.037 1.156 0.115 0.444 0.096 0.853 0.268 1.248 0.435 0.598 0.253 1.216 0.514 1.965 0.514 0.072 0 0.144-0.002 0.218-0.007 1.040-0.069 2.1-0.56 3.15-1.46 1.88-1.61 3.040-3.893 3.98-5.909 0.051-0.11 0.081-0.225 0.089-0.342 0.117-0.397-0.050-0.772-0.429-0.959zM22.654 18.102c0.231 2.020 1.267 3.708 2.922 4.772-1.423 2.978-3.154 5.706-6.093 5.766-1.115-0.781-2.246-1.145-3.558-1.145-0.283 0-0.58 0.018-0.882 0.053-0.47 0.055-0.935 0.145-1.384 0.232-0.696 0.135-1.354 0.263-2.005 0.263-0.834 0-1.517-0.216-2.153-0.681-0.008-0.006-0.017-0.012-0.027-0.017-1.509-2.050-2.603-3.878-3.037-6.115-0.364-1.875-0.358-3.942 0.019-5.979 0.4-2.162 1.175-3.677 2.302-4.506 0.502-0.368 1.061-0.547 1.708-0.547 0.921 0 1.864 0.38 2.494 0.666 0.953 0.433 2.039 0.661 3.141 0.661 1.17 0 2.33-0.254 3.354-0.736 0.025-0.012 0.046-0.024 0.078-0.044 1.843-0.485 3.7-0.086 5.26 1.124-1.6 1.652-2.399 3.968-2.14 6.231z"></path>
<path fill="#444444" d="M15.999 8.638c0.189 0 0.368-0.051 0.519-0.147 5.533-1.183 7.030-4.1 7.311-6.341 0.039-0.311-0.071-0.51-0.17-0.622-0.148-0.167-0.38-0.263-0.638-0.263-0.127 0-0.257 0.024-0.348 0.058-0.037 0-0.075 0.001-0.115 0.007-3.366 0.473-6.134 2.788-7.408 6.194-0.1 0.267-0.075 0.529 0.070 0.737 0.161 0.233 0.459 0.377 0.778 0.377zM17.793 6.273c0.944-1.382 2.266-2.37 3.856-2.883-0.612 1.254-1.906 2.222-3.856 2.883z"></path>
</svg>
