<?xml version="1.0" encoding="utf-8"?>
<!-- Generated by IcoMoon.io -->
<!DOCTYPE svg PUBLIC "-//W3C//DTD SVG 1.1//EN" "http://www.w3.org/Graphics/SVG/1.1/DTD/svg11.dtd">
<svg version="1.1" xmlns="http://www.w3.org/2000/svg" xmlns:xlink="http://www.w3.org/1999/xlink" width="32" height="32" viewBox="0 0 32 32">
<path fill="#444444" d="M30.813 8.691c0.003-0.133-0.035-0.241-0.098-0.323-0.037-0.075-0.092-0.145-0.172-0.204-4.205-3.119-10.209-4.768-14.399-0.906-4.189-3.862-10.194-2.213-14.399 0.906-0.079 0.059-0.134 0.129-0.172 0.204-0.063 0.082-0.1 0.189-0.098 0.323 0.107 5.205-0.052 10.409-0.060 15.614 0 0.091 0.019 0.169 0.051 0.236-0.088 0.375 0.185 0.821 0.637 0.646 4.439-1.73 9.459-2.113 13.507 0.676 0.092 0.219 0.299 0.378 0.534 0.323 0.235 0.054 0.442-0.104 0.534-0.323 4.047-2.789 9.068-2.406 13.507-0.676 0.452 0.176 0.726-0.27 0.637-0.646 0.032-0.067 0.051-0.146 0.051-0.236-0.008-5.205-0.168-10.409-0.061-15.614zM16.147 24.917c-4.050-2.791-9.129-2.621-13.639-1.029 0.015-4.996 0.158-9.994 0.061-14.989 3.846-2.768 9.37-4.404 13.152-0.547 0.132 0.135 0.284 0.175 0.427 0.156 0.142 0.019 0.294-0.022 0.427-0.156 3.781-3.856 9.302-2.221 13.152 0.547-0.096 4.996 0.047 9.994 0.061 14.989-4.509-1.593-9.589-1.763-13.639 1.028z"></path>
<path fill="#444444" d="M30.429 26.006c-4.6-1.852-11.035-2.549-14.413 1.457-3.379-4.006-9.815-3.309-14.413-1.457-0.812 0.327-0.111 1.429 0.694 1.105 4.163-1.676 10.373-2.422 13.11 1.77 0.152 0.233 0.385 0.316 0.61 0.301 0.226 0.016 0.458-0.068 0.61-0.301 2.737-4.192 8.948-3.446 13.11-1.77 0.804 0.324 1.506-0.779 0.694-1.105z"></path>
<path fill="#444444" d="M4.383 13.555c0.105 0.241 0.375 0.404 0.659 0.219 0.73-0.475 1.509-0.821 2.365-0.992 0.28-0.056 0.374-0.283 0.337-0.5 0.009-0.038 0.015-0.079 0.015-0.123v-2.72c0-0.319-0.255-0.473-0.503-0.462-0.042-0.011-0.087-0.018-0.137-0.018-0.984 0.017-1.926 0.276-2.722 0.866-0.156 0.116-0.214 0.278-0.205 0.435-0.016 0.043-0.028 0.088-0.033 0.139-0.076 0.905-0.080 1.812-0.080 2.72 0 0.232 0.135 0.377 0.303 0.435zM5.114 10.497c0.518-0.328 1.078-0.506 1.686-0.559v2c-0.616 0.158-1.204 0.406-1.759 0.717 0.003-0.72 0.016-1.439 0.072-2.158z"></path>
<path fill="#444444" d="M9.648 10.063c1.18-0.404 2.32-0.294 3.39 0.352 0.532 0.32 1.013-0.509 0.484-0.829-1.275-0.77-2.719-0.932-4.13-0.448-0.582 0.199-0.332 1.127 0.255 0.925z"></path>
<path fill="#444444" d="M9.568 12.143c1.185-0.249 2.293-0.073 3.31 0.592 0.52 0.34 1-0.492 0.484-0.829-1.233-0.806-2.621-0.989-4.050-0.688-0.606 0.127-0.348 1.053 0.255 0.925z"></path>
<path fill="#444444" d="M13.843 14.946c-3.206-1.801-6.972-1.103-9.923 0.88-0.511 0.343-0.031 1.175 0.484 0.829 2.665-1.79 6.038-2.519 8.956-0.88 0.54 0.304 1.024-0.526 0.484-0.829z"></path>
<path fill="#444444" d="M13.843 17.186c-3.206-1.801-6.972-1.103-9.923 0.88-0.511 0.343-0.031 1.175 0.484 0.829 2.665-1.79 6.038-2.519 8.956-0.88 0.54 0.304 1.024-0.526 0.484-0.829z"></path>
<path fill="#444444" d="M13.843 19.426c-3.206-1.801-6.972-1.103-9.923 0.88-0.511 0.343-0.031 1.175 0.484 0.829 2.665-1.79 6.038-2.519 8.956-0.88 0.54 0.304 1.024-0.526 0.484-0.829z"></path>
<path fill="#444444" d="M18.048 16.154c2.771-1.876 6.193-1.43 8.998 0.132 0.542 0.302 0.951-0.567 0.414-0.866-3.108-1.731-6.918-2.113-9.965-0.051-0.513 0.347 0.038 1.133 0.552 0.786z"></path>
<path fill="#444444" d="M18.233 18.384c2.771-1.876 6.193-1.43 8.998 0.132 0.542 0.302 0.951-0.567 0.413-0.866-3.108-1.731-6.918-2.113-9.965-0.051-0.512 0.347 0.039 1.133 0.552 0.786z"></path>
<path fill="#444444" d="M18.048 11.673c2.771-1.876 6.193-1.43 8.998 0.132 0.542 0.302 0.951-0.567 0.414-0.866-3.108-1.731-6.918-2.113-9.965-0.051-0.513 0.347 0.038 1.133 0.552 0.786z"></path>
<path fill="#444444" d="M17.68 13.119c-0.513 0.347 0.038 1.133 0.552 0.786 2.771-1.876 6.193-1.43 8.998 0.132 0.542 0.302 0.951-0.567 0.413-0.866-3.107-1.731-6.918-2.113-9.962-0.051z"></path>
<path fill="#444444" d="M27.831 19.882c-3.108-1.731-6.918-2.113-9.965-0.051-0.513 0.347 0.039 1.133 0.552 0.786 2.771-1.876 6.194-1.43 8.998 0.132 0.542 0.302 0.951-0.567 0.414-0.866z"></path>
</svg>
