<?xml version="1.0" encoding="utf-8"?>
<!-- Generated by IcoMoon.io -->
<!DOCTYPE svg PUBLIC "-//W3C//DTD SVG 1.1//EN" "http://www.w3.org/Graphics/SVG/1.1/DTD/svg11.dtd">
<svg version="1.1" xmlns="http://www.w3.org/2000/svg" xmlns:xlink="http://www.w3.org/1999/xlink" width="32" height="32" viewBox="0 0 32 32">
<path fill="#444444" d="M30.694 14.982c0-0.077 0-0.156-0.017-0.235-0.108-0.488-0.355-0.96-0.742-1.283-0.363-0.305-0.767-0.459-1.214-0.542-0.122-0.076-0.264-0.123-0.416-0.121-0.88 0.011-1.616 0.304-2.131 1.036-0.119 0.168-0.137 0.375-0.090 0.568-0.157 0.296-0.262 0.619-0.3 0.985-0.055 0.544 0.224 1.066 0.581 1.478-1.193 1.6-3.057 3.007-5.152 2.485-1.275-0.318-1.991-1.719-2.423-2.836-0.997-2.576-1.124-5.425-1.382-8.158 0.306-0.071 0.604-0.194 0.884-0.388 0.084-0.058 0.156-0.128 0.215-0.205 0.054-0.049 0.106-0.102 0.152-0.162 0.396-0.524 0.511-1.203 0.429-1.844-0.003-0.020-0.008-0.038-0.011-0.058 0-0.077 0-0.156-0.017-0.235-0.108-0.488-0.355-0.96-0.742-1.283-0.363-0.305-0.767-0.459-1.214-0.542-0.122-0.076-0.264-0.123-0.416-0.121-0.88 0.011-1.616 0.304-2.131 1.036-0.119 0.168-0.137 0.375-0.090 0.568-0.157 0.296-0.262 0.619-0.3 0.985-0.072 0.707 0.419 1.377 0.914 1.816 0.125 0.111 0.26 0.17 0.395 0.195 0.083 0.038 0.167 0.069 0.251 0.101-0.4 3.143-0.852 6.595-2.579 9.309-1.836 2.883-4.972 1.734-7.382 0.268 0.37-0.518 0.478-1.175 0.399-1.799-0.003-0.020-0.008-0.038-0.011-0.058 0-0.077 0-0.156-0.017-0.235-0.108-0.488-0.355-0.96-0.742-1.283-0.363-0.305-0.767-0.459-1.214-0.542-0.122-0.076-0.264-0.123-0.416-0.121-0.88 0.011-1.616 0.304-2.131 1.036-0.119 0.168-0.137 0.375-0.090 0.568-0.157 0.296-0.262 0.619-0.3 0.985-0.072 0.707 0.419 1.377 0.914 1.816 0.125 0.111 0.26 0.17 0.395 0.195 0.445 0.207 0.917 0.316 1.384 0.309 0.837 2.065 1.663 4.134 2.648 6.134 0.036 0.072 0.078 0.131 0.124 0.183 0.030 0.2 0.152 0.387 0.403 0.504 5.599 2.625 11.875 2.154 17.658 0.401 0.249-0.076 0.407-0.231 0.49-0.416 0.17-0.086 0.313-0.235 0.388-0.463 0.808-2.439 1.567-4.893 2.349-7.34 0.655 0.1 1.321-0.013 1.908-0.422 0.084-0.058 0.156-0.128 0.215-0.205 0.054-0.049 0.106-0.102 0.152-0.162 0.396-0.524 0.511-1.203 0.429-1.844-0.001-0.019-0.007-0.038-0.010-0.057zM4.484 16.481c-0.1 0.412-0.503 0.722-1.037 0.511-1.267-0.5-0.118-2.24 0.798-1.333 0.241 0.239 0.304 0.552 0.238 0.822zM17.168 5.419c0.241 0.239 0.305 0.552 0.239 0.822-0.1 0.412-0.503 0.722-1.037 0.511-1.267-0.5-0.118-2.24 0.798-1.333zM24.172 24.401c-5.253 1.567-11.029 2.107-16.141-0.245-0.014-0.052-0.033-0.105-0.060-0.159-0.672-1.365-1.265-2.763-1.841-4.17 2.586 1.295 5.508 1.794 7.741-0.619 1.312-1.419 2.069-3.312 2.556-5.304 0.299 1.677 0.775 3.301 1.636 4.759 0.818 1.385 2.107 2.233 3.701 2.39 1.436 0.142 2.749-0.38 3.869-1.208-0.481 1.52-0.963 3.039-1.462 4.553zM29.019 15.519c-0.1 0.412-0.503 0.722-1.037 0.511-1.267-0.5-0.118-2.24 0.798-1.333 0.241 0.239 0.305 0.552 0.239 0.822z"></path>
<path fill="#444444" d="M19.238 21.752c0.004-0.093 0-0.187-0.021-0.281-0.129-0.584-0.425-1.147-0.887-1.535-0.434-0.364-0.917-0.549-1.451-0.648-0.146-0.091-0.315-0.147-0.497-0.144-1.052 0.013-1.93 0.364-2.547 1.239-0.142 0.201-0.164 0.448-0.107 0.68-0.188 0.354-0.313 0.74-0.358 1.178-0.086 0.844 0.5 1.646 1.093 2.171 0.15 0.132 0.311 0.203 0.473 0.233 1.099 0.509 2.332 0.54 3.364-0.179 0.1-0.069 0.186-0.153 0.257-0.245 0.065-0.059 0.127-0.122 0.181-0.194 0.474-0.627 0.611-1.438 0.513-2.204-0.004-0.024-0.010-0.046-0.014-0.070zM17.235 22.392c-0.12 0.492-0.601 0.863-1.24 0.611-1.515-0.598-0.141-2.679 0.954-1.593 0.288 0.285 0.364 0.66 0.285 0.982z"></path>
<path fill="#444444" d="M9.2 22c-1.032 0-1.032 1.6 0 1.6s1.032-1.6 0-1.6z"></path>
<path fill="#444444" d="M22.48 23.84c1.032 0 1.032-1.6 0-1.6s-1.032 1.6 0 1.6z"></path>
</svg>
