<?xml version="1.0" encoding="utf-8"?>
<!-- Generated by IcoMoon.io -->
<!DOCTYPE svg PUBLIC "-//W3C//DTD SVG 1.1//EN" "http://www.w3.org/Graphics/SVG/1.1/DTD/svg11.dtd">
<svg version="1.1" xmlns="http://www.w3.org/2000/svg" xmlns:xlink="http://www.w3.org/1999/xlink" width="32" height="32" viewBox="0 0 32 32">
<path fill="#444444" d="M28.976 2.529c0.217-0.461-0.008-1.154-0.678-1.171-7.484-0.188-17.168 0.392-24.653 0.105-0.236-0.009-0.415 0.071-0.541 0.197-0.256 0.104-0.456 0.334-0.456 0.694-0.004 8.9-0.38 18.016 0.867 26.854 0.040 0.283 0.191 0.448 0.382 0.523 0.126 0.158 0.32 0.266 0.586 0.265 1.434-0.007 3.496-0.097 4.93-0.105 0.307-0.002 0.519-0.148 0.64-0.348 0.207-0.12 0.356-0.335 0.356-0.648v-8.916c0-0.039-0.006-0.074-0.011-0.111 0.005-0.033 0.011-0.067 0.011-0.099 0-0.472-0.362-0.73-0.787-0.787-0.582-0.077-1.481-0.098-2.066-0.103-0.032-0.186-0.067-0.685-0.1-0.87 0.534-0.13 1.396-0.176 1.956-0.18 0.090-0.001 0.168-0.017 0.242-0.040 0.413 0.026 0.815-0.22 0.755-0.747-0.292-2.535-0.3-4.751-0.108-7.293 1.055-2.539 3.834-3.441 6.403-3.119v1.235c-4.608 0.171-5.491 4.693-4.483 8.653 0.025 0.099 0.066 0.181 0.114 0.252 0.056 0.339 0.305 0.64 0.749 0.64h1.939v1.262c-0.643 0.332-1.318 0.238-2.045 0.34-0.009 0.001-0.016 0.005-0.024 0.007-0.409-0.020-0.809 0.228-0.763 0.752 0.196 2.235 0.313 6.676 0.42 8.917 0.019 0.39 0.265 0.628 0.556 0.718 0.096 0.044 0.207 0.069 0.335 0.069 5.071 0.004 9.513 0.094 14.581-0.105 0.294-0.012 0.5-0.155 0.624-0.348 0.21-0.12 0.366-0.336 0.373-0.649 0.197-8.602-0.098-17.204-0.105-25.805 0.001-0.012-0.003-0.023-0-0.036zM27.521 27.814c-4.664 0.164-8.701 0.098-13.366 0.088-0.088-2.177-0.188-5.673-0.331-7.447 0.844-0.173 1.65-0.188 2.388-0.635 0.252-0.153 0.361-0.377 0.372-0.604 0.012-0.056 0.018-0.116 0.018-0.18v-2.413c0-0.51-0.397-0.763-0.792-0.761-0.063-0.016-0.13-0.026-0.204-0.026h-1.926c-0.709-3.052-0.308-6.551 3.606-6.399 0.399 0.015 0.638-0.22 0.723-0.511 0.162-0.126 0.273-0.32 0.273-0.59v-2.413c0-0.512-0.401-0.765-0.798-0.76-3.646-0.617-7.284 0.664-8.72 4.222-0.068 0.168-0.073 0.318-0.037 0.447-0.167 2.259-0.173 4.195 0.036 6.445-0.708 0.044-1.73 0.161-2.387 0.425-0.369 0.148-0.629 0.47-0.566 0.874-0.001 0.066 0.003 0.132 0.016 0.198 0.117 0.592 0.215 1.503 0.315 2.098 0.062 0.371 0.465 0.594 0.82 0.573 0.015 0.001 0.028 0.004 0.044 0.004 0.508 0 1.33 0.004 1.836 0.034v7.844c-1.075 0.020-2.779 0.068-3.853 0.086-1.131-8.342-0.787-16.957-0.764-25.36 7.11 0.229 16.189-0.261 23.187-0.139 0.015 8.3 0.283 16.598 0.113 24.896z"></path>
</svg>
