<?xml version="1.0" encoding="utf-8"?>
<!-- Generated by IcoMoon.io -->
<!DOCTYPE svg PUBLIC "-//W3C//DTD SVG 1.1//EN" "http://www.w3.org/Graphics/SVG/1.1/DTD/svg11.dtd">
<svg version="1.1" xmlns="http://www.w3.org/2000/svg" xmlns:xlink="http://www.w3.org/1999/xlink" width="32" height="32" viewBox="0 0 32 32">
<path fill="#444444" d="M18.57 9.312c-0.487-3.464-3.379-4.698-5.923-4.698-0.301 0-0.609 0.017-0.904 0.048-1.691 0.059-3.325 0.828-4.371 2.056-0.884 1.038-1.262 2.29-1.094 3.621 0.361 2.862 2.818 4.861 5.975 4.861 0.346 0 0.695-0.026 1.037-0.076 2.825-0.412 5.688-2.902 5.278-5.814zM13.635 13.807c-0.494 0.143-0.999 0.215-1.5 0.215-1.909 0-3.593-1.063-4.394-2.775-0.409-0.874-0.444-1.786-0.1-2.636 0.421-1.043 1.392-1.942 2.599-2.41 0.047-0 0.091-0.011 0.135-0.024 0.468-0.141 0.944-0.242 1.401-0.299 0.056-0.002 0.113-0.004 0.169-0.004h0.028c0.072 0 0.142-0.012 0.208-0.035 0.178-0.013 0.355-0.020 0.53-0.020 2.461 0 4.148 1.256 4.626 3.446 0.287 1.312-0.463 3.604-3.703 4.541z"></path>
<path fill="#444444" d="M16.639 16.099c2.721-1.38 4.106-3.264 4.353-5.911 0.216-2.316-0.853-4.732-2.861-6.486 0.269-0.656 0.456-1.254 0.57-1.827 0.039-0.197-0.007-0.388-0.132-0.54-0.13-0.158-0.334-0.257-0.534-0.257-0.192 0-0.354 0.088-0.451 0.243-0.584 0.473-1.263 0.88-2.132 1.279-0.771-0.168-1.575-0.253-2.39-0.253-3.607 0-6.94 1.635-8.701 4.266-1.109 1.657-1.283 3.92-0.454 5.907 1.227 2.943 3.691 4.082 5.94 4.806 0.109 0.035 0.219 0.041 0.323 0.019 1.057 0.22 2.033 0.271 2.998 0.157 2.037 1.633 4.672 4.893 4.242 7.137-0.196 1.025-1.017 1.761-2.439 2.188-1.54 0.462-3.432 0.233-4.842-0.583-0.86-0.497-1.342-1.13-1.431-1.88-0.199-1.68 1.565-3.636 2.634-4.653 0.26-0.247 0.231-0.571 0.085-0.791-0.087-0.224-0.274-0.368-0.516-0.396-0.756-0.088-1.508-0.267-2.296-0.545-0.072-0.025-0.145-0.038-0.215-0.038-0.314 0-0.521 0.246-0.576 0.504-1.905 2.239-4.571 6.467-1.314 9.871 2.058 2.15 5.235 2.472 6.946 2.472 0.476 0 0.959-0.024 1.436-0.070 2.596-0.253 5.71-1.595 6.662-4.604 1.183-3.738-2.174-7.476-4.902-10.013zM20.491 24.986c-0.079 2.483-2.625 3.887-4.981 4.374-0.673 0.139-1.372 0.209-2.078 0.209-1.853 0-3.664-0.489-5.098-1.377-1.010-0.626-1.743-1.571-2.065-2.662-0.652-2.21 0.94-4.472 2.432-6.212 0.329 0.101 0.662 0.188 0.995 0.26-1.61 1.682-3.35 4.128-1.436 6.68 0.966 1.29 2.776 2.027 4.964 2.027 0.485 0 0.966-0.036 1.437-0.109 2.046-0.317 4.121-1.764 4.144-4.282 0.029-3.106-3.158-6.050-5.061-7.527-0.156-0.121-0.34-0.158-0.509-0.104-0.054-0.007-0.111-0.009-0.173-0-0.885 0.12-1.813 0.062-2.837-0.179-0.066-0.016-0.135-0.020-0.201-0.015-1.895-0.632-3.788-1.525-4.838-3.728-0.833-1.747-0.685-3.684 0.406-5.315 1.399-2.090 4.332-3.44 7.474-3.44 0.773 0 1.516 0.083 2.209 0.246 0.132 0.031 0.262 0.022 0.382-0.026 0.099 0.004 0.196-0.015 0.289-0.057 0.357-0.162 0.706-0.339 1.041-0.529-0.043 0.107-0.085 0.21-0.128 0.31-0.031 0.072-0.048 0.145-0.051 0.219-0.060 0.253 0.026 0.497 0.231 0.657 1.825 1.42 2.788 3.452 2.712 5.721s-1.481 3.926-4.421 5.214c-0.138 0.060-0.24 0.157-0.297 0.28-0.189 0.246-0.161 0.548 0.073 0.759 1.923 1.732 5.504 4.956 5.387 8.607z"></path>
<path fill="#444444" d="M29.014 15.645c-0.11-0.338-0.188-1.008-0.194-1.364-0.005-0.333-0.29-0.483-0.546-0.453-0.043-0.012-0.088-0.021-0.139-0.021-0.555 0-1.108-0.009-1.66-0.058-0.096-1.051-0.191-1.122-0.287-2.173-0.028-0.314-0.298-0.464-0.543-0.452-0.043-0.012-0.089-0.021-0.141-0.021-0.74 0-1.145 0.008-1.879 0.105-0.344 0.045-0.491 0.38-0.439 0.64-0.030 0.080-0.041 0.172-0.018 0.276 0.181 0.822 0.017 0.668 0.183 1.493-0.649 0.046-1.276 0.182-1.876 0.466-0.216 0.102-0.273 0.29-0.229 0.464-0.002 0.017-0.005 0.032-0.005 0.050 0 0.61 0.014 1.232 0.228 1.81 0.081 0.22 0.267 0.316 0.453 0.32 0.070 0.020 0.148 0.027 0.234 0.010 0.396-0.078 0.792-0.139 1.191-0.171 0.003 0.748 0.018 1.512 0.104 2.256 0.035 0.306 0.299 0.456 0.54 0.451 0.044 0.013 0.091 0.023 0.144 0.023h2.211c0.253 0 0.4-0.164 0.443-0.354 0.027-0.062 0.041-0.136 0.030-0.225-0.088-0.764-0.102-1.215-0.104-1.982 0.647-0.057 1.295-0.070 1.946-0.070 0.444 0 0.563-0.498 0.363-0.772 0.019-0.074 0.019-0.157-0.012-0.249zM26.347 15.822c-0.028 0-0.054 0.011-0.080 0.018-0.245-0.011-0.499 0.14-0.499 0.456 0 0.79 0.005 1.265 0.073 2.053h-1.484c-0.057-0.718-0.063-1.454-0.063-2.174 0-0.046-0.007-0.087-0.017-0.126-0.007-0.231-0.158-0.456-0.457-0.452-0.521 0.006-1.037 0.071-1.549 0.16-0.064-0.314-0.078-0.633-0.081-0.956 0.52-0.196 1.074-0.252 1.63-0.257 0.027-0 0.051-0.004 0.075-0.008 0.272-0.011 0.557-0.242 0.487-0.591-0.188-0.942-0.047-0.904-0.251-1.843 0.494-0.040 0.657-0.049 1.153-0.051 0.091 1 0.182 1.020 0.273 2.019 0.004 0.048 0.016 0.090 0.031 0.131 0.032 0.21 0.18 0.413 0.443 0.448 0.626 0.083 1.253 0.101 1.882 0.104 0.030 0.216 0.080 0.76 0.139 0.97-0.57 0.008-1.138 0.034-1.706 0.1z"></path>
</svg>
