<?xml version="1.0" encoding="utf-8"?>
<!-- Generated by IcoMoon.io -->
<!DOCTYPE svg PUBLIC "-//W3C//DTD SVG 1.1//EN" "http://www.w3.org/Graphics/SVG/1.1/DTD/svg11.dtd">
<svg version="1.1" xmlns="http://www.w3.org/2000/svg" xmlns:xlink="http://www.w3.org/1999/xlink" width="32" height="32" viewBox="0 0 32 32">
<path fill="#444444" d="M12.848 1.629c-4.621 1.999-6.999 6.795-5.852 11.679 0.076 0.325 0.279 0.509 0.518 0.584 0.486 0.316 1.362 0.082 1.424-0.699 0.212-2.642 1.211-5.115 3.66-6.379 1.827-0.942 4.088-0.78 5.971-0.124 1.478 0.515 3.226 1.72 3.375 3.421 0.076 0.877-0.365 1.691-0.906 2.347-1.343 1.629-3.158 2.109-5.051 1.864 0.597-0.928 1.113-2.057 0.578-3.098-0.6-1.167-2.287-1.030-3.408-0.876-0.237-0.043-0.493 0.020-0.713 0.254-3.479 3.706-5.377 8.57-6.305 13.52-0.315 0.101-0.569 0.364-0.567 0.795 0.009 1.864 0.126 3.722 0.348 5.573 0.069 0.575 0.577 0.85 1.028 0.826 0.002 0 0.004-0 0.006-0 0.052-0 0.103-0.010 0.153-0.021 0.006-0.001 0.012-0 0.019-0.005 0.042-0.011 0.083-0.023 0.122-0.040 0.021-0.008 0.041-0.018 0.061-0.028 0.017-0.009 0.034-0.018 0.051-0.028 0.166-0.096 0.307-0.248 0.387-0.471 1.467-4.11 3.296-8.067 5.075-12.049 4.372 1.189 9.642 1.562 12.739-2.299 2.718-3.387 2.020-8.378-0.614-11.59-2.88-3.514-7.844-4.995-12.098-3.155zM24.064 15.476c-2.713 3.38-7.991 2.37-11.584 1.29-0.635-0.191-1.051 0.313-1.070 0.826-1.336 2.995-2.702 5.977-3.938 9.014 0.019-0.054 0.034-0.112 0.043-0.176 0.728-5.171 2.401-10.452 5.972-14.379 0.422-0.057 0.849-0.076 1.274-0.039 0.045 0.004 0.273 0.089 0.28 0.086 0.008 0.005 0.017 0.010 0.023 0.014-0.002 0.018-0.005 0.050-0.007 0.115 0.001-0.018-0.084 0.299-0.121 0.399-0.165 0.461-0.489 0.893-0.768 1.29-0.006 0.008-0.008 0.016-0.013 0.024-0.847 0.027-1.122 1.415-0.163 1.72 3.751 1.192 8.75-0.211 9.622-4.552 0.507-2.524-1.428-4.59-3.517-5.646-2.404-1.214-5.433-1.42-7.923-0.353-1.26 0.54-2.243 1.354-2.992 2.341 0.805-1.747 2.233-3.206 4.14-4.139 3.657-1.792 8.143-0.274 10.504 2.854 2.047 2.713 2.434 6.576 0.24 9.309z"></path>
</svg>
