<?xml version="1.0" encoding="utf-8"?>
<!-- Generated by IcoMoon.io -->
<!DOCTYPE svg PUBLIC "-//W3C//DTD SVG 1.1//EN" "http://www.w3.org/Graphics/SVG/1.1/DTD/svg11.dtd">
<svg version="1.1" xmlns="http://www.w3.org/2000/svg" xmlns:xlink="http://www.w3.org/1999/xlink" width="32" height="32" viewBox="0 0 32 32">
<path fill="#444444" d="M28.227 4.256c-1.016-1.085-2.589-1.616-4.015-1.61-0.733 0.004-1.46 0.229-2.066 0.663-0.46 0.329-0.84 0.811-1.176 1.27-0.728 0.992-1.553 2.446-1.423 3.782-0.096 0.055-0.159 0.161-0.133 0.315 0.022 0.132 0.049 0.26 0.081 0.388-0.603-0.052-1.228 0.152-1.799 0.324-0.691 0.208-1.372 0.458-2.040 0.737-0.012 0.005-0.024 0.011-0.035 0.017-0.102-0.818-0.33-1.62-0.666-2.355-0.794-1.736-2.174-3.079-3.889-3.764-2.34-0.936-5.229-0.5-7.155 1.206-0.036 0.032-0.063 0.068-0.083 0.106-0.045 0.028-0.086 0.068-0.119 0.123-0.767 1.286-1.070 2.824-1.147 4.321-0.073 1.42 0.090 2.96 0.723 4.236 1.187 2.392 4.166 3.431 6.585 3.315 0.881-0.043 1.747-0.272 2.531-0.668-0.083 0.128-0.086 0.299 0.070 0.416 0.526 0.395 1.052 0.789 1.559 1.211 0.198 0.164 0.397 0.327 0.583 0.508 0.094 0.092 0.194 0.188 0.306 0.259-0.761 1.139-1.191 2.559-0.836 3.907 0.178 1.716 1.060 3.236 2.15 4.49 1.005 1.155 2.268 2.132 3.776 2.35 2.896 0.418 5.352-2.049 6.25-4.739 0.455-1.363 0.562-2.85 0.148-4.24-0.43-1.444-1.457-2.496-2.681-3.232-0.031-0.019-0.064-0.037-0.095-0.055 0.403-1.384 1.118-2.704 1.235-4.163 0.001-0.015 0.001-0.030 0.001-0.044 1.401 0.027 2.801-0.495 3.739-1.637 1.715-2.091 1.416-5.513-0.377-7.43zM5.494 15.456c-0.088-0.058-0.173-0.118-0.258-0.181 0.005-0.031 0.006-0.065 0.003-0.102-0.087-0.83 0.801-1.015 1.369-1.293 0.368-0.18 0.676-0.413 0.888-0.785 0.301-0.526 0.284-1.104 0.276-1.693 0.006-0.036 0.007-0.077-0.001-0.122-0-0.049-0.009-0.092-0.023-0.129-0.14-0.74-0.387-1.459-0.366-2.222 0.015-0.547 0.158-1.105 0.425-1.575 0.252-0.444 0.686-0.683 1.175-0.618 0.593 0.080 1.018 0.469 1.25 1.036 0.228 0.558 0.27 1.203 0.198 1.8-0.081 0.675-0.379 1.257-0.616 1.88-0.241 0.632-0.367 1.298-0.024 1.914 0.246 0.444 0.717 0.708 1.141 0.924 0.357 0.181 0.721 0.349 1.058 0.571 0.229 0.151 0.467 0.349 0.373 0.651-0.048 0.155 0.008 0.27 0.104 0.334-2.126 1.277-4.945 0.94-6.971-0.39zM11.172 13.639c-0.399-0.202-0.871-0.472-0.934-0.983-0.080-0.647 0.369-1.344 0.587-1.92 0.436-1.15 0.431-2.586-0.194-3.66-0.595-1.022-2.068-1.427-2.965-0.603-0.532 0.488-0.79 1.224-0.897 1.939-0.053 0.359-0.064 0.729-0.033 1.090 0.052 0.62 0.272 1.22 0.375 1.831 0.004 0.59 0.059 1.151-0.342 1.624-0.209 0.247-0.58 0.359-0.86 0.482-0.61 0.268-1.163 0.634-1.305 1.268-0.269-0.285-0.505-0.604-0.7-0.95-0.411-0.732-0.567-1.624-0.649-2.458-0.181-1.846 0.084-3.894 1.022-5.494 0.001-0.001 0.002-0.001 0.002-0.002 2.167-1.919 5.529-2.087 7.876-0.423 1.68 1.191 2.723 3.213 2.849 5.326 0.11 1.843-0.581 3.611-1.948 4.725 0.098-0.954-1.235-1.463-1.884-1.793zM21.903 28.935c-1.344 0.462-2.769 0.12-3.897-0.738-0.543-0.413-1.052-0.903-1.503-1.449 0.080-0.020 0.151-0.079 0.19-0.191 0.171-0.484 0.749-0.458 1.164-0.473 0.527-0.020 1.106 0.005 1.582-0.273 0.536-0.312 0.764-0.986 0.719-1.599-0.049-0.67-0.383-1.29-0.592-1.912-0.191-0.57-0.23-1.186 0.123-1.699 0.294-0.428 0.773-0.668 1.267-0.71s0.963 0.176 1.246 0.602c0.341 0.513 0.378 1.084 0.129 1.64-0.433 0.97-1.344 1.984-0.745 3.117 0.26 0.491 0.856 0.423 1.29 0.58 0.526 0.191 0.793 0.747 0.959 1.29-0.105 0.154-0.089 0.414 0.091 0.53-0.584 0.576-1.268 1.026-2.022 1.286zM23.798 18.444c1.193 0.79 1.983 2.027 2.167 3.499 0.22 1.761-0.371 3.658-1.472 5.069-0.178-0.609-0.449-1.186-0.951-1.578-0.257-0.201-0.543-0.3-0.855-0.361-0.193-0.038-0.479-0.033-0.57-0.251-0.223-0.534 0.14-1.18 0.394-1.622 0.276-0.48 0.572-0.955 0.643-1.524 0.156-1.262-0.816-2.428-2.005-2.478-1.113-0.047-2.158 0.756-2.364 1.918-0.136 0.766 0.176 1.494 0.442 2.189 0.214 0.561 0.526 1.428-0.064 1.874-0.209 0.157-0.508 0.171-0.754 0.189-0.31 0.023-0.62 0.018-0.931 0.041-0.557 0.042-1.153 0.231-1.372 0.825-0.454-0.637-0.828-1.334-1.084-2.065-0.096-0.274-0.169-0.556-0.22-0.842 0.037-0.073 0.046-0.164 0.009-0.267-0.528-1.444 0.104-2.963 1.001-4.077 0.939-1.164 2.212-1.88 3.671-1.92 1.511-0.043 3.051 0.544 4.316 1.381zM23.097 17.012c-0.058 0.038-0.106 0.094-0.132 0.167-1.132-0.54-2.388-0.843-3.623-0.809-1.448 0.041-2.727 0.755-3.734 1.816-0.090 0.094-0.177 0.193-0.262 0.295-0.019-0.007-0.039-0.012-0.061-0.016-0.123-0.020-0.276-0.234-0.366-0.32-0.196-0.188-0.416-0.354-0.625-0.525-0.452-0.37-0.92-0.718-1.387-1.068-0.060-0.046-0.124-0.067-0.185-0.070 1.020-0.595 1.872-1.486 2.387-2.625 0.432-0.955 0.606-2.010 0.564-3.061 0.059 0.017 0.126 0.015 0.2-0.016 0.592-0.247 1.195-0.467 1.804-0.663 0.524-0.169 1.175-0.428 1.732-0.368 0.11 0.012 0.201-0.027 0.267-0.090 0.614 1.668 1.988 2.883 3.654 3.412 0.287 0.091 0.581 0.157 0.879 0.2-0.113 1.308-0.704 2.508-1.111 3.742zM24.781 12.626c-0.996-0.031-1.989-0.386-2.809-0.988 0.102-0.639 0.771-0.908 1.228-1.239 0.509-0.369 0.893-0.931 0.801-1.603-0.081-0.583-0.456-1.062-0.566-1.636-0.103-0.534 0.124-1.156 0.608-1.4 0.44-0.222 0.936-0.097 1.293 0.23 0.244 0.224 0.388 0.552 0.471 0.874 0.114 0.442-0.031 0.847-0.268 1.203-0.392 0.591-0.698 1.156-0.352 1.853 0.226 0.455 0.69 0.754 1.043 1.089 0.313 0.298 0.501 0.633 0.425 1.086-0.013 0.079-0.003 0.147 0.022 0.205-0.596 0.251-1.251 0.345-1.895 0.325zM27.375 11.912c-0.014 0.010-0.028 0.019-0.042 0.028 0.010-0.485-0.171-0.901-0.497-1.28-0.32-0.372-0.766-0.62-1.044-1.034-0.378-0.565 0.373-1.186 0.58-1.678 0.31-0.737 0.065-1.669-0.405-2.266-0.718-0.908-2.067-0.99-2.8-0.057-0.403 0.513-0.492 1.187-0.347 1.818 0.124 0.543 0.514 1.022 0.534 1.589 0.020 0.54-0.659 0.881-1.021 1.121-0.389 0.259-0.746 0.572-0.92 1.007-0.477-0.47-0.862-1.039-1.107-1.685-0.009-0.025-0.018-0.051-0.027-0.076 0.126-0.101 0.2-0.288 0.1-0.474-0.583-1.090 0.237-2.601 0.817-3.499 0.323-0.499 0.693-0.971 1.117-1.379 0.527-0.507 1.252-0.693 1.949-0.711 1.43-0.037 2.969 0.648 3.856 1.833 0.879 1.174 1.123 2.741 0.837 4.179-0.204 1.032-0.748 1.962-1.58 2.559z"></path>
</svg>
