<?xml version="1.0" encoding="utf-8"?>
<!-- Generated by IcoMoon.io -->
<!DOCTYPE svg PUBLIC "-//W3C//DTD SVG 1.1//EN" "http://www.w3.org/Graphics/SVG/1.1/DTD/svg11.dtd">
<svg version="1.1" xmlns="http://www.w3.org/2000/svg" xmlns:xlink="http://www.w3.org/1999/xlink" width="32" height="32" viewBox="0 0 32 32">
<path fill="#444444" d="M30.55 10.152c-0.526-0.26-1.056-0.515-1.575-0.789 0.391-0.623 0.736-1.271 1.045-1.942 0.175-0.38 0.111-0.823-0.275-1.050-0.261-0.153-0.646-0.128-0.885 0.069-0.879 0.274-1.731 0.619-2.57 0.993-0.216-0.306-0.466-0.597-0.757-0.868-3.95-3.675-10.372-0.303-12.11 3.701-3.403-0.152-6.275-1.884-8.628-4.012-0.101-0.092-0.211-0.146-0.32-0.177-0.404-0.182-0.943-0.094-1.048 0.413-0.475 2.291 0.173 4.452 1.792 6.125-0.323-0.010-0.646-0.023-0.97-0.044-0.14-0.009-0.258 0.013-0.359 0.054-0.527-0.107-1.159 0.244-0.928 0.824 0.632 1.585 1.755 2.812 3.239 3.567-0.16 0.002-0.32 0-0.483-0.006-0.1-0.004-0.186 0.010-0.266 0.032-0.483 0.078-0.894 0.532-0.556 1.012 1.048 1.489 2.494 2.592 4.255 3.283-1.036 1.036-2.504 1.409-4.129 1.29-0.064-0.004-0.123-0.003-0.179 0.004-0.122 0.002-0.246 0.028-0.366 0.091-0.342 0.18-0.518 0.638-0.277 0.949 0.031 0.040 0.065 0.076 0.097 0.115-0.664-0.066-1.325-0.164-1.987-0.298-0.718-0.355-1.61 0.525-0.927 1.086 1.337 1.1 2.841 1.919 4.515 2.537 0.162 0.060 0.306 0.065 0.432 0.036 9.306 2.272 17.664-4.208 20.362-11.914 0.25-0.714 0.449-1.483 0.572-2.27 1.139-0.388 2.256-0.83 3.373-1.276 0.792-0.317 0.591-1.489-0.085-1.536zM24.677 16.194c-2.861 6.558-10.349 11.696-18.368 9.509-0.090-0.025-0.173-0.031-0.253-0.029-0.342-0.133-0.676-0.279-1.002-0.437 0.655 0.038 1.314 0.047 1.976 0.025 0.9-0.029 0.985-1.167 0.252-1.357-0.018-0.010-0.034-0.021-0.053-0.029 1.559-0.329 2.902-1.16 3.794-2.494 0.275-0.412 0.019-0.8-0.356-0.957-0.072-0.054-0.157-0.1-0.261-0.131-1.303-0.394-2.424-1.047-3.32-1.933 0.913-0.075 1.812-0.247 2.702-0.476 0.897-0.231 0.595-1.422-0.238-1.366-0.082-0.034-0.173-0.058-0.276-0.066-1.906-0.14-3.444-1.051-4.35-2.463 0.779 0.031 1.559 0.035 2.34 0.036 0.885 0 0.983-1.092 0.295-1.337-1.664-1.163-2.683-2.724-2.754-4.518 2.53 2.010 5.557 3.476 9.030 3.498 0.205 0.001 0.365-0.058 0.486-0.15 0.184-0.070 0.34-0.208 0.414-0.428 0.919-2.703 4.014-5.068 7.301-4.59 1.293 0.188 2.375 0.802 3.052 1.81 1.556 2.315 0.601 5.566-0.411 7.884zM27.186 9.439c-0.054-0.219-0.117-0.436-0.194-0.647 0.241-0.107 0.483-0.209 0.726-0.309-0.129 0.209-0.263 0.416-0.403 0.619-0.080 0.115-0.118 0.228-0.13 0.337zM27.395 11.294c-0.002-0.389-0.025-0.777-0.081-1.159 0.053 0.062 0.117 0.121 0.2 0.17 0.339 0.2 0.687 0.384 1.037 0.562-0.384 0.147-0.77 0.289-1.157 0.427z"></path>
<path fill="#444444" d="M20.24 8.8c-1.032 0-1.032 1.6 0 1.6s1.032-1.6 0-1.6z"></path>
</svg>
