<svg xmlns="http://www.w3.org/2000/svg" viewBox="0 0 64 64" enable-background="new 0 0 64 64"><path d="M62.76 15.227c-2.133-5.52-10.89-4.732-22.565-4.282-11.676.45-26.382 1.577-26.72 1.577-.336 0-.336-1.465-.785-2.253-.45-.79-7.185.337-7.746 1.013s.337 3.83.337 3.83c-3.03.564-5.163 4.508-5.275 10.48-.112 5.97 2.245 20.73 2.92 24.787s3.928 2.366 22.34 1.69c18.41-.676 24.586 1.014 31.097.225 6.51-.79 6.062-2.366 6.736-9.24.672-6.87 1.795-22.307-.338-27.828zM58.1 26.382c.226.225 2.64 4.056 2.64 4.507 0 .45.055 3.83-.17 3.435-.224-.394-2.244-5.69-2.637-5.746-.393-.057-1.066.562-.898 1.013s3.65 6.873 3.592 7.38c-.056.507-.112 2.197-.337 2.084-.224-.113-3.03-6.93-3.48-6.873-.45.056-.842.282-.73.732.112.45 4.266 8.563 4.266 9.014s-.225 3.83-.505 3.662c-.28-.17-3.928-9.183-4.32-9.126-.394.056-1.068.62-.9 1.183.17.562 4.772 9.745 4.66 10.083-.112.338-.786 1.69-1.29 1.183s-4.155-9.69-4.435-9.69c-.28 0-1.235.9-1.01 1.296.225.394 4.098 8.225 3.985 8.45-.112.225-.898.394-1.01.17-.112-.226-3.368-7.325-3.76-7.38-.394-.057-1.068.28-1.01.62s3.255 6.647 3.03 6.703c-.225.056-1.516.394-1.796.056-.28-.337-2.694-6.31-2.975-6.365-.282-.056-1.348.45-1.124.676.225.226 2.863 5.41 2.526 5.41s-1.74.055-1.74.055-1.965-4.676-2.47-4.79c-.505-.112-1.235.114-1.067.508s1.965 4.17 1.796 4.225c-.167.056-1.627 0-1.627 0s-1.74-3.887-2.077-3.887-1.347.79-1.235 1.015c.113.225 1.46 2.76 1.236 2.817-.225.056-1.46.338-1.74.056-.28-.282-1.067-2.197-1.235-2.197-.167 0-1.234.226-1.122.564s.786 1.69.56 1.69c-.224 0-14.425.113-21.105.563-6.68.45-10.497 1.014-11.9.282-1.403-.732-1.964-1.126-2.974-12.28S2.25 17.82 5.953 17.227c.506-.08 2.358-.17 2.273-.93-.084-.76-.59-2.45-.168-2.704.42-.254 1.85-.676 2.104-.423.253.254 1.347 2.535 2.105 2.535.757 0 9.092-.845 15.07-1.183 5.978-.338 16.924-1.268 22.986-1.183s10.02 1.858 10.356 5.154.337 10.225.337 10.225-1.685-3.578-2.134-3.353c-.45.226-1.01.79-.785 1.015zM8.256 46.155c-.45 0-.786-8.62-.898-8.957-.112-.338-1.572-.056-1.684.225-.337.845.674 9.915 1.18 10.647.504.732 3.872.282 4.32.17.45-.114.394-1.578.45-1.973.056-.393-2.92-.112-3.368-.112zm.73-27.21c-3.705 2.704-.168 4.62 1.18 4.338 1.346-.282 2.3-1.408 2.132-2.76s-1.726-2.735-3.312-1.578zm12.518-1.464c.505.226 1.572.057 4.434-.112 2.863-.17 3.368-.958 3.2-1.296s-1.01 0-3.65.17-3.99-.07-4.153 0c-.393.168-.337 1.013.17 1.24zm36.766.057c-.618-.62-5.932-1.39-6.68-.79-.843.677-1.348 6.085-1.068 7.1.28 1.013 6.006.957 6.904.788.9-.17 1.46-6.478.843-7.098zm-2.695 5.07c-.505 0-3.256.507-3.48-.394-.225-.9.56-3.267.73-3.662.386-.903 3.48.057 3.65.62.166.564-.395 3.437-.9 3.437zM20.885 37.76c-1.18-2.027-.28-4.9-.112-5.407s-.995-1.046-1.123-.79c-.842 1.69-1.347 3.775-.393 6.142.954 2.366 2.863 3.21 3.03 3.267.17.056.394-.676.394-.958 0-.28-.616-.225-1.795-2.253zm17.12-14.195c-4.266-1.577-7.78-1.538-11.17.056-6.23 2.93-5.108 9.916-3.76 11.888 1.346 1.972 3.816 6.084 10.44 4.958 6.624-1.127 8.42-4.17 8.7-7.55.28-3.38.056-7.774-4.21-9.35zm.056 13.464c-1.627 1.126-6.68 3.21-10.44.675s-4.154-6.59-3.592-9.24c.56-2.647 3.93-4.055 6.848-4.224 3.893-.224 7.97.114 9.318 4.846s-.505 6.816-2.133 7.943zM31.44 26.606c-3.65.563-3.817 3.436-3.48 4.338.337.9 1.235 4 4.098 3.887 2.863-.113 4.49-.958 4.66-4.282.167-3.323-2.532-4.367-5.278-3.943zm3.48 4.17c-.225 1.69-1.235 2.59-2.92 2.534s-4.153-3.83.506-5.126c1.303-.362 2.64.902 2.414 2.592z"/></svg>