<svg xmlns="http://www.w3.org/2000/svg" viewBox="0 0 64 64" enable-background="new 0 0 64 64"><path d="M49.375 11C46.695 6.116 43.538 1.903 36.41.42c-7.13-1.486-13.254 1.196-17.37 4.595-4.114 3.4-5.836 7.71-6.028 11.635-.19 3.926 1.928 8.537 2.488 9.097.957.958 10.43.766 11.148.287.718-.48-.144-1.77.814-3.926.957-2.155 3.636-3.687 5.598-3.59 1.962.095 2.727 1.196 3.588 3.255s-.383 4.022-1.866 5.602-3.876 4.07-5.646 8.57-2.2 10.438-1.387 12.4c.812 1.964 2.2 2.06 3.875 2.203 1.675.144 6.316.335 7.8-.48 1.482-.813 1.53-1.675 1.865-5.026.335-3.352 1.196-5.602 2.488-9.336 1.292-3.735 4.88-8.475 5.98-11.778 1.1-3.304 2.297-8.044-.383-12.928zm-1.052 7.373c-.287 2.107-.813 3.59-.813 3.59s-2.392-6.99-3.158-7.133c-.766-.144-.766.575-.67.718.096.144 3.732 7.71 3.636 7.996-.096.287-.765 2.25-.86 1.915-.097-.336-2.345-5.986-2.824-5.986-.48 0-1.053.43-.86.718.19.287 3.205 5.793 3.013 6.368-.19.575-1.005 2.346-1.005 1.963s-1.866-4.644-2.25-4.788c-.382-.144-1.004.192-.717.48.287.286 2.536 5.218 2.392 5.505-.144.287-.718 1.293-.86 1.197-.145-.096-1.82-4.31-2.298-4.31-.48 0-.67.336-.623.48.048.144 2.25 4.884 2.153 5.22-.096.334-.86 2.393-.957 2.2-.096-.19-2.057-5.36-2.392-5.314-.334.048-.525 1.005-.525 1.005s2.584 5.075 2.536 5.41c-.047.335-1.53 3.35-1.96 5.89-.432 2.537-.72 4.164-.766 4.02-.048-.143-3.206-6.654-3.35-6.654-.143 0-1.1.43-.765 1.005.334.574 3.013 5.744 3.348 6.27.335.528.67.863.383 1.39-.286.527-.62 1.005-1.05.958-.432-.048-.815-.287-.815-.287s.67-.286.48-.62c-.192-.336-1.58-2.922-2.01-4.262-.432-1.34-.432-1.388-.814-1.388-.382 0-.717.48-.43 1.197.287.718 2.344 4.836 2.25 5.075-.097.24-1.436.383-1.436.144s-1.387-3.687-1.962-3.735-.766.72-.526.91c.24.192 1.627 2.874 1.244 2.826-.383-.048-1.866.096-2.297-.48-.43-.574-.91-2.25-.383-6.032.526-3.782 1.722-7.565 4.163-10.63 2.44-3.063 4.928-5.17 4.546-8.81-.384-3.638-2.49-6.08-5.216-6.128-2.727-.048-6.268.527-7.75 3.4-1.484 2.872-.91 4.643-1.388 4.69-.48.05-7.08-.143-7.08-.143-.384-.48-2.633-5.027-1.388-9.767 1.244-4.74 4.115-7.948 7.608-9.767 3.493-1.82 8.612-3.353 14.306-1.437s8.134 6.033 9.09 8.906c.955 2.872 1.338 4.117 1.05 6.223zm-3.828-7.086c-.287.144-.43.575-.43.766 0 .19.095.383 1.147 1.484 1.053 1.1 2.057 5.315 2.297 5.602.238.286 0 0 .286-.192.287-.192-.43-2.155-1.053-4.55-.62-2.393-1.86-3.305-2.248-3.11zm-6.364 21.21c-.334 0-.812.432-.812.767s1.866 4.5 2.057 4.596c.19.096.43-.096.526-.383.097-.287-1.466-4.98-1.77-4.98zM35.55 35.61c-.096.19 2.392 5.793 2.632 6.08.24.288.19-.047.43-.478.24-.43-1.914-6.11-2.152-6.13-.623-.047-.814.336-.91.528zM19.71 11.287c-.43.287-1.387 1.82-1.674 4.836s.375 4.4.718 4.596c.335.19.766.19.957-.48.192-.67-.67-1.58-.525-3.016.144-1.436 1.053-4.118 1.914-5.362.86-1.245-.96-.862-1.39-.575zM31.578 52.75c-1.483.288-5.598 1.342-5.933 4.454-.335 3.112.43 6.176 4.976 6.703 4.545.527 8.373-1.293 9.186-2.394.813-1.1 1.77-3.064.526-5.745-1.243-2.682-5.474-3.653-8.755-3.017zm6.794 5.842c-.573.048-1.147-2.585-1.72-2.633-.575-.05-1.34-.24-.815.478.526.718 2.01 3.59 1.675 3.735-.335.144-.766.766-.86.622-.097-.144-1.39-3.64-1.723-3.735-.335-.096-.957.287-.718.622.238.335 1.386 3.495 1.386 3.495s-.43.575-.67.19c-.24-.382-1.244-2.92-1.435-2.92-.19 0-.813.335-.717.575.096.24 1.435 2.873.91 2.873-.527 0-2.776.43-4.785-1.005s-1.053-5.362 3.78-6.368c1.895-.394 4.115.383 4.64.91.526.526 1.627 3.112 1.053 3.16zm-7.56-1.963c-1.578 1.052-1.578 2.49-1.195 3.494.383 1.005 1.1.958 1.53.814.432-.144-.143-.48-.334-1.388-.19-.91.48-1.676.67-2.346.192-.67-.387-.763-.67-.575z"/></svg>