<svg xmlns="http://www.w3.org/2000/svg" viewBox="0 0 64 64" enable-background="new 0 0 64 64"><path d="M50.913 41.12c-.222-3.742-3.685-4.887-4.262-4.843-.576.044-.71 1.277-.71 1.277s.623.132 1.333.352c.71.22 1.42.748 2.22 2.73.8 1.98.178 4.314-.488 7.044-.666 2.73-4.395 6.78-4.528 6.78s-.044-1.19-.044-1.54-.178-2.07-.8-4.095c-.62-2.025-2.352-2.51-2.352-2.51s.756-1.188 1.333-1.848c.577-.66 2.397-5.46 2.886-8.717.487-3.258.043-7.088-.49-12.46-.532-5.37-1.153-9.2-3.995-14.395-2.84-5.195-5.462-8.96-8.39-8.893C23.078.222 18.327 19.637 17.44 24.7c-.887 5.063.667 12.37.667 12.37s-.977-.13-1.288 0c-.312.133-1.954.75-2.887 2.51-.932 1.76-1.287 5.987-.488 9.686.8 3.698 2.62 5.503 4.35 7.176 1.732 1.673 3.286 1.1 3.64 1.013.356-.088.356-.616-.177-1.805-.533-1.19-.888-2.774.178-4.447s3.285-1.85 3.285-1.85l.18-.747.31-.044s.577 2.95 1.066 4.05c.488 1.1 2.753 1.057 2.753 1.057s-.667 1.232-.71 3.037c-.045 1.805.487 2.245 1.952 3.434 1.465 1.19 1.598 2.6 1.598 3.127 0 .528 1.02.836 1.376.704.355-.13.355-1.54.533-2.156.177-.616.93-1.32 2.618-3.874 1.687-2.553-.133-4.447-.133-4.447s2.13-.088 2.575-.792c.444-.703.266-4.666.266-4.842 0-.176 1.598-.616 1.598-.616s1.643 1.19 2.31 3.17c.665 1.98-.18 4.667-.18 5.063 0 .396 1.51.792 1.91.66.4-.132 2.753-2.774 4.528-6.384 1.774-3.61 1.863-4.887 1.64-8.63zm-29.48 8.145c-.576.308-.798.396-.798.396s-1.066-2.024-1.51-1.98c-.443.044-.93.616-.754.748.18.132 1.6 2.2 1.6 2.2s-.756.926-.667 2.29c.09 1.365.622 2.994.622 2.994s-.4.572-2.13-1.41c-1.732-1.98-3.42-5.106-3.375-9.993.044-4.888 2.264-7.265 4.13-5.9 0 0 .754 3.302 1.686 4.535.932 1.233 1.02 1.585 1.02 1.585s-.132.616.134 1.277c.266.66 1.643 2.377 1.643 2.377s-1.022.573-1.6.88zm14.163 7.704c-.888 1.232-2.264 2.73-2.575 3.213l-.31.484s-1.2-1.54-1.953-2.025c-.755-.484-1.288-1.365-1.288-1.85 0-.483.354-2.42.665-2.95.114-.193 4.706-.35 4.972-.175.267.177 1.377 2.07.49 3.302zm1.377-5.9c-.444.176-3.95.528-6.127.528s-2.175.132-2.397-.088c-.223-.22-1.155-2.774-1.022-3.082 0 0 1.91.44 4.928.176 3.02-.264 4.662-.837 4.795-.572s.266 2.862-.177 3.038zm1.598-14.704s-.62.176-.62.528c0 .352 2.885 5.195 2.885 5.195s-.488 1.32-.888 1.76c-.4.44-2.53-5.37-2.708-5.46-.18-.087-.667.353-.71.53-.045.175 2.885 5.546 2.885 5.546l-.355.748s-.444.044-.71.044-1.91-4.182-1.953-4.403c-.044-.22-.8.044-1.066.308s1.954 4.447 1.954 4.447-.755.22-1.066.22c-.31 0-1.554-3.39-1.554-3.522s-.71.132-.977.352c-.266.22 1.332 3.39 1.332 3.39s-.534.264-1.11.176c-.578-.088-1.11-2.818-1.2-3.038-.09-.22-.666.132-.888.264-.222.132 1.066 2.95 1.066 2.95s-.266.176-3.108.22c-2.84.044-4.706-.264-4.706-.264s-1.376-1.145-2.664-3.918c-1.287-2.774-2.753-6.736-2.62-13.956s1.067-9.686 3.82-15.893C26.36 6.384 30.134 2.554 32.22 2.42c2.087-.13 5.06 3.787 7.902 10.127 2.84 6.34 2.62 12.283 2.62 12.283l-.8-.396s-.444.484-.488.66c-.044.176 1.82 2.818 1.82 2.818s.044 2.994-.044 3.258c-.09.264-1.91-3.83-1.91-3.83s-.487.308-.443.836c.043.528 2.53 4.49 2.53 4.49s-.09 2.334-.222 2.82-2.886-5.548-2.886-5.548-.622.396-.666.704c-.044.308 3.374 5.81 3.374 5.81s-.31 1.454-.444 1.762c-.133.308-2.753-4.58-2.797-4.887-.045-.308-.756-.044-.89.396-.132.44 3.242 5.59 3.242 5.59s-.622 1.674-.8 1.85c-.176.178-2.75-4.797-2.75-4.797zm9.39 8.243c.466-.53.3-1.454.167-2.643-.133-1.19-1.165-1.98-1.332-2.014 0 0-.7.462-.766.66-.068.198.032.76.93 1.882.9 1.123.334 2.476.334 2.476s.2.168.666-.36zm-30.3-4.656c-.566.033-1.332.825-1.432 1.42-.1.594-.5 2.18-.1 2.608.4.43.5.1.666-.066.167-.165.266-1.75.566-2.278.3-.528.4-.297.832-.627s-.088-1.082-.532-1.056zm2.23 5.448c-.498.23-.765.495-.732.76.033.263 1.432 2.54 1.698 2.806.266.264.633 0 1-.462.366-.463-1.628-3.26-1.965-3.104zm3.497-18.194c.133-.396-1.032-.627-1.2-.33s-.3 2.014.234 5.25 1.6 5.644 1.9 5.778c.365.165 1.098-.396 1.198-.528.1-.132-.7-1.486-1.432-3.566s-.832-6.207-.7-6.604zm5.328-18.325c.533-.363.966-1.52 2.397-2.51s1.698.166 1.965.33c.266.166.3.265.9-.13.598-.397.132-1.223-.767-1.85-.9-.627-2.198-.396-3.396.825S27.496 8.29 27.45 8.52c-.067.33.732.726 1.265.363zm3.163 6.967c.6-.43-.136-1.212-.7-1.156-.665.066-.732 1.057-.3 1.354.434.297.4.23 1-.198zm-4.595 4.028c.5.033 1.165-.198 1.1-.958-.068-.76-.826-1.066-1.2-.76-.965.794-.4 1.685.1 1.718zm.666 3.07c-.567-.33-1.16.07-1.166.397-.033 1.453.9 1.585 1.432 1.255.532-.33.3-1.32-.267-1.65zm9.59 0c-.6.265-.867.992-.5 1.157.366.165.8.132 1.1-.33.298-.463-.23-.99-.6-.826zm1.763-5.15c-1.465-3.73-4.358-4.875-7.225-4.82-5.228.098-8.19 5.25-7.592 9.046s1.83 5.25 4.695 6.77c2.865 1.518 6.46 1.056 8.99-1.685s2.598-5.58 1.133-9.312zm-.6 3.83c-.165 2.642-.332 3.467-1.13 4.193-.8.727-1.6 1.09-1.6 1.09s.034-.99-.83-1.056c-.867-.066-1.133.693-.933 1.09.2.396.533.56.533.56s-.5.628-1.432.727-1.664-.065-1.664-.065.733-.297.766-.925c.033-.627-.4-.858-.966-.925-.566-.066-.932.726-.733 1.057.2.33.266.693.266.693s-1.932-.858-2.964-1.65c-1.032-.793-1.665-1.95-2.03-4.03-.367-2.08-.034-3.96.93-5.183.967-1.222 2.565-2.906 5.095-2.873 1.9.024 2.698.065 3.997 1.452 1.3 1.387 1.265 1.717 1.265 1.717s-.433-.496-.932-.034l-.5.464s-1.365-1.486-3.93-1.09-3.495 2.047-3.595 3.83c-.1 1.783.067 3.27 1.332 4.16 1.265.892 3.03 1.354 4.562.76 1.53-.595 2.363-1.586 2.63-2.94.265-1.354.332-1.783.132-2.245-.2-.462-.5-1.19-.5-1.19s1 .034 1.4-.725c0 0 .998.497.832 3.138zm-3.362.925c-.93 1.52-2.063 2.344-3.895 1.486-1.83-.86-3.197-3.072-.5-5.713.5-.488 2.432-.43 3.564.43 1.13.857 1.763 2.277.83 3.796zm-2.163-.363c-.366-.132-.6.066-.932.033-.333-.033-.333-.396-.4-.627-.067-.23-.513-.78-.733-.693-.766.297-.7 1.222-.067 1.915.633.693 1.3.76 1.798.528s.7-1.024.334-1.156z"/></svg>