<svg xmlns="http://www.w3.org/2000/svg" viewBox="0 0 64 64" enable-background="new 0 0 64 64"><path d="M59.73 1.158C59.383.744 49.68.708 46.23.744S42.81.537 40.497.57c-2.313.036-5.835-.103-8.32-.103S26.34-.19 19.712.053 5.97 1.02 5.04 1.193 3.035 2.333 3 3.126c-.035.794.488 12.233.552 12.393.138.344 5.455.93 6.077.586.622-.345.312-3.487 1.037-4.626s2.97-1.623 5.524-1.83 7.182-.69 9.496.76 3.142 4.418 3.142 6.972.035 10.77.035 17.226-.38 14.948-.483 17.917c-.104 2.97-1.38 4.453-2.728 5.006-1.347.553-6.387 1.313-6.87 1.624-.484.31-.174 2.037-.208 3.003-.035.967.035 1.588 1.105 1.76 1.07.174 6.56 0 13.706.07 7.147.07 11.394-.173 11.912-.45.518-.275.345-3.002.31-4.21s-.55-1.382-1.242-1.693c-.69-.31-3.315-.863-4.66-1.623-1.348-.758-1.727-1.83-2.21-3.9-.484-2.07-.52-10.39-.484-16.467s.07-19.09.414-20.99c.345-1.898 1.9-4.694 7.285-6.075s7.77 1.726 8.494 3.383c.725 1.658.483 3.695.898 4.006.414.31 2.14-.138 2.693-.207.552-.07 1.416.655 2.28 0 .862-.657.862-4.385.897-8.46.033-4.07.102-5.728-.243-6.142zM41.5 59.155c.172.07 1.38 1.553 1.38 1.692 0 .138.173 1.484-.07 1.52s-.69.24-.862.068c-.173-.173-2.037-3.28-2.037-3.52 0-.105 1.416.17 1.59.24zM57.52 13c-.036.586-.105.758-.208.758-.104 0-1.174-.07-1.174-.242 0-.173-.518-5.454-4.178-6.56-3.66-1.104-7.94-.62-10.738.83s-4.937 3.072-5.662 5.075c-.725 2.003-.898 14.535-.898 18.436s.104 12.53.31 17.088c.208 4.557.795 7.698 2.004 8.63s2.106 1.45 2.106 1.45-.587.794-.345 1.174c.242.38 2.003 2.865 1.83 2.9-.173.035-1.312.207-1.45.035-.138-.173-1.76-3.625-2.072-3.694-.31-.07-1.105.586-.932.862.173.276 1.9 3.003 1.726 3.003-.174 0-1.244.07-1.244.07s-1.968-4.247-2.244-4.282c-.276-.035-.898.45-.76.83.138.38 2.106 3.348 1.726 3.382s-1.14.173-1.277.104c-.137-.07-2.036-3.246-2.036-3.246s-1.07.45-.967.725 1.45 2.38 1.312 2.38c-.14 0-1.14.14-1.14.14s-1.485-2.21-1.795-2.14c-.31.068-1.036.38-.794.758.243.38 1.14 1.415.864 1.415-.276 0-7.18.035-7.56.035-.38 0-.9.207-.9-.07 0-.275-.413-2.692.105-2.83.517-.138 4.453-.656 5.73-1.346 1.277-.69 2.728-2.762 2.866-4.8.138-2.036.69-12.392.552-18.4s.07-13.704-.173-17.95c-.242-4.246-1.174-7.353-4.28-8.77s-8.495-.655-11.188-.206c-2.693.45-4.868.725-5.524 2.796s-.38 3.52-.587 3.52c-.207 0-2.693-.448-2.797-.62-.12-.2-.726-11.323-.484-11.53.242-.207 7.32-.967 12.67-1.208s9.496-.104 11.74.034 2.417.345 5.11.207 4.11.138 5.18.07c1.07-.07 4.04.103 8.32.206 4.28.105 9.08.415 9.184.52.103.103.103 9.872.07 10.46zM23.13 60.19c-.413-.034-.828.553-.828.83s.416.978.62 1c.622.07.692-.275.9-.758s-.277-1.037-.69-1.07zM52.72 3.886c-.656.276-.414 1.346-.07 1.484s2.245-.415 2.245-.415c.138.07.07 2.14.138 2.59s1.07.206 1.312.172.173-1.07.242-1.76.276-1.865-.07-2.314-3.14-.034-3.797.242zM7.766 3.713c-.414-.07-.873.2-.898.518-.035.45-.62 7.32-.45 7.872.174.552 1.175.035 1.348-.242s.242-6.8.276-7.112c.035-.31.14-.966-.276-1.035z"/></svg>