<svg xmlns="http://www.w3.org/2000/svg" viewBox="0 0 64 64" enable-background="new 0 0 64 64"><path d="M55.56 16.927c-.746-3.824-5.215-11.34-8.064-12.95-2.848-1.607-6.66-3.52-13.408-3.91s-11.173 1-13.934 2.043c-2.76 1.043-5.258 3.172-7.8 5.823s-4.557 7.56-4.338 12.688c.22 5.128 1.797 7.822 4.513 11.777s8.105 7.735 8.105 7.735c-.657 4.215 1.71 4.17 2.06 4.258.35.087.13.52-.132 1-.263.477-1.402 2.215-1.14 3.736.264 1.52 1.14 1.608 1.71 1.782.57.174.482.565.35 1.13-.13.565-.963 2.173-1.357 2.955s.482 1.477.79 1.695.174 1.043-.045 1.912c-.218.87.09.956.965 1.477.876.52 4.12 2.65 5.52 3.302s2.323.78 3.33.434c1.01-.348.57-.87 2.236-1.868 1.666-1 5.654-3.13 6.136-3.693.482-.565.7-2.086.13-3.26-.57-1.172.527-2.26.79-2.997.263-.74-.044-1.695-.482-2.216-.438-.52.482-1.434.92-2.564.438-1.13-.79-2.26-.964-2.477-.175-.218 0-2.347.175-2.956s.57-.826 1.577-1.304c1.008-.478 1.884-1.564 4.82-4.606 2.936-3.042 4.12-3.867 6.178-7.517 2.06-3.652 2.104-7.606 1.36-11.43zM39.623 47.315c-.175.695-1.548 1.448-1.548 2.202 0 .753.175 1.014.497 1.246.32.232.847 1.014.497 1.883-.35.87-1.14 2.55-1.14 2.55s-1.43-1.334-1.752-1.16c-.32.174-.613.985-.292 1.36.32.378 2.28 2 1.928 2.232-.35.232-1.344 1.072-1.52.782s-1.606-3.13-1.956-2.955c-.35.174-1.022.26-.79.87.235.607 1.754 2.49 1.52 2.664-.234.173-.76.49-.818.405-.058-.087-1.665-2.288-1.928-2.202s-1.11.463-.876.753c.234.29 1.636 1.883 1.402 2.115-.234.233-1.168.87-1.49.812-.32-.058-2.95-1.246-4.265-1.97-1.315-.724-1.577-1.072-1.256-1.072.32 0 2.658.406 3.593.377.935-.03.935-.637.7-.81-.233-.175-2.22-.464-2.89-.58-.673-.116-1.023-.145-1.053-.377-.03-.232.526-.956.38-1.304-.146-.348-.438-.985-.7-1.1-.264-.117-.82-.32-.468-.754.35-.435 1.343.116 3.913.52 2.57.407 4.645.35 5.317.32.672-.03 1.11-.232.818-.58-.292-.347-1.636-.984-2.92-1.187-1.286-.203-1.9.116-3.682-.116-1.782-.233-2.688-.175-2.6-.464.088-.29.876-1.477.35-2.173s-.817-.898-1.518-1.014-1.11-.146-1.11-.464c0-.32.73-2.057.993-2 .264.06.994.464 4.85.783 3.856.318 6.31-.03 6.427-.204s-.088-.753-.7-.724c-.614.03-3.886.116-6.4-.232-2.51-.348-3.037-.406-2.98-.695.06-.29.585-.55.38-1.13-.203-.58-.875-1.072-.875-1.333 0-.176 3.213.55 4.878.463 1.665-.087 4.85-.463 6.135-.753 1.285-.29 1.9-.29 2.016-.145s-.7 2.636-.174 3.302c.524.667 1.283 1.16 1.108 1.855zm-6.105-6.837c.262.348.35.58.29.666-.057.087-2.307.435-4.79.232-.262-.02-.7-.145-.497-.377.204-.233.672-.667.467-1.565-.204-.898-1.14-4.114-1.577-5.388-.438-1.275-.847-2.55-.7-2.636.145-.086.76-.29.963-.636.205-.348.876-1.593 1.373-1.246.496.348.875 1.71 1.985 1.825 1.11.116 1.43-.203 1.81-.84.38-.637.585-.637.76-.32.176.32.702 1.913 1.11 1.97.41.06 1.17-.26 1.257.088.088.35-.438 2.666-1.227 4.694-.788 2.028-1.49 3.187-1.226 3.534zm18.636-12.08c-1.052 1.594-1.957 2.724-2.337 3.014-.38.29-1.9-3.418-2.22-3.824-.322-.406-.76.058-.877.406-.117.348 2.22 3.505 2.425 3.824.205.32-1.052 1.477-1.227 1.477s-1.576-3.187-1.898-3.187c-.32 0-.818.492-.906.724-.088.232 2.103 3.13 2.133 3.418.028.29-1.082 1.16-1.316 1.188-.234.03-1.753-3.13-1.9-3.187-.145-.057-.817.55-.905.696-.09.145 1.81 3.13 1.87 3.244.057.116-1.053 1.362-1.345 1.564-.292.203-1.548-2.694-1.724-2.81s-.76.52-.963.724c-.204.203 1.607 2.926 1.636 3.13.03.202-1.11.694-1.11.694s-.964-2.433-1.198-2.665c-.234-.232-.818.232-1.14.52-.32.29.907 2.29.965 2.463.058.174-.672.58-1.753.898-1.08.32-2.6.406-2.834.377-.234-.03.35-.666.73-1.13.38-.464.79-1.767 1.344-3.39.555-1.62 1.753-5.822 2.016-6.922.263-1.1-1.198-1.535-1.607-1.39-.41.145-2.22 1.71-2.395 1.912-.174.203-.32-.203-.38-.348-.057-.145-.204-1.362-1.343-1.593-1.14-.232-2.6 1.072-2.687 1.217-.088.146-1.49-1.36-2.6-1.447-1.11-.087-2.54 2.288-2.54 2.288s-.293-.52-.585-.926-.818-.348-1.227-.058c-.41.29-.876 1.188-.7 2.404.174 1.217 1.547 4.606 2.38 6.648s.22 2.477.22 2.477c-.352.058-1.754-.608-3.214-1.362-1.46-.753-2.54-1.39-4.294-3.1-1.753-1.71-3.856-3.418-6.69-8.198-2.834-4.78-2.132-9.965-1.344-13.528.79-3.563 2.63-5.3 5.667-8.227 3.038-2.926 5.726-3.766 12.065-4.722s9.348.03 15.074 2.404 6.573 4.954 8.21 7.56c1.635 2.608 2.482 6.23 2.745 9.62.262 3.39-1.17 5.533-2.22 7.127zm-34.15.638c-1.05-.84-1.87-2.433-2.336-4.78-.467-2.346-.03-4.75.32-5.62.352-.87-.408-.927-.846-.87-.438.06-.906.696-1.285 3.216-.38 2.52.203 4.838 1.05 6.547.848 1.708 2.68 3.298 3.04 3.417.35.116.642-.29.817-.52.175-.232.292-.55-.76-1.39zm31.346-4.548c-.205-.03-1.108.446-1.022.753.146.522 2.19 3.42 2.454 3.564.263.145.438-.03.613-.348.175-.318-1.84-3.94-2.045-3.968zm.905-2.173c0 .435 1.81 3.215 2.074 3.418.264.203.614-.203.73-.463.118-.26-1.635-3.302-1.985-3.534-.35-.232-.818.43-.818.58zm1.402-2.23c.233.492 1.43 1.68 1.606 1.854.175.173.526-.378.7-.55.176-.175-1.167-1.942-1.43-2.174-.263-.232-.94.738-.877.87zm-1.315-3.245c.613-.753.03-3.245-2.045-6.634-2.074-3.39-4.703-3.737-5.17-3.737-.468 0-.872 1.12-.556 1.216 1.256.377 2.395.956 4.382 3.33 1.986 2.376 1.694 5.012 1.9 5.65.203.638.875.927 1.49.174z"/></svg>