<svg xmlns="http://www.w3.org/2000/svg" viewBox="0 0 64 64" enable-background="new 0 0 64 64"><path d="M63.454 34.62c-.414-.56-7.234-4.73-7.313-4.808-.078-.077.178-.25.67-.753.494-.503 3.45-4 3.687-4.405.237-.406-.177-.83-.434-.927-.256-.097-4.85-.058-9.363.116-4.514.174-9.974.367-10.23.232-.257-.135-1.164-3.09-1.5-3.67-.334-.58-3.153-.367-7.194-.367s-9.482.366-9.757.424c-.277.058-1.36 3.573-1.42 3.718-.06.145-5.854-.058-11.472.087-5.618.144-8.808.438-8.96.55-.56.414.326 1.13 1.982 2.365 1.656 1.236 5.007 3.708 5.066 3.863.06.155-.374.637-1.478 1.507-1.104.87-4.613 3.92-4.987 4.23-.374.31.02.58.178.753.158.174 1.4.04 4.928-.193 3.53-.232 7.49-.425 8.456-.425.966 0 6.76-.212 6.84-.174.08.04 1.557 1.564 2.7 2.434 1.144.87 3.115 2.395 4.515 3.226 1.4.83 2.287.85 4.238-.31s5.322-4.808 5.48-4.944c.158-.135.907-.04 3.272-.155 2.365-.116 10.31-.232 15.06-.328 4.75-.098 7.018-.252 7.412-.658.393-.406.038-.83-.376-1.39zM40.75 25.08c.045-.073.43-.117.37.013s-.28.39-.28.39-.133-.33-.09-.404zM19.345 35.856c-.163.058-1.198.174-1.153.1.045-.07 1.02-1.332.977-1.42-.044-.086-.28-.332-.34-.245-.06.087-.99 1.666-1.064 1.666-.074 0-.843.13-.784.043.058-.086 1.226-1.81 1.226-1.868s-.25-.348-.355-.275c-.102.072-1.108 2.072-1.21 2.072-.104 0-.77.115-.755.028.015-.087 1.39-1.87 1.36-2.014-.03-.145-.384-.26-.43-.232-.043.03-1.3 2.318-1.39 2.318s-1.004.014-.96-.014c.044-.03 1.508-1.94 1.493-2.014s-.31-.333-.458-.174c-.148.16-1.404 2.216-1.45 2.216-.043 0-.738.13-.738.03s1.345-1.812 1.257-1.957c-.09-.145-.46-.203-.504-.16-.044.044-1.138 2.174-1.257 2.174-.12 0-1.036.218-1.02.088.014-.13 1.315-1.956 1.315-1.956s-.37-.116-.503 0-1.094 1.927-1.212 1.927c-.118 0-.857.158-.798.028.06-.13.976-1.65.976-1.65s-.4-.117-.458 0c-.06.115-.857 1.737-.946 1.737s-7.806.42-7.717.304c.09-.117 3.888-3.434 4.894-4.332s1.123-1.23.96-1.448-1.11-1.072-2.84-2.216-3.69-2.728-3.685-3.052c0 0 5.125-.444 10.645-.502 5.52-.058 7.806.058 7.806.058s-2.05 5.968-2.05 6.8c0 .83.69 1.718.867 2.066.177.348.685.975.715 1.033.03.058-.252.782-.414.84zm19.086-.652c-.044-.03-1.3-2.622-1.464-2.636-.163-.015-.25.202-.237.29.014.086 1.433 2.606 1.433 2.606s-.488.782-.517.637-1.168-2.58-1.286-2.607-.237.203-.222.29c.015.087 1.227 2.607 1.227 2.607s-.473.768-.59.695c-.12-.072-.947-2.028-1.02-2.028-.075 0-.385.16-.326.26s1.034 1.884 1.004 1.97c-.03.088-.414.55-.444.494-.03-.058-.887-1.898-.976-1.912-.09-.014-.34.13-.296.232.044.1.902 1.985.902 1.985s-.65.955-.74.78c-.088-.173-.68-1.62-.797-1.694s-.325-.043-.296.087.843 1.87.813 1.927-.665.81-.738.694c-.074-.116-.473-1.84-.74-1.883-.265-.042-.236.19-.236.233s.68 1.825.62 1.912c-.058.087-.413.39-.457.304-.045-.088-.607-1.84-.725-1.884s-.325.174-.31.217c.015.043.724 1.927.606 2.072s-1.167 1.086-1.21.956c-.045-.13-.563-1.897-.74-1.955s-.43.217-.384.275c.044.058.843 1.782.77 1.825-.075.043-.445.203-.49.16s-.664-1.768-.71-1.783c-.043-.014-.383.03-.37.145.016.116.592 1.55.518 1.55-.074 0-.798.116-2.336-1.057-1.538-1.173-2.646-2.115-5.115-4.52-2.47-2.405-3.4-3.897-3.43-4.476-.03-.58 1.316-4.2 1.552-4.954.237-.753 1.7-5.2 1.878-5.49.135-.22 5.44-.493 9.358-.52 3.92-.03 5.752-.088 6.122.332.37.42 1.434 2.723 1.582 3 .148.274.207.694.133.593s-1.124-2.057-1.464-2.144c-.34-.086-.355.16-.25.247.102.087 1.788 2.622 1.817 2.665.03.043.547 2.535.488 2.448s-.872-2.086-1.45-2.78c-.576-.696-.738-.84-.842-.812-.103.03-.177.217-.103.275.074.058 1.45 2.26 2.01 3.143.563.884.607 1.014.607 1.014s.414 1.072.444 1.507c.03.435.148 1.014.03 1.405-.118.39-.384.724-.43.71-.043-.014-.975-1.825-1.55-2.94-.578-1.116-.548-1.247-.696-1.276-.148-.03-.31.1-.25.16.058.057 2.276 4.185 2.246 4.243-.03.057-.4.71-.444.65-.044-.057-1.745-3.447-1.878-3.49-.133-.043-.237.087-.222.13.015.043 1.878 3.578 1.863 3.65-.015.072-.325.42-.384.406-.06-.014-1.612-2.854-1.716-2.868s-.28.087-.266.16c.015.07 1.79 2.882 1.76 2.97-.032.087-.594.826-.638.797zm24.38.174c-.09.086-3.076.405-6.89.463-3.814.058-4.79.058-4.746 0s.77-.594.77-.666.03-.362-.045-.362-1.066 1.085-1.26 1.085c-.19 0-1.39.058-1.256-.014.133-.072 1.375-1.144 1.316-1.217-.06-.073-.384-.276-.473-.218-.09.058-1.227 1.405-1.404 1.42-.177.014-1.316.087-1.257.043.06-.043 1.76-1.52 1.656-1.65s-.414-.19-.488-.146c-.074.042-1.567 1.78-1.64 1.78-.075 0-1.405.088-1.376.044.03-.043 2.13-1.87 2.055-1.956-.074-.087-.296-.203-.414-.116-.12.087-1.982 2.043-2.07 2.043s-1.48.072-1.45.03c.03-.044 2.513-2.174 2.47-2.275-.045-.1-.238-.26-.356-.174-.118.087-2.513 2.506-2.75 2.52-.237.015-1.538.175-1.508.073s3.09-2.565 3.252-2.753.192-.217.074-.29-.355-.014-.458.058-3.164 2.984-3.356 3c-.192.013-1.242.086-1.212 0s4.406-3.927 4.42-4.173c.015-.246-.177-.406-.222-.39-.044.013-4.332 4.606-4.435 4.606-.104 0-.814.145-.755.014s1.878-2.274 2.5-2.955 2.734-2.26 2.675-2.434c-.06-.174-.148-.406-.31-.246-.163.16-1.715 1.825-1.76 1.666-.043-.16 0-.768 0-.768s1.997-1.536 1.908-1.738-.09-.39-.222-.377-1.67 1.738-1.685 1.666c-.014-.072-.206-.768-.147-.884s1.73-1.405 1.685-1.536c-.044-.13-.237-.42-.31-.348-.074.072-1.404 1.564-1.434 1.492-.03-.072-.34-.71-.25-.87.088-.158 1.7-1.42 1.655-1.52-.045-.1-.238-.42-.282-.406-.044.014-1.45 1.608-1.478 1.507s-.296-.55-.237-.78 1.404-1.058 1.27-1.363c-.132-.304-.28-.333-.354-.275-.075.058-1.006 1.304-1.05 1.173s-.297-1.072-.297-1.072 1.005-1.115 1.138-1.1 6.772-.247 10.823-.407c4.05-.16 6.298-.116 6.43 0s-4.272 4.838-4.346 5.157.28.652.62.84c.34.188 3.608 2.115 5.442 3.36 1.833 1.247 1.907 1.35 1.82 1.436zM23.35 22.094c-.31.03-1.225 2.766-1.168 2.868.09.16.4.03.547.043.147.014.9-2.245.975-2.36.074-.117.754-.146.93-.146s.075-.29.06-.39-1.034-.044-1.345-.015zm8.072 16.963c-.133.014-.325.246-.325.348s.65 1.796.695 1.87c.044.07.296-.204.34-.305s-.577-1.926-.71-1.912zm9.33-7.605c.236.362.102-.087.147-.13.043-.043-.622-1.55-1.036-2.13-.414-.578-1.892-3.215-1.98-3.186 0 0-.193.043-.075.304.117.26 2.704 4.78 2.94 5.143z"/></svg>