<svg xmlns="http://www.w3.org/2000/svg" viewBox="0 0 64 64" enable-background="new 0 0 64 64"><path d="M60.632 24.04c-1.125-.47-3.94 3.285-5.44 4.41-1.5 1.127-12.755 7.604-25.322 8.918s-20.913-4.41-21.288-4.693c-.375-.282 3.282-3.942 2.907-4.505-.376-.563-10.88-2.534-11.443-2.16-.563.376 4.066 11.72 4.502 11.546.468-.188 2.625-3.38 2.625-3.38s1.22 1.22 3.94 2.723c2.72 1.5 4.594 3.19 21.1 3.096 16.507-.094 30.668-10.606 31.606-11.826.94-1.22-2.062-3.66-3.188-4.13zM8.207 29.61c-.563.562-2.626 4.567-3.126 4.316-.5-.25-2.625-5.82-2.625-5.944 0-.395 6.314 1.064 5.752 1.627z"/></svg>