<svg xmlns="http://www.w3.org/2000/svg" viewBox="0 0 64 64" enable-background="new 0 0 64 64"><path d="M27.092 22.447c1.508.918 5.566.803 5.334-2.41-.232-3.21-2.983-4.38-4.754-3.21-2.783 1.835-2.087 4.703-.58 5.62zm15.888 2.065c3.247.574 7.538-1.835 7.422-5.735-.116-3.9-2.67-6.113-5.914-5.735-3.943.46-6.61 3.326-6.146 5.965.463 2.637 1.39 4.93 4.638 5.505zm14.843 7.112c-.348.115-13.22 5.39-19.946 6.31S23.15 36.67 17.7 33.917 6.682 23.48 6.682 23.48s2.32-1.49 3.13-1.835c.813-.344-.606-2.352-1.39-2.065C5.29 20.727.882 23.71.188 24.97c-.697 1.263.695 1.492 1.507 1.492s1.624-1.147 2.087-1.376c.464-.23 3.363 4.244 8.233 11.7 4.87 7.456 6.61 9.98 11.596 12.847s10.9.918 17.28-2.982c6.377-3.9 17.625-12.616 18.437-13.075.812-.46-1.16-2.066-1.507-1.95zm1.797-5.85c-.61.172-1.392 1.376-1.218 1.807s3.48 3.786 4 3.958c.523.172 1.132-.688 1.567-1.376.434-.69-3.84-4.532-4.35-4.388z"/></svg>