<svg xmlns="http://www.w3.org/2000/svg" viewBox="0 0 64 64" enable-background="new 0 0 64 64"><path d="M9.208 38.252c.425-.55 7.896-11.724 8.11-11.846.212-.122.303.123.728.49s7.835 6.857 8.686 6.857c.85 0 5.65-3.98 6.043-4.163.395-.184 1.002.796 2.946 2.786 1.945 1.99 4.192 4.07 4.192 4.07s.03.583.182 1.134c.152.55.91.582 1.184.704.273.122.152.52-.09.796-.244.275-.305.398-.244.765.06.367.425 1.286.486 2.08.06.797.486.95 1.397.644.91-.307.608-.89.638-1.47.03-.582-.73-1.07-.76-1.194-.03-.122.85-.49.942-1.01.09-.52-.94-.888-.94-.888s.03-.398.03-.95c0-.55-.942-.795-1.094-.825-.152-.03 7.593-7.653 7.593-7.653s1.883 5.51 2.156 6.398c.273.888 1.853-.092 2.096-.582.243-.49-1.944-5.755-2.49-7.102-.547-1.347-1.397-1.224-1.913-1.133-.516.093-8.564 8.297-8.807 8.297-.243 0-6.195-6.704-6.803-6.887-.608-.184-6.5 3.673-6.803 3.796-.304.123-8.716-7.194-9.323-7.255-.61-.06-1.034.49-2.522 2.91s-7.49 10.4-7.473 10.68c.06 1.01 1.428 1.103 1.853.552zM50.48 35.68c.334-.428-.364-.796-.698-.796-.334 0-.425.245-.73.337-.303.093-1.426-.917-1.973-1.1-.548-.185-2.973.737-3.068.887-.273.43-.152 1.01.273 1.286.425.275 1.822-.367 2.308-.55.486-.185 1.397 1.438 2.187 1.438.79 0 1.366-1.07 1.7-1.5zm-18.343-2.234c-.608-.184-3.91 1.107-4.07 1.347-.364.55.152 1.316 1.002 1.347.85.03 1.973-.826 2.338-.857.364-.03 1.944 1.347 3.432 1.56 1.488.215 2.004-1.162 1.822-1.438-.182-.275-1.52-.306-2.247-.398s-1.67-1.377-2.278-1.56zM9.542 24.232c.212-.184-.09-5.724 0-5.908.09-.184 2.49.123 2.703-.55.212-.674-.82-1.378-1.397-1.44-.577-.06-2.764.49-3.067 1.163-.303.674-.047 6.658.183 6.857.212.184 1.366.062 1.58-.122zM24.97 22.58c2.156 1.346 5.68.55 5.68.55s.363.673 2.46 1.04c2.095.368 5.8-1.04 5.8-1.04s1.032.582 2.793.643c1.76.06 3.735-.643 5.375-2.418 1.64-1.775 1.822-3.46 1.822-3.46s-.73 1.195-1.67 2.266c-.942 1.072-2.34 1.807-4.19 2.42-1.854.61-4.132-.89-4.405-.858-.273.03-.486.857-.486.857s-1.823.305-4.192.49c-2.37.183-3.37-1.807-3.462-1.838-.09-.03-.7.367-.972.582-.273.214.486 1.04.486 1.04s-2.247-.06-3.766-.856c-1.518-.796-2.493-2.31-2.764-2.51-.577-.43-1.032.275-1.032.49 0 .213.366 1.254 2.522 2.6zm20.803 18.06c.395.948 1.852.734 2.4.09.546-.642-.145-2.603-1.003-2.57-1.61.06-1.792 1.53-1.397 2.48zm17.16-22.01c.227-5.097-.047-4.73-1.914-6.245-1.87-1.515-8.84-1.056-11.07-1.102-2.233-.046-9.522-.597-9.522-.597S36.238 2.65 33.823.86 29.996.31 28.31 2.422s-4.464 8.77-4.464 8.77-14.67-.69-17.22-.46-3.553 2.986-3.6 4.042C2.983 15.83 2.755 29.19 2.573 31.9s-.774 16.3-.5 21.443 1.912 7.163 3.917 8.265 14.94 2.48 24.143 2.388c0 0 17.812-.413 23.87-.69 6.06-.274 6.88-2.065 8.02-4.728 1.138-2.663.773-8.495.91-15.612.136-7.117-.23-19.24 0-24.336zM29.282 3.968s.728 2.388 2.64 2.05c1.914-.336 2.582-1.5 2.582-1.5l3.675 5.97s-3.918.49-4.768.735c-.85.245-3.37.06-4.95.06s-2.582-.213-2.582-.213l3.402-7.102zm30.55 26.784c-.045 4.592-.045 19.147-.045 22.683s-1.14 6.107-2.37 6.52-5.92.46-9.93.69c-4.01.23-7.29.825-7.107.596.183-.23 2.37-3.305 2.05-3.626s-1.366-.55-1.548-.275c-.182.274-1.822 3.764-2.187 3.902s-2.232.505-2.004.092c.23-.413 3.235-4.27 2.962-4.638-.273-.367-1.23-.597-1.412-.413-.182.184-2.915 5.097-3.325 5.097s-2.597.23-2.55.092 3.142-4.408 2.778-4.867c-.364-.46-1.64-.138-1.64-.138s-2.278 5.097-2.688 5.097-3.417.367-3.37.046c.045-.32 2.87-4.316 2.64-4.638-.227-.32-.956-.413-1.138-.367-.182.046-2.915 5.143-3.098 5.143s-2.825.046-2.78-.138 3.052-4.638 2.78-4.867c-.274-.23-1.322-.367-1.55-.046-.228.32-2.37 4.546-2.688 4.546-.32 0-2.187.046-2.05-.275.137-.32 3.143-4.362 2.688-4.82-.456-.46-1.55-.322-1.686-.14-.137.185-2.232 4.868-2.46 4.868-.228 0-2.14.092-1.96-.46.183-.55 2.552-3.443 2.097-3.902-.455-.46-1.41-.69-1.502-.367-.09.32-1.686 4.132-1.96 4.178-.272.046-6.012-.69-8.2-2.204-.504-.35-1.64-4.315-1.366-10.88s.638-21.995.73-26.54.136-7.302 1.366-7.623c1.23-.32 15.397.092 24.19.46s17.812.458 21.502.642c3.69.183 6.15.09 6.47.87.32.78.41 11.11.364 15.702zM9.452 53.068c0-.43-1.477-.434-1.578-.092-.364 1.224-.668 3.643-.243 4.07.424.43 4.07.827 4.342.766.273-.06.547-1.07.516-1.408-.03-.337-3.128-.612-3.28-.673-.152-.06.243-2.234.243-2.662zM52 16.578c-.335.124-.457.92 0 1.44.455.52 2.67-.153 3.674.184 1.002.337.608 9.55.608 9.673 0 .123.06.153.425.06s.607-.917.76-3.03.576-5.63.15-7.315c-.425-1.684-5.49-1.058-5.618-1.01zm-1.975 30.643c.03-.336.91-2.478 1.124-2.632.21-.153 1.275.43 1.275.52s-.516.826-.79 1.47c-.273.642-.486 1.346-.364 1.56.122.214.548.49.973.337.425-.153 1.488-2.173 1.488-2.173s.396.306.73.43c.334.12.516-.185.76-.49.242-.307.12-.827-.153-1.378-.273-.55-.972-1.316-2.156-1.837-1.183-.52-3.674-1.07-5.74-1.01-2.064.06-3.886.674-5.04 1.47-1.154.795-2.34 1.53-2.34 1.53s-1.67-1.04-3.734-1.316-4.586.583-4.586.583-1.154-1.316-3.34-2.724c-2.188-1.41-6.136-1.164-6.136-1.164l-.03-.704s.12-.122.607-.184c.487-.06.882-1.07 1.094-1.622.212-.55-.06-.826-.638-1.04-.577-.215-.304-.46-.82-.644s-1.336 0-1.73.275c-.396.275-1.277.214-1.428.55-.152.338.608 1.44.91 1.868.305.43.274 1.53.274 1.53s-1.61-.03-3.28.185c-1.67.214-2.764.888-2.764.888l-.456-1.5s1.124-.918 1.306-1.867-.76-1.315-1.276-1.62c-.516-.307 1.276-1.53 2.4-1.807 1.123-.275 2.186.918 3.188 1.07 1.002.154.91-.49 2.156-1.07 1.245-.582 1.73.03 2.308.06.577.032 1.093-.274.91-.887-.18-.612-1.518-1.163-2.43-1.102-.91.06-1.76.826-2.793 1.133-1.03.306-1.67-.582-2.277-.765-.607-.184-1.792-.276-3.037.55s-2.187 1.93-2.34 2.39c-.15.458.457.764.457.764-1.397.826-1.458 1.622-1.276 2.48.182.856 1.063.764 1.063.764l.273 2.48s-2.976 1.866-3.98 3.09c-1 1.225-.89 1.35-.788 1.654.243.735 1.002.43 1.397.337.395-.09.486-.55 1.276-1.5.79-.948 2.217-1.897 2.612-1.866.395.03-.547 2.326-.668 2.94-.12.61.577.274 1.184.213.608-.06 1.58-3.857 1.944-4.285.364-.43 1.518-.612 1.822-.49.304.123-1.55 4.408-1.55 4.5 0 .092.76.306 1.185.153.425-.153 2.065-4.5 2.126-4.806.06-.307 1.184-.246 1.61-.093.425.153-1.306 3.58-1.336 3.95-.03.366.668.458 1.184.03.517-.43 2.066-3.95 2.066-3.95s1.184-.244 2.855.154c1.67.4 2.643.98 4.435 2.725 1.792 1.745 3.128 4.714 3.432 5.173.304.46 1.063.428 1.55-.46.485-.887-1.823-3.764-2.188-4.07-.365-.306 1.426-.826 3.4-.55 1.975.274 2.734.856 2.765 1.01.03.152-1.063 1.836-1.367 2.387-.304.55-.85 1.653-.182 1.99s1.245.06 1.55-.337c.303-.398.698-2.57 1.7-3.183 1.002-.612 2.855-2.357 2.946-2.418.09-.06-.273 1.133-.425 1.592-.152.458-1.215 2.51-1.215 2.876s1.002.43 1.336.214c.334-.214.364-.826.486-1.194s2.004-3.734 2.247-4.07c.244-.338.73-.276.88-.215.153.062-1.366 3.582-1.487 3.98s.12.857.82.673c.7-.184.608-.55.88-1.102.274-.55 1.155-3.09 1.49-3.397.333-.306 1.244.06 1.244.06s-1.58 2.725-1.58 3.4c0 .672.426 1.04 1.307.98.883-.065.67-1.105.7-1.442zm5.68 6.858c-.214.06-.365 1.99-.365 1.99s-.85.43-1.7.49-3.615.092-3.615.092c-.547.55-.73 1.44.638 1.622 1.367.184 4.464 0 5.65-.673 1.183-.674.88-3.185.79-3.52-.093-.34-1.186-.064-1.4-.002z"/></svg>