<svg xmlns="http://www.w3.org/2000/svg" viewBox="0 0 64 64" enable-background="new 0 0 64 64"><path d="M63.378 28.896c-1.717-6.628-9.026-6.183-9.026-6.183l.664-.668s1.717-2.228-.664-6.962c-2.38-4.734-8.25-2.395-8.25-2.395s-.444-1.56-3.822-3.453c-3.378-1.894-7.863.167-7.863.167s-2.547-2.228-5.37-2.395-6.757 2.785-6.757 2.785-1.883-1.337-4.32-1.058c-2.435.28-5.15 1.114-7.696 3.453-2.547 2.34-.388 5.848-.388 5.848s-3.71 2.117-6.48 4.4C.64 24.72-.413 28.283.14 33.352c.554 5.07 5.37 5.737 5.37 5.737-.885 4.232 3.545 5.736 7.532 6.404s8.804-.947 8.804-.947 3.93 3.063 7.918 4.177 11.35.557 11.35.557.444 2.62 1.884 3.287c1.44.668 3.378.89 4.596.947 1.218.056 2.658 3.063 2.77 3.342.11.28.885.11 1.44-.167.553-.28.33-.78.33-.78s.5.277.887.277c.39 0 1.33-.278 1.718-.724.388-.446-.61-3.12-.72-4.122-.11-1.002.443-2.784 1.55-4.176 1.107-1.392 4.098-3.732 5.703-6.127 1.61-2.394 3.825-5.513 2.108-12.14zm-15.006 22.78c-.22.168-1.107 1.17-3.267.224s-2.602-1.838-1.938-2.562c0 0 1.66.056 3.1.668 1.44.613 2.327 1.504 2.105 1.67zm12.736-17.154c0 .557-.388 1.838-.388 1.838s-3.267-6.405-3.6-6.35c-.33.056-1.107.613-.94 1.003.166.39 3.82 6.015 3.82 6.46 0 .447-.608 2.563-.996 2.285-.388-.28-3.212-6.238-3.544-6.238s-1.218.39-.775 1.058c.443.668 3.6 6.07 3.488 6.294-.11.223-1.107 1.67-1.55 1.448-.443-.223-2.547-4.4-3.1-4.567-.555-.167-1.053.835-.942 1.058.112.224 3.157 4.457 2.99 4.568s-1.383.947-1.383.947-2.492-4.344-3.045-4.122c-.554.223-1.218.11-.886.724.332.613 3.544 4.233 3.1 4.734-.442.502-2.657 3.79-2.657 3.79s-3.268-2.842-6.092-2.953c-2.824-.11-9.303 1.003-13.566-.223-4.264-1.225-8.03-3.955-8.86-7.408s1.218-7.408 2.436-8.633c1.218-1.225 3.544-1.838 3.932-1.838.388 0 .72.11.664-.28-.055-.39-.72-1.39-1.827-1.224-1.108.168-3.046.892-4.54 2.285-1.496 1.392-1.773 1.95-1.773 1.95s-1.163-4.178-1.66-4.234c-.5-.055-.998.502-.998.67s2.27 4.176 2.27 4.455c0 .278-.83 1.894-.83 2.618v.724s-2.382-5.29-2.66-5.29c-.276 0-.94.667-.885.89.056.223 2.77 5.626 3.047 5.848.277.223.11.947.11.947s.223 2.06.444 3.23c.222 1.17.72 1.56.72 1.56l-.774.056s-1.33-1.448-2.713-5.07c-1.384-3.62-1.66-3.842-1.938-3.842s-.83.557-.61 1.114c.222.557 2.216 4.4 2.714 5.904s1.383 2.172 1.162 2.172c-.22 0-1.107.334-1.44.056-.332-.28-3.1-6.684-3.655-6.907s-.83.39-.775.724c.055.333 1.218 3.452 1.883 4.566.664 1.114 1.384 1.727 1.052 1.727s-1.993.167-2.27-.223c-.277-.39-2.104-5.57-2.713-5.793s-1.052.78-.94 1.114c.11.335 2.546 4.234 2.048 4.234s-2.492-.613-3.045-1.28c-.554-.67-.277-1.45-.222-1.895s.277-1.895-.554-2.23c0 0-3.487-.667-4.54-3.007-1.052-2.34-1.108-6.127 1.107-8.745C6.622 22.6 10 20.372 11.66 19.928c1.662-.447 2.437-.39 3.434.11s2.77 1.392 4.43 1.448 3.156-.89 3.212-1.392c.055-.5-.775-.613-1.66-.668-.887-.056-1.33.28-2.99-.5-1.662-.78-2.382-1.505-2.382-1.505s.055-1.39.775-1.726c.72-.334 1.328-1.003.553-1.448-.775-.446-1.44.334-1.993.835s-.61 1.783-1.052 1.783c-.443 0-1.66.278-1.66.11s-.998-2.004-.056-2.95c.94-.948 2.436-2.563 4.817-2.396 2.38.167 3.93 1.448 6.09.668 2.16-.78 2.824-2.117 4.984-2.395s2.436-.5 3.433.78c0 0-2.935 2.618-2.16 5.013.775 2.395 2.492 2.785 3.544 2.952s1.44-.056 1.94-.5.608-1.06.165-1.17c-.443-.112-1.883-.39-2.27-1.616-.388-1.226.055-2.897 2.88-3.51 2.823-.613 4.373-.668 6.312.557 1.938 1.225 1.384 3.676 3.488 3.175 2.104-.5 3.433-1.28 5.26-.278s2.215 2.73 2.27 3.12c.055.39-.055 1.503-.055 1.503s-1.052-2.674-1.44-2.73c-.388-.055-1.274.224-1.052.614.22.39 1.938 3.4 1.55 3.788-.388.39-1.33.89-1.33.89s-1.882-4.4-2.214-4.455c-.332-.056-1.218.5-1.108.668.11.168 2.05 4.234 1.606 4.29-.443.056-1.218.557-1.274.11-.055-.445-1.107-4.12-1.606-4.232-.498-.11-1.163.223-1.163.668 0 .446 1.328 3.62 1.328 3.62s-1.772.724-1.606 1.727 1.717 1.337 1.717 1.337-1.718 2.73-.887 3.286c.83.557 2.492.78 2.492.167s.332-2.785 2.436-3.62 3.988-1.504 6.314-.334 3.488 2.673 4.098 4.733c.608 2.064.276 3.512.276 4.07zm-34.193-3.58c-2.367 3.092-2.16 8.23-1.993 8.523s2.326.71 2.492.376-.29-.75-.415-2.59c-.126-1.837.913-4.636 1.203-5.555.29-.92-1.288-.752-1.288-.752zM37.88 41.89c-.416-.167-1.33.543-2.036.167s-2.097-2.433-2.7-2.548c-.87-.167-1.08.543-1.12.835-.042.292.872 1.21 2.16 2.172 1.287.96 2.243.71 2.907.46.665-.25 1.205-.92.79-1.086zM9.1 26.056c-2.036.71-3.946 2.8-4.195 4.01-.25 1.21-.166 2.38.79 2.632.954.25 1.453-.46 1.41-.877-.04-.417-.373-.667.043-1.837.415-1.17 1.578-1.922 2.74-2.674s-.304-1.424-.79-1.254z"/></svg>