<svg xmlns="http://www.w3.org/2000/svg" viewBox="0 0 64 64" enable-background="new 0 0 64 64"><path d="M61.64 28.888c-2.014-.7-6.94-1.612-6.94-1.612s.09-.182 0-.67c-.09-.486-.39-2.34-.54-2.645-.15-.303-1.713-.73-4.236-.85-2.523-.123-5.677-.244-15.41.242s-20.156 1.338-23.1 1.612c-2.943.274-2.462.487-2.853.76-.39.274.602 4.167.602 4.167-4.025.062-8.47 1.248-8.86 1.46s-.3.58-.27.913.72.243 2.763.973S6.07 34.756 6.04 35c-.03.243-3.095 4.775-3.365 5.2s.15.61.33.76c.18.153 1.17-.18 4.476-.638 3.305-.456 6.25-.274 6.61-.547.36-.274-.21-1.855-.27-2.16-.06-.304 1.14-.395 3.724-.608s6.578-.335 14.328-.912c7.75-.578 17.753-1.004 17.753-1.004s-.3 1.643-.3 1.735c0 .09.12.852.48 1.034.36.18 1.803-.214 5.378-.03 3.575.18 5.437.85 5.827.85s.33-.242.18-1.003c-.15-.76-2.613-4.076-2.764-4.167-.15-.09.24-.243 1.292-.943 1.05-.7 3.214-1.795 3.995-2.312s-.062-.668-2.074-1.367zM9.952 39.248c-.28 0-1.902-.1-3.725.224-1.822.324-2.063.426-2.023.304.04-.122 2.463-3.812 2.784-4.38.32-.568.6-.608-.06-1.156s-4.647-2.11-4.687-2.454c-.013-.108 3.064-.75 5.066-.953 2.002-.203 2.242.06 2.242.06s.22 1.948.48 2.96c.26 1.015.26 1.197.18 1.197-.08 0-1.36.933-1.32 1.034.04.1-.18.345.16.182.34-.162 1.1-.852 1.22-.75.12.1.3.284.18.547-.12.264-1.6 1.46-1.52 1.52.08.062-.04.305.22.163s1.48-1.136 1.52-1.075c.04.062.342.204.18.467-.16.264-1.76 1.298-1.66 1.4.1.1 0 .364.24.18.24-.18 1.64-1.256 1.8-1.195.16.06.422.223.18.385-.237.166-1.178 1.342-1.46 1.342zm2.163-.85c-.06.122-.58.69-.72.69s-.902.12-.802-.02c.1-.143 1.16-.812 1.242-.853.144-.073.34.06.28.183zm38.85-4.34c-.14.02-1.042.304-.922.02s1.882-3.285 1.822-3.366c-.06-.08-.42-.182-.5 0-.08.182-1.483 3.346-1.683 3.386-.2.04-1.04.243-.96.04.08-.202 1.72-2.98 1.62-3.1-.1-.123-.3-.082-.4.06-.1.142-1.58 3.062-1.68 3.062-.1 0-1.022.182-.962.06s1.203-2.108 1.122-2.148c-.08-.04-.52-.04-.54.06-.02.102-1.042 2.09-1.122 2.09-.08 0-.9.304-.86.08.04-.222 1.2-1.865 1.1-1.925-.1-.06-.4-.06-.48.02-.08.08-.822 1.865-1.002 1.886-.18.02-.9.182-.84.04.06-.14.84-1.46.78-1.58-.06-.123-.46-.02-.5.06-.04.08-.682 1.582-.802 1.582s-.74.142-.68-.04c.06-.183.8-1.055.64-1.238-.16-.182-.42-.1-.46.02-.04.122-.702 1.318-.802 1.338-.1.02-10.413.75-12.956.953-2.543.203-6.668.243-10.093.507s-7.65 1.095-7.87.75c-.22-.345-.8-1.886-1.242-4.48-.44-2.596-1.14-5.456-1.162-5.618-.032-.265.12-.65 2.885-.81s9.893-.853 15.74-1.177c5.847-.324 10.593-.83 14.558-.83s7.55.263 8.79.465c1.243.203 1.743.1 1.883.547.14.446.38 3.366.26 4.765-.12 1.4-.54 3.366-.58 3.69-.04.324-.382.73-.522.63-.14-.102.2-.528.28-.71.08-.183.26-.508.2-.57-.06-.06 0-.14-.22.02-.22.163-.76 1.34-.9 1.4-.14.06-.522.203-.522.04s1.282-2.513 1.462-2.818c.18-.305.26-.346.16-.447-.1-.1-.14-.345-.42.04-.277.386-1.48 3.225-1.62 3.245zm6.908-1.54c-.62.445-.88.688-.46 1.175.42.487 1.76 2.332 2.102 2.94.34.608.54.852.4.852s-1.54-.304-2.442-.426-1.562-.163-1.422-.265c.14-.1.8-.284.68-.446-.12-.163-.22-.285-.38-.204-.16.08-.86.71-1.08.71-.22 0-1.663.162-1.383-.02s1.86-.71 1.74-.953c-.12-.243-.02-.365-.22-.284-.2.08-1.92 1.256-2.142 1.256-.22 0-1.18.02-.92-.142.26-.162 2.863-1.683 2.903-1.744.04-.06.02-.345-.2-.243-.22.1-2.763 2.028-3.143 2.028-.38 0-1.04.223-.82-.04.22-.265 4.164-2.414 4.044-2.657-.12-.243.06-.345-.2-.264-.26.08-1.04.79-1.08.588-.04-.203-.04-.568.12-.65.16-.08 1.442-.688 1.402-.89-.04-.204.1-.325-.16-.265s-1.08.83-1.06.608c.02-.223-.04-.67.1-.77.14-.102 1.46-.69 1.46-.853 0-.162-.1-.466-.2-.406s-1.02.73-1.08.67c-.06-.062-.16-.386-.02-.548.14-.162 1.442-.892 1.422-1.034-.02-.142-.06-.345-.24-.284s-1.08 1.034-1.06.75c.02-.284-.02-.79.12-.912.14-.122 1.28-.71 1.26-.852-.02-.142-.16-.406-.28-.365-.12.042-.98.792-.98.67s.06-.872.14-.973c.05-.063.92-.324 3.985.608 3.063.933 3.283.994 3.283 1.075-.004.084-3.568 2.11-4.19 2.557zm-46.92-5.05c-.26.203.243 2.09.4 2.25.08.082.36-.08.542-.14.18-.062-.24-1.32-.26-1.46-.02-.143 1.06-.325 1.722-.407.66-.08.4-.323.26-.587-.14-.263-2.403.143-2.663.345z"/></svg>