<svg xmlns="http://www.w3.org/2000/svg" viewBox="0 0 64 64" enable-background="new 0 0 64 64"><path d="M55.05 40.97s1.58-8.22 2.584-17.06 1.77-17.584 1.962-20.26c.19-2.676-1.053-3.44-8.04-3.632S39.11 1.165 27.813 3.65 10.726 7.903 8.62 8.572s-3.494 1.577-3.83 2.533c-.334.956 1.58 4.635 3.782 11.086s3.925 13.046 3.925 13.046c-2.872.287-9.956 3.536-11.727 8.6s-.766 9.94 5.935 11.852 12.732.19 17.28-2.198c4.546-2.39 4.93-6.5 4.067-10.083-.862-3.584-5.36-6.26-5.36-6.26s-.815-3.775-1.293-7.12c-.48-3.345-2.586-12.09-2.394-12.28.19-.192 2.106-.957 13.21-3.107s16.8-1.816 16.8-1.816.623 2.963.623 12.472-.86 13.954-.86 13.954-2.97.048-5.984.478c-3.015.43-7.132 3.823-6.988 9.223s2.776 6.595 6.557 8.316c3.78 1.72 9.62 2.246 13.737.24s5.504-5.21 4.212-9.606-5.265-6.93-5.265-6.93zm-31.257 1.625s-.957.526-.957 1.147-.19 5.16.096 5.448c.287.287.814.096.862-.765s.43-4.73.43-4.73 1.054.62.815 2.723c-.24 2.103 0 2.437-1.628 3.536s-5.12 2.628-5.12 2.485.67-7.264.286-7.694c-.383-.43-1.15-.334-1.292.096s-.19 7.98-.43 8.028c-.24.048-1.772.526-1.772.382s.766-7.885.622-8.17c-.144-.288-1.723-.192-1.723.38s.24 7.742-.048 7.838-1.962.382-2.01-.048c-.048-.43.48-7.216.24-7.502s-1.485-.096-1.485.573 0 6.93-.19 6.93-1.63.14-1.63-.24c0-.383.24-6.74.096-6.834-.144-.097-1.388.142-1.436.668-.048.526.287 5.734-.19 5.686s-1.34-.382-1.437-.765.48-5.066.24-5.353c-.24-.286-1.533-.047-1.533.287 0 .334-.287 3.918-.287 3.918s-2.154-2.34-.718-5.734c1.436-3.393 4.068-5.113 7.706-6.212 3.64-1.1 6.94-.382 8.57.19 1.626.575 3.923 3.73 3.923 3.73zM48.11 4.75c-.145.238.86 5.303.908 5.733.048.43-.814 0-1.244 0-.43 0-.957-5.16-.957-5.352 0-.19-1.244.05-1.627.288-.383.24 1.1 4.97 1.197 5.256.096.287-1.292.096-1.675.096s-1.244-4.78-1.244-4.78-1.388.097-1.675.43c-.287.335 1.34 4.493 1.34 4.684s-.574.048-.814.048-1.533-4.492-1.724-4.635c-.19-.143-.718.573-1.244.956-.527.382 1.34 4.062 1.34 4.062s-2.393.048-9.908 1.386-13.258 3.01-13.88 3.585c-.623.573.238 2.437 1.58 8.124 1.34 5.685 1.866 11.945 1.866 11.945s-.527-.43-1.962-.812c-1.436-.382-2.585-.143-2.585-.143s0-1.05-2.01-7.79S8.62 12.013 8.62 12.013s.67-.334 5.84-1.96S24.462 6.948 38.2 4.415s19.002-1.195 19.433-.86-.048.86-.096 3.202c-.048 2.34-1.244 11.85-2.01 19.735s-2.585 13.142-2.585 13.142l-1.005-.24s.335-2.532.574-5.733.528-7.98 0-13.907-.717-7.31-.908-8.267c-.19-.956-1.292-.67-1.292-.67s-.287-6.26-.383-6.498c-.095-.238-1.675.192-1.818.43zm8.71 48.597c-.718.765-1.82 1.434-1.82 1.434s.623-6.21.145-6.64c-.48-.43-1.723-.335-1.675.095.048.43-.096 7.263-.096 7.263s-2.01.765-2.01.43c0-.334.287-6.547.048-6.642-.24-.096-1.58-.143-1.627.478s.383 6.117-.048 6.164c-.43.048-1.77.382-1.675-.096.096-.478.574-5.64.383-5.782-.19-.143-1.15-.287-1.244-.048-.095.24-.19 5.543-.478 5.543-.287 0-2.106-.287-2.154-.62-.048-.335.527-5.974.287-6.118s-1.34-.334-1.436-.143c-.097.19-.05 5.304-.432 5.304s-3.35-1.147-3.686-3.966c-.335-2.82.144-7.55 9.19-8.076 3.89-.226 6.845 2.198 8.328 5.64 1.484 3.44.718 5.016 0 5.78zm-37.24-9.62c-.19.572.033 6.785.097 7.326.064.542.766-.127 1.053-.19.287-.065.447-6.978.064-7.392-.383-.413-1.182.165-1.213.256zM8.478 30.79c.32-.446-1.883-5.543-2.106-5.83-.222-.287-1.705.343-1.818.637-.16.413 2.202 5.988 2.36 6.084.16.095 1.246-.446 1.565-.892zM16.2 11.295c-.225-.16-5.09 1.318-5.49 1.53-.542.286.415 4.14.638 4.586.223.447 1.755-.158 2.01-.413.255-.255-.574-2.42-.383-2.93.19-.51 2.106-.51 3.095-1.148.99-.637.352-1.465.13-1.625zM62.37 4.828c-.606 2.04-.48 9.62-.447 9.908.032.287 1.18-.542 1.372-.67.19-.126.67-7.93.702-8.154.03-.223-1.528-1.42-1.628-1.084zM43.928 60.546c-1.085-.064-.893 1.18-.415 1.497.48.32 2.01.924 4.914.956 2.904.03 4.5-1.052 4.467-1.148-.032-.096-1.787-.032-4.308-.127-2.52-.096-4.27-1.156-4.658-1.18z"/></svg>