<svg xmlns="http://www.w3.org/2000/svg" viewBox="0 0 64 64" enable-background="new 0 0 64 64"><path d="M13.763 22.445c-1.595.674-2.907 2.91-3.474 4.683-.568 1.774-.39 4.86.034 5.357.425.497 1.453-.106 1.382-.64-.07-.53-.284-1.418.142-4.22s2.02-3.407 2.836-4.046c.816-.638-.626-1.26-.92-1.135zm45.323 9.745c.236-2.933.756-9.46-4.915-14.333s-12.098-3.88-17.675-2.08c-5.577 1.797-6.617 3.878-6.617 3.878s-.662-.662-2.127-2.034c-1.464-1.37-4.063-2.79-7.844-2.6-3.78.188-8.98 2.412-11.343 5.628-2.363 3.217-3.45 9.366-3.12 12.914.332 3.548 2.27 9.13 5.956 14.522s8.695 8.846 13.61 12.063c4.915 3.217 9.302 4.003 9.547 3.832 8.602-6.01 11.957-9.65 17.58-16.652 5.626-7.002 6.713-12.206 6.95-15.138zm-7.75 11.59c-.474.283-2.27-4.448-2.79-4.826-.52-.378-.944.378-.99.804-.048.426 2.315 4.305 2.882 5.11.567.803-1.276 2.222-1.654 2.506S46.42 42.55 46.09 42.17c-.33-.377-1.323.143-1.37.427-.048.284 3.213 4.73 3.45 5.25.235.52-1.797 2.177-2.033 2.177s-2.6-4.967-2.93-5.014c-.33-.047-.33-.095-.71.378-.377.473 2.742 4.73 3.073 5.203.33.474-1.75 2.366-2.032 2.65s-2.74-4.92-2.74-4.92-1.23.52-1.182.85c.047.332 2.977 4.21 3.166 4.637.19.426-1.276 1.514-1.56 1.656-.284.142-2.74-5.11-2.93-5.203-.19-.095-.803.33-.992.71-.19.378 3.12 5.156 3.12 5.298s-1.23 1.135-1.702 1.466c-.473.33-2.505-4.494-2.883-4.636-.378-.142-.898.426-.945.757-.047.33 2.836 4.21 2.836 4.494 0 .283-1.7 1.418-1.89 1.418-.19 0-2.552-4.59-2.74-4.59-.19 0-.71.38-.852.758-.142.378 2.93 4.305 3.025 4.54.094.237-1.088.71-1.277.805-.19.096-3.025-4.73-3.166-4.73s-.756.71-.756.9c0 .19 3.262 4.163 3.262 4.163s-4.064-1.75-8.27-4.447c-4.207-2.696-6.38-4.872-11.296-10.738-4.915-5.866-5.34-11.117-5.482-15.942-.142-4.825 1.607-8.278 4.49-10.312 2.883-2.034 5.104-3.075 9.783-2.365s6.427 5.013 6.664 5.392c.237.378 1.183.095 1.75-.095s1.04-2.13 1.7-2.602c.663-.473 2.79-1.892 7.28-3.217 4.49-1.325 9.357-.757 13.043 2.223s3.875 7.854 3.828 8.28c-.046.425-2.362-2.887-2.598-2.887-.236 0-.33.568-.378.9-.047.33 2.977 3.878 3.12 4.162.14.284-.096 4.02-.237 4.21s-3.355-5.63-3.497-5.724c-.142-.094-.803.663-.803.9s3.78 5.63 3.923 5.818c.142.19-.756 2.27-.992 2.365-.236.095-2.74-5.156-2.836-5.345-.095-.19-.898.378-1.087.9-.19.52 3.403 5.344 3.403 5.486 0 .142-1.134 2.13-1.37 2.365-.237.236-2.695-4.873-2.978-4.92-.284-.048-.803.756-.803.898s3.166 5.062 3.166 5.203c-.006.145-1.045 1.375-1.518 1.66zm.885-20.413c.143.07.71-.497.816-.85.106-.356-.532-1.243-2.623-2.91-2.09-1.667-4.34-1.65-4.537-1.56-.39.176-.78.815-.354 1.063.425.248 1.382.568 3.155 1.277s3.402 2.91 3.544 2.98zM32.16 11.695c1.417.142 2.587-.568 4.784-2.235 2.198-1.667 3.58-3.974 3.615-5.18.034-1.206-.78-3.832-3.12-4.222-2.34-.39-3.686 1.313-3.686 1.313S33.4.98 33.187.875c-.213-.106-1.418-.78-2.694-.816s-3.226 1.03-3.828 2.66c-.603 1.633-.532 2.84 1.1 5.642 1.63 2.803 4.283 3.324 4.394 3.335zm-3.687-9.437c.922-1.1 1.772-.958 2.942-.674 1.17.284 1.276 1.845 1.985 2.022s.32.177 1.312-.816c.992-.993 1.524-1.206 2.34-1.206.814 0 1.63.993 1.878 1.738s-.142 1.88-.354 2.058c-.213.177-.603-1.42-.85-1.455-.25-.035-.71.426-.745.816-.034.39 1.064 1.314 1.064 1.314S37.3 7.402 36.84 7.792c-.462.39-1.206-2.413-1.383-2.625-.177-.213-.496.106-.78.355s1.1 2.483 1.276 2.874c.177.39-.957.568-1.347.674-.39.106-1.24-2.413-1.347-2.59-.107-.177-.71.39-.887.64-.177.247 1.17 2.234 1.24 2.553.072.32-.602.355-.743.355-.142 0-1.347-2.91-1.49-3.193-.14-.284-.708-.07-.92.39-.214.46 1.38 2.98 1.38 2.98-.743.035-1.807-.85-3.26-3.087-1.454-2.235-1.03-3.76-.107-4.86zm-17.05 10.324c1.24-1.703 1.56-3.3 1.808-5.747.25-2.448-1.417-3.69-3.473-3.548-2.055.142-2.87 1.95-2.87 1.95s-.603-.815-1.986-.78c-1.38.035-2.8.64-3.65 2.874s.603 3.726 2.304 5.252 4.82 2.358 5.175 2.377c.673.034 1.453-.675 2.693-2.378zm-6.805-1.03C2.952 10.206 2.314 9 2.704 7.687s1.595-1.88 2.162-1.95 1.88 1.56 2.41 1.56c.532 0 .815-1.81 1.63-2.27.815-.462 1.737-.32 2.27.247.53.568.78 1.17.495 3.158-.283 1.988-1.31 3.3-1.488 3.37-.177.072-1.7-2.553-1.88-2.766-.175-.213-.565.107-.707.532-.142.426 1.88 2.838 1.914 3.087.034.248-.32.497-.568.603-.248.106-1.843-2.554-2.09-2.874-.25-.32-.887-.284-1.135.284s2.056 2.838 2.056 2.838c-.78.355-1.49-.603-3.155-1.95zm6.345-2.057c.213-.248-1.386-1.67-1.63-1.526-.603.354.744 2.128.886 2.27.14.142.53-.496.743-.745zm50.83 48.073c-.497-1.987-2.553-1.49-2.553-1.49s-.815-2.093-1.843-2.483c-1.028-.39-2.73-.035-3.58.887-.85.922-1.88 2.59-1.914 4.577-.035 1.986.922 3.866 1.1 4.08 0 0 1.878.212 2.94.14 1.064-.07 3.404-.496 4.68-1.383s1.665-2.342 1.17-4.33zm-1.703 2.945c-.142.106-.32-1.703-.32-1.88s-.92-.248-1.133-.07c-.213.176.07 2.057.284 2.624.214.568-.602.106-.814.106-.213 0-.142-1.845-.248-2.413-.106-.568-1.205-.248-1.382-.035-.177.213.496 2.52.532 2.732.035.213-.46.213-.815.213s-.284-1.88-.39-2.413c-.106-.532-.886-.78-1.382-.284-.495.497.143 2.767.143 2.767s-.496.142-.78 0c-.284-.142-.46-.85-.532-1.42-.07-.567-.105-2.518.604-4.08.71-1.56 2.446-2.2 3.367-1.24.923.957.533 2.34.64 2.518.105.177.708-.07 1.452-.07s1.028.212 1.24.815c.212.604-.32 2.024-.462 2.13z"/></svg>