<svg xmlns="http://www.w3.org/2000/svg" viewBox="0 0 64 64" enable-background="new 0 0 64 64"><path d="M62.86 35.42c-1.948-5.826-9.353-5.44-9.353-5.44s.292-1.975.098-3.756c-.195-1.78-1.608-7.463-7.405-9.1-5.797-1.637-10.084 1.733-10.084 1.733s-2.97-4.96-8.135-6.26-9.206-.384-14.03 1.782-8.086 5.634-9.06 10.93c-.974 5.296 1.754 7.992 1.754 7.992s-4.336 1.06-5.65 4.044c-1.316 2.985-1.316 6.018-.05 8.666 1.266 2.648 6.073 5.142 9.207 5.73 2.827.53 9.452.095 17.05 0 7.6-.097 15.15-.482 22.605-.242 7.453.24 10.18-1.204 12.227-4.718s2.777-5.536.828-11.362zm-1.412 5.393s-2.68-5.49-3.118-5.49c-.438 0-.877.58-.633.77.243.194 3.654 6.067 3.556 6.597-.097.53-.78 1.974-.925 1.733-.146-.24-2.63-6.114-3.118-6.114-.487 0-.682.53-.682.673 0 .144 3.215 6.692 3.07 6.885-.147.193-.975 1.78-1.22 1.444-.242-.337-2.97-7.126-3.506-7.126s-1.17.48-1.023.674c.145.193 3.945 7.03 3.555 7.174-.39.144-1.997.82-2.095.53-.097-.29-2.63-6.163-3.118-6.163-.487 0-.78.58-.73.723.048.144 3.02 5.633 2.727 5.633s-1.462.337-1.706.048c-.243-.29-2.63-5.68-2.97-5.826-.342-.144-.975.385-.975.385s3.02 5.68 2.532 5.777c-.487.096-1.413.193-1.608 0-.195-.193-2.533-5.392-2.826-5.44-.292-.05-.828.095-.828.384s2.387 5.007 2.095 5.007c-.292 0-1.656.434-1.705-.047-.05-.48-1.51-4.96-1.948-5.055-.438-.096-1.072.048-.926.433.146.386 1.608 4.527 1.413 4.575-.196.048-.683.144-.926-.048-.244-.193-1.85-4.14-2.095-4.19-.244-.047-.927.338-.83.627.098.29 1.706 3.66 1.56 3.66s-1.56.288-1.803.095c-.243-.194-1.413-3.323-1.656-3.37-.243-.05-1.168.047-1.022.53.146.48 1.315 2.936.974 2.936s-2.29.144-2.29 0-.68-2.36-.973-2.36c-.293 0-1.12 0-1.024.338.098.337.73 2.36.39 2.36-.34 0-13.202.047-17.245.24-4.043.193-4.87.24-7.014-.144-1.082-.194-5.018-1.493-6.966-3.563-1.948-2.07-1.56-6.692-.438-8.28 1.12-1.59 3.654-2.938 4.823-2.986 1.17-.047 2.144-.047 2.144-.047s-.1-.867-.488-1.01-3.02-2.456-2.923-6.453c.096-3.996 2.337-7.607 7.11-10.255 4.775-2.648 6.92-2.985 12.423-2.504 5.505.482 7.113 4.67 7.26 5.634s.242 1.252.73 1.78c.487.53 1.46.82 1.656.58.194-.242.048-2.65 5.114-3.323 5.067-.673 8.136 1.782 9.45 5.345 1.316 3.563.196 5.922 0 6.307-.194.385-.097 1.204.244 1.637.34.432 1.023.866 1.46.53.44-.338 2.29-1.3 4.288-.482 1.997.82 3.75 1.974 4.433 4.14.68 2.17.338 4.095.338 4.095zM6.692 37.635c-1.85.53-2.29 3.948-2.046 5.152.243 1.204.974 1.155 1.51 1.01.536-.143.098-.77.146-2.214.05-1.444 1.072-2.552 1.46-3.226.392-.674-.408-.91-1.07-.722zm7.21-16.995c-2.825 2.118-3.02 4.72-2.97 5.344.048.626.973.53 1.46.29.487-.242.633-1.445.828-2.168.195-.722 1.218-2.552 3.507-3.515 2.29-.962 1.803-1.203 1.46-1.684-.34-.48-1.46-.385-4.285 1.734zm28.206.914c-1.315.385-.73 1.204-.73 1.204s.243.53 1.85.963c1.608.434 1.802 1.3 2.143 1.686.342.385.83.385 1.267.096.438-.29.73-.53-.438-2.118-1.17-1.59-3.578-1.98-4.092-1.83z"/></svg>