<svg xmlns="http://www.w3.org/2000/svg" viewBox="0 0 64 64" enable-background="new 0 0 64 64"><path d="M23.495 30.206c2.913-.324 2.428-2.59 1.942-3.56-.486-.972-2.126-2.4-3.64-1.782-5.747 2.347-1.215 5.666 1.698 5.342zm7.2-4.128c3.966 2.833 7.526 1.862 10.116 0s2.914-5.585 1.215-8.823c-1.7-3.238-5.54-5.523-9.872-3.48-5.665 2.67-5.422 9.47-1.457 12.303zm3.966-10.2c1.84-.46 4.45.65 5.342 3.158.89 2.51.566 5.1-2.508 5.91s-4.29-.244-5.745-2.915c-1.458-2.67.322-5.503 2.91-6.15zm27.918 8.257c-1.78-1.943-3.832-2.85-5.098-2.428-2.428.81.566 2.347 2.508 3.48 1.942 1.133 1.78 3.238 2.023 3.642.244.404.89.08 1.538-.244.648-.323.81-2.508-.97-4.45zM6.34 36.035C1.97 37.166.27 42.184.028 44.127c-.243 1.943 1.133 2.59 1.942 2.428.81-.162.08-.89.566-3.885s3.56-3.722 5.18-4.855c1.618-1.134-.906-1.903-1.376-1.78zm50.088-6.962c-.566.162-2.185 2.51-3.722 3.966-1.537 1.456-6.878 5.908-12.3 8.822-5.42 2.914-9.872 2.995-17.155 2.995S8.694 41.722 8.28 41.7c-1.536-.08-1.456 1.62-.97 2.104.486.486.486.97 9.306 3.157 8.82 2.186 19.097-.808 19.906-.727.81.08 2.913 4.21 3.722 4.695.81.486 8.173-1.538 8.577-3.32.406-1.78-.727-6.88-.727-6.88s.89-.404 3.156-2.103c2.265-1.7 6.31-6.556 7.12-7.608.81-1.054-1.375-2.106-1.942-1.944zm-9.144 18.13c-.81.405-5.745 2.104-5.988 1.862-.243-.243-2.832-2.59-2.59-3.32.082-.242 7.607-4.37 7.93-3.884.325.487 1.458 4.94.648 5.343z"/></svg>