<svg xmlns="http://www.w3.org/2000/svg" viewBox="0 0 64 64" enable-background="new 0 0 64 64"><path d="M62.783 35.268c-.935-.82-7.067-3.607-7.327-3.914s3.118-3.99 3.767-4.707c.65-.716.65-.998.234-1.228-.416-.23-1.35 0-4.988.23-3.638.23-7.562 0-10.056.204-2.494.205-3.352.05-3.56 0-.207-.05-4.65-4.323-9.872-3.812-5.222.512-7.457 3.147-7.457 3.147s-1.533.076-4.235.204-4.08.077-6.47.05-6.208.154-7.715.23c-1.507.078-2.3-.004-3.412.027-1.247.035-1.536.11-1.68.376-.14.256.87.772 2.286 1.484 1.558.785 6.304 3.223 6.304 3.326 0 0-.572.563-1.61 1.5-1.04.94-4.93 4.29-5.11 4.572-.183.28.13.64.31.716.183.077.78-.026 3.275-.102 2.493-.077 8.08.05 10.99.05h7.248s1.69 1.613 3.196 2.43 4.157 1.28 7.716.666c3.56-.614 5.196-2.686 5.404-2.865.208-.18.312-.077 1.585-.18 1.272-.1 5.74-.587 10.73-.562s7.82.23 9.17.206 1.74-.153 2.286-.742c.546-.59-.077-.487-1.013-1.306zm-40.01 1.42c-.04-.026-2.495-3.8-2.625-3.8-.13 0-.312.244-.234.308.078.064 2.52 3.492 2.403 3.543-.117.05-.7.076-.74.025-.04-.05-2.09-3.16-2.208-3.16-.118 0-.287.282-.287.282s2.195 2.967 2.156 2.967c-.04 0-.91.064-.988.013-.078-.05-1.65-2.852-1.767-2.852-.117 0-.208.205-.208.205s1.663 2.61 1.585 2.648c-.078.038-.585.077-.65.038-.065-.038-1.598-2.84-1.728-2.852s-.3.064-.247.14 1.546 2.66 1.455 2.66c-.09 0-.56.078-.676.014-.117-.064-1.87-2.8-1.975-2.814-.103-.013-.337.153-.22.345.117.19 1.728 2.43 1.624 2.455s-.987.064-1.026.026c-.04-.037-1.273-2.39-1.585-2.544-.312-.153-.364.166-.364.166s1.623 2.302 1.48 2.315c-.143.013-.96.102-.974.013-.013-.09-.377-.82-.96-1.6-.586-.78-.508-.843-.65-.843s-.404.064-.326.192c.078.127.857 1.137 1.195 1.636.338.5.455.665.286.678-.168.013-.765.026-.882-.038-.117-.064-.805-1.19-1.3-1.74-.493-.55-.48-.6-.662-.6-.182 0-.286.165-.182.255.104.09 1.65 2.048 1.494 2.086-.156.038-.7.14-.83.026-.13-.115-1.495-2.162-1.65-2.2s-.34.115-.248.256c.09.14 1.48 1.92 1.35 1.92s-.895.076-.986-.027c-.09-.1-.533-.97-.883-1.406-.35-.435-.376-.524-.61-.473-.232.05-.284.165-.154.28.13.115.52.486.818.972.3.486.48.563.35.6-.13.04-.96 0-1.05-.076-.092-.077-.767-1.33-1-1.38-.235-.052-.47.204-.378.255.09.052.974 1.152.87 1.165s-.662.025-.766-.026c-.104-.052-.676-1.165-.844-1.216s-.39.205-.3.28c.092.078.87 1.01.664.986-.208-.026-.857.038-.96-.038-.105-.077-.274-.742-.547-.844-.273-.102-.43.09-.377.14.052.052.61.692.48.704-.13.013-2.675.153-2.623.026.052-.128 2.637-2.47 4.456-3.94 1.818-1.47 2-1.74 2.013-2.008.013-.27-.43-.588-.896-.83s-2.48-1.395-3.65-1.92c-1.17-.524-2.09-.92-2.338-1.074-.248-.153-.74-.486-.625-.5 0 0 4.534-.255 7.872-.32 3.34-.063 8.223-.025 9.95-.1 1.73-.078 2.47-.09 2.47-.09s-1.482 2.097-1.612 4.003c-.13 1.905.208 3.478.922 4.808.714 1.33 1.13 1.83 1.13 1.83s-.196.076-.235.05zm16.848.358c-1.064 1.074-2.61 2.29-5.208 2.827s-5 .358-6.6-.46c0 0-1.922-.883-3.195-2.315-1.273-1.433-2.17-2.827-2.61-4.848-.443-2.02.168-4.31 1.467-5.73 1.3-1.42 3.26-2.852 5.573-3.223 1.844-.296 2.585-.473 4.87-.14 2.287.332 3.508 1.227 4.82 2.11 1.313.882 2.067 1.393 2.612 3.17.545 1.78.65 3.442.402 4.606-.247 1.164-1.066 2.93-2.13 4.003zm1.287-.09c.09-.09.455-.55.494-.65 0 0 .39.536.352.55-.04.01-.936.19-.845.1zm20.993-.46c-.507.013-3.78-.128-5.534-.153-1.754-.026-2.74-.026-2.754-.064-.013-.04-.455-1.242-.61-1.267s-.365.05-.326.14c.04.09.624 1.1.546 1.1-.078 0-1.065.078-1.13.014-.065-.064-.792-1.407-.935-1.445-.143-.038-.364.077-.364.153s.844 1.305.753 1.317c-.09.013-1.286 0-1.286 0s-.727-1.394-.857-1.433c-.13-.04-.377.14-.364.178.012.038.908 1.254.74 1.266-.17.013-.975.077-.988.038-.013-.038-.844-1.7-.948-1.714-.104-.013-.48.243-.43.28s.95 1.446.87 1.446c-.077 0-.986.09-1.025.026-.04-.064-1.13-1.944-1.183-1.944s-.325.166-.286.217c.04.05 1 1.752.936 1.752s-.624.128-.69.038c-.064-.09-1.324-2.48-1.506-2.533-.182-.05-.403.18-.338.256.065.077 1.468 2.302 1.325 2.302-.143 0-.56.128-.69.102-.13-.026-1.48-2.38-1.61-2.38-.13 0-.416.308-.325.398.09.09 1.507 2.034 1.442 2.034s-.702.09-.818.026c-.117-.064-.948-1.458-1.065-1.458-.116 0-.337.28-.285.333.052.05 1.026 1.126.91 1.164-.118.038-.69.14-.78.077-.09-.064-.7-.92-.7-.92s.947-1.664 1.077-2.725c.13-1.063.182-2.303-.156-3.813-.338-1.51-.792-2.57-.792-2.57.117-.014 4.664-.257 7.716-.27 3.053-.013 5.82-.166 7.145-.217s1.676-.115 1.767-.05c.09.063-.753.958-1.74 2.07s-2.482 3.11-2.34 3.263c.144.153 2.586 1.6 4.69 2.558 2.105.96 3.534 1.677 3.6 1.932.065.257-.156.46-.662.474zm-19.226-8.762s.676 2.213.792 2.277c.117.065.338-.152.364-.204.026-.05-.766-2.162-.805-2.2-.04-.038-.273.04-.35.128zm-2.274 5.32s-.104.82-.338 1.55c-.234.728-1.117 1.815-1.117 1.815s.43-.193 1.104-1.267.61-1.83.61-1.93c0-.104-.26-.168-.26-.168zm-13.627-7.673c-.17-.025-1.026.487-1.754 1.318s-1.087 2.048-1.066 2.123c.065.23.43.282.48.206.053-.077.404-1.1.832-1.867.43-.768 1.61-1.42 1.754-1.498.143-.076-.078-.255-.247-.28zM9.25 29.347c-.092.05-.118.27-.027.37.09.103 1.247.807 1.312.884.065.077-.416.87-.533 1.023-.117.153.22.27.286.27.065 0 .87-1.14.83-1.33-.037-.194-1.767-1.274-1.87-1.217z"/></svg>