<svg xmlns="http://www.w3.org/2000/svg" viewBox="0 0 64 64" enable-background="new 0 0 64 64"><path d="M44.2 50.234c-1.533-4.598-3.232-9.69-4.34-13.397-1.11-3.707-2.597-8.517-5.145-15.86-2.55-7.343-5.522-13.702-5.947-14.875s-.425-1.994-1.463-2.088c-1.038-.094-6.372.282-6.89.422-.52.14-1.134 1.502-2.502 5.255-1.37 3.755-6.985 19.99-9.203 26.466-2.22 6.477-5.57 16.284-6.372 18.02-.802 1.736-1.982 2.956-2.265 3.378s.33.563.755.61c0 0 1.298.094 3.8-.024 2.5-.117 5.45-.07 6.182-.47.732-.398 4.65-12.504 4.838-12.762.19-.258.236-.14 1.227-.07s17.392-.117 17.534-.047 2.17 6.1 3.208 9.34c1.038 3.237 1.062 3.917 1.062 4.128s.4.282 2.1.493c1.7.212 4.27.33 4.86.19.59-.142.733-1.29.71-1.714-.025-.422-.615-2.393-2.15-6.992zm-.683 7.25c-.165 0-.378.164-.425.023-.047-.14-2.407-3.918-2.572-3.918s-.66.703-.566.867c.094.164 2.053 2.792 1.91 2.84-.14.046-1.722.116-1.816.093-.094-.024-2.926-9.056-3.847-11.52-.92-2.463-1.084-2.722-1.51-2.722s-3.75-.352-8.022-.094c-4.27.258-8.85.47-10.053.446-1.204-.023-2.596-.164-2.714-.094s-.306.563-.306.563-1.817-3.215-2.218-3.24c-.4-.022-.637.822-.59.893.047.07 2.5 2.886 2.43 3.12-.07.235-.66 1.947-.73 1.97-.072.024-1.983-3.026-2.29-3.05-.307-.023-.897.634-.755.87.143.234 2.408 3.143 2.36 3.565-.046.422-.613 1.736-.754 1.736S9.11 46.268 8.85 46.268c-.26 0-1.037.375-.778.915.26.54 2.383 3.543 2.383 3.683s-.496 2.088-.59 1.924c-.094-.164-2.077-3.496-2.313-3.45-.236.048-.684.494-.52.94.166.446 2.337 3.355 2.314 3.613-.024.258-.26 1.666-.425 1.642-.164-.023-1.98-3.214-2.288-3.285-.307-.07-.85.328-.802.727.047.4 2.454 3.566 2.36 3.707-.094.14-1.25.21-1.487.07-.236-.14-1.062-2.065-1.274-2.065s-.803.257-.615.61c.19.35.967 1.43.78 1.454-.19.023-2.738.047-2.738.047-.448.048-.897.07-.78-.093.12-.164 1.44-1.22 2.69-5.138 1.252-3.92 3.706-10.887 5.38-15.72 1.677-4.833 3.163-9.385 6.632-18.84s4.105-11.12 4.317-11.19c.212-.07 4.79-.634 5.357-.165.566.47 4.72 12.106 5.805 15.274 1.085 3.166 3.657 10.956 4.34 12.81.685 1.852 2.22 7.46 2.715 8.89.496 1.432 3.847 11.85 3.894 12.013.046.164-.025.375-.095.328-.07-.046-2.313-4.27-2.5-4.363-.19-.094-.85.493-.71.633s2.644 4.035 2.904 4.317c.26.282.85 1.337.85 1.337s.022.59-.143.59zM29.924 28.837c-2.383-5.654-4.224-9.97-4.39-10.957-.164-.985-.85-1.314-1.438-1.197-.59.117-1.227.774-1.628 1.525-.4.75-2.714 7.65-3.516 10.16s-2.973 8.586-3.044 9.08c-.07.492 1.298.54 2.55.492 0 0 13.426.258 14.394.188.967-.07.873-.727.732-1.243-.144-.517-1.277-2.393-3.66-8.048zm1.32 7.438c-.117.188-5.733.258-8.353.305-2.618.047-4.388.07-4.435-.047 0 0 1.534-4.552 1.628-5.068.094-.516.118-.845.283-1.43.165-.588 2.077-5.468 2.737-7.814s.684-2.744.897-2.767c.212-.024 1.817 4.48 3.87 8.94 2.054 4.456 3.494 7.694 3.375 7.882zM18.15 16.473c.59.493 1.015.094 1.274-.82.26-.916 2.407-7.133 2.5-7.227.095-.094 1.558-.14 2.196-.282.637-.14.99-1.01.92-1.197-.07-.188-3.375 0-3.587.094-.21.095-2.854 7.25-3.28 8.353s-.022 1.08-.022 1.08zm45.545 23.86c0-1.103-.755-1.197-2.147-1.267-1.392-.07-3.563.047-4.13.305-.566.26-.4 1.174-.4 1.174-1.11-1.43-3.895-1.62-6.443-.68-2.55.938-4.106 2.628-4.98 5.443-.872 2.815-.613 5.208.38 8.024.99 2.816 3.987 4.646 6.96 5.07 2.974.42 6.042-.846 6.207-.822.165.024 3.068-.61 3.068-.61s.448.235 1.11-.047c.658-.28.682-.96.682-3.026s-.307-12.458-.307-13.56zm-1.746 14.124c-.024 1.126-.07 1.267-.165 1.29-.094.024-2.218.82-2.265.493-.047-.328.236-1.01-.142-1.08-.378-.07-1.015-.163-1.086.306-.072.47-.048.657-.45.892-.4.235-3.303.962-5.85.422-2.55-.54-3.87-1.947-4.79-4.247-.92-2.3-.827-4.997-.143-7.062.684-2.064 1.77-3.377 4.39-4.292 2.618-.915 3.893-.258 4.365.094s1.133 1.783 1.133 1.783c.236.14 1.133 0 1.463-.4.33-.398.19-.914.19-1.055s-.26-.868-.143-.938c.118-.07 2.95-.493 3.044.047.093.538.47 12.62.447 13.747zm-6.82-10.276c-2.36.236-3.894 1.83-4.153 3.473-.26 1.642.19 3.707 1.652 4.364 1.463.657 3.14 1.032 5.026.14 1.888-.89 1.793-3.213 1.723-4.41-.07-1.196-1.543-3.835-4.248-3.566zm-.236 7.133c-2.24-.047-2.57-1.548-2.666-2.557-.094-1.01.472-3.073 3.02-3.285 1.06-.087 2.573.775 2.644 2.793.07 2.018-.755 3.097-2.997 3.05zm5.24 1.197c-.212.47 0 2.018.07 2.158.072.14.638.023.85-.14.213-.165.213-1.596.095-1.948-.118-.352-.924-.272-1.015-.07zm-10.596-8.634c-.4.352-1.557 1.502-2.077 3.12-.52 1.62-.307 3.097-.142 3.355.165.26 1.274-.163 1.37-.28.093-.118-.26-.588-.072-2.16.19-1.57 1.37-3.002 1.628-3.19.262-.187-.473-1.048-.706-.844z"/></svg>