<svg xmlns="http://www.w3.org/2000/svg" viewBox="0 0 64 64" enable-background="new 0 0 64 64"><path d="M54.704 18.342c.888-2.485-.425-4.703-1.235-4.665-.812.038-3.9.803-7.258 2.14s-14.437 6.233-14.67 6.004c-.23-.228.657-1.03 2.163-3.823S41.27 5.304 41.81 4.042c.54-1.262-2.278-1.72-7.566-2.485S24.17-.47 23.204.18 19.19 10.427 16.72 17.233s-7.027 18.354-7.49 20.19c-.464 1.834-.203 2.427.578 3.402.888 1.11 5.56-.688 10.54-2.562 4.98-1.874 17.872-7.532 18.027-7.38s-5.79 15.562-5.79 15.562-4.555-.688-5.173-.306c-.618.38-.154 3.21.502 7.11.656 3.9 1.042 9.14 1.428 9.942.386.803.85.88 1.506.765.656-.115 3.204-2.6 6.37-5.468 3.164-2.87 7.41-5.583 7.41-5.583s.85-.918.62-1.606c-.233-.687-3.784-2.828-4.132-3.173s.926-2.447 3.63-8.335c2.7-5.888 9.07-18.965 9.958-21.45zm-12.932 33.19c-.116.305-1.004 1.07-1.197 1.03-.193-.037-.193-.802-.463-1.108-.27-.306-1.042-.076-1.042-.076s.27 2.218.04 2.256c-.233.038-.812.726-.812.574 0-.153-.347-3.097-.81-3.097-.464 0-.812.307-.812.575s.656 3.288.502 3.44c-.154.154-.772 1.225-.772.842s-.31-3.71-.656-3.862c-.347-.153-1.12.612-1.08.765.038.153.732 3.71.617 3.938-.116.23-.888 1.682-1.004 1.11-.116-.575.116-3.633-.31-3.633-.424 0-.964.268-.964.726 0 .46.578 3.595.115 4.092-.463.497-1.506 1.644-1.583 1.338-.077-.306-1.776-12.16-1.583-12.16s4.71.766 4.786.498 5.482-14.683 6.33-17.818c.85-3.135.812-2.868.348-3.403-.463-.535-1.39-.956-2.007-.574-.618.382-13.318 6.768-13.318 6.5s1.62-3.212 1.427-3.594-.85-.804-1.158-.345-1.738 4.474-2.008 4.588-2.123.918-2.007.574 1.737-3.977 1.583-4.206c-.154-.228-1.197-.114-1.274 0s-1.428 4.704-1.62 4.742c-.194.038-2.008.84-1.777.344.232-.497 1.814-3.977 1.814-4.09s-1.118-.23-1.62.343c-.502.573-1.313 4.32-1.7 4.51-.385.192-2.547 1.416-2.47.957.077-.46 2.972-5.774 2.972-6.156 0-.38-.54-.496-1.004-.458-.463.038-2.51 6.882-3.01 6.997s-2.086.764-2.163.534c0 0-.04-1.453.888-3.824.926-2.37 4.362-11.012 6.6-17.36s4.98-14.758 5.25-14.758c.27 0 10.926 1.682 11.12 2.065.192.382.617 2.18.925 2.18s.502-.422.502-.69-.425-1.375-.193-1.375 1.043-.152 1.198.268-2.24 4.282-2.393 4.244c-.154-.038-1.66-3.9-1.814-3.862-.154.038-.926.382-.85.765s2.124 3.9 2.008 4.244c-.116.345-.926 1.454-.926 1.454s-1.776-4.627-2.046-4.627c-.27 0-.656.726-.695 1.11-.04.38 1.93 4.358 1.89 4.55-.038.19-.308 1.605-.54 1.414-.23-.19-1.813-4.014-2.122-4.014s-.81.956-.81.956 2.47 4.244 2.238 4.512c-.232.268-.81 2.294-1.158 1.568s-1.12-4.206-1.428-4.206-1.158.84-.965 1.224c.193.382 2.007 3.632 1.97 3.977-.04.344-.927 2.103-1.082 1.912-.154-.192-1.274-3.366-1.62-3.595-.348-.23-.85-.19-.85.23 0 .42 1.776 4.28 1.737 4.396s-2.47 3.71-2.278 4.245c.193.535 1.12 1.11 1.312 1.032.193-.076 3.358-1.185 8.03-3.518s10.345-4.283 11.927-4.933c1.584-.65 3.398-1.224 3.9-.994.502.23-.54 3.06-.965 4.206-.426 1.146-13.165 27.376-12.818 27.72.348.344 3.86 2.485 3.745 2.79zM28.724 6.144c.425 0 .54-.497.54-1.032s-3.01-.956-3.243-.88c-.23.077-3.47 9.253-3.435 9.407.077.344.772.46 1.158.344.386-.115 2.934-7.8 3.165-8.068.233-.268 1.39.23 1.816.23zm16.252 14.53c-.425.306-.31.994-.077 1.262s3.203.038 3.59 0c.385-.038.925-1.644.81-1.874-.117-.23-4.08.436-4.324.612zm1.003 4.703c-.117.19-1.352 3.288-1.352 3.71 0 .42-.077.687.463.343.54-.343 2.124-3.555 2.047-3.976-.077-.42-.888-.522-1.158-.076z"/></svg>