<svg xmlns="http://www.w3.org/2000/svg" viewBox="0 0 64 64" enable-background="new 0 0 64 64"><path d="M62.975 17.212c.936-1.264 1.31-2.64.786-3.496-.523-.855-7.487-6.73-9.097-7.512s-3.744-.372-4.68.483c-.936.855-7.675 11.045-7.675 11.045s-.6-1.04-1.31-4.35-2.06-9.52-2.434-10.042c-.374-.52-2.284-.37-3.744-.037-1.46.335-10.82 2.306-18.047 4.09S.936 11.45.75 11.597 0 17.472 0 17.658c0 .558 4.83 15.768 7.338 23.503s5.728 17.814 6.74 19.19 3.668.483 11.493-1.86c7.826-2.342 17.523-4.908 21.567-6.395s3.445-3.458 3.182-4.76-2.435-8.48-2.435-8.48.3-1.077 2.134-3.606c1.835-2.53 12.02-16.774 12.955-18.038zM46.69 15.65c4.754-6.396 5.615-7.55 6.214-7.363.6.186 3.108 2.008 4.118 2.715s1.31 1.153 1.198 1.302c-.112.15-12.505 15.32-13.928 17.255-1.423 1.933-2.172 3.383-2.36 3.42-.186.037-1.085-.892-1.384-1.04s-1.086-.447-.973-.633c.112-.186 11.72-15.433 13.666-17.887s2.285-2.492 2.135-2.752c-.15-.26-.86-1.004-1.236-.744-.375.26-12.17 15.656-13.442 17.59s-2.658 3.42-2.883 3.42-3.482-.222-3.145-.482c0-.002 7.264-8.406 12.02-14.802zm-2.21 24.246c-.112.186-4.118 2.23-4.343 1.934s-.487-1.04-1.535-1.562c-1.048-.52-3.332-1.562-3.82-1.71-.486-.15-1.16.036-1.16-.075 0-.112-.075-5.876.037-6.173.204-.544 4.342-.855 7.113 1.748 2.77 2.603 3.82 5.652 3.707 5.838zm-18.945 13.24c-2.51.706-7.975 2.714-8.35 2.267s-4.155-11.193-6.55-19.45S4.342 13.79 4.38 13.382c.025-.26 12.768-3.457 17.56-4.76s14.34-3.346 14.49-3.234c.15.112 4.12 14.615 4.045 14.726s-7.376 9.26-8.087 10.003c-.71.744-.075 1.6-.075 1.6s.374.222.187 2.156-1.01 10.376-.374 11.27c.636.89 1.048 1.115 2.51.557 1.46-.558 10.744-4.91 10.97-4.797.224.112 2.283 7.4 2.245 7.623s-19.807 3.905-22.315 4.612zm22.277-18.818c0-.632-.562-2.938-.9-3.087s-.785.596-.785.93c0 .336.9 2.678.824 3.088-.074.41-.3.818-.3.818s-.972-3.496-1.122-3.496-.824.558-.786 1.04c.037.484 1.16 3.385 1.16 3.385s-.336.855-.486.52c-.15-.334-1.722-3.197-2.434-3.606-.205-.12 9.435-12.645 12.468-16.364 3.033-3.72 3.707-4.24 3.93-4.277.226-.038 1.985 1.45 1.76 2.12-.224.668-11.08 15.99-12.092 17.254-1.012 1.265-1.236 2.306-1.236 1.674zm-16.7-21.495c.3-.15.263-.93-.11-1.19-.375-.26-3.296.632-11.346 2.566s-9.86 3.342-9.884 3.457c-.112.52.262 1.116.636 1.116s4.455-2.083 9.323-3.384 11.084-2.418 11.383-2.567zm3.52 7.066c.488-.15.076-1.228-.186-1.34s-4.792 1.004-9.622 2.492-11.935 3.634-12.093 4.053c-.11.298-.074 1.04.45 1.116s3.445-1.152 9.36-3.048 11.606-3.124 12.093-3.273zM28.38 31.007c-.487-.186-2.32.112-4.568.372s-8.85 1.258-9.136 1.822c-.262.52-.037 1.19.524 1.19.562 0 .9-.074 4.905-1.153s7.788-1.6 8.35-1.6.412-.446-.075-.632zm-.973 7.4c.786-.185.487-.408.524-.594.038-.186-.935-.335-4.492.446s-5.84 1.71-6.29 2.268c-.3.372-.075.967.225 1.04.3.075.374-.11 3.67-1.487s5.577-1.486 6.364-1.67zm-3.557 6.77c-2.434.52-4.694 1.51-4.83 1.672-.187.223 0 .893.225.967.225.074 2.06-.483 3.52-1.004 1.46-.52 6.214-1.897 6.027-2.045-.187-.15-2.51-.112-4.942.41z"/></svg>