<svg xmlns="http://www.w3.org/2000/svg" viewBox="0 0 64 64" enable-background="new 0 0 64 64"><path d="M9.895 15.82c.514.155 1.697-1.49 5.245-3.292 3.548-1.8 7.61-1.544 8.33-1.544.72 0 1.234-1.132.926-2.42-.31-1.285-1.49-3.344-3.6-4.733s-4.78-1.49-7.61-.874c-2.827.617-5.86 3.55-5.964 7.255-.104 3.707 2.276 5.492 2.673 5.61zM9.33 8.567c1.028-2.727 3.496-4.22 6.015-4.27 2.52-.052 4.782.822 5.553 1.903s1.8 2.88 1.13 3.138c-.668.257-1.44.31-1.44.31s.515-.567.155-.98c-.36-.41-1.697-3.344-2.057-3.19-.36.155-.926.618-.617.927.308.31 1.953 2.985 1.8 3.14s-2.47.72-2.778.822c-.31.103-.926.206-.926.206s-.977-1.955-1.44-1.955c-.463 0-1.028.617-.823.772.205.154.977 1.647.977 1.647s-4.32 1.75-4.833 2.727c-.19.366-1.746-2.47-.718-5.198zm8.844.67c.257-.31-1.243-2.597-1.543-2.522-.41.103-.873.515-.873.72 0 .206 1.183 2.058 1.388 2.316.206.256.772-.207 1.03-.515zM5.32 12.27c.256-.566.205-.617.36-1.852s1.08-3.14 1.387-3.91-1.1-.874-1.286-.67c-2.107 2.316-2.26 5.763-2.004 6.33.257.566 1.286.67 1.543.102zm19.075-9.467c.36.05 1.85-.617 3.702-.978 1.85-.36 6.067-.257 12.392 1.904s10.077 8.026 10.334 8.283c.257.257.874-.412 1.03-.823.153-.412-.618-2.11-2.932-4.014C46.608 5.272 42.392.898 34.987.178c-7.404-.72-11.207.943-11.517 1.44-.257.413.565 1.133.925 1.185zm39.092 17.984c-1.543-4.168-6.787-5.403-10.258-4.322-3.472 1.08-5.31 4.822-5.246 5.364.077.655 2.16 4.862 2.854 7.447.694 2.586.81 3.473 2.93 4.36 2.122.89 4.127-.616 6.596-2.585 2.467-1.968 4.666-6.097 3.123-10.265zm-2.16 6.483c-.23-.154-1.504-4.67-1.813-4.63-.31.038-.694.54-.617.77.077.233 1.813 4.632 1.735 4.98s-.54.887-.694.77c-.154-.115-1.774-5.21-2.16-5.21s-.77.464-.77.464 2.16 5.557 1.927 5.75-1.08.965-1.273.772c-.193-.193-1.35-5.712-1.735-5.712s-.964.425-.964.695 1.928 5.325 1.658 5.556c-.27.232-1.156.695-1.233.463s-1.273-6.06-1.735-6.214c-.463-.154-.926.116-.926.425 0 .31 1.58 5.828 1.157 5.828-.424 0-.578-.733-.926-1.39-.347-.655-3.317-8.72-3.317-8.72.04-.464 1.85-3.243 4.01-3.976s5.554-.772 7.29 1.66 1.003 2.74 1.003 2.74-.54-.85-.887-.773c-.347.076-.617.424-.578.54.04.115 1.813 2.353 1.658 2.97s-.577 2.395-.81 2.24zm-.81 9.725c-.23 0-2.35.58-3.74.58s-2.43-.7-2.584-.58c-1.388 1.08.04 1.274 1.58 1.544 1.544.27 3.048-.426 3.973-.696.926-.27 1.003-.85.772-.85zm-13.11 10.922s-.31.926-1.505 3.01c-1.196 2.084-3.085 2.663-3.394 3.242s.23.81.848.964c.617.154 1.08-.425 2.507-2.316 1.427-1.89 2.815-4.13 2.815-4.554s-.964-.385-1.272-.347zm-44.582-5.17c.154-.233-.848-2.74-1.08-4.594-.23-1.852.27-4.014.347-4.36.077-.348-.838-.81-.926-.734-.31.27-1.273 2.16-1.157 4.4.115 2.237 1.002 5.055 1.35 5.71s1.31-.193 1.465-.424zm39.837-22.694c-4.242-4.207-13.228-6.638-19.977-6.213-6.75.425-11.427 4.21-14.038 7.333-2.97 3.55-4.705 7.718-4.975 13.893S6.68 46.258 6.796 46.72c.116.464-4.435 5.79-4.666 6.446-.23.656.424 1.698.694 2.045s.656.155 2.39-.655c1.736-.81 5.863-3.165 5.863-3.165s1.118 1.312 7.25 4.09c6.132 2.78 10.567 1.197 10.914 1.197s1.582 2.47 3.163 5.094c1.58 2.625 1.85 2.51 2.815 1.776.964-.733.386-1.235.347-2.316-.04-1.08.04-5.827.04-5.827s.693 0 3.894-1.544c3.2-1.545 4.588-3.59 6.786-7.295 2.198-3.705 3.24-7.37 2.738-12.08-.5-4.706-2.12-10.225-6.362-14.432zm2.854 17.676c-.54 3.704-.81 6.483-4.55 9.647s-7.984 5.21-13.383 5.287-9.178-1.505-12.61-3.512-5.786-6.754-6.48-10.266C7.8 35.376 6.18 23.95 16.67 18.664c2.885-1.454 7.29-2.354 13.613-1.35s9.68 3.742 12.534 7.717 3.24 8.994 2.7 12.7zM30.976 19.9c-.115.23-.732 2.43-.616 2.855s2.545.502 2.854.502.656-2.354.617-2.933c-.038-.58-2.626-.88-2.853-.425zM40.31 41.2c.154.386 2.39.85 2.66.81.27-.04.965-2.393 1.12-2.894s-2.33-1.546-2.43-1.428c-.425.502-1.505 3.126-1.35 3.512zm-20.13 5.056c-.194.193-.734 2.856-.618 3.242s2.854 1.274 3.317 1.196c.462-.077 1.542-3.087 1.195-4.245s-3.7-.39-3.896-.192zm-8.717-18.91c-.5.462-1.196 3.318-.617 3.742.578.425 2.892.733 3.317.733s1.003-3.242.964-3.743c-.04-.5-3.38-.994-3.664-.733zm12.34-2.162s.618 6.252.695 6.638c.077.386.887.347 1.465.077.578-.27.077-.54.04-1.58s-.618-5.25-.618-5.25 1.003-.04 1.388-.232-.77-2.045-1.31-2.894c-.54-.85-1.042-.926-1.582-.656s-1.117 3.512-1.117 3.782 1.04.116 1.04.116zm7.135-.887c-.617.076-2.507 1.658-2.892 2.083s.578.965.694 1.042-1.234 3.115-1.234 3.396c0 .348.656.85 1.31.81.657-.038 1.235-3.55 1.312-3.742s.81.154 1.234.193c.424.04.27-1.774.27-2.47 0-.694-.077-1.39-.694-1.31zm-6.17 8.257c-1.504.232-3.047 1.66-2.892 2.933s.5 3.126 2.815 3.512 2.893-.077 3.857-1.08c.964-1.004.964-2.548 0-3.976-.964-1.427-2.142-1.64-3.78-1.39zm1.118 5.172c-1.928.27-2.39-1.236-2.545-1.97s.734-2.044 2.2-2.237c.917-.12 2.313.965 2.197 2.007s.078 1.93-1.85 2.2z"/></svg>