<svg xmlns="http://www.w3.org/2000/svg" viewBox="0 0 64 64" enable-background="new 0 0 64 64"><path d="M47.96 19.49c-1.31-.504-1.51 0-4.027 1.01-2.516 1.01-21.336 9.185-34.32 19.277C-3.368 49.87.557 51.687.557 51.687.86 51.79 2.066 53 3.174 53c1.107 0 .805-.1 2.415-2.826s2.616-4.542 14.19-13.525c11.573-8.984 27.675-14.333 29.084-15.04s.404-1.614-.905-2.12zm16-4.843c-.704-.908-14.163-4.563-14.995-3.432-1.41 1.918 4.126 13.928 5.334 15.038 1.208 1.11 10.366-10.698 9.66-11.606zm-9.358 7.166c-.805-1.01-3.32-7.973-3.02-8.276.858-.86 9.16 1.413 8.757 2.422s-4.933 6.862-5.738 5.853z"/></svg>