<svg xmlns="http://www.w3.org/2000/svg" viewBox="0 0 64 64" enable-background="new 0 0 64 64"><path d="M58.37 28.692c1.988-3.264 4.27-8.22.935-13.93S48.89 9.63 48.89 9.63s.352-4.313-4.563-7.52c-4.915-3.205-7.313-2.33-12.404-.232s-7.197 5.13-7.197 5.13-1.814-1.108-5.06-1.458c-3.248-.35-5.88 1.093-8.646 2.973s-4.125 4.59-3.818 8.262c.307 3.672 3.423 4.81 3.423 4.81s-1.492.786-3.423 2.36C5.272 25.53 4 28.022 4 30.687s.044 6.82 3.598 9.618 11.234 3.934 11.234 3.934.702 1.88 1.185 2.797 2.633 2.754 5.748 3.366 8.338.393 13.34-2.36c5.003-2.755 4.783-7.608 4.783-7.608s.878.787 1.316 2.885c.44 2.098.132 5.027.132 5.027s-.614-.48-1.448-.962c-.834-.48-1.58-.787-2.5-.044-.923.744-1.317 2.93-.615 4.766.702 1.836 3.467 3.016 3.554 3.148.088.13-.527 2.667-1.14 4.066s-1.098 2.36-1.142 3.104C42.002 63.17 44.942 64 45.6 64c.658 0 .834.044 1.843-2.23 1.01-2.273 1.975-7.52 1.975-7.52s.702.045 1.316-.043c.614-.087 1.668-.525 4.037-3.06 2.37-2.536 2.502-5.683 2.15-7.78-.35-2.1-1.93-3.892-2.412-3.935-.483-.044-.702.568-.922.874-.22.306-.44.743-1.843 1.66s-2.15 1.764-2.15 1.764-.176-2.098-.76-3.905c-.586-1.807-2.692-4.08-2.692-4.08s1.873-.117 4.974-1.166c3.1-1.05 5.266-2.624 7.255-5.888zM44.897 53.77c-.088.612-2.238-1.486-2.59-2.536-.35-1.05.22-2.667.66-2.71.438-.044 2.193 2.01 2.193 2.01s-.175 2.624-.262 3.236zm5.134-8.087c.132-.22 1.097-1.355 2.326-2.01 1.23-.657 1.624-1.356 1.843-1.444.22-.088 1.844 2.316.747 4.85-1.097 2.537-1.668 3.804-2.984 4.635-1.316.83-1.887 1.268-1.93 1.005-.045-.262.043-3.104.087-4.59.044-1.485-.088-2.447-.088-2.447zm-31.244-7.475c-.307 3.016.395 4.24-.395 4.24s-7.02-.743-9.83-3.716-3.16-7.082-2.325-10.098 5.003-5.29 6.275-5.77 4.213-.175 5.134.962c.148.183-.35 3.016.878 5.377 1.23 2.36 1.755 3.104 2.326 3.366s.835.26.79.392c-.043.13-2.545 2.23-2.852 5.246zM38.49 22.47c-.394-.306-1.447-.087-1.535.306-.088.393.307 5.29-.132 5.64-.44.35-.922.83-1.053.698-.132-.13.44-5.902.044-6.077-.395-.175-1.185.306-1.316.525-.132.22.132 6.69-.263 6.776-.395.087-.834.7-.79.35.044-.35 0-5.246-.307-5.464-.307-.22-1.36.22-1.492.525s.44 6.076.088 6.294c-.35.22-1.185.656-1.23.48-.043-.174-.13-5.332-.613-5.507s-1.447.568-1.447 1.005.57 4.678.263 4.72-1.23.263-1.23-.218c0-.48.177-4.372-.087-4.72-.264-.35-1.493-.176-1.58.086-.09.262.175 4.546 0 4.546-.177 0-1.405-.087-1.405-.087l-.088-4.198s-.922-.22-1.23.087c-.306.305 0 3.67-.218 3.627s-2.634-1.75-3.424-4.984 1.624-7.432 3.818-9.31c1.227-1.052 4.125-1.88 6.494-2.1s5.09.482 6.89 1.618c1.798 1.138 1.974 2.493 2.105 2.668.132.175.263 1.836.614 2.273.35.438.395.613.395.613s-.922 3.585-1.14 3.148c-.22-.435.264-3.014-.13-3.32zm7.022 11.497c-2.72-.262-3.905-1.355-4.344-1.66-.44-.307-.834-.7-1.273-.657-.44.044-1.536.525-1.097 1.05s1.097 1.136 1.536 1.442.527.525.527.525-.833.525-.613.962c.22.436 1.887 2.01 1.93 3.19s-.438 6.514-5.616 8.743c-5.177 2.23-11.145 1.05-12.812.437-1.668-.612-3.29-3.934-3.686-5.945-.395-2.01 1.185-6.557 1.71-7.082.528-.525 1.45-1.443 2.722-1.18 1.273.262 3.116.568 6.494-.087s5.792-1.18 7.943-4.153c2.15-2.973 3.16-6.12 2.853-8.35s-2.852-5.333-5.178-6.033c-2.326-.7-2.5-1.53-6.626-1.224-4.126.306-6.54 1.268-7.944 2.448s-3.95 4.765-3.95 5.508c0 0-2.105-1.137-3.73-1.005s-2.193.22-2.193.22-.088-.92-.395-1.05-2.545-.175-2.5-4.328 2.06-5.597 3.773-6.646 4.477-2.055 7.154-1.792 3.642 1.18 3.642 1.18-.527 1.53-.395 3.06.57 1.836 1.01 2.186c.44.35.922.044.922-.175s-.614-3.847.307-5.29 2.28-2.798 5.66-4.503 4.432-2.273 6.758-2.098c2.326.175 5.836 2.142 7.11 3.497s2.018 4.065 2.018 4.414v.7s-3.818 2.185-3.686 2.622c.132.437.614.612.746.568s2.5-1.486 4.344-1.88c1.843-.393 6.012-.437 8.118 2.842s2.808 4.546 1.975 8.656-2.062 6.514-5.134 8.35c-3.075 1.836-5.357 2.797-8.078 2.535zm-21.458 7.17c-.22-1.53.57-3.104.658-3.672s-.72-.976-1.01-.612c-1.008 1.268-1.403 3.06-1.184 5.07s1.668 2.93 2.238 3.105c.57.175 1.23-.175 1.492-.393s-.263-.22-.878-.743c-.614-.526-1.097-1.225-1.316-2.755zm27.47-11.847c-.44.044-2.545 1.005-4.432 1.137-1.887.13-2.413-.874-3.028-1.224-.614-.35-1.404-1.48-1.843-1.443-.526.044-1.052.525-.964 1.005.088.48 1.536 2.142 4.52 2.93 2.984.786 4.96-1.18 5.573-1.487.613-.306.613-.962.174-.918zM28.75 18.448c-.703-.262-2.94.35-4.61 1.574s-2.193 3.314-2.193 3.803c0 1.268 1.14.568 1.71.262s.045-1.705 1.537-2.885 2.896-.962 3.686-1.093c.79-.132.57-1.4-.13-1.662zm25.45-1.486c1.976 1.31 2.59 4.197 2.59 4.197s.22.305.658-.57.044-1.66-1.36-3.627-2.86-2.962-3.247-2.885c-.657.13-1.228.48-1.36.874s.746.698 2.72 2.01zM32.963 5.99c-1.01.174-3.028 1.616-3.423 2.578-.396.962-.284 2.85.043 3.104.395.306.834.13 1.14-.13.308-.263-.306-1.225.045-2.318s2.106-1.88 2.852-2.273c.746-.393.35-1.136-.658-.96zm-19.615 5.813c-2.633 2.885-1.624 5.858-1.23 6.557.396.7 1.054.525 1.405.306.35-.22.263-.568.044-.962-.22-.393-.35-1.18-.132-2.142.22-.962.878-2.404 1.273-2.885.395-.48-1.15-1.103-1.36-.874zM9.88 28.853c.263-.92-1.116-.738-1.316-.438-.35.525-1.536 2.623-.965 4.72s1.974 4.285 2.412 4.285c.44 0 .658-.48.658-.874s-.834-.787-1.36-2.186c-.527-1.398.307-4.59.57-5.508z"/></svg>