<svg xmlns="http://www.w3.org/2000/svg" viewBox="0 0 64 64" enable-background="new 0 0 64 64"><path d="M62.542 16.765c-.886-1.867-11.907-3.832-11.907-3.832s.59-.688 1.378-1.376 1.28-2.456 1.378-4.42c.1-1.966-2.262-5.307-7.477-5.503-5.215-.197-8.758 3.44-8.758 3.44s-.394-.69-.984-1.278c-.59-.59-2.36-2.162-5.214-2.653-2.854-.49-6.002.197-8.462 3.44-2.46 3.24-1.476 7.27-1.476 7.27l-7.38 3.734c-1.935 1.048-5.74 3.602-5.674 3.93.066.327-5.38 3.078-7.085 4.257-1.707 1.18-.788 8.188 1.573 13.624C4.815 42.834 9.997 54.69 10.587 56c.59 1.31 1.18 1.965 3.018 2.096 1.837.13 8.79.917 9.774.46s.26-2.032.065-2.62c-.197-.59-1.18-.656-1.77-.787-.59-.132-3.412-6.42-3.61-6.682-.196-.262-1.31.262-1.573.524-.262.262 2.952 5.502 3.018 5.764.066.262-.722 0-1.115-.13s-2.427-4.455-2.82-5.176c-.395-.72-1.64-.524-2.1-.458-.46.065 2.952 5.567 2.952 5.567s-1.574-.132-2.23-.132c-.656 0-.722-.262-3.15-5.7-2.426-5.435-7.937-20.042-7.543-21.352.394-1.31 4.658-2.03 9.71-2.227 5.05-.198 8.33.196 8.33.196s-.328 1.834-.197 4.39c.13 2.554 1.77 16.047 1.77 16.047l-1.377-2.49s-.918.787-1.05 1.31c-.13.525 2.82 4.586 2.82 4.586s.788 4.65.33 4.52c-.46-.132-3.74-7.075-3.74-7.075s-.853.327-1.18.72c-.33.393 2.82 6.222 3.476 6.878s1.968.95 1.968.95.197 5.207 1.28 6.19c1.08.983 6 1.867 7.87 1.572 1.87-.295 2.067-2.948 2.067-2.948s5.51.393 7.775.196c2.263-.196 7.183-4.225 7.183-4.225s1.673.983 2.263 1.08c.59.1 2.264-.59 2.953-1.276.69-.688.394-5.306.394-5.306s5.314-3.44 5.61-4.127c.294-.69 1.475-14.74 2.065-21.125s-.395-6.584-1.28-8.45zM37.154 10.74c.197-.984.066-3.08.59-3.93.525-.852 4.854-3.342 7.74-3.276 2.887.066 5.38 2.227 5.84 3.21.458.983 1.18 3.668-2.69 5.633-3.87 1.965-6.955 1.638-8.135 1.703-1.182.066-4.265-.327-4.265-.327-.196-.263.723-2.032.92-3.014zm-12.2-6.29c1.967-1.636 5.116-1.964 7.805-1.112 2.69.852 3.082 3.21 2.754 3.864-.328.655-1.64 2.75-1.574 3.93.066 1.18.13 1.638-.13 1.9-.263.262-2.1 2.227-2.822 2.162-.787-.07-5.773-1.703-7.15-3.34-1.378-1.64-.853-5.766 1.115-7.403zm.983 16.31c-.59.328-1.115-.393-1.837-.72-.722-.327-4.854-.983-5.314-.983-.46 0 .853-1.572.853-1.572.26.066 3.738.917 6.165.917s4.002-.59 4.264-.327c.262.262-3.543 2.358-4.133 2.685zm-3.87-7.794s1.18 1.18 2.098 1.77c.918.59 3.87 1.505 3.87 1.505l-2.296.067s-7.217-.655-8.2-.655 4.526-2.686 4.526-2.686zm.458 10.873c-.13-.198-.525-1.442-2.624-1.508-2.098-.065-5.313-.393-7.346 0s-4.067.59-4.067.59 2.624-1.31 2.69-2.03c.066-.72-.46-1.965.066-2.162.525-.197 3.018-1.572 4.79-1.376.268.03-3.478 2.227-2.494 2.685.983.458 1.9.26 3.213.13 1.312-.13 5.707.983 6.494 1.048.787.066 1.378.59.918 1.113-.46.526-1.508 1.705-1.64 1.51zm20.337 14.54c-.394-.393-1.246-2.358-1.77-2.293-.526.066-1.116.46-.985.72.13.263 2.362 4.848 2.362 5.24s-.067 2.62-.33 2.228c-.26-.393-2.164-4.323-2.69-4.323-.524 0-.655.72-.655.72s3.477 6.42 3.477 6.615c0 .197-.197 2.62-.394 2.49-.197-.132-2.952-5.57-3.28-5.503-.328.065-.918.917-.787 1.113.132.197 4.003 6.68 4.003 6.68l-.262 3.21s-3.213-7.335-3.607-7.335-.656.72-.525 1.113c.13.393 3.74 7.598 3.542 7.73-.197.13-.328.392-.656.392s-.394.327-.656-.066c-.262-.392-2.82-5.566-3.28-5.763-.46-.196-1.312.458-1.115.655.197.196 3.15 5.044 2.82 5.24-.327.197-2.754.13-3.213-.46-.46-.59-4.526-25.61-4.264-29.08.03-.382 5.576-.59 8.07 0 2.492.59 5.18 1.637 5.116 1.964-.068.33-.527 9.107-.92 8.714zm12.136-1.18c-.46 9.105-.787 17.36-1.115 17.424-.328.066-1.18.262-1.18-.13s1.377-11.857 1.114-18.67c-.262-6.81-.984-11.07-2.034-12.05-1.05-.984-4.395-1.31-5.05-1.05-.657.263-1.05.984-.526 1.05.525.065 4.264 1.112 4.46 1.768.198.655 1.38 8.122 1.313 13.82-.066 5.7-1.05 13.035-1.312 13.232-.262.197-5.642 3.275-5.642 2.62 0-.655 1.574-26.07 1.968-26.724.394-.655 2.69-.983 2.493-1.9-.197-.916-1.246-1.244-1.837-1.047-.59.197-2.23 1.572-3.15 1.376-.917-.198-3.213-1.377-6.625-1.704-3.41-.328-4.854 0-4.46-.524.393-.524 3.673-3.21 3.213-3.734-.46-.524-1.115-.458-1.443-.327-.328.132-4.79 4.783-5.51 5.307s-1.05 1.965-.918 3.21c.13 1.244 4.658 28.82 4.658 29.868 0 1.048-.59 1.965-1.246 1.9-.657-.067-4.855-.72-5.118-1.377-.262-.655-2.755-20.698-3.15-24.76s-1.77-7.597-.13-9.497c1.64-1.898 5.117-3.536 6.888-5.108 1.77-1.572 4.264-3.275 4.46-3.275s.067 2.49 4.134 4.192 4.198 2.095 6.626 1.047c2.427-1.048 3.214-2.03 3.214-2.03s6.298 2.49 6.363 2.685 0 5.304-.46 14.41zM49.684 18.47c-.918 0-1.443 1.638-3.674 1.9-2.23.26-4.067-.066-6.166-1.114-2.1-1.048-2.755-2.948-2.755-3.34 0 0 2.23.72 5.903-.132 3.674-.852 5.707-1.572 5.707-1.572s-1.443.983 1.574 1.834c3.018.852 9.118 2.62 9.118 2.62l-3.28 1.77s-5.51-1.966-6.428-1.966zm8.922 26.265c-.656.59-2.493 2.162-2.493 1.638 0-.523.394-9.89.787-14.67.394-4.783.656-9.957.656-9.957s2.952-1.703 3.018-1.376c.065.328-1.312 23.777-1.968 24.366zM46.666 15.52c-.328 0-5.576 2.358-5.576 2.358-.46.655 1.246 1.18 2.1 1.18.852 0 3.804-1.442 4.525-2.097.723-.654-.72-1.44-1.05-1.44zm-34.9 14.083c.526-.458.59-1.44-.393-1.506s-4.813.25-5.05.786c-.263.59 1.442 7.99 1.967 8.58.525.59 1.05-.196 1.706-.59s-1.443-5.763-1.443-6.352 2.69-.46 3.214-.917z"/></svg>