<svg xmlns="http://www.w3.org/2000/svg" viewBox="0 0 64 64" enable-background="new 0 0 64 64"><path d="M53.75 15.445c-2.188-2.494-5.43-4.103-6.404-4.103-.973 0-8.27 5.632-22.62 18.586C10.377 42.882 0 53.824 0 53.824c.162 1.368 6.648 7.402 7.378 7.966.73.563 1.865 0 4.378-1.77s12.242-10.54 23.997-20.035c11.755-9.494 17.43-16.012 19.295-18.104 1.865-2.09.892-3.94-1.297-6.435zM41.7 31.832c-.162.107-3.23 2.682-3.23 2.682s.406-2.695.204-2.856c-.203-.16-1.257-.04-1.297.12-.04.162-.284 3.5-.405 3.702-.122.2-1.54 1.65-1.54 1.328 0-.322 1.054-5.15.73-5.47-.324-.323-1.338-.363-1.42 0-.08.36-.202 6.154-.607 6.557-.405.402-1.297 1.69-1.297 1.086 0-.602 1.013-5.752.608-6.074-.405-.322-1.378.12-1.297.322.08.2-.284 6.517-.608 6.8s-2.028 2.373-2.028 1.69c0-.685 1.338-7 1.013-7.162-.324-.16-1.42.24-1.378.684.04.443-.527 7.12-.69 7.282-.16.16-1.296 1.368-1.256.925.042-.443.77-6.477.65-6.558-.122-.08-1.257.08-1.338.522-.08.443-.405 6.88-.65 7.24-.242.363-1.296 1.53-1.296 1.248s.446-5.713.243-5.833c-.204-.12-1.38.24-1.34.684.042.444 0 5.915-.283 6.277-.284.362-1.62 1.73-1.62 1.448s.323-5.753 0-6.155c-.325-.402-1.38.12-1.38.684s.244 6.115-.04 6.437c-.284.323-2.027 2.133-1.986 1.61.042-.523.447-6.195.325-6.397-.122-.2-1.378-.04-1.378.684 0 .724 0 6.316-.243 6.718-.243.402-1.42 1.448-1.378 1.126.04-.32.608-5.148.365-5.51-.242-.363-1.458-.122-1.458.36 0 .484.122 5.754-.243 6.277-.366.523-1.663 2.052-1.663 1.448s.568-5.39.365-5.552c-.203-.16-1.58.16-1.54.684.04.523-.08 5.43-.405 5.874-.324.444-.892 1.53-.973.886-.08-.644.77-5.39.122-5.512-.65-.12-1.338.16-1.338.684s.203 5.592-.04 5.713c-.244.122-1.177.283-1.34-.2-.16-.483.69-4.99.285-5.19-.405-.2-1.42-.16-1.378.12.04.283.162 4.064-.324 3.662-.485-.402-2.472-2.56-2.593-2.83-.11-.245 6.432-6.437 13.134-12.927 6.703-6.49 18.702-17.97 19.08-17.433.378.536 1.676 3.165 3.46 5.203 1.78 2.04 2.86 2.79 2.698 2.897zM53.062 19.83c-.284.603-4.46 5.632-6.85 8.006-2.393 2.374-2.636 2.897-3.04 2.736s-1.785-1.368-3.65-3.822-2.593-3.58-2.593-4.063l7.093-5.833s3.243-2.856 3.932-2.816c.69.04 3.12 1.89 3.932 3.218s1.46 1.97 1.175 2.574zm-6.08-3.5c-.57.362-3.568 2.695-3.892 3.138-.324.443.77 1.086 1.094 1.086.324 0 .203-.08 1.094-.925.892-.846 2.432-1.248 3.162-1.65.73-.402.608-.885.122-1.328-.486-.443-1.34-.476-1.58-.322zM33.198 9.048c-.042.603.08 1.97.242 2.695.162.724.77 1.126 1.378 1.006.608-.122 2.432-2.817 2.797-3.38.365-.563 1.986.16 2.473.24.486.08.85-.16 1.094-.804.243-.644-.527-1.086-.77-1.65s.973-2.252 1.42-2.936c.445-.684.04-.724-.447-1.287s-3.243.644-3.81.885c-.568.24-1.905-1.93-2.838-1.77-.933.16-1.298 3.26-1.744 3.822-.446.563-2.554.885-2.513 1.368.04.482 2.716 1.81 2.716 1.81zM54.804 6.03s-.85 2.254-.973 2.656c-.122.402.08.563.73.603.65.04 2.31-2.013 2.513-2.013.203 0 .932 1.61 1.338 2.052.405.442.81-.122 1.135-.524.324-.402-.446-2.454-.446-2.454s1.62-.282 2.148-.402c.527-.12.973-.684.69-1.408-.285-.724-2.514-.362-2.798-.362-.284 0-.08-.644-.203-1.167s-.61-1.086-1.34-1.006c-.73.08-1.296 2.172-1.418 2.454s-2.12-.37-2.838-.24c-.892.16-.65.966-.486 1.167s1.947.644 1.947.644zm8.026 24.984c-.242-.2 0-2.494.163-3.46.162-.966-.04-1.247-.568-1.448-.527-.2-4.256 1.85-4.864 2.293-.607.442-2.348-1.65-2.837-1.61-.486.04-.73.362-.77.724-.04.362 1.257 2.414 1.338 2.897.082.484-1.7 1.127-2.512 1.73-.81.604-.446 1.33.365 1.972.81.644 4.094-.16 4.418-.16.325 0 1.014 2.694 1.258 3.46s.73.32 1.338 0c.608-.323.81-3.38.932-3.742.122-.362 1.743-.16 2.19-.16.445 0 .445 0 .688-.846.243-.846-.892-1.45-1.135-1.65z"/></svg>