<svg xmlns="http://www.w3.org/2000/svg" viewBox="0 0 64 64" enable-background="new 0 0 64 64"><path d="M16.724 11.723c.284.057.227 4.02.455 10.193.227 6.173.518 5.428.91 5.776 1.08.963 6.652.51 7.05 0 .398-.51.57-14.384.512-14.61-.057-.226.967-.283 1.706-.283.74 0 1.194-.058 1.535-1.19S23.833.115 22.24 0c-1.593-.112-8.36 7.76-8.985 8.44-.625.68-1.592 2.377-1.137 3.17.455.793 4.32.057 4.606.113zm.568-2.774c.228-.68 3.98-4.814 4.322-4.87.34-.058 3.582 5.322 3.184 5.605-.398.283-1.763-.057-2.104 1.982-.34 2.04.114 13.42-.34 13.59-.456.17-1.82.227-2.105 0-.223-.176-.513-11.608-.626-12.91-.114-1.303.227-1.416-.57-2.04-.795-.622-1.99-.68-1.762-1.358zm9.27 23.556c-1.593-2.095-3.65-2.568-6.142-1.756-6.767 2.21-4.435 7.08-1.82 8.55 2.616 1.473 5.686.567 6.88-.282s2.673-4.417 1.08-6.512zm-4.38 4.87c-1.762.17-2.728-.453-2.956-2.152-.228-1.7.91-2.21 2.275-2.435.9-.15 2.673.452 2.844 1.528.17 1.076-.4 2.888-2.16 3.058zm27.693 12.912c-.625-.057-3.753 2.04-4.15 2.718-.4.68-15.228-14.752-15.866-15.007-.57-.228-4.55 3.34-4.778 4.303-.228.963 14.273 16.536 14.273 16.536s-2.957 2.32-1.876 3.283c1.08.963 9.893 2.378 10.69 1.7.795-.68 1.478-4.192 2.444-8.835.967-4.644-.113-4.644-.74-4.7zM46.35 60.934c-.455.057-5.23 0-4.834-.566.398-.566 2.104-1.472.853-2.718-1.252-1.246-14.16-15.12-13.82-15.46.342-.34 1.082-.68 1.082-.68S44.36 56.8 44.985 56.29s2.388-2.322 2.672-2.21c.285.115-.853 6.797-1.307 6.854zm-24.565-25.71c-.682-.113-.8-.86-1.25-.736-1.252.34-.456 1.7.397 2.152.853.453 1.422 0 1.877-.453.453-.453-.343-.85-1.025-.963zM20.25 9.458c.34.057 1.705-2.152 2.103-2.662.398-.51-.57-1.076-1.308-1.02-.74.058-1.704 2.883-1.763 3.116-.056.226.626.51.967.566z"/></svg>