<svg xmlns="http://www.w3.org/2000/svg" viewBox="0 0 64 64" enable-background="new 0 0 64 64"><path d="M61.308 16.5c-1.757-2.296-4.047-5.07-9.744-6.885C45.866 7.8 40.594 7 34.63 7c-5.963 0-11.5.534-16.612 2.4-5.112 1.87-9.478 5.284-12.62 7.9C2.256 19.913-.246 24.502.02 28.344s2.503 8.058 5.218 10.353c2.716 2.295 8.307 3.47 8.307 3.47s-5.43 11.74-5.59 12.486.264 1.126.745 1.28c1.49.48 3.994-1.76 7.72-4.428 3.728-2.668 11.556-7.204 11.556-7.204s4.633.267 7.03 0c2.395-.267 2.82-.64 9.743-1.76s8.89-1.975 12.885-4.644c3.994-2.668 5.644-6.99 6.23-10.94.584-3.95-.8-8.165-2.557-10.46zm-.107 9.658c-.265 1.92-1.543 7.31-5.484 9.98-3.94 2.667-12.62 4.535-18.21 5.07s-10.117.372-10.97.692c-.85.32-14.43 9.072-14.43 9.072s4.634-10.14 4.74-10.62c.106-.48-.533-1.226-1.17-1.013-.64.212-3.41.746-6.976-1.602-3.568-2.348-5.485-5.497-5.75-9.34-.267-3.84 2.502-8.004 5.537-10.405s7.135-5.497 12.886-6.884 11.82-1.71 18.21-1.282c6.39.427 9.48.854 15.762 4.643 6.282 3.79 6.122 9.767 5.856 11.688zm-46.804-8.912c-.48-.12-4.073 2.16-6.15 4.603S6.234 26.462 6.33 26.57c.28.32 1.477.36 2.196.08s.08-1.64 1.637-4.122c1.558-2.48 3.874-3.482 4.473-3.842.6-.36.24-1.322-.24-1.442zm42.652 2.56c-.64-.12-1.7.562-1.677.76.04.36 1.798 2.522 2.437 4.163.64 1.64-.28 4.682-.52 5.282-.24.6.52.8.96.68.438-.12.997-1.44 1.357-4.763s-1.917-6.003-2.556-6.123zM22.423 23.81c-2.756 1.32-1.717 3.842-.04 4.282 1.677.44 3.395-.28 3.275-2.16-.12-1.882-2.072-2.68-3.235-2.122zm11.222-1c-2.077.44-2.356 2.28-1.877 3 .48.72 1.318 2.963 3.395 2.362 2.077-.6 2.915-1.8 2.476-3.322-.44-1.52-2.055-2.452-3.995-2.04zm12.3 1.04c-3.274 1.24-1.556 4.002.32 3.882 1.877-.12 2.875-1.4 2.796-2.36-.08-.962-1.566-2.11-3.114-1.522z"/></svg>