<?xml version="1.0" encoding="utf-8"?>
<!-- Generator: Adobe Illustrator 16.0.3, SVG Export Plug-In . SVG Version: 6.00 Build 0)  -->
<!DOCTYPE svg PUBLIC "-//W3C//DTD SVG 1.1//EN" "http://www.w3.org/Graphics/SVG/1.1/DTD/svg11.dtd">
<svg version="1.1" id="Layer_1" xmlns="http://www.w3.org/2000/svg" xmlns:xlink="http://www.w3.org/1999/xlink" x="0px" y="0px"
	 width="512px" height="512px" viewBox="0 0 512 512" enable-background="new 0 0 512 512" xml:space="preserve">
<g>
	<g>
		<g>
			<path fill="#FEBF10" d="M131.682,288.655c-0.382-3.694,0.755-8.577-0.657-12c-0.429-1.041-4.56-0.511-5.338-0.284
				c-1.936,0.565-3.241,1.251-4.497,2.844c-0.625,0.794-1.326,1.293-2.051,1.557c0.986,6.746,1.618,13.548,3.92,20.028
				c0.104,0.293,0.173,0.573,0.225,0.851c2.107-2.494,6.134-2.185,8.06-0.059c0.419-0.543,0.713-1.31,0.857-2.396
				C132.661,295.743,132.038,292.092,131.682,288.655z"/>
		</g>
	</g>
	<g>
		<g>
			<path fill="#FEBF10" d="M260.37,194.523c-2.176-3.809-4.398-7.765-6.437-11.842c0,0.063-0.002,0.128-0.002,0.192
				c-0.052,7.22-0.104,14.438-0.136,21.66c0.798-0.048,1.646,0.09,2.513,0.477c4.836,2.155,9.756,4.486,14.999,5.469
				c2.375,0.445,4.751,0.601,7.132,0.589C271.035,207.496,264.751,202.196,260.37,194.523z"/>
		</g>
	</g>
	<g>
		<g>
			<path fill="#FEBF10" d="M175.824,346.788c-0.777-3.697-1.736-7.657-3.785-10.884c-2.304-3.628-2.797-2.054-5.265,1.819
				c-0.552,0.867-1.238,1.474-1.989,1.861c1.437,7.528,3.116,15.012,3.883,22.642c0.771-0.626,1.802-1.005,3.108-0.972
				c3.051,0.078,4.692,0.368,4.714-2.961C176.516,354.6,176.582,350.398,175.824,346.788z"/>
		</g>
	</g>
	<g>
		<g>
			<path fill="#74CCCF" d="M339.436,421.479l0.099-1.86c0.008-0.147,0.027-0.289,0.044-0.43c0.617-9.216,1.652-24.556-11.902-20.234
				c-9.913,3.16-3.301,19.642-0.98,26.062c0.123,0.34,0.203,0.669,0.257,0.987c4.749-0.176,9.499-0.374,14.245-0.591
				C340.077,424.636,339.336,423.33,339.436,421.479z"/>
		</g>
	</g>
	<g>
		<g>
			<path fill="#FEBF10" d="M219.508,287.923c-0.342-4.029-0.933-8.021-1.26-12.052c-0.237-2.904,0.127-7.339-1.37-9.979
				c-1.456-2.568-5.912-1.381-8.257-0.964c-0.197,0.036-0.391,0.061-0.582,0.076c0.514,0.742,0.811,1.704,0.763,2.891
				c-0.351,8.562,0.48,17.313,2.257,25.702c2.311-1.078,4.654-1.594,7.066-2.412C220.014,290.546,219.694,290.099,219.508,287.923z"
				/>
		</g>
	</g>
	<g>
		<g>
			<path fill="#FEBF10" d="M211.068,167.453c-0.007-2.385,0.024-4.772-0.044-7.156c-0.06-2.165,0.337-6.757-1.483-8.443
				c-1.529-1.417-4.222-1.388-6.702-1.071c0.104,1.422-0.498,2.816-1.49,3.858c0.012,0.736-0.003,1.483,0.013,1.822
				c0.111,2.302-0.076,4.601,0.043,6.905c0.303,5.893,0.931,11.746,0.792,17.648c1.352-0.952,2.872-1.656,4.54-1.983
				c1.917-0.375,4.416-0.077,4.832-2.462C212.104,173.51,211.077,170.505,211.068,167.453z"/>
		</g>
	</g>
	<g>
		<g>
			<path fill="#FEBF10" d="M214.512,218.966c-0.208-1.86-0.247-7.023-1.512-8.06c-0.984-0.809-3.956-0.907-6.153-0.961
				c-0.028,0.326-0.083,0.664-0.18,1.016c-1.952,7.1-1.233,14.704,0.867,21.719c0.238-0.058,0.482-0.105,0.741-0.135
				c1.92-0.216,5.916-0.257,6.307-2.38C215.217,226.721,214.899,222.423,214.512,218.966z"/>
		</g>
	</g>
	<g>
		<g>
			<path fill="#FEBF10" d="M170.374,271.252c-2.547-4.007-7-2.922-10.995-1.813c-0.638,0.178-1.239,0.232-1.802,0.195
				c0.012,0.312,0.002,0.632-0.042,0.966c-1.127,8.583,2.153,17.456,3.962,25.891c1.208-0.511,2.653-0.426,4.128,0.643
				c3.362,2.432,4.207,1.888,5.767-1.984c1.332-3.304,1.957-7.169,2.066-10.72C173.592,280.164,172.695,274.901,170.374,271.252z"/>
		</g>
	</g>
	<g>
		<g>
			<path fill="#FEBF10" d="M369.408,283.329c-1.082-2.642-2.856-5.196-5.1-6.979c-0.773-0.615-1.479-0.954-2.073-1.07
				c-0.043-0.008-0.257-0.122-0.917,0.305c-0.602,0.387-1.197,0.623-1.778,0.742c0.071,5.702,1.138,11.107,2.885,16.528
				C369.492,293.038,372.193,290.123,369.408,283.329z"/>
		</g>
	</g>
	<g>
		<g>
			<path fill="#FEBF10" d="M327.383,342.778c-0.199-1.516-0.614-2.989-0.845-4.501c-0.353-2.302-0.682-6.377-2.57-8.053
				c-0.954-0.845-2.445-0.664-3.86-0.241c0.295,4.641,1.231,9.189,2.09,13.759c1.137,0.254,2.244,0.912,3.08,1.843
				c0.836-0.106,1.578-0.292,2.061-0.608C327.17,344.881,327.502,343.685,327.383,342.778z"/>
		</g>
	</g>
	<g>
		<g>
			<path fill="#FEBF10" d="M377.828,334.297c-0.886-3.56-2.161-7.154-4.332-10.153c-2.75-3.798-4.069-2.491-6.699,0.892
				c-0.602,0.774-1.277,1.268-1.975,1.538c0.042,5.994,2.182,12.009,3.349,17.979c0.078-0.019,0.148-0.041,0.228-0.056
				c2.468-0.482,8.066-0.68,9.866-2.745C379.454,340.388,378.217,335.86,377.828,334.297z"/>
		</g>
	</g>
	<g>
		<g>
			<path fill="#FEBF10" d="M387.29,385.178c-0.026-2.432-0.008-6.264-1.899-8.151c-1.975-1.973-4.449-1.392-6.813-0.512
				c-0.255,5.508-0.334,10.942,0.353,16.359c0.139-0.031,0.28-0.063,0.427-0.085c1.595-0.237,5.644-0.324,6.844-1.602
				C387.417,389.893,387.308,386.851,387.29,385.178z"/>
		</g>
	</g>
	<g>
		<g>
			<path fill="#BCBCBC" d="M412.955,411.699c2.956-3.933,0.137-13.34-0.565-17.825c-1.182-7.533-1.099-14.391-1.173-22.008
				c-0.106-10.771-1.066-21.482-1.962-32.209c-0.896-10.721-1.243-21.457-3.066-32.077c-1.362-7.938-3.009-15.823-4.701-23.698
				c-1.266-5.893-2.039-12.427-4.801-17.87c-3.965-7.808-10.098-10.879-18.678-11.012c-13.008-0.201-26.012-0.893-39.015-1.27
				c-17.408-0.505-34.863-0.928-52.273-0.273c-6.348,0.239-13.151,0.467-19.237,1.523c-2.071,0.36-4.205,0.754-6.174,1.523
				c0.224-0.062,0.123,0.058-0.073,0.202c-0.922,3.091-4.331,3.468-6.855,2.021c0.742,24.482,2.078,48.924,3.41,73.4
				c0.903,16.572,1.593,33.086,3.192,49.612c1.469,15.163,2.891,30.342,2.484,45.582c17.64-0.114,35.282-0.408,52.913-0.958
				c-4.61-13.502-8.074-34.317,10.649-37.663c8.678-1.551,16.992,1.006,20.712,9.47c3.332,7.579,2.313,15.114,1.888,23.068
				c-0.094,1.735-0.884,3.024-1.985,3.865c0.834-0.042,1.667-0.078,2.5-0.12c14.833-0.765,29.639-1.255,44.373-3.272
				c6.596-0.904,13.224-2.41,19.876-3.634C412.208,416.821,411.002,414.3,412.955,411.699z M266.354,299.324
				c-0.61-7.544-2.137-14.956-1.855-22.557c0.097-2.612,1.779-4.221,3.75-4.798c-0.858-2.505-0.03-5.462,3.302-6.16
				c5.972-1.251,12.86-1.858,16.862,3.725c3.49,4.869,3.045,11.41,4.872,16.903c1.668,5.02,3.844,11.597-0.083,16.152
				c-3.885,4.508-10.696,3.575-15.92,2.958c-1.604-0.188-2.656-0.932-3.238-1.931C271.132,304.965,266.697,303.564,266.354,299.324z
				 M269.862,329.117c0.082-1.855,0.959-3.204,2.169-4.038c0.155-1.317,0.917-2.57,2.507-3.398
				c4.673-2.438,11.061-4.478,15.916-1.139c4.483,3.083,7.063,7.812,8.264,13.072c1.186,5.197,2.804,11.828-0.519,16.566
				c-2.566,3.661-6.745,4.462-10.745,5.74c-2.289,0.731-4.114-0.107-5.211-1.562c-2.091,2.913-7.746,3.199-9.306-1.324
				C270.284,345.343,269.507,337.214,269.862,329.117z M300.947,404.771c-4.104,7.189-12.022,10.722-19.352,5.716
				c-1.18-0.806-1.863-1.863-2.152-2.984c-1.718-0.26-3.34-1.289-4.142-3.3c-2.786-6.981-2.557-14.453-2.166-21.828
				c0.107-2.008,1.144-3.42,2.519-4.229c-0.323-1.439-0.029-3.031,1.243-4.436c11.032-12.2,21.353,2.873,24.322,13.406
				C302.834,392.845,304.079,399.283,300.947,404.771z M305.182,303.721c-1.322-6.779-2.723-13.581-3.505-20.449
				c-0.339-2.977-0.161-8.016,1.805-10.548c-0.197-1.69,0.491-3.425,2.502-4.483c20.061-10.566,26.085,16.432,26.711,30.79
				c0.098,2.25-1.507,4.42-3.671,5.014c-4.144,1.139-8.288,2.278-12.432,3.418c-1.787,0.491-3.295,0.067-4.401-0.833
				C309.54,308.061,305.916,307.478,305.182,303.721z M334.995,351.788c-3.126,3.04-7.409,3.742-11.616,4.021
				c-1.601,4.376-9.491,3.815-9.928-1.9c-0.718-9.369-3.907-18.268-3.618-27.756c0.095-3.108,2.437-4.797,4.853-5.016
				c5.217-1.869,12.232-2.846,16.411,1.8c3.875,4.304,4.599,9.576,5.72,15.044C337.729,342.424,338.666,348.216,334.995,351.788z
				 M353.46,298.14c-2.771-7.755-4.398-15.71-4.092-23.973c0.111-3.035,2.362-4.717,4.719-4.995
				c0.356-0.878,0.998-1.689,1.992-2.331c18.292-11.807,40.801,37.344,6.412,36.206c-1.511-0.051-2.684-0.635-3.519-1.496
				C356.769,301.78,354.408,300.793,353.46,298.14z M358.621,349.183c-0.813-9.655-4.757-18.235-3.52-28.097
				c0.372-2.96,2.615-4.042,4.875-3.743c4.648-5.584,11.525-8.157,17.843-3.3c4.952,3.807,8.082,10.513,9.562,16.46
				c1.304,5.231,2.657,12.01-0.599,16.823c-3.389,5.007-10.06,5.89-15.532,6.958c-1.78,0.348-3.288-0.158-4.401-1.094
				C363.987,354.984,358.999,353.683,358.621,349.183z M393.488,398.318c-3.979,3.316-8.772,3.908-13.747,4.643
				c-1.93,3.514-8.126,4.138-9.394-0.814c-2.37-9.26-2.341-18.455-1.839-27.935c0.12-2.262,1.421-3.771,3.055-4.508
				c0.536-1.028,1.438-1.908,2.761-2.433c12.71-5.039,23,3.073,23.145,16.413C397.52,388.277,397.41,395.047,393.488,398.318z"/>
		</g>
	</g>
	<g>
		<g>
			<path fill="#FEBF10" d="M288.931,336.468c-1.434-5.402-3.217-9.001-8.914-6.156c-0.162,6.004,0.341,11.866,2.005,17.621
				c0.571-0.786,1.418-1.429,2.581-1.8c1.221-0.391,5.033-1.322,5.175-1.617C290.739,342.506,289.472,338.51,288.931,336.468z"/>
		</g>
	</g>
	<g>
		<g>
			<path fill="#FEBF10" d="M312.423,276.49c-0.041,0.959-0.355,1.916-0.877,2.744c0.045,0.967,0.111,1.932,0.221,2.895
				c0.254,2.229,0.573,4.449,0.95,6.662c0.499,2.914,1.047,5.819,1.607,8.722c2.643-0.727,5.285-1.452,7.926-2.179
				C321.601,287.608,319.488,274.25,312.423,276.49z"/>
		</g>
	</g>
	<g>
		<g>
			<path fill="#FEBF10" d="M282.573,285.452c-0.583-2.848-0.649-6.888-2.117-9.451c-1.058-1.851-4.028-0.866-5.815-0.456
				c0.043,0.31,0.065,0.635,0.052,0.983c-0.249,6.695,0.906,13.246,1.601,19.869c0.958-0.587,2.126-0.895,3.467-0.736
				c1.602,0.189,3.819,0.571,5.442,0.149C284.904,292.291,283.283,288.906,282.573,285.452z"/>
		</g>
	</g>
	<g>
		<g>
			<path fill="#FEBF10" d="M292.724,396.486c-0.18-2.555-0.796-5.08-1.596-7.51c-0.917-2.794-1.996-6.222-4.057-8.422
				c-1.567-1.674-1.367-1.397-2.888,0.285c-0.274,0.304-0.561,0.561-0.854,0.774c0.006,0.169,0.008,0.342-0.002,0.521
				c-0.336,6.366-0.685,12.657,1.573,18.703c0.557,0.13,1.13,0.375,1.711,0.772C290.192,404.054,292.987,400.205,292.724,396.486z"
				/>
		</g>
	</g>
	<g>
		<g>
			<path fill="#FEBF10" d="M220.616,351.812c-0.765-3.84-1.389-7.71-2.188-11.54c-0.663-3.178-1.255-6.863-3.161-9.581
				c-1.545-2.204-3.905-1.456-6.022-0.467c-0.225,0.558-0.56,1.107-1.039,1.629c-1.564,1.703-0.222,8.88,0.126,11.27
				c0.435,2.975,0.942,6.298,1.911,9.308c0.495,0.229,0.981,0.552,1.445,0.988c2.324,2.187,5.834,2.003,8.458,0.334
				C221.076,353.161,220.935,353.418,220.616,351.812z"/>
		</g>
	</g>
	<g>
		<g>
			<path fill="#BCBCBC" d="M248.527,352.328c-1.09-33.037-3.714-65.986-4.533-99.042c-0.828-33.408-0.117-66.82-0.105-100.231
				c0.003-8.776,1.959-25.551-9.551-28.192c-7.046-1.616-14.072-0.907-21.171,0.048c-1.465,0.197-2.927,0.377-4.388,0.55
				c-1.374,0.854-3.18,1.015-4.738,0.525c-3.851,0.398-7.703,0.736-11.589,1.02c-31.521,2.292-62.919,6.036-94.45,8.228
				c-1.52,10.236-0.674,20.723,0.175,30.993c1,12.106,1.66,24.045,1.214,36.199c-0.953,26.015-2.867,51.815-1.119,77.853
				c1.758,26.177,5.765,52.185,7.289,78.364c1.43,24.565,0.767,49.163-0.51,73.721c6.777-0.214,13.554-0.608,20.332-0.979
				c10.669-0.585,21.281-0.287,31.909-0.221c-0.031-0.283-0.047-0.576-0.032-0.891c0.484-10.192,0.132-20.399,0.617-30.592
				c0.135-2.847,2.057-5.052,4.978-5.216c9.53-0.538,19.067-0.957,28.61-0.51c2.98,0.139,4.875,2.065,5.216,4.977
				c1.178,10.056,0.911,20.146,0.415,30.229c5.883-0.541,11.765-1.086,17.663-1.478c12.791-0.851,25.695-0.414,38.535-0.336
				C253.913,402.227,249.356,377.401,248.527,352.328z M228.157,272.126c0.504,6.153,1.976,12.766,1.52,18.912
				c-0.231,3.116-1.438,5.997-4.117,7.793c-2.991,2.005-6.479,2.126-9.618,3.674c-3.092,1.525-6.021-0.184-7.234-2.565
				c-2.648,1.556-6.46,1.029-7.297-2.797c-2.064-9.443-3.198-19.34-2.802-29.008c0.127-3.128,2.522-4.817,4.959-5.016
				c-2.25-2.649-2.089-7.214,2.202-7.979c5.577-0.992,13.519-2.17,17.809,2.736C227.107,261.911,227.733,266.954,228.157,272.126z
				 M146.171,151.393c0.769-1.635,1.995-2.435,3.313-2.619c0.345-0.785,0.905-1.52,1.722-2.134
				c6.821-5.124,17.869-3.602,23.482,2.528c2.622,2.865,3.364,6.624,3.764,10.356c0.384,3.582,1.909,7.014,2.565,10.568
				c1.326,7.183,2.219,16.479-5.508,20.472c-5.975,3.087-14.472,4.933-20.031,0.099c-0.636-0.554-1.071-1.154-1.338-1.773
				c-0.804-0.006-1.661-0.232-2.532-0.759c-5.23-3.155-5.633-12.285-6.247-17.62C144.674,164.539,143.514,157.046,146.171,151.393z
				 M148.567,211.351c0.115-3.221,2.638-4.917,5.146-5.03c0.456-0.346,0.995-0.634,1.634-0.838
				c5.573-1.774,12.318-2.744,17.039,1.592c4.479,4.115,5.994,10.646,7.21,16.372c1.08,5.087,2.167,11.418-1.047,16.039
				c-3.241,4.657-8.071,7.458-12.866,10.308c-3.664,2.178-7.15-0.727-7.614-3.956c-3.038,2.13-8.25,0.933-8.082-3.786
				C150.35,231.774,148.202,221.628,148.567,211.351z M142.659,226.344c0.991,5.923,1.557,13.317-3.002,18.025
				c-4.541,4.688-11.066,5.642-17.301,6.004c-2.21,0.129-3.697-0.939-4.454-2.425c-1.829,0.362-3.799-0.243-5.018-2.36
				c-5.31-9.217-3.923-20.048-3.324-30.201c0.181-3.077,2.543-4.763,4.949-4.997c0.197-0.124,0.405-0.241,0.635-0.349
				c6.143-2.852,12.985-4.282,18.891-0.046C139.293,213.765,141.63,220.189,142.659,226.344z M104.197,173.434
				c-0.231-4.823-0.039-9.649,0.218-14.468c0.099-1.854,0.99-3.202,2.21-4.033c0.165-1.311,0.916-2.558,2.466-3.403
				c3.079-1.68,6.355-2.919,9.434-4.598c2.519-1.375,5.414-0.637,6.992,1.751c6.861,10.388,8.501,22.601,10.23,34.655
				c0.381,2.652-2.438,5.294-4.976,5.216c-4.777-0.146-9.531,0.378-14.305,0.255c-2.462-0.062-4.036-1.54-4.693-3.352
				c-0.501,0.03-1.026,0.006-1.592-0.128C105.012,184.109,104.407,177.797,104.197,173.434z M113.271,303.65
				c-2.417-6.807-2.994-13.949-4.067-21.015c-1.255-0.752-2.112-2.104-2.006-4.085l0.272-5.089c0.25-4.66,6.103-6.727,8.835-3.734
				c5.068-3.979,12.979-5.134,18.651-2.386c7.692,3.726,6.054,11.189,6.65,18.249c0.519,6.124,1.85,12.631-0.174,18.621
				c-2.273,6.72-8.605,9.229-15.276,8.635c-3.076-0.272-6.157-2.889-5.064-6.335c0.026-0.081,0.061-0.161,0.089-0.243
				C118.622,307.814,114.582,307.34,113.271,303.65z M147.039,372.794c-0.137,2.687-2.052,5.261-4.977,5.217
				c-6.451-0.098-13.476,1.165-16.103-6.307c-0.49-1.393-0.375-2.611,0.117-3.599c-1.036,0.897-2.499,1.254-4.277,0.573
				c-5.483-2.097-5.446-9.072-5.87-14.078c-0.491-5.77-0.886-11.637-0.643-17.43c0.076-1.778,0.887-3.091,2.019-3.929
				c-0.142-1.267,0.321-2.597,1.688-3.718c4.577-3.752,10.941-7.332,16.789-3.903c4.706,2.759,7.144,8.051,8.5,13.136
				C147.198,349.687,147.61,361.535,147.039,372.794z M152.17,301.65c-1.992-11.159-6.03-22.054-4.521-33.527
				c0.413-3.145,2.927-4.171,5.323-3.674c-0.073-2.051,0.986-4.087,3.556-4.8c7.774-2.156,16.302-2.263,21.537,4.827
				c4.049,5.481,6.024,13.76,5.547,20.514c-0.451,6.375-1.515,13.526-5.418,18.796c-4.509,6.089-11.585,6.564-17.585,2.222
				c-0.605-0.438-1.068-0.943-1.418-1.49C156.52,306.013,152.849,305.457,152.17,301.65z M186.259,362.188
				c-1.682,6.968-7.539,9.433-14.242,9.26c-2.25-0.058-3.758-1.295-4.502-2.89c-2.716,2.451-8.456,1.317-8.802-3.541
				c-0.641-8.967-2.901-17.671-4.434-26.506c-0.542-3.124,1.502-5.411,3.871-6.191c3.502-5.337,10.062-12.078,16.936-7.633
				c5.693,3.681,8.531,10.646,10.032,17.024C186.558,347.841,187.766,355.95,186.259,362.188z M191.991,182.031
				c0.317-9.012-0.331-18.432-0.987-27.426c-0.218-2.974-0.255-6.588,2.667-8.339c0.188-0.113,0.377-0.211,0.566-0.298
				c0.34-2.217,1.88-4.357,4.639-4.78c5.69-0.873,12.712-1.331,17.296,2.914c3.573,3.311,4.637,8.164,4.914,12.854
				c0.202,3.417,0.153,6.836,0.176,10.258c0.026,3.882,1.452,7.976,0.196,11.834c-1.147,3.529-2.827,6.643-6.3,8.28
				c-2.998,1.413-6.392,0.836-8.591,3.563c-3.365,4.178-8.822,0.168-8.482-4.21C195.193,187.334,191.857,185.821,191.991,182.031z
				 M196.779,208.483c0.542-1.969,1.872-3.085,3.394-3.5c-0.278-2.707,1.279-5.482,4.758-5.283
				c5.269,0.299,11.659,0.238,15.604,4.337c3.754,3.899,4.037,11.025,4.21,16.078c0.181,5.292,1.11,11.505-1.799,16.264
				c-2.997,4.905-9.232,5.778-14.43,6.359c-1.888,0.211-3.243-0.49-4.063-1.608c-2.336,0.452-4.989-0.479-5.986-3.354
				C195.268,228.551,194.167,217.979,196.779,208.483z M227.257,361.151c-5.567,4.52-13.395,5.261-19.459,1.898
				c-1.897,0.521-3.967-0.057-5.119-2.403c-2.792-5.686-4.007-12.253-4.698-18.503c-0.608-5.503-1.194-12.396,2.56-16.965
				c0.185-1.272,0.957-2.463,2.526-3.243c5.926-2.94,14.156-4.869,19.084,1.109c4.454,5.402,5.717,12.16,6.902,18.89
				C230.169,348.273,233.231,356.3,227.257,361.151z"/>
		</g>
	</g>
	<g>
		<g>
			<path fill="#74CCCF" d="M186.938,404.001c-6.349-0.118-12.696,0.085-19.041,0.401c-0.214,8.543-0.039,17.092-0.445,25.63
				c-0.019,0.383-0.074,0.742-0.155,1.081c1.088-0.02,2.175-0.031,3.263-0.064c5.449-0.165,10.881-0.534,16.308-0.981
				C187.303,421.375,187.582,412.679,186.938,404.001z"/>
		</g>
	</g>
	<g>
		<g>
			<path fill="#FEBF10" d="M157.538,179.86c-0.2-0.152-0.488-0.35-0.911-0.605c0.357,0.216,0.67,0.454,0.944,0.709
				C157.558,179.931,157.549,179.895,157.538,179.86z"/>
		</g>
	</g>
	<g>
		<g>
			<path fill="#FEBF10" d="M119.085,157.956c-1.533,0.704-3.062,1.412-4.55,2.214c-0.157,3.083-0.285,6.171-0.25,9.258
				c0.019,1.832,0.04,3.678,0.233,5.502c0.058,0.532,0.098,0.998,0.22,1.506c0.72,0.588,1.18,1.351,1.43,2.182
				c0.02,0.001,0.039-0.002,0.06-0.001c2.861,0.073,5.715-0.085,8.572-0.192C123.708,171.345,122.28,164.342,119.085,157.956z"/>
		</g>
	</g>
	<g>
		<g>
			<path fill="#FEBF10" d="M132.838,229.157c-0.981-7.328-4.153-14.224-12.453-10.373c-0.314,0.146-0.627,0.254-0.936,0.338
				c-0.612,7.104-1.36,14.968,2.123,21.116c0.177-0.026,0.357-0.047,0.545-0.059c2.74-0.159,7.494-0.092,9.608-2.275
				C133.875,235.684,133.214,231.967,132.838,229.157z"/>
		</g>
	</g>
	<g>
		<g>
			<path fill="#FEBF10" d="M170.33,169.026c-0.583-2.171-1.545-4.389-1.787-6.626c-0.195-1.817-0.197-3.855-0.892-5.577
				c-1.628-4.031-8.395-3.55-11.204-1.439c-0.395,0.295-0.787,0.512-1.175,0.672c-0.027,0.192-0.277,0.938-0.287,1.098
				c-0.076,1.166-0.122,2.334-0.102,3.502c0.049,2.844,0.219,5.687,0.544,8.513c0.304,2.641,0.656,5.287,1.298,7.871
				c0.236,0.945,0.468,1.906,0.812,2.821c0.391,0.301,0.418,0.42,0.334,0.416c0.496,0.548,0.821,1.163,1.01,1.806
				c1.237-0.096,2.543,0.266,3.726,1.294c0.68,0.591,7.406-0.44,8.501-2.064C173.188,178.228,171.205,172.288,170.33,169.026z"/>
		</g>
	</g>
	<g>
		<g>
			<path fill="#127274" d="M429.38,426.386c-12.234,0.58-24.484,4.267-36.579,5.775c-14.771,1.841-29.594,2.391-44.449,3.118
				c-30.417,1.489-60.868,2.185-91.32,2.274c-15.267,0.046-30.614-0.636-45.839,0.605c-14.096,1.15-28.188,2.964-42.346,3.124
				c-15.116,0.171-30.066-0.455-45.194,0.403c-13.516,0.768-27.033,1.521-40.549,0.582c-0.184,1.005-0.661,1.803-1.322,2.387
				c-0.027,5.889,1.94,11.686,3.038,17.427c0.556,2.915,0.846,7.268,4.396,7.772c5.178,0.736,10.938-0.272,16.093-0.663
				c7.703-0.582,15.418-0.985,23.139-1.196c32.545-0.888,65.072,0.815,97.617,0.512c33.21-0.311,66.411-1.704,99.625-1.577
				c32.935,0.125,65.911-5.034,98.82-2.307c1.108,0.092,2.034,0.469,2.781,1.02c0.151-1.93,1.226-3.743,2.75-4.564
				C430.227,449.516,429.663,437.947,429.38,426.386z"/>
		</g>
	</g>
	<g>
		<g>
			<path fill="#FEBF10" d="M157.57,179.964c0.008,0.021,0.013,0.045,0.021,0.065c0.059,0.147,0.209,0.242,0.281,0.247
				C157.776,180.169,157.679,180.065,157.57,179.964z"/>
		</g>
	</g>
	<g>
		<g>
			<path fill="#FEBF10" d="M170.082,227.594c-0.824-3.88-1.449-8.954-3.852-12.243c-1.674-2.292-5.16-1.037-7.495-0.257
				c0.172,8.725,1.686,17.378,1.456,26.122c0.083-0.055,0.163-0.113,0.251-0.166C166.422,237.496,171.719,235.301,170.082,227.594z"
				/>
		</g>
	</g>
	<g>
		<g>
			<path fill="#FEBF10" d="M135.778,347.574c-0.695-4.055-1.434-8.773-3.953-12.166c-0.711-0.956-0.87-1.008-1.574-0.939
				c-1.063,0.101-2.869,1.282-3.969,2.185c-0.263,0.216-0.533,0.395-0.807,0.551c-0.16,4.21,0.047,8.46,0.313,12.658
				c0.164,2.535,0.333,5.077,0.653,7.598c0.12,0.932,0.23,1.869,0.466,2.782c0.12,0.461,0.216,0.744,0.277,0.901
				c0.097,0.183,0.083,0.217,0,0c-0.199-0.379-0.87-1.383-2.35-2.105c3.082,1.554,3.573,5.274,2.298,7.714
				c2.24-1.955,6.403-1.973,8.185,1.162c0.102,0.02,0.207,0.04,0.333,0.072c0.459,0.002,0.918-0.026,1.376-0.042
				C137.181,361.141,136.916,354.207,135.778,347.574z"/>
		</g>
	</g>
	<g>
		<g>
			<path d="M439.467,421.122c-0.043-2.89-2.459-4.888-5.216-4.978c-4.198-0.133-8.388,0.191-12.57,0.754
				c0.05-0.062,0.103-0.117,0.151-0.183c5.108-6.8,1.335-19.269,0.175-26.777c-0.759-4.926-0.736-9.469-0.622-14.449
				c0.188-8.248-0.35-16.504-0.986-24.722c-1.192-15.363-1.917-30.825-4.424-46.04c-1.207-7.341-2.761-14.626-4.315-21.901
				c-1.42-6.653-2.531-13.42-5.183-19.721c-4.079-9.688-11.752-16.24-22.232-17.886c-4.784-0.751-9.828-0.474-14.66-0.634
				c-1.431-0.048-2.86-0.1-4.289-0.147c0.244-2.921,0.173-5.934-0.092-8.974h-0.528c-0.52-6.882-1.812-13.702-3.354-20.463
				c2.518-0.514,4.973-1.2,7.267-2.247c5.924-2.706,2.623-12.36-3.371-9.622c-1.992,0.909-4.113,1.502-6.286,1.949
				c-0.032-0.132-0.065-0.264-0.098-0.396c-0.582-2.337-1.057-4.724-1.482-7.129c8.387-1.181,16.777-2.331,25.234-2.881
				c6.554-0.424,5.783-10.592-0.785-10.166c-8.718,0.565-17.365,1.772-26.01,2.99c-0.204-1.404-0.408-2.803-0.622-4.188
				c-0.148-0.96-0.281-1.921-0.415-2.884c3.319-0.495,6.586-1.231,9.757-2.332c6.205-2.156,2.851-11.785-3.371-9.623
				c-2.406,0.837-4.893,1.422-7.423,1.836c-0.066-1.082-0.129-2.164-0.161-3.247c0.693-0.853,1.125-1.971,1.101-3.345
				c-0.042-2.433-0.565-4.479-1.877-6.534c-3.044-4.772-9.039-1.412-9.309,3.241c-0.209,3.604-0.159,7.196,0.065,10.779
				c-3.932,0.117-7.865,0.056-11.684,0.056c-6.57,0.002-5.757,10.167,0.785,10.165c3.932,0,7.938,0.025,11.941-0.121
				c0.347,2.53,0.755,5.055,1.181,7.577c-5.638,0.737-11.285,1.378-16.964,1.746c-6.555,0.427-5.783,10.592,0.784,10.166
				c6.001-0.389,11.968-1.083,17.923-1.874c0.196,1.116,0.394,2.234,0.583,3.35c0.246,1.457,0.524,2.912,0.822,4.368
				c-0.591,0.094-1.183,0.188-1.764,0.301c-6.373,1.22-5.677,11.401,0.785,10.165c1.055-0.201,2.13-0.374,3.215-0.535
				c1.463,6.26,2.885,12.533,3.459,18.897h-0.037c0.062,0.556,0.115,1.111,0.17,1.668c0.151,2.301,0.181,4.616,0.053,6.945
				c-10.648-0.368-21.299-0.725-31.954-0.93c-11.01-0.211-22.061-0.353-33.084-0.013c0.131-4.949,1.943-9.49,3.981-14
				c1.243,0.406,2.455,0.898,3.619,1.51c5.82,3.052,10.837-5.824,5.018-8.876c-1.497-0.785-3.036-1.43-4.608-1.969
				c0.507-1.41,0.952-2.836,1.276-4.297c0.259-0.575,0.427-1.226,0.467-1.959l0.118-2.186c0.146-2.74-1.547-4.285-3.593-4.684
				c-0.575-0.511-1.316-0.906-2.255-1.117c-10.585-2.385-18.872-6.792-24.66-16.275c-7.246-11.87-14.523-26.059-13.108-40.338
				c0.201-2.028-0.647-3.396-1.93-4.126c-0.117-2.364-0.264-4.724-0.485-7.073c-1.024-10.877-5.879-19.525-16.775-22.772
				c-6.078-1.81-12.397-1.729-18.749-1.065c0.212-0.598,0.442-1.189,0.659-1.785h-6.003c2.294-10.394,5.523-20.579,8.048-30.922
				c1.075,0.18,2.149,0.374,3.217,0.598c1.286,0.269,2.575,0.586,3.805,1.053c0.701,0.266,2.089,1.54,1.351,0.521
				c3.853,5.315,12.316-0.368,8.452-5.699c-3.071-4.239-9.01-5.754-14.517-6.534c0.928-4.277,1.776-8.567,2.587-12.866
				c11.359,0.816,22.675,2.141,33.928,4.194c0.75,0.444,1.654,0.712,2.71,0.712h2.039c5.872,0,6.099-9.003,0.581-10.087
				c-12.398-2.433-24.898-3.948-37.448-4.875c0.599-3.513,1.179-7.028,1.724-10.555c1-6.48-9.002-8.449-10.007-1.944
				c-0.613,3.972-1.292,7.922-1.997,11.865c-10.012-0.497-20.051-0.677-30.089-0.687c-6.57-0.006-5.756,10.16,0.785,10.166
				c9.155,0.01,18.296,0.171,27.415,0.6c-0.808,4.125-1.641,8.246-2.516,12.363c-6.396-0.558-13.488-0.666-18.967,2.193
				c-5.828,3.042-0.064,11.459,5.7,8.451c-0.933,0.486,0.819-0.114,0.913-0.131c1.425-0.247,2.883-0.318,4.325-0.392
				c1.929-0.098,3.864-0.078,5.796,0.004c-2.87,12.027-6.818,23.777-9.02,35.952c-1.822,0.203-3.632,0.359-5.423,0.436
				c-34.247,1.466-68.343,6.58-102.554,8.8c-2.203,0.142-4.354,1.581-4.824,3.857c-4.716,22.798,1.124,46.494,0.582,69.527
				c-0.612,26.019-2.912,51.792-1.48,77.842c1.441,26.241,5.368,52.256,7.277,78.448c1.879,25.782,1.096,51.701-0.248,77.489
				c-4.887-0.023-9.774-0.188-14.662-0.612c-2.626-0.228-4.147,1.284-4.611,3.207c-1.683,0.405-3.113,1.541-3.43,3.541
				c-0.998,6.292-0.169,12.329,1.091,18.523c1.124,5.53,1.977,11.638,4.772,16.615c4.563,8.129,15.981,6.628,23.722,5.923
				c32.154-2.93,64.527-1.626,96.75-1.074c33.213,0.569,66.427-0.747,99.63-1.293c16.508-0.271,33.05,0.205,49.543-0.508
				c16.507-0.713,32.966-2.241,49.485-2.703c7.56-0.212,15.121-0.101,22.666,0.36c0.273,0.056,0.556,0.099,0.855,0.115l4.071,0.217
				c3.107,0.168,4.664-1.951,4.775-4.3c0.968,0.75,1.865,2.076,1.021,0.333c2.413,4.979,9.245,1.895,9.469-2.739
				C440.769,452.452,439.706,436.779,439.467,421.122z M338.994,253.73c13.003,0.377,26.007,1.068,39.015,1.27
				c8.58,0.133,14.713,3.204,18.678,11.012c2.763,5.443,3.535,11.978,4.801,17.87c1.691,7.875,3.339,15.76,4.701,23.698
				c1.823,10.62,2.17,21.356,3.066,32.077c0.896,10.727,1.856,21.438,1.962,32.209c0.074,7.617-0.008,14.475,1.173,22.008
				c0.703,4.485,3.521,13.893,0.565,17.825c-1.953,2.601-0.748,5.122,1.439,6.379c-6.653,1.224-13.281,2.729-19.876,3.634
				c-14.734,2.018-29.541,2.508-44.373,3.272c-0.833,0.042-1.667,0.078-2.5,0.12c1.101-0.841,1.891-2.13,1.985-3.865
				c0.426-7.954,1.444-15.489-1.888-23.068c-3.721-8.464-12.034-11.021-20.712-9.47c-18.723,3.346-15.259,24.161-10.649,37.663
				c-17.631,0.55-35.273,0.844-52.913,0.958c0.406-15.24-1.015-30.419-2.484-45.582c-1.6-16.526-2.29-33.04-3.192-49.612
				c-1.332-24.477-2.668-48.918-3.41-73.4c2.524,1.446,5.933,1.069,6.855-2.021c0.196-0.145,0.297-0.265,0.073-0.202
				c1.969-0.77,4.104-1.163,6.174-1.523c6.086-1.057,12.889-1.284,19.237-1.523C304.13,252.803,321.586,253.226,338.994,253.73z
				 M341.199,425.413c-4.747,0.217-9.496,0.415-14.245,0.591c-0.054-0.318-0.134-0.647-0.257-0.987
				c-2.32-6.421-8.933-22.902,0.98-26.062c13.554-4.321,12.519,11.019,11.902,20.234c-0.017,0.141-0.036,0.282-0.044,0.43
				l-0.099,1.86C339.336,423.33,340.077,424.636,341.199,425.413z M253.931,182.874c0-0.064,0.002-0.129,0.002-0.192
				c2.039,4.077,4.26,8.033,6.437,11.842c4.382,7.673,10.666,12.973,18.069,16.545c-2.38,0.012-4.757-0.144-7.132-0.589
				c-5.243-0.982-10.163-3.313-14.999-5.469c-0.867-0.387-1.714-0.524-2.513-0.477C253.828,197.312,253.879,190.094,253.931,182.874
				z M268.829,220.368c1.298,0.288,2.607,0.483,3.919,0.631c-0.256,2.739,1.438,5.859,5.001,6.052
				c1.956,0.105,3.965,0.192,5.979,0.345c-2.353,5.194-4.116,10.447-4.187,16.212c-1.202,0.074-2.404,0.142-3.605,0.232
				c-4.756,0.357-16.548,0.51-21.817,4.903c-0.122-5.251-0.223-10.505-0.277-15.761c-0.062-5.998-0.074-11.995-0.072-17.994
				C258.657,217.148,263.603,219.204,268.829,220.368z M98,135.232c31.531-2.191,62.929-5.936,94.45-8.228
				c3.886-0.283,7.739-0.621,11.589-1.02c1.558,0.489,3.365,0.328,4.738-0.525c1.461-0.173,2.923-0.353,4.388-0.55
				c7.1-0.955,14.125-1.664,21.171-0.048c11.51,2.642,9.554,19.416,9.551,28.192c-0.011,33.411-0.723,66.823,0.105,100.231
				c0.819,33.056,3.443,66.005,4.533,99.042c0.829,25.073,5.386,49.898,4.764,75.019c-12.84-0.078-25.745-0.515-38.535,0.336
				c-5.897,0.392-11.779,0.937-17.663,1.478c0.497-10.083,0.763-20.173-0.415-30.229c-0.34-2.911-2.235-4.838-5.216-4.977
				c-9.543-0.447-19.08-0.028-28.61,0.51c-2.921,0.164-4.842,2.369-4.978,5.216c-0.485,10.192-0.133,20.399-0.617,30.592
				c-0.015,0.314,0.001,0.607,0.032,0.891c-10.627-0.066-21.239-0.364-31.909,0.221c-6.778,0.37-13.554,0.765-20.332,0.979
				c1.276-24.558,1.939-49.155,0.51-73.721c-1.524-26.18-5.531-52.188-7.289-78.364c-1.748-26.037,0.166-51.838,1.119-77.853
				c0.445-12.154-0.214-24.093-1.214-36.199C97.327,155.955,96.48,145.469,98,135.232z M186.868,430.067
				c-5.427,0.447-10.859,0.816-16.308,0.981c-1.088,0.033-2.175,0.045-3.263,0.064c0.082-0.339,0.136-0.698,0.155-1.081
				c0.406-8.538,0.231-17.087,0.445-25.63c6.344-0.316,12.691-0.52,19.041-0.401C187.582,412.679,187.303,421.375,186.868,430.067z
				 M430.039,461.078c-1.523,0.821-2.599,2.635-2.75,4.564c-0.747-0.551-1.672-0.928-2.781-1.02
				c-32.909-2.728-65.885,2.432-98.82,2.307c-33.215-0.127-66.415,1.267-99.625,1.577c-32.545,0.304-65.072-1.399-97.617-0.512
				c-7.721,0.211-15.436,0.614-23.139,1.196c-5.155,0.391-10.915,1.399-16.093,0.663c-3.55-0.505-3.839-4.857-4.396-7.772
				c-1.097-5.741-3.064-11.538-3.038-17.427c0.661-0.584,1.138-1.382,1.322-2.387c13.516,0.939,27.034,0.186,40.549-0.582
				c15.128-0.858,30.078-0.232,45.194-0.403c14.159-0.16,28.25-1.974,42.346-3.124c15.226-1.241,30.573-0.56,45.839-0.605
				c30.453-0.09,60.904-0.785,91.32-2.274c14.854-0.728,29.678-1.277,44.449-3.118c12.094-1.509,24.344-5.195,36.579-5.775
				C429.663,437.947,430.227,449.516,430.039,461.078z"/>
		</g>
	</g>
	<g>
		<g>
			<path d="M135.748,183.338c-1.729-12.055-3.369-24.268-10.23-34.655c-1.579-2.388-4.474-3.126-6.992-1.751
				c-3.079,1.679-6.355,2.918-9.434,4.598c-1.55,0.846-2.301,2.093-2.466,3.403c-1.22,0.831-2.111,2.18-2.21,4.033
				c-0.257,4.818-0.449,9.645-0.218,14.468c0.209,4.363,0.814,10.676,5.984,11.896c0.565,0.134,1.091,0.158,1.592,0.128
				c0.657,1.812,2.231,3.289,4.693,3.352c4.774,0.123,9.528-0.401,14.305-0.255C133.31,188.632,136.129,185.99,135.748,183.338z
				 M116.227,178.616c-0.021-0.001-0.04,0.002-0.06,0.001c-0.25-0.831-0.71-1.594-1.43-2.182c-0.122-0.508-0.162-0.974-0.22-1.506
				c-0.193-1.824-0.214-3.67-0.233-5.502c-0.034-3.087,0.093-6.175,0.25-9.258c1.488-0.802,3.018-1.51,4.55-2.214
				c3.194,6.386,4.622,13.389,5.713,20.468C121.942,178.531,119.087,178.689,116.227,178.616z"/>
		</g>
	</g>
	<g>
		<g>
			<path d="M181.018,170.093c-0.656-3.555-2.181-6.986-2.565-10.568c-0.4-3.732-1.142-7.491-3.764-10.356
				c-5.613-6.13-16.661-7.652-23.482-2.528c-0.817,0.614-1.377,1.349-1.722,2.134c-1.318,0.185-2.544,0.984-3.313,2.619
				c-2.657,5.653-1.497,13.146-0.81,19.118c0.614,5.335,1.017,14.465,6.247,17.62c0.872,0.526,1.728,0.753,2.532,0.759
				c0.267,0.619,0.702,1.22,1.338,1.773c5.559,4.834,14.056,2.988,20.031-0.099C183.237,186.572,182.344,177.275,181.018,170.093z
				 M171.11,181.312c-1.095,1.624-7.821,2.655-8.501,2.064c-1.183-1.028-2.489-1.39-3.726-1.294
				c-0.189-0.643-0.515-1.258-1.01-1.806c-0.072-0.005-0.222-0.1-0.281-0.247c-0.008-0.021-0.013-0.044-0.021-0.065
				c-0.273-0.255-0.586-0.493-0.944-0.709c0.423,0.256,0.711,0.453,0.911,0.605c-0.343-0.915-0.575-1.876-0.812-2.821
				c-0.642-2.584-0.994-5.23-1.298-7.871c-0.326-2.826-0.496-5.669-0.544-8.513c-0.02-1.168,0.026-2.336,0.102-3.502
				c0.01-0.16,0.26-0.905,0.287-1.098c0.388-0.16,0.78-0.377,1.175-0.672c2.809-2.11,9.576-2.592,11.204,1.439
				c0.694,1.722,0.696,3.76,0.892,5.577c0.242,2.237,1.204,4.455,1.787,6.626C171.205,172.288,173.188,178.228,171.11,181.312z"/>
		</g>
	</g>
	<g>
		<g>
			<path d="M157.538,179.86c0.012,0.034,0.02,0.07,0.033,0.104c0.109,0.102,0.206,0.205,0.302,0.312
				C157.956,180.28,157.929,180.161,157.538,179.86z"/>
		</g>
	</g>
	<g>
		<g>
			<path d="M221.262,167.214c-0.023-3.422,0.026-6.841-0.176-10.258c-0.277-4.689-1.341-9.543-4.914-12.854
				c-4.584-4.245-11.606-3.787-17.296-2.914c-2.758,0.423-4.298,2.563-4.639,4.78c-0.189,0.087-0.378,0.185-0.566,0.298
				c-2.922,1.751-2.885,5.365-2.667,8.339c0.657,8.994,1.305,18.414,0.987,27.426c-0.133,3.79,3.203,5.303,6.093,4.65
				c-0.339,4.378,5.118,8.388,8.482,4.21c2.199-2.728,5.593-2.15,8.591-3.563c3.473-1.638,5.153-4.751,6.3-8.28
				C222.714,175.189,221.288,171.096,221.262,167.214z M211.57,176.571c-0.416,2.385-2.915,2.087-4.832,2.462
				c-1.667,0.327-3.188,1.031-4.54,1.983c0.138-5.902-0.49-11.756-0.792-17.648c-0.119-2.305,0.068-4.604-0.043-6.905
				c-0.016-0.339-0.001-1.086-0.013-1.822c0.993-1.042,1.594-2.437,1.49-3.858c2.479-0.316,5.172-0.346,6.702,1.071
				c1.82,1.687,1.423,6.278,1.483,8.443c0.068,2.384,0.037,4.771,0.044,7.156C211.077,170.505,212.104,173.51,211.57,176.571z"/>
		</g>
	</g>
	<g>
		<g>
			<path d="M142.659,226.344c-1.029-6.154-3.366-12.579-8.624-16.349c-5.906-4.236-12.748-2.806-18.891,0.046
				c-0.23,0.107-0.438,0.225-0.635,0.349c-2.406,0.234-4.768,1.92-4.949,4.997c-0.6,10.153-1.986,20.984,3.324,30.201
				c1.219,2.117,3.189,2.723,5.018,2.36c0.757,1.485,2.244,2.554,4.454,2.425c6.234-0.362,12.76-1.315,17.301-6.004
				C144.216,239.661,143.65,232.267,142.659,226.344z M131.725,237.904c-2.114,2.184-6.869,2.116-9.608,2.275
				c-0.188,0.012-0.368,0.032-0.545,0.059c-3.483-6.148-2.734-14.013-2.123-21.116c0.309-0.084,0.622-0.191,0.936-0.338
				c8.3-3.851,11.472,3.045,12.453,10.373C133.214,231.967,133.875,235.684,131.725,237.904z"/>
		</g>
	</g>
	<g>
		<g>
			<path d="M179.595,223.446c-1.216-5.726-2.73-12.257-7.21-16.372c-4.721-4.336-11.466-3.366-17.039-1.592
				c-0.639,0.204-1.178,0.492-1.634,0.838c-2.507,0.113-5.031,1.81-5.146,5.03c-0.365,10.277,1.783,20.424,1.418,30.7
				c-0.168,4.719,5.044,5.916,8.082,3.786c0.464,3.229,3.951,6.134,7.614,3.956c4.795-2.85,9.625-5.65,12.866-10.308
				C181.762,234.864,180.675,228.533,179.595,223.446z M160.441,241.05c-0.088,0.053-0.167,0.111-0.251,0.166
				c0.23-8.744-1.283-17.397-1.456-26.122c2.335-0.78,5.821-2.035,7.495,0.257c2.402,3.289,3.027,8.363,3.852,12.243
				C171.719,235.301,166.422,237.496,160.441,241.05z"/>
		</g>
	</g>
	<g>
		<g>
			<path d="M224.744,220.115c-0.173-5.053-0.456-12.179-4.21-16.078c-3.945-4.099-10.335-4.038-15.604-4.337
				c-3.479-0.199-5.036,2.576-4.758,5.283c-1.522,0.415-2.852,1.531-3.394,3.5c-2.612,9.496-1.511,20.067,1.687,29.293
				c0.997,2.875,3.649,3.806,5.986,3.354c0.82,1.118,2.175,1.819,4.063,1.608c5.198-0.581,11.433-1.454,14.43-6.359
				C225.854,231.62,224.925,225.407,224.744,220.115z M214.582,230.165c-0.391,2.123-4.387,2.164-6.307,2.38
				c-0.259,0.029-0.503,0.077-0.741,0.135c-2.101-7.015-2.819-14.619-0.867-21.719c0.097-0.352,0.152-0.689,0.18-1.016
				c2.197,0.054,5.169,0.152,6.153,0.961c1.265,1.036,1.304,6.199,1.512,8.06C214.899,222.423,215.217,226.721,214.582,230.165z"/>
		</g>
	</g>
	<g>
		<g>
			<path d="M141.607,285.591c-0.596-7.06,1.042-14.523-6.65-18.249c-5.672-2.748-13.583-1.593-18.651,2.386
				c-2.732-2.992-8.585-0.926-8.835,3.734l-0.272,5.089c-0.106,1.98,0.75,3.333,2.006,4.085c1.073,7.065,1.65,14.208,4.067,21.015
				c1.311,3.689,5.351,4.164,7.91,2.618c-0.028,0.082-0.062,0.162-0.089,0.243c-1.093,3.446,1.988,6.062,5.064,6.335
				c6.671,0.594,13.003-1.915,15.276-8.635C143.457,298.222,142.125,291.715,141.607,285.591z M132.203,299.195
				c-0.144,1.087-0.438,1.854-0.857,2.396c-1.926-2.126-5.953-2.436-8.06,0.059c-0.052-0.277-0.122-0.558-0.225-0.851
				c-2.302-6.48-2.935-13.282-3.92-20.028c0.725-0.264,1.426-0.763,2.051-1.557c1.255-1.593,2.561-2.278,4.497-2.844
				c0.778-0.227,4.909-0.757,5.338,0.284c1.412,3.423,0.275,8.306,0.657,12C132.038,292.092,132.661,295.743,132.203,299.195z"/>
		</g>
	</g>
	<g>
		<g>
			<path d="M178.065,264.477c-5.235-7.09-13.762-6.983-21.537-4.827c-2.57,0.713-3.629,2.749-3.556,4.8
				c-2.396-0.497-4.91,0.529-5.323,3.674c-1.509,11.474,2.529,22.368,4.521,33.527c0.679,3.807,4.35,4.362,7.021,2.867
				c0.35,0.547,0.812,1.053,1.418,1.49c6,4.343,13.076,3.867,17.585-2.222c3.903-5.27,4.967-12.421,5.418-18.796
				C184.089,278.236,182.114,269.958,178.065,264.477z M173.459,284.429c-0.109,3.551-0.734,7.416-2.066,10.72
				c-1.56,3.872-2.405,4.416-5.767,1.984c-1.476-1.068-2.92-1.153-4.128-0.643c-1.809-8.435-5.089-17.308-3.962-25.891
				c0.044-0.334,0.054-0.654,0.042-0.966c0.562,0.037,1.164-0.018,1.802-0.195c3.995-1.108,8.447-2.193,10.995,1.813
				C172.695,274.901,173.592,280.164,173.459,284.429z"/>
		</g>
	</g>
	<g>
		<g>
			<path d="M228.157,272.126c-0.424-5.172-1.05-10.215-4.578-14.249c-4.291-4.906-12.232-3.729-17.809-2.736
				c-4.292,0.765-4.452,5.329-2.202,7.979c-2.437,0.198-4.832,1.888-4.959,5.016c-0.396,9.668,0.737,19.564,2.802,29.008
				c0.836,3.826,4.648,4.353,7.297,2.797c1.214,2.382,4.143,4.091,7.234,2.565c3.139-1.548,6.627-1.669,9.618-3.674
				c2.679-1.796,3.886-4.677,4.117-7.793C230.133,284.892,228.662,278.279,228.157,272.126z M218.125,291.186
				c-2.412,0.818-4.755,1.334-7.066,2.412c-1.777-8.389-2.607-17.141-2.257-25.702c0.048-1.187-0.249-2.148-0.763-2.891
				c0.19-0.016,0.385-0.04,0.582-0.076c2.345-0.417,6.801-1.604,8.257,0.964c1.497,2.64,1.133,7.074,1.37,9.979
				c0.327,4.031,0.917,8.022,1.26,12.052C219.694,290.099,220.014,290.546,218.125,291.186z"/>
		</g>
	</g>
	<g>
		<g>
			<path d="M127.184,361.144C127.267,361.36,127.28,361.326,127.184,361.144L127.184,361.144z"/>
		</g>
	</g>
	<g>
		<g>
			<path d="M144.282,338.757c-1.356-5.085-3.794-10.377-8.5-13.136c-5.848-3.429-12.211,0.151-16.789,3.903
				c-1.367,1.121-1.83,2.451-1.688,3.718c-1.132,0.838-1.943,2.15-2.019,3.929c-0.244,5.793,0.151,11.66,0.643,17.43
				c0.424,5.006,0.387,11.981,5.87,14.078c1.779,0.681,3.241,0.324,4.277-0.573c-0.493,0.987-0.607,2.206-0.117,3.599
				c2.627,7.472,9.652,6.209,16.103,6.307c2.925,0.044,4.84-2.53,4.977-5.217C147.61,361.535,147.198,349.687,144.282,338.757z
				 M137.027,367.944c-0.458,0.016-0.917,0.044-1.376,0.042c-0.126-0.032-0.232-0.053-0.333-0.072
				c-1.782-3.135-5.945-3.117-8.185-1.162c1.274-2.439,0.784-6.16-2.298-7.714c1.48,0.723,2.151,1.727,2.35,2.105
				c-0.061-0.157-0.157-0.44-0.277-0.901c-0.235-0.913-0.346-1.851-0.466-2.782c-0.32-2.521-0.489-5.062-0.653-7.598
				c-0.267-4.198-0.474-8.448-0.313-12.658c0.274-0.156,0.544-0.335,0.807-0.551c1.1-0.902,2.906-2.084,3.969-2.185
				c0.704-0.068,0.863-0.017,1.574,0.939c2.52,3.393,3.258,8.111,3.953,12.166C136.916,354.207,137.181,361.141,137.027,367.944z"/>
		</g>
	</g>
	<g>
		<g>
			<path d="M185.116,341.712c-1.5-6.378-4.338-13.344-10.032-17.024c-6.874-4.445-13.434,2.296-16.936,7.633
				c-2.368,0.78-4.412,3.067-3.871,6.191c1.533,8.835,3.793,17.539,4.434,26.506c0.346,4.858,6.086,5.992,8.802,3.541
				c0.745,1.595,2.253,2.832,4.502,2.89c6.704,0.173,12.56-2.292,14.242-9.26C187.766,355.95,186.558,347.841,185.116,341.712z
				 M176.491,358.294c-0.022,3.329-1.664,3.039-4.714,2.961c-1.306-0.033-2.336,0.346-3.108,0.972
				c-0.768-7.63-2.447-15.113-3.883-22.642c0.75-0.388,1.437-0.994,1.989-1.861c2.468-3.873,2.961-5.447,5.265-1.819
				c2.049,3.227,3.007,7.187,3.785,10.884C176.582,350.398,176.516,354.6,176.491,358.294z"/>
		</g>
	</g>
	<g>
		<g>
			<path d="M229.053,341.935c-1.185-6.729-2.448-13.487-6.902-18.89c-4.928-5.979-13.158-4.05-19.084-1.109
				c-1.57,0.78-2.341,1.971-2.526,3.243c-3.754,4.569-3.167,11.462-2.56,16.965c0.691,6.25,1.906,12.817,4.698,18.503
				c1.152,2.347,3.221,2.924,5.119,2.403c6.064,3.362,13.892,2.621,19.459-1.898C233.231,356.3,230.169,348.273,229.053,341.935z
				 M220.146,353.753c-2.623,1.669-6.134,1.853-8.458-0.334c-0.464-0.437-0.951-0.759-1.445-0.988
				c-0.969-3.01-1.476-6.333-1.911-9.308c-0.349-2.39-1.69-9.566-0.126-11.27c0.479-0.521,0.814-1.071,1.039-1.629
				c2.117-0.989,4.477-1.737,6.022,0.467c1.906,2.718,2.499,6.403,3.161,9.581c0.8,3.83,1.424,7.7,2.188,11.54
				C220.935,353.418,221.076,353.161,220.146,353.753z"/>
		</g>
	</g>
	<g>
		<g>
			<path d="M293.286,286.438c-1.827-5.493-1.382-12.034-4.872-16.903c-4.002-5.583-10.891-4.976-16.862-3.725
				c-3.332,0.698-4.16,3.655-3.302,6.16c-1.971,0.577-3.653,2.186-3.75,4.798c-0.282,7.601,1.245,15.013,1.855,22.557
				c0.342,4.24,4.778,5.641,7.69,4.293c0.582,0.999,1.634,1.742,3.238,1.931c5.224,0.617,12.035,1.55,15.92-2.958
				C297.129,298.034,294.954,291.457,293.286,286.438z M279.76,295.661c-1.341-0.158-2.51,0.149-3.467,0.736
				c-0.695-6.623-1.85-13.174-1.601-19.869c0.013-0.349-0.009-0.674-0.052-0.983c1.788-0.41,4.757-1.395,5.815,0.456
				c1.467,2.563,1.533,6.604,2.117,9.451c0.71,3.454,2.331,6.839,2.63,10.358C283.579,296.232,281.362,295.851,279.76,295.661z"/>
		</g>
	</g>
	<g>
		<g>
			<path d="M305.984,268.24c-2.012,1.059-2.7,2.793-2.502,4.483c-1.965,2.532-2.144,7.571-1.805,10.548
				c0.782,6.868,2.183,13.67,3.505,20.449c0.734,3.757,4.358,4.34,7.009,2.908c1.106,0.9,2.614,1.324,4.401,0.833
				c4.144-1.14,8.288-2.279,12.432-3.418c2.164-0.594,3.769-2.764,3.671-5.014C332.069,284.672,326.044,257.674,305.984,268.24z
				 M314.324,297.513c-0.56-2.902-1.108-5.808-1.607-8.722c-0.377-2.213-0.696-4.433-0.95-6.662
				c-0.11-0.963-0.176-1.928-0.221-2.895c0.522-0.828,0.836-1.785,0.877-2.744c7.065-2.24,9.178,11.118,9.827,18.844
				C319.609,296.061,316.966,296.786,314.324,297.513z"/>
		</g>
	</g>
	<g>
		<g>
			<path d="M356.079,266.841c-0.995,0.642-1.636,1.453-1.992,2.331c-2.357,0.278-4.608,1.96-4.719,4.995
				c-0.306,8.263,1.322,16.218,4.092,23.973c0.948,2.653,3.309,3.641,5.512,3.411c0.835,0.861,2.008,1.445,3.519,1.496
				C396.88,304.185,374.371,255.034,356.079,266.841z M362.425,292.854c-1.747-5.421-2.813-10.826-2.885-16.528
				c0.581-0.119,1.176-0.355,1.778-0.742c0.66-0.427,0.874-0.312,0.917-0.305c0.593,0.116,1.299,0.455,2.073,1.07
				c2.244,1.783,4.018,4.338,5.1,6.979C372.193,290.123,369.492,293.038,362.425,292.854z"/>
		</g>
	</g>
	<g>
		<g>
			<path d="M298.718,333.614c-1.201-5.26-3.78-9.989-8.264-13.072c-4.855-3.339-11.243-1.299-15.916,1.139
				c-1.59,0.828-2.352,2.081-2.507,3.398c-1.21,0.834-2.088,2.183-2.169,4.038c-0.355,8.097,0.421,16.226,3.075,23.917
				c1.56,4.523,7.214,4.237,9.306,1.324c1.097,1.455,2.922,2.294,5.211,1.562c4-1.278,8.179-2.079,10.745-5.74
				C301.522,345.442,299.904,338.812,298.718,333.614z M289.778,344.516c-0.142,0.295-3.954,1.227-5.175,1.617
				c-1.163,0.371-2.01,1.014-2.581,1.8c-1.664-5.755-2.167-11.617-2.005-17.621c5.696-2.845,7.48,0.754,8.914,6.156
				C289.472,338.51,290.739,342.506,289.778,344.516z"/>
		</g>
	</g>
	<g>
		<g>
			<path d="M336.818,337.981c-1.121-5.468-1.846-10.74-5.72-15.044c-4.179-4.646-11.194-3.669-16.411-1.8
				c-2.416,0.219-4.758,1.907-4.853,5.016c-0.29,9.488,2.9,18.387,3.618,27.756c0.437,5.716,8.327,6.276,9.928,1.9
				c4.208-0.279,8.49-0.981,11.616-4.021C338.666,348.216,337.729,342.424,336.818,337.981z M327.339,344.977
				c-0.483,0.316-1.225,0.502-2.061,0.608c-0.836-0.931-1.943-1.589-3.08-1.843c-0.859-4.569-1.795-9.118-2.09-13.759
				c1.416-0.423,2.907-0.604,3.86,0.241c1.888,1.676,2.218,5.751,2.57,8.053c0.231,1.512,0.646,2.985,0.845,4.501
				C327.502,343.685,327.17,344.881,327.339,344.977z"/>
		</g>
	</g>
	<g>
		<g>
			<path d="M387.381,330.503c-1.481-5.947-4.611-12.653-9.562-16.46c-6.318-4.857-13.195-2.284-17.843,3.3
				c-2.261-0.299-4.503,0.783-4.875,3.743c-1.237,9.861,2.707,18.441,3.52,28.097c0.378,4.5,5.366,5.802,8.229,4.008
				c1.113,0.936,2.621,1.441,4.401,1.094c5.472-1.068,12.144-1.951,15.532-6.958C390.039,342.513,388.686,335.734,387.381,330.503z
				 M378.265,341.751c-1.8,2.065-7.398,2.263-9.866,2.745c-0.08,0.015-0.15,0.037-0.228,0.056
				c-1.167-5.97-3.307-11.984-3.349-17.979c0.698-0.271,1.374-0.764,1.975-1.538c2.63-3.383,3.95-4.689,6.699-0.892
				c2.17,2.999,3.445,6.594,4.332,10.153C378.217,335.86,379.454,340.388,378.265,341.751z"/>
		</g>
	</g>
	<g>
		<g>
			<path d="M397.47,383.685c-0.146-13.34-10.435-21.452-23.145-16.413c-1.324,0.524-2.226,1.404-2.761,2.433
				c-1.634,0.737-2.936,2.246-3.055,4.508c-0.502,9.479-0.531,18.675,1.839,27.935c1.268,4.952,7.464,4.328,9.394,0.814
				c4.975-0.734,9.768-1.326,13.747-4.643C397.41,395.047,397.52,388.277,397.47,383.685z M386.201,391.188
				c-1.2,1.277-5.249,1.364-6.844,1.602c-0.146,0.021-0.288,0.054-0.427,0.085c-0.687-5.417-0.607-10.852-0.353-16.359
				c2.364-0.88,4.838-1.461,6.813,0.512c1.891,1.888,1.874,5.72,1.899,8.151C387.308,386.851,387.417,389.893,386.201,391.188z"/>
		</g>
	</g>
	<g>
		<g>
			<path d="M301.219,387.116c-2.97-10.533-13.291-25.606-24.322-13.406c-1.271,1.404-1.566,2.996-1.243,4.436
				c-1.375,0.809-2.412,2.221-2.519,4.229c-0.391,7.375-0.62,14.847,2.166,21.828c0.802,2.011,2.424,3.04,4.142,3.3
				c0.29,1.121,0.973,2.179,2.152,2.984c7.33,5.006,15.248,1.474,19.352-5.716C304.079,399.283,302.834,392.845,301.219,387.116z
				 M286.612,401.611c-0.582-0.397-1.155-0.643-1.711-0.772c-2.258-6.046-1.909-12.337-1.573-18.703
				c0.01-0.18,0.008-0.353,0.002-0.521c0.293-0.214,0.58-0.471,0.854-0.774c1.521-1.683,1.32-1.959,2.888-0.285
				c2.061,2.2,3.139,5.628,4.057,8.422c0.8,2.43,1.416,4.955,1.596,7.51C292.987,400.205,290.192,404.054,286.612,401.611z"/>
		</g>
	</g>
</g>
</svg>
