<?xml version="1.0" encoding="utf-8"?>
<!-- Generator: Adobe Illustrator 16.0.3, SVG Export Plug-In . SVG Version: 6.00 Build 0)  -->
<!DOCTYPE svg PUBLIC "-//W3C//DTD SVG 1.1//EN" "http://www.w3.org/Graphics/SVG/1.1/DTD/svg11.dtd">
<svg version="1.1" id="Layer_1" xmlns="http://www.w3.org/2000/svg" xmlns:xlink="http://www.w3.org/1999/xlink" x="0px" y="0px"
	 width="512px" height="512px" viewBox="0 0 512 512" enable-background="new 0 0 512 512" xml:space="preserve">
<g>
	<g>
		<g>
			<path fill="#127274" d="M60.123,159.044c-0.17,0.115-0.338,0.216-0.508,0.311c1.227,1.092,1.759,2.525,1.748,3.963
				c1.236,2.957,1.998,6.218,3.666,9.004c3.076,5.139,6.66,9.93,9.871,14.978c2.283,3.588,4.283,7.35,6.158,11.188
				c0.904-9.52,2.742-18.951,3.095-28.534c0.313-8.526,0.388-17.059,0.401-25.591C76.209,148.789,68.043,153.631,60.123,159.044z"/>
		</g>
	</g>
	<g>
		<g>
			<path fill="#D6E5E5" d="M280.562,134.908V64.41c-10.869,4.699-21.631,9.652-32.415,14.553c0.246,0.601,0.39,1.295,0.386,2.098
				c-0.109,23.071-3.891,45.935-4,69c-0.001,0.301-0.029,0.586-0.069,0.863c7.827-3.282,15.65-6.568,23.447-9.904
				c4.234-1.812,8.459-3.647,12.682-5.486C280.572,135.332,280.562,135.124,280.562,134.908z"/>
		</g>
	</g>
	<g>
		<g>
			<path fill="#D6E5E5" d="M198.469,99.799c-7.83,2.909-15.707,5.697-23.596,8.446c-3.896,11.176-2.064,23.868-2.119,35.45
				c-0.032,6.992-0.654,13.961-0.789,20.954c-0.117,6.173-0.317,12.33-1.152,18.444c3.05-1.374,6.088-2.773,9.119-4.188
				c5.58-2.602,11.196-5.128,16.826-7.624c-0.734-0.8-1.201-1.915-1.196-3.374C195.631,145.171,197.982,122.521,198.469,99.799z"/>
		</g>
	</g>
	<g>
		<g>
			<path fill="#127274" d="M162.696,112.475c-9.313,3.234-18.612,6.488-27.831,9.915c0.422,0.714,0.672,1.6,0.667,2.671
				c-0.116,24.555-4.431,48.84-4.943,73.361c3.871-1.258,7.749-2.501,11.604-3.812c6.224-2.117,12.339-4.506,18.389-7.053
				c-0.8-1.055-1.212-2.447-0.933-4.122c1.312-7.894,1.192-15.794,1.475-23.763c0.234-6.627,0.738-13.184,0.613-19.822
				C161.562,130.706,161.18,121.454,162.696,112.475z"/>
		</g>
	</g>
	<g>
		<g>
			<path fill="#127274" d="M233.562,150.908c0.106-22.458,3.683-44.719,3.974-67.161c-6.791,3.031-13.607,6-20.486,8.823
				c-2.508,1.029-5.027,2.031-7.551,3.021c-0.307,23.829-2.888,47.569-2.965,71.403c9.551-4.143,19.15-8.186,28.753-12.216
				C234.246,153.976,233.553,152.696,233.562,150.908z"/>
		</g>
	</g>
	<g>
		<g>
			<path fill="#127274" d="M321.648,115.435c3.686-22.102,2.105-44.523,1.932-66.816c-6.721,1.988-13.452,3.944-20.014,6.417
				c-4.323,1.63-8.613,3.34-12.883,5.098c0.526,0.753,0.849,1.723,0.849,2.928v67.709c10.041-4.369,20.101-8.689,30.259-12.762
				C321.559,117.246,321.489,116.388,321.648,115.435z"/>
		</g>
	</g>
	<g>
		<g>
			<path fill="#BCBCBC" d="M377.965,71.496c-0.646-1.267-1.255-2.547-1.842-3.836c0.234,9.68,0.086,19.354-1.801,28.74
				c0.533-0.324,1.057-0.664,1.555-1.035c0.593-1.917,2.064-2.934,3.729-3.193c-0.25-1.397,0.084-2.922,1.309-4.318
				C385.023,83.174,380.289,76.053,377.965,71.496z"/>
		</g>
	</g>
	<g>
		<g>
			<path fill="#D6E5E5" d="M364.562,46.908c-0.005-1.195,0.33-2.236,0.875-3.104c-0.917-1.316-1.949-2.51-3.148-3.481
				c-5.407-4.38-10.609-1.775-16.349,0.677c-3.74,1.599-7.555,2.974-11.406,4.241c0.059,22.798,1.698,45.739-1.495,68.389
				c1.474-0.555,2.946-1.109,4.425-1.649c7.99-2.92,15.959-5.937,23.783-9.283C367.953,85.232,364.639,65.135,364.562,46.908z"/>
		</g>
	</g>
	<g>
		<g>
			<path fill="#14B6B9" d="M343.484,287.062c-17.783-19.338-40.794-32.109-67.621-31.529c-24.639,0.533-52.23,9.379-67.996,29.368
				c-12.997,16.479-15.475,37.835-16.234,58.192c2.514,1.545,2.484,4.529,1.024,6.776c8.488,35.703,46.687,61.252,82.839,59.664
				c18.438-0.81,36.883-6.718,52.582-16.4c14.789-9.122,28.597-21.789,34.576-38.54
				C371.299,330.374,360.051,305.078,343.484,287.062z M321.122,342.044c-10.75,8.088-23.854,12.594-36.015,18.072
				c-10.922,4.921-19.244,13.577-32.109,12.767c-1.068-0.067-1.921-0.373-2.582-0.838c-8.808-0.138-7.523-22.562-7.715-27.673
				c-0.217-5.827-0.477-11.613-0.878-17.434c-0.528-7.673-0.921-15.725,2.296-22.9c0.48-1.07,1.152-1.823,1.923-2.316
				c-0.464-1.967-0.013-4.182,1.929-5.796c4.94-4.108,11.915-2.239,16.951,0.702c2.691,1.572,5.275,3.333,7.762,5.214
				c2.481,1.878,5.637,2.817,8.478,4.093c8.005,3.592,15.097,8.127,22.62,12.544c5.832,3.423,11.43,6.93,14.457,13.188
				c0.027,0.055,0.045,0.108,0.07,0.163C322.615,332.093,325.652,338.636,321.122,342.044z"/>
		</g>
	</g>
	<g>
		<g>
			<path fill="#D6E5E5" d="M95.418,138.879c0.072,0.367,0.114,0.76,0.114,1.182c-0.001,10.137-0.007,20.286-0.464,30.414
				c-0.539,11.921-3.359,23.68-3.536,35.586c-0.045,3.017-2.083,4.9-4.391,5.516c0.963,2.082,1.937,4.158,2.954,6.207
				c5.594-5.046,12.188-8.676,19.109-11.637c3.412-1.461,6.879-2.769,10.368-4.01c0.21-25.37,4.814-50.459,4.981-75.822
				C114.696,130.17,104.955,134.291,95.418,138.879z"/>
		</g>
	</g>
	<g>
		<g>
			<path fill="#BCBCBC" d="M451.108,430.915c-0.069-3.772-0.347-7.537-0.71-11.292c-0.631-6.521-1.837-13.152-1.837-19.715v-77.831
				c0-25.323-0.036-50.472-3.065-75.657c-0.729-6.058-1.062-12.153-1.97-18.192c-0.504-3.358-1.048-6.742-2.114-9.976
				c-0.255-0.771-0.498-1.609-0.822-2.389c-0.35,0.066-0.72,0.106-1.119,0.107c-30.287,0.062-60.6,2.356-90.85,3.713
				c-14.955,0.671-29.93,1.358-44.902,1.097c-14.76-0.259-29.34-1.748-44.016-3.211c-30.094-3.002-59.808-3.105-89.906,0.017
				c-13.59,1.41-27.261,2.809-40.791,4.717c-11.847,1.67-24.098,3.91-34.732,9.663c-0.313,0.611-0.794,1.179-1.479,1.662
				c-0.125,0.55-0.365,1.474-0.404,1.746c-0.344,2.348-0.451,4.334-0.483,6.672c-0.099,7.02,0.255,14.044,0.736,21.045
				c0.978,14.24,2.472,28.438,4.073,42.621c2.408,21.328,4.492,42.599,7.544,63.864c3.673,25.601,7.64,51.685,8.204,77.611
				c0.039,0.278,0.067,0.567,0.067,0.875v1.479c1.669,0.649,2.95,2.132,3,4.521c0.294,14.081,17.729,16.042,28.68,16.538
				c20.176,0.913,40.586-1.093,60.761-1.403c16.121-0.248,32.311-0.034,48.356,1.689c16.271,1.748,32.271,3.217,48.663,3.268
				c15.904,0.048,32.029,0.498,47.896-0.725c15.38-1.185,30.554-3.85,45.749-6.414c7.488-1.264,15.064-2.842,22.619-3.596
				c5.768-0.576,11.572-0.427,17.344-0.922c4.943-0.423,11.914-0.673,13.9-6.166c1.578-4.362,1.116-9.4,1.068-13.977
				c-1.235-1.832-1.479-4.31,0.346-6.499c-0.543,0.651-0.096,0.01,0.031-1.09C451.096,433.48,451.133,432.208,451.108,430.915z
				 M376.127,346.393c-7.527,43.185-55.195,71.016-96.134,73.902c-44.099,3.109-89.786-26.822-98.668-70.942
				c-0.481-0.792-0.787-1.675-0.764-2.444c0.017-0.552,0.036-1.104,0.054-1.655c-0.016-0.115-0.037-0.229-0.054-0.345
				c-0.126-0.887-0.062-1.674,0.149-2.359c0.259-6.863,0.672-13.737,1.59-20.539c2.912-21.61,11.245-41.757,28.697-55.609
				c20.229-16.056,47.85-23.468,73.447-21.542c25.943,1.951,49.05,14.683,66.301,33.94
				C366.905,296.835,380.5,321.307,376.127,346.393z"/>
		</g>
	</g>
	<g>
		<g>
			<path fill="#EF4823" d="M307.855,335.303c-2.01-4.154-8.506-6.674-12.256-8.892c-5.919-3.499-11.458-7.089-17.777-9.926
				c-5.069-2.274-9.559-4.409-14.066-7.609c-2.158-1.533-7.283-5.498-9.52-3.903c0.395,1.172,0.38,2.526-0.262,3.958
				c-2.521,5.622-1.537,12.66-1.072,18.612c0.372,4.76,0.546,9.494,0.709,14.261c0.159,4.693,0.384,9.392,0.797,14.07
				c0.184,2.072,0.363,4.156,0.695,6.211c5.188,0.322,10.842-3.25,15.086-5.804c4.584-2.76,8.955-5.554,13.874-7.693
				c8.351-3.632,17.062-6.978,24.925-11.673C308.551,336.473,308.164,335.94,307.855,335.303z"/>
		</g>
	</g>
	<g>
		<g>
			<path d="M461.252,439.271c1.637-4.896,0.848-11.067,0.519-15.773c-0.541-7.747-1.801-15.439-2.208-23.194
				c-0.695-13.273-0.03-26.758-0.03-40.051v-42.91c0-14.161,0.154-28.322-0.537-42.473c-0.546-11.17-1.908-22.234-2.944-33.359
				c-0.721-7.74-1.531-15.43-3.217-23.029c-1.431-6.449-3.994-13.179-10.737-15.395c-2.554-0.84-4.427,0.201-5.407,1.934
				c-30.263,0.155-60.553,2.422-90.778,3.777c-14.974,0.671-29.95,1.24-44.941,0.979c-15.721-0.275-31.297-2.283-46.933-3.761
				c-30.299-2.865-60.372-2.124-90.604,1.188c-11.77,1.29-24.158,2.125-36.33,3.924c10.418-3.582,20.914-6.805,31.206-10.756
				c14.224-5.461,27.8-12.477,41.731-18.615c14.68-6.469,29.585-12.477,44.346-18.762c15.07-6.418,30.133-12.852,45.183-19.318
				c13.409-5.762,26.792-12.748,40.603-17.441c15.137-5.142,30.463-10.599,44.781-17.743c3.956-1.974,10.875-4.819,11.492-9.957
				c0.072-0.601,0.057-1.164-0.028-1.69c0.974-0.23,1.925-0.775,2.762-1.729c8.525-9.71,2.259-20.812-2.492-30.585
				c-4.962-10.209-7.474-22.37-15.483-30.829c-3.869-4.087-9.041-7.166-14.839-6.961c-6.513,0.229-12.191,3.228-18.136,5.553
				c-14.26,5.577-29.309,8.779-43.568,14.397c-29.246,11.521-57.272,25.876-86.432,37.603
				c-26.357,10.599-53.814,18.464-80.356,28.614c-25.756,9.848-51.077,21.419-73.901,37.018c-2.953,2.02-2.854,5.338-1.278,7.62
				c-2.71,1.482-3.995,5.887-1.909,8.822c0.059,0.234,0.142,0.568,0.257,1.045c0.293,1.208,0.653,2.35,1.082,3.516
				c0.966,2.624,2.403,5.127,3.787,7.546c2.968,5.188,6.602,9.981,9.872,14.978c7.002,10.691,11.231,23.267,17.308,34.582
				c-1.284,2.511-1.623,5.762-1.836,8.245c-0.582,6.775-0.339,13.612-0.01,20.395c0.76,15.706,2.435,31.372,4.179,46.995
				c2.28,20.426,4.131,40.827,7.066,61.188c4.188,29.045,8.935,58.653,9.073,88.053c0.013,2.525,1.405,4.033,3.194,4.619
				c1.965,16.289,18.854,22.084,33.563,23.578c18.389,1.867,37.354-0.104,55.778-0.662c16.436-0.497,32.908-0.653,49.318,0.539
				c15.998,1.163,31.749,3.533,47.82,3.978c31.648,0.874,62.967,0.109,94.227-5.107c10.357-1.729,20.871-3.066,31.162-5.114
				c7.895-1.57,16.18-0.696,24.158-1.738c7.584-0.992,14.281-3.801,18.099-10.724c3.437-6.231,2.679-14.382,2.65-21.217
				C461.529,440.394,461.43,439.798,461.252,439.271z M376.123,67.66c0.587,1.289,1.195,2.569,1.842,3.836
				c2.324,4.557,7.059,11.678,2.949,16.357c-1.225,1.396-1.559,2.921-1.309,4.318c-1.664,0.26-3.136,1.276-3.729,3.193
				c-0.498,0.371-1.021,0.711-1.555,1.035C376.209,87.015,376.357,77.34,376.123,67.66z M334.533,45.241
				c3.852-1.268,7.666-2.643,11.406-4.241c5.739-2.452,10.941-5.057,16.349-0.677c1.199,0.972,2.231,2.165,3.148,3.481
				c-0.545,0.867-0.88,1.908-0.875,3.104c0.077,18.227,3.392,38.324-3.315,55.789c-7.824,3.346-15.793,6.363-23.783,9.283
				c-1.479,0.54-2.951,1.095-4.425,1.649C336.231,90.98,334.592,68.039,334.533,45.241z M303.566,55.035
				c6.562-2.473,13.293-4.429,20.014-6.417c0.174,22.293,1.754,44.715-1.932,66.816c-0.159,0.953-0.09,1.812,0.143,2.573
				c-10.158,4.072-20.218,8.393-30.259,12.762V63.061c0-1.205-0.322-2.175-0.849-2.928
				C294.953,58.375,299.243,56.665,303.566,55.035z M244.532,150.061c0.109-23.065,3.891-45.929,4-69
				c0.004-0.803-0.14-1.497-0.386-2.098c10.784-4.9,21.546-9.854,32.415-14.553v70.498c0,0.216,0.011,0.424,0.03,0.625
				c-4.223,1.839-8.447,3.674-12.682,5.486c-7.797,3.336-15.62,6.622-23.447,9.904C244.503,150.646,244.531,150.361,244.532,150.061
				z M209.498,95.591c2.523-0.989,5.043-1.991,7.551-3.021c6.879-2.823,13.695-5.792,20.486-8.823
				c-0.291,22.442-3.867,44.703-3.974,67.161c-0.009,1.788,0.685,3.067,1.725,3.87c-9.603,4.03-19.202,8.073-28.753,12.216
				C206.61,143.16,209.191,119.419,209.498,95.591z M171.965,164.649c0.135-6.993,0.757-13.962,0.789-20.954
				c0.055-11.582-1.776-24.274,2.119-35.45c7.889-2.749,15.766-5.537,23.596-8.446c-0.486,22.722-2.838,45.372-2.907,68.109
				c-0.005,1.459,0.462,2.574,1.196,3.374c-5.63,2.496-11.246,5.022-16.826,7.624c-3.031,1.414-6.069,2.813-9.119,4.188
				C171.647,176.979,171.848,170.822,171.965,164.649z M134.865,122.39c9.219-3.427,18.518-6.681,27.831-9.915
				c-1.517,8.979-1.134,18.231-0.96,27.375c0.125,6.639-0.379,13.195-0.613,19.822c-0.282,7.969-0.162,15.869-1.475,23.763
				c-0.279,1.675,0.133,3.067,0.933,4.122c-6.05,2.547-12.165,4.936-18.389,7.053c-3.854,1.312-7.732,2.555-11.604,3.812
				c0.513-24.521,4.827-48.807,4.943-73.361C135.537,123.989,135.287,123.104,134.865,122.39z M84.153,169.954
				c-0.353,9.583-2.19,19.015-3.095,28.534c-1.875-3.839-3.875-7.601-6.158-11.188c-3.211-5.047-6.795-9.839-9.871-14.978
				c-1.668-2.786-2.43-6.047-3.666-9.004c0.011-1.438-0.521-2.871-1.748-3.963c0.17-0.095,0.338-0.196,0.508-0.311
				c7.92-5.414,16.086-10.255,24.432-14.681C84.541,152.896,84.467,161.428,84.153,169.954z M87.142,211.576
				c2.308-0.615,4.346-2.499,4.391-5.516c0.177-11.906,2.997-23.665,3.536-35.586c0.457-10.128,0.463-20.277,0.464-30.414
				c0-0.422-0.042-0.814-0.114-1.182c9.537-4.588,19.278-8.709,29.137-12.564c-0.167,25.363-4.771,50.452-4.981,75.822
				c-3.489,1.241-6.956,2.549-10.368,4.01c-6.922,2.961-13.516,6.591-19.109,11.637C89.078,215.734,88.104,213.658,87.142,211.576z
				 M450.945,434.764c-0.127,1.1-0.574,1.741-0.031,1.09c-1.824,2.189-1.581,4.667-0.346,6.499c0.048,4.576,0.51,9.614-1.068,13.977
				c-1.986,5.493-8.957,5.743-13.9,6.166c-5.771,0.495-11.576,0.347-17.344,0.922c-7.555,0.754-15.131,2.333-22.619,3.596
				c-15.195,2.564-30.369,5.229-45.749,6.414c-15.866,1.223-31.991,0.772-47.896,0.725c-16.393-0.051-32.393-1.52-48.663-3.268
				c-16.046-1.724-32.235-1.938-48.356-1.689c-20.175,0.311-40.585,2.316-60.761,1.403c-10.95-0.496-28.386-2.457-28.68-16.538
				c-0.05-2.39-1.331-3.872-3-4.521v-1.479c0-0.308-0.028-0.597-0.067-0.875c-0.564-25.927-4.531-52.011-8.204-77.611
				c-3.052-21.265-5.136-42.536-7.544-63.864c-1.602-14.182-3.096-28.38-4.073-42.621c-0.481-7.001-0.835-14.025-0.736-21.045
				c0.032-2.338,0.14-4.324,0.483-6.672c0.039-0.271,0.279-1.195,0.404-1.746c0.685-0.483,1.165-1.05,1.479-1.662
				c10.635-5.753,22.886-7.993,34.732-9.663c13.53-1.908,27.201-3.308,40.791-4.717c30.099-3.123,59.812-3.019,89.906-0.017
				c14.676,1.463,29.256,2.952,44.016,3.211c14.973,0.262,29.947-0.426,44.902-1.097c30.25-1.356,60.562-3.65,90.85-3.713
				c0.399-0.001,0.77-0.041,1.119-0.107c0.324,0.78,0.567,1.618,0.822,2.389c1.066,3.234,1.61,6.618,2.114,9.976
				c0.907,6.039,1.241,12.135,1.97,18.192c3.029,25.186,3.065,50.334,3.065,75.657v77.831c0,6.562,1.206,13.193,1.837,19.715
				c0.363,3.755,0.641,7.52,0.71,11.292C451.133,432.208,451.096,433.48,450.945,434.764z"/>
		</g>
	</g>
	<g>
		<g>
			<path d="M350.746,278.799c-17.251-19.258-40.357-31.989-66.301-33.94c-25.598-1.926-53.218,5.486-73.447,21.542
				c-17.452,13.852-25.785,33.999-28.697,55.609c-0.918,6.802-1.331,13.676-1.59,20.539c-0.211,0.686-0.275,1.473-0.149,2.359
				c0.017,0.115,0.038,0.229,0.054,0.345c-0.018,0.552-0.037,1.104-0.054,1.655c-0.023,0.77,0.282,1.652,0.764,2.444
				c8.882,44.12,54.569,74.052,98.668,70.942c40.938-2.887,88.606-30.718,96.134-73.902
				C380.5,321.307,366.905,296.835,350.746,278.799z M362.654,354.594c-5.979,16.751-19.787,29.418-34.576,38.54
				c-15.699,9.683-34.145,15.591-52.582,16.4c-36.152,1.588-74.351-23.961-82.839-59.664c1.46-2.247,1.489-5.231-1.024-6.776
				c0.76-20.357,3.237-41.714,16.234-58.192c15.766-19.989,43.357-28.835,67.996-29.368c26.827-0.58,49.838,12.191,67.621,31.529
				C360.051,305.078,371.299,330.374,362.654,354.594z"/>
		</g>
	</g>
	<g>
		<g>
			<path d="M318.309,331.829c-0.025-0.055-0.043-0.108-0.07-0.163c-3.027-6.259-8.625-9.766-14.457-13.188
				c-7.523-4.417-14.615-8.952-22.62-12.544c-2.841-1.275-5.996-2.215-8.478-4.093c-2.486-1.881-5.07-3.643-7.762-5.214
				c-5.036-2.941-12.011-4.81-16.951-0.702c-1.941,1.614-2.393,3.829-1.929,5.796c-0.771,0.493-1.442,1.246-1.923,2.316
				c-3.217,7.176-2.824,15.228-2.296,22.9c0.401,5.82,0.661,11.607,0.878,17.434c0.191,5.111-1.093,27.535,7.715,27.673
				c0.661,0.465,1.514,0.771,2.582,0.838c12.865,0.811,21.188-7.846,32.109-12.767c12.16-5.478,25.265-9.983,36.015-18.072
				C325.652,338.636,322.615,332.093,318.309,331.829z M284.063,348.589c-4.919,2.14-9.29,4.934-13.874,7.693
				c-4.244,2.554-9.898,6.126-15.086,5.804c-0.332-2.055-0.512-4.139-0.695-6.211c-0.413-4.679-0.638-9.377-0.797-14.07
				c-0.163-4.768-0.337-9.501-0.709-14.261c-0.465-5.952-1.449-12.99,1.072-18.612c0.642-1.432,0.656-2.786,0.262-3.958
				c2.236-1.595,7.361,2.37,9.52,3.903c4.508,3.2,8.997,5.334,14.066,7.609c6.319,2.837,11.858,6.427,17.777,9.926
				c3.75,2.218,10.246,4.737,12.256,8.892c0.309,0.638,0.695,1.17,1.133,1.613C301.126,341.611,292.414,344.957,284.063,348.589z"/>
		</g>
	</g>
</g>
</svg>
