<?xml version="1.0" encoding="utf-8"?>
<!-- Generator: Adobe Illustrator 16.0.3, SVG Export Plug-In . SVG Version: 6.00 Build 0)  -->
<!DOCTYPE svg PUBLIC "-//W3C//DTD SVG 1.1//EN" "http://www.w3.org/Graphics/SVG/1.1/DTD/svg11.dtd">
<svg version="1.1" id="Layer_1" xmlns="http://www.w3.org/2000/svg" xmlns:xlink="http://www.w3.org/1999/xlink" x="0px" y="0px"
	 width="512px" height="512px" viewBox="0 0 512 512" enable-background="new 0 0 512 512" xml:space="preserve">
<g>
	<g>
		<g>
			<path fill="#D6E5E5" d="M210.274,151.693c-0.806-12.47-1.021-24.945-1.833-37.418c-0.612-9.422-1.042-19.046,1.174-28.235
				c-25.534-0.189-51.116-0.755-76.593,0.354c-4.944,0.215-9.9,0.332-14.857,0.432c-0.301,4.531-0.848,8.83-1.07,13.325
				c-0.905,18.287-1.928,36.639-2.498,54.936c-0.576,18.446-0.039,36.903,1.159,55.317c0.653,10.045,1.495,20.052,1.65,30.109
				c0.035,0.039,0.073,0.076,0.107,0.115c20.185,23.333,72.101,32.962,90.513,2.629c0.598-0.983,1.463-1.791,2.449-2.332
				C210.559,211.13,212.198,181.464,210.274,151.693z"/>
		</g>
	</g>
	<g>
		<g>
			<path fill="#3AB37C" d="M176.095,419.462c-0.618-3.771-2.285-7.593-4.479-10.716c-6.375-9.073-19.214-14.567-27.529-4.202
				c-2.194,2.734-6.842,2.348-8.692-0.556c-5.15-8.077-10.892-21.757-22.634-19.683c-6.037,1.066-11.68,3.745-12.158,10.407
				c-0.375,5.228,0.764,10.543,0.836,15.776c0.041,2.848-1.93,5.863-5.061,5.909c-13.75,0.201-29.385,7.271-28.939,23.091
				c0.021,0.77-0.095,1.461-0.309,2.081c2.898,6.745,7.825,13.477,15.855,13.587c9.111,0.126,17.383-4.001,24.893-8.804
				c1.951-1.247,4.99-1.372,6.707,0.428c4.392,4.6,10.643,6.122,16.799,6.739c5.512,0.552,12.158,1.031,17.578-0.391
				c11.494-3.016,18.111-10.688,17.508-22.793c-0.138-2.749,2.006-5.994,5.061-5.909
				C175.772,424.547,176.79,423.716,176.095,419.462z"/>
		</g>
	</g>
	<g>
		<g>
			<path fill="#3AB37C" d="M314.47,446.337c-0.382-17.566-20.395-30.954-34.383-16.793c-3.271,3.311-9.231,1.748-9.617-3.207
				c-0.605-7.745,0.472-20.842-9.564-23.025c-10.909-2.372-22.496,3.317-29.818,11.232c-2.363,2.554-6.726,2.491-8.692-0.556
				c-6.96-10.779-29.011-23.308-39.308-10.444c-0.347,0.433-0.719,0.779-1.104,1.062c3.303,5.77,6.193,12.912,5.082,19.642
				c-0.941,5.702-4.749,9.301-9.733,10.604c-0.644,7.239-3.374,13.778-7.868,18.868c1.453,0.082,2.906,0.717,4.05,2.118
				c8.62,10.567,27.062,9.112,38.457,4.745c6.31-2.418,11.724-8.445,18.709-9.078c7.476-0.677,9.94,8.578,15.753,9.843
				c9.252,2.015,17.334,2.192,25.445-2.994c5.293-3.385,10.176-7.526,16.9-6.013c5.419,1.219,25.02,6.146,26.596-3.082
				C314.834,448.507,314.495,447.538,314.47,446.337z"/>
		</g>
	</g>
	<g>
		<g>
			<path fill="#EF4823" d="M85.272,88.041c-12.342,0.975-25.575-0.246-37.583,3.262c-0.395,0.634-0.92,1.189-1.523,1.643
				c-1.589,5.153-2.052,11.025-2.696,16.212c-0.856,6.906-1.965,13.683-3.131,20.542c-2.252,13.24-5.175,26.645-6.537,39.995
				c-2.382,23.334-2.865,47.077-9.706,69.638c0.93,0.373,1.777,1.108,2.418,2.297c6.261,11.623,24.413,14.981,36.342,15.836
				c16.03,1.147,30.725-6.941,43.591-15.889c-0.235-25.268-3.373-50.432-3.039-75.765c0.217-16.405,1.543-32.766,2.094-49.161
				c0.248-7.38,0.75-14.753,0.988-22.131c0.064-2.044,0.33-4.075,0.549-6.106c0.049-0.452,0.1-0.905,0.148-1.359
				C99.868,87.22,92.556,87.464,85.272,88.041z"/>
		</g>
	</g>
	<g>
		<g>
			<path fill="#D6E5E5" d="M376.319,63.9c0.041-4.845,0.572-9.884,0.527-14.823c-4.035,0.222-8.09-0.052-12.174-0.3
				c-5.855-0.355-12.836-1.339-18.527,0.513c-1.011,0.329-1.994,0.663-2.877,1.24c0.166-0.019-0.281,0.652-0.34,1.409
				c-0.211,2.725,0.227,5.614,0.635,8.302c0.724,4.754,1.802,9.434,2.67,14.158c10.223-0.039,20.446-0.066,30.67-0.092
				C376.108,70.781,376.296,66.698,376.319,63.9z"/>
		</g>
	</g>
	<g>
		<g>
			<path fill="#EF4823" d="M317.869,198.325c-2.467-17.038-3.888-34.181-5.385-51.324c-1.079-12.353-2.827-24.187-4.985-36.351
				c-1.173-6.613-4.298-18.58,0.062-25.059c-25.838,0.15-51.674,0.321-77.513,0.482c-3.048,0.019-6.099,0.021-9.148,0.018
				c-0.007,0.02-0.011,0.04-0.019,0.061c-3.686,10.312-1.814,22.598-1.043,33.248c0.9,12.42,0.992,24.881,1.795,37.316
				c1.818,28.156-0.156,56.381-0.195,84.564c-0.002,1.473-0.484,2.672-1.242,3.591c14.342,12.622,32.293,22.144,51.416,24.133
				c21.16,2.201,39.772-6.979,50.936-24.978C322.624,228.683,320.063,213.478,317.869,198.325z"/>
		</g>
	</g>
	<g>
		<g>
			<path fill="#D6E5E5" d="M406.616,222.624c-2.431-7.341-3.642-14.99-5.881-22.397c-2.496-8.252-5.408-16.358-8.208-24.509
				c-2.894-8.427-4.7-17.193-6.55-25.903c-1.818-8.57-3.529-17.16-5.148-25.771c-0.885-4.706-2.746-9.276-4.077-13.87
				c-2.123-7.328-5.502-17.096-3.024-24.895c-18.566,0.061-37.133,0.153-55.698,0.256c1.009,1.74,0.999,3.934-0.942,5.801
				c-0.064,0.062-0.113,0.098-0.154,0.122c-0.008,0.08-0.02,0.172-0.04,0.294c-0.097,0.564-0.222,1.143-0.228,1.719
				c-0.023,2.381,0.125,4.757,0.407,7.121c0.593,4.968,1.482,9.891,2.46,14.795c2.4,12.041,3.357,24.163,4.406,36.395
				c1.414,16.48,3.009,32.912,5.427,49.278c2.05,13.882,4.2,27.837,4.152,41.892c5.634,4.168,10.813,9.16,16.987,12.389
				c7.987,4.178,15.81,6.527,24.943,5.785c14.977-1.217,28.748-9.751,36.045-22.923C410.884,232.92,408.177,227.333,406.616,222.624
				z"/>
		</g>
	</g>
	<g>
		<g>
			<path fill="#FEBF10" d="M457.619,412.14c-0.45-11.527-0.149-23.108-0.149-34.644c0-18.705,0.931-37.659-0.281-56.33
				c-0.835-12.868-1.996-25.724-2.307-38.62c-0.139-5.803-0.266-11.727,0.475-17.498c0.245-1.904,0.627-4.023,1.438-5.887
				c-13.3,0.017-25.872-4.697-37.253-11.407c-0.402,0.155-0.829,0.255-1.269,0.303c-9.226,13.239-24.334,22.604-40.521,23.919
				c-10.44,0.848-19.828-0.911-29.244-5.344c-7.145-3.365-12.828-8.639-19.066-13.257c-13.164,18.315-33.188,28.388-56.397,26.735
				c-21.854-1.555-42.749-11.909-59.239-26.197c-24.215,29.646-75.471,22.041-101.506-3.023
				c-15.688,10.78-33.208,19.264-52.699,17.271c-2.01-0.206-4.129-0.479-6.303-0.828c0.084,13.131,2.131,26.123,3.014,39.236
				c1.037,15.411,1.977,30.881,3.227,46.277c1.268,15.62,1.873,31.14,1.898,46.817c0.011,7.182-0.838,15.321-0.306,23.051
				c5.997-9.53,17.063-15.408,29.018-16.907c-0.505-5.878-1.24-11.855,0.586-17.493c2.817-8.696,11.235-13.222,19.815-14.737
				c15.043-2.657,23.299,7.731,30.465,18.771c10.455-7.434,24.461-4.793,34.033,3.676c13.541-16.466,39.521-7.322,52.519,6.773
				c10.069-8.381,24.27-13.834,36.882-9.825c11.486,3.651,14.722,12.793,16.076,22.894c8.083-4.15,17.594-4.749,26.254-0.255
				c6.257,3.246,11.231,8.192,14.47,14.123c-2.635-22.834-0.568-46.001-2.656-68.904c-1.186-13.009-2.407-26.196-4.71-39.062
				c-2.146-11.983-4.797-23.7-4.41-35.896v-0.534l0.023,0.001c0.019-0.491,0.033-0.981,0.062-1.474
				c0.211-3.533,3.717-4.831,6.693-4.157c0.508-0.411,1.129-0.753,1.887-0.985c10.562-3.248,21.623-2.406,32.492-1.737
				c8.258,0.508,16.185,0.178,24.414-0.358c13.667-0.892,35.137-2.939,38.802,14.471c1.146,5.441,0.599,10.902,0.437,16.41
				c-0.162,5.516,0.539,10.978,0.832,16.48c0.708,13.276,1.064,26.576,1.922,39.838c1.619,25.049,3.734,50.049,6.932,74.943
				c9.94-3.127,21.072-5.412,31.037-3.254c0.367,0.079,0.703,0.189,1.021,0.318c0.048-0.102,0.09-0.207,0.145-0.305
				c0.693-2.936,1.666-5.898,1.744-8.926C458.039,421.774,457.808,416.964,457.619,412.14z M248.028,307.244
				c-1.1,15.367-0.59,30.843-0.59,46.246c0,5.519-6.701,7.259-9.628,4.37c-7.399,6.317-19.821,6.321-28.802,6.156
				c-10.875-0.201-21.825-1.99-32.694-1.578c-11.456,0.435-22.896,1.84-34.376,1.199c-9.254-0.517-21.629-1.503-27.199-10.14
				c-0.848-0.59-1.557-1.483-1.977-2.766c-4.215-12.873-0.204-26.019-1.32-39.162c-0.646-7.617-4.861-17.502,0.379-24.287
				c0.285-0.369,0.589-0.68,0.903-0.941c0.382-2.133,1.943-3.918,4.806-3.913c18.865,0.036,37.699,1.068,56.551,1.63
				c18.367,0.547,36.794-0.124,55.133,1.173c5.866,0.415,13.448,1.151,16.559,7.126
				C248.264,297.139,248.406,301.955,248.028,307.244z"/>
		</g>
	</g>
	<g>
		<g>
			<path fill="#EF4823" d="M487.996,227.154c-1.558-1.936-1.813-4.831-0.607-6.799c-3.278-10.51-9.165-19.848-14.685-29.392
				c-6.722-11.624-10.896-23.762-15.767-36.215c-4.85-12.399-9.197-24.869-14.685-37.007c-4.611-10.197-9.636-21.155-9.802-32.552
				h-8.69c-12.856,0-25.711,0.031-38.566,0.065c-0.049,1.022-0.385,2.075-1.107,3.08c-1.244,1.727,0.548,8.67,1.146,11.119
				c1.288,5.28,2.93,10.453,4.524,15.646c4.398,14.315,6.08,29.587,9.541,44.174c3.877,16.336,11.021,31.693,14.695,48.111
				c2.113,9.438,6.977,19.321,8.199,29.18c11.076,6.947,24.216,13.035,37.484,11.51c10.265-1.18,18.241-7.305,24.59-14.934
				c-0.197-1.341,0.219-2.781,1.555-4.068C486.551,228.372,487.251,227.721,487.996,227.154z"/>
		</g>
	</g>
	<g>
		<g>
			<path fill="#BCBCBC" d="M236.169,297.778c-1.432-1.704-5.248-1.479-7.159-1.615c-3.926-0.277-7.856-0.47-11.79-0.569
				c-16.699-0.426-33.394-0.218-50.092-0.827c-15.446-0.563-30.89-1.257-46.347-1.351c-0.181,0.381-0.408,0.759-0.694,1.129
				c0.975-1.262,0.206-0.333,0.238,0.547c0.014,0.73,0.055,1.459,0.125,2.186c0.213,2.016,0.512,4.015,0.855,6.012
				c0.662,3.832,1.281,7.617,1.292,11.521c0.022,8.44-1.774,17.393-0.803,25.892c0.987,0.807,1.644,2.06,1.644,3.789v2.234
				c0.024,0.039,0.051,0.074,0.075,0.114c3.913,6.614,16.94,5.985,23.454,5.972c9.77-0.02,19.471-1.175,29.226-1.363
				c9.832-0.19,19.657,1.292,29.482,1.544c7.13,0.183,21.041,1.731,26.146-4.708c1.328-1.676,3.006-2.18,4.581-1.924
				c-0.17-12.17-0.549-24.447,0.454-36.518C237.128,306.568,238.521,300.576,236.169,297.778z"/>
		</g>
	</g>
	<g>
		<g>
			<path fill="#BCBCBC" d="M406.452,370.334c-0.873-12.055-1.267-24.147-1.85-36.217c-0.516-10.689-1.303-21.192-1.031-31.886
				c0.094-3.709,0.732-9.395-1.942-12.439c-1.29-1.469-4.683-1.869-6.479-2.121c-7.116-0.999-14.389-0.434-21.525,0.082
				c-7.361,0.531-14.496,0.667-21.88,0.225c-9.843-0.59-20.39-1.819-29.972,1.127c-0.521,0.16-1.021,0.238-1.501,0.262
				c0.023,11.868,3.612,23.421,5.167,35.123c1.654,12.44,3.248,24.899,4.289,37.408c2.092,25.158-0.637,50.619,3.711,75.592
				c0.293,1.681-0.122,2.997-0.932,3.938h38.287c8.764,0,17.484-0.471,26.24-0.791c4.025-0.147,8.07-0.333,12.097-0.12
				c1.083,0.057,2.568,0.277,4.024,0.347C410.116,417.417,408.161,393.915,406.452,370.334z"/>
		</g>
	</g>
	<g>
		<g>
			<path d="M245.772,292.357c-3.11-5.975-10.692-6.711-16.559-7.126c-18.339-1.297-36.766-0.626-55.133-1.173
				c-18.852-0.562-37.686-1.594-56.551-1.63c-2.862-0.005-4.424,1.78-4.806,3.913c-0.314,0.262-0.618,0.572-0.903,0.941
				c-5.24,6.785-1.025,16.67-0.379,24.287c1.116,13.144-2.895,26.289,1.32,39.162c0.42,1.282,1.129,2.176,1.977,2.766
				c5.57,8.637,17.945,9.623,27.199,10.14c11.48,0.641,22.92-0.765,34.376-1.199c10.869-0.412,21.819,1.377,32.694,1.578
				c8.98,0.165,21.402,0.161,28.802-6.156c2.927,2.889,9.628,1.148,9.628-4.37c0-15.403-0.51-30.879,0.59-46.246
				C248.406,301.955,248.264,297.139,245.772,292.357z M236.856,309.841c-1.003,12.07-0.624,24.348-0.454,36.518
				c-1.575-0.256-3.253,0.248-4.581,1.924c-5.104,6.439-19.016,4.891-26.146,4.708c-9.825-0.252-19.65-1.734-29.482-1.544
				c-9.755,0.188-19.456,1.344-29.226,1.363c-6.514,0.014-19.541,0.643-23.454-5.972c-0.024-0.04-0.051-0.075-0.075-0.114v-2.234
				c0-1.729-0.656-2.982-1.644-3.789c-0.972-8.499,0.825-17.451,0.803-25.892c-0.011-3.903-0.63-7.688-1.292-11.521
				c-0.344-1.997-0.643-3.996-0.855-6.012c-0.07-0.727-0.111-1.455-0.125-2.186c-0.032-0.88,0.736-1.809-0.238-0.547
				c0.286-0.37,0.514-0.748,0.694-1.129c15.457,0.094,30.9,0.787,46.347,1.351c16.698,0.609,33.393,0.401,50.092,0.827
				c3.934,0.1,7.864,0.292,11.79,0.569c1.911,0.136,5.728-0.089,7.159,1.615C238.521,300.576,237.128,306.568,236.856,309.841z"/>
		</g>
	</g>
	<g>
		<g>
			<path d="M499.146,221.886c-2.576-11.933-8.777-22.545-14.907-32.957c-3.183-5.406-6.379-10.804-8.954-16.532
				c-2.843-6.321-4.785-13.094-7.291-19.56c-4.641-11.976-8.729-24.147-14.044-35.846c-4.938-10.868-10.979-22.457-10.511-34.711
				c0.09-2.333-1.049-3.793-2.619-4.456c-0.787-1.99-2.582-3.605-5.289-3.605h-4c-0.029,0-0.057,0.004-0.086,0.004
				c-14.031,0.002-28.062,0.02-42.092,0.049c-0.223-0.949-0.75-1.831-1.645-2.523c-0.195-1.191-0.26-2.41-0.328-3.61
				c-0.182-3.159-0.092-6.338-0.019-9.499c0.124-5.302,0.812-10.871,0.077-16.148c-0.521-3.76-3.727-5.633-7.303-4.769
				c-6.787,1.64-14.648,0.114-21.523-0.198c-7.286-0.33-14.677-0.002-21.156,3.66c-9.316,5.267-5.418,20.22-3.029,30.33
				c-0.537,0.85-0.801,1.878-0.796,2.932c-30.204,0.129-60.409,0.313-90.616,0.558c-32.406,0.262-64.827-0.393-97.227,0.047
				c-16.035,0.218-32.068,0.955-48.1,1.363c-14.01,0.356-28.418,0.802-42.356,2.272c-4.471,0.473-8.94,1.381-13.196,2.827
				c-1.27,0.432-2.169,1.154-2.748,2.025c-3.242,2.136-3.752,6.59-4.631,10.604c-1.622,7.4-2.365,14.995-3.201,22.514
				c-0.75,6.735-2.463,13.508-3.551,20.21c-1.2,7.399-2.379,14.801-3.748,22.171c-4.875,26.24-2.562,53.609-11.229,79.221
				c-1.194,3.529,1.036,6.585,3.724,7.66c0.103,0.613,0.307,1.238,0.644,1.863c4.805,8.92,14.667,14.127,24.95,17.124
				c-0.304,14.232,1.916,28.337,2.995,42.512c1.222,16.059,2.08,32.154,3.383,48.206c1.269,15.623,1.72,31.167,1.744,46.845
				c0.019,12.096-1.889,25.935,3.296,37.265c0.412,0.902,1.041,1.686,1.793,2.298c0.055,0.23,0.12,0.464,0.207,0.702
				c4.145,11.416,11.834,21.326,24.496,23.148c10.526,1.516,21.053-2.826,30.094-8.147c11.148,8.447,29.502,8.669,42.246,5.78
				c3.971-0.9,7.508-2.422,10.602-4.417c0.045,0.939,0.404,1.925,1.194,2.893c10.992,13.476,29.497,14.388,45.319,10.759
				c8.028-1.842,13.794-6.902,21.203-9.984c0.336,0.297,0.664,0.604,0.979,0.924c1.643,1.562,3.1,3.322,4.704,4.926
				c3.632,3.629,9.708,4.176,14.591,4.642c9.984,0.95,18.391-0.014,26.84-5.781c1.688-1.151,5.322-4.65,7.547-4.505
				c3.486,0.229,6.921,1.756,10.441,2.179c11.836,1.423,26.159-0.847,29.64-12.748h49.72c8.76,0,17.504-0.65,26.258-0.918
				c5.455-0.167,11.196,0.741,16.531-0.331c1.039,0.386,2.258,0.433,3.605-0.045c9.426-3.341,21.068-6.972,31.133-4.793
				c2.171,0.471,3.867-0.265,4.96-1.542c3.228,1.708,8.573-0.202,8.573-5.132c0,3.464,1.041-2.195,1.236-2.969
				c0.515-2.028,0.727-4.133,0.932-6.209c0.476-4.803,0.359-9.654,0.183-14.468c-0.387-10.538-0.351-21.062-0.351-31.606
				c0-20.191,0.854-40.592-0.088-60.761c-0.537-11.465-1.66-22.898-2.215-34.365c-0.293-6.052-0.479-12.119-0.282-18.177
				c0.063-1.953,0.255-3.898,0.58-5.824c0.024-0.148,0.227-0.922,0.308-1.305c2.062-1.717,2.146-4.205,1.11-6.203
				c12.21-3.482,22.228-13.109,29.235-23.416c1.426-2.098,1.429-4.545,0.453-6.377C499.073,226.496,499.601,223.992,499.146,221.886
				z M342.929,51.939c0.059-0.757,0.506-1.428,0.34-1.409c0.883-0.577,1.866-0.911,2.877-1.24
				c5.691-1.852,12.672-0.868,18.527-0.513c4.084,0.248,8.139,0.521,12.174,0.3c0.045,4.939-0.486,9.979-0.527,14.823
				c-0.023,2.798-0.211,6.881,0.584,10.407c-10.224,0.025-20.447,0.053-30.67,0.092c-0.868-4.725-1.946-9.404-2.67-14.158
				C343.155,57.553,342.718,54.664,342.929,51.939z M316.893,91.751c0.021-0.122,0.032-0.214,0.04-0.294
				c0.041-0.024,0.09-0.06,0.154-0.122c1.941-1.867,1.951-4.061,0.942-5.801c18.565-0.103,37.132-0.195,55.698-0.256
				c-2.478,7.799,0.901,17.566,3.024,24.895c1.331,4.594,3.192,9.164,4.077,13.87c1.619,8.61,3.33,17.2,5.148,25.771
				c1.85,8.71,3.656,17.477,6.55,25.903c2.8,8.15,5.712,16.257,8.208,24.509c2.239,7.407,3.45,15.057,5.881,22.397
				c1.561,4.71,4.268,10.297,4.877,15.578c-7.297,13.172-21.068,21.706-36.045,22.923c-9.134,0.742-16.956-1.607-24.943-5.785
				c-6.174-3.229-11.354-8.221-16.987-12.389c0.048-14.055-2.103-28.01-4.152-41.892c-2.418-16.366-4.013-32.798-5.427-49.278
				c-1.049-12.231-2.006-24.354-4.406-36.395c-0.978-4.904-1.867-9.827-2.46-14.795c-0.282-2.364-0.431-4.74-0.407-7.121
				C316.671,92.894,316.796,92.316,316.893,91.751z M220.882,86.152c0.008-0.021,0.012-0.041,0.019-0.061
				c3.05,0.004,6.101,0.001,9.148-0.018c25.839-0.161,51.675-0.332,77.513-0.482c-4.36,6.479-1.235,18.445-0.062,25.059
				c2.158,12.164,3.906,23.998,4.985,36.351c1.497,17.144,2.918,34.286,5.385,51.324c2.194,15.153,4.755,30.358,4.679,45.702
				c-11.163,17.998-29.775,27.179-50.936,24.978c-19.123-1.989-37.074-11.511-51.416-24.133c0.758-0.919,1.24-2.118,1.242-3.591
				c0.039-28.184,2.014-56.408,0.195-84.564c-0.803-12.436-0.895-24.896-1.795-37.316C219.067,108.75,217.196,96.463,220.882,86.152
				z M114.597,155.086c0.57-18.297,1.593-36.648,2.498-54.936c0.223-4.495,0.77-8.794,1.07-13.325
				c4.957-0.1,9.913-0.217,14.857-0.432c25.477-1.109,51.059-0.544,76.593-0.354c-2.216,9.189-1.786,18.813-1.174,28.235
				c0.812,12.473,1.027,24.948,1.833,37.418c1.924,29.771,0.284,59.438,0.201,89.232c-0.986,0.541-1.852,1.349-2.449,2.332
				c-18.412,30.333-70.328,20.704-90.513-2.629c-0.034-0.039-0.072-0.076-0.107-0.115c-0.155-10.058-0.997-20.064-1.65-30.109
				C114.558,191.99,114.021,173.533,114.597,155.086z M26.514,241.628c-0.641-1.188-1.488-1.924-2.418-2.297
				c6.841-22.561,7.324-46.304,9.706-69.638c1.362-13.351,4.285-26.755,6.537-39.995c1.166-6.859,2.274-13.636,3.131-20.542
				c0.645-5.187,1.107-11.059,2.696-16.212c0.604-0.453,1.129-1.009,1.523-1.643c12.008-3.508,25.241-2.287,37.583-3.262
				c7.283-0.576,14.596-0.82,21.914-0.987c-0.049,0.454-0.1,0.907-0.148,1.359c-0.219,2.031-0.484,4.062-0.549,6.106
				c-0.238,7.378-0.74,14.751-0.988,22.131c-0.551,16.396-1.877,32.756-2.094,49.161c-0.334,25.333,2.804,50.497,3.039,75.765
				c-12.866,8.947-27.561,17.036-43.591,15.889C50.927,256.61,32.774,253.251,26.514,241.628z M166.47,430.337
				c0.604,12.104-6.014,19.777-17.508,22.793c-5.42,1.422-12.066,0.942-17.578,0.391c-6.156-0.617-12.407-2.14-16.799-6.739
				c-1.717-1.8-4.756-1.675-6.707-0.428c-7.51,4.803-15.781,8.93-24.893,8.804c-8.03-0.11-12.957-6.842-15.855-13.587
				c0.214-0.62,0.33-1.312,0.309-2.081c-0.445-15.82,15.189-22.89,28.939-23.091c3.131-0.046,5.102-3.062,5.061-5.909
				c-0.072-5.233-1.211-10.549-0.836-15.776c0.479-6.662,6.121-9.341,12.158-10.407c11.742-2.074,17.483,11.605,22.634,19.683
				c1.851,2.903,6.498,3.29,8.692,0.556c8.315-10.365,21.154-4.871,27.529,4.202c2.193,3.123,3.86,6.945,4.479,10.716
				c0.695,4.254-0.322,5.085-4.564,4.966C168.476,424.343,166.332,427.588,166.47,430.337z M288.778,452.341
				c-6.725-1.514-11.607,2.628-16.9,6.013c-8.111,5.187-16.193,5.009-25.445,2.994c-5.812-1.265-8.277-10.52-15.753-9.843
				c-6.985,0.633-12.399,6.66-18.709,9.078c-11.395,4.367-29.837,5.822-38.457-4.745c-1.144-1.401-2.597-2.036-4.05-2.118
				c4.494-5.09,7.225-11.629,7.868-18.868c4.984-1.303,8.792-4.901,9.733-10.604c1.111-6.729-1.779-13.872-5.082-19.642
				c0.385-0.283,0.757-0.63,1.104-1.062c10.297-12.863,32.348-0.335,39.308,10.444c1.967,3.047,6.329,3.109,8.692,0.556
				c7.322-7.915,18.909-13.604,29.818-11.232c10.036,2.184,8.959,15.28,9.564,23.025c0.386,4.955,6.346,6.518,9.617,3.207
				c13.988-14.161,34.001-0.773,34.383,16.793c0.025,1.2,0.364,2.17,0.904,2.922C313.798,458.487,294.197,453.56,288.778,452.341z
				 M409.131,440.517c-4.026-0.213-8.071-0.027-12.097,0.12c-8.756,0.32-17.477,0.791-26.24,0.791h-38.287
				c0.81-0.941,1.225-2.258,0.932-3.938c-4.348-24.973-1.619-50.434-3.711-75.592c-1.041-12.509-2.635-24.968-4.289-37.408
				c-1.555-11.702-5.144-23.255-5.167-35.123c0.48-0.023,0.979-0.102,1.501-0.262c9.582-2.946,20.129-1.717,29.972-1.127
				c7.384,0.442,14.519,0.307,21.88-0.225c7.137-0.516,14.409-1.081,21.525-0.082c1.797,0.252,5.189,0.652,6.479,2.121
				c2.675,3.045,2.036,8.73,1.942,12.439c-0.271,10.693,0.516,21.196,1.031,31.886c0.583,12.069,0.977,24.162,1.85,36.217
				c1.709,23.58,3.664,47.083,6.703,70.529C411.699,440.794,410.214,440.574,409.131,440.517z M457.913,426.603
				c-0.078,3.027-1.051,5.99-1.744,8.926c-0.055,0.098-0.097,0.203-0.145,0.305c-0.318-0.129-0.654-0.239-1.021-0.318
				c-9.965-2.158-21.097,0.127-31.037,3.254c-3.197-24.895-5.312-49.895-6.932-74.943c-0.857-13.262-1.214-26.562-1.922-39.838
				c-0.293-5.503-0.994-10.965-0.832-16.48c0.162-5.508,0.709-10.969-0.437-16.41c-3.665-17.41-25.135-15.362-38.802-14.471
				c-8.229,0.536-16.156,0.866-24.414,0.358c-10.869-0.669-21.93-1.511-32.492,1.737c-0.758,0.232-1.379,0.574-1.887,0.985
				c-2.977-0.674-6.482,0.624-6.693,4.157c-0.029,0.492-0.044,0.982-0.062,1.474l-0.023-0.001v0.534
				c-0.387,12.196,2.264,23.913,4.41,35.896c2.303,12.866,3.524,26.054,4.71,39.062c2.088,22.903,0.021,46.07,2.656,68.904
				c-3.238-5.931-8.213-10.877-14.47-14.123c-8.66-4.494-18.171-3.896-26.254,0.255c-1.354-10.101-4.59-19.242-16.076-22.894
				c-12.612-4.009-26.812,1.444-36.882,9.825c-12.997-14.096-38.978-23.239-52.519-6.773c-9.572-8.469-23.578-11.109-34.033-3.676
				c-7.166-11.04-15.422-21.429-30.465-18.771c-8.58,1.516-16.998,6.041-19.815,14.737c-1.826,5.638-1.091,11.615-0.586,17.493
				c-11.954,1.499-23.021,7.377-29.018,16.907c-0.532-7.729,0.316-15.869,0.306-23.051c-0.025-15.678-0.631-31.197-1.898-46.817
				c-1.25-15.396-2.189-30.866-3.227-46.277c-0.883-13.113-2.93-26.105-3.014-39.236c2.174,0.35,4.293,0.622,6.303,0.828
				c19.491,1.992,37.012-6.491,52.699-17.271c26.035,25.064,77.291,32.67,101.506,3.023c16.49,14.288,37.385,24.643,59.239,26.197
				c23.21,1.652,43.233-8.42,56.397-26.735c6.238,4.618,11.922,9.892,19.066,13.257c9.416,4.433,18.804,6.191,29.244,5.344
				c16.188-1.315,31.296-10.68,40.521-23.919c0.439-0.048,0.866-0.147,1.269-0.303c11.381,6.71,23.953,11.424,37.253,11.407
				c-0.811,1.863-1.192,3.982-1.438,5.887c-0.74,5.771-0.613,11.695-0.475,17.498c0.311,12.896,1.472,25.752,2.307,38.62
				c1.212,18.671,0.281,37.625,0.281,56.33c0,11.535-0.301,23.116,0.149,34.644C457.808,416.964,458.039,421.774,457.913,426.603z
				 M485.821,229.074c-1.336,1.287-1.752,2.728-1.555,4.068c-6.349,7.629-14.325,13.754-24.59,14.934
				c-13.269,1.525-26.408-4.562-37.484-11.51c-1.223-9.858-6.086-19.741-8.199-29.18c-3.674-16.418-10.818-31.775-14.695-48.111
				c-3.461-14.587-5.143-29.858-9.541-44.174c-1.595-5.193-3.236-10.366-4.524-15.646c-0.598-2.449-2.39-9.393-1.146-11.119
				c0.723-1.005,1.059-2.058,1.107-3.08c12.855-0.034,25.71-0.065,38.566-0.065h8.69c0.166,11.396,5.19,22.354,9.802,32.552
				c5.487,12.138,9.835,24.607,14.685,37.007c4.87,12.453,9.045,24.591,15.767,36.215c5.52,9.544,11.406,18.882,14.685,29.392
				c-1.206,1.968-0.95,4.863,0.607,6.799C487.251,227.721,486.551,228.372,485.821,229.074z"/>
		</g>
	</g>
</g>
</svg>
