<?xml version="1.0" encoding="utf-8"?>
<!-- Generator: Adobe Illustrator 16.0.3, SVG Export Plug-In . SVG Version: 6.00 Build 0)  -->
<!DOCTYPE svg PUBLIC "-//W3C//DTD SVG 1.1//EN" "http://www.w3.org/Graphics/SVG/1.1/DTD/svg11.dtd">
<svg version="1.1" id="Layer_1" xmlns="http://www.w3.org/2000/svg" xmlns:xlink="http://www.w3.org/1999/xlink" x="0px" y="0px"
	 width="512px" height="512px" viewBox="0 0 512 512" enable-background="new 0 0 512 512" xml:space="preserve">
<g>
	<g>
		<g>
			<path fill="#EF4754" d="M346.406,85.723c-11.363-21.832-35.734-31.939-59.398-35.141c-25.504-3.449-53.947-0.035-76.743,12.414
				c-21.228,11.594-36.007,30.724-33.163,55.391c1.008,8.751,3.967,16.946,7.315,25.057c2.286,5.537,4.753,10.99,7.372,16.368
				c10.092-29.644,39.939-48.177,70.128-52.774c16.331-2.486,33.696-1.287,48.972,5.35c9.023,3.92,17.166,9.82,23.384,17.49
				c3.112,3.84,5.928,8.102,7.677,12.758c0.33,0.88,0.68,1.795,1.023,2.729c3.326-7.579,5.891-15.409,7.33-23.492
				C352.459,109.761,351.939,96.353,346.406,85.723z"/>
		</g>
	</g>
	<g>
		<g>
			<path fill="#EF4754" d="M196.533,193.671c-8.197-13.751-15.836-27.925-22.061-42.688c-3.172-7.524-6.149-15.128-7.961-23.071
				c-0.221,0.835-0.439,1.67-0.66,2.505c-2.562,9.715-5.895,19.196-8.521,28.893c-4.691,17.315-8.758,37.841-1.976,55.145
				c7.167,18.283,20.031,35.517,32.843,50.262c6.394,7.36,13.161,14.451,19.715,21.679c6.043,6.663,12.272,13.194,19.586,18.467
				c7.965-10.395,15.879-20.827,23.774-31.275C232.555,247.292,213.078,221.425,196.533,193.671z"/>
		</g>
	</g>
	<g>
		<g>
			<path fill="#EF4754" d="M409.334,431.107c0.297,0.837-1.23-1.338-1.91-1.956c-1.727-1.569-3.514-3.068-5.351-4.507
				c-4.029-3.154-8.171-6.156-12.306-9.172c-11.225-8.184-20.551-19.255-30.358-29.062c-11.556-11.555-22.493-23.833-34.151-35.252
				c-7.627-7.469-16.674-14.128-21.785-23.609c-1.553,1.941-3.114,3.875-4.641,5.837c-6.31,8.112-12.303,16.403-17.924,24.954
				c1.359,0.869,2.401,2.29,2.681,4.307c1.59,11.479,12.817,21.877,20.103,30.181c9.375,10.686,16.409,23.042,27.193,32.562
				c11.494,10.147,24.312,10.164,38.907,9.854c13.438-0.283,27.507,1.408,40.603-2.232
				C409.965,432.488,409.602,431.86,409.334,431.107z"/>
		</g>
	</g>
	<g>
		<g>
			<path fill="#EF4754" d="M385.164,176.378c-0.637-23.211-9.797-45.042-21.93-64.782c-0.343,12.753-3.744,25.74-9.198,37.86
				c-13.59,30.195-35.584,55.735-55.26,82.054c-21.23,28.398-42.861,56.505-64.532,84.567
				c-38.227,49.5-77.865,98.026-122.247,142.147c10.404-3.227,20.793-6.457,31.432-8.957c15.161-3.564,30.571-4.03,45.938-6.132
				c23.047-3.151,40.485-24.737,52.297-42.955c6.53-10.071,12.451-20.526,18.373-30.961c8.066-14.214,17.303-27.757,27.282-40.694
				c19.409-25.161,41.173-48.355,60.813-73.33C365.705,232.851,385.984,206.335,385.164,176.378z"/>
		</g>
	</g>
	<g>
		<g>
			<path d="M420.754,427.105c-2.734-7.694-12.866-13.314-19.07-17.861c-10.464-7.667-19.172-16.809-28.347-25.984
				c-11.575-11.574-23.247-23.062-34.436-35.018c-4.643-4.961-9.347-9.601-14.35-14.192c-4.585-4.209-9.362-8.792-11.589-14.734
				c-0.297-0.794-0.701-1.445-1.176-1.982c15.791-19.032,32.352-37.423,47.603-56.913c19.367-24.752,38.032-52.352,37.84-84.974
				c-0.195-33.07-18.473-64.934-37.665-90.693c-0.398-0.534-0.838-0.967-1.303-1.319c-2.769-6.641-6.751-12.942-12.152-18.702
				c-18.183-19.387-46.657-26.312-72.283-27.32c-41.188-1.622-95.969,17.188-107.138,58.735c-0.453,0.385-0.874,0.844-1.243,1.396
				c-5.437,8.148-8.068,17.736-10.562,27.106c-2.722,10.23-5.965,20.279-8.896,30.448c-5.504,19.099-9.146,41.102-3.069,60.481
				c3.005,9.582,8.356,18.297,13.708,26.705c6.152,9.67,12.906,18.933,20.273,27.712c6.566,7.824,13.77,15.108,20.562,22.738
				c6.96,7.816,14.095,15.623,22.688,21.676c-12.349,15.994-24.852,31.871-37.665,47.511c-28.164,34.38-57.821,67.562-89.857,98.39
				c-2.518,2.422-2.081,5.342-0.335,7.355c-0.293,3.805,3.107,8.158,7.98,6.747c16.442-4.761,32.537-10.29,49.221-14.21
				c15.93-3.745,32.807-2.271,48.554-6.668c24.208-6.756,41.26-27.877,54.458-47.972c6.59-10.034,12.386-20.563,18.372-30.96
				c0.783-1.359,1.585-2.705,2.387-4.051c3.646,10.211,11.556,18.953,18.53,26.915c10.672,12.182,19.081,25.954,31.104,37.013
				c12.646,11.63,27.824,13.286,44.331,12.916c16.58-0.371,33.834,1.646,49.816-3.78c4.911-1.668,4.789-7.276,1.982-10.11
				C420.759,432.111,421.727,429.844,420.754,427.105z M210.265,62.996c22.796-12.449,51.239-15.863,76.743-12.414
				c23.664,3.201,48.035,13.309,59.398,35.141c5.533,10.63,6.053,24.038,3.896,36.149c-1.439,8.083-4.004,15.913-7.33,23.492
				c-0.344-0.935-0.693-1.85-1.023-2.729c-1.749-4.656-4.564-8.918-7.677-12.758c-6.218-7.67-14.36-13.57-23.384-17.49
				c-15.275-6.637-32.641-7.836-48.972-5.35c-30.188,4.598-60.036,23.131-70.128,52.774c-2.619-5.378-5.086-10.831-7.372-16.368
				c-3.349-8.11-6.308-16.306-7.315-25.057C174.258,93.72,189.037,74.59,210.265,62.996z M335.411,160.177
				c-7.551,13.058-16.814,25.294-25.71,36.701c-17.168,22.015-33.972,44.309-50.789,66.591
				c-17.975-25.162-36.387-50.046-52.349-76.564c-2.997-4.979-5.878-10.025-8.634-15.136c1.9-0.537,3.561-1.944,4.171-4.385
				c6.734-26.93,33.549-43.401,59.438-48.062c13.328-2.399,27.586-1.973,40.442,2.525c7.516,2.63,14.013,6.688,19.777,12.176
				c5.396,5.137,11.257,13.994,11.358,21.674C333.146,157.838,334.078,159.315,335.411,160.177z M207.912,286.394
				c-6.554-7.228-13.321-14.318-19.715-21.679c-12.812-14.745-25.676-31.979-32.843-50.262c-6.782-17.304-2.716-37.829,1.976-55.145
				c2.627-9.696,5.959-19.178,8.521-28.893c0.221-0.835,0.439-1.67,0.66-2.505c1.812,7.943,4.789,15.547,7.961,23.071
				c6.225,14.764,13.863,28.938,22.061,42.688c16.545,27.754,36.021,53.621,54.739,79.914c-7.896,10.448-15.81,20.881-23.774,31.275
				C220.185,299.588,213.955,293.057,207.912,286.394z M260.037,369.22c-5.922,10.435-11.843,20.89-18.373,30.961
				c-11.812,18.218-29.25,39.804-52.297,42.955c-15.367,2.102-30.777,2.567-45.938,6.132c-10.639,2.5-21.027,5.73-31.432,8.957
				c44.382-44.121,84.021-92.647,122.247-142.147c21.671-28.062,43.302-56.169,64.532-84.567
				c19.676-26.318,41.67-51.858,55.26-82.054c5.454-12.12,8.855-25.107,9.198-37.86c12.133,19.74,21.293,41.571,21.93,64.782
				c0.82,29.957-19.459,56.473-37.031,78.817c-19.641,24.975-41.404,48.169-60.813,73.33
				C277.34,341.463,268.104,355.006,260.037,369.22z M369.792,435.244c-14.595,0.31-27.413,0.293-38.907-9.854
				c-10.784-9.521-17.818-21.877-27.193-32.562c-7.285-8.304-18.513-18.701-20.103-30.181c-0.279-2.017-1.321-3.438-2.681-4.307
				c5.621-8.551,11.614-16.842,17.924-24.954c1.526-1.962,3.088-3.896,4.641-5.837c5.111,9.481,14.158,16.141,21.785,23.609
				c11.658,11.419,22.596,23.697,34.151,35.252c9.808,9.808,19.134,20.879,30.358,29.062c4.135,3.016,8.276,6.018,12.306,9.172
				c1.837,1.438,3.624,2.938,5.351,4.507c0.68,0.618,2.207,2.793,1.91,1.956c0.268,0.753,0.631,1.381,1.061,1.904
				C397.299,436.652,383.229,434.961,369.792,435.244z"/>
		</g>
	</g>
</g>
</svg>
