<?xml version="1.0" encoding="utf-8"?>
<!-- Generator: Adobe Illustrator 16.0.3, SVG Export Plug-In . SVG Version: 6.00 Build 0)  -->
<!DOCTYPE svg PUBLIC "-//W3C//DTD SVG 1.1//EN" "http://www.w3.org/Graphics/SVG/1.1/DTD/svg11.dtd">
<svg version="1.1" id="Layer_1" xmlns="http://www.w3.org/2000/svg" xmlns:xlink="http://www.w3.org/1999/xlink" x="0px" y="0px"
	 width="512px" height="512px" viewBox="0 0 512 512" enable-background="new 0 0 512 512" xml:space="preserve">
<g>
	<g>
		<g>
			<path fill="#127274" d="M117.393,222.249c-0.383-0.105-0.736-0.242-1.064-0.4c-4.781,2.709-8.221,8.285-10.213,13.09
				c-1.262,3.043-3.744,11.172,0.164,12.141c7.457,1.851,13.295-3.117,15.945-9.809
				C124.484,231.565,124.338,224.146,117.393,222.249z"/>
		</g>
	</g>
	<g>
		<g>
			<path fill="#127274" d="M263.039,467.412c-1.445,13.312,12.85,21.913,23.307,13.161c3.502-2.932,5.922-6.674,7.512-10.803
				C284.393,463.327,264.742,451.729,263.039,467.412z"/>
		</g>
	</g>
	<g>
		<g>
			<path fill="#127274" d="M420.604,192.392c-7.523,0.215-15.549,1.322-20.383,7.506c-3.781,4.836-9.791,13.201-7.094,19.783
				c3.449,8.422,14.822,0.436,18.809-3.387c6.121-5.869,8.975-13.496,9.568-21.756C421.07,193.886,420.77,193.151,420.604,192.392z"
				/>
		</g>
	</g>
	<g>
		<g>
			<path fill="#127274" d="M389.961,101.964c-9.773-1.959-19.482-3.2-28.654-7.013c0.061,6.622,0.227,13.242,0.436,19.86
				c0.543-0.09,1.127-0.107,1.75-0.027c18.096,2.316,36.117,5.541,54.346,6.374c0.953-5,2.088-9.954,3.381-14.831
				C410.689,105.934,400.322,104.04,389.961,101.964z"/>
		</g>
	</g>
	<g>
		<g>
			<path fill="#127274" d="M356.1,175.547c-10.111-0.617-21.623,0.054-29.215,7.661c-4.477,4.486-9.096,12.168-1.346,16.114
				c9.613,4.895,20.105,3.972,26.537-5.448c1.172-1.718,3.033-5.286,4.197-8.405c0.57-1.532,1.096-3.109,1.355-4.729
				c0.078-0.482,0.166-0.914,0.182-1.366C356.49,178.245,356,176.878,356.1,175.547z"/>
		</g>
	</g>
	<g>
		<g>
			<path d="M344.672,264.704c-9.547-10.375-23.031-15.539-36.42-18.713c-15.98-3.787-32.83-3.76-48.906-0.645
				c-4.725,0.916-9.363,2.104-13.916,3.529c-1.367-4.408-2.754-8.812-4.186-13.209c-7.18-22.051-14.277-43.994-20.619-66.225
				c1.791-4.018,3.555-8.043,5.291-12.074c11.73-27.243,25.811-54.715,27.648-84.862c1.23-20.221-4.387-46.188-25.684-54.202
				c-20.717-7.796-31.367,14.879-34.232,31.471c-5.018,29.071,0.906,60.18,7.469,88.5c2.367,10.207,4.986,20.326,7.773,30.395
				c-3.725,8.178-7.58,16.296-11.633,24.318c-6.906,13.673-14.418,27.077-22.818,39.891c-7.975,12.164-16.652,23.85-24.574,36.053
				c-13.883,21.389-28.33,48.422-17.676,74.195c9.924,24,38.381,34.913,62.221,38.111c25.723,3.451,52.596,2.227,78.125-3.258
				c4.059,10.461,8.318,20.846,12.309,31.334c4.709,12.381,9.514,24.975,11.131,38.196c0.416,3.398,0.559,6.999,0.316,10.588
				c-8.305-5.526-17.639-10.312-27.416-9.325c-10.721,1.082-16.434,10.388-16.898,20.334c-0.492,10.513,6.797,21.344,16.654,24.826
				c10.15,3.588,20.492-0.325,27.736-7.787c4.133-4.256,6.906-9.078,8.654-14.236c0.959-1.002,1.574-2.414,1.574-4.148v-1.882
				c3.035-16.302-2.346-34.937-7.52-49.706c-4.832-13.789-10.189-27.311-15.363-40.891c0.254-0.068,0.512-0.129,0.766-0.198
				c25.199-6.86,50.055-18.563,64.67-41.123C363.17,312.317,362.277,283.84,344.672,264.704z M286.346,480.573
				c-10.457,8.752-24.752,0.15-23.307-13.161c1.703-15.683,21.354-4.085,30.818,2.358
				C292.268,473.899,289.848,477.642,286.346,480.573z M204.154,53.814c1.047-8.147,3.426-17.097,9.172-23.226
				c6.74-7.189,16.889,0.559,21.355,6.452c14.766,19.481,7.225,50.005,0.086,70.713c-5.074,14.722-11.883,28.716-17.977,43.019
				c-0.258,0.605-0.527,1.205-0.787,1.811c-0.615-2.332-1.24-4.66-1.834-7C206.666,116.052,200.23,84.39,204.154,53.814z
				 M181.52,367.517c-12.418-3.234-23.979-9.385-32.779-18.799c-9.143-9.781-10.596-22.966-7.973-35.603
				c2.824-13.601,10.67-26.237,18.012-37.824c7.785-12.286,16.479-23.979,24.559-36.073c11.51-17.228,21.309-35.568,30.193-54.32
				c4.332,14.622,8.982,29.152,13.793,43.666c2.652,7.998,5.219,16.011,7.715,24.038c-21.881,8.849-41.473,23.175-58.061,39.95
				c-5.004,5.061,3.303,12.279,8.264,7.264c15.264-15.438,33.061-28.335,53.049-36.621c5.723,18.919,11.055,37.938,16.078,57.107
				c4.023,15.363,8.172,30.619,13.596,45.558c0.209,0.573,0.426,1.144,0.635,1.716C240.039,372.701,209.846,374.891,181.52,367.517z
				 M339.295,329.066c-6.967,11.358-18.664,19.624-30.42,25.425c-9.025,4.455-18.99,8.139-28.963,10.678
				c-4.537-12.271-8.785-24.656-12.217-37.395c-6.168-22.891-12.275-45.703-19.057-68.369c1.277-0.41,2.557-0.816,3.852-1.189
				c23.768-6.849,52.83-6.175,74.635,6.457c9.873,5.721,16.789,14.996,19.789,25.934
				C350.502,303.685,346.146,317.892,339.295,329.066z"/>
		</g>
	</g>
	<g>
		<g>
			<path d="M428.02,95.366c-12.186,0.467-24.064-1.822-35.959-4.201c-10.234-2.047-20.402-3.055-29.838-7.908
				c-3.109-1.601-5.865-0.022-7.115,2.378c-2.506,0.458-4.822,2.394-4.816,5.64c0.043,24.438,1.652,48.839,1.939,73.271
				c-13.527-0.048-26.545,2.939-35.912,13.889c-8.871,10.371-7.625,23.691,4.328,30.742c14.156,8.35,31.512,3.944,40.596-9.361
				c4.383-6.422,12.527-22.197,4.164-28.43c-0.707-0.527-1.441-0.86-2.172-1.029c0.016-0.195,0.027-0.392,0.027-0.596
				c-0.027-14.703-0.619-29.393-1.15-44.084c17.986,2.321,35.887,5.364,53.984,6.338c-2.164,16.562-2.01,33.41,1.867,49.556
				c-3.984,0.253-7.924,0.789-11.844,1.864c-6.631,1.819-11.455,6.109-15.787,11.213c-7.227,8.516-12.246,23.059-5.262,33.031
				c7.885,11.26,22.328,6.031,31.188-0.725c11.453-8.73,16.113-21.785,16.338-35.859c0.025-1.662-0.846-2.971-2.078-3.844
				c0.068-0.748,0.008-1.507-0.217-2.219c-5.336-16.979-5.658-35.022-3.201-52.697h0.184c6.168,0,6.303-8.299,1.588-10.457
				c1.348-6.786,3.047-13.475,4.971-19.979C434.9,98.322,431.305,95.239,428.02,95.366z M357.629,180.739
				c-0.26,1.62-0.785,3.197-1.355,4.729c-1.164,3.119-3.025,6.688-4.197,8.405c-6.432,9.42-16.924,10.343-26.537,5.448
				c-7.75-3.946-3.131-11.628,1.346-16.114c7.592-7.607,19.104-8.278,29.215-7.661c-0.1,1.331,0.391,2.698,1.711,3.826
				C357.795,179.825,357.707,180.257,357.629,180.739z M417.838,121.158c-18.229-0.833-36.25-4.058-54.346-6.374
				c-0.623-0.08-1.207-0.062-1.75,0.027c-0.209-6.618-0.375-13.238-0.436-19.86c9.172,3.812,18.881,5.054,28.654,7.013
				c10.361,2.076,20.729,3.97,31.258,4.363C419.926,111.204,418.791,116.158,417.838,121.158z M411.936,216.294
				c-3.986,3.822-15.359,11.809-18.809,3.387c-2.697-6.582,3.312-14.947,7.094-19.783c4.834-6.184,12.859-7.291,20.383-7.506
				c0.166,0.76,0.467,1.494,0.9,2.146C420.91,202.798,418.057,210.425,411.936,216.294z"/>
		</g>
	</g>
	<g>
		<g>
			<path d="M128.891,149.923c-7.541-4.574-16.379-4.001-24.377-7.14c-6.949-2.728-11.424-7.54-15.602-12.118
				c-0.443-0.789-1.104-1.506-2.021-2.074c-0.186-0.115-0.371-0.23-0.557-0.345c-1.566-0.97-4.082-0.71-5.521,0.368
				c-0.02,0.013-0.037,0.026-0.055,0.04c-2.449,1.829-2.904,4.595-1.725,6.996c-1.354,2.081-1.627,5.015,0.445,7.333
				c8.873,9.92,11.773,24.342,16.576,36.404c4.42,11.1,7.445,23.491,13.307,34.064c-14.359,10.582-26.225,40.697-3.57,44.769
				c25.488,4.579,40.877-37.055,15.637-46.149c-4.012-5.857-6.307-12.528-8.566-19.214c-2.266-6.7-4.918-13.165-7.461-19.753
				c-2.832-7.338-5.234-14.881-8.434-22c5.205,2.619,10.545,4.02,16.59,5.092c6.02,1.068,17.109,4.588,15.965,12.734
				c-0.4,2.842-3.033,5.031-4.855,7.01c-2.129,2.312-3.984,4.866-5.15,7.796c-2.609,6.554,7.232,11.479,9.854,4.895
				c1.334-3.349,3.84-5.668,6.191-8.321c2.461-2.773,3.676-5.793,4.758-9.279C142.92,162.651,135.441,153.897,128.891,149.923z
				 M116.328,221.849c0.328,0.158,0.682,0.295,1.064,0.4c6.945,1.896,7.092,9.316,4.832,15.021
				c-2.65,6.691-8.488,11.659-15.945,9.809c-3.908-0.969-1.426-9.098-0.164-12.141C108.107,230.134,111.547,224.558,116.328,221.849
				z"/>
		</g>
	</g>
</g>
</svg>
