<?xml version="1.0" encoding="utf-8"?>
<!-- Generator: Adobe Illustrator 16.0.3, SVG Export Plug-In . SVG Version: 6.00 Build 0)  -->
<!DOCTYPE svg PUBLIC "-//W3C//DTD SVG 1.1//EN" "http://www.w3.org/Graphics/SVG/1.1/DTD/svg11.dtd">
<svg version="1.1" id="Layer_1" xmlns="http://www.w3.org/2000/svg" xmlns:xlink="http://www.w3.org/1999/xlink" x="0px" y="0px"
	 width="512px" height="512px" viewBox="0 0 512 512" enable-background="new 0 0 512 512" xml:space="preserve">
<g>
	<g>
		<g>
			<path fill="#127274" d="M386.481,161.474c-7.098-26.322-21.32-50.147-38.676-70.993C331.123,70.446,311.223,53.323,287.586,42
				c-21.838-10.461-46.226-16.244-70.505-13.807c-25.404,2.551-49.699,13.615-68.256,31.224
				c-18.66,17.706-32.049,40.304-38.773,65.144c-3.349,12.375-5.526,25.167-6.088,37.986c-0.296,6.746-0.323,13.507,0.051,20.251
				c0.28,5.056,0.177,10.505,0.845,15.634c0.224,0.393,0.415,0.834,0.555,1.338c6.778,24.439,15.134,49.229,31.531,69.062
				c15.686,18.973,38.456,32.135,61.814,39.455c1.146-0.009,2.244,0.308,3.121,0.946c43.309,12.622,90.202,7.596,128.29-17.461
				c19.925-13.107,36.925-30.804,47.917-52.084C390.628,215.41,393.607,187.903,386.481,161.474z M274.333,58.885
				c0.672-1.592,2.136-2.781,4.467-2.781h19c2.302,0,5.002,1.176,5.615,3.666c2.207,8.972,4.154,18.123,4.294,27.395
				c0.039,2.622-1.27,4.588-3.667,5.615c-5.884,2.521-12.007,1.341-18,3c-3.258,0.902-5.791-1.001-6.804-3.438
				c-2.039-0.967-3.644-2.995-3.414-5.803c0.621-7.566-2.974-15.117-4.086-22.527C271.352,61.442,272.576,59.711,274.333,58.885z
				 M266.617,278.313c-42.874,9.381-89.43-16.749-103.321-57.933c-0.506-0.515-0.934-1.167-1.243-1.974
				c-8.688-22.65-11.496-50.186,2.403-71.498c12.694-19.466,33.556-33.793,56.239-38.746c43.306-9.456,93.971,19.677,108.821,61.412
				C345.6,214.776,312.848,268.196,266.617,278.313z"/>
		</g>
	</g>
	<g>
		<g>
			<path fill="#D6E5E5" d="M310.643,157.047c-13.678-19.428-36.201-34.711-59.82-38.727c-24.659-4.192-50.082,4.803-67.463,22.685
				c-9.447,9.718-15.936,20.959-17.308,34.649c-1.058,10.565,0.556,21.039,3.626,31.105c0.986,0.785,1.746,1.915,2.051,3.404
				c6.55,32.002,36.164,53.853,67.371,58.467c32.276,4.771,63.567-15.513,76.851-44.574
				C326.125,201.8,324.876,177.266,310.643,157.047z M292.436,240.501c-15.365,13.956-38.285,22.284-59.024,17.554
				c-15.983-3.646-40.496-12.459-43.674-31.043c-0.188-1.102-0.075-2.048,0.254-2.836c-6.125-17.656-5.92-38.643,3.943-54.801
				c10.055-16.472,27.533-29.893,47.641-29.299c12.218,0.36,23.265,4.443,33.278,11.379c9.88,6.846,19.477,15.197,25.804,25.557
				C313.283,197.682,310.717,223.897,292.436,240.501z"/>
		</g>
	</g>
	<g>
		<g>
			<path fill="#BCBCBC" d="M295.738,320.012c-0.012-0.089-0.013-0.173-0.021-0.26c-29.373,9.021-61.013,9.734-91.12,1.671
				c-0.231,1.181-0.804,2.139-1.572,2.862c0.753,6.664,3.396,13.521,5.337,19.336c1.355,4.057,2.933,6.374,7.058,8.025
				c4.13,1.654,8.634,2.341,13.035,2.842c13.092,1.492,25.717,2.295,38.774-0.225c4.345-0.84,8.652-1.586,13.016-2.309
				c2.15-0.356,4.323-0.711,6.395-1.41c0.727-0.246,1.631-0.44,2.278-0.877c0.188-0.153,0.328-0.255,0.443-0.331
				c1.328-2.289,3.893-3.135,6.162-2.823c0.193-0.168,0.397-0.332,0.626-0.485C303.164,341.309,296.591,326.589,295.738,320.012z"/>
		</g>
	</g>
	<g>
		<g>
			<path fill="#D6E5E5" d="M239.188,163.512c-7.007-6.33-16.653-3.221-22.833,2.707c-2.197,2.107-5.001,1.95-7.061,0.696
				c-3.227,3.788-5.805,7.949-7.738,12.367c2.659-0.11,5.212,1.444,5.152,4.882c-0.12,6.832,1.845,13.088,9.786,12.434
				c7.449-0.614,14.996-4.652,20.032-10.137C241.679,180.852,246.028,169.694,239.188,163.512z"/>
		</g>
	</g>
	<g>
		<g>
			<path fill="#BCBCBC" d="M297.903,203.399c-0.494-12.326-6.858-23.133-15.55-31.615c-11.366-11.092-26.383-20.525-41.709-20.631
				c1.778,0.867,3.491,2.002,5.101,3.457c10.649,9.623,9.677,26.243,0.953,36.916c-7.12,8.709-19.405,16.497-31.059,16.086
				c-9.211-0.326-15.431-5.134-18.223-12.4c-1.02,10.094,0.687,20.664,4.999,30.559c0.715,1.641,0.59,3.094-0.04,4.248
				c1.958,2.854,5.173,5.223,7.742,6.834c5.342,3.35,11.173,6.174,17.181,8.119c8.993,2.914,17.613,4.104,27.033,2.467
				c10.753-1.869,21.859-6.592,29.841-14.199C292.294,225.499,298.367,214.971,297.903,203.399z"/>
		</g>
	</g>
	<g>
		<g>
			<path fill="#D6E5E5" d="M293.896,67.073h-10.47c1.241,5.896,3.004,11.515,3.26,17.533c3.288-0.381,6.63-0.41,9.835-1.046
				C296.108,78.004,295.132,72.509,293.896,67.073z"/>
		</g>
	</g>
	<g>
		<g>
			<path fill="#EF4823" d="M147.123,391.844c-1.342-0.193-2.596-0.826-3.416-1.941c-7.32-0.473-14.635-1.794-21.938-2.312
				c-4.91-0.347-9.939-0.598-14.844-0.042c-1.469,0.166-2.929,0.359-4.308,0.904c-0.237,1.328-0.914,2.371-1.821,3.114
				c0.116,3.91,0.387,7.801,1.051,11.644c1.107,0.797,1.86,2.1,1.86,3.953v0.957c8.979,0.088,17.93,0.824,26.894,0.861
				c3.418,0.013,13.792,0.895,15.559-3.178c1.503-3.461,0.604-8.127,0.576-11.793C146.732,393.207,146.875,392.486,147.123,391.844z
				"/>
		</g>
	</g>
	<g>
		<g>
			<path fill="#127274" d="M427.238,388.512c-0.625-10.532-1.45-21.568-5.184-31.529c-2.336-6.232-5.731-11.824-12.268-14.197
				c-8.098-2.939-17.787-1.857-26.243-2.585c-23.914-2.058-47.961-6.18-71.897-2.128c-0.664,0.112-1.271,0.115-1.821,0.027
				c0.365,6.564-1.057,12.695-7.527,17.048c-1.496,1.007-3.009,1.166-4.337,0.783c-5.069,7.015-17.013,6.529-24.776,8.264
				c-15.731,3.515-30.951,3.05-46.829,1.093c-8.933-1.103-18.257-3.297-23.955-9.811c-0.517,0.273-1.101,0.479-1.754,0.596
				c-23.826,4.287-48.027,2.395-71.954,0.1c-11.879-1.139-24.145-2.285-35.986-0.148c-8.848,1.596-14.805,5.746-16.971,14.779
				c-2.463,10.271-2.078,20.865-2.396,31.35c-0.363,12.012-0.795,24.228,1.076,36.146c1.992,12.69,9.737,20.471,22.001,24.195
				c16.953,5.148,35.023,4.805,52.558,4.592c26.134-0.317,52.172,1.02,78.326-0.107c32.207-1.389,64.462-3.633,96.58-6.4
				c30.139-2.599,60.096-6.673,89.227-14.939c0.674-0.771,1.637-1.316,2.9-1.479c-1.246-4.557,4.32-9.613,8.634-5.886
				c0.763-1.812,1.219-3.717,1.572-5.674c0.906-5.023,1.372-10.127,1.491-15.229C427.928,407.775,427.807,398.092,427.238,388.512z
				 M156.016,410.7c-3.225,5.763-8.945,7.881-15.244,8.703c-12.418,1.622-25.374-0.33-37.913-0.33c-1.972,0-3.46-0.856-4.428-2.09
				c-2.228,0.281-4.51-0.734-5.399-3.576c-3.006-9.605-3.29-19.41-3.294-29.395c-0.001-4.586,4.626-6.56,7.872-5.438
				c6.699-3.209,17.455-2.322,23.175-1.982c6.736,0.4,13.437,1.164,20.14,1.926c1.386,0.157,2.772,0.32,4.161,0.453
				c0.514,0.049,1.028,0.1,1.544,0.137c3.943,0.135,6.88,3.074,7.079,7.057c0.04,0.797-0.073,1.509-0.289,2.146
				c2.277,0.276,4.267,1.847,4.289,4.854C157.75,398.702,158.856,405.624,156.016,410.7z M219.042,418.78
				c-8.255,1.955-16.991,2.416-25.433,1.733c-6.513-0.526-14.175-1.944-18.107-7.435c-1.443,0.131-2.906-0.263-3.91-1.357
				c-5.44-5.936-7.716-14.783-7.854-22.709c-0.054-3.111,2.04-5.021,4.412-5.58c0.564-1.843,2.083-3.301,4.65-3.328
				c12.818-0.141,27.123-4.315,39.714-0.719c12.679,3.623,8.757,23.877,10.195,33.779
				C223.032,415.398,221.295,418.247,219.042,418.78z"/>
		</g>
	</g>
	<g>
		<g>
			<path fill="#D6E5E5" d="M210.677,396.823c-0.185-1.916-0.117-5.069-1.117-6.873c-0.8-0.181-1.601-0.346-2.417-0.434
				c-10.732-1.158-21.564,1.245-32.301,1.527c0.323,4.277,1.309,9.344,3.91,12.288c2.236-0.202,4.586,0.785,5.663,3.438
				c1.218,3,11.376,3.029,14.361,3.035c4.05,0.01,8.404-0.099,12.495-0.655C211.028,405.045,211.072,400.91,210.677,396.823z"/>
		</g>
	</g>
	<g>
		<g>
			<path d="M434.415,359.77c-1.909-8.422-5.914-17.154-12.679-22.736c-6.965-5.746-16.234-6.851-24.936-6.93
				c-28.857-0.266-57.087-7.896-86-3c-0.967,0.164-1.778,0.523-2.45,1.01c-0.619-3.078-1.272-6.105-1.642-8.949
				c-0.146-1.129-0.558-2.053-1.136-2.782c11.121-4.204,21.842-9.631,31.939-16.273c19.941-13.118,36.533-30.997,48.353-51.702
				c13.334-23.357,18.072-50.252,13.938-76.779c-4.138-26.549-16.512-51.248-31.891-73.012
				c-15.263-21.6-33.746-40.572-55.774-55.259c-40.962-27.308-94.308-36.085-139.414-13.698
				c-47.499,23.574-74.374,73.028-79.118,124.53c-0.758,8.23-0.96,16.513-0.749,24.772c0.222,8.702,0.335,17.936,2.177,26.445
				c0.233,1.078,0.683,1.898,1.269,2.489c7.032,24.458,16.18,48.526,32.578,68.36c16.283,19.695,39.131,32.867,63.038,41.242
				c-0.865,9.254,2.518,19.308,5.469,28.015c-14.905,2.426-30.057,2.578-45.113,1.677c-14.901-0.893-29.715-3.094-44.658-3.271
				c-12.33-0.146-26.583,1.006-35.574,10.399c-7.473,7.807-8.514,20.032-9.216,30.222c-1.067,15.465-1.373,31.621-0.228,47.083
				c0.723,9.758,2.252,19.636,8.586,27.436c10.91,13.435,29.824,16.918,46.124,18.286c15.329,1.287,30.667,0.416,46.017,0.667
				c28.846,0.472,57.405,0.528,86.232-1.161c57.32-3.359,116.135-5.516,171.487-22.07c2.583-0.772,3.65-2.709,3.624-4.723
				c3.423,0.245,6.746-1.405,8.96-5.136c3.343-5.632,4.001-12.925,4.552-19.311C440.044,403.958,439.215,380.948,434.415,359.77z
				 M136.945,268.832c-16.397-19.833-24.753-44.622-31.531-69.062c-0.14-0.504-0.331-0.945-0.555-1.338
				c-0.668-5.129-0.564-10.578-0.845-15.634c-0.375-6.744-0.347-13.505-0.051-20.251c0.562-12.819,2.74-25.611,6.088-37.986
				c6.724-24.84,20.113-47.438,38.773-65.144c18.557-17.608,42.852-28.673,68.256-31.224c24.28-2.438,48.667,3.346,70.505,13.807
				c23.637,11.322,43.536,28.445,60.219,48.48c17.355,20.846,31.578,44.671,38.676,70.993c7.126,26.429,4.147,53.936-8.394,78.214
				c-10.991,21.28-27.991,38.977-47.917,52.084c-38.088,25.057-84.981,30.083-128.29,17.461c-0.877-0.639-1.976-0.955-3.121-0.946
				C175.401,300.966,152.631,287.804,136.945,268.832z M296.148,346.029c-0.229,0.153-0.433,0.317-0.626,0.485
				c-2.27-0.312-4.834,0.534-6.162,2.823c-0.116,0.076-0.255,0.178-0.443,0.331c-0.646,0.437-1.551,0.631-2.278,0.877
				c-2.072,0.699-4.244,1.054-6.395,1.41c-4.363,0.723-8.67,1.469-13.016,2.309c-13.057,2.52-25.682,1.717-38.774,0.225
				c-4.401-0.501-8.905-1.188-13.035-2.842c-4.125-1.651-5.703-3.969-7.058-8.025c-1.941-5.814-4.584-12.672-5.337-19.336
				c0.768-0.724,1.341-1.682,1.572-2.862c30.107,8.063,61.747,7.351,91.12-1.671c0.008,0.087,0.009,0.171,0.021,0.26
				C296.591,326.589,303.164,341.309,296.148,346.029z M427.704,417.372c-0.119,5.102-0.585,10.205-1.491,15.229
				c-0.353,1.957-0.809,3.861-1.572,5.674c-4.314-3.728-9.88,1.329-8.634,5.886c-1.263,0.163-2.227,0.708-2.9,1.479
				c-29.131,8.267-59.087,12.341-89.227,14.939c-32.117,2.768-64.373,5.012-96.58,6.4c-26.153,1.127-52.191-0.21-78.326,0.107
				c-17.534,0.213-35.604,0.557-52.558-4.592c-12.264-3.725-20.009-11.505-22.001-24.195c-1.871-11.919-1.439-24.135-1.076-36.146
				c0.318-10.484-0.067-21.079,2.396-31.35c2.167-9.033,8.124-13.184,16.971-14.779c11.841-2.137,24.107-0.99,35.986,0.148
				c23.927,2.295,48.128,4.188,71.954-0.1c0.653-0.117,1.237-0.322,1.754-0.596c5.698,6.514,15.022,8.708,23.955,9.811
				c15.878,1.957,31.098,2.422,46.829-1.093c7.764-1.734,19.707-1.249,24.776-8.264c1.328,0.383,2.841,0.224,4.337-0.783
				c6.471-4.353,7.892-10.483,7.527-17.048c0.55,0.088,1.157,0.085,1.821-0.027c23.936-4.052,47.983,0.07,71.897,2.128
				c8.456,0.728,18.146-0.354,26.243,2.585c6.536,2.373,9.932,7.965,12.268,14.197c3.734,9.961,4.559,20.997,5.184,31.529
				C427.807,398.092,427.928,407.775,427.704,417.372z"/>
		</g>
	</g>
	<g>
		<g>
			<path d="M329.516,169.575c-14.851-41.735-65.515-70.868-108.821-61.412c-22.683,4.953-43.545,19.28-56.239,38.746
				c-13.899,21.312-11.091,48.848-2.403,71.498c0.31,0.807,0.737,1.459,1.243,1.974c13.891,41.184,60.447,67.313,103.321,57.933
				C312.848,268.196,345.6,214.776,329.516,169.575z M315.951,224.057c-13.283,29.062-44.574,49.346-76.851,44.574
				c-31.207-4.614-60.821-26.465-67.371-58.467c-0.305-1.489-1.064-2.619-2.051-3.404c-3.07-10.066-4.685-20.54-3.626-31.105
				c1.372-13.69,7.861-24.932,17.308-34.649c17.382-17.882,42.804-26.877,67.463-22.685c23.619,4.016,46.142,19.299,59.82,38.727
				C324.876,177.266,326.125,201.8,315.951,224.057z"/>
		</g>
	</g>
	<g>
		<g>
			<path d="M300.658,177.012c-6.327-10.359-15.923-18.711-25.804-25.557c-10.013-6.936-21.06-11.019-33.278-11.379
				c-20.108-0.594-37.586,12.827-47.641,29.299c-9.864,16.158-10.069,37.145-3.943,54.801c-0.329,0.788-0.442,1.734-0.254,2.836
				c3.178,18.584,27.69,27.396,43.674,31.043c20.739,4.73,43.659-3.598,59.024-17.554
				C310.717,223.897,313.283,197.682,300.658,177.012z M209.294,166.916c2.06,1.254,4.864,1.411,7.061-0.696
				c6.179-5.928,15.826-9.037,22.833-2.707c6.84,6.182,2.491,17.34-2.662,22.949c-5.036,5.484-12.583,9.522-20.032,10.137
				c-7.941,0.654-9.906-5.602-9.786-12.434c0.06-3.438-2.494-4.992-5.152-4.882C203.489,174.865,206.067,170.704,209.294,166.916z
				 M284.171,233.239c-7.982,7.607-19.088,12.33-29.841,14.199c-9.42,1.637-18.041,0.447-27.033-2.467
				c-6.008-1.945-11.838-4.77-17.181-8.119c-2.569-1.611-5.784-3.979-7.742-6.834c0.63-1.154,0.755-2.607,0.04-4.248
				c-4.312-9.895-6.019-20.465-4.999-30.559c2.792,7.267,9.011,12.074,18.223,12.4c11.654,0.411,23.939-7.377,31.059-16.086
				c8.724-10.673,9.696-27.293-0.953-36.916c-1.61-1.455-3.323-2.59-5.101-3.457c15.326,0.105,30.343,9.539,41.709,20.631
				c8.692,8.482,15.056,19.289,15.55,31.615C298.367,214.971,292.294,225.499,284.171,233.239z"/>
		</g>
	</g>
	<g>
		<g>
			<path d="M303.415,59.77c-0.612-2.49-3.312-3.666-5.615-3.666h-19c-2.332,0-3.795,1.189-4.467,2.781
				c-1.756,0.826-2.98,2.557-2.595,5.127c1.112,7.41,4.707,14.961,4.086,22.527c-0.23,2.808,1.375,4.836,3.414,5.803
				c1.014,2.437,3.546,4.34,6.804,3.438c5.993-1.659,12.116-0.479,18-3c2.397-1.027,3.706-2.993,3.667-5.615
				C307.568,77.893,305.622,68.742,303.415,59.77z M286.686,84.606c-0.256-6.019-2.02-11.637-3.26-17.533h10.47
				c1.236,5.437,2.212,10.932,2.625,16.487C293.316,84.196,289.974,84.225,286.686,84.606z"/>
		</g>
	</g>
	<g>
		<g>
			<path d="M157.708,393.165c-0.022-3.008-2.012-4.578-4.289-4.854c0.216-0.637,0.329-1.349,0.289-2.146
				c-0.199-3.982-3.136-6.922-7.079-7.057c-0.516-0.037-1.03-0.088-1.544-0.137c-1.389-0.133-2.775-0.296-4.161-0.453
				c-6.703-0.762-13.404-1.525-20.14-1.926c-5.72-0.34-16.476-1.227-23.175,1.982c-3.245-1.122-7.873,0.852-7.872,5.438
				c0.004,9.984,0.288,19.789,3.294,29.395c0.889,2.842,3.172,3.857,5.399,3.576c0.968,1.233,2.457,2.09,4.428,2.09
				c12.539,0,25.494,1.952,37.913,0.33c6.299-0.822,12.02-2.94,15.244-8.703C158.856,405.624,157.75,398.702,157.708,393.165z
				 M146.162,405.805c-1.768,4.072-12.141,3.19-15.559,3.178c-8.964-0.037-17.915-0.773-26.894-0.861v-0.957
				c0-1.854-0.753-3.156-1.86-3.953c-0.664-3.843-0.935-7.733-1.051-11.644c0.907-0.743,1.584-1.786,1.821-3.114
				c1.378-0.545,2.839-0.738,4.308-0.904c4.904-0.556,9.934-0.305,14.844,0.042c7.302,0.518,14.618,1.839,21.938,2.312
				c0.82,1.115,2.073,1.748,3.416,1.941c-0.248,0.642-0.391,1.362-0.385,2.168C146.766,397.678,147.665,402.344,146.162,405.805z"/>
		</g>
	</g>
	<g>
		<g>
			<path d="M222.708,413.165c-1.438-9.902,2.484-30.156-10.195-33.779c-12.591-3.597-26.896,0.578-39.714,0.719
				c-2.567,0.027-4.086,1.485-4.65,3.328c-2.372,0.56-4.466,2.469-4.412,5.58c0.138,7.926,2.415,16.773,7.854,22.709
				c1.003,1.095,2.467,1.488,3.91,1.357c3.932,5.49,11.594,6.908,18.107,7.435c8.442,0.683,17.178,0.222,25.433-1.733
				C221.295,418.247,223.032,415.398,222.708,413.165z M198.776,409.805c-2.985-0.006-13.144-0.035-14.361-3.035
				c-1.077-2.653-3.427-3.641-5.663-3.438c-2.601-2.944-3.587-8.011-3.91-12.288c10.737-0.282,21.569-2.686,32.301-1.527
				c0.817,0.088,1.618,0.253,2.417,0.434c1,1.804,0.932,4.957,1.117,6.873c0.396,4.087,0.351,8.223,0.594,12.327
				C207.18,409.707,202.826,409.815,198.776,409.805z"/>
		</g>
	</g>
</g>
</svg>
