<?xml version="1.0" encoding="utf-8"?>
<!-- Generator: Adobe Illustrator 16.0.3, SVG Export Plug-In . SVG Version: 6.00 Build 0)  -->
<!DOCTYPE svg PUBLIC "-//W3C//DTD SVG 1.1//EN" "http://www.w3.org/Graphics/SVG/1.1/DTD/svg11.dtd">
<svg version="1.1" id="Layer_1" xmlns="http://www.w3.org/2000/svg" xmlns:xlink="http://www.w3.org/1999/xlink" x="0px" y="0px"
	 width="512px" height="512px" viewBox="0 0 512 512" enable-background="new 0 0 512 512" xml:space="preserve">
<g>
	<g>
		<g>
			<path fill="#D6E5E5" d="M371.463,319.945c-5.389-2.197-4.396-9.33-0.434-11.147c1.16-1.877,2.299-3.776,3.381-5.729
				c12.113-21.855,19.75-47.586,17.812-72.771c-1.869-24.315-11.994-46.385-28.523-64.277c-16.551-17.92-37.854-31.66-61.139-39.045
				c-23.615-7.49-47.436-7.639-71.049,0.061c-0.812,0.266-1.625,0.557-2.438,0.838l-0.035-0.048
				c-2.062,1.069-4.613,0.916-6.488-1.504c-7.605-9.804-17.789-19.226-30.729-20.521c-12.4-1.24-24.512,3.686-34.537,10.729
				c-12.666,8.896-25.182,21.196-29.285,36.604c-1.957,7.356-3.361,17.761-0.387,25.032c2.807,6.857,7.748,12.344,12.215,18.153
				c3.115,4.05,0.094,8.953-3.607,9.817c-4.18,7.599-7.678,15.487-10.342,23.587c-8.158,24.822-8.639,51.722,0.482,76.395
				c8.957,24.228,24.367,44.979,42.68,62.973c0.762,0.746,1.234,1.542,1.479,2.344c28.695,22.435,66.348,22.312,100.094,11.349
				c1.414-3.697,6.496-6.021,9.809-2.118c7.424,8.746,17.057,17.919,29.17,18.7c11.408,0.736,22.279-4.87,31.303-11.37
				c14.457-10.414,29.188-20.46,35.506-37.815c1.84-5.047,1.805-11.112,1.057-16.371
				C376.877,329.748,375.984,321.792,371.463,319.945z M327.434,304.097c0.221,7.088-1.373,14.248-5.312,20.051
				c-1.928,2.838-4.32,5.117-7.018,6.917c-3.641,5.479-8.969,9.397-15.139,12.134c-3.594,2.459-7.514,4.542-11.527,5.461
				c-11.266,2.58-23.184,2.311-34.6,0.931c-9.537-1.153-21.543-3.708-31.533-8.674c-6.215-1.853-12.014-4.751-16.65-9.015
				c-10.113-9.304-14.193-27.861-5.93-39.684c3.701-5.295,10.672-10.297,17.441-8.487c5.545,1.481,8.889,7.099,10.207,12.352
				c0.75,2.99,0.883,6.662,1.062,10.421c2.834,2.88,5.748,5.665,8.941,8.117c8.158,6.266,17.414,8.468,27.338,10.314
				c0.268,0.05,0.541,0.102,0.816,0.153c4.074-0.076,8.141-0.407,12.164-1.026c12.115-1.865,21.621-15.347,21.215-27.514
				c-0.773-0.594-1.395-1.486-1.732-2.729c-1.807-6.651-8.502-9.804-14.5-12.042c-5.455-2.037-11.242-3.808-16.969-4.885
				c-13.291-2.499-26.637-4.77-39.449-9.231c-12.182-4.241-25.133-10.841-30.908-23.06c-2.064-4.364-3.021-9.078-3.094-13.858
				c-1.309-2.842-2.053-5.911-1.898-9.092c0.064-1.307,0.217-2.556,0.434-3.768c-0.234-0.544-0.375-1.147-0.389-1.809
				c-0.014-0.701-0.008-1.396,0.018-2.098c1.086-29.962,39.629-42.092,63.973-44.853c16.174-1.834,46.174-0.901,56.992,14.508
				c2.625,2.176,4.826,4.813,6.229,8.316c2.436,6.079,2.959,14.03-0.799,19.722c-4.232,6.409-11.732,6.956-17.889,2.845
				c-4.652-3.107-7.182-7.308-9.527-11.689c-3.268-2.408-6.365-5.169-9.508-7.771c-0.35-0.139-0.703-0.266-1.055-0.397
				c-12.186,0.41-24.393,1.772-35.613,6.272c-6.758,2.71-13.688,6.479-18.543,12.034c-2.199,2.514-4.486,5.483-5.125,8.86
				c-0.248,1.306-0.416,2.588-0.35,3.921c0.064,1.27,0.934,3.057-0.207,2.122c1.926,1.578,2.277,3.62,1.689,5.412
				c0.613,1.411,1.352,2.775,2.264,4.072c4.648,3.417,10.238,5.922,14.768,7.661c14.168,5.438,29.541,6.626,43.992,11.138
				c14.523,4.534,29.004,11.602,37.723,24.572C323.643,286.982,328.326,296.111,327.434,304.097z"/>
		</g>
	</g>
	<g>
		<g>
			<path fill="#4B7BB2" d="M474.158,161.739c-16.125-46.552-46.66-87.148-91.268-109.607
				C331.941,26.481,271.938,24.06,216.475,32.87c-49.779,7.906-102.279,25.918-139.578,61.098
				c-19.578,18.467-34.738,40.916-42.662,66.768c-7.961,25.975-10.365,53.114-12.104,80.102c-0.072,1.145-0.426,2.039-0.953,2.711
				c0.031,0.247,0.051,0.502,0.051,0.772c0,52.927-1.062,108.335,30.076,153.938c25.32,37.082,64.48,61.467,107.197,73.711
				c88,25.225,194.16,9.605,264.924-50.809C497.533,357.89,504.342,248.876,474.158,161.739z M393.543,290.102
				c-3.299,8.055-7.215,15.875-11.691,23.363c8.424,9.048,9.008,26.07,6.629,37.02c-4.426,20.382-21.633,32.9-37.408,44.535
				c-12.045,8.884-26.691,17.518-42.291,16.046c-13.158-1.241-23.91-8.59-32.799-17.827c-18.225,6.086-37.422,9.857-56.646,8.55
				c-23.51-1.598-44.777-10.685-62.256-26.461c-1.203-1.088-1.742-2.298-1.793-3.479c-5.605-5.812-10.932-11.896-15.791-18.347
				c-15.082-20.016-26.898-43.161-30.367-68.23c-3.57-25.787,0.957-51.702,12.125-75.154c1.789-3.75,3.742-7.438,5.824-11.076
				c-4.471-5.663-8.828-11.501-10.934-18.449c-2.809-9.243-2.113-20.459,0.35-29.721c4.896-18.385,18.719-33.357,34.123-43.871
				c12.367-8.44,27.764-15.126,43.08-12.762c14.41,2.225,26.029,10.479,35.229,21.357c2.043-0.639,4.092-1.241,6.152-1.793
				c23.723-6.354,47.893-5.603,71.234,2.064c23.227,7.628,44.918,20.662,62.104,38.113c16.75,17.007,29.893,38.638,33.906,62.433
				C406.498,241.165,403.029,266.921,393.543,290.102z"/>
		</g>
	</g>
	<g>
		<g>
			<path fill="#4B7BB2" d="M315.996,299.03c0.115,1.236,0.268,2.471,0.416,3.666c0.025-0.109,0.061-0.217,0.082-0.328
				C316.4,301.236,316.23,300.121,315.996,299.03z"/>
		</g>
	</g>
	<g>
		<g>
			<path d="M487.826,168.675c-14.17-46.857-40.941-88.285-82.014-115.738c-46.359-30.985-105.275-38.447-159.783-34.447
				C194.33,22.284,141.4,36.388,97.434,64.468c-21.602,13.795-40.879,31.898-54.967,53.381
				c-14.859,22.66-22.512,48.775-26.58,75.363c-2.311,15.085-3.439,30.333-4.418,45.553c-0.062,0.949,0.094,1.805,0.398,2.563
				c-0.889,0.938-1.473,2.218-1.473,3.828c0,30.126-0.645,60.399,4.645,90.183c4.822,27.145,15.229,52.928,31.631,75.148
				c29.15,39.498,73.502,63.312,120.389,74.99c88.939,22.154,194.244,3.654,264.5-57.08
				C505.537,364.444,514.717,257.61,487.826,168.675z M423.426,421.161c-70.764,60.414-176.924,76.033-264.924,50.809
				c-42.717-12.244-81.877-36.629-107.197-73.711C20.166,352.655,21.229,297.247,21.229,244.32c0-0.271-0.02-0.525-0.051-0.772
				c0.527-0.672,0.881-1.566,0.953-2.711c1.738-26.987,4.143-54.127,12.104-80.102c7.924-25.852,23.084-48.301,42.662-66.768
				c37.299-35.18,89.799-53.191,139.578-61.098c55.463-8.811,115.467-6.389,166.416,19.262
				c44.607,22.459,75.143,63.056,91.268,109.607C504.342,248.876,497.533,357.89,423.426,421.161z"/>
		</g>
	</g>
	<g>
		<g>
			<path d="M402.322,216.413c-4.014-23.795-17.156-45.426-33.906-62.433c-17.186-17.451-38.877-30.485-62.104-38.113
				c-23.342-7.667-47.512-8.418-71.234-2.064c-2.061,0.552-4.109,1.154-6.152,1.793c-9.199-10.878-20.818-19.133-35.229-21.357
				c-15.316-2.364-30.713,4.321-43.08,12.762c-15.404,10.514-29.227,25.486-34.123,43.871c-2.463,9.262-3.158,20.478-0.35,29.721
				c2.105,6.948,6.463,12.786,10.934,18.449c-2.082,3.638-4.035,7.326-5.824,11.076c-11.168,23.452-15.695,49.367-12.125,75.154
				c3.469,25.069,15.285,48.215,30.367,68.23c4.859,6.45,10.186,12.535,15.791,18.347c0.051,1.181,0.59,2.391,1.793,3.479
				c17.479,15.776,38.746,24.863,62.256,26.461c19.225,1.308,38.422-2.464,56.646-8.55c8.889,9.237,19.641,16.586,32.799,17.827
				c15.6,1.472,30.246-7.162,42.291-16.046c15.775-11.635,32.982-24.153,37.408-44.535c2.379-10.949,1.795-27.972-6.629-37.02
				c4.477-7.488,8.393-15.309,11.691-23.363C403.029,266.921,406.498,241.165,402.322,216.413z M374.41,303.069
				c-1.082,1.952-2.221,3.852-3.381,5.729c-3.963,1.817-4.955,8.95,0.434,11.147c4.521,1.847,5.414,9.803,5.994,13.863
				c0.748,5.259,0.783,11.324-1.057,16.371c-6.318,17.355-21.049,27.401-35.506,37.815c-9.023,6.5-19.895,12.106-31.303,11.37
				c-12.113-0.781-21.746-9.954-29.17-18.7c-3.312-3.902-8.395-1.579-9.809,2.118c-33.746,10.963-71.398,11.086-100.094-11.349
				c-0.244-0.802-0.717-1.598-1.479-2.344c-18.312-17.993-33.723-38.745-42.68-62.973c-9.121-24.673-8.641-51.572-0.482-76.395
				c2.664-8.1,6.162-15.988,10.342-23.587c3.701-0.864,6.723-5.768,3.607-9.817c-4.467-5.81-9.408-11.296-12.215-18.153
				c-2.975-7.271-1.57-17.676,0.387-25.032c4.104-15.407,16.619-27.707,29.285-36.604c10.025-7.043,22.137-11.969,34.537-10.729
				c12.939,1.295,23.123,10.717,30.729,20.521c1.875,2.42,4.426,2.573,6.488,1.504l0.035,0.048c0.812-0.281,1.625-0.572,2.438-0.838
				c23.613-7.699,47.434-7.551,71.049-0.061c23.285,7.385,44.588,21.125,61.139,39.045c16.529,17.893,26.654,39.962,28.523,64.277
				C394.16,255.483,386.523,281.214,374.41,303.069z"/>
		</g>
	</g>
	<g>
		<g>
			<path fill="#4B7BB2" d="M319.436,280.724c-8.719-12.971-23.199-20.038-37.723-24.572c-14.451-4.512-29.824-5.699-43.992-11.138
				c-4.529-1.739-10.119-4.244-14.768-7.661c-0.912-1.297-1.65-2.661-2.264-4.072c0.588-1.792,0.236-3.834-1.689-5.412
				c1.141,0.935,0.271-0.853,0.207-2.122c-0.066-1.333,0.102-2.615,0.35-3.921c0.639-3.377,2.926-6.347,5.125-8.86
				c4.855-5.556,11.785-9.324,18.543-12.034c11.221-4.5,23.428-5.862,35.613-6.272c0.352,0.132,0.705,0.259,1.055,0.397
				c3.143,2.602,6.24,5.362,9.508,7.771c2.346,4.382,4.875,8.582,9.527,11.689c6.156,4.111,13.656,3.564,17.889-2.845
				c3.758-5.691,3.234-13.643,0.799-19.722c-1.402-3.503-3.604-6.141-6.229-8.316c-10.818-15.409-40.818-16.342-56.992-14.508
				c-24.344,2.761-62.887,14.891-63.973,44.853c-0.025,0.701-0.031,1.396-0.018,2.098c0.014,0.661,0.154,1.265,0.389,1.809
				c-0.217,1.212-0.369,2.461-0.434,3.768c-0.154,3.181,0.59,6.25,1.898,9.092c0.072,4.78,1.029,9.494,3.094,13.858
				c5.775,12.219,18.727,18.818,30.908,23.06c12.812,4.462,26.158,6.732,39.449,9.231c5.727,1.077,11.514,2.848,16.969,4.885
				c5.998,2.238,12.693,5.391,14.5,12.042c0.338,1.242,0.959,2.135,1.732,2.729c0.406,12.167-9.1,25.648-21.215,27.514
				c-4.023,0.619-8.09,0.95-12.164,1.026c-0.275-0.052-0.549-0.104-0.816-0.153c-9.924-1.847-19.18-4.049-27.338-10.314
				c-3.193-2.452-6.107-5.237-8.941-8.117c-0.18-3.759-0.312-7.431-1.062-10.421c-1.318-5.253-4.662-10.87-10.207-12.352
				c-6.77-1.81-13.74,3.192-17.441,8.487c-8.264,11.822-4.184,30.38,5.93,39.684c4.637,4.264,10.436,7.162,16.65,9.015
				c9.99,4.966,21.996,7.521,31.533,8.674c11.416,1.38,23.334,1.649,34.6-0.931c4.014-0.919,7.934-3.002,11.527-5.461
				c6.17-2.736,11.498-6.654,15.139-12.134c2.697-1.8,5.09-4.079,7.018-6.917c3.939-5.803,5.533-12.963,5.312-20.051
				C328.326,296.111,323.643,286.982,319.436,280.724z M316.412,302.696c-0.148-1.195-0.301-2.43-0.416-3.666
				c0.234,1.091,0.404,2.206,0.498,3.338C316.473,302.479,316.438,302.587,316.412,302.696z"/>
		</g>
	</g>
	<g>
		<g>
			<path d="M315.486,267.037c-13.947-10.901-32.031-17.427-49.119-21.426c-7.807-1.827-15.711-3.312-23.053-6.65
				c-7.242-3.294-10.633-8.277-12.814-15.13c0.016-0.191,0.023-0.386,0.021-0.588c-0.107-8.733,14.459-13.521,20.783-16.61
				c5.066-2.474,10.889-4.764,16.637-4.38c6.303,0.422,11.049,4.248,15.652,8.175c7.471,6.373,16.188,13.942,26.482,14.428
				c11.477,0.541,19.455-11.132,19.648-21.717c0.498-27.111-32.68-41.064-55.117-42.875c-13.77-1.111-27.473,1.336-40.588,5.436
				c-11.566,3.616-24.041,8.313-33.131,16.585c-15.035,13.683-17.822,34.876-10.6,53.299c8.541,21.788,31.125,39.23,53.893,43.467
				c11.445,2.13,23.615,0.306,34.457,5.347c6.34,2.948,13.764,11.654,12.289,18.812c-0.889,4.319-7.197,7.108-11.801,8.521
				c-6.803,2.087-14.371,2.324-21.398,1.502c-5.965-0.698-12.557-2.217-17.061-6.364c-6.781-6.242-10.809-14.931-17.906-21
				c-7.262-6.209-17.613-7.586-25.297-1.266c-7.102,5.841-8.098,15.571-6.781,24.115c1.262,8.187,4.473,16.916,9.793,23.358
				c8.156,9.877,20.584,14.646,32.664,17.637c25.713,6.365,55.574,8.635,77.791-8.203c11.355-8.608,20.174-21.422,22.285-35.672
				C335.553,290.067,327.59,276.497,315.486,267.037z M322.033,306.086c-1.818,10.056-8.516,19.093-16.238,25.498
				c-10.221,8.478-22.5,11.604-35.607,11.852c-14.039,0.266-28.969-2.37-42.35-6.593c-10.078-3.179-18.82-9.235-23.117-19.036
				c-2.695-6.148-6.098-16.75-1.875-23c5.828-8.623,14.805,0.802,18.881,5.891c5.205,6.494,9.43,13.72,16.738,18.084
				c6.133,3.662,13.777,5.079,20.803,5.593c13.533,0.988,32.117-0.981,40.174-13.562c3.818-5.963,3.166-13.314,0.186-19.47
				c-5.078-10.491-13.771-17.012-24.938-19.903c-11.873-3.074-24.512-1.113-36.195-5.146c-11.639-4.018-22.867-12.29-30.51-21.906
				c-11.744-14.775-15.309-36.409-2.217-51.479c7.891-9.081,20.828-13.219,31.891-16.825c13.312-4.34,27.482-6.316,41.402-4.277
				c12.744,1.867,26.562,7.619,34.668,17.988c3.447,4.409,5.705,9.809,4.76,15.448c-0.865,5.151-4.623,9.425-9.941,8.385
				c-7.789-1.522-14.738-8.895-20.52-13.886c-8.09-6.986-18.359-9.937-28.822-7.584c-8.863,1.993-17.711,6.581-25.541,11.161
				c-6.375,3.729-11.9,9.035-13.582,16.058c-0.93,1.249-1.379,2.892-0.904,4.777c1.436,5.708,3.141,11.416,7.201,15.856
				c4.072,4.455,9.041,7.582,14.58,9.918c10.902,4.597,22.879,5.811,34.08,9.458C295.801,266.143,326.912,279.104,322.033,306.086z"
				/>
		</g>
	</g>
</g>
</svg>
