<?xml version="1.0" encoding="utf-8"?>
<!-- Generator: Adobe Illustrator 16.0.3, SVG Export Plug-In . SVG Version: 6.00 Build 0)  -->
<!DOCTYPE svg PUBLIC "-//W3C//DTD SVG 1.1//EN" "http://www.w3.org/Graphics/SVG/1.1/DTD/svg11.dtd">
<svg version="1.1" id="Layer_1" xmlns="http://www.w3.org/2000/svg" xmlns:xlink="http://www.w3.org/1999/xlink" x="0px" y="0px"
	 width="512px" height="512px" viewBox="0 0 512 512" enable-background="new 0 0 512 512" xml:space="preserve">
<g>
	<g>
		<g>
			<path fill="#D6E5E5" d="M462.553,182.751c-4.007-21.217-10.687-45.211-27.212-60.282c-18.839-17.18-46.263-19.875-70.655-18.907
				c-28.122,1.115-56.039,5.902-84.064,8.331c-16.316,1.414-32.706,2.424-49.091,2.159c-15.846-0.256-31.456-2.095-47.207-3.632
				c-30.829-3.008-62.635-3.951-91.723,8.417c-21.532,9.156-39.441,25.543-50.706,46.048c-11.898,21.659-17.54,46.664-16.227,71.349
				c1.531,28.769,11.518,55.763,26.398,80.241c0.352,0.58,0.584,1.162,0.719,1.733c1.696,2.677,1.358,6.927-2.46,8.534
				c-8.626,3.63-11.734,14.8-12.944,23.198c-1.35,9.384-1.346,19.723,2.382,28.596c5.062,12.056,14.076,22.989,25.975,28.797
				c3.412,1.667,6.964,3.274,10.601,4.51c-1.812-2.859-3.259-6.002-4.344-9.285c-3.222-9.747-5.097-21.82-2.032-31.862
				c6.934-22.715,29.624-33.084,50.727-39.338c1.878-0.557,3.516-0.163,4.758,0.737c11.372,0.159,22.791,1.311,34.146,1.975
				c11.512,0.673,23.015,1.473,34.521,2.228c23.908,1.568,47.726,2.499,71.674,1.211c30.535-1.642,60.646-6.161,90.868-10.579
				c25.223-3.687,52.243-7.468,74.696-20.38c10.388-5.972,19.476-13.627,25.336-24.248c5.537-10.036,8.627-21.045,9.994-32.397
				C469.362,227.665,466.694,204.667,462.553,182.751z M322.929,283.528c-11.894,5.41-26.345,1.914-38.894,1.793
				c-3.15-0.03-5.066-2.238-5.591-4.665c-2.494-0.072-4.801-1.642-4.816-4.896c-0.097-19.079-2.71-38.031-4.5-56.997
				c-1.629-17.24-8.741-33.595-9-50.998c-0.026-1.774,0.646-3.157,1.667-4.123c0.123-2.456,1.698-4.722,4.896-4.786
				c7.54-0.151,14.888-2.09,22.486-1.294c8.364,0.876,13.622,6.955,9.861,15.226c-2.826,6.217-12.062,1.906-10.123-4.185
				c-0.093-0.02-0.185-0.038-0.271-0.05c-2.415-0.343-4.856-0.249-7.285-0.071c-3.382,0.248-6.768,0.805-10.155,1.121
				c0.897,16.403,7.488,31.934,8.893,48.312c0.04,0.467,0.087,0.934,0.128,1.401c1.683-0.724,3.701-0.637,5.519,0.889
				c1.222,1.026,6.331,1.413,8.675,1.683c3.75,0.432,7.554,0.708,11.243,1.55c6.9,1.577,4.823,12.379-2.1,10.798
				c-6.828-1.56-15.759-0.624-22.278-3.937c1.209,11.799,2.537,23.584,3.07,35.431c0.154,0.501,0.243,1.059,0.243,1.682v6.976
				c11.14,0.356,24.35,3.46,34.696-1.245C325.765,270.202,329.327,280.619,322.929,283.528z M396.755,233.304
				c-5.301,14.388-11.795,28.51-20.516,41.165c-1.223,1.774-3.328,2.193-5.26,1.706c-1.245,0.524-2.738,0.502-4.319-0.41
				c-7.47-4.304-8.975-11.805-13.695-18.343c-5.963-8.26-11.853-16.62-16.945-25.455c-4.688-8.131-9.115-16.583-12.18-25.469
				c-2.057-5.965-4.797-12.716-4.459-19.145c0.347-6.574,2.849-12.135,8.92-15.287c6.396-3.319,15.362-4.399,21.992-1.068
				c8.512,4.278,12.672,12.739,15.259,21.667c4.572-7.322,9.775-14.829,17.596-16.728c13.386-3.251,20.413,8.677,20.88,20.463
				C404.534,209.205,401.146,221.388,396.755,233.304z"/>
		</g>
	</g>
	<g>
		<g>
			<path d="M438.678,136.123c-6.056-8.601-15.606-14.628-24.678-19.615c-7.761-4.268-15.156-6.164-23.896-6.966
				c-9.895-0.909-19.925-1.097-29.834-0.316c-7.456,0.588-16.045,1.589-21.779,6.844c-5.236,4.8,3.098,11.998,8.266,7.262
				c0.547-0.502,3.812-1.501,5.498-1.919c3.615-0.898,7.463-1.131,11.168-1.387c8.168-0.563,16.428-0.378,24.583,0.314
				c6.894,0.585,12.568,1.705,18.777,4.803c8.174,4.079,17.419,9.524,22.776,17.132
				C433.641,148.072,442.768,141.932,438.678,136.123z"/>
		</g>
	</g>
	<g>
		<g>
			<path d="M128.133,274.261c-0.001,5.102,0.012,10.189-0.659,15.225c-7.725,0.334-17.873,0.788-22.293-5.225
				c-1.898-2.581-1.161-8.142-1.109-11.22c0.088-5.246,0.556-10.48,0.78-15.721c0.577-13.358-1.493-27.12-2.45-40.444
				c-1.192-16.63-2.252-33.276-2.295-49.956c-0.019-7.09-10.988-6.214-10.972,0.847c0.047,17.973,1.283,35.903,2.575,53.821
				c1.009,14.019,2.711,28.108,1.876,42.159c-0.604,10.202-2.584,22.445,5.582,30.191c8.428,7.993,22.779,6.438,33.376,6.384
				c2.473-0.013,4.466-2.172,4.974-4.436c1.656-7.353,1.583-14.973,1.587-22.472C139.107,266.325,128.138,267.203,128.133,274.261z"
				/>
		</g>
	</g>
	<g>
		<g>
			<path d="M180.043,291.777c-1.129,0.771-2.326,1.292-3.562,1.652c-0.054-0.137-0.104-0.272-0.171-0.412
				c-3.564-7.515-4.308-16.107-4.958-24.291c-0.679-8.586-0.743-17.216-0.748-25.825c-0.007-12.65-2.142-25.539-3.635-38.081
				c-1.407-11.813-2.834-23.625-3.692-35.492c3.789,0.006,7.647,0.457,11.264,0.498c7.087,0.081,6.201-10.89-0.846-10.97
				c-7.949-0.09-16.373-1.524-23.895,1.793c-6.086,2.685-3.231,12.125,2.595,10.733c0.866,11.461,2.242,22.872,3.604,34.284
				c1.54,12.903,3.628,26.097,3.634,39.111c0.006,8.746,0.172,17.49,0.862,26.212c0.6,7.575,1.482,15.7,4.257,22.906
				c-0.522-0.021-1.043-0.04-1.558-0.046c-7.085-0.093-6.199,10.878,0.849,10.97c7.893,0.104,15.274,0.771,22.149-3.925
				C192.053,296.894,185.905,287.772,180.043,291.777z"/>
		</g>
	</g>
	<g>
		<g>
			<path d="M261.805,285.518c-0.18-0.401-0.346-0.807-0.524-1.209c-0.52-1.257-1.006-2.54-1.622-3.746
				c-4.935-11.756-9.021-23.844-14.681-35.311c-4.376-8.862-10.209-19.887-19.004-25.687c1.043-1.549,1.959-3.174,2.796-4.711
				c3.702-6.793,6.239-14.239,8.627-21.571c2.018-6.196,3.783-12.522,4.981-18.932c0.844-4.515,1.72-11.064-4.215-12.407
				c-4.622-1.046-7.079,3.417-6.154,6.966c-0.016,0.35-0.035,0.837-0.055,0.999c-0.245,1.983-0.672,3.946-1.103,5.896
				c-1.217,5.53-2.821,10.98-4.573,16.362c-1.805,5.543-3.971,11.006-6.555,16.232c-0.958,1.938-2.002,3.874-3.29,5.607
				c-0.498,0.669-1.057,1.284-1.639,1.879c0.06-0.062-0.5,0.264-0.5,0.264c-0.366,0.125-0.697,0.288-1.007,0.47
				c-0.216-1.202-0.419-2.41-0.643-3.608c-1.566-8.361-3.049-16.741-4.115-25.183c-0.499-3.93-0.867-7.88-0.962-11.841
				c-0.03-1.292,0.003-2.456,0.161-3.704c0.049-0.39,0.106-0.678,0.16-0.893c4.801-4.001-1.094-12.192-6.85-8.608
				c-5.711,3.557-4.611,13.01-4.219,18.64c0.675,9.657,2.437,19.258,4.174,28.77c4.757,26.024,8.046,52.583,8.135,79.067
				c0.022,7.096,10.971,6.207,10.971-0.847v-7.5c0-0.468-0.052-0.9-0.141-1.299c-0.484-17.651-2.243-35.419-4.978-52.898
				c0.03,0.006,0.053,0.017,0.083,0.022c10.942,2.01,17.542,17.782,21.66,26.589c4.18,8.938,7.465,18.24,11.135,27.382
				c-0.179,1.172,0.14,2.455,1.192,3.703c0.378,0.447,0.677,0.935,0.938,1.442c0.358,0.841,0.721,1.681,1.093,2.517
				c0.106,0.263,0.217,0.525,0.338,0.784C254.36,295.511,264.726,292.028,261.805,285.518z"/>
		</g>
	</g>
	<g>
		<g>
			<path fill="#EF4823" d="M385.401,186.857c-8.297,5.231-12.322,15.59-18.16,23.115c-3.252,4.189-8.772,0.998-9.617-3.208
				c-1.484-7.37-3.714-23.831-12.79-26.176c-3.479-0.898-11.442-1.064-13.502,2.824c-1.923,3.63-0.693,8.181,0.422,11.912
				c3.993,13.359,10.136,25.754,17.647,37.487c4.351,6.794,9.523,13.114,13.767,19.952c1.805,2.909,3.009,6.927,5.101,9.96
				c0.983-0.953,2.293-1.515,3.621-1.665c5.117-8.566,9.27-17.847,12.88-27.048c3.852-9.813,7.465-20.056,8.229-30.65
				C393.24,200.023,393.28,181.89,385.401,186.857z"/>
		</g>
	</g>
	<g>
		<g>
			<path d="M478.668,229.613c-0.171-22.215-3.612-45.096-9.385-66.529c-5.727-21.259-16.093-42.869-34.979-55.355
				c-21.561-14.254-48.512-16.151-73.624-15.002c-28.36,1.298-56.549,6.153-84.834,8.532c-16.327,1.373-32.705,2.109-49.09,1.749
				c-15.992-0.352-31.839-2.66-47.752-4.078c-30.524-2.72-61.288-2.251-90.042,9.525c-21.871,8.957-39.729,24.811-52.642,44.428
				c-15.267,23.189-21.966,51.507-21.777,79.042c0.213,31.112,10.942,61.047,26.57,87.629c-8.098,6-12.16,16.008-14.132,25.948
				c-2.36,11.903-2.071,25.297,2.397,36.673c5.88,14.97,17.227,27.588,31.463,35.014c8.414,4.389,22.986,10.871,33.392,7.912
				c2.146,0.291,3.751-0.71,4.66-2.224c5.001-3.832,0.008-11.728-5.395-9.466c-6.889-3.029-10.235-11.034-12.166-17.907
				c-2.204-7.843-2.803-17.173,0.188-24.872c6.206-15.981,24.611-23.315,40.069-28.064c0.683,0.297,1.462,0.468,2.34,0.469
				c7.648,0.008,15.185,0.977,22.824,1.303c8.626,0.369,17.244,0.903,25.859,1.463c15.905,1.035,31.804,2.191,47.729,2.93
				c32.06,1.486,64.174-0.802,95.975-4.861c26.959-3.441,54.401-6.922,80.882-13.129c23.796-5.577,48.995-15.357,64.135-35.519
				C475.366,276.536,478.842,252.385,478.668,229.613z M466.682,249.907c-1.367,11.353-4.457,22.362-9.994,32.397
				c-5.86,10.621-14.948,18.276-25.336,24.248c-22.453,12.912-49.474,16.693-74.696,20.38c-30.223,4.417-60.333,8.937-90.868,10.579
				c-23.948,1.288-47.766,0.357-71.674-1.211c-11.507-0.755-23.01-1.555-34.521-2.228c-11.354-0.664-22.773-1.815-34.146-1.975
				c-1.242-0.9-2.88-1.294-4.758-0.737c-21.103,6.254-43.793,16.624-50.727,39.338c-3.064,10.042-1.189,22.115,2.032,31.862
				c1.085,3.282,2.532,6.425,4.344,9.285c-3.637-1.236-7.188-2.844-10.601-4.51c-11.898-5.809-20.912-16.741-25.975-28.797
				c-3.728-8.874-3.731-19.212-2.382-28.596c1.21-8.398,4.318-19.568,12.944-23.198c3.818-1.607,4.156-5.856,2.46-8.534
				c-0.135-0.572-0.367-1.153-0.719-1.733c-14.881-24.478-24.867-51.473-26.398-80.241c-1.313-24.685,4.328-49.69,16.227-71.349
				c11.265-20.505,29.174-36.893,50.706-46.048c29.088-12.368,60.894-11.425,91.723-8.417c15.751,1.537,31.361,3.375,47.207,3.632
				c16.385,0.265,32.774-0.745,49.091-2.159c28.025-2.429,55.942-7.216,84.064-8.331c24.393-0.967,51.816,1.728,70.655,18.907
				c16.525,15.071,23.205,39.064,27.212,60.282C466.694,204.667,469.362,227.665,466.682,249.907z"/>
		</g>
	</g>
	<g>
		<g>
			<path d="M319.293,273.146c-10.347,4.705-23.557,1.601-34.696,1.245v-6.976c0-0.623-0.089-1.181-0.243-1.682
				c-0.533-11.846-1.861-23.632-3.07-35.431c6.52,3.313,15.45,2.376,22.278,3.937c6.923,1.582,9-9.221,2.1-10.798
				c-3.689-0.843-7.493-1.118-11.243-1.55c-2.344-0.27-7.453-0.657-8.675-1.683c-1.817-1.526-3.836-1.613-5.519-0.889
				c-0.041-0.467-0.088-0.934-0.128-1.401c-1.404-16.378-7.995-31.909-8.893-48.312c3.388-0.316,6.773-0.874,10.155-1.121
				c2.429-0.178,4.87-0.272,7.285,0.071c0.086,0.012,0.178,0.03,0.271,0.05c-1.939,6.091,7.297,10.401,10.123,4.185
				c3.761-8.271-1.497-14.35-9.861-15.226c-7.599-0.796-14.946,1.143-22.486,1.294c-3.197,0.064-4.772,2.33-4.896,4.786
				c-1.021,0.965-1.693,2.348-1.667,4.123c0.259,17.403,7.371,33.758,9,50.998c1.79,18.966,4.403,37.918,4.5,56.997
				c0.016,3.254,2.322,4.824,4.816,4.896c0.524,2.427,2.44,4.635,5.591,4.665c12.549,0.12,27,3.616,38.894-1.793
				C329.327,280.619,325.765,270.202,319.293,273.146z"/>
		</g>
	</g>
	<g>
		<g>
			<path d="M404.027,196.402c-0.467-11.786-7.494-23.714-20.88-20.463c-7.82,1.899-13.023,9.406-17.596,16.728
				c-2.587-8.929-6.747-17.39-15.259-21.667c-6.63-3.331-15.597-2.251-21.992,1.068c-6.071,3.152-8.573,8.713-8.92,15.287
				c-0.338,6.429,2.402,13.179,4.459,19.145c3.064,8.886,7.491,17.337,12.18,25.469c5.093,8.835,10.982,17.195,16.945,25.455
				c4.721,6.538,6.226,14.039,13.695,18.343c1.581,0.912,3.074,0.934,4.319,0.41c1.932,0.487,4.037,0.068,5.26-1.706
				c8.721-12.654,15.215-26.777,20.516-41.165C401.146,221.388,404.534,209.205,404.027,196.402z M392.999,203.359
				c-0.765,10.595-4.378,20.837-8.229,30.65c-3.61,9.201-7.763,18.482-12.88,27.048c-1.328,0.15-2.638,0.712-3.621,1.665
				c-2.092-3.033-3.296-7.052-5.101-9.96c-4.243-6.838-9.416-13.157-13.767-19.952c-7.512-11.733-13.654-24.127-17.647-37.487
				c-1.115-3.731-2.345-8.282-0.422-11.912c2.06-3.888,10.023-3.722,13.502-2.824c9.076,2.345,11.306,18.806,12.79,26.176
				c0.845,4.206,6.365,7.397,9.617,3.208c5.838-7.524,9.863-17.884,18.16-23.115C393.28,181.89,393.24,200.023,392.999,203.359z"/>
		</g>
	</g>
</g>
</svg>
