<?xml version="1.0" encoding="utf-8"?>
<!-- Generator: Adobe Illustrator 16.0.3, SVG Export Plug-In . SVG Version: 6.00 Build 0)  -->
<!DOCTYPE svg PUBLIC "-//W3C//DTD SVG 1.1//EN" "http://www.w3.org/Graphics/SVG/1.1/DTD/svg11.dtd">
<svg version="1.1" id="Layer_1" xmlns="http://www.w3.org/2000/svg" xmlns:xlink="http://www.w3.org/1999/xlink" x="0px" y="0px"
	 width="512px" height="512px" viewBox="0 0 512 512" enable-background="new 0 0 512 512" xml:space="preserve">
<g>
	<g>
		<g>
			<path fill="#74CCCF" d="M333.809,415.77c-14.514-9.682-28.813-19.82-42.235-30.979c-7.438-6.184-15.051-12.693-20.901-20.46
				c-1.602-2.128-3.057-4.433-4.003-6.823c-11.093,11.547-23.017,22.312-35.803,31.927c1.016,1.313,1.493,3.06,1.236,4.663
				c0.205,0.227,0.465,0.488,0.913,0.928c1.948,1.914,4.012,3.709,6.14,5.422c1.671,1.347,3.374,2.653,5.102,3.926
				c10.377-21.437,47.849-12.835,59.061,4.893c0.474,0.75,0.747,1.504,0.852,2.234c0.49,0.107,0.938,0.275,1.349,0.49
				c2.831,0.568,5.604,1.245,8.519,1.596c5.508,0.663,11.018,1.305,16.53,1.928c1.153,0.131,2.302,0.257,3.453,0.381
				C333.949,415.852,333.879,415.817,333.809,415.77z"/>
		</g>
	</g>
	<g>
		<g>
			<path fill="#74CCCF" d="M179.556,65.89c-9.33,4.261-18.37,9.103-27.002,14.435c1.012,3.046-1.343,6.987-4.859,7.402
				c-0.531,0.696-1.215,1.854-1.999,3.494c-1.921,4.021-3.478,8.223-4.849,12.46c-3.598,11.114-6.535,22.437-9.328,33.774
				c-1.913,7.766-4.865,16.008-5.854,23.949c-0.598,4.803-0.827,9.592-0.818,14.371c2.67-3.993,5.813-7.711,8.947-11.146
				c7.105-7.792,14.923-14.896,22.276-22.45c6.537-6.716,13.124-13.425,20.101-19.695C175.708,103.518,174.309,84.186,179.556,65.89
				z"/>
		</g>
	</g>
	<g>
		<g>
			<path fill="#74CCCF" d="M312.136,61.551c-1.378-0.742-2.364-2.146-2.364-4.268V52.38c-5.509-1.535-11.095-2.819-16.757-3.802
				c-34.078-5.909-69.455-0.391-101.927,12.408c0.558,1.254,0.686,2.739,0.103,4.321c-4.153,11.274-4.691,23.591-4.514,35.485
				c0.063,4.227,0.148,8.454,0.231,12.682c5.055-3.92,10.569-7.591,16.574-9.628c0.604-2.603,3.112-4.314,5.56-4.444
				c-0.945-9.025,0.497-18.139,6.297-25.63c6.414-8.284,16.84-12.818,27.147-13.517c12.667-0.857,26.365,3.047,35.151,12.588
				c2.521,2.738,4.521,5.917,5.982,9.341c6.154-4.478,14.982-5.397,22.213-6.812c6.966-1.361,7.714,9.628,0.847,10.971
				c-3.666,0.717-7.396,1.26-10.976,2.351c-2.193,0.668-5.757,1.444-7.02,3.611c-0.6,1.029-1.383,1.74-2.249,2.191
				c0.356,6.793-1.154,13.681-4.734,19.509c-15.869,25.832-60.592,26.953-75.072,0.272c-7.146,2.367-13.814,8.283-19.161,12.849
				c-0.1,0.085-0.197,0.173-0.296,0.258c0.049,2.47,0.102,4.939,0.144,7.409c0.21,12.189,0.759,24.407,2.338,36.505
				c1.589,12.167,4.449,23.863,7.599,35.701c8.343,31.361,18.955,61.971,34.921,89.891c14.307-8.777,27.606-19.318,38.453-32.172
				c0.844-1,1.813-1.565,2.805-1.793c-2.218-3.169-4.145-6.532-5.773-10.062c-4.754-10.306-7.962-23.07-5.261-34.401
				c4.472-18.759,22.936-25.961,40.49-27.339c1.158-9.458,3.765-18.633,6.318-27.879c3.271-11.841,5.119-23.16,5.661-35.428
				C315.833,105.868,316.464,83.235,312.136,61.551z"/>
		</g>
	</g>
	<g>
		<g>
			<path fill="#74CCCF" d="M279.876,270.356c-0.217,0.551-0.538,1.098-0.984,1.627c-11.476,13.598-25.737,25.14-41.037,34.372
				c2.951,4.673,6.07,9.261,9.373,13.753c2.434-0.396,5.004,0.604,5.779,3.152c3.686-4.168,7.189-8.486,10.434-13.003
				c5.614-7.815,8.803-15.118,11.548-24.235c1.51-5.016,2.911-10.539,5.612-15.158C280.359,270.71,280.118,270.537,279.876,270.356z
				"/>
		</g>
	</g>
	<g>
		<g>
			<path fill="#74CCCF" d="M207.321,272.045c-9.186-21.59-15.261-43.896-21.749-66.373c-6.432-22.281-8.732-45.274-9.191-68.366
				c-4.085,3.975-8.073,8.054-12.045,12.136c-6.396,6.57-13.185,12.762-19.477,19.431c-6.176,6.548-15.789,15.854-16.106,25.558
				c-0.067,2.064-1.066,3.594-2.433,4.553c0.761,7.289,1.652,14.577,2.262,21.885h0.262c0.221,0,0.438,0.011,0.646,0.031
				c18.315,0.661,36.17,12.264,42.393,29.595c5.297,14.749,6.6,34.178-3.985,46.985c-0.549,0.664-1.153,1.137-1.782,1.451
				c-0.393,7.092,1.244,13.506,4.086,19.498c0.206-0.031,0.42-0.053,0.641-0.064c18.073-0.912,35.791-7.312,51.67-15.889
				C216.829,292.667,211.767,282.494,207.321,272.045z"/>
		</g>
	</g>
	<g>
		<g>
			<path fill="#BCBCBC" d="M264.431,76.077c-9.789-5.746-22.553-6.826-32.889-1.721c-12.211,6.032-13.509,19.776-10.089,31.684
				c0.841,2.928-0.604,5.27-2.679,6.447c3.843,4.778,9.318,8.07,15.728,9.459c13.533,2.934,31.599-0.882,38.229-14.438
				C278.134,96.461,275.365,82.495,264.431,76.077z"/>
		</g>
	</g>
	<g>
		<g>
			<path fill="#BCBCBC" d="M420.599,128.425c-3.006-3.688-6.142-7.296-9.37-10.837c-0.331,0.109-0.678,0.199-1.053,0.256
				c-14.356,2.146-6.077,25.527-0.004,31.775c8.238,8.478,21.244,7.434,32.05,9.822
				C435.811,148.561,428.548,138.176,420.599,128.425z"/>
		</g>
	</g>
	<g>
		<g>
			<path fill="#BCBCBC" d="M446.748,213.379c-4.42-3.202-10.034-3.34-14.383-0.059c-3.486,2.631-8.466,8.166-6.053,12.957
				c2.247,4.46-1.734,8.906-5.356,8.789c0.601,3.36,2.427,6.531,5.558,9.021c6.657,5.294,15.641,4.813,21.077-1.998
				C453.855,234.241,456.031,220.108,446.748,213.379z"/>
		</g>
	</g>
	<g>
		<g>
			<path fill="#74CCCF" d="M363.675,85.909c-1.175-0.521-2.151-1.554-2.61-3.23c-0.944-3.432-8.483-1.959-12.877-0.586
				c1.087,26.725,3.545,54.597-0.17,81.049C357.17,138.409,362.956,112.212,363.675,85.909z"/>
		</g>
	</g>
	<g>
		<g>
			<path fill="#74CCCF" d="M436.224,172.035c-0.291-0.634-0.458-1.384-0.458-2.255v-0.353c-6.524-1.027-13.263-1.45-19.486-3.525
				c-8.062-2.688-14.429-7.661-18.747-15.085c-7.586-13.045-9.428-34.934,5.301-41.996c-8.754-8.732-18.168-16.891-28.178-24.224
				c-0.822,35.255-10.029,70.149-24.473,102.205c-1.659,3.68-5.562,3.676-8.082,1.801c-1.49,4.383-3.229,8.7-5.28,12.933
				c0.525,0.367,1.04,0.757,1.566,1.186c1.975,1.606,3.41,4.73,4.745,6.881c2.397,3.864,4.626,7.912,6.174,12.202
				c3.564,9.892,6.568,22.055,4.533,32.601c-1.977,10.238-8.393,17.629-17.777,21.856c-6.059,2.729-14.087,5.61-19.896,1.847
				c-0.009,0.099-0.025,0.192-0.037,0.289c0.009,0.001,0.018,0.002,0.026,0.002c-2.583,23.562-19.475,44.688-34.258,62.193
				c-1.835,2.174-3.697,4.326-5.585,6.459c0.742,1.52,0.896,3.354,0.043,5.115c0.029,0.072,0.063,0.22,0.111,0.481
				c-0.169-0.92,0.7,1.613,0.729,1.666c1.606,2.773,3.608,5.317,5.803,7.648c6.133,6.517,12.983,12.351,19.969,17.929
				c7.388,5.899,14.977,11.549,22.69,17.016c2.929,2.076,5.872,4.133,8.835,6.158c1.068,0.73,2.137,1.459,3.21,2.182
				c0.221,0.149,0.354,0.238,0.436,0.295c0.055,0.036,0.21,0.139,0.564,0.375c0.173,0.115,0.321,0.244,0.476,0.369
				c0-0.001,0.001-0.002,0.002-0.002c2.292-1.547,6.221-1.164,7.635,1.484c0.211,0.394,0.423,0.789,0.693,1.146
				c0.04,0.051,0.056,0.072,0.087,0.112c0.37,0.359,0.76,0.696,1.173,1.009c0.209,0.109,1.201,0.731,1.406,0.84
				c0.248,0.132,0.498,0.255,0.748,0.383c0.974-0.866,2.267-1.407,3.829-1.354c0.016-0.008,0.031-0.012,0.047-0.021
				c0.873-0.51,1.721-1.059,2.511-1.692c1.932-1.55,3.673-3.332,5.343-5.159c3.94-4.312,7.601-8.871,11.148-13.512
				c7.901-10.332,15.756-20.734,23.228-31.381c10.128-14.433,18.345-30.361,25.145-46.622c6.41-15.329,11.507-31.952,10.593-48.743
				c-0.1-1.846,0.574-3.264,1.627-4.232c-4.713-0.308-9.458-1.963-13.779-5.146c-12.789-9.418-13.986-25.992-4.493-38.174
				c0.395-0.507,0.822-0.905,1.269-1.211c3.439-6.631,10.21-11.762,17.717-13.361c-2.058-8.213,0.573-18.982,0.659-26.369
				C435.776,173.442,435.944,172.695,436.224,172.035z"/>
		</g>
	</g>
	<g>
		<g>
			<path fill="#74CCCF" d="M338.98,415.81c-0.268,0.2-0.545,0.381-0.846,0.515c0.456,0.046,0.912,0.082,1.368,0.126
				C339.316,416.248,339.153,416.025,338.98,415.81z"/>
		</g>
	</g>
	<g>
		<g>
			<path fill="#74CCCF" d="M347.772,67.67c0.013,1.008,0.035,2.021,0.055,3.035c1.345-0.309,2.752-0.553,4.186-0.709
				C350.606,69.208,349.197,68.425,347.772,67.67z"/>
		</g>
	</g>
	<g>
		<g>
			<path fill="#74CCCF" d="M243.201,332.924c-5.379-6.773-10.379-13.825-15.015-21.105c-16.066,8.52-33.461,15.301-51.634,17.131
				c9.199,12.733,22.178,24.021,29.271,36.818c0.034,0.062,0.06,0.125,0.092,0.188c2.475-1.902,4.917-3.845,7.321-5.832
				c10.32-8.531,20.713-17.313,30.295-26.84C243.421,333.163,243.306,333.056,243.201,332.924z"/>
		</g>
	</g>
	<g>
		<g>
			<path fill="#127274" d="M375.392,428.092c-12.936,1.516-26.417,0.521-39.308-0.922c-7.457-0.836-14.915-1.675-22.365-2.572
				c-4.477-0.539-8.67-1.627-13.09-2.316c-2.346-0.366-4.143-2.625-4.462-4.969c-0.731-0.396-1.408-1.01-1.968-1.895
				c-6.643-10.504-36.977-21.438-41.039-3.527c-0.389,1.714-1.348,2.873-2.543,3.543c-1.352,2.111-3.926,3.357-6.803,1.836
				c-5.942-3.143-11.663-7.972-16.549-12.533c-1.99-1.858-4.799-5.055-6.187-8.247c-4.001,2.769-8.081,5.46-12.214,8.084
				c0.243,0.421,0.447,0.897,0.59,1.45c3.221,12.482,18.303,18.84,28.889,24.633c3.902-0.051,7.716,5.09,4.551,9.316
				c0.186-0.248,0.121-0.105,0.074-0.004c0.115,0.231,0.459,1.584,0.238,1.195c1.499,2.644,2.809,3.92,5.251,5.873
				c5.364,4.289,11.928,7.496,18.565,9.244c6.448,1.697,13.805,2.777,20.12,0.033c6.443-2.801,8.84-9.818,9.13-16.551
				c0.203-4.689,5.18-6.641,8.362-5.305c1.04-0.779,2.451-1.074,4.173-0.518c13.599,4.396,27.521,5.979,41.768,5.91
				c4.885-0.023,9.788-0.077,14.661-0.458c2.967-0.231,7.563-0.228,9.942-1.612c2.866-1.668,5.751-0.546,7.37,1.483
				c7.135-4.993,13.843-10.476,20.126-16.468C393.578,424.5,384.642,427.009,375.392,428.092z"/>
		</g>
	</g>
	<g>
		<g>
			<path fill="#74CCCF" d="M351.421,450.822c-15.212,0.04-30.177-1.382-44.713-6.081c-0.019-0.006-0.035-0.014-0.054-0.021
				c-1.472,9.071-5.689,17.17-14.617,21.406c-8.779,4.165-19.606,3.298-28.663,0.511c-9.839-3.029-32.857-13.789-31.603-27.059
				c-12.606-6.9-28.25-14.662-32.47-29.123c-9.315,5.576-18.828,10.821-28.34,15.774c0.171,0.509,0.274,1.076,0.288,1.71
				c0.212,9.938,3.516,21.402,8.777,29.921c1.64,2.655,3.14,5.396,4.829,8.021c1.024,1.592,2.052,3.217,3.273,4.67
				c0.981,1.168,1.736,0.961-0.122,0.994c3.773-0.068,5.779,3.024,5.752,5.943c28.432,3.096,57.788,2.032,86.049-1.974
				c28.745-4.075,57.795-11.196,83.691-24.682C359.304,450.957,355.14,450.812,351.421,450.822z"/>
		</g>
	</g>
	<g>
		<g>
			<path fill="#74CCCF" d="M458.695,193.341c-3.432-8.856-7.441-17.504-11.958-25.888v1.479c0,0.838-0.158,1.586-0.431,2.246
				c0.283,0.634,0.441,1.383,0.431,2.254c-0.062,5.127-0.686,10.219-0.886,15.336c-0.137,3.524-1.01,9.109,1.459,12.01
				c0.241,0.282,0.436,0.566,0.604,0.852c0.024,0.01,0.05,0.018,0.074,0.027c17.32,6.957,19.61,29.301,10.727,43.69
				c-4.115,6.663-10.309,11.04-17.091,12.607c1.171,0.796,2.012,2.106,2.113,3.974c1.019,18.721-4.401,37.42-11.71,54.483
				c-7.589,17.718-16.538,34.755-27.767,50.444c-8.351,11.667-16.836,23.348-25.808,34.553c-3.73,4.66-8.938,12.135-15.077,16.32
				c4.792,0.006,9.897,0.037,14.54-1.18c5.028-1.318,10.272-1.402,15.365-2.758c3.777-1.006,7.548-2.098,11.433-2.541
				c0.624-0.07,1.25-0.146,1.874-0.232c0.896-2.033,2.895-3.406,5.715-2.574c0.916,0.271,1.892,0.693,2.794,1.244
				c2.489-2.895,4.913-5.869,7.257-8.943c29.556-38.771,47.411-87.909,48.109-136.792
				C470.805,239.946,467.396,215.803,458.695,193.341z"/>
		</g>
	</g>
	<g>
		<g>
			<path fill="#127274" d="M171.771,465.429c-6.012-9.997-10.518-22.089-11.357-33.878c-6.348,3.057-12.875,5.877-19.55,8.145
				c0.777,1.613,0.943,3.596,0.096,5.344c-0.011,0.146-0.025,0.525,0.078,1.219c0.109,0.734,0.224,1.373,0.423,2.092
				c0.658,2.363,1.438,4.689,2.341,6.971c1.342,3.392,2.788,6.975,4.522,9.967c0.346,0.598,0.568,1.195,0.689,1.783
				c9.194,3.551,18.754,6.186,28.535,8.041C175.269,471.872,173.429,468.189,171.771,465.429z"/>
		</g>
	</g>
	<g>
		<g>
			<path fill="#74CCCF" d="M123.889,311.217c-8.485-0.283-17.071-1.271-24.818-4.754c-10.222-4.596-17.524-12.922-22.329-22.914
				c-7.258-15.095-6.63-40.98,9.005-50.467c-1.378-9.498-3.749-18.826-5.253-28.309c-1.555-9.805-2.008-19.488-1.272-29.385
				c0.722-9.698,1.988-19.705,4.286-29.409c-1.312,2.059-2.594,4.138-3.812,6.257c-7.978,13.88-14.157,28.537-19.207,43.611
				c-5.545,9.997-9.41,21.002-12.395,31.936c-2.864,10.492-4.902,21.375-5.898,32.317c-0.246,0.945-0.505,1.888-0.796,2.823
				c-0.176,0.566-0.421,1.064-0.716,1.5c-0.604,5.3-0.979,10.646-1.002,16.076c-0.049,11.27,0.752,22.568,2.416,33.731
				c2.969-0.704,6.646,0.77,7.159,4.692c0.981,7.497,6.984,14.301,12.021,19.541c5.75,5.983,11.999,11.418,18.319,16.786
				c12.692,10.779,28.715,15.905,43.194,23.765c0.051-4.937,0.202-9.875,0.555-14.82c0.762-10.698,1.746-22.508,6.391-32.455
				C126.628,325.104,124.357,318.167,123.889,311.217z"/>
		</g>
	</g>
	<g>
		<g>
			<path fill="#74CCCF" d="M168.05,381.54c-0.234,1.679-0.521,3.348-0.715,5.034c-0.142,1.237-0.229,2.565-0.339,3.91
				c3.06-1.534,6.091-3.129,9.082-4.803C173.292,384.665,170.617,383.247,168.05,381.54z"/>
		</g>
	</g>
	<g>
		<g>
			<path fill="#74CCCF" d="M131.956,454.913c-1.261-3.933-2.554-8.333-1.62-12.176c-6.224,1.45-12.561,2.286-18.994,2.252
				c1.843,1.525,3.709,3.023,5.626,4.464c5.384,4.048,11.019,7.59,16.852,10.691C133.142,458.405,132.515,456.657,131.956,454.913z"
				/>
		</g>
	</g>
	<g>
		<g>
			<path fill="#127274" d="M197.048,372.475c-0.12-0.173-0.235-0.357-0.345-0.555c-6.933-12.51-18.018-22.276-26.534-33.656
				c-9.396-12.553-16.125-26.449-14.803-42.465c0.202-2.459,1.643-3.795,3.408-4.203c0.208-0.467,0.485-0.929,0.857-1.379
				c7.808-9.447,5.987-25.464,1.867-36.086c-2.514-6.481-6.285-12.124-12.451-15.674c-5.834-3.359-13.482-6.621-20.358-6.621
				c-2.509,0-4.234-1.389-5.1-3.176c-2.72,0.175-5.544-1.386-5.809-4.885c-0.892-11.818-2.748-23.545-3.55-35.369
				c-0.65-9.581-1.558-20.699,0.906-30.084c2.516-9.58,4.618-19.269,7.06-28.868c3.027-11.907,6.12-23.948,10.465-35.468
				c-11.412,8.678-22.169,18.372-31.737,29.09c0.948,1.402,1.237,3.242,0.271,5.228c-7.277,14.962-10.096,32.71-11.176,49.185
				c-1.324,20.217,5.063,39.08,7.234,58.939c0.409,3.739-2.468,5.725-5.383,5.727c-6.343,2.965-8.105,11.498-8.195,17.836
				c-0.102,7.117,0.568,14.986,4.192,21.277c4.276,7.422,9.97,13.294,18.191,16.174c7.716,2.703,16.2,2.898,24.284,2.922
				c5.433,0.016,7.199,6.518,4.491,9.501c0.305,4.986,1.722,9.997,3.754,14.874c3.183,0.785,5.655,3.89,3.437,7.405
				c-1.611,2.552-2.867,5.302-3.858,8.175c-0.336,1.61-0.666,3.223-0.992,4.836c-0.1-0.158-0.197-0.319-0.296-0.479
				c-1.888,7.504-2.363,15.553-2.824,22.952c-0.75,12.032-0.185,24.049-0.141,36.089c7.162-2.155,14.199-4.717,21.087-7.658
				c-0.021-0.199-0.046-0.396-0.055-0.605c-0.056-1.318,0.28-2.42,0.863-3.297c1.251-6.082,0.597-13.137,2.079-19.275
				c-0.162-0.167-0.325-0.332-0.485-0.5c0.388-1.162,0.774-2.324,1.162-3.486v1.709c0.575-1.613,1.339-3.142,2.4-4.539
				c3.33-4.384,9.04-0.978,9.434,3.398c3.332,2.786,6.926,5.07,10.813,6.453c2.565,0.914,3.405,2.934,3.096,4.938
				C188.636,378.196,192.887,375.401,197.048,372.475z"/>
		</g>
	</g>
	<g>
		<g>
			<path fill="#D6E5E5" d="M343.3,245.643c-0.577-7.669-2.209-15.526-5.33-22.585c-1.301-2.94-2.901-5.698-4.65-8.394
				c-0.785-1.21-1.982-4.033-3.442-4.529c-0.592-0.2-1.261-0.277-1.81-0.629c-1.979-1.267-3.003-3.174-2.963-5.091
				c-0.603-1.284-0.653-2.846,0.225-4.51c10.717-20.323,13.21-43.7,13.345-66.361c0.138-22.94-1.852-45.825-1.904-68.761
				c-0.002-0.868,0.164-1.642,0.453-2.32c-4.922-2.252-9.932-4.305-15.021-6.129c4.891,22.551,4.724,45.929,3.711,68.896
				c-0.557,12.623-1.649,24.507-4.984,36.745c-2.804,10.285-6.27,20.719-7.349,31.393c1.489,2.301,1.35,5.605-0.621,7.327
				c-1.478,4.605-8.339,5.371-10.212,1.44c-10.895,0.888-23.464,4.115-28.096,14.2c-6.363,13.857,0.977,32.591,10.518,43.914
				c3.886-1.011,8.084,2.634,7.194,6.282c1.472,2.285,1.615,5.645-1.029,7.877c-2.127,1.796-3.223,6.295-4.036,8.835
				c-1.41,4.397-2.6,8.868-4.068,13.247c-3.128,9.332-8.492,17.367-14.576,25.075c-14.803,18.754-33.173,34.87-51.8,49.734
				c-36.485,29.114-80.497,49.413-127.662,51.026c-0.13,0.004-0.253-0.002-0.379-0.006c4.135,5.025,8.536,9.82,13.207,14.342
				c0.767-1.605,2.226-2.807,4.324-2.807h3c0.649,0,1.245,0.094,1.789,0.264c20.017,0.514,40.232-9.615,57.245-18.924
				c18.787-10.281,37.873-21.004,55.01-33.885c18.562-13.955,35.351-30.17,50.245-47.98c12.214-14.608,26.259-31.564,30.646-50.709
				c-1.01-1.754-1.027-3.98,0.846-5.904c0.08-0.098,0.142-0.166,0.211-0.248c0.007-0.057,0.016-0.113,0.022-0.17
				c0.396-3.611,4.148-4.898,7.14-4.086c0.608-3.899,6.825-6.55,10.318-2.439c-1.379-1.623-0.866-0.607,1.138-0.957
				c1.399-0.244,2.779-0.663,4.112-1.154c2.572-0.948,5.159-1.982,7.478-3.466C341.853,260.16,343.832,252.735,343.3,245.643z"/>
		</g>
	</g>
	<g>
		<g>
			<path fill="#74CCCF" d="M122.946,404.788c-0.014-4.399-0.076-8.791-0.124-13.18c-9.028-5.873-19.252-9.654-28.885-14.377
				c-8.839-4.332-16.711-9.518-24.18-15.906c-7.211-6.168-15.807-13.247-22.233-21.475c7.312,26.851,19.194,53.242,35.991,75.715
				c0.351-2.198,1.92-4.107,4.83-4.207c11.867-0.406,23.521-2.055,34.887-4.762C123.05,406.065,122.948,405.463,122.946,404.788z"/>
		</g>
	</g>
	<g>
		<g>
			<path fill="#010101" d="M471.289,198.007c-7.563-23.483-20.109-45.723-34.605-65.584c-29.984-41.084-72.325-74.054-121.211-89.05
				C263.175,27.331,207.697,39.2,160.231,64.178c-31.151,16.393-59.95,39.982-80.366,68.797
				c-12.213,17.236-21.066,36.309-27.945,56.136c-0.346,0.312-0.668,0.672-0.952,1.103c-1.134,1.715-2.147,3.529-3.066,5.409
				c-2.884,5.294-4.763,11.36-6.673,17.03c-0.592,1.758-1.697,4.441-2.354,7.179c-0.405,0.559-0.722,1.23-0.889,2.051
				c-2.585,12.722-5.829,25.29-7.336,38.206c-1.291,11.058-1.518,22.248-0.986,33.36c1.109,23.138,6.08,46.159,13.797,67.967
				c15.097,42.67,42.625,82.675,82.029,106.071c24.25,14.397,53.221,19.781,81.038,21.354c29.367,1.66,59.055-0.15,88.014-5.254
				c28.328-4.993,55.977-13.608,81.158-27.67c22.389-12.501,40.81-30.277,56.153-50.678c29.442-39.147,46.387-87.405,48.714-136.25
				C481.706,245.032,478.644,220.844,471.289,198.007z M410.176,117.844c0.375-0.057,0.722-0.146,1.053-0.256
				c3.229,3.541,6.364,7.149,9.37,10.837c7.949,9.751,15.212,20.136,21.623,31.017c-10.806-2.389-23.812-1.345-32.05-9.822
				C404.1,143.372,395.82,119.991,410.176,117.844z M426.312,226.278c-2.414-4.791,2.566-10.326,6.053-12.957
				c4.349-3.281,9.963-3.144,14.383,0.059c9.283,6.729,7.108,20.861,0.843,28.711c-5.437,6.812-14.42,7.292-21.077,1.998
				c-3.131-2.49-4.957-5.661-5.558-9.021C424.578,235.184,428.559,230.738,426.312,226.278z M361.064,82.678
				c0.459,1.677,1.435,2.709,2.61,3.23c-0.719,26.304-6.504,52.5-15.658,77.232c3.715-26.452,1.257-54.324,0.17-81.049
				C352.582,80.719,360.121,79.247,361.064,82.678z M352.013,69.997c-1.434,0.156-2.841,0.4-4.186,0.709
				c-0.021-1.014-0.042-2.027-0.055-3.035C349.197,68.425,350.606,69.208,352.013,69.997z M350.183,186.802
				c14.443-32.056,23.65-66.95,24.473-102.205c10.01,7.333,19.424,15.491,28.178,24.224c-14.729,7.062-12.887,28.951-5.301,41.996
				c4.318,7.424,10.686,12.396,18.747,15.085c6.223,2.075,12.961,2.498,19.486,3.525v0.353c0,0.871,0.167,1.621,0.458,2.255
				c-0.28,0.66-0.448,1.407-0.458,2.245c-0.086,7.387-2.717,18.156-0.659,26.369c-7.507,1.6-14.278,6.73-17.717,13.361
				c-0.447,0.306-0.875,0.704-1.269,1.211c-9.493,12.182-8.295,28.756,4.493,38.174c4.321,3.184,9.066,4.839,13.779,5.146
				c-1.054,0.969-1.728,2.387-1.627,4.232c0.914,16.791-4.184,33.414-10.593,48.743c-6.8,16.261-15.017,32.189-25.145,46.622
				c-7.472,10.646-15.326,21.049-23.228,31.381c-3.548,4.641-7.208,9.199-11.148,13.512c-1.67,1.827-3.411,3.609-5.343,5.159
				c-0.79,0.634-1.638,1.183-2.511,1.692c-0.016,0.01-0.031,0.014-0.047,0.021c-1.562-0.054-2.855,0.487-3.829,1.354
				c-0.25-0.128-0.5-0.251-0.748-0.383c-0.205-0.108-1.197-0.73-1.406-0.84c-0.413-0.312-0.803-0.649-1.173-1.009
				c-0.032-0.04-0.048-0.062-0.087-0.112c-0.27-0.357-0.482-0.753-0.693-1.146c-1.414-2.648-5.342-3.031-7.635-1.484
				c-0.001,0-0.002,0.001-0.002,0.002c-0.155-0.125-0.303-0.254-0.476-0.369c-0.354-0.236-0.509-0.339-0.564-0.375
				c-0.082-0.057-0.215-0.146-0.436-0.295c-1.073-0.723-2.142-1.451-3.21-2.182c-2.963-2.025-5.906-4.082-8.835-6.158
				c-7.714-5.467-15.302-11.116-22.69-17.016c-6.985-5.578-13.836-11.412-19.969-17.929c-2.194-2.331-4.196-4.875-5.803-7.648
				c-0.029-0.053-0.898-2.586-0.729-1.666c-0.048-0.262-0.082-0.409-0.111-0.481c0.854-1.761,0.699-3.596-0.043-5.115
				c1.888-2.133,3.75-4.285,5.585-6.459c14.783-17.505,31.675-38.632,34.258-62.193c-0.008,0-0.018-0.001-0.026-0.002
				c0.012-0.097,0.027-0.19,0.037-0.289c5.809,3.764,13.837,0.883,19.896-1.847c9.385-4.228,15.801-11.618,17.777-21.856
				c2.035-10.546-0.969-22.709-4.533-32.601c-1.547-4.29-3.776-8.338-6.174-12.202c-1.335-2.15-2.771-5.274-4.745-6.881
				c-0.526-0.429-1.041-0.818-1.566-1.186c2.052-4.232,3.79-8.55,5.28-12.933C344.622,190.478,348.524,190.482,350.183,186.802z
				 M339.502,416.451c-0.456-0.044-0.912-0.08-1.368-0.126c0.301-0.134,0.578-0.314,0.846-0.515
				C339.153,416.025,339.316,416.248,339.502,416.451z M230.867,389.435c12.786-9.614,24.71-20.38,35.803-31.927
				c0.946,2.391,2.401,4.695,4.003,6.823c5.85,7.767,13.463,14.276,20.901,20.46c13.422,11.158,27.722,21.297,42.235,30.979
				c0.07,0.047,0.14,0.082,0.21,0.125c-1.15-0.124-2.3-0.25-3.453-0.381c-5.512-0.623-11.022-1.265-16.53-1.928
				c-2.914-0.351-5.688-1.027-8.519-1.596c-0.41-0.215-0.858-0.383-1.349-0.49c-0.105-0.73-0.377-1.484-0.852-2.234
				c-11.211-17.728-48.684-26.329-59.061-4.893c-1.728-1.272-3.431-2.579-5.102-3.926c-2.128-1.713-4.191-3.508-6.14-5.422
				c-0.448-0.439-0.708-0.701-0.913-0.928C232.36,392.495,231.882,390.749,230.867,389.435z M191.088,60.987
				c32.472-12.799,67.849-18.317,101.927-12.408c5.662,0.982,11.248,2.267,16.757,3.802v4.903c0,2.122,0.986,3.525,2.364,4.268
				c4.328,21.684,3.697,44.316,2.73,66.266c-0.542,12.268-2.39,23.587-5.661,35.428c-2.553,9.246-5.16,18.421-6.318,27.879
				c-17.555,1.378-36.019,8.58-40.49,27.339c-2.701,11.331,0.507,24.096,5.261,34.401c1.629,3.53,3.556,6.894,5.773,10.062
				c-0.991,0.228-1.961,0.793-2.805,1.793c-10.847,12.854-24.146,23.395-38.453,32.172c-15.966-27.92-26.578-58.529-34.921-89.891
				c-3.149-11.838-6.01-23.534-7.599-35.701c-1.579-12.098-2.128-24.315-2.338-36.505c-0.042-2.47-0.095-4.939-0.144-7.409
				c0.1-0.085,0.197-0.173,0.296-0.258c5.347-4.565,12.016-10.481,19.161-12.849c14.48,26.681,59.203,25.56,75.072-0.272
				c3.58-5.828,5.091-12.716,4.734-19.509c0.866-0.451,1.649-1.162,2.249-2.191c1.263-2.167,4.826-2.943,7.02-3.611
				c3.58-1.091,7.31-1.634,10.976-2.351c6.867-1.343,6.119-12.332-0.847-10.971c-7.231,1.414-16.059,2.334-22.213,6.812
				c-1.461-3.424-3.461-6.603-5.982-9.341c-8.786-9.541-22.484-13.445-35.151-12.588c-10.308,0.698-20.733,5.232-27.147,13.517
				c-5.8,7.491-7.242,16.604-6.297,25.63c-2.447,0.13-4.955,1.842-5.56,4.444c-6.005,2.037-11.52,5.708-16.574,9.628
				c-0.083-4.228-0.168-8.455-0.231-12.682c-0.178-11.895,0.36-24.211,4.514-35.485C191.774,63.726,191.646,62.241,191.088,60.987z
				 M237.855,306.355c15.3-9.232,29.562-20.774,41.037-34.372c0.446-0.529,0.768-1.076,0.984-1.627
				c0.241,0.181,0.482,0.354,0.725,0.508c-2.701,4.619-4.102,10.143-5.612,15.158c-2.746,9.117-5.934,16.42-11.548,24.235
				c-3.244,4.517-6.748,8.835-10.434,13.003c-0.775-2.548-3.346-3.549-5.779-3.152C243.925,315.616,240.806,311.028,237.855,306.355
				z M243.531,333.284c-9.583,9.526-19.975,18.309-30.295,26.84c-2.404,1.987-4.847,3.93-7.321,5.832
				c-0.032-0.062-0.058-0.125-0.092-0.188c-7.093-12.797-20.071-24.085-29.271-36.818c18.173-1.83,35.567-8.611,51.634-17.131
				c4.636,7.28,9.636,14.332,15.015,21.105C243.306,333.056,243.421,333.163,243.531,333.284z M221.454,106.04
				c-3.42-11.907-2.122-25.651,10.089-31.684c10.336-5.105,23.1-4.025,32.889,1.721c10.934,6.418,13.703,20.385,8.3,31.431
				c-6.63,13.557-24.695,17.372-38.229,14.438c-6.409-1.389-11.885-4.681-15.728-9.459
				C220.849,111.309,222.294,108.967,221.454,106.04z M207.321,272.045c4.446,10.448,9.508,20.621,15.19,30.43
				c-15.879,8.576-33.597,14.977-51.67,15.889c-0.221,0.012-0.435,0.033-0.641,0.064c-2.842-5.992-4.479-12.406-4.086-19.498
				c0.629-0.314,1.233-0.787,1.782-1.451c10.585-12.808,9.282-32.236,3.985-46.985c-6.223-17.331-24.078-28.934-42.393-29.595
				c-0.208-0.021-0.425-0.031-0.646-0.031h-0.262c-0.609-7.308-1.501-14.596-2.262-21.885c1.366-0.959,2.365-2.488,2.433-4.553
				c0.317-9.703,9.931-19.01,16.106-25.558c6.292-6.669,13.08-12.86,19.477-19.431c3.973-4.082,7.96-8.161,12.045-12.136
				c0.458,23.092,2.759,46.085,9.191,68.366C192.06,228.15,198.135,250.456,207.321,272.045z M145.696,91.221
				c0.784-1.641,1.468-2.798,1.999-3.494c3.517-0.415,5.871-4.356,4.859-7.402c8.632-5.332,17.672-10.174,27.002-14.435
				c-5.247,18.296-3.849,37.628-3.385,56.594c-6.977,6.271-13.563,12.979-20.101,19.695c-7.354,7.554-15.171,14.658-22.276,22.45
				c-3.134,3.436-6.277,7.153-8.947,11.146c-0.009-4.779,0.221-9.568,0.818-14.371c0.988-7.941,3.94-16.184,5.854-23.949
				c2.793-11.338,5.73-22.66,9.328-33.774C142.218,99.444,143.775,95.242,145.696,91.221z M97.253,236.428
				c-2.171-19.859-8.559-38.723-7.234-58.939c1.08-16.475,3.898-34.223,11.176-49.185c0.967-1.985,0.678-3.825-0.271-5.228
				c9.568-10.718,20.325-20.412,31.737-29.09c-4.345,11.52-7.438,23.561-10.465,35.468c-2.441,9.6-4.544,19.288-7.06,28.868
				c-2.464,9.385-1.557,20.503-0.906,30.084c0.803,11.824,2.658,23.551,3.55,35.369c0.265,3.499,3.089,5.06,5.809,4.885
				c0.866,1.787,2.591,3.176,5.1,3.176c6.876,0,14.524,3.262,20.358,6.621c6.166,3.55,9.938,9.192,12.451,15.674
				c4.12,10.622,5.94,26.639-1.867,36.086c-0.372,0.45-0.649,0.912-0.857,1.379c-1.766,0.408-3.206,1.744-3.408,4.203
				c-1.322,16.016,5.407,29.912,14.803,42.465c8.517,11.38,19.602,21.146,26.534,33.656c0.109,0.197,0.225,0.382,0.345,0.555
				c-4.161,2.926-8.412,5.721-12.741,8.38c0.31-2.005-0.53-4.024-3.096-4.938c-3.888-1.383-7.481-3.667-10.813-6.453
				c-0.394-4.376-6.104-7.782-9.434-3.398c-1.061,1.397-1.825,2.926-2.4,4.539v-1.709c-0.387,1.162-0.774,2.324-1.162,3.486
				c0.16,0.168,0.323,0.333,0.485,0.5c-1.482,6.139-0.828,13.193-2.079,19.275c-0.583,0.877-0.919,1.979-0.863,3.297
				c0.009,0.209,0.033,0.406,0.055,0.605c-6.888,2.941-13.925,5.503-21.087,7.658c-0.044-12.04-0.609-24.057,0.141-36.089
				c0.461-7.399,0.937-15.448,2.824-22.952c0.099,0.159,0.196,0.32,0.296,0.479c0.326-1.613,0.656-3.226,0.992-4.836
				c0.991-2.873,2.247-5.623,3.858-8.175c2.219-3.516-0.254-6.62-3.437-7.405c-2.032-4.877-3.449-9.888-3.754-14.874
				c2.708-2.983,0.941-9.485-4.491-9.501c-8.084-0.023-16.568-0.219-24.284-2.922c-8.222-2.88-13.915-8.752-18.191-16.174
				c-3.624-6.291-4.294-14.16-4.192-21.277c0.09-6.338,1.853-14.871,8.195-17.836C94.786,242.153,97.663,240.167,97.253,236.428z
				 M176.079,385.681c-2.991,1.674-6.022,3.269-9.082,4.803c0.11-1.345,0.197-2.673,0.339-3.91c0.193-1.687,0.48-3.355,0.715-5.034
				C170.617,383.247,173.292,384.665,176.079,385.681z M42.097,314.232c-1.664-11.163-2.465-22.462-2.416-33.731
				c0.023-5.43,0.398-10.776,1.002-16.076c0.295-0.436,0.54-0.934,0.716-1.5c0.291-0.936,0.55-1.878,0.796-2.823
				c0.996-10.942,3.034-21.825,5.898-32.317c2.984-10.934,6.85-21.938,12.395-31.936c5.05-15.074,11.229-29.731,19.207-43.611
				c1.219-2.119,2.5-4.198,3.812-6.257c-2.298,9.704-3.564,19.711-4.286,29.409c-0.735,9.896-0.282,19.58,1.272,29.385
				c1.504,9.482,3.875,18.811,5.253,28.309c-15.635,9.486-16.263,35.372-9.005,50.467c4.805,9.992,12.107,18.318,22.329,22.914
				c7.747,3.482,16.333,4.471,24.818,4.754c0.468,6.949,2.739,13.887,5.847,20.523c-4.645,9.947-5.629,21.757-6.391,32.455
				c-0.353,4.945-0.504,9.884-0.555,14.82c-14.479-7.859-30.502-12.985-43.194-23.765c-6.32-5.368-12.569-10.803-18.319-16.786
				c-5.036-5.24-11.039-12.044-12.021-19.541C48.743,315.001,45.066,313.528,42.097,314.232z M83.515,415.565
				c-16.797-22.473-28.68-48.864-35.991-75.715c6.427,8.228,15.022,15.307,22.233,21.475c7.469,6.389,15.34,11.574,24.18,15.906
				c9.633,4.723,19.856,8.504,28.885,14.377c0.048,4.389,0.11,8.78,0.124,13.18c0.002,0.676,0.104,1.277,0.286,1.809
				c-11.366,2.707-23.02,4.355-34.887,4.762C85.435,411.458,83.866,413.367,83.515,415.565z M109.344,433.856h-3
				c-2.099,0-3.558,1.201-4.324,2.807c-4.671-4.521-9.072-9.316-13.207-14.342c0.126,0.004,0.249,0.01,0.379,0.006
				c47.165-1.613,91.177-21.912,127.662-51.026c18.627-14.864,36.997-30.98,51.8-49.734c6.084-7.708,11.448-15.743,14.576-25.075
				c1.469-4.379,2.658-8.85,4.068-13.247c0.813-2.54,1.909-7.039,4.036-8.835c2.645-2.232,2.501-5.592,1.029-7.877
				c0.89-3.648-3.309-7.293-7.194-6.282c-9.541-11.323-16.881-30.057-10.518-43.914c4.632-10.085,17.201-13.312,28.096-14.2
				c1.873,3.931,8.734,3.165,10.212-1.44c1.971-1.722,2.11-5.026,0.621-7.327c1.079-10.674,4.545-21.107,7.349-31.393
				c3.335-12.238,4.427-24.122,4.984-36.745c1.013-22.967,1.18-46.345-3.711-68.896c5.089,1.824,10.099,3.877,15.021,6.129
				c-0.289,0.679-0.455,1.452-0.453,2.32c0.052,22.936,2.042,45.82,1.904,68.761c-0.135,22.661-2.628,46.038-13.345,66.361
				c-0.878,1.664-0.827,3.226-0.225,4.51c-0.041,1.917,0.983,3.824,2.963,5.091c0.549,0.352,1.218,0.429,1.81,0.629
				c1.46,0.496,2.657,3.319,3.442,4.529c1.749,2.695,3.35,5.453,4.65,8.394c3.121,7.059,4.753,14.916,5.33,22.585
				c0.531,7.092-1.447,14.517-7.756,18.554c-2.319,1.483-4.906,2.518-7.478,3.466c-1.333,0.491-2.712,0.91-4.112,1.154
				c-2.004,0.35-2.518-0.666-1.138,0.957c-3.493-4.11-9.71-1.46-10.318,2.439c-2.991-0.812-6.744,0.475-7.14,4.086
				c-0.006,0.057-0.015,0.113-0.022,0.17c-0.069,0.082-0.131,0.15-0.211,0.248c-1.873,1.924-1.855,4.15-0.846,5.904
				c-4.388,19.145-18.432,36.101-30.646,50.709c-14.894,17.811-31.683,34.025-50.245,47.98
				c-17.137,12.881-36.223,23.604-55.01,33.885c-17.013,9.309-37.229,19.438-57.245,18.924
				C110.589,433.95,109.994,433.856,109.344,433.856z M116.968,449.453c-1.917-1.44-3.783-2.938-5.626-4.464
				c6.434,0.034,12.771-0.802,18.994-2.252c-0.935,3.843,0.358,8.243,1.62,12.176c0.559,1.744,1.186,3.492,1.864,5.231
				C127.987,457.042,122.352,453.5,116.968,449.453z M149.013,467.071c-0.121-0.588-0.344-1.186-0.689-1.783
				c-1.734-2.992-3.181-6.575-4.522-9.967c-0.902-2.281-1.683-4.607-2.341-6.971c-0.199-0.719-0.313-1.357-0.423-2.092
				c-0.104-0.693-0.089-1.072-0.078-1.219c0.848-1.748,0.682-3.73-0.096-5.344c6.675-2.268,13.202-5.088,19.55-8.145
				c0.84,11.789,5.346,23.881,11.357,33.878c1.658,2.76,3.498,6.442,5.777,9.683C167.767,473.256,158.208,470.622,149.013,467.071z
				 M279.808,475.515c-28.261,4.006-57.617,5.069-86.049,1.974c0.027-2.919-1.979-6.012-5.752-5.943
				c1.858-0.033,1.104,0.174,0.122-0.994c-1.222-1.453-2.249-3.078-3.273-4.67c-1.689-2.625-3.189-5.365-4.829-8.021
				c-5.262-8.519-8.565-19.983-8.777-29.921c-0.014-0.634-0.117-1.201-0.288-1.71c9.512-4.953,19.024-10.198,28.34-15.774
				c4.22,14.461,19.863,22.223,32.47,29.123c-1.255,13.27,21.764,24.029,31.603,27.059c9.057,2.787,19.884,3.654,28.663-0.511
				c8.928-4.236,13.145-12.335,14.617-21.406c0.019,0.007,0.036,0.015,0.054,0.021c14.537,4.699,29.501,6.121,44.713,6.081
				c3.718-0.01,7.883,0.135,12.078,0.012C337.603,464.319,308.553,471.44,279.808,475.515z M382.548,439.265
				c-1.619-2.029-4.504-3.151-7.37-1.483c-2.379,1.385-6.976,1.381-9.942,1.612c-4.873,0.381-9.775,0.435-14.661,0.458
				c-14.248,0.068-28.169-1.514-41.768-5.91c-1.722-0.557-3.133-0.262-4.173,0.518c-3.182-1.336-8.159,0.615-8.362,5.305
				c-0.291,6.732-2.687,13.75-9.13,16.551c-6.314,2.744-13.672,1.664-20.12-0.033c-6.637-1.748-13.201-4.955-18.565-9.244
				c-2.442-1.953-3.753-3.229-5.251-5.873c0.221,0.389-0.123-0.964-0.238-1.195c0.047-0.102,0.111-0.244-0.074,0.004
				c3.165-4.227-0.648-9.367-4.551-9.316c-10.586-5.793-25.668-12.15-28.889-24.633c-0.143-0.553-0.347-1.029-0.59-1.45
				c4.133-2.624,8.213-5.315,12.214-8.084c1.388,3.192,4.196,6.389,6.187,8.247c4.886,4.562,10.606,9.391,16.549,12.533
				c2.877,1.521,5.451,0.275,6.803-1.836c1.195-0.67,2.154-1.829,2.543-3.543c4.062-17.91,34.396-6.977,41.039,3.527
				c0.56,0.885,1.236,1.499,1.968,1.895c0.319,2.344,2.116,4.603,4.462,4.969c4.42,0.689,8.613,1.777,13.09,2.316
				c7.45,0.897,14.908,1.736,22.365,2.572c12.892,1.443,26.373,2.438,39.308,0.922c9.25-1.083,18.186-3.593,27.283-5.295
				C396.392,428.79,389.683,434.272,382.548,439.265z M470.462,263.953c-0.698,48.883-18.554,98.021-48.109,136.792
				c-2.344,3.074-4.768,6.049-7.257,8.943c-0.902-0.551-1.878-0.974-2.794-1.244c-2.82-0.832-4.818,0.541-5.715,2.574
				c-0.624,0.086-1.25,0.162-1.874,0.232c-3.885,0.443-7.656,1.535-11.433,2.541c-5.093,1.355-10.337,1.439-15.365,2.758
				c-4.643,1.217-9.748,1.186-14.54,1.18c6.139-4.186,11.347-11.66,15.077-16.32c8.972-11.205,17.457-22.886,25.808-34.553
				c11.229-15.689,20.178-32.727,27.767-50.444c7.309-17.063,12.729-35.763,11.71-54.483c-0.102-1.867-0.942-3.178-2.113-3.974
				c6.782-1.567,12.976-5.944,17.091-12.607c8.883-14.39,6.593-36.733-10.727-43.69c-0.024-0.01-0.05-0.018-0.074-0.027
				c-0.168-0.285-0.363-0.569-0.604-0.852c-2.469-2.9-1.596-8.485-1.459-12.01c0.2-5.117,0.824-10.209,0.886-15.336
				c0.011-0.871-0.147-1.62-0.431-2.254c0.272-0.66,0.431-1.408,0.431-2.246v-1.479c4.517,8.384,8.526,17.031,11.958,25.888
				C467.396,215.803,470.805,239.946,470.462,263.953z"/>
		</g>
	</g>
</g>
</svg>
