<?xml version="1.0" encoding="utf-8"?>
<!-- Generator: Adobe Illustrator 16.0.3, SVG Export Plug-In . SVG Version: 6.00 Build 0)  -->
<!DOCTYPE svg PUBLIC "-//W3C//DTD SVG 1.1//EN" "http://www.w3.org/Graphics/SVG/1.1/DTD/svg11.dtd">
<svg version="1.1" id="Layer_1" xmlns="http://www.w3.org/2000/svg" xmlns:xlink="http://www.w3.org/1999/xlink" x="0px" y="0px"
	 width="512px" height="512px" viewBox="0 0 512 512" enable-background="new 0 0 512 512" xml:space="preserve">
<g>
	<g>
		<g>
			<path fill="#F6851F" d="M290.196,444.763c-0.721-0.904-1.077-1.822-1.157-2.704c-6.212,0.513-12.43,0.979-18.676,1.177
				c-4.669,0.147-9.346,0.215-14.024,0.27c1.085,8.998,10.698,14.404,19.75,12.581C279.585,455.382,294.09,449.649,290.196,444.763z
				"/>
		</g>
	</g>
	<g>
		<g>
			<path fill="#F6851F" d="M383.812,412.497c-22.815,6.968-46.909,8.875-70.656,10.197c-31.317,1.743-62.646,0.684-93.966,1.807
				c-23.067,0.826-46.23,2.699-69.306,1.043c-8.367-0.601-24.43-1.482-32.963-8.073c0.137,0.78,0.309,1.521,0.498,2.188
				c2.988,10.531,14.243,13.277,23.856,15.031c14.13,2.578,27.926,3.879,42.298,2.744c15.602-1.232,31.074-3.742,46.729-4.314
				c16.284-0.594,32.608-0.271,48.876-1.296c8.223-0.518,16.377-1.745,24.602-2.179c7.512-0.396,15.03-0.484,22.55-0.652
				c14.854-0.33,29.021-1.801,43.495-5.163c10.09-2.343,23.398-4.55,30.906-12.343c1.213-1.26,3.751-3.951,5.945-6.97
				C397.992,408.663,387.339,411.42,383.812,412.497z"/>
		</g>
	</g>
	<g>
		<g>
			<path fill="#F6851F" d="M235.124,58.452c9.979,0.352,20.038,0.851,29.942,0.051C259.974,49.625,241.29,50.003,235.124,58.452z"/>
		</g>
	</g>
	<g>
		<g>
			<path fill="#F6851F" d="M287.564,102.505c-2.412-9.252-2.436-18.805-2.185-28.301c0.054-2.008,0.137-4.045-0.05-6.048
				c-0.072-0.776-0.526-2.079-0.399-2.337c-1.295,0.153-8.751,2.379-9.956,2.578c-16.25,2.7-32.804,0.898-49.168,0.78
				c-0.239,0.388-0.537,0.771-0.919,1.14c-0.698,0.676-0.947,3.666-0.854,5.939c0.168,4.145,0.674,8.264,1.299,12.361
				c0.643,4.21,1.555,8.472,2.188,12.744c1.023,0.775,1.705,2.016,1.717,3.745c12.944-0.692,26.095,0.175,39.047,0.087
				c4.33-0.029,8.671-0.088,12.99-0.405c2.065-0.151,4.149-0.299,6.191-0.659c0.265-0.047,0.493-0.089,0.715-0.137
				C287.926,103.565,287.713,103.074,287.564,102.505z"/>
		</g>
	</g>
	<g>
		<g>
			<path fill="#FEBF10" d="M407.5,387.13c-0.126-0.1-0.252-0.195-0.375-0.311c-6.912-6.444-15.744-10.402-21.566-18.14
				c-3.955-5.257-6.216-10.815-7.626-16.648c-5.093,6.03-14.64,9.569-21.358,12.847c-2.701,1.318-6.104-0.793-7.01-3.373
				c-1.082-3.078,0.684-5.698,3.373-7.01c3.795-1.852,7.792-3.299,11.412-5.5c1.757-1.068,6.884-3.777,6.215-6.49
				c-0.957-3.878,1.965-6.738,4.982-7.234c-0.046-0.526-0.093-1.053-0.139-1.583c-2.672-30.786-6.635-61.706-11.104-92.281
				c-3.984-27.256-7.538-56.44-19.137-81.727c-5.197-11.329-12.181-21.797-21.088-30.553c-8.004-7.869-17.999-15.944-29.9-14.956
				c-0.425,0.035-0.825,0.027-1.204-0.016c-6.15,2.723-15.704,1.915-20.971,1.982c-14.558,0.184-29.31-0.924-43.825,0.033
				c-0.293,0.02-0.571,0.013-0.843-0.006c-0.054,0.001-0.103,0.007-0.157,0.006c-8.115-0.105-16.158,0.996-23.595,4.398
				c-19.171,8.77-30.088,29.244-36.397,48.404c-9.111,27.667-13.539,56.92-15.748,85.891c-1.199,15.736-1.761,31.511-1.994,47.289
				c-0.223,15.006,0.334,30.097-0.361,45.086c-0.01,0.205-0.03,0.41-0.041,0.616c0.452,0.169,0.902,0.394,1.344,0.698
				c13.485,9.303,30.746,10.838,46.419,13.734c6.978,1.289,4.873,12.086-2.1,10.797c-16.188-2.99-32.624-5.211-46.979-13.401
				c-3.097,17.704-11.233,34.063-25.759,45.052c0.148,0.462,0.247,0.967,0.272,1.527c0.037,0.828-0.108,0.906,0.69,1.604
				c1.163,1.017,2.453,1.728,3.882,2.327c3.67,1.538,7.617,2.38,11.535,3.016c19.433,3.154,39.526,2.069,59.083,1.204
				c31.345-1.386,62.679-0.802,94.029-1.792c15.784-0.498,31.573-1.33,47.282-2.986c11.465-1.21,23.358-2.152,34.443-5.428
				c7.456-2.204,14.929-4.43,22.2-7.191c3.451-1.312,7.025-2.613,10.195-4.533c0.339-0.205,1.017-0.691,1.574-1.09
				c-0.087-0.55-0.065-1.086,0.04-1.6C407.035,388.894,407.156,387.978,407.5,387.13z M249.574,372.878
				c-9.79,4.426-21.029,2.395-31.395,2.293c-7.05-0.068-7.934-11.038-0.848-10.969c9.3,0.09,19.842,2.254,28.605-1.707
				C252.417,359.566,255.981,369.982,249.574,372.878z M315.706,367.085c-10.295-0.691-20.423,2.865-30.132,5.793
				c-6.784,2.047-10.431-8.334-3.637-10.383c11.79-3.557,23.423-7.043,35.868-6.207
				C324.871,356.763,322.686,367.554,315.706,367.085z"/>
		</g>
	</g>
	<g>
		<g>
			<path d="M416.387,384.554c-0.171-0.134-0.343-0.255-0.517-0.365c0.615-1.828,0.331-3.943-1.483-5.635
				c-6.764-6.306-15.783-10.037-21.071-17.943c-7.836-11.715-6.876-27.486-8.417-41.051c-3.65-32.123-7.073-64.283-12.279-96.202
				c-4.398-26.972-9.311-54.621-22.863-78.708c-10.235-18.189-29.683-40.755-52.341-41.534c0.681-1.169,0.958-2.615,0.532-4.247
				c-2.586-9.921-1.33-20.244-1.581-30.355c-0.248-9.973-6.426-15.023-16.204-12.464c-1.312,0.343-2.631,0.639-3.952,0.91
				c-7.567-21.269-48.104-21.17-53.353,1.432c-1.693,0.438-2.745,1.639-3.182,3.1c-1.059,0.165-2.111,0.655-3.052,1.565
				c-5.31,5.137-3.687,15.228-2.91,21.721c0.831,6.963,2.603,13.953,3.28,20.97c-18.42,2.397-34.055,12.626-44.957,28.313
				c-13.593,19.559-19.679,43.654-24.395,66.668c-6.256,30.527-8.216,61.811-8.984,92.902c-0.385,15.539-0.386,31.087-0.388,46.631
				c-0.001,12.299-1.646,24.482-6.774,35.762c-2.749,6.044-6.625,11.331-11.318,16.002c-3.561,3.544-9.443,5.592-11.308,10.08
				c-5.177,7.25-3.596,19.441,0.326,26.658c5.251,9.662,16.043,13.624,26.177,15.953c12.951,2.975,26.344,4.458,39.62,4.184
				c15.657-0.324,31.166-3.049,46.757-4.295c7.818-0.625,15.665-0.843,23.517-0.963c0.493,15.7,17.516,26.266,32.479,23.252
				c10.486-2.113,29.905-13.159,23.199-25.814c5.597-0.438,11.2-0.804,16.828-0.932c15.112-0.342,30.389-0.205,45.209-3.591
				c12.558-2.869,25.607-5.128,37.119-11.193C411.486,419.364,431.238,396.197,416.387,384.554z M265.066,58.503
				c-9.904,0.8-19.963,0.301-29.942-0.051C241.29,50.003,259.974,49.625,265.066,58.503z M224.888,70.317
				c0.382-0.369,0.68-0.752,0.919-1.14c16.364,0.118,32.918,1.92,49.168-0.78c1.205-0.199,8.661-2.425,9.956-2.578
				c-0.127,0.258,0.327,1.561,0.399,2.337c0.187,2.003,0.104,4.04,0.05,6.048c-0.251,9.496-0.228,19.049,2.185,28.301
				c0.148,0.569,0.361,1.061,0.615,1.488c-0.222,0.048-0.45,0.09-0.715,0.137c-2.042,0.36-4.126,0.508-6.191,0.659
				c-4.319,0.317-8.66,0.376-12.99,0.405c-12.952,0.088-26.103-0.779-39.047-0.087c-0.012-1.729-0.693-2.97-1.717-3.745
				c-0.633-4.272-1.545-8.534-2.188-12.744c-0.625-4.098-1.131-8.217-1.299-12.361C223.94,73.983,224.189,70.993,224.888,70.317z
				 M276.089,456.086c-9.052,1.823-18.665-3.583-19.75-12.581c4.679-0.055,9.355-0.122,14.024-0.27
				c6.246-0.197,12.464-0.664,18.676-1.177c0.08,0.882,0.437,1.8,1.157,2.704C294.09,449.649,279.585,455.382,276.089,456.086z
				 M400.732,411.487c-7.508,7.793-20.816,10-30.906,12.343c-14.475,3.362-28.642,4.833-43.495,5.163
				c-7.52,0.168-15.038,0.256-22.55,0.652c-8.225,0.434-16.379,1.661-24.602,2.179c-16.268,1.024-32.592,0.702-48.876,1.296
				c-15.655,0.572-31.128,3.082-46.729,4.314c-14.372,1.135-28.168-0.166-42.298-2.744c-9.613-1.754-20.868-4.5-23.856-15.031
				c-0.189-0.668-0.361-1.408-0.498-2.188c8.533,6.591,24.596,7.473,32.963,8.073c23.075,1.656,46.238-0.217,69.306-1.043
				c31.32-1.123,62.648-0.063,93.966-1.807c23.747-1.322,47.841-3.229,70.656-10.197c3.526-1.077,14.18-3.834,22.865-7.979
				C404.483,407.536,401.945,410.228,400.732,411.487z M407.196,389.794c-0.105,0.514-0.127,1.05-0.04,1.6
				c-0.558,0.398-1.235,0.885-1.574,1.09c-3.17,1.92-6.744,3.222-10.195,4.533c-7.271,2.762-14.744,4.987-22.2,7.191
				c-11.085,3.275-22.979,4.218-34.443,5.428c-15.709,1.656-31.498,2.488-47.282,2.986c-31.351,0.99-62.685,0.406-94.029,1.792
				c-19.557,0.865-39.65,1.95-59.083-1.204c-3.918-0.636-7.865-1.478-11.535-3.016c-1.429-0.6-2.719-1.311-3.882-2.327
				c-0.799-0.698-0.653-0.776-0.69-1.604c-0.025-0.561-0.124-1.065-0.272-1.527c14.525-10.988,22.662-27.348,25.759-45.052
				c14.354,8.19,30.79,10.411,46.979,13.401c6.973,1.289,9.077-9.508,2.1-10.797c-15.673-2.896-32.934-4.432-46.419-13.734
				c-0.441-0.305-0.892-0.529-1.344-0.698c0.011-0.206,0.031-0.411,0.041-0.616c0.695-14.989,0.139-30.08,0.361-45.086
				c0.233-15.778,0.795-31.553,1.994-47.289c2.209-28.971,6.637-58.224,15.748-85.891c6.31-19.16,17.227-39.635,36.397-48.404
				c7.437-3.402,15.479-4.504,23.595-4.398c0.055,0.001,0.104-0.005,0.157-0.006c0.271,0.019,0.55,0.025,0.843,0.006
				c14.516-0.957,29.268,0.15,43.825-0.033c5.267-0.067,14.82,0.74,20.971-1.982c0.379,0.043,0.779,0.051,1.204,0.016
				c11.901-0.988,21.896,7.087,29.9,14.956c8.907,8.756,15.891,19.224,21.088,30.553c11.599,25.286,15.152,54.471,19.137,81.727
				c4.469,30.575,8.432,61.495,11.104,92.281c0.046,0.53,0.093,1.057,0.139,1.583c-3.018,0.496-5.939,3.356-4.982,7.234
				c0.669,2.713-4.458,5.422-6.215,6.49c-3.62,2.201-7.617,3.648-11.412,5.5c-2.689,1.312-4.455,3.932-3.373,7.01
				c0.906,2.58,4.309,4.691,7.01,3.373c6.719-3.277,16.266-6.816,21.358-12.847c1.41,5.833,3.671,11.392,7.626,16.648
				c5.822,7.737,14.654,11.695,21.566,18.14c0.123,0.115,0.249,0.211,0.375,0.311C407.156,387.978,407.035,388.894,407.196,389.794z
				"/>
		</g>
	</g>
	<g>
		<g>
			<path d="M245.938,362.495c-8.764,3.961-19.306,1.797-28.605,1.707c-7.086-0.069-6.202,10.9,0.848,10.969
				c10.365,0.102,21.604,2.133,31.395-2.293C255.981,369.982,252.417,359.566,245.938,362.495z"/>
		</g>
	</g>
	<g>
		<g>
			<path d="M317.806,356.288c-12.445-0.836-24.078,2.65-35.868,6.207c-6.794,2.049-3.147,12.43,3.637,10.383
				c9.709-2.928,19.837-6.484,30.132-5.793C322.686,367.554,324.871,356.763,317.806,356.288z"/>
		</g>
	</g>
	<g>
		<g>
			<path d="M411.41,225.866c-0.815-11.596-0.088-23.099-1.837-34.662c-2.657-17.575-9.771-37.634-26.37-46.445
				c-6.282-3.334-11.142,6.539-4.895,9.855c13.598,7.217,18.455,25.268,20.588,39.378c1.497,9.899,1.22,19.911,1.387,29.884
				c0.049,2.885,0.379,5.773,0.539,8.654c0.089,1.617,0.716,6.381-0.198,7.525c-4.423,5.534,3.834,12.805,8.264,7.262
				C413.469,241.585,411.887,232.641,411.41,225.866z"/>
		</g>
	</g>
	<g>
		<g>
			<path d="M450.161,187.126c-2.002-12.164-6.616-23.422-12.571-34.164c-2.926-5.277-6.281-10.486-10.19-15.09
				c-3.748-4.416-8.255-8.135-11.084-13.262c-3.432-6.217-12.521-0.013-9.119,6.152c2.508,4.544,6.257,8.193,9.813,11.919
				c3.829,4.011,6.85,8.749,9.732,13.464c5.952,9.734,10.459,20.572,12.448,31.828c4.056,22.949,2.799,47.322-3.833,69.664
				c-2.02,6.8,8.798,8.835,10.797,2.098C453.072,236.434,454.1,211.059,450.161,187.126z"/>
		</g>
	</g>
	<g>
		<g>
			<path d="M490.867,185.885c-5.832-36.399-20.221-79.228-53.664-99.126c-6.111-3.636-10.943,6.256-4.895,9.855
				c28.826,17.15,41.254,55.365,46.962,86.473c3.752,20.449,6.082,41.354,2.853,62.016c-0.925,5.918-1.852,11.832-3.041,17.705
				c-0.621,3.072-1.346,6.122-2.223,9.132c-0.326,1.12-0.75,2.194-1.226,3.259c-0.122,0.272-0.229,0.482-0.319,0.642
				c-4.727,2.537-3.417,11.144,2.865,10.331c6.338-0.818,8.23-7.846,9.745-13.051c2.04-7.011,3.174-14.311,4.313-21.511
				C495.759,229.368,494.418,208.05,490.867,185.885z"/>
		</g>
	</g>
	<g>
		<g>
			<path d="M139.203,154.759c-12.182-7.923-19.084,26.113-20.51,32.216c-2.224,9.526-3.473,19.428-4.077,29.19
				c-0.584,9.441,0.349,18.545,0.654,27.945c0.23,7.088,11.2,6.232,10.971-0.848c-0.206-6.32-1.024-12.596-0.99-18.931
				c0.034-6.28,0.565-12.526,1.398-18.747c0.397-2.967,0.936-5.912,1.505-8.85c0.894-4.602-0.11,0.736,0.078-1.074
				c0.055-0.517,0.144-1.03,0.227-1.543c1.002-6.186,2.779-12.307,4.664-18.271c0.892-2.818,1.947-5.588,3.161-8.281
				c0.321-0.714,0.683-1.406,1.062-2.09C141.641,165.117,144.017,157.89,139.203,154.759z"/>
		</g>
	</g>
	<g>
		<g>
			<path d="M104.624,134.056c-12.278,14.648-16.12,35.164-18.771,53.558c-3.079,21.358-3.56,42.912-3.581,64.454
				c0,0.015-0.002,0.028-0.002,0.043v1.516c0,7.089,10.971,6.211,10.971-0.848c0-20.242,0.415-40.395,3.056-60.493
				c2.244-17.081,5.154-37.321,16.591-50.968C117.448,135.878,109.181,128.619,104.624,134.056z"/>
		</g>
	</g>
	<g>
		<g>
			<path d="M104.332,82.202c-14.733,2.793-25.729,16.984-34.378,28.195c-11.553,14.973-19.284,31.957-24.86,49.973
				c-6.474,20.916-9.64,43.25-12.219,64.943c-1.066,8.969-1.635,18.009-2.178,27.023c-0.439,7.311-0.196,15.094,5.428,20.482
				c5.139,4.923,12.364-3.377,7.262-8.266c-3.525-3.377-1.803-11.75-1.441-16.051c0.754-8.966,1.285-17.896,2.439-26.831
				c2.492-19.278,5.583-38.826,11.002-57.517c4.588-15.826,11.488-31.312,21.356-44.55c4.25-5.702,8.802-11.185,13.777-16.27
				c3.827-3.912,9.032-9.097,14.659-10.165C112.061,91.866,111.309,80.879,104.332,82.202z"/>
		</g>
	</g>
</g>
</svg>
