<?xml version="1.0" encoding="utf-8"?>
<!-- Generator: Adobe Illustrator 16.0.3, SVG Export Plug-In . SVG Version: 6.00 Build 0)  -->
<!DOCTYPE svg PUBLIC "-//W3C//DTD SVG 1.1//EN" "http://www.w3.org/Graphics/SVG/1.1/DTD/svg11.dtd">
<svg version="1.1" id="Layer_1" xmlns="http://www.w3.org/2000/svg" xmlns:xlink="http://www.w3.org/1999/xlink" x="0px" y="0px"
	 width="512px" height="512px" viewBox="0 0 512 512" enable-background="new 0 0 512 512" xml:space="preserve">
<g>
	<g>
		<g>
			<path fill="#D6E5E5" d="M198.045,158.354c-0.815-5.792-2.418-14.277-8.117-17.426c-4.562-2.521-9.93-2.137-14.986-1.812
				c-7.32,0.47-14.598,1.531-21.925,1.878c-15.865,0.749-31.684-0.943-47.503,1.155c0.037,54.737,1.689,109.452,2.588,164.178
				c0.455,27.668,0.736,55.343,0.471,83.014c-0.221,22.952-0.918,45.905-1.038,68.857c18.591,0.081,37.617,0.556,55.973,3.27
				c5.934,0.878,11.841,1.945,17.804,2.608c4.252,0.472,11.688,2.03,15.639,0.036c0.448-0.226,0.896-0.383,1.34-0.489
				c-1.378-6.907-1.34-13.965-1.053-21.067c0.383-9.485,0.303-18.969,0.303-28.46v-61.055c0-32.697-0.022-65.371,0.654-98.062
				c0.33-15.902-0.2-31.654-0.683-47.536c-0.228-7.468,0.567-14.952,0.954-22.403C198.922,176.186,199.286,167.162,198.045,158.354z
				 M176.797,414.896c-2.393,7.593-7.928,15.981-15.795,18.749c-6.967,2.451-14.934,0.491-21.305-2.854
				c-5.662-2.973-12.41-7.958-12.059-15.146c0.1-2.01,1.076-3.516,2.408-4.477c-2.436-9.663,1.809-19.819,11.403-24.821
				c10.752-5.604,25.011-5.029,32.177,6.076C178.081,399.326,179.275,407.036,176.797,414.896z M186.332,325.146
				c-1.063,3.523-2.285,5.881-6.134,6.709c-3.421,0.736-6.843,1.398-10.339,1.655c-7.474,0.549-14.934,0.234-22.417,0.204
				c-8.729-0.034-20.161-0.372-25.343-8.828c-6.092-9.941-2.946-23.063-2.686-34.016c0.308-12.926-0.785-26.217,0.632-39.084
				c0.931-8.445,4.944-15.118,12.802-18.746c8.536-3.941,18.972-5.071,28.295-4.528c9.317,0.542,19.972,2.222,25.541,10.635
				c0.035,0.053,0.062,0.105,0.095,0.158c1.622,0.659,2.838,2.132,2.831,4.493c-0.043,15.421-1.117,30.826-0.996,46.247
				C188.705,301.592,189.712,313.946,186.332,325.146z"/>
		</g>
	</g>
	<g>
		<g>
			<path fill="#FEBF10" d="M178.621,246.504c-0.379-0.329-0.736-0.724-1.056-1.207c-3.091-4.667-10.437-5.613-15.577-5.815
				c-6.201-0.242-12.793-0.062-18.821,1.579c-4.12,1.123-9.991,2.736-11.332,7.486c-1.722,6.101-1.221,12.659-1.226,18.925
				c-0.01,10.646-0.027,21.307-0.563,31.942c-0.289,5.729-2.462,15.048,1.659,20.001c3.557,4.274,11.996,3.279,16.785,3.349
				c9.139,0.134,18.5,0.626,27.508-1.214c3.064-9.556,1.675-20.899,1.645-30.658C177.598,276.089,178.509,261.304,178.621,246.504z"
				/>
		</g>
	</g>
	<g>
		<g>
			<path fill="#BCBCBC" d="M248.565,70.45c-0.204,0.03-0.435,0.064-0.698,0.104c-0.672,0.161-1.352,0.204-2.039,0.128
				c-2.159-0.047-4.742-0.764-6.334-2.329c-2.268-2.227-3.261-4.679-3.295-7.604c-1.867,1.363-3.688,2.786-5.534,4.179
				c-3.776,2.849-8.454,6.71-13.452,6.711c-2.92,0.001-5.023-1.231-6.424-3.098c-3.959,3.129-7.229,7.335-10.765,10.765
				c-5.713,5.539-12.312,10.083-18.535,15.014c-13.755,10.9-25.862,23.128-38.232,35.533c-0.093,0.094-0.189,0.174-0.284,0.259
				c9.838-0.132,19.482-1.218,29.332-1.851c7.246-0.465,16.01-1.212,22.518,2.812c0.527,0.325,1.029,0.67,1.523,1.023
				c10.064-14.448,24.408-25.545,35.828-38.875c6.133-7.158,12.074-14.477,18.007-21.8C249.612,71.221,249.067,70.897,248.565,70.45
				z"/>
		</g>
	</g>
	<g>
		<g>
			<path fill="#BCBCBC" d="M163.707,397.466c-8.961-9.077-29.467,0.977-22.023,13.681c1.638,2.794,0.609,5.603-1.326,7.24
				c2.061,1.929,5.456,3.239,7.46,3.975c3.611,1.324,7.853,2.43,11.212-0.061C166.052,417.098,170.789,404.642,163.707,397.466z"/>
		</g>
	</g>
	<g>
		<g>
			<path fill="#BCBCBC" d="M335.583,76.913c-16.569,17.984-41.682,27.264-55.704,47.551c4.004,0.438,8.002,0.965,11.997,1.513
				c-0.326-1.859,0.235-3.873,2.173-5.314c12.26-9.121,21.998-21.339,32.154-32.65c3.381-3.766,6.736-7.616,10.42-11.097
				C336.27,76.957,335.922,76.956,335.583,76.913z"/>
		</g>
	</g>
	<g>
		<g>
			<path fill="#BCBCBC" d="M280.639,78.646c-0.121-4.548-1.324-9.288-2.461-13.666c-0.651-2.51-1.342-5.051-2.301-7.472
				c-0.006,0.001-0.011,0.001-0.016,0.001c-11.998,14.168-23.291,28.921-35.423,42.975c-11.593,13.43-26.111,24.689-36.182,39.369
				c-0.134,0.194-0.272,0.372-0.415,0.538c0.551,0.951,1.064,1.934,1.518,2.971c6.898,15.771,4.443,34.773,3.449,51.432
				c-0.6,10.062,0.297,19.969,0.486,30.037c0.306,16.284-0.254,32.558-0.577,48.837c-0.647,32.598-0.208,65.237-0.208,97.841v49.74
				c0,8.01-0.229,15.98-0.428,23.984c-0.123,4.931-0.109,9.843,0.688,14.658c3.54-3.669,6.315-8.45,9.167-12.322
				c2.16-2.931,4.25-5.914,6.443-8.819c1.963-2.601,4.478-5.36,5.345-8.577c0.644-2.387,2.392-3.681,4.31-4.063
				c0.581-8.694,1.471-17.396,1.498-26.11c0.096-29.677-0.178-59.319-1.084-88.985c-1.791-58.635-4.875-117.241-4.91-175.917
				c0-1.056,0.248-1.97,0.665-2.742c-0.622-2.064-0.266-4.484,1.745-6.241c1.768-1.544,3.772-2.582,5.927-3.263
				c-3.165-4.367,2.886-9.86,6.827-12.647c7.396-5.23,14.713-11.593,21.714-17.583c4.894-4.187,9.586-8.316,14.534-12.212
				C280.767,79.886,280.656,79.3,280.639,78.646z"/>
		</g>
	</g>
	<g>
		<g>
			<path fill="#BCBCBC" d="M319.906,64.769c-0.125-0.007-0.248-0.021-0.372-0.038c-5.411,5.744-11.751,10.493-18.312,14.868
				c-6.682,4.455-14.203,8.595-19.966,14.254c-6.497,6.381-13.683,11.938-20.744,17.663c-2.69,2.182-5.237,4.643-8.051,6.661
				c-1.103,0.791-2.229,1.554-3.315,2.366c-0.36,0.269-0.629,0.517-0.834,0.726c-0.035,0.166-0.077,0.329-0.126,0.491
				c5.654,0.216,11.454,1.296,16.328,1.492c1.267,0.051,2.531,0.138,3.796,0.214c0.004-0.844,0.271-1.754,0.887-2.691
				c12.837-19.6,34.461-29.4,51.402-44.5C320.498,72.431,320.158,68.603,319.906,64.769z"/>
		</g>
	</g>
	<g>
		<g>
			<path fill="#BCBCBC" d="M196.32,53.264c-0.218-1.48-0.707-3.912-1.158-5.329c-1.707,1.57-3.761,1.813-5.547,1.254
				c-2.711,1.865-4.987,5.16-6.966,7.5c-3,3.548-6.047,6.906-9.439,10.093c-8.212,7.712-16.44,15.188-24.097,23.464
				c-12.992,14.043-28.184,25.99-40.658,40.5c8.98-0.898,17.985-0.826,27.008-0.688c-2.135-1.799-3.018-4.911-0.471-7.466
				c13.021-13.061,25.789-26.004,40.346-37.391c7.046-5.511,14.128-10.704,20.322-17.183c0.608-0.638,1.221-1.272,1.836-1.902
				C196.715,61.922,196.937,57.455,196.32,53.264z"/>
		</g>
	</g>
	<g>
		<g>
			<path fill="#BCBCBC" d="M366.168,77.578c-0.205,0.04-0.414,0.111-0.621,0.173c0.103,0.908-0.035,1.893-0.496,2.918
				c-6.992,15.576-20.08,27.246-30.795,40.184c-4.523,5.465-12.789-1.797-8.264-7.262c8.703-10.509,19.198-20.104,26.15-31.943
				c-0.818-0.159-1.621-0.393-2.39-0.726c-0.539,0.331-1.151,0.571-1.831,0.687c-0.139,0.09-0.397,0.262-0.791,0.574
				c-0.541,0.43-1.023,0.823-1.529,1.302c-1.805,1.714-3.547,3.492-5.242,5.315c-3.137,3.371-6.124,6.885-9.297,10.219
				c-9.25,9.717-17.561,20.09-28.002,28.531c3.096,0.443,6.19,0.881,9.285,1.292c7.203,0.958,13.877,3.102,18.945,7.387
				c5.177-6.242,10.256-12.569,15.16-19.028c4.629-6.098,9.771-12.225,13.586-18.875c3.002-5.232,5.912-10.559,8.992-15.775
				C367.949,80.972,367.146,79.224,366.168,77.578z"/>
		</g>
	</g>
	<g>
		<g>
			<path fill="#D6E5E5" d="M406.043,289.021c-0.716-10.425-1.589-20.815-2.153-31.251l-4.072-75.322
				c-1.311-24.264-3.127-48.568-3.174-72.879c-0.014-6.448-0.34-12.863-0.979-19.281c-0.352-3.533-0.33-7.225-1.531-10.576
				c-0.818-2.29-1.68-4.584-2.711-6.793c-0.967,0.428-2.037,0.583-3.074,0.493c-7.809,10.167-12.775,21.919-20.093,32.44
				c-9.103,13.092-18.812,25.735-29,38c-0.437,0.526-0.908,0.932-1.399,1.234c0.198,0.446,0.401,0.886,0.581,1.354
				c4.676,12.206,3.074,25.465,2.327,38.193c-0.903,15.369,2.833,30.547,4.261,45.791c1.469,15.678,0.568,31.395,1.204,47.103
				c1.305,32.24,3.102,64.946,1.194,97.193c-0.958,16.2-3.407,32.374-3.102,48.632c0.119,6.365,0.65,12.888,0.873,19.401
				c3.246-5.686,6.35-11.436,9.506-17.181c8.078-14.702,16.631-29.18,24.241-44.134c3.627-7.126,6.979-14.395,9.908-21.838
				c2.764-7.022,4.736-14.377,7.559-21.354c1.602-3.959,3.213-7.919,4.604-11.958c0.666-1.939,1.301-3.914,1.753-5.916
				c0.194-0.859,0.407-1.727,0.505-2.604c0.004-0.025,0.004-0.043,0.006-0.066c-1.363-2.785,0.124-6.002,2.506-7.403
				C406.784,303.286,406.527,296.079,406.043,289.021z"/>
		</g>
	</g>
	<g>
		<g>
			<path fill="#BCBCBC" d="M296.363,401.92c-12.562-8.56-18.707,9.041-17.754,18.878c0.177,1.818-0.42,3.221-1.41,4.186
				c1.857,1.537,4.564,2.296,7.651,2.531c5.528,0.422,12.474-1.334,16.16-5.736C306.256,415.517,302.533,406.123,296.363,401.92z"/>
		</g>
	</g>
	<g>
		<g>
			<path fill="#D6E5E5" d="M336.941,352.573c0.068-16.308-0.273-32.613-0.77-48.913c-0.486-15.917-1.076-31.791-1.137-47.717
				c-0.059-16.045-1.845-31.59-3.895-47.475c-0.99-7.674-1.762-15.166-1.352-22.902c0.336-6.361,0.99-12.731,0.886-19.108
				c-0.101-6.242-0.375-13.537-3.896-18.965c-2.922-4.505-7.438-6.369-12.593-7.256c-14.567-2.504-29.683-4.779-44.429-5.782
				c-6.33-0.431-12.629-1.045-18.954-1.454c-3.221-0.208-7.17-0.481-10.315,0.795c0.01,0.148,0.021,0.296,0.021,0.452
				c0.037,61.974,3.516,123.859,5.194,185.795c0.83,30.629,1.884,61.507,0.458,92.13c-0.529,11.349-1.436,22.642-1.743,33.995
				c-0.081,3.01,0.29,8.231-0.592,12.591c13.177-0.205,26.271,2.587,39.353,3.927c16.179,1.658,32.23-0.402,48.422-0.499
				c0.467-0.003,0.906,0.046,1.318,0.133c2.084-9.592,0.883-19.292,0.668-29.03c-0.237-10.738-0.146-21.355,0.711-32.071
				C335.6,384.964,336.873,368.895,336.941,352.573z M311.822,425.447c-5.992,9.58-17.311,13.763-28.302,12.925
				c-10.28-0.784-20.095-7.535-19.882-18.727c0.057-2.891,1.939-4.742,4.129-5.433c1.842-15.26,13.118-31.192,30.191-23.828
				C310.304,395.711,319.733,412.797,311.822,425.447z M320.523,326.271c-0.617,1.866-1.916,3.049-3.415,3.635
				c1.321,3.222-0.513,7.801-4.561,7.801h-2c-1.814,0-3.218-0.728-4.185-1.805c-12.85-4.271-27.582-2.25-40.815-2.195
				c-3.175,0.013-5.432-1.933-5.909-5.062c-4.305-28.249-6.911-56.904-4.913-85.474c0.274-3.924,3.724-4.991,6.654-3.973
				c0.728-1.43,2.148-2.462,4.321-2.463c7.377-0.001,14.814,0.062,22.154-0.786c4.638-0.536,9.387-1.41,14.062-1.439
				c9.112-0.057,16.745,3.854,18.336,13.534c2.396,14.564,0.403,30.112,0.362,44.803
				C320.584,303.757,324.039,315.638,320.523,326.271z"/>
		</g>
	</g>
	<g>
		<g>
			<path fill="#F6851F" d="M309.639,295.646c0.036-12.721,0.812-25.46,0.296-38.178c-0.108-2.672,0.751-9.772-2.507-11.24
				c-2.752-1.24-6.123-0.76-9.031-0.432c-10.646,1.202-21.123,1.908-31.849,1.911c-0.409,0-0.796-0.04-1.164-0.11
				c-1.505,25.02,0.854,50.283,4.46,75.062c13.238-0.304,26.951-1.199,39.611,2.745c0.041-0.391,0.128-0.801,0.271-1.231
				C312.758,314.999,309.613,305.041,309.639,295.646z"/>
		</g>
	</g>
	<g>
		<g>
			<path fill="#010101" d="M417.013,288.175c-0.773-12.406-1.803-24.78-2.475-37.197c-1.571-29.072-3.143-58.144-4.715-87.215
				c-0.752-13.908-1.584-27.811-1.992-41.734c-0.416-14.178-0.655-28.109-2.221-42.23c-0.594-5.342-3.965-11.886-6.884-16.25
				c-1.858-2.779-4.389-4.414-7.751-4.472c-1.623-0.028-2.916,0.638-3.951,1.658c-1.395-0.045-2.832,0.489-4.031,1.856
				c-2.637,3.002-5.043,6.172-7.303,9.445c-1.281-2.314-2.769-4.42-5.517-5.213c-2.66-0.769-5.104-0.571-7.722,0.273
				c-2.712,0.874-4.856,3.307-7.692,3.806c-2.305,0.405-6.803-4.591-8.73-5.729c-3.289-1.943-7.074-1.711-10.324-0.159
				c-1.508-0.592-3.228-0.522-4.713,0.61c-0.188-2.605-0.354-5.212-0.383-7.826c-0.035-3.146-3.07-5.08-5.908-5.062
				c-2.293,0.016-4.42,0.237-6.412,1.215c-0.504-0.136-1.035-0.215-1.588-0.215h-2c-3.418,0-4.979,2.552-4.894,5.192
				c-5.577,5.459-12.068,9.801-18.596,14.109c-0.778-6.063-2.585-12.3-4.468-17.859c-1.144-3.379-2.895-7.916-6.359-9.577
				c-2.971-1.425-5.686-0.719-7.771,1.102c-1.267,0.063-2.544,0.626-3.621,1.888c-4.14,4.848-8.19,9.769-12.217,14.71
				c-0.031-0.052-0.058-0.103-0.092-0.154c-1.877-2.823-4.438-4.235-7.862-3.978c-0.538,0.109-1.073,0.228-1.608,0.346
				c0.133-1.31,0.283-2.606,0.168-3.938c-0.617-7.145-8.381-9.218-13.818-6.238c-4.024,2.206-7.508,5.369-11.2,8.068
				c-0.899,0.657-1.817,1.32-2.774,1.912c-0.275-3.219-4.382-5.508-7.282-4.289c-1.577,0.662-3.056,1.457-4.471,2.339
				c-0.339-4.02-0.895-8.035-1.967-11.931c-0.964-3.508-2.934-7.014-6.306-8.668c-3.102-1.521-6.154-0.734-8.827,0.887
				c-0.993-0.295-2.153-0.229-3.43,0.373c-7.52,3.55-12.198,10.912-17.657,16.881c-7.917,8.657-17.432,15.757-25.449,24.344
				c-15.641,16.754-34.113,31.199-48.207,49.336c-2.438,3.137-0.904,6.806,1.68,8.43c-1.766,0.872-3.133,2.586-3.133,5.075v3
				c0,0.088,0.01,0.17,0.013,0.256c0.082,53.951,1.676,107.882,2.579,161.822c0.453,27.012,0.7,54.028,0.488,81.043
				c-0.192,24.552-0.992,49.101-1.068,73.652c-0.002,0.076-0.012,0.148-0.012,0.227v2c0,3.821,3.184,5.323,6.12,4.795
				c0.543,0.17,1.14,0.266,1.789,0.267c20.106,0.036,40.647,0.516,60.54,3.66c11.631,1.839,27.021,6.011,38.112,0.414
				c0.172-0.087,0.331-0.18,0.483-0.274c0.496,0.101,1.008,0.125,1.517,0.089c1.497,0.686,3.3,0.753,5.1-0.265
				c6.944-3.926,11.446-11.674,16.002-17.95c2.247-3.095,4.856-6.201,7.269-9.438c-0.023,1.284-0.047,2.568-0.088,3.854
				c-0.063,1.948-0.186,3.887-0.382,5.825c-0.069,0.688-0.175,1.368-0.292,2.048c-1.271,1.543-1.359,3.697-0.613,5.518
				c-1.253,3.415,0.68,8.033,5.353,7.52c15.188-1.671,30.319,1.962,45.372,3.505c16.577,1.698,33.043-0.406,49.628-0.505
				c2.555-0.015,4.069-1.451,4.64-3.277c1.777,0.242,3.67-0.271,4.969-1.64c3.329,1.118,7.844-0.845,7.553-5.442
				c-0.426-6.724,3.976-12.593,7.243-18.124c4.378-7.411,8.218-15.18,12.403-22.705c8.382-15.07,17.167-29.992,24.406-45.659
				c5.829-12.618,9.782-25.873,14.845-38.775c1.432-3.651,4.252-9.447,5.396-14.952c0.245-0.394,0.458-0.826,0.621-1.311
				C418.06,310.72,417.698,299.141,417.013,288.175z M335.583,76.913c0.339,0.043,0.687,0.044,1.04,0.002
				c-3.684,3.48-7.039,7.331-10.42,11.097c-10.156,11.312-19.895,23.529-32.154,32.65c-1.938,1.441-2.499,3.455-2.173,5.314
				c-3.995-0.548-7.993-1.074-11.997-1.513C293.901,104.177,319.014,94.897,335.583,76.913z M301.223,79.599
				c6.561-4.375,12.9-9.124,18.312-14.868c0.124,0.017,0.247,0.031,0.372,0.038c0.252,3.834,0.592,7.662,0.693,11.506
				c-16.941,15.1-38.565,24.9-51.402,44.5c-0.615,0.938-0.883,1.848-0.887,2.691c-1.265-0.076-2.529-0.163-3.796-0.214
				c-4.874-0.196-10.674-1.276-16.328-1.492c0.049-0.162,0.091-0.325,0.126-0.491c0.205-0.209,0.474-0.457,0.834-0.726
				c1.087-0.812,2.213-1.575,3.315-2.366c2.813-2.019,5.36-4.479,8.051-6.661c7.062-5.726,14.247-11.282,20.744-17.663
				C287.02,88.193,294.541,84.054,301.223,79.599z M149.113,90.245c7.656-8.275,15.885-15.752,24.097-23.464
				c3.393-3.187,6.439-6.545,9.439-10.093c1.979-2.34,4.255-5.635,6.966-7.5c1.786,0.56,3.84,0.316,5.547-1.254
				c0.451,1.417,0.94,3.849,1.158,5.329c0.616,4.191,0.395,8.658,1.176,12.852c-0.615,0.63-1.228,1.265-1.836,1.902
				c-6.194,6.479-13.276,11.672-20.322,17.183c-14.557,11.387-27.324,24.33-40.346,37.391c-2.547,2.555-1.664,5.667,0.471,7.466
				c-9.022-0.138-18.027-0.21-27.008,0.688C120.93,116.235,136.121,104.288,149.113,90.245z M198.465,185.039
				c-0.387,7.451-1.182,14.936-0.954,22.403c0.482,15.882,1.013,31.634,0.683,47.536c-0.677,32.691-0.654,65.365-0.654,98.062
				v61.055c0,9.491,0.08,18.975-0.303,28.46c-0.287,7.103-0.325,14.16,1.053,21.067c-0.443,0.106-0.892,0.264-1.34,0.489
				c-3.951,1.994-11.387,0.436-15.639-0.036c-5.963-0.663-11.87-1.73-17.804-2.608c-18.355-2.714-37.382-3.188-55.973-3.27
				c0.12-22.952,0.817-45.905,1.038-68.857c0.266-27.671-0.016-55.346-0.471-83.014c-0.898-54.726-2.551-109.44-2.588-164.178
				c15.819-2.099,31.638-0.406,47.503-1.155c7.327-0.347,14.604-1.408,21.925-1.878c5.057-0.325,10.425-0.709,14.986,1.812
				c5.699,3.148,7.302,11.634,8.117,17.426C199.286,167.162,198.922,176.186,198.465,185.039z M196.346,132.097
				c-0.494-0.354-0.996-0.698-1.523-1.023c-6.508-4.024-15.271-3.277-22.518-2.812c-9.85,0.633-19.494,1.719-29.332,1.851
				c0.095-0.085,0.191-0.165,0.284-0.259c12.37-12.405,24.478-24.633,38.232-35.533c6.224-4.931,12.822-9.475,18.535-15.014
				c3.536-3.43,6.806-7.636,10.765-10.765c1.4,1.866,3.504,3.099,6.424,3.098c4.998-0.001,9.676-3.862,13.452-6.711
				c1.847-1.393,3.667-2.815,5.534-4.179c0.034,2.926,1.027,5.378,3.295,7.604c1.592,1.565,4.175,2.282,6.334,2.329
				c0.688,0.076,1.367,0.033,2.039-0.128c0.264-0.04,0.494-0.074,0.698-0.104c0.502,0.447,1.047,0.771,1.615,0.972
				c-5.933,7.323-11.874,14.642-18.007,21.8C220.754,106.552,206.41,117.648,196.346,132.097z M231.949,126.112
				c-2.011,1.757-2.367,4.177-1.745,6.241c-0.417,0.772-0.665,1.687-0.665,2.742c0.035,58.676,3.119,117.282,4.91,175.917
				c0.906,29.666,1.18,59.309,1.084,88.985c-0.027,8.715-0.917,17.416-1.498,26.11c-1.918,0.383-3.666,1.677-4.31,4.063
				c-0.867,3.217-3.382,5.977-5.345,8.577c-2.193,2.905-4.283,5.889-6.443,8.819c-2.852,3.872-5.627,8.653-9.167,12.322
				c-0.798-4.815-0.812-9.728-0.688-14.658c0.199-8.004,0.428-15.975,0.428-23.984v-49.74c0-32.604-0.439-65.243,0.208-97.841
				c0.323-16.279,0.883-32.553,0.577-48.837c-0.189-10.068-1.086-19.976-0.486-30.037c0.994-16.658,3.449-35.661-3.449-51.432
				c-0.453-1.037-0.967-2.02-1.518-2.971c0.143-0.166,0.281-0.344,0.415-0.538c10.07-14.68,24.589-25.939,36.182-39.369
				c12.132-14.054,23.425-28.807,35.423-42.975c0.005,0,0.01,0,0.016-0.001c0.959,2.421,1.649,4.962,2.301,7.472
				c1.137,4.378,2.34,9.118,2.461,13.666c0.018,0.654,0.128,1.24,0.312,1.762c-4.948,3.896-9.641,8.025-14.534,12.212
				c-7.001,5.99-14.317,12.353-21.714,17.583c-3.941,2.787-9.992,8.28-6.827,12.647C235.722,123.53,233.717,124.568,231.949,126.112
				z M334.299,401.218c-0.856,10.716-0.948,21.333-0.711,32.071c0.215,9.738,1.416,19.438-0.668,29.03
				c-0.412-0.087-0.852-0.136-1.318-0.133c-16.191,0.097-32.243,2.157-48.422,0.499c-13.082-1.34-26.176-4.132-39.353-3.927
				c0.882-4.359,0.511-9.581,0.592-12.591c0.308-11.354,1.214-22.646,1.743-33.995c1.426-30.623,0.372-61.501-0.458-92.13
				c-1.679-61.936-5.157-123.821-5.194-185.795c0-0.156-0.012-0.304-0.021-0.452c3.146-1.276,7.095-1.003,10.315-0.795
				c6.325,0.409,12.624,1.023,18.954,1.454c14.746,1.003,29.861,3.278,44.429,5.782c5.155,0.887,9.671,2.751,12.593,7.256
				c3.521,5.428,3.795,12.723,3.896,18.965c0.104,6.377-0.55,12.747-0.886,19.108c-0.41,7.736,0.361,15.229,1.352,22.902
				c2.05,15.885,3.836,31.43,3.895,47.475c0.061,15.926,0.65,31.8,1.137,47.717c0.496,16.3,0.838,32.605,0.77,48.913
				C336.873,368.895,335.6,384.964,334.299,401.218z M331.291,136.229c-5.068-4.285-11.742-6.429-18.945-7.387
				c-3.095-0.411-6.189-0.849-9.285-1.292c10.441-8.441,18.752-18.814,28.002-28.531c3.173-3.334,6.16-6.848,9.297-10.219
				c1.695-1.823,3.438-3.602,5.242-5.315c0.506-0.479,0.988-0.872,1.529-1.302c0.394-0.312,0.652-0.484,0.791-0.574
				c0.68-0.115,1.292-0.355,1.831-0.687c0.769,0.333,1.571,0.566,2.39,0.726c-6.952,11.84-17.447,21.435-26.15,31.943
				c-4.525,5.465,3.74,12.727,8.264,7.262c10.715-12.938,23.803-24.607,30.795-40.184c0.461-1.025,0.599-2.01,0.496-2.918
				c0.207-0.062,0.416-0.133,0.621-0.173c0.979,1.646,1.781,3.394,2.861,4.972c-3.08,5.217-5.99,10.543-8.992,15.775
				c-3.814,6.65-8.957,12.777-13.586,18.875C341.547,123.659,336.468,129.986,331.291,136.229z M405.782,310.301
				c-2.382,1.401-3.869,4.618-2.506,7.403c-0.002,0.023-0.002,0.041-0.006,0.066c-0.098,0.877-0.311,1.744-0.505,2.604
				c-0.452,2.002-1.087,3.977-1.753,5.916c-1.391,4.039-3.002,7.999-4.604,11.958c-2.822,6.978-4.795,14.332-7.559,21.354
				c-2.93,7.443-6.281,14.712-9.908,21.838c-7.61,14.954-16.163,29.432-24.241,44.134c-3.156,5.745-6.26,11.495-9.506,17.181
				c-0.223-6.514-0.754-13.036-0.873-19.401c-0.306-16.258,2.144-32.432,3.102-48.632c1.907-32.247,0.11-64.953-1.194-97.193
				c-0.636-15.708,0.265-31.425-1.204-47.103c-1.428-15.244-5.164-30.422-4.261-45.791c0.747-12.729,2.349-25.987-2.327-38.193
				c-0.18-0.469-0.383-0.908-0.581-1.354c0.491-0.303,0.963-0.708,1.399-1.234c10.188-12.265,19.897-24.908,29-38
				c7.317-10.521,12.284-22.273,20.093-32.44c1.037,0.09,2.107-0.065,3.074-0.493c1.031,2.209,1.893,4.503,2.711,6.793
				c1.201,3.352,1.18,7.043,1.531,10.576c0.639,6.418,0.965,12.833,0.979,19.281c0.047,24.311,1.863,48.615,3.174,72.879
				l4.072,75.322c0.564,10.436,1.438,20.826,2.153,31.251C406.527,296.079,406.784,303.286,405.782,310.301z"/>
		</g>
	</g>
	<g>
		<g>
			<path fill="#010101" d="M297.959,390.385c-17.073-7.364-28.35,8.568-30.191,23.828c-2.189,0.69-4.072,2.542-4.129,5.433
				c-0.213,11.191,9.602,17.942,19.882,18.727c10.991,0.838,22.31-3.345,28.302-12.925
				C319.733,412.797,310.304,395.711,297.959,390.385z M301.011,421.778c-3.687,4.402-10.632,6.158-16.16,5.736
				c-3.087-0.235-5.794-0.994-7.651-2.531c0.99-0.965,1.587-2.367,1.41-4.186c-0.953-9.837,5.191-27.438,17.754-18.878
				C302.533,406.123,306.256,415.517,301.011,421.778z"/>
		</g>
	</g>
	<g>
		<g>
			<path fill="#010101" d="M173.627,392.424c-7.166-11.105-21.425-11.681-32.177-6.076c-9.595,5.002-13.839,15.158-11.403,24.821
				c-1.332,0.961-2.309,2.467-2.408,4.477c-0.352,7.188,6.396,12.173,12.059,15.146c6.371,3.345,14.338,5.305,21.305,2.854
				c7.867-2.768,13.402-11.156,15.795-18.749C179.275,407.036,178.081,399.326,173.627,392.424z M159.029,422.301
				c-3.359,2.49-7.601,1.385-11.212,0.061c-2.004-0.735-5.399-2.046-7.46-3.975c1.936-1.638,2.964-4.446,1.326-7.24
				c-7.443-12.704,13.062-22.758,22.023-13.681C170.789,404.642,166.052,417.098,159.029,422.301z"/>
		</g>
	</g>
	<g>
		<g>
			<path fill="#010101" d="M320.615,292.848c0.041-14.69,2.034-30.238-0.362-44.803c-1.591-9.681-9.224-13.591-18.336-13.534
				c-4.675,0.029-9.424,0.903-14.062,1.439c-7.34,0.849-14.777,0.785-22.154,0.786c-2.173,0.001-3.594,1.033-4.321,2.463
				c-2.931-1.019-6.38,0.049-6.654,3.973c-1.998,28.569,0.608,57.225,4.913,85.474c0.478,3.129,2.734,5.074,5.909,5.062
				c13.233-0.055,27.966-2.075,40.815,2.195c0.967,1.077,2.37,1.805,4.185,1.805h2c4.048,0,5.882-4.579,4.561-7.801
				c1.499-0.586,2.798-1.769,3.415-3.635C324.039,315.638,320.584,303.757,320.615,292.848z M309.726,324.172
				c-0.143,0.431-0.229,0.841-0.271,1.231c-12.66-3.944-26.373-3.049-39.611-2.745c-3.606-24.778-5.965-50.042-4.46-75.062
				c0.368,0.07,0.755,0.11,1.164,0.11c10.726-0.003,21.202-0.709,31.849-1.911c2.908-0.328,6.279-0.809,9.031,0.432
				c3.258,1.468,2.398,8.568,2.507,11.24c0.517,12.718-0.26,25.457-0.296,38.178C309.613,305.041,312.758,314.999,309.726,324.172z"
				/>
		</g>
	</g>
	<g>
		<g>
			<path fill="#010101" d="M189.609,243.798c0.007-2.361-1.209-3.834-2.831-4.493c-0.032-0.053-0.06-0.105-0.095-0.158
				c-5.569-8.413-16.224-10.093-25.541-10.635c-9.323-0.543-19.759,0.587-28.295,4.528c-7.857,3.628-11.871,10.301-12.802,18.746
				c-1.417,12.867-0.324,26.158-0.632,39.084c-0.261,10.952-3.406,24.074,2.686,34.016c5.182,8.456,16.613,8.794,25.343,8.828
				c7.483,0.03,14.943,0.345,22.417-0.204c3.496-0.257,6.918-0.919,10.339-1.655c3.849-0.828,5.07-3.186,6.134-6.709
				c3.38-11.199,2.373-23.554,2.281-35.101C188.492,274.624,189.566,259.219,189.609,243.798z M175.998,321.55
				c-9.008,1.84-18.369,1.348-27.508,1.214c-4.789-0.069-13.229,0.926-16.785-3.349c-4.121-4.953-1.948-14.271-1.659-20.001
				c0.536-10.636,0.554-21.296,0.563-31.942c0.005-6.266-0.496-12.824,1.226-18.925c1.341-4.75,7.212-6.363,11.332-7.486
				c6.028-1.642,12.62-1.821,18.821-1.579c5.141,0.202,12.486,1.148,15.577,5.815c0.319,0.483,0.677,0.878,1.056,1.207
				c-0.112,14.8-1.023,29.585-0.979,44.388C177.673,300.65,179.062,311.994,175.998,321.55z"/>
		</g>
	</g>
</g>
</svg>
