<?xml version="1.0" encoding="utf-8"?>
<!-- Generator: Adobe Illustrator 16.0.3, SVG Export Plug-In . SVG Version: 6.00 Build 0)  -->
<!DOCTYPE svg PUBLIC "-//W3C//DTD SVG 1.1//EN" "http://www.w3.org/Graphics/SVG/1.1/DTD/svg11.dtd">
<svg version="1.1" id="Layer_1" xmlns="http://www.w3.org/2000/svg" xmlns:xlink="http://www.w3.org/1999/xlink" x="0px" y="0px"
	 width="512px" height="512px" viewBox="0 0 512 512" enable-background="new 0 0 512 512" xml:space="preserve">
<g>
	<g>
		<g>
			<path fill="#F6851F" d="M158.425,271.373c-9.797-8.688-24.763-12.41-37.506-9.037c-14.117,3.735-22.418,14.531-21.995,29.24
				c0.087,3.024-1.867,4.908-4.147,5.527c5.239,14.998,20.608,24.114,36.855,25.36c11.602,0.89,26.094-2.601,32.382-13.397
				C171.014,297.047,168.946,280.705,158.425,271.373z"/>
		</g>
	</g>
	<g>
		<g>
			<path fill="#F6851F" d="M417.652,248.461c-10.291-9.377-26.167-8.128-37.751-1.75c-13.071,7.196-22.635,19.71-22.98,34.843
				c0,0.008,0.002,0.015,0.002,0.022c0.414,8.678,3.26,17.021,10.538,22.273c5.995,4.326,13.869,5.727,21.121,5.152
				c12.815-1.012,26.506-7.5,33.211-18.924C429.051,277.712,428.867,258.68,417.652,248.461z"/>
		</g>
	</g>
	<g>
		<g>
			<path fill="#FEBF10" d="M459.597,186.593c-9.083-23.447-22.219-45.441-38.096-64.916
				c-32.019-39.277-76.941-71.064-127.583-79.847c-54.575-9.463-112.498,10.346-156.454,42.496
				c-22.55,16.494-42.875,36.82-56.866,61.162c-7.978,13.88-14.158,28.537-19.207,43.611c-5.545,9.997-9.411,21.002-12.395,31.936
				c-2.864,10.492-4.902,21.375-5.898,32.317c-0.246,0.945-0.505,1.888-0.796,2.823c-0.176,0.566-0.42,1.064-0.715,1.5
				c-0.604,5.3-0.979,10.646-1.002,16.076c-0.078,17.893,1.975,35.86,6.252,53.242c10.883,44.227,34.07,87.921,71.034,115.71
				c21.682,16.301,47.362,24.579,74.134,27.747c29.256,3.462,59.565,2.446,88.706-1.685c28.885-4.096,58.082-11.26,84.073-24.874
				c23.308-12.208,42.546-29.005,58.472-49.896c29.556-38.771,47.412-87.909,48.11-136.792
				C471.708,233.197,468.298,209.055,459.597,186.593z M177.331,305.871c-4.569,13.943-15.789,23.247-30.042,26.344
				c-29.365,6.382-63.681-11.559-65.335-43.791c-0.216-4.201,3.553-6.207,6.733-5.669c2.678-14.56,12.46-26.533,27.794-30.591
				c16.643-4.404,36.318-1,49.206,10.945C177.168,273.751,182.291,290.737,177.331,305.871z M194.247,227.818
				c-3.428-9.259-14.545-15.291-23.933-16.381c-4.527-0.525-5.636-0.098-9.58,2.168c-1.502,0.863-3.02,1.744-4.435,2.753
				c1.193,3.747-1.217,8.5-5.91,7.04c-6.763-2.104-8.732-8.642-3.344-13.65c2.5-2.323,5.429-4.123,8.415-5.752
				c2.258-1.23,4.973-3.182,7.556-3.48c16.28-1.892,35.758,7.844,41.615,23.666C207.1,230.852,196.705,234.459,194.247,227.818z
				 M288.264,348.542c-1.891,7.892-5.101,16.222-11.311,21.733c-7.559,6.707-19.16,7.044-27.675,1.686
				c-9.426-5.932-15.462-15.112-20.399-24.885c-3.157-6.249,5.924-12.477,9.119-6.152c3.417,6.764,7.307,14.048,13.227,18.97
				c4.71,3.916,12.321,7.144,17.805,2.763c4.036-3.225,6.427-8.748,7.767-13.613c0.65-2.363,1.22-4.768,1.503-7.205
				c0.171-1.477,0.19-0.645,0.123-1.869c-0.007-0.246-0.026-0.491-0.06-0.734c0.211,2.049,1.554,3.438,4.026,4.164
				c-6.704-2.068-4.675-12.889,2.099-10.797C291.318,334.709,289.542,343.211,288.264,348.542z M332.923,215.576
				c0,7.059-10.97,7.937-10.97,0.848v-6c0-2.729,1.276-4.447,3.666-5.615c8.34-4.076,17.957-7.469,27.39-6.088
				c9.069,1.328,16.027,6.658,20.989,14.203c3.898,5.929-5.217,12.086-9.119,6.152c-8.031-12.214-20.359-10.551-31.956-5.57V215.576
				z M437.004,280.582c-2.898,15.162-13.328,27.139-27.011,33.826c-12.602,6.158-28.116,7.854-41.308,2.514
				c-13.115-5.311-20.623-17.137-22.372-30.638c-0.209-0.546-0.338-1.163-0.36-1.86c-0.595-18.915,9.809-36.535,26.183-45.926
				c14.257-8.177,33.002-11.447,47.623-2.216C434.068,245.316,440.101,264.382,437.004,280.582z"/>
		</g>
	</g>
	<g>
		<g>
			<path fill="#010101" d="M472.191,191.259c-7.563-23.483-20.11-45.723-34.605-65.584c-29.985-41.084-72.325-74.054-121.211-89.05
				C264.079,20.582,208.6,32.451,161.134,57.43c-31.151,16.393-59.95,39.982-80.367,68.797
				c-12.212,17.236-21.066,36.309-27.945,56.136c-0.346,0.312-0.668,0.672-0.952,1.103c-1.134,1.715-2.147,3.529-3.066,5.409
				c-2.884,5.294-4.762,11.36-6.673,17.03c-0.592,1.758-1.698,4.441-2.353,7.179c-0.406,0.559-0.722,1.23-0.889,2.051
				c-2.585,12.722-5.829,25.29-7.336,38.206c-1.291,11.058-1.517,22.248-0.986,33.36c1.108,23.138,6.08,46.159,13.796,67.967
				c15.097,42.67,42.626,82.675,82.03,106.071c24.25,14.397,53.221,19.781,81.037,21.354c29.367,1.66,59.055-0.15,88.013-5.254
				c28.329-4.993,55.977-13.608,81.158-27.67c22.388-12.501,40.811-30.277,56.153-50.678c29.442-39.147,46.388-87.405,48.713-136.25
				C482.609,238.283,479.546,214.096,472.191,191.259z M471.366,257.204c-0.699,48.883-18.554,98.021-48.11,136.792
				c-15.925,20.892-35.164,37.688-58.472,49.896c-25.991,13.614-55.188,20.778-84.073,24.874
				c-29.141,4.131-59.45,5.146-88.706,1.685c-26.772-3.168-52.453-11.446-74.134-27.747c-36.963-27.789-60.15-71.483-71.034-115.71
				c-4.277-17.382-6.331-35.35-6.252-53.242c0.023-5.43,0.398-10.776,1.002-16.076c0.295-0.436,0.54-0.934,0.715-1.5
				c0.291-0.936,0.55-1.878,0.796-2.823c0.996-10.942,3.034-21.825,5.898-32.317c2.984-10.934,6.85-21.938,12.395-31.936
				c5.049-15.074,11.229-29.731,19.207-43.611c13.991-24.342,34.315-44.668,56.866-61.162
				c43.956-32.15,101.879-51.959,156.454-42.496c50.643,8.782,95.565,40.569,127.583,79.847
				c15.876,19.475,29.013,41.469,38.096,64.916C468.298,209.055,471.708,233.197,471.366,257.204z"/>
		</g>
	</g>
	<g>
		<g>
			<path fill="#010101" d="M204.63,224.182c-5.857-15.822-25.335-25.558-41.615-23.666c-2.583,0.299-5.298,2.25-7.556,3.48
				c-2.985,1.629-5.915,3.429-8.415,5.752c-5.388,5.009-3.419,11.547,3.344,13.65c4.693,1.46,7.104-3.293,5.91-7.04
				c1.416-1.009,2.933-1.89,4.435-2.753c3.944-2.266,5.052-2.693,9.58-2.168c9.388,1.09,20.505,7.122,23.933,16.381
				C196.705,234.459,207.1,230.852,204.63,224.182z"/>
		</g>
	</g>
	<g>
		<g>
			<path fill="#010101" d="M373.998,212.924c-4.961-7.545-11.919-12.875-20.989-14.203c-9.433-1.381-19.049,2.012-27.39,6.088
				c-2.39,1.168-3.666,2.887-3.666,5.615v6c0,7.089,10.97,6.211,10.97-0.848v-2.07c11.596-4.98,23.925-6.644,31.956,5.57
				C368.781,225.01,377.896,218.853,373.998,212.924z"/>
		</g>
	</g>
	<g>
		<g>
			<path fill="#010101" d="M284.488,332.602c-6.774-2.092-8.802,8.729-2.099,10.797c-2.473-0.727-3.815-2.115-4.026-4.164
				c0.033,0.243,0.053,0.488,0.06,0.734c0.068,1.225,0.049,0.393-0.123,1.869c-0.283,2.438-0.853,4.842-1.503,7.205
				c-1.34,4.865-3.731,10.389-7.767,13.613c-5.484,4.381-13.095,1.153-17.805-2.763c-5.92-4.922-9.81-12.206-13.227-18.97
				c-3.195-6.324-12.276-0.097-9.119,6.152c4.937,9.772,10.974,18.953,20.399,24.885c8.515,5.358,20.116,5.021,27.675-1.686
				c6.21-5.512,9.42-13.842,11.311-21.733C289.542,343.211,291.318,334.709,284.488,332.602z"/>
		</g>
	</g>
	<g>
		<g>
			<path fill="#010101" d="M165.687,263.109c-12.888-11.945-32.563-15.35-49.206-10.945c-15.334,4.058-25.116,16.031-27.794,30.591
				c-3.18-0.538-6.949,1.468-6.733,5.669c1.655,32.232,35.97,50.173,65.335,43.791c14.253-3.097,25.473-12.4,30.042-26.344
				C182.291,290.737,177.168,273.751,165.687,263.109z M164.014,309.066c-6.289,10.797-20.781,14.287-32.382,13.397
				c-16.248-1.246-31.617-10.362-36.855-25.36c2.281-0.619,4.234-2.503,4.147-5.527c-0.423-14.709,7.878-25.505,21.995-29.24
				c12.744-3.373,27.709,0.349,37.506,9.037C168.946,280.705,171.014,297.047,164.014,309.066z"/>
		</g>
	</g>
	<g>
		<g>
			<path fill="#010101" d="M419.759,236.282c-14.621-9.231-33.365-5.961-47.623,2.216c-16.374,9.391-26.778,27.011-26.183,45.926
				c0.022,0.697,0.151,1.314,0.36,1.86c1.75,13.501,9.257,25.327,22.372,30.638c13.192,5.34,28.706,3.645,41.308-2.514
				c13.683-6.688,24.112-18.664,27.011-33.826C440.101,264.382,434.068,245.316,419.759,236.282z M421.793,290.078
				c-6.705,11.424-20.396,17.912-33.211,18.924c-7.252,0.574-15.126-0.826-21.121-5.152c-7.278-5.252-10.124-13.596-10.538-22.273
				c0-0.008-0.002-0.015-0.002-0.022c0.345-15.133,9.91-27.646,22.98-34.843c11.583-6.378,27.46-7.627,37.751,1.75
				C428.867,258.68,429.051,277.712,421.793,290.078z"/>
		</g>
	</g>
</g>
</svg>
