<?xml version="1.0" encoding="utf-8"?>
<!-- Generator: Adobe Illustrator 16.0.3, SVG Export Plug-In . SVG Version: 6.00 Build 0)  -->
<!DOCTYPE svg PUBLIC "-//W3C//DTD SVG 1.1//EN" "http://www.w3.org/Graphics/SVG/1.1/DTD/svg11.dtd">
<svg version="1.1" id="Layer_1" xmlns="http://www.w3.org/2000/svg" xmlns:xlink="http://www.w3.org/1999/xlink" x="0px" y="0px"
	 width="512px" height="512px" viewBox="0 0 512 512" enable-background="new 0 0 512 512" xml:space="preserve">
<g>
	<g>
		<g>
			<path fill="#D6E5E5" d="M279.746,195.449c1.805-7.363,6.762-15.322,14.789-17.12c8.326-1.864,16.746-1.492,25.172-2.022
				c0.105-15.416,0.613-30.951-0.256-46.315c-0.49-8.707-0.734-17.353-0.781-26.053c-15.143,0.541-30.283,1.307-45.416,1.777
				c-20.363,0.633-44.973,4.038-59.775,19.612c-9.406,9.897-13.033,22.631-13.08,36.135c-0.059,15.892,0.338,31.414-1.215,47.277
				c-0.6,6.115-1.137,12.237-1.65,18.362h-3.982c-0.627,0.321-1.332,0.508-2.117,0.502c-7.098-0.057-14.189-0.755-21.281-0.981
				c-3.916-0.124-7.85-0.243-11.766-0.045c-1.359,0.069-2.736,0.145-4.09,0.341c0.068,15.762,0.479,31.667-1.396,47.324
				c5.402,0.975,10.873,1.668,16.328,2.088c4.848,0.373,13.711,1.604,17.555-1.23c5.561-4.102,11.492,4.011,7.273,8.602
				c-1.615,41.056-1.234,82.191,1.408,123.188c7.541,0.261,14.908,0.578,22.609,0.578h60.252
				c-0.09-41.865-1.221-83.724-1.318-125.589h0.438c-0.748-3.134,0.77-6.703,4.881-6.703h26.283
				c0.303-0.335,0.643-0.633,1.018-0.881c0.014-0.042,0.029-0.084,0.041-0.123c0.297-1.033,0.68-2.13,0.764-3.209
				c0.359-4.583,0.592-9.363,1.074-13.939c1.041-9.859,3.953-19.334,6.146-28.966c-3.068,0.158-6.014,0.039-8.018,0.053
				c-8.402,0.057-16.787-0.459-25.184-0.507c-0.912-0.005-1.725-0.188-2.434-0.502h-4.416c0.018-0.604,0.029-1.21,0.049-1.815
				C277.953,215.536,277.406,205.005,279.746,195.449z"/>
		</g>
	</g>
	<g>
		<g>
			<path fill="#1E4384" d="M474.158,161.739c-16.125-46.552-46.66-87.148-91.268-109.607
				C331.941,26.481,271.938,24.06,216.475,32.87c-49.779,7.906-102.279,25.918-139.578,61.098
				c-19.578,18.467-34.738,40.916-42.662,66.768c-7.961,25.975-10.365,53.114-12.104,80.102c-0.072,1.145-0.426,2.039-0.953,2.711
				c0.031,0.247,0.051,0.502,0.051,0.772c0,52.927-1.062,108.335,30.076,153.938c25.32,37.082,64.48,61.467,107.197,73.711
				c88,25.225,194.16,9.605,264.924-50.809C497.533,357.89,504.342,248.876,474.158,161.739z M304.355,216.774
				c4.145,0.023,8.311,0.038,12.447-0.279c1.402-0.108,2.82-0.218,4.209-0.461c3.197-3.667,10.932-1.155,9.922,4.918
				c-0.156,0.942-0.486,1.757-0.943,2.47c0.043,0.521,0.023,1.074-0.09,1.665c-1.588,8.291-4.121,16.357-5.768,24.633
				c-1.482,7.459-1.908,15.344-2.502,22.909c-0.238,3.062-1.467,8.563-3.865,10.736c-0.338,0.307-0.689,0.562-1.047,0.794
				c-0.779,1.379-2.215,2.356-4.363,2.356h-23.996c0.215,41.375,1.305,82.741,1.322,124.118c0.002,1.493-0.479,2.714-1.234,3.656
				c-0.24,2.402-1.865,4.518-5.029,4.518h-77.859c-2.91,0-5.762-0.052-8.656-0.364c-0.416-0.045-0.834-0.092-1.252-0.138
				c-1.922,1.721-4.844,2.302-7.375,0.137c-1.732-1.48-2.566-3.13-2.717-4.71c-0.703-0.808-1.174-1.889-1.266-3.257
				c-2.688-40.197-3.223-80.537-1.783-120.797c0.021-0.573,0.049-1.146,0.072-1.721c-4.439,0.381-9.08-0.02-12.977-0.283
				c-8.094-0.548-16.205-1.593-24.137-3.315c-3.109-0.676-4.986-3.553-4.494-6.665c2.771-17.559,1.982-35.518,1.977-53.245v-0.182
				c0-1.895,0.768-3.354,1.898-4.354c3.312-6.201,15.445-4.851,21.014-4.722c6.771,0.157,13.541,0.732,20.312,0.971
				c0.357-0.58,0.811-1.079,1.33-1.483c0.758-7.923,1.443-15.849,1.768-23.777c0.633-15.51-2.197-31.844,1.703-47.071
				c2.967-11.582,8.697-21.725,17.793-29.576c16.541-14.279,39.787-18.972,61.066-19.788c20.195-0.774,40.443-1.889,60.686-2.326
				v11.435c-0.164,0.004-0.33,0.006-0.494,0.01c0.061,6.056,0.264,12.087,0.494,18.128v7.205h0.279
				c0.027,0.703,0.055,1.403,0.082,2.106c0.635,16.4,0.141,32.902,0.141,49.315c0,2.081-0.926,3.64-2.244,4.639
				c-0.824,1.213-2.152,2.116-4.021,2.319c-4.928,0.535-9.871,0.499-14.818,0.67c-4.131,0.143-9.326-0.163-13.125,1.688
				c-6.625,3.228-6.947,11.915-7.225,18.386c-0.119,2.776-0.217,5.555-0.312,8.331C294.303,216.514,299.326,216.745,304.355,216.774
				z"/>
		</g>
	</g>
	<g>
		<g>
			<path d="M487.826,168.675c-14.17-46.857-40.941-88.285-82.014-115.738c-46.359-30.985-105.275-38.447-159.783-34.447
				C194.33,22.284,141.4,36.388,97.434,64.468c-21.602,13.795-40.879,31.898-54.967,53.381
				c-14.859,22.66-22.512,48.775-26.58,75.363c-2.311,15.085-3.439,30.333-4.418,45.553c-0.062,0.949,0.094,1.805,0.398,2.563
				c-0.889,0.938-1.473,2.218-1.473,3.828c0,30.126-0.645,60.399,4.645,90.183c4.822,27.145,15.229,52.928,31.631,75.148
				c29.15,39.498,73.502,63.312,120.389,74.99c88.939,22.154,194.244,3.654,264.5-57.08
				C505.537,364.444,514.717,257.61,487.826,168.675z M423.426,421.161c-70.764,60.414-176.924,76.033-264.924,50.809
				c-42.717-12.244-81.877-36.629-107.197-73.711C20.166,352.655,21.229,297.247,21.229,244.32c0-0.271-0.02-0.525-0.051-0.772
				c0.527-0.672,0.881-1.566,0.953-2.711c1.738-26.987,4.143-54.127,12.104-80.102c7.924-25.852,23.084-48.301,42.662-66.768
				c37.299-35.18,89.799-53.191,139.578-61.098c55.463-8.811,115.467-6.389,166.416,19.262
				c44.607,22.459,75.143,63.056,91.268,109.607C504.342,248.876,497.533,357.89,423.426,421.161z"/>
		</g>
	</g>
	<g>
		<g>
			<path d="M321.012,216.034c-1.389,0.243-2.807,0.353-4.209,0.461c-4.137,0.317-8.303,0.303-12.447,0.279
				c-5.029-0.029-10.053-0.261-15.078-0.402c0.096-2.776,0.193-5.555,0.312-8.331c0.277-6.471,0.6-15.158,7.225-18.386
				c3.799-1.852,8.994-1.546,13.125-1.688c4.947-0.171,9.891-0.135,14.818-0.67c1.869-0.203,3.197-1.106,4.021-2.319
				c1.318-0.999,2.244-2.558,2.244-4.639c0-16.413,0.494-32.915-0.141-49.315c-0.027-0.703-0.055-1.403-0.082-2.106h-0.279v-7.205
				c-0.23-6.041-0.434-12.072-0.494-18.128c0.164-0.004,0.33-0.006,0.494-0.01V92.14c-20.242,0.438-40.49,1.552-60.686,2.326
				c-21.279,0.816-44.525,5.509-61.066,19.788c-9.096,7.852-14.826,17.994-17.793,29.576c-3.9,15.228-1.07,31.562-1.703,47.071
				c-0.324,7.929-1.01,15.854-1.768,23.777c-0.52,0.404-0.973,0.903-1.33,1.483c-6.771-0.238-13.541-0.813-20.312-0.971
				c-5.568-0.129-17.701-1.479-21.014,4.722c-1.131,1.001-1.898,2.46-1.898,4.354v0.182c0.006,17.728,0.795,35.687-1.977,53.245
				c-0.492,3.112,1.385,5.989,4.494,6.665c7.932,1.723,16.043,2.768,24.137,3.315c3.896,0.264,8.537,0.664,12.977,0.283
				c-0.023,0.574-0.051,1.147-0.072,1.721c-1.439,40.26-0.904,80.6,1.783,120.797c0.092,1.368,0.562,2.449,1.266,3.257
				c0.15,1.58,0.984,3.229,2.717,4.71c2.531,2.165,5.453,1.584,7.375-0.137c0.418,0.046,0.836,0.093,1.252,0.138
				c2.895,0.312,5.746,0.364,8.656,0.364h77.859c3.164,0,4.789-2.115,5.029-4.518c0.756-0.942,1.236-2.163,1.234-3.656
				c-0.018-41.377-1.107-82.743-1.322-124.118h23.996c2.148,0,3.584-0.978,4.363-2.356c0.357-0.231,0.709-0.487,1.047-0.794
				c2.398-2.173,3.627-7.675,3.865-10.736c0.594-7.565,1.02-15.45,2.502-22.909c1.646-8.275,4.18-16.342,5.768-24.633
				c0.113-0.591,0.133-1.145,0.09-1.665c0.457-0.713,0.787-1.527,0.943-2.47C331.943,214.879,324.209,212.367,321.012,216.034z
				 M311.506,257.024c-0.482,4.576-0.715,9.356-1.074,13.939c-0.084,1.079-0.467,2.176-0.764,3.209
				c-0.012,0.039-0.027,0.081-0.041,0.123c-0.375,0.248-0.715,0.546-1.018,0.881h-26.283c-4.111,0-5.629,3.569-4.881,6.703h-0.438
				c0.098,41.865,1.229,83.724,1.318,125.589h-60.252c-7.701,0-15.068-0.317-22.609-0.578c-2.643-40.997-3.023-82.133-1.408-123.188
				c4.219-4.591-1.713-12.703-7.273-8.602c-3.844,2.834-12.707,1.604-17.555,1.23c-5.455-0.42-10.926-1.113-16.328-2.088
				c1.875-15.657,1.465-31.562,1.396-47.324c1.354-0.196,2.73-0.271,4.09-0.341c3.916-0.198,7.85-0.079,11.766,0.045
				c7.092,0.227,14.184,0.925,21.281,0.981c0.785,0.006,1.49-0.181,2.117-0.502h3.982c0.514-6.125,1.051-12.247,1.65-18.362
				c1.553-15.863,1.156-31.386,1.215-47.277c0.047-13.504,3.674-26.237,13.08-36.135c14.803-15.574,39.412-18.979,59.775-19.612
				c15.133-0.471,30.273-1.236,45.416-1.777c0.047,8.7,0.291,17.346,0.781,26.053c0.869,15.364,0.361,30.899,0.256,46.315
				c-8.426,0.53-16.846,0.158-25.172,2.022c-8.027,1.798-12.984,9.757-14.789,17.12c-2.34,9.556-1.793,20.087-2.096,29.838
				c-0.02,0.605-0.031,1.211-0.049,1.815h4.416c0.709,0.314,1.521,0.497,2.434,0.502c8.396,0.048,16.781,0.563,25.184,0.507
				c2.004-0.014,4.949,0.105,8.018-0.053C315.459,237.69,312.547,247.165,311.506,257.024z"/>
		</g>
	</g>
</g>
</svg>
