<?xml version="1.0" encoding="utf-8"?>
<!-- Generator: Adobe Illustrator 16.0.3, SVG Export Plug-In . SVG Version: 6.00 Build 0)  -->
<!DOCTYPE svg PUBLIC "-//W3C//DTD SVG 1.1//EN" "http://www.w3.org/Graphics/SVG/1.1/DTD/svg11.dtd">
<svg version="1.1" id="Layer_1" xmlns="http://www.w3.org/2000/svg" xmlns:xlink="http://www.w3.org/1999/xlink" x="0px" y="0px"
	 width="512px" height="512px" viewBox="0 0 512 512" enable-background="new 0 0 512 512" xml:space="preserve">
<g>
	<g>
		<g>
			<path fill="#EF4754" d="M380.024,138.748c-4.236-14.125-15.246-24.477-28.254-30.847c-14.642-7.17-31.142-9.875-47.36-10.104
				c-0.595-0.008-1.191-0.014-1.79-0.016c0,0.085,0,0.17,0,0.255c-3.657-0.012-7.344,0.427-10.944,1.171
				c0.003-0.31,0.003-0.616,0.007-0.926c-5.239,0.567-10.397,1.705-15.208,3.86c-6.252,2.801-15.661,8.994-16.187,16.499
				c-0.245,3.495-3.009,4.724-5.681,4.232c0.478,6.956,0.395,14.018,0.043,20.861c0.942,1.651,1.141,3.766,0.293,5.48
				c4.658,0.687,9.146,1.962,13.173,4.073c0.217-11.203,9.095-20.14,20.098-24.506c12.524-4.969,29.205-6.388,41.045,1.175
				c5.576,3.562,10.507,9.942,10.536,16.871c0.042,10.072-7.268,14.861-16.483,16.25c-7.033,1.059-7.809-9.922-0.847-10.971
				c2.041-0.307,6.029-0.903,6.326-3.568c0.237-2.127-0.622-4.419-1.885-6.115c-2.16-2.902-5.607-4.716-9.08-5.557
				c-9.062-2.193-19.89-1.177-28.189,3.272c-8.246,4.42-14.237,12.097-8.024,21.246c6.233,9.178,18.607,16.173,29.853,15.723
				c2.908-0.116,4.763,1.665,5.452,3.823c2.288-0.401,4.588-0.732,6.882-1.008c12.572-1.512,25.338-3.112,38.014-3.215
				c0.325-0.003,0.652,0.001,0.978,0c0.546-1.907,2.074-3.47,4.675-3.6c6.535-0.324,10.239-8.381,12.157-13.712
				C382.01,152.763,382.051,145.504,380.024,138.748z"/>
		</g>
	</g>
	<g>
		<g>
			<path fill="#3AB37C" d="M289.571,68.007c-1.276-5.34-4.787-20.202-12.535-17.872c-7.656,2.302-13.903,8.754-18.88,14.736
				c-4.181,5.024-9.456,11.684-10.631,17.769c-0.448,2.317-1.943,3.626-3.688,4.091c4.25,6.209,6.998,13.423,8.695,21.12
				c3.835-6.109,10.576-11.103,16.266-14.156c7.011-3.762,14.915-5.705,22.884-6.482C291.548,80.716,291.06,74.238,289.571,68.007z"
				/>
		</g>
	</g>
	<g>
		<g>
			<path fill="#3AB37C" d="M221.689,81.518c-7.528,16.502-14.764,40.354-0.167,53.94c0.714,0.665,1.196,1.381,1.494,2.112
				c4.034-0.404,8.066-0.223,11.933,0.875c0.544-0.235,1.132-0.364,1.755-0.34c2.589,0.102,4.883,0.68,7.263,1.454
				C244.926,117.812,242.874,91.238,221.689,81.518z"/>
		</g>
	</g>
	<g>
		<g>
			<path fill="#3AB37C" d="M389.933,163.138c-1.781,5.75-4.589,11.155-8.539,15.034c6.706,1.213,13.214,3.305,19.156,6.755
				c1.624,0.943,3.245,1.985,4.84,3.103c0.726-1.521,2.146-2.709,4.312-2.925c1.307-0.129,3.688-6.107,4.217-7.447
				c0.996-2.524,1.996-5.316,2.459-8.095C408.027,165.004,399.449,163.439,389.933,163.138z"/>
		</g>
	</g>
	<g>
		<g>
			<path fill="#3AB37C" d="M191,125.278c-5.416-4.192-10.733-8.418-17.133-10.984c-6.027-2.417-12.427-4.283-18.891-5.044
				c-2.849-0.335-5.803-0.536-8.644,0.014c-0.309,0.06-0.709,0.257-1.061,0.435c0.481,4.281,2.698,8.545,4.557,12.305
				c2.389,4.832,5.096,9.51,7.846,14.144c2.246,3.784,4.276,8.732,7.332,11.874c4.764,4.898,10.678,6.966,17.461,7.084
				c0.419,0.007,0.815,0.056,1.19,0.135c6.242-5.747,13.697-10.01,21.702-13.051c1.54-0.585,3.128-1.153,4.746-1.688
				C203.695,135.479,197.44,130.263,191,125.278z"/>
		</g>
	</g>
	<g>
		<g>
			<path fill="#BCBCBC" d="M110.352,337.264c-1.334-6.42-3.638-13.396-6.208-19.429c-0.796-1.869-1.72-3.668-2.583-5.481
				c-0.329,0.519-0.667,1.034-1.017,1.545c-2.918,4.273-5.092,8.448-6.918,13.314c-3.343,8.911-5.443,18.566-2.725,27.941
				c2.298,7.926,6.452,15.008,14.582,17.962c1.397,0.508,2.834,0.825,4.294,1.019c-0.05-1.578,0.511-3.215,1.598-4.384
				C108.11,359.149,112.594,348.054,110.352,337.264z"/>
		</g>
	</g>
	<g>
		<g>
			<path fill="#EF4754" d="M408.398,205.709c-8.724-11.084-22.144-16.552-35.932-17.72c-13.368-1.132-26.84,0.702-40.123,2.057
				c-12.813,1.307-26.02,2.718-36.377,11.104c-0.216,0.175-0.434,0.322-0.651,0.457c0.08,2.818-0.122,5.633-0.599,8.455
				c18.765-10.896,41.278-17.924,62.879-17.531c10.235,0.187,19.801,1.831,28.426,7.678c7.155,4.852,13.695,13.616,10.66,22.702
				c-4.943,14.801-26.959,17.233-40.188,17.165c-7.811-0.04-19.008-0.286-23.858-7.669c-6.05-9.209,0.638-19.364,11.305-18.214
				c7.057,0.761,4.9,11.552-2.099,10.798c-2.055-0.221,2.63,2.85,3.547,3.066c2.771,0.653,5.567,0.995,8.414,1.032
				c4.787,0.063,9.567-0.167,14.301-0.926c6.651-1.066,25.638-5.792,15.517-15.74c-10.638-10.456-26.926-9.923-40.665-7.802
				c-16.589,2.562-32.835,8.478-46.989,17.53c-1.84,1.177-3.697,1.124-5.213,0.378c-0.382,0.816-0.777,1.622-1.192,2.409
				c1.918,0.976,3.271,2.959,2.728,5.703c-0.291,1.47-0.365,2.899,0.157,4.338c2.93,8.084,12.14,13.427,19.323,17.248
				c8.237,4.382,16.778,8.208,26.095,9.499c13.447,1.864,27.308,0.048,40.017-4.667c11.589-4.299,25.165-10.786,31.861-21.772
				C415.656,225.584,415.568,214.819,408.398,205.709z"/>
		</g>
	</g>
	<g>
		<g>
			<path fill="#3AB37C" d="M287.259,248.723c-1.521-1.074-2.131-2.435-2.109-3.783c-1.801-2.658-3.11-5.525-3.698-8.613
				c-4.193,4.457-9.116,8.062-14.543,10.769c-0.522,1.187-1.551,2.183-3.199,2.687c-17.165,5.246-27.007,22.096-27.465,39.338
				c14.26-0.46,28.309-4.702,40.045-13.025C282.636,271.594,297.666,256.069,287.259,248.723z"/>
		</g>
	</g>
	<g>
		<g>
			<path fill="#3AB37C" d="M301.099,258.905c-0.617,3.516-1.917,7.055-3.636,10.324c4.312-2.137,9.002-3.713,13.788-4.899
				C308.002,262.775,304.516,260.974,301.099,258.905z"/>
		</g>
	</g>
	<g>
		<g>
			<path fill="#EF4754" d="M278.439,181.8c-4.114-8.293-10.148-17.954-19.678-20.453c-7.14-1.873-14.62-1.985-21.934-1.255
				c-13.123,1.31-33.708,5.435-39.861,19.024c-7.892,17.428,14.987,32.333,29.67,33.476c7.658,0.596,20.577-1.894,23.653-10.234
				c2.223-6.028-1.383-14.841-8.58-11.576c-6.475,2.938-10.039-7.479-3.638-10.383c17.7-8.032,29.474,15.567,20.697,29.412
				c-10.265,16.192-35.162,16.682-50.592,8.872c-15.371-7.78-29.908-26.753-21.064-44.461c7.409-14.834,25.421-21.257,40.711-23.971
				c1.728-0.307,3.521-0.587,5.357-0.832c-8.952-3.793-21.57,1.645-29.679,5.497c-9.819,4.665-18.678,12.607-22.424,23.036
				c-7.235,20.144,7.974,41.055,23.874,51.969c16.226,11.138,40.51,17.287,58.715,6.94c9.722-5.525,17.255-15.333,19.771-26.308
				C285.828,200.129,283.101,191.2,278.439,181.8z"/>
		</g>
	</g>
	<g>
		<g>
			<path fill="#3AB37C" d="M291.196,183.44c0.437,1.101,0.862,2.206,1.253,3.316c0.321,0.911,0.605,1.819,0.874,2.726
				c1.808-1.184,3.689-2.219,5.624-3.139C296.321,185.595,293.717,184.622,291.196,183.44z"/>
		</g>
	</g>
	<g>
		<g>
			<path fill="#3AB37C" d="M429.732,277.521c-9.127-7.704-19.586-10.481-30.891-13.532c-1.695-0.458-2.84-1.472-3.5-2.708
				c-3.065,1.661-6.201,3.136-9.324,4.41c-4.119,1.679-8.323,3.101-12.579,4.247c5.189,5.004,9.459,11.204,12.922,17.134
				c0.825,1.414,1.619,2.847,2.378,4.296c2.67,0.413,5.181,1.262,7.794,2.01c1.545,0.231,3.034,0.591,4.475,1.064
				c4.868,0.952,9.816,1.749,14.749,2.223c9.859,0.948,19.726,0.462,29.526-0.729C442.477,288.658,435.054,282.012,429.732,277.521z
				"/>
		</g>
	</g>
	<g>
		<g>
			<path fill="#3AB37C" d="M455.52,231.183c-11.391,1.027-22.467,4.304-33.9,4.827c-3.395,7.215-9.064,13.418-15.776,18.531
				c9.98,2.816,19.298,6.037,27.665,12.02c0.783-0.757,1.842-1.296,3.195-1.455c11.092-1.305,20.453-9.04,28.69-16.008
				c5.698-4.82,11.25-9.942,17.236-14.44C473.829,232.083,464.954,230.333,455.52,231.183z"/>
		</g>
	</g>
	<g>
		<g>
			<path fill="#3AB37C" d="M431.375,336.12c-3.313-4.498-6.756-8.905-10.769-12.805c-3.363-3.268-7.76-8.243-12.529-9.326
				c-3.224-0.732-4.486-3.475-4.213-6.033c-1.382-0.979-2.847-1.891-4.369-2.588c-0.506-0.102-1.016-0.195-1.519-0.307
				c-1.073-0.239-2.181-0.594-3.303-0.976c-0.042-0.002-0.082-0.008-0.124-0.01c-0.19-0.008-0.373-0.04-0.56-0.061
				c1.25,4.226,2.002,8.595,2.024,13.12c0.072,15.06-6.597,28.431-17.34,38.139c8.878,5.413,20.406,6.683,30.375,8.153
				c12.733,1.877,24.903,4.929,37.74,4.857C446.01,356.718,437.799,344.841,431.375,336.12z"/>
		</g>
	</g>
	<g>
		<g>
			<path fill="#BCBCBC" d="M240.194,402.32c-4.144-3.638-8.619-7.222-13.515-9.802c-0.271-0.143-0.515-0.302-0.745-0.469
				c-17.188,0.735-34.434,0.566-51.545-1.3c-10.741-1.171-21.55-2.739-32.066-5.25c-0.903-0.216-1.803-0.444-2.704-0.667
				c11.11,10.26,27.427,15.761,41.307,19.963c19.186,5.809,40.079,10.452,60.289,11.204c0.333-2.312,0.753-4.609,1.138-6.958
				C242.935,405.494,242.837,404.641,240.194,402.32z"/>
		</g>
	</g>
	<g>
		<g>
			<path fill="#D6E5E5" d="M109.935,392.409c-0.914-2.391-0.149-4.384,1.317-5.653c-0.101-0.481-0.193-0.964-0.271-1.451
				c-4.117-0.129-8.132-0.954-11.859-2.997c-8.646-4.74-14.723-11.384-17.811-20.932c-3.269-10.107-3.479-20.65-0.342-30.849
				c1.329-4.32,2.722-8.989,4.672-13.238c-2.13,0.86-4.214,1.864-6.264,2.824c-5.802,2.717-11.415,5.163-17.733,6.404
				c-12.631,2.482-25.009,0.377-37.485-1.512c0.722,8.628,1.482,17.28,1.296,25.929c-0.103,4.766-0.396,9.528-1.124,14.244
				c-0.517,3.348-1.905,7.215-1.192,10.617c1.587,7.58,10.519,12.986,14.714,19.069c2.522,3.658,4.375,7.747,5.479,12.058
				c1.15,4.494,1.604,9.346,3.472,13.624c2.386,5.465,7.002,9.794,11.207,13.91c3.411,3.338,7.231,7.888,11.676,9.834
				c8.61,3.77,17.421-2.407,24.004-7.562c6.961-5.451,14.408-10.927,17.472-19.582C114.045,409.004,112.959,400.321,109.935,392.409
				z"/>
		</g>
	</g>
	<g>
		<g>
			<path fill="#EF4754" d="M379.921,298.046c-4.865-9.233-11.454-20.389-21.099-25.324c-8.493,0.95-17.053,0.721-25.451-0.848
				c-0.332,0.092-0.681,0.164-1.058,0.201c-13.27,1.301-35.042,3.753-41.71,17.508c-6.915,14.263,4.248,24.349,16.634,28.835
				c10.737,3.89,27.314,6.598,37.785,0.387c3.724-2.209,6.972-5.896,4.949-10.516c-2.946-6.727-13.279-8.437-19.657-7.214
				c-6.973,1.335-7.724-9.653-0.847-10.971c10.897-2.087,25.758,2.837,30.467,13.589c6.791,15.504-8.242,26.412-21.711,28.627
				c-14.862,2.445-32.8-0.435-45.527-8.765c-5.817-3.808-11.538-8.848-13.613-15.76c-2.061-6.866-1.888-14.361,0.761-20.949
				c-0.9,0.572-1.806,1.134-2.725,1.672c0.603,2.465-0.292,5.238-3.409,6.263c-1.83,0.602-2.745,1.979-3.473,3.726
				c-3.024,7.254-2.735,16.756-1.152,24.344c2.264,10.848,8.593,19.957,17.667,26.716c14.043,10.461,30.869,15.105,47.811,13.148
				c1.192-0.503,2.365-1.046,3.488-1.685c2.011-1.144,4.027-0.929,5.613-0.006c0.507-0.13,1.013-0.262,1.519-0.404
				c16.723-4.713,34.995-15.671,38.917-33.984C386.18,316.925,384.544,306.82,379.921,298.046z"/>
		</g>
	</g>
	<g>
		<g>
			<path fill="#BCBCBC" d="M170.944,423.952c-17.257-10.013-33.691-21.817-45.377-38.286c-0.433-0.61-0.716-1.22-0.883-1.818
				c-0.988,0.191-1.973,0.389-2.969,0.557c1.159,6.772,6.484,13.797,10.133,18.74c5.821,7.886,12.372,15.21,19.394,22.044
				c15.273,14.86,33.614,30.779,54.881,35.976c0.496-0.308,1.039-0.545,1.603-0.706c0.584-5.583,3.351-10.71,7.087-15.04
				C198.949,441.628,185.011,432.114,170.944,423.952z"/>
		</g>
	</g>
	<g>
		<g>
			<path fill="#D6E5E5" d="M260.031,331.774c-2.692-8.805-4.948-24.201-1.201-35.261c-8.862,2.682-18.167,3.926-27.516,3.562
				c-3.004-0.117-5.646-1.818-5.908-5.062c-1.234-15.244,3.798-30.987,13.829-42.166c-0.278-0.011-0.554-0.008-0.833-0.022
				c-21.892-1.136-43.405-12.681-56.903-29.905c-13.119-16.74-17.918-39.321-6.348-57.614c-6.159-1.107-12.066-3.532-16.52-8.11
				c-0.609-0.626-1.184-1.276-1.739-1.94c-0.289,0.193-0.6,0.372-0.946,0.525c-3.081,1.365-5.253,6.775-6.628,9.537
				c-2.244,4.506-4.21,9.133-6.274,13.722c-4.973,11.057-11.145,21.542-16.018,32.665c-12.178,27.795-16.297,60.282-16.414,90.461
				c-0.003,0.941-0.207,1.769-0.547,2.486c1.12,4.127,3.911,8.186,5.254,12.119c2.024,5.929,4.362,11.748,5.641,17.9
				c1.166,5.609,1.232,10.859,0.689,16.553c-0.527,5.528-1.4,11.242,0.67,16.547c0.227,0.581,0.349,1.137,0.39,1.667
				c2.82,0.603,5.622,1.284,8.42,1.98c0.53-0.11,1.055-0.216,1.575-0.314c2.293-0.433,3.909,0.467,4.808,1.912
				c2.299,0.578,4.6,1.15,6.911,1.684c9.906,2.289,20.035,3.938,30.143,5.041c19.875,2.167,39.89,2.129,59.828,0.86
				c19.904-1.267,40.117-3.169,59.479-8.168c2.962-0.765,5.909-1.486,8.857-2.184C284.201,363.689,265.879,350.901,260.031,331.774z
				"/>
		</g>
	</g>
	<g>
		<g>
			<path fill="#010101" d="M495.176,227.191c-12.263-4.107-23.89-7.36-36.936-7.173c-11.3,0.162-22.226,3.543-33.423,4.701
				c0.398-3.741,0.202-7.685-0.723-11.828c-1.502-6.728-5.338-12.685-10.21-17.692c8.84-3.814,12.975-18.527,13.62-26.772
				c0.623-7.963-10.477-11.46-16.79-13.434c-6.071-1.898-12.328-2.557-18.63-2.78c0.305-3.368,0.281-6.606-0.072-9.466
				c-2.357-19.069-15.811-33.693-31.933-42.895c-17.354-9.904-37.889-12.714-57.583-13.037c-0.274-8.965-1.116-17.876-3.63-26.583
				c-2.993-10.362-10.025-22.923-22.538-21.12c-10.048,1.448-18.525,9.615-25.002,16.836c-5.688,6.342-12.047,14.468-14.238,23.011
				c-4.551-4.136-10.186-7.484-17.147-9.769c-2.282-0.75-4.995,0.965-5.977,2.952c-6.843,13.843-13.157,31.906-11.272,48.022
				c-9.031-7.291-18.441-14.031-29.408-17.744c-7.649-2.59-15.478-4.361-23.582-4.457c-5.767-0.067-13.729,1.666-15.208,8.195
				c-1.251,5.524,1.341,11.516,3.531,16.461c2.88,6.503,6.437,12.721,10.038,18.845c0.919,1.562,1.814,3.141,2.726,4.708
				c-8.158,4.626-12.042,15.419-15.621,23.5c-5.342,12.061-11.814,23.558-17.292,35.563c-12.608,27.639-17.331,59.534-18.098,89.993
				c-2.464-0.206-4.832,1.087-5.05,4.312c-0.111,1.645-0.54,3.136-1.158,4.541c-10.574,0.353-19.989,7.519-29.808,10.693
				c-14.512,4.692-30.012,0.32-44.586-1.583c-3.52-0.459-6.809,2.086-6.534,5.822c0.882,12.019,2.192,24.038,1.746,36.106
				c-0.379,10.232-4.551,19.169,0.417,28.874c4.494,8.778,13.947,13.886,17.13,23.416c1.841,5.511,2.474,11.32,4.485,16.775
				c2.147,5.827,6.468,10.316,10.631,14.76c7.315,7.809,15.999,17.389,27.513,17.554c11.138,0.158,20.685-6.84,28.925-13.57
				c8.1-6.615,15.281-13.3,18.462-23.593c0.891-2.884,1.434-5.818,1.683-8.766c5.443,7.361,11.708,14.185,18.108,20.663
				c18.107,18.33,41.128,37.605,67.335,41.757c3.174,0.503,6.038-1.707,6.484-4.619c1.839-0.829,3.225-2.589,3.05-5.204
				c-0.311-4.667,2.737-8.562,5.711-11.849c3.228-3.567,7.289-4.744,7.289-10.151c0-2.198-2.166-4.831-4.436-4.976
				c-18.443-1.179-33.89-11.707-49.312-20.896c21.89,6.85,45.776,11.601,68.686,11.781c3.23,0.025,4.969-3.123,5.062-5.909
				c0.303-9.071,4.984-17.28-1.916-24.952c-1.648-1.833-3.548-3.592-5.574-5.258c17.964-1.391,35.892-3.796,53.387-8.141
				c7.992-1.985,15.846-3.792,23.942-5.327c4.832-0.916,9.618-1.963,14.221-3.548c11.571-1.553,23.018-5.67,32.474-11.062
				c0.398-0.227,0.79-0.461,1.181-0.696c10.287,7.752,23.829,9.962,36.274,11.841c15.729,2.375,30.868,6.205,46.949,5.051
				c2.278-0.164,4.725-2.041,4.976-4.436c1.704-16.304-7.865-31.967-17.031-44.671c-4.069-5.641-8.568-10.975-13.557-15.823
				c-2.16-2.098-4.527-4.286-7.09-6.179c10.849,0.623,21.73-0.283,32.466-1.891c3.035-0.455,5.205-2.748,5.062-5.909
				c-0.438-9.647-7.284-18.25-14.205-25.148c21.439-5.455,35.303-26.151,54.032-36.869c1.761-1.008,2.41-3.095,2.41-4.983v-1
				C499.612,229.518,497.393,227.934,495.176,227.191z M409.742,235.287c-6.696,10.986-20.271,17.473-31.861,21.772
				c-12.709,4.714-26.57,6.53-40.017,4.667c-9.316-1.292-17.858-5.117-26.095-9.499c-7.183-3.821-16.394-9.164-19.323-17.248
				c-0.521-1.439-0.448-2.868-0.157-4.338c0.542-2.744-0.81-4.727-2.728-5.703c0.415-0.787,0.81-1.593,1.192-2.409
				c1.516,0.746,3.373,0.798,5.213-0.378c14.154-9.053,30.4-14.969,46.989-17.53c13.739-2.122,30.027-2.654,40.665,7.802
				c10.121,9.948-8.866,14.674-15.517,15.74c-4.734,0.759-9.514,0.989-14.301,0.926c-2.847-0.037-5.643-0.379-8.414-1.032
				c-0.917-0.216-5.602-3.287-3.547-3.066c6.999,0.754,9.155-10.037,2.099-10.798c-10.667-1.15-17.355,9.005-11.305,18.214
				c4.851,7.383,16.047,7.629,23.858,7.669c13.229,0.068,35.245-2.364,40.188-17.165c3.035-9.086-3.504-17.85-10.66-22.702
				c-8.625-5.848-18.191-7.492-28.426-7.678c-21.601-0.393-44.114,6.636-62.879,17.531c0.477-2.822,0.679-5.637,0.599-8.455
				c0.217-0.134,0.435-0.282,0.651-0.457c10.357-8.386,23.563-9.796,36.377-11.104c13.283-1.355,26.755-3.189,40.123-2.057
				c13.789,1.168,27.208,6.636,35.932,17.72C415.568,214.819,415.656,225.584,409.742,235.287z M311.251,264.33
				c-4.786,1.187-9.476,2.763-13.788,4.899c1.718-3.269,3.019-6.808,3.636-10.324C304.516,260.974,308.002,262.775,311.251,264.33z
				 M208.177,218.683c15.431,7.811,40.327,7.321,50.592-8.872c8.777-13.845-2.998-37.444-20.697-29.412
				c-6.401,2.904-2.837,13.321,3.638,10.383c7.196-3.266,10.803,5.548,8.58,11.576c-3.076,8.34-15.995,10.83-23.653,10.234
				c-14.683-1.142-37.562-16.048-29.67-33.476c6.154-13.589,26.738-17.714,39.861-19.024c7.313-0.73,14.793-0.617,21.934,1.255
				c9.53,2.499,15.564,12.16,19.678,20.453c4.662,9.399,7.389,18.329,4.999,28.753c-2.517,10.975-10.049,20.783-19.771,26.308
				c-18.205,10.347-42.49,4.198-58.715-6.94c-15.9-10.914-31.109-31.825-23.874-51.969c3.746-10.429,12.605-18.371,22.424-23.036
				c8.109-3.853,20.727-9.29,29.679-5.497c-1.836,0.244-3.63,0.525-5.357,0.832c-15.29,2.713-33.302,9.136-40.711,23.971
				C178.269,191.929,192.806,210.902,208.177,218.683z M263.709,249.782c1.648-0.504,2.677-1.5,3.199-2.687
				c5.427-2.706,10.35-6.312,14.543-10.769c0.588,3.088,1.897,5.955,3.698,8.613c-0.022,1.349,0.588,2.709,2.109,3.783
				c10.407,7.347-4.624,22.871-10.97,27.372c-11.736,8.323-25.785,12.564-40.045,13.025
				C236.703,271.877,246.544,255.028,263.709,249.782z M291.196,183.44c2.521,1.181,5.125,2.155,7.751,2.903
				c-1.935,0.919-3.816,1.955-5.624,3.139c-0.269-0.907-0.553-1.815-0.874-2.726C292.058,185.646,291.633,184.542,291.196,183.44z
				 M416.379,169.562c-0.463,2.779-1.463,5.571-2.459,8.095c-0.529,1.34-2.91,7.318-4.217,7.447
				c-2.166,0.215-3.586,1.404-4.312,2.925c-1.596-1.117-3.217-2.16-4.84-3.103c-5.942-3.45-12.451-5.542-19.156-6.755
				c3.949-3.879,6.757-9.284,8.539-15.034C399.449,163.439,408.027,165.004,416.379,169.562z M302.621,98.036
				c0-0.085,0-0.17,0-0.255c0.598,0.002,1.195,0.007,1.79,0.016c16.218,0.229,32.718,2.934,47.36,10.104
				c13.008,6.37,24.018,16.722,28.254,30.847c2.026,6.757,1.985,14.016-0.4,20.646c-1.918,5.331-5.622,13.388-12.157,13.712
				c-2.601,0.129-4.129,1.692-4.675,3.6c-0.326,0.001-0.653-0.003-0.978,0c-12.675,0.104-25.441,1.703-38.014,3.215
				c-2.294,0.276-4.594,0.607-6.882,1.008c-0.689-2.159-2.544-3.939-5.452-3.823c-11.246,0.45-23.62-6.545-29.853-15.723
				c-6.213-9.149-0.221-16.826,8.024-21.246c8.299-4.449,19.128-5.465,28.189-3.272c3.473,0.841,6.92,2.655,9.08,5.557
				c1.263,1.696,2.122,3.988,1.885,6.115c-0.296,2.665-4.285,3.261-6.326,3.568c-6.962,1.049-6.186,12.03,0.847,10.971
				c9.216-1.388,16.526-6.178,16.483-16.25c-0.029-6.929-4.96-13.31-10.536-16.871c-11.84-7.563-28.521-6.145-41.045-1.175
				c-11.003,4.366-19.881,13.303-20.098,24.506c-4.027-2.111-8.515-3.386-13.173-4.073c0.848-1.714,0.649-3.829-0.293-5.48
				c0.352-6.843,0.435-13.905-0.043-20.861c2.672,0.492,5.437-0.737,5.681-4.232c0.525-7.505,9.935-13.698,16.187-16.499
				c4.811-2.155,9.969-3.293,15.208-3.86c-0.003,0.311-0.003,0.616-0.007,0.926C295.277,98.462,298.963,98.024,302.621,98.036z
				 M247.525,82.64c1.175-6.085,6.45-12.745,10.631-17.769c4.977-5.982,11.224-12.434,18.88-14.736
				c7.748-2.33,11.259,12.532,12.535,17.872c1.489,6.231,1.977,12.709,2.111,19.207c-7.969,0.777-15.873,2.72-22.884,6.482
				c-5.69,3.053-12.431,8.046-16.266,14.156c-1.697-7.697-4.445-14.911-8.695-21.12C245.583,86.266,247.078,84.957,247.525,82.64z
				 M221.689,81.518c21.184,9.72,23.237,36.294,22.276,58.041c-2.379-0.774-4.674-1.353-7.263-1.454
				c-0.623-0.024-1.211,0.105-1.755,0.34c-3.866-1.098-7.898-1.279-11.933-0.875c-0.297-0.73-0.779-1.447-1.494-2.112
				C206.926,121.873,214.161,98.02,221.689,81.518z M149.829,122.003c-1.859-3.76-4.076-8.024-4.557-12.305
				c0.352-0.178,0.752-0.375,1.061-0.435c2.841-0.55,5.794-0.35,8.644-0.014c6.464,0.761,12.864,2.628,18.891,5.044
				c6.4,2.566,11.717,6.792,17.133,10.984c6.44,4.985,12.695,10.201,19.105,15.224c-1.617,0.535-3.206,1.103-4.746,1.688
				c-8.005,3.042-15.46,7.305-21.702,13.051c-0.375-0.08-0.771-0.128-1.19-0.135c-6.783-0.119-12.697-2.187-17.461-7.084
				c-3.056-3.141-5.086-8.089-7.332-11.874C154.924,131.513,152.218,126.834,149.829,122.003z M93.626,327.213
				c1.826-4.866,4-9.041,6.918-13.314c0.349-0.511,0.688-1.026,1.017-1.545c0.863,1.812,1.786,3.612,2.583,5.481
				c2.571,6.033,4.874,13.009,6.208,19.429c2.242,10.79-2.242,21.885,1.023,32.486c-1.087,1.169-1.647,2.807-1.598,4.384
				c-1.46-0.194-2.897-0.511-4.294-1.019c-8.129-2.954-12.284-10.036-14.582-17.962C88.183,345.779,90.283,336.124,93.626,327.213z
				 M111.162,417.147c-3.064,8.655-10.511,14.13-17.472,19.582c-6.583,5.155-15.394,11.331-24.004,7.562
				c-4.445-1.946-8.266-6.496-11.676-9.834c-4.205-4.116-8.821-8.444-11.207-13.91c-1.868-4.278-2.322-9.13-3.472-13.624
				c-1.103-4.311-2.956-8.4-5.479-12.058c-4.195-6.083-13.126-11.489-14.714-19.069c-0.712-3.402,0.675-7.27,1.192-10.617
				c0.728-4.716,1.021-9.478,1.124-14.244c0.186-8.649-0.574-17.301-1.296-25.929c12.476,1.889,24.854,3.994,37.485,1.512
				c6.318-1.241,11.931-3.687,17.733-6.404c2.05-0.96,4.134-1.964,6.264-2.824c-1.95,4.249-3.344,8.918-4.672,13.238
				c-3.137,10.199-2.927,20.742,0.342,30.849c3.088,9.547,9.165,16.192,17.811,20.932c3.728,2.043,7.743,2.868,11.859,2.997
				c0.078,0.486,0.17,0.969,0.271,1.451c-1.466,1.269-2.231,3.262-1.317,5.653C112.959,400.321,114.045,409.004,111.162,417.147z
				 M214.812,445.419c-3.737,4.33-6.503,9.457-7.087,15.04c-0.564,0.161-1.106,0.398-1.603,0.706
				c-21.267-5.196-39.608-21.115-54.881-35.976c-7.022-6.833-13.573-14.158-19.394-22.044c-3.649-4.943-8.974-11.968-10.133-18.74
				c0.997-0.168,1.981-0.366,2.969-0.557c0.167,0.598,0.45,1.208,0.883,1.818c11.686,16.469,28.12,28.273,45.377,38.286
				C185.011,432.114,198.949,441.628,214.812,445.419z M242.353,409.041c-0.385,2.348-0.806,4.645-1.138,6.958
				c-20.21-0.751-41.103-5.395-60.289-11.204c-13.88-4.202-30.197-9.703-41.307-19.963c0.901,0.223,1.801,0.451,2.704,0.667
				c10.516,2.511,21.325,4.079,32.066,5.25c17.111,1.866,34.357,2.035,51.545,1.3c0.23,0.167,0.474,0.326,0.745,0.469
				c4.896,2.581,9.372,6.164,13.515,9.802C242.837,404.641,242.935,405.494,242.353,409.041z M293.871,372.433
				c-19.362,5-39.575,6.901-59.479,8.168c-19.938,1.269-39.952,1.307-59.828-0.86c-10.107-1.102-20.236-2.752-30.143-5.041
				c-2.311-0.534-4.612-1.105-6.911-1.684c-0.898-1.445-2.514-2.345-4.808-1.912c-0.52,0.098-1.045,0.204-1.575,0.314
				c-2.798-0.696-5.601-1.377-8.42-1.98c-0.041-0.53-0.163-1.086-0.39-1.667c-2.07-5.305-1.197-11.019-0.67-16.547
				c0.543-5.694,0.477-10.944-0.689-16.553c-1.279-6.152-3.617-11.971-5.641-17.9c-1.343-3.933-4.134-7.991-5.254-12.119
				c0.341-0.717,0.544-1.545,0.547-2.486c0.117-30.179,4.236-62.666,16.414-90.461c4.873-11.123,11.044-21.607,16.018-32.665
				c2.064-4.589,4.03-9.216,6.274-13.722c1.375-2.762,3.548-8.172,6.628-9.537c0.346-0.153,0.657-0.332,0.946-0.525
				c0.556,0.664,1.13,1.314,1.739,1.94c4.454,4.579,10.361,7.003,16.52,8.11c-11.57,18.292-6.771,40.874,6.348,57.614
				c13.499,17.224,35.012,28.769,56.903,29.905c0.279,0.014,0.555,0.012,0.833,0.022c-10.031,11.179-15.062,26.922-13.829,42.166
				c0.262,3.244,2.904,4.945,5.908,5.062c9.349,0.364,18.654-0.88,27.516-3.562c-3.747,11.06-1.491,26.456,1.201,35.261
				c5.848,19.126,24.17,31.915,42.697,38.475C299.779,370.947,296.833,371.668,293.871,372.433z M345.183,360.621
				c-0.506,0.143-1.012,0.274-1.519,0.404c-1.586-0.923-3.602-1.138-5.613,0.006c-1.123,0.639-2.295,1.181-3.488,1.685
				c-16.942,1.957-33.768-2.687-47.811-13.148c-9.075-6.759-15.403-15.868-17.667-26.716c-1.583-7.588-1.873-17.09,1.152-24.344
				c0.729-1.746,1.644-3.124,3.473-3.726c3.118-1.024,4.012-3.797,3.409-6.263c0.919-0.538,1.825-1.101,2.725-1.672
				c-2.648,6.588-2.822,14.083-0.761,20.949c2.075,6.912,7.796,11.952,13.613,15.76c12.727,8.33,30.665,11.209,45.527,8.765
				c13.469-2.215,28.501-13.123,21.711-28.627c-4.708-10.751-19.569-15.676-30.467-13.589c-6.877,1.317-6.126,12.306,0.847,10.971
				c6.378-1.222,16.711,0.487,19.657,7.214c2.023,4.62-1.226,8.307-4.949,10.516c-10.47,6.211-27.047,3.503-37.785-0.387
				c-12.386-4.487-23.548-14.573-16.634-28.835c6.668-13.755,28.44-16.207,41.71-17.508c0.376-0.037,0.726-0.109,1.058-0.201
				c8.398,1.569,16.958,1.798,25.451,0.848c9.645,4.935,16.234,16.09,21.099,25.324c4.623,8.773,6.258,18.879,4.178,28.59
				C380.177,344.949,361.905,355.908,345.183,360.621z M420.606,323.315c4.013,3.9,7.456,8.307,10.769,12.805
				c6.424,8.722,14.635,20.599,15.414,32.165c-12.837,0.072-25.007-2.979-37.74-4.857c-9.969-1.47-21.497-2.74-30.375-8.153
				c10.743-9.708,17.412-23.08,17.34-38.139c-0.021-4.525-0.774-8.894-2.024-13.12c0.187,0.021,0.37,0.053,0.56,0.061
				c0.042,0.002,0.082,0.008,0.124,0.01c1.122,0.381,2.229,0.737,3.303,0.976c0.503,0.112,1.013,0.205,1.519,0.307
				c1.522,0.697,2.987,1.609,4.369,2.588c-0.273,2.558,0.989,5.301,4.213,6.033C412.846,315.072,417.243,320.047,420.606,323.315z
				 M445.283,295.935c-9.8,1.191-19.667,1.677-29.526,0.729c-4.933-0.474-9.881-1.271-14.749-2.223
				c-1.44-0.473-2.929-0.833-4.475-1.064c-2.614-0.748-5.124-1.597-7.794-2.01c-0.76-1.449-1.553-2.883-2.378-4.296
				c-3.462-5.93-7.733-12.129-12.922-17.134c4.256-1.146,8.459-2.568,12.579-4.247c3.123-1.273,6.259-2.749,9.324-4.41
				c0.659,1.236,1.804,2.251,3.5,2.708c11.305,3.051,21.763,5.828,30.891,13.532C435.054,282.012,442.477,288.658,445.283,295.935z
				 M465.394,249.097c-8.237,6.968-17.598,14.703-28.69,16.008c-1.353,0.159-2.412,0.698-3.195,1.455
				c-8.367-5.982-17.685-9.204-27.665-12.02c6.712-5.113,12.381-11.316,15.776-18.531c11.434-0.522,22.509-3.8,33.9-4.827
				c9.434-0.85,18.31,0.9,27.11,3.474C476.643,239.155,471.092,244.277,465.394,249.097z"/>
		</g>
	</g>
</g>
</svg>
