<?xml version="1.0" encoding="utf-8"?>
<!-- Generator: Adobe Illustrator 16.0.3, SVG Export Plug-In . SVG Version: 6.00 Build 0)  -->
<!DOCTYPE svg PUBLIC "-//W3C//DTD SVG 1.1//EN" "http://www.w3.org/Graphics/SVG/1.1/DTD/svg11.dtd">
<svg version="1.1" id="Layer_1" xmlns="http://www.w3.org/2000/svg" xmlns:xlink="http://www.w3.org/1999/xlink" x="0px" y="0px"
	 width="512px" height="512px" viewBox="0 0 512 512" enable-background="new 0 0 512 512" xml:space="preserve">
<g>
	<g>
		<g>
			<path fill="#FCBE14" d="M384.683,384.434c-1.565-1.927-5.479-3.638-8.742-3.069c-0.579,0.101-1.913,0.865-2.313,1.718
				c-0.848,1.808-0.735,4.444-0.34,7.069c0.095,0.631,0.089,1.209,0.006,1.738c2.817,0.789,6.049,1.33,8.826,0.133
				c0.99-0.428,2.091-1.445,2.554-2.217c0.797-1.326,0.9-1.25,1.07-2.415C385.855,386.622,385.866,385.892,384.683,384.434z"/>
		</g>
	</g>
	<g>
		<g>
			<path fill="#FCBE14" d="M263.434,306.978c-0.107-1.896-0.112-3.787-0.112-5.687v-7.553c-1.558-0.261-3.069-0.799-4.482-1.704
				c-2.134-1.367-4.697-4.163-7.276-4.633c-1.995-0.363-3.775-0.047-5.435,0.672c-1.873,5.396-1.822,12.59-0.631,18.674
				c1.072,0.801,1.796,2.091,1.796,3.908v0.285c5.026-0.128,10.053-0.258,15.079-0.379c0.259-0.717,0.65-1.387,1.195-1.939
				C263.522,308.073,263.476,307.526,263.434,306.978z"/>
		</g>
	</g>
	<g>
		<g>
			<path fill="#FCBE14" d="M301.329,456.009c-2.8,0.468-6.015-1.453-6.453-4.344c-26.938,0.434-53.83,2.425-80.768,2.82
				c-0.433,0.08-0.876,0.09-1.323,0.056c0.892,2.839,1.956,5.643,2.556,8.574c7.147,2.364,15.191,2.389,22.579,2.206
				c9.593-0.237,19.137-1.151,28.706-1.781c7.421-0.489,14.625,0.01,22.029,0.022c3.545,0.006,7.511,0.064,10.771-1.552
				C301.774,460.846,302.56,457.927,301.329,456.009z"/>
		</g>
	</g>
	<g>
		<g>
			<path fill="#117176" d="M323.649,395.772c-0.968-3.969-2.137-7.894-3.69-11.678c-1.551-3.776-4.018-7.386-5.347-11.199
				c-3.564-10.229-9.958-19.443-14.853-29.057c-3.649-7.167-7.539-14.753-8.913-22.75c-25.527,0.139-51.038,1.271-76.564,1.441
				c-2.275,9.406-4.631,18.783-7.998,27.885c-4.343,11.737-9.844,23.088-12.138,35.49c-3.839,20.75,4.121,40.375,18.472,54.958
				c2.292-0.431,4.74,0.382,5.725,2.562c27.022-0.59,54.006-2.603,81.039-2.813c0.163-0.013,0.327-0.024,0.5-0.024h3
				c0.573,0,1.103,0.078,1.594,0.211c8.007-5.631,16.312-11.79,19.055-21.249C325.753,411.882,325.54,403.521,323.649,395.772z"/>
		</g>
	</g>
	<g>
		<g>
			<path fill="#75CCCE" d="M415.107,279.899c-3.211-9.945-4.912-20.231-7.179-30.41c-2.235-10.037-5.586-19.689-8.415-29.561
				c-5.642-19.684-10.186-39.659-15.761-59.359c-5.79-20.464-12.325-40.776-18.519-61.126
				c-5.011-16.463-12.457-33.888-12.027-51.387c-31.537-0.202-63.088-2.068-94.623-1.38c-18.291,0.398-36.551,1.401-54.852,1.401
				h-27.998c-3.039,0-6.038-0.077-9.069-0.237c-1.478-0.077-2.971-0.187-4.451-0.134c-0.207,0.007-0.383,0.015-0.547,0.022
				c-0.378,0.374-0.81,0.69-1.271,0.955c0.267,10.301-3.258,20.168-6.595,29.803c-4.069,11.749-6.51,23.822-9.928,35.759
				c-3.666,12.804-7.832,25.449-11.888,38.132c-3.99,12.474-7.069,24.868-10.017,37.613c-4.847,20.957-10.766,41.629-15.425,62.623
				c-1.616,7.279-3.238,14.57-5.162,21.775c-0.36,1.348-0.686,2.922-1.121,4.486c2.48,1.061,5.034,1.831,6.906,1.131
				c4.076-1.525,7.497-4.434,11.763-5.517c6.956-1.765,14.838,2.979,19.529,7.79c1.377,1.41,2.158,2.464,3.353,2.344
				c3.629-0.365,7.113-2.068,10.113-4.064c6.809-4.529,13.473-9.077,21.472-4.121c3.262,2.021,5.653,5.752,9.462,6.742
				c2.979,0.775,5.623,0.469,8.312-1.11c5.542-3.257,10.593-8.231,17.212-9.139c8.137-1.114,13.834,3.851,17.37,10.583
				c0.679,1.292,1.398,3.111,2.552,4.145c-0.499-0.551,0.766-0.582,2.032-1.488c2.435-1.742,4.693-3.734,7.1-5.515
				c0.786-1.129,1.843-1.753,2.974-1.969c7.407-4.097,15.397-2.517,22.09,2.573c7.124,5.418,11.839-4.396,18.216-5.795
				c5.069-1.111,10.341-0.295,14.031,3.602c1.587,1.677,2.832,3.594,4.117,5.5c0.604,0.896,1.192,1.831,1.889,2.659
				c0.07,0.083,0.121,0.136,0.176,0.194c7.136-3.018,12.096-16.651,21.82-10.565c4.386,2.745,5.595,6.433,8.274,10.538
				c2.397,3.673,6.063,0.033,8.739-1.875c6.094-4.349,17.624-12.248,24.97-6.099c1.253,1.05,1.745,2.553,2.643,3.85
				c1.285,1.858,3.064,3.024,5.038,4.093c-0.034-0.018,0.062,0.019,0.221,0.084c0.789-0.754,1.619-1.473,2.522-2.054
				c4.584-2.946,11.266-5.855,16.846-4.556c3.404,0.793,6.081,2.633,8.772,4.566c2.391-2.461,5.497-3.947,9.059-4.699
				c0.691-0.381,1.534-0.609,2.543-0.609h2.805C415.157,280.028,415.129,279.968,415.107,279.899z"/>
		</g>
	</g>
	<g>
		<g>
			<path d="M425.49,276.263c-2.82-8.736-4.492-17.737-6.387-26.703c-2.128-10.075-5.186-19.74-8.131-29.59
				c-5.864-19.616-10.411-39.599-15.809-59.343c-5.268-19.264-11.703-38.208-17.328-57.373c-2.795-9.526-5.757-19.001-8.617-28.505
				c-2.741-9.111-5.862-18.455-5.019-28.106c0.17-1.94-0.54-3.507-1.665-4.61c-0.427-2.541-2.371-4.921-5.657-4.925
				c-36.725-0.038-73.44-2.325-110.164-1.09c-19.958,0.671-39.856,1.09-59.827,1.09c-8.171,0-16.301-0.171-24.462-0.371
				c-4.4-0.107-9.228,1.538-10.045,5.558c-1.855,0.819-3.251,2.587-3.053,5.223c0.754,10.059-3.256,19.922-6.481,29.263
				c-3.806,11.017-6.144,22.323-9.254,33.538c-6.674,24.07-15.763,47.379-21.116,71.79c-4.609,21.017-10.954,41.62-15.47,62.642
				c-1.494,6.957-3.061,13.9-4.729,20.817c-0.737,3.061-1.509,6.113-2.352,9.146c-0.071,0.255-0.371,1.232-0.56,1.862
				c-3.558,2.083-4.811,7.699,0.002,9.434c5.397,1.946,10.413,4.727,16.27,4.986c6.162,0.273,10.358-3.795,15.822-5.839
				c2.79-1.045,7.476,3.124,9.24,4.88c2.485,2.475,4.773,4.416,8.253,5.333c9.667,2.548,18.07-6.175,25.909-9.96
				c2.894-1.396,7.309,4.464,9.813,6.06c4.231,2.696,9.715,3.811,14.651,2.84c4.171-0.82,7.816-2.864,11.311-5.219
				c2.84-1.913,5.916-4.82,9.429-5.302c4.119-0.564,5.598,4.032,7.12,6.931c2.361,4.496,6.122,8.075,11.445,7.968
				c1.858-0.038,3.529-0.609,5.094-1.472c-0.109,4.787,0.424,9.638,1.489,14.016c-7.042,0.158-14.085,0.264-21.129,0.316
				c-2.183-1.714-5.822-1.75-7.871,0.476c-2.555,1.114-3.264,4.216-2.336,6.771c-2.588,10.676-5.248,21.298-9.295,31.551
				c-4.893,12.398-10.204,24.787-11.975,38.111c-2.76,20.778,5.156,40.822,18.584,56.239c-0.587,0.876-0.924,1.98-0.868,3.302
				c0.287,6.856,4.215,12.73,4.499,19.5c0.076,1.816,1.351,3.777,3.038,4.503c10.579,4.553,22.522,4.572,33.843,4.21
				c12.189-0.391,24.325-2.075,36.524-2.151c9.54-0.061,19.191,1.951,27.861-3.264c4.855-2.921,6.862-8.674,6.852-14.052
				c-0.006-2.672-0.934-4.982-2.397-6.922c7.902-5.787,15.609-11.658,20.631-20.424c8.156-14.234,5.133-32.667-0.197-47.295
				c-4.399-12.076-10.882-23.728-17.057-34.979c-3.16-5.757-6.258-11.541-8.869-17.571c-1.863-4.306-4.192-9.599-3.849-14.422
				c0.409-5.737-6.797-8.228-9.663-5.02c-5.645,0.022-11.288,0.091-16.932,0.194c0.031-0.581,0.026-1.18-0.012-1.791
				c-0.31-5.012-0.328-10.024-0.316-15.041c0.449-0.511,0.814-1.09,1.08-1.703c1.84-0.781,3.59-1.767,5.131-3.018
				c1.816-1.475,3.872-4.267,6.32-2.129c2.616,2.286,3.932,6.061,6.395,8.578c2.765,2.826,6.055,3.826,9.921,2.999
				c3.747-0.801,6.634-3.266,9.314-5.869c1.324-1.286,2.542-2.687,3.827-4.012c0.366-0.404,0.766-0.771,1.198-1.099
				c0.247-0.201,0.42-0.321,0.562-0.41c1.948,1.094,3.259,5.792,4.408,7.552c2.08,3.187,5.48,5.182,9.193,5.753
				c8.111,1.248,15.112-6.678,21.509-10.342c1.313-0.752,3.097-0.98,4.64-1.205c1.547,2.543,3.52,4.856,6.074,6.439
				c1.801,1.115,3.531,2.133,5.224,2.834c-0.605,2.495-0.852,5.115-1.08,7.381c-0.921,9.131-0.802,18.389-0.491,27.549
				c0.319,9.439,1.002,18.883,2.149,28.259c0.404,3.305,0.751,6.882,1.5,10.313c-5.087,2.086-7.969,6.971-8.83,12.446
				c-0.052,0.053-0.105,0.1-0.156,0.155c-4.16,4.59-3.529,10.374,0.778,14.561c4.144,4.027,10.876,5.205,16.4,5.151
				c10.71-0.104,20.26-10.86,16.564-21.516c-2.016-5.811-7.535-9.677-13.455-11.174c-0.199-0.765-0.458-1.874-0.442-1.795
				c-0.602-2.972-1.008-5.983-1.389-8.989c-1.053-8.309-1.637-16.682-2.021-25.045c-0.375-8.153-0.576-16.386-0.071-24.538
				c0.184-2.971,0.488-5.938,1.032-8.866c0.089-0.482,0.791-2.967,0.556-2.379c0.093-0.248,0.177-0.445,0.246-0.591
				c1.615-1.362,2.079-3.176,1.774-4.868c2.343-1.484,5.397-2.512,7.762-2.261c3.309,0.353,7.212,4.651,9.949,6.372
				c3.343,2.102,6.854-0.824,7.846-3.877c1.028-3.167,5.901-3.012,8.523-3.064c4.487-0.091,5.773-4.42,4.354-7.611
				C423.742,283.092,426.766,280.213,425.49,276.263z M299.426,462.011c-3.26,1.616-7.226,1.558-10.771,1.552
				c-7.404-0.013-14.608-0.512-22.029-0.022c-9.569,0.63-19.113,1.544-28.706,1.781c-7.388,0.183-15.432,0.158-22.579-2.206
				c-0.6-2.932-1.664-5.735-2.556-8.574c0.447,0.034,0.891,0.024,1.323-0.056c26.938-0.396,53.83-2.387,80.768-2.82
				c0.438,2.891,3.653,4.812,6.453,4.344C302.56,457.927,301.774,460.846,299.426,462.011z M290.847,321.089
				c1.374,7.997,5.264,15.583,8.913,22.75c4.895,9.613,11.288,18.828,14.853,29.057c1.329,3.813,3.796,7.423,5.347,11.199
				c1.554,3.784,2.723,7.709,3.69,11.678c1.891,7.748,2.104,16.109-0.119,23.776c-2.742,9.459-11.048,15.618-19.055,21.249
				c-0.491-0.133-1.021-0.211-1.594-0.211h-3c-0.173,0-0.337,0.012-0.5,0.024c-27.033,0.211-54.017,2.224-81.039,2.813
				c-0.984-2.18-3.433-2.992-5.725-2.562c-14.351-14.583-22.311-34.208-18.472-54.958c2.294-12.402,7.795-23.753,12.138-35.49
				c3.367-9.102,5.723-18.479,7.998-27.885C239.809,322.36,265.319,321.228,290.847,321.089z M263.434,306.978
				c0.042,0.549,0.089,1.096,0.134,1.645c-0.545,0.553-0.937,1.223-1.195,1.939c-5.026,0.121-10.053,0.251-15.079,0.379v-0.285
				c0-1.817-0.724-3.107-1.796-3.908c-1.191-6.084-1.242-13.277,0.631-18.674c1.659-0.719,3.439-1.035,5.435-0.672
				c2.579,0.47,5.143,3.266,7.276,4.633c1.413,0.905,2.925,1.443,4.482,1.704v7.553C263.321,303.19,263.326,305.081,263.434,306.978
				z M384.683,384.434c1.184,1.458,1.173,2.188,1.061,2.957c-0.17,1.165-0.273,1.089-1.07,2.415
				c-0.463,0.771-1.563,1.789-2.554,2.217c-2.777,1.197-6.009,0.656-8.826-0.133c0.083-0.529,0.089-1.107-0.006-1.738
				c-0.396-2.625-0.508-5.262,0.34-7.069c0.4-0.853,1.734-1.617,2.313-1.718C379.204,380.796,383.117,382.507,384.683,384.434z
				 M412.376,280.095c-1.009,0-1.852,0.229-2.543,0.609c-3.562,0.752-6.668,2.238-9.059,4.699c-2.691-1.934-5.368-3.773-8.772-4.566
				c-5.58-1.3-12.262,1.609-16.846,4.556c-0.903,0.581-1.733,1.3-2.522,2.054c-0.158-0.065-0.255-0.102-0.221-0.084
				c-1.974-1.068-3.753-2.234-5.038-4.093c-0.897-1.297-1.39-2.8-2.643-3.85c-7.346-6.149-18.876,1.75-24.97,6.099
				c-2.676,1.908-6.342,5.548-8.739,1.875c-2.68-4.105-3.889-7.793-8.274-10.538c-9.725-6.086-14.685,7.548-21.82,10.565
				c-0.055-0.059-0.105-0.111-0.176-0.194c-0.696-0.828-1.284-1.764-1.889-2.659c-1.285-1.906-2.53-3.823-4.117-5.5
				c-3.69-3.896-8.962-4.713-14.031-3.602c-6.377,1.399-11.092,11.213-18.216,5.795c-6.692-5.09-14.683-6.67-22.09-2.573
				c-1.131,0.216-2.188,0.84-2.974,1.969c-2.406,1.78-4.665,3.772-7.1,5.515c-1.267,0.906-2.531,0.938-2.032,1.488
				c-1.153-1.033-1.873-2.853-2.552-4.145c-3.536-6.732-9.233-11.697-17.37-10.583c-6.619,0.907-11.67,5.882-17.212,9.139
				c-2.688,1.579-5.332,1.886-8.312,1.11c-3.809-0.99-6.2-4.721-9.462-6.742c-7.999-4.956-14.663-0.408-21.472,4.121
				c-3,1.996-6.484,3.699-10.113,4.064c-1.194,0.12-1.976-0.934-3.353-2.344c-4.691-4.811-12.573-9.555-19.529-7.79
				c-4.266,1.083-7.687,3.991-11.763,5.517c-1.872,0.7-4.426-0.07-6.906-1.131c0.436-1.564,0.761-3.139,1.121-4.486
				c1.924-7.205,3.546-14.496,5.162-21.775c4.659-20.994,10.578-41.666,15.425-62.623c2.947-12.745,6.026-25.14,10.017-37.613
				c4.056-12.683,8.222-25.328,11.888-38.132c3.418-11.937,5.858-24.01,9.928-35.759c3.337-9.635,6.861-19.502,6.595-29.803
				c0.461-0.265,0.893-0.581,1.271-0.955c0.164-0.008,0.34-0.016,0.547-0.022c1.48-0.053,2.974,0.057,4.451,0.134
				c3.031,0.16,6.03,0.237,9.069,0.237h27.998c18.301,0,36.561-1.003,54.852-1.401c31.535-0.688,63.086,1.178,94.623,1.38
				c-0.43,17.499,7.017,34.924,12.027,51.387c6.193,20.35,12.729,40.662,18.519,61.126c5.575,19.7,10.119,39.676,15.761,59.359
				c2.829,9.871,6.18,19.523,8.415,29.561c2.267,10.179,3.968,20.465,7.179,30.41c0.021,0.068,0.05,0.129,0.073,0.195H412.376z"/>
		</g>
	</g>
</g>
</svg>
