<?xml version="1.0" encoding="utf-8"?>
<!-- Generator: Adobe Illustrator 16.0.3, SVG Export Plug-In . SVG Version: 6.00 Build 0)  -->
<!DOCTYPE svg PUBLIC "-//W3C//DTD SVG 1.1//EN" "http://www.w3.org/Graphics/SVG/1.1/DTD/svg11.dtd">
<svg version="1.1" id="Layer_1" xmlns="http://www.w3.org/2000/svg" xmlns:xlink="http://www.w3.org/1999/xlink" x="0px" y="0px"
	 width="512px" height="512px" viewBox="0 0 512 512" enable-background="new 0 0 512 512" xml:space="preserve">
<g>
	<g>
		<g>
			<path fill="#D6E5E5" d="M464.415,182.751c-4.008-21.217-10.688-45.211-27.214-60.282c-18.837-17.18-46.262-19.875-70.653-18.907
				c-28.123,1.115-56.04,5.902-84.065,8.331c-16.316,1.414-32.706,2.424-49.091,2.159c-15.846-0.256-31.456-2.095-47.207-3.632
				c-30.829-3.008-62.636-3.951-91.723,8.417c-21.532,9.156-39.441,25.543-50.706,46.048c-11.898,21.659-17.54,46.664-16.226,71.349
				c1.531,28.769,11.518,55.763,26.397,80.241c0.353,0.58,0.585,1.162,0.719,1.733c1.696,2.677,1.358,6.927-2.46,8.534
				c-8.625,3.63-11.735,14.8-12.943,23.198c-1.351,9.384-1.346,19.723,2.381,28.596c5.062,12.056,14.075,22.989,25.974,28.797
				c3.413,1.667,6.966,3.274,10.602,4.51c-1.812-2.859-3.259-6.002-4.344-9.285c-3.223-9.747-5.097-21.82-2.032-31.862
				c6.934-22.715,29.624-33.084,50.726-39.338c1.88-0.557,3.517-0.163,4.759,0.737c11.372,0.159,22.79,1.311,34.146,1.975
				c11.512,0.673,23.015,1.473,34.521,2.228c23.908,1.568,47.725,2.499,71.674,1.211c30.535-1.642,60.646-6.161,90.868-10.579
				c25.223-3.687,52.244-7.468,74.697-20.38c10.387-5.972,19.475-13.627,25.335-24.248c5.537-10.036,8.628-21.045,9.995-32.397
				C471.224,227.665,468.556,204.667,464.415,182.751z M105.676,190.525c0.88,9.003,1.08,18.067,1.104,27.111
				c6.492-1.904,13.439-4.645,19.948-2.504c3.069,1.009,5.364,3.478,4.688,6.951c-0.558,2.872-3.871,5.701-6.949,4.689
				c-5.527-1.817-12.013,1.828-17.391,3.01c-0.1,0.022-0.198,0.027-0.299,0.045c0.023,6.187,0.145,12.365,0.652,18.561
				c1.047,12.751,2.721,25.458,3.344,38.235c0.16,0.533,0.254,1.125,0.254,1.785v6.468c0,7.599-11.773,8.568-11.824,0.913
				c-0.104-15.58-2.425-30.978-3.599-46.487c-0.687-9.06-0.657-18.053-0.647-27.122c0.011-8.718-0.057-17.463-0.711-26.16
				c-0.242-3.204-0.521-6.428-1.029-9.608c-2.544-0.813-4.479-3.105-3.622-6.474c0.114-0.448,0.283-0.904,0.478-1.362
				c-2.646-4.239,2.336-9.947,7.25-8.412c10.935-8.536,29.738-14.091,33.871-1.835c2.312,6.859-7.561,10.721-10.713,5.006
				c-0.58,0.026-1.531,0.13-2.053,0.225c-2.525,0.459-5.053,1.435-7.385,2.492c-2.391,1.084-4.723,2.351-6.857,3.889
				C105.088,183.57,105.377,187.471,105.676,190.525z M191.875,231.275c-0.045,8.914-0.938,18.041-3.112,26.696
				c-2.237,8.897-5.733,19.559-13.792,24.938c-13.906,9.281-24.068-3.129-28.315-15.652c-5.649-16.654-7.321-34.857-8.237-52.322
				c-0.547-10.417-1.308-21.54-0.449-32.223c-0.029-0.532,0.006-1.096,0.135-1.698c0.005-0.024,0.012-0.046,0.018-0.07
				c0.248-2.525,0.592-5.022,1.061-7.476c0.85-4.459,5.297-5.474,8.471-3.991c2.343-0.907,4.98-1.322,7.805-1.195
				c7.031,0.316,16.406,2.905,21.402,8.213C190.46,190.939,191.974,212.388,191.875,231.275z M238.227,276.55
				c0,3.028-2.049,6.37-5.455,6.369c-8.262-0.002-18.407,0.857-26.156-2.477c-9.159-3.94-7.492-17.645-7.936-25.555
				c-1.653-29.45-6.67-58.904-5.693-88.455c0.248-7.569,12.076-8.539,11.824-0.913c-0.875,26.525,3.64,52.724,5.097,79.138
				c0.269,4.857,0.608,9.678,0.699,14.542c0.042,2.275,0.044,4.589,0.37,6.846c0.164,1.139,0.328,2.279,0.805,3.342
				c0.115,0.155,0.191,0.274,0.246,0.374c4.656,1.095,9.541,1.308,14.376,1.334v-2.257c0-7.609,11.823-8.555,11.823-0.913V276.55z
				 M276.314,285.836c-2.09,0.735-4.041,0.236-5.531-0.982c-5.766,2.985-15.256,1.999-20.339,3.138
				c-3.128,0.701-6.427-0.316-7.556-3.635c-3.031-8.903-1.208-18.816-1.473-28.041c-0.301-10.595-1.555-21.101-2.078-31.674
				c-1.164-23.521-5.281-46.703-10.463-69.641c-1.668-7.384,9.51-11.365,11.191-3.921c5.09,22.529,9.549,45.361,10.873,68.464
				c0.648,11.296,1.924,22.55,2.246,33.868c0.197,6.895-1.162,15.096-0.186,22.282c1.688-0.224,3.379-0.42,5.073-0.617
				c1.917-0.222,3.837-0.431,5.747-0.703c3.926-0.56,2.026-1.298-0.166,2.15c0.791-1.245,1.836-2.043,2.973-2.482
				c-0.279-2.439-0.338-4.915-0.34-7.359c-0.002-3.229,2.053-6.108,5.455-6.369c3.035-0.232,6.368,2.223,6.369,5.457
				c0.004,4.305,0.002,8.535,1.84,12.509C281.312,281.218,279.145,284.842,276.314,285.836z M322.957,248.688
				c-0.85,4.36-1.82,8.714-3.161,12.953c-1.454,4.603-2.769,10.697-6.499,14.087c-8.328,7.569-16.627,0.722-20.992-7.445
				c-6.074-11.362-9.029-23.573-12.527-35.893c-3.894-13.72-7.713-27.479-10.291-41.508c-2.693-0.733-4.902-3.101-4.184-6.634
				c2.105-10.367,4.878-24.055,15.062-29.595c9.298-5.057,21.302-0.16,28.417,6.665c6.82,6.543,11.193,15.211,13.568,24.3
				C327.668,205.972,326.951,228.146,322.957,248.688z M385.308,269.942c-1.718,4.345-7.814,4.025-10.228,0.677
				c-4.979-6.907-5.928-16.013-7.014-24.329c-0.402,5.293-1.136,10.543-2.732,15.677c-1.463,4.707-7.6,6.833-10.734,2.184
				c-4.039-5.991-6.232-13.605-8.486-20.387c-3.535-10.633-6.671-21.407-9.493-32.251c-2.587-9.943-5.095-19.986-6.702-30.143
				c-0.753-4.753-2.852-14.108,2.564-17.076c5.906-3.235,11.832,4.117,8.398,8.383c0.02,0.751,0.059,1.503,0.133,2.252
				c0.318,3.24,0.846,6.459,1.455,9.656c1.765,9.249,4.07,18.402,6.535,27.487c2.373,8.751,4.91,17.468,7.756,26.08
				c0.432-10.156,0.353-20.382,3.402-30.19c1.597-5.131,9.586-7.044,11.416-0.83c3.187,10.82,5.477,21.866,7.502,32.955
				c0.22,1.199,0.396,2.445,0.555,3.714c1.422-12.4,0.841-25.171,0.916-37.485c0.078-12.801,2.666-27.404-0.049-40.379
				c-1.811-0.686-3.185-2.291-3.185-4.895v-5.39c0-6.919,8.657-8.52,11.509-2.417c7.878,16.865,3.465,37.607,3.559,55.536
				C392.491,229.339,392.992,250.495,385.308,269.942z M431.42,142.274c-5.356-7.607-14.603-13.053-22.776-17.132
				c-6.21-3.098-11.884-4.218-18.777-4.803c-8.154-0.692-16.415-0.878-24.583-0.314c-3.704,0.256-7.553,0.489-11.168,1.387
				c-1.685,0.418-4.951,1.417-5.498,1.919c-5.168,4.736-13.502-2.462-8.266-7.262c5.734-5.255,14.323-6.256,21.78-6.844
				c9.908-0.781,19.938-0.592,29.833,0.316c8.74,0.803,16.136,2.699,23.896,6.966c9.071,4.987,18.621,11.014,24.678,19.615
				C444.629,141.932,435.502,148.072,431.42,142.274z"/>
		</g>
	</g>
	<g>
		<g>
			<path fill="#D6E5E5" d="M179.726,219.688c-0.726-11.205-2.073-25.977-10.694-34.283c-3.205-3.089-16.757-9.127-19.088-2.817
				c-0.393,5.133-0.27,10.302-0.207,15.735c0.202,17.716,1.125,35.953,4.929,53.307c1.416,6.457,3.065,13.865,6.593,19.282
				c1.369,2.1,1.91,2.925,3.506,3.552c0.12,0.008,0.395,0.015,0.84-0.056c1.011-0.161,2.523-1.07,3.49-1.903
				c6.59-5.662,8.471-17.099,9.672-25.169C180.137,238.148,180.326,228.955,179.726,219.688z"/>
		</g>
	</g>
	<g>
		<g>
			<path fill="#D6E5E5" d="M305.789,176.305c-3.354-5.289-12.041-14.664-19.243-11.534c-4.929,2.142-7.07,9.183-8.36,15.309
				c1.044,0.86,1.825,2.108,2.082,3.765c2.357,15.146,6.52,29.901,10.703,44.624c3.148,11.082,5.43,23.041,11.164,33.184
				c0.92,1.627,1.881,3.613,3.242,4.948c1.969-3.122,2.9-7.334,3.824-10.854c2.14-8.137,3.547-16.483,4.312-24.86
				C315.1,213.54,315.502,191.624,305.789,176.305z"/>
		</g>
	</g>
	<g>
		<g>
			<path d="M480.528,229.613c-0.17-22.215-3.61-45.096-9.384-66.529c-5.727-21.259-16.093-42.869-34.979-55.355
				c-21.561-14.254-48.514-16.151-73.623-15.002c-28.361,1.298-56.55,6.153-84.835,8.532c-16.327,1.373-32.706,2.109-49.09,1.749
				c-15.991-0.352-31.838-2.66-47.752-4.078c-30.524-2.72-61.287-2.251-90.042,9.525c-21.871,8.957-39.728,24.811-52.643,44.428
				c-15.266,23.189-21.965,51.507-21.776,79.042c0.213,31.112,10.942,61.047,26.57,87.629c-8.098,6-12.161,16.008-14.131,25.948
				c-2.362,11.903-2.072,25.297,2.396,36.673c5.88,14.97,17.227,27.588,31.463,35.014c8.414,4.389,22.986,10.871,33.392,7.912
				c2.147,0.291,3.751-0.71,4.66-2.224c5.001-3.832,0.009-11.728-5.395-9.466c-6.889-3.029-10.234-11.034-12.167-17.907
				c-2.203-7.843-2.802-17.173,0.188-24.872c6.206-15.981,24.612-23.315,40.068-28.064c0.684,0.297,1.464,0.468,2.341,0.469
				c7.648,0.008,15.186,0.977,22.823,1.303c8.628,0.369,17.245,0.903,25.86,1.463c15.905,1.035,31.805,2.191,47.729,2.93
				c32.061,1.486,64.174-0.802,95.975-4.861c26.959-3.441,54.402-6.922,80.883-13.129c23.795-5.577,48.994-15.357,64.133-35.519
				C477.228,276.536,480.703,252.385,480.528,229.613z M468.544,249.907c-1.367,11.353-4.458,22.362-9.995,32.397
				c-5.86,10.621-14.948,18.276-25.335,24.248c-22.453,12.912-49.475,16.693-74.697,20.38c-30.223,4.417-60.333,8.937-90.868,10.579
				c-23.949,1.288-47.766,0.357-71.674-1.211c-11.507-0.755-23.01-1.555-34.521-2.228c-11.355-0.664-22.773-1.815-34.146-1.975
				c-1.242-0.9-2.879-1.294-4.759-0.737c-21.102,6.254-43.792,16.624-50.726,39.338c-3.064,10.042-1.19,22.115,2.032,31.862
				c1.085,3.282,2.532,6.425,4.344,9.285c-3.636-1.236-7.188-2.844-10.602-4.51c-11.898-5.809-20.911-16.741-25.974-28.797
				c-3.727-8.874-3.731-19.212-2.381-28.596c1.208-8.398,4.318-19.568,12.943-23.198c3.818-1.607,4.156-5.856,2.46-8.534
				c-0.134-0.572-0.366-1.153-0.719-1.733c-14.88-24.478-24.866-51.473-26.397-80.241c-1.314-24.685,4.327-49.69,16.226-71.349
				c11.265-20.505,29.174-36.893,50.706-46.048c29.087-12.368,60.894-11.425,91.723-8.417c15.751,1.537,31.361,3.375,47.207,3.632
				c16.385,0.265,32.774-0.745,49.091-2.159c28.025-2.429,55.942-7.216,84.065-8.331c24.392-0.967,51.816,1.728,70.653,18.907
				c16.526,15.071,23.206,39.064,27.214,60.282C468.556,204.667,471.224,227.665,468.544,249.907z"/>
		</g>
	</g>
	<g>
		<g>
			<path d="M126.728,215.132c-6.509-2.14-13.456,0.6-19.948,2.504c-0.023-9.044-0.224-18.108-1.104-27.111
				c-0.299-3.054-0.588-6.955-1.49-10.586c2.135-1.538,4.467-2.804,6.857-3.889c2.332-1.057,4.859-2.033,7.385-2.492
				c0.521-0.095,1.473-0.199,2.053-0.225c3.152,5.714,13.025,1.853,10.713-5.006c-4.133-12.256-22.937-6.7-33.871,1.835
				c-4.914-1.535-9.896,4.173-7.25,8.412c-0.194,0.458-0.363,0.914-0.478,1.362c-0.856,3.369,1.078,5.66,3.622,6.474
				c0.508,3.18,0.787,6.404,1.029,9.608c0.654,8.697,0.722,17.442,0.711,26.16c-0.01,9.069-0.039,18.062,0.647,27.122
				c1.174,15.509,3.495,30.907,3.599,46.487c0.051,7.656,11.824,6.686,11.824-0.913v-6.468c0-0.66-0.094-1.252-0.254-1.785
				c-0.623-12.777-2.297-25.484-3.344-38.235c-0.508-6.195-0.629-12.374-0.652-18.561c0.101-0.018,0.199-0.023,0.299-0.045
				c5.378-1.183,11.863-4.827,17.391-3.01c3.078,1.012,6.392-1.817,6.949-4.689C132.092,218.61,129.797,216.141,126.728,215.132z"/>
		</g>
	</g>
	<g>
		<g>
			<path d="M176.859,176.496c-4.996-5.308-14.371-7.897-21.402-8.213c-2.824-0.127-5.462,0.289-7.805,1.195
				c-3.174-1.483-7.621-0.469-8.471,3.991c-0.469,2.453-0.812,4.95-1.061,7.476c-0.006,0.024-0.013,0.046-0.018,0.07
				c-0.129,0.602-0.164,1.166-0.135,1.698c-0.858,10.684-0.098,21.806,0.449,32.223c0.916,17.465,2.588,35.668,8.237,52.322
				c4.247,12.523,14.409,24.934,28.315,15.652c8.059-5.379,11.555-16.041,13.792-24.938c2.175-8.655,3.067-17.783,3.112-26.696
				C191.974,212.388,190.46,190.939,176.859,176.496z M178.766,247.335c-1.201,8.07-3.082,19.507-9.672,25.169
				c-0.967,0.833-2.479,1.742-3.49,1.903c-0.445,0.071-0.72,0.064-0.84,0.056c-1.596-0.627-2.137-1.452-3.506-3.552
				c-3.527-5.417-5.177-12.825-6.593-19.282c-3.804-17.354-4.727-35.591-4.929-53.307c-0.062-5.433-0.186-10.603,0.207-15.735
				c2.331-6.31,15.883-0.271,19.088,2.817c8.621,8.307,9.969,23.078,10.694,34.283C180.326,228.955,180.137,238.148,178.766,247.335
				z"/>
		</g>
	</g>
	<g>
		<g>
			<path d="M226.403,268.839v2.257c-4.835-0.026-9.72-0.239-14.376-1.334c-0.055-0.1-0.131-0.219-0.246-0.374
				c-0.477-1.063-0.641-2.203-0.805-3.342c-0.326-2.257-0.328-4.571-0.37-6.846c-0.091-4.865-0.431-9.686-0.699-14.542
				c-1.457-26.414-5.972-52.613-5.097-79.138c0.252-7.626-11.576-6.656-11.824,0.913c-0.977,29.551,4.04,59.005,5.693,88.455
				c0.443,7.91-1.224,21.615,7.936,25.555c7.749,3.334,17.895,2.475,26.156,2.477c3.406,0.001,5.455-3.341,5.455-6.369v-8.624
				C238.227,260.284,226.403,261.229,226.403,268.839z"/>
		</g>
	</g>
	<g>
		<g>
			<path d="M279.951,278.279c-1.838-3.975-1.836-8.204-1.84-12.509c-0.001-3.233-3.334-5.689-6.369-5.457
				c-3.402,0.261-5.457,3.141-5.455,6.369c0.002,2.444,0.061,4.92,0.34,7.359c-1.137,0.439-2.182,1.238-2.973,2.482
				c2.192-3.448,4.092-2.709,0.166-2.15c-1.91,0.272-3.83,0.481-5.747,0.703c-1.694,0.196-3.386,0.393-5.073,0.617
				c-0.977-7.186,0.383-15.387,0.186-22.282c-0.322-11.318-1.598-22.571-2.246-33.868c-1.324-23.104-5.783-45.935-10.873-68.464
				c-1.682-7.444-12.859-3.463-11.191,3.921c5.182,22.938,9.299,46.12,10.463,69.641c0.523,10.573,1.777,21.079,2.078,31.674
				c0.265,9.225-1.559,19.137,1.473,28.041c1.129,3.319,4.428,4.336,7.556,3.635c5.083-1.139,14.573-0.152,20.339-3.138
				c1.49,1.218,3.441,1.717,5.531,0.982C279.145,284.842,281.312,281.218,279.951,278.279z"/>
		</g>
	</g>
	<g>
		<g>
			<path d="M322.35,185.618c-2.375-9.088-6.748-17.756-13.568-24.3c-7.115-6.825-19.119-11.722-28.417-6.665
				c-10.184,5.54-12.956,19.228-15.062,29.595c-0.719,3.534,1.49,5.901,4.184,6.634c2.578,14.029,6.397,27.789,10.291,41.508
				c3.498,12.32,6.453,24.53,12.527,35.893c4.365,8.167,12.664,15.014,20.992,7.445c3.73-3.391,5.045-9.485,6.499-14.087
				c1.341-4.239,2.312-8.593,3.161-12.953C326.951,228.146,327.668,205.972,322.35,185.618z M313.514,230.886
				c-0.766,8.377-2.173,16.724-4.312,24.86c-0.924,3.52-1.855,7.732-3.824,10.854c-1.361-1.334-2.322-3.321-3.242-4.948
				c-5.734-10.143-8.016-22.102-11.164-33.184c-4.184-14.723-8.346-29.478-10.703-44.624c-0.257-1.657-1.038-2.905-2.082-3.765
				c1.29-6.126,3.432-13.167,8.36-15.309c7.202-3.13,15.89,6.245,19.243,11.534C315.502,191.624,315.1,213.54,313.514,230.886z"/>
		</g>
	</g>
	<g>
		<g>
			<path d="M388.826,153.236c-2.852-6.103-11.509-4.502-11.509,2.417v5.39c0,2.604,1.374,4.209,3.185,4.895
				c2.715,12.975,0.127,27.579,0.049,40.379c-0.075,12.314,0.506,25.085-0.916,37.485c-0.159-1.269-0.335-2.515-0.555-3.714
				c-2.025-11.088-4.315-22.135-7.502-32.955c-1.83-6.215-9.819-4.301-11.416,0.83c-3.05,9.808-2.971,20.034-3.402,30.19
				c-2.846-8.612-5.383-17.329-7.756-26.08c-2.465-9.085-4.771-18.238-6.535-27.487c-0.609-3.197-1.137-6.416-1.455-9.656
				c-0.074-0.749-0.113-1.5-0.133-2.252c3.434-4.266-2.492-11.618-8.398-8.383c-5.416,2.968-3.317,12.323-2.564,17.076
				c1.607,10.157,4.115,20.2,6.702,30.143c2.822,10.844,5.958,21.618,9.493,32.251c2.254,6.782,4.447,14.396,8.486,20.387
				c3.135,4.649,9.271,2.522,10.734-2.184c1.597-5.134,2.33-10.384,2.732-15.677c1.086,8.316,2.035,17.422,7.014,24.329
				c2.413,3.348,8.51,3.667,10.228-0.677c7.685-19.447,7.184-40.604,7.077-61.171C392.291,190.843,396.704,170.101,388.826,153.236z
				"/>
		</g>
	</g>
	<g>
		<g>
			<path d="M440.539,136.123c-6.057-8.601-15.606-14.628-24.678-19.615c-7.761-4.268-15.156-6.164-23.896-6.966
				c-9.895-0.909-19.925-1.097-29.833-0.316c-7.457,0.588-16.046,1.589-21.78,6.844c-5.236,4.8,3.098,11.998,8.266,7.262
				c0.547-0.502,3.813-1.501,5.498-1.919c3.615-0.898,7.464-1.131,11.168-1.387c8.168-0.563,16.429-0.378,24.583,0.314
				c6.894,0.585,12.567,1.705,18.777,4.803c8.174,4.079,17.42,9.524,22.776,17.132C435.502,148.072,444.629,141.932,440.539,136.123
				z"/>
		</g>
	</g>
</g>
</svg>
