<?xml version="1.0" encoding="utf-8"?>
<!-- Generator: Adobe Illustrator 16.0.3, SVG Export Plug-In . SVG Version: 6.00 Build 0)  -->
<!DOCTYPE svg PUBLIC "-//W3C//DTD SVG 1.1//EN" "http://www.w3.org/Graphics/SVG/1.1/DTD/svg11.dtd">
<svg version="1.1" id="Layer_1" xmlns="http://www.w3.org/2000/svg" xmlns:xlink="http://www.w3.org/1999/xlink" x="0px" y="0px"
	 width="512px" height="512px" viewBox="0 0 512 512" enable-background="new 0 0 512 512" xml:space="preserve">
<g>
	<g>
		<g>
			<path fill="#BCBCBC" d="M282.742,62.976c-0.114-3.36-0.181-7.715-0.857-11.484c-2.527-0.955-3.587-3.491-3.405-6.166
				c0.277-4.094-6.385-5.441-10.356-5.527c-1.442,6.312-4.795,13.238-10.427,14.768c-9.432,2.561-19.427,1.598-29.051,0.908
				c-7.754-0.555-17.822,0.841-24.59-3.642c-2.239-1.483-3.82-3.364-4.948-5.48c-1.339,0.178-2.682,0.331-4.031,0.503
				c-1.189,0.15-2.662,0.291-3.676,0.562c-0.38,0.103-0.764,0.211-1.142,0.334c-0.826,1.167-1.936,1.801-3.118,2.002
				c-0.312,5.073-0.851,10.133-0.985,15.215c-0.149,5.615-0.608,13.104,2.759,17.99c4.508,6.54,15.847,5.25,22.727,4.883
				c10.298-0.551,20.458-2.188,30.669-3.542c7.082-0.939,14.155-0.47,21.275-0.693c4.668-0.147,13.949,0.431,17.161-3.862
				C283.225,76.43,282.898,67.575,282.742,62.976z M205.257,78.039c-0.193,1.096-0.667,1.996-1.372,2.841
				c-1.112,1.335-2.887,1.979-4.583,1.979c-1.522,0.001-2.883-0.321-4.055-1.353c-1.07-0.942-1.745-2.288-1.854-3.709
				c-0.112-1.469,0.38-2.95,1.354-4.055c0.229-0.26,0.497-0.509,0.791-0.736c0.068-0.088,0.133-0.178,0.209-0.264
				c0.941-1.07,2.287-1.745,3.708-1.854c1.469-0.112,2.95,0.38,4.055,1.353c1.001,0.882,1.855,2.336,1.854,3.709
				C205.362,76.646,205.376,77.358,205.257,78.039z M220.302,81.859c-7.06,0-7.937-10.971-0.848-10.971
				C226.514,70.889,227.391,81.859,220.302,81.859z M248.01,79.005c-0.882,1.002-2.335,1.854-3.708,1.854h-1
				c-1.523,0-2.882-0.32-4.055-1.353c-1.07-0.942-1.745-2.288-1.854-3.709c-0.112-1.469,0.38-2.95,1.354-4.055
				c0.882-1.002,2.335-1.854,3.708-1.854h1c1.523,0,2.882,0.32,4.055,1.353c1.07,0.942,1.745,2.288,1.854,3.709
				C249.476,76.419,248.983,77.9,248.01,79.005z M262.302,78.859c-7.06,0-7.937-10.971-0.848-10.971
				C268.514,67.889,269.391,78.859,262.302,78.859z"/>
		</g>
	</g>
	<g>
		<g>
			<path fill="#BCBCBC" d="M257.997,32.789c-0.554-9.333-19.448-6.958-25.982-6.933c-4.003,0.016-8.393,1.123-12.313,1.875
				c-2.536,0.486-5.111,1.038-7.534,1.952c-0.646,0.244-1.31,0.468-1.91,0.811c-0.351,1.749-1.493,2.974-2.919,3.634
				c0.013,3.661,0.435,7.879,3.938,9.109c2.692,0.945,5.755,0.6,8.552,0.738c3.16,0.156,6.316,0.371,9.473,0.598
				c7.095,0.507,14.467,1.24,21.551,0.238c2.997-0.424,4.127-1.312,5.383-4.208C257.271,38.213,258.153,35.431,257.997,32.789z"/>
		</g>
	</g>
	<g>
		<g>
			<path fill="#EF4823" d="M312.438,165.541c-2.273-12.624-11.621-31.112-27.005-24.229c-11.923,5.336-20.646,17.859-25.629,29.51
				c-1.901,4.445-8.647,3.715-10.118-0.629c-4.597-13.569-12.689-30.283-29.385-30.481c-14.698-0.174-32.516,7.896-29.022,25.226
				c3.246,16.102,13.786,30.545,24.347,42.666c5.033,5.777,10.401,10.186,16.232,15.076c4.452,3.735,8.709,7.752,11.615,12.753
				c9.124-4.767,17.918-10.106,26.611-15.62c7.688-4.877,15.727-9.17,22.857-14.889C304.915,195.322,315.362,181.79,312.438,165.541
				z"/>
		</g>
	</g>
	<g>
		<g>
			<path fill="#D6E5E5" d="M379.518,407.884c-0.551-6.557-1.146-13.097-1.899-19.637c-1.726-14.964-2.575-29.826-3.198-44.871
				c-1.22-29.455-2.431-58.909-3.648-88.363c-0.616-14.896-0.753-29.908-2.155-44.754c-1.335-14.144-3.662-28.17-5.038-42.308
				c-1.43-14.691-1.121-29.429-1.757-44.162c-0.546-12.655-1.236-25.304-1.393-37.97c-18.134-0.201-36.195-1.708-54.314-2.531
				c-4.849-0.221-9.7-0.412-14.553-0.588c-0.318,0.74-0.672,1.456-1.083,2.125c-8.757,14.25-30.465,8.281-44.177,10.034
				c-12.361,1.58-24.752,3.948-37.249,4.063c-9.248,0.084-20.542,0.211-27.232-7.267c-1.292-1.444-2.351-2.991-3.227-4.614
				c-8.013,0.483-15.989,0.686-24.029,0.916c-8.728,0.25-17.55,0.75-25.868,3.607c-1.209,0.416-2.315,0.415-3.282,0.13
				c0.439,27.683,3.784,55.489,6.656,82.981c3.135,30.004,6.261,59.878,7.89,90.014c1.646,30.457,2.703,60.941,4.225,91.403
				c0.742,14.837,1.513,29.624,3.293,44.378c1.485,12.32,3.045,24.651,2.971,37.066c5.923-1.805,12.25-2.308,18.247-3.754
				c9.048-2.182,17.979-4.343,27.241-5.467c19.98-2.427,40.26-3.153,60.374-2.869c21.103,0.297,42.269,1.479,63.36,0.223
				c10.077-0.602,20.015-2.146,30.056-3.073c8.113-0.75,16.218-1.412,24.249-2.718c1.391-2.444,4.803-3.58,7.375-2.422
				C381.077,414.228,379.712,410.2,379.518,407.884z M181.363,150.673c5.942-16.873,29.06-25.051,45.543-21.131
				c14.048,3.342,22.749,13.562,28.586,25.668c6.716-10.989,16.454-21.238,28.206-25.014c18.826-6.049,32.234,9.231,37.605,25.911
				c6.365,19.767-0.744,38.755-15.788,52.431c-7.597,6.906-15.96,11.923-24.562,17.396c-11.104,7.065-22.245,14.054-34,20
				c-2.188,1.106-4.371,0.71-6.016-0.408c-2.386,0.413-5.048-0.5-6.251-3.333c-3.304-7.773-12.308-12.839-18.586-17.986
				c-7.21-5.911-13.633-14.699-19.032-22.256c-5.828-8.158-10.446-16.811-13.962-26.197
				C180.103,167.734,178.442,158.968,181.363,150.673z M274.454,292.889h29c7.06,0,7.937,10.971,0.848,10.971h-29
				C268.242,303.859,267.365,292.889,274.454,292.889z M262.931,288.175c-20.566-0.835-41.045,2.6-61.629,2.685
				c-7.062,0.028-7.938-10.941-0.848-10.971c19.862-0.081,39.705-3.583,59.537-2.769c7.017,0.287,14.063,0.61,21.085,0.303
				c3.916-0.172,12.163-0.065,14.67-2.68c4.89-5.101,13.189,2.125,8.264,7.262c-4.409,4.6-11.379,5.625-17.447,6.106
				C278.7,288.735,270.802,288.495,262.931,288.175z M327.302,413.859c-10.34,0.062-20.658,0.955-31,1
				c-7.062,0.03-7.938-10.939-0.848-10.971c10.343-0.044,20.661-0.938,31-1C333.519,402.847,334.392,413.816,327.302,413.859z
				 M328.828,395.772c-8.296-2.721-17.041-0.077-25.526,0.087c-7.074,0.136-7.938-10.833-0.848-10.971
				c9.47-0.183,19.19-2.958,28.474,0.087C337.574,387.155,335.558,397.979,328.828,395.772z M331.302,378.859h-37
				c-7.06,0-7.937-10.971-0.848-10.971h37C337.514,367.889,338.391,378.859,331.302,378.859z M342.302,331.859h-2
				c-0.004,0-0.007-0.001-0.01-0.001c-8.073,0.001-16.147-0.003-24.217-0.225c-7.561-0.208-15.218-1.119-22.778-0.801
				c-5.321,0.225-7.241,4.661-8.908,9.35c-2.26,6.354-3.802,12.958-7.584,18.639c-2.119,3.184-7.106,4.547-9.486,0.629
				c-3.814-6.281-4.055-13.412-7.032-19.942c-1.838-4.029-4.111-7.56-6.832-10.782c-1.365,6.609-1.635,13.497-2.877,20.104
				c-1.847,9.814-6.926,19.009-7.214,29.121c-0.128,4.48-5.267,8.173-9.116,4.557c-8.543-8.025-10.676-19.823-13.551-30.673
				c-1.928-7.272-3.38-14.992-5.598-22.377c-1.001,4.643-1.895,9.312-2.822,13.966c-0.449,2.261-2.547,4.437-4.975,4.437h-52
				c-7.06,0-7.937-10.971-0.848-10.971h47.901c1.694-8.604,3.423-17.212,6.124-25.563c1.314-4.068,7.286-6.678,9.958-2.027
				c6.495,11.307,8.548,24.027,11.974,36.433c1.537,5.564,2.575,12.204,4.742,18.128c1.66-5.645,3.633-11.204,4.626-17.129
				c1.739-10.386,2.089-20.956,6.172-30.803c1.389-3.35,6.003-3.871,8.558-1.686c6.118,5.235,11.537,11.439,14.888,18.829
				c1.242,2.74,2.032,5.693,2.811,8.648c3.313-9.76,6.702-20.108,17.474-21.615c7.735-1.082,15.899,0.295,23.661,0.508
				c9.37,0.258,18.741,0.277,28.112,0.277C348.513,320.89,349.391,331.859,342.302,331.859z"/>
		</g>
	</g>
	<g>
		<g>
			<path fill="#127274" d="M417.066,167.007c2.964-21.129,6.118-43.973,1.01-65.032c-2.344-9.664-6.245-19.427-13.231-26.726
				c-8.53-8.909-19.603-15.238-31.438-18.626c-25.809-7.388-53.82-6.849-80.581-5.559c0.603,3.69,0.81,7.467,0.887,11.064
				c0.062,2.922,0.171,6.306-0.004,9.706c3.854,0.146,7.706,0.304,11.559,0.482c19.403,0.902,38.76,2.568,58.187,2.571
				c1.443,0,2.624,0.464,3.535,1.194c2.321,0.238,4.366,1.811,4.374,4.867c0.04,15.284,1.014,30.53,1.583,45.797
				c0.551,14.775,0.34,29.487,2.01,44.203c1.671,14.739,4.147,29.418,5.093,44.231c0.952,14.932,1.318,29.919,1.936,44.868
				c1.244,30.1,2.48,60.201,3.729,90.301c0.626,15.062,2.188,29.864,3.743,44.85c0.631,6.084,1.056,12.132,1.959,18.18
				c0.612,4.102,1.308,8.574-0.611,12.441c-1.544,3.113-4.703,3.521-7.149,2.383c-0.896,0.813-2.07,1.392-3.354,1.655
				c-9.823,2.018-19.767,2.748-29.729,3.708c-10.034,0.967-19.978,2.54-30.056,3.073c-20.475,1.083-40.95,0.094-61.431-0.195
				c-20.133-0.284-40.476,0.19-60.484,2.62c-9.391,1.141-18.346,3.355-27.553,5.385c-7.095,1.562-14.687,2.052-21.354,5.115
				c-2.771,1.273-5.004,0.081-6.152-1.925c-2.302-0.235-4.271-1.797-4.151-4.843c0.572-14.553-1.419-28.955-3.112-43.372
				c-1.734-14.778-2.439-29.616-3.163-44.473c-1.483-30.464-2.536-60.949-4.236-91.402c-1.682-30.13-4.929-59.985-7.983-89.994
				c-2.895-28.434-6.405-57.151-6.505-85.759c-0.017-4.863,5.181-6.792,8.427-5.206c0.556-0.591,1.291-1.083,2.24-1.409
				c15.957-5.483,33.498-4.204,50.258-4.959c-0.68-5.325-0.396-10.977,0.056-16.519c-3.965,1.364-8.71,1.532-12.293,1.706
				c-8.544,0.417-17.104,0.104-25.645-0.248c-7.302-0.301-14.547-0.167-21.853,0.068c-6.618,0.213-15.372,0.198-19.877,5.46
				c-1.977,15.37-3.861,30.716-4.195,46.259c-0.419,19.502,0.522,39.002,2.3,58.422c5.692,62.181,11.521,124.861,9.162,187.381
				c-1.519,40.251-8.119,102.692,38.685,120.449c19.929,7.561,42.295,7.561,63.297,6.678c24.411-1.026,48.939-1.895,73.258-4.297
				c27.149-2.682,54.582-7.197,79.924-17.688c22.479-9.306,42.885-22.925,50.343-47.301c7.242-23.672,4.493-48.307,2.989-72.574
				c-1.986-32.064-2.987-64.225-1.869-96.343C410.544,220.558,413.301,193.85,417.066,167.007z"/>
		</g>
	</g>
	<g>
		<g>
			<path d="M341.454,320.889c-9.371,0-18.742-0.02-28.112-0.277c-7.762-0.213-15.926-1.59-23.661-0.508
				c-10.771,1.507-14.16,11.855-17.474,21.615c-0.778-2.955-1.568-5.908-2.811-8.648c-3.351-7.39-8.77-13.594-14.888-18.829
				c-2.555-2.186-7.169-1.664-8.558,1.686c-4.083,9.847-4.433,20.417-6.172,30.803c-0.993,5.925-2.966,11.484-4.626,17.129
				c-2.167-5.924-3.205-12.563-4.742-18.128c-3.426-12.405-5.479-25.126-11.974-36.433c-2.672-4.65-8.644-2.041-9.958,2.027
				c-2.701,8.352-4.43,16.96-6.124,25.563h-47.901c-7.089,0-6.212,10.971,0.848,10.971h52c2.428,0,4.525-2.176,4.975-4.437
				c0.928-4.654,1.821-9.323,2.822-13.966c2.218,7.385,3.67,15.104,5.598,22.377c2.875,10.85,5.008,22.647,13.551,30.673
				c3.85,3.616,8.988-0.076,9.116-4.557c0.288-10.112,5.367-19.307,7.214-29.121c1.242-6.606,1.512-13.494,2.877-20.104
				c2.721,3.223,4.994,6.753,6.832,10.782c2.978,6.53,3.218,13.661,7.032,19.942c2.38,3.918,7.367,2.555,9.486-0.629
				c3.782-5.681,5.324-12.285,7.584-18.639c1.667-4.688,3.587-9.125,8.908-9.35c7.561-0.318,15.218,0.593,22.778,0.801
				c8.069,0.222,16.144,0.226,24.217,0.225c0.003,0,0.006,0.001,0.01,0.001h2C349.391,331.859,348.513,320.89,341.454,320.889z"/>
		</g>
	</g>
	<g>
		<g>
			<path d="M303.454,292.889h-29c-7.089,0-6.212,10.971,0.848,10.971h29C311.391,303.859,310.514,292.889,303.454,292.889z"/>
		</g>
	</g>
	<g>
		<g>
			<path d="M330.454,367.889h-37c-7.089,0-6.212,10.971,0.848,10.971h37C338.391,378.859,337.514,367.889,330.454,367.889z"/>
		</g>
	</g>
	<g>
		<g>
			<path d="M330.928,384.976c-9.283-3.045-19.004-0.27-28.474-0.087c-7.09,0.138-6.227,11.106,0.848,10.971
				c8.485-0.164,17.23-2.808,25.526-0.087C335.558,397.979,337.574,387.155,330.928,384.976z"/>
		</g>
	</g>
	<g>
		<g>
			<path d="M326.454,402.889c-10.339,0.062-20.657,0.956-31,1c-7.09,0.031-6.215,11.001,0.848,10.971c10.342-0.045,20.66-0.938,31-1
				C334.392,413.816,333.519,402.847,326.454,402.889z"/>
		</g>
	</g>
	<g>
		<g>
			<path d="M430.276,149.423c2.111-21.241,2.52-43.912-6.034-63.904c-9.511-22.229-30.587-35.126-53.285-40.925
				c-26.141-6.679-54.63-5.729-81.565-4.374c-0.63-1.158-1.461-1.877-2.373-2.241c-3.648-5.905-11.111-9.207-18.518-9.253
				c-3.285-14.682-23.896-13.994-36.549-13.847c-6.142,0.071-12.694,1.682-18.655,3.048c-5.081,1.165-11.772,3.43-13.488,8.639
				c-1.913,0.819-3.434,2.593-3.416,5.232c0.009,1.263,0.044,2.543,0.122,3.818c-0.006,0.001-0.012,0.002-0.018,0.002
				c-2.004,0.23-4.004,0.466-5.99,0.828c-2.505,0.455-5.223,1.123-7.252,2.668c-3.101-0.43-6.829,1.58-6.862,5.684
				c-0.005,0.641-0.022,1.293-0.047,1.951c-1.271,0.058-2.548,0.651-3.6,1.994c-0.073,0.093-0.091,0.137-0.091,0.158
				c-0.05-0.004-0.189,0.021-0.557,0.159c-1.275,0.479-2.606,0.667-3.945,0.858c-4.158,0.594-8.399,0.666-12.592,0.713
				c-8.348,0.094-16.688-0.388-25.027-0.678c-8.012-0.278-16.427-0.027-24.388,0.896c-7.951,0.922-15.908,3.88-20.321,10.524h-0.514
				l-0.141,1.071c-0.449,0.784-0.868,1.601-1.22,2.481c-0.721,1.804-0.493,3.482,0.265,4.834
				c-1.242,9.617-2.389,19.244-3.011,28.932c-1.032,16.057-0.941,32.146-0.169,48.21c1.572,32.675,5.834,65.208,8.005,97.855
				c2.17,32.634,3.328,65.333,3.352,98.04c0.018,23.568-2.368,47.057-0.659,70.625c1.619,22.334,7.271,46.09,23.67,62.355
				c14.948,14.826,37.702,19.312,57.894,20.787c21.684,1.584,43.45-0.327,65.118-1.293c27.336-1.219,54.724-3.233,81.578-8.711
				c25.363-5.174,52.314-13.408,73.124-29.388c18.4-14.13,27.499-35.503,30.162-58.062c3.171-26.865-1.008-54.386-2.189-81.257
				c-1.412-32.113-1.422-64.316,0.774-96.395C423.521,197.263,427.882,173.521,430.276,149.423z M210.257,30.494
				c0.601-0.343,1.264-0.566,1.91-0.811c2.423-0.914,4.998-1.466,7.534-1.952c3.921-0.752,8.311-1.859,12.313-1.875
				c6.534-0.025,25.429-2.4,25.982,6.933c0.156,2.642-0.727,5.424-1.764,7.814c-1.256,2.896-2.386,3.784-5.383,4.208
				c-7.084,1.002-14.456,0.269-21.551-0.238c-3.156-0.227-6.312-0.441-9.473-0.598c-2.797-0.139-5.859,0.207-8.552-0.738
				c-3.503-1.23-3.925-5.448-3.938-9.109C208.764,33.468,209.906,32.243,210.257,30.494z M186.155,64.968
				c0.135-5.082,0.674-10.142,0.985-15.215c1.183-0.201,2.292-0.835,3.118-2.002c0.378-0.123,0.762-0.231,1.142-0.334
				c1.014-0.271,2.486-0.412,3.676-0.562c1.35-0.172,2.692-0.325,4.031-0.503c1.128,2.116,2.709,3.997,4.948,5.48
				c6.768,4.482,16.836,3.087,24.59,3.642c9.624,0.689,19.619,1.652,29.051-0.908c5.632-1.529,8.984-8.456,10.427-14.768
				c3.972,0.086,10.634,1.434,10.356,5.527c-0.182,2.675,0.878,5.211,3.405,6.166c0.677,3.77,0.743,8.124,0.857,11.484
				c0.156,4.6,0.482,13.454-1.996,16.768c-3.212,4.293-12.493,3.715-17.161,3.862c-7.12,0.224-14.193-0.246-21.275,0.693
				c-10.211,1.354-20.371,2.991-30.669,3.542c-6.88,0.367-18.219,1.657-22.727-4.883C185.547,78.071,186.006,70.583,186.155,64.968z
				 M178.594,87.042c0.876,1.623,1.935,3.17,3.227,4.614c6.69,7.478,17.984,7.351,27.232,7.267
				c12.497-0.115,24.888-2.483,37.249-4.063c13.712-1.753,35.42,4.216,44.177-10.034c0.411-0.669,0.765-1.385,1.083-2.125
				c4.853,0.176,9.704,0.367,14.553,0.588c18.119,0.823,36.181,2.33,54.314,2.531c0.156,12.666,0.847,25.314,1.393,37.97
				c0.636,14.733,0.327,29.471,1.757,44.162c1.376,14.138,3.703,28.164,5.038,42.308c1.402,14.846,1.539,29.858,2.155,44.754
				c1.218,29.454,2.429,58.908,3.648,88.363c0.623,15.045,1.473,29.907,3.198,44.871c0.753,6.54,1.349,13.08,1.899,19.637
				c0.194,2.316,1.56,6.344,1.833,9.574c-2.572-1.158-5.984-0.022-7.375,2.422c-8.031,1.306-16.136,1.968-24.249,2.718
				c-10.041,0.928-19.979,2.472-30.056,3.073c-21.092,1.257-42.258,0.074-63.36-0.223c-20.114-0.284-40.394,0.442-60.374,2.869
				c-9.263,1.124-18.193,3.285-27.241,5.467c-5.997,1.446-12.324,1.949-18.247,3.754c0.074-12.415-1.485-24.746-2.971-37.066
				c-1.78-14.754-2.551-29.541-3.293-44.378c-1.521-30.462-2.578-60.946-4.225-91.403c-1.629-30.136-4.755-60.01-7.89-90.014
				c-2.872-27.492-6.217-55.299-6.656-82.981c0.967,0.285,2.073,0.286,3.282-0.13c8.318-2.857,17.141-3.357,25.868-3.607
				C162.604,87.728,170.581,87.525,178.594,87.042z M417.066,167.007c-3.766,26.843-6.522,53.551-7.468,80.671
				c-1.118,32.118-0.117,64.278,1.869,96.343c1.504,24.268,4.253,48.902-2.989,72.574c-7.458,24.376-27.864,37.995-50.343,47.301
				c-25.342,10.49-52.774,15.006-79.924,17.688c-24.318,2.402-48.847,3.271-73.258,4.297c-21.002,0.883-43.368,0.883-63.297-6.678
				c-46.804-17.757-40.203-80.198-38.685-120.449c2.358-62.52-3.47-125.2-9.162-187.381c-1.777-19.42-2.719-38.92-2.3-58.422
				c0.334-15.543,2.219-30.889,4.195-46.259c4.505-5.262,13.259-5.247,19.877-5.46c7.306-0.235,14.551-0.369,21.853-0.068
				c8.54,0.352,17.101,0.665,25.645,0.248c3.583-0.174,8.328-0.342,12.293-1.706c-0.451,5.542-0.735,11.193-0.056,16.519
				c-16.76,0.755-34.301-0.524-50.258,4.959c-0.949,0.326-1.685,0.818-2.24,1.409c-3.246-1.586-8.443,0.343-8.427,5.206
				c0.1,28.607,3.61,57.325,6.505,85.759c3.055,30.009,6.302,59.864,7.983,89.994c1.7,30.453,2.753,60.938,4.236,91.402
				c0.724,14.856,1.429,29.694,3.163,44.473c1.693,14.417,3.685,28.819,3.112,43.372c-0.12,3.046,1.85,4.607,4.151,4.843
				c1.148,2.006,3.382,3.198,6.152,1.925c6.667-3.063,14.259-3.553,21.354-5.115c9.207-2.029,18.162-4.244,27.553-5.385
				c20.009-2.43,40.352-2.904,60.484-2.62c20.48,0.289,40.956,1.278,61.431,0.195c10.078-0.533,20.021-2.106,30.056-3.073
				c9.962-0.96,19.905-1.69,29.729-3.708c1.283-0.264,2.457-0.842,3.354-1.655c2.446,1.139,5.605,0.73,7.149-2.383
				c1.919-3.867,1.224-8.34,0.611-12.441c-0.903-6.048-1.328-12.096-1.959-18.18c-1.555-14.985-3.117-29.787-3.743-44.85
				c-1.249-30.1-2.485-60.201-3.729-90.301c-0.617-14.949-0.983-29.937-1.936-44.868c-0.945-14.813-3.422-29.492-5.093-44.231
				c-1.67-14.716-1.459-29.428-2.01-44.203c-0.569-15.267-1.543-30.513-1.583-45.797c-0.008-3.057-2.053-4.629-4.374-4.867
				c-0.911-0.73-2.092-1.194-3.535-1.194c-19.427-0.003-38.783-1.669-58.187-2.571c-3.853-0.179-7.705-0.336-11.559-0.482
				c0.175-3.4,0.065-6.784,0.004-9.706c-0.077-3.598-0.284-7.374-0.887-11.064c26.761-1.29,54.772-1.829,80.581,5.559
				c11.835,3.388,22.907,9.717,31.438,18.626c6.986,7.299,10.888,17.062,13.231,26.726
				C423.185,123.034,420.03,145.878,417.066,167.007z"/>
		</g>
	</g>
	<g>
		<g>
			<path d="M321.304,156.107c-5.371-16.68-18.779-31.96-37.605-25.911c-11.752,3.775-21.49,14.024-28.206,25.014
				c-5.837-12.105-14.538-22.326-28.586-25.668c-16.483-3.92-39.601,4.258-45.543,21.131c-2.921,8.295-1.261,17.062,1.743,25.08
				c3.516,9.387,8.134,18.039,13.962,26.197c5.399,7.557,11.822,16.345,19.032,22.256c6.278,5.147,15.282,10.213,18.586,17.986
				c1.203,2.833,3.865,3.746,6.251,3.333c1.645,1.118,3.827,1.515,6.016,0.408c11.755-5.946,22.896-12.935,34-20
				c8.603-5.473,16.966-10.489,24.562-17.396C320.56,194.862,327.669,175.874,321.304,156.107z M292.942,204.923
				c-7.131,5.719-15.169,10.012-22.857,14.889c-8.693,5.514-17.487,10.854-26.611,15.62c-2.906-5.001-7.163-9.018-11.615-12.753
				c-5.831-4.891-11.199-9.299-16.232-15.076c-10.561-12.121-21.101-26.564-24.347-42.666c-3.493-17.33,14.324-25.399,29.022-25.226
				c16.695,0.198,24.788,16.912,29.385,30.481c1.471,4.344,8.217,5.074,10.118,0.629c4.983-11.65,13.706-24.174,25.629-29.51
				c15.384-6.883,24.731,11.605,27.005,24.229C315.362,181.79,304.915,195.322,292.942,204.923z"/>
		</g>
	</g>
	<g>
		<g>
			<path d="M295.746,274.743c-2.507,2.614-10.754,2.508-14.67,2.68c-7.021,0.308-14.068-0.016-21.085-0.303
				c-19.832-0.814-39.675,2.688-59.537,2.769c-7.09,0.029-6.215,10.999,0.848,10.971c20.584-0.085,41.062-3.52,61.629-2.685
				c7.871,0.32,15.77,0.561,23.632-0.063c6.068-0.481,13.038-1.507,17.447-6.106C308.936,276.868,300.636,269.643,295.746,274.743z"
				/>
		</g>
	</g>
	<g>
		<g>
			<path d="M203.509,72.241c-1.104-0.973-2.586-1.465-4.055-1.353c-1.421,0.109-2.767,0.784-3.708,1.854
				c-0.076,0.086-0.141,0.176-0.209,0.264c-0.294,0.228-0.562,0.477-0.791,0.736c-0.974,1.104-1.466,2.586-1.354,4.055
				c0.109,1.421,0.784,2.767,1.854,3.709c1.172,1.031,2.532,1.354,4.055,1.353c1.696-0.001,3.471-0.645,4.583-1.979
				c0.705-0.845,1.179-1.745,1.372-2.841c0.119-0.681,0.105-1.394,0.106-2.089C205.364,74.577,204.51,73.123,203.509,72.241z"/>
		</g>
	</g>
	<g>
		<g>
			<path d="M219.454,70.889c-7.089,0-6.212,10.971,0.848,10.971C227.391,81.859,226.514,70.889,219.454,70.889z"/>
		</g>
	</g>
	<g>
		<g>
			<path d="M247.509,71.241c-1.173-1.032-2.531-1.353-4.055-1.353h-1c-1.373,0-2.826,0.853-3.708,1.854
				c-0.974,1.104-1.466,2.586-1.354,4.055c0.109,1.421,0.784,2.767,1.854,3.709c1.173,1.032,2.531,1.353,4.055,1.353h1
				c1.373,0,2.826-0.853,3.708-1.854c0.974-1.104,1.466-2.586,1.354-4.055C249.254,73.529,248.579,72.184,247.509,71.241z"/>
		</g>
	</g>
	<g>
		<g>
			<path d="M261.454,67.889c-7.089,0-6.212,10.971,0.848,10.971C269.391,78.859,268.514,67.889,261.454,67.889z"/>
		</g>
	</g>
</g>
</svg>
