<?xml version="1.0" encoding="utf-8"?>
<!-- Generator: Adobe Illustrator 16.0.3, SVG Export Plug-In . SVG Version: 6.00 Build 0)  -->
<!DOCTYPE svg PUBLIC "-//W3C//DTD SVG 1.1//EN" "http://www.w3.org/Graphics/SVG/1.1/DTD/svg11.dtd">
<svg version="1.1" id="Layer_1" xmlns="http://www.w3.org/2000/svg" xmlns:xlink="http://www.w3.org/1999/xlink" x="0px" y="0px"
	 width="512px" height="512px" viewBox="0 0 512 512" enable-background="new 0 0 512 512" xml:space="preserve">
<g>
	<g>
		<g>
			<path fill="#71C598" d="M122.913,254.67c-5.967,4.016-11.546,8.736-17.438,12.888c-3.045,2.145-8.245,4.232-9.96,8.253
				c10.556,1.57,21.214,2.885,31.394-1.237c8.909-3.61,21.092-12.572,21.76-24.705C149.249,239.337,125.661,252.82,122.913,254.67z"
				/>
		</g>
	</g>
	<g>
		<g>
			<path fill="#71C598" d="M76.902,185.326c-5.973-13.294-10.226-27.517-16.602-40.58c-3.154-6.461-7.107-12.257-11.819-17.317
				c-2.077-2.231-11.567-11.582-14.45-8.778c-2.58,2.512-1.352,11.125-1.032,14.379c0.841,8.578,5.52,16.478,9.937,23.208
				c8.438,12.857,20.093,26.867,33.83,32.049c0.117-0.841,0.233-1.681,0.359-2.519C77.049,185.624,76.973,185.482,76.902,185.326z"
				/>
		</g>
	</g>
	<g>
		<g>
			<path fill="#71C598" d="M80.117,274.381c0.338-7.53-3.819-14.954-7.079-21.144c-3.892-7.389-8.144-14.851-12.57-21.823
				c-5.079-8.001-11.388-14.909-17.982-21.242c-4.839-4.648-10.608-7.549-15.948-11.252c-5.528,17.183,1.443,38.292,10.439,52.204
				c10.336,15.985,26.092,24.675,42.915,26.212c0.126-0.302,0.271-0.589,0.437-0.86C80.167,275.845,80.082,275.151,80.117,274.381z"
				/>
		</g>
	</g>
	<g>
		<g>
			<path fill="#71C598" d="M160.234,291.821c-3.229-1.855-6.682,1.115-8.996,3.453c-4.483,4.528-6.533,11.491-8.116,17.887
				c-2.566,10.372-2.414,21.438-2.719,32.297c6.019-4.915,10.729-11.85,15.357-18.549c3.648-5.281,6.919-10.824,8.747-17.271
				C166.033,304.264,165.284,294.722,160.234,291.821z"/>
		</g>
	</g>
	<g>
		<g>
			<path fill="#71C598" d="M102.921,81.431c0.216-6.744,0.329-13.941-1.729-20.373c-1.636-5.112-4.55-9.431-7.123-13.969
				c-5.822,2.713-9.982,9.366-13.179,15.32c-4.253,7.923-7.308,17.308-8.146,26.583c-0.814,8.995,4.467,16.991,9.339,23.417
				c4.474,5.904,10.342,12.382,16.963,15.078c0.186-0.277,0.371-0.553,0.557-0.828c-1.257-1.397-1.984-3.457-1.461-5.895
				C100.961,107.636,102.491,94.909,102.921,81.431z"/>
		</g>
	</g>
	<g>
		<g>
			<path fill="#71C598" d="M121.356,354.032c-0.259-0.266-0.506-0.429-1.249-1.056c-2.408-2.033-5.046-3.724-7.658-5.38
				c-6.658-4.219-13.612-7.834-20.57-11.348c-4.517-2.28-9.062-4.595-13.718-6.485c-6.175-2.508-13.1-3.469-19.538-4.7
				c-5.569-1.064-11.164-1.941-16.76-2.793c0.229,5.86,1.149,11.222,4.872,16.12c6.473,8.516,16.384,14.14,25.376,18.279
				c9.633,4.434,20.318,8.13,30.576,9.93c5.462,0.958,10.447,0.625,15.542-1.833c2.91-1.403,5.714-3.065,8.564-4.607
				C124.017,360.381,121.445,357.338,121.356,354.032z"/>
		</g>
	</g>
	<g>
		<g>
			<path fill="#71C598" d="M171.017,403.541c-5.527-1.23-11.127-1.972-16.739-2.447c-11.617-0.981-23.116-0.069-34.501,2.728
				c-10.413,2.557-21.01,6.764-30.201,12.997c-2.447,1.66-14.552,10.189-11.546,14.491c2.527,3.619,8.795,4.974,12.536,5.779
				c4.929,1.06,10.086,1.181,15.078,0.824c10.098-0.723,20.066-3.508,29.741-6.765c7.614-2.562,14.838-6.583,21.55-11.411
				c5.316-3.825,11.272-9.34,14.189-16.176C171.087,403.552,171.054,403.549,171.017,403.541z"/>
		</g>
	</g>
	<g>
		<g>
			<path fill="#71C598" d="M153.199,197.53c-7.19-3.854-15.774-4.578-23.592-4.754c-14.092-0.318-28.346,3.368-41.795,8.317
				c1.824,1.541,3.649,3.083,5.504,4.582c6.313,5.103,12.636,8.038,20.232,9.586c14.303,2.913,29.97,0.225,41.256-11.026
				C158.074,200.977,156.845,199.484,153.199,197.53z"/>
		</g>
	</g>
	<g>
		<g>
			<path fill="#71C598" d="M382.393,192.776c-7.818,0.176-16.4,0.9-23.592,4.754c-3.645,1.955-4.874,3.447-1.605,6.706
				c11.287,11.251,26.953,13.939,41.256,11.026c7.598-1.549,13.92-4.484,20.233-9.586c1.854-1.499,3.678-3.041,5.503-4.582
				C410.738,196.144,396.485,192.458,382.393,192.776z"/>
		</g>
	</g>
	<g>
		<g>
			<path fill="#71C598" d="M439.257,88.992c-0.84-9.276-3.896-18.661-8.147-26.583c-3.195-5.954-7.355-12.607-13.178-15.32
				c-2.575,4.538-5.488,8.857-7.123,13.969c-2.058,6.432-1.945,13.629-1.73,20.373c0.432,13.479,1.962,26.205,4.779,39.334
				c0.524,2.438-0.203,4.498-1.461,5.895c0.186,0.275,0.373,0.551,0.558,0.828c6.621-2.695,12.489-9.174,16.963-15.078
				C434.789,105.983,440.07,97.987,439.257,88.992z"/>
		</g>
	</g>
	<g>
		<g>
			<path fill="#71C598" d="M370.535,132.938c-6.569-0.586-13.074-1.8-19.674-2.072c-9.973-0.411-26.652-1.2-33.85,8.843
				c15.904,9.63,34.365,16.802,52.361,14.622c9.285-1.124,18.394-4.786,26.383-10.323c2.008-1.392,4.043-2.733,6.035-4.154
				C391.396,137.378,381.138,133.882,370.535,132.938z"/>
		</g>
	</g>
	<g>
		<g>
			<path fill="#71C598" d="M206.031,342.539c-0.669-4.451-2.968-11.482-7.507-12.487c-4.654-1.03-6.862,7.367-8.077,10.98
				c-2.502,7.444-3.639,15.367-4.309,23.271c-0.518,6.14-0.419,12.156-0.177,18.27c7.696-4.429,15.159-9.751,18.577-18.383
				C207.218,357.424,207.107,349.705,206.031,342.539z"/>
		</g>
	</g>
	<g>
		<g>
			<path fill="#71C598" d="M168.57,50.771c-0.047,0.002-0.078,0.002-0.137,0.008c-7.823,0.716-15.349,8.596-21.246,13.775
				c-5.103,4.479-10.184,9.217-14.168,15.039c-2.078,3.038-3.559,6.023-3.669,9.935c-0.095,3.408,0.699,6.969,1.401,10.411
				c4.962,1.5,9.857,1.049,14.759-1.436c6.593-3.345,10.518-9.866,14.001-16.781c3.698-7.337,6.334-15.409,8.317-23.55
				C168.408,55.796,168.893,53.233,168.57,50.771z"/>
		</g>
	</g>
	<g>
		<g>
			<path fill="#71C598" d="M161.139,130.866c-6.6,0.271-13.104,1.485-19.674,2.072c-10.602,0.944-20.86,4.44-31.256,6.916
				c1.992,1.421,4.027,2.763,6.036,4.154c7.988,5.537,17.098,9.199,26.382,10.323c17.997,2.18,36.458-4.992,52.362-14.622
				C187.792,129.667,171.111,130.456,161.139,130.866z"/>
		</g>
	</g>
	<g>
		<g>
			<path fill="#71C598" d="M378.981,79.593c-3.984-5.822-9.065-10.56-14.168-15.039c-5.897-5.179-13.423-13.059-21.247-13.775
				c-0.057-0.005-0.09-0.005-0.137-0.008c-0.323,2.462,0.163,5.025,0.742,7.399c1.982,8.142,4.619,16.213,8.316,23.55
				c3.484,6.915,7.408,13.436,14.002,16.781c4.901,2.485,9.796,2.936,14.76,1.436c0.701-3.441,1.495-7.002,1.4-10.411
				C382.539,85.617,381.06,82.631,378.981,79.593z"/>
		</g>
	</g>
	<g>
		<g>
			<path fill="#71C598" d="M406.525,267.558c-5.892-4.152-11.473-8.873-17.438-12.888c-2.748-1.85-26.336-15.333-25.756-4.8
				c0.668,12.133,12.85,21.095,21.76,24.705c10.18,4.123,20.838,2.807,31.395,1.237C414.771,271.79,409.569,269.703,406.525,267.558
				z"/>
		</g>
	</g>
	<g>
		<g>
			<path fill="#71C598" d="M477.969,118.65c-2.882-2.803-12.372,6.547-14.449,8.778c-4.713,5.061-8.665,10.856-11.819,17.317
				c-6.376,13.063-10.63,27.286-16.603,40.58c-0.068,0.156-0.146,0.298-0.222,0.441c0.126,0.838,0.242,1.678,0.358,2.519
				c13.736-5.182,25.393-19.191,33.83-32.049c4.417-6.729,9.097-14.629,9.938-23.208C479.32,129.776,480.55,121.163,477.969,118.65z
				"/>
		</g>
	</g>
	<g>
		<g>
			<path fill="#71C598" d="M453.378,325.062c-6.438,1.231-13.364,2.192-19.537,4.7c-4.656,1.891-9.202,4.206-13.72,6.485
				c-6.957,3.513-13.911,7.129-20.569,11.348c-2.614,1.656-5.25,3.348-7.659,5.38c-0.742,0.627-0.989,0.791-1.248,1.056
				c-0.09,3.306-2.66,6.349-5.438,6.125c2.851,1.542,5.654,3.205,8.564,4.607c5.095,2.458,10.08,2.791,15.542,1.833
				c10.258-1.8,20.942-5.496,30.575-9.93c8.992-4.139,18.904-9.763,25.377-18.279c3.723-4.898,4.643-10.259,4.871-16.12
				C464.541,323.121,458.945,323.998,453.378,325.062z"/>
		</g>
	</g>
	<g>
		<g>
			<path fill="#71C598" d="M485.464,198.919c-5.341,3.704-11.109,6.604-15.948,11.252c-6.596,6.333-12.903,13.24-17.982,21.242
				c-4.427,6.972-8.679,14.435-12.571,21.823c-3.259,6.19-7.416,13.614-7.079,21.144c0.035,0.771-0.049,1.464-0.212,2.095
				c0.168,0.271,0.312,0.559,0.438,0.86c16.824-1.537,32.58-10.228,42.916-26.212C484.02,237.212,490.991,216.102,485.464,198.919z"
				/>
		</g>
	</g>
	<g>
		<g>
			<path fill="#71C598" d="M368.878,313.161c-1.583-6.396-3.632-13.359-8.115-17.887c-2.313-2.338-5.768-5.308-8.996-3.453
				c-5.05,2.901-5.799,12.442-4.274,17.817c1.828,6.447,5.1,11.989,8.748,17.271c4.629,6.699,9.338,13.634,15.357,18.549
				C371.293,334.6,371.444,323.533,368.878,313.161z"/>
		</g>
	</g>
	<g>
		<g>
			<path fill="#71C598" d="M276,374.242c-5.424,1.126-10.116,8.859-10.751,14.74c-0.804,7.442,1.339,15.029,5.142,21.251
				c1.939-5.802,4.393-11.439,6.206-17.292C277.654,389.53,281.149,373.172,276,374.242z"/>
		</g>
	</g>
	<g>
		<g>
			<path fill="#71C598" d="M422.426,416.818c-9.191-6.233-19.788-10.44-30.201-12.997c-11.385-2.797-22.884-3.708-34.502-2.728
				c-5.611,0.475-11.212,1.217-16.738,2.447c-0.037,0.008-0.07,0.012-0.107,0.02c2.916,6.836,8.872,12.351,14.189,16.176
				c6.711,4.828,13.936,8.85,21.549,11.411c9.676,3.257,19.645,6.042,29.741,6.765c4.993,0.357,10.151,0.236,15.079-0.824
				c3.74-0.805,10.008-2.16,12.536-5.779C436.977,427.008,424.873,418.479,422.426,416.818z"/>
		</g>
	</g>
	<g>
		<g>
			<path fill="#71C598" d="M233.848,430.659c-1.172,1.027-2.745,1.471-4.562,0.788c-7.782-2.923-16.227-1.548-24.086,0.244
				c-8.421,1.921-16.625,5.029-24.681,8.385c-6.797,2.831-12.764,6.653-18.52,11.694c-3,2.627-5.807,5.536-8.417,8.659
				c-0.692,0.827-1.672,2.001-2.527,3.269c22.404,5.852,46.021-0.123,66.395-11.904c7.886-4.56,14.938-11.003,16.682-20.992
				C234.034,430.759,233.94,430.708,233.848,430.659z"/>
		</g>
	</g>
	<g>
		<g>
			<path fill="#71C598" d="M246.751,388.982c-0.636-5.881-5.327-13.614-10.75-14.74c-5.15-1.07-1.656,15.288-0.597,18.7
				c1.812,5.852,4.266,11.489,6.205,17.292C245.413,404.012,247.555,396.425,246.751,388.982z"/>
		</g>
	</g>
	<g>
		<g>
			<path fill="#71C598" d="M256,401.462c-1.5,6.542-4.432,12.871-8.276,18.306c1.994,0.546,4.041,0.924,6.079,1.311
				c0.856,0.163,1.586,0.489,2.197,0.927c0.612-0.438,1.342-0.764,2.198-0.927c2.037-0.387,4.084-0.765,6.078-1.311
				C260.433,414.333,257.5,408.005,256,401.462z"/>
		</g>
	</g>
	<g>
		<g>
			<path fill="#71C598" d="M358.419,460.428c-2.611-3.123-5.417-6.031-8.417-8.659c-5.756-5.041-11.723-8.863-18.52-11.694
				c-8.057-3.355-16.261-6.463-24.682-8.385c-7.858-1.792-16.303-3.167-24.086-0.244c-1.816,0.683-3.39,0.24-4.562-0.788
				c-0.095,0.05-0.187,0.1-0.284,0.142c1.746,9.989,8.797,16.432,16.682,20.992c20.375,11.781,43.991,17.755,66.396,11.904
				C360.089,462.429,359.111,461.254,358.419,460.428z"/>
		</g>
	</g>
	<g>
		<g>
			<path fill="#71C598" d="M325.86,364.303c-0.668-7.904-1.805-15.827-4.308-23.271c-1.214-3.614-3.422-12.011-8.077-10.98
				c-4.538,1.005-6.837,8.036-7.507,12.487c-1.076,7.166-1.186,14.885,1.492,21.651c3.418,8.632,10.882,13.954,18.577,18.383
				C326.282,376.459,326.379,370.443,325.86,364.303z"/>
		</g>
	</g>
	<g>
		<g>
			<path d="M425.24,289.312c23.179,0.862,45.463-10.954,58.993-32.758c12.132-19.549,18.794-47.759,7.511-69.645
				c-1.35-2.618-5.025-3.499-7.133-1.59c-6.913,6.259-15.25,9.711-22.05,16.242c-7.286,6.997-14.029,14.637-19.634,23.464
				c-2.217,3.492-4.365,7.113-6.463,10.778c0.834-10.18,0.979-20.428,0.4-30.591c1.605-1.289,3.231-2.542,4.911-3.697
				c1.696-1.165,2.37-2.847,2.337-4.532c14.449-7.608,26.723-23.09,35.459-37.359c5.2-8.497,9.146-17.671,9.826-28.117
				c0.465-7.125,0.35-15.545-4.153-21.101c-11.134-13.74-30.851,9.476-37.183,19.211c-7.412,11.392-11.941,24.64-16.9,37.593
				c-2.805-10.572-6.973-20.538-12.14-29.809c7.571-3.926,14.179-11.357,19.429-18.285c6.563-8.657,11.841-19.251,11.055-31.032
				c-0.787-11.774-5.171-23.497-10.51-33.443c-4.982-9.283-12.647-18.518-22.468-20.202c-2.327-0.398-4.468,0.761-5.583,3.163
				c-3.145,6.766-7.492,12.426-9.818,19.698c-2.199,6.876-2.416,14.305-2.371,21.553c0.072,11.624,1.219,22.846,3.136,34.073
				c-3.213-3.751-6.574-7.324-10.045-10.71c-0.171-0.167-0.346-0.315-0.52-0.452c0.721-4.353,1.411-8.659,1.571-13.144
				c0.176-4.876-1.718-9.119-3.887-13.151c-4.5-8.37-11.75-14.798-18.459-20.689c-7.705-6.764-20.683-19.549-31.323-14.873
				c-5.728,2.516-6.632,9.933-5.924,16.053c1.241,10.736,5.532,21.336,9.916,30.801c8.273,17.865,24.11,30.401,41.763,24.222
				c0.027,0.028,0.05,0.057,0.078,0.085c5.152,5.025,9.97,10.429,14.364,16.195c-9.504-2.385-18.931-5.184-28.677-6.051
				c-7.609-0.679-15.113-1.927-22.766-2.178c-14.783-0.483-36.65,1.494-42.609,20.337c-1.001,3.163-0.326,6.169,2.317,7.9
				c21.45,14.05,47.005,23.229,71.695,17.021c9.76-2.455,18.548-8.025,27.022-13.874c1.781-1.23,3.588-2.491,5.273-3.922
				c5.636,10.8,9.838,22.574,12.166,35.291c0.449,2.455,0.829,4.925,1.174,7.402c-15.662-5.474-31.817-9.016-48.289-7.958
				c-10.671,0.685-39.152,6.453-30.452,25.925c3.046,6.817,9.757,11.008,15.596,14.033c9.618,4.984,18.481,7.514,29.144,6.924
				c9.452-0.523,18.84-3.043,27.181-8.166c3.012-1.851,5.846-4.032,8.622-6.32c0.186,16.745-1.65,33.562-5.03,49.743
				c-0.096,0.455-0.205,0.905-0.304,1.358c-1.16-1.22-2.482-2.371-3.972-3.476c-6.996-5.189-14.171-10.157-21.215-15.284
				c-10.433-7.594-33.065-20.413-41.788-3.377c-2.945,5.754-1.13,13.539,1.314,19.012c3.675,8.226,9.99,14.538,16.787,19.264
				c6.967,4.844,16.424,8.506,24.642,8.411c5.921-0.069,11.808-0.75,17.687-1.528c-1.619,4.543-3.414,9.007-5.389,13.375
				c-5.762,12.747-13.776,24.241-21.451,35.528c-2.056,3.021-4.156,6.01-6.312,8.948c-0.715-15.27-0.581-30.532-5.849-44.987
				c-4.342-11.915-17.342-27.72-29.65-18.727c-6.223,4.547-9.682,13.275-9.743,21.599c-0.072,9.529,3.673,17.982,8.311,25.639
				c7.165,11.83,15.463,23.064,26.538,29.635c-3.504,4.086-7.158,7.998-11,11.667c-7.308,6.977-15.313,12.905-23.666,18.098
				c-0.282-0.164-0.566-0.328-0.852-0.493c-0.334-4.542,0.717-9.994,0.698-13.688c-0.049-9.68-1.104-19.267-3.05-28.679
				c-3.021-14.595-11.362-33.981-26.87-24.962c-12.901,7.502-13.272,30.763-9.879,44.315c3.856,15.407,16.524,23.2,28.515,30.082
				c-14.98,7.965-30.646,14.095-46.162,20.531c2.307-7.959,6.385-15.808,8.345-23.249c2.352-8.925,2.945-22.289-4.756-28.098
				c-6.339-4.781-14.427,0.026-19.259,5.222c-3.788,4.073-6.194,8.7-7.465,13.574c-1.27-4.874-3.676-9.501-7.464-13.574
				c-4.832-5.196-12.921-10.003-19.259-5.222c-7.701,5.809-7.107,19.173-4.757,28.098c1.96,7.441,6.038,15.29,8.346,23.249
				c-15.517-6.436-31.182-12.566-46.163-20.531c11.991-6.882,24.658-14.675,28.516-30.082c3.394-13.552,3.022-36.812-9.879-44.315
				c-15.508-9.019-23.85,10.368-26.87,24.962c-1.945,9.413-3.001,18.999-3.05,28.679c-0.019,3.695,1.031,9.146,0.698,13.688
				c-0.286,0.165-0.569,0.329-0.852,0.493c-8.353-5.193-16.358-11.121-23.666-18.098c-3.842-3.669-7.497-7.58-11-11.667
				c11.075-6.571,19.373-17.806,26.538-29.635c4.637-7.657,8.383-16.11,8.311-25.639c-0.062-8.324-3.521-17.052-9.743-21.599
				c-12.31-8.993-25.31,6.812-29.65,18.727c-5.268,14.455-5.134,29.717-5.851,44.987c-2.154-2.938-4.254-5.927-6.31-8.948
				c-7.675-11.287-15.689-22.782-21.452-35.528c-1.975-4.368-3.769-8.832-5.389-13.375c5.88,0.778,11.766,1.459,17.688,1.528
				c8.218,0.095,17.675-3.567,24.641-8.411c6.797-4.727,13.113-11.038,16.786-19.264c2.446-5.473,4.262-13.258,1.315-19.012
				c-8.722-17.036-31.354-4.216-41.787,3.377c-7.044,5.127-14.219,10.095-21.215,15.284c-1.489,1.105-2.812,2.256-3.973,3.476
				c-0.099-0.454-0.209-0.904-0.303-1.358c-3.38-16.181-5.217-32.999-5.03-49.743c2.776,2.289,5.61,4.469,8.622,6.32
				c8.341,5.123,17.729,7.643,27.181,8.166c10.66,0.59,19.524-1.939,29.144-6.924c5.838-3.025,12.55-7.216,15.596-14.033
				c8.699-19.472-19.782-25.24-30.453-25.925c-16.471-1.058-32.627,2.483-48.288,7.958c0.345-2.477,0.723-4.947,1.173-7.402
				c2.329-12.716,6.531-24.49,12.167-35.291c1.686,1.431,3.491,2.692,5.274,3.922c8.473,5.849,17.262,11.419,27.021,13.874
				c24.69,6.208,50.244-2.971,71.696-17.021c2.643-1.731,3.317-4.737,2.315-7.9c-5.958-18.843-27.826-20.821-42.608-20.337
				c-7.653,0.251-15.156,1.499-22.767,2.178c-9.746,0.868-19.172,3.667-28.676,6.051c4.395-5.766,9.211-11.169,14.364-16.195
				c0.028-0.028,0.051-0.057,0.078-0.085c17.652,6.179,33.488-6.357,41.763-24.222c4.384-9.465,8.674-20.065,9.915-30.801
				c0.708-6.12-0.195-13.538-5.922-16.053c-10.641-4.676-23.619,8.109-31.324,14.873c-6.71,5.891-13.959,12.319-18.46,20.689
				c-2.168,4.032-4.062,8.274-3.887,13.151c0.161,4.484,0.852,8.791,1.572,13.144c-0.176,0.136-0.349,0.284-0.52,0.452
				c-3.472,3.386-6.832,6.959-10.045,10.71c1.916-11.228,3.063-22.449,3.135-34.073c0.045-7.248-0.171-14.677-2.371-21.553
				c-2.325-7.272-6.673-12.932-9.817-19.698c-1.116-2.402-3.256-3.561-5.583-3.163c-9.82,1.684-17.487,10.919-22.47,20.202
				c-5.337,9.946-9.722,21.668-10.508,33.443c-0.786,11.78,4.491,22.375,11.053,31.032c5.251,6.928,11.858,14.359,19.43,18.285
				c-5.167,9.271-9.335,19.236-12.139,29.809c-4.96-12.953-9.489-26.202-16.899-37.593c-6.333-9.735-26.051-32.951-37.184-19.211
				c-4.504,5.556-4.618,13.976-4.154,21.101c0.682,10.446,4.625,19.621,9.826,28.117c8.737,14.27,21.01,29.751,35.458,37.359
				c-0.031,1.686,0.643,3.368,2.339,4.532c1.68,1.154,3.305,2.408,4.91,3.697c-0.578,10.164-0.434,20.411,0.401,30.591
				c-2.098-3.665-4.246-7.286-6.464-10.778c-5.604-8.828-12.347-16.468-19.633-23.464c-6.801-6.531-15.137-9.983-22.051-16.242
				c-2.106-1.909-5.783-1.028-7.133,1.59c-11.283,21.886-4.621,50.096,7.512,69.645c13.53,21.804,35.814,33.62,58.992,32.758
				c4.655,13.312,10.634,25.95,17.914,37.486c0.958,1.518,1.923,3.034,2.891,4.545c-2.887-1.473-5.236-2.582-6.438-3.212
				c-6.249-3.271-12.554-6.568-19.015-9.265c-6.586-2.748-14.069-3.906-20.961-5.224c-8.006-1.53-16.05-2.749-24.093-3.976
				c-2.622-0.4-5.522,2.336-5.521,5.422c0.004,10.791,0.182,21.479,6.701,30.06c7.617,10.021,18.439,17.103,29.103,22.011
				c11.237,5.171,24.083,10.15,36.188,11.421c6.211,0.652,12.117,0.191,17.908-2.602c4.592-2.213,8.971-5.001,13.588-7.138
				c6.66,7.584,13.819,14.574,21.687,20.639c-2.281-0.212-4.568-0.366-6.858-0.438c-14.174-0.446-28.371,1.281-41.925,6.224
				c-11.083,4.042-22.392,9.04-31.401,17.734c-6.158,5.942-13.102,16.237-6.807,25.248c6.897,9.873,21.675,11.865,31.922,11.558
				c12.639-0.38,24.998-3.314,37.057-7.556c16.489-5.802,36.341-17.477,42.734-37.075c9.225,4.944,18.713,9.236,28.275,13.319
				c-12.08,1.806-24.224,6.978-34.867,11.489c-8.311,3.523-15.921,9.08-22.624,15.72c-5.047,5.001-13.243,13.069-13.243,21.509
				c0,2.582,1.113,5.207,3.426,6.015c23.049,8.051,46.104,4.359,68.303-5.246c15.115-6.539,31.883-17.413,33.846-37.034
				c1.267,0.366,2.549,0.679,3.839,0.961c0.705,0.573,1.618,0.925,2.754,0.925h1.868c1.193,0,2.19-0.341,2.99-0.9
				c0.801,0.56,1.797,0.9,2.99,0.9h1.869c1.136,0,2.049-0.352,2.754-0.925c1.289-0.282,2.572-0.595,3.838-0.961
				c1.964,19.621,18.732,30.495,33.847,37.034c22.199,9.604,45.254,13.296,68.302,5.246c2.313-0.808,3.426-3.433,3.426-6.015
				c0-8.44-8.195-16.508-13.242-21.509c-6.703-6.64-14.314-12.197-22.625-15.72c-10.643-4.512-22.786-9.684-34.866-11.489
				c9.562-4.083,19.05-8.375,28.274-13.319c6.393,19.598,26.246,31.273,42.733,37.075c12.06,4.242,24.42,7.176,37.058,7.556
				c10.248,0.308,25.025-1.685,31.923-11.558c6.295-9.011-0.649-19.306-6.807-25.248c-9.011-8.695-20.319-13.693-31.402-17.734
				c-13.553-4.943-27.751-6.67-41.924-6.224c-2.29,0.072-4.577,0.225-6.86,0.438c7.869-6.065,15.027-13.054,21.688-20.639
				c4.617,2.137,8.996,4.925,13.587,7.138c5.791,2.793,11.697,3.254,17.91,2.602c12.104-1.271,24.949-6.25,36.186-11.421
				c10.664-4.908,21.486-11.99,29.104-22.011c6.52-8.58,6.697-19.269,6.701-30.06c0.001-3.086-2.898-5.822-5.521-5.422
				c-8.043,1.227-16.087,2.445-24.094,3.976c-6.892,1.317-14.375,2.476-20.961,5.224c-6.461,2.696-12.765,5.994-19.014,9.265
				c-1.202,0.63-3.553,1.739-6.44,3.212c0.97-1.512,1.935-3.027,2.892-4.545C414.605,315.261,420.586,302.623,425.24,289.312z
				 M435.098,185.326c5.973-13.294,10.227-27.517,16.603-40.58c3.154-6.461,7.106-12.257,11.819-17.317
				c2.077-2.231,11.567-11.582,14.449-8.778c2.581,2.512,1.352,11.125,1.033,14.379c-0.841,8.578-5.521,16.478-9.938,23.208
				c-8.438,12.857-20.094,26.867-33.83,32.049c-0.116-0.841-0.232-1.681-0.358-2.519
				C434.951,185.624,435.029,185.482,435.098,185.326z M438.962,253.237c3.893-7.389,8.145-14.851,12.571-21.823
				c5.079-8.001,11.387-14.909,17.982-21.242c4.839-4.648,10.607-7.549,15.948-11.252c5.527,17.183-1.444,38.292-10.439,52.204
				c-10.336,15.985-26.092,24.675-42.916,26.212c-0.126-0.302-0.27-0.589-0.438-0.86c0.163-0.63,0.247-1.324,0.212-2.095
				C431.546,266.851,435.703,259.427,438.962,253.237z M381.25,99.938c-4.964,1.5-9.858,1.049-14.76-1.436
				c-6.594-3.345-10.518-9.866-14.002-16.781c-3.697-7.337-6.334-15.409-8.316-23.55c-0.579-2.375-1.065-4.938-0.742-7.399
				c0.047,0.002,0.08,0.002,0.137,0.008c7.824,0.716,15.35,8.596,21.247,13.775c5.103,4.479,10.184,9.217,14.168,15.039
				c2.078,3.038,3.558,6.023,3.669,9.935C382.745,92.936,381.951,96.497,381.25,99.938z M395.756,144.008
				c-7.989,5.537-17.098,9.199-26.383,10.323c-17.996,2.18-36.457-4.992-52.361-14.622c7.197-10.042,23.877-9.253,33.85-8.843
				c6.6,0.271,13.104,1.485,19.674,2.072c10.603,0.944,20.861,4.44,31.256,6.916C399.799,141.274,397.764,142.616,395.756,144.008z
				 M412.396,126.66c1.258-1.397,1.985-3.457,1.461-5.895c-2.817-13.129-4.348-25.855-4.779-39.334
				c-0.215-6.744-0.327-13.941,1.73-20.373c1.635-5.112,4.548-9.431,7.123-13.969c5.822,2.713,9.982,9.366,13.178,15.32
				c4.252,7.923,7.308,17.308,8.147,26.583c0.813,8.995-4.468,16.991-9.34,23.417c-4.474,5.904-10.342,12.382-16.963,15.078
				C412.77,127.21,412.582,126.935,412.396,126.66z M418.685,205.675c-6.313,5.103-12.636,8.038-20.233,9.586
				c-14.303,2.913-29.969,0.225-41.256-11.026c-3.269-3.258-2.039-4.751,1.605-6.706c7.191-3.854,15.773-4.578,23.592-4.754
				c14.093-0.318,28.346,3.368,41.795,8.317C422.362,202.634,420.539,204.177,418.685,205.675z M385.092,274.574
				c-8.91-3.61-21.092-12.572-21.76-24.705c-0.58-10.533,23.008,2.951,25.756,4.8c5.965,4.016,11.546,8.736,17.438,12.888
				c3.044,2.145,8.246,4.232,9.961,8.253C405.93,277.381,395.271,278.697,385.092,274.574z M129.607,192.776
				c7.817,0.176,16.401,0.9,23.592,4.754c3.646,1.955,4.875,3.447,1.605,6.706c-11.286,11.251-26.953,13.939-41.256,11.026
				c-7.597-1.549-13.919-4.484-20.232-9.586c-1.854-1.499-3.68-3.041-5.504-4.582C101.262,196.144,115.516,192.458,129.607,192.776z
				 M133.02,79.593c3.984-5.822,9.065-10.56,14.168-15.039c5.897-5.179,13.423-13.059,21.246-13.775
				c0.059-0.005,0.09-0.005,0.137-0.008c0.322,2.462-0.162,5.025-0.741,7.399c-1.983,8.142-4.619,16.213-8.317,23.55
				c-3.483,6.915-7.408,13.436-14.001,16.781c-4.901,2.485-9.797,2.936-14.759,1.436c-0.702-3.441-1.496-7.002-1.401-10.411
				C129.461,85.617,130.941,82.631,133.02,79.593z M141.465,132.938c6.57-0.586,13.074-1.8,19.674-2.072
				c9.973-0.411,26.653-1.2,33.851,8.843c-15.904,9.63-34.365,16.802-52.362,14.622c-9.284-1.124-18.394-4.786-26.382-10.323
				c-2.009-1.392-4.044-2.733-6.036-4.154C120.604,137.378,130.863,133.882,141.465,132.938z M82.084,112.41
				c-4.872-6.426-10.153-14.423-9.339-23.417c0.838-9.276,3.893-18.661,8.146-26.583c3.196-5.954,7.356-12.607,13.179-15.32
				c2.573,4.538,5.487,8.857,7.123,13.969c2.058,6.432,1.944,13.629,1.729,20.373c-0.43,13.479-1.96,26.205-4.778,39.334
				c-0.523,2.438,0.204,4.498,1.461,5.895c-0.186,0.275-0.371,0.551-0.557,0.828C92.426,124.792,86.558,118.313,82.084,112.41z
				 M42.936,156.237c-4.417-6.729-9.096-14.629-9.937-23.208c-0.319-3.254-1.548-11.867,1.032-14.379
				c2.883-2.803,12.373,6.547,14.45,8.778c4.712,5.061,8.665,10.856,11.819,17.317c6.376,13.063,10.629,27.286,16.602,40.58
				c0.07,0.156,0.146,0.298,0.223,0.441c-0.126,0.838-0.242,1.678-0.359,2.519C63.028,183.104,51.373,169.095,42.936,156.237z
				 M79.892,277.336c-16.823-1.537-32.579-10.228-42.915-26.212c-8.996-13.912-15.968-35.021-10.439-52.204
				c5.34,3.704,11.109,6.604,15.948,11.252c6.595,6.333,12.903,13.24,17.982,21.242c4.427,6.972,8.679,14.435,12.57,21.823
				c3.26,6.19,7.417,13.614,7.079,21.144c-0.035,0.771,0.05,1.464,0.211,2.095C80.162,276.747,80.018,277.034,79.892,277.336z
				 M105.475,267.558c5.893-4.152,11.472-8.873,17.438-12.888c2.748-1.85,26.336-15.333,25.755-4.8
				c-0.668,12.133-12.851,21.095-21.76,24.705c-10.18,4.123-20.838,2.807-31.394,1.237
				C97.229,271.79,102.43,269.703,105.475,267.558z M118.229,364.765c-5.095,2.458-10.08,2.791-15.542,1.833
				c-10.258-1.8-20.943-5.496-30.576-9.93c-8.992-4.139-18.903-9.763-25.376-18.279c-3.723-4.898-4.643-10.259-4.872-16.12
				c5.596,0.852,11.19,1.729,16.76,2.793c6.438,1.231,13.363,2.192,19.538,4.7c4.655,1.891,9.201,4.206,13.718,6.485
				c6.958,3.513,13.912,7.129,20.57,11.348c2.612,1.656,5.25,3.348,7.658,5.38c0.743,0.627,0.99,0.791,1.249,1.056
				c0.089,3.306,2.66,6.349,5.438,6.125C123.943,361.699,121.14,363.362,118.229,364.765z M143.122,313.161
				c1.583-6.396,3.633-13.359,8.116-17.887c2.314-2.338,5.768-5.308,8.996-3.453c5.05,2.901,5.799,12.442,4.273,17.817
				c-1.828,6.447-5.099,11.989-8.747,17.271c-4.629,6.699-9.339,13.634-15.357,18.549
				C140.708,334.6,140.556,323.533,143.122,313.161z M156.935,419.736c-6.712,4.828-13.936,8.85-21.55,11.411
				c-9.675,3.257-19.644,6.042-29.741,6.765c-4.992,0.357-10.149,0.236-15.078-0.824c-3.741-0.805-10.009-2.16-12.536-5.779
				c-3.006-4.302,9.099-12.831,11.546-14.491c9.191-6.233,19.788-10.44,30.201-12.997c11.385-2.797,22.884-3.708,34.501-2.728
				c5.612,0.475,11.212,1.217,16.739,2.447c0.037,0.008,0.07,0.012,0.107,0.02C168.207,410.396,162.251,415.911,156.935,419.736z
				 M186.139,364.303c0.67-7.904,1.807-15.827,4.309-23.271c1.215-3.614,3.423-12.011,8.077-10.98
				c4.539,1.005,6.838,8.036,7.507,12.487c1.076,7.166,1.187,14.885-1.492,21.651c-3.418,8.632-10.881,13.954-18.577,18.383
				C185.72,376.459,185.621,370.443,186.139,364.303z M217.449,451.792c-20.373,11.781-43.99,17.755-66.395,11.904
				c0.855-1.268,1.835-2.442,2.527-3.269c2.61-3.123,5.417-6.031,8.417-8.659c5.756-5.041,11.723-8.863,18.52-11.694
				c8.056-3.355,16.26-6.463,24.681-8.385c7.859-1.792,16.304-3.167,24.086-0.244c1.817,0.683,3.391,0.24,4.562-0.788
				c0.093,0.05,0.187,0.1,0.283,0.142C232.387,440.79,225.335,447.232,217.449,451.792z M241.609,410.234
				c-1.939-5.802-4.393-11.439-6.205-17.292c-1.06-3.412-4.554-19.77,0.597-18.7c5.423,1.126,10.114,8.859,10.75,14.74
				C247.555,396.425,245.413,404.012,241.609,410.234z M258.198,421.08c-0.856,0.163-1.586,0.489-2.198,0.927
				c-0.611-0.438-1.341-0.764-2.197-0.927c-2.038-0.387-4.085-0.765-6.079-1.311c3.845-5.435,6.776-11.764,8.276-18.306
				c1.5,6.542,4.433,12.871,8.276,18.306C262.282,420.315,260.235,420.692,258.198,421.08z M270.391,410.234
				c-3.803-6.222-5.945-13.809-5.142-21.251c0.635-5.881,5.327-13.614,10.751-14.74c5.149-1.07,1.654,15.288,0.597,18.7
				C274.783,398.794,272.33,404.432,270.391,410.234z M306.801,431.69c8.421,1.921,16.625,5.029,24.682,8.385
				c6.797,2.831,12.764,6.653,18.52,11.694c3,2.627,5.806,5.536,8.417,8.659c0.692,0.827,1.67,2.001,2.527,3.269
				c-22.404,5.852-46.021-0.123-66.396-11.904c-7.885-4.56-14.936-11.003-16.682-20.992c0.098-0.042,0.189-0.092,0.284-0.142
				c1.172,1.027,2.745,1.471,4.562,0.788C290.498,428.523,298.942,429.898,306.801,431.69z M326.038,382.573
				c-7.695-4.429-15.159-9.751-18.577-18.383c-2.678-6.766-2.568-14.485-1.492-21.651c0.67-4.451,2.969-11.482,7.507-12.487
				c4.655-1.03,6.863,7.367,8.077,10.98c2.503,7.444,3.64,15.367,4.308,23.271C326.379,370.443,326.282,376.459,326.038,382.573z
				 M357.723,401.094c11.618-0.981,23.117-0.069,34.502,2.728c10.413,2.557,21.01,6.764,30.201,12.997
				c2.447,1.66,14.551,10.189,11.546,14.491c-2.528,3.619-8.796,4.974-12.536,5.779c-4.928,1.06-10.086,1.181-15.079,0.824
				c-10.097-0.723-20.065-3.508-29.741-6.765c-7.613-2.562-14.838-6.583-21.549-11.411c-5.317-3.825-11.273-9.34-14.189-16.176
				c0.037-0.008,0.07-0.012,0.107-0.02C346.511,402.311,352.111,401.568,357.723,401.094z M356.24,326.909
				c-3.648-5.281-6.92-10.824-8.748-17.271c-1.524-5.375-0.775-14.916,4.274-17.817c3.229-1.855,6.683,1.115,8.996,3.453
				c4.483,4.528,6.532,11.491,8.115,17.887c2.566,10.372,2.415,21.438,2.72,32.297C365.578,340.543,360.869,333.608,356.24,326.909z
				 M420.121,336.248c4.518-2.28,9.063-4.595,13.72-6.485c6.173-2.508,13.099-3.469,19.537-4.7
				c5.567-1.064,11.163-1.941,16.759-2.793c-0.229,5.86-1.148,11.222-4.871,16.12c-6.473,8.516-16.385,14.14-25.377,18.279
				c-9.633,4.434-20.317,8.13-30.575,9.93c-5.462,0.958-10.447,0.625-15.542-1.833c-2.91-1.403-5.714-3.065-8.564-4.607
				c2.777,0.224,5.348-2.819,5.438-6.125c0.259-0.266,0.506-0.429,1.248-1.056c2.409-2.033,5.045-3.724,7.659-5.38
				C406.21,343.376,413.164,339.761,420.121,336.248z"/>
		</g>
	</g>
</g>
</svg>
