<?xml version="1.0" encoding="utf-8"?>
<!-- Generator: Adobe Illustrator 16.0.3, SVG Export Plug-In . SVG Version: 6.00 Build 0)  -->
<!DOCTYPE svg PUBLIC "-//W3C//DTD SVG 1.1//EN" "http://www.w3.org/Graphics/SVG/1.1/DTD/svg11.dtd">
<svg version="1.1" id="Layer_1" xmlns="http://www.w3.org/2000/svg" xmlns:xlink="http://www.w3.org/1999/xlink" x="0px" y="0px"
	 width="512px" height="512px" viewBox="0 0 512 512" enable-background="new 0 0 512 512" xml:space="preserve">
<g>
	<g>
		<g>
			<path fill="#F6851F" d="M250.865,135.251c-2.599-1.283-5.846-1.475-9.021-1.415c-0.144,2.248-0.306,4.496-0.48,6.743
				c2.05-0.295,4.045-0.836,5.966-1.763c0.234-0.113,1.135-0.657,1.553-0.952c-0.04,0.028,1.455-1.176,0.771-0.518
				c0.422-0.406,0.833-0.831,1.201-1.289c0.078-0.133,0.235-0.38,0.338-0.553C251.019,135.383,250.865,135.271,250.865,135.251z"/>
		</g>
	</g>
	<g>
		<g>
			<path fill="#F6851F" d="M252.426,169.544c-0.325-0.082-0.651-0.153-0.981-0.205c-0.602-0.083-2.117-0.111-3.468,0.102
				c-1.733,0.273-4.162,1.199-5.505,2.114c-0.185,0.171-0.385,0.329-0.602,0.471c-0.568,0.526-1.273,0.926-2.044,1.192
				c0.536,0.229,1.067,0.559,1.58,1.013c1.634,1.445,6.022,0.841,8.123-0.481c1.529-0.963,2.292-2.139,2.922-3.873
				c0.042-0.115,0.063-0.207,0.078-0.289C252.491,169.571,252.458,169.558,252.426,169.544z"/>
		</g>
	</g>
	<g>
		<g>
			<path fill="#F6851F" d="M244.179,201.926c-2.356-0.946-5.537-1.573-7.328-0.003c-0.32,0.281-0.676,0.491-1.05,0.65
				c-0.255,2.477-0.511,4.953-0.767,7.43c3.107,0.629,6.016,0.77,9.225,0.131c0.885-0.176,2.217-0.68,2.778-1.072
				c0.719-0.503,0.808-0.289,0.928-1.105C248.376,205.174,246.798,202.978,244.179,201.926z"/>
		</g>
	</g>
	<g>
		<g>
			<path fill="#F6851F" d="M248.239,100.306c-0.229-0.508-0.538-1.118-0.032-0.327c-0.195-0.306-0.279-0.46-0.309-0.534
				c-0.037-0.025-0.092-0.069-0.173-0.14c-0.148-0.138-0.31-0.259-0.467-0.386c-0.071-0.039-0.17-0.095-0.304-0.172
				c-0.115-0.056-0.86-0.292-0.927-0.339c-1.468-0.284-2.987-0.185-4.614,0.219c0.27,2.273,0.486,4.549,0.641,6.827
				c1.004-0.218,1.987-0.514,2.95-0.949c0.854-0.387,1.925-1.17,2.218-1.496c0.883-0.986,0.383-0.244,0.702-0.881
				c0.067-0.135,0.207-0.555,0.286-0.763c0.028-0.302,0.051-0.651,0.072-0.786C248.265,100.476,248.25,100.378,248.239,100.306z"/>
		</g>
	</g>
	<g>
		<g>
			<path fill="#FEBF10" d="M348.49,231.555c-6.991-9.327-12.844-19.246-18.396-29.49c-5.088-9.389-9.939-19.218-12.334-29.567
				c-3.508,3.636-7.379,7.045-10.307,10.844c-6.834,8.867-12.754,18.708-16.707,29.215c-7.797,20.721-9.104,43.209-9.547,65.133
				c-0.414,20.559,2.023,43.631-6.705,62.851c-3.631,7.994-9.04,17.47-16.791,22.161c-6.718,4.067-15.284,6.081-21.638,0.629
				c-1.022-0.349-1.947-0.91-2.92-1.834c-0.888-0.844-1.398-1.791-1.619-2.754c-2.05,0.015-4.065-1.043-4.941-3.56
				c-7.837-22.49-9.245-46.453-8.376-70.085c0.893-24.299,3.051-48.549,5.489-72.733c2.896-28.719,6.643-57.622,7.667-86.489
				c0.453-12.777,0.414-26.154-3.094-38.555c-2.989-10.561-8.443-23.341-19.615-27.412c-8.904-3.244-18.771,1.038-26.119,6.039
				c-9.359,6.371-16.578,14.598-23.557,23.416c-8.047,10.166-16.435,20.449-28.129,26.561c-10.859,5.674-22.978,4.868-34.639,2.649
				c0.028,0.104,0.046,0.211,0.081,0.314c1.325,3.912,4.813,6.407,8.462,8.058c10.722,4.852,20.907,2.178,30.759-3.768
				c10.64-6.42,19.432-14.812,29.48-21.957c7.864-5.59,17.101-9.721,26.693-6.078c13.995,5.314,14.694,24.773,14.062,37.229
				c-0.776,15.272-3.622,30.244-6.936,45.141c-6.073,27.299-14.646,53.943-17.481,81.897c-1.462,14.409-2.096,29.032-2.64,43.507
				c-0.521,13.846-0.637,27.762,0.619,41.574c2.383,26.202,9.449,53.669,26.901,74.103c14.097,16.504,34.354,28.265,55.619,32.54
				c21.513,4.324,44.563,1.443,62.644-11.684c17.574-12.76,27.278-33.681,31.896-54.362c4.972-22.272,5.69-45.147,6.687-67.862
				c0.492-11.23,0.989-22.484,2.146-33.672c0.997-9.636,2.869-19,4.792-28.432C361.833,248.322,354.824,240.004,348.49,231.555z"/>
		</g>
	</g>
	<g>
		<g>
			<path fill="#F6851F" d="M395.467,179.636c-6.112-11.227-13.79-21.651-23.946-29.555c-4.996-3.888-10.932-8.105-17.188-9.631
				c-2.808-0.684-5.935-1.33-8.718-0.141c-1.787,0.764-6.998,3.799-5.279,5.978c0.357,0.452,0.616,0.907,0.805,1.36
				c1.773,3.007,3.367,6.129,4.755,9.328c7.743,17.838,10.617,37.865,20.181,54.912c4.449,7.932,10.271,15.291,18.653,19.293
				c5.374,2.564,15.967,6.251,19.893-0.696C413.115,215.452,402.705,192.93,395.467,179.636z"/>
		</g>
	</g>
	<g>
		<g>
			<path fill="#F6851F" d="M417.095,228.78c-0.798,3-2.024,5.865-3.842,8.461c-4.864,6.945-13.501,9.176-21.58,7.707
				c-44.068-8.014-41.683-62.078-60.457-92.51c-5.113-6.482-1.473-14.051,4.292-18.678c4.916-3.947,11.024-5.672,17.156-4.896
				c-5.989-3.893-12.734-7.344-19.652-8.871c-6.481-1.43-13.366-1.203-13.2,7.407c0.2,10.364,5.605,19.653,9.155,29.144
				c0.993,2.656-0.063,4.822-1.848,6.053c0.721,12.752,7.587,25.322,13.621,36.082c4.668,8.322,9.354,16.512,15.005,24.213
				c5.613,7.648,11.676,15.152,18.737,21.54c3.57-1.421,8.677,1.062,7.692,5.98c-0.02,0.093-0.039,0.187-0.058,0.278
				c4.287,3.01,9.448,5.463,13.583,3.113c1.241-0.706,2.482-0.891,3.626-0.715c6.542-2.254,14.13-1.5,17.406-8.844
				C419.121,238.896,418.742,233.74,417.095,228.78z"/>
		</g>
	</g>
	<g>
		<g>
			<path d="M418.335,207.287c-0.348-0.593-0.747-1.067-1.181-1.441c-1.3-6.368-3.532-12.519-6.008-18.554
				c-4.824-11.76-11.144-22.963-19.332-32.708c-3.745-4.458-7.944-8.68-12.531-12.417c-0.026-0.517-0.123-1.059-0.316-1.623
				c-2.814-8.228-10.912-14.41-17.793-19.133c-8.831-6.062-19.013-11.389-29.744-12.883c-10.528-1.465-18.615,2.956-21.86,13.28
				c-3.382,10.758,2.376,22.636,6.814,32.977c-0.204,0.334-0.389,0.702-0.535,1.13c-2.558,7.498-10.631,12.768-15.57,18.791
				c-6.645,8.104-12.17,17.207-16.702,26.639c-8.878,18.475-11.61,39.445-12.712,59.688c-0.57,10.498-0.709,21.008-0.867,31.519
				c-0.152,10.222,0.102,20.659-1.654,30.757c-1.75,10.062-6.43,18.145-12.324,26.287c-2.193,3.029-5.635,4.98-9.144,6.043
				c-1.171,0.355-2.588,0.236-3.572-0.5c-0.579-0.706-1.272-1.273-2.08-1.702l-0.95-0.321c-1.044-0.939-2.164-1.354-3.248-1.373
				c-0.021-0.066-0.034-0.131-0.058-0.197c-10.305-29.576-8.46-61.319-6.411-92.062c0.856-12.858,2.062-25.685,3.355-38.501
				c10.041,1.678,25.281-0.799,25.07-13.668c-0.109-6.684-3.887-12.49-9.908-15.242c-3.389-1.549-7.924-2.521-12.012-1.968
				c0.178-1.792,0.358-3.585,0.531-5.377c11.394,5.208,28.828-4.872,25.572-18.358c-1.477-6.114-7.975-8.012-13.485-8.088
				c-3.422-0.048-6.872,0.804-9.991,2.309c0.236-2.948,0.491-5.899,0.746-8.853c8.973-0.696,18.95-4.878,21.607-14.106
				c1.176-4.084-0.974-8.662-4.323-11.009c-4.481-3.142-9.998-3.785-15.362-3.773c0.057-2.11,0.073-4.219,0.068-6.327
				c9.417-1.733,18.903-8.162,16.461-19.015c-2.016-8.958-11.304-11.126-19.244-9.673c-0.09-0.42-0.162-0.842-0.258-1.264
				c-4.826-21.423-20.918-43.48-45.404-37.744c-17.712,4.15-31.387,18.301-42.281,32.031c-6.859,8.646-13.621,17.504-22.942,23.646
				c-10.47,6.898-22.958,5.021-34.559,2.456c-0.411-1.808-0.794-3.622-1.23-5.414c-1.676-6.886-12.048-3.203-10.383,3.638
				c0.358,1.47,0.7,2.944,1.044,4.417c-0.248,0.691-0.376,1.432-0.338,2.188c0.096,1.913,0.801,3.283,1.893,4.621
				c-0.007,0.151-0.013,0.312-0.018,0.51c-0.025,1.105,0.035,2.115,0.204,3.207c0.771,4.977,3.767,9.104,7.522,12.309
				c7.24,6.178,18.258,9.338,27.629,8.026c13.74-1.923,25.425-10.6,36.33-18.536c8.098-5.895,16.318-16.719,27.046-17.269
				c13.197-0.675,11.326,23.578,10.626,32.286c-1.168,14.508-4.061,29.07-7.6,43.182c-7.442,29.67-15.804,59.211-17.388,89.928
				c-1.437,27.852-3.716,55.703-0.318,83.514c3.147,25.76,11.642,52.172,28.718,72.163c14.445,16.913,34.058,28.639,55.372,34.651
				c21.099,5.951,44.452,4.939,64.427-4.338c20.267-9.414,34.624-27.137,42.898-47.585c17.012-42.039,10.406-89.024,16.609-133.011
				c0.642-4.556,1.544-9.06,2.5-13.554c5.646,3.007,11.85,4.588,17.951,2.804c1.285,0.319,2.727,0.15,4.158-0.771
				c3.824-2.463,8.993-2.048,13.248-3.465c6.035-2.012,9.753-7.431,12.226-12.971C433.679,233.247,425.408,219.359,418.335,207.287z
				 M241.871,172.025c0.217-0.142,0.417-0.3,0.602-0.471c1.343-0.915,3.771-1.841,5.505-2.114c1.351-0.213,2.866-0.185,3.468-0.102
				c0.33,0.052,0.656,0.123,0.981,0.205c0.032,0.014,0.064,0.027,0.104,0.043c-0.015,0.082-0.036,0.174-0.078,0.289
				c-0.63,1.734-1.393,2.91-2.922,3.873c-2.101,1.322-6.489,1.927-8.123,0.481c-0.513-0.454-1.044-0.784-1.58-1.013
				C240.597,172.951,241.302,172.552,241.871,172.025z M246.028,98.408c0.066,0.047,0.812,0.283,0.927,0.339
				c0.134,0.077,0.232,0.133,0.304,0.172c0.157,0.127,0.318,0.248,0.467,0.386c0.081,0.07,0.136,0.114,0.173,0.14
				c0.029,0.074,0.113,0.229,0.309,0.534c-0.506-0.791-0.197-0.181,0.032,0.327c0.011,0.072,0.026,0.17,0.044,0.273
				c-0.021,0.135-0.044,0.484-0.072,0.786c-0.079,0.208-0.219,0.628-0.286,0.763c-0.319,0.637,0.181-0.105-0.702,0.881
				c-0.293,0.326-1.364,1.109-2.218,1.496c-0.963,0.436-1.946,0.731-2.95,0.949c-0.154-2.278-0.371-4.554-0.641-6.827
				C243.041,98.224,244.56,98.124,246.028,98.408z M241.844,133.836c3.175-0.06,6.422,0.132,9.021,1.415
				c0,0.02,0.154,0.132,0.328,0.254c-0.103,0.173-0.26,0.42-0.338,0.553c-0.368,0.458-0.779,0.883-1.201,1.289
				c0.684-0.658-0.812,0.546-0.771,0.518c-0.418,0.295-1.318,0.839-1.553,0.952c-1.921,0.927-3.916,1.468-5.966,1.763
				C241.539,138.332,241.701,136.084,241.844,133.836z M235.801,202.573c0.374-0.159,0.729-0.369,1.05-0.65
				c1.791-1.57,4.972-0.943,7.328,0.003c2.619,1.052,4.197,3.248,3.786,6.03c-0.12,0.816-0.209,0.603-0.928,1.105
				c-0.562,0.393-1.894,0.896-2.778,1.072c-3.209,0.639-6.117,0.498-9.225-0.131C235.291,207.526,235.546,205.05,235.801,202.573z
				 M371.521,150.081c10.156,7.903,17.834,18.328,23.946,29.555c7.237,13.294,17.647,35.816,9.154,50.849
				c-3.926,6.947-14.519,3.261-19.893,0.696c-8.383-4.002-14.204-11.361-18.653-19.293c-9.563-17.047-12.438-37.074-20.181-54.912
				c-1.388-3.199-2.981-6.321-4.755-9.328c-0.188-0.453-0.447-0.908-0.805-1.36c-1.719-2.179,3.492-5.214,5.279-5.978
				c2.783-1.189,5.91-0.543,8.718,0.141C360.589,141.976,366.525,146.193,371.521,150.081z M365.205,283.552
				c-1.157,11.188-1.654,22.441-2.146,33.672c-0.996,22.715-1.715,45.59-6.687,67.862c-4.617,20.682-14.321,41.603-31.896,54.362
				c-18.08,13.127-41.131,16.008-62.644,11.684c-21.265-4.275-41.522-16.036-55.619-32.54c-17.452-20.434-24.519-47.9-26.901-74.103
				c-1.256-13.812-1.14-27.729-0.619-41.574c0.544-14.475,1.178-29.098,2.64-43.507c2.835-27.954,11.408-54.599,17.481-81.897
				c3.313-14.896,6.159-29.868,6.936-45.141c0.633-12.455-0.066-31.914-14.062-37.229c-9.593-3.643-18.829,0.488-26.693,6.078
				c-10.049,7.145-18.841,15.537-29.48,21.957c-9.852,5.945-20.037,8.619-30.759,3.768c-3.648-1.65-7.137-4.146-8.462-8.058
				c-0.035-0.104-0.053-0.21-0.081-0.314c11.661,2.219,23.779,3.024,34.639-2.649c11.694-6.111,20.082-16.395,28.129-26.561
				c6.979-8.818,14.197-17.045,23.557-23.416c7.349-5.001,17.215-9.283,26.119-6.039c11.172,4.071,16.626,16.852,19.615,27.412
				c3.508,12.4,3.547,25.777,3.094,38.555c-1.024,28.867-4.771,57.771-7.667,86.489c-2.438,24.185-4.597,48.435-5.489,72.733
				c-0.869,23.632,0.539,47.595,8.376,70.085c0.876,2.517,2.892,3.574,4.941,3.56c0.221,0.963,0.731,1.91,1.619,2.754
				c0.973,0.924,1.897,1.485,2.92,1.834c6.354,5.452,14.92,3.438,21.638-0.629c7.751-4.691,13.16-14.167,16.791-22.161
				c8.729-19.22,6.291-42.292,6.705-62.851c0.442-21.924,1.75-44.412,9.547-65.133c3.953-10.507,9.873-20.348,16.707-29.215
				c2.928-3.799,6.799-7.208,10.307-10.844c2.395,10.35,7.246,20.179,12.334,29.567c5.553,10.244,11.405,20.163,18.396,29.49
				c6.334,8.449,13.344,16.768,21.507,23.565C368.074,264.552,366.202,273.916,365.205,283.552z M416.733,244.245
				c-3.276,7.344-10.864,6.59-17.406,8.844c-1.144-0.176-2.385,0.009-3.626,0.715c-4.135,2.35-9.296-0.104-13.583-3.113
				c0.019-0.092,0.038-0.186,0.058-0.278c0.984-4.919-4.122-7.401-7.692-5.98c-7.062-6.388-13.124-13.892-18.737-21.54
				c-5.65-7.701-10.337-15.891-15.005-24.213c-6.034-10.76-12.9-23.33-13.621-36.082c1.784-1.23,2.841-3.396,1.848-6.053
				c-3.55-9.49-8.955-18.779-9.155-29.144c-0.166-8.61,6.719-8.837,13.2-7.407c6.918,1.527,13.663,4.979,19.652,8.871
				c-6.132-0.775-12.24,0.949-17.156,4.896c-5.765,4.627-9.405,12.195-4.292,18.678c18.774,30.432,16.389,84.496,60.457,92.51
				c8.079,1.469,16.716-0.762,21.58-7.707c1.817-2.596,3.044-5.461,3.842-8.461C418.742,233.74,419.121,238.896,416.733,244.245z"/>
		</g>
	</g>
</g>
</svg>
