<?xml version="1.0" encoding="utf-8"?>
<!-- Generator: Adobe Illustrator 16.0.3, SVG Export Plug-In . SVG Version: 6.00 Build 0)  -->
<!DOCTYPE svg PUBLIC "-//W3C//DTD SVG 1.1//EN" "http://www.w3.org/Graphics/SVG/1.1/DTD/svg11.dtd">
<svg version="1.1" id="Layer_1" xmlns="http://www.w3.org/2000/svg" xmlns:xlink="http://www.w3.org/1999/xlink" x="0px" y="0px"
	 width="512px" height="512px" viewBox="0 0 512 512" enable-background="new 0 0 512 512" xml:space="preserve">
<g>
	<g>
		<g>
			<path fill="#71C598" d="M117.339,235.978c-6.613-0.805-12.668,0.945-15.648,7.316c-2.67,5.708-3.274,12.125-3.315,18.359
				c-0.023,3.383-2.558,5.34-5.185,5.686c0.441,2.062,1.034,3.996,1.513,5.453c1.887,5.746,4.592,12.664,9.59,16.461
				c14.602,11.096,30.256-2.572,32.37-17.954C138.512,257.845,133.434,237.933,117.339,235.978z"/>
		</g>
	</g>
	<g>
		<g>
			<path fill="#71C598" d="M465.806,167.374c-21.341-43.359-61.608-77.509-104.185-99.043
				c-42.807-21.651-92.271-33.052-140.14-25.493C130.196,57.253,42.168,132.438,37.113,228.645
				c-0.113,2.172-1.355,3.699-2.926,4.512c-1.33,8.569-2.124,17.186-2.919,25.849c-0.842,9.178-1.24,18.394-1.071,27.61
				c0.329,18.052,2.354,36.18,6.903,53.677c8.67,33.337,25.497,64.824,52.007,87.349c18.229,15.486,39.549,25.66,62.419,32.326
				c25.009,7.288,51.032,11.407,77.106,11.471c51.486,0.125,103.198-13.917,145.553-43.721
				C452.679,372.484,511.796,260.817,465.806,167.374z M112.989,165.032c1.462-9.764,9.812-17.373,17.175-23.158
				c8.108-6.371,16.988-11.442,25.783-16.77c11.938-7.231,24.229-14.256,37.385-19.045c12.252-4.459,25.297-7.4,38.212-9.148
				c26.474-3.58,54.575-2.539,80.151,5.664c23.035,7.387,47.192,21.385,60.24,42.432c3.732,6.018-5.374,12.191-9.119,6.15
				c-11.942-19.263-34.911-32.641-56.294-38.713c-23.989-6.813-49.474-8.113-74.132-4.562c-12.511,1.801-25.16,4.521-36.955,9.141
				c-11.695,4.581-22.631,10.671-33.338,17.201c-7.62,4.648-15.433,8.971-22.6,14.33c-6.001,4.488-14.514,10.584-15.711,18.576
				C122.734,174.153,111.941,172.025,112.989,165.032z M233.638,212.327c0.816,8.848,2.15,17.635,3.646,26.391
				c2.178,12.762,1.827,25.82,4.053,38.586c0.666,3.822,0.854,9.008,5.522,9.512c4.467,0.481,9.113-0.191,13.601-0.225
				c7.063-0.054,7.937,10.916,0.846,10.969c-10.745,0.081-24.571,2.659-28.902-10.317c-5.008-15.006-3.338-31.556-5.974-46.998
				c-1.782-10.445-3.501-20.975-4.102-31.565c-0.426-7.521-1.684-19.65,5.48-24.658c5.736-4.01,11.773,4.785,6.392,8.932
				c-0.04,0.063-0.098,0.167-0.164,0.332c-0.093,0.229-0.152,0.36-0.191,0.438c-0.01,0.102-0.043,0.288-0.109,0.611
				c-0.284,1.394-0.535,2.828-0.585,4.254C232.982,203.171,233.217,207.762,233.638,212.327z M265.896,201.003v-1.5
				c0-1.521,0.32-2.881,1.354-4.055c0.941-1.068,2.286-1.744,3.71-1.854c1.467-0.112,2.948,0.381,4.053,1.354
				c1.002,0.881,1.854,2.334,1.854,3.709v1.5c0,1.521-0.32,2.881-1.354,4.055c-0.941,1.068-2.287,1.744-3.71,1.854
				c-1.467,0.112-2.948-0.381-4.053-1.354C266.748,203.831,265.896,202.378,265.896,201.003z M270.396,232.501
				c-0.002-7.059,10.969-7.936,10.97-0.846c0.002,13.05-0.534,27.261,4.473,39.561c1.626,3.993,3.812,8.002,7.927,9.88
				c2.126,0.971,4.262,1.755,6.636,1.55c0.706-0.061,1.413-0.092,2.099-0.243c1.958-3.921,8.565-4.954,10.071,0.354
				c2.039,7.186-5.211,10.688-11.323,10.859c-7.315,0.205-14.464-2.582-19.456-8.01C269.36,272.096,270.398,249.495,270.396,232.501
				z M173.371,249.653c0.157,2.996-1.714,4.87-3.953,5.507c-0.005,1.192-0.009,2.386,0.008,3.579
				c0.132,9.48-0.401,22.473,6.02,30.26c4.517,5.479-4.645,11.578-9.119,6.152c-7.388-8.959-7.699-23.229-7.853-34.238
				c-0.174-12.486,0.878-24.933,0.928-37.412c0.027-7.055,10.997-7.935,10.97-0.846c-0.013,3.372-0.109,6.742-0.233,10.111
				c1.081-0.826,2.261-1.568,3.559-2.199c6.431-3.124,15.205-3.111,21.337,0.831c18.864,12.128,10.736,37.763,17.042,55.858
				c2.339,6.712-8.051,10.33-10.383,3.637c-2.697-7.74-2.938-16.016-3.536-24.111c-0.544-7.383-0.579-17.398-5.61-23.391
				C186.311,235.963,172.822,239.233,173.371,249.653z M97.709,298.032c-7.247-5.506-11.861-15.291-14.064-23.915
				c-2.087-8.167-3.296-17.51,2.113-24.671c0.885-1.172,1.94-1.782,3.021-1.974c0.986-4.624,2.642-9.058,5.407-12.956
				c5.911-8.329,16.786-11.477,26.582-9.082c21.423,5.238,31.379,30.444,26.154,50.697c-2.781,10.779-9.29,21.156-19.77,25.852
				C117.465,306.323,106.104,304.411,97.709,298.032z M365.509,364.702c-13.243,19.177-37.854,30.879-59.157,38.576
				c-24.504,8.855-50.799,12.799-76.829,11.458c-24.506-1.263-49.006-5.745-70.634-17.901c-9.733-5.473-17.562-12.667-26.364-19.355
				c-6.606-5.02-15.175-10.947-11.563-20.355c2.46-6.408,11.773-1.975,10.053,4.287c0.035,0.129,0.147,0.484,0.601,1.029
				c0.432,0.502,0.896,0.971,1.394,1.408c1.558,1.375,3.183,2.651,4.842,3.9c3.573,2.692,6.77,5.77,10.25,8.575
				c7.724,6.226,16.135,11.429,25.243,15.388c20.243,8.8,42.266,12.289,64.278,12.285c23.356-0.004,46.682-3.758,68.459-12.375
				c18.631-7.372,39.445-17.211,51.164-34.182C361.266,351.615,369.498,358.925,365.509,364.702z M370.008,288.206
				c-6.59,5.977-14.233,3.832-17.386-4.437c-3.221-8.448-2.495-17.185-2.853-26.028c-0.258-6.418-0.673-13.053-2.864-19.15
				c-0.801-2.227-1.696-4.372-2.916-6.406c-0.337-0.562-0.748-1.534-1.244-1.981c-0.118-0.093-0.214-0.169-0.296-0.237
				c-2.76-0.062-8.208,3.303-10.15,4.934c-3.068,2.575-5.751,6.135-6.021,10.227c-0.103,1.543-0.697,2.646-1.561,3.353
				c0.027,2.142,0.068,4.284,0.146,6.425c0.317,8.703,0.42,18.322,4.205,26.354c3.029,6.428-7.392,9.982-10.383,3.637
				c-4.146-8.799-4.502-19.593-4.792-29.143c-0.327-10.751-0.019-21.498,0-32.25c0.012-7.057,10.983-7.936,10.97-0.846
				c-0.003,1.538-0.014,3.076-0.027,4.613c2.876-2.254,6.104-4.127,9.23-5.722c8.042-4.1,15.239-2.802,19.591,5.475
				c5.808,11.048,7.115,22.892,7.189,35.237c0.026,4.446-0.082,8.871,0.784,13.257c0.282,1.424,0.614,3.229,1.301,4.587
				C368.084,277.289,374.883,283.784,370.008,288.206z M415.056,225.345c-5.503-4.168-13.337-6.022-20.131-4.848
				c-6.627,1.146-11.785,6.698-14.679,12.527c-5.853,11.791-4.138,26.719,4.208,36.943c9.548,11.695,23.737,10.503,35.344,2.549
				c5.857-4.016,12.003,5.107,6.149,9.119c-7.852,5.383-16.912,8.954-26.558,8.159c-16.246-1.339-28.891-15.499-32.246-30.882
				c-3.513-16.105,0.907-37.436,16.788-45.947c7.93-4.249,17.527-4.896,26.097-2.098c7.619,2.488,16.276,7.01,19.064,15.162
				c3.053,8.927-2.263,18.518-10.218,22.989c-11.831,6.649-23.451,2.282-36.077,2.042c-7.039-0.133-7.931-11.104-0.847-10.969
				c9.627,0.182,23.682,5.582,32.073-1.066C419.352,234.806,420.902,229.773,415.056,225.345z"/>
		</g>
	</g>
	<g>
		<g>
			<path d="M465.493,146.447c-25.208-40.399-65.945-71.646-108.668-91.566C313.514,34.686,263.942,25.34,216.53,33.558
				C125.704,49.301,39.415,122.08,28.152,216.621c-0.15,1.273-0.277,2.549-0.393,3.825c-0.98,0.627-1.746,1.65-2.041,3.128
				c-2.654,13.305-3.867,26.895-4.828,40.424c-0.812,11.433-0.902,22.898-0.26,34.342c1.252,22.287,5.646,44.52,13.341,65.482
				c15.341,41.799,45.506,76.547,86.126,95.292c23.07,10.646,48.767,16.692,73.871,19.96c25.53,3.323,51.527,3.103,76.998-0.598
				c50.869-7.39,98.494-29.663,136.1-64.754c36.376-33.94,64.979-77.57,78.114-125.768
				C498.295,239.837,491.985,188.902,465.493,146.447z M374.186,427.717c-42.354,29.804-94.066,43.846-145.553,43.721
				c-26.074-0.063-52.098-4.183-77.106-11.471c-22.87-6.666-44.19-16.84-62.419-32.326c-26.51-22.524-43.337-54.012-52.007-87.349
				c-4.55-17.497-6.574-35.625-6.903-53.677c-0.169-9.217,0.229-18.433,1.071-27.61c0.795-8.663,1.589-17.279,2.919-25.849
				c1.57-0.812,2.812-2.34,2.926-4.512c5.055-96.206,93.083-171.392,184.368-185.807c47.868-7.559,97.333,3.842,140.14,25.493
				c42.576,21.534,82.844,55.684,104.185,99.043C511.796,260.817,452.679,372.484,374.186,427.717z"/>
		</g>
	</g>
	<g>
		<g>
			<path d="M120.768,225.435c-9.796-2.395-20.671,0.753-26.582,9.082c-2.766,3.898-4.421,8.332-5.407,12.956
				c-1.08,0.191-2.136,0.802-3.021,1.974c-5.409,7.161-4.2,16.504-2.113,24.671c2.203,8.624,6.817,18.409,14.064,23.915
				c8.395,6.379,19.756,8.291,29.443,3.951c10.479-4.695,16.988-15.072,19.77-25.852
				C152.146,255.879,142.19,230.673,120.768,225.435z M136.663,271.299c-2.114,15.382-17.769,29.05-32.37,17.954
				c-4.998-3.797-7.703-10.715-9.59-16.461c-0.479-1.457-1.071-3.391-1.513-5.453c2.627-0.346,5.161-2.303,5.185-5.686
				c0.041-6.234,0.646-12.651,3.315-18.359c2.98-6.371,9.035-8.121,15.648-7.316C133.434,237.933,138.512,257.845,136.663,271.299z"
				/>
		</g>
	</g>
	<g>
		<g>
			<path d="M212.075,287.257c-6.306-18.096,1.822-43.73-17.042-55.858c-6.132-3.942-14.906-3.955-21.337-0.831
				c-1.298,0.631-2.478,1.373-3.559,2.199c0.124-3.369,0.221-6.739,0.233-10.111c0.027-7.089-10.942-6.209-10.97,0.846
				c-0.05,12.479-1.102,24.926-0.928,37.412c0.153,11.01,0.465,25.279,7.853,34.238c4.475,5.426,13.636-0.674,9.119-6.152
				c-6.421-7.787-5.888-20.779-6.02-30.26c-0.017-1.193-0.013-2.387-0.008-3.579c2.239-0.637,4.11-2.511,3.953-5.507
				c-0.549-10.42,12.939-13.69,19.175-6.262c5.031,5.992,5.066,16.008,5.61,23.391c0.598,8.096,0.839,16.371,3.536,24.111
				C204.024,297.587,214.414,293.969,212.075,287.257z"/>
		</g>
	</g>
	<g>
		<g>
			<path d="M260.459,286.591c-4.487,0.033-9.134,0.706-13.601,0.225c-4.668-0.504-4.856-5.689-5.522-9.512
				c-2.226-12.766-1.875-25.824-4.053-38.586c-1.495-8.756-2.829-17.543-3.646-26.391c-0.421-4.565-0.655-9.156-0.488-13.74
				c0.05-1.426,0.301-2.86,0.585-4.254c0.066-0.323,0.1-0.51,0.109-0.611c0.039-0.077,0.099-0.208,0.191-0.438
				c0.066-0.165,0.124-0.269,0.164-0.332c5.382-4.146-0.655-12.941-6.392-8.932c-7.164,5.008-5.906,17.137-5.48,24.658
				c0.601,10.591,2.319,21.12,4.102,31.565c2.636,15.442,0.966,31.992,5.974,46.998c4.331,12.977,18.157,10.398,28.902,10.317
				C268.396,297.507,267.522,286.537,260.459,286.591z"/>
		</g>
	</g>
	<g>
		<g>
			<path d="M312.57,282.757c-1.506-5.309-8.113-4.275-10.071-0.354c-0.686,0.151-1.393,0.183-2.099,0.243
				c-2.374,0.205-4.51-0.579-6.636-1.55c-4.114-1.878-6.301-5.887-7.927-9.88c-5.007-12.3-4.471-26.511-4.473-39.561
				c-0.001-7.09-10.972-6.213-10.97,0.846c0.003,16.994-1.035,39.595,11.396,53.105c4.992,5.428,12.141,8.215,19.456,8.01
				C307.359,293.444,314.609,289.942,312.57,282.757z"/>
		</g>
	</g>
	<g>
		<g>
			<path d="M275.012,194.948c-1.104-0.973-2.586-1.466-4.053-1.354c-1.424,0.109-2.769,0.785-3.71,1.854
				c-1.033,1.174-1.354,2.533-1.354,4.055v1.5c0,1.375,0.853,2.828,1.854,3.709c1.104,0.973,2.586,1.466,4.053,1.354
				c1.423-0.109,2.769-0.785,3.71-1.854c1.033-1.174,1.354-2.533,1.354-4.055v-1.5C276.866,197.282,276.014,195.829,275.012,194.948
				z"/>
		</g>
	</g>
	<g>
		<g>
			<path d="M362.932,280.103c-0.687-1.357-1.019-3.163-1.301-4.587c-0.866-4.386-0.758-8.811-0.784-13.257
				c-0.074-12.346-1.382-24.189-7.189-35.237c-4.352-8.276-11.549-9.574-19.591-5.475c-3.126,1.595-6.354,3.468-9.23,5.722
				c0.014-1.537,0.024-3.075,0.027-4.613c0.014-7.09-10.958-6.211-10.97,0.846c-0.019,10.752-0.327,21.499,0,32.25
				c0.29,9.55,0.646,20.344,4.792,29.143c2.991,6.346,13.412,2.791,10.383-3.637c-3.785-8.031-3.888-17.65-4.205-26.354
				c-0.078-2.141-0.119-4.283-0.146-6.425c0.863-0.707,1.458-1.81,1.561-3.353c0.271-4.092,2.953-7.651,6.021-10.227
				c1.942-1.631,7.391-4.996,10.15-4.934c0.082,0.068,0.178,0.145,0.296,0.237c0.496,0.447,0.907,1.419,1.244,1.981
				c1.22,2.034,2.115,4.18,2.916,6.406c2.191,6.098,2.606,12.732,2.864,19.15c0.357,8.844-0.368,17.58,2.853,26.028
				c3.152,8.269,10.796,10.413,17.386,4.437C374.883,283.784,368.084,277.289,362.932,280.103z"/>
		</g>
	</g>
	<g>
		<g>
			<path d="M419.798,272.517c-11.606,7.954-25.796,9.146-35.344-2.549c-8.346-10.225-10.061-25.152-4.208-36.943
				c2.894-5.829,8.052-11.381,14.679-12.527c6.794-1.175,14.628,0.68,20.131,4.848c5.847,4.429,4.296,9.461-1.031,13.682
				c-8.392,6.648-22.446,1.248-32.073,1.066c-7.084-0.135-6.192,10.836,0.847,10.969c12.626,0.24,24.246,4.607,36.077-2.042
				c7.955-4.472,13.271-14.062,10.218-22.989c-2.788-8.152-11.445-12.674-19.064-15.162c-8.569-2.799-18.167-2.151-26.097,2.098
				c-15.881,8.512-20.301,29.842-16.788,45.947c3.355,15.383,16,29.543,32.246,30.882c9.646,0.795,18.706-2.776,26.558-8.159
				C431.801,277.624,425.655,268.501,419.798,272.517z"/>
		</g>
	</g>
	<g>
		<g>
			<path d="M371.936,145.007c-13.048-21.047-37.205-35.045-60.24-42.432c-25.576-8.203-53.678-9.244-80.151-5.664
				c-12.915,1.748-25.96,4.689-38.212,9.148c-13.156,4.789-25.447,11.813-37.385,19.045c-8.795,5.327-17.675,10.398-25.783,16.77
				c-7.363,5.785-15.713,13.395-17.175,23.158c-1.048,6.993,9.745,9.121,10.798,2.098c1.197-7.992,9.71-14.088,15.711-18.576
				c7.167-5.359,14.979-9.682,22.6-14.33c10.707-6.53,21.643-12.62,33.338-17.201c11.795-4.619,24.444-7.34,36.955-9.141
				c24.658-3.551,50.143-2.251,74.132,4.562c21.383,6.072,44.352,19.45,56.294,38.713
				C366.562,157.198,375.668,151.024,371.936,145.007z"/>
		</g>
	</g>
	<g>
		<g>
			<path d="M357.244,357.44c-11.719,16.971-32.533,26.81-51.164,34.182c-21.777,8.617-45.103,12.371-68.459,12.375
				c-22.013,0.004-44.035-3.485-64.278-12.285c-9.108-3.959-17.52-9.162-25.243-15.388c-3.48-2.806-6.677-5.883-10.25-8.575
				c-1.659-1.249-3.284-2.525-4.842-3.9c-0.497-0.438-0.962-0.906-1.394-1.408c-0.453-0.545-0.565-0.9-0.601-1.029
				c1.721-6.262-7.593-10.695-10.053-4.287c-3.611,9.408,4.957,15.336,11.563,20.355c8.802,6.688,16.631,13.883,26.364,19.355
				c21.628,12.156,46.128,16.639,70.634,17.901c26.03,1.341,52.325-2.603,76.829-11.458c21.303-7.697,45.914-19.399,59.157-38.576
				C369.498,358.925,361.266,351.615,357.244,357.44z"/>
		</g>
	</g>
</g>
</svg>
