<?xml version="1.0" encoding="utf-8"?>
<!-- Generator: Adobe Illustrator 16.0.3, SVG Export Plug-In . SVG Version: 6.00 Build 0)  -->
<!DOCTYPE svg PUBLIC "-//W3C//DTD SVG 1.1//EN" "http://www.w3.org/Graphics/SVG/1.1/DTD/svg11.dtd">
<svg version="1.1" id="Layer_1" xmlns="http://www.w3.org/2000/svg" xmlns:xlink="http://www.w3.org/1999/xlink" x="0px" y="0px"
	 width="512px" height="512px" viewBox="0 0 512 512" enable-background="new 0 0 512 512" xml:space="preserve">
<g>
	<g>
		<g>
			<path fill="#D6E5E5" d="M402.877,250.928c-2.111-16.401-6.195-32.542-12.352-47.902c-8.385-20.921-20.371-40.895-36.599-56.696
				c-17.476-17.016-38.973-27.658-62.013-35.196c-51.847-16.963-109.588-19.44-161.574-1.727c-0.001,8.109-0.12,16.321-1.564,24.275
				c-0.93,5.126-1.709,10.045-2.473,15.253c-0.172,1.176-0.309,2.494-0.492,3.834c35.914-11.496,76.416-15.521,113.154-6.878
				c23.857,5.612,44.174,17.101,61.631,34.273c18.099,17.805,32.809,38.879,43.708,61.792
				c10.517,22.106,18.033,46.416,19.095,71.006c0.979,22.64-2.621,44.263-9.262,65.398c0.781,0.04,1.521,0.079,2.186,0.104
				c4.35,0.159,8.674,0.691,13.02,0.872c1.709,0.071,6.779,0.646,8.744-0.129c1.305,0.269,2.628,0.385,3.955,0.234
				c1.509-0.172,2.717-0.715,3.652-1.521c0.047,0.032,0.094,0.061,0.139,0.094c7.775-9.063,10.622-22.457,12.421-33.75
				c2.398-15.057,2.818-30.27,4.367-45.412C404.267,282.753,404.951,267.055,402.877,250.928z"/>
		</g>
	</g>
	<g>
		<g>
			<path fill="#D6E5E5" d="M295.887,311.289c-2.452-22.932-8.844-46.135-22.935-64.782c-15.847-20.971-40.19-34.433-65.964-38.76
				c-26.434-4.438-53.197-1.18-79.721,0.958c-0.28,17.036-1.438,34.033-2.729,51.021c32.92-13.61,76.157-3.68,101.269,20.831
				c14.208,13.868,20.361,32.319,23.408,51.606c2.395,15.153,2.543,32.915-5.455,46.451c14.223,0.373,28.432,1.295,42.662,1.338
				c0.117,0,0.229,0.011,0.344,0.018c2.338-1.899,4.062-4.381,5.346-7.124c4.201-8.988,5.48-19.466,5.395-29.312
				C297.412,332.833,297.023,321.933,295.887,311.289z"/>
		</g>
	</g>
	<g>
		<g>
			<path fill="#FEBF10" d="M465.806,167.375c-21.34-43.359-61.608-77.509-104.185-99.043
				c-42.806-21.651-92.271-33.053-140.14-25.494C142.577,55.298,66.128,113.168,43.574,190.765c0.017,0.859-0.206,1.748-0.737,2.609
				c-0.389,1.424-0.766,2.853-1.118,4.289c-0.501,1.012-0.958,2.035-1.39,3.066c-0.131,0.949-0.26,1.871-0.445,2.698
				c-0.922,4.108-1.983,8.179-2.733,12.325c-1.384,7.654-1.136,15.721-3.812,23.022c-0.234,2.114-0.49,4.22-0.794,6.306
				c-0.036,0.256-0.024,0.492,0.011,0.719c-0.475,4.389-0.883,8.791-1.287,13.205c-0.842,9.178-1.24,18.393-1.072,27.61
				c0.33,18.052,2.354,36.179,6.904,53.677c8.67,33.336,25.497,64.824,52.007,87.348c18.228,15.487,39.549,25.661,62.419,32.327
				c25.009,7.289,51.032,11.408,77.107,11.471c51.486,0.125,103.197-13.916,145.553-43.721
				C452.679,372.484,511.796,260.818,465.806,167.375z M194.736,366.272c-1.291,1.813-2.877,3.476-4.699,4.772
				c1.753-1.248-0.135,0.226-0.693,0.962c-0.447,0.589-0.896,1.179-1.412,1.711c-19.127,19.741-75.023,14.363-73.398-20.137
				c0.033-0.718,0.184-1.368,0.418-1.956c-0.822-1.347-0.961-3.071,0.139-4.915c2.635-4.416,2.463-9.943,3.999-14.769
				c1.816-5.707,4.524-11.29,9.581-14.838c17.281-12.127,43.665-5.854,57.062,9.124c6.395,7.149,12.69,16.501,12.817,26.498
				C198.611,357.617,197.607,362.236,194.736,366.272z M293.762,388.438h-2.152c-0.721,1.446-2.149,2.492-4.341,2.485
				c-17.51-0.053-34.986-1.451-52.497-1.5c-1.195-0.003-2.209-0.326-3.042-0.851c-3.792-0.88-6.637-5.34-3.059-8.687
				c12.935-12.096,12.253-32.122,9.345-48.225c-2.922-16.179-7.9-32.292-20.35-43.667c-23.593-21.56-64.541-31.771-93.787-15.917
				c-4.724,2.561-9.455-2.138-8.646-6.007c-1.174-1.106-1.93-2.697-1.777-4.674c1.41-18.348,2.694-36.691,2.878-55.095
				c-1.108-2.264-0.756-5.298,1.224-6.947c1.809-2.27,5.285-2.854,7.57-1.517c15.619-1.238,31.229-2.904,46.899-3.219
				c28.417-0.571,56.751,3.624,81.124,19.176c19.852,12.667,34.774,30.931,43.429,52.846c4.294,10.874,7.217,22.274,8.984,33.827
				c1.788,11.689,1.704,23.308,2.615,35.038C309.503,352.545,308.092,376.624,293.762,388.438z M415.328,275.629
				c-0.15,10.292-1.567,20.396-2.384,30.633c-0.823,10.329-1.374,20.688-2.622,30.979c-2.284,18.834-6.312,40.744-21.816,53.386
				c-2.796-0.404-5.617-0.551-8.448-0.562c-0.012-0.018-0.025-0.035-0.037-0.053c-0.083,0.019-0.169,0.033-0.253,0.051
				c-3.616-0.003-7.246,0.198-10.857,0.334c-2.36-0.191-4.608-0.458-6.543-0.612c-3.15-0.25-6.261-0.394-9.42-0.334
				c-1.258,0.023-2.518,0.058-3.775,0.118c-0.055,0.063-0.119,0.118-0.178,0.178c-2.703-0.18-5.406-0.328-8.115-0.38
				c-0.377-0.267-0.728-0.569-1.039-0.928h-0.783c1.134-2.756,1.953-5.547,2.305-8.513c0.289-0.169,0.588-0.329,0.904-0.468
				c9.879-29.438,13.795-60.321,6.695-91.186c-5.703-24.792-16.207-48.48-30.516-69.506c-13.457-19.773-30.768-39.81-52.184-51.212
				c-21.705-11.556-46.843-15.474-71.225-15.014c-24.564,0.463-48.994,4.683-72.187,12.824c-3.729,1.31-6.501-1.323-7.079-4.321
				c-0.494-0.358-0.932-0.795-1.281-1.313c-0.979-1.452-1.103-3.167-1.121-4.856c-0.02-1.651,0.569-2.959,1.477-3.911
				c0.184-1.069,0.369-2.138,0.525-3.211c0.393-2.678,0.798-5.371,1.01-8.071c-0.154,1.966,0.35-2.303,0.074-1.278
				c0.451-1.681,0.896-3.365,1.208-5.08c0.533-2.938,0.972-5.89,1.209-8.869c0.504-6.347,0.495-12.714,0.496-19.077
				c0.001-3.536,2.754-5.52,5.501-5.729c44.214-15.514,93.145-17.055,138.826-7.425c40.557,8.549,80.289,24.306,107.518,56.703
				C400.287,183.519,415.988,230.562,415.328,275.629z"/>
		</g>
	</g>
	<g>
		<g>
			<path fill="#D6E5E5" d="M182.164,339.279c-4.678-6.725-11.241-13.093-19.297-15.469c-8.396-2.476-20.726-3.483-28.046,2.412
				c-7.408,5.966-5.347,16.946-9.508,24.725c0.151,0.526,0.22,1.121,0.188,1.786c-0.675,14.35,14.022,20.067,26.191,21.123
				c6.717,0.583,13.892-0.036,20.199-2.534c2.313-0.917,4.881-2.059,6.705-3.805c0.893-0.854,1.831-1.758,2.492-2.808
				c1.104-1.75,2.857-2.517,4.135-4.071C190.387,354.357,186.164,345.031,182.164,339.279z"/>
		</g>
	</g>
	<g>
		<g>
			<path d="M465.493,146.447C440.285,106.048,399.548,74.8,356.825,54.88c-43.311-20.195-92.883-29.541-140.295-21.322
				c-81.824,14.183-159.954,74.66-182.875,155.631c-3.336,5.541-3.768,13.082-5.205,19.189c-1.015,4.304-1.729,8.689-2.326,13.068
				c-0.06,0.433-0.109,0.865-0.156,1.296c-0.098,0.263-0.188,0.532-0.248,0.832c-0.836,4.189-1.518,8.409-2.104,12.646
				c-0.033,0.074-0.061,0.148-0.096,0.223c-0.533,1.158-0.606,2.259-0.367,3.238c-1.014,8.078-1.688,16.207-2.263,24.316
				c-0.812,11.434-0.903,22.898-0.26,34.343c1.253,22.286,5.647,44.519,13.341,65.481c15.342,41.799,45.506,76.547,86.127,95.293
				c23.07,10.645,48.766,16.691,73.87,19.959c25.53,3.324,51.527,3.104,76.999-0.598c50.868-7.389,98.493-29.662,136.1-64.753
				c36.375-33.94,64.978-77.57,78.113-125.768C498.295,239.837,491.985,188.903,465.493,146.447z M374.187,427.716
				c-42.355,29.805-94.066,43.846-145.553,43.721c-26.075-0.062-52.099-4.182-77.107-11.471
				c-22.87-6.666-44.191-16.84-62.419-32.327c-26.51-22.523-43.337-54.012-52.007-87.348c-4.551-17.498-6.574-35.625-6.904-53.677
				c-0.168-9.218,0.23-18.433,1.072-27.61c0.404-4.414,0.812-8.816,1.287-13.205c-0.035-0.227-0.047-0.463-0.011-0.719
				c0.304-2.086,0.56-4.191,0.794-6.306c2.676-7.302,2.428-15.368,3.812-23.022c0.75-4.146,1.812-8.217,2.733-12.325
				c0.186-0.827,0.314-1.749,0.445-2.698c0.432-1.031,0.889-2.055,1.39-3.066c0.353-1.437,0.729-2.865,1.118-4.289
				c0.531-0.861,0.754-1.75,0.737-2.609c22.554-77.597,99.003-135.467,177.907-147.928c47.868-7.559,97.334,3.843,140.14,25.494
				c42.576,21.534,82.845,55.684,104.185,99.043C511.796,260.818,452.679,372.484,374.187,427.716z"/>
		</g>
	</g>
	<g>
		<g>
			<path d="M185.731,326.226c-13.396-14.979-39.78-21.251-57.062-9.124c-5.057,3.548-7.765,9.131-9.581,14.838
				c-1.536,4.826-1.364,10.354-3.999,14.769c-1.1,1.844-0.961,3.568-0.139,4.915c-0.234,0.588-0.385,1.238-0.418,1.956
				c-1.625,34.5,54.271,39.878,73.398,20.137c0.516-0.532,0.965-1.122,1.412-1.711c0.559-0.736,2.446-2.209,0.693-0.962
				c1.822-1.296,3.408-2.958,4.699-4.772c2.871-4.036,3.875-8.655,3.812-13.548C198.422,342.728,192.126,333.375,185.731,326.226z
				 M185.225,360.638c-1.277,1.555-3.031,2.322-4.135,4.071c-0.661,1.05-1.6,1.954-2.492,2.808
				c-1.824,1.746-4.392,2.888-6.705,3.805c-6.308,2.499-13.482,3.117-20.199,2.534c-12.169-1.056-26.866-6.773-26.191-21.123
				c0.031-0.666-0.037-1.26-0.188-1.786c4.161-7.779,2.1-18.759,9.508-24.725c7.32-5.896,19.649-4.888,28.046-2.412
				c8.056,2.376,14.619,8.744,19.297,15.469C186.164,345.031,190.387,354.357,185.225,360.638z"/>
		</g>
	</g>
	<g>
		<g>
			<path d="M308.179,335.503c-0.911-11.73-0.827-23.349-2.615-35.038c-1.768-11.553-4.69-22.953-8.984-33.827
				c-8.654-21.915-23.577-40.179-43.429-52.846c-24.373-15.552-52.707-19.747-81.124-19.176c-15.671,0.315-31.28,1.981-46.899,3.219
				c-2.285-1.337-5.762-0.752-7.57,1.517c-1.979,1.649-2.332,4.684-1.224,6.947c-0.184,18.404-1.468,36.747-2.878,55.095
				c-0.152,1.977,0.604,3.568,1.777,4.674c-0.809,3.87,3.923,8.568,8.646,6.007c29.246-15.854,70.194-5.644,93.787,15.917
				c12.449,11.376,17.428,27.488,20.35,43.667c2.908,16.104,3.59,36.129-9.345,48.225c-3.578,3.347-0.733,7.807,3.059,8.687
				c0.833,0.525,1.847,0.848,3.042,0.851c17.511,0.048,34.987,1.447,52.497,1.5c2.191,0.007,3.62-1.039,4.341-2.485h2.152
				C308.092,376.624,309.503,352.545,308.179,335.503z M292.111,372.847c-1.283,2.743-3.008,5.225-5.346,7.124
				c-0.115-0.007-0.227-0.018-0.344-0.018c-14.23-0.043-28.439-0.965-42.662-1.338c7.998-13.536,7.85-31.298,5.455-46.451
				c-3.047-19.287-9.2-37.738-23.408-51.606c-25.111-24.511-68.349-34.44-101.269-20.831c1.292-16.989,2.449-33.985,2.729-51.021
				c26.523-2.139,53.287-5.397,79.721-0.958c25.773,4.327,50.117,17.789,65.964,38.76c14.091,18.647,20.482,41.85,22.935,64.782
				c1.137,10.645,1.525,21.545,1.619,32.246C297.592,353.38,296.312,363.859,292.111,372.847z"/>
		</g>
	</g>
	<g>
		<g>
			<path d="M371.213,148.923c-27.229-32.397-66.961-48.153-107.518-56.703c-45.682-9.63-94.612-8.089-138.826,7.425
				c-2.747,0.209-5.5,2.193-5.501,5.729c-0.001,6.363,0.008,12.73-0.496,19.077c-0.237,2.979-0.676,5.931-1.209,8.869
				c-0.312,1.715-0.757,3.399-1.208,5.08c0.275-1.024-0.229,3.245-0.074,1.278c-0.212,2.7-0.617,5.393-1.01,8.071
				c-0.156,1.073-0.342,2.143-0.525,3.211c-0.907,0.952-1.496,2.26-1.477,3.911c0.019,1.689,0.143,3.404,1.121,4.856
				c0.35,0.518,0.787,0.955,1.281,1.313c0.578,2.999,3.35,5.631,7.079,4.321c23.192-8.142,47.622-12.361,72.187-12.824
				c24.382-0.46,49.52,3.458,71.225,15.014c21.416,11.403,38.727,31.439,52.184,51.212c14.309,21.025,24.812,44.714,30.516,69.506
				c7.1,30.864,3.184,61.748-6.695,91.186c-0.316,0.139-0.615,0.298-0.904,0.468c-0.352,2.966-1.171,5.756-2.305,8.513h0.783
				c0.312,0.358,0.662,0.661,1.039,0.928c2.709,0.052,5.412,0.2,8.115,0.38c0.059-0.06,0.123-0.115,0.178-0.178
				c1.258-0.06,2.518-0.094,3.775-0.118c3.159-0.06,6.27,0.084,9.42,0.334c1.935,0.154,4.183,0.421,6.543,0.612
				c3.611-0.137,7.241-0.338,10.857-0.334c0.084-0.018,0.17-0.032,0.253-0.051c0.012,0.018,0.025,0.035,0.037,0.053
				c2.831,0.011,5.652,0.158,8.448,0.562c15.505-12.642,19.532-34.551,21.816-53.386c1.248-10.291,1.799-20.65,2.622-30.979
				c0.816-10.237,2.233-20.341,2.384-30.633C415.988,230.562,400.287,183.519,371.213,148.923z M402.62,298.853
				c-1.549,15.143-1.969,30.355-4.367,45.412c-1.799,11.293-4.646,24.687-12.421,33.75c-0.045-0.033-0.092-0.062-0.139-0.094
				c-0.936,0.806-2.144,1.349-3.652,1.521c-1.327,0.151-2.65,0.035-3.955-0.234c-1.965,0.775-7.035,0.201-8.744,0.129
				c-4.346-0.181-8.67-0.712-13.02-0.872c-0.664-0.024-1.404-0.064-2.186-0.104c6.641-21.136,10.24-42.759,9.262-65.398
				c-1.062-24.59-8.578-48.9-19.095-71.006c-10.899-22.912-25.609-43.987-43.708-61.792c-17.457-17.173-37.773-28.661-61.631-34.273
				c-36.738-8.642-77.24-4.617-113.154,6.878c0.184-1.34,0.32-2.659,0.492-3.834c0.764-5.208,1.543-10.127,2.473-15.253
				c1.444-7.955,1.563-16.167,1.564-24.275c51.986-17.713,109.728-15.236,161.574,1.727c23.04,7.538,44.537,18.18,62.013,35.196
				c16.228,15.801,28.214,35.775,36.599,56.696c6.156,15.36,10.24,31.5,12.352,47.902
				C404.951,267.055,404.267,282.753,402.62,298.853z"/>
		</g>
	</g>
</g>
</svg>
