<?xml version="1.0" encoding="utf-8"?>
<!-- Generator: Adobe Illustrator 16.0.3, SVG Export Plug-In . SVG Version: 6.00 Build 0)  -->
<!DOCTYPE svg PUBLIC "-//W3C//DTD SVG 1.1//EN" "http://www.w3.org/Graphics/SVG/1.1/DTD/svg11.dtd">
<svg version="1.1" id="Layer_1" xmlns="http://www.w3.org/2000/svg" xmlns:xlink="http://www.w3.org/1999/xlink" x="0px" y="0px"
	 width="512px" height="512px" viewBox="0 0 512 512" enable-background="new 0 0 512 512" xml:space="preserve">
<g>
	<g>
		<g>
			<path fill="#D6E5E5" d="M426.418,294.671c0.021-0.187,0.197-0.872,0.188-1.032c-0.081-1.34-0.248-4.031-1.408-4.896
				c-1.215-0.905-3.449,0.239-5.32,1.704c0.672,1.297,0.705,2.756,0.262,4.153c0.359,0.18,0.725,0.345,1.098,0.492
				c0.013-0.044,1.467,0.333,1.744,0.37c0.533,0.07,0.679,0.111,0.709,0.131c0.043-0.017,0.201-0.049,0.7-0.093
				c1.146-0.101,1.188,0.029,2.032-0.647C426.074,295.131,426.276,294.864,426.418,294.671z"/>
		</g>
	</g>
	<g>
		<g>
			<path fill="#D6E5E5" d="M421.469,230.685c-1.008-9.383-2.898-18.987-2.958-28.424c-0.04-6.271-0.099-12.681-1.181-18.875
				c-0.21-1.2-0.5-4.299-1.617-4.797c-2.326-1.038-5.785-0.974-7.58,1.042c-0.329,0.369-0.678,0.672-1.035,0.924
				c0.236,0.584,0.379,1.253,0.387,2.022c0.287,26.19,12.067,50.722,12.022,76.946c0.024-0.002,0.046-0.006,0.069-0.008
				c1.347-0.083,2.618-0.303,3.871-0.606C423.227,249.476,422.475,240.069,421.469,230.685z"/>
		</g>
	</g>
	<g>
		<g>
			<path fill="#D6E5E5" d="M368.516,259.423c-0.795-12.627-2.619-25.399-6.613-37.441c-3.41-10.276-8.312-21.27-18.5-26.459
				c-9.097-4.633-16.438-1.647-20.977,6.968c-0.003,1.635-0.1,3.25-0.141,4.904c-0.146,5.736,0.037,11.468,0.574,17.182
				c1.053,11.198,2.55,22.461,4.484,33.549c1.612,9.245,3.721,18.709,7.799,27.218c2.986,6.229,8.26,13.72,16.195,12.555
				c7.471-1.097,11.711-9.85,14.007-16.145C367.984,274.513,368.996,267.067,368.516,259.423z"/>
		</g>
	</g>
	<g>
		<g>
			<path fill="#D6E5E5" d="M471.047,203.2c-4.008-21.217-10.688-45.211-27.213-60.282c-18.838-17.18-46.263-19.875-70.654-18.907
				c-28.123,1.115-56.04,5.902-84.065,8.331c-16.316,1.414-32.706,2.424-49.091,2.159c-15.846-0.256-31.457-2.095-47.207-3.632
				c-30.829-3.008-62.635-3.951-91.723,8.417c-21.532,9.156-39.441,25.543-50.706,46.048c-11.898,21.659-17.54,46.664-16.226,71.349
				c1.531,28.769,11.518,55.763,26.397,80.241c0.353,0.58,0.585,1.162,0.719,1.733c1.696,2.677,1.358,6.927-2.46,8.534
				c-8.625,3.63-11.734,14.8-12.943,23.198c-1.351,9.384-1.346,19.723,2.381,28.596c5.062,12.056,14.076,22.989,25.975,28.797
				c3.412,1.667,6.965,3.274,10.601,4.51c-1.812-2.859-3.259-6.002-4.344-9.285c-3.222-9.747-5.097-21.82-2.032-31.862
				c6.934-22.715,29.625-33.084,50.727-39.338c1.879-0.557,3.516-0.163,4.758,0.737c11.372,0.159,22.791,1.311,34.146,1.975
				c11.512,0.673,23.015,1.473,34.521,2.228c23.907,1.568,47.726,2.499,71.674,1.211c30.534-1.642,60.646-6.161,90.868-10.579
				c25.223-3.687,52.244-7.468,74.697-20.38c10.387-5.972,19.475-13.627,25.335-24.248c5.536-10.036,8.628-21.045,9.995-32.397
				C477.855,248.113,475.188,225.115,471.047,203.2z M132.484,296.577c0,5.851-9.133,8.663-10.676,2.242
				c-3.912-16.286-4.006-33.15-7.133-49.524c-2.854,1.908-6.141,3.215-9.869,3.773c-5.134,0.768-10.287,0.364-15.44-0.058
				c0.776,8.236,1.282,16.499,1.892,24.75c0.408,5.526,1.332,11.28,1.227,16.817c-0.078,4.182-0.918,8.638,0.707,12.604
				c2.699,6.585-7.705,10.17-10.383,3.638c-1.855-4.527-1.416-8.962-1.326-13.73c0.105-5.518-0.651-11.133-1.059-16.637
				c-0.699-9.459-1.208-18.957-2.18-28.396c-4.18-1.707-4.818-8.055-1.17-9.98c-2.033-16.149-4.461-32.385-4.559-48.652
				c-0.043-7.064,10.926-7.937,10.969-0.847c0.102,16.57,2.658,33.094,4.682,49.532c8.799,0.825,17.957,1.537,23.604-5.056
				c-3.195-12.41-6.453-26.975-0.697-38.5c2.277-4.557,9.397-3.59,10.309,1.275c1.844,2.916,0.461,6.468-1.922,8.07
				c-0.914,4.76-0.189,10.013,0.542,14.605c0.479,3.008,1.089,5.985,1.764,8.947c2.252,1.311,3.675,3.986,2.163,6.997
				c-0.101,0.2-0.209,0.392-0.312,0.588c0.258,1.008,0.517,2.015,0.777,3.022c4.055,15.67,3.74,32.086,6.713,47.962
				c0.839,0.808,1.379,1.986,1.379,3.557V296.577z M155.072,232.239c0.395,3.748,0.727,7.506,1.016,11.271
				c10.359-0.08,20.703-0.773,30.961,1.091c6.982,1.269,4.877,12.066-2.098,10.798c-9.322-1.694-18.7-0.991-28.113-0.917
				c0.475,7.732,0.873,15.472,1.387,23.182c0.354,5.306,0.629,10.63,1.057,15.93c0.357,4.434,0.494,10.226,3.228,13.983
				c0.958,1.318,0.645,1.347,2.112,1.746c1.869,0.508,3.781,0.891,5.717,1.033c1.342,0.099,6.268,0.257,6.734-0.803
				c2.864-6.488,12.715-1.585,9.855,4.895c-4.092,9.269-19.711,8.006-27.316,4.684c-10.729-4.686-11.084-19.984-11.616-29.857
				c-0.933-17.271-2.037-34.614-3.479-51.851c-1.225-14.624-5.21-29.864-1.914-44.473c0.186-0.822,0.504-1.512,0.915-2.086
				c0.134-1.83,1.246-3.481,3.665-4.056c7.734-1.837,15.768-2.386,23.693-1.907c7.117,0.43,15.271,1.804,19.685,8.023
				c4.112,5.795-5.017,11.933-9.119,6.151c-2.585-3.644-10.892-3.409-14.808-3.379c-4.478,0.033-9.113,0.22-13.562,1.03
				C150.954,208.38,153.85,220.638,155.072,232.239z M241.424,315.485c-11.508,1.221-22.094-3.218-25.162-15.198
				c-1.883-7.351-2.25-15.079-3.295-22.578c-1.26-9.043-2.617-18.072-3.941-27.106c-2.738-18.661-5.285-37.35-6.51-56.18
				c-0.462-7.086,10.51-7.919,10.969-0.847c1.948,29.929,7.346,59.433,11.245,89.133c0.808,6.155,0.02,20.059,8.448,21.688
				c3.818,0.737,9.756,0.877,13.088-1.537c2.934-2.125,3.195-6.084,3.25-9.438c0.114-7.042,11.085-7.931,10.969-0.847
				C260.279,305.214,254.61,314.086,241.424,315.485z M307.398,289.049c-0.776,8.753,2.945,24.739-10.451,25.75
				c-13.368,1.008-22.062-9.041-25.295-21.004c-4.391-16.243-6.354-33.362-9.119-49.931c-3.359-20.123-6.82-40.23-11.725-60.044
				c-1.693-6.838,8.68-10.518,10.383-3.638c8.094,32.696,12.883,66.184,18.639,99.346c1.268,7.303,2.734,22.193,12.049,23.864
				c4.266,0.765,4.727,1.346,4.722-3.211c-0.004-4.427-0.392-8.806,0.001-13.229C297.229,279.887,308.02,282.057,307.398,289.049z
				 M373.99,289.609c-3.385,7.432-8.81,15.405-16.942,18.136c-8.008,2.689-17.282,0.631-23.291-5.399
				c-12.931-12.978-16.155-33.759-18.591-51.144c-1.902-13.572-4.252-27.301-3.9-41.051c0.115-4.562-0.7-10.533,0.689-14.934
				c0.93-2.944,3.153-4.87,5.748-5.229c3.161-3.502,7.108-6.176,11.951-7.271c7.004-1.584,14.668,0.203,20.643,4.115
				c15.604,10.217,21.816,27.647,25.572,45.185C379.946,251.059,382.314,271.336,373.99,289.609z M399.867,172.369
				c6.055-6.793,18.568-7.553,24.692-0.445c4.493,5.215,4.456,14.722,4.729,21.189c0.976,23.208,5.086,46.183,5.196,69.463
				c0.012,2.453-1.207,4.806-3.666,5.615c-3.422,1.125-6.787,2.069-10.395,2.294c-2.773,0.172-4.584-1.404-5.344-3.412
				c-3.096,0.847-6.67-0.583-6.564-4.65c0.693-26.989-11.707-52.119-12-79c-0.025-2.324,1.146-3.973,2.729-4.894
				C398.157,176.738,398.047,174.412,399.867,172.369z M433.972,302.768c-7.731,7.147-25.641,2.346-25.275-7.548
				c-2.148-1.325-3.349-3.863-1.624-6.667c4.57-7.432,17.295-15.794,25.388-8.074C437.92,285.688,440.066,297.135,433.972,302.768z
				 M436.523,156.121c0.139,1.258-0.335-0.188-0.744-0.673c-0.516-0.608-1.109-1.175-1.697-1.71
				c-2.016-1.837-4.138-3.562-6.385-5.109c-3.841-2.644-7.773-4.49-12.136-6.003c-13.218-4.585-28.925-0.613-42.401,0.724
				c-8.545,0.848-17.059,1.968-25.572,3.075c-7.807,1.015-15.924,1.336-23.65,2.759c-4.891,0.9-9.891,1.118-14.836,1.569
				c-3.695,0.338-9.484,0.242-12.512,2.004c-6.102,3.553-12.293-5.544-6.15-9.119c4.89-2.847,11.008-3.233,16.525-3.738
				c5.979-0.546,11.934-1.262,17.898-1.854c18.442-1.83,36.852-4.349,55.255-6.542c14.594-1.739,30.771-3.76,44.562,2.736
				c7.756,3.653,21.744,11.358,22.812,21.034C448.274,162.345,437.299,163.147,436.523,156.121z"/>
		</g>
	</g>
	<g>
		<g>
			<path d="M487.16,250.062c-0.17-22.215-3.611-45.096-9.384-66.529c-5.728-21.259-16.093-42.869-34.979-55.355
				c-21.561-14.254-48.513-16.151-73.624-15.002c-28.36,1.298-56.549,6.153-84.834,8.532c-16.326,1.373-32.705,2.109-49.09,1.749
				c-15.992-0.352-31.838-2.66-47.752-4.078c-30.524-2.72-61.287-2.251-90.042,9.525c-21.871,8.957-39.728,24.811-52.642,44.428
				c-15.267,23.189-21.966,51.507-21.777,79.042c0.213,31.112,10.942,61.047,26.57,87.629c-8.098,6-12.16,16.008-14.131,25.948
				c-2.361,11.903-2.072,25.297,2.396,36.673c5.88,14.97,17.227,27.588,31.463,35.014c8.414,4.389,22.986,10.871,33.392,7.912
				c2.147,0.291,3.751-0.71,4.66-2.224c5.001-3.832,0.009-11.728-5.395-9.466c-6.889-3.029-10.235-11.034-12.167-17.907
				c-2.203-7.843-2.802-17.173,0.188-24.872c6.207-15.981,24.613-23.315,40.07-28.064c0.682,0.297,1.463,0.468,2.34,0.469
				c7.648,0.008,15.186,0.977,22.824,1.303c8.627,0.369,17.244,0.903,25.859,1.463c15.906,1.035,31.805,2.191,47.729,2.93
				c32.061,1.486,64.174-0.802,95.975-4.861c26.959-3.441,54.402-6.922,80.883-13.129c23.795-5.577,48.994-15.357,64.133-35.519
				C483.859,296.984,487.336,272.833,487.16,250.062z M475.176,270.355c-1.367,11.353-4.459,22.362-9.995,32.397
				c-5.86,10.621-14.948,18.276-25.335,24.248c-22.453,12.912-49.475,16.693-74.697,20.38c-30.223,4.417-60.334,8.937-90.868,10.579
				c-23.948,1.288-47.767,0.357-71.674-1.211c-11.507-0.755-23.01-1.555-34.521-2.228c-11.354-0.664-22.773-1.815-34.146-1.975
				c-1.242-0.9-2.879-1.294-4.758-0.737c-21.102,6.254-43.793,16.624-50.727,39.338c-3.064,10.042-1.189,22.115,2.032,31.862
				c1.085,3.282,2.532,6.425,4.344,9.285c-3.636-1.236-7.188-2.844-10.601-4.51c-11.898-5.809-20.912-16.741-25.975-28.797
				c-3.727-8.874-3.731-19.212-2.381-28.596c1.209-8.398,4.318-19.568,12.943-23.198c3.818-1.607,4.156-5.856,2.46-8.534
				c-0.134-0.572-0.366-1.153-0.719-1.733c-14.88-24.478-24.866-51.473-26.397-80.241c-1.314-24.685,4.327-49.69,16.226-71.349
				c11.265-20.505,29.174-36.893,50.706-46.048c29.088-12.368,60.894-11.425,91.723-8.417c15.75,1.537,31.361,3.375,47.207,3.632
				c16.385,0.265,32.774-0.745,49.091-2.159c28.025-2.429,55.942-7.216,84.065-8.331c24.392-0.967,51.816,1.728,70.654,18.907
				c16.525,15.071,23.205,39.064,27.213,60.282C475.188,225.115,477.855,248.113,475.176,270.355z"/>
		</g>
	</g>
	<g>
		<g>
			<path d="M131.105,290.02c-2.973-15.876-2.658-32.292-6.713-47.962c-0.261-1.007-0.52-2.015-0.777-3.022
				c0.104-0.196,0.212-0.388,0.312-0.588c1.512-3.011,0.089-5.687-2.163-6.997c-0.675-2.962-1.284-5.939-1.764-8.947
				c-0.731-4.592-1.456-9.845-0.542-14.605c2.383-1.602,3.766-5.154,1.922-8.07c-0.911-4.865-8.031-5.833-10.309-1.275
				c-5.756,11.525-2.498,26.09,0.697,38.5c-5.646,6.593-14.805,5.881-23.604,5.056c-2.023-16.438-4.58-32.962-4.682-49.532
				c-0.043-7.09-11.012-6.217-10.969,0.847c0.098,16.267,2.525,32.503,4.559,48.652c-3.648,1.925-3.01,8.273,1.17,9.98
				c0.972,9.438,1.48,18.936,2.18,28.396c0.407,5.504,1.164,11.12,1.059,16.637c-0.09,4.768-0.529,9.203,1.326,13.73
				c2.678,6.533,13.082,2.948,10.383-3.638c-1.625-3.967-0.785-8.422-0.707-12.604c0.105-5.537-0.818-11.291-1.227-16.817
				c-0.609-8.25-1.115-16.513-1.892-24.75c5.153,0.421,10.307,0.826,15.44,0.058c3.729-0.558,7.015-1.865,9.869-3.773
				c3.127,16.374,3.221,33.238,7.133,49.524c1.543,6.421,10.676,3.608,10.676-2.242v-3
				C132.484,292.006,131.944,290.828,131.105,290.02z"/>
		</g>
	</g>
	<g>
		<g>
			<path d="M187.049,244.601c-10.258-1.865-20.602-1.171-30.961-1.091c-0.289-3.764-0.621-7.522-1.016-11.271
				c-1.223-11.601-4.118-23.859-2.002-35.513c4.449-0.811,9.085-0.997,13.562-1.03c3.916-0.029,12.223-0.264,14.808,3.379
				c4.103,5.781,13.231-0.356,9.119-6.151c-4.413-6.219-12.567-7.593-19.685-8.023c-7.926-0.479-15.959,0.07-23.693,1.907
				c-2.419,0.574-3.531,2.226-3.665,4.056c-0.411,0.574-0.729,1.265-0.915,2.086c-3.296,14.608,0.689,29.849,1.914,44.473
				c1.442,17.237,2.547,34.579,3.479,51.851c0.532,9.873,0.888,25.171,11.616,29.857c7.605,3.322,23.225,4.585,27.316-4.684
				c2.859-6.48-6.991-11.383-9.855-4.895c-0.467,1.061-5.393,0.902-6.734,0.803c-1.936-0.142-3.848-0.524-5.717-1.033
				c-1.468-0.399-1.154-0.428-2.112-1.746c-2.733-3.758-2.87-9.55-3.228-13.983c-0.428-5.3-0.703-10.625-1.057-15.93
				c-0.514-7.71-0.912-15.45-1.387-23.182c9.413-0.074,18.791-0.777,28.113,0.917C191.926,256.667,194.031,245.87,187.049,244.601z"
				/>
		</g>
	</g>
	<g>
		<g>
			<path d="M249.516,293.423c-0.055,3.353-0.316,7.313-3.25,9.438c-3.332,2.414-9.27,2.274-13.088,1.537
				c-8.429-1.628-7.641-15.533-8.448-21.688c-3.899-29.701-9.297-59.204-11.245-89.133c-0.459-7.073-11.431-6.24-10.969,0.847
				c1.225,18.831,3.771,37.519,6.51,56.18c1.324,9.034,2.682,18.062,3.941,27.106c1.045,7.5,1.412,15.227,3.295,22.578
				c3.068,11.98,13.654,16.418,25.162,15.198c13.187-1.399,18.855-10.271,19.061-22.909
				C260.601,285.493,249.63,286.381,249.516,293.423z"/>
		</g>
	</g>
	<g>
		<g>
			<path d="M296.602,286.951c-0.393,4.424-0.005,8.802-0.001,13.229c0.005,4.557-0.456,3.976-4.722,3.211
				c-9.314-1.671-10.781-16.561-12.049-23.864c-5.756-33.162-10.545-66.649-18.639-99.346c-1.703-6.88-12.076-3.201-10.383,3.638
				c4.904,19.814,8.365,39.921,11.725,60.044c2.766,16.569,4.729,33.688,9.119,49.931c3.232,11.963,11.927,22.013,25.295,21.004
				c13.396-1.01,9.675-16.996,10.451-25.75C308.02,282.057,297.229,279.887,296.602,286.951z"/>
		</g>
	</g>
	<g>
		<g>
			<path d="M375.869,232.017c-3.756-17.537-9.968-34.968-25.572-45.185c-5.975-3.913-13.639-5.699-20.643-4.115
				c-4.843,1.095-8.79,3.769-11.951,7.271c-2.595,0.359-4.818,2.285-5.748,5.229c-1.39,4.401-0.574,10.372-0.689,14.934
				c-0.352,13.75,1.998,27.479,3.9,41.051c2.436,17.385,5.66,38.167,18.591,51.144c6.009,6.031,15.283,8.088,23.291,5.399
				c8.133-2.731,13.558-10.704,16.942-18.136C382.314,271.336,379.946,251.059,375.869,232.017z M365.345,281.753
				c-2.296,6.295-6.536,15.048-14.007,16.145c-7.936,1.165-13.209-6.326-16.195-12.555c-4.078-8.508-6.187-17.973-7.799-27.218
				c-1.935-11.088-3.432-22.351-4.484-33.549c-0.537-5.713-0.721-11.446-0.574-17.182c0.041-1.654,0.138-3.269,0.141-4.904
				c4.539-8.615,11.88-11.601,20.977-6.968c10.188,5.189,15.09,16.183,18.5,26.459c3.994,12.042,5.818,24.814,6.613,37.441
				C368.996,267.067,367.984,274.513,365.345,281.753z"/>
		</g>
	</g>
	<g>
		<g>
			<path d="M429.288,193.114c-0.272-6.467-0.235-15.974-4.729-21.189c-6.124-7.108-18.638-6.349-24.692,0.445
				c-1.82,2.042-1.71,4.369-0.622,6.16c-1.583,0.921-2.755,2.57-2.729,4.894c0.293,26.881,12.693,52.011,12,79
				c-0.105,4.066,3.469,5.497,6.564,4.65c0.76,2.008,2.57,3.584,5.344,3.412c3.607-0.225,6.973-1.168,10.395-2.294
				c2.459-0.809,3.678-3.162,3.666-5.615C434.374,239.297,430.264,216.321,429.288,193.114z M419.576,259.515
				c-0.023,0.001-0.045,0.006-0.069,0.008c0.045-26.224-11.735-50.755-12.022-76.946c-0.008-0.769-0.15-1.438-0.387-2.022
				c0.357-0.252,0.706-0.555,1.035-0.924c1.795-2.016,5.254-2.08,7.58-1.042c1.117,0.499,1.407,3.598,1.617,4.797
				c1.082,6.194,1.141,12.604,1.181,18.875c0.06,9.437,1.95,19.041,2.958,28.424c1.006,9.384,1.758,18.791,1.979,28.223
				C422.194,259.211,420.923,259.431,419.576,259.515z"/>
		</g>
	</g>
	<g>
		<g>
			<path d="M432.46,280.479c-8.093-7.72-20.817,0.642-25.388,8.074c-1.725,2.804-0.524,5.342,1.624,6.667
				c-0.365,9.894,17.544,14.695,25.275,7.548C440.066,297.135,437.92,285.688,432.46,280.479z M426.422,294.853
				c-0.844,0.676-0.887,0.547-2.032,0.647c-0.499,0.043-0.657,0.076-0.7,0.093c-0.03-0.02-0.176-0.061-0.709-0.131
				c-0.277-0.037-1.731-0.414-1.744-0.37c-0.373-0.147-0.738-0.312-1.098-0.492c0.443-1.397,0.41-2.856-0.262-4.153
				c1.871-1.465,4.105-2.609,5.32-1.704c1.16,0.865,1.327,3.556,1.408,4.896c0.01,0.16-0.167,0.845-0.188,1.032
				C426.276,294.864,426.074,295.131,426.422,294.853z"/>
		</g>
	</g>
	<g>
		<g>
			<path d="M447.492,155.274c-1.068-9.676-15.057-17.381-22.812-21.034c-13.791-6.496-29.968-4.475-44.562-2.736
				c-18.403,2.193-36.812,4.712-55.255,6.542c-5.965,0.592-11.919,1.308-17.898,1.854c-5.518,0.504-11.636,0.891-16.525,3.738
				c-6.143,3.575,0.049,12.672,6.15,9.119c3.027-1.762,8.816-1.667,12.512-2.004c4.945-0.452,9.945-0.669,14.836-1.569
				c7.727-1.423,15.844-1.745,23.65-2.759c8.514-1.107,17.027-2.227,25.572-3.075c13.477-1.337,29.184-5.31,42.401-0.724
				c4.362,1.513,8.295,3.359,12.136,6.003c2.247,1.548,4.369,3.272,6.385,5.109c0.588,0.535,1.182,1.102,1.697,1.71
				c0.409,0.484,0.883,1.931,0.744,0.673C437.299,163.147,448.274,162.345,447.492,155.274z"/>
		</g>
	</g>
</g>
</svg>
