<?xml version="1.0" encoding="utf-8"?>
<!-- Generator: Adobe Illustrator 16.0.3, SVG Export Plug-In . SVG Version: 6.00 Build 0)  -->
<!DOCTYPE svg PUBLIC "-//W3C//DTD SVG 1.1//EN" "http://www.w3.org/Graphics/SVG/1.1/DTD/svg11.dtd">
<svg version="1.1" id="Layer_1" xmlns="http://www.w3.org/2000/svg" xmlns:xlink="http://www.w3.org/1999/xlink" x="0px" y="0px"
	 width="512px" height="512px" viewBox="0 0 512 512" enable-background="new 0 0 512 512" xml:space="preserve">
<g>
	<g>
		<g>
			<path fill="#FEBF10" d="M358.672,139.949c-0.449-2.67-1.346-5.277-2.785-7.77c-1.875,2.811-5.617,4.799-8.229,6.795
				c-2.775,2.121-3.344,2.771-5.451,4.635c-3.156,2.789-6.397,5.504-10.156,7.461c-18.493,9.625-41.161,9.125-61.463,8.666
				c-20.531-0.465-40.298-1.07-59.962-7.666c-16.105-5.404-30.768-13.818-45.054-22.855c0.636,2.459-0.276,5.117-3.494,5.869
				c-0.186,0.045-0.372,0.086-0.559,0.129c-0.166,3.705-0.024,7.373,0.02,10.457c0.041,2.869,0.123,5.736,0.171,8.605
				c0.043,2.605-0.151,1.877,1.939,4.539c2.938,3.744,6.31,7.135,10.055,10.082c7.994,6.289,17.395,10.941,27.073,14.033
				c21.061,6.729,43.368,8.689,65.367,9.24c10.47,0.264,20.981,0.426,31.453,0.188c10.768-0.242,21.77-1.125,31.555-6.035
				c12.493-6.271,27.23-22.299,29.542-38.047C356.158,146.312,356.418,142.187,358.672,139.949z"/>
		</g>
	</g>
	<g>
		<g>
			<path fill="#14B6B9" d="M303.981,269.113c-50.045,0.377-100.017-6.686-148.708-17.924c-25.271-5.832-51.469-10.883-75.689-20.289
				c-1.186-0.461-2.399-0.943-3.631-1.445c1.103,0.947,2.205,1.883,3.293,2.809c8.127,6.924,15.898,14.145,24.399,20.631
				c18.733,14.295,38.708,26.826,59.066,38.656c24.499,14.234,50.944,32.453,80.354,32.949c15.392,0.258,29.131-4.525,43.199-10.303
				c14.13-5.803,27.829-12.553,41.476-19.398c13.746-6.896,27.467-13.902,41.614-19.953c12.178-5.211,24.461-10.143,36.423-15.85
				c10.872-5.186,21.709-10.873,31.938-17.441C396.208,261.326,349.759,268.767,303.981,269.113z"/>
		</g>
	</g>
	<g>
		<g>
			<path fill="#FEBF10" d="M104.159,175.921c-4.689,2.01-8.523,6.02-10.031,10.805c3.565,0.486,8.01,0.418,11.367,0.016
				c3.022-0.361,10.947-1.738,11.447-4.396C118.138,175.998,108.806,173.931,104.159,175.921z"/>
		</g>
	</g>
	<g>
		<g>
			<path fill="#FEBF10" d="M295.25,402.193c-3.818-2.973-7.702-6.098-11.423-9.43c8.208,21.309,16.493,42.59,23.094,64.457
				c9.136-7.678,18.229-15.406,27.368-23.078C323.153,421.605,308.362,412.406,295.25,402.193z"/>
		</g>
	</g>
	<g>
		<g>
			<path fill="#FEBF10" d="M122.036,433.925c7.111,4.996,14.734,9.186,22.265,13.533c11.942-18.822,19.501-39.996,28.749-60.236
				C156.071,402.826,137.421,416.695,122.036,433.925z"/>
		</g>
	</g>
	<g>
		<g>
			<path fill="#14B6B9" d="M350.179,116.48c-1.042-3.023-2.128-6.033-3.33-8.996c-8.012-19.768-19.755-38.844-36.831-52.041
				c-16.956-13.105-37.951-18.678-59.205-15.852c-20.692,2.752-39.039,12.988-54.697,26.549
				c-13.718,11.879-28.783,29.137-28.518,48.4c0.269,0.814,0.33,1.691,0.122,2.572c0.011,0.119,0.013,0.238,0.023,0.357
				c0.007,0.055,0.005,0.107,0.009,0.164c13.863,8.873,28.096,17.551,43.646,23.145c17.243,6.205,34.684,7.42,52.836,7.857
				c18.652,0.449,40.207,2.15,57.902-5.006c6.692-2.707,11.18-7.336,16.706-11.709c1.854-1.467,3.742-2.889,5.634-4.307
				c0.428-0.322,0.856-0.645,1.285-0.965c0.363-0.479,0.83-0.924,1.422-1.316c0.48-0.318,0.956-0.664,1.467-0.934
				c1.144-0.602,2.616-0.879,4.009-0.736C352.265,121.304,350.889,118.535,350.179,116.48z"/>
		</g>
	</g>
	<g>
		<g>
			<path fill="#FEBF10" d="M205.671,212.115c-6.031-4.287-16.673,3.393-18.271,9.746c-0.041,0.162-0.092,0.314-0.143,0.467
				c4.996,2.662,12.25,4.844,17.012,0.768C206.95,220.798,208.876,214.394,205.671,212.115z"/>
		</g>
	</g>
	<g>
		<g>
			<path fill="#FEBF10" d="M251.112,444.982c-6.89-20.887-17.821-42.193-21.508-64.311c-3.669,12.809-5.643,26.197-7.422,39.264
				c-2.422,17.793-4.082,35.756-7.457,53.408c9.745,0.016,19.783-0.168,29.108-2.436c4.598-1.119,9.413-2.547,10.181-7.934
				C254.875,456.945,252.983,450.656,251.112,444.982z"/>
		</g>
	</g>
	<g>
		<g>
			<path fill="#FEBF10" d="M412.333,194.464c-0.891-2.574-2.525-4.469-5.047-5.572c-4.036-1.768-10.076-2.182-13.152,1.549
				c-0.904,1.098-1.96,1.676-3.033,1.867c2.598,0.877,5.186,2.178,7.604,2.969c3.623,1.186,9.891,3.73,13.434,2.41
				c0.21-0.078,0.324-0.088,0.385-0.076c0-0.066,0.016-0.174,0.084-0.369C412.796,196.699,412.571,195.156,412.333,194.464z"/>
		</g>
	</g>
	<g>
		<g>
			<path fill="#FEBF10" d="M323.87,222.076c-3.84-2.271-8.752-3.086-13.065-1.652c-4.308,1.434-6.073,3.557-5.319,7.965
				c0.021,0.125,0.031,0.246,0.045,0.367c0.361,0.273,0.709,0.594,1.03,0.98c3.555,4.266,13.126,11.359,18.069,5.133
				C327.476,231.283,328.515,224.822,323.87,222.076z"/>
		</g>
	</g>
	<g>
		<g>
			<path fill="#74CCCF" d="M471.278,189.087c-7.42-9.264-21.05-15.127-32.228-19.57c-22.222-8.834-46.043-15.037-69.756-18.965
				c-2.917,16.148-14.982,32.062-27.271,40.729c-18.473,13.025-40.786,12.24-62.398,12.062c-21.947-0.18-44.249-0.912-65.769-5.586
				c-20.099-4.367-41.319-12.189-55.298-28.014c-3.494-3.955-7.709-8.004-7.801-13.516c-0.082-5.012-0.289-10.025-0.185-15.037
				c0.024-1.152,0.052-2.332,0.091-3.527c-25.235,5.541-50.692,10.209-75.531,17.377c-11.73,3.385-27.1,6.438-34.912,16.822
				c-4.879,6.486-3.122,14.174,1.281,20.43c4.088,5.807,9.248,10.707,15.07,14.895c0.647,0.279,1.25,0.688,1.771,1.236
				c15.061,10.234,34.126,15.998,50.697,20.273c23.41,6.039,47.031,11.787,70.743,16.521
				c49.459,9.875,100.351,15.633,150.797,11.807c24.825-1.883,49.578-5.939,73.28-13.709c21.547-7.064,44.639-16.732,62.058-31.629
				c3.981-3.404,8.003-8.168,8.711-12.486C475.179,195.843,474.137,192.654,471.278,189.087z M91.204,197.228
				c-3.098,1.943-8.264,0.781-8.688-3.994c-0.027-0.307-0.021-0.613-0.037-0.92c-0.068-0.393-0.079-0.795-0.047-1.199
				c0.033-11.32,8.189-22.686,19.152-25.963c11.027-3.295,25.189,2.209,26.359,15.07
				C129.489,197.218,105.515,199.847,91.204,197.228z M211.265,231.49c-8.367,7.166-20.799,5.332-29.711,0.248
				c-2.605-1.486-3.223-4.127-2.602-6.4c-1.819-0.988-3.018-2.922-2.35-5.576c3.701-14.715,26.189-27.766,38.25-13.961
				C221.268,213.14,218.089,225.648,211.265,231.49z M329.415,245.246c-11.428,7.09-24.33-0.188-31.974-9.359
				c-0.957-1.148-1.3-2.324-1.213-3.416c-0.844-0.781-1.476-1.854-1.712-3.236c-3.57-20.857,27.025-26.246,38.686-13.469
				C340.79,224.082,339.303,239.111,329.415,245.246z M422.688,201.486c-2.876,8.225-12.951,8.082-19.926,6.373
				c-5.865-1.438-12.703-5.312-17.811-5.648c-7.066-0.467-4.881-11.26,2.098-10.799c0.089,0.006,0.18,0.027,0.269,0.035
				c-2.528-1.662-3.947-5.236-1.45-8.268C398.361,168.023,429.794,181.166,422.688,201.486z"/>
		</g>
	</g>
	<g>
		<g>
			<path fill="#010101" d="M472.373,175.011c-11.428-8.992-25.473-14.57-39.081-19.309c-14.749-5.135-29.864-9.172-45.11-12.535
				c-6.107-1.348-12.249-2.604-18.421-3.654c-0.594-5.404-2.479-10.648-6.019-15.461c0-0.016,0.001-0.029,0.001-0.045v-4.537
				c0-1.945-0.827-3.287-2.024-4.068c-0.858-2.275-1.821-4.49-2.529-6.447c-2.002-5.533-4.332-10.943-6.887-16.244
				c-4.759-9.867-10.456-19.23-17.303-27.791c-13.114-16.395-30.365-28.805-50.742-34.301
				c-42.478-11.457-87.206,12.33-112.821,45.641c-8.354,10.865-14.83,24.012-14.835,37.887c-2.573,3.523-4.01,7.711-4.836,12.084
				c-27.381,6.17-55.037,11.145-82.028,18.934c-18.912,5.459-48.889,15.846-42.791,41.438c2.96,12.42,12.266,22.084,23.335,29.568
				c5.39,10.242,14.084,17.867,22.842,25.328c10.494,8.941,20.69,17.943,31.868,26.072c24.173,17.574,50.212,31.988,75.933,47.09
				c24.623,14.459,52.978,24.955,81.805,19.08c14.57-2.971,28.733-9.539,42.199-15.697c13.957-6.383,27.578-13.482,41.326-20.297
				c45.237-22.43,97.854-36.77,132.139-76.223c2.01-2.312,1.611-4.977,0.136-6.828c2.897-3.506,5.186-7.396,6.516-11.764
				C488.442,191.785,480.621,181.5,472.373,175.011z M196.115,66.14c15.658-13.561,34.005-23.797,54.697-26.549
				c21.254-2.826,42.249,2.746,59.205,15.852c17.076,13.197,28.819,32.273,36.831,52.041c1.202,2.963,2.288,5.973,3.33,8.996
				c0.71,2.055,2.086,4.824,2.48,7.184c-1.393-0.143-2.865,0.135-4.009,0.736c-0.511,0.27-0.986,0.615-1.467,0.934
				c-0.592,0.393-1.059,0.838-1.422,1.316c-0.429,0.32-0.857,0.643-1.285,0.965c-1.892,1.418-3.779,2.84-5.634,4.307
				c-5.526,4.373-10.014,9.002-16.706,11.709c-17.695,7.156-39.25,5.455-57.902,5.006c-18.152-0.438-35.593-1.652-52.836-7.857
				c-15.551-5.594-29.783-14.271-43.646-23.145c-0.004-0.057-0.002-0.109-0.009-0.164c-0.011-0.119-0.013-0.238-0.023-0.357
				c0.208-0.881,0.146-1.758-0.122-2.572C167.332,95.277,182.397,78.019,196.115,66.14z M161.52,135.212
				c0.187-0.043,0.373-0.084,0.559-0.129c3.218-0.752,4.13-3.41,3.494-5.869c14.286,9.037,28.948,17.451,45.054,22.855
				c19.664,6.596,39.431,7.201,59.962,7.666c20.302,0.459,42.97,0.959,61.463-8.666c3.759-1.957,7-4.672,10.156-7.461
				c2.107-1.863,2.676-2.514,5.451-4.635c2.611-1.996,6.354-3.984,8.229-6.795c1.439,2.492,2.336,5.1,2.785,7.77
				c-2.254,2.238-2.514,6.363,0.022,8.326c-2.312,15.748-17.049,31.775-29.542,38.047c-9.785,4.91-20.787,5.793-31.555,6.035
				c-10.472,0.238-20.983,0.076-31.453-0.188c-21.999-0.551-44.307-2.512-65.367-9.24c-9.679-3.092-19.079-7.744-27.073-14.033
				c-3.745-2.947-7.116-6.338-10.055-10.082c-2.091-2.662-1.896-1.934-1.939-4.539c-0.048-2.869-0.13-5.736-0.171-8.605
				C161.495,142.585,161.354,138.917,161.52,135.212z M405.778,258.996c-11.962,5.707-24.245,10.639-36.423,15.85
				c-14.147,6.051-27.868,13.057-41.614,19.953c-13.646,6.846-27.346,13.596-41.476,19.398
				c-14.068,5.777-27.808,10.561-43.199,10.303c-29.41-0.496-55.855-18.715-80.354-32.949
				c-20.358-11.83-40.333-24.361-59.066-38.656c-8.501-6.486-16.272-13.707-24.399-20.631c-1.088-0.926-2.19-1.861-3.293-2.809
				c1.231,0.502,2.445,0.984,3.631,1.445c24.221,9.406,50.419,14.457,75.689,20.289c48.691,11.238,98.663,18.301,148.708,17.924
				c45.777-0.346,92.227-7.787,133.735-27.559C427.487,248.123,416.65,253.81,405.778,258.996z M474.63,199.201
				c-0.708,4.318-4.729,9.082-8.711,12.486c-17.419,14.896-40.511,24.564-62.058,31.629c-23.702,7.77-48.455,11.826-73.28,13.709
				c-50.446,3.826-101.338-1.932-150.797-11.807c-23.712-4.734-47.333-10.482-70.743-16.521
				c-16.571-4.275-35.637-10.039-50.697-20.273c-0.521-0.549-1.124-0.957-1.771-1.236c-5.822-4.188-10.982-9.088-15.07-14.895
				c-4.403-6.256-6.16-13.943-1.281-20.43c7.812-10.385,23.182-13.438,34.912-16.822c24.839-7.168,50.296-11.836,75.531-17.377
				c-0.039,1.195-0.066,2.375-0.091,3.527c-0.104,5.012,0.103,10.025,0.185,15.037c0.092,5.512,4.307,9.561,7.801,13.516
				c13.979,15.824,35.199,23.646,55.298,28.014c21.52,4.674,43.821,5.406,65.769,5.586c21.612,0.178,43.926,0.963,62.398-12.062
				c12.289-8.666,24.354-24.58,27.271-40.729c23.713,3.928,47.534,10.131,69.756,18.965c11.178,4.443,24.808,10.307,32.228,19.57
				C474.137,192.654,475.179,195.843,474.63,199.201z"/>
		</g>
	</g>
	<g>
		<g>
			<path fill="#010101" d="M127.944,180.222c-1.17-12.861-15.332-18.365-26.359-15.07c-10.963,3.277-19.119,14.643-19.152,25.963
				c-0.032,0.404-0.021,0.807,0.047,1.199c0.016,0.307,0.01,0.613,0.037,0.92c0.424,4.775,5.59,5.938,8.688,3.994
				C105.515,199.847,129.489,197.218,127.944,180.222z M116.942,182.345c-0.5,2.658-8.425,4.035-11.447,4.396
				c-3.357,0.402-7.802,0.471-11.367-0.016c1.508-4.785,5.342-8.795,10.031-10.805C108.806,173.931,118.138,175.998,116.942,182.345
				z"/>
		</g>
	</g>
	<g>
		<g>
			<path fill="#010101" d="M385.868,183.179c-2.497,3.031-1.078,6.605,1.45,8.268c-0.089-0.008-0.18-0.029-0.269-0.035
				c-6.979-0.461-9.164,10.332-2.098,10.799c5.107,0.336,11.945,4.211,17.811,5.648c6.975,1.709,17.05,1.852,19.926-6.373
				C429.794,181.166,398.361,168.023,385.868,183.179z M412.606,197.242c-0.068,0.195-0.084,0.303-0.084,0.369
				c-0.061-0.012-0.175-0.002-0.385,0.076c-3.543,1.32-9.811-1.225-13.434-2.41c-2.418-0.791-5.006-2.092-7.604-2.969
				c1.073-0.191,2.129-0.77,3.033-1.867c3.076-3.73,9.116-3.316,13.152-1.549c2.521,1.104,4.156,2.998,5.047,5.572
				C412.571,195.156,412.796,196.699,412.606,197.242z"/>
		</g>
	</g>
	<g>
		<g>
			<path fill="#010101" d="M333.202,215.765c-11.66-12.777-42.256-7.389-38.686,13.469c0.236,1.383,0.868,2.455,1.712,3.236
				c-0.087,1.092,0.256,2.268,1.213,3.416c7.644,9.172,20.546,16.449,31.974,9.359C339.303,239.111,340.79,224.082,333.202,215.765z
				 M324.63,234.869c-4.943,6.227-14.515-0.867-18.069-5.133c-0.321-0.387-0.669-0.707-1.03-0.98
				c-0.014-0.121-0.023-0.242-0.045-0.367c-0.754-4.408,1.012-6.531,5.319-7.965c4.313-1.434,9.226-0.619,13.065,1.652
				C328.515,224.822,327.476,231.283,324.63,234.869z"/>
		</g>
	</g>
	<g>
		<g>
			<path fill="#010101" d="M214.853,205.8c-12.061-13.805-34.549-0.754-38.25,13.961c-0.668,2.654,0.53,4.588,2.35,5.576
				c-0.621,2.273-0.004,4.914,2.602,6.4c8.912,5.084,21.344,6.918,29.711-0.248C218.089,225.648,221.268,213.14,214.853,205.8z
				 M204.269,223.095c-4.762,4.076-12.016,1.895-17.012-0.768c0.051-0.152,0.102-0.305,0.143-0.467
				c1.599-6.354,12.24-14.033,18.271-9.746C208.876,214.394,206.95,220.798,204.269,223.095z"/>
		</g>
	</g>
	<g>
		<g>
			<path fill="#010101" d="M207.632,346.679c-6.647-5.227-13.9,2.436-18.359,6.945c-6.002,6.072-11.121,12.938-16.986,19.129
				c-19.658,20.752-44.072,36.277-62.418,58.426c-1.828,2.207-1.906,5.875,0.502,7.764c10.324,8.096,21.947,14.111,33.184,20.795
				c1.906,1.135,5.289,0.605,6.58-1.297c10.684-15.74,18.354-32.967,25.816-50.398c7.35-17.17,14.672-34.725,26.184-49.602
				c0.577-0.746,0.925-1.521,1.094-2.293C208.003,356.667,212.28,350.333,207.632,346.679z M144.301,447.458
				c-7.53-4.348-15.153-8.537-22.265-13.533c15.385-17.23,34.035-31.1,51.014-46.703
				C163.802,407.462,156.243,428.636,144.301,447.458z"/>
		</g>
	</g>
	<g>
		<g>
			<path fill="#010101" d="M264.706,454.146c-2.176-14.797-9.211-28.916-14.39-42.811c-5.708-15.316-12.331-32.834-10.917-49.475
				c0.197-2.312-0.855-4.092-2.368-5.191c-1.754-3.588-7.669-4.975-9.958-0.307c-18.337,37.406-15.75,81.461-24.471,121.398
				c-0.811,3.705,2.354,6.535,5.822,6.535c12.637-0.002,25.57-0.025,37.965-2.768c5.68-1.256,11.122-3.346,14.834-8.051
				C265.497,468.062,265.663,460.664,264.706,454.146z M254.015,462.974c-0.768,5.387-5.583,6.814-10.181,7.934
				c-9.325,2.268-19.363,2.451-29.108,2.436c3.375-17.652,5.035-35.615,7.457-53.408c1.779-13.066,3.753-26.455,7.422-39.264
				c3.687,22.117,14.618,43.424,21.508,64.311C252.983,450.656,254.875,456.945,254.015,462.974z"/>
		</g>
	</g>
	<g>
		<g>
			<path fill="#010101" d="M346.561,431.736c-11.192-14.275-26.482-24.469-40.796-35.312c-12.965-9.82-27.934-21.053-32.572-37.432
				c-0.89-3.141-3.566-4.059-6.01-3.475c-3.664-0.598-7.996,2.535-6.373,7.113c12.543,35.381,27.844,69.797,38,106
				c0.897,3.199,5.621,4.947,8.268,2.74c12.715-10.609,25.283-21.393,38-32C347.243,437.562,348.544,434.265,346.561,431.736z
				 M306.921,457.22c-6.601-21.867-14.886-43.148-23.094-64.457c3.721,3.332,7.604,6.457,11.423,9.43
				c13.112,10.213,27.903,19.412,39.039,31.949C325.149,441.814,316.057,449.542,306.921,457.22z"/>
		</g>
	</g>
</g>
</svg>
