<?xml version="1.0" encoding="utf-8"?>
<!-- Generator: Adobe Illustrator 16.0.3, SVG Export Plug-In . SVG Version: 6.00 Build 0)  -->
<!DOCTYPE svg PUBLIC "-//W3C//DTD SVG 1.1//EN" "http://www.w3.org/Graphics/SVG/1.1/DTD/svg11.dtd">
<svg version="1.1" id="Layer_1" xmlns="http://www.w3.org/2000/svg" xmlns:xlink="http://www.w3.org/1999/xlink" x="0px" y="0px"
	 width="512px" height="512px" viewBox="0 0 512 512" enable-background="new 0 0 512 512" xml:space="preserve">
<g>
	<g>
		<g>
			<path fill="#3AB37C" d="M236.368,291.823c-3.527-5.525-11.397-7.486-17.489-8.26c-6.123-0.778-13.782-0.98-18.875,3.077
				c-0.084,0.067-0.169,0.121-0.253,0.182c0.474,4.082,2.188,8.246,2.899,12.155c1.115,6.134,2.798,12.124,3.677,18.306
				c0.105,0.022,0.209,0.038,0.316,0.065c3.811,0.981,8.181-0.066,11.988-0.69c4.208-0.69,8.454-1.431,12.104-3.807
				C238.139,308.032,241.466,299.808,236.368,291.823z"/>
		</g>
	</g>
	<g>
		<g>
			<path fill="#FEBF10" d="M461.29,387.096c-1.092-21.105,1.644-42.043,4.081-62.959c2.59-22.218,2.862-43.948,2.005-66.282
				c-0.424-11.042-0.712-22.071-0.753-33.122c-0.021-5.542-0.051-11.101-0.484-16.63c-0.153-1.952-0.422-3.91-0.645-5.868
				c-12.107,0.15-24.208,0.671-36.294,1.413c-31.921,1.956-63.678,4.888-95.687,5.26c-32.127,0.374-64.263-0.689-96.309-2.979
				c-32.13-2.295-63.962-5.641-96.215-5.943c-31.795-0.298-63.583,0.618-95.376,0.675c-0.034,79.424-1.431,158.838-1.487,238.264
				c24.839,2.681,49.751,4.698,74.695,6.082c65.039,3.607,130.199,3.637,195.317,3.214c32.372-0.21,64.745-0.527,97.119-0.534
				c9.965-0.002,19.814,1.662,29.714,2.598c6.536,0.619,16.136,2.255,23.121-0.059c-0.704-2.514,0.252-5.463,2.451-6.635
				c-0.172-8.625-0.633-17.245-1.539-25.827C463.925,407.527,461.821,397.38,461.29,387.096z M448.383,432.11
				c-4.795,0.015-9.588,0.131-14.379,0.329c-14.701,0.608-29.383,1.698-44.092,2.131c-15.518,0.457-31.057,0.092-46.571-0.347
				c-16.087-0.456-32.198-1.354-48.292-1.446c-15.974-0.092-31.857-2.215-47.84-1.976c-16.063,0.241-32.091,1.309-48.16,1.309h-50
				c-16.06,0-31.978-0.359-48.015-1.082c-7.842-0.354-15.692-0.252-23.541-0.252c-2.094,0-4.122-0.13-6.192-0.436
				c-0.763-0.113-1.526-0.229-2.292-0.325c-2.215,1.083-5.07,0.898-6.942-1.649c-0.271-0.368-0.486-0.754-0.661-1.151
				c-2.861-2.134-2.845-7.356,0.511-9.339c0.215-0.853,0.403-1.71,0.527-2.582c0.33-2.331,0.511-4.667,0.566-7.021
				c0.13-5.526-0.014-11.053-0.24-16.575c-0.643-15.651-0.029-31.332,0.371-46.985c0.526-20.544,0.217-41.14,1.167-61.667
				c0.456-9.853,1.345-19.674,1.648-29.531c0.148-4.852,0.004-9.626-0.148-14.469c-0.104-3.333-1.059-6.616-1.284-9.907
				c-0.029-0.243-0.05-0.494-0.05-0.759v-0.568c0-3.051,2.05-4.944,4.377-5.542c0.788-0.661,1.857-1.074,3.229-1.074h99.544
				c31.812,0,63.278-0.014,94.973,3.068c31.824,3.094,63.523,4.369,95.494,4.422c13.166,0.022,26.178,0.582,39.321,1.241
				c8.73,0.438,18.227,1.15,27.062-0.46c0.755-1.329,2.142-2.272,4.217-2.272h3.315c3.256-1.888,9.06,0.645,8.687,5.81
				c-0.294,4.073,0.638,8.135,1.067,12.163c0.438,4.095,0.281,8.202,0.616,12.304c0.645,7.868,2.527,15.463,2.319,23.394
				c-0.201,7.651,0.748,14.883,1.533,22.465c0.816,7.875,0.748,15.849,0.597,23.757c-0.314,16.338-1.467,32.69-1.01,49.035
				c0.449,16.06,2.856,32.008,2.963,48.076c0.001,0.122-0.007,0.246-0.013,0.369C454.14,427.783,452.825,432.096,448.383,432.11z"/>
		</g>
	</g>
	<g>
		<g>
			<path fill="#F6851F" d="M271.095,63.053c-4.491-1.714-10.476-3.338-15.088-1.277c-4.208,1.879-6.622,5.124-5.896,9.76
				c0.369,2.363-0.63,4.015-2.157,4.907c1.043,7.259,3.694,14.758,11.644,16.672c7.429,1.789,19.815,0.418,22.689-8.092
				C285.366,75.903,279.668,66.325,271.095,63.053z"/>
		</g>
	</g>
	<g>
		<g>
			<path fill="#3AB37C" d="M438.806,375.108c-0.236-16.986,0.994-33.938,1.098-50.917c0.051-8.438-0.18-16.746-1.281-25.117
				c-1.002-7.619-0.451-15.015-0.908-22.629c-0.476-7.917-2.484-15.59-2.557-23.578c-0.041-4.498-0.695-8.916-1.083-13.354
				c-8.32,2.022-17.215,1.961-25.662,1.656c-12.596-0.456-25.12-1.495-37.732-1.5c-15.951-0.008-31.907-0.042-47.852-0.554
				c-31.61-1.017-62.945-5.807-94.523-6.781c-31.836-0.982-63.813-0.164-95.666-0.164H75.902c0.382,2.62,0.885,5.254,1.016,7.867
				c0.269,5.381,0.012,10.734-0.094,16.115c-0.221,11.191-1.514,22.356-1.824,33.559c-0.626,22.591-0.727,45.212-1.225,67.81
				c-0.32,14.551,0.132,28.975,0.248,43.504c0.034,4.269,0.637,12.253-0.946,18.464c0.419,0.069,0.831,0.135,1.231,0.19
				c5.627,0.766,13.785-0.01,20.315,0.176c7.378,0.21,14.732,0.843,22.107,1.12c16.458,0.617,33.002,0.168,49.471,0.168
				c16.471,0,32.978,0.321,49.44-0.255c15.997-0.56,31.947-1.52,47.951-0.635c31.996,1.768,64.058,2.875,96.106,3.4
				c27.321,0.448,54.473-2.031,81.743-2.45c0.086-0.134,0.179-0.264,0.278-0.388C441.258,405.552,439.019,390.39,438.806,375.108z
				 M175.566,343.488c-8.852,19.59-33.926,29.512-52.209,16.44c-16.008-11.445-23.155-33.96-19.828-52.896
				c0.398-2.269,1.806-3.573,3.481-4.07c2.744-10.493,10.025-19.621,20.068-24.023c10.838-4.751,22.975-2.754,32.821,3.537
				c9.816,6.271,17.433,15.34,19.76,26.982C181.772,320.025,180.008,333.658,175.566,343.488z M237.982,321.257
				c-5.356,3.488-10.998,5.14-17.244,6.165c-4.001,0.656-8.328,1.521-12.488,1.279c0.545,2.771,1.111,5.542,1.625,8.354
				c0.733,4.019,0.111,8.553,0.737,12.642c0.696,0.794,1.135,1.884,1.135,3.294v1.333c0,6.2-8.302,8.196-10.677,2.242
				c-2.384-5.974-0.872-12.462-2.166-18.665c-1.446-6.935-2.571-13.741-3.684-20.73c-1.078-6.776-2.569-13.604-4.249-20.253
				c-1.284-5.086-2.484-9.946-2.109-15.22c0.233-3.269,2.668-4.555,5.168-4.306c7.817-6.086,20.038-6.093,29.284-4.247
				c10.115,2.02,19.968,6.498,24.247,16.473C252.546,301.236,248.661,314.306,237.982,321.257z M316.018,282.899
				c-15.756-0.022-31.505-0.544-47.26-0.637c2.111,8.192,3.27,16.575,4.003,25.004c0.135-0.003,0.269-0.009,0.41-0.003
				c13.161,0.537,26.189-1.879,39.334-2c7.066-0.065,7.938,10.905,0.847,10.97c-13.145,0.121-26.173,2.537-39.334,2
				c-0.144-0.006-0.28-0.023-0.418-0.038c0.4,4.735,0.871,9.527,0.809,14.22c-0.05,3.768-0.192,7.556,0.065,11.319
				c0.268,3.905-0.28,5.916,3.331,6.38c3.771,0.485,7.567,0.107,11.348-0.087c3.604-0.186,7.15,0.182,10.743,0.438
				c2.237,0.16,7.191,0.832,8.623-0.276c5.62-4.35,11.736,4.797,6.151,9.119c-6.492,5.025-17.159,1.253-24.671,1.689
				c-8.152,0.473-20.4,1.966-24.638-6.998c-2.037-4.309-1.998-9.731-1.992-14.397c0.007-5.324-0.191-10.539-0.513-15.859
				c-0.863-14.295-1.541-28.735-5.786-42.509c-0.921-2.985,0.581-5.361,2.727-6.506c0.512-1.928,2.05-3.468,4.708-3.464
				c16.892,0.024,33.775,0.642,50.666,0.667C322.229,271.939,323.107,282.909,316.018,282.899z M402.111,356.867
				c0,4.318-4.103,6.319-7.29,5.601c-2.333,2.213-6.156,2.737-8.088-0.768c-8.049-14.607-17.299-28.618-25.855-42.93
				c-3.505-5.862-7.02-11.726-10.413-17.656c0.321,9.501,0.862,19.013,1.646,28.42c0.753,9.024-0.626,18.164,0.323,27.173
				c0.244,0.614,0.374,1.33,0.344,2.16c-0.003,0.091-0.007,0.181-0.01,0.271c-0.133,3.707-3.979,7.819-7.933,5.351
				c-1.731-1.082-2.591-2.694-3.036-4.505c0,0-0.001,0-0.001,0.001v-0.007c-0.539-2.199-0.467-4.692-0.579-6.897
				c-0.328-6.435,0.499-12.88,0.153-19.317c-0.907-16.889-2.177-33.795-2.232-50.716c-0.013-3.982,3.47-5.996,6.515-5.725
				c3.223-0.971,6.768,1.708,7.116,4.957c0.058,0.122,0.123,0.265,0.209,0.459c0.492,1.11,0.8,1.702,0.906,1.907
				c1.469,2.819,3.019,5.595,4.594,8.356c4.617,8.097,9.396,16.102,14.199,24.09c6.045,10.053,12.428,19.966,18.384,30.096
				c-0.277-22.494-1.227-44.976-1.256-67.474c-0.009-7.06,10.962-7.937,10.971-0.847c0.031,25.234,1.217,50.45,1.317,75.683
				c0.005,0.106,0.016,0.208,0.016,0.317V356.867z"/>
		</g>
	</g>
	<g>
		<g>
			<path fill="#3AB37C" d="M153.785,291.606c-7.537-4.125-16.276-6.518-24.149-1.693c-7.512,4.603-12.069,11.718-12.643,20.55
				c-0.157,2.425-1.532,3.76-3.252,4.185c-0.532,12.815,4.435,26.95,14.3,35.038c12.764,10.464,31.581,3.809,37.671-11.093
				C172.478,322.036,170.876,300.962,153.785,291.606z"/>
		</g>
	</g>
	<g>
		<g>
			<path fill="#010101" d="M452.765,424.57c0.006-0.123,0.014-0.247,0.013-0.369c-0.106-16.068-2.514-32.016-2.963-48.076
				c-0.457-16.345,0.695-32.697,1.01-49.035c0.151-7.908,0.22-15.882-0.597-23.757c-0.785-7.583-1.734-14.814-1.533-22.465
				c0.208-7.931-1.675-15.526-2.319-23.394c-0.335-4.102-0.179-8.209-0.616-12.304c-0.43-4.028-1.361-8.09-1.067-12.163
				c0.373-5.165-5.431-7.698-8.687-5.81h-3.315c-2.075,0-3.462,0.943-4.217,2.272c-8.835,1.61-18.331,0.897-27.062,0.46
				c-13.144-0.659-26.155-1.219-39.321-1.241c-31.971-0.053-63.67-1.328-95.494-4.422c-31.694-3.082-63.161-3.068-94.973-3.068
				H72.079c-1.371,0-2.44,0.413-3.229,1.074c-2.327,0.597-4.377,2.491-4.377,5.542v0.568c0,0.266,0.021,0.516,0.05,0.759
				c0.226,3.291,1.18,6.574,1.284,9.907c0.152,4.843,0.297,9.617,0.148,14.469c-0.304,9.856-1.192,19.678-1.648,29.531
				c-0.95,20.526-0.641,41.123-1.167,61.667c-0.4,15.653-1.014,31.333-0.371,46.985c0.227,5.522,0.37,11.048,0.24,16.575
				c-0.056,2.353-0.236,4.689-0.566,7.021c-0.124,0.872-0.312,1.729-0.527,2.582c-3.355,1.983-3.372,7.205-0.511,9.339
				c0.175,0.396,0.391,0.783,0.661,1.151c1.872,2.547,4.728,2.731,6.942,1.649c0.766,0.095,1.529,0.212,2.292,0.325
				c2.07,0.306,4.099,0.436,6.192,0.436c7.849,0,15.699-0.102,23.541,0.252c16.037,0.722,31.955,1.082,48.015,1.082h50
				c16.069,0,32.097-1.068,48.16-1.309c15.982-0.239,31.866,1.884,47.84,1.976c16.094,0.093,32.205,0.991,48.292,1.446
				c15.515,0.439,31.054,0.804,46.571,0.347c14.709-0.433,29.391-1.522,44.092-2.131c4.791-0.198,9.584-0.314,14.379-0.329
				C452.825,432.096,454.14,427.783,452.765,424.57z M441.443,421.2c-27.271,0.418-54.422,2.898-81.743,2.45
				c-32.049-0.525-64.11-1.632-96.106-3.4c-16.004-0.884-31.954,0.076-47.951,0.635c-16.463,0.576-32.97,0.255-49.44,0.255
				c-16.469,0-33.013,0.449-49.471-0.168c-7.375-0.276-14.729-0.909-22.107-1.12c-6.53-0.186-14.688,0.59-20.315-0.176
				c-0.4-0.055-0.812-0.121-1.231-0.19c1.583-6.211,0.98-14.195,0.946-18.464c-0.116-14.529-0.568-28.953-0.248-43.504
				c0.498-22.598,0.599-45.219,1.225-67.81c0.311-11.203,1.604-22.368,1.824-33.559c0.105-5.381,0.362-10.733,0.094-16.115
				c-0.131-2.613-0.634-5.247-1.016-7.867h56.736c31.853,0,63.83-0.819,95.666,0.164c31.578,0.974,62.913,5.764,94.523,6.781
				c15.944,0.513,31.9,0.546,47.852,0.554c12.612,0.006,25.137,1.044,37.732,1.5c8.447,0.306,17.342,0.366,25.662-1.656
				c0.388,4.438,1.042,8.856,1.083,13.354c0.072,7.988,2.081,15.662,2.557,23.578c0.457,7.614-0.094,15.01,0.908,22.629
				c1.102,8.371,1.332,16.68,1.281,25.117c-0.104,16.98-1.334,33.932-1.098,50.917c0.213,15.282,2.452,30.444,2.916,45.704
				C441.622,420.936,441.529,421.065,441.443,421.2z"/>
		</g>
	</g>
	<g>
		<g>
			<path fill="#010101" d="M472.38,388.145c-1.651-21.933,1.718-43.854,4.215-65.587c2.443-21.27,2.64-42.227,1.826-63.6
				c-0.421-11.049-0.823-22.091-0.825-33.15c-0.001-5.574-0.064-11.143-0.366-16.709c-0.235-4.355-1.134-8.716-1.134-13.065
				c0-3.723-3.024-5.246-5.897-4.833c-0.004,0-0.007,0-0.011,0c-19.688,0.041-39.285,1.351-58.883,2.779
				c-0.156-0.573-0.412-1.164-0.786-1.763c-0.503-0.804-1.054-1.413-1.743-1.981c-18.999-21.618-41.341-39.514-62.276-59.188
				c-11.438-10.749-21.455-22.506-29.696-35.897c-3.299-5.36-6.322-10.54-10.517-15.286c-4.296-4.861-9.117-9.149-14.03-13.371
				c-0.77-0.661-1.577-1.052-2.381-1.235c-4.278-6.659-11.396-11.604-19.484-13.933c-7.581-2.184-14.708-1.864-21.672,1.874
				c-3.85,2.066-6.769,5.507-8.376,9.47c-1.107,0.423-2.068,1.328-2.645,2.843c-2.216,5.83-7.523,10.237-12.215,14.095
				c-5.603,4.607-11.594,8.858-17.46,13.12c-14.955,10.865-29.479,21.461-43.124,33.985c-13.676,12.552-27.032,25.453-41.22,37.434
				c-5.507,4.651-11.095,9.167-17.103,13.151c-3.885,2.577-9.271,5.272-11.546,9.547c-0.434,0.815-0.641,1.606-0.672,2.353
				c-2.947,0.037-5.894,0.075-8.84,0.114c-14.27,0.19-28.539,0.379-42.811,0.388c-3.468,0.002-5.025,2.628-4.89,5.31
				c-1.784,0.868-3.171,2.59-3.172,5.098c-0.019,81.499-1.5,162.986-1.5,244.488c0,3.916,3.347,5.396,6.343,4.752
				c0.337,0.102,0.698,0.181,1.093,0.224c64.52,7.031,129.441,9.225,194.308,9.704c32.545,0.24,65.093,0.029,97.638-0.204
				c16.2-0.116,32.4-0.239,48.601-0.322c13.317-0.068,26.906-0.92,40.173,0.4c9.423,0.938,18.786,2.221,28.251,2.714
				c7.977,0.416,17.21,0.434,24.134-4.131c1.567-1.033,2.283-2.429,2.39-3.853c0.955-1.131,1.523-2.639,1.52-4.13
				c-0.026-10.383-0.474-20.739-1.444-31.077C475.191,408.455,473.149,398.372,472.38,388.145z M250.11,71.536
				c-0.726-4.636,1.688-7.881,5.896-9.76c4.612-2.061,10.597-0.437,15.088,1.277c8.573,3.272,14.271,12.85,11.191,21.97
				c-2.874,8.51-15.261,9.88-22.689,8.092c-7.949-1.914-10.601-9.413-11.644-16.672C249.48,75.55,250.479,73.898,250.11,71.536z
				 M116.391,183.959c6.718-4.592,12.896-10.164,19.039-15.482c13.814-11.958,26.962-24.657,40.442-36.984
				c13.843-12.66,29.307-22.758,44.228-34.033c5.677-4.29,12.56-8.759,18.206-14.112c2.915,10.415,9.347,18.823,21.598,21.075
				c14.229,2.615,30.739-4.539,33.676-19.562c0.135-0.694,0.234-1.379,0.317-2.06c1.422,1.378,2.824,2.779,4.168,4.243
				c4.354,4.742,7.259,10.424,10.603,15.857c8.057,13.091,18.219,24.575,29.273,35.181c19.993,19.182,41.908,36.188,60.424,56.846
				c-7.736,0.562-15.476,1.104-23.223,1.554c-32.224,1.871-64.543,1.931-96.793,0.758c-32.171-1.169-64.076-4.9-96.18-6.834
				c-24.424-1.471-48.892-1.585-73.353-1.367C111.317,187.31,113.881,185.675,116.391,183.959z M461.29,387.096
				c0.531,10.285,2.635,20.432,3.716,30.669c0.906,8.582,1.367,17.201,1.539,25.827c-2.199,1.172-3.155,4.121-2.451,6.635
				c-6.985,2.313-16.585,0.677-23.121,0.059c-9.899-0.937-19.749-2.6-29.714-2.598c-32.374,0.006-64.747,0.324-97.119,0.534
				c-65.118,0.423-130.278,0.394-195.317-3.214c-24.944-1.384-49.856-3.4-74.695-6.082c0.057-79.426,1.453-158.84,1.487-238.264
				c31.793-0.058,63.581-0.973,95.376-0.675c32.253,0.302,64.085,3.648,96.215,5.943c32.046,2.29,64.182,3.352,96.309,2.979
				c32.009-0.372,63.766-3.304,95.687-5.26c12.086-0.741,24.187-1.262,36.294-1.413c0.223,1.958,0.491,3.917,0.645,5.868
				c0.434,5.529,0.464,11.088,0.484,16.63c0.041,11.051,0.329,22.079,0.753,33.122c0.857,22.334,0.585,44.063-2.005,66.282
				C462.934,345.053,460.198,365.991,461.29,387.096z"/>
		</g>
	</g>
	<g>
		<g>
			<path fill="#010101" d="M179.66,309.458c-2.327-11.642-9.943-20.71-19.76-26.982c-9.847-6.291-21.983-8.289-32.821-3.537
				c-10.043,4.402-17.324,13.53-20.068,24.023c-1.676,0.497-3.083,1.801-3.481,4.07c-3.327,18.936,3.82,41.451,19.828,52.896
				c18.283,13.072,43.357,3.15,52.209-16.44C180.008,333.658,181.772,320.025,179.66,309.458z M165.712,338.593
				c-6.09,14.902-24.907,21.558-37.671,11.093c-9.865-8.088-14.832-22.223-14.3-35.038c1.72-0.425,3.095-1.76,3.252-4.185
				c0.573-8.832,5.131-15.947,12.643-20.55c7.873-4.825,16.612-2.432,24.149,1.693C170.876,300.962,172.478,322.036,165.712,338.593
				z"/>
		</g>
	</g>
	<g>
		<g>
			<path fill="#010101" d="M247.562,289.619c-4.279-9.976-14.132-14.454-24.247-16.473c-9.246-1.846-21.467-1.839-29.284,4.247
				c-2.5-0.249-4.935,1.037-5.168,4.306c-0.375,5.273,0.825,10.133,2.109,15.22c1.68,6.649,3.171,13.477,4.249,20.253
				c1.112,6.989,2.237,13.795,3.684,20.73c1.294,6.203-0.218,12.691,2.166,18.665c2.375,5.954,10.677,3.958,10.677-2.242v-1.333
				c0-1.411-0.438-2.5-1.135-3.294c-0.626-4.089-0.004-8.623-0.737-12.642c-0.514-2.812-1.08-5.583-1.625-8.354
				c4.16,0.242,8.487-0.623,12.488-1.279c6.246-1.025,11.888-2.677,17.244-6.165C248.661,314.306,252.546,301.236,247.562,289.619z
				 M230.736,312.851c-3.65,2.376-7.896,3.117-12.104,3.807c-3.808,0.625-8.178,1.671-11.988,0.69
				c-0.107-0.028-0.211-0.043-0.316-0.065c-0.879-6.183-2.562-12.172-3.677-18.306c-0.711-3.909-2.426-8.074-2.899-12.155
				c0.084-0.061,0.169-0.115,0.253-0.182c5.093-4.058,12.752-3.855,18.875-3.077c6.092,0.774,13.962,2.735,17.489,8.26
				C241.466,299.808,238.139,308.032,230.736,312.851z"/>
		</g>
	</g>
	<g>
		<g>
			<path fill="#010101" d="M315.171,271.929c-16.891-0.024-33.774-0.643-50.666-0.667c-2.658-0.004-4.196,1.537-4.708,3.464
				c-2.146,1.145-3.647,3.521-2.727,6.506c4.245,13.774,4.923,28.213,5.786,42.509c0.321,5.321,0.52,10.535,0.513,15.859
				c-0.006,4.667-0.045,10.089,1.992,14.397c4.237,8.964,16.485,7.471,24.638,6.998c7.512-0.436,18.179,3.336,24.671-1.689
				c5.585-4.322-0.531-13.469-6.151-9.119c-1.432,1.108-6.386,0.436-8.623,0.276c-3.593-0.256-7.139-0.624-10.743-0.438
				c-3.78,0.194-7.577,0.572-11.348,0.087c-3.611-0.464-3.063-2.475-3.331-6.38c-0.258-3.763-0.115-7.551-0.065-11.319
				c0.062-4.693-0.408-9.485-0.809-14.22c0.138,0.015,0.274,0.032,0.418,0.038c13.161,0.537,26.189-1.879,39.334-2
				c7.091-0.065,6.22-11.035-0.847-10.97c-13.145,0.121-26.173,2.537-39.334,2c-0.142-0.006-0.275,0-0.41,0.003
				c-0.733-8.429-1.892-16.812-4.003-25.004c15.755,0.092,31.504,0.614,47.26,0.637
				C323.107,282.909,322.229,271.939,315.171,271.929z"/>
		</g>
	</g>
	<g>
		<g>
			<path fill="#010101" d="M402.096,354.55c-0.101-25.233-1.286-50.449-1.317-75.683c-0.009-7.09-10.979-6.213-10.971,0.847
				c0.029,22.498,0.979,44.98,1.256,67.474c-5.956-10.129-12.339-20.043-18.384-30.096c-4.803-7.988-9.582-15.993-14.199-24.09
				c-1.575-2.761-3.125-5.537-4.594-8.356c-0.106-0.205-0.414-0.796-0.906-1.907c-0.086-0.194-0.151-0.338-0.209-0.459
				c-0.349-3.248-3.894-5.927-7.116-4.957c-3.045-0.271-6.527,1.742-6.515,5.725c0.056,16.921,1.325,33.828,2.232,50.716
				c0.346,6.438-0.481,12.882-0.153,19.317c0.112,2.205,0.04,4.698,0.579,6.897v0.007c0,0,0.001,0,0.001,0
				c0.445,1.811,1.305,3.423,3.036,4.504c3.953,2.468,7.8-1.644,7.933-5.351c0.003-0.09,0.007-0.181,0.01-0.271
				c0.03-0.83-0.1-1.546-0.344-2.16c-0.949-9.009,0.43-18.148-0.323-27.173c-0.784-9.408-1.325-18.919-1.646-28.42
				c3.394,5.93,6.908,11.794,10.413,17.656c8.557,14.312,17.807,28.323,25.855,42.93c1.932,3.505,5.755,2.981,8.088,0.768
				c3.188,0.719,7.29-1.282,7.29-5.601v-2C402.111,354.758,402.101,354.656,402.096,354.55z"/>
		</g>
	</g>
</g>
</svg>
