<?xml version="1.0" encoding="utf-8"?>
<!-- Generator: Adobe Illustrator 16.0.3, SVG Export Plug-In . SVG Version: 6.00 Build 0)  -->
<!DOCTYPE svg PUBLIC "-//W3C//DTD SVG 1.1//EN" "http://www.w3.org/Graphics/SVG/1.1/DTD/svg11.dtd">
<svg version="1.1" id="Layer_1" xmlns="http://www.w3.org/2000/svg" xmlns:xlink="http://www.w3.org/1999/xlink" x="0px" y="0px"
	 width="512px" height="512px" viewBox="0 0 512 512" enable-background="new 0 0 512 512" xml:space="preserve">
<g>
	<g>
		<g>
			<path fill="#C56528" d="M445.564,343.678c-9.84-0.174-19.404-1.51-29.172-2.896c-10.609-1.505-22.084-3.197-32.256,1.125
				c-0.521,0.222-1.023,0.352-1.502,0.418c0.365,5.513,0.617,11.035,0.662,16.577c0.033,4.124-0.459,11.919,3.172,14.667
				c2.27,1.719,7.176,1.526,10.455,1.489c16.365-0.196,32.713-1.243,49.068-1.546c0.064-0.078,0.139-0.15,0.207-0.224
				C446.125,363.414,445.889,353.544,445.564,343.678z M417.455,361.828c-7.105,0-7.988-11.042-0.852-11.042
				C423.709,350.786,424.592,361.828,417.455,361.828z"/>
		</g>
	</g>
	<g>
		<g>
			<path fill="#C56528" d="M442.98,281.531c-9.34,4.344-20.441,3.607-30.41,2.52c-10.92-1.189-21.85-3.631-32.857-3.749
				c-0.691-0.008-1.32-0.119-1.891-0.315c0.193,5.325,0.449,10.646,0.803,15.965c0.773,11.699,2.078,23.341,3.115,35.005
				c19.865-7.668,42.844,1.228,63.434,1.69C444.518,315.605,443.674,298.57,442.98,281.531z M413.641,307.121
				c-0.301,0.342-0.672,0.664-1.08,0.943c-0.129,0.193-0.268,0.383-0.43,0.566c-0.949,1.077-2.303,1.757-3.732,1.867
				c-1.477,0.112-2.971-0.383-4.082-1.363c-1.008-0.887-1.867-2.35-1.865-3.732c0-0.808-0.021-1.641,0.119-2.432
				c0.162-0.912,0.701-2.326,1.43-2.971c1.082-0.954,1.119-1.108,2.457-1.658c0.518-0.213,1.098-0.291,1.648-0.362
				c0.316-0.041,0.633-0.033,0.949-0.034c1.533,0,2.902,0.322,4.08,1.362c1.08,0.947,1.758,2.302,1.869,3.732
				C415.115,304.519,414.619,306.01,413.641,307.121z"/>
		</g>
	</g>
	<g>
		<g>
			<path fill="#C56528" d="M441.738,235.061c-21.186,0.234-42.348,1.422-63.537,1.459c-0.328,0-0.641-0.029-0.943-0.075
				c0,10.98,0.025,21.97,0.264,32.951c0.41-0.091,0.855-0.141,1.338-0.136c10.523,0.113,20.881,2.114,31.297,3.396
				c9.521,1.173,20.207,2.605,29.199-1.591c1.18-0.551,2.262-0.649,3.205-0.432C442.137,258.78,441.82,246.924,441.738,235.061z
				 M415.15,260.318c-0.889,1.009-2.352,1.867-3.732,1.867c-0.809-0.001-1.641,0.021-2.432-0.121
				c-0.912-0.162-2.328-0.7-2.971-1.431c-0.955-1.08-1.109-1.117-1.658-2.455c-0.215-0.519-0.291-1.099-0.363-1.649
				c-0.041-0.312-0.031-0.633-0.031-0.948c-0.004-1.532,0.32-2.901,1.357-4.081c0.949-1.078,2.305-1.757,3.734-1.867
				c1.479-0.113,2.969,0.384,4.08,1.362c0.344,0.302,0.664,0.673,0.945,1.08c0.191,0.129,0.383,0.268,0.564,0.43
				c1.078,0.948,1.758,2.303,1.867,3.732C416.625,257.717,416.131,259.207,415.15,260.318z"/>
		</g>
	</g>
	<g>
		<g>
			<path fill="#C56528" d="M141.26,302.381c1.18-24.623,5.303-48.955,4.709-73.637c-10.918-0.706-21.748-2.914-32.582-4.246
				c-10.916-1.342-25.955-3.999-35.979,2.03c-1.797,1.081-3.602,1.044-5.102,0.366c0.23,26.416,3.033,52.744,2.998,79.165
				c-0.033,25.655-1.281,51.315-0.211,76.96c21.719,1.999,43.611-0.236,65.328-1.743
				C143.775,355.134,140.002,328.645,141.26,302.381z M122.256,305.61c-0.887,1.009-2.35,1.866-3.734,1.866h-1.51
				c-1.531,0-2.9-0.322-4.08-1.362c-1.076-0.947-1.756-2.302-1.867-3.733c-0.113-1.477,0.385-2.968,1.363-4.08
				c0.887-1.008,2.35-1.866,3.732-1.866h1.512c1.529,0,2.898,0.323,4.08,1.362c1.076,0.947,1.756,2.302,1.865,3.733
				C123.73,303.008,123.234,304.498,122.256,305.61z"/>
		</g>
	</g>
	<g>
		<g>
			<path fill="#C56528" d="M467.342,284.265c-0.088-15.129-1.232-30.19-1.521-45.294c-0.092-4.799-0.256-9.624-0.828-14.395
				c-0.227-1.894-0.41-3.842-0.953-5.68c-0.027-0.094-0.105-0.307-0.197-0.551c-2.207-0.621-3.652-2.836-3.826-5.141
				c-8.369-0.139-16.752,0.465-25.076,1.313c-15.352,1.565-30.709,3.896-46.174,3.884c-10.895-0.01-21.787-0.17-32.678-0.438
				c0.014,0.172,0.029,0.347,0.031,0.53c0.102,8.603,1.482,17.404-2.072,25.535c-0.693,1.585-2.738,3.133-4.533,3.058
				c-42.133-1.788-84.211-4.934-126.326-7.112c-10.064-0.521-20.166-0.945-30.189-2.057c-7.326-0.812-15.887-1.297-22.535-4.879
				c-5.896-3.176-10.174-8.437-10.887-15.271c-0.246-2.357-0.939-5.555-0.475-7.943c0.049-0.256,0.131-0.478,0.205-0.705
				c-34.705-0.892-69.418-1.211-104.17-1.272c-0.215,0.386-0.482,0.769-0.82,1.14c-0.311,0.344-0.986,1.822-1.361,3.83
				c-0.516,2.764-0.832,5.573-0.941,8.383c-0.297,7.629-0.053,15.274,0.346,22.897c0.795,15.268,1.797,30.34,1.814,45.638
				c0.029,26.424,0.18,52.862,1.412,79.262c0.277,5.975,0.473,11.943,0.916,17.91c0.246,3.352,0.498,6.707,0.908,10.041
				c0.066,0.541,0.15,1.082,0.227,1.622c15.98,3.788,32.965,1.912,49.176,1.053c18.449-0.978,36.979-0.563,55.453-0.53
				c-1.465-6.69-0.859-13.949-0.451-20.65c0.748-12.244,0.582-24.475,0.582-36.741v-90.649c0-4.289,4.025-6.307,7.211-5.665
				c0.807-1.071,2.102-1.792,3.922-1.792c17.938,0.001,35.873-0.009,53.809,0.238c16.945,0.232,34.387-0.266,51.225,1.784
				c8.213,1,16.363,2.385,24.543,3.616c8.188,1.232,16.301,1.707,24.529,2.436c8.754,0.777,17.34,0.983,26.115,0.983
				c5.021,0,6.93,5.516,5.1,8.751c-0.316,1.537-1.256,2.873-2.857,3.467c0.127,26.208,10.092,51.509,9.355,77.75
				c-0.293,10.411-1.355,20.794-1.383,31.215c-0.016,6.044-1.018,17.55,3.875,22.096c0.049,0.047,0.09,0.095,0.137,0.141
				c19.092-0.02,38.186-0.498,57.252-0.465c7.387,0.014,14.779,0.2,22.168,0.046c3.152-0.066,6.326-0.131,9.463-0.483
				c0.629-0.069,2.799-0.41,2.611-0.358c0.131-0.036,0.244-0.069,0.348-0.101c1.242-1.357,2.938-1.775,4.557-1.519
				C464.658,356.86,467.559,320.618,467.342,284.265z M150.705,387.559c-0.381,2.396-2.617,4.312-5.008,4.465
				c-25.615,1.633-51.346,4.462-76.971,1.423c-2.377-0.283-4.342-2.692-4.465-5.009c-1.436-27.173,0.076-54.342,0-81.527
				c-0.072-27.208-2.945-54.316-3.02-81.525c-0.012-4.545,4.496-6.538,7.756-5.522c0.365-0.948,1.078-1.825,2.221-2.513
				c11.4-6.859,26.074-5.708,38.764-4.354c13.572,1.446,27.227,4.806,40.902,4.933c2.953,0.027,5.787,1.893,5.947,5.096
				c1.395,27.693-3.861,54.839-4.699,82.418C151.299,332.811,155.031,360.349,150.705,387.559z M453.691,384.475
				c-0.24,0.001-0.477,0.009-0.717,0.011c-1.07,0.294-2.203,0.317-3.23,0.049c-18.309,0.292-36.598,1.977-54.92,1.56
				c-5.285-0.12-10.77-0.502-15.143-3.811c-4.508-3.409-6.344-9.137-6.98-14.545c-1.195-10.176-0.613-20.579-1.465-30.812
				c-0.953-11.456-2.393-22.871-3.248-34.334c-1.729-23.18-1.771-46.426-1.771-69.658c0-4.291,4.025-6.307,7.215-5.664
				c0.807-1.069,2.102-1.79,3.918-1.793c23.158-0.04,46.289-1.469,69.449-1.51c0.553,0,1.064,0.072,1.543,0.194
				c2.34,0.237,4.398,1.821,4.402,4.901c0.061,48.58,4.27,97.047,4.51,145.621c0.52,0.656,0.943,1.456,1.236,2.439
				C459.443,380.33,457.432,384.46,453.691,384.475z"/>
		</g>
	</g>
	<g>
		<g>
			<path fill="#BCBCBC" d="M474.857,179.075c-7.152,1.334-15.518-0.018-22.082,0.611c-14.557,1.396-28.729,1.624-43.318,0.869
				c-66.084-3.415-132.184-4.427-198.344-4.427c-32.891,0-65.938-0.934-98.795,0.619c-13.711,0.648-27.277,1.189-40.977,0.139
				c-6.094-0.469-12.221-1.02-18.34-0.864c-3.42,0.086-7.287,0.124-10.709,1.153c-0.605,0.789-1.451,1.416-2.557,1.744
				c-0.174,0.738-0.334,1.5-0.35,2.247c-0.059,2.459,0.057,4.916,0.336,7.36c0.318,2.77,0.734,5.528,1.27,8.264
				c13.896,0,27.791-0.001,41.686,0.044c33.084,0.109,66.174,0.432,99.236,1.655c32.967,1.223,65.891,3.393,98.824,5.216
				c33.051,1.832,66.133,3.433,99.238,3.627c30.273,0.179,60.436-7.271,90.674-4.578c0.883-0.867,2.033-1.435,3.318-1.435h2.57
				C474.941,194.152,474.811,186.504,474.857,179.075z"/>
		</g>
	</g>
	<g>
		<g>
			<path fill="#C56528" d="M345.076,219.345c-0.008-0.609,0.072-1.169,0.213-1.687c-2.045-0.064-4.094-0.122-6.141-0.194
				c-24.488-0.872-48.955-2.219-73.416-3.618c0.744,0.883,1.223,1.979,1.311,3.139c0.113,1.477-0.383,2.968-1.363,4.08
				c-0.887,1.008-2.348,1.866-3.732,1.866h-1.51c-1.531,0-2.9-0.322-4.082-1.362c-1.074-0.947-1.756-2.302-1.865-3.733
				c-0.113-1.478,0.383-2.968,1.363-4.08c0.137-0.155,0.291-0.305,0.451-0.45c-5.463-0.314-10.928-0.629-16.393-0.938
				c-22.785-1.292-45.562-2.229-68.342-2.905c0.064,1.489-0.369,3.023-1.434,4.219c0.24,3.499,1.145,7.229,4.27,8.913
				c5.148,2.771,11.27,3.345,16.988,4.028c17.377,2.078,35.039,2.764,52.518,3.555c33.76,1.529,67.457,4.188,101.219,5.703
				C346.23,230.578,345.139,224.573,345.076,219.345z"/>
		</g>
	</g>
	<g>
		<g>
			<path d="M488.68,203.502c-3.762-10.248-2.723-22.585-2.725-33.319c0-2.392-1.24-3.878-2.891-4.536
				c-1.584-1.176-3.707-1.375-5.727,0.372c-3.773,3.266-9.943,2.383-14.594,2.229c-7.291-0.241-14.488,0.797-21.758,1.349
				c-16.076,1.222-32.01-0.099-48.074-0.858c-33.088-1.565-66.203-2.587-99.324-3.158c-65.73-1.134-131.705-1.581-197.395,0.798
				c-11.498,0.417-22.697-0.538-34.156-1.147c-9.635-0.513-19.805-0.815-28.562,3.809c-1.078,0.569-1.783,1.31-2.189,2.126
				c-6.363,7.351-1.715,25.735,0.059,32.979c0.615,2.507,3.338,3.691,5.652,3.691h5.732c-0.854,2.879-1.174,5.984-1.426,8.803
				c-0.732,8.211-0.502,16.501-0.156,24.725c0.693,16.463,1.971,32.735,1.984,49.226c0.023,27.382,1.031,54.697,1.516,82.062
				c0.113,6.467,0.609,12.947,1.15,19.389c0.363,4.377-0.078,13.871,4.918,16.031c0.352,0.152,0.701,0.267,1.043,0.349
				c0.119,0.043,0.238,0.088,0.363,0.126c17.314,5.065,36.176,3.2,53.922,2.21c19.725-1.1,39.531-0.613,59.281-0.613
				c1.584,0,2.771-0.546,3.586-1.395c2.945-0.041,6.037-2.798,6.037-6.062v-3.021c0-2.065-0.928-3.455-2.244-4.221
				c-0.295-2.354-0.225-4.834-0.25-6.958c-0.057-4.76,0.332-9.522,0.635-14.27c0.797-12.395,0.35-24.889,0.35-37.304V254.56
				c0.303,0.045,0.615,0.076,0.945,0.076c17.271,0,34.543,0.009,51.814,0.213c17.285,0.204,35.008-0.219,52.184,1.871
				c8.195,0.998,16.334,2.437,24.494,3.665c8.141,1.226,16.207,1.582,24.385,2.307c5.932,0.525,11.807,0.781,17.705,0.902
				c-0.475,27.643,10.221,54.283,9.275,81.953c-0.373,10.938-1.451,21.836-1.297,32.793c0.121,8.713,0.77,19.571,7.586,25.908
				c1.059,0.982,2.195,1.42,3.297,1.467c0.945,0.854,2.221,1.405,3.805,1.405c20.898,0,41.801-0.593,62.678-0.453
				c7.982,0.054,15.979,0.238,23.953-0.186c4.35-0.231,10.777-0.407,13.738-4.209c3.215,0.746,7.381-1.267,7.389-5.63
				c0.076-41.665,3.561-83.18,2.867-124.876c-0.236-14.298-0.857-28.705-1.771-42.979c-0.225-3.488-0.684-10.528-2.781-15.666
				c0.385-0.216,0.742-0.468,1.061-0.761c0.02,0.001,0.039,0.003,0.059,0.003h4.979c1.914,1.605,4.422,2.147,6.75,0.578
				c1.812-1.223,2.939-3.932,2.318-6.134C489.146,205.834,489.129,204.72,488.68,203.502z M464.375,393.19
				c-1.619-0.257-3.314,0.161-4.557,1.519c-0.104,0.031-0.217,0.064-0.348,0.101c0.188-0.052-1.982,0.289-2.611,0.358
				c-3.137,0.353-6.311,0.417-9.463,0.483c-7.389,0.154-14.781-0.032-22.168-0.046c-19.066-0.033-38.16,0.445-57.252,0.465
				c-0.047-0.046-0.088-0.094-0.137-0.141c-4.893-4.546-3.891-16.052-3.875-22.096c0.027-10.421,1.09-20.804,1.383-31.215
				c0.736-26.241-9.229-51.542-9.355-77.75c1.602-0.594,2.541-1.93,2.857-3.467c1.83-3.235-0.078-8.751-5.1-8.751
				c-8.775,0-17.361-0.206-26.115-0.983c-8.229-0.729-16.342-1.203-24.529-2.436c-8.18-1.231-16.33-2.616-24.543-3.616
				c-16.838-2.05-34.279-1.552-51.225-1.784c-17.936-0.247-35.871-0.237-53.809-0.238c-1.82,0-3.115,0.721-3.922,1.792
				c-3.186-0.642-7.211,1.376-7.211,5.665V341.7c0,12.267,0.166,24.497-0.582,36.741c-0.408,6.701-1.014,13.96,0.451,20.65
				c-18.475-0.033-37.004-0.447-55.453,0.53c-16.211,0.859-33.195,2.735-49.176-1.053c-0.076-0.54-0.16-1.081-0.227-1.622
				c-0.41-3.334-0.662-6.689-0.908-10.041c-0.443-5.967-0.639-11.936-0.916-17.91c-1.232-26.399-1.383-52.838-1.412-79.262
				c-0.018-15.298-1.02-30.37-1.814-45.638c-0.398-7.623-0.643-15.269-0.346-22.897c0.109-2.81,0.426-5.619,0.941-8.383
				c0.375-2.008,1.051-3.486,1.361-3.83c0.338-0.371,0.605-0.754,0.82-1.14c34.752,0.062,69.465,0.381,104.17,1.272
				c-0.074,0.228-0.156,0.449-0.205,0.705c-0.465,2.389,0.229,5.586,0.475,7.943c0.713,6.835,4.99,12.096,10.887,15.271
				c6.648,3.582,15.209,4.066,22.535,4.879c10.023,1.111,20.125,1.535,30.189,2.057c42.115,2.179,84.193,5.324,126.326,7.112
				c1.795,0.075,3.84-1.473,4.533-3.058c3.555-8.131,2.174-16.933,2.072-25.535c-0.002-0.184-0.018-0.358-0.031-0.53
				c10.891,0.269,21.783,0.429,32.678,0.438c15.465,0.013,30.822-2.318,46.174-3.884c8.324-0.849,16.707-1.452,25.076-1.313
				c0.174,2.305,1.619,4.52,3.826,5.141c0.092,0.244,0.17,0.457,0.197,0.551c0.543,1.838,0.727,3.786,0.953,5.68
				c0.572,4.771,0.736,9.596,0.828,14.395c0.289,15.104,1.434,30.165,1.521,45.294C467.559,320.618,464.658,356.86,464.375,393.19z
				 M171.57,209.461c22.779,0.676,45.557,1.613,68.342,2.905c5.465,0.31,10.93,0.624,16.393,0.938
				c-0.16,0.146-0.314,0.295-0.451,0.45c-0.98,1.112-1.477,2.603-1.363,4.08c0.109,1.432,0.791,2.786,1.865,3.733
				c1.182,1.04,2.551,1.362,4.082,1.362h1.51c1.385,0,2.846-0.858,3.732-1.866c0.98-1.112,1.477-2.604,1.363-4.08
				c-0.088-1.159-0.566-2.256-1.311-3.139c24.461,1.399,48.928,2.746,73.416,3.618c2.047,0.072,4.096,0.13,6.141,0.194
				c-0.141,0.518-0.221,1.077-0.213,1.687c0.062,5.229,1.154,11.233,0.055,16.534c-33.762-1.515-67.459-4.174-101.219-5.703
				c-17.479-0.791-35.141-1.477-52.518-3.555c-5.719-0.684-11.84-1.257-16.988-4.028c-3.125-1.684-4.029-5.414-4.27-8.913
				C171.201,212.484,171.635,210.95,171.57,209.461z M473.969,201.32c-1.285,0-2.436,0.567-3.318,1.435
				c-30.238-2.692-60.4,4.757-90.674,4.578c-33.105-0.194-66.188-1.795-99.238-3.627c-32.934-1.823-65.857-3.993-98.824-5.216
				c-33.062-1.224-66.152-1.546-99.236-1.655c-13.895-0.045-27.789-0.044-41.686-0.044c-0.535-2.735-0.951-5.494-1.27-8.264
				c-0.279-2.444-0.395-4.901-0.336-7.36c0.016-0.747,0.176-1.509,0.35-2.247c1.105-0.328,1.951-0.955,2.557-1.744
				c3.422-1.029,7.289-1.067,10.709-1.153c6.119-0.155,12.246,0.396,18.34,0.864c13.699,1.051,27.266,0.51,40.977-0.139
				c32.857-1.553,65.904-0.619,98.795-0.619c66.16,0,132.26,1.012,198.344,4.427c14.59,0.755,28.762,0.526,43.318-0.869
				c6.564-0.629,14.93,0.723,22.082-0.611c-0.047,7.429,0.084,15.077,1.682,22.245H473.969z"/>
		</g>
	</g>
	<g>
		<g>
			<path d="M152.133,305.441c0.838-27.579,6.094-54.725,4.699-82.418c-0.16-3.203-2.994-5.068-5.947-5.096
				c-13.676-0.127-27.33-3.486-40.902-4.933c-12.689-1.354-27.363-2.505-38.764,4.354c-1.143,0.688-1.855,1.564-2.221,2.513
				c-3.26-1.016-7.768,0.978-7.756,5.522c0.074,27.209,2.947,54.317,3.02,81.525c0.076,27.186-1.436,54.354,0,81.527
				c0.123,2.316,2.088,4.726,4.465,5.009c25.625,3.039,51.355,0.21,76.971-1.423c2.391-0.152,4.627-2.068,5.008-4.465
				C155.031,360.349,151.299,332.811,152.133,305.441z M141.26,302.381c-1.258,26.264,2.516,52.753-0.838,78.896
				c-21.717,1.507-43.609,3.742-65.328,1.743c-1.07-25.645,0.178-51.305,0.211-76.96c0.035-26.421-2.768-52.749-2.998-79.165
				c1.5,0.678,3.305,0.715,5.102-0.366c10.023-6.029,25.062-3.372,35.979-2.03c10.834,1.332,21.664,3.54,32.582,4.246
				C146.562,253.426,142.439,277.758,141.26,302.381z"/>
		</g>
	</g>
	<g>
		<g>
			<path d="M123.617,301.53c-0.109-1.432-0.789-2.786-1.865-3.733c-1.182-1.039-2.551-1.362-4.08-1.362h-1.512
				c-1.383,0-2.846,0.858-3.732,1.866c-0.979,1.112-1.477,2.604-1.363,4.08c0.111,1.432,0.791,2.786,1.867,3.733
				c1.18,1.04,2.549,1.362,4.08,1.362h1.51c1.385,0,2.848-0.857,3.734-1.866C123.234,304.498,123.73,303.008,123.617,301.53z"/>
		</g>
	</g>
	<g>
		<g>
			<path d="M458.49,377.123c-0.293-0.983-0.717-1.783-1.236-2.439c-0.24-48.574-4.449-97.041-4.51-145.621
				c-0.004-3.08-2.062-4.664-4.402-4.901c-0.479-0.122-0.99-0.194-1.543-0.194c-23.16,0.041-46.291,1.47-69.449,1.51
				c-1.816,0.003-3.111,0.724-3.918,1.793c-3.189-0.643-7.215,1.373-7.215,5.664c0,23.232,0.043,46.479,1.771,69.658
				c0.855,11.463,2.295,22.878,3.248,34.334c0.852,10.233,0.27,20.637,1.465,30.812c0.637,5.408,2.473,11.136,6.98,14.545
				c4.373,3.309,9.857,3.69,15.143,3.811c18.322,0.417,36.611-1.268,54.92-1.56c1.027,0.269,2.16,0.245,3.23-0.049
				c0.24-0.002,0.477-0.01,0.717-0.011C457.432,384.46,459.443,380.33,458.49,377.123z M377.258,236.444
				c0.303,0.046,0.615,0.075,0.943,0.075c21.189-0.037,42.352-1.225,63.537-1.459c0.082,11.863,0.398,23.72,0.822,35.573
				c-0.943-0.218-2.025-0.119-3.205,0.432c-8.992,4.196-19.678,2.764-29.199,1.591c-10.416-1.282-20.773-3.283-31.297-3.396
				c-0.482-0.005-0.928,0.045-1.338,0.136C377.283,258.414,377.258,247.425,377.258,236.444z M378.625,295.951
				c-0.354-5.318-0.609-10.64-0.803-15.965c0.57,0.196,1.199,0.308,1.891,0.315c11.008,0.118,21.938,2.56,32.857,3.749
				c9.969,1.088,21.07,1.824,30.41-2.52c0.693,17.039,1.537,34.074,2.193,51.115c-20.59-0.463-43.568-9.358-63.434-1.69
				C380.703,319.292,379.398,307.65,378.625,295.951z M445.992,373.512c-16.355,0.303-32.703,1.35-49.068,1.546
				c-3.279,0.037-8.186,0.229-10.455-1.489c-3.631-2.748-3.139-10.543-3.172-14.667c-0.045-5.542-0.297-11.064-0.662-16.577
				c0.479-0.066,0.98-0.196,1.502-0.418c10.172-4.322,21.646-2.63,32.256-1.125c9.768,1.387,19.332,2.723,29.172,2.896
				c0.324,9.866,0.561,19.736,0.635,29.61C446.131,373.361,446.057,373.434,445.992,373.512z"/>
		</g>
	</g>
	<g>
		<g>
			<path d="M416.512,256.237c-0.109-1.43-0.789-2.784-1.867-3.732c-0.182-0.162-0.373-0.301-0.564-0.43
				c-0.281-0.407-0.602-0.778-0.945-1.08c-1.111-0.979-2.602-1.476-4.08-1.362c-1.43,0.11-2.785,0.789-3.734,1.867
				c-1.037,1.18-1.361,2.549-1.357,4.081c0,0.315-0.01,0.636,0.031,0.948c0.072,0.551,0.148,1.131,0.363,1.649
				c0.549,1.338,0.703,1.375,1.658,2.455c0.643,0.73,2.059,1.269,2.971,1.431c0.791,0.142,1.623,0.12,2.432,0.121
				c1.381,0,2.844-0.858,3.732-1.867C416.131,259.207,416.625,257.717,416.512,256.237z"/>
		</g>
	</g>
	<g>
		<g>
			<path d="M415.004,303.04c-0.111-1.431-0.789-2.785-1.869-3.732c-1.178-1.04-2.547-1.362-4.08-1.362
				c-0.316,0.001-0.633-0.007-0.949,0.034c-0.551,0.071-1.131,0.149-1.648,0.362c-1.338,0.55-1.375,0.704-2.457,1.658
				c-0.729,0.645-1.268,2.059-1.43,2.971c-0.141,0.791-0.119,1.624-0.119,2.432c-0.002,1.383,0.857,2.846,1.865,3.732
				c1.111,0.98,2.605,1.476,4.082,1.363c1.43-0.11,2.783-0.79,3.732-1.867c0.162-0.184,0.301-0.373,0.43-0.566
				c0.408-0.279,0.779-0.602,1.08-0.943C414.619,306.01,415.115,304.519,415.004,303.04z"/>
		</g>
	</g>
	<g>
		<g>
			<path d="M416.604,350.786c-7.137,0-6.254,11.042,0.852,11.042C424.592,361.828,423.709,350.786,416.604,350.786z"/>
		</g>
	</g>
</g>
</svg>
