<?xml version="1.0" encoding="utf-8"?>
<!-- Generator: Adobe Illustrator 16.0.3, SVG Export Plug-In . SVG Version: 6.00 Build 0)  -->
<!DOCTYPE svg PUBLIC "-//W3C//DTD SVG 1.1//EN" "http://www.w3.org/Graphics/SVG/1.1/DTD/svg11.dtd">
<svg version="1.1" id="Layer_1" xmlns="http://www.w3.org/2000/svg" xmlns:xlink="http://www.w3.org/1999/xlink" x="0px" y="0px"
	 width="512px" height="512px" viewBox="0 0 512 512" enable-background="new 0 0 512 512" xml:space="preserve">
<g>
	<g>
		<g>
			<path fill="#FEBF10" d="M397.756,148.521h-0.143c0.156,0.09,0.314,0.172,0.477,0.246
				C398.525,148.849,398.559,148.63,397.756,148.521z"/>
		</g>
	</g>
	<g>
		<g>
			<path fill="#FEBF10" d="M365.461,217.439c-1.477-0.296-3.654-1.248-4.776,0.089c-0.188,0.226-0.362,0.462-0.548,0.69
				c1.256,1.109,2.044,2.769,1.773,4.871c-0.572,4.449,11.953,5,12.457-0.814C374.596,219.627,367.465,217.844,365.461,217.439z"/>
		</g>
	</g>
	<g>
		<g>
			<path fill="#FEBF10" d="M397.576,148.5c-0.035-0.003-0.061-0.008-0.098-0.011c0.033,0.001,0.057,0.003,0.084,0.005
				c-0.925-0.555-1.719-1.416-2.242-2.635c0.662,1.541,1.496,2.306,2.129,2.659c0.062,0.001,0.115,0.002,0.164,0.003
				C397.602,148.514,397.588,148.508,397.576,148.5z"/>
		</g>
	</g>
	<g>
		<g>
			<path fill="#FEBF10" d="M153.619,158.205c-2.609-5.826-11.439-4.091-13.281,1.205c2.926,1.393,6.172,2.229,9.359,2.49
				c1.257,0.102,3.108,0.217,4.303-0.491c0.084-0.184,0.188-0.497,0.143-0.903C154.047,159.646,153.975,158.999,153.619,158.205z"/>
		</g>
	</g>
	<g>
		<g>
			<path fill="#14B6B9" d="M276.9,137.758c-7.66-3.529-16.604-3.656-24.891-3.807c-9.311-0.17-18.299-1.115-27.553-2.115
				c-22.195-2.4-44.129-4.639-65.598-11.106c-10.198-3.071-20.004-6.936-29.938-10.745c-9.055-3.475-18.391-6.654-28.111-7.327
				c-3.83,19.392-7.828,38.752-11.59,58.156c2.563,0.06,5.211,1.612,5.775,4.804c-0.383-2.161,0.529,0.894,0.75,1.412
				c0.654,1.539,1.322,3.071,2,4.6c1.555,3.508,3.141,7.002,4.662,10.523c4.111,9.525,8.363,18.965,11.758,28.782
				c3.078,8.903,4.99,17.773,7.25,26.861c0.586,2.36,1.164,6.247,3.146,7.942c1.971,1.686,5.314-0.233,7.314-1.047
				c10.438-4.246,19.689-10.775,29.924-15.434c7.048-3.209,12.673-4.893,20.139-2.448c2.564,0.837,7.584,3.075,12.157,6.03
				c-0.425-4.413-1.014-8.788-2.089-13.012c-2.047-8.035-4.34-16.144-1.424-24.234c0.207-0.572,0.471-1.054,0.775-1.461
				c-0.033-1.278,0.4-2.576,1.5-3.748c2.132-2.268,5.256-3.236,8.178-4.045c8.633-2.387,17.4-4.289,26.162-6.128
				c14.057-2.951,28.221-5.501,42.023-9.515c0.387-0.112,0.771-0.23,1.158-0.344c0.217-1.814,1.237-3.555,3.312-4.503
				c4.413-2.021,5.843-10.575,6.327-14.701C280.48,147.219,281.289,139.78,276.9,137.758z M155.799,172.351
				c-7.303,1.681-16.438-0.411-22.734-4.382c-0.518-0.325-0.949-0.702-1.311-1.109c-1.523-0.707-2.665-2.152-2.729-4.395
				c-0.242-8.674,4.691-16.164,13.385-18.137c7.75-1.757,16.619,0.936,20.605,8.191
				C167.195,160.128,164.996,170.232,155.799,172.351z"/>
		</g>
	</g>
	<g>
		<g>
			<path fill="#D6E5E5" d="M474.881,374.174c-0.262-0.285-0.474-0.582-0.664-0.883c-0.084-3.09-0.921-5.973-2.057-8.776
				c-0.297-2.762-1.141-5.397-2.43-7.957c-4.275-14.78-5.465-30.357-9.346-45.267c-5.181-19.904-10.037-39.893-15.393-59.752
				c-5.346-19.828-11.379-39.395-18.08-58.807c-3.403-9.857-7-19.676-11.377-29.148c-1.706-3.689-3.178-7.447-4.846-11.135
				c-1.332-2.947-2.422-4.539-5.755-3.924c-0.575,0.106-1.103,0.122-1.593,0.075c-1.588,0.787-3.574,0.931-5.252,0.167
				c-0.164-0.031-0.385-0.106-0.641-0.249c-0.061-0.001-0.121-0.001-0.195-0.002c-0.967,0.03-1.934,0.085-2.895,0.192
				c-2.814,0.313-5.608,0.773-8.385,1.32c-5.994,1.179-11.941,2.633-17.836,4.232c-17.945,4.869-36.022,9.145-53.867,14.441
				c-22.363,6.639-44.48,13.799-67.337,18.563c-10.983,2.29-22.209,4.1-33.024,7.095c-2.422,0.671-4.881,1.194-7.309,1.84
				c-1.492,0.396-2.999,0.785-4.455,1.303c-0.344,0.824-0.848,1.559-1.473,2.128c-0.059,0.282-0.131,0.567-0.236,0.856
				c-2.555,7.091,2.916,16.036,3.559,23.129c0.943,10.42,1.807,20.867,3.4,31.213c3.392,22.002,5.389,44.09,9.881,65.943
				c4.535,22.06,9.943,44.152,16.25,65.772c3.165,10.851,7.115,21.16,11.223,31.671c1.969,5.039,4.146,10.518,5.594,16.076
				c0.293,1.746,0.645,3.498,1.106,5.186c0.144,0.885,0.267,1.77,0.355,2.651c0.052,0.196,0.091,0.405,0.122,0.618
				c0.23,0.04,0.453,0.089,0.67,0.144c1.595,3.855,4.1,6.987,8.328,8.271c0.579,0.176,1.12,0.082,1.571-0.168
				c3.321,0.588,7.104,0.137,9.978-0.315c7.941-1.251,15.59-3.933,23.125-6.661c22.832-8.268,45.809-15.865,68.942-23.227
				c26.489-8.428,52.921-17.173,78.696-27.617C446.227,391.963,479.162,378.854,474.881,374.174z M422.869,342.133
				c-17.969,9.415-37.825,16.362-57.361,21.672c-10.826,2.942-21.837,4.943-32.723,7.617c-11.174,2.742-22.153,6.202-33.303,9.008
				c-11.877,2.99-28.527,11.101-40.418,4.539c-0.229-0.125-0.436-0.262-0.634-0.404c-2.685,1.423-6.599,0.936-8.11-2.705
				c-12.181-29.32-14.459-61.267-20.803-92.075c-3.359-16.316-6.195-33.098-10.816-49.103c-1.625-5.625-3.248-11.288-5.16-16.827
				c-0.139-2.52-0.301-5.044-0.262-7.558c0.234-1.715,0.598-3.432,1.145-5.168c0.596-1.894,1.607-3.531,2.631-5.156
				c0.32-0.184,0.668-0.333,1.016-0.482c0.5-0.193,1.003-0.375,1.51-0.546c2.775-0.825,6.01-1.094,8.617-2.116
				c3.363-0.639,6.749-1.205,10.014-2.116c7.043-1.966,13.809-4.865,20.747-7.17c1.388-0.342,2.78-0.665,4.179-0.964
				c14.559-3.105,29.414-4.625,44.045-7.35c29.686-5.531,56.72-18.85,85.511-27.378c2.03-0.603,3.775-0.093,5.049,0.966
				c1.413-0.27,2.96-0.001,4.401,1.092c4.523,3.432,6.693,8.463,7.93,13.869c1.365,5.967,2.988,11.875,4.473,17.813
				c3.41,13.642,7.258,27.179,10.574,40.837c3.252,13.396,5.879,26.927,8.525,40.451c1.982,10.13,3.68,20.357,6.04,30.414
				c-0.194,6.719,0.021,13.438,0.101,20.159c-0.012,0.582,0.008,1.166,0.014,1.749C437.332,332.275,429.895,338.451,422.869,342.133
				z"/>
		</g>
	</g>
	<g>
		<g>
			<path fill="#3AB37C" d="M196.613,257.773c0.336-3.869-0.505-7.67-3.359-10.726c-0.658-0.704-1.393-1.286-2.18-1.769
				c0.035-0.396,0.117-0.791,0.252-1.176c-0.734-0.654-1.49-1.281-2.307-1.837c-2.385-1.627-5.078-2.972-7.75-4.056
				c-1.918-0.779-4.535-1.951-6.545-1.893c-2.684,0.079-7.593,2.448-10.754,4.023c-9.545,4.756-18.441,10.938-28.455,14.732
				c-6.432,2.436-13.465,3.848-18.783-1.66c-4.76-4.929-5.861-12.307-7.131-18.75c-1.818-9.244-4.979-18.264-8.359-27.043
				c-3.365-8.736-7.183-17.293-10.985-25.847c-1.087-2.446-2.421-4.969-3.597-7.546c-0.668,3.57-1.324,7.144-1.966,10.719
				c-2.656,14.803-4.956,29.662-7.458,44.488c-1.127,6.679-2.778,13.087-4.326,19.654c-1.283,5.443-3.832,11.312-3.766,16.967
				c0.072,6.223,2.596,9.745,8.227,12.117c4.381,1.846,9.012,2.893,13.652,3.854c11.303,2.339,22.182,5.688,32.912,9.979
				c13.715,5.485,26.646,11.817,41.088,15.304c13.166,3.178,26.529,5.51,39.537,9.333c0.295,0.085,0.567,0.194,0.828,0.313
				C201.627,297.354,199.102,277.564,196.613,257.773z"/>
		</g>
	</g>
	<g>
		<g>
			<path fill="#D6E5E5" d="M297.117,120.936c-5.01-0.555-10.305,0.061-15.23-1.146c-5.559-1.362-11.166-2.629-16.738-3.975
				c-11.787-2.846-23.715-5.272-35.605-7.682C182,98.504,135.811,81.793,87.372,76.973c-0.671,0.348-1.479,0.553-2.438,0.553h-0.229
				c-10.848,38.112-15.199,77.521-22.399,116.424c-2.94,15.881-6.149,31.711-9.322,47.547c-3.144,15.689-6.017,31.422-10.345,46.844
				c-2.131,7.601-4.719,15.063-6.82,22.668c-1.469,5.312-3.281,11.117-2.671,16.694c1.362,12.469,15.723,17.427,26.091,20.581
				c12.25,3.725,24.656,6.946,36.731,11.238c7.297,2.594,14.485,5.482,21.534,8.689c6.578,2.992,12.955,6.574,19.797,8.926
				c14.684,5.049,30.17,7.13,45.525,8.943c7.922,0.937,15.862,1.799,23.746,3.033c3.674,0.574,7.348,1.179,10.99,1.936
				c1.836,0.381,3.674,0.761,5.498,1.199c0.199,0.048,0.471,0.138,0.769,0.242c-0.78-2.607-1.534-5.229-2.262-7.865
				c-5.316-19.25-10.253-38.744-14.317-58.33c-1.074,1.166-2.707,1.756-4.789,1.145c-14.203-4.173-28.85-6.44-43.144-10.243
				c-14.687-3.907-27.952-10.618-42.075-16.041c-6.492-2.493-13.102-4.968-19.891-6.539c-4.943-1.144-9.965-1.962-14.873-3.259
				c-10.342-2.733-20.752-7.072-23.616-18.41c-3.157-12.495,4.062-26.131,6.29-38.259c2.809-15.288,5.001-30.675,7.701-45.982
				c5.531-31.345,12.152-62.479,18.259-93.714c0.868-4.442,5.575-5.191,8.519-3.346c23.861,1.236,45.479,14.201,68.295,20.264
				c12.465,3.312,25.078,5.456,37.887,6.915c12.227,1.394,24.828,3.64,37.117,3.989c9.903,0.28,20.256-0.26,29.959,2.079
				c7.621,1.835,15.277,4.905,17.268,13.271c1.884,7.911,1.473,18.674-2.402,27.023c3.488-1.051,6.977-2.104,10.465-3.154
				c-0.234-0.357-0.426-0.739-0.58-1.135c0.189-0.213,0.363-0.459,0.494-0.772c0.316-0.765,0.599-1.536,0.863-2.312
				c0.564-1.272,0.963-2.599,1.275-3.957c0.281-0.097,0.573-0.178,0.893-0.227C304.262,142.367,311.109,122.484,297.117,120.936z"/>
		</g>
	</g>
	<g>
		<g>
			<path fill="#3AB37C" d="M430.133,309.956c-0.082-0.241-0.197-0.446-0.332-0.628c0.013-0.01,0.023-0.021,0.037-0.031
				c-3.541-13.832-6.009-27.944-8.607-42.024c-18.725,7.262-32.906,24.767-41.793,42.216c-1.358,2.669-4.668,3.822-7.373,2.48
				c-8.9-4.418-18.004-8.463-27.416-11.666c-7.84-2.668-16.756-6.468-24.773-2.46c-8.906,4.452-16.588,12.815-24.145,19.339
				c-8.571,7.398-17.121,14.825-25.611,22.318c-3.6,3.176-7.199,6.354-10.748,9.588c-1.164,1.061-2.332,2.119-3.461,3.217
				c-0.477,0.463-0.732,0.904-0.804,1.037c0.044-0.094,0.157-0.354,0.331-0.854c-0.494,1.416-1.328,2.303-2.311,2.768
				c1.736,6.629,3.766,13.182,6.256,19.613c1.295-0.635,2.883-0.689,4.576,0.244c4.812,2.657,12.153,0.373,17.096-0.929
				c5.865-1.546,11.716-3.216,17.547-4.88c18.602-5.309,37.403-9.267,56.129-14.008c17.756-4.497,35.229-10.33,51.973-17.777
				c3.677-1.635,24.589-10.054,23.297-17.21c0.311-0.259,0.543-0.644,0.633-1.184C431.153,315.984,431.153,312.998,430.133,309.956z
				"/>
		</g>
	</g>
	<g>
		<g>
			<path fill="#14B6B9" d="M415.18,237.896c-3.156-13.008-6.822-25.889-10.07-38.879c-1.578-6.314-3.368-12.607-4.814-18.949
				c-0.961-4.222-1.576-8.633-4.971-11.527c-28.729,8.631-55.769,21.783-85.436,27.311c-15.457,2.879-31.424,4.083-46.67,7.945
				c-13.814,3.5-27.352,8.465-41.637,9.668c0.219,0.688,0.436,1.375,0.676,2.054c0.664,1.868,1.43,3.671,2.008,5.567
				c2.299,7.554,4.785,15.08,6.643,22.76c3.753,15.522,6.854,31.344,9.969,47.012c3.41,17.164,5.676,34.641,9.287,51.772
				c0.341-0.279,0.667-0.554,0.943-0.804c3.799-3.451,7.643-6.855,11.496-10.248c9.363-8.248,18.771-16.447,28.225-24.593
				c2.932-2.526,5.879-5.03,8.832-7.53c5.918-5.016,12.203-11.252,19.945-13.284c9.83-2.58,18.893,0.519,28.221,3.693
				c8.317,2.831,16.404,6.184,24.334,9.931c9.443-16.773,23.189-32.436,40.627-40.814c0.732-1.409,2.146-2.424,4.301-2.424h2
				c0.041,0,0.078,0.01,0.119,0.01C417.986,250.312,416.682,244.078,415.18,237.896z M384.5,226.77
				c-5.191,15.492-32.156,13.365-33.473-2.472c-3.193-1.2-5.48-5.396-2.648-8.888c2.531-3.12,4.811-7.164,8.797-8.627
				c4.34-1.594,9.107-0.657,13.371,0.748C379.305,210.418,388.045,216.193,384.5,226.77z"/>
		</g>
	</g>
	<g>
		<g>
			<path d="M397.613,148.521c-0.049-0.001-0.102-0.002-0.164-0.003c0.256,0.143,0.477,0.218,0.641,0.249
				C397.928,148.693,397.77,148.611,397.613,148.521z"/>
		</g>
	</g>
	<g>
		<g>
			<path d="M483.684,367.635c-0.072-0.084-0.149-0.164-0.223-0.248c0.628-1.332,0.789-2.87,0.242-4.164
				c-7.904-18.68-8.805-39.631-13.865-59.147c-5.638-21.745-10.943-43.574-16.934-65.225c-5.783-20.899-12.387-41.617-19.973-61.933
				c-3.564-9.547-8.01-18.699-11.859-28.107c-2.932-7.167-8.753-12.776-16.984-11.254c-0.834,0.154-1.553,0.452-2.164,0.852
				c-2.969-1.285-6.834-0.879-10.086-0.471c-7.326,0.919-14.588,2.706-21.742,4.486c-19.683,4.9-39.334,9.994-58.803,15.713
				c2.885-13.795,10.44-31.486-0.775-43.05c-7.183-7.404-19.004-4.25-27.957-6.443c-13.061-3.202-26.227-6.17-39.395-8.948
				c-13.27-2.801-26.607-5.258-39.764-8.576c-13.039-3.288-26.004-6.864-39.017-10.254c-25.663-6.685-51.592-12.64-78.05-14.979
				c-2.309-3.031-8.683-2.878-10.224,2.106c-9.415,30.438-14.517,61.889-19.423,93.303c-4.973,31.843-11.658,63.354-17.853,94.972
				c-3.108,15.864-7.107,31.474-12.104,46.851c-3.568,10.977-7.275,23.839-2.025,34.869c5.162,10.844,17.506,16.149,28.238,19.739
				c12.031,4.022,24.393,6.995,36.418,11.057c11.278,3.81,22.191,8.638,32.898,13.818c11.078,5.357,22.805,8.634,34.882,10.909
				c12.019,2.265,24.228,3.395,36.354,4.893c6.124,0.758,12.227,1.646,18.301,2.736c3.742,0.672,7.791,2.119,11.723,2.887
				c0.701,0.316,1.504,0.5,2.413,0.5h1.769c1.426,4.116,2.954,8.2,4.617,12.256c2.951,7.201,6.612,15.213,8.062,23.218
				c2.834,4.833,5.359,9.837,7.904,14.834c10.162,12.616,31.785,6.141,45.197,1.602c25.523-8.642,50.836-17.668,76.523-25.842
				c15.105-4.806,30.162-9.763,45.105-15.048c14.354-5.076,28.279-11.52,42.646-16.461
				C468.471,395.402,494.818,382.46,483.684,367.635z M223.061,392.248c-1.824-0.438-3.662-0.818-5.498-1.199
				c-3.643-0.757-7.316-1.361-10.99-1.936c-7.884-1.234-15.824-2.097-23.746-3.033c-15.355-1.813-30.842-3.895-45.525-8.943
				c-6.842-2.352-13.219-5.934-19.797-8.926c-7.049-3.207-14.237-6.096-21.534-8.689c-12.075-4.292-24.481-7.514-36.731-11.238
				c-10.368-3.154-24.729-8.112-26.091-20.581c-0.61-5.577,1.202-11.382,2.671-16.694c2.102-7.604,4.689-15.067,6.82-22.668
				c4.328-15.422,7.201-31.154,10.345-46.844c3.173-15.836,6.382-31.666,9.322-47.547c7.2-38.902,11.552-78.312,22.399-116.424
				h0.229c0.958,0,1.767-0.205,2.438-0.553c48.438,4.82,94.628,21.531,142.171,31.16c11.891,2.409,23.818,4.836,35.605,7.682
				c5.572,1.346,11.18,2.612,16.738,3.975c4.926,1.207,10.221,0.592,15.23,1.146c13.992,1.549,7.145,21.432,4.047,32.695
				c-0.319,0.049-0.611,0.13-0.893,0.227c-0.312,1.358-0.711,2.685-1.275,3.957c-0.265,0.775-0.547,1.547-0.863,2.312
				c-0.131,0.313-0.305,0.56-0.494,0.772c0.154,0.396,0.346,0.777,0.58,1.135c-3.488,1.051-6.977,2.104-10.465,3.154
				c3.875-8.35,4.286-19.112,2.402-27.023c-1.99-8.365-9.646-11.436-17.268-13.271c-9.703-2.339-20.056-1.799-29.959-2.079
				c-12.289-0.35-24.891-2.596-37.117-3.989c-12.809-1.459-25.422-3.603-37.887-6.915c-22.816-6.062-44.434-19.027-68.295-20.264
				c-2.943-1.846-7.65-1.097-8.519,3.346c-6.106,31.234-12.728,62.369-18.259,93.714c-2.7,15.308-4.893,30.694-7.701,45.982
				c-2.228,12.128-9.447,25.764-6.29,38.259c2.864,11.338,13.274,15.677,23.616,18.41c4.908,1.297,9.93,2.115,14.873,3.259
				c6.789,1.571,13.398,4.046,19.891,6.539c14.123,5.423,27.389,12.134,42.075,16.041c14.294,3.803,28.94,6.07,43.144,10.243
				c2.082,0.611,3.715,0.021,4.789-1.145c4.064,19.586,9.001,39.08,14.317,58.33c0.728,2.637,1.481,5.258,2.262,7.865
				C223.531,392.386,223.26,392.296,223.061,392.248z M205.389,316.957c-0.261-0.119-0.533-0.229-0.828-0.313
				c-13.008-3.823-26.371-6.155-39.537-9.333c-14.441-3.486-27.373-9.818-41.088-15.304c-10.73-4.292-21.609-7.641-32.912-9.979
				c-4.641-0.961-9.271-2.008-13.652-3.854c-5.631-2.372-8.154-5.895-8.227-12.117c-0.066-5.654,2.482-11.523,3.766-16.967
				c1.548-6.567,3.199-12.976,4.326-19.654c2.502-14.826,4.802-29.686,7.458-44.488c0.642-3.575,1.298-7.148,1.966-10.719
				c1.176,2.577,2.51,5.1,3.597,7.546c3.803,8.554,7.62,17.11,10.985,25.847c3.381,8.779,6.541,17.799,8.359,27.043
				c1.27,6.443,2.371,13.821,7.131,18.75c5.318,5.508,12.352,4.096,18.783,1.66c10.014-3.794,18.91-9.977,28.455-14.732
				c3.161-1.575,8.07-3.944,10.754-4.023c2.01-0.059,4.627,1.113,6.545,1.893c2.672,1.084,5.365,2.429,7.75,4.056
				c0.816,0.556,1.572,1.183,2.307,1.837c-0.135,0.385-0.217,0.779-0.252,1.176c0.787,0.482,1.521,1.064,2.18,1.769
				c2.854,3.056,3.695,6.856,3.359,10.726C199.102,277.564,201.627,297.354,205.389,316.957z M192.008,219.828
				c1.075,4.224,1.664,8.599,2.089,13.012c-4.573-2.955-9.593-5.193-12.157-6.03c-7.466-2.444-13.091-0.761-20.139,2.448
				c-10.234,4.658-19.486,11.188-29.924,15.434c-2,0.813-5.344,2.732-7.314,1.047c-1.982-1.695-2.561-5.582-3.146-7.942
				c-2.26-9.088-4.172-17.958-7.25-26.861c-3.395-9.817-7.646-19.257-11.758-28.782c-1.521-3.521-3.107-7.016-4.662-10.523
				c-0.678-1.528-1.346-3.061-2-4.6c-0.221-0.519-1.133-3.573-0.75-1.412c-0.564-3.191-3.212-4.744-5.775-4.804
				c3.762-19.404,7.76-38.765,11.59-58.156c9.721,0.673,19.057,3.853,28.111,7.327c9.934,3.81,19.739,7.674,29.938,10.745
				c21.469,6.468,43.402,8.706,65.598,11.106c9.254,1,18.242,1.945,27.553,2.115c8.287,0.15,17.23,0.277,24.891,3.807
				c4.389,2.022,3.58,9.461,3.119,13.392c-0.484,4.126-1.914,12.681-6.327,14.701c-2.074,0.948-3.095,2.688-3.312,4.503
				c-0.387,0.113-0.771,0.231-1.158,0.344c-13.803,4.014-27.967,6.563-42.023,9.515c-8.762,1.839-17.529,3.741-26.162,6.128
				c-2.922,0.809-6.046,1.777-8.178,4.045c-1.1,1.172-1.533,2.47-1.5,3.748c-0.305,0.407-0.568,0.889-0.775,1.461
				C187.668,203.685,189.961,211.793,192.008,219.828z M443.238,393.174c-25.775,10.444-52.207,19.189-78.696,27.617
				c-23.134,7.361-46.11,14.959-68.942,23.227c-7.535,2.729-15.184,5.41-23.125,6.661c-2.873,0.452-6.656,0.903-9.978,0.315
				c-0.451,0.25-0.992,0.344-1.571,0.168c-4.229-1.283-6.733-4.415-8.328-8.271c-0.217-0.055-0.439-0.104-0.67-0.144
				c-0.031-0.213-0.07-0.422-0.122-0.618c-0.089-0.882-0.212-1.767-0.355-2.651c-0.462-1.688-0.813-3.439-1.106-5.186
				c-1.447-5.559-3.625-11.037-5.594-16.076c-4.107-10.511-8.058-20.82-11.223-31.671c-6.307-21.62-11.715-43.713-16.25-65.772
				c-4.492-21.854-6.489-43.941-9.881-65.943c-1.594-10.346-2.457-20.793-3.4-31.213c-0.643-7.093-6.113-16.038-3.559-23.129
				c0.105-0.289,0.178-0.574,0.236-0.856c0.625-0.569,1.129-1.304,1.473-2.128c1.456-0.518,2.963-0.906,4.455-1.303
				c2.428-0.646,4.887-1.169,7.309-1.84c10.815-2.995,22.041-4.805,33.024-7.095c22.856-4.765,44.974-11.925,67.337-18.563
				c17.845-5.297,35.922-9.572,53.867-14.441c5.895-1.6,11.842-3.054,17.836-4.232c2.776-0.547,5.57-1.007,8.385-1.32
				c0.961-0.107,1.928-0.162,2.895-0.192c0.074,0.001,0.135,0.001,0.195,0.002c-0.633-0.354-1.467-1.118-2.129-2.659
				c0.523,1.219,1.317,2.08,2.242,2.635c-0.027-0.002-0.051-0.004-0.084-0.005c0.037,0.003,0.062,0.008,0.098,0.011
				c0.012,0.008,0.025,0.014,0.037,0.021h0.143c0.803,0.108,0.77,0.327,0.334,0.246c1.678,0.764,3.664,0.62,5.252-0.167
				c0.49,0.047,1.018,0.031,1.593-0.075c3.333-0.615,4.423,0.977,5.755,3.924c1.668,3.688,3.14,7.445,4.846,11.135
				c4.377,9.473,7.974,19.291,11.377,29.148c6.701,19.412,12.734,38.979,18.08,58.807c5.355,19.859,10.212,39.848,15.393,59.752
				c3.881,14.909,5.07,30.486,9.346,45.267c1.289,2.56,2.133,5.195,2.43,7.957c1.136,2.804,1.973,5.687,2.057,8.776
				c0.19,0.301,0.402,0.598,0.664,0.883C479.162,378.854,446.227,391.963,443.238,393.174z"/>
		</g>
	</g>
	<g>
		<g>
			<path d="M439.785,323.452c-0.08-6.722-0.295-13.44-0.101-20.159c-2.36-10.057-4.058-20.284-6.04-30.414
				c-2.646-13.524-5.273-27.055-8.525-40.451c-3.316-13.658-7.164-27.195-10.574-40.837c-1.484-5.938-3.107-11.847-4.473-17.813
				c-1.236-5.406-3.406-10.438-7.93-13.869c-1.441-1.093-2.988-1.361-4.401-1.092c-1.273-1.059-3.019-1.568-5.049-0.966
				c-28.791,8.528-55.825,21.847-85.511,27.378c-14.631,2.725-29.486,4.244-44.045,7.35c-1.398,0.299-2.791,0.622-4.179,0.964
				c-6.938,2.305-13.704,5.204-20.747,7.17c-3.265,0.911-6.65,1.478-10.014,2.116c-2.607,1.022-5.842,1.291-8.617,2.116
				c-0.507,0.171-1.01,0.353-1.51,0.546c-0.348,0.149-0.695,0.299-1.016,0.482c-1.023,1.625-2.035,3.263-2.631,5.156
				c-0.547,1.736-0.91,3.453-1.145,5.168c-0.039,2.514,0.123,5.038,0.262,7.558c1.912,5.539,3.535,11.202,5.16,16.827
				c4.621,16.005,7.457,32.786,10.816,49.103c6.344,30.809,8.622,62.755,20.803,92.075c1.512,3.641,5.426,4.128,8.11,2.705
				c0.198,0.143,0.405,0.279,0.634,0.404c11.891,6.562,28.541-1.549,40.418-4.539c11.149-2.806,22.129-6.266,33.303-9.008
				c10.886-2.674,21.896-4.675,32.723-7.617c19.536-5.31,39.393-12.257,57.361-21.672c7.025-3.682,14.463-9.857,16.93-16.932
				C439.793,324.618,439.773,324.034,439.785,323.452z M251.107,341.826c-0.276,0.25-0.603,0.524-0.943,0.804
				c-3.611-17.132-5.877-34.608-9.287-51.772c-3.114-15.668-6.216-31.489-9.969-47.012c-1.857-7.68-4.344-15.206-6.643-22.76
				c-0.578-1.896-1.344-3.699-2.008-5.567c-0.24-0.679-0.457-1.366-0.676-2.054c14.285-1.203,27.822-6.168,41.637-9.668
				c15.246-3.862,31.213-5.066,46.67-7.945c29.667-5.527,56.707-18.68,85.436-27.311c3.395,2.895,4.01,7.306,4.971,11.527
				c1.446,6.342,3.236,12.635,4.814,18.949c3.248,12.99,6.914,25.871,10.07,38.879c1.502,6.182,2.807,12.416,4.027,18.67
				c-0.041,0-0.078-0.01-0.119-0.01h-2c-2.154,0-3.568,1.015-4.301,2.424c-17.438,8.379-31.184,24.041-40.627,40.814
				c-7.93-3.747-16.017-7.1-24.334-9.931c-9.328-3.175-18.391-6.273-28.221-3.693c-7.742,2.032-14.027,8.269-19.945,13.284
				c-2.953,2.5-5.9,5.004-8.832,7.53c-9.454,8.146-18.861,16.345-28.225,24.593C258.75,334.971,254.906,338.375,251.107,341.826z
				 M430.633,319.126c-0.09,0.54-0.322,0.925-0.633,1.184c1.292,7.156-19.62,15.575-23.297,17.21
				c-16.744,7.447-34.217,13.28-51.973,17.777c-18.726,4.741-37.527,8.699-56.129,14.008c-5.831,1.664-11.682,3.334-17.547,4.88
				c-4.942,1.302-12.283,3.586-17.096,0.929c-1.693-0.934-3.281-0.879-4.576-0.244c-2.49-6.432-4.52-12.984-6.256-19.613
				c0.982-0.465,1.816-1.352,2.311-2.768c-0.174,0.499-0.287,0.76-0.331,0.854c0.071-0.133,0.327-0.574,0.804-1.037
				c1.129-1.098,2.297-2.156,3.461-3.217c3.549-3.234,7.148-6.412,10.748-9.588c8.49-7.493,17.04-14.92,25.611-22.318
				c7.557-6.523,15.238-14.887,24.145-19.339c8.018-4.008,16.934-0.208,24.773,2.46c9.412,3.203,18.516,7.248,27.416,11.666
				c2.705,1.342,6.015,0.188,7.373-2.48c8.887-17.449,23.068-34.954,41.793-42.216c2.599,14.08,5.066,28.192,8.607,42.024
				c-0.014,0.01-0.024,0.021-0.037,0.031c0.135,0.182,0.25,0.387,0.332,0.628C431.153,312.998,431.153,315.984,430.633,319.126z"/>
		</g>
	</g>
	<g>
		<g>
			<path d="M370.547,207.531c-4.264-1.405-9.031-2.342-13.371-0.748c-3.986,1.463-6.266,5.507-8.797,8.627
				c-2.832,3.492-0.545,7.688,2.648,8.888c1.316,15.837,28.281,17.964,33.473,2.472
				C388.045,216.193,379.305,210.418,370.547,207.531z M361.91,223.09c0.271-2.103-0.518-3.762-1.773-4.871
				c0.186-0.229,0.359-0.465,0.548-0.69c1.122-1.337,3.3-0.385,4.776-0.089c2.004,0.404,9.135,2.188,8.906,4.836
				C373.863,228.09,361.338,227.539,361.91,223.09z"/>
		</g>
	</g>
	<g>
		<g>
			<path d="M163.016,152.52c-3.986-7.256-12.855-9.948-20.605-8.191c-8.693,1.973-13.627,9.463-13.385,18.137
				c0.063,2.242,1.205,3.688,2.729,4.395c0.361,0.407,0.793,0.784,1.311,1.109c6.297,3.971,15.432,6.062,22.734,4.382
				C164.996,170.232,167.195,160.128,163.016,152.52z M154,161.409c-1.194,0.708-3.046,0.593-4.303,0.491
				c-3.188-0.262-6.434-1.098-9.359-2.49c1.842-5.296,10.672-7.031,13.281-1.205c0.355,0.794,0.428,1.441,0.523,2.301
				C154.188,160.912,154.084,161.226,154,161.409z"/>
		</g>
	</g>
</g>
</svg>
