<?xml version="1.0" encoding="utf-8"?>
<!-- Generator: Adobe Illustrator 16.0.3, SVG Export Plug-In . SVG Version: 6.00 Build 0)  -->
<!DOCTYPE svg PUBLIC "-//W3C//DTD SVG 1.1//EN" "http://www.w3.org/Graphics/SVG/1.1/DTD/svg11.dtd">
<svg version="1.1" id="Layer_1" xmlns="http://www.w3.org/2000/svg" xmlns:xlink="http://www.w3.org/1999/xlink" x="0px" y="0px"
	 width="512px" height="512px" viewBox="0 0 512 512" enable-background="new 0 0 512 512" xml:space="preserve">
<g>
	<g>
		<g>
			<path fill="#74CCCF" d="M342.808,388.25c0.625-13.26,0.831-26.435,0.586-39.711c-0.526-28.477-1.973-56.923-3.392-85.367
				c-1.379-27.644-3.814-55.191-5.319-82.817c-0.354-6.493-0.055-13.019-0.352-19.521c-0.227-4.989-0.866-9.934-1.141-14.915
				c-0.238-4.317-0.34-8.674-0.955-12.959c-0.365-2.544-0.62-6.161-2.806-7.858c-0.023-0.018-0.042-0.037-0.064-0.055
				c-4.519-0.6-9.729,0.95-13.987,1.823c-5.917,1.214-11.747,2.521-17.794,2.848c-17.562,0.95-35.1-0.059-52.65-0.749
				c-17.017-0.67-33.831,0.09-50.833,0.418c-11.663,0.227-25.428-2.615-36.848,0.932c-1.754,28.072-3.444,56.236-2.031,84.361
				c0.751,14.959,1.814,29.854,2.094,44.838c0.265,14.214,0.312,28.434,0.809,42.643c0.564,16.18,2.101,32.274,3.11,48.426
				c0.964,15.43-0.458,30.22-1.494,45.57c-0.775,11.492-0.01,26.154,9.229,34.494c6.328,5.711,14.98,7.754,23.338,8.02
				c19.845,0.629,39.313-4.615,59.075-5.602c29.863-1.488,59.829-2.244,89.29-7.647c-0.063-0.323-0.098-0.665-0.098-1.028v-3
				c0-1.961,0.848-3.441,2.07-4.41c0.696-3.618,0.46-7.469,0.276-11.098C342.623,399.988,342.529,394.154,342.808,388.25z
				 M165.662,276.92c0.189-2.797,1.996-4.139,4.079-4.314c-0.053-2.613,1.512-5.116,4.897-5.121
				c24.493-0.039,48.944-1.434,73.403-2.574c24.208-1.129,48.366-1.426,72.597-1.426c2.284,0,3.917,1.15,4.845,2.705
				c3.796,2.137,3.729,6.674,3.848,10.867c0.197,6.916,0.105,13.844-0.002,20.761c-0.188,12.241-0.746,24.487-0.783,36.729
				c-0.009,2.81-1.895,5.909-5.062,5.909c-21.431,0-43.001-0.711-64.398,0.672c-21.246,1.373-42.285,3.569-63.602,3.328
				c-12.222-0.139-23.206-3.678-26.326-16.697c-1.797-7.498-1.427-15.226-2.154-22.85
				C166.112,295.549,165.025,286.334,165.662,276.92z M333.608,415.725c-1.188,1.653-3.281,2.795-5.597,2.644
				c-10.252-0.668-20.177,3.368-30.333,3.96c-11.098,0.646-22.13,0.418-33.19,1.914c-11.184,1.514-22.056,3.793-33.335,4.668
				c-12.099,0.94-24.659,1.566-36.699-0.341c-6.792-1.075-15.23-3.386-18.529-9.673c-0.883-0.342-1.718-0.938-2.423-1.852
				c-4.25-5.504-3.772-16.26-3.901-22.832c-0.223-11.451,0.039-23.531-2.025-34.82c-0.857-4.688,3.806-6.566,7.349-5.215
				c0.811-0.969,2.037-1.633,3.713-1.693c21.293-0.777,42.562-2.07,63.844-3.094c20.025-0.963,40.333-3.155,60.377-2.031
				c9.892,0.556,24.104,0.986,28.671,11.637c2.728,6.364,1.845,13.624,2.232,20.35c0.6,10.43,1.945,20.791,2.784,31.2
				C336.755,413.139,335.416,414.889,333.608,415.725z"/>
		</g>
	</g>
	<g>
		<g>
			<path fill="#FEBF10" d="M318.446,282.385c-0.026-2.307-0.051-4.619-0.186-6.922c-0.02-0.334-0.04-0.669-0.062-1.003
				c-23.128,0.025-46.199,0.329-69.311,1.421c-24.129,1.14-48.255,2.492-72.417,2.566c0.004,0.187,0.002,0.377-0.011,0.571
				c-0.606,8.962,0.975,17.905,1.67,26.813c0.489,6.27-0.057,13.074,1.63,19.202c0.99,3.596,2.562,6.519,6.461,7.472
				c7.061,1.727,14.814,1.234,22.02,1.037c19.292-0.527,38.452-3.034,57.729-3.797c17.194-0.68,34.461-0.342,51.678-0.275
				c0.143-8.863,0.486-17.729,0.642-26.588C318.41,296.052,318.523,289.217,318.446,282.385z"/>
		</g>
	</g>
	<g>
		<g>
			<path fill="#BCBCBC" d="M288.662,82.92c0.655-3.474-0.565-8.663-1.449-12.324c-0.788-3.267-1.471-9.352-5.162-10.724
				c-4.585-1.706-10.617-0.172-15.208,0.786c-5.911,1.232-11.768,2.41-17.754,3.254c-15.713,2.214-31.312,3.061-47.151,3.55
				c-2.801,0.087-8.057,0.707-12.396,0.063c-0.012,5.229-0.024,10.561,0.734,15.746c1.445-0.365,3.036,0.012,4.415,1.565
				c4.107,4.626,11.794,4.558,17.498,4.448c8.135-0.156,16.198-1.164,24.278-2.033c7.708-0.829,15.436-0.904,23.164-0.886
				c9.682-0.583,19.358-0.985,29.035-1.263C288.531,84.442,288.512,83.715,288.662,82.92z"/>
		</g>
	</g>
	<g>
		<g>
			<path fill="#F6851F" d="M322.904,382.143c-0.259-4.508-0.069-9.064-0.449-13.561c-0.136-1.611-0.146-3.912-1.018-5.361
				c-1.782-2.96-5.585-3.33-8.924-3.803c-7.173-1.018-14.31-1.488-21.559-1.357c-18.447,0.334-36.947,1.742-55.375,2.686
				c-18.695,0.957-37.386,2.025-56.094,2.709c-0.068,0.002-0.132-0.004-0.199-0.003c1.201,9.53,1.082,19.462,1.267,28.96
				c0.076,3.881,0.291,7.777,0.744,11.634c0.153,1.306,0.304,3.348,0.63,4.921c1.838,0.602,3.365,2.102,3.62,4.579
				c0.019,0.181,0.014,0.269,0.004,0.313c0.038,0.018,0.107,0.08,0.23,0.238c-0.603-0.776,0.714,0.633,0.952,0.801
				c0.131,0.092,2.424,1.212,3.378,1.485c4.678,1.341,9.6,1.978,14.455,2.188c11.033,0.482,22.125-0.137,33.099-1.311
				c11.876-1.271,23.497-4.06,35.419-4.982c10.083-0.779,20.402-0.047,30.379-1.764c6.748-1.16,13.326-2.588,20.072-2.959
				c0.455-0.428,0.996-0.76,1.613-0.965C324.373,398.446,323.374,390.313,322.904,382.143z"/>
		</g>
	</g>
	<g>
		<g>
			<path fill="#BCBCBC" d="M367.094,281.176c-2.826-31.242-2.653-62.683-4.421-93.988c-0.885-15.669-2.104-31.344-4.333-46.885
				c-2.178-15.186-5.597-29.981-9.305-44.846c-18.274,0.003-36.491,0.049-54.698,0.498c-12.844,1.902-25.808,1.615-38.761,1.699
				c-3.893,0.258-7.787,0.541-11.683,0.863c-33.956,2.811-67.88,6.455-101.973,6.879c-9.104,17.059-12.367,36.168-13.289,55.367
				c-1.031,21.454,0.293,43.09,1.481,64.511c2.419,43.597,3.838,87.027,3.529,130.694c-0.173,24.496-1.917,53.583,10.456,75.822
				c12.6,22.648,38.356,30.557,62.709,33.002c24.888,2.501,50.638,1.143,75.566-0.404c13.114-0.813,26.411-2.059,39.12-5.555
				c11.715-3.222,24.472-7.986,33.317-16.678c16.796-16.504,18.814-41.462,18.765-63.764
				C373.504,345.874,370.02,313.526,367.094,281.176z M351.271,425.797c0.169,0.52,0.275,1.096,0.275,1.749v2
				c0,3.292-1.942,5.278-5.062,5.909c-32.34,6.539-65.292,7.001-98.119,8.785c-20.086,1.092-39.832,6.955-60.074,5.109
				c-8.872-0.809-18.085-3.258-25.046-9.098c-8.469-7.105-13.203-18.287-14.301-29.137c-1.5-14.817,2.021-29.51,1.905-44.322
				c-0.127-16.104-2.032-32.131-2.974-48.195c-1.898-32.377-1.355-64.822-3.298-97.205c-1.931-32.18,0.078-64.35,2.086-96.473
				c0.202-3.232,2.572-4.523,5.041-4.31c12.421-4.831,26.732-1.905,39.694-2.157c17.618-0.342,35.059-1.176,52.691-0.455
				c18.166,0.743,36.431,1.938,54.6,0.627c10.955-0.791,23.484-7.033,34.422-4.055c1.251,0.341,2.2,0.986,2.877,1.798
				c0.236,0.138,0.472,0.288,0.704,0.469c6.676,5.183,6.825,16.112,7.232,23.761c0.597,11.203,1.609,22.289,1.621,33.53
				c0.014,14.499,1.882,29.054,2.988,43.501c1.089,14.219,1.631,28.469,2.341,42.711c1.518,30.425,3.14,60.859,3.555,91.324
				c0.196,14.381-0.784,28.658-0.871,43.018C353.496,404.936,355.83,416.178,351.271,425.797z"/>
		</g>
	</g>
	<g>
		<g>
			<path fill="#010101" d="M375.881,242.893c-1.02-25.768-1.53-51.559-3.667-77.268c-2.104-25.33-6.806-49.85-12.962-74.475
				c-0.523-2.095-1.852-3.205-3.396-3.551c-0.876-1.758-2.59-3.115-5.071-3.115h-2.157c-16.348,0.002-32.65,0.031-48.941,0.352
				c-0.064-0.03-0.118-0.072-0.184-0.1c1.45-8.271-1.353-19.547-4.891-26.935c-5.127-10.708-17.252-10.251-27.33-8.37
				c-14.662,2.736-29.172,5.113-44.079,6.244c-7.596,0.576-15.18,0.602-22.787,0.837c-1.905,0.06-3.808,0.157-5.713,0.204
				c-1.02,0.025-2.038,0.016-3.057-0.004c-0.116-0.002-0.215-0.004-0.305-0.008c-0.249-0.172-0.513-0.322-0.786-0.455
				c-0.809-0.477-1.781-0.766-2.917-0.766c-2.562,0-4.078,1.435-4.642,3.266c-0.143,0.357-0.256,0.746-0.333,1.17
				c-0.068,0.375-0.105,0.727-0.126,1.067c-2.148,0.708-3.961,2.539-3.96,5.405c0.003,8.561,0.109,17.064,2.294,25.396
				c0.084,0.321,0.193,0.612,0.313,0.888c-15.157,1.048-30.332,1.777-45.545,1.809c-4.447,0.009-5.757,4.318-4.378,7.532
				c-13.097,25.493-14.174,54.808-13.768,82.989c0.468,32.414,2.763,64.898,4.401,97.271c0.826,16.33,0.955,32.69,0.929,49.038
				c-0.026,16.125-0.809,32.364-0.192,48.478c0.89,23.234,3.46,48.596,18.542,67.395c15.796,19.688,42.612,26.486,66.619,28.701
				c24.903,2.298,50.502,0.918,75.43-0.529c25.446-1.478,52.01-5.547,73.344-20.48c19.625-13.736,25.973-38.079,27.477-60.725
				C387.386,343.77,377.871,293.17,375.881,242.893z M189.542,67.526c4.339,0.644,9.595,0.023,12.396-0.063
				c15.838-0.489,31.438-1.336,47.151-3.55c5.986-0.844,11.843-2.021,17.754-3.254c4.59-0.958,10.623-2.492,15.208-0.786
				c3.691,1.372,4.374,7.457,5.162,10.724c0.884,3.661,2.104,8.851,1.449,12.324c-0.15,0.795-0.131,1.521,0.004,2.184
				c-9.677,0.277-19.353,0.68-29.035,1.263c-7.728-0.019-15.456,0.057-23.164,0.886c-8.081,0.869-16.143,1.877-24.278,2.033
				c-5.704,0.109-13.39,0.178-17.498-4.448c-1.379-1.554-2.97-1.931-4.415-1.565C189.518,78.086,189.531,72.754,189.542,67.526z
				 M354.811,442.157c-8.845,8.691-21.602,13.456-33.317,16.678c-12.709,3.496-26.006,4.741-39.12,5.555
				c-24.928,1.547-50.678,2.905-75.566,0.404c-24.353-2.445-50.109-10.354-62.709-33.002
				c-12.372-22.239-10.629-51.326-10.456-75.822c0.309-43.667-1.11-87.098-3.529-130.694c-1.188-21.421-2.512-43.057-1.481-64.511
				c0.922-19.199,4.185-38.309,13.289-55.367c34.093-0.424,68.018-4.068,101.973-6.879c3.896-0.322,7.79-0.605,11.683-0.863
				c12.953-0.084,25.917,0.203,38.761-1.699c18.207-0.449,36.424-0.495,54.698-0.498c3.708,14.864,7.127,29.66,9.305,44.846
				c2.229,15.541,3.448,31.216,4.333,46.885c1.768,31.306,1.595,62.746,4.421,93.988c2.926,32.35,6.41,64.697,6.481,97.217
				C373.625,400.695,371.607,425.653,354.811,442.157z"/>
		</g>
	</g>
	<g>
		<g>
			<path fill="#010101" d="M353.557,394.682c0.087-14.359,1.067-28.637,0.871-43.018c-0.415-30.465-2.037-60.899-3.555-91.324
				c-0.71-14.242-1.252-28.492-2.341-42.711c-1.106-14.447-2.974-29.002-2.988-43.501c-0.012-11.241-1.024-22.327-1.621-33.53
				c-0.407-7.648-0.556-18.578-7.232-23.761c-0.232-0.181-0.468-0.331-0.704-0.469c-0.678-0.812-1.626-1.457-2.877-1.798
				c-10.938-2.979-23.468,3.264-34.422,4.055c-18.169,1.312-36.435,0.116-54.6-0.627c-17.632-0.721-35.074,0.113-52.691,0.455
				c-12.961,0.252-27.273-2.674-39.694,2.157c-2.469-0.214-4.838,1.077-5.041,4.31c-2.008,32.123-4.017,64.293-2.086,96.473
				c1.943,32.383,1.4,64.828,3.298,97.205c0.942,16.064,2.847,32.092,2.974,48.195c0.116,14.812-3.405,29.505-1.905,44.322
				c1.098,10.85,5.833,22.031,14.301,29.137c6.961,5.84,16.174,8.289,25.046,9.098c20.243,1.846,39.988-4.018,60.074-5.109
				c32.827-1.784,65.779-2.246,98.119-8.785c3.12-0.631,5.062-2.617,5.062-5.909v-2c0-0.653-0.105-1.229-0.275-1.749
				C355.83,416.178,353.496,404.936,353.557,394.682z M342.922,405.885c0.184,3.629,0.42,7.479-0.276,11.098
				c-1.223,0.969-2.07,2.449-2.07,4.41v3c0,0.363,0.035,0.705,0.098,1.028c-29.461,5.403-59.427,6.159-89.29,7.647
				c-19.762,0.986-39.229,6.23-59.075,5.602c-8.358-0.266-17.01-2.309-23.338-8.02c-9.239-8.34-10.005-23.002-9.229-34.494
				c1.036-15.351,2.458-30.141,1.494-45.57c-1.009-16.151-2.545-32.246-3.11-48.426c-0.496-14.209-0.544-28.429-0.809-42.643
				c-0.279-14.984-1.342-29.879-2.094-44.838c-1.413-28.125,0.277-56.289,2.031-84.361c11.42-3.547,25.185-0.705,36.848-0.932
				c17.001-0.328,33.816-1.088,50.833-0.418c17.55,0.69,35.089,1.699,52.65,0.749c6.047-0.327,11.877-1.634,17.794-2.848
				c4.258-0.873,9.469-2.423,13.987-1.823c0.022,0.018,0.041,0.037,0.064,0.055c2.186,1.697,2.44,5.314,2.806,7.858
				c0.615,4.285,0.717,8.642,0.955,12.959c0.274,4.981,0.914,9.926,1.141,14.915c0.297,6.502-0.002,13.027,0.352,19.521
				c1.505,27.626,3.94,55.174,5.319,82.817c1.419,28.444,2.866,56.891,3.392,85.367c0.245,13.276,0.04,26.451-0.586,39.711
				C342.529,394.154,342.623,399.988,342.922,405.885z"/>
		</g>
	</g>
	<g>
		<g>
			<path fill="#010101" d="M336.546,410.546c-0.839-10.409-2.185-20.771-2.784-31.2c-0.387-6.726,0.496-13.985-2.232-20.35
				c-4.567-10.65-18.78-11.081-28.671-11.637c-20.044-1.124-40.352,1.068-60.377,2.031c-21.282,1.023-42.55,2.316-63.844,3.094
				c-1.676,0.061-2.902,0.725-3.713,1.693c-3.543-1.352-8.206,0.526-7.349,5.215c2.064,11.289,1.802,23.369,2.025,34.82
				c0.128,6.572-0.349,17.328,3.901,22.832c0.705,0.914,1.54,1.51,2.423,1.852c3.299,6.287,11.738,8.598,18.529,9.673
				c12.04,1.907,24.6,1.281,36.699,0.341c11.279-0.875,22.152-3.154,33.335-4.668c11.06-1.496,22.092-1.268,33.19-1.914
				c10.157-0.592,20.081-4.628,30.333-3.96c2.315,0.151,4.409-0.99,5.597-2.644C335.416,414.889,336.755,413.139,336.546,410.546z
				 M323.535,407.557c-6.746,0.371-13.324,1.799-20.072,2.959c-9.977,1.717-20.296,0.984-30.379,1.764
				c-11.922,0.923-23.542,3.711-35.419,4.982c-10.973,1.174-22.066,1.793-33.099,1.311c-4.855-0.211-9.777-0.848-14.455-2.188
				c-0.954-0.273-3.247-1.394-3.378-1.485c-0.238-0.168-1.555-1.577-0.952-0.801c-0.123-0.158-0.192-0.221-0.23-0.238
				c0.01-0.045,0.015-0.133-0.004-0.313c-0.255-2.478-1.782-3.978-3.62-4.579c-0.326-1.573-0.477-3.615-0.63-4.921
				c-0.454-3.856-0.668-7.753-0.744-11.634c-0.185-9.498-0.065-19.43-1.267-28.96c0.067-0.001,0.13,0.005,0.199,0.003
				c18.708-0.684,37.399-1.752,56.094-2.709c18.429-0.943,36.929-2.352,55.375-2.686c7.25-0.131,14.386,0.34,21.559,1.357
				c3.339,0.473,7.143,0.843,8.924,3.803c0.872,1.449,0.881,3.75,1.018,5.361c0.38,4.496,0.19,9.053,0.449,13.561
				c0.47,8.17,1.469,16.303,2.244,24.449C324.531,406.797,323.99,407.129,323.535,407.557z"/>
		</g>
	</g>
	<g>
		<g>
			<path fill="#010101" d="M329.331,277.057c-0.119-4.193-0.052-8.73-3.848-10.867c-0.929-1.555-2.561-2.705-4.845-2.705
				c-24.23,0-48.389,0.297-72.597,1.426c-24.459,1.141-48.91,2.535-73.403,2.574c-3.385,0.005-4.95,2.508-4.897,5.121
				c-2.083,0.176-3.89,1.518-4.079,4.314c-0.637,9.414,0.45,18.629,1.342,27.988c0.727,7.624,0.357,15.352,2.154,22.85
				c3.121,13.02,14.104,16.559,26.326,16.697c21.317,0.241,42.356-1.955,63.602-3.328c21.397-1.383,42.967-0.672,64.398-0.672
				c3.167,0,5.053-3.1,5.062-5.909c0.037-12.241,0.595-24.487,0.783-36.729C329.436,290.901,329.528,283.973,329.331,277.057z
				 M318.29,302.883c-0.156,8.859-0.499,17.725-0.642,26.588c-17.217-0.066-34.483-0.404-51.678,0.275
				c-19.276,0.763-38.437,3.27-57.729,3.797c-7.206,0.197-14.959,0.689-22.02-1.037c-3.899-0.953-5.471-3.876-6.461-7.472
				c-1.687-6.128-1.141-12.933-1.63-19.202c-0.695-8.908-2.276-17.852-1.67-26.813c0.013-0.194,0.015-0.385,0.011-0.571
				c24.162-0.074,48.288-1.427,72.417-2.566c23.112-1.092,46.183-1.396,69.311-1.421c0.022,0.334,0.042,0.669,0.062,1.003
				c0.134,2.303,0.159,4.615,0.186,6.922C318.523,289.217,318.41,296.052,318.29,302.883z"/>
		</g>
	</g>
</g>
</svg>
