<?xml version="1.0" encoding="utf-8"?>
<!-- Generator: Adobe Illustrator 16.0.3, SVG Export Plug-In . SVG Version: 6.00 Build 0)  -->
<!DOCTYPE svg PUBLIC "-//W3C//DTD SVG 1.1//EN" "http://www.w3.org/Graphics/SVG/1.1/DTD/svg11.dtd">
<svg version="1.1" id="Layer_1" xmlns="http://www.w3.org/2000/svg" xmlns:xlink="http://www.w3.org/1999/xlink" x="0px" y="0px"
	 width="512px" height="512px" viewBox="0 0 512 512" enable-background="new 0 0 512 512" xml:space="preserve">
<g>
	<g>
		<g>
			<path fill="#D6E5E5" d="M337.457,389.439c-4.022-4.193-8.118-8.214-11.843-12.689c-9.329-11.211-17.104-23.495-25.941-35.063
				c-10.713-14.021-21.846-27.708-32.925-41.438c-0.003,0.077,0,0.154-0.005,0.23c-0.196,2.781-2.973,4.218-5.164,5.279
				c-3.246,1.571-6.027,4.108-8.914,6.273c-6.738,5.054-13.76,9.642-20.725,14.375c-15.092,10.257-30.74,19.667-45.775,30
				c-2.127,1.462-4.295,1.011-5.795-0.288c-0.768,1.188-1.969,2.036-3.615,2.129c-8.896,0.502-15.188-7.479-14.151-14.754
				c-3.083-0.881-5.942-2.438-7.94-4.769c-6.875,2.325-13.116-2.691-14.283-10.175c-0.158-1.012-0.197-1.988-0.148-2.93
				c-5.1-7.628,1.284-17.397,10.502-18.316c-0.373-2.174,0.443-4.617,2.982-5.763c14.053-6.337,26.01-16.394,38.758-24.886
				c11.671-7.777,24.977-13.861,35.139-23.695c0.555-0.536,1.152-0.909,1.766-1.148c-12.691-17.73-24.781-35.882-37.459-53.641
				c-17.139-24.009-34.631-47.764-51.662-71.85c-12.73,10.529-24.316,22.488-33.398,35.969
				c-9.679,14.369-16.055,30.277-20.396,46.82c-0.355,2.809-1.162,5.488-1.986,8.208c-0.294,1.329-0.578,2.663-0.85,3.998
				c-0.564,2.214-1.109,4.431-1.639,6.651c-0.649,3.988-1.105,8.021-1.742,11.986c-0.188,1.169-0.674,2.057-1.332,2.691
				c-3.949,32.375-3.439,66.1,5.383,97.57c8.672,30.939,25.424,61.06,53.08,78.807c41.234,26.458,95.772,26.525,141.314,12.352
				c23.365-7.271,45.014-18.123,64.432-32.064c0.762,0.656,1.534,1.299,2.299,1.949C344.929,396.934,340.106,392.2,337.457,389.439z
				 M137.612,283.96c4.264-4.976,4.492-7.301-1.615-9.944c-5.557-2.406-11.725-3.499-17.107-6.283
				c-5.725-2.961-12.16-9.886-10.646-16.942c1.455-6.796,7.564-10.75,13.406-13.617c3.412-1.674,6.943-3.071,10.527-4.34
				c3.302-1.168,6.99-2.025,9.777-4.246c3.119-2.485-0.635-4.567-3.291-6.44c-3.357-2.367-6.99-4.312-10.518-6.406
				c-7.934-4.709-16.414-15.911-10.242-25.216c2.781-4.191,5.859-6.959,10.326-9.309c2.971-1.562,7.127-2.672,9.383-5.256
				c4.24-4.854,11.766,1.735,7.514,6.602c-4.026,4.609-20.215,7.887-19.215,15.491c1.178,8.948,15.234,12.831,21.252,18.048
				c6.059,5.252,8.878,12.826,2.398,19.092c-5.563,5.38-13.916,6.688-20.808,9.672c-2.513,1.088-13.022,5.176-10.181,9.399
				c3.658,5.439,10.148,6.584,15.99,8.568c5.074,1.723,12.176,4.038,14.833,9.205c3.521,6.849,0.392,13.083-4.271,18.524
				C140.933,295.458,133.411,288.865,137.612,283.96z"/>
		</g>
	</g>
	<g>
		<g>
			<path fill="#FFFFFF" d="M328.89,236.037c-0.438,1.176-0.242-1.121-0.303-1.419c-0.174-0.667-0.367-1.328-0.582-1.983
				c-0.563-1.627-1.17-3.238-1.896-4.801c-1.582-3.404-3.438-6.67-5.529-9.785c-4.547-6.768-10.814-13.296-19.557-10.067
				c-0.517,0.19-1.012,0.291-1.484,0.323c-4.598,3.601-9.082,7.339-13.412,11.258c-0.215,0.195-0.439,0.361-0.665,0.513
				c0.964,1.401,1.923,2.807,2.868,4.222c7.086,10.605,13.223,21.938,20.518,32.404c4.986-5.932,11.633-9.792,18.441-13.31
				c1.008-0.521,2.008-1.06,3.01-1.591C328.845,240.454,328.026,238.36,328.89,236.037z"/>
		</g>
	</g>
	<g>
		<g>
			<path fill="#D6E5E5" d="M155.886,314.184c-0.184,0.51-0.451,0.985-0.797,1.405c1.789,0.695,3.134,2.29,3.268,4.287
				c0.004,0.063,0.002,0.126,0.005,0.189c0.536-0.048,1.069-0.03,1.589,0.049C158.64,318.122,157.274,316.148,155.886,314.184z"/>
		</g>
	</g>
	<g>
		<g>
			<path fill="#FFFFFF" d="M244.476,272.199c-3.203-4.146-6.328-8.347-9.424-12.567c-11.271,10.876-25.62,17.508-38.422,26.286
				c-10.898,7.472-21.42,15.584-33.068,21.824c8.615,12.206,16.582,24.875,17.689,39.916c13.861-9.48,28.328-18.029,42.172-27.542
				c6.348-4.361,12.988-8.378,19.15-13l10.5-7.875c1.037-0.777,1.955-1.349,3.065-1.896c0.91-1.778,2.716-3.162,5.185-2.992
				c0.262,0.018,0.51,0.048,0.75,0.088C256.149,287.072,250.257,279.68,244.476,272.199z"/>
		</g>
	</g>
	<g>
		<g>
			<path fill="#D6E5E5" d="M164.642,327.894c-0.385,1.57-1.198,3.161-2.23,4.621c1.361,0.887,3.416,1.391,5.229,1.63
				C166.757,332.017,165.746,329.938,164.642,327.894z"/>
		</g>
	</g>
	<g>
		<g>
			<path fill="#D6E5E5" d="M426.831,201.935c-8.666-24.73-25.481-46.014-43.941-64.287c-18.639-18.451-39.984-34.484-63.914-45.425
				c-23.236-10.622-48.91-16.708-74.551-14.278c-16.271,1.541-32.249,6.309-47.379,12.968c1.941,3.215,4.998,6.265,7.045,8.745
				c3.336,4.041,6.385,8.259,9.572,12.396c8.613,11.186,15.506,23.896,23.061,35.811c8.316,13.119,16.688,26.207,25.371,39.086
				c5.705,8.46,11.75,16.68,17.666,24.992c21.932-19.619,47.199-35.684,72.48-50.529c9.289-5.454,18.781-6.65,27.062,1.391
				c8.9,8.644,13.445,20.396,15.416,32.471h0.938c-0.372,4.208-0.918,8.395-1.566,12.571c-0.112,0.437-0.237,0.872-0.357,1.308
				c-11.847,10.291-24.002,20.298-37.193,28.811c-7.234,4.669-14.688,9.084-22.338,13.035c-6.566,3.391-13.299,6.762-18.076,12.562
				c-0.406,0.494-0.85,0.871-1.309,1.149c8.33,10.591,17.336,20.61,26.066,30.87c9.277,10.902,17.055,22.406,25.193,34.138
				c3.793,5.467,7.848,10.685,11.441,16.291c2.767,4.313,5.488,8.782,8.757,12.766c3.724-4.531,7.31-9.206,10.71-14.05
				C425.493,304.128,443.96,250.822,426.831,201.935z"/>
		</g>
	</g>
	<g>
		<g>
			<path fill="#EF4823" d="M465.81,167.375c-21.342-43.359-61.608-77.509-104.185-99.043
				c-42.806-21.651-92.271-33.053-140.14-25.494C142.581,55.298,66.132,113.168,43.578,190.765c0.017,0.859-0.206,1.748-0.737,2.609
				c-0.389,1.424-0.766,2.853-1.118,4.289c-0.501,1.012-0.958,2.036-1.39,3.066c-0.131,0.949-0.26,1.871-0.445,2.698
				c-0.922,4.108-1.983,8.179-2.734,12.325c-1.383,7.655-1.135,15.721-3.811,23.022c-0.234,2.114-0.49,4.22-0.794,6.306
				c-0.037,0.256-0.024,0.492,0.011,0.719c-0.475,4.389-0.883,8.791-1.287,13.205c-0.842,9.178-1.24,18.393-1.072,27.61
				c0.33,18.052,2.354,36.179,6.904,53.677c8.67,33.336,25.497,64.824,52.007,87.348c18.228,15.486,39.549,25.66,62.419,32.326
				c25.009,7.289,51.032,11.408,77.105,11.471c51.488,0.125,103.199-13.916,145.555-43.721
				C452.683,372.484,511.8,260.818,465.81,167.375z M355.278,404.215c-0.223,3.681-3.541,4.595-6.262,3.513
				c-7.069,5.062-14.414,9.723-22.031,13.893c-42.885,23.48-94.059,35.299-142.639,25.922c-22.797-4.4-45.045-13.01-63.018-28.006
				c-16.521-13.784-29.098-31.66-37.705-51.312c-18.476-42.187-20.021-90.163-13.529-135.179c0.179-1.236,0.703-2.14,1.404-2.779
				c0.471-3.566,1-7.129,1.93-10.555c0.252-0.93,0.561-1.875,0.883-2.828c0.715-3.383,1.503-6.752,2.369-10.101
				c0-0.022,0.004-0.044,0.004-0.065c-0.021-1.14,0.281-2.098,0.783-2.875c4.164-15.176,10.042-29.842,18.561-43.131
				c11.855-18.492,27.774-34.488,45.281-47.953c0.215,0.541,0.453,1.072,0.688,1.604c1.288,0.103,2.557,0.735,3.518,2.102
				c18.723,26.616,38.108,52.757,56.953,79.286c17.863,25.145,34.67,50.947,53.713,75.24c9.512,12.135,19.25,24.087,28.918,36.096
				c9.578,11.897,19.916,23.674,28.416,36.378c8.053,12.035,16.414,24.34,26.721,34.578
				C347.384,385.144,355.935,393.357,355.278,404.215z M426.843,312.841c-10.027,21.829-23.441,42.33-39.549,60.403
				c-0.719-0.95-1.477-1.868-2.252-2.771c-1.002-0.041-2.033-0.476-2.973-1.456c-4.65-4.849-8.347-10.408-11.961-16.045
				c-3.57-5.567-7.533-10.763-11.299-16.188c-8.477-12.217-16.525-24.28-26.215-35.611c-9.85-11.516-20.128-22.733-29.186-34.898
				c-9.344-12.549-16.679-26.597-25.502-39.545c-8.959-13.146-18.57-25.82-27.371-39.072c-8.932-13.449-17.602-27.067-26.225-40.715
				c-7.404-11.718-14.627-23.416-22.84-34.564c-5.508-7.477-13.484-14.383-15.824-23.65c-0.631-0.869-1.261-1.738-1.887-2.609
				c0.68-0.339,1.364-0.672,2.049-1.004c0.812-1.585,2.518-2.84,4.176-2.84h1c0.256,0,0.515,0.021,0.773,0.057
				c11.805-5.301,24.065-9.502,36.58-12.07c24.451-5.017,50.055-3.062,73.736,4.699c24.631,8.072,47.36,21.002,67.484,37.302
				c19.896,16.115,38.518,35.409,52.357,57.051c13.629,21.312,21.449,46.058,21.441,71.441
				C443.351,265.687,437.228,290.233,426.843,312.841z"/>
		</g>
	</g>
	<g>
		<g>
			<path fill="#F6851F" d="M385.069,202.018c-2.098-2.097-1.818-4.839-0.462-6.729c-1.778-10.031-5.698-20.734-13.946-26.711
				c-7.66-5.551-16.822,3.99-23.152,7.767c-11.725,6.995-23.428,14.241-34.668,22.121c6.125,2.25,11.406,7.11,15.342,12.968
				c4.52,6.729,11.424,16.919,10.43,25.78c3.135-1.802,6.238-3.659,9.289-5.591c13.457-8.522,25.906-18.436,37.967-28.806
				C385.601,202.55,385.335,202.284,385.069,202.018z"/>
		</g>
	</g>
	<g>
		<g>
			<path d="M485.185,190.988v96.968C493.958,255.765,494.024,222.318,485.185,190.988z"/>
		</g>
	</g>
	<g>
		<g>
			<path d="M465.497,146.447C440.289,106.048,399.552,74.8,356.829,54.88c-43.311-20.195-92.883-29.541-140.295-21.322
				C134.71,47.741,56.58,108.218,33.659,189.189c-3.336,5.541-3.768,13.082-5.205,19.189c-1.015,4.304-1.729,8.689-2.326,13.068
				c-0.06,0.433-0.109,0.865-0.156,1.296c-0.098,0.263-0.188,0.532-0.248,0.832c-0.836,4.189-1.518,8.409-2.104,12.646
				c-0.033,0.074-0.061,0.148-0.096,0.223c-0.533,1.158-0.606,2.259-0.367,3.238c-1.014,8.078-1.688,16.207-2.263,24.316
				c-0.812,11.434-0.903,22.898-0.26,34.343c1.253,22.286,5.647,44.519,13.341,65.481c15.342,41.799,45.506,76.547,86.127,95.293
				c23.07,10.645,48.766,16.691,73.87,19.96c25.53,3.323,51.527,3.103,76.998-0.599c50.869-7.389,98.494-29.662,136.101-64.753
				c36.375-33.94,64.978-77.57,78.113-125.768v-96.968C480.81,175.486,474.267,160.5,465.497,146.447z M374.19,427.716
				c-42.355,29.805-94.066,43.846-145.555,43.721c-26.073-0.062-52.097-4.182-77.105-11.471
				c-22.87-6.666-44.191-16.84-62.419-32.326c-26.51-22.523-43.337-54.012-52.007-87.348c-4.551-17.498-6.574-35.625-6.904-53.677
				c-0.168-9.218,0.23-18.433,1.072-27.61c0.404-4.414,0.812-8.816,1.287-13.205c-0.035-0.227-0.048-0.463-0.011-0.719
				c0.304-2.086,0.56-4.191,0.794-6.306c2.676-7.302,2.428-15.367,3.811-23.022c0.751-4.146,1.812-8.217,2.734-12.325
				c0.186-0.827,0.314-1.749,0.445-2.698c0.432-1.03,0.889-2.055,1.39-3.066c0.353-1.437,0.729-2.865,1.118-4.289
				c0.531-0.861,0.754-1.75,0.737-2.609c22.554-77.597,99.003-135.467,177.907-147.928c47.868-7.559,97.334,3.843,140.14,25.494
				c42.576,21.534,82.843,55.684,104.185,99.043C511.8,260.818,452.683,372.484,374.19,427.716z"/>
		</g>
	</g>
	<g>
		<g>
			<path d="M421.917,169.313c-13.84-21.642-32.461-40.936-52.357-57.051c-20.124-16.3-42.854-29.229-67.484-37.302
				c-23.682-7.762-49.285-9.716-73.736-4.699c-12.515,2.568-24.775,6.77-36.58,12.07c-0.259-0.035-0.518-0.057-0.773-0.057h-1
				c-1.658,0-3.363,1.255-4.176,2.84c-0.685,0.332-1.369,0.665-2.049,1.004c0.626,0.871,1.256,1.74,1.887,2.609
				c2.34,9.268,10.316,16.174,15.824,23.65c8.213,11.148,15.436,22.847,22.84,34.564c8.623,13.647,17.293,27.266,26.225,40.715
				c8.801,13.252,18.412,25.927,27.371,39.072c8.823,12.948,16.158,26.996,25.502,39.545c9.058,12.165,19.336,23.383,29.186,34.898
				c9.689,11.331,17.738,23.395,26.215,35.611c3.766,5.426,7.729,10.621,11.299,16.188c3.614,5.637,7.311,11.196,11.961,16.045
				c0.939,0.98,1.971,1.415,2.973,1.456c0.775,0.902,1.533,1.82,2.252,2.771c16.107-18.073,29.521-38.574,39.549-60.403
				c10.385-22.608,16.508-47.154,16.516-72.087C443.366,215.371,435.546,190.625,421.917,169.313z M308.847,256.701
				c-7.295-10.467-13.432-21.799-20.518-32.404c-0.945-1.415-1.904-2.82-2.868-4.222c0.226-0.151,0.45-0.317,0.665-0.513
				c4.33-3.919,8.814-7.657,13.412-11.258c0.473-0.032,0.968-0.133,1.484-0.323c8.742-3.229,15.01,3.3,19.557,10.067
				c2.092,3.115,3.947,6.381,5.529,9.785c0.727,1.562,1.333,3.174,1.896,4.801c0.215,0.655,0.408,1.316,0.582,1.983
				c0.061,0.298-0.135,2.595,0.303,1.419c-0.863,2.323-0.045,4.417,1.408,5.764c-1.002,0.531-2.002,1.07-3.01,1.591
				C320.479,246.909,313.833,250.769,308.847,256.701z M385.069,202.018c0.266,0.266,0.531,0.532,0.799,0.799
				c-12.061,10.37-24.51,20.283-37.967,28.806c-3.051,1.932-6.154,3.789-9.289,5.591c0.994-8.861-5.91-19.052-10.43-25.78
				c-3.936-5.857-9.217-10.718-15.342-12.968c11.24-7.88,22.943-15.126,34.668-22.121c6.33-3.776,15.492-13.317,23.152-7.767
				c8.248,5.977,12.168,16.68,13.946,26.711C383.251,197.179,382.972,199.921,385.069,202.018z M396.985,344.726
				c-3.4,4.844-6.986,9.519-10.71,14.05c-3.269-3.983-5.99-8.452-8.757-12.766c-3.594-5.606-7.648-10.824-11.441-16.291
				c-8.139-11.731-15.916-23.235-25.193-34.138c-8.73-10.26-17.736-20.279-26.066-30.87c0.459-0.278,0.902-0.655,1.309-1.149
				c4.777-5.801,11.51-9.172,18.076-12.562c7.65-3.951,15.104-8.366,22.338-13.035c13.191-8.513,25.347-18.52,37.193-28.811
				c0.12-0.436,0.245-0.871,0.357-1.308c0.648-4.177,1.194-8.363,1.566-12.571h-0.938c-1.971-12.074-6.516-23.827-15.416-32.471
				c-8.281-8.041-17.773-6.845-27.062-1.391c-25.281,14.846-50.549,30.91-72.48,50.529c-5.916-8.312-11.961-16.532-17.666-24.992
				c-8.684-12.879-17.055-25.967-25.371-39.086c-7.555-11.915-14.447-24.625-23.061-35.811c-3.188-4.138-6.236-8.355-9.572-12.396
				c-2.047-2.48-5.104-5.53-7.045-8.745c15.13-6.659,31.107-11.427,47.379-12.968c25.641-2.43,51.314,3.656,74.551,14.278
				c23.93,10.94,45.275,26.974,63.914,45.425c18.46,18.273,35.275,39.557,43.941,64.287
				C443.96,250.822,425.493,304.128,396.985,344.726z"/>
		</g>
	</g>
	<g>
		<g>
			<path d="M340.235,378.043c-10.307-10.238-18.668-22.543-26.721-34.578c-8.5-12.704-18.838-24.48-28.416-36.378
				c-9.668-12.009-19.406-23.961-28.918-36.096c-19.043-24.293-35.85-50.096-53.713-75.24c-18.845-26.529-38.23-52.67-56.953-79.286
				c-0.961-1.366-2.229-1.999-3.518-2.102c-0.234-0.532-0.473-1.063-0.688-1.604c-17.507,13.465-33.426,29.461-45.281,47.953
				c-8.519,13.289-14.396,27.955-18.561,43.131c-0.502,0.777-0.804,1.735-0.783,2.875c0,0.021-0.004,0.043-0.004,0.065
				c-0.866,3.349-1.654,6.718-2.369,10.101c-0.322,0.953-0.631,1.898-0.883,2.828c-0.93,3.426-1.459,6.988-1.93,10.555
				c-0.701,0.64-1.226,1.543-1.404,2.779c-6.492,45.016-4.946,92.992,13.529,135.179c8.607,19.651,21.184,37.527,37.705,51.312
				c17.973,14.996,40.221,23.605,63.018,28.006c48.58,9.377,99.754-2.441,142.639-25.922c7.617-4.17,14.962-8.831,22.031-13.893
				c2.721,1.082,6.039,0.168,6.262-3.513C355.935,393.357,347.384,385.144,340.235,378.043z M244.476,272.199
				c5.781,7.481,11.674,14.873,17.598,22.242c-0.24-0.04-0.488-0.07-0.75-0.088c-2.469-0.17-4.274,1.214-5.185,2.992
				c-1.11,0.547-2.028,1.118-3.065,1.896l-10.5,7.875c-6.162,4.622-12.803,8.639-19.15,13
				c-13.844,9.513-28.311,18.062-42.172,27.542c-1.107-15.041-9.074-27.71-17.689-39.916c11.648-6.24,22.17-14.353,33.068-21.824
				c12.802-8.778,27.15-15.41,38.422-26.286C238.147,263.852,241.272,268.052,244.476,272.199z M167.64,334.145
				c-1.812-0.239-3.867-0.743-5.229-1.63c1.032-1.46,1.846-3.051,2.23-4.621C165.746,329.938,166.757,332.017,167.64,334.145z
				 M343.122,399.31c-19.418,13.941-41.066,24.793-64.432,32.064c-45.542,14.174-100.08,14.106-141.314-12.352
				c-27.656-17.747-44.408-47.867-53.08-78.807c-8.822-31.471-9.332-65.195-5.383-97.57c0.658-0.635,1.145-1.522,1.332-2.691
				c0.637-3.965,1.093-7.998,1.742-11.986c0.529-2.221,1.074-4.438,1.639-6.651c0.271-1.335,0.556-2.669,0.85-3.998
				c0.824-2.72,1.631-5.399,1.986-8.208c4.342-16.543,10.718-32.451,20.396-46.82c9.082-13.48,20.668-25.439,33.398-35.969
				c17.031,24.086,34.523,47.841,51.662,71.85c12.678,17.759,24.768,35.91,37.459,53.641c-0.613,0.239-1.211,0.612-1.766,1.148
				c-10.162,9.834-23.468,15.918-35.139,23.695c-12.748,8.492-24.705,18.549-38.758,24.886c-2.539,1.146-3.355,3.589-2.982,5.763
				c-9.218,0.919-15.602,10.688-10.502,18.316c-0.049,0.941-0.01,1.918,0.148,2.93c1.167,7.483,7.408,12.5,14.283,10.175
				c1.998,2.331,4.857,3.888,7.94,4.769c-1.036,7.275,5.255,15.256,14.151,14.754c1.646-0.093,2.848-0.941,3.615-2.129
				c1.5,1.299,3.668,1.75,5.795,0.288c15.035-10.333,30.684-19.743,45.775-30c6.965-4.733,13.986-9.321,20.725-14.375
				c2.887-2.165,5.668-4.702,8.914-6.273c2.191-1.062,4.968-2.498,5.164-5.279c0.005-0.076,0.002-0.153,0.005-0.23
				c11.079,13.729,22.212,27.417,32.925,41.438c8.838,11.568,16.612,23.853,25.941,35.063c3.725,4.476,7.82,8.496,11.843,12.689
				c2.649,2.761,7.472,7.495,7.964,11.82C344.656,400.609,343.884,399.966,343.122,399.31z M159.95,320.115
				c-0.52-0.079-1.053-0.097-1.589-0.049c-0.003-0.063-0.001-0.126-0.005-0.189c-0.134-1.997-1.479-3.592-3.268-4.287
				c0.346-0.42,0.613-0.896,0.797-1.405C157.274,316.148,158.64,318.122,159.95,320.115z"/>
		</g>
	</g>
	<g>
		<g>
			<path d="M134.563,262.833c-5.842-1.984-12.332-3.129-15.99-8.568c-2.842-4.224,7.668-8.312,10.181-9.399
				c6.892-2.983,15.244-4.292,20.808-9.672c6.479-6.266,3.66-13.84-2.398-19.092c-6.018-5.217-20.074-9.1-21.252-18.048
				c-1-7.604,15.188-10.882,19.215-15.491c4.252-4.866-3.273-11.455-7.514-6.602c-2.256,2.584-6.412,3.693-9.383,5.256
				c-4.467,2.35-7.545,5.117-10.326,9.309c-6.172,9.305,2.309,20.507,10.242,25.216c3.527,2.094,7.16,4.039,10.518,6.406
				c2.656,1.873,6.41,3.955,3.291,6.44c-2.787,2.221-6.476,3.078-9.777,4.246c-3.584,1.269-7.115,2.666-10.527,4.34
				c-5.842,2.867-11.951,6.821-13.406,13.617c-1.514,7.057,4.922,13.981,10.646,16.942c5.383,2.784,11.551,3.877,17.107,6.283
				c6.107,2.644,5.879,4.969,1.615,9.944c-4.201,4.904,3.32,11.498,7.514,6.602c4.662-5.441,7.792-11.676,4.271-18.524
				C146.739,266.871,139.638,264.555,134.563,262.833z"/>
		</g>
	</g>
</g>
</svg>
