<?xml version="1.0" encoding="utf-8"?>
<!-- Generator: Adobe Illustrator 16.0.3, SVG Export Plug-In . SVG Version: 6.00 Build 0)  -->
<!DOCTYPE svg PUBLIC "-//W3C//DTD SVG 1.1//EN" "http://www.w3.org/Graphics/SVG/1.1/DTD/svg11.dtd">
<svg version="1.1" id="Layer_1" xmlns="http://www.w3.org/2000/svg" xmlns:xlink="http://www.w3.org/1999/xlink" x="0px" y="0px"
	 width="512px" height="512px" viewBox="0 0 512 512" enable-background="new 0 0 512 512" xml:space="preserve">
<g>
	<g>
		<g>
			<path fill="#C56528" d="M80.559,391.785c-4.654,0.096-9.322,0.184-13.967,0.094c0.084,7.216,0.91,14.391,1.928,21.536
				c1.047,7.374,2.701,14.88,2.586,22.336c-0.068,4.499-0.918,11.646,2.129,15.411c1.504,1.858,6.195,1.688,10.018,1.403
				C86.197,432.451,80.27,411.99,80.559,391.785z"/>
		</g>
	</g>
	<g>
		<g>
			<path fill="#74CCCF" d="M165.375,280.494c-4.111-2.832-9.037-5.461-11.982-9.623c-4.412-6.234-6.482-13.436-8.518-20.7
				c-2.062-7.349-4.879-13.976-9.379-20.198c-8.295-11.469-20.811-19.326-34.582-22.499c-9.652-2.224-25.158-6.465-33.895,0.071
				c-1.252,0.937-2.512,1.213-3.65,1.031c-0.896,15.348-4.521,30.51-4.596,45.902c-0.037,8.011,1.836,15.923,2.248,23.926
				c0.205,3.959,0.191,7.9-0.135,11.816c20.441-0.639,40.887-1.07,61.332-1.443c-0.871-0.369-1.729-0.744-2.543-1.144
				c-5.734-2.816-11.631-5.892-16.877-9.556c-11.254-7.857-20.826-17.759-31.922-25.812c-5.725-4.158,1.85-12.146,7.523-8.028
				c11.141,8.087,20.516,18.659,32.262,25.897c5.369,3.309,11.076,6.429,16.832,9.019c5.018,2.259,10.508,4.286,14.555,8.153
				c0.369,0.352,0.664,0.723,0.908,1.102c7.086-0.119,14.17-0.238,21.254-0.359c0.672-2.345,2.816-4.256,5.164-4.359
				C168.652,282.623,167.09,281.678,165.375,280.494z"/>
		</g>
	</g>
	<g>
		<g>
			<path fill="#C56528" d="M444.068,388.553c-3.057,0.023-6.133-0.026-9.225-0.059c-0.418-0.006-0.836-0.004-1.254-0.008
				c-0.234,0.674-0.625,1.34-1.207,1.975c0.469-0.512-0.066-0.033-0.283,1.057c-0.238,1.193-0.42,2.379-0.471,3.595
				c-0.152,3.633-0.055,7.27,0.182,10.896c0.469,7.208,1.324,14.374,2.17,21.545c0.725,6.143,0.621,12.557,1.869,18.612
				c1.098,5.317,2.83,8.263,7.365,8.302c1.482-11.159,1.428-22.436,2.299-33.656C446.379,409.654,446.361,399.357,444.068,388.553z"
				/>
		</g>
	</g>
	<g>
		<g>
			<path fill="#D6E5E5" d="M443.977,300.398c-13.199-6.443-28.898-1.696-42.906-2.137c-15.631-0.494-31.275-0.961-46.914-0.773
				c-32.574,0.389-65.148-0.952-97.727-0.486c-32.861,0.467-65.719,1.603-98.584,2.148c-32.805,0.545-65.609,1.071-98.402,2.118
				c-0.279,15.774,0.496,31.418,4.158,46.86c0.199,0.838,0.215,1.619,0.094,2.339l4.139,0.134
				c65.449,2.105,131.09,5.859,196.584,4.893c62.939-0.928,125.867-3.04,188.818-3.277c0.99-1.525,2.596-2.537,4.441-2.327
				C461.383,332.709,460.873,308.647,443.977,300.398z"/>
		</g>
	</g>
	<g>
		<g>
			<path fill="#C56528" d="M484.074,321.736c-2.424-14.377-5.172-28.49-6.189-43.084c-0.842-12.043-0.082-24.245-1.391-36.234
				c-1.012-9.283-3.203-20.821-11.283-26.704c-2.301-1.676-5.24-2.647-7.525-2.328c-0.258,0.036-1.896,0.966-2.283,1.573
				c-6.5,10.2-3.928,27.451-2.564,39.227c1.701,14.658,5.529,28.551,7.908,43.084c0.186,1.121,0.053,2.073-0.297,2.852
				c0.508,0.652,1,1.322,1.465,2.024c10.75,16.237,10.373,38.812,4.756,56.819c-0.9,2.887-3.393,4.089-5.777,3.99
				c-0.438,0.136-0.887,0.217-1.336,0.219c-3.254,0.006-6.506,0.018-9.758,0.045c-64.898,0.549-129.777,2.865-194.67,3.379
				c-32.732,0.26-65.43-1.102-98.139-2.154l-98.58-3.172c-4.891-0.156-6.641-5.483-4.896-8.663
				c-0.166-0.354-0.303-0.745-0.406-1.178c-4.076-17.187-5.014-34.497-4.604-52.069c-0.047-0.445-0.041-0.917,0.037-1.416
				c0.01-0.361,0.016-0.723,0.027-1.084c0.031-1.06,0.309-1.969,0.752-2.73c1.402-8.09,0.84-16.279-0.152-24.445
				c-1.059-8.727-1.561-16.867-0.76-25.657c1.326-14.532,5.264-29.426,3.783-44.069c-0.359-3.543-2.34-21.104-8.691-18.897
				c-8.199,2.849-7.66,15.269-7.535,22.469c0.164,9.46,1.125,18.74,0.896,28.226c-0.373,15.652-1.361,31.283-2.895,46.866
				c-1.518,15.433-3.98,30.721-5.789,46.11c-1.58,13.445-4.189,29.582,3.172,41.898c5.588,9.349,15.771,13.1,26.27,13.791
				c14.479,0.956,29.164,0.081,43.68,0.373c32.545,0.656,65.133,2.293,97.684,1.039c32.441-1.25,64.828-4.111,97.303-4.445
				c16.148-0.166,32.205,0.924,48.338,1.23c16.178,0.308,32.35-0.137,48.52-0.572c16.365-0.44,32.75-0.879,49.119-0.387
				c10.178,0.306,21.184-0.853,29.641-7.068C486.83,359.621,486.859,338.242,484.074,321.736z"/>
		</g>
	</g>
	<g>
		<g>
			<path d="M492.672,308.982c-2.926-15.794-4.156-31.891-4.635-47.928c-0.543-18.164,0.385-40.658-15.303-53.367
				c-5.129-4.156-12.529-6.698-19.027-4.566c-5.707,1.873-8.742,7.152-10.639,12.465c-4.484,12.559-2.555,27.982-1.008,40.904
				c1.383,11.549,4.162,22.689,6.371,34.005c-4.398-2.133-9.254-3.437-14.281-3.985c-7.021-0.769-14.055-0.158-21.062,0.434
				c-7.918,0.668-15.781,0.213-23.717-0.012c-64.871-1.835-129.797-0.752-194.658,0.559c-4.654,0.095-9.311,0.182-13.963,0.266
				c0.648-2.758,0.305-5.688-1.291-8.713c-2.754-5.219-9.1-8.203-13.668-11.519c-6.223-4.513-8.057-12.132-10.021-19.203
				c-2.447-8.815-5.756-16.638-10.961-24.203c-9.539-13.864-24.084-22.493-40.045-26.997c-7.289-2.058-14.994-3.07-22.537-3.514
				c-6.338-0.374-13.531,0.127-19.172,3.393c-1.375-12.881-6.412-27.975-19.725-27.049c-19.861,1.383-18.914,28.296-18.002,42.408
				c1.777,27.508-0.809,55.407-4.184,82.723c-1.807,14.611-4.338,29.117-5.379,43.818c-0.926,13.032,0.885,27.441,9.293,37.947
				c6.834,8.542,17.141,12.586,27.723,14.048c0.939,0.13,1.883,0.24,2.826,0.341c0.008,8.818,1.176,17.561,2.436,26.281
				c0.68,4.694,1.377,9.383,1.957,14.092c0.436,3.543,0.041,7.209,0.166,10.781c0.225,6.418,1.418,14.221,7.234,18.044
				c6.035,3.966,13.926,2.724,20.754,2.847c2.393,0.044,4.639-1.996,5.115-4.273c4.684-22.416-1.99-44.861-1.727-67.371
				c0.812,0.002,1.623,0.007,2.432,0.018c32.543,0.436,65.066,2.113,97.621,1.404c32.498-0.708,64.9-3.746,97.4-4.541
				c16.172-0.396,32.24,0.207,48.393,0.865c16.141,0.658,32.311,0.287,48.453-0.134c11.855-0.31,23.713-0.657,35.572-0.758
				c-1.426,5.008-0.922,11.04-0.723,15.685c0.373,8.73,1.568,17.4,2.553,26.076c0.926,8.157,0.553,17.002,3.736,24.707
				c4.02,9.731,13.201,11.613,22.713,9.656c1.762-0.361,3.422-2.291,3.711-4.025c2.219-13.314,2.168-26.84,3.102-40.273
				c0.434-6.232,1.096-12.236,0.693-18.504c-0.297-4.645-1.027-9.285-1.998-13.861c5.023-0.584,9.975-1.696,14.832-3.787
				c17.842-7.676,25.385-25.105,26.336-43.564C496.926,329.82,494.619,319.494,492.672,308.982z M256.43,297.002
				c32.578-0.466,65.152,0.875,97.727,0.486c15.639-0.188,31.283,0.279,46.914,0.773c14.008,0.44,29.707-4.307,42.906,2.137
				c16.896,8.249,17.406,32.311,13.701,49.491c-1.846-0.21-3.451,0.802-4.441,2.327c-62.951,0.237-125.879,2.35-188.818,3.277
				c-65.494,0.967-131.135-2.787-196.584-4.893l-4.139-0.134c0.121-0.72,0.105-1.501-0.094-2.339
				c-3.662-15.442-4.438-31.086-4.158-46.86c32.793-1.047,65.598-1.573,98.402-2.118
				C190.711,298.604,223.568,297.469,256.43,297.002z M63.369,208.576c1.139,0.182,2.398-0.095,3.65-1.031
				c8.736-6.536,24.242-2.295,33.895-0.071c13.771,3.173,26.287,11.03,34.582,22.499c4.5,6.223,7.316,12.85,9.379,20.198
				c2.035,7.265,4.105,14.466,8.518,20.7c2.945,4.162,7.871,6.791,11.982,9.623c1.715,1.184,3.277,2.129,4,3.195
				c-2.348,0.104-4.492,2.015-5.164,4.359c-7.084,0.121-14.168,0.24-21.254,0.359c-0.244-0.379-0.539-0.75-0.908-1.102
				c-4.047-3.867-9.537-5.895-14.555-8.153c-5.756-2.59-11.463-5.71-16.832-9.019c-11.746-7.238-21.121-17.811-32.262-25.897
				c-5.674-4.118-13.248,3.87-7.523,8.028c11.096,8.054,20.668,17.955,31.922,25.812c5.246,3.664,11.143,6.739,16.877,9.556
				c0.814,0.399,1.672,0.774,2.543,1.144c-20.445,0.373-40.891,0.805-61.332,1.443c0.326-3.916,0.34-7.857,0.135-11.816
				c-0.412-8.003-2.285-15.915-2.248-23.926C58.848,239.086,62.473,223.924,63.369,208.576z M83.252,452.565
				c-3.822,0.284-8.514,0.455-10.018-1.403c-3.047-3.766-2.197-10.912-2.129-15.411c0.115-7.456-1.539-14.962-2.586-22.336
				c-1.018-7.146-1.844-14.32-1.928-21.536c4.645,0.09,9.312,0.002,13.967-0.094C80.27,411.99,86.197,432.451,83.252,452.565z
				 M445.514,420.811c-0.871,11.221-0.816,22.497-2.299,33.656c-4.535-0.039-6.268-2.984-7.365-8.302
				c-1.248-6.056-1.145-12.47-1.869-18.612c-0.846-7.171-1.701-14.337-2.17-21.545c-0.236-3.626-0.334-7.263-0.182-10.896
				c0.051-1.216,0.232-2.401,0.471-3.595c0.217-1.09,0.752-1.568,0.283-1.057c0.582-0.635,0.973-1.301,1.207-1.975
				c0.418,0.004,0.836,0.002,1.254,0.008c3.092,0.032,6.168,0.082,9.225,0.059C446.361,399.357,446.379,409.654,445.514,420.811z
				 M471.902,370.592c-8.457,6.216-19.463,7.374-29.641,7.068c-16.369-0.492-32.754-0.054-49.119,0.387
				c-16.17,0.436-32.342,0.88-48.52,0.572c-16.133-0.307-32.189-1.396-48.338-1.23c-32.475,0.334-64.861,3.195-97.303,4.445
				c-32.551,1.254-65.139-0.383-97.684-1.039c-14.516-0.292-29.201,0.583-43.68-0.373c-10.498-0.691-20.682-4.442-26.27-13.791
				c-7.361-12.316-4.752-28.453-3.172-41.898c1.809-15.39,4.271-30.678,5.789-46.11c1.533-15.583,2.521-31.214,2.895-46.866
				c0.229-9.485-0.732-18.766-0.896-28.226c-0.125-7.2-0.664-19.62,7.535-22.469c6.352-2.206,8.332,15.354,8.691,18.897
				c1.48,14.644-2.457,29.537-3.783,44.069c-0.801,8.79-0.299,16.931,0.76,25.657c0.992,8.166,1.555,16.355,0.152,24.445
				c-0.443,0.762-0.721,1.671-0.752,2.73c-0.012,0.361-0.018,0.723-0.027,1.084c-0.078,0.499-0.084,0.971-0.037,1.416
				c-0.41,17.572,0.527,34.883,4.604,52.069c0.104,0.433,0.24,0.824,0.406,1.178c-1.744,3.18,0.006,8.507,4.896,8.663l98.58,3.172
				c32.709,1.053,65.406,2.414,98.139,2.154c64.893-0.514,129.771-2.83,194.67-3.379c3.252-0.027,6.504-0.039,9.758-0.045
				c0.449-0.002,0.898-0.083,1.336-0.219c2.385,0.099,4.877-1.104,5.777-3.99c5.617-18.007,5.994-40.582-4.756-56.819
				c-0.465-0.702-0.957-1.372-1.465-2.024c0.35-0.778,0.482-1.73,0.297-2.852c-2.379-14.533-6.207-28.426-7.908-43.084
				c-1.363-11.775-3.936-29.026,2.564-39.227c0.387-0.607,2.025-1.537,2.283-1.573c2.285-0.319,5.225,0.652,7.525,2.328
				c8.08,5.883,10.271,17.421,11.283,26.704c1.309,11.989,0.549,24.191,1.391,36.234c1.018,14.594,3.766,28.707,6.189,43.084
				C486.859,338.242,486.83,359.621,471.902,370.592z"/>
		</g>
	</g>
	<g>
		<g>
			<path d="M238.908,212.693c-7.854,0.07-15.818,1.085-23.643,0.428c2.494-2.246,5.697-4.124,7.822-5.783
				c4.979-3.887,9.717-8.579,10.643-15.111c0.525-3.696-2.137-6.568-5.822-6.533c-13.732,0.129-27.268,2.869-41,3
				c-7.09,0.066-6.219,11.037,0.848,10.969c10.271-0.097,20.432-1.653,30.646-2.486c-1.98,1.709-4.254,3.177-6.094,4.574
				c-5.055,3.839-9.758,8.016-11.375,14.379c-0.779,3.062,1.588,5.698,4.35,6.447c11.248,3.055,23.002,1.189,34.473,1.086
				C246.846,223.6,245.975,212.629,238.908,212.693z"/>
		</g>
	</g>
	<g>
		<g>
			<path d="M320.514,157.986c-8.26,1.761-16.582,3.199-24.99,4.016c-6.377,0.619-13.312,1.022-19.801-0.147
				c3.637-4.913,8.404-9.181,12.117-13.892c5.514-6.994,8.693-14.697,6.684-23.604c-0.582-2.576-3.344-3.553-5.615-3.666
				c-15.662-0.789-30.768,2.916-46,6c-6.85,1.387-6.105,12.377,0.848,10.969c13.443-2.721,26.787-5.92,40.502-6.095
				c-0.77,5.357-5.516,10.315-8.795,14.038c-4.721,5.359-10.084,10.516-13.059,17.125c-1.131,2.516-0.402,6.291,2.48,7.375
				c18.699,7.024,40.389,2.288,59.266-1.736C331.068,166.895,327.367,156.525,320.514,157.986z"/>
		</g>
	</g>
	<g>
		<g>
			<path d="M439.281,112.369c-1.486-0.612-2.779-0.649-4.373-0.676c-1.217-0.021-2.193,0.291-2.949,0.814
				c-0.574,0.059-1.146,0.125-1.723,0.17c-4.369,0.34-8.727,1.052-13.096,1.475c-7.371,0.713-14.766,0.903-22.145,1.643
				c-10.912,1.094-24.674,3.398-35.766-0.16c7.041-11.086,16.035-20.867,23.029-32.01c5.848-9.32,14.766-19.219,16.471-30.398
				c0.568-3.721-2.17-6.534-5.822-6.533c-25.471,0-52.064-0.305-76.395,8.293c-6.682,2.361-3.066,12.752,3.637,10.383
				c20.836-7.362,43.551-7.721,65.57-7.713c-1.324,2.644-3.006,5.146-4.598,7.563c-3.279,4.981-6.488,9.958-9.654,15.002
				c-7.721,12.302-18,22.739-25.064,35.509c-1.52,2.746-0.021,5.928,2.48,7.375c13.57,7.842,32.127,5.127,46.957,3.66
				c8.576-0.85,17.174-1.107,25.74-2.006c3.83-0.402,7.646-0.898,11.477-1.295c2.299-0.238,4.838-0.386,6.852-1.609
				C443.311,119.788,443.059,113.923,439.281,112.369z"/>
		</g>
	</g>
</g>
</svg>
