<?xml version="1.0" encoding="utf-8"?>
<!-- Generator: Adobe Illustrator 16.0.3, SVG Export Plug-In . SVG Version: 6.00 Build 0)  -->
<!DOCTYPE svg PUBLIC "-//W3C//DTD SVG 1.1//EN" "http://www.w3.org/Graphics/SVG/1.1/DTD/svg11.dtd">
<svg version="1.1" id="Layer_1" xmlns="http://www.w3.org/2000/svg" xmlns:xlink="http://www.w3.org/1999/xlink" x="0px" y="0px"
	 width="512px" height="512px" viewBox="0 0 512 512" enable-background="new 0 0 512 512" xml:space="preserve">
<g>
	<g>
		<g>
			<path fill="#3AB37C" d="M473.512,302.735c-1.491-19.117-4.085-38.115-6.793-57.09c-1.041-7.301-0.968-14.404-0.942-21.762
				c0.02-5.484,0.19-11.309-1.622-16.555c-0.184,3.975-4.815,5.307-7.725,3.557c-0.472-0.086-0.946-0.158-1.424-0.209
				c-0.554-0.059-1.109-0.102-1.666-0.141c-0.337-0.01-1.61-0.068-1.881-0.076c-4.875-0.129-9.757-0.041-14.632,0.098
				c-14.639,0.416-29.267,1.264-43.881,2.184c-32.714,2.061-65.398,4.604-98.066,7.287c-39.795,3.268-79.638,6.635-119.293,11.285
				c-15.656,1.836-31.352,3.795-46.847,6.719c-11.942,2.254-23.922,4.402-36.002,5.779c-22.948,2.619-48.136,3.668-69.747-5.836
				c-0.373,10.547,2.74,20.84,4.99,31.049c2.255,10.234,3.479,20.656,5.072,31.01c3.314,21.541,7.521,43.096,8.461,64.904
				c0.453,10.521,0.56,21.076,1.447,31.574c0.436,5.164,1.126,10.268,1.857,15.396c0.5,3.498,0.76,7.877,2.785,10.912
				c4.13,6.191,13.413,5.797,20.052,5.744c8.538-0.068,17.038-0.135,25.58,0c65.735,1.045,131.516,1.086,197.214-1.635
				c31.837-1.318,63.881-2.496,95.325-8.02c15.602-2.742,30.86-7.168,46.638-8.891c13.371-1.461,26.813-1.652,40.175-0.271
				c1.303-17.438,1.927-34.922,2.031-52.408C474.727,339.208,474.922,320.825,473.512,302.735z M95.148,309.934
				c0.212,17.271,5.923,33.861,7.5,50.996c0.592,6.438-9.383,7.178-9.973,0.77c-0.941-10.227-3.35-20.26-5.188-30.361
				c-2.871,5.098-5.82,10.191-7.416,15.932c-1.715,6.17-11.544,4.311-9.816-1.908c1.791-6.441,4.995-12.104,8.269-17.885
				c2.897-5.113,6.424-10.725,6.652-16.773C85.413,304.401,95.068,303.391,95.148,309.934z M46.444,292.473
				c-1.945-5.535-4.458-10.822-6-16.5c-0.693-2.553,0.33-5.523,3.066-6.373c14.217-4.412,29.485-2.223,43.498-7.5
				c6.053-2.279,9.328,7.172,3.307,9.439c-12.549,4.727-25.965,3.502-38.77,6.277c1.38,3.805,2.992,7.52,4.338,11.35
				C58.026,295.262,48.581,298.551,46.444,292.473z M102.708,414.221c-9.757-3.027-20.565-2.828-30.391-0.188
				c-2.963,0.795-6.543-0.906-6.64-4.336c-0.173-6.127-2.359-12.02-4.001-17.867c-1.167-4.156-2.971-9.111-1.92-13.471
				c1.506-6.248,11.329-4.367,9.816,1.908c-0.904,3.75,1.94,9.576,2.977,13.223c0.908,3.191,1.853,6.449,2.46,9.748
				c9.785-1.816,20.14-1.77,29.607,1.166C110.706,406.295,108.863,416.131,102.708,414.221z M140.969,336.79
				c-0.345,9.172-5.362,22.127-17.047,19.545c-11.524-2.547-15.153-15.842-14.747-26.133c0.011-0.279,0.047-0.543,0.093-0.801
				c-1.732-5.705-2.586-12.059,0.967-17.242c2.642-3.855,7.889-5.377,12.338-4.291C135.251,310.961,141.426,324.647,140.969,336.79z
				 M165.915,342.118c-8.838,7.906-20.184,2.9-20.742-8.916c-0.305-6.439,9.668-7.209,9.973-0.77
				c0.062,1.318,0.31,5.152,2.621,3.516c2.05-1.451,2.524-4.041,2.784-6.42c0.621-5.688-0.082-11.629-1.199-17.221
				c-0.574-2.873-1.342-6.162-2.961-8.641c-0.283-0.434-0.617-1.061-1.05-1.484c-3.184,3.633-3.517,9.162-3.193,13.752
				c0.455,6.441-9.52,7.195-9.973,0.77c-0.573-8.115,1.197-21.809,10.765-24.398c10.666-2.887,14.955,11.586,16.386,19.232
				C170.926,320.098,173.413,335.413,165.915,342.118z M318.462,384c-10.827,19.057-29.783,32.934-52.459,31.963
				c-21.773-0.93-42.157-11.928-54.232-30.174c-5.824-8.799-10.078-18.623-12.989-28.75c-3.147-10.949-6.299-21.99-8.974-33.066
				c-5.508-22.812-10.299-49.459,0.869-71.377c0.942-1.85,2.513-2.631,4.111-2.662c1.847-2.504,3.887-4.895,5.611-7.414
				c1.344-1.965,4.304-2.092,6.27-1.004c19.668-18.332,61.143,0.209,79.171,13.234C324.799,282.899,343.111,340.614,318.462,384z
				 M373.347,354.573c-4.964-3.857-7.298-10.402-8.439-17.064c-3.632,1.193-8.442-2.457-6.238-6.916
				c1.84-3.721,3.552-7.496,5.026-11.34c-0.025-8.834,0.705-18.111,3.973-26.158c0.604-1.488,2.486-2.762,4.094-2.762h1.5
				c2.523,0,5.413,1.73,5.371,4.602c-0.131,9.082-2,17.666-4.953,25.979c0.017,0.779,0.037,1.551,0.061,2.305
				c0.224,6.941,0.049,19.057,6.207,23.842C385.042,351.018,378.425,358.52,373.347,354.573z M406.101,234.915
				c10.015,1.428,20.026,2.832,30.16,2.92c2.576,0.023,5.343,1.711,5.371,4.602c0.094,9.521,1.406,18.979,1.5,28.5
				c0.063,6.424-9.909,7.215-9.973,0.77c-0.08-8.037-1.019-16.027-1.369-24.049c-9.25-0.412-18.422-1.617-27.597-2.926
				C397.801,243.819,399.74,234.006,406.101,234.915z M449.131,387.93c0,2.541-1.729,5.389-4.602,5.371
				c-10.986-0.068-22.465-1.586-33.23,1.232c-6.207,1.625-9.543-7.807-3.307-9.439c10.271-2.688,20.693-2.086,31.166-1.84v-26.053
				c0-6.418,9.973-7.215,9.973-0.77V387.93z M438.298,342.038c-2.458,1.193-5.548-0.719-6.373-3.066
				c-0.982-2.795,0.62-5.186,3.066-6.373c-0.83,0.402,1.068-0.666,1.395-0.906c0.217-0.162,0.427-0.332,0.638-0.5
				c0.044-0.043,0.091-0.09,0.168-0.162c0.402-0.418,0.781-0.859,1.13-1.324c0.086-0.182,0.548-0.951,0.639-1.146
				c0.145-0.314,0.289-0.629,0.41-0.953c0.008-0.033,0.016-0.062,0.027-0.105c0.152-0.576,0.29-1.158,0.376-1.748
				c0.053-0.357,0.104-0.717,0.135-1.076c0-0.004,0-0.006,0.001-0.01c0-0.035,0-0.066,0-0.109c0.004-0.617-0.004-1.234-0.055-1.85
				c-0.061-0.75-0.142-1.498-0.273-2.238c-0.045-0.254-0.068-0.398-0.08-0.48c-0.024-0.078-0.066-0.223-0.135-0.48
				c-0.363-1.354-0.802-2.688-1.354-3.977c-0.149-0.35-0.299-0.699-0.461-1.043c-0.05-0.105-0.083-0.176-0.108-0.232
				c-0.287-0.535-0.579-1.068-0.897-1.586c-0.622-1.008-1.285-1.994-2.035-2.912c-0.066-0.08-0.222-0.256-0.337-0.387
				c-0.122-0.129-0.241-0.262-0.367-0.387c-0.37-0.365-0.746-0.727-1.147-1.057c-0.22-0.182-0.44-0.361-0.669-0.531
				c-0.347-0.205-0.699-0.402-1.07-0.561c-0.047-0.021-0.081-0.035-0.117-0.053c-0.057-0.008-0.128-0.02-0.204-0.031
				c-0.116,0.123-0.268,0.279-0.406,0.43c-0.151,0.27-0.447,0.766-0.528,0.943c-0.151,0.336-0.3,0.672-0.426,1.018
				c-0.006,0.018-0.01,0.025-0.015,0.041c-0.016,0.064-0.036,0.139-0.063,0.238c-0.203,0.746-0.388,1.498-0.525,2.26
				c-0.801,4.434-0.74,8.707-0.504,13.25c0.179,3.455-2.607,5.275-5.281,5.229c-1.515,9.07-6.322,18.395-16.687,18.232
				c-12.224-0.191-21.126-14.182-19.425-25.529c0.419-2.799,2.541-3.998,4.711-3.928c0.906-9.57,4.288-22.566,14.998-21.584
				c5.682,0.521,9.974,4.844,12.818,10.236c1.144-4.48,3.354-8.48,7.72-10.199c6.299-2.479,12.402,2.342,16.031,7.049
				c4.037,5.234,6.913,12.303,6.869,18.98C449.83,331.797,445.864,338.362,438.298,342.038z"/>
		</g>
	</g>
	<g>
		<g>
			<path fill="#71C598" d="M199.948,218.661c1.406-0.143,2.808-0.297,4.215-0.434c18.253-1.775,36.51-3.486,54.774-5.121
				C254.01,185.594,196.109,188.907,199.948,218.661z"/>
		</g>
	</g>
	<g>
		<g>
			<path fill="#3AB37C" d="M236.015,298.559c-1.914,4.846-3.141,10.592-1.323,15.568c1.225,3.355,4.122,6.348,7.556,8.018
				C240.013,314.319,237.699,306.485,236.015,298.559z"/>
		</g>
	</g>
	<g>
		<g>
			<path fill="#3AB37C" d="M413.362,322.686c-0.201-2.645-0.468-5.732-1.861-8.072c-1.301-2.186-2.637-4.701-4.626-6.357
				c-0.702-0.584-1.552-0.748-1.31-0.965c-4.077,1.947-4.385,12.604-4.432,16.141c-0.038,2.846-2.028,4.584-4.22,5.074
				c1.333,5.15,5.693,11.738,10.527,9.809C412.987,336.1,413.751,327.797,413.362,322.686z"/>
		</g>
	</g>
	<g>
		<g>
			<path fill="#3AB37C" d="M272.22,367.497c-2.383-9.789-5.558-19.373-8.097-29.127c-0.655-2.518-1.265-5.049-1.852-7.586
				c-2.297,0.613-4.589,1.34-6.893,1.902c2.533,10.713,3.254,22.098,5.823,32.902c1.882,0.387,3.438,1.797,3.438,4.342v1.221
				C267.364,370.594,269.961,369.29,272.22,367.497z"/>
		</g>
	</g>
	<g>
		<g>
			<path fill="#71C598" d="M319.505,338.803c-0.568-25.885-11.532-51.615-30.929-69.033c-12.516-11.238-28.343-19.502-44.706-23.469
				c-14.551-3.527-32.456-3.842-36.306,13.975c-0.779,3.605-4.333,4.518-6.971,3.459c-0.614,0.357-1.307,0.572-2.052,0.572h-1.864
				c-5.115,16.035-2.371,34.516,1.201,50.473c2.072,9.258,4.621,18.389,7.294,27.488c2.344,7.975,4.085,16.018,7.331,23.717
				c6.202,14.709,16.231,27.908,31.127,34.559c16.161,7.215,35.49,7.912,50.241-2.951
				C311.721,384.444,319.979,360.381,319.505,338.803z M283.128,370.731c0.917,0.488,1.715,1.279,2.244,2.432
				c1.382,3.01,0.395,7.053-2.957,8.23c-3.917,1.377-6.444-0.799-7.747-3.812c-2.206,1.262-4.56,2.24-7.029,2.873v2.977
				c0,4.494-6.556,8.002-9.131,3.18c-8.738-16.359-8.615-34.719-12.97-52.314c-0.087-0.354-0.183-0.705-0.272-1.059
				c-0.022-0.006-0.044-0.006-0.066-0.012c-6.902-1.494-14.103-4.844-17.779-11.223c-6.855-11.896-2.864-28.258,6.282-39.812
				c-0.172-2.973-0.208-5.965-0.034-8.984c0.364-6.35,10.34-7.184,9.973-0.77c-0.012,0.205-0.008,0.408-0.019,0.611
				c1.461-0.943,2.977-1.764,4.531-2.455c-0.24-0.707-0.47-1.416-0.719-2.119c-2.164-6.09,7.282-9.377,9.439-3.307
				c0.359,1.012,0.703,2.027,1.039,3.045c3.275-0.15,6.623,0.342,9.966,1.629c6.01,2.316,1.525,11.262-4.449,8.959
				c-0.871-0.336-1.739-0.566-2.604-0.707c3.571,13.504,5.802,27.363,9.143,40.928c0.042,0.172,0.083,0.344,0.125,0.518
				c1.605-0.008,3.202,0.15,4.782,0.57c8.445,2.246,11.771,13.66,13.46,21.051c2.142,9.375,2.762,17.697-2.765,26.062
				c-0.766,1.16-1.598,2.264-2.485,3.309C283.1,370.596,283.114,370.663,283.128,370.731z"/>
		</g>
	</g>
	<g>
		<g>
			<path fill="#3AB37C" d="M251.096,280.125c-2.545,1.428-4.92,3.43-7.019,5.699c1.411,12.607,5.341,24.822,8.762,37.117
				c2.422-0.477,4.87-1.16,7.324-1.791C257.308,307.436,254.861,293.588,251.096,280.125z"/>
		</g>
	</g>
	<g>
		<g>
			<path fill="#3AB37C" d="M480.487,206.348c-9.45-15.434-22.448-28.076-34.815-41.133c-25.094-26.494-52.326-51.238-74.479-80.348
				c-23.207,17.891-46.177,35.477-72.416,48.91c-27.062,13.854-55.636,24.113-83.271,36.68
				c-29.622,13.469-59.234,26.984-88.389,41.447c-7.046,3.494-13.694,7.621-20.975,10.668c-6.544,2.738-13.227,5.094-19.952,7.342
				c-4.734,1.584-9.512,3.672-14.348,5.658c14.294-0.447,28.638-2.621,42.494-5.029c25.176-4.377,50.323-8.031,75.681-10.834
				c-6.571-42.5,72.66-48.09,78.9-7.48c12.537-1.102,25.076-2.176,37.621-3.186c6.443-0.518,12.888-1.031,19.333-1.537
				c-3.373-4.256-6.331-9.076-8.542-14.178c-3.271,3.387-10.337,1.305-8.585-3.959c1.651-4.959,3.202-9.934,4.5-14.998
				c1.344-5.248,9.737-5.326,9.895,0.568c0.284,10.637,6.003,22.037,13.314,29.627c0.608,0.631,1.003,1.318,1.232,2.021
				c23.028-1.77,46.068-3.402,69.125-4.693c12.911-0.721,25.856-1.461,38.792-1.467c4.323-0.002,13.959-1.092,17.358,3.111
				c-0.093-4.576,7.566-6.508,9.904-1.369c2.934,6.449,2.949,13.99,2.887,20.943c-0.061,6.713-0.081,13.23,0.704,19.863
				c4.704-3.627,11.45-8.199,12.391-13.684C490.14,221.747,484.252,212.495,480.487,206.348z M342.893,119.528
				c3.405-4.611,8.599-7.396,12-12c1.988-2.693,6.141-1.918,7.901,0.504c7.897,10.869,17.511,20.279,27.654,29.039
				c4.879,4.213-1.713,11.734-6.602,7.514c-9.224-7.965-18-16.527-25.599-26.064c-2.721,2.43-5.651,4.643-7.842,7.609
				C346.577,131.315,339.083,124.686,342.893,119.528z M364.338,201.663c-3.397,2.744-8,2.188-11.486-0.059
				c-6.016-3.875-10.807-11.092-12.96-18.457c-2.146-0.203-4.102-1.639-4.229-4.438c-0.457-10.104,5.501-20.09,16.898-16.395
				c9.257,3.002,17.121,12.736,17.127,22.68C369.691,190.655,369.09,197.823,364.338,201.663z M389.605,191.227
				c-7.677,1.727-14.241-2.471-18.603-8.605c-3.744-5.266,4.556-10.844,8.29-5.592c0.758,1.066,5.73,6.729,7.579,4.566
				c2.519-2.945,1.341-8.916-0.653-11.887c-4.642-6.912-14.466-9.506-21.774-5.238c-5.544,3.238-11.171-5.031-5.592-8.291
				c14.257-8.326,34.927-1.623,38.68,15.346C398.999,178.159,397.872,189.368,389.605,191.227z M440.029,196.811
				c-2.617,0.199-5.292-1.877-5.371-4.602c-0.081-2.814-1.673-6.109-2.733-9.23c-2.076-6.117,7.367-9.41,9.439-3.307
				c1.295,3.814,3.148,7.672,3.266,11.768C444.71,194.161,442.842,196.596,440.029,196.811z"/>
		</g>
	</g>
	<g>
		<g>
			<path fill="#3AB37C" d="M279.909,351.188c-0.49-4.492-2.227-18.854-7.338-21.266c1.403,5.932,2.834,11.85,4.552,17.74
				c0.832,2.855,1.65,5.711,2.439,8.574C279.955,354.563,280.092,352.86,279.909,351.188z"/>
		</g>
	</g>
	<g>
		<g>
			<path fill="#3AB37C" d="M121.804,318.047c-0.922-0.381-2.011-0.561-2.653-0.475c-0.77,0.104-0.647,0.084-1.091,0.732
				c-1.021,1.49,0.1,6.078,0.821,8.359c0.225,0.711,0.292,1.383,0.241,2.01c0.023,0.242,0.037,0.492,0.026,0.758
				c-0.227,5.756,0.517,15.016,6.484,17.098c-0.23-0.08,1.259-0.014,0.989,0.066c0.987-0.297,1.217-0.33,1.801-0.994
				c1.702-1.936,2.365-4.766,2.554-7.506C131.477,330.844,129.297,321.139,121.804,318.047z"/>
		</g>
	</g>
	<g>
		<g>
			<path fill="#3AB37C" d="M359.715,185.764c-0.31-5.582-3.704-11.178-8.943-13.488c-1.521-0.672-2.612-0.783-3.393-0.482
				c0.734,0.732,1.219,1.773,1.257,3.146c0.159,5.775,3.197,12.387,7.361,16.41c0.752,0.727,1.521,1.559,2.486,2.006
				c0.044,0.02,0.067,0.029,0.105,0.047C359.681,191.852,359.806,187.405,359.715,185.764z"/>
		</g>
	</g>
	<g>
		<g>
			<path fill="#010101" d="M496.223,215.555c-7.066-17.863-19.731-32.676-33.029-46.223c-14.812-15.09-29.322-30.5-44.14-45.598
				c-15.146-15.434-29.962-31.23-42.761-48.701c-1.531-2.09-4.721-3.059-6.941-1.35c-24.029,18.52-47.574,36.803-74.539,50.959
				c-26.69,14.012-55.221,23.92-82.614,36.375c-29.027,13.195-58.02,26.473-86.621,40.572c-6.581,3.244-12.859,7.045-19.515,10.125
				c-6.423,2.971-13.123,5.334-19.812,7.623c-6.279,2.152-12.519,4.182-18.647,6.746c-6.374,2.664-12.822,5.531-19.825,5.752
				c-1.78,0.057-3.006,0.859-3.717,1.984c-1.68-0.293-3.355-0.617-5.022-0.99c-4.918-1.102-9.62-2.787-14.15-4.988
				c-3.021-1.467-5.666,0.256-6.699,2.641c-2.353-0.332-4.713,0.812-4.934,3.885c-1.083,15.098,3.755,29.109,6.456,43.766
				c2.925,15.879,4.809,32.053,7.266,48.02c2.415,15.697,4.283,31.115,4.853,47c0.529,14.734,1.26,29.314,3.681,43.879
				c1.984,11.939,8.609,19.066,20.653,20.857c11.662,1.732,24.089,0.422,35.848,0.617c33.005,0.545,66.015,0.811,99.024,0.631
				c48.317-0.264,96.693-1.418,144.92-4.492c23.154-1.477,46.142-4.414,68.816-9.369c23.717-5.182,47.148-8.367,71.416-5.055
				c2.465,0.336,5.631-1.125,5.862-3.953c3.057-37.357,3.109-74.902,1.578-112.334c-0.681-16.658-3.175-33.373-5.609-49.924
				c0.635-0.16,1.282-0.492,1.919-1.043c5.567-4.822,12.335-9.281,16.235-15.682C500.443,230.28,499.095,222.813,496.223,215.555z
				 M474.618,357.34c-0.104,17.486-0.729,34.971-2.031,52.408c-13.362-1.381-26.805-1.189-40.175,0.271
				c-15.778,1.723-31.036,6.148-46.638,8.891c-31.444,5.523-63.488,6.701-95.325,8.02c-65.698,2.721-131.479,2.68-197.214,1.635
				c-8.542-0.135-17.042-0.068-25.58,0c-6.639,0.053-15.922,0.447-20.052-5.744c-2.025-3.035-2.286-7.414-2.785-10.912
				c-0.731-5.129-1.421-10.232-1.857-15.396c-0.888-10.498-0.994-21.053-1.447-31.574c-0.939-21.809-5.147-43.363-8.461-64.904
				c-1.593-10.354-2.816-20.775-5.072-31.01c-2.25-10.209-5.363-20.502-4.99-31.049c21.611,9.504,46.799,8.455,69.747,5.836
				c12.08-1.377,24.061-3.525,36.002-5.779c15.495-2.924,31.191-4.883,46.847-6.719c39.656-4.65,79.499-8.018,119.293-11.285
				c32.668-2.684,65.352-5.227,98.066-7.287c14.615-0.92,29.242-1.768,43.881-2.184c4.875-0.139,9.757-0.227,14.632-0.098
				c0.271,0.008,1.544,0.066,1.881,0.076c0.557,0.039,1.112,0.082,1.666,0.141c0.478,0.051,0.952,0.123,1.424,0.209
				c2.909,1.75,7.541,0.418,7.725-3.557c1.812,5.246,1.642,11.07,1.622,16.555c-0.025,7.357-0.099,14.461,0.942,21.762
				c2.708,18.975,5.302,37.973,6.793,57.09C474.922,320.825,474.727,339.208,474.618,357.34z M258.938,213.106
				c-18.264,1.635-36.521,3.346-54.774,5.121c-1.407,0.137-2.81,0.291-4.215,0.434C196.109,188.907,254.01,185.594,258.938,213.106z
				 M488.845,229.293c-0.94,5.484-7.687,10.057-12.391,13.684c-0.785-6.633-0.765-13.15-0.704-19.863
				c0.062-6.953,0.047-14.494-2.887-20.943c-2.338-5.139-9.997-3.207-9.904,1.369c-3.399-4.203-13.035-3.113-17.358-3.111
				c-12.936,0.006-25.881,0.746-38.792,1.467c-23.058,1.291-46.098,2.924-69.125,4.693c-0.229-0.703-0.624-1.391-1.232-2.021
				c-7.311-7.59-13.03-18.99-13.314-29.627c-0.157-5.895-8.55-5.816-9.895-0.568c-1.298,5.064-2.849,10.039-4.5,14.998
				c-1.752,5.264,5.315,7.346,8.585,3.959c2.212,5.102,5.169,9.922,8.542,14.178c-6.445,0.506-12.89,1.02-19.333,1.537
				c-12.545,1.01-25.084,2.084-37.621,3.186c-6.24-40.609-85.471-35.02-78.9,7.48c-25.358,2.803-50.505,6.457-75.681,10.834
				c-13.856,2.408-28.2,4.582-42.494,5.029c4.836-1.986,9.614-4.074,14.348-5.658c6.726-2.248,13.408-4.604,19.952-7.342
				c7.281-3.047,13.929-7.174,20.975-10.668c29.155-14.463,58.767-27.979,88.389-41.447c27.634-12.566,56.208-22.826,83.271-36.68
				c26.239-13.434,49.209-31.02,72.416-48.91c22.154,29.109,49.385,53.854,74.479,80.348c12.367,13.057,25.365,25.699,34.815,41.133
				C484.252,212.495,490.14,221.747,488.845,229.293z"/>
		</g>
	</g>
	<g>
		<g>
			<path fill="#010101" d="M285.841,254.75c-18.029-13.025-59.503-31.566-79.171-13.234c-1.966-1.088-4.925-0.961-6.27,1.004
				c-1.724,2.52-3.764,4.91-5.611,7.414c-1.598,0.031-3.168,0.812-4.111,2.662c-11.168,21.918-6.377,48.564-0.869,71.377
				c2.674,11.076,5.826,22.117,8.974,33.066c2.911,10.127,7.165,19.951,12.989,28.75c12.075,18.246,32.458,29.244,54.232,30.174
				c22.676,0.971,41.632-12.906,52.459-31.963C343.111,340.614,324.799,282.899,285.841,254.75z M293.871,397.592
				c-14.75,10.863-34.08,10.166-50.241,2.951c-14.896-6.65-24.925-19.85-31.127-34.559c-3.246-7.699-4.987-15.742-7.331-23.717
				c-2.673-9.1-5.222-18.23-7.294-27.488c-3.572-15.957-6.315-34.438-1.201-50.473h1.864c0.745,0,1.438-0.215,2.052-0.572
				c2.639,1.059,6.192,0.146,6.971-3.459c3.85-17.816,21.754-17.502,36.306-13.975c16.363,3.967,32.19,12.23,44.706,23.469
				c19.396,17.418,30.361,43.148,30.929,69.033C319.979,360.381,311.721,384.444,293.871,397.592z"/>
		</g>
	</g>
	<g>
		<g>
			<path fill="#010101" d="M283.128,370.731c-0.014-0.068-0.028-0.135-0.042-0.201c0.887-1.045,1.719-2.148,2.485-3.309
				c5.527-8.365,4.907-16.688,2.765-26.062c-1.689-7.391-5.016-18.805-13.46-21.051c-1.581-0.42-3.177-0.578-4.782-0.57
				c-0.042-0.174-0.083-0.346-0.125-0.518c-3.341-13.564-5.571-27.424-9.143-40.928c0.864,0.141,1.732,0.371,2.604,0.707
				c5.975,2.303,10.459-6.643,4.449-8.959c-3.343-1.287-6.69-1.779-9.966-1.629c-0.335-1.018-0.679-2.033-1.039-3.045
				c-2.157-6.07-11.604-2.783-9.439,3.307c0.25,0.703,0.479,1.412,0.719,2.119c-1.554,0.691-3.069,1.512-4.531,2.455
				c0.01-0.203,0.007-0.406,0.019-0.611c0.368-6.414-9.609-5.58-9.973,0.77c-0.173,3.02-0.138,6.012,0.034,8.984
				c-9.146,11.555-13.137,27.916-6.282,39.812c3.677,6.379,10.877,9.729,17.779,11.223c0.022,0.006,0.044,0.006,0.066,0.012
				c0.089,0.354,0.185,0.705,0.272,1.059c4.355,17.596,4.232,35.955,12.97,52.314c2.575,4.822,9.131,1.314,9.131-3.18v-2.977
				c2.469-0.633,4.823-1.611,7.029-2.873c1.303,3.014,3.83,5.189,7.747,3.812c3.352-1.178,4.339-5.221,2.957-8.23
				C284.844,372.01,284.045,371.219,283.128,370.731z M234.691,314.127c-1.817-4.977-0.591-10.723,1.323-15.568
				c1.685,7.926,3.999,15.76,6.232,23.586C238.813,320.475,235.917,317.483,234.691,314.127z M244.077,285.825
				c2.098-2.27,4.473-4.271,7.019-5.699c3.766,13.463,6.212,27.311,9.067,41.025c-2.454,0.631-4.902,1.314-7.324,1.791
				C249.418,310.647,245.488,298.432,244.077,285.825z M264.64,371.151v-1.221c0-2.545-1.557-3.955-3.438-4.342
				c-2.569-10.805-3.29-22.189-5.823-32.902c2.304-0.562,4.596-1.289,6.893-1.902c0.586,2.537,1.196,5.068,1.852,7.586
				c2.539,9.754,5.713,19.338,8.097,29.127C269.961,369.29,267.364,370.594,264.64,371.151z M279.562,356.237
				c-0.789-2.863-1.607-5.719-2.439-8.574c-1.717-5.891-3.149-11.809-4.552-17.74c5.111,2.412,6.848,16.773,7.338,21.266
				C280.092,352.86,279.955,354.563,279.562,356.237z"/>
		</g>
	</g>
	<g>
		<g>
			<path fill="#010101" d="M102.648,360.93c-1.576-17.135-7.287-33.725-7.5-50.996c-0.08-6.543-9.736-5.533-9.973,0.77
				c-0.228,6.049-3.755,11.66-6.652,16.773c-3.274,5.781-6.479,11.443-8.269,17.885c-1.728,6.219,8.102,8.078,9.816,1.908
				c1.595-5.74,4.544-10.834,7.416-15.932c1.838,10.102,4.248,20.135,5.188,30.361C93.265,368.108,103.24,367.368,102.648,360.93z"
				/>
		</g>
	</g>
	<g>
		<g>
			<path fill="#010101" d="M122.573,307.868c-4.449-1.086-9.696,0.436-12.338,4.291c-3.553,5.184-2.7,11.537-0.967,17.242
				c-0.046,0.258-0.083,0.521-0.093,0.801c-0.406,10.291,3.223,23.586,14.747,26.133c11.685,2.582,16.703-10.373,17.047-19.545
				C141.426,324.647,135.251,310.961,122.573,307.868z M130.975,338.096c-0.189,2.74-0.852,5.57-2.554,7.506
				c-0.583,0.664-0.813,0.697-1.801,0.994c0.27-0.08-1.219-0.146-0.989-0.066c-5.967-2.082-6.71-11.342-6.484-17.098
				c0.011-0.266-0.003-0.516-0.026-0.758c0.051-0.627-0.016-1.299-0.241-2.01c-0.721-2.281-1.842-6.869-0.821-8.359
				c0.444-0.648,0.322-0.629,1.091-0.732c0.642-0.086,1.731,0.094,2.653,0.475C129.297,321.139,131.477,330.844,130.975,338.096z"/>
		</g>
	</g>
	<g>
		<g>
			<path fill="#010101" d="M169.324,311.538c-1.431-7.646-5.72-22.119-16.386-19.232c-9.567,2.59-11.337,16.283-10.765,24.398
				c0.453,6.426,10.427,5.672,9.973-0.77c-0.324-4.59,0.01-10.119,3.193-13.752c0.434,0.424,0.768,1.051,1.05,1.484
				c1.619,2.479,2.387,5.768,2.961,8.641c1.118,5.592,1.82,11.533,1.199,17.221c-0.26,2.379-0.734,4.969-2.784,6.42
				c-2.311,1.637-2.558-2.197-2.621-3.516c-0.304-6.439-10.277-5.67-9.973,0.77c0.559,11.816,11.904,16.822,20.742,8.916
				C173.413,335.413,170.926,320.098,169.324,311.538z"/>
		</g>
	</g>
	<g>
		<g>
			<path fill="#010101" d="M379.949,347.059c-6.158-4.785-5.983-16.9-6.207-23.842c-0.024-0.754-0.044-1.525-0.061-2.305
				c2.953-8.312,4.822-16.896,4.953-25.979c0.042-2.871-2.848-4.602-5.371-4.602h-1.5c-1.608,0-3.49,1.273-4.094,2.762
				c-3.268,8.047-3.998,17.324-3.973,26.158c-1.475,3.844-3.187,7.619-5.026,11.34c-2.205,4.459,2.606,8.109,6.238,6.916
				c1.142,6.662,3.476,13.207,8.439,17.064C378.425,358.52,385.042,351.018,379.949,347.059z"/>
		</g>
	</g>
	<g>
		<g>
			<path fill="#010101" d="M443.017,304.438c-3.629-4.707-9.732-9.527-16.031-7.049c-4.366,1.719-6.576,5.719-7.72,10.199
				c-2.845-5.393-7.136-9.715-12.818-10.236c-10.71-0.982-14.091,12.014-14.998,21.584c-2.17-0.07-4.292,1.129-4.711,3.928
				c-1.701,11.348,7.201,25.338,19.425,25.529c10.365,0.162,15.172-9.162,16.687-18.232c2.673,0.047,5.459-1.773,5.281-5.229
				c-0.235-4.543-0.296-8.816,0.504-13.25c0.137-0.762,0.322-1.514,0.525-2.26c0.027-0.1,0.047-0.174,0.063-0.238
				c0.005-0.016,0.009-0.023,0.015-0.041c0.126-0.346,0.275-0.682,0.426-1.018c0.081-0.178,0.377-0.674,0.528-0.943
				c0.138-0.15,0.29-0.307,0.406-0.43c0.076,0.012,0.147,0.023,0.204,0.031c0.036,0.018,0.069,0.031,0.117,0.053
				c0.371,0.158,0.723,0.355,1.07,0.561c0.229,0.17,0.45,0.35,0.669,0.531c0.401,0.33,0.777,0.691,1.147,1.057
				c0.126,0.125,0.246,0.258,0.367,0.387c0.116,0.131,0.271,0.307,0.337,0.387c0.75,0.918,1.413,1.904,2.035,2.912
				c0.318,0.518,0.611,1.051,0.897,1.586c0.026,0.057,0.059,0.127,0.108,0.232c0.162,0.344,0.312,0.693,0.461,1.043
				c0.552,1.289,0.99,2.623,1.354,3.977c0.069,0.258,0.111,0.402,0.135,0.48c0.011,0.082,0.035,0.227,0.08,0.48
				c0.132,0.74,0.212,1.488,0.273,2.238c0.05,0.615,0.059,1.232,0.055,1.85c0,0.043,0,0.074,0,0.109c0,0.004,0,0.006-0.001,0.01
				c-0.03,0.359-0.082,0.719-0.135,1.076c-0.086,0.59-0.224,1.172-0.376,1.748c-0.011,0.043-0.019,0.072-0.027,0.105
				c-0.122,0.324-0.265,0.639-0.41,0.953c-0.09,0.195-0.552,0.965-0.639,1.146c-0.35,0.465-0.728,0.906-1.13,1.324
				c-0.077,0.072-0.124,0.119-0.168,0.162c-0.211,0.168-0.421,0.338-0.638,0.5c-0.327,0.24-2.225,1.309-1.395,0.906
				c-2.446,1.188-4.048,3.578-3.066,6.373c0.825,2.348,3.916,4.26,6.373,3.066c7.566-3.676,11.532-10.24,11.587-18.619
				C449.93,316.741,447.054,309.672,443.017,304.438z M407.44,338.315c-4.833,1.93-9.194-4.658-10.527-9.809
				c2.192-0.49,4.182-2.229,4.22-5.074c0.047-3.537,0.355-14.193,4.432-16.141c-0.242,0.217,0.607,0.381,1.31,0.965
				c1.989,1.656,3.325,4.172,4.626,6.357c1.393,2.34,1.66,5.428,1.861,8.072C413.751,327.797,412.987,336.1,407.44,338.315z"/>
		</g>
	</g>
	<g>
		<g>
			<path fill="#010101" d="M352.561,162.315c-11.397-3.695-17.355,6.291-16.898,16.395c0.126,2.799,2.082,4.234,4.229,4.438
				c2.153,7.365,6.944,14.582,12.96,18.457c3.486,2.246,8.089,2.803,11.486,0.059c4.752-3.84,5.354-11.008,5.35-16.668
				C369.682,175.051,361.818,165.317,352.561,162.315z M358.588,193.403c-0.039-0.018-0.061-0.027-0.105-0.047
				c-0.965-0.447-1.734-1.279-2.486-2.006c-4.164-4.023-7.202-10.635-7.361-16.41c-0.038-1.373-0.522-2.414-1.257-3.146
				c0.781-0.301,1.872-0.189,3.393,0.482c5.24,2.311,8.634,7.906,8.943,13.488C359.806,187.405,359.681,191.852,358.588,193.403z"/>
		</g>
	</g>
	<g>
		<g>
			<path fill="#010101" d="M397.533,171.526c-3.753-16.969-24.423-23.672-38.68-15.346c-5.579,3.26,0.048,11.529,5.592,8.291
				c7.308-4.268,17.132-1.674,21.774,5.238c1.995,2.971,3.172,8.941,0.653,11.887c-1.849,2.162-6.82-3.5-7.579-4.566
				c-3.734-5.252-12.034,0.326-8.29,5.592c4.362,6.135,10.926,10.332,18.603,8.605C397.872,189.368,398.999,178.159,397.533,171.526
				z"/>
		</g>
	</g>
	<g>
		<g>
			<path fill="#010101" d="M87.009,262.1c-14.013,5.277-29.28,3.088-43.498,7.5c-2.737,0.85-3.759,3.82-3.066,6.373
				c1.542,5.678,4.055,10.965,6,16.5c2.137,6.078,11.582,2.789,9.439-3.307c-1.346-3.83-2.958-7.545-4.338-11.35
				c12.805-2.775,26.221-1.551,38.77-6.277C96.337,269.272,93.062,259.821,87.009,262.1z"/>
		</g>
	</g>
	<g>
		<g>
			<path fill="#010101" d="M104.616,404.405c-9.467-2.936-19.822-2.982-29.607-1.166c-0.607-3.299-1.552-6.557-2.46-9.748
				c-1.037-3.646-3.881-9.473-2.977-13.223c1.512-6.275-8.311-8.156-9.816-1.908c-1.05,4.359,0.753,9.314,1.92,13.471
				c1.642,5.848,3.828,11.74,4.001,17.867c0.097,3.43,3.676,5.131,6.64,4.336c9.826-2.641,20.634-2.84,30.391,0.188
				C108.863,416.131,110.706,406.295,104.616,404.405z"/>
		</g>
	</g>
	<g>
		<g>
			<path fill="#010101" d="M441.631,242.436c-0.028-2.891-2.795-4.578-5.371-4.602c-10.133-0.088-20.145-1.492-30.16-2.92
				c-6.36-0.908-8.3,8.904-1.908,9.816c9.175,1.309,18.347,2.514,27.597,2.926c0.35,8.021,1.29,16.012,1.369,24.049
				c0.063,6.445,10.036,5.654,9.973-0.77C443.037,261.415,441.726,251.958,441.631,242.436z"/>
		</g>
	</g>
	<g>
		<g>
			<path fill="#010101" d="M439.158,357.202v26.053c-10.473-0.246-20.894-0.848-31.166,1.84c-6.237,1.633-2.9,11.064,3.307,9.439
				c10.765-2.818,22.244-1.301,33.23-1.232c2.873,0.018,4.602-2.83,4.602-5.371v-31.498
				C449.131,349.987,439.158,350.784,439.158,357.202z"/>
		</g>
	</g>
	<g>
		<g>
			<path fill="#010101" d="M390.448,137.071c-10.144-8.76-19.757-18.17-27.654-29.039c-1.76-2.422-5.913-3.197-7.901-0.504
				c-3.4,4.604-8.595,7.389-12,12c-3.81,5.158,3.684,11.787,7.513,6.602c2.19-2.967,5.121-5.18,7.842-7.609
				c7.599,9.537,16.375,18.1,25.599,26.064C388.735,148.805,395.327,141.284,390.448,137.071z"/>
		</g>
	</g>
	<g>
		<g>
			<path fill="#010101" d="M441.365,179.672c-2.072-6.104-11.515-2.811-9.439,3.307c1.06,3.121,2.652,6.416,2.733,9.23
				c0.079,2.725,2.754,4.801,5.371,4.602c2.812-0.215,4.681-2.65,4.602-5.371C444.513,187.344,442.66,183.487,441.365,179.672z"/>
		</g>
	</g>
</g>
</svg>
