<?xml version="1.0" encoding="utf-8"?>
<!-- Generator: Adobe Illustrator 16.0.3, SVG Export Plug-In . SVG Version: 6.00 Build 0)  -->
<!DOCTYPE svg PUBLIC "-//W3C//DTD SVG 1.1//EN" "http://www.w3.org/Graphics/SVG/1.1/DTD/svg11.dtd">
<svg version="1.1" id="Layer_1" xmlns="http://www.w3.org/2000/svg" xmlns:xlink="http://www.w3.org/1999/xlink" x="0px" y="0px"
	 width="512px" height="512px" viewBox="0 0 512 512" enable-background="new 0 0 512 512" xml:space="preserve">
<g>
	<g>
		<g>
			<path fill="#FCBF95" d="M210.211,88.457c-1.08,0.966-2.54,1.556-4.312,1.416c-9.077-0.718-19.197,16.227-9.343,21.416
				c6.661,3.508,15.559,1.526,18.267-6.101C217.236,98.392,214.037,93.374,210.211,88.457z"/>
		</g>
	</g>
	<g>
		<g>
			<path fill="#FCBF95" d="M186.393,121.294c-3.757-8.577-16.346-1.877-19.508,6.596c1.357,0.767,2.381,2.139,2.549,4.161
				c0.473,5.667,5.932,5.87,10.469,3.94C185.838,133.466,189.106,127.49,186.393,121.294z"/>
		</g>
	</g>
	<g>
		<g>
			<path fill="#FCBF95" d="M166.76,147.226c0.04,0.092,0.049,0.152,0.056,0.197c0.011,0.005,0.021,0.009,0.029,0.014
				C166.816,147.367,166.792,147.3,166.76,147.226z"/>
		</g>
	</g>
	<g>
		<g>
			<path fill="#FCBF95" d="M252.997,58.536c-1.283-0.584-2.165-1.531-2.686-2.631c-3.908-1.176-9.684-0.61-12.708-0.35
				c-6.229,0.539-12.191,6.365-15.581,11.34c-4.119,6.043-4.846,12.946,1.207,17.885c3.414,2.785,7.529,5.17,12.098,4.438
				c7.871-1.262,13.071-10.194,15.695-16.938c1.254-3.221,2.397-7.64,2.367-10.44C253.369,60.066,253.333,59.389,252.997,58.536z"/>
		</g>
	</g>
	<g>
		<g>
			<path fill="#FCBF95" d="M309.456,57.946c-1.596-6.956-3.218-14.488-6.835-20.729c-3.725-6.423-9.261-11.662-16.721-13.345
				c-4.107-0.927-12.567-3.243-16.106,0.493c-4.746,5.013-3.628,14.231-2.934,20.44c0.65,5.823,2.026,11.389,3.876,16.826
				c0.656,0.395,1.263,0.97,1.773,1.766c4.015,6.252,8.522,12.688,14.727,16.964c6.084,4.191,14.558,4.711,19.222-1.91
				C310.434,72.81,310.962,64.509,309.456,57.946z"/>
		</g>
	</g>
	<g>
		<g>
			<path fill="#FCBF95" d="M166.845,147.437c0.013,0.033,0.028,0.068,0.04,0.101c0.096,0.062,0.338,0.127,1.015,0.336
				C167.519,147.756,167.169,147.606,166.845,147.437z"/>
		</g>
	</g>
	<g>
		<g>
			<path fill="#FCBF95" d="M352.53,138.013c-6.177-10.496-14.537-19.419-25.902-24.274c-11.162-4.77-23.451-5.65-35.409-4.096
				c-54.913,7.14-100.057,48.594-136.136,87.462c-0.236,0.254-0.481,0.47-0.732,0.666c-0.008,4.79,0.113,9.577,0.752,14.312
				c1.019,7.526,2.71,14.909,5.076,22.129c9.029,27.545,25.672,51.963,33.912,79.757c8.137,27.447,9.799,56.362,9.276,84.851
				c-0.398,21.728,0.585,46.234,13.551,64.682c12.67,18.023,35.142,27.318,56.901,25.915c22.59-1.456,43.277-14.382,47.691-37.913
				c5.354-28.532-10.061-55.72-11.376-83.918c-1.324-28.436,7.586-56.517,21.443-81.124c13.886-24.661,28.931-49.714,32.14-78.411
				C366.308,184.863,364.625,158.569,352.53,138.013z M256.476,155.181c5.945,20.615,13.115,40.677,13.293,62.396
				c0.059,7.065-10.911,7.938-10.969,0.847c-0.172-20.805-7.014-39.859-12.707-59.604
				C244.132,152.018,254.51,148.363,256.476,155.181z M301.708,229.485c-5.885,0.723-10.16,10.541-12.371,15.087
				c-3.387,6.959-6.1,14.187-8.809,21.428c-3.854,10.305-7.264,20.48-9.039,31.389c-2.057,12.65-2.691,25.385-2.721,38.188
				c-0.016,7.057-10.984,7.936-10.969,0.848c0.031-14.902,0.632-29.988,3.523-44.645c2.27-11.51,6.213-22.264,10.295-33.211
				c3.189-8.555,6.439-17.312,11.24-25.12c4.186-6.806,9.506-13.89,18.002-14.934C307.922,217.647,308.717,228.624,301.708,229.485z
				"/>
		</g>
	</g>
	<g>
		<g>
			<path fill="#FCBF95" d="M166.885,147.537c-0.049-0.032-0.059-0.064-0.069-0.114c-0.454-0.24-0.853-0.531-1.202-0.856
				c-0.63,0.271-1.375,0.416-2.24,0.393c-9.711-0.262-15.666,10.129-16.18,18.85c-0.234,4.009,1.005,8.127,4.4,10.496
				c1.402,0.979,2.466,0.797,3.865-0.142c5.311-3.557,8.553-10.734,10.224-16.707c0.823-2.938,1.649-6.176,1.548-9.104
				C167.18,148.894,167.187,148.342,166.885,147.537z"/>
		</g>
	</g>
	<g>
		<g>
			<path d="M166.845,147.437c-0.009-0.005-0.019-0.009-0.029-0.014c0.011,0.05,0.021,0.082,0.069,0.114
				C166.874,147.505,166.858,147.47,166.845,147.437z"/>
		</g>
	</g>
	<g>
		<g>
			<path d="M364.297,136.847c-11.107-22.356-31.312-36.878-56.403-38.651c-24.722-1.747-49.265,7.136-70.998,18.124
				c-21.931,11.089-41.652,26.255-59.817,43.046c0.895-3.654,1.455-7.852,0.996-11.655c1.299-0.154,2.608-0.412,3.916-0.786
				c10.725-3.076,16.975-12.952,16.088-23.382c8.812,1.867,18.518-1.456,24.037-8.949c3.084-4.188,4.811-9.934,4.665-15.332
				c1.674,0.507,3.34,0.846,4.929,0.967c14.135,1.072,24.287-11.109,29.168-23.053c0.649-1.589,1.313-3.467,1.889-5.493
				c0.634,1.549,1.299,3.086,1.992,4.611c1.201,2.644,3.686,3.584,5.978,3.323c3.621,4.294,7.701,8.152,12.546,11.205
				c8.924,5.622,21.245,4.919,28.979-2.428c15.122-14.367,8.23-40.136,0.056-56.26c-4.437-8.755-12.279-15.223-21.57-18.228
				c-8.385-2.712-18.334-3.837-26.247,0.758c-7.596,4.412-8.929,14.341-9.033,22.233c-0.043,3.142,0.134,6.255,0.485,9.339
				c-5.819-2.405-13.812-2.001-19.192-1.65c-9.274,0.604-17.684,7.873-23.001,15.047c-3.74,5.046-5.906,10.746-5.901,16.519
				c-1.059,0.697-1.896,1.701-2.293,2.861c-9.537,0.166-17.404,5.822-21.385,14.746c-1.781,3.993-2.5,8.505-2.002,12.798
				c-13.867-0.342-30.847,14.434-26.311,30.342c-11.338,3.501-18.857,16.394-19.533,27.893c-0.433,7.346,2.585,15.481,8.133,19.827
				c-0.616,0.873-1,1.967-1,3.279c0,7.753-0.338,15.568,0.459,23.288c0.759,7.352,2.395,14.635,4.377,21.745
				c3.837,13.764,9.873,26.835,16.037,39.682c6.321,13.175,13.051,26.146,17.78,40.006c4.657,13.646,7.221,27.847,8.687,42.16
				c4.698,45.893-8.646,103.746,36.574,133.626c18.072,11.941,41.666,14.752,62.43,9.57c22.989-5.736,39.374-24.354,43.063-47.633
				c4.506-28.432-10.036-55.595-11.768-83.605c-1.803-29.137,9.699-56.586,23.737-81.427c13.845-24.499,27.042-49.497,29.971-77.938
				C377.252,183.676,375.012,158.412,364.297,136.847z M269.793,24.366c3.539-3.736,11.999-1.42,16.106-0.493
				c7.46,1.683,12.996,6.922,16.721,13.345c3.617,6.24,5.239,13.772,6.835,20.729c1.507,6.562,0.979,14.863-2.998,20.506
				c-4.664,6.621-13.138,6.102-19.222,1.91c-6.204-4.276-10.712-10.712-14.727-16.964c-0.511-0.796-1.117-1.371-1.773-1.766
				c-1.85-5.438-3.226-11.003-3.876-16.826C266.166,38.598,265.047,29.379,269.793,24.366z M222.022,66.896
				c3.39-4.975,9.353-10.801,15.581-11.34c3.024-0.261,8.8-0.826,12.708,0.35c0.521,1.1,1.402,2.047,2.686,2.631
				c0.336,0.853,0.372,1.53,0.393,3.304c0.03,2.801-1.113,7.22-2.367,10.44c-2.624,6.743-7.824,15.676-15.695,16.938
				c-4.568,0.732-8.684-1.652-12.098-4.438C217.176,79.842,217.903,72.938,222.022,66.896z M205.9,89.873
				c1.771,0.14,3.231-0.45,4.312-1.416c3.825,4.917,7.024,9.935,4.612,16.731c-2.708,7.627-11.605,9.608-18.267,6.101
				C186.703,106.1,196.823,89.155,205.9,89.873z M186.393,121.294c2.713,6.196-0.555,12.172-6.49,14.697
				c-4.537,1.93-9.996,1.727-10.469-3.94c-0.168-2.022-1.191-3.395-2.549-4.161C170.047,119.417,182.636,112.717,186.393,121.294z
				 M151.594,176.305c-3.396-2.369-4.635-6.487-4.4-10.496c0.514-8.721,6.469-19.111,16.18-18.85c0.865,0.023,1.61-0.122,2.24-0.393
				c0.35,0.325,0.748,0.616,1.202,0.856c-0.007-0.045-0.016-0.105-0.056-0.197c0.032,0.074,0.056,0.142,0.085,0.211
				c0.324,0.17,0.674,0.319,1.055,0.437c-0.677-0.209-0.919-0.274-1.015-0.336c0.302,0.805,0.295,1.356,0.346,2.815
				c0.102,2.928-0.725,6.165-1.548,9.104c-1.671,5.973-4.913,13.15-10.224,16.707C154.06,177.102,152.997,177.283,151.594,176.305z
				 M363.717,208.049c-3.209,28.697-18.254,53.75-32.14,78.411c-13.857,24.607-22.768,52.688-21.443,81.124
				c1.315,28.198,16.729,55.386,11.376,83.918c-4.414,23.531-25.102,36.457-47.691,37.913c-21.76,1.403-44.231-7.892-56.901-25.915
				c-12.966-18.447-13.949-42.954-13.551-64.682c0.522-28.488-1.14-57.403-9.276-84.851c-8.24-27.794-24.883-52.212-33.912-79.757
				c-2.366-7.22-4.058-14.603-5.076-22.129c-0.639-4.734-0.76-9.521-0.752-14.312c0.251-0.196,0.496-0.412,0.732-0.666
				c36.079-38.868,81.223-80.322,136.136-87.462c11.958-1.555,24.247-0.674,35.409,4.096c11.365,4.855,19.726,13.778,25.902,24.274
				C364.625,158.569,366.308,184.863,363.717,208.049z"/>
		</g>
	</g>
	<g>
		<g>
			<path d="M256.476,155.181c-1.966-6.817-12.344-3.163-10.383,3.638c5.693,19.745,12.535,38.8,12.707,59.604
				c0.058,7.091,11.027,6.219,10.969-0.847C269.591,195.857,262.421,175.796,256.476,155.181z"/>
		</g>
	</g>
	<g>
		<g>
			<path d="M300.861,218.515c-8.496,1.044-13.816,8.128-18.002,14.934c-4.801,7.808-8.051,16.565-11.24,25.12
				c-4.082,10.947-8.025,21.701-10.295,33.211c-2.892,14.656-3.492,29.742-3.523,44.645c-0.016,7.088,10.953,6.209,10.969-0.848
				c0.029-12.803,0.664-25.537,2.721-38.188c1.775-10.908,5.185-21.084,9.039-31.389c2.709-7.241,5.422-14.469,8.809-21.428
				c2.211-4.546,6.486-14.364,12.371-15.087C308.717,228.624,307.922,217.647,300.861,218.515z"/>
		</g>
	</g>
</g>
</svg>
