<?xml version="1.0" encoding="utf-8"?>
<!-- Generator: Adobe Illustrator 16.0.3, SVG Export Plug-In . SVG Version: 6.00 Build 0)  -->
<!DOCTYPE svg PUBLIC "-//W3C//DTD SVG 1.1//EN" "http://www.w3.org/Graphics/SVG/1.1/DTD/svg11.dtd">
<svg version="1.1" id="Layer_1" xmlns="http://www.w3.org/2000/svg" xmlns:xlink="http://www.w3.org/1999/xlink" x="0px" y="0px"
	 width="512px" height="512px" viewBox="0 0 512 512" enable-background="new 0 0 512 512" xml:space="preserve">
<g>
	<g>
		<g>
			<path fill="#EF4823" d="M474.212,424.563c-0.02-0.042-0.035-0.086-0.054-0.128c0.014,0.219,0.028,0.438,0.058,0.653
				C474.192,424.914,474.2,424.739,474.212,424.563z"/>
		</g>
	</g>
	<g>
		<g>
			<path fill="#EF4823" d="M474.117,423.545c-0.001-0.014-0.001-0.029-0.001-0.042c-0.248-0.624-1.028-1.286-3.347-2.03
				c1.718,0.55,2.817,1.658,3.389,2.962C474.14,424.139,474.128,423.841,474.117,423.545z"/>
		</g>
	</g>
	<g>
		<g>
			<g>
				<path fill="#EF4823" d="M184.686,75.456c-14.8,0.737-29.599,1.532-44.427,1.952c-15.986,0.453-32.01-1.258-47.958-0.52
					c-12.596,0.583-25.262,2.826-37.891,2.362c0.329,11.897-0.072,23.81-0.417,35.702c-0.408,14.1-0.408,28.204-0.802,42.302
					c-0.849,30.351-2.438,60.626-2.669,90.999c-0.174,22.953-0.167,45.915-0.654,68.865c1.818-0.467,3.683-0.823,5.551-1.171
					c0.334-9.333,2.013-18.514,3.516-27.713c1.578-9.678,2.291-19.262,2.255-29.068c-0.028-7.179-0.638-13.917-1.411-21.017
					c-0.518-4.755-1.518-11.289,1.482-15.47c4.09-5.702,13.666-0.263,9.523,5.511c-2.064,2.879,0.119,11.039,0.609,14.549
					c1.002,7.165,0.909,14.421,0.76,21.648c-0.258,12.424-2.775,24.557-4.41,36.786c5.77-19.145,8.564-39.38,11.494-59.012
					c3.757-25.17,4.835-50.475,6.428-75.842c0.441-7.045,11.445-7.224,11.001-0.148c-1.612,25.694-2.693,51.352-6.498,76.848
					c-1.325,8.882-2.61,17.892-4.132,26.876c5.279-12.382,10.952-24.573,16.594-36.819c16.094-34.942,29.338-73.09,31.992-111.737
					c0.481-7.038,11.486-7.22,11-0.148c-2.84,41.388-16.898,81.714-34.248,119.081c-7.673,16.523-16.108,34.057-21.932,50.475
					c-1.233,3.482-2.445,6.996-3.783,10.455c8.359-6.326,16.838-12.534,24.803-19.351c18.626-15.945,33.539-34.581,44.227-56.709
					c11.271-23.336,19.643-48.036,24.197-73.569c2.344-13.141,3.497-26.299,4.594-39.585
					C184.483,99.82,185.392,87.65,184.686,75.456z"/>
			</g>
		</g>
		<g>
			<g>
				<path fill="#EF4823" d="M84.009,381.212c-3.08-11.821-5.379-23.854-9.365-35.266c-2.84,2.11-6.362,3.255-10.04,3.584
					c0.151,0.502,0.241,1.052,0.246,1.66c0.046,6.417,2.114,13.294,2.919,19.692c0.975,7.763,2.17,15.444,3.645,23.128
					c1.441,7.499,2.828,15.805,6.129,22.744c1.646,3.459,3.438,8.587,6.436,11.499c2.964-1.167,6.055-1.892,9.228-1.568
					c3.254,0.333,6.511,0.693,9.771,1.037C94.058,413.467,88.282,397.618,84.009,381.212z"/>
			</g>
		</g>
		<g>
			<g>
				<path fill="#EF4823" d="M336.634,76.215c-0.271-0.009-0.541-0.016-0.812-0.024c-7.93-0.259-15.857-0.531-23.787-0.795
					c0.477,3.58-2.916,7.566-6.936,6.314c-0.049,0.011-0.084,0.021-0.137,0.032c-0.507,0.171-0.992,0.391-1.457,0.659
					c-1.367,0.729-2.713,1.493-4.027,2.314c-2.129,1.329-4.266,3.08-6.577,4.081c-8.184,3.542-16.109,3.947-24.915,3.35
					c-14.069-0.954-30.1-3.318-39.875-14.582c-1.007-1.16-1.426-2.439-1.418-3.675c-10.346,0.167-20.678,0.561-31.006,1.037
					c0.381,6.301,0.307,12.593,0.02,18.881c5.434-1.339,14.685,3.562,18.195,4.944c12.064,4.75,24.643,8.486,37.633,9.399
					c14.693,1.032,29.23-0.262,43.303-4.756c7.111-2.271,14.047-5.007,20.74-8.313c5.086-2.513,11.119-4.466,15.016-8.754
					c1.781-1.96,3.98-2.103,5.791-1.242C336.267,82.558,336.155,79.172,336.634,76.215z"/>
			</g>
		</g>
		<g>
			<g>
				<path fill="#EF4823" d="M68.588,423.444c-3.413-7.174-5.442-14.932-7.022-22.707c-1.877-9.226-3.389-18.481-4.562-27.822
					c-0.887-7.051-3.104-14.484-3.154-21.577c-0.008-1.139,0.271-2.096,0.739-2.875c-2.02-0.618-3.94-1.459-5.659-2.526
					c-1.221,26.674-3.686,53.257-5.504,79.892c1.484,0.351,2.766,1.272,3.345,2.776c3.858,1.541,6.904,4.296,11.03,6.23
					c4.561,2.138,11.459,0.57,16.209-1.603C71.819,430.207,70.147,426.724,68.588,423.444z"/>
			</g>
		</g>
		<g>
			<g>
				<path fill="#FEBF10" d="M64.45,325.278c-0.015-0.022-0.026-0.044-0.041-0.067c-4.125,0.962-8.336,1.582-12.441,2.729
					c-0.857,0.24-1.652,0.283-2.377,0.171c-0.062,2.197-0.148,4.394-0.223,6.59c1.498-0.258,3.125,0.096,4.564,1.39
					c2.724,2.446,12.262,4.331,14.766,0.624c0.439-0.651,0.953-1.156,1.506-1.541C68.551,331.781,66.659,328.474,64.45,325.278z"/>
			</g>
		</g>
		<g>
			<g>
				<path fill="#EF4823" d="M240.389,73.816c10.093,7.156,25.638,8.275,37.157,7.629c6.931-0.389,11.339-3.257,16.99-6.607
					C276.491,74.292,258.442,73.872,240.389,73.816z"/>
			</g>
		</g>
		<g>
			<g>
				<path fill="#EF4823" d="M467.226,176.516c0.63-31.681,2.836-63.322,0.897-94.996c-0.172-0.04-0.345-0.082-0.524-0.137
					c-11.617-3.611-23.884-2.583-35.878-2.959c-27.876-0.871-55.766-1.128-83.649-1.872c-0.203,0.542-0.492,1.064-0.848,1.545
					c-0.021,0.908-0.031,1.814-0.006,2.723c0.047,1.581,0.127,3.16,0.197,4.74c0.225,4.995,0.061,10.013,0.128,15.013
					c0.185,13.637,0.728,27.361,2.643,40.876c1.989,14.046,5.114,27.892,8.097,41.75c2.703,12.561,8.168,24.107,11.771,36.375
					c3.697,12.591,8.301,23.919,16.091,34.587c7.097,9.719,15.444,18.493,24.181,26.748c8.642,8.167,17.684,17.91,28.029,23.899
					c3.916,2.269,7.768,3.558,11.965,4.191c-3.463-3.084-6.753-6.35-10.107-9.613c-5.088-4.95-10.623-9.41-15.497-14.585
					c-9.63-10.226-17.835-21.849-23.811-34.583c-6.648-14.166-11.188-29.315-15.403-44.356c-4.508-16.081-8.084-32.424-9.309-49.109
					c-0.521-7.094,10.484-7.181,11.002-0.148c1.154,15.72,4.584,31.153,8.9,46.287c4.004,14.047,7.927,28.576,14.301,41.768
					c5.717,11.83,12.946,22.88,22.092,32.356c4.94,5.117,10.438,9.6,15.497,14.585c1.271,1.252,2.536,2.516,3.806,3.774
					c-7.468-9.55-12.414-20.873-15.836-32.775c-3.029-10.532-5.734-21.281-9.218-31.67c-2.757-8.22-7.074-16.43-6.893-25.305
					c0.143-7.089,11.144-7.239,11-0.148c-0.168,8.298,4.664,15.955,6.879,23.756c2.712,9.548,5.563,19.056,8.306,28.595
					c4.119,14.325,9.904,27.269,20.518,37.397c0.785,0.038,1.577,0.308,2.32,0.861c-0.021-7.55-0.074-15.099-0.177-22.647
					C468.251,241.121,466.583,208.845,467.226,176.516z"/>
			</g>
		</g>
		<g>
			<g>
				<path fill="#EF4823" d="M465.28,307.946c0.147,0.599,0.258,1.239,0.336,1.95c0.019,0.175,0.014,0.347,0.01,0.519
					c1.092,0.205,2.174,0.456,3.241,0.773c0.005-1.049-0.003-2.099,0-3.148C467.71,308.322,466.452,308.303,465.28,307.946z"/>
			</g>
		</g>
		<g>
			<g>
				<path fill="#EF4823" d="M438.512,335.942c-1.589,4.09-2.974,8.252-3.909,12.552c-2.691,12.367-3.604,25.03-5.996,37.447
					c-2.066,10.73-4.293,23.734-10.668,32.872c-0.666,0.955-1.365,1.871-2.086,2.761c1.437-0.112,2.807-0.049,4.125,0.161
					c0.562-0.501,1.207-0.899,1.898-1.153c0.494-0.72,0.973-1.451,1.416-2.204c1.389-2.35,2.679-4.757,3.902-7.196
					c2.607-5.201,5.078-10.486,7.301-15.863c6.654-16.091,10.093-35.406,16.766-52.225c0.191-0.48,0.43-0.903,0.699-1.286
					C447.474,340.762,441.884,339.21,438.512,335.942z"/>
			</g>
		</g>
		<g>
			<g>
				<path fill="#EF4823" d="M336.739,95.721c-4.129,3.69-9.373,5.775-14.312,8.215c-6.452,3.187-13.07,6.116-19.877,8.474
					c-12.916,4.472-26.52,7.166-40.224,7.137c-15.144-0.031-29.995-2.484-44.265-7.577c-3.857-1.377-7.65-2.893-11.479-4.348
					c-1.904-0.724-3.813-1.457-5.756-2.075c-0.633-0.201-1.268-0.402-1.909-0.578c-1.243,0.38-2.635,0.146-3.863-0.521
					c-0.276,3.714-0.583,7.427-0.882,11.14c-0.102,1.27-0.208,2.537-0.314,3.805c0.303,0.11,0.606,0.241,0.914,0.412
					c11.684,6.519,21.752,15.688,34.434,20.441c12.292,4.607,25.521,7.849,38.629,8.87c13.475,1.049,27.189,0.324,40.075-4.06
					c9.579-3.259,21.964-8.75,27.3-17.837c0.616-1.051,1.412-1.752,2.285-2.172C336.909,115.269,336.941,105.495,336.739,95.721z"/>
			</g>
		</g>
		<g>
			<g>
				<path fill="#FEBF10" d="M468.28,322.58c-6.824-2.704-14.063-1.539-21.146-2.834c-0.197-0.036-0.393-0.086-0.59-0.125
					c-0.703,2.15-1.859,4.076-3.055,6.022c1.033,0.385,1.977,1.149,2.676,2.401c-0.398-0.713,0.028-0.032,0.575,0.259
					c0.573,0.306,1.159,0.664,1.767,0.895c1.912,0.727,3.855,1.375,5.846,1.862c2.096,0.514,4.255,1.064,6.421,1.167
					c0.685,0.032,1.382,0.064,2.068,0.029c1.685-1.483,3.933-1.524,5.784-0.681c0.053-2.943,0.107-5.887,0.144-8.83
					C468.608,322.697,468.446,322.646,468.28,322.58z"/>
			</g>
		</g>
		<g>
			<g>
				<path fill="#EF4823" d="M462.269,343.335c0.1,0.759,0.003,1.608-0.365,2.537c-7.704,19.417-11.247,40.182-19.768,59.327
					c-1.378,3.096-5.996,15.275-11.529,22.04c0.334,0.298,0.665,0.604,0.994,0.921c4.262,4.121,10.691,12.15,17.664,10.04
					c6.69-2.024,6.389-8.272,9.947-13.169c1.047-1.442,2.447-2.163,3.885-2.347c0-0.319,0.004-0.638,0.012-0.952
					c0.383-16.834,3.381-33.558,4.212-50.386c0.483-9.803,0.827-19.611,1.077-29.42
					C466.632,342.941,464.483,343.312,462.269,343.335z"/>
			</g>
		</g>
		<g>
			<g>
				<path fill="#010101" d="M478.049,193.664c0.026-32.381,2.548-64.719,1.767-97.104c-0.141-5.878-0.438-11.75-0.838-17.615
					c-0.227-3.325-2.801-5.058-5.404-5.214c-0.586-1.26-1.631-2.357-3.193-2.991c1.283,0.521-1.785-0.751-1.953-0.792
					c-0.564-0.139-1.1-0.187-1.604-0.172c-11.972-2.88-24.575-2.019-36.792-2.401c-15.684-0.491-31.336-0.69-47.025-0.946
					c-32.824-0.534-65.625-1.964-98.439-2.871c-32.67-0.902-65.303-1.144-97.946,0.584c-16.149,0.855-32.292,1.862-48.46,2.319
					c-15.982,0.453-31.957-1.225-47.916-0.487c-13.775,0.638-27.531,3.344-41.338,1.902c-3.838-0.401-5.517,2.691-5.121,5.703
					c-0.332,0.713-0.514,1.554-0.475,2.533c1.043,26.353-0.453,53.02-1.07,79.38c-0.711,30.329-2.443,60.583-2.702,90.929
					c-0.265,30.969-0.185,61.944-1.312,92.899c-1.12,30.772-4.195,61.408-6.177,92.126c-0.233,3.62,2.532,5.335,5.351,5.209
					c1.083,1.082,2.625,1.752,4.131,1.803c2.698,0.09,4.982,2.125,7.1,3.602c2.416,1.686,4.87,2.95,7.647,3.93
					c5.798,2.046,14.05,0.19,19.64-1.658c5.469-1.808,9.971-6.177,15.861-6.663c7.273-0.601,15.213,1.553,22.484,2.077
					c5.306,0.384,6.426-6.095,3.812-9.394c-12.763-16.11-19.279-35.688-24.307-55.342c-4.74-18.529-8.123-37.365-18.74-53.635
					c4.13-2.066,7.99-4.583,11.742-7.319c9.809-7.159,19.555-14.586,28.935-22.305c20.015-16.472,36.069-36.306,47.706-59.48
					c12.047-23.984,20.734-49.743,25.777-76.084c1.576-8.242,2.68-16.525,3.553-24.841c11.224,6.709,21.299,14.639,33.684,19.54
					c14.211,5.624,29.829,8.494,45.035,9.477c14.461,0.934,29.168-0.954,42.796-5.902c8.495-3.084,17.882-7.776,24.685-14.435
					c1.365,10.507,3.379,20.946,5.551,31.293c3.221,15.328,7.166,29.818,12.877,44.418c2.564,6.559,3.95,13.604,6.332,20.245
					c2.311,6.444,5.543,12.455,9.195,18.226c7.51,11.866,17.162,22.341,27.182,32.11c9.455,9.22,19.354,18.668,30.144,26.317
					c1.881,1.333,3.872,2.507,5.946,3.514c-0.279,1.857-1.799,3.468-2.854,4.93c-1.695,2.352-2.646,5.17-3.748,7.841
					c-2.018,4.884-3.854,9.8-5.165,14.922c-2.812,10.978-4.024,22.585-5.531,33.803c-1.405,10.462-3.729,22.306-8.264,31.889
					c-4.003,8.458-12.053,13.805-19.864,18.374c-5.117,2.994-2.346,9.769,2.854,10.247c7.564,0.697,14.275-3.552,21.383-5.371
					c7.506-1.92,12.646,7.786,18.047,11.585c7.178,5.048,15.328,6.259,23.389,2.823c7.015-2.988,7.934-9.553,11.346-15.166
					c0.078,0.028,0.148,0.063,0.231,0.089c4.979,1.596,7.772-3.757,6.222-7.553c-0.012,0.176-0.02,0.351,0.004,0.525
					c-0.029-0.216-0.044-0.435-0.058-0.653c-0.571-1.305-1.671-2.412-3.389-2.962c2.318,0.744,3.099,1.406,3.347,2.03
					c-0.053-1.41,0.012-2.826,0.07-4.235c0.176-4.216,0.592-8.426,1.006-12.624c0.698-7.058,1.656-14.09,2.302-21.152
					c2.866-31.295,2.532-63.16,2.367-94.556C479.69,258.5,478.024,226.096,478.049,193.664z M49.591,328.111
					c0.725,0.111,1.52,0.068,2.377-0.171c4.105-1.147,8.316-1.767,12.441-2.729c0.015,0.022,0.026,0.044,0.041,0.067
					c2.209,3.196,4.101,6.503,5.754,9.896c-0.553,0.385-1.066,0.89-1.506,1.541c-2.504,3.707-12.042,1.822-14.766-0.624
					c-1.439-1.294-3.066-1.647-4.564-1.39C49.442,332.505,49.528,330.309,49.591,328.111z M57.8,434.835
					c-4.126-1.935-7.172-4.69-11.03-6.23c-0.579-1.503-1.86-2.425-3.345-2.776c1.818-26.635,4.283-53.218,5.504-79.892
					c1.719,1.067,3.64,1.908,5.659,2.526c-0.468,0.779-0.747,1.736-0.739,2.875c0.05,7.093,2.268,14.525,3.154,21.577
					c1.174,9.34,2.686,18.596,4.562,27.822c1.58,7.774,3.609,15.532,7.022,22.707c1.56,3.28,3.231,6.763,5.421,9.789
					C69.259,435.405,62.36,436.973,57.8,434.835z M84.009,381.212c4.273,16.406,10.049,32.255,18.967,46.51
					c-3.26-0.344-6.517-0.704-9.771-1.037c-3.173-0.324-6.264,0.401-9.228,1.568c-2.998-2.911-4.79-8.04-6.436-11.499
					c-3.301-6.939-4.688-15.245-6.129-22.744c-1.475-7.684-2.67-15.365-3.645-23.128c-0.805-6.398-2.873-13.275-2.919-19.692
					c-0.005-0.607-0.095-1.158-0.246-1.66c3.678-0.329,7.2-1.474,10.04-3.584C78.63,357.358,80.929,369.391,84.009,381.212z
					 M183.479,111.985c-1.097,13.286-2.25,26.444-4.594,39.585c-4.555,25.533-12.926,50.233-24.197,73.569
					c-10.688,22.128-25.601,40.764-44.227,56.709c-7.965,6.817-16.443,13.025-24.803,19.351c1.338-3.459,2.55-6.972,3.783-10.455
					c5.823-16.418,14.259-33.952,21.932-50.475c17.35-37.367,31.408-77.692,34.248-119.081c0.486-7.072-10.519-6.89-11,0.148
					c-2.654,38.647-15.898,76.795-31.992,111.737c-5.642,12.247-11.314,24.438-16.594,36.819c1.521-8.984,2.807-17.994,4.132-26.876
					c3.805-25.496,4.886-51.153,6.498-76.848c0.444-7.076-10.56-6.897-11.001,0.148c-1.593,25.367-2.671,50.671-6.428,75.842
					c-2.93,19.632-5.725,39.868-11.494,59.012c1.635-12.229,4.152-24.361,4.41-36.786c0.149-7.228,0.242-14.484-0.76-21.648
					c-0.49-3.51-2.674-11.67-0.609-14.549c4.143-5.773-5.434-11.212-9.523-5.511c-3,4.182-2,10.715-1.482,15.47
					c0.773,7.1,1.383,13.837,1.411,21.017c0.036,9.806-0.677,19.39-2.255,29.068c-1.503,9.199-3.182,18.38-3.516,27.713
					c-1.868,0.348-3.732,0.704-5.551,1.171c0.487-22.95,0.48-45.913,0.654-68.865c0.23-30.373,1.82-60.647,2.669-90.999
					c0.394-14.098,0.394-28.202,0.802-42.302c0.345-11.893,0.746-23.805,0.417-35.702c12.629,0.464,25.295-1.779,37.891-2.362
					c15.948-0.738,31.972,0.973,47.958,0.52c14.828-0.419,29.627-1.214,44.427-1.952C185.392,87.65,184.483,99.82,183.479,111.985z
					 M294.536,74.839c-5.651,3.35-10.06,6.218-16.99,6.607c-11.52,0.646-27.064-0.474-37.157-7.629
					C258.442,73.872,276.491,74.292,294.536,74.839z M226.692,73.889c-0.008,1.235,0.411,2.515,1.418,3.675
					c9.775,11.264,25.806,13.628,39.875,14.582c8.806,0.597,16.731,0.192,24.915-3.35c2.312-1,4.448-2.751,6.577-4.081
					c1.314-0.822,2.66-1.586,4.027-2.314c0.465-0.269,0.95-0.488,1.457-0.659c0.053-0.011,0.088-0.021,0.137-0.032
					c4.02,1.252,7.412-2.734,6.936-6.314c7.93,0.264,15.857,0.536,23.787,0.795c0.271,0.009,0.541,0.016,0.812,0.024
					c-0.479,2.957-0.367,6.343-0.25,8.871c-1.811-0.861-4.01-0.718-5.791,1.242c-3.896,4.288-9.93,6.241-15.016,8.754
					c-6.693,3.306-13.629,6.042-20.74,8.313c-14.072,4.494-28.609,5.788-43.303,4.756c-12.99-0.913-25.568-4.649-37.633-9.399
					c-3.511-1.382-12.762-6.283-18.195-4.944c0.287-6.288,0.361-12.58-0.02-18.881C206.015,74.45,216.347,74.056,226.692,73.889z
					 M335.21,127.22c-5.336,9.087-17.721,14.578-27.3,17.837c-12.886,4.384-26.601,5.109-40.075,4.06
					c-13.107-1.021-26.337-4.263-38.629-8.87c-12.682-4.753-22.75-13.922-34.434-20.441c-0.308-0.171-0.611-0.302-0.914-0.412
					c0.106-1.268,0.213-2.536,0.314-3.805c0.299-3.713,0.605-7.426,0.882-11.14c1.229,0.667,2.62,0.901,3.863,0.521
					c0.642,0.176,1.276,0.377,1.909,0.578c1.942,0.618,3.852,1.351,5.756,2.075c3.828,1.456,7.621,2.971,11.479,4.348
					c14.27,5.093,29.121,7.546,44.265,7.577c13.704,0.029,27.308-2.666,40.224-7.137c6.807-2.357,13.425-5.287,19.877-8.474
					c4.939-2.44,10.184-4.524,14.312-8.215c0.202,9.774,0.17,19.548,0.756,29.327C336.622,125.468,335.826,126.169,335.21,127.22z
					 M427.194,411.181c-1.224,2.439-2.514,4.846-3.902,7.196c-0.443,0.753-0.922,1.484-1.416,2.204
					c-0.691,0.254-1.336,0.652-1.898,1.153c-1.318-0.21-2.688-0.273-4.125-0.161c0.721-0.89,1.42-1.806,2.086-2.761
					c6.375-9.137,8.602-22.142,10.668-32.872c2.393-12.417,3.305-25.08,5.996-37.447c0.936-4.3,2.32-8.461,3.909-12.552
					c3.372,3.268,8.962,4.819,13.448,5.864c-0.27,0.382-0.508,0.806-0.699,1.286c-6.673,16.819-10.111,36.134-16.766,52.225
					C432.272,400.695,429.802,405.979,427.194,411.181z M467.32,371.346c-0.831,16.829-3.829,33.552-4.212,50.386
					c-0.008,0.314-0.012,0.633-0.012,0.952c-1.438,0.184-2.838,0.904-3.885,2.347c-3.559,4.896-3.257,11.145-9.947,13.169
					c-6.973,2.11-13.402-5.919-17.664-10.04c-0.329-0.317-0.66-0.624-0.994-0.921c5.533-6.765,10.151-18.944,11.529-22.04
					c8.521-19.145,12.063-39.91,19.768-59.327c0.368-0.929,0.465-1.778,0.365-2.537c2.215-0.023,4.363-0.395,6.129-1.41
					C468.147,351.735,467.804,361.543,467.32,371.346z M468.626,331.577c-1.852-0.844-4.1-0.803-5.784,0.681
					c-0.687,0.035-1.384,0.003-2.068-0.029c-2.166-0.103-4.325-0.653-6.421-1.167c-1.99-0.488-3.934-1.136-5.846-1.862
					c-0.607-0.231-1.193-0.589-1.767-0.895c-0.547-0.291-0.974-0.972-0.575-0.259c-0.699-1.252-1.643-2.017-2.676-2.401
					c1.195-1.946,2.352-3.872,3.055-6.022c0.197,0.039,0.393,0.089,0.59,0.125c7.083,1.295,14.322,0.13,21.146,2.834
					c0.166,0.066,0.328,0.117,0.489,0.167C468.733,325.69,468.679,328.634,468.626,331.577z M468.867,311.188
					c-1.067-0.318-2.149-0.569-3.241-0.773c0.004-0.172,0.009-0.344-0.01-0.519c-0.078-0.711-0.188-1.352-0.336-1.95
					c1.172,0.357,2.43,0.376,3.587,0.094C468.864,309.09,468.872,310.14,468.867,311.188z M467.226,176.516
					c-0.643,32.33,1.025,64.605,1.464,96.923c0.103,7.548,0.155,15.097,0.177,22.647c-0.743-0.553-1.535-0.823-2.32-0.861
					c-10.613-10.129-16.398-23.072-20.518-37.397c-2.742-9.539-5.594-19.046-8.306-28.595c-2.215-7.801-7.047-15.458-6.879-23.756
					c0.144-7.09-10.857-6.941-11,0.148c-0.182,8.875,4.136,17.085,6.893,25.305c3.483,10.389,6.188,21.138,9.218,31.67
					c3.422,11.902,8.368,23.225,15.836,32.775c-1.27-1.258-2.535-2.522-3.806-3.774c-5.06-4.986-10.557-9.469-15.497-14.585
					c-9.146-9.476-16.375-20.526-22.092-32.356c-6.374-13.192-10.297-27.72-14.301-41.768c-4.316-15.133-7.746-30.566-8.9-46.287
					c-0.518-7.033-11.523-6.946-11.002,0.148c1.225,16.686,4.801,33.029,9.309,49.109c4.215,15.041,8.755,30.19,15.403,44.356
					c5.976,12.734,14.181,24.357,23.811,34.583c4.874,5.175,10.409,9.636,15.497,14.585c3.354,3.263,6.645,6.529,10.107,9.613
					c-4.197-0.633-8.049-1.923-11.965-4.191c-10.346-5.99-19.388-15.732-28.029-23.899c-8.736-8.255-17.084-17.029-24.181-26.748
					c-7.79-10.668-12.394-21.996-16.091-34.587c-3.604-12.268-9.068-23.814-11.771-36.375c-2.982-13.858-6.107-27.704-8.097-41.75
					c-1.915-13.516-2.458-27.239-2.643-40.876c-0.067-5,0.097-10.018-0.128-15.013c-0.07-1.581-0.15-3.16-0.197-4.74
					c-0.025-0.909-0.016-1.814,0.006-2.723c0.355-0.481,0.645-1.003,0.848-1.545c27.884,0.744,55.773,1.001,83.649,1.872
					c11.994,0.375,24.261-0.652,35.878,2.959c0.18,0.056,0.353,0.098,0.524,0.137C470.062,113.193,467.855,144.835,467.226,176.516z
					"/>
			</g>
		</g>
	</g>
	<g>
		<g>
			<path fill="#010101" d="M474.116,423.503c0,0.014,0,0.028,0.001,0.042c0.011,0.295,0.022,0.593,0.041,0.89
				c0.019,0.042,0.034,0.085,0.054,0.128C474.231,424.218,474.263,423.867,474.116,423.503z"/>
		</g>
	</g>
</g>
</svg>
