<?xml version="1.0" encoding="utf-8"?>
<!-- Generator: Adobe Illustrator 16.0.3, SVG Export Plug-In . SVG Version: 6.00 Build 0)  -->
<!DOCTYPE svg PUBLIC "-//W3C//DTD SVG 1.1//EN" "http://www.w3.org/Graphics/SVG/1.1/DTD/svg11.dtd">
<svg version="1.1" id="Layer_1" xmlns="http://www.w3.org/2000/svg" xmlns:xlink="http://www.w3.org/1999/xlink" x="0px" y="0px"
	 width="512px" height="512px" viewBox="0 0 512 512" enable-background="new 0 0 512 512" xml:space="preserve">
<g>
	<g>
		<g>
			<path fill="#D6E5E5" d="M350.943,169.181c-10.313-22.241-29.573-40.321-51.084-51.672c-19.738-10.417-41.402-15.002-63.63-11.896
				c-20.869,2.916-40.793,11.689-57.311,24.743c-33.881,26.774-51.355,70.323-37.199,112.271c0.328,0.973,0.386,1.879,0.248,2.701
				c22.081,29.225,55.883,45.893,92.441,48.348c43.608,2.927,93.635-16.198,114.448-56.93
				C359.721,215.484,361.065,191.009,350.943,169.181z M249.959,270.853c-35.526,4.738-86.825-8.377-95.981-47.871
				c-1.211-0.769-2.019-2.125-1.935-4.113c1.799-42.609,34.466-81.088,75.338-92.367c20.294-5.602,43.176-5.021,62.001,5.238
				c19.519,10.638,36.587,29.709,42.002,51.639C343.767,233.519,293.174,265.09,249.959,270.853z"/>
		</g>
	</g>
	<g>
		<g>
			<path fill="#EF4823" d="M305.333,158.276c-15.404-16.891-36.443-26.254-59.466-24.098c-40.924,3.83-79.038,38.98-82.628,80.584
				c0.387,0.633,0.659,1.385,0.774,2.259c4.009,30.349,41.294,43.431,67.876,43.911c16.071,0.291,32.279-2.999,47.058-9.309
				c14.187-6.057,28.727-15.354,36.699-28.99C328.174,201.206,321.466,175.966,305.333,158.276z"/>
		</g>
	</g>
	<g>
		<g>
			<path fill="#14B6B9" d="M396.351,211.804c-1.014-45.463-17.621-91.682-55.364-119.269
				c-22.188-16.219-49.544-23.031-76.525-25.667c-28.408-2.775-58.777-3.583-86.336,4.945
				c-44.311,13.713-77.362,51.739-87.507,96.711c-4.746,21.04-5.133,43.309,0.099,64.317c6.4,25.702,20.646,48.568,35.341,70.312
				c16.756,24.795,35.364,48.252,53.426,72.09c18.421,24.314,38.266,47.482,59.76,69.133c18.646-13.666,37.004-27.406,54.238-42.947
				c18.433-16.621,35.949-34.396,51.365-53.879c16.652-21.043,31.479-44.242,40.755-69.553
				C393.309,256.967,396.849,234.179,396.351,211.804z M362.557,233.187c-16.755,41.818-62.174,67.867-105.806,71.333
				c-49.277,3.915-98.282-15.869-126.782-56.999c-1.466-2.115-1.198-4.267-0.075-5.878c-7.03-24.349-5.346-50.419,5.328-73.593
				c10.725-23.285,29.066-43.139,51.148-56.123c38.895-22.87,85.895-24.507,124.776-0.627
				c20.809,12.779,39.196,30.557,49.575,52.939C370.862,186.109,371.535,210.776,362.557,233.187z"/>
		</g>
	</g>
	<g>
		<g>
			<path d="M407.29,209.575c-1-44.875-17.697-91.433-53.021-120.582c-21.049-17.371-46.416-26.662-73.125-31.039
				c-27.582-4.521-57.067-5.584-84.735-1.432c-48.519,7.282-88.692,38.959-108.096,83.854
				c-17.398,40.258-16.521,88.066,3.656,127.145c17.659,34.2,40.94,64.943,64.312,95.373c24.003,31.254,48.118,61.982,75.936,89.99
				c0.455,3.699,4.508,6.957,8.388,4.121c11.024-8.061,22.159-15.787,32.848-24.32c10.523-8.4,20.763-17.156,30.735-26.201
				c20.424-18.525,39.451-38.682,55.942-60.805c15.658-21.006,29.273-44.17,37.544-69.125
				C404.819,254.985,407.796,232.262,407.29,209.575z M385.602,277.997c-9.275,25.311-24.103,48.51-40.755,69.553
				c-15.416,19.482-32.933,37.258-51.365,53.879c-17.234,15.541-35.593,29.281-54.238,42.947
				c-21.494-21.65-41.339-44.818-59.76-69.133c-18.062-23.838-36.67-47.295-53.426-72.09c-14.695-21.743-28.94-44.609-35.341-70.312
				c-5.231-21.009-4.845-43.277-0.099-64.317c10.145-44.972,43.196-82.998,87.507-96.711c27.559-8.528,57.928-7.721,86.336-4.945
				c26.981,2.636,54.337,9.448,76.525,25.667c37.743,27.587,54.351,73.806,55.364,119.269
				C396.849,234.179,393.309,256.967,385.602,277.997z"/>
		</g>
	</g>
	<g>
		<g>
			<path d="M360.722,164.239c-10.379-22.383-28.767-40.16-49.575-52.939c-38.882-23.88-85.882-22.243-124.776,0.627
				c-22.082,12.984-40.424,32.838-51.148,56.123c-10.674,23.174-12.358,49.244-5.328,73.593c-1.123,1.611-1.391,3.763,0.075,5.878
				c28.5,41.13,77.505,60.914,126.782,56.999c43.632-3.466,89.051-29.515,105.806-71.333
				C371.535,210.776,370.862,186.109,360.722,164.239z M348.857,236.745c-20.813,40.731-70.84,59.856-114.448,56.93
				c-36.559-2.455-70.36-19.123-92.441-48.348c0.138-0.822,0.08-1.729-0.248-2.701c-14.156-41.947,3.318-85.496,37.199-112.271
				c16.518-13.054,36.441-21.827,57.311-24.743c22.228-3.105,43.892,1.479,63.63,11.896c21.511,11.351,40.771,29.431,51.084,51.672
				C361.065,191.009,359.721,215.484,348.857,236.745z"/>
		</g>
	</g>
	<g>
		<g>
			<path d="M331.384,183.378c-5.415-21.93-22.483-41.001-42.002-51.639c-18.825-10.26-41.707-10.84-62.001-5.238
				c-40.872,11.279-73.539,49.758-75.338,92.367c-0.084,1.988,0.724,3.345,1.935,4.113c9.156,39.494,60.455,52.609,95.981,47.871
				C293.174,265.09,343.767,233.519,331.384,183.378z M315.646,222.634c-7.973,13.637-22.513,22.934-36.699,28.99
				c-14.778,6.31-30.986,9.6-47.058,9.309c-26.582-0.48-63.867-13.562-67.876-43.911c-0.115-0.874-0.388-1.626-0.774-2.259
				c3.59-41.604,41.704-76.754,82.628-80.584c23.022-2.156,44.062,7.207,59.466,24.098
				C321.466,175.966,328.174,201.206,315.646,222.634z"/>
		</g>
	</g>
</g>
</svg>
