<?xml version="1.0" encoding="utf-8"?>
<!-- Generator: Adobe Illustrator 16.0.3, SVG Export Plug-In . SVG Version: 6.00 Build 0)  -->
<!DOCTYPE svg PUBLIC "-//W3C//DTD SVG 1.1//EN" "http://www.w3.org/Graphics/SVG/1.1/DTD/svg11.dtd">
<svg version="1.1" id="Layer_1" xmlns="http://www.w3.org/2000/svg" xmlns:xlink="http://www.w3.org/1999/xlink" x="0px" y="0px"
	 width="512px" height="512px" viewBox="0 0 512 512" enable-background="new 0 0 512 512" xml:space="preserve">
<g>
	<g>
		<g>
			<path fill="#FEBF10" d="M173.463,237.777c-0.931-2.628-1.904-8.522-4.764-9.988c-5.711-2.928-13.662-0.302-19.751-0.266
				c-6.518,0.038-11.452-2.988-13.13-9.56c-1.241-4.865-1.679-9.87-2.948-14.73c-0.884-3.383-1.869-6.734-2.854-10.086
				c-4.002,0.203-8.027,0.186-11.979,0.816c-4.581,0.73-6.985,2.186-6.447,7.001c0.468,4.187,1.284,8.309,1.416,12.526
				c0.088,2.815-0.743,8.229,0.584,10.735c1.692,3.195,0.103,6.388-2.289,7.884c-0.776,1.289-2.048,2.315-3.847,2.678
				c-5.125,1.029-10.092,3.857-14.696,6.215c-3.827,1.96-8.48,3.51-11.751,6.372c-0.025,0.022-0.244,0.212-0.166,0.483
				c0.461,1.619,1.084,3.172,1.827,4.684c2.006,4.08,3.541,7.666,8.456,8.031c8.634,0.641,18.635,0.316,24.107,8.426
				c4.187,6.203,5.74,13.752,6.715,21.153c7.374,0.296,14.926-0.458,21.916-2.786c0.496-10.02-1.974-21.704,3.241-30.512
				c2.937-4.959,11.117-5.923,16.206-6.92c4.241-0.832,8.653-1.377,12.865-2.506C175.643,244.142,174.598,240.983,173.463,237.777z
				 M98.453,256.788c-7.06,0-7.937-10.971-0.848-10.971C104.665,245.817,105.542,256.788,98.453,256.788z M121.453,205.788
				c-1.523,0-2.882-0.32-4.055-1.354c-1.07-0.941-1.745-2.287-1.854-3.709c-0.112-1.469,0.38-2.949,1.354-4.055
				c0.882-1.002,2.335-1.854,3.708-1.854h1c1.523,0,2.882,0.32,4.055,1.353c1.07,0.942,1.745,2.288,1.854,3.709
				c0.112,1.468-0.38,2.95-1.354,4.054c-0.882,1.002-2.335,1.855-3.708,1.855H121.453z M136.161,280.933
				c-0.881,1.002-2.335,1.855-3.708,1.855c-0.749-0.002-1.513,0.001-2.249-0.124c-1.29-0.219-2.151-0.737-3.181-1.479
				c-1.635-1.178-2.45-3.523-2.479-5.459c-0.022-1.513,0.332-2.895,1.354-4.055c0.941-1.069,2.287-1.744,3.708-1.854
				c1.469-0.113,2.95,0.38,4.055,1.353c0.43,0.378,0.819,0.856,1.133,1.383c0.299,0.17,0.589,0.372,0.867,0.617
				c1.07,0.942,1.745,2.288,1.854,3.709C137.627,278.347,137.135,279.829,136.161,280.933z M162.161,238.933
				c-0.882,1.002-2.335,1.855-3.708,1.855h-1c-1.523,0-2.882-0.32-4.055-1.354c-1.07-0.941-1.745-2.287-1.854-3.709
				c-0.112-1.469,0.38-2.949,1.354-4.055c0.882-1.002,2.335-1.854,3.708-1.854h1c1.523,0,2.882,0.32,4.055,1.353
				c1.07,0.942,1.745,2.288,1.854,3.709C163.627,236.347,163.135,237.829,162.161,238.933z"/>
		</g>
	</g>
	<g>
		<g>
			<path fill="#F6851F" d="M387.093,208.108c-6.756-1.246-11.747,5.636-11.578,11.771c0.054,1.935-0.73,3.4-1.897,4.37
				c1.222,0.482,2.812,0.908,4.229,1.086c4.098,0.516,10.003,0.01,12.806-3.268C393.533,218.698,392.646,209.132,387.093,208.108z"
				/>
		</g>
	</g>
	<g>
		<g>
			<path fill="#127274" d="M279.258,136.819c-2.793-2.281-6.297-2.611-9.808-2.527c-6.859,0.164-13.678,0.392-20.54,0.43
				c-8.198,0.046-21.274-0.206-25.362,7.966c0.681,1.226,0.936,2.675,0.737,4.009c16.694,0.312,33.389,0.393,50.151-0.359
				c2.724-0.121,5.455-0.282,8.189-0.457c0.12-0.336,0.274-0.678,0.477-1.025C284.438,142.567,280.984,138.229,279.258,136.819z"/>
		</g>
	</g>
	<g>
		<g>
			<path fill="#F6851F" d="M347.746,255.544c-6.907-0.703-11.368,4.824-11.231,11.335c0.04,1.917-0.739,3.373-1.896,4.343
				c1.743,1.418,3.847,2.381,6.229,2.855c5.046,1.004,11.707,0.541,13.897-4.963C357.12,263.144,354.541,256.235,347.746,255.544z"
				/>
		</g>
	</g>
	<g>
		<g>
			<path fill="#127274" d="M488.812,353.177c-2.631-15.441-5.79-30.828-9.285-46.098c-10.756-46.981-22.792-102.065-63.447-133.003
				c-22.133-16.843-48.695-21.543-76.021-20.747c-15.82,0.462-31.563,2.148-47.356,3.074c-16.059,0.941-32.138,1.616-48.225,1.744
				c-31.699,0.25-63.722-3.531-95.343-0.457c-15.1,1.467-29.911,4.549-43.915,10.504c-13.09,5.568-25.205,12.946-37.116,20.668
				c-0.446,0.289-0.894,0.497-1.337,0.648c-6.161,11.487-11.266,23.373-14.345,36.152c-6.934,28.775-6.884,58.701-13.709,87.488
				c-4.271,18.018-10.23,35.578-14.111,53.702c-3.886,18.151-7.407,38.437-2.799,56.804c4.28,17.062,16.731,30.926,34.67,33.977
				c16.433,2.797,30.226-7.453,40.325-19.387c11.892-14.051,20.516-30.576,28.4-47.113c7.911-16.592,14.473-35.043,27.103-48.75
				c18.385-19.953,45.154-23.381,71.055-23.553c28.52-0.189,58.841,1.481,86.418,9.27c13.21,3.731,25.683,9.195,36.483,17.795
				c10.685,8.506,19.667,18.827,28.348,29.312c12.702,15.34,25.336,29.984,41.273,42.08c12.558,9.531,29.092,20.82,45.582,20.7
				c20.808-0.151,28.004-21.442,29.869-39.085C492.943,383.653,491.379,368.239,488.812,353.177z M183.848,256.493
				c-5.024,1.995-10.569,2.697-15.856,3.68c-2.788,0.518-5.606,1-8.331,1.805c-1.152,0.341-2.336,0.68-3.439,1.176
				c-3.391,8.895-0.654,19.889-1.793,29.198c-0.24,1.972-1.861,3.421-3.58,4.142c-10.914,4.584-23.205,5.248-34.868,4.208
				c-2.464-0.22-4.181-2.726-4.436-4.976c-0.956-8.477-1.372-22.058-11.893-23.664c-5.044-0.77-10.216-0.033-15.106-1.721
				c-5.125-1.77-8.091-5.939-10.466-10.586c-3.867-7.566-7.04-16.246,1.469-22.027c4.617-3.139,9.995-5.346,14.983-7.832
				c3.979-1.983,7.926-3.809,12.12-5.076c-0.663-3.833-0.448-7.865-0.668-11.75c-0.319-5.615-2.544-11.82-1.21-17.418
				c3.575-14.996,21.094-12.391,32.832-13.834c2.332-0.287,4.958,1.395,5.615,3.666c1.675,5.789,3.573,11.545,4.83,17.443
				c0.905,4.249,0.98,9.172,2.739,13.177c0.065,0.149,0.124,0.263,0.175,0.353c0.916,0.131,1.865,0.088,2.887,0
				c3.945-0.338,7.811-0.699,11.777-0.662c6.958,0.065,14.092,1.221,17.854,7.873c4.402,7.783,8.032,18.221,8.032,27.212
				C187.515,253.454,186.287,255.525,183.848,256.493z M314.928,227.227c-1.019,12.327-3.403,26.136-13.116,34.757
				c-8.311,7.377-19.562,9.361-30.358,8.805c-1.141-0.059-2.116-0.404-2.926-0.932c-11.719,0.168-23.539,0.535-35.17-0.364
				c-7.65-0.591-15.404-3.192-19.336-10.333c-2.567-4.664-3.771-9.572-5.183-14.67c-1.944-7.023-3.964-14.041-5.53-21.161
				c-1.219-5.538-2.576-11.021-3.834-16.546c-1.021-4.486-1.578-9.123,0.008-13.457c0.018-0.344,0.062-0.699,0.148-1.072
				c0.212-0.914,0.483-1.791,0.811-2.675c5.408-14.579,27.87-14.749,40.497-14.487c15.642,0.326,30.982,2.619,46.403,5.004
				c8.498,1.314,18.771,2.908,23.981,10.66c3.005,4.471,4.192,9.779,4.191,15.124C315.513,212.995,315.516,220.13,314.928,227.227z
				 M364.906,273.238c-4.264,10.716-17.173,14.36-27.604,11.28c-9.207-2.718-19.432-11.212-13.2-21.664
				c0.613-1.029,1.411-1.736,2.291-2.182c2.738-10.215,11.82-17.685,23.452-15.927C363.36,246.788,369.794,260.952,364.906,273.238z
				 M375.748,236.134c-8.071-1.246-18.177-7.174-15.117-16.881c0.73-2.316,2.507-3.586,4.429-3.977
				c2.247-10.637,11.571-20.283,23.294-18.121c11.834,2.183,19.107,18.232,12.934,28.777
				C396.156,234.698,385.355,237.616,375.748,236.134z M449.079,269.064c-2.972,13.224-15.928,19.723-28.737,18.562
				c-12.449-1.129-22.761-10.199-20.711-23.373c0.4-2.576,2.109-3.916,4.057-4.239c1.844-10.718,12.601-17.317,23.784-16.952
				C441.467,243.519,452.326,254.614,449.079,269.064z"/>
		</g>
	</g>
	<g>
		<g>
			<path fill="#BCBCBC" d="M299.373,194.499c-6.511-3.352-14.697-3.768-21.838-4.866c-12.182-1.876-24.491-3.497-36.835-3.587
				c-6.776-0.049-13.981-0.021-20.566,1.784c-2.564,0.703-5.206,1.5-7.353,3.131c-1.19,0.905-1.885,1.882-2.231,2.954
				c0.068,0.884-0.104,1.841-0.594,2.834c-1.776,3.61,0.55,9.065,1.51,12.676c1.366,5.135,2.179,10.4,3.483,15.557
				c1.497,5.918,3.158,11.79,4.771,17.678c1.014,3.699,1.691,7.914,3.907,11.141c3.345,4.872,9.632,4.92,15.036,4.99
				c12.311,0.16,24.631,0.027,36.941,0.027c1.26,0,2.319,0.354,3.175,0.928c6.56-0.533,13.08-2.453,17.384-7.588
				c7.227-8.623,7.969-22.064,8.251-32.815C304.598,212.376,307.235,198.547,299.373,194.499z"/>
		</g>
	</g>
	<g>
		<g>
			<path fill="#127274" d="M264.95,122.552c-2.259-1.719-5.434-2.886-8.381-3.381c-5.421-0.908-10.168-0.102-11.677,4.67
				c2.487-0.088,4.916-0.092,7.199-0.064c4.042,0.049,8.716-0.514,13.4-0.753C265.322,122.86,265.143,122.699,264.95,122.552z"/>
		</g>
	</g>
	<g>
		<g>
			<path fill="#F6851F" d="M427.488,254.005c-6.846,0.016-13.88,3.006-12.974,10.874c0.353,3.062-1.509,4.944-3.798,5.528
				c3.21,9.643,24.928,8.291,27.371-2.582C439.807,260.177,435.711,253.985,427.488,254.005z"/>
		</g>
	</g>
	<g>
		<g>
			<path d="M492.384,314.623c-5.931-27.778-12.323-56.067-22.742-82.56c-8.351-21.23-19.993-41.293-36.234-57.461
				c-17.417-17.339-40.154-27.807-64.402-30.996c-24.595-3.234-49.7-0.555-74.529,1.416c0.726-7.652-6.03-15.73-12.099-19.293
				c-1.457-0.855-3.045-1.457-4.713-1.889c-0.441-7.035-9.355-13.262-19.055-15.303c-0.091-0.342-0.215-0.693-0.389-1.055
				c-4.688-9.775,10.892-20.701,18.382-23.789c12.984-5.354,27.29-3.443,40.602-0.666c7.577,1.582,14.919,3.359,22.688,3.69
				c8.298,0.353,15.917-2.666,23.103-6.486c5.931-3.153,11.929-7.743,15.648-13.405c1.443-2.195,2.554-4.865,3.87-7.359
				c1.837,0.646,3.97,0.359,5.648-1.535c3.442-3.881,4.595-8.267,1.428-12.706c-1.831-2.566-4.989-3.016-7.635-1.483
				c-5.315,3.076-8.001,8.647-10.688,13.916c-3.689,7.231-10.639,11.826-17.862,15.146c-15.827,7.275-33.424-1.551-49.647-3.142
				c-13.976-1.37-29.169,0.744-40.802,9.079c-8.665,6.207-19.278,18.15-16.134,29.631c-6.942,1.506-12.496,6.287-13.189,15.879
				c-0.018,0.245-0.018,0.482-0.009,0.716c-10.708,1.966-20.25,6.965-21.991,19.284c-0.109,0.771-0.074,1.498,0.07,2.174
				c-11.001-0.258-22.01-0.553-33.047-0.713c-21.668-0.317-43.485,1.18-64.329,7.463c-16.884,5.089-32.387,13.852-47.229,23.27
				c-2.391-0.908-5.375-0.425-6.993,2.408c-7.226,12.654-13.14,25.652-17.158,39.689c-4.021,14.044-5.88,28.643-7.614,43.11
				c-1.771,14.772-3.336,29.567-6.271,44.167c-1.897,9.439-4.691,18.672-7.307,27.928c-5.292,18.725-10.249,37.658-12.141,57.074
				c-1.783,18.31-0.793,37.771,9.047,53.846c9.303,15.201,28.159,25.086,45.892,24.439c17.163-0.626,31.455-12.668,41.899-25.252
				c11.876-14.309,20.611-31.141,28.604-47.828c7.94-16.578,14.353-34.789,27.28-48.263c18.932-19.731,51.338-18.602,76.518-17.752
				c14.737,0.497,29.369,1.798,43.959,3.906c13.912,2.01,27.781,4.862,40.633,10.712c25.354,11.544,41.115,36.604,58.955,56.803
				c11.35,12.851,24.845,23.998,39.271,33.213c13.601,8.688,31.022,16.877,47.578,13.632c20.705-4.059,29.422-24.844,32.404-43.663
				C506.392,374.722,498.598,343.729,492.384,314.623z M256.569,119.171c2.947,0.495,6.122,1.662,8.381,3.381
				c0.192,0.147,0.372,0.309,0.542,0.472c-4.685,0.239-9.358,0.802-13.4,0.753c-2.283-0.027-4.712-0.023-7.199,0.064
				C246.401,119.069,251.148,118.263,256.569,119.171z M248.91,134.722c6.862-0.038,13.681-0.266,20.54-0.43
				c3.511-0.084,7.015,0.246,9.808,2.527c1.727,1.41,5.181,5.748,3.845,8.035c-0.202,0.348-0.356,0.689-0.477,1.025
				c-2.734,0.175-5.466,0.336-8.189,0.457c-16.763,0.752-33.457,0.672-50.151,0.359c0.198-1.334-0.057-2.783-0.737-4.009
				C227.636,134.516,240.712,134.768,248.91,134.722z M491.33,398.903c-1.865,17.643-9.062,38.934-29.869,39.085
				c-16.49,0.12-33.024-11.169-45.582-20.7c-15.938-12.096-28.571-26.74-41.273-42.08c-8.681-10.485-17.663-20.807-28.348-29.312
				c-10.801-8.6-23.273-14.063-36.483-17.795c-27.577-7.788-57.898-9.459-86.418-9.27c-25.9,0.172-52.67,3.6-71.055,23.553
				c-12.63,13.707-19.191,32.158-27.103,48.75c-7.885,16.537-16.509,33.062-28.4,47.113c-10.1,11.934-23.893,22.184-40.325,19.387
				c-17.938-3.051-30.39-16.914-34.67-33.977c-4.608-18.367-1.087-38.652,2.799-56.804c3.881-18.124,9.841-35.685,14.111-53.702
				c6.825-28.787,6.775-58.713,13.709-87.488c3.079-12.779,8.184-24.665,14.345-36.152c0.443-0.151,0.891-0.359,1.337-0.648
				c11.911-7.722,24.026-15.1,37.116-20.668c14.004-5.955,28.815-9.037,43.915-10.504c31.621-3.074,63.644,0.707,95.343,0.457
				c16.087-0.128,32.166-0.803,48.225-1.744c15.793-0.926,31.536-2.612,47.356-3.074c27.325-0.796,53.888,3.904,76.021,20.747
				c40.655,30.938,52.691,86.021,63.447,133.003c3.495,15.27,6.654,30.656,9.285,46.098
				C491.379,368.239,492.943,383.653,491.33,398.903z"/>
		</g>
	</g>
	<g>
		<g>
			<path d="M179.482,223.667c-3.762-6.652-10.896-7.808-17.854-7.873c-3.967-0.037-7.832,0.324-11.777,0.662
				c-1.021,0.088-1.971,0.131-2.887,0c-0.051-0.09-0.109-0.203-0.175-0.353c-1.759-4.005-1.834-8.928-2.739-13.177
				c-1.257-5.898-3.155-11.654-4.83-17.443c-0.657-2.271-3.283-3.953-5.615-3.666c-11.738,1.443-29.257-1.162-32.832,13.834
				c-1.334,5.598,0.891,11.803,1.21,17.418c0.22,3.885,0.005,7.917,0.668,11.75c-4.194,1.268-8.141,3.093-12.12,5.076
				c-4.988,2.486-10.366,4.693-14.983,7.832c-8.509,5.781-5.336,14.461-1.469,22.027c2.375,4.646,5.341,8.816,10.466,10.586
				c4.891,1.688,10.062,0.951,15.106,1.721c10.521,1.606,10.937,15.188,11.893,23.664c0.255,2.25,1.972,4.756,4.436,4.976
				c11.663,1.04,23.954,0.376,34.868-4.208c1.719-0.721,3.34-2.17,3.58-4.142c1.139-9.31-1.598-20.304,1.793-29.198
				c1.104-0.496,2.287-0.835,3.439-1.176c2.725-0.805,5.543-1.287,8.331-1.805c5.287-0.982,10.832-1.685,15.856-3.68
				c2.439-0.968,3.667-3.039,3.667-5.614C187.515,241.888,183.885,231.45,179.482,223.667z M163.309,249.935
				c-5.089,0.997-13.27,1.961-16.206,6.92c-5.215,8.808-2.745,20.492-3.241,30.512c-6.99,2.328-14.542,3.082-21.916,2.786
				c-0.975-7.401-2.528-14.95-6.715-21.153c-5.473-8.109-15.474-7.785-24.107-8.426c-4.915-0.365-6.45-3.951-8.456-8.031
				c-0.743-1.512-1.366-3.064-1.827-4.684c-0.078-0.271,0.141-0.461,0.166-0.483c3.271-2.862,7.924-4.412,11.751-6.372
				c4.604-2.357,9.571-5.186,14.696-6.215c1.799-0.362,3.07-1.389,3.847-2.678c2.392-1.496,3.981-4.688,2.289-7.884
				c-1.327-2.507-0.496-7.92-0.584-10.735c-0.132-4.218-0.948-8.34-1.416-12.526c-0.538-4.815,1.866-6.271,6.447-7.001
				c3.952-0.631,7.978-0.613,11.979-0.816c0.985,3.352,1.971,6.703,2.854,10.086c1.27,4.86,1.707,9.865,2.948,14.73
				c1.678,6.571,6.612,9.598,13.13,9.56c6.089-0.036,14.04-2.662,19.751,0.266c2.859,1.466,3.833,7.36,4.764,9.988
				c1.135,3.206,2.18,6.364,2.711,9.651C171.962,248.558,167.55,249.103,163.309,249.935z"/>
		</g>
	</g>
	<g>
		<g>
			<path d="M125.66,196.17c-1.173-1.032-2.531-1.353-4.055-1.353h-1c-1.373,0-2.826,0.852-3.708,1.854
				c-0.974,1.105-1.466,2.586-1.354,4.055c0.109,1.422,0.784,2.768,1.854,3.709c1.173,1.033,2.531,1.354,4.055,1.354h1
				c1.373,0,2.826-0.854,3.708-1.855c0.974-1.104,1.466-2.586,1.354-4.054C127.405,198.458,126.73,197.112,125.66,196.17z"/>
		</g>
	</g>
	<g>
		<g>
			<path d="M161.66,231.17c-1.173-1.032-2.531-1.353-4.055-1.353h-1c-1.373,0-2.826,0.852-3.708,1.854
				c-0.974,1.105-1.466,2.586-1.354,4.055c0.109,1.422,0.784,2.768,1.854,3.709c1.173,1.033,2.531,1.354,4.055,1.354h1
				c1.373,0,2.826-0.854,3.708-1.855c0.974-1.104,1.466-2.586,1.354-4.054C163.405,233.458,162.73,232.112,161.66,231.17z"/>
		</g>
	</g>
	<g>
		<g>
			<path d="M135.66,273.17c-0.278-0.245-0.568-0.447-0.867-0.617c-0.313-0.526-0.703-1.005-1.133-1.383
				c-1.104-0.973-2.586-1.466-4.055-1.353c-1.421,0.109-2.767,0.784-3.708,1.854c-1.021,1.16-1.376,2.542-1.354,4.055
				c0.029,1.936,0.845,4.281,2.479,5.459c1.029,0.742,1.891,1.261,3.181,1.479c0.736,0.125,1.5,0.122,2.249,0.124
				c1.373,0,2.827-0.854,3.708-1.855c0.974-1.104,1.466-2.586,1.354-4.054C137.405,275.458,136.73,274.112,135.66,273.17z"/>
		</g>
	</g>
	<g>
		<g>
			<path d="M97.605,245.817c-7.089,0-6.212,10.971,0.848,10.971C105.542,256.788,104.665,245.817,97.605,245.817z"/>
		</g>
	</g>
	<g>
		<g>
			<path d="M388.354,197.155c-11.723-2.162-21.047,7.484-23.294,18.121c-1.922,0.391-3.698,1.66-4.429,3.977
				c-3.06,9.707,7.046,15.635,15.117,16.881c9.607,1.482,20.408-1.436,25.539-10.201
				C407.461,215.388,400.188,199.338,388.354,197.155z M390.652,222.067c-2.803,3.277-8.708,3.783-12.806,3.268
				c-1.417-0.178-3.008-0.604-4.229-1.086c1.167-0.97,1.951-2.436,1.897-4.37c-0.169-6.135,4.822-13.017,11.578-11.771
				C392.646,209.132,393.533,218.698,390.652,222.067z"/>
		</g>
	</g>
	<g>
		<g>
			<path d="M349.846,244.746c-11.632-1.758-20.714,5.712-23.452,15.927c-0.88,0.445-1.678,1.152-2.291,2.182
				c-6.231,10.452,3.993,18.946,13.2,21.664c10.431,3.08,23.34-0.564,27.604-11.28C369.794,260.952,363.36,246.788,349.846,244.746z
				 M354.745,269.114c-2.19,5.504-8.852,5.967-13.897,4.963c-2.382-0.475-4.485-1.438-6.229-2.855
				c1.156-0.97,1.936-2.426,1.896-4.343c-0.137-6.511,4.324-12.038,11.231-11.335C354.541,256.235,357.12,263.144,354.745,269.114z"
				/>
		</g>
	</g>
	<g>
		<g>
			<path d="M427.472,243.062c-11.184-0.365-21.94,6.234-23.784,16.952c-1.947,0.323-3.656,1.663-4.057,4.239
				c-2.05,13.174,8.262,22.244,20.711,23.373c12.81,1.161,25.766-5.338,28.737-18.562
				C452.326,254.614,441.467,243.519,427.472,243.062z M438.088,267.825c-2.443,10.873-24.161,12.225-27.371,2.582
				c2.289-0.584,4.15-2.467,3.798-5.528c-0.906-7.868,6.128-10.858,12.974-10.874C435.711,253.985,439.807,260.177,438.088,267.825z
				"/>
		</g>
	</g>
	<g>
		<g>
			<path d="M311.323,190.755c-5.21-7.752-15.483-9.346-23.981-10.66c-15.421-2.385-30.762-4.678-46.403-5.004
				c-12.627-0.262-35.089-0.092-40.497,14.487c-0.327,0.884-0.599,1.761-0.811,2.675c-0.087,0.373-0.131,0.729-0.148,1.072
				c-1.586,4.334-1.028,8.971-0.008,13.457c1.258,5.525,2.615,11.008,3.834,16.546c1.566,7.12,3.586,14.138,5.53,21.161
				c1.412,5.098,2.615,10.006,5.183,14.67c3.932,7.141,11.686,9.742,19.336,10.333c11.631,0.899,23.451,0.532,35.17,0.364
				c0.81,0.527,1.785,0.873,2.926,0.932c10.796,0.557,22.048-1.428,30.358-8.805c9.713-8.621,12.098-22.43,13.116-34.757
				c0.588-7.097,0.585-14.231,0.587-21.348C315.516,200.534,314.328,195.226,311.323,190.755z M304.415,219.342
				c-0.282,10.751-1.024,24.192-8.251,32.815c-4.304,5.135-10.824,7.055-17.384,7.588c-0.855-0.574-1.915-0.928-3.175-0.928
				c-12.311,0-24.631,0.133-36.941-0.027c-5.404-0.07-11.691-0.118-15.036-4.99c-2.216-3.227-2.894-7.441-3.907-11.141
				c-1.613-5.888-3.274-11.76-4.771-17.678c-1.305-5.156-2.117-10.422-3.483-15.557c-0.96-3.61-3.286-9.065-1.51-12.676
				c0.489-0.993,0.662-1.95,0.594-2.834c0.347-1.072,1.041-2.049,2.231-2.954c2.146-1.631,4.788-2.428,7.353-3.131
				c6.585-1.806,13.79-1.833,20.566-1.784c12.344,0.09,24.653,1.711,36.835,3.587c7.141,1.099,15.327,1.515,21.838,4.866
				C307.235,198.547,304.598,212.376,304.415,219.342z"/>
		</g>
	</g>
</g>
</svg>
