<?xml version="1.0" encoding="utf-8"?>
<!-- Generator: Adobe Illustrator 16.0.3, SVG Export Plug-In . SVG Version: 6.00 Build 0)  -->
<!DOCTYPE svg PUBLIC "-//W3C//DTD SVG 1.1//EN" "http://www.w3.org/Graphics/SVG/1.1/DTD/svg11.dtd">
<svg version="1.1" id="Layer_1" xmlns="http://www.w3.org/2000/svg" xmlns:xlink="http://www.w3.org/1999/xlink" x="0px" y="0px"
	 width="512px" height="512px" viewBox="0 0 512 512" enable-background="new 0 0 512 512" xml:space="preserve">
<g>
	<g>
		<g>
			<path fill="#BCBCBC" d="M111.388,297.061c-1.148-2.671-3.348-3.146-6.148-3.325c-1.232-0.079-5.184-0.158-5.096,1.659
				c0.067,1.38-0.299,2.519-0.928,3.413c0.135,5.57,0.475,11.141,1.185,16.669c0.679,5.293,0.861,12.138,4.378,16.494
				c4.943,6.128,7.564-7.545,7.859-10.521C113.396,313.825,114.501,304.3,111.388,297.061z"/>
		</g>
	</g>
	<g>
		<g>
			<path fill="#BCBCBC" d="M381.213,323.29c-0.942-1.35-1.95-2.652-3.022-3.902c-2.68-3.125-5.6-6.057-8.537-8.938
				c-5.752-5.639-11.734-11.025-17.595-16.549c-4.413-4.16-9.19-8.146-13.954-11.908c-2.712-2.143-5.547-4.344-8.742-5.742
				c-0.102,0.646-0.345,1.321-0.775,2.014c-3.402,5.467-6.324,11.958-1.964,17.756c4.569,6.076,12.233,9.998,18.878,13.353
				c4.537,2.29,9.256,4.205,13.777,6.522c3.922,2.012,7.424,4.545,11.18,6.826c1.993,1.212,4.562,3.219,7.067,2.826
				c1.433-0.225,2.853-0.744,4.242-1.369C381.587,323.88,381.413,323.577,381.213,323.29z"/>
		</g>
	</g>
	<g>
		<g>
			<path fill="#BCBCBC" d="M217.903,286.06c-1.539,0.445-3.283,0.217-4.875-1.109c-6.18-5.145-18.74,16.59-22.236,20.498
				c-4.029,4.504-9.15,8.037-13.694,11.991c-3.995,3.476-10.755,8.706-11.536,14.38c-0.853,6.193,6.367,1.758,8.732,0.195
				c4.932-3.256,9.166-7.382,14.039-10.699c8.014-5.456,16.979-10.189,23.729-17.268c2.904-3.043,7.146-7.084,7.671-11.52
				C219.999,290.272,219.104,288.085,217.903,286.06z"/>
		</g>
	</g>
	<g>
		<g>
			<path fill="#BCBCBC" d="M104.063,156.298c-0.443-0.707-0.587-1.012-2.102-1.441c-1.32-0.373-2.797-0.839-4.184-0.834
				c-0.775,0.004-1.587-0.004-2.369,0.117c1.126,2.457,0.35,4.871-1.197,6.468c0.024,0.249,0.037,0.498,0.066,0.747
				c0.199,1.658,0.43,3.313,0.681,4.966c0.429,2.826,1.082,5.729,1.171,8.594c0.057,1.853-0.281,8.798,1.693,9.513
				c2.039,0.738,3.709,1.504,5.396-0.415c1.334-1.519,2.279-2.749,2.595-4.743C106.844,172.753,107.75,162.19,104.063,156.298z"/>
		</g>
	</g>
	<g>
		<g>
			<path fill="#BCBCBC" d="M328.552,223.825c-2.98-11.916-9.567-22.67-18.779-30.816c-8.914-7.881-20.69-14.992-32.966-15.135
				c-24.981-0.289-43.304,20.429-53.22,41.391c-1.033,2.185-2.859,3.055-4.698,3.002c-4.769,10.892-5.626,22.963-1.563,34.552
				c4.713,13.443,14.355,25.347,26.746,32.491c19.433,11.205,42.729,11.521,60.18-3.623c4.129-3.582,8.086-7.945,11.604-12.814
				c1.021-2.851,2.399-4.852,4.041-6.162C327.723,253.542,332.06,237.839,328.552,223.825z M302.985,241.188
				c-3.558,8.508-10.143,16.869-19.04,20.118c-7.108,2.596-15.255,3.083-22.607,1.19c-15.274-3.934-27.283-16.074-24.077-32.729
				c0.639-3.324,3.432-4.58,6.031-4.232c1.274-6.053,6.619-11.395,11.137-15.002c5.861-4.68,12.594-8.512,20.35-7.18
				c8.577,1.473,17.624,6.154,23.72,12.403C305.477,222.911,306.874,231.886,302.985,241.188z"/>
		</g>
	</g>
	<g>
		<g>
			<path fill="#BCBCBC" d="M290.372,223.201c-4.576-4.046-10.446-7.804-16.57-8.856c-4.867-0.836-8.541,1.572-12.275,4.553
				c-2.836,2.265-8.102,6.354-7.383,10.497c0.74,4.265-3.043,6.208-6.388,5.519c-0.054,8.673,7.124,14.85,15.681,16.785
				c11.294,2.556,22.025-0.58,27.744-11.301C294.38,234.398,295.939,228.126,290.372,223.201z"/>
		</g>
	</g>
	<g>
		<g>
			<path fill="#BCBCBC" d="M175.552,453.944c-3.729-0.068-7.461-0.104-11.199-0.082c-9.539,0.055-19.516,0.209-29.486-0.252
				c-1.875,2.416-3.457,4.967-3.795,7.479c0.02,0.082,0.031,0.449,0.045,0.777c0.109-0.029,0.559,1.264,0.022,0.401
				c0.001,0.005,0.001,0.009,0.001,0.015c0.652,1.141,0.115,0.646,1.641,1.724c-1.025-0.724,0.68,0.356,0.902,0.464
				c0.559,0.266,1.124,0.518,1.703,0.735c0.072,0.001,1.403,0.411,1.562,0.449c0.789,0.188,1.581,0.366,2.382,0.498
				c3.505,0.58,6.403,0.707,10.013,0.542c7.322-0.336,14.717-1.487,21.482-4.396c1.754-0.754,4.551-2.492,5.191-3.257
				c0.021-0.024,0.03-0.032,0.049-0.054c-0.011-0.061-0.012-0.121,0.003-0.146C174.948,457.126,174.926,455.395,175.552,453.944z"/>
		</g>
	</g>
	<g>
		<g>
			<path fill="#BCBCBC" d="M419.562,445.983c-0.066-0.443-0.028-0.676,0.023-0.801c-0.09,0.051-0.238,0.102-0.502,0.121
				c-1.947,0.134-3.42-0.6-4.388-1.742c-5.513,0.312-11.057,0.389-16.612,0.742c-6.338,0.402-12.658,0.978-18.969,1.641
				c-0.348,0.516-0.799,1.001-1.379,1.434c-4.341,3.229-7.34,6.018-1.477,8.971c5.434,2.738,11.944,4.204,18.039,4.057
				c6.087-0.146,14.227-0.516,19.62-3.64c2.776-1.608,5.05-3.612,5.517-6.967C419.611,448.526,419.751,447.269,419.562,445.983z"/>
		</g>
	</g>
	<g>
		<g>
			<path fill="#BCBCBC" d="M273.249,135.938c-0.632-6.84-1.178-13.637-1.355-20.504c-0.164-6.246-0.027-12.989-1.877-19.019
				c-1.685-5.495-3.883-7.417-9.539-5.407c-1.219,0.434-2.334,0.439-3.306,0.152c0.247,16.195,2.173,32.395,1.877,48.559
				c-0.108,5.936-0.321,12.016,0.486,17.914c0.099,0.722,0.177,1.451,0.359,2.156c0.29,0.043,0.583,0.066,0.878,0.072
				c1.693-0.064,3.742-0.129,5.418-0.811c0.318-1.07,1.072-2.06,2.393-2.793C275.353,152.497,273.848,142.429,273.249,135.938z"/>
		</g>
	</g>
	<g>
		<g>
			<path fill="#127274" d="M451.753,388.629c-0.275-0.282-0.537-0.591-0.764-0.956c-0.049,0.09-0.363-0.145-0.961-0.723
				c-3.127-2.405-2.262-6.021,0.085-8.02c-0.279-22.531-1.671-45.045-2.003-67.578c-0.364-24.755-0.234-49.516-0.661-74.271
				c-0.429-24.82-1.328-49.673-3.916-74.373c-1.237-11.813-3.014-23.556-4.118-35.383c-1.072-11.474-1.928-23.022-3.986-34.374
				c-2.377-13.103-6.035-27.031-17.729-34.955c-5.71-3.869-12.137-5.17-18.885-5.721c-6.791-0.553-13.253-2.148-20.037-2.698
				c-32.475-2.633-65.064-5.122-97.672-4.132c-31.94,0.971-63.33,6.742-95.094,9.769c-15.396,1.467-30.82,2.55-46.244,3.668
				c-15.051,1.091-30.943,2.062-45.291,7.126c-10.08,3.56-19.076,9.355-25.148,18.32c-5.424,8.008-8.092,17.663-9.316,27.16
				c-1.33,10.328-1.178,20.762-0.515,31.135c0.946,14.799,1.917,29.586,2.632,44.399c3.161,65.483,4.291,131.112,11.014,196.371
				c0.211,2.045-0.559,3.562-1.773,4.522c0.115,2.364,0.561,4.74,0.983,7.066c0.688,3.783,1.125,7.604,1.835,11.383
				c1.279,6.812,3.369,13.918,7.931,19.307c5.329,6.295,14.22,9.746,21.954,11.974c8.372,2.412,16.982,3.835,25.664,4.521
				c14.005,1.107,28.06,0.674,42.092,0.693c14.992,0.02,29.943,1.146,44.934,1.286c16.369,0.153,32.732-0.226,49.092-0.747
				c16.148-0.516,32.388-0.539,48.51-1.537c31.197-1.932,61.973-7.944,93.248-8.914c11.365-0.352,26.678-0.398,34.914-9.762
				C450.856,413.718,455.398,400.995,451.753,388.629z M425.921,343.917c-5.062,25.045-23.49,41.422-48.283,46.464
				c-26.613,5.413-53.852-1.544-80.555,2.923c-1.325,0.221-2.426,0.008-3.295-0.49c0.104,3.701-0.213,7.389-1.465,10.854
				c-2.545,7.049-9.668,9.096-16.388,6.973c-8.27-2.613-13.659-8.349-15.99-16.193c-33.942,1.012-68.201,3.789-101.954-1.1
				c-8.98-1.301-17.927-3.031-26.637-5.613c-6.09-1.805-11.354-4.283-15.563-9.178c-6.549-7.615-8.419-17.665-11.521-27.013
				c-2.799-1.446-4.501-5.001-2.049-7.993c-0.069-0.031-0.14-0.055-0.208-0.088c-6.258-2.965-9.58-9.699-10.838-16.221
				c-1.868-9.678-2.775-19.455-2.959-29.295c-0.025-0.227-0.041-0.459-0.041-0.705v-2c0-1.787,0.703-3.176,1.751-4.143
				c1.303-3.477,4.163-5.814,7.653-7.114c-1.535-3.95-1.65-8.718-1.79-12.714c-0.234-6.732-0.056-13.467,0.161-20.195
				c0.586-18.229-0.775-36.573-0.775-54.834c0-0.406,0.039-0.791,0.108-1.156c-0.356-0.109-0.708-0.209-1.071-0.34
				c-7.974-2.887-8.81-11.095-9.037-18.504c-0.172-5.557-1.889-10.985-2.09-16.547c-0.066-1.848,0.358-3.737,1.16-5.289
				c-0.532-4.703,2.188-8.02,6.199-9.81c-0.143-0.423-0.249-0.866-0.27-1.354c-0.475-10.861,0.217-23.42,7.574-32.147
				c3.315-3.934,7.736-7.062,12.662-8.643c2.881-0.925,5.906-1.632,8.926-1.903c2.418-0.219,6.227,0.648,8.894,0.144
				c0.296-0.116,0.616-0.205,0.96-0.265c0.135-0.053,0.269-0.105,0.393-0.168c1.965-1.004,3.928-0.79,5.498,0.074h109.154
				c0.794,0,1.505,0.145,2.14,0.391c-0.109-3.826-0.19-7.653-0.2-11.482c-0.012-4.395,4.232-6.392,7.444-5.564
				c0.481-1.31,1.513-2.443,3.222-3.051c8.385-2.979,17.066-1.316,21.443,7.004c1.461,2.775,2.426,5.76,3.074,8.84
				c1.309-1.617,3.143-2.307,5.35-2.051c11.604,1.342,23.283,2.355,34.976,1.916c10.647-0.4,21.246-1.71,31.862-2.568
				c17.033-1.379,36.697-1.446,50.453,10.381c21.186,18.217,20.5,50.648,21.738,76.148c1.472,30.312,0.336,60.438,0.207,90.76
				c-0.055,13.182,0.607,26.254,1.271,39.408C427.774,321.542,428.13,332.981,425.921,343.917z"/>
		</g>
	</g>
	<g>
		<g>
			<path fill="#BCBCBC" d="M392.192,163.054c-0.306-3.053-1.18-6.601-4.938-6.219c-6.051,0.613-11.789,4.845-17.025,7.662
				c-12.711,6.842-25.258,13.965-37.232,22.037c0.98,3.699,2.996,7,4.83,10.369c0.988,0.38,1.859,1.041,2.468,1.98
				c0.174-0.092,0.354-0.178,0.546-0.258c12.361-5.107,22.406-14.125,34.578-19.421
				C382.937,175.935,393.198,173.118,392.192,163.054z"/>
		</g>
	</g>
	<g>
		<g>
			<path fill="#14B6B9" d="M263.647,307.917c-1.025-0.162-2.053-0.342-3.086-0.562c-11.046-2.348-21.279-7.43-29.928-14.357
				c-0.541,4.842-2.648,9.033-5.709,12.988c-8.219,10.619-19.627,16.912-30.441,24.449c-6.631,4.623-12.284,10.59-19.817,13.859
				c-7.553,3.279-17.216,1.734-19.493-7.48c-4.422-17.885,18-28.113,27.784-39.076c7.336-8.22,17.675-27.043,30.289-24.602
				c-9.882-16.51-12.825-36.574-4.497-55.295c-13.135-2.087-24.877-9.127-37.373-13.377c-8.641-2.938-17.282-6.412-24.69-11.847
				c-7.468-5.478-14.079-14.046-12.321-23.897c1.564-8.775,9.066-12.281,17.365-11.344c8.017,0.904,15.359,4.447,22.807,7.297
				c7.693,2.943,15.486,6.469,22.785,10.28c7.451,3.891,15.691,8.729,20.293,16.036c2.051,3.257,3.222,6.635,3.611,10.062
				c8.807-13.346,20.908-25.078,35.479-30.666c-1.525-0.421-2.914-1.047-4.035-1.931c-5.031-3.966-4.557-13.214-4.631-18.933
				c-0.102-7.846,0.03-15.543-0.456-23.385c-0.312-5.024-0.585-10.051-0.817-15.078c-0.501,0.154-1.059,0.244-1.682,0.244h-114
				c-0.445,0-0.865-0.045-1.262-0.127c-8.067,1.249-17.074-0.81-23.163,6.414c-5.074,6.02-5.771,14.336-5.605,22.014
				c0.413,0.323,0.821,0.681,1.237,1.081c1,0.962,1.519,2.056,1.678,3.155c1.711,0.48,3.343,1.184,4.803,2.118
				c6.208,3.974,7.786,11.714,8.354,18.667c0.484,5.922,1.424,15.154-1.537,20.639c-2.475,4.581-5.635,7.918-9.471,9.552
				c0.017,0.187,0.027,0.378,0.027,0.578c0.002,17.544,1.407,35.22,0.845,52.726c-0.214,6.656-0.476,13.326-0.3,19.985
				c0.096,3.615-0.044,10.384,1.53,12.637c0.567,0.812,0.87,1.629,0.974,2.42c2.281,0.435,4.453,1.206,6.318,2.301
				c11.043,6.485,9.102,25.454,8.115,36.108c-0.576,6.229-1.629,13.228-6.14,17.977c-1.347,1.418-2.918,2.619-4.618,3.496
				c3.713,8.989,4.53,22.166,11.898,29.127c5.114,4.832,12.586,6.014,19.246,7.473c7.691,1.684,15.467,2.979,23.299,3.806
				c30.258,3.194,60.679,0.968,91.008,0.046c-0.428-6.9-0.217-13.838-1.406-20.711c-2.113-12.223-3.621-24.604-2.652-37.016
				c0.212-2.72,1.943-4.065,3.959-4.299c-0.11-0.791-0.062-1.6,0.167-2.355c-1.256-1.447-1.763-3.502-0.655-5.744
				C259.057,310.69,261.179,308.912,263.647,307.917z"/>
		</g>
	</g>
	<g>
		<g>
			<path fill="#14B6B9" d="M415.62,300.505c-1.769-30.959,0.662-61.949,0.213-92.926c-0.171-11.757-0.917-23.489-1.457-35.233
				c-0.453-9.831-0.986-19.733-2.774-29.429c-1.64-8.885-4.331-18.156-9.952-25.398c-6.461-8.322-16.375-12.191-26.68-13.13
				c-14.168-1.29-28.686,1.114-42.793,2.323c-14.193,1.217-28.369,0.52-42.501-0.944c-0.699,0.372-1.558,0.577-2.593,0.536
				c-1.554-0.062-2.873-0.098-4.278-0.855c-0.106-0.057-0.207-0.122-0.31-0.186c0.151,2.236,0.23,4.466,0.294,6.646
				c0.265,9.015,1.237,17.924,1.714,26.918c0.5,9.406-0.234,20.535-8.936,26.025c-0.265,0.741-0.711,1.449-1.354,2.084
				c1.053-0.02,2.112-0.016,3.183,0.031c16.729,0.734,33.243,9.873,45.13,22.883c-0.018-0.072-0.041-0.142-0.059-0.214
				c-0.459-1.958-0.136-3.948,1.033-5.378c-0.669-2.052-0.229-4.424,2.082-6c15.949-10.88,32.96-19.979,50-29
				c11.174-5.916,25.002-3.676,27.265,10.508c2.283,14.318-6.36,22.307-18.532,27.562c-13.967,6.031-25.712,15.844-39.838,21.68
				c-2.225,0.92-4.105,0.335-5.369-0.943c-0.786,0.636-1.734,1.053-2.83,1.064c-0.373,0.004-0.722-0.021-1.057-0.063
				c1.61,3.626,2.876,7.35,3.714,11.12c3.438,15.47,0.493,31.59-6.378,45.844c9.592,3.59,20.313,13.428,25.434,18.342
				c7.068,6.785,14.453,13.23,21.332,20.213c4.813,4.886,12.739,11.523,13.676,18.984c1.414,2.661,0.984,6.697-2.521,8.439
				c-3.865,1.923-8.506,4.695-13.007,4.569c-4.438-0.125-8.175-1.634-11.907-4.001c-9.912-6.287-20.479-10.867-30.712-16.564
				c-7.662-4.266-15.905-9.525-19.62-17.844c-0.924-2.07-1.459-4.164-1.68-6.257c-10.621,9.72-23.568,15.822-37.665,16.634
				c2.895,1.373,5.353,3.592,6.694,6.496c2.104,4.557,1.311,9.408,1.687,14.242c0.539,6.938,1.444,13.834,2.637,20.689
				c1.93,11.094,4.532,22.068,5.978,33.236c0.035,0.276,0.07,0.555,0.106,0.832c0.782-0.846,1.857-1.477,3.247-1.709
				c16.641-2.783,33.431-1.129,50.184-0.795c15.915,0.316,33.17-0.209,47.283-8.529C419.816,357.616,417.118,326.731,415.62,300.505
				z"/>
		</g>
	</g>
	<g>
		<g>
			<path fill="#BCBCBC" d="M188.316,182.779c-10.929-5.135-22.95-11.526-34.854-13.985c-4.654-0.962-10.243-1.352-8.038,5.392
				c2.151,6.576,8.655,10.726,14.534,13.714c7.076,3.599,14.567,5.777,21.893,8.736c9.264,3.742,18.245,8.441,28.096,10.242
				C212.661,194.806,198.083,187.368,188.316,182.779z"/>
		</g>
	</g>
	<g>
		<g>
			<path fill="#BCBCBC" d="M282.126,385.745c-0.85-6.779-2.096-13.426-3.417-20.133c-2.067-10.492-4.142-21.041-5.096-31.706
				c-0.37-4.124,0.046-8.438-0.544-12.521c-0.133-0.918-0.281-2.228-1.26-2.668c-0.34-0.152-1.16-0.504-1.995-0.725
				c0.651,1.844,0.411,4.021-1.022,5.455l-1,1c-0.826,0.826-1.748,1.425-2.842,1.698c0.112,0.536,0.156,1.108,0.107,1.721
				c-1.337,17.14,3.848,33.892,4.174,50.955c0.043,2.249-0.012,5.022,0.218,7.792c0.478,1.084,0.64,2.303,0.475,3.447
				c0.554,2.729,1.573,5.226,3.491,6.924c1.781,1.577,4.996,3.752,7.551,3.596c1.076-0.066,0.747,0.285,1.271-1.162
				C283.624,395.577,282.649,389.917,282.126,385.745z"/>
		</g>
	</g>
	<g>
		<g>
			<path fill="#010101" d="M298.498,215.758c-6.096-6.249-15.143-10.931-23.72-12.403c-7.756-1.332-14.488,2.5-20.35,7.18
				c-4.518,3.607-9.862,8.949-11.137,15.002c-2.6-0.348-5.393,0.908-6.031,4.232c-3.206,16.654,8.803,28.795,24.077,32.729
				c7.353,1.893,15.499,1.405,22.607-1.19c8.897-3.249,15.482-11.61,19.04-20.118C306.874,231.886,305.477,222.911,298.498,215.758z
				 M291.181,240.397c-5.719,10.721-16.45,13.856-27.744,11.301c-8.557-1.936-15.734-8.112-15.681-16.785
				c3.345,0.689,7.128-1.254,6.388-5.519c-0.719-4.144,4.547-8.232,7.383-10.497c3.734-2.98,7.408-5.389,12.275-4.553
				c6.124,1.053,11.994,4.811,16.57,8.856C295.939,228.126,294.38,234.398,291.181,240.397z"/>
		</g>
	</g>
	<g>
		<g>
			<path fill="#010101" d="M427.216,310.464c-0.664-13.154-1.326-26.227-1.271-39.408c0.129-30.322,1.265-60.448-0.207-90.76
				c-1.238-25.5-0.553-57.932-21.738-76.148c-13.756-11.827-33.42-11.76-50.453-10.381c-10.616,0.858-21.215,2.168-31.862,2.568
				c-11.692,0.439-23.372-0.574-34.976-1.916c-2.207-0.256-4.041,0.434-5.35,2.051c-0.648-3.08-1.613-6.064-3.074-8.84
				c-4.377-8.32-13.059-9.983-21.443-7.004c-1.709,0.607-2.74,1.741-3.222,3.051c-3.212-0.827-7.456,1.17-7.444,5.564
				c0.01,3.829,0.091,7.656,0.2,11.482c-0.635-0.246-1.346-0.391-2.14-0.391H135.081c-1.57-0.864-3.533-1.078-5.498-0.074
				c-0.124,0.062-0.258,0.115-0.393,0.168c-0.344,0.06-0.664,0.148-0.96,0.265c-2.667,0.505-6.476-0.362-8.894-0.144
				c-3.02,0.271-6.045,0.979-8.926,1.903c-4.926,1.581-9.347,4.709-12.662,8.643c-7.357,8.728-8.049,21.286-7.574,32.147
				c0.021,0.488,0.127,0.932,0.27,1.354c-4.012,1.79-6.731,5.106-6.199,9.81c-0.802,1.552-1.227,3.441-1.16,5.289
				c0.201,5.562,1.918,10.99,2.09,16.547c0.228,7.409,1.063,15.617,9.037,18.504c0.363,0.131,0.715,0.23,1.071,0.34
				c-0.069,0.365-0.108,0.75-0.108,1.156c0,18.261,1.361,36.604,0.775,54.834c-0.217,6.729-0.396,13.463-0.161,20.195
				c0.14,3.996,0.255,8.764,1.79,12.714c-3.49,1.3-6.351,3.638-7.653,7.114c-1.048,0.967-1.751,2.355-1.751,4.143v2
				c0,0.246,0.016,0.479,0.041,0.705c0.184,9.84,1.091,19.617,2.959,29.295c1.258,6.521,4.58,13.256,10.838,16.221
				c0.068,0.033,0.139,0.057,0.208,0.088c-2.452,2.992-0.75,6.547,2.049,7.993c3.103,9.348,4.973,19.397,11.521,27.013
				c4.21,4.895,9.474,7.373,15.563,9.178c8.71,2.582,17.656,4.312,26.637,5.613c33.753,4.889,68.012,2.111,101.954,1.1
				c2.331,7.845,7.721,13.58,15.99,16.193c6.72,2.123,13.843,0.076,16.388-6.973c1.252-3.465,1.568-7.152,1.465-10.854
				c0.869,0.498,1.97,0.711,3.295,0.49c26.703-4.467,53.941,2.49,80.555-2.923c24.793-5.042,43.221-21.419,48.283-46.464
				C428.13,332.981,427.774,321.542,427.216,310.464z M260.478,91.009c5.656-2.01,7.854-0.088,9.539,5.407
				c1.85,6.029,1.713,12.772,1.877,19.019c0.178,6.867,0.724,13.664,1.355,20.504c0.599,6.49,2.104,16.559-4.666,20.32
				c-1.32,0.733-2.074,1.723-2.393,2.793c-1.676,0.682-3.725,0.746-5.418,0.811c-0.295-0.006-0.588-0.029-0.878-0.072
				c-0.183-0.705-0.261-1.435-0.359-2.156c-0.808-5.898-0.595-11.979-0.486-17.914c0.296-16.164-1.63-32.363-1.877-48.559
				C258.144,91.448,259.259,91.442,260.478,91.009z M276.807,177.874c12.275,0.143,24.052,7.254,32.966,15.135
				c9.212,8.146,15.799,18.9,18.779,30.816c3.508,14.014-0.829,29.717-8.655,42.885c-1.642,1.311-3.021,3.312-4.041,6.162
				c-3.519,4.869-7.476,9.232-11.604,12.814c-17.451,15.145-40.747,14.828-60.18,3.623c-12.391-7.145-22.033-19.048-26.746-32.491
				c-4.062-11.589-3.205-23.66,1.563-34.552c1.839,0.053,3.665-0.817,4.698-3.002C233.503,198.303,251.825,177.585,276.807,177.874z
				 M338.104,281.993c4.764,3.762,9.541,7.748,13.954,11.908c5.86,5.523,11.843,10.91,17.595,16.549
				c2.938,2.881,5.857,5.812,8.537,8.938c1.072,1.25,2.08,2.553,3.022,3.902c0.2,0.287,0.374,0.59,0.555,0.889
				c-1.39,0.625-2.81,1.145-4.242,1.369c-2.505,0.393-5.074-1.614-7.067-2.826c-3.756-2.281-7.258-4.814-11.18-6.826
				c-4.521-2.317-9.24-4.232-13.777-6.522c-6.645-3.354-14.309-7.276-18.878-13.353c-4.36-5.798-1.438-12.289,1.964-17.756
				c0.431-0.692,0.674-1.367,0.775-2.014C332.558,277.649,335.393,279.851,338.104,281.993z M219.732,292.528
				c-0.524,4.436-4.767,8.477-7.671,11.52c-6.75,7.078-15.715,11.812-23.729,17.268c-4.873,3.317-9.107,7.443-14.039,10.699
				c-2.365,1.562-9.585,5.998-8.732-0.195c0.781-5.674,7.541-10.904,11.536-14.38c4.544-3.954,9.665-7.487,13.694-11.991
				c3.496-3.908,16.057-25.643,22.236-20.498c1.592,1.326,3.336,1.555,4.875,1.109C219.104,288.085,219.999,290.272,219.732,292.528
				z M97.823,184.427c-1.975-0.715-1.637-7.66-1.693-9.513c-0.089-2.864-0.742-5.768-1.171-8.594
				c-0.251-1.652-0.481-3.308-0.681-4.966c-0.029-0.249-0.042-0.498-0.066-0.747c1.547-1.597,2.323-4.011,1.197-6.468
				c0.782-0.121,1.594-0.113,2.369-0.117c1.387-0.005,2.863,0.461,4.184,0.834c1.515,0.43,1.658,0.734,2.102,1.441
				c3.687,5.893,2.78,16.455,1.75,22.971c-0.315,1.994-1.261,3.225-2.595,4.743C101.532,185.931,99.862,185.165,97.823,184.427z
				 M104.778,331.971c-3.517-4.356-3.699-11.201-4.378-16.494c-0.71-5.528-1.05-11.099-1.185-16.669
				c0.629-0.895,0.995-2.033,0.928-3.413c-0.088-1.817,3.863-1.738,5.096-1.659c2.801,0.18,5,0.654,6.148,3.325
				c3.113,7.239,2.009,16.765,1.25,24.39C112.343,324.426,109.722,338.099,104.778,331.971z M257.731,313.37
				c-1.107,2.242-0.601,4.297,0.655,5.744c-0.229,0.756-0.277,1.564-0.167,2.355c-2.016,0.233-3.747,1.579-3.959,4.299
				c-0.969,12.411,0.539,24.793,2.652,37.016c1.189,6.873,0.979,13.811,1.406,20.711c-30.329,0.922-60.75,3.148-91.008-0.046
				c-7.832-0.827-15.607-2.122-23.299-3.806c-6.66-1.459-14.132-2.641-19.246-7.473c-7.368-6.961-8.186-20.138-11.898-29.127
				c1.7-0.877,3.271-2.078,4.618-3.496c4.511-4.749,5.563-11.748,6.14-17.977c0.986-10.654,2.928-29.623-8.115-36.108
				c-1.865-1.095-4.037-1.866-6.318-2.301c-0.104-0.791-0.406-1.608-0.974-2.42c-1.574-2.253-1.435-9.021-1.53-12.637
				c-0.176-6.659,0.086-13.329,0.3-19.985c0.562-17.506-0.843-35.182-0.845-52.726c0-0.2-0.011-0.392-0.027-0.578
				c3.836-1.634,6.996-4.971,9.471-9.552c2.961-5.484,2.021-14.717,1.537-20.639c-0.567-6.953-2.146-14.693-8.354-18.667
				c-1.46-0.935-3.092-1.638-4.803-2.118c-0.159-1.1-0.678-2.193-1.678-3.155c-0.416-0.4-0.824-0.758-1.237-1.081
				c-0.166-7.678,0.531-15.994,5.605-22.014c6.089-7.224,15.096-5.165,23.163-6.414c0.396,0.082,0.816,0.127,1.262,0.127h114
				c0.623,0,1.181-0.09,1.682-0.244c0.232,5.027,0.506,10.054,0.817,15.078c0.486,7.842,0.354,15.539,0.456,23.385
				c0.074,5.719-0.4,14.967,4.631,18.933c1.121,0.884,2.51,1.51,4.035,1.931c-14.57,5.588-26.672,17.32-35.479,30.666
				c-0.39-3.428-1.561-6.806-3.611-10.062c-4.602-7.307-12.842-12.146-20.293-16.036c-7.299-3.812-15.092-7.337-22.785-10.28
				c-7.447-2.85-14.79-6.393-22.807-7.297c-8.299-0.938-15.801,2.568-17.365,11.344c-1.758,9.852,4.854,18.42,12.321,23.897
				c7.408,5.435,16.05,8.909,24.69,11.847c12.496,4.25,24.238,11.29,37.373,13.377c-8.328,18.721-5.385,38.785,4.497,55.295
				c-12.614-2.441-22.953,16.382-30.289,24.602c-9.784,10.963-32.206,21.191-27.784,39.076c2.277,9.215,11.94,10.76,19.493,7.48
				c7.533-3.27,13.187-9.236,19.817-13.859c10.814-7.537,22.223-13.83,30.441-24.449c3.061-3.955,5.168-8.146,5.709-12.988
				c8.648,6.928,18.882,12.01,29.928,14.357c1.033,0.221,2.061,0.4,3.086,0.562C261.179,308.912,259.057,310.69,257.731,313.37z
				 M209.946,206.878c-9.851-1.801-18.832-6.5-28.096-10.242c-7.325-2.959-14.816-5.138-21.893-8.736
				c-5.879-2.988-12.383-7.138-14.534-13.714c-2.205-6.743,3.384-6.354,8.038-5.392c11.904,2.459,23.926,8.851,34.854,13.985
				C198.083,187.368,212.661,194.806,209.946,206.878z M282.236,399.419c-0.523,1.447-0.194,1.096-1.271,1.162
				c-2.555,0.156-5.77-2.019-7.551-3.596c-1.918-1.698-2.938-4.195-3.491-6.924c0.165-1.145,0.003-2.363-0.475-3.447
				c-0.229-2.77-0.175-5.543-0.218-7.792c-0.326-17.063-5.511-33.815-4.174-50.955c0.049-0.612,0.005-1.185-0.107-1.721
				c1.094-0.273,2.016-0.872,2.842-1.698l1-1c1.434-1.434,1.674-3.611,1.022-5.455c0.835,0.221,1.655,0.572,1.995,0.725
				c0.979,0.44,1.127,1.75,1.26,2.668c0.59,4.082,0.174,8.396,0.544,12.521c0.954,10.665,3.028,21.214,5.096,31.706
				c1.321,6.707,2.567,13.354,3.417,20.133C282.649,389.917,283.624,395.577,282.236,399.419z M393.702,373.009
				c-14.113,8.32-31.368,8.846-47.283,8.529c-16.753-0.334-33.543-1.988-50.184,0.795c-1.39,0.232-2.465,0.863-3.247,1.709
				c-0.036-0.277-0.071-0.556-0.106-0.832c-1.445-11.168-4.048-22.143-5.978-33.236c-1.192-6.855-2.098-13.752-2.637-20.689
				c-0.376-4.834,0.418-9.686-1.687-14.242c-1.342-2.904-3.8-5.123-6.694-6.496c14.097-0.812,27.044-6.914,37.665-16.634
				c0.221,2.093,0.756,4.187,1.68,6.257c3.715,8.318,11.958,13.578,19.62,17.844c10.233,5.697,20.8,10.277,30.712,16.564
				c3.732,2.367,7.469,3.876,11.907,4.001c4.501,0.126,9.142-2.646,13.007-4.569c3.506-1.742,3.936-5.778,2.521-8.439
				c-0.937-7.461-8.862-14.099-13.676-18.984c-6.879-6.982-14.264-13.428-21.332-20.213c-5.12-4.914-15.842-14.752-25.434-18.342
				c6.871-14.254,9.816-30.374,6.378-45.844c-0.838-3.771-2.104-7.494-3.714-11.12c0.335,0.042,0.684,0.067,1.057,0.063
				c1.096-0.012,2.044-0.429,2.83-1.064c1.264,1.278,3.145,1.863,5.369,0.943c14.126-5.836,25.871-15.648,39.838-21.68
				c12.172-5.256,20.815-13.244,18.532-27.562c-2.263-14.184-16.091-16.424-27.265-10.508c-17.04,9.021-34.051,18.12-50,29
				c-2.312,1.576-2.751,3.948-2.082,6c-1.169,1.43-1.492,3.42-1.033,5.378c0.018,0.072,0.041,0.142,0.059,0.214
				c-11.887-13.01-28.401-22.148-45.13-22.883c-1.07-0.047-2.13-0.051-3.183-0.031c0.643-0.635,1.089-1.343,1.354-2.084
				c8.701-5.49,9.436-16.619,8.936-26.025c-0.477-8.994-1.449-17.903-1.714-26.918c-0.063-2.181-0.143-4.41-0.294-6.646
				c0.103,0.063,0.203,0.129,0.31,0.186c1.405,0.758,2.725,0.793,4.278,0.855c1.035,0.041,1.894-0.164,2.593-0.536
				c14.132,1.464,28.308,2.161,42.501,0.944c14.107-1.209,28.625-3.613,42.793-2.323c10.305,0.938,20.219,4.808,26.68,13.13
				c5.621,7.242,8.312,16.514,9.952,25.398c1.788,9.695,2.321,19.598,2.774,29.429c0.54,11.744,1.286,23.477,1.457,35.233
				c0.449,30.977-1.981,61.967-0.213,92.926C417.118,326.731,419.816,357.616,393.702,373.009z M332.997,186.534
				c11.975-8.072,24.521-15.195,37.232-22.037c5.236-2.817,10.975-7.049,17.025-7.662c3.758-0.382,4.632,3.166,4.938,6.219
				c1.006,10.064-9.256,12.881-16.773,16.151c-12.172,5.296-22.217,14.313-34.578,19.421c-0.191,0.08-0.372,0.166-0.546,0.258
				c-0.608-0.939-1.479-1.601-2.468-1.98C335.993,193.534,333.978,190.233,332.997,186.534z"/>
		</g>
	</g>
	<g>
		<g>
			<path fill="#010101" d="M461.851,383.999c-0.187-0.564-0.435-1.049-0.724-1.472c-0.142-31.152-2.048-62.287-2.271-93.453
				c-0.233-32.644-0.145-65.301-2.017-97.903c-0.936-16.312-2.455-32.59-4.695-48.776c-2.062-14.911-2.733-29.975-4.873-44.879
				c-1.945-13.558-4.737-27.448-13.062-38.641c-7.62-10.245-19.138-16.074-31.705-17.263c-6.648-0.629-13.057-2.134-19.67-2.673
				c-8.453-0.688-16.908-1.362-25.367-1.983c-16.006-1.175-32.035-2.101-48.08-2.506c-16.205-0.41-32.426-0.135-48.599,0.992
				c-15.952,1.111-31.714,3.734-47.569,5.711c-30.732,3.833-61.686,4.887-92.428,8.389c-24.518,2.793-48.805,9.463-62.404,31.631
				c-9.409,15.336-10.646,34.65-10.301,52.166c0.5,25.401,2.969,50.85,4.062,76.244c2.434,56.464,3.963,113.004,9.498,169.274
				c-0.146,0.285-0.279,0.585-0.385,0.911c-1.854,5.688-0.643,11.852,0.398,17.58c1.094,6.014,1.795,12.038,3.347,17.969
				c2.915,11.137,9.464,20.393,19.505,26.111c11.619,6.616,24.672,9.767,38.064,11.246c-2.993,6.031-3.689,12.635,1.579,18.406
				c5.886,6.449,17.323,6.812,25.321,6.609c9.61-0.245,19.738-2.201,28.337-6.601c6.464-3.308,11.71-9.862,8.257-16.874
				c7.235,0.229,14.469,0.52,21.723,0.721c16.359,0.456,32.734,0.172,49.09-0.273c32.365-0.883,64.486-1.723,96.646-5.704
				c3.245-0.401,6.49-0.804,9.736-1.2c-2.284,4.834-1.998,10.168,3.146,15.099c7.278,6.974,20.12,8.726,29.718,8.495
				c10.528-0.254,24.235-2.357,30.781-11.537c3.451-4.838,4.697-12.445,2.742-18.098c1.223-0.266,2.443-0.559,3.662-0.901
				C456.61,434.253,469.255,406.362,461.851,383.999z M176.065,458.987c-0.019,0.021-0.028,0.029-0.049,0.054
				c-0.641,0.765-3.438,2.503-5.191,3.257c-6.766,2.909-14.16,4.061-21.482,4.396c-3.609,0.165-6.508,0.038-10.013-0.542
				c-0.801-0.132-1.593-0.311-2.382-0.498c-0.159-0.038-1.49-0.448-1.562-0.449c-0.579-0.218-1.145-0.47-1.703-0.735
				c-0.223-0.107-1.928-1.188-0.902-0.464c-1.525-1.077-0.988-0.583-1.641-1.724c0-0.006,0-0.01-0.001-0.015
				c0.536,0.862,0.087-0.431-0.022-0.401c-0.014-0.328-0.025-0.695-0.045-0.777c0.338-2.512,1.92-5.062,3.795-7.479
				c9.971,0.461,19.947,0.307,29.486,0.252c3.738-0.022,7.47,0.014,11.199,0.082c-0.626,1.45-0.604,3.182,0.517,4.896
				C176.054,458.866,176.055,458.927,176.065,458.987z M419.435,449.799c-0.467,3.354-2.74,5.358-5.517,6.967
				c-5.394,3.124-13.533,3.493-19.62,3.64c-6.095,0.147-12.605-1.318-18.039-4.057c-5.863-2.953-2.864-5.741,1.477-8.971
				c0.58-0.433,1.031-0.918,1.379-1.434c6.311-0.663,12.631-1.238,18.969-1.641c5.556-0.354,11.1-0.43,16.612-0.742
				c0.968,1.143,2.44,1.876,4.388,1.742c0.264-0.02,0.412-0.07,0.502-0.121c-0.052,0.125-0.09,0.357-0.023,0.801
				C419.751,447.269,419.611,448.526,419.435,449.799z M442.526,423.187c-8.236,9.363-23.549,9.41-34.914,9.762
				c-31.275,0.97-62.051,6.982-93.248,8.914c-16.122,0.998-32.361,1.021-48.51,1.537c-16.359,0.521-32.723,0.9-49.092,0.747
				c-14.99-0.141-29.941-1.267-44.934-1.286c-14.032-0.02-28.087,0.414-42.092-0.693c-8.682-0.686-17.292-2.108-25.664-4.521
				c-7.734-2.228-16.625-5.679-21.954-11.974c-4.562-5.389-6.651-12.494-7.931-19.307c-0.71-3.778-1.146-7.6-1.835-11.383
				c-0.423-2.326-0.868-4.702-0.983-7.066c1.215-0.96,1.984-2.478,1.773-4.522c-6.723-65.259-7.853-130.888-11.014-196.371
				c-0.715-14.813-1.686-29.601-2.632-44.399c-0.663-10.373-0.815-20.807,0.515-31.135c1.225-9.497,3.893-19.152,9.316-27.16
				c6.072-8.965,15.068-14.761,25.148-18.32c14.348-5.064,30.24-6.035,45.291-7.126c15.424-1.118,30.848-2.201,46.244-3.668
				c31.764-3.026,63.153-8.798,95.094-9.769c32.607-0.99,65.197,1.499,97.672,4.132c6.784,0.55,13.246,2.146,20.037,2.698
				c6.748,0.551,13.175,1.852,18.885,5.721c11.693,7.924,15.352,21.853,17.729,34.955c2.059,11.352,2.914,22.9,3.986,34.374
				c1.104,11.827,2.881,23.569,4.118,35.383c2.588,24.7,3.487,49.553,3.916,74.373c0.427,24.755,0.297,49.516,0.661,74.271
				c0.332,22.533,1.724,45.047,2.003,67.578c-2.347,1.998-3.212,5.614-0.085,8.02c0.598,0.578,0.912,0.812,0.961,0.723
				c0.227,0.365,0.488,0.674,0.764,0.956C455.398,400.995,450.856,413.718,442.526,423.187z"/>
		</g>
	</g>
</g>
</svg>
