<?xml version="1.0" encoding="utf-8"?>
<!-- Generator: Adobe Illustrator 16.0.3, SVG Export Plug-In . SVG Version: 6.00 Build 0)  -->
<!DOCTYPE svg PUBLIC "-//W3C//DTD SVG 1.1//EN" "http://www.w3.org/Graphics/SVG/1.1/DTD/svg11.dtd">
<svg version="1.1" id="Layer_1" xmlns="http://www.w3.org/2000/svg" xmlns:xlink="http://www.w3.org/1999/xlink" x="0px" y="0px"
	 width="512px" height="512px" viewBox="0 0 512 512" enable-background="new 0 0 512 512" xml:space="preserve">
<g>
	<g>
		<g>
			<path fill="#74CCCF" d="M418.861,346.004c-3.042-23.254-16.145-42.795-35.927-55.267c-20.969-13.22-46.495-22.491-71.555-21.823
				c-24.203,0.645-45.319,11.953-60.875,30.342c-14.887,17.598-25.359,41.599-16.607,64.402c0.622,1.619,0.47,3.057-0.146,4.211
				c0.848,4.516,2.053,8.954,3.649,13.293c4.249,11.547,10.447,22.554,17.984,32.617c3.632-9.375,13.516-12.368,22.752-13.027
				c5.133-0.367,10.288-0.289,15.421-0.651c4.083-0.288,9.047-0.51,12.506-2.995c9.792-7.032,4.617-20.733,1.062-29.602
				c-4.398-10.975-9.574-22.473-7.323-34.574c3.417-18.367,20.738-31.051,39.192-30.305c19.709,0.798,35.841,19.215,33.243,39.152
				c-1.17,8.985-6.082,16.482-10.649,24.072c-4.207,6.992-10.232,17.196-6.531,25.625c1.517,3.453,6.263,3.375,9.456,3.969
				c5.167,0.959,9.917,2.535,14.179,5.707c8.318,6.188,12.814,15.297,15.77,24.924C412.713,403.781,422.5,373.813,418.861,346.004z"
				/>
		</g>
	</g>
	<g>
		<g>
			<path fill="#127274" d="M193.307,244.434c1.547-4.771-2.382-7.895-6.189-10.281c-5.586-3.502-11.616-6.159-17.538-9.025
				c-7.031-3.401-14.834-7.572-18.921-14.594c-5.672-9.746-3.586-20.264,0.405-30.242c3.939-9.848,8.868-19.035,10.215-29.703
				c1.192-9.438,0.499-19.623-3.286-28.445c-3.836-8.943-10.886-15.096-20.719-16.356c-8.108-1.04-15.302,2.747-19.479,9.755
				c-4.424,7.424-6.799,16.238-7.047,24.877c-0.347,12.057,3.75,23.401,6.061,35.104c0.238,0.588,0.381,1.264,0.386,2.041
				c0.125,0.708,0.121,1.349,0.019,1.928c0.11,9.299,0.405,18.426-4.585,26.74c-3.524,5.871-8.631,9.553-14.73,12.4
				c-9.413,4.395-24.142,7.311-22.7,20.43c0.063,0.58,0.042,1.113-0.041,1.607c1.396,1,2.819,1.959,4.275,2.87
				c33.588,21.019,80.335,26.341,115.601,6.171C193.437,248.695,192.515,246.877,193.307,244.434z"/>
		</g>
	</g>
	<g>
		<g>
			<path fill="#74CCCF" d="M237.123,168.508c-2.093-33.367-19.375-65.324-47.238-84.143C150.963,58.078,95.229,60.729,59.289,91.05
				c-0.012,0.011-0.024,0.018-0.037,0.028c-15.562,25.295-19.959,57.646-16.952,86.807c1.358,13.168,3.939,27.264,10.754,38.823
				c3.225,5.47,7.14,10.503,11.596,15.011c2.358-10.021,11.532-15.799,21.638-20.03c4.654-1.948,10.799-3.721,14.268-7.62
				c6.646-7.472,5.729-16.334,5.669-25.658c-1.712-9.661-5.365-19.135-6.221-28.932c-0.499-5.707-0.333-11.557,0.556-17.221
				c1.778-11.321,6.052-22.937,14.875-30.65c14.881-13.013,39.292-6.622,49.166,9.528c10.372,16.966,10.44,39.652,3.219,57.821
				c-3.623,9.115-11.062,20.121-9.735,30.349c1.048,8.074,8.884,12.335,15.491,15.532c10.766,5.21,32.869,13.252,31.254,28.321
				C227.492,225.547,238.949,197.621,237.123,168.508z"/>
		</g>
	</g>
	<g>
		<g>
			<path fill="#127274" d="M383.524,427.821c-2.761-8.571-7.177-17.354-15.898-20.368c-7.182-2.482-17.065-1.411-21.372-9.166
				c-9.938-17.896,5.17-33.915,12.352-49.244c4.117-8.787,3.515-17.814-2.15-25.912c-4.705-6.727-12.486-10.185-20.663-9.511
				c-8.178,0.673-16.118,4.456-21.001,11.214c-5.854,8.1-5.198,17.828-2.029,26.838c3.461,9.84,9.008,19.629,9.818,30.204
				c0.742,9.696-3.023,20.333-11.915,25.267c-7.896,4.381-17.497,3.985-26.237,4.298c-6.874,0.246-16.464-0.167-19.298,7.481
				c-0.654,1.766-1.832,2.705-3.16,3.02c7.476,8.612,15.917,16.355,24.923,22.883c18.696,13.551,42.333,18.959,64.614,11.654
				c12.507-4.101,23.842-11.198,33.526-20.289C382.051,434.361,381.792,430.268,383.524,427.821z"/>
		</g>
	</g>
	<g>
		<g>
			<path fill="#127274" d="M430.295,190.436c1.261-7.156-1.871-12.46-7.055-17.159c-5.843-5.298-13.54-10.021-17.288-17.203
				c-5.742-11.007-0.674-19.931,5.833-29.271c3.923-5.63,6.323-12.028,4.437-19.002c-1.377-5.089-3.772-10.257-7.814-13.801
				c-5.9-5.175-14.135-7.143-21.426-3.638c-8.021,3.855-11.801,13.682-10.089,22.117c1.838,9.055,8.057,16.621,9.39,25.836
				c1.537,10.633-4.833,19.51-13.272,25.336c-7.578,5.232-18.667,9.479-20.356,19.571c13.597,9.507,30.062,15.11,46.58,15.6
				c10.68,0.316,21.532-1.181,31.433-5.147C430.244,192.764,430.076,191.678,430.295,190.436z"/>
		</g>
	</g>
	<g>
		<g>
			<path fill="#74CCCF" d="M454.574,81.078c-14.7-18.718-40.223-29.542-63.934-28.953c-11.541,0.287-23.574,3.232-32.312,11.24
				c-7.023,6.437-13.176,13.904-18.519,21.779c-9.614,14.17-23.211,38.055-13.549,55.268c1.647,2.936,0.431,5.881-1.666,7.484
				c0.15,0.4,0.286,0.808,0.444,1.205c4.059,10.207,10.447,19.191,18.361,26.619c2.887-6.871,8.79-11.824,15.248-15.907
				c6.006-3.797,17.259-9.177,16.936-17.712c-0.34-8.967-6.799-16.528-8.863-25.112c-2.396-9.964-0.924-20.608,5.759-28.718
				c12.152-14.746,34.519-13.45,46.428,0.893c7.804,9.398,11.858,24.129,6.717,35.772c-3.433,7.774-15.887,17.578-9.619,26.505
				c4.594,6.545,11.983,10.457,17.301,16.342c5.398,5.976,8.403,12.556,8.234,20.214c0.231-0.153,0.468-0.296,0.698-0.452
				c13.798-9.436,22.816-24.127,26.214-40.418C473.192,124.381,469.139,99.625,454.574,81.078z"/>
		</g>
	</g>
	<g>
		<g>
			<path fill="#010101" d="M456.368,66.592c-16.83-17.135-42.931-25.545-66.575-25.437c-12.156,0.056-24.215,3.624-34.264,10.47
				c-7.633,5.2-13.92,12.815-19.504,20.064c-12.065,15.664-25.741,38.648-23.6,59.75c-1.601,0.863-2.648,2.539-2.21,4.973
				c0.374,2.076,0.823,4.116,1.338,6.123c-9.991-0.818-20.357,2.408-29.835,5.124c-11.457,3.28-22.761,7.231-33.833,11.636
				c-0.203,0.08-0.396,0.169-0.579,0.264c-1.687-12.924-5.473-25.593-11.044-37.205c-13.158-27.426-36.045-48.633-64.478-59.469
				c-38.812-14.793-86.715-7.893-118.646,19.046c-0.6,0.506-1.049,1.071-1.379,1.667c-0.748,0.439-1.428,1.074-1.973,1.945
				c-12.711,20.318-17.743,44.615-19.024,68.269c-1.216,22.441,1.493,46.755,11.99,66.914
				c19.678,37.792,69.059,54.205,109.195,52.368c14.605-0.668,28.973-4.295,41.962-10.555c-1.372,2.024-1.434,4.717,1.167,6.574
				c8.723,6.232,17.443,12.471,25.853,19.125c3.291,2.604,6.585,5.181,9.662,8.035c1.567,1.454,3.213,2.977,5.067,4.088
				c-12.62,17.988-19.756,40.42-13.859,61.716c2.943,27.108,17.566,51.112,35.652,70.917c16.659,18.242,37.605,33.68,62.614,37.118
				c48.011,6.602,88.736-32.375,103.636-74.858c7.555-21.539,9.311-45.029,2.45-66.986c-7.13-22.819-24.16-39.434-44.456-51.072
				c-0.522-0.299-1.057-0.582-1.584-0.875c6.688-21.865,18.55-42.713,20.485-65.787c0.02-0.241,0.024-0.476,0.018-0.705
				c23.233,0.42,46.454-7.82,61.996-25.867C491.055,150.928,486.105,96.869,456.368,66.592z M79.432,243.538
				c-1.456-0.911-2.879-1.87-4.275-2.87c0.083-0.494,0.104-1.027,0.041-1.607c-1.442-13.119,13.287-16.035,22.7-20.43
				c6.099-2.848,11.206-6.529,14.73-12.4c4.99-8.314,4.696-17.441,4.585-26.74c0.102-0.579,0.107-1.22-0.019-1.928
				c-0.005-0.777-0.147-1.453-0.386-2.041c-2.311-11.702-6.408-23.047-6.061-35.104c0.248-8.639,2.623-17.453,7.047-24.877
				c4.176-7.008,11.37-10.795,19.479-9.755c9.833,1.261,16.883,7.413,20.719,16.356c3.785,8.822,4.479,19.007,3.286,28.445
				c-1.348,10.668-6.276,19.855-10.215,29.703c-3.991,9.979-6.077,20.496-0.405,30.242c4.086,7.021,11.89,11.192,18.921,14.594
				c5.922,2.866,11.952,5.523,17.538,9.025c3.807,2.387,7.736,5.51,6.189,10.281c-0.792,2.443,0.13,4.262,1.726,5.275
				C159.767,269.879,113.021,264.557,79.432,243.538z M173.575,214.838c-6.607-3.197-14.443-7.458-15.491-15.532
				c-1.327-10.228,6.113-21.233,9.735-30.349c7.221-18.169,7.153-40.855-3.219-57.821c-9.873-16.15-34.284-22.541-49.166-9.528
				c-8.822,7.714-13.097,19.329-14.875,30.65c-0.889,5.664-1.055,11.514-0.556,17.221c0.855,9.797,4.508,19.271,6.221,28.932
				c0.059,9.324,0.977,18.187-5.669,25.658c-3.468,3.899-9.614,5.672-14.268,7.62c-10.106,4.231-19.28,10.01-21.638,20.03
				c-4.456-4.508-8.371-9.541-11.596-15.011c-6.814-11.56-9.396-25.655-10.754-38.823c-3.007-29.161,1.39-61.512,16.952-86.807
				c0.012-0.011,0.024-0.018,0.037-0.028c35.94-30.321,91.674-32.972,130.596-6.685c27.863,18.818,45.145,50.775,47.238,84.143
				c1.826,29.113-9.631,57.039-32.294,74.651C206.444,228.09,184.341,220.048,173.575,214.838z M351.508,456.479
				c-22.281,7.305-45.918,1.896-64.614-11.654c-9.006-6.527-17.447-14.271-24.923-22.883c1.328-0.314,2.505-1.254,3.16-3.02
				c2.834-7.648,12.424-7.235,19.298-7.481c8.74-0.312,18.341,0.083,26.237-4.298c8.892-4.934,12.657-15.57,11.915-25.267
				c-0.81-10.575-6.356-20.364-9.818-30.204c-3.169-9.01-3.825-18.738,2.029-26.838c4.883-6.758,12.824-10.541,21.001-11.214
				c8.177-0.674,15.958,2.784,20.663,9.511c5.665,8.098,6.268,17.125,2.15,25.912c-7.182,15.329-22.29,31.348-12.352,49.244
				c4.306,7.755,14.19,6.684,21.372,9.166c8.721,3.015,13.138,11.797,15.898,20.368c-1.733,2.446-1.474,6.54,1.51,8.368
				C375.35,445.28,364.015,452.378,351.508,456.479z M382.934,290.737c19.782,12.472,32.885,32.013,35.927,55.267
				c3.639,27.81-6.148,57.777-24.398,80.07c-2.956-9.627-7.452-18.736-15.77-24.924c-4.263-3.172-9.013-4.748-14.179-5.707
				c-3.193-0.594-7.939-0.516-9.456-3.969c-3.701-8.429,2.324-18.633,6.531-25.625c4.567-7.59,9.479-15.087,10.649-24.072
				c2.598-19.938-13.534-38.354-33.243-39.152c-18.454-0.746-35.776,11.938-39.192,30.305c-2.25,12.102,2.925,23.6,7.323,34.574
				c3.555,8.868,8.729,22.569-1.062,29.602c-3.459,2.485-8.424,2.707-12.506,2.995c-5.133,0.362-10.288,0.284-15.421,0.651
				c-9.236,0.659-19.121,3.652-22.752,13.027c-7.537-10.063-13.735-21.07-17.984-32.617c-1.596-4.339-2.801-8.777-3.649-13.293
				c0.617-1.154,0.768-2.592,0.146-4.211c-8.752-22.804,1.72-46.805,16.607-64.402c15.557-18.389,36.672-29.697,60.875-30.342
				C336.438,268.246,361.964,277.518,382.934,290.737z M371.308,268.123c-0.961,0.602-1.752,1.484-2.199,2.627
				c-18.777-8.527-39.583-13.312-60.068-12.767c-24.004,0.64-45.222,11.921-61.916,28.688c-1.488,1.494-2.938,3.055-4.353,4.66
				c-0.317-0.105-0.652-0.193-1.019-0.25c-2.041-0.314-4.572-3.701-6.066-5.062c-3.25-2.957-6.896-5.59-10.359-8.296
				c-7.491-5.853-15.258-11.35-22.991-16.874c-1-0.715-2.047-1.047-3.065-1.097c16.907-9.397,31.033-23.47,39.577-41.472
				c7.159-15.082,10.046-31.753,9.357-48.353c0.972,0.274,2.092,0.236,3.316-0.251c9.815-3.904,19.809-7.375,29.907-10.471
				c8.69-2.663,19.487-6.756,28.722-5.82c1.832,0.186,3.329-0.422,4.419-1.426c10.188,26.358,32.953,45.558,60.597,53.896
				c4.753,1.434,9.637,2.488,14.574,3.153C387.858,229.663,378.062,248.629,371.308,268.123z M399.233,198.821
				c-16.519-0.489-32.983-6.093-46.58-15.6c1.689-10.093,12.778-14.339,20.356-19.571c8.439-5.826,14.81-14.703,13.272-25.336
				c-1.333-9.215-7.552-16.781-9.39-25.836c-1.712-8.436,2.067-18.262,10.089-22.117c7.291-3.505,15.526-1.537,21.426,3.638
				c4.042,3.544,6.438,8.712,7.814,13.801c1.886,6.974-0.514,13.372-4.437,19.002c-6.507,9.341-11.575,18.265-5.833,29.271
				c3.748,7.183,11.444,11.905,17.288,17.203c5.184,4.699,8.316,10.003,7.055,17.159c-0.219,1.242-0.051,2.328,0.371,3.238
				C420.766,197.641,409.913,199.138,399.233,198.821z M442.235,187.545c-0.229,0.156-0.467,0.299-0.698,0.452
				c0.169-7.658-2.835-14.238-8.234-20.214c-5.317-5.885-12.707-9.797-17.301-16.342c-6.268-8.927,6.187-18.73,9.619-26.505
				c5.142-11.644,1.087-26.374-6.717-35.772c-11.909-14.343-34.275-15.639-46.428-0.893c-6.683,8.109-8.154,18.754-5.759,28.718
				c2.064,8.584,8.523,16.146,8.863,25.112c0.323,8.535-10.93,13.915-16.936,17.712c-6.458,4.083-12.361,9.036-15.248,15.907
				c-7.914-7.428-14.302-16.412-18.361-26.619c-0.158-0.397-0.293-0.805-0.444-1.205c2.097-1.604,3.313-4.549,1.666-7.484
				c-9.662-17.213,3.935-41.098,13.549-55.268c5.343-7.875,11.496-15.343,18.519-21.779c8.737-8.008,20.771-10.953,32.312-11.24
				c23.711-0.589,49.234,10.235,63.934,28.953c14.565,18.547,18.619,43.303,13.875,66.049
				C465.052,163.418,456.033,178.109,442.235,187.545z"/>
		</g>
	</g>
</g>
</svg>
