<?xml version="1.0" encoding="utf-8"?>
<!-- Generator: Adobe Illustrator 16.0.3, SVG Export Plug-In . SVG Version: 6.00 Build 0)  -->
<!DOCTYPE svg PUBLIC "-//W3C//DTD SVG 1.1//EN" "http://www.w3.org/Graphics/SVG/1.1/DTD/svg11.dtd">
<svg version="1.1" id="Layer_1" xmlns="http://www.w3.org/2000/svg" xmlns:xlink="http://www.w3.org/1999/xlink" x="0px" y="0px"
	 width="512px" height="512px" viewBox="0 0 512 512" enable-background="new 0 0 512 512" xml:space="preserve">
<g>
	<g>
		<g>
			<path fill="#F6851F" d="M360.104,197.681c0.846-3.641-0.625-8.28-1.346-11.861c-0.957-4.76-1.801-9.54-2.636-14.324
				c-1.935-11.072-3.706-22.133-6.503-33.028c-5.564-21.678-12.478-42.958-20.309-63.919c-0.02-0.053-0.031-0.104-0.05-0.156
				c-5.923-5.479-13.923-9.322-21.991-8.344c-19.617,2.377-19.837,24.68-20.339,39.947c-0.267,8.123-0.851,18.462-7.03,24.589
				c-5.426,5.38-13.641,6.995-20.924,4.979c4.073,12.403,7.682,24.959,10.825,37.625c3.096,12.475,6.126,24.971,9.489,37.377
				c1.391,5.125,2.792,10.26,4.469,15.3c0.591,1.774,1.184,3.562,1.941,5.274c0.016,0.035,0.026,0.061,0.04,0.092
				c1.94,1.496,2.553,4.369,1.7,6.656c0.408,0.676,0.812,1.359,1.191,2.074c2.983,5.607,5.394,11.847,9.582,16.709
				c2.299,2.668,6.209,6.729,10.136,6.652c6.826-0.133,11.987-6.758,15.392-12.009c4.67-7.202,8.35-14.978,11.746-22.845
				c3.703-8.576,6.83-18.409,14.496-24.351c3.249-2.518,6.729-3.64,10.165-3.668C359.905,199.646,359.863,198.719,360.104,197.681z"
				/>
		</g>
	</g>
	<g>
		<g>
			<path fill="#F6851F" d="M270.644,220.466c-3.749-13.24-7.006-26.618-10.314-39.975c-4.672-18.857-10.236-37.465-16.795-55.717
				c-4.408-4.997-7.848-10.892-10.51-17.001c-4.768-10.944-5.875-23.142-10.844-34.04c-5.259-11.539-15.107-19.473-27.894-20.771
				c-11.41-1.16-22.996,1.686-33.556,5.873c-18.51,7.338-40.738,21.137-42.83,42.943c-0.401,4.193-4.369,5.133-7.387,3.74
				c3.201,9.385,7.795,18.207,11.555,27.393c8.95,21.863,17.879,43.748,27.126,65.488c10.343,24.316,22.19,47.758,34.517,71.054
				c7.445-11.849,16.567-22.575,28.043-30.733c11.861-8.436,26.953-16.584,41.682-17.824c6.586-0.555,12.639,0.371,17.985,2.661
				C271.13,222.351,270.876,221.287,270.644,220.466z"/>
		</g>
	</g>
	<g>
		<g>
			<path fill="#127274" d="M276.063,448.892c-5.125-9.529-12.442-17.566-18.139-26.719c-34.17-54.893-65.087-111.723-95.175-168.932
				c-14.764-28.071-26.57-57.49-38.713-86.752c-6.075-14.643-11.718-29.553-18.378-43.941c-2.754-5.948-4.865-11.826-7.109-17.969
				c-1.798-4.922-3.74-10.087-7.678-13.717c-2.807-2.589-1.992-6.189,0.174-8.204c-0.027-1.177,0.358-2.409,1.324-3.56
				c2.107-2.512,4.812-3.192,7.244-5.147c1.529-1.229,1.312-4.456,1.154-6.173c-0.335-3.625-1.811-8.262-5.415-9.975
				c-7.78-3.699-18.901,0.502-25.587,4.941c-6.561,4.357-11.776,11.369-9.269,19.72c0.81,2.694,2.071,5.628,4.925,6.661
				c2.01,0.729,4.222-0.309,6.117-1.637c0.456-0.489,0.972-0.883,1.534-1.171c0.496-0.407,0.952-0.803,1.353-1.148
				c4.904-4.228,10.402,3.052,7.281,7.833c-0.01,0.029-0.014,0.061-0.022,0.09c0.267,0.665,0.526,1.333,0.817,1.987
				c0.97,2.185,1.984,4.349,3.037,6.495c3.424,6.986,7.002,13.863,10.154,20.988c6.35,14.354,12.235,28.91,18.711,43.207
				c6.564,14.496,13.582,28.781,20.211,43.247c6.562,14.321,12.508,28.868,19.779,42.858c7.07,13.602,14.553,26.986,21.461,40.672
				c14.387,28.507,27.016,57.925,40.34,86.936c12.254,26.676,27.713,51.996,42.853,77.154c0.005,0.006,0.009,0.01,0.014,0.016
				c0.476,0.584,0.882,1.197,1.268,1.822c0.902-0.371,1.982-0.465,3.222-0.145c3.855,0.995,9.789,1.668,13.263-0.814
				C279.515,455.587,277.3,451.19,276.063,448.892z"/>
		</g>
	</g>
	<g>
		<g>
			<path fill="#F6851F" d="M398.927,172.214c-2.961,0.532-5.689-2.301-5.908-5.061c-1.079-13.592,1.707-27.336,6.182-40.121
				c2.191-6.26,4.837-12.447,8.072-18.291c-2.963,1.803-5.968,3.53-9.033,5.146c-8.982,4.738-19.259,10.057-29.562,10.969
				c-4.795,0.424-8.741-0.621-12.04-2.627c1.69,6.012,3.278,12.053,4.741,18.125c2.691,11.173,4.345,22.578,6.347,33.891
				c1.381,7.801,5.019,17.607,3.177,25.533c-0.311,1.338-0.97,2.333-1.814,3.025c3.299,1.787,6.275,4.486,8.605,7.764
				c4.418,6.215,6.248,15.59,12.344,20.457c7.785,6.217,14.777-5.049,17.828-10.873c4.926-9.403,8.721-19.029,15.816-27.104
				c7.75-8.818,16.78-16.391,24.672-25.053C432.751,163.612,414.046,169.499,398.927,172.214z"/>
		</g>
	</g>
	<g>
		<g>
			<path d="M459.95,160.802c-17.111-9.088-37.801-4.26-56.182-0.637c0.106-21.141,8.91-44.569,22.867-59.805
				c1.433-1.563,1.635-3.449,1.081-5.107c0.688-0.499,1.336-1.078,1.919-1.893c3.428-4.791-1.824-12.125-7.209-8.19
				c-11.131,8.136-22.632,15.989-35.076,21.996c-5.652,2.729-11.555,4.932-17.666,6.372c-3.471,0.818-6.461,0.523-9.188-1.842
				c-5.714-4.953-7.602-14.588-9.84-21.436c-3.081-9.428-7.084-17.581-14.475-24.449c-8.591-7.983-20.914-12.35-32.557-10.32
				c-11.221,1.956-19.208,9.642-23.367,19.987c-3.779,9.399-4.157,19.402-4.258,29.388c-0.061,5.97,0.093,17.121-6.582,19.922
				c-6.025,2.529-11.812-1.171-16.148-5.642c-5.497-15.025-11.684-29.798-18.576-44.235c-0.191-0.4-0.412-0.761-0.657-1.084
				c-2.152-5.731-4.901-11.2-8.82-16.015c-6.938-8.524-16.603-13.69-27.37-15.456c-19.464-3.192-40.242,4.405-56.951,13.885
				c-15.364,8.718-30.481,22.691-33.442,40.824c-1.644-4.019-3.624-7.885-6.325-11.244c2.524-2.553,6.155-3.268,8.303-6.645
				c1.881-2.961,2.182-6.416,2.36-9.831c0.374-7.127-2.706-14.116-7.878-18.931c-10.742-10.001-29.668-3.452-40.297,3.211
				C51.921,60.957,45.989,74.39,50.655,87.771c1.92,5.506,6.264,10.354,11.975,11.937c3.324,0.921,6.624,0.603,9.711-0.483
				c0.053,0.117,0.107,0.234,0.157,0.347c4.501,10.136,9.841,19.857,14.308,30.021c6.328,14.401,12.267,28.97,18.792,43.284
				c6.606,14.492,13.633,28.787,20.235,43.281c6.393,14.033,12.363,28.155,19.443,41.87c7.1,13.753,14.734,27.226,21.656,41.072
				c14.388,28.774,27.098,58.416,40.543,87.636c11.874,25.805,26.949,50.35,41.635,74.7c0.187,0.438,0.445,0.88,0.795,1.319
				c1.016,1.684,2.028,3.367,3.038,5.051c2.05,3.418,5.527,3.078,7.738,1.063c0.245,0.099,0.499,0.188,0.772,0.259
				c8.044,2.078,19.991,1.459,25.191-6.041c5.719-8.246,0.035-18.338-4.559-25.621c-5.691-9.025-12.462-17.263-18.088-26.35
				c-8.474-13.684-16.723-27.506-24.83-41.41c-16.311-27.965-31.934-56.326-47.248-84.848c-1.08-2.012-2.152-4.023-3.229-6.035
				c1.435-0.271,2.795-1.096,3.738-2.646c12.902-21.212,34.961-39.979,60.139-44.097c6.648-1.087,13.656-0.3,19.117,3.862
				c4.433,3.379,7.111,8.623,9.551,13.5c4.579,9.146,9.82,18.348,19.424,22.986c17.064,8.244,30.341-10.852,37.287-23.549
				c3.789-6.924,6.833-14.218,9.943-21.461c2.057-4.789,3.99-9.426,7.482-13.378c4.239-4.798,9.037-2.284,12.674,1.998
				c6.034,7.104,7.579,16.813,14.727,23.25c8.875,7.992,21.188,4.112,28.283-3.991c7.724-8.822,10.272-20.751,16.982-30.164
				c9.52-13.352,23.473-22.891,33.596-35.773C463.861,166.527,463.206,162.532,459.95,160.802z M257.925,422.173
				c5.696,9.152,13.014,17.189,18.139,26.719c1.236,2.299,3.451,6.695,0.751,8.625c-3.474,2.482-9.407,1.81-13.263,0.814
				c-1.239-0.32-2.319-0.227-3.222,0.145c-0.386-0.625-0.792-1.238-1.268-1.822c-0.005-0.006-0.009-0.01-0.014-0.016
				c-15.14-25.158-30.599-50.479-42.853-77.154c-13.324-29.011-25.953-58.429-40.34-86.936
				c-6.908-13.686-14.391-27.07-21.461-40.672c-7.271-13.99-13.217-28.537-19.779-42.858c-6.629-14.466-13.646-28.751-20.211-43.247
				c-6.476-14.297-12.361-28.853-18.711-43.207c-3.152-7.125-6.73-14.002-10.154-20.988c-1.053-2.146-2.067-4.311-3.037-6.495
				c-0.291-0.654-0.551-1.322-0.817-1.987c0.009-0.029,0.013-0.061,0.022-0.09c3.121-4.781-2.377-12.061-7.281-7.833
				c-0.4,0.346-0.856,0.741-1.353,1.148c-0.562,0.288-1.078,0.682-1.534,1.171c-1.896,1.328-4.107,2.365-6.117,1.637
				c-2.854-1.033-4.115-3.967-4.925-6.661c-2.508-8.351,2.708-15.362,9.269-19.72c6.686-4.439,17.807-8.641,25.587-4.941
				c3.604,1.713,5.08,6.35,5.415,9.975c0.158,1.717,0.375,4.943-1.154,6.173c-2.432,1.955-5.137,2.636-7.244,5.147
				c-0.966,1.15-1.352,2.383-1.324,3.56c-2.166,2.015-2.98,5.615-0.174,8.204c3.938,3.63,5.88,8.795,7.678,13.717
				c2.244,6.143,4.355,12.021,7.109,17.969c6.66,14.389,12.303,29.299,18.378,43.941c12.143,29.262,23.949,58.681,38.713,86.752
				C192.838,310.45,223.755,367.28,257.925,422.173z M253.437,220.896c-14.729,1.24-29.82,9.389-41.682,17.824
				c-11.476,8.158-20.598,18.885-28.043,30.733c-12.326-23.296-24.174-46.737-34.517-71.054
				c-9.247-21.74-18.176-43.625-27.126-65.488c-3.76-9.186-8.354-18.008-11.555-27.393c3.018,1.393,6.985,0.453,7.387-3.74
				c2.092-21.807,24.32-35.605,42.83-42.943c10.56-4.188,22.146-7.033,33.556-5.873c12.786,1.299,22.635,9.232,27.894,20.771
				c4.969,10.898,6.076,23.096,10.844,34.04c2.662,6.109,6.102,12.004,10.51,17.001c6.559,18.252,12.123,36.859,16.795,55.717
				c3.309,13.356,6.565,26.734,10.314,39.975c0.232,0.821,0.486,1.885,0.778,3.091C266.075,221.267,260.022,220.341,253.437,220.896
				z M360.104,197.681c-0.241,1.038-0.199,1.965,0.046,2.771c-3.436,0.028-6.916,1.15-10.165,3.668
				c-7.666,5.941-10.793,15.774-14.496,24.351c-3.396,7.867-7.076,15.643-11.746,22.845c-3.404,5.251-8.565,11.876-15.392,12.009
				c-3.927,0.076-7.837-3.984-10.136-6.652c-4.188-4.862-6.599-11.102-9.582-16.709c-0.38-0.715-0.783-1.398-1.191-2.074
				c0.853-2.287,0.24-5.16-1.7-6.656c-0.014-0.031-0.024-0.057-0.04-0.092c-0.758-1.712-1.351-3.5-1.941-5.274
				c-1.677-5.04-3.078-10.175-4.469-15.3c-3.363-12.406-6.394-24.902-9.489-37.377c-3.144-12.666-6.752-25.222-10.825-37.625
				c7.283,2.016,15.498,0.4,20.924-4.979c6.18-6.127,6.764-16.466,7.03-24.589c0.502-15.268,0.722-37.57,20.339-39.947
				c8.068-0.979,16.068,2.864,21.991,8.344c0.019,0.053,0.03,0.104,0.05,0.156c7.831,20.961,14.744,42.241,20.309,63.919
				c2.797,10.896,4.568,21.956,6.503,33.028c0.835,4.784,1.679,9.564,2.636,14.324C359.479,189.4,360.95,194.04,360.104,197.681z
				 M423.681,193.048c-7.096,8.074-10.891,17.7-15.816,27.104c-3.051,5.824-10.043,17.09-17.828,10.873
				c-6.096-4.867-7.926-14.242-12.344-20.457c-2.33-3.277-5.307-5.977-8.605-7.764c0.845-0.692,1.504-1.688,1.814-3.025
				c1.842-7.926-1.796-17.732-3.177-25.533c-2.002-11.312-3.655-22.718-6.347-33.891c-1.463-6.072-3.051-12.113-4.741-18.125
				c3.299,2.006,7.245,3.051,12.04,2.627c10.304-0.912,20.58-6.23,29.562-10.969c3.065-1.616,6.07-3.344,9.033-5.146
				c-3.235,5.844-5.881,12.031-8.072,18.291c-4.475,12.785-7.261,26.529-6.182,40.121c0.219,2.76,2.947,5.593,5.908,5.061
				c15.119-2.715,33.824-8.602,49.426-4.219C440.461,176.657,431.431,184.229,423.681,193.048z"/>
		</g>
	</g>
</g>
</svg>
