<?xml version="1.0" encoding="utf-8"?>
<!-- Generator: Adobe Illustrator 16.0.3, SVG Export Plug-In . SVG Version: 6.00 Build 0)  -->
<!DOCTYPE svg PUBLIC "-//W3C//DTD SVG 1.1//EN" "http://www.w3.org/Graphics/SVG/1.1/DTD/svg11.dtd">
<svg version="1.1" id="Layer_1" xmlns="http://www.w3.org/2000/svg" xmlns:xlink="http://www.w3.org/1999/xlink" x="0px" y="0px"
	 width="512px" height="512px" viewBox="0 0 512 512" enable-background="new 0 0 512 512" xml:space="preserve">
<g>
	<g>
		<g>
			<path fill="#D6E5E5" d="M345.125,226.896c-0.644-10.559-2.63-21.007-3.185-31.583c-0.681-12.997-0.049-26.038-0.759-39.02
				c-0.71-12.998-2.426-26.339-4.855-39.13c-1.941-10.225-4.604-20.04-4.976-30.332c-1.807,0.631-3.746,1.03-5.67,1.415
				c-6.045,1.21-12.202,1.882-18.344,2.371c-15.49,1.233-30.947,3.137-46.466,4.054c-10.683,0.632-21.376,0.422-32.062,0.93
				c-10.274,0.488-20.526,1.297-30.781,2.064c-19.589,1.465-39.206,2.592-58.795,0.815c0.1,1.108-0.157,2.277-0.916,3.394
				c-0.003,0.004-0.009,0.013-0.012,0.018c-0.074,0.152-0.198,0.466-0.254,0.938c-0.108,0.893-0.132,1.762-0.103,2.664
				c0.081,2.456,0.285,4.904,0.595,7.342c0.662,5.215,1.576,10.39,2.532,15.558c2.579,13.925,3.341,28.17,4.226,42.286
				c1.093,17.425,2.388,34.86,3.849,52.262c0.711,8.479,1.502,16.922,2.078,25.413c0.283,4.164,0.572,8.341,1.142,12.478
				c0.255,1.854,0.801,3.838,1.249,5.808c0.427,0.715,0.682,1.603,0.682,2.676v2.148c0,0.692-0.108,1.323-0.299,1.895
				c17.902,14.54,35.914,28.924,54.648,42.303c-0.674-3.01,0.802-6.4,4.742-6.407c15.531-0.027,35.149,0.362,48.348-9.074
				c4.821-3.446,9.883,2.33,8.088,6.735c1.77-1.924,3.551-3.814,5.316-5.671c7.752-8.151,15.593-16.194,23.516-24.159
				c-0.434,0.099-0.903,0.152-1.422,0.14c-31.463-0.755-61.606,10.76-93,11c-7.064,0.054-7.937-10.916-0.846-10.971
				c31.393-0.239,61.537-11.754,93-11c4.355,0.104,6.353,4.35,5.564,7.528c4.58-4.574,9.18-9.131,13.828-13.647
				c9.407-9.142,18.493-18.519,27.902-27.579C343.017,230.525,343.736,228.365,345.125,226.896z M319.297,151.316
				c0.567,8.522-14.375,8.77-19.863,9.503c-13.85,1.852-27.789,3.067-41.708,4.265c-15.271,1.312-30.554,2.493-45.833,3.71
				c-6.502,0.518-13.106,0.827-19.634,1.515c-0.766,0.567-1.768,0.917-3.024,0.917h-4c-7.128,0-7.842-9.844-0.846-10.971
				c7.928-1.276,16.087-1.587,24.083-2.226c14.056-1.123,28.115-2.203,42.166-3.385c13.751-1.157,27.512-2.332,41.218-3.951
				c4.863-0.575,9.742-1.159,14.56-2.049c1.777-0.328,0.546-0.062,1.727-0.345c0.571-0.137,1.143-0.273,1.704-0.448
				c0.077-0.024,0.154-0.051,0.231-0.074C313.093,145.22,318.955,146.188,319.297,151.316z M311.75,183.226
				c-8.47,0-16.937,1.676-25.397,2.078c-11.619,0.552-23.24,2.21-34.802,3.462c-11.337,1.229-22.672,3.203-34.075,3.713
				c-10.417,0.465-20.823-0.21-31.241-0.253c-7.055-0.03-7.935-11-0.846-10.971c11.022,0.046,22.103,0.969,33.113,0.142
				c11.411-0.856,22.71-2.708,34.097-3.795c11.57-1.104,23.211-3.205,34.849-3.326c7.032-0.072,14.027-1.633,21.062-1.953
				c0.28-0.039,0.569-0.067,0.878-0.067h1.516C317.962,172.255,318.84,183.226,311.75,183.226z M310.63,136.932
				c-41.019,11.439-83.931,15.234-126.396,15.294c-7.06,0.01-7.936-10.96-0.846-10.971c40.296-0.056,81.12-3.355,120.161-13.789
				c0.175-0.056,0.355-0.104,0.542-0.145c0.967-0.26,1.938-0.503,2.902-0.772l0.007,0.035c0.459-0.128,0.92-0.248,1.388-0.329
				C314.551,125.192,316.591,135.27,310.63,136.932z M170.388,122.255c1.323-0.174,2.621-0.818,4-1
				c1.556-0.204,2.805,0.171,3.735,0.889c41.876-1.003,83.346-8.767,125.265-8.889c7.061-0.021,7.937,10.95,0.846,10.971
				c-44.499,0.128-88.491,8.877-133,9C164.157,133.245,163.322,123.185,170.388,122.255z M180.388,206.255
				c23.43-0.049,46.798-1.81,70.061-4.534c20.194-2.365,40.511-7.393,60.939-6.466c7.004,0.318,7.912,11.291,0.846,10.971
				c-21.071-0.956-42.06,4.335-62.903,6.691c-22.625,2.558-45.319,4.261-68.097,4.309
				C174.174,217.24,173.298,206.27,180.388,206.255z M186.993,233.549c23.31-5.175,47.075-6.303,70.787-8.39
				c19.013-1.673,37.835-8.854,57.082-5.817c3.761,0.593,5.151,4.661,3.878,7.846c-0.781,1.951-2.256,2.885-3.852,4.112
				c-2.98,2.292-6.094,0.812-7.54-1.728c-16.667-0.934-33.655,5.241-50.113,6.653c-22.244,1.908-44.743,2.853-66.604,7.706
				C183.779,245.453,180.083,235.083,186.993,233.549z M315.654,253.226c-39.167,0-77.196,11.824-116.42,12
				c-7.062,0.031-7.937-10.938-0.846-10.971c39.051-0.174,76.918-11.892,115.903-11.995c0.033,0,0.063-0.005,0.097-0.005h0.419
				C321.867,242.255,322.744,253.226,315.654,253.226z"/>
		</g>
	</g>
	<g>
		<g>
			<path fill="#BCBCBC" d="M137.944,102.371c0.19-0.229,0.3-0.385,0.36-0.479l0.002-0.005
				C138.196,102.05,138.076,102.211,137.944,102.371z"/>
		</g>
	</g>
	<g>
		<g>
			<path fill="#BCBCBC" d="M409.118,175.269c-1.965-5.38-5.994-10.257-9.661-14.302c-5.625-6.206-11.823-11.803-17.807-17.648
				c-8.404-8.209-15.998-17.355-24.47-25.446c-3.662-3.497-8.019-6.318-11.706-9.743c0.898,4.037,1.78,8.066,2.364,12.102
				c1.782,12.322,4.082,24.696,4.393,37.174c0.324,13.009-0.062,26.014,0.794,39.013c0.55,8.355,1.912,16.639,2.695,24.968
				c2.09-1.854,4.205-3.688,6.356-5.486c14.076-11.773,28.682-22.926,42.438-35.075
				C404.269,178.125,405.734,175.408,409.118,175.269z"/>
		</g>
	</g>
	<g>
		<g>
			<path fill="#BCBCBC" d="M138.307,101.888c0.003-0.005,0.007-0.009,0.01-0.013C138.393,101.753,138.366,101.768,138.307,101.888z"
				/>
		</g>
	</g>
	<g>
		<g>
			<path fill="#BCBCBC" d="M293.347,76.172c-5.64-2.701-10.895-5.931-16.352-8.977c-13.375-7.467-28.929-15.457-44.714-14.689
				c-17.546,0.853-31.722,12.971-44.735,23.618c-3.388,2.771-7.151,4.998-10.705,7.563c-1.938,1.398-3.877,2.807-5.732,4.316
				c-0.114,0.093-0.229,0.188-0.344,0.279c8.815-0.301,17.627-0.924,26.416-1.588c10.252-0.773,20.507-1.621,30.781-2.064
				c9.441-0.406,18.896-0.216,28.332-0.72c15.15-0.808,30.184-2.841,45.301-3.901C298.72,78.405,295.096,77.01,293.347,76.172z"/>
		</g>
	</g>
	<g>
		<g>
			<path fill="#BCBCBC" d="M215.122,320.224c10.435,7.248,21.109,14.165,32.137,20.59c0.017,0.01,0.031,0.023,0.047,0.033
				c3.989-11.692,11.687-21.854,19.981-31.136C252.699,319.76,232.265,320.184,215.122,320.224z"/>
		</g>
	</g>
	<g>
		<g>
			<path fill="#BCBCBC" d="M141.178,259.904c-0.456-4.152-0.78-8.312-1.037-12.481c-0.563-9.149-1.603-18.237-2.251-27.378
				c-1.325-18.678-2.741-37.329-4.056-56.007c-0.944-13.396-2.442-26.488-4.635-39.692c-6.824,6.249-13.288,12.903-19.495,19.753
				c-3.566,3.936-6.824,8.733-10.759,12.272c-3.751,3.373-7.148,7.072-10.341,10.976c-5.565,6.8-10.982,13.296-17.295,19.403
				c-3.74,3.62-9.093,8.003-12.167,12.923c0.81,0.732,1.377,1.687,1.693,2.707c28.391,18.429,54.723,39.692,80.97,61.06
				C141.539,262.239,141.304,261.053,141.178,259.904z"/>
		</g>
	</g>
	<g>
		<g>
			<path fill="#D6E5E5" d="M423.209,369.502c-3.348-30.438-7.144-60.807-9.072-91.382c-1.007-15.972-1.657-31.973-1.694-47.979
				c-0.033-14.181,0.683-28.336,0.847-42.507c-13.715,12.176-28.231,23.38-42.331,35.105c-15.729,13.08-29.562,27.754-44.184,42.001
				c-10.202,9.941-20.275,19.969-30.219,30.143c9.517,9.502,21.321,16.773,31.092,26.022c10.976,10.392,20.927,21.772,31.581,32.481
				c20.612,20.72,42.208,40.657,61.842,62.336C427.254,402.057,424.772,383.717,423.209,369.502z"/>
		</g>
	</g>
	<g>
		<g>
			<path fill="#D6E5E5" d="M412.387,422.367c-19.557-21.558-41.308-41.131-61.631-61.943
				c-10.548-10.803-20.508-22.228-31.645-32.441c-9.602-8.806-21.018-15.941-30.191-25.212c-1.14,1.184-2.288,2.355-3.423,3.544
				c-10.781,11.274-23.918,24.014-28.286,39.476c-1.118,3.955-5.264,4.9-8.142,3.647c-0.806,1.066-2.072,1.788-3.834,1.788h-3
				c-2.809,0-4.635-1.739-5.374-3.831c-9.077-5.475-17.917-11.273-26.594-17.298c-3.079,1.43-6.91,5.188-9.761,7.563
				c-4.293,3.574-8.669,7.047-12.947,10.64c-10.675,8.966-20.821,18.532-31.47,27.521c-19.806,16.719-41.209,31.302-63.573,44.354
				c3.146,1.183,6.493,2.063,9.914,2.79c14.168,3.009,28.624,3.39,43.058,3.099c63.119-1.271,126.933-3.521,189.884,2.401
				c13.141,1.237,26.107,3.667,39.229,4.94c11.117,1.079,24.587,1.696,34.579-4.263c1.524-0.909,2.895-1.918,4.155-2.997
				C412.451,425.047,412.184,423.689,412.387,422.367z"/>
		</g>
	</g>
	<g>
		<g>
			<path fill="#D6E5E5" d="M57.783,213.444c6.822,37.771,12.25,75.421,12.62,113.948c0.151,15.705-0.813,31.564-0.045,47.245
				c0.509,10.393,0.936,21.54,5.447,31.122c1.547,3.287,3.582,5.935,5.965,8.105c0.281-0.244,0.6-0.475,0.966-0.685
				c24.169-13.861,47.423-29.449,68.566-47.642c11.062-9.519,21.704-19.506,32.999-28.759c5.102-4.179,10.404-9.634,16.188-13.611
				C151.893,288.023,108.023,246.374,57.783,213.444z"/>
		</g>
	</g>
	<g>
		<g>
			<polygon fill="#010101" points="138.307,101.888 138.304,101.893 138.316,101.875 			"/>
		</g>
	</g>
	<g>
		<g>
			<path fill="#010101" d="M328.806,75.86C328.903,75.699,328.859,75.76,328.806,75.86L328.806,75.86z"/>
		</g>
	</g>
	<g>
		<g>
			<path fill="#010101" d="M328.806,75.86c-0.035,0.058-0.09,0.146-0.168,0.27c0.051-0.021,0.106-0.034,0.157-0.057
				C328.685,76.122,328.748,75.97,328.806,75.86z"/>
		</g>
	</g>
	<g>
		<g>
			<path fill="#010101" d="M432.111,350.518c-3.366-28.162-6.184-56.398-7.667-84.729c-1.478-28.227-0.147-56.259-0.147-84.473
				c0-2.618-1.498-4.143-3.386-4.676c-2.52-14.79-16.681-27.03-26.86-36.691c-7.478-7.098-14.756-14.403-21.867-21.871
				c-3.972-4.171-7.567-8.602-12.069-12.22c-3.103-2.495-8.313-5.228-10.111-8.937c-1.485-3.065-4.713-3.795-7.282-3.006
				c-0.496-3.688-0.741-7.394-0.51-11.126c0.209-3.381-2.219-5.633-4.826-6.256c-2.274-2.374-7.083-2.909-9.5,0.759
				c0.373-0.565,0.605-0.928,0.754-1.163c-0.84,0.352-1.731,0.594-2.606,0.836c-2.387,0.661-4.867,0.995-7.312,1.353
				c-1.057,0.154-2.116,0.287-3.176,0.419c-2.268-4.983-8.335-7.886-12.889-10.246c-6.077-3.151-12.076-6.138-18.005-9.577
				c-16.231-9.415-34.07-17.689-53.215-17.379c-19.378,0.314-35.78,13.834-50.04,25.469c-3.924,3.202-8.312,5.808-12.409,8.802
				c-3.684,2.691-9.481,6.089-10.573,10.885c-0.14,0.617-0.159,1.207-0.091,1.767c-6.828-0.053-13.651-0.376-20.46-1.115
				c-4.151-0.451-6.598,3.16-6.43,6.335c-0.618,0.313-1.211,0.782-1.751,1.433c-3.414,4.112-3.46,10.479-2.671,16.598
				c-8.096,7.042-15.738,14.544-23.058,22.396c-4.152,4.454-8.168,9.032-12.126,13.658c-3.643,4.259-7.877,7.985-11.486,12.323
				c-6.221,7.478-12.288,14.5-19.238,21.294c-5.92,5.787-12.272,12.189-14.688,20.312c-0.039,0.132-0.056,0.274-0.079,0.413
				c-0.878,0.945-1.333,2.305-1.008,4.061c5.855,31.597,11.223,63.094,13.229,95.21c0.998,15.978,0.983,32.007,0.898,48.008
				c-0.072,13.542-0.551,27.083,1.057,40.56c1.215,10.189,3.948,20.605,10.515,28.713c7.686,9.49,19.426,13.009,30.94,15.454
				c28.035,5.954,57.764,2.175,86.173,2.105c32.658-0.08,65.319-0.64,97.971,0.294c16.398,0.469,32.774,1.4,49.107,2.938
				c12.975,1.221,25.773,3.64,38.735,4.897c22.772,2.21,48.314-1.749,57.793-25.547
				C440.144,397.709,434.711,372.277,432.111,350.518z M357.181,117.872c8.472,8.091,16.065,17.237,24.47,25.446
				c5.984,5.846,12.182,11.442,17.807,17.648c3.667,4.045,7.695,8.922,9.661,14.302c-3.384,0.14-4.85,2.856-4.603,5.555
				c-13.757,12.149-28.362,23.302-42.438,35.075c-2.151,1.799-4.266,3.632-6.356,5.486c-0.784-8.329-2.146-16.612-2.695-24.968
				c-0.855-12.999-0.47-26.004-0.794-39.013c-0.311-12.478-2.611-24.852-4.393-37.174c-0.583-4.035-1.466-8.064-2.364-12.102
				C349.162,111.554,353.519,114.375,357.181,117.872z M171.109,88.004c1.855-1.51,3.794-2.918,5.732-4.316
				c3.554-2.565,7.317-4.792,10.705-7.563c13.013-10.647,27.189-22.766,44.735-23.618c15.785-0.768,31.339,7.223,44.714,14.689
				c5.457,3.046,10.712,6.275,16.352,8.977c1.749,0.838,5.374,2.233,8.249,3.838c-15.117,1.061-30.15,3.094-45.301,3.901
				c-9.436,0.504-18.891,0.313-28.332,0.72c-10.274,0.443-20.529,1.291-30.781,2.064c-8.788,0.664-17.6,1.287-26.416,1.588
				C170.881,88.191,170.995,88.097,171.109,88.004z M138.307,101.888c0.06-0.12,0.086-0.135,0.01-0.013
				c0.759-1.116,1.016-2.285,0.916-3.394c19.59,1.776,39.206,0.649,58.795-0.815c10.255-0.768,20.507-1.576,30.781-2.064
				c10.686-0.508,21.379-0.298,32.062-0.93c15.519-0.917,30.976-2.82,46.466-4.054c6.142-0.489,12.299-1.161,18.344-2.371
				c1.924-0.385,3.863-0.784,5.67-1.415c0.372,10.292,3.034,20.107,4.976,30.332c2.43,12.791,4.146,26.132,4.855,39.13
				c0.71,12.981,0.078,26.022,0.759,39.02c0.554,10.576,2.541,21.024,3.185,31.583c-1.389,1.469-2.108,3.629-1.442,5.66
				c-9.409,9.061-18.495,18.438-27.902,27.579c-4.648,4.517-9.248,9.073-13.828,13.647c0.789-3.179-1.209-7.424-5.564-7.528
				c-31.463-0.754-61.607,10.761-93,11c-7.09,0.055-6.218,11.024,0.846,10.971c31.394-0.24,61.537-11.755,93-11
				c0.519,0.013,0.988-0.041,1.422-0.14c-7.923,7.965-15.763,16.008-23.516,24.159c-1.766,1.856-3.547,3.747-5.316,5.671
				c1.795-4.405-3.267-10.182-8.088-6.735c-13.198,9.437-32.816,9.047-48.348,9.074c-3.94,0.007-5.416,3.397-4.742,6.407
				c-18.734-13.379-36.746-27.763-54.648-42.303c0.19-0.571,0.299-1.202,0.299-1.895v-2.148c0-1.073-0.255-1.961-0.682-2.676
				c-0.448-1.97-0.994-3.954-1.249-5.808c-0.569-4.137-0.859-8.313-1.142-12.478c-0.576-8.491-1.367-16.934-2.078-25.413
				c-1.461-17.401-2.756-34.837-3.849-52.262c-0.885-14.116-1.647-28.361-4.226-42.286c-0.956-5.168-1.87-10.343-2.532-15.558
				c-0.31-2.438-0.514-4.886-0.595-7.342c-0.029-0.902-0.005-1.771,0.103-2.664c0.057-0.473,0.18-0.786,0.254-0.938
				c-0.061,0.094-0.17,0.25-0.36,0.479C138.076,102.211,138.196,102.05,138.307,101.888z M267.287,309.711
				c-8.294,9.282-15.992,19.443-19.981,31.136c-0.017-0.01-0.03-0.023-0.047-0.033c-11.028-6.425-21.702-13.342-32.137-20.59
				C232.265,320.184,252.699,319.76,267.287,309.711z M71.308,186.75c6.312-6.107,11.73-12.604,17.295-19.403
				c3.193-3.903,6.59-7.603,10.341-10.976c3.936-3.539,7.193-8.337,10.759-12.272c6.207-6.85,12.671-13.504,19.495-19.753
				c2.193,13.204,3.691,26.297,4.635,39.692c1.315,18.678,2.731,37.329,4.056,56.007c0.648,9.141,1.688,18.229,2.251,27.378
				c0.257,4.169,0.581,8.329,1.037,12.481c0.126,1.148,0.36,2.335,0.625,3.535c-26.247-21.367-52.579-42.631-80.97-61.06
				c-0.316-1.021-0.884-1.975-1.693-2.707C62.215,194.753,67.568,190.37,71.308,186.75z M81.77,413.865
				c-2.384-2.171-4.418-4.818-5.965-8.105c-4.511-9.582-4.938-20.729-5.447-31.122c-0.768-15.681,0.196-31.54,0.045-47.245
				c-0.371-38.527-5.798-76.178-12.62-113.948c50.24,32.93,94.11,74.579,142.706,109.725c-5.784,3.978-11.087,9.433-16.188,13.611
				c-11.294,9.253-21.937,19.24-32.999,28.759c-21.143,18.192-44.397,33.78-68.566,47.642
				C82.37,413.391,82.051,413.621,81.77,413.865z M409.179,429.142c-9.992,5.959-23.461,5.342-34.579,4.263
				c-13.122-1.273-26.088-3.703-39.229-4.94c-62.951-5.923-126.765-3.673-189.884-2.401c-14.434,0.291-28.89-0.09-43.058-3.099
				c-3.421-0.727-6.768-1.607-9.914-2.79c22.364-13.052,43.768-27.635,63.573-44.354c10.649-8.988,20.795-18.555,31.47-27.521
				c4.277-3.593,8.654-7.065,12.947-10.64c2.852-2.375,6.683-6.134,9.761-7.563c8.677,6.024,17.517,11.823,26.594,17.298
				c0.739,2.092,2.565,3.831,5.374,3.831h3c1.762,0,3.029-0.722,3.834-1.788c2.877,1.253,7.024,0.308,8.142-3.647
				c4.368-15.462,17.505-28.201,28.286-39.476c1.136-1.188,2.284-2.36,3.423-3.544c9.173,9.271,20.589,16.406,30.191,25.212
				c11.137,10.214,21.097,21.639,31.645,32.441c20.323,20.812,42.074,40.386,61.631,61.943c-0.204,1.322,0.064,2.68,0.947,3.777
				C412.074,427.224,410.704,428.232,409.179,429.142z M421.07,415.724c-19.634-21.679-41.23-41.616-61.842-62.336
				c-10.653-10.709-20.604-22.09-31.581-32.481c-9.771-9.249-21.575-16.521-31.092-26.022c9.944-10.174,20.017-20.201,30.219-30.143
				c14.621-14.247,28.455-28.921,44.184-42.001c14.1-11.726,28.616-22.93,42.331-35.105c-0.164,14.171-0.88,28.326-0.847,42.507
				c0.037,16.006,0.687,32.007,1.694,47.979c1.928,30.575,5.724,60.944,9.072,91.382
				C424.772,383.717,427.254,402.057,421.07,415.724z"/>
		</g>
	</g>
	<g>
		<g>
			<path fill="#010101" d="M303.388,113.255c-41.919,0.122-83.389,7.886-125.265,8.889c-0.93-0.718-2.179-1.093-3.735-0.889
				c-1.379,0.182-2.677,0.826-4,1c-7.066,0.93-6.231,10.99,0.846,10.971c44.509-0.123,88.501-8.872,133-9
				C311.325,124.205,310.449,113.234,303.388,113.255z"/>
		</g>
	</g>
	<g>
		<g>
			<path fill="#010101" d="M308.388,126.255c-0.468,0.081-0.929,0.201-1.388,0.329l-0.007-0.035
				c-0.964,0.27-1.935,0.513-2.902,0.772c-0.187,0.041-0.367,0.089-0.542,0.145c-39.041,10.434-79.864,13.733-120.161,13.789
				c-7.09,0.011-6.213,10.98,0.846,10.971c42.465-0.06,85.377-3.854,126.396-15.294C316.591,135.27,314.551,125.192,308.388,126.255
				z"/>
		</g>
	</g>
	<g>
		<g>
			<path fill="#010101" d="M319.297,151.316c-0.342-5.129-6.204-6.097-9.221-3.539c-0.077,0.023-0.154,0.05-0.231,0.074
				c-0.561,0.175-1.133,0.312-1.704,0.448c-1.181,0.283,0.05,0.017-1.727,0.345c-4.818,0.89-9.697,1.474-14.56,2.049
				c-13.706,1.619-27.467,2.794-41.218,3.951c-14.051,1.182-28.11,2.262-42.166,3.385c-7.996,0.639-16.154,0.949-24.083,2.226
				c-6.996,1.127-6.282,10.971,0.846,10.971h4c1.257,0,2.259-0.35,3.024-0.917c6.527-0.688,13.132-0.997,19.634-1.515
				c15.279-1.217,30.562-2.397,45.833-3.71c13.919-1.197,27.858-2.413,41.708-4.265
				C304.921,160.086,319.864,159.839,319.297,151.316z"/>
		</g>
	</g>
	<g>
		<g>
			<path fill="#010101" d="M310.904,172.255h-1.516c-0.31,0-0.599,0.028-0.878,0.067c-7.035,0.32-14.03,1.881-21.062,1.953
				c-11.638,0.121-23.278,2.223-34.849,3.326c-11.387,1.087-22.686,2.938-34.097,3.795c-11.011,0.827-22.091-0.096-33.113-0.142
				c-7.088-0.029-6.208,10.94,0.846,10.971c10.418,0.043,20.825,0.718,31.241,0.253c11.403-0.51,22.738-2.484,34.075-3.713
				c11.562-1.252,23.183-2.91,34.802-3.462c8.461-0.402,16.928-2.078,25.397-2.078C318.84,183.226,317.962,172.255,310.904,172.255z
				"/>
		</g>
	</g>
	<g>
		<g>
			<path fill="#010101" d="M311.388,195.255c-20.429-0.927-40.746,4.101-60.939,6.466c-23.262,2.725-46.63,4.485-70.061,4.534
				c-7.09,0.015-6.214,10.985,0.846,10.971c22.778-0.048,45.473-1.751,68.097-4.309c20.843-2.356,41.832-7.647,62.903-6.691
				C319.3,206.546,318.393,195.573,311.388,195.255z"/>
		</g>
	</g>
	<g>
		<g>
			<path fill="#010101" d="M314.861,219.342c-19.247-3.037-38.069,4.145-57.082,5.817c-23.712,2.087-47.477,3.215-70.787,8.39
				c-6.91,1.534-3.214,11.904,3.638,10.383c21.861-4.854,44.36-5.798,66.604-7.706c16.458-1.412,33.447-7.587,50.113-6.653
				c1.445,2.539,4.56,4.02,7.54,1.728c1.595-1.228,3.071-2.161,3.852-4.112C320.012,224.003,318.622,219.935,314.861,219.342z"/>
		</g>
	</g>
	<g>
		<g>
			<path fill="#010101" d="M314.808,242.255h-0.419c-0.034,0-0.064,0.005-0.097,0.005c-38.985,0.104-76.852,11.821-115.903,11.995
				c-7.09,0.032-6.216,11.002,0.846,10.971c39.224-0.176,77.252-12,116.42-12C322.744,253.226,321.867,242.255,314.808,242.255z"/>
		</g>
	</g>
</g>
</svg>
