<?xml version="1.0" encoding="utf-8"?>
<!-- Generator: Adobe Illustrator 16.0.3, SVG Export Plug-In . SVG Version: 6.00 Build 0)  -->
<!DOCTYPE svg PUBLIC "-//W3C//DTD SVG 1.1//EN" "http://www.w3.org/Graphics/SVG/1.1/DTD/svg11.dtd">
<svg version="1.1" id="Layer_1" xmlns="http://www.w3.org/2000/svg" xmlns:xlink="http://www.w3.org/1999/xlink" x="0px" y="0px"
	 width="512px" height="512px" viewBox="0 0 512 512" enable-background="new 0 0 512 512" xml:space="preserve">
<g>
	<g>
		<g>
			<path fill="#14B6B9" d="M387.453,206.237c-3.885-1.056-6.053-5.748-3.082-9.029c3.822-4.223,9.001-7.241,13.582-10.784
				c-2.018,0.253-4.029,0.573-6.027,0.899c-3.797,0.621-6.174-3.271-5.822-6.533c1.311-12.167-2.506-24.086-13.229-30.879
				c-10.035-6.357-22.171-9.609-33.914-10.878c-28.918-3.126-48.91,22.67-56.059,47.854c-0.707,2.49-2.369,4.09-4.977,4.436
				c-14.403,1.916-28.508-6.281-40.87-12.557c-14.831-7.531-28.566-17.451-40.268-29.287c-20.123-20.355-38.25-42.436-50.127-68.41
				c-3.147,6.61-5.884,13.472-6.03,20.762c-0.284,14.118,5.341,25.104,12.432,36.932c2.257,3.766-0.664,9.865-5.609,8.475
				c-7.006-1.969-14.73-3.05-21.582,0.106c-6.736,3.103-11.834,10.261-13.782,17.313c-4.028,14.584,1.798,30.648,15.861,37.254
				c4.438,2.086,3.697,8.467-0.628,10.119c-14.799,5.654-22.849,17.678-23.282,33.5c-0.194,7.104,0.547,13.986,6.593,18.551
				c5.629,4.248,12.791,6.391,19.317,8.83c3.755,1.404,4.072,7.578,0.628,9.487c-4.388,2.432-11.04,6.581-10.89,12.477
				c0.157,6.172,4.133,11.034,8.646,14.909c10.547,9.053,22.515,12.705,36.219,13.656c2.857,0.197,5.053,3.803,4.35,6.447
				c-3.807,14.311-17.522,23.072-29.5,30.229c-6.284,3.756-13.129,6.248-20.23,7.99c3.445,0.564,6.908,1.019,10.381,1.334
				c2.174,0.197,4.562,2.744,4.436,4.975c-0.365,6.419-3.828,11.525-7.926,16.3c-2.18,2.54-4.494,4.958-6.685,7.487
				c-0.581,0.67-1.161,1.35-1.71,2.049c24.86,3.688,50.219,3.729,75.133,0.429c42.697-5.656,85.117-20.784,119.336-47.397
				c16.6-12.912,31.408-28.574,42.319-46.621c5.647-9.34,10.19-19.1,14.12-29.27c5.63-14.57,6.738-30.354,9.527-45.602
				c0.037-0.202,0.084-0.395,0.137-0.582c-1.709-2.675-1.378-6.943,2.443-8.561c7.465-3.16,13.977-8.212,20.308-13.359
				C396.494,208.214,391.902,207.447,387.453,206.237z"/>
		</g>
	</g>
	<g>
		<g>
			<path d="M413.95,201.911c-4.524-1.822-9.212-2.953-13.925-4.006c5.625-4.307,11.521-8.146,15.404-14.619
				c1.789-2.982-0.506-7.39-3.877-7.846c-4.822-0.653-9.568-0.483-14.322,0.054c-0.213-12.326-4.564-23.604-14.58-31.96
				c-11.434-9.537-27.178-13.323-41.591-15.299c-33.622-4.609-57.915,23.107-67.645,52.342c-11.575-0.09-23.05-7.393-32.96-12.425
				c-14.041-7.128-26.535-16.954-37.576-28.122c-21.002-21.244-39.59-44.826-50.185-73.01c-0.921-2.449-3.076-3.666-5.614-3.666h-1
				c-1.846,0-3.74,1.414-4.504,3.037c-5.595,11.891-11.225,22.925-11.915,36.286c-0.6,11.601,3.187,21.935,8.353,31.799
				c-5.743-0.299-11.488,0.507-16.838,2.972c-9.318,4.291-15.637,13.029-19.028,22.498c-5.866,16.379-0.62,35.281,12.33,46.283
				c-13.308,8.354-20.56,21.926-21.343,38.74c-0.445,9.568,1.232,18.135,7.904,25.293c3.972,4.261,9.432,6.959,15.002,9.161
				c-3.185,3.157-5.605,6.959-6.854,11.596c-1.947,7.233,1.396,14.943,5.714,20.588c9.812,12.829,25.044,19.534,40.628,21.87
				c-5.202,8.05-15.736,13.61-23.283,18.121c-6.089,3.638-13.584,5.572-20.488,6.995c-6.863,1.413-14.561,0.39-21.074,3.054
				c-3.923,1.605-5.478,8.391-0.628,10.119c10.184,3.627,20.62,6.304,31.304,7.762c-2.223,3.436-6.114,6.84-8.143,9.068
				c-3.05,3.351-7.729,7.668-7.199,12.666c0.072,0.677,0.24,1.279,0.482,1.812c-1.006,2.888,0.066,6.505,3.953,7.162
				c83.078,14.051,179.939-9.634,236.563-74.882c10.375-11.954,19.079-25.425,25.853-39.722c4.105-8.666,7.558-17.768,9.928-27.059
				c2.902-11.377,3.996-23.154,6.105-34.688c0.201-1.104,0.1-2.086-0.219-2.93c5.412-2.81,10.379-6.32,15.229-10.076
				c4.768-3.691,13.076-7.842,13.076-14.467C416.988,204.651,415.588,202.571,413.95,201.911z M380.684,222.647
				c-3.821,1.617-4.152,5.886-2.443,8.561c-0.053,0.188-0.1,0.38-0.137,0.582c-2.789,15.248-3.897,31.031-9.527,45.602
				c-3.93,10.17-8.473,19.93-14.12,29.27c-10.911,18.047-25.72,33.709-42.319,46.621c-34.219,26.613-76.639,41.741-119.336,47.397
				c-24.914,3.301-50.272,3.26-75.133-0.429c0.549-0.699,1.129-1.379,1.71-2.049c2.19-2.529,4.505-4.947,6.685-7.487
				c4.098-4.774,7.561-9.881,7.926-16.3c0.127-2.23-2.262-4.777-4.436-4.975c-3.473-0.315-6.936-0.77-10.381-1.334
				c7.102-1.742,13.946-4.234,20.23-7.99c11.978-7.156,25.693-15.918,29.5-30.229c0.703-2.645-1.492-6.25-4.35-6.447
				c-13.704-0.951-25.672-4.604-36.219-13.656c-4.513-3.875-8.488-8.737-8.646-14.909c-0.15-5.896,6.502-10.045,10.89-12.477
				c3.444-1.909,3.127-8.083-0.628-9.487c-6.526-2.439-13.688-4.582-19.317-8.83c-6.046-4.564-6.787-11.446-6.593-18.551
				c0.434-15.822,8.483-27.846,23.282-33.5c4.325-1.652,5.066-8.033,0.628-10.119c-14.063-6.605-19.89-22.67-15.861-37.254
				c1.948-7.053,7.046-14.211,13.782-17.313c6.852-3.156,14.576-2.075,21.582-0.106c4.945,1.391,7.866-4.709,5.609-8.475
				c-7.091-11.828-12.716-22.813-12.432-36.932c0.146-7.29,2.883-14.151,6.03-20.762c11.877,25.975,30.004,48.055,50.127,68.41
				c11.701,11.836,25.437,21.756,40.268,29.287c12.362,6.275,26.467,14.473,40.87,12.557c2.607-0.346,4.27-1.945,4.977-4.436
				c7.148-25.185,27.141-50.98,56.059-47.854c11.743,1.269,23.879,4.521,33.914,10.878c10.723,6.793,14.539,18.712,13.229,30.879
				c-0.352,3.262,2.025,7.154,5.822,6.533c1.998-0.326,4.01-0.646,6.027-0.899c-4.581,3.543-9.76,6.562-13.582,10.784
				c-2.971,3.281-0.803,7.974,3.082,9.029c4.449,1.21,9.041,1.977,13.538,3.051C394.66,214.436,388.148,219.487,380.684,222.647z"/>
		</g>
	</g>
</g>
</svg>
