<?xml version="1.0" encoding="utf-8"?>
<!-- Generator: Adobe Illustrator 16.0.3, SVG Export Plug-In . SVG Version: 6.00 Build 0)  -->
<!DOCTYPE svg PUBLIC "-//W3C//DTD SVG 1.1//EN" "http://www.w3.org/Graphics/SVG/1.1/DTD/svg11.dtd">
<svg version="1.1" id="Layer_1" xmlns="http://www.w3.org/2000/svg" xmlns:xlink="http://www.w3.org/1999/xlink" x="0px" y="0px"
	 width="512px" height="512px" viewBox="0 0 512 512" enable-background="new 0 0 512 512" xml:space="preserve">
<g>
	<g>
		<g>
			<path fill="#FEBF10" d="M275.336,329.094c-1.455-3.687-5.74-4.453-8.922-5.082c-9.713-1.923-20.477-3.365-30.371-2.172
				c-7.584,0.914-10.197,10.896-3.867,15.162c6.324,2.82,13.262,4.465,20.145,5.037c5.686,0.471,12.055,0.541,16.904-2.907
				C271.807,337.297,276.838,332.896,275.336,329.094z"/>
		</g>
	</g>
	<g>
		<g>
			<path fill="#FEBF10" d="M177.342,211.046c-4.809-2.239-10.396-3.106-15.666-3.337c-9.723-0.428-20.535-0.061-29.943,3.088
				c0.369,3.186-2.074,7.139-6.316,6.937c0.117,0.399,0.242,0.813,0.328,1.019c1.295,3.104,3.332,5.958,5.51,8.508
				c4.291,5.022,8.781,7.055,15.33,8.102c13.006,2.078,34.715,0.08,36.15-16.912C183.035,214.89,180.715,212.616,177.342,211.046z"
				/>
		</g>
	</g>
	<g>
		<g>
			<path fill="#FEBF10" d="M369.402,248.613c-0.652-0.986-1.299-1.687-2.74-2.658c-6.232-4.204-16.676-4.823-24.381-4.099
				c-3.609,0.34-8.439,1.127-11.129,2.657c-0.631,0.358-1.248,0.751-1.83,1.188c1.652,1.493,2.115,3.829,1.605,5.842
				c9.354,3.343,18.854,7.681,28.621,7.06c4.891-0.311,9.543-2.704,10.244-7.68C369.916,250.042,369.848,249.285,369.402,248.613z"
				/>
		</g>
	</g>
	<g>
		<g>
			<path fill="#BCBCBC" d="M429.555,336.178c-0.654-24.8-4.691-49.342-5.617-74.113c-1.066-28.5,4.807-56.887,3.709-85.441
				c-0.977-25.41-6.436-51.156-27.176-67.844c-17.09-13.752-39.266-19.666-60.84-21.122c-30.113-2.032-60.508,3-90.467,5.324
				c-15.639,1.214-31.303,1.894-46.98,1.071c-13.775-0.721-27.43-2.318-41.107-4.029c-13.596-1.701-27.486-3.344-41.174-1.647
				c-6.977,0.864-13.887,2.47-20.287,5.456c-6.178,2.881-11.09,6.693-16.648,10.566c-0.141,0.098-0.281,0.182-0.422,0.264
				c0.881,27.623,2.484,55.214,4.268,82.792c1.842,28.489,4.777,57.159,4.824,85.72c0.043,26.062-1.832,52.444,2.156,78.324
				c3.291,21.354,10.455,43.314,29.631,55.494c19.453,12.355,43.229,15.174,65.814,14.016c31.986-1.637,63.967-6.004,96.045-4.78
				c23.955,0.913,47.242,6.478,71.098,8.04c20.104,1.316,43.139-0.871,56.654-17.744
				C428.32,387.442,430.172,359.604,429.555,336.178z M138.756,108.208c0.881-1.002,2.336-1.854,3.709-1.854
				c0.801,0,1.629-0.021,2.416,0.119c0.904,0.161,2.311,0.695,2.951,1.42c0.947,1.075,1.1,1.111,1.646,2.44
				c0.211,0.515,0.289,1.091,0.361,1.639c0.041,0.312,0.033,0.629,0.033,0.942c0,1.523-0.32,2.883-1.354,4.055
				c-0.941,1.07-2.287,1.745-3.709,1.854c-1.469,0.113-2.949-0.379-4.055-1.352c-0.34-0.3-0.658-0.669-0.938-1.074
				c-0.191-0.128-0.379-0.266-0.561-0.426c-1.07-0.942-1.746-2.288-1.855-3.709C137.291,110.793,137.783,109.312,138.756,108.208z
				 M183.018,410.956c-0.852,0.968-2.359,1.904-3.707,1.854c-1.561-0.059-2.012-0.096-3.449-0.647
				c-0.559-0.214-1.242-0.734-1.623-1.022c-0.066-0.051-0.123-0.111-0.186-0.167c-0.631-0.2-1.227-0.513-1.797-1.017
				c-1.07-0.941-1.746-2.287-1.855-3.709c-0.111-1.468,0.381-2.949,1.354-4.055c0.854-0.968,2.361-1.904,3.709-1.854
				c1.561,0.059,2.012,0.096,3.449,0.647c0.559,0.214,1.242,0.734,1.621,1.022c0.068,0.051,0.125,0.111,0.188,0.167
				c0.631,0.2,1.225,0.514,1.797,1.017c1.07,0.941,1.744,2.287,1.854,3.709C184.484,408.369,183.992,409.85,183.018,410.956z
				 M182.846,239.125c-4.816,3.607-10.602,5.858-16.594,7.011c0.158,0.97,0.051,2.031-0.438,3.143
				c-2.01,4.579-0.832,9.831,0.42,14.474c1.311,4.857,2.59,9.664,3.52,14.611c2.441,12.99,3.928,26.139,6.367,39.128
				c2.262,12.039,3.484,24.372,5.014,36.528c0.963,7.651,0.463,15.771,1.488,23.506c1.047,0.803,1.748,2.084,1.748,3.875v4.5
				c0,5.951-8.773,8.529-10.676,2.242c-3.414-11.277-2.273-23.525-3.768-35.137c-1.658-12.891-3.312-25.77-5.471-38.581
				c-2.221-13.174-3.242-26.86-6.637-39.8c-2.395-9.128-5.617-18.381-2.83-27.564c-0.24-0.006-0.482-0.006-0.723-0.014
				c-8.439-0.3-18.465-1.354-25.338-6.797c-5.822-4.609-12.236-12.011-14.088-19.388c-1.9-7.575,1.586-12.38,7.822-13.637
				c-0.404-2.369,0.533-4.97,3.406-6.084c4.549-1.764,9.51-2.673,14.322-3.354c1.785-0.253,3.645-0.49,5.553-0.699
				c-0.955-3.104-1.312-6.591-1.875-9.664c-1.186-6.463-2.215-12.961-2.988-19.486c-0.723-6.091-1.463-12.322-1.184-18.468
				c0.189-4.198,0.385-9.688,4.414-12.192c5.723-3.557,11.58,4.51,6.936,8.533c-0.113,0.531-0.213,1.066-0.27,1.608
				c-0.201,1.897-0.176,3.944-0.092,6.032c0.242,5.951,0.887,11.884,1.697,17.781c0.781,5.674,1.674,11.334,2.76,16.957
				c0.473,2.447,0.662,4.902,1.734,7.326c0.129,0.288,0.221,0.568,0.299,0.845c9.256-0.106,18.674,1.148,26.111,5.483
				c5.488,3.197,10.113,8.395,10.207,15.098C193.814,225.412,189.637,234.04,182.846,239.125z M344.955,104.854
				c7.059,0,7.936,10.969,0.846,10.969C338.742,115.823,337.865,104.854,344.955,104.854z M232.461,106.354
				c7.059,0,7.936,10.969,0.846,10.969C226.248,117.323,225.371,106.354,232.461,106.354z M263.305,414.309
				c-7.059,0-7.936-10.971-0.846-10.971C269.518,403.338,270.395,414.309,263.305,414.309z M278.068,346.141
				c-4.674,4.033-10.414,6.178-16.545,6.975c1.82,2.111,1.154,4.83-0.629,6.61c-0.014,0.177-0.023,0.363-0.023,0.565
				c-0.004,1.771-0.016,3.548,0.111,5.316c0.223,3.102,0.559,6.186,0.992,9.265c0.561,3.993,1.145,7.972,1.514,11.974
				c0.24,0.591,0.379,1.271,0.379,2.055v4.5c0,7.039-10.855,7.965-10.971,0.848c-0.17-10.578-3.018-20.92-3-31.5
				c0.006-3.366-0.178-6.532,1.41-9.442c-7.34-0.588-14.719-2.583-21.102-5.169c-0.414-0.078-0.838-0.201-1.27-0.383
				c-0.791-0.334-1.533-0.725-2.242-1.146c-0.252-0.117-0.508-0.234-0.758-0.354c-0.979-0.47-1.689-1.1-2.174-1.816
				c-9.82-9.012-7.781-27.611,6.229-32.488c5.764-2.007,12.486-1.449,18.461-1.109c0.383,0.021,0.77,0.047,1.154,0.07
				c0.004-0.104,0.004-0.205,0.012-0.309c0.475-7.457,0.504-15.123-0.875-22.504c-1.738-9.303-2.635-18.875-4.074-28.244
				c-1.277-8.304-2.395-16.639-3.523-24.962c-4.309-31.786-2.117-65.257-13.453-95.735c-2.479-6.668,7.916-10.273,10.383-3.639
				c10.541,28.344,9.746,59.133,12.875,88.795c1.686,15.977,4.389,31.839,6.717,47.73c1.152,7.865,2.643,15.921,3.014,23.863
				c0.178,3.781,0.295,7.597,0.154,11.383c-0.014,0.369-0.051,1.104-0.096,1.869c0.613,0.828,1.039,1.831,1.207,2.885
				c2.781,0.384,5.541,0.877,8.248,1.537c6.883,1.678,13.758,5.486,15.775,12.777C288.055,333.893,283.604,341.366,278.068,346.141z
				 M359.301,415.809c-7.061,0-7.938-10.971-0.848-10.971C365.512,404.838,366.389,415.809,359.301,415.809z M367.713,268.202
				c-3.631,1.175-7.246,1.572-10.848,1.447c0.02,21.365,0.734,42.869-0.271,64.211c-0.471,9.993-1.189,19.998-1.062,30.008
				c0.088,6.922,0.307,14.075,2.062,20.818c1.328,0.755,2.27,2.142,2.27,4.215v3c0,6.304-8.164,8.059-10.678,2.242
				c-7.646-17.698-4.502-39.467-3.623-58.135c1.012-21.49,0.369-43.117,0.336-64.633c-0.002-0.041-0.006-0.079-0.006-0.121v-1.609
				c0-0.613,0.088-1.178,0.238-1.696c-8.738-2.278-17.355-6.23-25.803-8.218c-4.889-1.15-5.258-6.928-2.59-9.602
				c-0.154-0.43-0.279-0.883-0.346-1.375c-1.604-12.143,13.104-16.689,22.451-17.707c1.65-0.18,3.367-0.305,5.115-0.377
				c-1.039-3.324-1.455-6.993-1.875-9.718c-1.541-10.035-2.234-20.208-2.76-30.34c-0.953-18.415-2.094-37.419-0.346-55.825
				c0.67-7.062,11.463-4.896,10.799,2.1c-0.496,5.224-0.467,13.139-0.43,19.666c0.059,10.337,0.318,20.676,0.834,31
				c0.49,9.782,1.082,19.601,2.404,29.311c0.436,3.193,0.836,6.231,1.648,9.17c0.262,0.947,0.537,1.906,0.916,2.817
				c0.012,0.022,0.023,0.047,0.037,0.071c0.955,0.676,1.555,1.543,1.861,2.48c6.023,1.008,11.795,3.058,16.381,6.653
				C385.453,246.704,380.596,264.032,367.713,268.202z"/>
		</g>
	</g>
	<g>
		<g>
			<path d="M435.1,265.211c-1.621-28.019,3.842-56.146,3.635-84.207c-0.191-25.723-4.738-52.808-22.59-72.446
				c-35.023-38.53-92.697-33.5-139.445-29.118c-31.002,2.906-61.465,5.232-92.564,2.306c-26.818-2.524-54.055-9.009-80.605-1.146
				c-9.781,2.898-17.484,8.244-25.658,13.943c-3.076-0.319-6.58,1.69-6.465,5.719c0.928,32.631,2.941,65.213,5.07,97.783
				c2.027,31.023,4.494,61.959,4.051,93.067c-0.412,28.951-0.873,58.359,8.047,86.256c7.088,22.176,23.318,38.58,44.891,46.971
				c23.764,9.243,49.055,8.335,74.016,6.56c32.123-2.283,64.34-5.85,96.516-2.404c39.027,4.18,92.01,20.512,119.734-17.908
				c14.406-19.961,16.945-46.771,16.865-70.607C440.51,314.949,436.543,290.161,435.1,265.211z M413.035,406.524
				c-13.516,16.873-36.551,19.061-56.654,17.744c-23.855-1.562-47.143-7.127-71.098-8.04c-32.078-1.224-64.059,3.144-96.045,4.78
				c-22.586,1.158-46.361-1.66-65.814-14.016c-19.176-12.18-26.34-34.141-29.631-55.494c-3.988-25.88-2.113-52.262-2.156-78.324
				c-0.047-28.561-2.982-57.23-4.824-85.72c-1.783-27.578-3.387-55.169-4.268-82.792c0.141-0.082,0.281-0.166,0.422-0.264
				c5.559-3.873,10.471-7.686,16.648-10.566c6.4-2.986,13.311-4.592,20.287-5.456c13.688-1.696,27.578-0.054,41.174,1.647
				c13.678,1.711,27.332,3.309,41.107,4.029c15.678,0.822,31.342,0.143,46.98-1.071c29.959-2.324,60.354-7.356,90.467-5.324
				c21.574,1.456,43.75,7.37,60.84,21.122c20.74,16.688,26.199,42.434,27.176,67.844c1.098,28.555-4.775,56.941-3.709,85.441
				c0.926,24.771,4.963,49.313,5.617,74.113C430.172,359.604,428.32,387.442,413.035,406.524z"/>
		</g>
	</g>
	<g>
		<g>
			<path d="M285.969,326.358c-2.018-7.291-8.893-11.1-15.775-12.777c-2.707-0.66-5.467-1.153-8.248-1.537
				c-0.168-1.054-0.594-2.057-1.207-2.885c0.045-0.766,0.082-1.5,0.096-1.869c0.141-3.786,0.023-7.602-0.154-11.383
				c-0.371-7.942-1.861-15.998-3.014-23.863c-2.328-15.892-5.031-31.754-6.717-47.73c-3.129-29.662-2.334-60.451-12.875-88.795
				c-2.467-6.635-12.861-3.029-10.383,3.639c11.336,30.479,9.145,63.949,13.453,95.735c1.129,8.323,2.246,16.658,3.523,24.962
				c1.439,9.369,2.336,18.941,4.074,28.244c1.379,7.381,1.35,15.047,0.875,22.504c-0.008,0.104-0.008,0.205-0.012,0.309
				c-0.385-0.023-0.771-0.049-1.154-0.07c-5.975-0.34-12.697-0.897-18.461,1.109c-14.01,4.877-16.049,23.477-6.229,32.488
				c0.484,0.717,1.195,1.347,2.174,1.816c0.25,0.119,0.506,0.236,0.758,0.354c0.709,0.422,1.451,0.812,2.242,1.146
				c0.432,0.182,0.855,0.305,1.27,0.383c6.383,2.586,13.762,4.581,21.102,5.169c-1.588,2.91-1.404,6.076-1.41,9.442
				c-0.018,10.58,2.83,20.922,3,31.5c0.115,7.117,10.971,6.191,10.971-0.848v-4.5c0-0.783-0.139-1.464-0.379-2.055
				c-0.369-4.002-0.953-7.98-1.514-11.974c-0.434-3.079-0.77-6.163-0.992-9.265c-0.127-1.769-0.115-3.545-0.111-5.316
				c0-0.202,0.01-0.389,0.023-0.565c1.783-1.78,2.449-4.499,0.629-6.61c6.131-0.797,11.871-2.941,16.545-6.975
				C283.604,341.366,288.055,333.893,285.969,326.358z M269.225,339.132c-4.85,3.448-11.219,3.378-16.904,2.907
				c-6.883-0.572-13.82-2.217-20.145-5.037c-6.33-4.266-3.717-14.248,3.867-15.162c9.895-1.193,20.658,0.249,30.371,2.172
				c3.182,0.629,7.467,1.396,8.922,5.082C276.838,332.896,271.807,337.297,269.225,339.132z"/>
		</g>
	</g>
	<g>
		<g>
			<path d="M193.695,216.942c-0.094-6.703-4.719-11.9-10.207-15.098c-7.438-4.335-16.855-5.59-26.111-5.483
				c-0.078-0.276-0.17-0.557-0.299-0.845c-1.072-2.424-1.262-4.879-1.734-7.326c-1.086-5.623-1.979-11.283-2.76-16.957
				c-0.811-5.897-1.455-11.83-1.697-17.781c-0.084-2.088-0.109-4.135,0.092-6.032c0.057-0.542,0.156-1.077,0.27-1.608
				c4.645-4.023-1.213-12.09-6.936-8.533c-4.029,2.504-4.225,7.994-4.414,12.192c-0.279,6.146,0.461,12.377,1.184,18.468
				c0.773,6.525,1.803,13.023,2.988,19.486c0.562,3.073,0.92,6.561,1.875,9.664c-1.908,0.209-3.768,0.446-5.553,0.699
				c-4.812,0.682-9.773,1.591-14.322,3.354c-2.873,1.114-3.811,3.715-3.406,6.084c-6.236,1.257-9.723,6.062-7.822,13.637
				c1.852,7.377,8.266,14.778,14.088,19.388c6.873,5.442,16.898,6.497,25.338,6.797c0.24,0.008,0.482,0.008,0.723,0.014
				c-2.787,9.184,0.436,18.437,2.83,27.564c3.395,12.939,4.416,26.626,6.637,39.8c2.158,12.812,3.812,25.69,5.471,38.581
				c1.494,11.611,0.354,23.859,3.768,35.137c1.902,6.287,10.676,3.709,10.676-2.242v-4.5c0-1.791-0.701-3.072-1.748-3.875
				c-1.025-7.734-0.525-15.854-1.488-23.506c-1.529-12.156-2.752-24.489-5.014-36.528c-2.439-12.989-3.926-26.138-6.367-39.128
				c-0.93-4.947-2.209-9.754-3.52-14.611c-1.252-4.643-2.43-9.895-0.42-14.474c0.488-1.111,0.596-2.173,0.438-3.143
				c5.992-1.152,11.777-3.403,16.594-7.011C189.637,234.04,193.814,225.412,193.695,216.942z M182.734,218.45
				c-1.436,16.992-23.145,18.99-36.15,16.912c-6.549-1.047-11.039-3.079-15.33-8.102c-2.178-2.55-4.215-5.404-5.51-8.508
				c-0.086-0.205-0.211-0.619-0.328-1.019c4.242,0.202,6.686-3.751,6.316-6.937c9.408-3.148,20.221-3.516,29.943-3.088
				c5.27,0.23,10.857,1.098,15.666,3.337C180.715,212.616,183.035,214.89,182.734,218.45z"/>
		</g>
	</g>
	<g>
		<g>
			<path d="M374.43,238.056c-4.586-3.596-10.357-5.646-16.381-6.653c-0.307-0.938-0.906-1.805-1.861-2.48
				c-0.014-0.024-0.025-0.049-0.037-0.071c-0.379-0.911-0.654-1.87-0.916-2.817c-0.812-2.938-1.213-5.977-1.648-9.17
				c-1.322-9.71-1.914-19.528-2.404-29.311c-0.516-10.324-0.775-20.663-0.834-31c-0.037-6.527-0.066-14.442,0.43-19.666
				c0.664-6.996-10.129-9.161-10.799-2.1c-1.748,18.406-0.607,37.41,0.346,55.825c0.525,10.132,1.219,20.305,2.76,30.34
				c0.42,2.725,0.836,6.394,1.875,9.718c-1.748,0.072-3.465,0.197-5.115,0.377c-9.348,1.018-24.055,5.564-22.451,17.707
				c0.066,0.492,0.191,0.945,0.346,1.375c-2.668,2.674-2.299,8.451,2.59,9.602c8.447,1.987,17.064,5.939,25.803,8.218
				c-0.15,0.519-0.238,1.083-0.238,1.696v1.609c0,0.042,0.004,0.08,0.006,0.121c0.033,21.516,0.676,43.143-0.336,64.633
				c-0.879,18.668-4.023,40.437,3.623,58.135c2.514,5.816,10.678,4.062,10.678-2.242v-3c0-2.073-0.941-3.46-2.27-4.215
				c-1.756-6.743-1.975-13.896-2.062-20.818c-0.127-10.01,0.592-20.015,1.062-30.008c1.006-21.342,0.291-42.846,0.271-64.211
				c3.602,0.125,7.217-0.272,10.848-1.447C380.596,264.032,385.453,246.704,374.43,238.056z M369.793,250.922
				c-0.701,4.976-5.354,7.369-10.244,7.68c-9.768,0.621-19.268-3.717-28.621-7.06c0.51-2.013,0.047-4.349-1.605-5.842
				c0.582-0.437,1.199-0.829,1.83-1.188c2.689-1.53,7.52-2.317,11.129-2.657c7.705-0.725,18.148-0.105,24.381,4.099
				c1.441,0.972,2.088,1.672,2.74,2.658C369.848,249.285,369.916,250.042,369.793,250.922z"/>
		</g>
	</g>
	<g>
		<g>
			<path d="M344.955,104.854c-7.09,0-6.213,10.969,0.846,10.969C352.891,115.823,352.014,104.854,344.955,104.854z"/>
		</g>
	</g>
	<g>
		<g>
			<path d="M232.461,106.354c-7.09,0-6.213,10.969,0.846,10.969C240.396,117.323,239.52,106.354,232.461,106.354z"/>
		</g>
	</g>
	<g>
		<g>
			<path d="M149.84,111.972c-0.072-0.548-0.15-1.124-0.361-1.639c-0.547-1.329-0.699-1.365-1.646-2.44
				c-0.641-0.725-2.047-1.259-2.951-1.42c-0.787-0.141-1.615-0.119-2.416-0.119c-1.373-0.001-2.828,0.852-3.709,1.854
				c-0.973,1.104-1.465,2.586-1.354,4.055c0.109,1.421,0.785,2.767,1.855,3.709c0.182,0.16,0.369,0.298,0.561,0.426
				c0.279,0.405,0.598,0.774,0.938,1.074c1.105,0.973,2.586,1.465,4.055,1.352c1.422-0.108,2.768-0.783,3.709-1.854
				c1.033-1.172,1.354-2.531,1.354-4.055C149.873,112.601,149.881,112.284,149.84,111.972z"/>
		</g>
	</g>
	<g>
		<g>
			<path d="M182.518,403.192c-0.572-0.503-1.166-0.816-1.797-1.017c-0.062-0.056-0.119-0.116-0.188-0.167
				c-0.379-0.288-1.062-0.809-1.621-1.022c-1.438-0.552-1.889-0.589-3.449-0.647c-1.348-0.051-2.855,0.886-3.709,1.854
				c-0.973,1.105-1.465,2.587-1.354,4.055c0.109,1.422,0.785,2.768,1.855,3.709c0.57,0.504,1.166,0.816,1.797,1.017
				c0.062,0.056,0.119,0.116,0.186,0.167c0.381,0.288,1.064,0.809,1.623,1.022c1.438,0.552,1.889,0.589,3.449,0.647
				c1.348,0.051,2.855-0.886,3.707-1.854c0.975-1.105,1.467-2.587,1.354-4.055C184.262,405.479,183.588,404.133,182.518,403.192z"/>
		</g>
	</g>
	<g>
		<g>
			<path d="M262.459,403.338c-7.09,0-6.213,10.971,0.846,10.971C270.395,414.309,269.518,403.338,262.459,403.338z"/>
		</g>
	</g>
	<g>
		<g>
			<path d="M358.453,404.838c-7.09,0-6.213,10.971,0.848,10.971C366.389,415.809,365.512,404.838,358.453,404.838z"/>
		</g>
	</g>
</g>
</svg>
