<?xml version="1.0" encoding="utf-8"?>
<!-- Generator: Adobe Illustrator 16.0.3, SVG Export Plug-In . SVG Version: 6.00 Build 0)  -->
<!DOCTYPE svg PUBLIC "-//W3C//DTD SVG 1.1//EN" "http://www.w3.org/Graphics/SVG/1.1/DTD/svg11.dtd">
<svg version="1.1" id="Layer_1" xmlns="http://www.w3.org/2000/svg" xmlns:xlink="http://www.w3.org/1999/xlink" x="0px" y="0px"
	 width="512px" height="512px" viewBox="0 0 512 512" enable-background="new 0 0 512 512" xml:space="preserve">
<g>
	<g>
		<g>
			<path fill="#C56528" d="M468.535,363.618c-14.872-13.032-32.945-21.701-50.55-30.375c-19.978-9.844-40.094-20.475-56.511-35.781
				c-9.605-8.956-17.669-19.083-23.846-30.682c-5.63-10.569-10.749-21.742-18.457-31.015
				c-17.225-20.719-48.965-25.812-74.078-18.901c-12.133,3.339-22.018,9.624-30.091,19.331
				c-8.073,9.708-13.634,20.636-19.534,31.701c-5.69,10.673-12.307,21.044-20.6,29.902c-9.109,9.731-19.74,17.428-30.756,24.844
				c-12.384,8.336-25.098,16.185-38.481,22.824c-12.544,6.223-25.665,10.765-38.674,15.863
				c-11.521,4.515-23.304,9.981-31.184,19.914c-5.458,6.88-14.189,18.619-11.847,28.333c24.399-7.7,46.511-20.537,68.981-32.514
				c11.587-6.176,23.589-11.505,35.188-17.636c10.871-5.747,21.399-12.092,31.906-18.471c25.394-15.418,51.122-30.361,80.121-37.898
				c14.405-3.744,29.121-5.912,44.028-4.973c15.537,0.978,30.166,5.629,44.604,11.221c29.102,11.27,56.085,26.606,83.417,41.493
				c24.327,13.249,49.651,24.647,73.557,38.648C482.973,379.466,476.771,370.835,468.535,363.618z"/>
		</g>
	</g>
	<g>
		<g>
			<path fill="#BCBCBC" d="M301.109,100.336c-5.293-7.586-13.912-10.649-22.701-12.209c-13.422-2.382-39.401-4.304-44.277,13.02
				c-0.244,0.865-0.633,1.583-1.121,2.169c-0.271,2.281-1.84,4.267-4.855,4.267c-1.702,0-2.995,0.652-4.407,1.622
				c-0.679,0.466-1.314,0.879-1.815,1.538c0.129-0.169,0.062,0.111-0.015,0.303c0.031,0.058,0.063,0.117,0.108,0.183
				c0.473,0.685,0.835,1.178,1.47,1.741c1.651,1.464,3.379,2.875,5.463,3.674c2.031,0.779,5.604,1.104,7.042,0.225
				c0.713-0.435,0.807-0.456,1.015-0.738c0.013-0.09,0.026-0.2,0.044-0.357c0.027-0.266-0.471-1.839-0.887-2.6
				c-1.676-3.057-0.289-6.121,1.95-7.68c0.103-0.594,0.318-1.211,0.683-1.843c3.879-6.741,10.932-9.396,18.429-9.898
				c6.453-0.432,13.747-0.736,20.034,0.972c15.265,4.148,25.024,18.133,18.176,33.789c-3.234,7.396-9.165,12.947-15.763,17.403
				c-5.97,4.033-14.418,7.434-17.206,14.577c-2.941,7.535-1.258,16.358-1.258,24.233v18.676c1.577-0.085,3.158-0.147,4.743-0.162
				c-2.241-6.833-1.896-14.626-1.769-21.632c0.151-8.339-0.941-16.919,5.645-23.277c5.535-5.344,13.41-6.392,19.851-10.175
				c7.809-4.587,13.179-11.616,15.232-20.521C307.002,118.603,306.604,108.211,301.109,100.336z"/>
		</g>
	</g>
	<g>
		<g>
			<path fill="#C56528" d="M487.246,403.521c0.007-0.125,0.002-0.247,0.008-0.372c-3.436-2.108-6.915-4.135-10.412-6.129
				c-3.271,2.857-9.25,3.382-12.952,3.869c-7.006,0.922-14.082,1.364-21.142,1.592c-12.352,0.4-24.59,0.205-36.937-0.387
				c-15.913-0.763-31.854-0.53-47.78-0.482c-32.591,0.099-65.197,0.449-97.753,2.056c-32.523,1.605-64.966,3.377-97.542,3.792
				c-32.801,0.417-65.793,2.249-98.582,1.123c-1.764-0.061-3.141-0.799-4.102-1.867c-10.042,4.866-20.287,9.273-30.935,12.737
				c2.05,4.055,7.272,5.052,12.224,5.543c6.914,0.687,13.945,0.438,20.887,0.722c27.812,1.139,55.7-3.581,83.376-5.641
				c32.461-2.416,65.037-5.687,97.572-6.697c32.628-1.013,65.259,0.011,97.874,0.997c28.762,0.87,57.529,1.265,86.299,1.693
				c19.429,0.29,43.08,0.7,60.302-10.162C487.353,405.249,487.197,404.457,487.246,403.521z"/>
		</g>
	</g>
	<g>
		<g>
			<path d="M498.285,400.031c0.191-40.007-43.494-60.913-74.371-76.133c-20.069-9.893-39.826-20.389-56.327-35.773
				c-9.711-9.053-16.752-19.687-22.884-31.365c-5.593-10.649-11.08-21.419-19.212-30.407
				c-12.253-13.544-29.553-20.524-47.481-22.512c-0.125-0.6-0.355-1.21-0.719-1.82c-2.287-3.835-2.051-9.356-2.161-13.661
				c-0.125-4.89,0.093-9.768-0.081-14.654c-0.315-8.898,7.781-10.528,14.51-13.35c19.685-8.255,30.549-28.978,26.906-50.052
				c-1.793-10.375-7.162-19.941-16.08-25.734c-8.601-5.587-18.966-7.355-28.971-8.571c-17.799-2.164-40.755,2.449-47.436,21.043
				c-5.603,1.354-11.467,5.821-12.814,11.215c-2.004,8.021,5.791,14.745,12.182,17.923c5.979,2.974,13.603,2.987,19.329-0.515
				c5.642-3.45,6.035-9.669,4.154-15.16c0.699-0.454,1.33-1.094,1.829-1.962c2.664-4.629,10.856-4.004,15.379-4
				c5.77,0.005,11.172,0.355,16.379,3.08c5.704,2.985,7.017,8.927,5.58,14.797c-1.551,6.337-7.41,10.857-12.467,14.376
				c-5.562,3.869-11.645,6.891-16.399,11.812c-4.854,5.023-6.688,12.166-7.081,18.93c-0.709,12.229,0.146,24.744,0.189,37.023
				c-11.731,1.909-22.85,6.084-32.289,13.45c-9.547,7.449-16.683,17.386-22.956,27.62c-6.541,10.669-11.347,22.246-18.484,32.575
				c-7.084,10.251-15.86,19.07-25.843,26.494c-23.818,17.714-49.557,32.141-77.359,42.497c-16.352,6.09-32.869,12.271-44.803,25.605
				c-10.618,11.865-21.257,30.876-12.332,46.371c0.466,0.808,1.026,1.403,1.643,1.814c0.009,0.018,0.019,0.035,0.028,0.053
				c3.907,16.289,26.198,15.089,40.044,15.381c31.036,0.654,61.554-3.398,92.467-5.662c32.475-2.377,65.018-5.598,97.569-6.525
				c32.627-0.93,65.275,0.25,97.887,1.231c29.347,0.883,58.735,1.474,88.096,1.634c20.866,0.114,43.315-1.494,61.019-13.081
				c1.883-4.469,3.246-9.081,4.242-13.792C498.877,400.144,498.584,400.073,498.285,400.031z M262.475,160.494
				c2.788-7.144,11.236-10.544,17.206-14.577c6.598-4.456,12.528-10.007,15.763-17.403c6.849-15.656-2.911-29.641-18.176-33.789
				c-6.287-1.708-13.581-1.404-20.034-0.972c-7.497,0.502-14.55,3.157-18.429,9.898c-0.364,0.632-0.58,1.249-0.683,1.843
				c-2.239,1.559-3.626,4.623-1.95,7.68c0.416,0.76,0.914,2.333,0.887,2.6c-0.018,0.157-0.031,0.267-0.044,0.357
				c-0.208,0.282-0.302,0.303-1.015,0.738c-1.438,0.879-5.011,0.555-7.042-0.225c-2.084-0.8-3.812-2.21-5.463-3.674
				c-0.635-0.563-0.997-1.056-1.47-1.741c-0.045-0.066-0.077-0.125-0.108-0.183c0.077-0.192,0.144-0.472,0.015-0.303
				c0.501-0.658,1.137-1.071,1.815-1.538c1.412-0.97,2.705-1.622,4.407-1.622c3.016,0,4.585-1.985,4.855-4.267
				c0.488-0.586,0.877-1.305,1.121-2.169c4.876-17.323,30.855-15.402,44.277-13.02c8.789,1.56,17.408,4.623,22.701,12.209
				c5.494,7.875,5.893,18.266,3.81,27.299c-2.054,8.905-7.424,15.934-15.232,20.521c-6.44,3.783-14.315,4.831-19.851,10.175
				c-6.586,6.357-5.493,14.938-5.645,23.277c-0.128,7.006-0.473,14.8,1.769,21.632c-1.585,0.015-3.166,0.077-4.743,0.162v-18.676
				C261.217,176.852,259.533,168.029,262.475,160.494z M35.774,381.244c7.88-9.933,19.662-15.399,31.184-19.914
				c13.009-5.098,26.13-9.64,38.674-15.863c13.384-6.639,26.098-14.488,38.481-22.824c11.016-7.416,21.646-15.112,30.756-24.844
				c8.293-8.858,14.909-19.229,20.6-29.902c5.9-11.065,11.461-21.993,19.534-31.701c8.073-9.708,17.958-15.992,30.091-19.331
				c25.113-6.91,56.854-1.817,74.078,18.901c7.708,9.273,12.827,20.446,18.457,31.015c6.177,11.599,14.24,21.726,23.846,30.682
				c16.417,15.306,36.533,25.937,56.511,35.781c17.604,8.673,35.678,17.342,50.55,30.375c8.235,7.217,14.438,15.849,17.195,25.829
				c-23.905-14.001-49.229-25.399-73.557-38.648c-27.332-14.886-54.315-30.223-83.417-41.493
				c-14.438-5.592-29.067-10.243-44.604-11.221c-14.907-0.939-29.623,1.229-44.028,4.973c-28.999,7.538-54.728,22.48-80.121,37.898
				c-10.507,6.379-21.035,12.725-31.906,18.471c-11.599,6.13-23.601,11.459-35.188,17.636
				c-22.471,11.977-44.582,24.814-68.981,32.514C21.585,399.863,30.316,388.125,35.774,381.244z M463.777,389.813
				c-4.439,0.667-8.932,0.998-13.408,1.289c-9.461,0.613-19.027,0.908-28.498,0.727c-15.739-0.299-31.403-1.222-47.156-1.214
				c-16.266,0.008-32.529,0.056-48.793,0.235c-32.564,0.359-65.132,1.341-97.613,3.762c-32.48,2.421-65.29,1.538-97.83,2.15
				c-17.692,0.333-35.375,1.136-53.067,1.085c9.921-5.272,19.752-10.732,29.69-15.902c13.104-6.818,26.544-12.802,39.383-20.146
				c12.764-7.303,25.173-15.207,37.869-22.625c25.969-15.174,54.408-27.664,84.723-30.063c31.363-2.482,61.374,11.631,88.861,25.108
				c22.438,11.001,43.87,23.862,66.093,35.267C437.272,376.281,450.646,382.822,463.777,389.813z M427.35,416.071
				c-28.77-0.428-57.537-0.823-86.299-1.693c-32.615-0.986-65.246-2.01-97.874-0.997c-32.535,1.01-65.111,4.281-97.572,6.697
				c-27.676,2.06-55.563,6.779-83.376,5.641c-6.941-0.284-13.973-0.035-20.887-0.722c-4.951-0.491-10.174-1.488-12.224-5.543
				c10.647-3.463,20.893-7.871,30.935-12.737c0.961,1.068,2.338,1.807,4.102,1.867c32.789,1.126,65.781-0.705,98.582-1.123
				c32.576-0.415,65.019-2.187,97.542-3.792c32.556-1.607,65.162-1.957,97.753-2.056c15.927-0.048,31.867-0.281,47.78,0.482
				c12.347,0.592,24.585,0.787,36.937,0.387c7.06-0.229,14.136-0.67,21.142-1.592c3.702-0.487,9.681-1.011,12.952-3.869
				c3.497,1.994,6.977,4.021,10.412,6.129c-0.006,0.125-0.001,0.246-0.008,0.372c-0.049,0.936,0.106,1.728,0.405,2.388
				C470.43,416.771,446.778,416.361,427.35,416.071z"/>
		</g>
	</g>
</g>
</svg>
