<?xml version="1.0" encoding="utf-8"?>
<!-- Generator: Adobe Illustrator 16.0.3, SVG Export Plug-In . SVG Version: 6.00 Build 0)  -->
<!DOCTYPE svg PUBLIC "-//W3C//DTD SVG 1.1//EN" "http://www.w3.org/Graphics/SVG/1.1/DTD/svg11.dtd">
<svg version="1.1" id="Layer_1" xmlns="http://www.w3.org/2000/svg" xmlns:xlink="http://www.w3.org/1999/xlink" x="0px" y="0px"
	 width="512px" height="512px" viewBox="0 0 512 512" enable-background="new 0 0 512 512" xml:space="preserve">
<g>
	<g>
		<g>
			<path fill="#75CCCE" d="M177.678,216.923c1.549-2.956,3.217-5.851,4.992-8.669c-7.984-0.107-15.195,2.533-16.639,11.555
				c-1.652,10.32-0.518,21.271-0.211,31.655c0.189,6.458,0.494,12.954-0.049,19.402c-0.475,5.617-1.521,11.373-1.035,17.021
				c0.307,3.578,0.686,8.15,4.92,9.088c3.016,0.668,5.984,0.568,8.992,0.221c-5.104-12.107-7.873-25.211-8.174-38.357
				C165.643,244.942,171.137,229.398,177.678,216.923z"/>
		</g>
	</g>
	<g>
		<g>
			<path fill="#75CCCE" d="M257.199,102.54c-5.914-1.102-13.676,0.051-13.254,7.971c0.053,0.994-0.123,1.86-0.457,2.604
				c2.854,4.252,7.547,7.611,12.834,7.643c5.676,0.033,11.754-2.877,12.18-9.327C268.844,106.249,261.178,103.282,257.199,102.54z"
				/>
		</g>
	</g>
	<g>
		<g>
			<path fill="#127272" d="M311.195,214.957c-5.072-6.301-14.062-8.518-21.717-9.447c-8.973-1.091-18.215-0.654-27.105,0.946
				c-9.434,1.698-17.568,5.743-24.859,12.046c-7.623,6.588-15.408,16.494-14.855,27.103c-0.082,0.276-0.176,0.55-0.244,0.829
				c-0.961,3.935-1.996,10.158-0.762,14.846c-0.078,8.645,4.463,17.344,9.695,23.875c6.76,8.436,16.652,16.785,27.547,18.963
				c10.391,2.078,26.602,2.344,35.283-4.876c4.531-3.769,1.717-9.495-0.287-13.927c-2.404-5.318-5.062-10.61-5.9-16.458
				c-1.736-12.116,4.691-22.29,13.574-29.866C308.494,233.078,318.734,224.32,311.195,214.957z"/>
		</g>
	</g>
	<g>
		<g>
			<path fill="#BCBDBD" d="M340.098,207.568c-6.352-9.785-14.641-19.459-24.986-25.174c-9.938-5.49-20.947-8.454-32.227-9.51
				c-22.32-2.089-48.389,1.643-66.941,15.02c-10.408,7.506-19.07,17.428-25.463,28.545c-5.971,10.385-13.115,24.209-10.244,36.558
				c0.156,0.175,0.293,0.371,0.422,0.575c0.143,1.694,0.402,3.336,0.799,4.946c0.559,19.368,6.637,38.734,18.754,54.032
				c12.875,16.254,30.592,24.806,51.049,26.732c20.049,1.888,41.088-1.725,58.361-12.44c17.848-11.073,32.086-28.58,38.498-48.707
				C355.623,254.592,353.748,228.598,340.098,207.568z M308.713,247.259c-4.426,3.774-8.883,8.489-9.83,14.526
				c-0.908,5.783,1.387,11.143,3.754,16.306c4.449,9.704,8.59,21.208-1.15,29.308c-9.355,7.779-23.635,9.218-35.326,8.624
				c-10.916-0.555-20.631-4.185-29.441-10.655c-15.201-11.164-28.055-29.597-25.471-48.768c0.5-2.582,0.973-5.148,0.791-7.736
				c0.027-0.023,0.053-0.049,0.08-0.072c-1.281-11.48,3.162-22.387,10.85-31.199c7.559-8.662,17.848-16.863,29.102-19.996
				c17.574-4.893,40.582-6.541,57.238,2.244c7.479,3.944,14.926,11.054,15.68,20.008
				C325.982,231.643,316.953,240.23,308.713,247.259z"/>
		</g>
	</g>
	<g>
		<g>
			<path fill="#75CCCE" d="M369.025,425.725c-6.998-0.034-13.998-0.239-20.996-0.423c-0.008,0.115-0.012,0.229-0.025,0.348
				c-1.158,9.545,15.17,8.668,21.016,8.051c4.799-0.506,9.803-1.34,14.189-3.463c1.213-0.586,3.221-2.559,4.369-4.143
				c0.547-0.754,1.068-1.559,1.484-2.404C382.572,425.329,375.783,425.757,369.025,425.725z"/>
		</g>
	</g>
	<g>
		<g>
			<path fill="#75CCCE" d="M166.645,422.085c-11.619,0-24.111,2.065-36.293,2.271c6.086,7.031,18.918,6.083,27.518,5.871
				c6.725-0.164,24.047,1.188,24.416-8.158C177.07,422.077,171.857,422.085,166.645,422.085z"/>
		</g>
	</g>
	<g>
		<g>
			<path fill="#75CCCE" d="M203.545,114.032c-3.389-2.64-8.072-3.505-12.234-4.065c-8.15-1.098-16.496-1-24.709-1.207
				c-12.754-0.318-32.17-0.409-34.027,15.35c24.219-0.047,48.428-0.861,72.645-0.973
				C205.693,119.576,205.838,115.818,203.545,114.032z"/>
		</g>
	</g>
	<g>
		<g>
			<path fill="#D6E7E7" d="M404.055,357.133c0.801-15.616,1.836-31.132,1.842-46.785c0.014-33.099-1.621-66.173-1.785-99.271
				c-0.135-27.73-2.213-55.662-0.326-83.352c0.67-9.842,1.41-19.77,0.73-29.631c-0.453-6.559-1.02-15.072-5.971-20.007
				c-51.348,0.033-102.521,5.044-153.875,5.812c-26.057,0.389-52.123,0.186-78.182,0.186c-12.439,0-24.822,0.191-37.252,0.693
				c-5.039,0.204-10.082,0.398-15.125,0.247c-1.904-0.057-3.818-0.143-5.725-0.093c-0.758,0.02-1.525,0.043-2.287,0.103
				c0.064,56.896,1.148,113.777,0.891,170.673c-0.131,28.875-0.223,57.787,1.467,86.625c0.795,13.537,0.832,26.789,0.662,40.34
				c-0.066,5.42-0.371,10.822-0.486,16.238c-0.072,3.506-0.395,7.766,0.436,11.463c0.324,0.072,0.65,0.166,0.984,0.299
				c9.053,3.629,19.842,2.533,29.328,1.796c10.744-0.835,21.303-1.353,32.084-1.353c26.482,0,52.965-0.189,79.439,0.562
				c27.123,0.77,54.234,2.072,81.369,2.365c10.973,0.118,21.93,0.548,32.896,0.685c8.873,0.11,19.217,0.444,27.359-3.688
				c1.996-1.013,3.988-0.771,5.572,0.128c2.65-2.161,3.879-7.224,4.463-10.074c1.471-7.156,1.771-14.459,1.75-21.746
				C404.295,371.964,403.676,364.511,404.055,357.133z M341.182,90.116c7.059,0,7.936,10.969,0.848,10.969
				C334.969,101.085,334.092,90.116,341.182,90.116z M339.84,110.575c7.061,0,7.938,10.969,0.848,10.969
				C333.629,121.544,332.752,110.575,339.84,110.575z M317.182,91.448c7.059,0,7.936,10.971,0.848,10.971
				C310.969,102.419,310.092,91.448,317.182,91.448z M315.84,111.907c7.061,0,7.938,10.971,0.848,10.971
				C309.629,122.878,308.752,111.907,315.84,111.907z M291.473,93.97c0.941-1.07,2.287-1.745,3.709-1.854
				c1.469-0.113,2.949,0.379,4.055,1.352c0.197,0.174,0.385,0.375,0.564,0.588c0.035,0.027,0.068,0.051,0.102,0.08
				c1.07,0.941,1.746,2.287,1.855,3.709c0.111,1.468-0.381,2.949-1.354,4.055c-0.881,1-2.336,1.855-3.709,1.854
				c-1.668-0.003-3.393-0.193-4.654-1.455c-1.166-1.166-1.918-2.595-1.922-4.273C290.117,96.503,290.441,95.142,291.473,93.97z
				 M290.133,114.429c0.941-1.07,2.287-1.745,3.707-1.854c1.469-0.113,2.951,0.379,4.055,1.352c0.197,0.174,0.387,0.375,0.566,0.588
				c0.033,0.027,0.068,0.051,0.102,0.08c1.068,0.941,1.744,2.287,1.854,3.709c0.113,1.468-0.381,2.949-1.354,4.055
				c-0.879,1-2.336,1.855-3.709,1.854c-1.668-0.003-3.391-0.193-4.652-1.455c-1.166-1.166-1.92-2.595-1.922-4.273
				C288.777,116.962,289.1,115.601,290.133,114.429z M232.975,111.356c-0.734-13.789,11.572-21.836,24.215-19.966
				c9.422,1.394,21.953,7.646,22.238,18.71c0.287,11.229-8.949,21.076-20.203,21.586c-10.523,0.477-21.1-4.797-25.99-14.344
				c-0.918-1.793-0.818-3.584-0.139-5.078C233.037,111.976,232.992,111.677,232.975,111.356z M132.363,135.084
				c-2.541,0.003-4.275-1.418-5.133-3.236c-2.871,0.405-5.85-1.113-5.777-4.824c0.215-10.972,4.727-20.294,14.975-25.062
				c9.023-4.198,19.553-4.471,29.326-4.17c11.18,0.342,23.318-0.521,34.137,2.705c5.762,1.719,11.066,4.152,14.389,9.406
				c3.535,5.596,1.328,12.2,1.145,18.273c-0.084,2.809-1.838,5.906-5.061,5.908C184.359,134.109,158.365,135.061,132.363,135.084z
				 M359.375,278.808c-7.285,22.867-21.857,43.673-42.453,56.45c-19.832,12.305-43.145,17.15-66.309,14.97
				c-23.326-2.196-43.975-11.888-58.699-30.478c-3.117-3.936-5.887-8.12-8.336-12.48c-0.557,0.293-1.189,0.509-1.908,0.613
				c-11.121,1.613-23.984-0.232-26.947-13c-1.754-7.557-0.77-15.182-0.047-22.805c0.742-7.823,0.299-15.689,0.057-23.532
				c-0.361-11.735-2.582-27.076,2.684-38.101c5.662-11.854,18.924-14.006,30.881-12.781c0.594,0.061,1.117,0.198,1.582,0.389
				c10.881-13.729,24.891-24.674,41.98-30.223c21.531-6.99,46.08-8.973,68.123-3.119c23.186,6.158,42.012,21.75,52.979,43.176
				C364.148,229.746,366.879,255.252,359.375,278.808z M371.729,117.69c-0.881,1.002-2.334,1.854-3.709,1.854h-0.666
				c-1.521,0-2.881-0.319-4.053-1.352c-1.07-0.942-1.746-2.288-1.855-3.709c-0.111-1.469,0.381-2.95,1.354-4.055
				c0.883-1.002,2.336-1.854,3.709-1.854h0.666c1.521,0,2.881,0.319,4.055,1.352c1.068,0.942,1.744,2.288,1.854,3.709
				C373.195,115.104,372.701,116.586,371.729,117.69z M373.07,97.231c-0.883,1.002-2.336,1.854-3.709,1.854h-0.666
				c-1.521,0-2.881-0.319-4.055-1.352c-1.068-0.942-1.744-2.288-1.854-3.709c-0.113-1.469,0.381-2.95,1.354-4.055
				c0.881-1.002,2.334-1.854,3.709-1.854h0.666c1.521,0,2.881,0.32,4.053,1.352c1.07,0.942,1.746,2.288,1.855,3.709
				C374.535,94.646,374.043,96.127,373.07,97.231z M393.062,117.69c-0.881,1.002-2.334,1.854-3.709,1.854h-2
				c-1.521,0-2.881-0.319-4.053-1.352c-1.07-0.942-1.746-2.288-1.855-3.709c-0.111-1.469,0.381-2.95,1.354-4.055
				c0.883-1.002,2.336-1.854,3.709-1.854h2c1.521,0,2.881,0.319,4.055,1.352c1.068,0.942,1.744,2.288,1.854,3.709
				C394.529,115.104,394.035,116.586,393.062,117.69z M394.404,97.231c-0.883,1.002-2.336,1.854-3.709,1.854h-2
				c-1.521,0-2.881-0.319-4.055-1.352c-1.068-0.942-1.744-2.288-1.854-3.709c-0.113-1.469,0.381-2.95,1.354-4.055
				c0.881-1.002,2.334-1.854,3.709-1.854h2c1.521,0,2.881,0.32,4.053,1.352c1.07,0.942,1.746,2.288,1.855,3.709
				C395.869,94.646,395.377,96.127,394.404,97.231z"/>
		</g>
	</g>
	<g>
		<g>
			<path d="M95.119,82.024c0.018,58.836,1.158,117.66,0.891,176.5c-0.08,17.688-0.09,35.379,0.297,53.061V78.501
				C95.58,79.409,95.119,80.586,95.119,82.024z"/>
		</g>
	</g>
	<g>
		<g>
			<path d="M415.1,218.149c-0.094-16.387-0.344-32.762-0.664-49.145c-0.242-12.338-0.797-24.756,0.006-37.081
				c0.777-11.935,1.787-23.903,0.963-35.862c-0.662-9.61-2.752-21.586-11.168-27.594c-1.355-0.967-2.799-1.238-4.137-1.043
				c-0.578-0.196-1.217-0.309-1.918-0.309h-2c-0.096,0-0.184,0.01-0.275,0.014c-54.023,0.146-107.885,5.387-161.934,5.922
				c-27.926,0.275-55.863,0.064-83.791,0.064c-11.959,0-23.906,1.236-35.863,0.969c-4.66-0.104-14.844-1.067-17.578,3.927
				c-0.154,0.152-0.297,0.317-0.434,0.489v233.084c0.258,11.85,0.691,23.696,1.418,35.533c0.846,13.781,0.512,27.367,0.383,41.163
				c-0.098,10.578-2.07,21.589,2.938,31.396c1.553,3.039,4.461,3.168,6.707,1.791c3.178,1.059,6.439,1.765,9.76,2.22
				c5.906,17.423,25.705,17.877,41.203,17.511c12.941-0.307,35.68-1.887,34.719-19.142c18.779-0.015,37.559,0.042,56.334,0.537
				c28.447,0.752,56.877,2.134,85.338,2.441c0.658,0.007,1.314,0.026,1.973,0.035c-1.119,18.769,21.213,21.21,35.658,19.255
				c7.328-0.992,14.854-2.865,20.432-7.939c3.414-3.106,7.199-9.158,7.438-14.395c13.861-5.733,14.363-26.135,14.643-39.146
				c0.174-7.988-0.289-15.967-0.279-23.953c0.006-4.674,0.658-10.037,0.971-15.63c0.482-8.6,0.756-17.204,0.873-25.817
				C417.268,284.337,415.287,251.252,415.1,218.149z M157.869,430.228c-8.6,0.212-21.432,1.16-27.518-5.871
				c12.182-0.206,24.674-2.271,36.293-2.271c5.213,0,10.426-0.008,15.641-0.016C181.916,431.415,164.594,430.063,157.869,430.228z
				 M387.578,426.095c-1.148,1.584-3.156,3.557-4.369,4.143c-4.387,2.123-9.391,2.957-14.189,3.463
				c-5.846,0.617-22.174,1.494-21.016-8.051c0.014-0.119,0.018-0.232,0.025-0.348c6.998,0.184,13.998,0.389,20.996,0.423
				c6.758,0.032,13.547-0.396,20.037-2.034C388.646,424.536,388.125,425.341,387.578,426.095z M404.314,379.349
				c0.021,7.287-0.279,14.59-1.75,21.746c-0.584,2.851-1.812,7.913-4.463,10.074c-1.584-0.898-3.576-1.141-5.572-0.128
				c-8.143,4.132-18.486,3.798-27.359,3.688c-10.967-0.137-21.924-0.566-32.896-0.685c-27.135-0.293-54.246-1.596-81.369-2.365
				c-26.475-0.752-52.957-0.562-79.439-0.562c-10.781,0-21.34,0.518-32.084,1.353c-9.486,0.737-20.275,1.833-29.328-1.796
				c-0.334-0.133-0.66-0.227-0.984-0.299c-0.83-3.697-0.508-7.957-0.436-11.463c0.115-5.416,0.42-10.818,0.486-16.238
				c0.17-13.551,0.133-26.803-0.662-40.34c-1.689-28.838-1.598-57.75-1.467-86.625c0.258-56.896-0.826-113.777-0.891-170.673
				c0.762-0.06,1.529-0.083,2.287-0.103c1.906-0.05,3.82,0.036,5.725,0.093c5.043,0.151,10.086-0.043,15.125-0.247
				c12.43-0.502,24.812-0.693,37.252-0.693c26.059,0,52.125,0.203,78.182-0.186c51.354-0.768,102.527-5.778,153.875-5.812
				c4.951,4.935,5.518,13.448,5.971,20.007c0.68,9.861-0.061,19.789-0.73,29.631c-1.887,27.689,0.191,55.621,0.326,83.352
				c0.164,33.098,1.799,66.172,1.785,99.271c-0.006,15.653-1.041,31.169-1.842,46.785
				C403.676,364.511,404.295,371.964,404.314,379.349z"/>
		</g>
	</g>
	<g>
		<g>
			<path d="M352.961,207.887c-10.967-21.426-29.793-37.018-52.979-43.176c-22.043-5.854-46.592-3.871-68.123,3.119
				c-17.09,5.549-31.1,16.493-41.98,30.223c-0.465-0.19-0.988-0.328-1.582-0.389c-11.957-1.225-25.219,0.928-30.881,12.781
				c-5.266,11.024-3.045,26.365-2.684,38.101c0.242,7.843,0.686,15.709-0.057,23.532c-0.723,7.623-1.707,15.248,0.047,22.805
				c2.963,12.768,15.826,14.613,26.947,13c0.719-0.104,1.352-0.32,1.908-0.613c2.449,4.36,5.219,8.545,8.336,12.48
				c14.725,18.59,35.373,28.281,58.699,30.478c23.164,2.181,46.477-2.665,66.309-14.97c20.596-12.777,35.168-33.583,42.453-56.45
				C366.879,255.252,364.148,229.746,352.961,207.887z M169.656,296.975c-4.234-0.938-4.613-5.51-4.92-9.088
				c-0.486-5.647,0.561-11.403,1.035-17.021c0.543-6.448,0.238-12.944,0.049-19.402c-0.307-10.384-1.441-21.335,0.211-31.655
				c1.443-9.021,8.654-11.662,16.639-11.555c-1.775,2.818-3.443,5.713-4.992,8.669c-6.541,12.476-12.035,28.02-7.203,41.915
				c0.301,13.146,3.07,26.25,8.174,38.357C175.641,297.543,172.672,297.643,169.656,296.975z M348.119,278.146
				c-6.412,20.127-20.65,37.634-38.498,48.707c-17.273,10.716-38.312,14.328-58.361,12.44
				c-20.457-1.927-38.174-10.479-51.049-26.732c-12.117-15.298-18.195-34.664-18.754-54.032c-0.396-1.61-0.656-3.252-0.799-4.946
				c-0.129-0.204-0.266-0.4-0.422-0.575c-2.871-12.349,4.273-26.173,10.244-36.558c6.393-11.117,15.055-21.039,25.463-28.545
				c18.553-13.377,44.621-17.108,66.941-15.02c11.279,1.056,22.289,4.02,32.227,9.51c10.346,5.715,18.635,15.389,24.986,25.174
				C353.748,228.598,355.623,254.592,348.119,278.146z"/>
		</g>
	</g>
	<g>
		<g>
			<path d="M324.988,219.848c-0.754-8.954-8.201-16.063-15.68-20.008c-16.656-8.785-39.664-7.137-57.238-2.244
				c-11.254,3.133-21.543,11.334-29.102,19.996c-7.688,8.812-12.131,19.719-10.85,31.199c-0.027,0.023-0.053,0.049-0.08,0.072
				c0.182,2.588-0.291,5.154-0.791,7.736c-2.584,19.171,10.27,37.604,25.471,48.768c8.811,6.471,18.525,10.101,29.441,10.655
				c11.691,0.594,25.971-0.845,35.326-8.624c9.74-8.1,5.6-19.604,1.15-29.308c-2.367-5.163-4.662-10.522-3.754-16.306
				c0.947-6.037,5.404-10.752,9.83-14.526C316.953,240.23,325.982,231.643,324.988,219.848z M301.564,238.99
				c-8.883,7.576-15.311,17.75-13.574,29.866c0.838,5.848,3.496,11.14,5.9,16.458c2.004,4.432,4.818,10.158,0.287,13.927
				c-8.682,7.22-24.893,6.954-35.283,4.876c-10.895-2.178-20.787-10.527-27.547-18.963c-5.232-6.531-9.773-15.23-9.695-23.875
				c-1.234-4.688-0.199-10.911,0.762-14.846c0.068-0.279,0.162-0.553,0.244-0.829c-0.553-10.608,7.232-20.515,14.855-27.103
				c7.291-6.303,15.426-10.348,24.859-12.046c8.891-1.601,18.133-2.037,27.105-0.946c7.654,0.93,16.645,3.146,21.717,9.447
				C318.734,224.32,308.494,233.078,301.564,238.99z"/>
		</g>
	</g>
	<g>
		<g>
			<path d="M214.279,109.902c-3.322-5.254-8.627-7.688-14.389-9.406c-10.818-3.227-22.957-2.363-34.137-2.705
				c-9.773-0.301-20.303-0.028-29.326,4.17c-10.248,4.769-14.76,14.091-14.975,25.062c-0.072,3.711,2.906,5.229,5.777,4.824
				c0.857,1.818,2.592,3.239,5.133,3.236c26.002-0.023,51.996-0.975,78-1c3.223-0.002,4.977-3.1,5.061-5.908
				C215.607,122.103,217.814,115.498,214.279,109.902z M205.219,123.137c-24.217,0.111-48.426,0.926-72.645,0.973
				c1.857-15.759,21.273-15.668,34.027-15.35c8.213,0.207,16.559,0.109,24.709,1.207c4.162,0.561,8.846,1.426,12.234,4.065
				C205.838,115.818,205.693,119.576,205.219,123.137z"/>
		</g>
	</g>
	<g>
		<g>
			<path d="M257.189,91.391c-12.643-1.87-24.949,6.177-24.215,19.966c0.018,0.32,0.062,0.619,0.121,0.908
				c-0.68,1.494-0.779,3.285,0.139,5.078c4.891,9.547,15.467,14.82,25.99,14.344c11.254-0.51,20.49-10.357,20.203-21.586
				C279.143,99.037,266.611,92.784,257.189,91.391z M256.322,120.757c-5.287-0.031-9.98-3.391-12.834-7.643
				c0.334-0.743,0.51-1.609,0.457-2.604c-0.422-7.92,7.34-9.072,13.254-7.971c3.979,0.742,11.645,3.709,11.303,8.89
				C268.076,117.88,261.998,120.79,256.322,120.757z"/>
		</g>
	</g>
	<g>
		<g>
			<path d="M299.902,94.136c-0.033-0.029-0.066-0.053-0.102-0.08c-0.18-0.213-0.367-0.414-0.564-0.588
				c-1.105-0.973-2.586-1.465-4.055-1.352c-1.422,0.108-2.768,0.783-3.709,1.854c-1.031,1.172-1.355,2.533-1.354,4.055
				c0.004,1.679,0.756,3.107,1.922,4.273c1.262,1.262,2.986,1.452,4.654,1.455c1.373,0.002,2.828-0.854,3.709-1.854
				c0.973-1.105,1.465-2.587,1.354-4.055C301.648,96.423,300.973,95.077,299.902,94.136z"/>
		</g>
	</g>
	<g>
		<g>
			<path d="M317.182,91.448c-7.09,0-6.213,10.971,0.848,10.971C325.117,102.419,324.24,91.448,317.182,91.448z"/>
		</g>
	</g>
	<g>
		<g>
			<path d="M341.182,90.116c-7.09,0-6.213,10.969,0.848,10.969C349.117,101.085,348.24,90.116,341.182,90.116z"/>
		</g>
	</g>
	<g>
		<g>
			<path d="M372.568,89.468c-1.172-1.031-2.531-1.352-4.053-1.352h-0.666c-1.375,0-2.828,0.852-3.709,1.854
				c-0.973,1.104-1.467,2.586-1.354,4.055c0.109,1.421,0.785,2.767,1.854,3.709c1.174,1.032,2.533,1.352,4.055,1.352h0.666
				c1.373,0,2.826-0.852,3.709-1.854c0.973-1.104,1.465-2.586,1.354-4.055C374.314,91.756,373.639,90.41,372.568,89.468z"/>
		</g>
	</g>
	<g>
		<g>
			<path d="M393.902,89.468c-1.172-1.031-2.531-1.352-4.053-1.352h-2c-1.375,0-2.828,0.852-3.709,1.854
				c-0.973,1.104-1.467,2.586-1.354,4.055c0.109,1.421,0.785,2.767,1.854,3.709c1.174,1.032,2.533,1.352,4.055,1.352h2
				c1.373,0,2.826-0.852,3.709-1.854c0.973-1.104,1.465-2.586,1.354-4.055C395.648,91.756,394.973,90.41,393.902,89.468z"/>
		</g>
	</g>
	<g>
		<g>
			<path d="M300.416,118.304c-0.109-1.422-0.785-2.768-1.854-3.709c-0.033-0.029-0.068-0.053-0.102-0.08
				c-0.18-0.213-0.369-0.414-0.566-0.588c-1.104-0.973-2.586-1.465-4.055-1.352c-1.42,0.108-2.766,0.783-3.707,1.854
				c-1.033,1.172-1.355,2.533-1.354,4.055c0.002,1.679,0.756,3.107,1.922,4.273c1.262,1.262,2.984,1.452,4.652,1.455
				c1.373,0.002,2.83-0.854,3.709-1.854C300.035,121.253,300.529,119.771,300.416,118.304z"/>
		</g>
	</g>
	<g>
		<g>
			<path d="M315.84,111.907c-7.088,0-6.211,10.971,0.848,10.971C323.777,122.878,322.9,111.907,315.84,111.907z"/>
		</g>
	</g>
	<g>
		<g>
			<path d="M339.84,110.575c-7.088,0-6.211,10.969,0.848,10.969C347.777,121.544,346.9,110.575,339.84,110.575z"/>
		</g>
	</g>
	<g>
		<g>
			<path d="M373.082,113.636c-0.109-1.421-0.785-2.767-1.854-3.709c-1.174-1.032-2.533-1.352-4.055-1.352h-0.666
				c-1.373,0-2.826,0.852-3.709,1.854c-0.973,1.104-1.465,2.586-1.354,4.055c0.109,1.421,0.785,2.767,1.855,3.709
				c1.172,1.032,2.531,1.352,4.053,1.352h0.666c1.375,0,2.828-0.852,3.709-1.854C372.701,116.586,373.195,115.104,373.082,113.636z"
				/>
		</g>
	</g>
	<g>
		<g>
			<path d="M394.416,113.636c-0.109-1.421-0.785-2.767-1.854-3.709c-1.174-1.032-2.533-1.352-4.055-1.352h-2
				c-1.373,0-2.826,0.852-3.709,1.854c-0.973,1.104-1.465,2.586-1.354,4.055c0.109,1.421,0.785,2.767,1.855,3.709
				c1.172,1.032,2.531,1.352,4.053,1.352h2c1.375,0,2.828-0.852,3.709-1.854C394.035,116.586,394.529,115.104,394.416,113.636z"/>
		</g>
	</g>
</g>
</svg>
