<?xml version="1.0" encoding="utf-8"?>
<!-- Generator: Adobe Illustrator 16.0.3, SVG Export Plug-In . SVG Version: 6.00 Build 0)  -->
<!DOCTYPE svg PUBLIC "-//W3C//DTD SVG 1.1//EN" "http://www.w3.org/Graphics/SVG/1.1/DTD/svg11.dtd">
<svg version="1.1" id="Layer_1" xmlns="http://www.w3.org/2000/svg" xmlns:xlink="http://www.w3.org/1999/xlink" x="0px" y="0px"
	 width="512px" height="512px" viewBox="0 0 512 512" enable-background="new 0 0 512 512" xml:space="preserve">
<g>
	<g>
		<g>
			<path fill="#BCBCBC" d="M111.694,255.416v-0.13c-0.436-14.462-0.925-28.923-1.316-43.384c-0.04-0.15-0.068-0.306-0.111-0.454
				c-1.337-4.661-3.591-6.978-8.619-7.327c-7.287-0.508-14.746-0.043-21.985,0.841c-15.409,1.884-30.452,5.632-45.308,10.06
				c-0.858,0.255-1.667,0.316-2.412,0.225c-0.834,20.74,3.436,41.386,5.41,61.95c0.692,7.214,1.762,14.39,2.355,21.614
				c0.272,3.323,0.91,7.676,0.447,11.531c22.563-0.2,45.114-1.407,67.675-1.23c-0.271-2.201,0.562-4.461,2.629-5.419
				c-0.123-7.287,0.358-14.557,0.791-21.843C111.772,273.041,111.694,264.235,111.694,255.416z M63.834,236.499
				c-2.263-0.612-4.046-2.271-4.247-4.894c-0.216-2.811,2.105-6.121,5.171-6.037c1.66,0.046,3.234,0.23,4.856,0.554
				c0.594,0.119,1.187,0.245,1.785,0.344c0.381,0.062,2.262,0.173,0.512,0.124c2.559,0.071,4.836,1.185,5.736,3.747
				c0.777,2.21,0.028,5.327-2.162,6.517c-0.238,0.129-0.71,0.531-0.788,0.555c-0.075,0.096-0.162,0.182-0.231,0.284
				c-0.302,0.449-0.599,0.88-0.966,1.277c-2.074,2.245-5.59,2.574-7.932,0.512C64.671,238.692,64.093,237.631,63.834,236.499z
				 M79.1,293.783c-3.367,0.891-7.29,0.494-10.279-1.383c-2.592-1.626-3.998-4.582-2.534-7.534c1.002-2.02,3.536-3.456,5.839-3.139
				c0.367-0.433,0.793-0.8,1.262-1.1c1.799-1.345,4.113-1.928,6.696-1.931c2.781-0.003,6.156,1.948,6.037,5.172
				C85.954,288.405,83.777,292.546,79.1,293.783z"/>
		</g>
	</g>
	<g>
		<g>
			<path fill="#EF4823" d="M467.752,153.434c-0.828,0.914-2.04,1.536-3.664,1.607c-25.518,1.119-50.941-3.094-76.49-1.867
				c-29.974,1.441-59.854,4.267-89.8,6.125c-29.878,1.855-59.744,1.58-89.647,2.511c-15.056,0.468-30.24,0.618-45.244,2.003
				c-14.01,1.293-27.952,3.274-42.039,3.464c0.035,14.486,0.322,28.968,0.714,43.446c0.602,3.014,0.887,6.108,1.117,9.129
				c0.722,9.491,0.202,19.183,0.202,28.702c0,2.226,0.013,4.452,0.026,6.681c0.016,0.533,0.033,1.067,0.048,1.601
				c0.445,15.228,0.833,30.461,0.921,45.696c0.014,2.378-0.015,4.765-0.059,7.156c0.789,0.999,1.433,2.069,1.829,3.407
				c0.663,2.236-0.151,5.11-2.039,6.553c-0.153,8.558-0.087,17.118,1.317,25.523c0.088,0.528,0.102,1.018,0.064,1.477
				c63.629,18.213,129.716,12.59,194.686,6.25c32.556-3.178,64.913-6.303,97.657-5.896c12.811,0.157,26.766,1.16,39.094-3.166
				c13.056-4.583,16.99-15.383,18.076-28.447c1.188-14.288,1.04-28.716,2.053-43.04c1.039-14.688,1.911-29.373,2.75-44.072
				C480.759,203.178,482.636,175.16,467.752,153.434z M416.906,242.266c-1.913,16.066-21.858,15.763-28.356,4.447
				c-11.151,3.706-22.93,4.513-34.782,4.672c-0.131,1.425-0.862,2.818-2.422,3.859c-9.435,6.296-17.403,12.362-23.406,22.093
				c-4.566,7.403-9.612,16.887-18.526,19.673c-5.092,1.593-10.219,1.861-15.515,2.001c-1.226,0.032-2.527,0.041-3.846,0.092
				c-0.171,0.273-0.349,0.54-0.54,0.79c-3.089,4.045-13.139,8.432-17.449,3.604c-0.374-0.418-0.68-0.826-0.955-1.229
				c-3.06-2.34-4.941-5.71-3.46-9.86c0.675-1.893,2.118-3.295,3.836-4.329c4.196-5.917,14.764-6.354,18.819-0.106
				c5.673-0.086,11.876,0.332,16.836-2.144c4.49-2.241,7.459-8.186,9.971-12.259c3.169-5.137,6.293-10.564,10.799-14.668
				c2.957-2.691,6.061-5.148,9.258-7.486c-5.07,0.018-10.105,0.11-15.063,0.455c-14.565,1.016-29.021,2.486-43.634,2.888
				c-13.349,0.368-26.702,0.404-40.055,0.408c-1.901,4.137-6.56,6.507-11.116,6.55c-6.968,2.096-12.797-3.394-12.413-10.696
				c0.102-1.928,0.804-3.72,2.146-4.848c1.214-2.249,3.5-4.354,5.96-4.915c3.966-0.906,8.642-0.271,11.604,2.703
				c14.336,0,28.678,0.023,43.01-0.41c12.977-0.391,25.825-1.584,38.746-2.537c-1.531-1.893-2.963-3.856-4.114-5.98
				c-2.266-4.182-3.543-8.398-4.894-12.931c-2.39-8.027-4.5-15.079-13.608-16.786c-14.13-2.647-28.449-2.344-42.763-2.137
				c-0.599,3.366-2.682,6.35-6.399,7.484c-9.781,2.984-27.626-4.673-21.403-17.202c3.699-7.447,14.63-7.324,20.109-2.33
				c1.111,0.103,2.185,0.388,3.163,0.89c6.583-0.075,13.165-0.225,19.748-0.157c11.208,0.116,23.72-0.012,34.449,3.626
				c8.737,2.962,13.42,10.471,16.09,18.904c1.488,4.702,2.269,10.092,4.824,14.354c2.511,4.19,5.698,7.817,8.83,11.544
				c0.023,0.028,0.042,0.057,0.064,0.084c19.709-0.213,40.423,1.59,58.692-5.865c2.057-6.035,8.018-11.09,14.654-9.617
				C411.529,226.607,417.877,234.104,416.906,242.266z"/>
		</g>
	</g>
	<g>
		<g>
			<path fill="#010101" d="M476.488,146.295c-2.398-3.376-6.471-2.77-8.737-0.526c-0.99-1.217-2.511-2.025-4.528-1.937
				c-25.515,1.119-50.94-3.039-76.49-1.867c-29.974,1.377-59.858,4.227-89.8,6.127c-29.874,1.896-59.744,1.61-89.647,2.509
				c-14.407,0.435-28.897,0.689-43.267,1.833c-15.056,1.197-29.977,3.559-45.111,3.659c-3.134,0.021-4.743,2.131-4.978,4.515
				c-2.298,0.662-4.283,2.574-4.28,5.609c0.008,9.503,0.137,19.002,0.327,28.501c-8.272-3.453-19.349-2.077-27.637-1.34
				c-17.542,1.562-34.871,6.019-51.703,11.035c-2.689,0.802-3.773,2.882-3.697,5.011c-2.898,0.09-6.004,2.121-6.179,5.835
				c-0.958,20.379,4.085,40.065,5.182,60.27c0.352,6.492,1.401,12.962,2.098,19.423c0.363,3.37,0.66,6.747,0.807,10.134
				c0.053,1.218,0.105,2.476,0.005,3.687c-0.042,0.436-0.104,0.867-0.187,1.295c-0.007,0.045-0.012,0.077-0.018,0.116
				c-0.04,0.041-0.093,0.109-0.165,0.227c-1.843,2.976-0.444,5.657,1.92,6.958c0.679,2.271,2.583,4.217,5.59,4.212
				c25.486-0.043,50.954-1.597,76.438-1.215c-0.159,8.606-0.107,17.216,1.305,25.673c0.375,2.246,1.761,3.697,3.44,4.408
				c-0.421,2.71,0.804,5.824,4.157,6.805c63.053,18.44,128.893,13.667,193.384,7.424c32.523-3.148,65.005-6.807,97.72-6.529
				c22.845,0.193,54.661,3.455,67.874-19.998c7.727-13.714,5.565-31.999,6.141-47.081c0.694-18.165,2.649-36.306,3.566-54.467
				C491.555,206.178,495.202,172.618,476.488,146.295z M111.25,281.85c-0.433,7.286-0.914,14.556-0.791,21.843
				c-2.067,0.958-2.9,3.218-2.629,5.419c-22.561-0.177-45.112,1.03-67.675,1.23c0.463-3.855-0.175-8.208-0.447-11.531
				c-0.593-7.225-1.663-14.4-2.355-21.614c-1.974-20.564-6.244-41.21-5.41-61.95c0.745,0.092,1.554,0.03,2.412-0.225
				c14.856-4.428,29.899-8.176,45.308-10.06c7.239-0.884,14.698-1.349,21.985-0.841c5.028,0.35,7.282,2.666,8.619,7.327
				c0.043,0.148,0.071,0.304,0.111,0.454c0.391,14.461,0.88,28.922,1.316,43.384v0.13
				C111.694,264.235,111.772,273.041,111.25,281.85z M479.326,228.275c-0.84,14.699-1.711,29.385-2.75,44.072
				c-1.013,14.324-0.865,28.752-2.053,43.04c-1.086,13.064-5.02,23.864-18.076,28.447c-12.328,4.326-26.283,3.323-39.094,3.166
				c-32.744-0.406-65.101,2.719-97.657,5.896c-64.97,6.34-131.057,11.963-194.686-6.25c0.038-0.459,0.024-0.948-0.064-1.477
				c-1.404-8.405-1.47-16.966-1.317-25.523c1.888-1.442,2.702-4.316,2.039-6.553c-0.396-1.338-1.04-2.408-1.829-3.407
				c0.044-2.392,0.073-4.778,0.059-7.156c-0.088-15.235-0.476-30.469-0.921-45.696c-0.015-0.533-0.033-1.067-0.048-1.601
				c-0.013-2.229-0.026-4.455-0.026-6.681c0-9.52,0.521-19.211-0.202-28.702c-0.229-3.021-0.515-6.115-1.117-9.129
				c-0.392-14.479-0.679-28.96-0.714-43.446c14.086-0.189,28.028-2.171,42.039-3.464c15.004-1.385,30.188-1.535,45.244-2.003
				c29.904-0.931,59.769-0.655,89.647-2.511c29.946-1.858,59.826-4.684,89.8-6.125c25.549-1.227,50.973,2.986,76.49,1.867
				c1.624-0.071,2.836-0.693,3.664-1.607C482.636,175.16,480.759,203.178,479.326,228.275z"/>
		</g>
	</g>
	<g>
		<g>
			<path fill="#010101" d="M77.647,230.337c-0.9-2.562-3.178-3.676-5.736-3.747c1.75,0.049-0.13-0.062-0.512-0.124
				c-0.598-0.099-1.191-0.225-1.785-0.344c-1.622-0.323-3.196-0.508-4.856-0.554c-3.065-0.084-5.387,3.227-5.171,6.037
				c0.201,2.623,1.984,4.281,4.247,4.894c0.259,1.132,0.837,2.193,1.734,2.982c2.342,2.062,5.858,1.733,7.932-0.512
				c0.367-0.397,0.665-0.828,0.966-1.277c0.069-0.103,0.156-0.188,0.231-0.284c0.078-0.023,0.55-0.426,0.788-0.555
				C77.675,235.664,78.424,232.547,77.647,230.337z"/>
		</g>
	</g>
	<g>
		<g>
			<path fill="#010101" d="M80.084,278.697c-2.583,0.003-4.897,0.586-6.696,1.931c-0.469,0.3-0.895,0.667-1.262,1.1
				c-2.303-0.317-4.837,1.119-5.839,3.139c-1.464,2.952-0.058,5.908,2.534,7.534c2.989,1.877,6.912,2.273,10.279,1.383
				c4.678-1.237,6.854-5.378,7.021-9.914C86.24,280.646,82.865,278.694,80.084,278.697z"/>
		</g>
	</g>
	<g>
		<g>
			<path fill="#010101" d="M403.795,224.893c-6.636-1.473-12.597,3.582-14.654,9.617c-18.27,7.455-38.983,5.652-58.692,5.865
				c-0.022-0.027-0.041-0.056-0.064-0.084c-3.132-3.727-6.319-7.354-8.83-11.544c-2.555-4.263-3.336-9.652-4.824-14.354
				c-2.669-8.434-7.353-15.942-16.09-18.904c-10.729-3.638-23.242-3.51-34.449-3.626c-6.583-0.067-13.166,0.082-19.748,0.157
				c-0.978-0.502-2.052-0.787-3.163-0.89c-5.479-4.994-16.41-5.117-20.109,2.33c-6.224,12.529,11.622,20.187,21.403,17.202
				c3.717-1.135,5.801-4.118,6.399-7.484c14.314-0.207,28.632-0.511,42.763,2.137c9.107,1.707,11.218,8.759,13.608,16.786
				c1.35,4.532,2.627,8.749,4.894,12.931c1.151,2.124,2.583,4.088,4.114,5.98c-12.921,0.953-25.769,2.146-38.746,2.537
				c-14.332,0.434-28.674,0.41-43.01,0.41c-2.962-2.975-7.638-3.609-11.604-2.703c-2.46,0.562-4.746,2.666-5.96,4.915
				c-1.342,1.128-2.044,2.92-2.146,4.848c-0.384,7.303,5.445,12.792,12.413,10.696c4.557-0.043,9.215-2.413,11.116-6.55
				c13.353-0.004,26.706-0.04,40.055-0.408c14.613-0.401,29.069-1.872,43.634-2.888c4.958-0.345,9.994-0.438,15.063-0.455
				c-3.197,2.338-6.301,4.795-9.258,7.486c-4.506,4.104-7.63,9.531-10.799,14.668c-2.512,4.073-5.48,10.018-9.971,12.259
				c-4.96,2.476-11.164,2.058-16.836,2.144c-4.055-6.248-14.623-5.811-18.819,0.106c-1.718,1.034-3.161,2.437-3.836,4.329
				c-1.481,4.15,0.4,7.521,3.46,9.86c0.275,0.403,0.581,0.812,0.955,1.229c4.311,4.828,14.36,0.441,17.449-3.604
				c0.19-0.25,0.368-0.517,0.54-0.79c1.319-0.051,2.621-0.06,3.846-0.092c5.296-0.14,10.423-0.408,15.515-2.001
				c8.914-2.786,13.959-12.27,18.526-19.673c6.002-9.73,13.971-15.797,23.406-22.093c1.56-1.041,2.291-2.435,2.422-3.859
				c11.852-0.159,23.631-0.966,34.782-4.672c6.499,11.315,26.444,11.619,28.356-4.447
				C417.877,234.104,411.529,226.607,403.795,224.893z"/>
		</g>
	</g>
</g>
</svg>
