<?xml version="1.0" encoding="utf-8"?>
<!-- Generator: Adobe Illustrator 16.0.3, SVG Export Plug-In . SVG Version: 6.00 Build 0)  -->
<!DOCTYPE svg PUBLIC "-//W3C//DTD SVG 1.1//EN" "http://www.w3.org/Graphics/SVG/1.1/DTD/svg11.dtd">
<svg version="1.1" id="Layer_1" xmlns="http://www.w3.org/2000/svg" xmlns:xlink="http://www.w3.org/1999/xlink" x="0px" y="0px"
	 width="512px" height="512px" viewBox="0 0 512 512" enable-background="new 0 0 512 512" xml:space="preserve">
<g>
	<g>
		<g>
			<path fill="#BCBCBC" d="M418.012,104.617c-12.156,9.463-24.977,18.106-37.311,27.346c-12.746,9.549-25.395,19.229-38.135,28.788
				c-23.15,17.371-46.719,33.555-71.629,48.301c-44.543,26.365-91.572,51.026-128.824,87.551c1.105,0.805,1.865,2.095,1.896,3.895
				c0.043,2.403,2.266,4.979,3.195,7.168c1.242,2.92,2.301,5.896,3.254,8.921c1.949,6.188,4.002,12.343,5.812,18.574
				c3.973,13.659,7.471,27.458,11.949,40.966c6.221,18.76,11.408,38.124,19.098,56.396c1.822-12.277,3.639-24.6,6.312-36.628l6-27
				c0.453-2.044,1.461-4.002,2.062-6.01c0.211-0.704,0.422-1.417,0.598-2.136c-1.348-2.955-0.166-7.342,3.885-8.207
				c-0.566-1.615-0.479-3.49,0.721-5.229c5.291-7.663,11.18-14.879,17.451-21.758c9.91-10.869,20.51-21.073,30.584-31.784
				c10.641-11.31,20.188-23.634,30.559-35.199c10.498-11.708,21.32-23.105,32.406-34.259c10.898-10.963,20.975-22.673,31.277-34.186
				c10.24-11.443,21.219-21.893,32.109-32.687c10.885-10.789,21.064-22.259,30.758-34.126c9.561-11.705,18.896-23.575,28.48-35.261
				c2.086-2.541,4.195-5.048,6.393-7.473C437.178,88.442,427.9,96.92,418.012,104.617z"/>
		</g>
	</g>
	<g>
		<g>
			<path fill="#BCBCBC" d="M213.295,360.747c-0.109,1.521-0.412,3.012-0.805,4.237c-2.465,7.706-4.16,15.448-5.92,23.366
				c-3.426,15.414-5.92,31.055-8.402,46.677c3.988-4.595,8.521-8.805,12.621-12.944c5.174-5.221,9.715-10.826,14.373-16.488
				c5.516-6.705,11.068-13.413,16.994-19.763c1.895-2.03,4.182-4.874,6.811-6.894C237.059,372.908,225.174,366.832,213.295,360.747z
				"/>
		</g>
	</g>
	<g>
		<g>
			<path fill="#D6E5E5" d="M414.439,84.687c-16.406,7.312-33.088,14.022-49.592,21.121c-29.318,12.61-59.594,23.562-88.268,37.577
				c-13.895,6.791-27.527,14.115-41.48,20.789c-14.35,6.861-29.168,12.59-43.908,18.543c-30.039,12.131-59.811,24.88-89.957,36.726
				c-11.164,4.387-22.158,9.327-33.686,12.686c-4.865,1.418-9.779,2.778-14.52,4.585c-1.309,0.499-3.412,1.332-4.994,2.151
				c1.092,0.644,2.152,1.339,3.195,1.978c3.07,1.877,6.334,3.17,9.422,4.979c8.525,4.995,16.881,10.369,25.008,15.991
				c15.053,10.414,29.246,22.031,45.938,29.79c14.607-14.696,30.832-27.73,47.863-39.507c45.4-31.396,95.5-55.232,140.057-87.915
				c25.705-18.854,50.738-38.615,76.623-57.224c11.707-8.417,22.848-17.21,33.82-26.565c2.168-1.849,4.344-3.688,6.537-5.506
				C429.105,78.065,421.789,81.411,414.439,84.687z"/>
		</g>
	</g>
	<g>
		<g>
			<path fill="#D6E5E5" d="M430.58,117.745c-9.439,12.003-19.115,23.849-29.51,35.042c-10.434,11.233-21.998,21.285-32.5,32.439
				c-10.523,11.175-20.42,22.913-30.818,34.202c-21.309,23.135-43.629,45.073-63.768,69.304
				c-17.832,21.455-39.543,39.474-56.082,62.015c25.508,13.065,51.02,26.135,76.787,38.69c13.416,6.538,26.891,12.963,40.469,19.161
				c11.6,5.293,22.602,11.809,34.072,17.399c-0.68-13.583,1.557-27.17,3.559-40.569c2.348-15.712,4.238-31.221,8.422-46.602
				c4.135-15.203,9.219-30.111,13.871-45.158c4.691-15.18,8.211-30.746,12.146-46.133c7.998-31.274,18.268-61.664,28.719-92.182
				c5.811-16.965,11.213-34.08,16.459-51.228c1.996-6.521,3.971-13.051,5.855-19.606C448.291,94.828,439.428,106.495,430.58,117.745
				z"/>
		</g>
	</g>
	<g>
		<g>
			<path d="M471.785,57.569c-1.051-1.78-2.982-3.14-5.18-3.11c-1.113,0.015-2.168,0.125-3.182,0.335
				c-0.598-0.212-1.26-0.335-1.99-0.335h-1.828c-1.305,0-2.338,0.374-3.113,0.98c-1.471,0.489-2.916,1.069-4.279,1.524
				c-3.51,1.17-6.969,2.49-10.414,3.837c-7.566,2.958-14.98,6.3-22.389,9.632c-14.498,6.521-29.215,12.465-43.801,18.777
				c-29.621,12.819-59.775,24.498-89.289,37.537c-28.504,12.594-55.447,28.098-84.393,39.787
				c-15.025,6.068-30.061,12.114-45.049,18.28c-15.014,6.177-29.818,12.929-44.986,18.708
				c-15.584,5.938-30.916,13.215-46.926,17.916c-5.92,1.737-11.871,3.396-17.609,5.685c-4.152,1.656-9.361,3.989-11.256,8.374
				c-0.699,1.62-0.611,3.142-0.043,4.411c-0.799,1.925-0.525,4.304,1.34,6.168c0.332,0.334,0.666,0.667,1,1
				c1.453,1.454,3.088,1.79,4.559,1.418c1.195,0.696,2.342,1.559,3.379,2.202c3.062,1.896,6.322,3.199,9.422,4.979
				c8.754,5.027,17.262,10.624,25.529,16.411c15.074,10.551,29.43,22.126,46.295,29.784c0.908,0.413,1.785,0.564,2.604,0.525
				c0.775,0.479,1.656,0.794,2.566,0.882c0.195,0.663,0.521,1.27,0.945,1.803c1.162,3.675,3.584,7.135,4.891,10.682
				c2.328,6.322,4.234,12.868,6.195,19.311c4.328,14.226,7.875,28.672,12.441,42.828c8.291,25.713,15.385,52.206,28.244,76.118
				c1.184,2.2,3.559,2.778,5.699,2.233c2.559,1.948,6.395,1.959,7.787-1.861c3.514-9.63,12-16.939,19.066-24.01
				c4.912-4.914,9.334-10.092,13.715-15.463c4.781-5.859,9.633-11.661,14.631-17.336c2.299-2.613,4.646-5.185,7.09-7.664
				c0.494-0.5,1.91-1.86,1.957-1.9c0.631-0.545,0.99-0.787,1.121-0.875c1.447-0.466,2.529-1.519,3.176-2.794
				c10.004,5.03,20.021,10.028,30.084,14.942c12.828,6.265,25.725,12.388,38.697,18.35c12.947,5.949,25.23,13.217,38.125,19.297
				c1.02,0.682,2.086,1.245,3.361,1.404c2.646,0.331,4.795-1.153,5.848-3.136c2.637-0.313,5.027-2.266,4.688-5.687
				c-1.451-14.668,1.17-29.258,3.332-43.725c2.264-15.15,4.211-30.022,8.162-44.87c4.051-15.219,9.188-30.129,13.871-45.157
				c4.727-15.164,8.227-30.748,12.148-46.134c12.389-48.627,30.482-95.47,45.176-143.409c2.785-9.084,5.533-18.185,8.033-27.352
				c0.547-2.005,1.9-5.702,2.334-9.16c0.943-1.331,1.76-2.757,2.385-4.322C477.475,61.596,474.809,58.351,471.785,57.569z
				 M131.598,291.602c-16.691-7.759-30.885-19.376-45.938-29.79c-8.127-5.622-16.482-10.996-25.008-15.991
				c-3.088-1.809-6.352-3.102-9.422-4.979c-1.043-0.639-2.104-1.334-3.195-1.978c1.582-0.819,3.686-1.652,4.994-2.151
				c4.74-1.807,9.654-3.167,14.52-4.585c11.527-3.358,22.521-8.299,33.686-12.686c30.146-11.846,59.918-24.595,89.957-36.726
				c14.74-5.953,29.559-11.682,43.908-18.543c13.953-6.674,27.586-13.998,41.48-20.789c28.674-14.015,58.949-24.967,88.268-37.577
				c16.504-7.099,33.186-13.809,49.592-21.121c7.35-3.276,14.666-6.622,22.059-9.802c-2.193,1.818-4.369,3.657-6.537,5.506
				c-10.973,9.355-22.113,18.148-33.82,26.565c-25.885,18.608-50.918,38.369-76.623,57.224
				c-44.557,32.683-94.656,56.52-140.057,87.915C162.43,263.872,146.205,276.906,131.598,291.602z M193.631,395.894
				c-2.674,12.028-4.49,24.351-6.312,36.628c-7.689-18.272-12.877-37.637-19.098-56.396c-4.479-13.508-7.977-27.307-11.949-40.966
				c-1.811-6.231-3.863-12.386-5.812-18.574c-0.953-3.025-2.012-6.001-3.254-8.921c-0.93-2.188-3.152-4.765-3.195-7.168
				c-0.031-1.8-0.791-3.09-1.896-3.895c37.252-36.524,84.281-61.186,128.824-87.551c24.91-14.746,48.479-30.93,71.629-48.301
				c12.74-9.559,25.389-19.239,38.135-28.788c12.334-9.239,25.154-17.883,37.311-27.346c9.889-7.696,19.166-16.175,28.902-24.035
				c-2.197,2.425-4.307,4.932-6.393,7.473c-9.584,11.686-18.92,23.556-28.48,35.261c-9.693,11.867-19.873,23.337-30.758,34.126
				c-10.891,10.794-21.869,21.243-32.109,32.687c-10.303,11.513-20.379,23.223-31.277,34.186
				c-11.086,11.153-21.908,22.551-32.406,34.259c-10.371,11.565-19.918,23.89-30.559,35.199
				c-10.074,10.711-20.674,20.915-30.584,31.784c-6.271,6.879-12.16,14.095-17.451,21.758c-1.199,1.738-1.287,3.613-0.721,5.229
				c-4.051,0.865-5.232,5.252-3.885,8.207c-0.176,0.719-0.387,1.432-0.598,2.136c-0.602,2.008-1.609,3.966-2.062,6.01
				L193.631,395.894z M242.156,385.832c-5.926,6.35-11.479,13.058-16.994,19.763c-4.658,5.662-9.199,11.268-14.373,16.488
				c-4.1,4.14-8.633,8.35-12.621,12.944c2.482-15.622,4.977-31.263,8.402-46.677c1.76-7.918,3.455-15.66,5.92-23.366
				c0.393-1.226,0.695-2.717,0.805-4.237c11.879,6.085,23.764,12.161,35.672,18.191
				C246.338,380.958,244.051,383.801,242.156,385.832z M452.406,104.126c-5.246,17.147-10.648,34.263-16.459,51.228
				c-10.451,30.518-20.721,60.907-28.719,92.182c-3.936,15.387-7.455,30.953-12.146,46.133
				c-4.652,15.047-9.736,29.955-13.871,45.158c-4.184,15.381-6.074,30.89-8.422,46.602c-2.002,13.399-4.238,26.986-3.559,40.569
				c-11.471-5.591-22.473-12.106-34.072-17.399c-13.578-6.198-27.053-12.623-40.469-19.161
				c-25.768-12.556-51.279-25.625-76.787-38.69c16.539-22.541,38.25-40.56,56.082-62.015c20.139-24.23,42.459-46.169,63.768-69.304
				c10.398-11.289,20.295-23.027,30.818-34.202c10.502-11.154,22.066-21.206,32.5-32.439c10.395-11.193,20.07-23.039,29.51-35.042
				c8.848-11.25,17.711-22.917,27.682-33.225C456.377,91.076,454.402,97.605,452.406,104.126z"/>
		</g>
	</g>
</g>
</svg>
