<?xml version="1.0" encoding="utf-8"?>
<!-- Generator: Adobe Illustrator 16.0.3, SVG Export Plug-In . SVG Version: 6.00 Build 0)  -->
<!DOCTYPE svg PUBLIC "-//W3C//DTD SVG 1.1//EN" "http://www.w3.org/Graphics/SVG/1.1/DTD/svg11.dtd">
<svg version="1.1" id="Layer_1" xmlns="http://www.w3.org/2000/svg" xmlns:xlink="http://www.w3.org/1999/xlink" x="0px" y="0px"
	 width="512px" height="512px" viewBox="0 0 512 512" enable-background="new 0 0 512 512" xml:space="preserve">
<g>
	<g>
		<g>
			<path fill="#D6E7E7" d="M416.269,91.832c-3.036-1.592-6.243-2.713-9.526-3.686c-8.433-2.5-16.99-4.421-25.675-5.81
				c-32.079-5.13-64.623-5.881-97.048-6.089c-64.885-0.416-129.602,1.589-194.364,5.531c-1.697,2.759-3.674,6.078-3.607,9.328
				c0.188,9.16,16.407,11.434,22.901,12.812c15.266,3.244,30.834,4.105,46.403,4.381c32.228,0.572,64.456,1.656,96.692,1.729
				c31.603,0.072,63.105-0.997,94.648-2.855c13.36-0.787,26.864-1.368,40.079-3.615c6.66-1.133,13.329-2.52,19.734-4.705
				c3.771-1.285,8.929-2.604,11.89-5.641C417.769,92.686,417.122,92.279,416.269,91.832z"/>
		</g>
	</g>
	<g>
		<g>
			<path fill="#16B7B8" d="M479.04,247.768c-0.363,0.115-0.724,0.239-1.08,0.379c-2.126,0.834-4.196,1.791-6.212,2.863
				c-4.407,2.346-8.704,4.88-13.045,7.343c-11.167,6.338-23.477,8.688-36.323,8.29c-7.954-0.247-15.85-1.085-23.706-2.341
				c-8.24-1.317-16.253-3.88-24.433-5.544c-15.677-3.188-31.543-4.365-47.119,0.043c-14.139,4.002-27.54,10.209-41.847,13.684
				c-14.527,3.527-29.275,5.334-44.23,4.396c-30.658-1.92-57.667-18.525-88.528-19.422c-14.994-0.436-29.925,1.494-44.319,5.734
				c-7.38,2.173-14.5,4.989-22.109,6.331c-7.014,1.237-14.128,1.765-21.25,1.583c-9.396-0.238-25.616-2.019-35.616-8.759
				c-0.595,6.88-0.646,13.889-0.031,21.036c3.866,44.862,29.335,84.772,65.896,110.422c44.082,30.926,99.082,41.375,152.123,41.982
				c29.235,0.336,58.58-2.222,87.213-8.209c24.607-5.146,48.86-12.316,70.984-24.484c41.899-23.045,74.125-62.243,77.413-111.373
				C483.816,276.879,482.415,262.109,479.04,247.768z M414.56,356.098c3.75,6.941,4.423,15.045,4.926,22.777
				c0.226,3.472-3,6.635-6.535,5.822c-9.963-2.287-25.538-0.891-33.443-8.734c-14.021,8.029-29.965,13.98-45.838,16.464
				c-17.111,2.678-34.535,1.758-51.719,0.271c-15.172-1.312-29.707-4.279-43.027-11.943c-9.267-5.333-21.898-13.191-23.307-24.881
				c-1.049-1.079-1.562-2.65-1.015-4.623c3.289-11.861,13.464-19.338,23.926-24.752c11.216-5.806,23.293-9.629,35.383-13.146
				c17.296-5.031,35.369-6.796,53.263-4.205c9.531,1.381,19.654,3.402,28.401,7.58c6.608,3.155,12.85,7.332,19.578,10.294
				c9.81-12.215,25.558-22.789,41.424-23.206c3.031-0.08,5.624,1.965,5.909,5.061c1.502,16.336-12.218,24.214-20.459,35.748
				C407.206,347.148,411.654,350.721,414.56,356.098z"/>
		</g>
	</g>
	<g>
		<g>
			<path fill="#FEBF10" d="M279.145,347.24c-0.595-5.344-1.641-11.179-4.558-14.773c-1.178-1.45-2.446-2.824-3.804-4.109
				c-0.648-0.613-1.293-1.241-1.989-1.803c-0.069-0.056-0.12-0.099-0.173-0.143c-7.05,2.191-14.031,4.615-20.736,7.695
				c-7.866,3.611-18.5,8.934-21.935,17.625c0.296,0.611,0.489,1.32,0.535,2.143c0.27,4.852,5.132,8.68,8.708,11.381
				c4.167,3.148,8.637,5.697,13.254,8.115c6.877,3.603,14.303,5.633,21.9,6.903c0.177-0.185,0.365-0.364,0.577-0.535
				C279.605,372.715,280.274,357.379,279.145,347.24z M267.486,347.875c0,1.523-0.32,2.882-1.353,4.055
				c-0.942,1.07-2.288,1.746-3.709,1.854c-1.468,0.113-2.95-0.379-4.054-1.352c-1.002-0.883-1.854-2.336-1.854-3.709v-1
				c0-1.523,0.32-2.881,1.353-4.055c0.942-1.07,2.288-1.745,3.709-1.854c1.468-0.113,2.95,0.379,4.054,1.352
				c1.002,0.883,1.854,2.336,1.854,3.709V347.875z"/>
		</g>
	</g>
	<g>
		<g>
			<path fill="#FEBF10" d="M392.951,352.697c-3.366-1.048-5.586-4.366-3.878-7.846c3.285-6.689,8.619-11.812,13.609-17.215
				c3.352-3.628,6.733-7.419,8.172-11.959c-10.424,2.461-20.045,9.732-26.812,17.854c0.623,3.588-1.755,7.562-6.091,6.166
				c-8.109-2.611-15.167-6.902-22.674-10.818c-7.765-4.049-16.035-6.521-24.655-8.043c-16.593-2.93-33.683-2.479-49.953,2.014
				c4.532,5.118,7.183,10.303,8.521,17.346c2.513,13.232,2.012,29.919-5.779,41.651c2.083,0.178,4.163,0.335,6.232,0.482
				c14.908,1.062,30.152,1.617,44.918-1.172c14.671-2.771,29.533-8.577,42.264-16.358c2.515-2.629,7.748-2.803,9.367,1.682
				c1.532,4.242,9.594,4.859,13.294,5.375c2.812,0.393,5.667,0.621,8.507,0.933c-0.398-3.769-1.11-7.513-2.745-10.887
				C402.86,356.969,397.996,354.27,392.951,352.697z"/>
		</g>
	</g>
	<g>
		<g>
			<path fill="#D6E7E7" d="M467.111,213.854c-5.829-12.337-12.669-24.176-20.312-35.477c-7.859-11.622-16.118-23.484-25.386-34.043
				c-24.152,6.668-50.226,8.154-75.086,9.176c-28.238,1.16-56.524,1.521-84.779,2.105c-32.882,0.68-65.557,0.227-98.385-1.799
				c-16.112-0.994-32.192-2.408-48.263-3.922c-9.312-0.877-18.835-1.131-28.223-2.105c-0.208,0.429-0.471,0.85-0.813,1.26
				c-23.995,28.67-46.65,61.249-54.342,97.792c0.689,7.292,11.856,10.134,17.746,11.497c11.106,2.57,23.057,2.495,34.262,0.52
				c7.254-1.28,13.974-4.05,21.031-6.048c6.928-1.962,13.974-3.641,21.099-4.715c13.641-2.058,27.568-2.298,41.24-0.321
				c15.45,2.233,29.348,7.722,44.126,12.327c14.539,4.53,29.692,6.842,44.934,5.89c15.721-0.982,30.797-4.716,45.57-10.081
				c12.898-4.685,25.918-9.763,39.742-10.79c31.661-2.352,61.377,14.209,93.027,9.98c5.792-0.773,11.39-2.004,16.5-4.877
				c3.917-2.201,7.777-4.503,11.715-6.666c3.399-1.867,8.58-5.274,13.572-6.656C473.657,229.036,470.645,221.332,467.111,213.854z"
				/>
		</g>
	</g>
	<g>
		<g>
			<path fill="#D6E7E7" d="M443.12,99.084c-3.601-4.569-8.638-7.799-14.155-9.84c2.594,5.887-1.74,11.9-7.422,15.153
				c-10.824,6.196-24.063,8.677-36.255,10.437c-28.349,4.088-57.594,4.842-86.189,5.634c-32.553,0.902-65.124,0.634-97.675-0.218
				c-15.884-0.416-31.766-0.615-47.649-0.988c-15.255-0.356-30.726-1.105-45.695-4.287c-10.114-2.148-23.363-4.682-29.854-13.691
				c-4.02-5.577-3.649-11.977-1.488-17.939C66.8,85.98,57.102,91.588,50.62,99.059c-3.503,4.038-6.442,9.119-5.618,14.664
				c0.976,6.57,7.168,11.806,12.625,14.786c16.849,9.204,36.473,8.454,55.047,10.204c21.308,2.007,42.617,3.621,63.977,4.953
				c32.778,2.041,65.613,1.395,98.422,0.643c30.983-0.711,62.104-0.641,93.015-3.078c15.271-1.205,30.543-2.98,45.51-6.321
				c9.319-2.081,20.04-5.041,27.445-11.413C449.011,116.635,449.781,107.533,443.12,99.084z"/>
		</g>
	</g>
	<g>
		<g>
			<path fill="#010101" d="M451.507,165.874c-6.013-8.529-12.175-17.175-18.866-25.252c13.728-5.554,27.563-15.433,26.114-31.499
				c-1.97-21.824-25.638-33.567-45.27-33.564c-1.876-0.001-3.23,0.773-4.085,1.906c-0.618-0.179-1.23-0.354-1.824-0.525
				c-9.088-2.621-18.307-4.432-27.653-5.875c-31.794-4.908-64.081-5.587-96.19-5.814c-32.657-0.23-65.273-0.073-97.918,0.943
				c-32.862,1.021-65.702,2.691-98.517,4.711c-0.073,0.004-0.139,0.019-0.21,0.024c-0.538-0.128-1.133-0.177-1.788-0.126
				C66.72,72.24,44.849,83.096,36.515,100.555c-4.143,8.678-3.092,18.289,2.47,26.062c7.642,10.681,20.781,16.034,33.164,18.871
				c0.686,0.157,1.375,0.3,2.065,0.441c-24.085,29.41-45.521,62.123-53.278,98.757c-0.229,0.573-0.374,1.208-0.41,1.907
				c-2.467,12.462-3.339,25.377-2.185,38.768c4.177,48.461,32.373,90.258,71.359,118.037
				c43.496,30.992,98.303,41.475,150.755,43.232c29.111,0.975,58.272-1.438,86.932-6.535c25.414-4.519,50.333-11.412,73.708-22.476
				c42.247-19.995,76.912-55.011,88.772-101.034C503.724,262.812,482.241,209.464,451.507,165.874z M89.656,81.779
				c64.762-3.942,129.479-5.947,194.364-5.531c32.425,0.208,64.969,0.959,97.048,6.089c8.685,1.389,17.242,3.31,25.675,5.81
				c3.283,0.973,6.49,2.094,9.526,3.686c0.853,0.447,1.5,0.854,2.128,1.381c-2.961,3.037-8.12,4.355-11.89,5.641
				c-6.406,2.186-13.074,3.572-19.734,4.705c-13.215,2.247-26.719,2.828-40.079,3.615c-31.542,1.858-63.045,2.928-94.648,2.855
				c-32.236-0.072-64.464-1.156-96.692-1.729c-15.569-0.275-31.138-1.137-46.403-4.381c-6.494-1.379-22.713-3.652-22.901-12.812
				C85.982,87.857,87.959,84.538,89.656,81.779z M57.626,128.509c-5.457-2.98-11.649-8.216-12.625-14.786
				c-0.824-5.545,2.115-10.626,5.618-14.664C57.102,91.588,66.8,85.98,76.735,83.344c-2.161,5.963-2.532,12.362,1.488,17.939
				c6.491,9.01,19.74,11.543,29.854,13.691c14.969,3.182,30.44,3.931,45.695,4.287c15.883,0.373,31.765,0.572,47.649,0.988
				c32.551,0.852,65.123,1.12,97.675,0.218c28.595-0.792,57.84-1.546,86.189-5.634c12.192-1.76,25.431-4.24,36.255-10.437
				c5.682-3.253,10.017-9.267,7.422-15.153c5.518,2.041,10.555,5.271,14.155,9.84c6.661,8.449,5.892,17.551-2.078,24.412
				c-7.405,6.372-18.125,9.332-27.445,11.413c-14.966,3.341-30.239,5.116-45.51,6.321c-30.911,2.438-62.032,2.367-93.015,3.078
				c-32.81,0.752-65.645,1.398-98.422-0.643c-21.359-1.332-42.669-2.946-63.977-4.953C94.099,136.963,74.475,137.713,57.626,128.509
				z M85.864,149.049c0.342-0.41,0.605-0.831,0.813-1.26c9.388,0.975,18.911,1.229,28.223,2.105
				c16.071,1.514,32.15,2.928,48.263,3.922c32.828,2.025,65.502,2.479,98.385,1.799c28.254-0.584,56.541-0.945,84.779-2.105
				c24.86-1.021,50.935-2.508,75.086-9.176c9.268,10.559,17.527,22.421,25.386,34.043c7.643,11.301,14.483,23.14,20.312,35.477
				c3.534,7.479,6.546,15.183,8.978,23.047c-4.992,1.382-10.173,4.789-13.572,6.656c-3.938,2.163-7.798,4.465-11.715,6.666
				c-5.11,2.873-10.709,4.104-16.5,4.877c-31.65,4.229-61.367-12.332-93.027-9.98c-13.824,1.027-26.844,6.105-39.742,10.79
				c-14.773,5.365-29.849,9.099-45.57,10.081c-15.242,0.952-30.395-1.359-44.934-5.89c-14.779-4.605-28.676-10.094-44.126-12.327
				c-13.672-1.977-27.6-1.736-41.24,0.321c-7.125,1.074-14.171,2.753-21.099,4.715c-7.057,1.998-13.777,4.768-21.031,6.048
				c-11.205,1.976-23.156,2.051-34.262-0.52c-5.89-1.363-17.057-4.205-17.746-11.497C39.214,210.298,61.87,177.719,85.864,149.049z
				 M482.823,291.723c-3.287,49.13-35.513,88.328-77.413,111.373c-22.124,12.168-46.377,19.338-70.984,24.484
				c-28.633,5.987-57.979,8.545-87.213,8.209c-53.041-0.607-108.041-11.057-152.123-41.982
				c-36.562-25.649-62.03-65.56-65.896-110.422c-0.616-7.147-0.564-14.156,0.031-21.036c10,6.74,26.22,8.521,35.616,8.759
				c7.122,0.182,14.236-0.346,21.25-1.583c7.609-1.342,14.729-4.158,22.109-6.331c14.394-4.24,29.325-6.17,44.319-5.734
				c30.861,0.896,57.87,17.502,88.528,19.422c14.955,0.938,29.703-0.869,44.23-4.396c14.307-3.475,27.708-9.682,41.847-13.684
				c15.576-4.408,31.442-3.23,47.119-0.043c8.18,1.664,16.193,4.227,24.433,5.544c7.856,1.256,15.752,2.094,23.706,2.341
				c12.846,0.397,25.156-1.952,36.323-8.29c4.341-2.463,8.638-4.997,13.045-7.343c2.016-1.072,4.086-2.029,6.212-2.863
				c0.356-0.14,0.717-0.264,1.08-0.379C482.415,262.109,483.816,276.879,482.823,291.723z"/>
		</g>
	</g>
	<g>
		<g>
			<path fill="#010101" d="M414.56,356.098c-2.906-5.377-7.354-8.949-12.534-11.475c8.242-11.534,21.962-19.412,20.459-35.748
				c-0.285-3.096-2.878-5.141-5.909-5.061c-15.867,0.417-31.614,10.991-41.424,23.206c-6.729-2.962-12.97-7.139-19.578-10.294
				c-8.747-4.178-18.87-6.199-28.401-7.58c-17.895-2.591-35.967-0.826-53.263,4.205c-12.089,3.518-24.167,7.341-35.383,13.146
				c-10.462,5.414-20.638,12.891-23.926,24.752c-0.547,1.973-0.034,3.544,1.015,4.623c1.409,11.689,14.041,19.548,23.307,24.881
				c13.321,7.664,27.855,10.631,43.027,11.943c17.184,1.487,34.607,2.407,51.719-0.271c15.873-2.483,31.817-8.435,45.838-16.464
				c7.905,7.844,23.48,6.447,33.443,8.734c3.535,0.812,6.76-2.351,6.535-5.822C418.983,371.143,418.31,363.039,414.56,356.098z
				 M270.925,379.739c-0.211,0.171-0.399,0.351-0.577,0.535c-7.598-1.271-15.023-3.301-21.9-6.903
				c-4.617-2.418-9.087-4.967-13.254-8.115c-3.576-2.701-8.438-6.529-8.708-11.381c-0.046-0.822-0.239-1.531-0.535-2.143
				c3.436-8.691,14.069-14.014,21.935-17.625c6.705-3.08,13.686-5.504,20.736-7.695c0.053,0.044,0.104,0.087,0.173,0.143
				c0.696,0.562,1.34,1.189,1.989,1.803c1.358,1.285,2.626,2.659,3.804,4.109c2.917,3.595,3.962,9.43,4.558,14.773
				C280.274,357.379,279.605,372.715,270.925,379.739z M399.486,371.855c-3.701-0.516-11.762-1.133-13.294-5.375
				c-1.62-4.484-6.853-4.311-9.367-1.682c-12.731,7.781-27.593,13.588-42.264,16.358c-14.766,2.789-30.011,2.233-44.918,1.172
				c-2.069-0.147-4.149-0.305-6.232-0.482c7.791-11.732,8.292-28.419,5.779-41.651c-1.338-7.043-3.989-12.228-8.521-17.346
				c16.27-4.492,33.359-4.943,49.953-2.014c8.62,1.522,16.89,3.994,24.655,8.043c7.507,3.916,14.565,8.207,22.674,10.818
				c4.335,1.396,6.714-2.578,6.091-6.166c6.767-8.121,16.388-15.393,26.812-17.854c-1.438,4.54-4.82,8.331-8.172,11.959
				c-4.99,5.402-10.324,10.525-13.609,17.215c-1.708,3.479,0.512,6.798,3.878,7.846c5.044,1.572,9.909,4.271,12.298,9.204
				c1.634,3.374,2.347,7.118,2.745,10.887C405.153,372.477,402.298,372.248,399.486,371.855z"/>
		</g>
	</g>
	<g>
		<g>
			<path fill="#010101" d="M265.631,343.166c-1.104-0.973-2.586-1.465-4.054-1.352c-1.421,0.108-2.767,0.783-3.709,1.854
				c-1.033,1.174-1.353,2.531-1.353,4.055v1c0,1.373,0.853,2.826,1.854,3.709c1.104,0.973,2.586,1.465,4.054,1.352
				c1.421-0.107,2.767-0.783,3.709-1.854c1.033-1.173,1.353-2.531,1.353-4.055v-1C267.486,345.502,266.633,344.049,265.631,343.166z
				"/>
		</g>
	</g>
</g>
</svg>
