<?xml version="1.0" encoding="utf-8"?>
<!-- Generator: Adobe Illustrator 16.0.3, SVG Export Plug-In . SVG Version: 6.00 Build 0)  -->
<!DOCTYPE svg PUBLIC "-//W3C//DTD SVG 1.1//EN" "http://www.w3.org/Graphics/SVG/1.1/DTD/svg11.dtd">
<svg version="1.1" id="Layer_1" xmlns="http://www.w3.org/2000/svg" xmlns:xlink="http://www.w3.org/1999/xlink" x="0px" y="0px"
	 width="512px" height="512px" viewBox="0 0 512 512" enable-background="new 0 0 512 512" xml:space="preserve">
<g>
	<g>
		<g>
			<g>
				<path fill="#14B6B9" d="M442.682,289.617c-0.821-14.992-1.581-29.982-2.714-44.957c-1.215-16.057-2.539-32.131-2.828-48.238
					c-0.046-2.577-0.059-5.156-0.061-7.735H316.756v-1l-29.792-11.627l-1.208-63.765c-19.514,0.096-39.025,0.327-58.528,1.199
					c-32.28,1.441-64.577,4.316-96.354,10.309c-7.725,1.455-15.715,2.014-23.51,3.104c-7.523,1.051-15.051,2.125-22.611,2.889
					c-3.562,0.359-7.072,0.346-10.645,0.52c-1.805,0.086-3.615,0.174-5.409,0.396c-0.151,0.02-0.332,0.035-0.518,0.053
					c-0.265,0.359-0.575,0.689-0.919,0.982c0.324,1.346,0.111,2.844-0.943,4.232c-4.678,6.156-5.264,15.365-5.337,22.793
					c-0.095,9.842,0.841,19.664,2.175,29.406c3.119,22.818,7.126,45.51,10.252,68.332c2.035,14.869,4.348,29.861,5.162,44.857
					c0.588,10.832-0.4,25.541,6.846,34.527c3.656,4.531,7.402,7.729,13.232,9.121c5.269,1.258,10.616,1.676,16.025,1.707
					c14.582,0.082,29.174-0.182,43.736-0.965c32.447-1.746,64.727-5.482,97.062-8.561c32.701-3.113,65.491-4.334,98.23-6.891
					c16.51-1.291,33.004-2.766,49.495-4.266c9.864-0.895,21.535-1.365,30.239-6.654
					C443.876,313.045,443.282,300.574,442.682,289.617z"/>
			</g>
		</g>
		<g>
			<g>
				<path fill="#127274" d="M67.364,124.422c1.618,1.264,2.047,2.887,1.723,4.383C69.737,127.688,69.65,126.209,67.364,124.422z"/>
			</g>
		</g>
		<g>
			<g>
				<path fill="#127274" d="M324.602,371.184c-11.429,1.176-22.843,2.656-34.308,4.223c-18.82,2.572-37.717,4.512-56.656,5.916
					c2.424,4.139,4.027,8.76,5.119,13.41c1.826,7.77,3.049,15.875,3.184,23.945c0.684,0.729,1.113,1.756,1.1,3.102
					c-0.009,1-0.09,1.943-0.229,2.859c1.087,1.121,1.752,2.697,1.549,4.332c0.068,0.033,0.115,0.055,0.122,0.057
					c2.597,0.766,5.269,1.244,7.951,1.566c6.362,0.762,12.8,0.975,19.201,0.77c2.319-0.074,4.683-0.123,6.979-0.488
					c1.479-0.234-2.74-0.209,1.053-0.197c1.049,0,2.096,0.006,3.145,0.018c2.711,0.033,5.423,0.088,8.136,0.117
					c9.47,0.102,19.165,0.125,28.302-2.422c0.623-1.203,1.797-2.088,3.555-2.195C318.474,408.711,313.632,386.625,324.602,371.184z"
					/>
			</g>
		</g>
		<g>
			<g>
				<path fill="#127274" d="M398.065,432.074c-1.945-11.482-17.647-16.756-27.273-18.566c-13.67-2.57-27.514-2.83-41.375-2.854
					c0.775,3.977,1.725,7.854,2.631,11.471c0.465,0.484,0.91,0.982,1.271,1.555c1.381,2.189,1.058,5.537-1.349,6.941
					c-0.189,0.111-0.372,0.197-0.555,0.289c0.139,1.945-0.84,3.975-3.211,4.973c-13.049,5.49-27.531,5.033-41.408,4.83
					c-7.143-0.105-14.27,0.807-21.508,0.654c-5.865-0.125-29.791-0.826-31.774-9.537c-1.257-1.072-2.085-2.705-1.868-4.621
					c0.291-2.543,0.393-5.143,0.371-7.758c-3.684,1.727-7.752,2.465-11.59,3.777c-14.682,5.023-30.279,9.363-44.064,16.604
					c-9.048,4.752-23.021,13.225-17.582,25.678c4.41,10.1,18.826,12.125,28.406,13.367c24.49,3.176,49.845,3.027,74.473,1.787
					c27.027-1.363,54.312-4.791,80.061-13.443c12.402-4.168,23.473-10.068,35.161-15.764
					C383.987,447.994,399.81,442.359,398.065,432.074z"/>
			</g>
		</g>
		<g>
			<g>
				<path fill="#127274" d="M474.606,268.223c-0.273-15.703,0.203-31.426,0.414-47.127c0.146-10.736,0.388-21.569,0.372-32.409
					h-28.334c0.267,28.918,3.01,57.82,4.741,86.669c0.76,12.686,2.877,26.545-1.342,38.857c-3.211,9.373-12.077,15.014-21.217,17.68
					c-11.416,3.332-23.393,3.959-35.17,5.018c-16.49,1.482-32.984,2.928-49.498,4.111c-32.707,2.346-65.393,3.855-98.039,7.094
					c-32.314,3.207-64.637,6.842-97.104,8.062c-13.523,0.508-27.264,1.072-40.789,0.285c-10.652-0.619-22.107-3.129-29.131-11.885
					c-7.504-9.357-9.593-20.275-10.34-32.023c-0.895-14.062-2.162-27.969-3.963-41.953c-3.516-27.293-8.391-54.385-12.026-81.654
					c-1.468-11.02-2.556-22.137-2.042-33.266c0.426-9.184,1.927-18.66,7.576-26.176c-1.771-3.836,2.676-7.674,6.906-8.424
					c4.604-0.816,9.363-0.877,14.027-0.889c10.125-0.023,20.623-2.393,30.639-3.775c11.145-1.539,22.205-3.166,33.313-4.93
					c45.862-7.287,92.306-8.916,138.671-9.213c1.161-0.007,2.322-0.007,3.483-0.011V87.746c-1.125-0.074-2.252-0.153-3.376-0.225
					c-32.805-2.096-65.349-3.42-98.181-1.076c-30.907,2.207-61.618,6.52-92.524,8.65c-13.32,0.916-27.195,1.869-39.742,6.807
					c-4.537,1.787-8.305,4.254-11.977,7.461c-1.589,1.387-3.19,2.949-4.393,4.689c-1.018,1.471-1.027,1.543-0.354,2.33
					c1.945,2.275,1.188,4.686-0.592,6.133c1.305,48.299,7.707,96.23,14.119,144.064c2.969,22.137,6.832,44.445,7.666,66.785
					c0.312,8.396-0.107,18.441,5.137,25.551c4.102,5.559,10.506,9.074,17.057,10.988c9.32,2.725,19.029,3.664,28.711,3.76
					c15.518,0.152,31.018,0.691,46.542,0.58c32.934-0.234,66.248-0.943,99.034-4.271c32.178-3.268,64.081-9.48,96.424-11.109
					c16.457-0.828,32.936-0.027,49.394-1.35c7.771-0.625,15.432-2.381,23.22-3.059c1.312-1.566,3.463-2.398,5.85-1.268
					c11.033,5.238,25.109,3.479,34.639-4.213c10.949-8.84,12.688-25.873,13.133-38.992
					C476.014,296.041,474.849,282.152,474.606,268.223z M270.849,361.812c-0.486,0.328-0.975,0.66-1.434,1.027
					c-0.018,0.016-0.027,0.021-0.043,0.035c-0.967,0.887-1.941,1.508-3.346,1.65c-1.02,0.105-1.175-0.064-1.9-0.223
					c-0.314-0.066-0.633-0.109-0.953-0.141c-0.244-0.006-0.491-0.008-0.734-0.008c-2.555-0.016-5.372-1.717-5.372-4.602v-1.5
					c0-1.824,0.626-3.475,2.19-4.531c1.199-0.809,2.363-0.863,3.75-0.762c0.194,0.014,0.389,0.041,0.579,0.078
					c0.347-0.1,0.708-0.156,1.082-0.156h3c2.269,0,4.319,1.098,5.104,3.332C273.518,358.135,272.71,360.557,270.849,361.812z"/>
			</g>
		</g>
		<g>
			<g>
				<path fill="#010101" d="M484.552,265.883c-0.446-25.733,0.632-51.462,0.562-77.196h-9.721
					c0.016,10.84-0.227,21.673-0.372,32.409c-0.211,15.701-0.688,31.424-0.414,47.127c0.242,13.93,1.407,27.818,0.936,41.76
					c-0.445,13.119-2.184,30.152-13.133,38.992c-9.529,7.691-23.605,9.451-34.639,4.213c-2.387-1.131-4.537-0.299-5.85,1.268
					c-7.788,0.678-15.449,2.434-23.22,3.059c-16.458,1.322-32.937,0.521-49.394,1.35c-32.343,1.629-64.246,7.842-96.424,11.109
					c-32.786,3.328-66.101,4.037-99.034,4.271c-15.524,0.111-31.024-0.428-46.542-0.58c-9.682-0.096-19.391-1.035-28.711-3.76
					c-6.551-1.914-12.955-5.43-17.057-10.988c-5.244-7.109-4.824-17.154-5.137-25.551c-0.834-22.34-4.697-44.648-7.666-66.785
					c-6.412-47.834-12.814-95.766-14.119-144.064c1.78-1.447,2.537-3.857,0.592-6.133c-0.674-0.787-0.664-0.859,0.354-2.33
					c1.202-1.74,2.804-3.303,4.393-4.689c3.672-3.207,7.439-5.674,11.977-7.461c12.547-4.938,26.422-5.891,39.742-6.807
					c30.906-2.131,61.617-6.443,92.524-8.65c32.832-2.344,65.376-1.02,98.181,1.076c1.124,0.071,2.251,0.15,3.376,0.225v-9.923
					c-10.777-0.695-21.555-1.385-32.338-1.94c-32.453-1.672-64.604-0.234-96.927,2.879c-16.148,1.557-32.268,3.387-48.406,5.039
					c-13.723,1.404-27.527,1.615-41.158,3.904c-11.1,1.865-21.909,4.955-30.852,11.959c-5.24,4.102-13.475,11.84-11.033,19.078
					c-0.309,0.666-0.484,1.439-0.463,2.322c1.543,65.088,12.566,129.338,20.332,193.846c1.525,12.674,0.456,26.039,3.438,38.473
					c2.417,10.084,9.169,17.494,18.156,22.344c8.876,4.789,19.391,6.518,29.32,7.357c12.244,1.033,24.682,0.902,36.957,1.068
					c28.561,0.387,57.154-0.133,85.669-1.818c0.86,0.799,2.026,1.318,3.489,1.318h1.006c0.041,0.041,0.066,0.072,0.117,0.117
					c1.215,1.049,2.008,2.611,2.77,3.992c2.076,3.764,3.146,8.402,4.002,12.578c0.531,2.58,0.982,5.24,1.346,7.928
					c-2.163-0.211-3.979,1.057-4.93,2.754c-0.583,0.199-1.17,0.387-1.754,0.57c-1.908,0.604-3.842,1.129-5.76,1.693
					c-5.863,1.73-11.64,3.924-17.42,5.92c-12.57,4.338-25.314,8.869-36.721,15.811c-8.406,5.119-15.971,12.838-16.703,23.121
					c-0.778,10.906,5.299,19.342,14.594,24.33c9.059,4.859,20.006,6.033,30.062,7.061c11.974,1.221,24.073,1.447,36.101,1.631
					c27.035,0.416,54.188-0.93,80.84-5.652c18.741-3.322,37.192-8.459,54.572-16.275c7.752-3.486,15.113-7.758,22.711-11.551
					c6.692-3.342,13.725-7.18,18.046-13.502c10.31-15.078-4.364-29.113-16.923-35.898c-8.553-4.623-19.707-5.625-29.232-6.547
					c-10.189-0.986-20.449-1.047-30.678-1.051c-0.851-10.34,0.67-20.471,8.32-27.715c0.998-0.943,1.438-1.982,1.473-2.99
					c9.956-0.791,19.945-1.293,30.014-1.355c6.604-0.041,13.203-0.178,19.801-0.439c5.885-0.232,12.19-0.139,17.938-1.49
					c6.972-1.639,14.734-2.406,21.897-2.537c0.283-0.006,0.549-0.037,0.805-0.078c18.354,5.889,40.67-1.318,49.908-18.85
					c5.944-11.277,7.006-25.219,7.43-37.699C486.044,293.643,484.794,279.76,484.552,265.883z M290.294,375.406
					c11.465-1.566,22.879-3.047,34.308-4.223c-10.97,15.441-6.128,37.527-1.798,55.012c-1.758,0.107-2.932,0.992-3.555,2.195
					c-9.137,2.547-18.832,2.523-28.302,2.422c-2.713-0.029-5.425-0.084-8.136-0.117c-1.049-0.012-2.096-0.018-3.145-0.018
					c-3.793-0.012,0.426-0.037-1.053,0.197c-2.297,0.365-4.66,0.414-6.979,0.488c-6.401,0.205-12.839-0.008-19.201-0.77
					c-2.683-0.322-5.354-0.801-7.951-1.566c-0.007-0.002-0.054-0.023-0.122-0.057c0.203-1.635-0.462-3.211-1.549-4.332
					c0.139-0.916,0.22-1.859,0.229-2.859c0.014-1.346-0.416-2.373-1.1-3.102c-0.135-8.07-1.357-16.176-3.184-23.945
					c-1.092-4.65-2.695-9.271-5.119-13.41C252.577,379.918,271.474,377.979,290.294,375.406z M328.204,435.883
					c2.371-0.998,3.35-3.027,3.211-4.973c0.183-0.092,0.365-0.178,0.555-0.289c2.406-1.404,2.729-4.752,1.349-6.941
					c-0.36-0.572-0.806-1.07-1.271-1.555c-0.906-3.617-1.855-7.494-2.631-11.471c13.861,0.023,27.705,0.283,41.375,2.854
					c9.626,1.811,25.328,7.084,27.273,18.566c1.744,10.285-14.078,15.92-21.185,19.383c-11.688,5.695-22.759,11.596-35.161,15.764
					c-25.748,8.652-53.033,12.08-80.061,13.443c-24.628,1.24-49.982,1.389-74.473-1.787c-9.58-1.242-23.996-3.268-28.406-13.367
					c-5.439-12.453,8.534-20.926,17.582-25.678c13.785-7.24,29.383-11.58,44.064-16.604c3.838-1.312,7.906-2.051,11.59-3.777
					c0.021,2.615-0.08,5.215-0.371,7.758c-0.217,1.916,0.611,3.549,1.868,4.621c1.983,8.711,25.909,9.412,31.774,9.537
					c7.238,0.152,14.365-0.76,21.508-0.654C300.673,440.916,315.155,441.373,328.204,435.883z"/>
			</g>
		</g>
		<g>
			<g>
				<path fill="#010101" d="M451.8,275.355c-1.731-28.849-4.475-57.751-4.741-86.669h-9.979c0.002,2.579,0.015,5.158,0.061,7.735
					c0.289,16.107,1.613,32.182,2.828,48.238c1.133,14.975,1.893,29.965,2.714,44.957c0.601,10.957,1.194,23.428-9.243,29.77
					c-8.704,5.289-20.375,5.76-30.239,6.654c-16.491,1.5-32.985,2.975-49.495,4.266c-32.739,2.557-65.529,3.777-98.23,6.891
					c-32.336,3.078-64.615,6.814-97.062,8.561c-14.562,0.783-29.154,1.047-43.736,0.965c-5.409-0.031-10.757-0.449-16.025-1.707
					c-5.83-1.393-9.576-4.59-13.232-9.121c-7.246-8.986-6.258-23.695-6.846-34.527c-0.814-14.996-3.127-29.988-5.162-44.857
					c-3.126-22.822-7.133-45.514-10.252-68.332c-1.334-9.742-2.27-19.564-2.175-29.406c0.073-7.428,0.659-16.637,5.337-22.793
					c1.055-1.389,1.268-2.887,0.943-4.232c0.344-0.293,0.654-0.623,0.919-0.982c0.186-0.018,0.366-0.033,0.518-0.053
					c1.794-0.223,3.604-0.311,5.409-0.396c3.572-0.174,7.082-0.16,10.645-0.52c7.561-0.764,15.088-1.838,22.611-2.889
					c7.795-1.09,15.785-1.648,23.51-3.104c31.776-5.992,64.073-8.867,96.354-10.309c19.503-0.872,39.015-1.104,58.528-1.199v-10.03
					c-1.161,0.004-2.322,0.004-3.483,0.011c-46.365,0.297-92.809,1.926-138.671,9.213c-11.108,1.764-22.169,3.391-33.313,4.93
					c-10.016,1.383-20.514,3.752-30.639,3.775c-4.664,0.012-9.424,0.072-14.027,0.889c-4.23,0.75-8.678,4.588-6.906,8.424
					c-5.649,7.516-7.15,16.992-7.576,26.176c-0.514,11.129,0.574,22.246,2.042,33.266c3.636,27.27,8.511,54.361,12.026,81.654
					c1.801,13.984,3.068,27.891,3.963,41.953c0.747,11.748,2.836,22.666,10.34,32.023c7.023,8.756,18.479,11.266,29.131,11.885
					c13.525,0.787,27.266,0.223,40.789-0.285c32.467-1.221,64.789-4.855,97.104-8.062c32.646-3.238,65.332-4.748,98.039-7.094
					c16.514-1.184,33.008-2.629,49.498-4.111c11.777-1.059,23.754-1.686,35.17-5.018c9.14-2.666,18.006-8.307,21.217-17.68
					C454.677,301.9,452.56,288.041,451.8,275.355z M69.087,128.805c0.324-1.496-0.104-3.119-1.723-4.383
					C69.65,126.209,69.737,127.688,69.087,128.805z"/>
			</g>
		</g>
		<g>
			<g>
				<path fill="#010101" d="M272.772,356.014c-0.785-2.234-2.836-3.332-5.104-3.332h-3c-0.374,0-0.735,0.057-1.082,0.156
					c-0.19-0.037-0.385-0.064-0.579-0.078c-1.387-0.102-2.551-0.047-3.75,0.762c-1.564,1.057-2.19,2.707-2.19,4.531v1.5
					c0,2.885,2.817,4.586,5.372,4.602c0.243,0,0.49,0.002,0.734,0.008c0.32,0.031,0.639,0.074,0.953,0.141
					c0.726,0.158,0.881,0.328,1.9,0.223c1.404-0.143,2.379-0.764,3.346-1.65c0.016-0.014,0.025-0.02,0.043-0.035
					c0.459-0.367,0.947-0.699,1.434-1.027C272.71,360.557,273.518,358.135,272.772,356.014z"/>
			</g>
		</g>
	</g>
	<g>
		<g>
			<path d="M505.749,96.302c0.907-11.458,2.317-23.177-0.038-34.551c-2.254-10.885-8.469-19.089-17.915-24.813
				c-18.591-11.267-44.009-8.134-64.646-7.104c-15.372,0.769-30.192-0.638-45.309-3.524c-16.312-3.113-32.657-7.654-49.32-8.302
				c-10.577-0.411-22.079,0.44-31.692,5.22c-8.477,4.215-14.143,12.166-15.025,21.143c-0.875,0.934-1.467,2.187-1.531,3.74
				c-0.677,16.165,0.865,32.242,2.119,48.341c1.025,13.175,0.546,25.552-0.623,38.679c-1.035,11.618-1.883,23.866,2.215,35.021
				c3.389,9.225,10.787,15.312,19.778,18.738c9.79,3.729,20.351,4.633,30.729,5.09c11.481,0.508,23.067,0.295,34.531-0.389
				c15.928-0.95,31.783-2.835,47.736-3.414c12.273-0.444,23.991,1.126,36.156,2.217c10.674,0.958,21.975,1.067,31.88-3.579
				c10.243-4.805,15.997-14.144,19.216-24.631C510.779,142.122,503.971,118.755,505.749,96.302z M494.475,110.776
				c0.703,11.666,1.818,23.292,1.339,34.993c-0.421,10.259-2.53,22.887-10.749,29.974c-8.049,6.938-20.104,6.662-30.051,5.854
				c-11.844-0.963-23.314-2.658-35.25-2.488c-27.98,0.396-55.639,4.733-83.686,3.986c-9.877-0.263-20.326-1.114-29.551-4.9
				c-9.637-3.957-13.381-11.86-14.353-21.874c-1.485-15.285,2.473-30.548,2.12-45.843c-0.424-18.33-3.072-36.468-3.191-54.788
				c1.558-1.293,2.504-3.348,1.844-5.821c-2.867-10.754,6.996-16.967,15.715-19.278c9.158-2.428,19.371-2.06,28.668-0.794
				c15.361,2.092,30.417,5.984,45.681,8.641c13.188,2.295,26.374,3.043,39.731,2.428c11.184-0.514,22.35-1.276,33.549-0.754
				c10.048,0.469,21.123,2.338,29.338,8.533C503.884,62.411,493.322,91.669,494.475,110.776z"/>
		</g>
	</g>
	<g>
		<g>
			<path d="M380.314,143.251c-1.434-12.682-0.419-25.688-0.983-38.378c-0.54-12.163-0.091-24.433-0.091-36.61
				c0-7.089-10.969-6.211-10.969,0.848c0,10.771-0.282,21.597-0.028,32.378c-8.747-2.075-17.351-4.852-26.269-5.883
				c-0.337-10.779-0.712-21.56-0.734-32.343c-0.014-7.09-10.984-6.213-10.969,0.848c0.049,24.671,1.949,49.326,1,74
				c-0.273,7.07,10.699,6.167,10.969-0.848c0.395-10.234,0.295-20.466,0.045-30.696c8.891,1.12,17.619,4.335,26.319,6.267
				c0.305,14.655-0.45,29.237,2.96,43.672c1.23,5.209,10.162,4.602,10.59-0.77c0.189-2.359,0.812-4.639,1-7
				C383.356,146.204,382.066,144.31,380.314,143.251z"/>
		</g>
	</g>
	<g>
		<g>
			<path d="M440.625,67.819c-4.902-5.078-11.885-8.347-18.943-8.574c-6.203-0.2-14.207,0.271-16.854,6.994
				c-0.336,0.853-0.457,1.676-0.416,2.451c-2.165,0.709-4.033,2.568-4.141,5.42c-0.896,23.727,2.893,47.293,3,71
				c0.017,3.717,3.68,5.412,6.76,4.84c0.673,1.133,1.871,1.965,3.676,2.135c26.519,2.494,41.75-24.398,41.912-47.883
				C455.709,91.079,449.64,77.155,440.625,67.819z M415.805,141.288c-0.197-0.019-0.39-0.025-0.579-0.025
				c0.208-1.628-0.265-2.965-1.122-3.952c-0.643-20.388-3.39-40.694-2.939-61.109c0.045-0.301,0.076-0.61,0.076-0.938v-1.086
				c1.428-0.259,2.719-1.2,3.443-3.043c0.883-2.247,9.36-0.747,11.299-0.041c5.023,1.828,8.655,5.967,11.531,10.293
				c4.937,7.424,7.367,16.936,7.094,25.803C444.143,122.309,433.375,142.94,415.805,141.288z"/>
		</g>
	</g>
</g>
</svg>
