<?xml version="1.0" encoding="iso-8859-1"?>
<!-- Generator: Adobe Illustrator 17.0.2, SVG Export Plug-In . SVG Version: 6.00 Build 0)  -->
<!DOCTYPE svg PUBLIC "-//W3C//DTD SVG 1.1//EN" "http://www.w3.org/Graphics/SVG/1.1/DTD/svg11.dtd">
<svg version="1.1" id="Capa_1" xmlns="http://www.w3.org/2000/svg" xmlns:xlink="http://www.w3.org/1999/xlink" x="0px" y="0px"
	 width="100px" height="100px" viewBox="0 0 100 100" style="enable-background:new 0 0 100 100;" xml:space="preserve">
<g>
	<path style="fill:#1E1E1C;" d="M95.555,10.376c-0.807-3.267-3.475-5.372-6.658-6.125c-0.325-0.077-0.653-0.09-0.971-0.056
		c-0.09-0.012-0.175-0.035-0.271-0.039c-16.164-0.727-57.331-0.034-73.502,0c-0.085,0-0.157,0.018-0.237,0.024
		c-0.1-0.008-0.19-0.026-0.296-0.024c-2.253,0.04-4.637,0.654-6.115,2.479c-1.516,1.872-1.893,4.234-1.613,6.581
		c0.043,0.359,0.131,0.703,0.265,1.02c-0.003,3.627-0.04,7.25-0.202,10.873c-0.041,0.197-0.064,0.406-0.062,0.633
		c0.002,0.262-0.001,0.524,0.001,0.786c-0.001,0.004-0.001,0.009-0.001,0.013c0,0.005,0.001,0.009,0.001,0.014
		c0.16,20.522-1.258,40.023-0.801,60.547c0.004,0.137,0.028,0.26,0.047,0.386c-0.019,0.281-0.01,0.568,0.048,0.855
		c0.821,4.013,4.172,6.408,8.167,6.487c0.112,0.002,0.211-0.016,0.316-0.025c0.074,0.006,0.14,0.024,0.217,0.025
		c15.634,0.265,56.268,0.521,71.903,0.533c0.181,0,0.348-0.022,0.51-0.05c0.097,0.017,0.19,0.04,0.289,0.05
		c2.896,0.29,5.635-1.351,6.832-3.985c0.186-0.409,0.284-0.837,0.305-1.259c0.021-0.116,0.051-0.227,0.06-0.353
		c1.801-26.348,1.359-51.762,1.865-78.149c0.002-0.136-0.017-0.257-0.03-0.382C95.638,10.952,95.625,10.663,95.555,10.376z
		 M88.479,89.332c-0.053,0.084-0.106,0.169-0.121,0.202c-0.06,0.065-0.116,0.133-0.18,0.195c-0.033,0.034-0.046,0.05-0.067,0.074
		c-0.029,0.017-0.054,0.031-0.103,0.062c-0.074,0.045-0.153,0.082-0.23,0.123c0.133-0.081-0.175,0.029-0.333,0.079
		c-0.028,0.002-0.046,0.003-0.081,0.006c-0.26,0.015-0.519-0.013-0.775-0.039c-0.189-0.019-0.373-0.008-0.553,0.025
		c-0.083-0.007-0.159-0.025-0.246-0.025c-15.636-0.012-56.27-0.268-71.903-0.533c-0.112-0.002-0.21,0.017-0.315,0.026
		c-0.074-0.007-0.141-0.024-0.218-0.026c-0.838-0.016-1.335-0.136-2.029-0.577c0.059,0.021-0.135-0.152-0.264-0.264
		c-0.018-0.048-0.304-0.404-0.315-0.424c-0.119-0.197-0.235-0.535-0.337-0.95c0.003-0.062,0.015-0.117,0.014-0.182
		c-0.035-1.599-0.039-3.181-0.054-4.768h4.646c2.718,4.125,10.523,5.866,13.521,1.508c3.768,3.576,11.596,4.309,13.293-1.639
		c10.994,0.44,21.995,0.654,32.988,1.093c2.762,4.39,11.268,6.18,13.959,1.021C88.68,85.987,88.592,87.654,88.479,89.332z
		 M21.852,76.703c0.022-0.004,0.043-0.016,0.065-0.021c0.58-0.058,1.337-0.061,1.714,0.003c0.642,0.109,0.897,0.236,1.134,0.446
		c0.246,0.22,0.386,0.547,0.507,1.048c0.118,0.482,0.081,1.218-0.008,1.87c-0.08,0.147-0.148,0.302-0.194,0.469
		c-0.032,0.123-0.072,0.243-0.11,0.364c-0.027,0.059-0.106,0.255-0.135,0.308c-0.044,0.082-0.1,0.157-0.152,0.235
		c-0.029,0.026-0.171,0.202-0.221,0.252c-0.027,0.028-0.095,0.082-0.156,0.13c-0.11,0.073-0.223,0.143-0.338,0.208
		c-0.035,0.02-0.131,0.062-0.209,0.096c-0.053,0.018-0.105,0.034-0.157,0.051c-1.953,0.148-3.743-0.336-4.965-1.951
		C18.359,77.966,19.629,77.097,21.852,76.703z M34.286,76.924c0.022-0.004,0.043-0.016,0.065-0.021
		c0.58-0.058,1.337-0.061,1.714,0.003c0.642,0.109,0.897,0.236,1.133,0.446c0.247,0.22,0.387,0.547,0.508,1.048
		c0.118,0.482,0.081,1.218-0.008,1.87c-0.08,0.147-0.148,0.302-0.194,0.469c-0.032,0.123-0.072,0.243-0.111,0.364
		c-0.026,0.059-0.105,0.255-0.134,0.308c-0.044,0.082-0.1,0.157-0.152,0.235c-0.029,0.026-0.171,0.202-0.221,0.252
		c-0.027,0.028-0.095,0.082-0.156,0.13c-0.11,0.073-0.223,0.143-0.338,0.208c-0.035,0.02-0.131,0.062-0.209,0.096
		c-0.053,0.018-0.105,0.034-0.157,0.051c-1.953,0.148-3.743-0.336-4.965-1.951C30.794,78.187,32.063,77.319,34.286,76.924z
		 M81.726,77.783c0.022-0.004,0.043-0.016,0.065-0.021c0.581-0.058,1.337-0.061,1.714,0.003c0.642,0.109,0.898,0.236,1.134,0.446
		c0.246,0.22,0.386,0.547,0.508,1.048c0.118,0.482,0.08,1.218-0.008,1.87c-0.081,0.147-0.149,0.302-0.194,0.469
		c-0.033,0.123-0.073,0.243-0.111,0.364c-0.027,0.059-0.106,0.255-0.134,0.308c-0.045,0.082-0.101,0.157-0.152,0.235
		c-0.03,0.026-0.172,0.202-0.222,0.252c-0.027,0.028-0.095,0.082-0.156,0.13c-0.11,0.073-0.222,0.143-0.337,0.208
		c-0.035,0.02-0.132,0.062-0.21,0.096c-0.052,0.018-0.104,0.034-0.157,0.051c-1.953,0.148-3.742-0.336-4.964-1.951
		C78.233,79.046,79.504,78.177,81.726,77.783z M89.116,77.695c-0.327-0.877-0.806-1.638-1.396-2.274
		c-3.018-3.257-8.926-3.273-12.225,0.948c-0.506,0.648-0.867,1.286-1.121,1.911c-10.857-0.428-21.722-0.644-32.579-1.078
		c-0.325-1.03-0.846-1.917-1.515-2.639c-2.908-3.139-8.494-3.256-11.85,0.518c-0.181-0.26-0.373-0.51-0.585-0.739
		c-3.018-3.257-8.926-3.273-12.225,0.948c-0.542,0.694-0.914,1.377-1.168,2.044h-4.113c0.019-7.452,0.204-14.816,0.407-22.182
		c10.351-0.114,20.671,0.721,31.009,1.115c2.114,4.729,10.792,7.032,13.993,2.382c3.38,3.21,10.017,4.127,12.583,0.001
		c3.767,3.303,11.051,3.931,12.927-1.483h7.407c0.422,0,0.785-0.089,1.097-0.238C89.636,63.827,89.432,70.74,89.116,77.695z
		 M45.899,53.716c0.304-1.301,1.443-1.903,3.169-2.209c0.023-0.004,0.043-0.016,0.066-0.021c0.58-0.058,1.336-0.061,1.713,0.003
		c0.642,0.109,0.898,0.236,1.134,0.446c0.247,0.22,0.386,0.547,0.508,1.048c0.118,0.482,0.08,1.218-0.008,1.87
		c-0.081,0.147-0.149,0.302-0.194,0.469c-0.032,0.123-0.073,0.243-0.111,0.364c-0.027,0.059-0.105,0.255-0.134,0.308
		c-0.045,0.082-0.1,0.157-0.152,0.235c-0.03,0.026-0.172,0.202-0.222,0.252c-0.027,0.027-0.095,0.082-0.155,0.13
		c-0.11,0.073-0.223,0.143-0.338,0.208c-0.035,0.02-0.132,0.062-0.21,0.096c-0.052,0.018-0.104,0.034-0.157,0.051
		c-1.952,0.148-3.742-0.336-4.964-1.951c-0.019-0.157-0.013-0.292-0.017-0.436C45.896,54.299,45.92,54.008,45.899,53.716z
		 M61.503,51.729c0.023-0.004,0.043-0.016,0.066-0.021c0.58-0.058,1.336-0.061,1.713,0.003c0.642,0.109,0.898,0.236,1.134,0.446
		c0.247,0.22,0.386,0.547,0.508,1.048c0.118,0.482,0.08,1.218-0.008,1.87c-0.081,0.147-0.149,0.302-0.194,0.469
		c-0.032,0.123-0.073,0.243-0.111,0.364c-0.027,0.059-0.106,0.255-0.134,0.308c-0.045,0.082-0.1,0.157-0.152,0.235
		c-0.03,0.026-0.172,0.202-0.222,0.252c-0.027,0.028-0.095,0.082-0.155,0.13c-0.11,0.073-0.223,0.143-0.338,0.208
		c-0.035,0.02-0.132,0.062-0.21,0.096c-0.052,0.018-0.104,0.034-0.157,0.051c-1.952,0.148-3.742-0.336-4.964-1.951
		C58.011,52.991,59.281,52.123,61.503,51.729z M73.837,51.507c0.022-0.004,0.043-0.016,0.065-0.021
		c0.58-0.058,1.336-0.061,1.714,0.003c0.642,0.109,0.897,0.236,1.133,0.446c0.247,0.22,0.386,0.547,0.508,1.048
		c0.118,0.482,0.081,1.218-0.008,1.87c-0.08,0.147-0.148,0.302-0.194,0.469c-0.032,0.123-0.072,0.243-0.111,0.364
		c-0.027,0.059-0.105,0.255-0.134,0.308c-0.045,0.082-0.1,0.157-0.152,0.235c-0.029,0.026-0.171,0.202-0.222,0.252
		c-0.026,0.027-0.094,0.082-0.155,0.13c-0.11,0.073-0.223,0.143-0.338,0.208c-0.035,0.02-0.132,0.062-0.209,0.096
		c-0.053,0.018-0.105,0.034-0.158,0.051c-1.952,0.148-3.742-0.336-4.964-1.951C70.345,52.77,71.614,51.902,73.837,51.507z
		 M89.843,52.451c-0.329-0.175-0.716-0.285-1.176-0.285h-7.208c-0.309-1.197-0.876-2.211-1.627-3.021
		c-2.943-3.176-8.629-3.258-11.969,0.655c-0.116-0.149-0.237-0.296-0.365-0.433c-2.908-3.139-8.494-3.255-11.849,0.518
		c-0.182-0.26-0.373-0.51-0.585-0.739c-3.019-3.257-8.926-3.273-12.225,0.948c-0.312,0.399-0.556,0.793-0.77,1.185
		c-10.398-0.387-20.777-1.234-31.188-1.128c0.168-6.286,0.316-12.592,0.335-18.983h13.236c2.797,4.865,12.639,6.736,14.584,0h12.553
		c1.998,4.782,10.695,7.171,13.981,2.612c3.799,3.214,10.949,3.776,12.809-1.578c3.595,0.118,7.191,0.161,10.786,0.3
		c0.334,0.013,0.625-0.04,0.89-0.126C89.998,39.086,89.942,45.768,89.843,52.451z M31.503,25.866
		c0.023-0.004,0.043-0.016,0.066-0.021c0.58-0.058,1.336-0.061,1.713,0.003c0.642,0.109,0.898,0.236,1.134,0.446
		c0.247,0.22,0.386,0.547,0.508,1.048c0.118,0.482,0.08,1.218-0.008,1.87c-0.081,0.147-0.149,0.302-0.194,0.469
		c-0.032,0.123-0.073,0.243-0.111,0.364c-0.027,0.059-0.106,0.255-0.134,0.308c-0.045,0.082-0.1,0.157-0.152,0.235
		c-0.03,0.026-0.172,0.202-0.222,0.252c-0.027,0.027-0.095,0.082-0.155,0.13c-0.11,0.073-0.223,0.143-0.338,0.208
		c-0.035,0.02-0.132,0.062-0.21,0.096c-0.052,0.018-0.104,0.034-0.157,0.051c-1.952,0.148-3.742-0.336-4.964-1.951
		C28.011,27.128,29.281,26.26,31.503,25.866z M58.959,26.537c0.022-0.004,0.043-0.016,0.065-0.021
		c0.58-0.058,1.337-0.061,1.714,0.003c0.642,0.109,0.897,0.236,1.133,0.446c0.247,0.22,0.387,0.547,0.508,1.048
		c0.118,0.482,0.081,1.218-0.008,1.87c-0.08,0.147-0.148,0.302-0.194,0.469c-0.032,0.123-0.072,0.243-0.111,0.364
		c-0.026,0.059-0.105,0.255-0.134,0.308c-0.044,0.082-0.1,0.157-0.152,0.235c-0.029,0.026-0.171,0.202-0.221,0.252
		c-0.027,0.027-0.095,0.082-0.156,0.13c-0.11,0.073-0.223,0.143-0.338,0.208c-0.035,0.02-0.131,0.062-0.209,0.096
		c-0.053,0.018-0.105,0.034-0.157,0.051c-1.953,0.148-3.743-0.336-4.965-1.951C55.467,27.799,56.736,26.931,58.959,26.537z
		 M70.959,26.537c0.022-0.004,0.043-0.016,0.065-0.021c0.58-0.058,1.337-0.061,1.714,0.003c0.642,0.109,0.897,0.236,1.133,0.446
		c0.247,0.22,0.387,0.547,0.508,1.048c0.118,0.482,0.081,1.218-0.008,1.87c-0.08,0.147-0.148,0.302-0.194,0.469
		c-0.032,0.123-0.072,0.243-0.111,0.364c-0.026,0.059-0.105,0.255-0.134,0.308c-0.044,0.082-0.1,0.157-0.152,0.235
		c-0.029,0.026-0.171,0.202-0.221,0.252c-0.027,0.027-0.095,0.082-0.156,0.13c-0.11,0.073-0.223,0.143-0.338,0.208
		c-0.035,0.02-0.131,0.062-0.209,0.096c-0.053,0.018-0.105,0.034-0.157,0.051c-1.953,0.148-3.743-0.336-4.965-1.951
		C67.467,27.799,68.736,26.931,70.959,26.537z M90.319,11.617c-0.104,5.403-0.164,10.758-0.216,16.095
		c-0.276-0.118-0.584-0.199-0.937-0.213c-3.527-0.136-7.056-0.182-10.583-0.294c-0.309-1.201-0.877-2.219-1.63-3.032
		c-2.866-3.093-8.335-3.255-11.704,0.352c-0.097-0.119-0.192-0.24-0.296-0.352c-3.018-3.257-8.926-3.273-12.225,0.948
		c-0.274,0.351-0.498,0.699-0.696,1.044H39.021c-0.324-1.04-0.848-1.935-1.522-2.663c-3.018-3.257-8.926-3.273-12.224,0.948
		c-0.453,0.58-0.793,1.153-1.043,1.715H11.237c0.221-4.226,0.25-8.453,0.25-12.684c0-0.526-0.136-0.962-0.348-1.327
		c-0.011-0.356-0.005-0.712,0.021-1.072c0.016,0.063,0.123-0.501,0.125-0.51c0.021-0.061,0.036-0.102,0.049-0.141
		c0.043-0.081,0.09-0.159,0.137-0.237c-0.043,0.088,0.088-0.077,0.193-0.207c-0.019,0.083,0.653-0.382,0.235-0.211
		c0.695-0.284,1.077-0.281,1.719-0.293c0.085-0.002,0.16-0.02,0.241-0.028c0.098,0.009,0.188,0.029,0.292,0.028
		c16.171-0.034,57.338-0.727,73.502,0c0.043,0.002,0.079-0.007,0.121-0.007c0.274,0.075,0.55,0.15,0.818,0.244
		c0.043,0.031,0.412,0.193,0.439,0.208c0.165,0.088,0.317,0.196,0.47,0.302c-0.07-0.03,0.299,0.28,0.337,0.317
		c0.039,0.041,0.06,0.059,0.086,0.083c0.02,0.035,0.045,0.075,0.089,0.141c0.019,0.028,0.172,0.337,0.22,0.411
		c0.037,0.108,0.068,0.218,0.098,0.329C90.33,11.55,90.32,11.58,90.319,11.617z"/>
</g>
</svg>
