<?xml version="1.0" encoding="utf-8"?>
<!-- Generator: Adobe Illustrator 17.0.2, SVG Export Plug-In . SVG Version: 6.00 Build 0)  -->
<!DOCTYPE svg PUBLIC "-//W3C//DTD SVG 1.1//EN" "http://www.w3.org/Graphics/SVG/1.1/DTD/svg11.dtd">
<svg version="1.1" id="Capa_1" xmlns="http://www.w3.org/2000/svg" xmlns:xlink="http://www.w3.org/1999/xlink" x="0px" y="0px"
	 width="100px" height="100px" viewBox="0 0 100 100" enable-background="new 0 0 100 100" xml:space="preserve">
<g>
	<path fill="#1D1D1B" d="M67.857,78.067h-8.046c-0.425,0-0.825-0.074-1.223-0.228c-1.418-0.341-2.356-1.537-2.356-3.095
		c0-0.268-0.002-0.533-0.002-0.799c-7.301,0.126-14.602,0.112-21.903-0.083c0.47-16.687-1.824-33.26-2.006-49.931
		c8.85-0.274,17.702-0.457,26.556-0.55c0.001,0.088-0.007,0.17,0.003,0.264c1.407,12.679,1.693,25.418,2.131,38.152
		c1.319-0.096,2.638-0.192,3.957-0.289l0.74-0.054c-0.432-12.62-0.725-25.244-2.119-37.809c-0.012-0.107-0.041-0.202-0.064-0.302
		c1.378-0.009,2.756-0.014,4.133-0.021c0.28,8.398,0.343,16.801,0.679,25.183c0.498-0.317,1.096-0.49,1.763-0.49h2.895
		c-0.308-8.219-0.357-16.446-0.628-24.667c-0.013-0.405,6.469,0.983,7.131,1.421c2.277,1.503,2.692,4.25,2.904,6.779
		c0.505,6.033,0.351,12.258,0.193,18.432c0.191,0.395,0.315,0.833,0.343,1.313c0.112,1.921,0.181,3.844,0.25,5.766
		c0.04,1.102,0.079,2.202,0.127,3.303h3.887c-0.013-4.541-0.056-9.082-0.099-13.624c-0.036-3.76-0.122-7.53-0.045-11.29
		c0.043-2.083,0.203-4.299,0.079-6.421c-0.754-12.876-16.33-10.387-25.315-10.38c0.143,0-2.42-4.137-2.841-4.528
		c-1.268-1.177-2.77-1.96-4.432-2.405c-3.784-1.013-7.911-0.411-11.764-0.267c-5.536,0.207-9.879,1.716-11.045,7.786
		c-3.452,0.108-6.903,0.222-10.354,0.358c-4.164-0.351-8.814,0.614-11.609,3.975c-1.94,2.333-1.511,5.725-1.58,8.591
		c-0.103,4.252-0.201,8.502-0.212,12.755c-0.013,4.808,0.063,9.615,0.224,14.419c0.137,4.097-0.53,8.468,0.95,12.389
		c2.877,7.627,12.867,6.42,19.454,6.67c0,0.029-0.007,0.054-0.007,0.083c0.099,7.915,12.948,9.145,12.117,0.209
		c5.593,0.079,11.185,0.054,16.778-0.045c-0.017,3.36,2.456,5.906,5.73,6.158c2.033,0.157,3.62-0.461,4.789-1.596
		c-0.023-0.868-0.053-1.733-0.082-2.583C67.908,79.768,67.88,78.918,67.857,78.067z M38.433,16.464
		c2.987-0.274,5.989-0.395,8.989-0.334c1.786,0.036,3.743-0.328,5.5,0.07c1.008,0.228,3.44,2.513,3.822,2.509
		c-6.691,0.082-13.381,0.199-20.07,0.383C37.045,18.095,37.61,17.225,38.433,16.464z M16.647,73.1
		c-0.167-0.102-0.343-0.193-0.534-0.26c-0.232-0.081-0.36-0.13-0.779-0.363c-0.173-0.096-0.335-0.211-0.497-0.325
		c0.077,0.039-0.33-0.296-0.335-0.302c-0.427-0.402-0.721-0.811-1.036-1.369c-0.001-0.028,0.005-0.052,0.003-0.08
		c-0.949-14.487-0.964-28.983-0.37-43.484c1.528-1.632,3.379-2.513,5.488-2.729c0.977,16.292,1.922,32.584,2.283,48.904
		c0.002,0.084,0.02,0.157,0.029,0.237C19.48,73.254,18.063,73.188,16.647,73.1z M29.618,73.715
		c-1.359-0.049-2.718-0.093-4.076-0.152c0.024-0.149,0.04-0.303,0.036-0.47c-0.36-16.305-1.305-32.582-2.28-48.859
		c1.439-0.055,2.878-0.094,4.316-0.144C27.808,40.658,30.068,57.131,29.618,73.715z M35.989,79.871
		c-0.032,0.083-0.084,0.223-0.116,0.279c-0.003,0.006-0.003,0.007-0.006,0.012c-0.024,0.02-0.054,0.046-0.101,0.093
		c-0.006,0.006-0.007,0.007-0.012,0.013c-0.03,0.013-0.074,0.037-0.14,0.076c-0.031,0.018-0.041,0.026-0.063,0.04
		c-0.036,0.009-0.084,0.022-0.157,0.045c-0.107,0.034-0.22,0.048-0.331,0.071c-0.023-0.001-0.043-0.007-0.067-0.008
		c-0.028,0-0.351-0.027-0.445-0.026c-0.154-0.032-0.308-0.066-0.459-0.111c-0.016-0.005-0.019-0.005-0.033-0.009
		C34.033,80.33,34,80.31,33.942,80.278c-0.041-0.027-0.067-0.044-0.092-0.06c-0.052-0.048-0.106-0.094-0.154-0.146
		c-0.009-0.009-0.011-0.01-0.018-0.017c-0.014-0.027-0.028-0.053-0.058-0.1c-0.038-0.064-0.07-0.131-0.103-0.198
		c-0.01-0.032-0.026-0.078-0.048-0.14c-0.052-0.161-0.083-0.328-0.115-0.494c0.029,0.078-0.016-0.371-0.032-0.57
		c0.898,0.026,1.797,0.026,2.696,0.047c0.038,0.345,0.048,0.687,0.031,1.033C36.036,79.64,36.012,79.761,35.989,79.871z
		 M65.19,79.482c-0.059,0.174-0.193,0.419-0.364,0.674h-1.799c-0.1-0.064-0.297-0.191-0.333-0.2
		c-0.044-0.04-0.086-0.083-0.129-0.124c0.081,0.066-0.203-0.274-0.235-0.33c-0.124-0.246-0.133-0.266-0.027-0.06
		c-0.007-0.019-0.083-0.395-0.107-0.441c-0.012-0.156-0.018-0.311-0.013-0.468c1.102-0.03,2.204-0.078,3.307-0.115
		C65.404,78.776,65.308,79.131,65.19,79.482z"/>
	<path fill="#1D1D1B" d="M93.547,62.371l-0.2-0.123c-0.299-0.256-0.678-0.386-1.125-0.386H87.21h-4.705h-0.622l-0.034-0.715
		c-0.063-1.344-0.111-2.688-0.16-4.034c-0.069-1.911-0.137-3.822-0.249-5.731c-0.065-1.12-0.893-1.636-1.646-1.746l-0.113-0.025
		c-0.21-0.065-0.394-0.095-0.58-0.095h-6.057H70.1c-0.938,0-1.366,0.538-1.561,0.989l-0.072,0.167l-0.033,0.027l-0.108,0.089
		c-0.379,0.312-0.568,0.754-0.563,1.315c0.032,3.479,0.389,6.938,0.734,9.865l0.092,0.778l-2.828,0.208l-0.685,0.05
		c-1.338,0.098-2.675,0.196-4.012,0.293c-0.486,0.035-0.971,0.072-1.457,0.106c-0.308,0.022-0.582,0.104-0.838,0.253l-0.181,0.075
		c-0.794,0.213-1.371,0.95-1.371,1.753V66c0,0.274,0.073,0.552,0.217,0.825l0.072,0.137l0.012,0.154
		c0.175,2.238,0.205,4.498,0.21,6.799c0.001,0.277,0.003,0.552,0.003,0.83c0,1.216,0.912,1.57,1.304,1.666
		c0.314,0.114,0.538,0.156,0.776,0.156h9.51l0.016,0.733c0.025,1.089,0.062,2.177,0.099,3.266c0.006,0.19,0.012,0.387,0.018,0.578
		c0.052,1.534,0.101,3.101,0.109,4.657c0.006,1.151,0.802,1.535,1.277,1.661c0.315,0.12,0.549,0.165,0.802,0.165h8.746
		c0.495,0,0.903-0.157,1.212-0.468l0.606,0.459l-0.505-0.557c0.351-0.353,0.509-0.761,0.509-1.257c0-2.822-0.02-5.859-0.154-8.955
		c0-0.005,0-0.01-0.001-0.015l-0.034-0.782h1.411h9.045c1.145,0,1.638-0.823,1.718-1.595l0.018-0.17l0.09-0.146
		c0.171-0.277,0.254-0.585,0.254-0.939v-9.26C94.558,62.99,94.008,62.562,93.547,62.371z M90.913,72.408h-4.487h-6.295
		c-1.378,0-1.658,1.141-1.711,1.49l-0.028,0.12c-0.072,0.221-0.1,0.442-0.085,0.68c0.062,0.994,0.111,2.021,0.149,3.115
		c0.056,1.608,0.09,3.366,0.102,5.416l0.005,0.755h-5.38l-0.02-0.729c-0.024-0.86-0.054-1.721-0.084-2.58
		c-0.03-0.849-0.06-1.712-0.084-2.58c-0.023-0.857-0.041-1.717-0.046-2.573c-0.001-0.159-0.022-0.315-0.068-0.494l-0.027-0.104
		l0.003-0.106c0.018-0.557-0.165-1.075-0.5-1.422c-0.303-0.312-0.718-0.472-1.23-0.472H70.56h-4.384h-4.709h-0.096l-0.007-0.742
		c-0.015-1.547-0.073-3.062-0.172-4.503l-0.051-0.745l0.058-0.004l3.398-0.25c0.433-0.032,0.866-0.063,1.299-0.095
		c1.251-0.092,2.502-0.184,3.754-0.274c0.133-0.01,0.265-0.02,0.398-0.029c0.156-0.011,0.312-0.043,0.493-0.101l0.131-0.042
		l0.264,0.011c0.521,0,0.971-0.173,1.237-0.474c0.24-0.271,0.331-0.65,0.272-1.126c-0.396-3.177-0.831-6.879-0.973-10.61
		l-0.03-0.778h1.767h4.681l0.03,0.719c0.044,1.033,0.08,2.066,0.117,3.1c0.072,2.017,0.146,4.102,0.272,6.145
		c0.009,0.14,0.034,0.268,0.064,0.392l0.022,0.178c0.002,0.674,0.371,1.814,1.737,1.814h2.43h4.723h3.629V72.408z"/>
</g>
</svg>
