<?xml version="1.0" encoding="iso-8859-1"?>
<!-- Generator: Adobe Illustrator 17.0.2, SVG Export Plug-In . SVG Version: 6.00 Build 0)  -->
<!DOCTYPE svg PUBLIC "-//W3C//DTD SVG 1.1//EN" "http://www.w3.org/Graphics/SVG/1.1/DTD/svg11.dtd">
<svg version="1.1" id="Capa_1" xmlns="http://www.w3.org/2000/svg" xmlns:xlink="http://www.w3.org/1999/xlink" x="0px" y="0px"
	 width="100px" height="100px" viewBox="0 0 100 100" style="enable-background:new 0 0 100 100;" xml:space="preserve">
<g>
	<path style="fill:#1D1D1B;" d="M91.119,9.731C90.403,8.223,88.974,7.063,86.824,7C62.401,6.286,37.969,6.251,13.538,6.25
		C13.07,6.102,12.585,6,12.074,6c-2.726,0-5,2.274-5,5v1.5c0,0.758,0.19,1.473,0.503,2.122C7.418,15.11,7.325,15.65,7.324,16.25
		C7.275,39.508,5.637,62.738,6.074,86c0.009,0.474,0.077,0.909,0.186,1.314c0.155,2.358,1.756,4.548,4.814,4.436
		c26.324-0.963,52.664-0.756,79-0.75c1.784,0,3.072-0.766,3.869-1.873c0.672-0.778,1.108-1.817,1.131-3.127
		c0.425-24.547-1.725-49.008-3-73.5C92.016,11.381,91.659,10.461,91.119,9.731z M16.037,81.595
		c-0.178-21.789,1.241-43.554,1.287-65.343c21.667,0.005,43.334,0.071,64.994,0.632c1.192,21.363,2.885,42.708,2.806,64.112
		C62.093,80.975,39.059,80.877,16.037,81.595z"/>
	<path style="fill:#1D1D1B;" d="M74.068,39.849c-0.526-0.449-1.224-0.741-2.113-0.741H59.354c-0.2-4.266-0.286-8.537-0.536-12.801
		c-0.111-1.917-1.504-2.983-2.993-3.201c-0.319-0.098-0.661-0.168-1.049-0.168h-11.79c-1.514,0-2.487,0.823-2.946,1.888
		c-0.661,0.542-1.107,1.369-1.097,2.491c0.041,4.367,0.459,8.698,0.969,13.026c-3.579,0.262-7.158,0.529-10.737,0.786
		c-0.589,0.042-1.091,0.213-1.52,0.461c-1.436,0.385-2.523,1.701-2.523,3.244v0.674c0,0.554,0.153,1.073,0.398,1.539
		c0.258,3.299,0.275,6.606,0.275,9.915c0,1.774,1.127,2.811,2.457,3.136c0.368,0.141,0.778,0.232,1.249,0.232h11.494
		c0.084,3.706,0.278,7.409,0.296,11.116c0.009,1.743,1.102,2.774,2.402,3.119c0.381,0.154,0.811,0.25,1.303,0.25H56.46
		c0.99,0,1.744-0.36,2.282-0.902c0.035-0.029,0.065-0.062,0.099-0.092c0.027-0.03,0.058-0.058,0.083-0.089
		c0.543-0.539,0.904-1.293,0.904-2.286c-0.001-3.933-0.032-7.863-0.203-11.79h12.667c2,0,3.068-1.429,3.227-2.971
		c0.292-0.474,0.479-1.047,0.479-1.745V42.814C75.998,41.281,75.153,40.3,74.068,39.849z M69.261,52.919H56.123
		c-1.922,0-2.989,1.317-3.212,2.787c-0.12,0.37-0.187,0.782-0.157,1.256c0.231,3.704,0.305,7.409,0.327,11.116h-5.102
		c-0.092-3.369-0.261-6.735-0.278-10.106c-0.001-0.322-0.05-0.613-0.12-0.887c0.055-1.725-1.022-3.492-3.249-3.492H32.525
		c-0.02-1.987-0.091-3.972-0.228-5.955c3.562-0.261,7.124-0.526,10.688-0.782c0.316-0.023,0.604-0.089,0.875-0.177
		c1.759,0.094,3.446-0.956,3.167-3.192c-0.573-4.596-1.091-9.188-1.268-13.811h6.483c0.171,4.042,0.26,8.088,0.511,12.127
		c0.016,0.244,0.058,0.471,0.111,0.687c0.006,1.68,1.091,3.355,3.258,3.355h13.138V52.919z"/>
</g>
</svg>
