<?xml version="1.0" encoding="iso-8859-1"?>
<!-- Generator: Adobe Illustrator 17.0.2, SVG Export Plug-In . SVG Version: 6.00 Build 0)  -->
<!DOCTYPE svg PUBLIC "-//W3C//DTD SVG 1.1//EN" "http://www.w3.org/Graphics/SVG/1.1/DTD/svg11.dtd">
<svg version="1.1" id="Capa_1" xmlns="http://www.w3.org/2000/svg" xmlns:xlink="http://www.w3.org/1999/xlink" x="0px" y="0px"
	 width="100px" height="100px" viewBox="0 0 100 100" style="enable-background:new 0 0 100 100;" xml:space="preserve">
<g>
	<path style="fill:#1D1D1B;" d="M5.308,45.244c0.331,0.167,0.732,0.252,1.223,0.193c5.279-0.632,37.791-0.958,43.096-1.271
		c3.233-0.191,2.139-4.208,2.161-6.211c0.025-2.204,1.235-6.062-2.494-6.062c-5.404,0.001-38.007,0.024-43.413,0.318
		C2.888,32.374,3.6,35.538,3.791,37.6C4.012,39.983,2.583,43.867,5.308,45.244z M47.186,36.664c0,0-0.562,1.576,0.096,2.878
		c-3.746,0.228-34.696,0.491-38.428,0.878c0.039-2.24-0.537-3.547-0.537-3.547C12.202,36.716,43.297,36.672,47.186,36.664z"/>
	<path style="fill:#1D1D1B;" d="M49.889,48.671c-5.399-0.294-38.009-0.317-43.414-0.318c-4.572-0.001-4.223,12.043-0.333,12.273
		c5.306,0.313,37.817,0.639,43.096,1.271c0.49,0.059,0.892-0.026,1.223-0.193c1.098-0.555,1.451-1.316,1.513-2.187
		c0.083-1.161-0.353-2.517-0.227-3.839c0.156-1.643,1.227-4.214,0.149-5.718C51.546,49.265,50.88,48.725,49.889,48.671z
		 M46.914,56.88c-3.732-0.387-34.683-0.649-38.428-0.878c0.658-1.302,0.096-2.878,0.096-2.878
		c3.889,0.008,34.984,0.052,38.869,0.209C47.451,53.333,46.875,54.64,46.914,56.88z"/>
	<path style="fill:#1D1D1B;" d="M50.993,65.53c-0.384-0.43-0.948-0.716-1.699-0.716c-5.405,0.001-38.015,0.024-43.416,0.318
		c-4.053,0.225-3.39,11.607-0.57,13.033c0.331,0.167,0.733,0.252,1.223,0.193c5.279-0.632,37.791-0.958,43.097-1.271
		c3.483-0.206,2.146-6.548,2.6-8.938C52.458,66.935,51.841,66.011,50.993,65.53z M8.854,73.34c0.039-2.24-0.537-3.547-0.537-3.547
		c3.885-0.157,34.98-0.201,38.869-0.209c0,0-0.562,1.576,0.096,2.878C43.537,72.69,12.586,72.953,8.854,73.34z"/>
	<path style="fill:#1D1D1B;" d="M94.934,46.869c-0.424-0.363-0.987-0.598-1.706-0.598H83.057c-0.162-3.444-0.232-6.891-0.433-10.333
		c-0.09-1.548-1.214-2.408-2.417-2.584c-0.258-0.079-0.533-0.135-0.847-0.135h-9.518c-1.221,0-2.007,0.664-2.378,1.524
		c-0.534,0.438-0.894,1.105-0.885,2.011c0.033,3.525,0.37,7.021,0.782,10.515c-2.889,0.212-5.779,0.427-8.668,0.634
		c-0.475,0.034-0.88,0.172-1.226,0.372c-1.159,0.31-2.037,1.373-2.037,2.619v0.544c0,0.448,0.124,0.866,0.321,1.242
		c0.208,2.663,0.222,5.333,0.223,8.004c0,1.432,0.91,2.269,1.983,2.532c0.297,0.114,0.628,0.188,1.008,0.188h9.279
		c0.067,2.992,0.224,5.981,0.238,8.974c0.007,1.407,0.89,2.239,1.939,2.518c0.308,0.124,0.654,0.202,1.052,0.202h9.246
		c0.8,0,1.408-0.291,1.843-0.728c0.028-0.023,0.053-0.05,0.08-0.075c0.022-0.024,0.046-0.047,0.067-0.072
		c0.438-0.435,0.73-1.044,0.73-1.845c0-3.175-0.026-6.347-0.164-9.517H93.5c1.615,0,2.477-1.154,2.605-2.398
		c0.235-0.382,0.386-0.845,0.386-1.409v-9.789C96.492,48.025,95.811,47.234,94.934,46.869z M91.053,57.42H80.448
		c-1.551,0-2.413,1.063-2.592,2.249c-0.097,0.299-0.151,0.631-0.127,1.014c0.187,2.99,0.246,5.981,0.264,8.974h-4.118
		c-0.074-2.719-0.21-5.437-0.225-8.158c-0.001-0.26-0.041-0.495-0.097-0.716c0.044-1.392-0.825-2.819-2.622-2.819H61.4
		c-0.016-1.604-0.074-3.207-0.184-4.807c2.875-0.211,5.75-0.425,8.626-0.631c0.256-0.018,0.488-0.072,0.707-0.143
		c1.42,0.076,2.782-0.771,2.557-2.577c-0.462-3.71-0.88-7.417-1.023-11.149h5.234c0.137,3.263,0.209,6.529,0.412,9.789
		c0.012,0.197,0.046,0.38,0.09,0.555c0.004,1.356,0.88,2.708,2.629,2.708h10.605V57.42z"/>
</g>
</svg>
