<?xml version="1.0" encoding="iso-8859-1"?>
<!-- Generator: Adobe Illustrator 17.0.2, SVG Export Plug-In . SVG Version: 6.00 Build 0)  -->
<!DOCTYPE svg PUBLIC "-//W3C//DTD SVG 1.1//EN" "http://www.w3.org/Graphics/SVG/1.1/DTD/svg11.dtd">
<svg version="1.1" id="Capa_1" xmlns="http://www.w3.org/2000/svg" xmlns:xlink="http://www.w3.org/1999/xlink" x="0px" y="0px"
	 width="100px" height="100px" viewBox="0 0 100 100" style="enable-background:new 0 0 100 100;" xml:space="preserve">
<g>
	<path style="fill:#1E1E1C;" d="M80.654,26.034c-0.189-5.747-0.295-11.511-0.238-17.261c0.002-0.256-0.039-0.482-0.097-0.695
		c0.113-1.253-0.624-2.576-2.229-2.534C57.834,6.075,37.583,5.282,17.326,5.25c-1.686-0.003-2.423,1.478-2.215,2.777
		C15.043,8.253,14.997,8.496,15,8.773c0.306,24.171,1.136,58.901,1.163,83.076c0,0.542,0.154,0.983,0.4,1.331
		c0.149,1.025,0.885,1.931,2.217,1.898c8.755-0.217,17.514-0.358,26.263-0.787c7.797-0.382,17.514,0.13,24.967-2.415
		c2.638-0.901,5-2.234,7.023-4.162c3.699-3.526,4.962-8.26,5.28-13.248c0.307-4.791-0.258-9.816-0.37-14.23
		C81.654,48.833,81.029,37.435,80.654,26.034z M67.837,71.148c-1.425,0.008-2.803,1.121-2.166,2.831
		c1.281,3.439,1.867,7.71-0.103,10.999c-2.383,3.978-6.634,3.87-10.675,4.38c-2.472,0.311-5.099,0.146-7.591,0.217
		c-1.938,0.055-26.494,0.653-26.494,0.749C20.75,67.053,19.981,33.226,19.669,9.96c18.702,0.081,37.398,0.723,56.099,0.323
		c-0.063,17.103,1.609,44.72,1.723,61.817c-2.901-0.915-5.899-1.302-8.996-1.095C68.254,71.022,68.039,71.077,67.837,71.148z
		 M69.664,87.051c1.878-3.2,2.347-7.128,1.37-11.384c2.262,0.088,4.492,0.524,6.604,1.42c0.009,0.027,0.015,0.055,0.025,0.081
		C76.978,82.212,73.787,85.306,69.664,87.051z"/>
	<path style="fill:#1E1E1C;" d="M69.099,44.753c-0.166-0.048-0.341-0.083-0.534-0.093c-4.562-0.229-9.121-0.481-13.671-0.87V29.674
		c0-1.397-1.115-2.069-2.197-2.027c-0.136-0.036-0.279-0.065-0.432-0.076c-3.325-0.255-6.657-0.262-9.99-0.263
		c-3.002,0-1.63,4.497-1.696,6.302c-0.133,3.681-0.199,6.278-0.331,9.958c-3.533-0.014-8.15-0.065-11.68-0.257
		c-0.843-0.046-1.421,0.329-1.739,0.872c-0.376,0.339-0.627,0.835-0.627,1.494v8.676c0,1.346,1.036,2.022,2.08,2.033
		c0.17,0.042,0.35,0.071,0.549,0.071c3.797,0,8.676,0.03,12.468,0.197c0.178,4.753,0.239,9.51,0.449,14.263
		c0.077,1.728,1.822,2.35,3.042,1.867c2.837,0.218,5.681,0.235,8.527,0.236c1.052,0,1.691-0.635,1.927-1.41
		c0.124-0.269,0.193-0.585,0.176-0.956c-0.216-4.674-0.252-9.351-0.26-14.03c4.374,0.398,8.756,0.653,13.143,0.884
		c1.168,0.062,1.828-0.686,1.988-1.566c0.201-0.29,0.343-0.64,0.378-1.063c0.256-3.063,0.289-5.052,0.526-8.116
		C71.304,45.347,70.203,44.684,69.099,44.753z M66.566,53.207c-4.423-0.24-8.842-0.51-13.25-0.957
		c-0.909-0.092-1.5,0.328-1.794,0.931c-0.343,0.337-0.572,0.811-0.572,1.435c0,4.732,0.022,9.463,0.196,14.191
		c-1.76-0.012-3.518-0.067-5.274-0.171c-0.165-4.673-0.228-9.349-0.443-14.02c-0.062-1.328-1.109-2.002-2.144-2.026
		c-0.151-0.041-0.312-0.068-0.485-0.077c-3.767-0.207-8.621-0.25-12.391-0.259v-4.657c3.767,0.156,8.621,0.183,12.396,0.184
		c4.19-0.007,0.483-16.261,2.067-16.249c1.939,0.015,3.878,0.046,5.815,0.152v13.502c0,0.259,0.048,0.485,0.117,0.694
		c0.139,0.932,0.801,1.821,1.986,1.935c4.681,0.451,9.374,0.722,14.069,0.963C66.759,50.617,66.681,51.37,66.566,53.207z"/>
</g>
</svg>
