<?xml version="1.0" encoding="iso-8859-1"?>
<!-- Generator: Adobe Illustrator 17.0.2, SVG Export Plug-In . SVG Version: 6.00 Build 0)  -->
<!DOCTYPE svg PUBLIC "-//W3C//DTD SVG 1.1//EN" "http://www.w3.org/Graphics/SVG/1.1/DTD/svg11.dtd">
<svg version="1.1" id="Capa_1" xmlns="http://www.w3.org/2000/svg" xmlns:xlink="http://www.w3.org/1999/xlink" x="0px" y="0px"
	 width="100px" height="100px" viewBox="0 0 100 100" style="enable-background:new 0 0 100 100;" xml:space="preserve">
<g>
	<path style="fill:#1E1E1C;" d="M28.114,37.109c3.047,2.16,6.497,3.301,9.977,3.301c4.555,0,9.042-1.915,12.632-5.393
		c0.958-0.928,1.96-2.013,2.229-2.333c0.117-0.14,0.224-0.301,0.317-0.478c3.449-6.515,2.872-13.254-1.583-18.49
		c-1.054-1.239-1.991-2.292-2.331-2.621c-0.173-0.167-0.385-0.315-0.631-0.442c-3.101-1.595-6.241-2.404-9.333-2.404
		c-4.25,0-8.354,1.507-12.195,4.478c-0.174,0.135-0.322,0.281-0.44,0.432c-0.277,0.357-1.166,1.572-1.951,2.723
		C19.695,23.379,21.056,32.107,28.114,37.109z M30.325,16.88c0.08-0.084,0.149-0.17,0.212-0.258
		c0.269-0.373,1.425-1.381,2.771-2.057c2.94-1.478,6.229-1.794,9.507-0.92c1.537,0.41,3.661,1.722,4.735,2.925
		c2.775,3.108,3.651,6.726,2.534,10.461c-0.392,1.31-1.067,2.613-1.341,2.9c-2.544,3.417-6.107,5.272-10.078,5.272
		c-4.848,0-9.448-2.82-11.186-6.859C26.545,26.173,25.672,21.795,30.325,16.88z"/>
	<path style="fill:#1E1E1C;" d="M71.704,63.855H70.07c-0.484,0-0.955-0.087-1.4-0.259c-0.507-0.141-0.946-0.375-1.323-0.67
		c0.187,4.155,0.325,8.311,0.427,12.469c0.066,2.673,0.089,5.347,0.102,8.021c-3.157,0.003-6.312,0.036-9.466,0.199
		c-0.17-6.761-0.514-15.238-0.797-20.309c-0.155-2.775-4.484-2.79-4.328,0c0.352,6.302,0.801,17.889,0.889,24.875
		c-9.916-0.037-19.831-0.193-29.747-0.227c-0.031-6.96-0.162-18.162-0.174-24.288c-0.005-2.791-4.333-2.791-4.328,0
		c0.009,4.56,0.084,11.939,0.135,18.284c-3.497,0.161-6.997,0.197-10.497,0.203C9.073,72.436,9.45,62.723,9.643,52.998
		c0.881-1.817,2.274-3.14,4.211-3.778c6.136-0.647,12.306-0.912,18.474-1.002c6.191-0.09,12.383,0.003,18.573,0.068
		c0.573,0.006,1.146-0.001,1.719-0.001c-0.05-0.254-0.085-0.516-0.085-0.792c0-1.158-0.004-2.335-0.023-3.518
		c-2.982-0.028-5.964-0.066-8.947-0.092c-6.372-0.056-12.748-0.054-19.115,0.232c-3.574,0.161-7.145,0.409-10.703,0.787
		c-0.273-0.031-0.57-0.009-0.891,0.089c-3.094,0.945-5.72,3.069-7.064,6.044c-0.124,0.275-0.204,0.56-0.239,0.844
		c-0.141,0.274-0.23,0.594-0.237,0.969c-0.203,10.345-0.633,20.677,0,31.016c0.054,0.89,0.54,1.492,1.165,1.813
		c0.32,0.304,0.758,0.506,1.329,0.506c4.094,0,8.186-0.018,12.275-0.207c0.009,1.373,0.015,2.647,0.017,3.746
		c0.001,0.382,0.088,0.706,0.228,0.984c0.246,0.702,0.852,1.263,1.82,1.264c11.573,0.013,23.145,0.238,34.718,0.252
		c1.81,0.002,2.354-1.952,1.639-3.138c-0.004-0.457-0.01-0.942-0.017-1.445c3.315-0.169,6.631-0.196,9.951-0.197
		c0.524,0,0.937-0.169,1.249-0.431c1.19,0.177,2.53-0.509,2.526-2.063c-0.014-6.773-0.285-13.524-0.495-20.292
		C71.717,64.388,71.711,64.122,71.704,63.855z"/>
	<path style="fill:#1E1E1C;" d="M94.997,33.407l-0.226-0.138c-0.342-0.292-0.774-0.44-1.284-0.44H81.727l-0.038-0.81
		c-0.072-1.531-0.127-3.062-0.182-4.594c-0.077-2.139-0.156-4.351-0.283-6.52c-0.066-1.133-0.607-2.292-4.113-2.292
		c-0.743,0-1.512,0.048-2.19,0.091c-0.608,0.038-1.167,0.073-1.632,0.073c-0.573-0.004-1.042-0.018-1.483-0.031
		c-0.428-0.013-0.829-0.025-1.21-0.025c-1.635,0-2.75,0.233-4.3,1.505c-0.432,0.354-0.647,0.859-0.641,1.499
		c0.037,3.952,0.443,7.894,0.835,11.227l0.104,0.882l-3.593,0.264c-2.208,0.163-4.417,0.325-6.625,0.483
		c-0.351,0.025-0.664,0.12-0.956,0.289l-0.206,0.085c-1.422,0.381-1.479,1.39-1.269,3.599l0.038,0.408
		c0.148,1.681,0.206,3.354,0.232,5.008c0.018,1.185,0.023,2.363,0.023,3.521c0,0.313,0.058,0.57,0.146,0.791
		c0.299,0.756,0.995,1.023,1.341,1.108l0.102,0.032c0.257,0.098,0.512,0.146,0.781,0.146h8.297h2.523l0.019,0.831
		c0.028,1.236,0.07,2.473,0.112,3.709c0.066,1.952,0.135,3.972,0.145,5.966c0.006,1.361,1.02,1.776,1.455,1.893L69.254,62
		c0.261,0.104,0.528,0.156,0.816,0.156h1.591h8.362c0.564,0,1.029-0.18,1.382-0.534l0.688,0.52v0l-0.579-0.625
		c0.407-0.408,0.586-0.873,0.586-1.438c0-3.218-0.022-6.682-0.176-10.208l-0.039-0.887H93.78c1.306,0,1.868-0.939,1.958-1.819
		l0.02-0.193l0.102-0.166c0.195-0.316,0.29-0.667,0.29-1.071V35.198C96.15,34.114,95.523,33.625,94.997,33.407z M91.996,44.83H79.73
		c-1.571,0-1.89,1.3-1.95,1.699l-0.032,0.135c-0.082,0.251-0.113,0.505-0.096,0.776c0.174,2.788,0.262,5.782,0.286,9.707
		l0.005,0.854h-6.115l-0.022-0.826c-0.027-0.98-0.061-1.961-0.095-2.941c-0.067-1.918-0.136-3.901-0.147-5.859
		c0-0.18-0.025-0.359-0.078-0.564l-0.03-0.117l0.004-0.121c0.02-0.634-0.188-1.225-0.571-1.619
		c-0.346-0.357-0.818-0.539-1.402-0.539h-2.969h-8.133l-0.008-0.842c-0.002-0.227-0.012-0.445-0.016-0.67
		c-0.026-1.531-0.082-3.031-0.18-4.454l-0.058-0.845l3.809-0.279c2.107-0.155,4.215-0.311,6.323-0.461
		c0.179-0.013,0.357-0.05,0.562-0.116l0.149-0.047l0.298,0.012c0.594,0,1.108-0.196,1.412-0.54c0.273-0.31,0.377-0.741,0.31-1.283
		c-0.559-4.481-0.961-8.25-1.107-12.075l-0.033-0.882h7.332l0.034,0.814c0.05,1.175,0.091,2.351,0.133,3.527
		c0.082,2.295,0.166,4.668,0.31,6.994c0.01,0.158,0.039,0.305,0.073,0.445l0.025,0.202c0.003,0.768,0.423,2.068,1.98,2.068h12.266
		V44.83z"/>
</g>
</svg>
