<?xml version="1.0" encoding="iso-8859-1"?>
<!-- Generator: Adobe Illustrator 17.0.2, SVG Export Plug-In . SVG Version: 6.00 Build 0)  -->
<!DOCTYPE svg PUBLIC "-//W3C//DTD SVG 1.1//EN" "http://www.w3.org/Graphics/SVG/1.1/DTD/svg11.dtd">
<svg version="1.1" id="Capa_1" xmlns="http://www.w3.org/2000/svg" xmlns:xlink="http://www.w3.org/1999/xlink" x="0px" y="0px"
	 width="100px" height="100px" viewBox="0 0 100 100" style="enable-background:new 0 0 100 100;" xml:space="preserve">
<g>
	<path style="fill:#1E1E1C;" d="M96.788,31.558c-0.068-0.927-0.625-1.524-1.307-1.802c-0.281-0.161-0.615-0.264-1.018-0.264
		c-1.071-0.001-2.142-0.011-3.213-0.014c-0.113-1.577-0.385-3.14-0.76-4.678c-0.265-1.087-1.142-1.5-1.999-1.416
		c-0.134-0.029-0.275-0.048-0.426-0.051c-12.653-0.247-25.306-0.457-37.957-0.015c-0.373-0.969-0.751-1.871-1.131-2.55
		c-0.294-0.526-0.706-0.817-1.149-0.94c-0.304-0.21-0.684-0.342-1.151-0.342c-8.771,0-22.707-0.024-31.476-0.203
		c-0.315-0.195-0.68-0.314-1.071-0.314h-3.616c-0.992,0-1.837,0.729-2.026,1.672C8.335,20.901,8.224,21.2,8.19,21.553
		c-1.68,17.55,0.424,42.283,0.258,59.857c-0.013,1.404,1.125,2.06,2.211,1.985c0.119,0.034,0.24,0.066,0.372,0.081
		c25.984,3.044,57.319,3.376,83.433,4.391c1.182,0.046,1.835-0.742,1.968-1.641c0.225-0.31,0.362-0.709,0.357-1.2
		C96.601,68.919,97.969,47.65,96.788,31.558z M86.948,27.308c0.134,0.713,0.239,1.428,0.3,2.151
		c-11.667-0.068-23.333-0.256-34.998-0.464c-0.223-0.489-0.456-1.085-0.695-1.726C63.351,26.903,75.15,27.08,86.948,27.308z
		 M92.653,83.668c-24.993-0.943-55.196-1.34-80.069-4.151c0.009-16.346-1.739-39.849-0.41-56.173
		c0.05,0.004,0.095,0.017,0.148,0.018c9.45,0.232,24.068,0.256,33.521,0.258c1.062,1.868,2.156,5.725,2.974,7.714
		c0.162,0.393,0.394,0.74,0.685,1.004c0.332,0.444,0.849,0.759,1.566,0.771c13.905,0.248,27.81,0.481,41.718,0.509
		C93.689,48.571,92.558,68.7,92.653,83.668z"/>
	<path style="fill:#1E1E1C;" d="M69.91,53.9c-0.148-0.043-0.305-0.075-0.479-0.083c-4.089-0.205-8.175-0.431-12.253-0.78V40.385
		c0-1.252-0.999-1.854-1.969-1.817c-0.122-0.033-0.25-0.058-0.388-0.068c-2.98-0.228-5.966-0.235-8.954-0.236
		c-2.69,0-1.461,4.031-1.52,5.648c-0.12,3.299-0.178,5.626-0.296,8.926c-3.167-0.012-7.305-0.058-10.469-0.23
		c-0.755-0.041-1.274,0.295-1.559,0.782c-0.337,0.304-0.562,0.748-0.562,1.339v7.776c0,1.207,0.929,1.813,1.864,1.822
		c0.152,0.038,0.314,0.063,0.492,0.063c3.403,0,7.776,0.027,11.175,0.177c0.16,4.26,0.214,8.524,0.402,12.784
		c0.068,1.549,1.633,2.106,2.726,1.674c2.543,0.195,5.092,0.211,7.643,0.211c0.943,0,1.516-0.569,1.727-1.264
		c0.111-0.241,0.173-0.524,0.158-0.857c-0.193-4.19-0.227-8.382-0.233-12.575c3.92,0.356,7.848,0.585,11.78,0.792
		c1.047,0.055,1.638-0.615,1.781-1.404c0.18-0.26,0.308-0.573,0.339-0.953c0.23-2.745,0.259-4.528,0.471-7.274
		C71.886,54.432,70.899,53.838,69.91,53.9z M67.641,61.477c-3.964-0.215-7.925-0.457-11.876-0.858
		c-0.814-0.082-1.345,0.294-1.608,0.834c-0.308,0.302-0.513,0.727-0.513,1.287c0,4.241,0.021,8.481,0.176,12.72
		c-1.577-0.01-3.153-0.06-4.727-0.154c-0.147-4.188-0.204-8.379-0.397-12.566c-0.055-1.19-0.994-1.794-1.921-1.816
		c-0.135-0.036-0.28-0.061-0.435-0.069c-3.375-0.185-7.726-0.224-11.106-0.232v-4.174c3.376,0.14,7.727,0.164,11.11,0.165
		c3.756-0.006,0.434-14.575,1.854-14.564c1.738,0.013,3.476,0.041,5.211,0.137v12.102c0,0.232,0.043,0.434,0.105,0.622
		c0.125,0.836,0.719,1.632,1.78,1.735c4.196,0.404,8.402,0.647,12.61,0.863C67.813,59.155,67.743,59.831,67.641,61.477z"/>
</g>
</svg>
