<?xml version="1.0" encoding="iso-8859-1"?>
<!-- Generator: Adobe Illustrator 17.0.2, SVG Export Plug-In . SVG Version: 6.00 Build 0)  -->
<!DOCTYPE svg PUBLIC "-//W3C//DTD SVG 1.1//EN" "http://www.w3.org/Graphics/SVG/1.1/DTD/svg11.dtd">
<svg version="1.1" id="Capa_1" xmlns="http://www.w3.org/2000/svg" xmlns:xlink="http://www.w3.org/1999/xlink" x="0px" y="0px"
	 width="100px" height="100px" viewBox="0 0 100 100" style="enable-background:new 0 0 100 100;" xml:space="preserve">
<g>
	<path style="fill:#1E1E1C;" d="M83.547,6.316c-0.158-1.312-1.24-1.994-2.284-2.049c-0.208-0.065-0.431-0.111-0.685-0.111
		C63.12,4.178,42.427,4.664,24.969,4.427c-0.302-0.004-0.565,0.051-0.802,0.139c-1.226-0.277-2.704,0.391-2.707,2.021
		c-0.005,2.79-0.031,5.58-0.067,8.37c-2.014,0.665-3.828,1.823-5.205,3.666c-3.147,4.214,0.291,9.535,3.476,12.436
		c0.447,0.407,0.941,0.571,1.421,0.575c-0.012,0.568-0.023,1.137-0.035,1.705c-1.768,0.598-3.368,1.542-4.564,3
		c-3.322,4.049-0.602,8.96,2.369,12.266c0.355,0.395,0.753,0.586,1.152,0.65c0.238,0.269,0.484,0.528,0.763,0.756
		c-0.002,0.272-0.004,0.543-0.007,0.815c-2.516,0.698-4.754,2.055-6.016,4.457c-2.604,4.954,2.144,9.451,6.074,11.692
		c0.003,0.134,0.008,0.267,0.01,0.401c-1.865,0.922-3.456,2.257-4.406,4.208c-2.256,4.633,1.557,8.848,5.05,11.456
		c0.058,0.904,0.122,1.809,0.187,2.713c-0.074,0.237-0.108,0.505-0.078,0.813c0.292,2.995,0.829,5.906,1.918,8.721
		c0.379,0.981,1.234,1.405,2.076,1.413c0.222,0.08,0.465,0.134,0.745,0.133c18.715-0.01,37.434-0.3,56.073-2.106
		c0.143-0.014,0.274-0.044,0.401-0.079c1.094,0.057,2.232-0.614,2.231-2.027c0-2.462-0.01-4.92-0.263-7.371
		c-0.021-0.206-0.073-0.39-0.137-0.565C84.692,58.558,86.691,32.346,83.547,6.316z M18.668,57.096
		c0.443-0.842,1.181-1.419,2.066-1.817c-0.007,2.172-0.002,4.344,0.016,6.515C19.135,60.566,17.718,58.904,18.668,57.096z
		 M20.125,38.735c0.247-0.255,0.529-0.469,0.824-0.666c-0.041,2.069-0.078,4.137-0.111,6.206
		C19.543,42.585,18.474,40.442,20.125,38.735z M20.367,73.324c0.157-0.322,0.36-0.613,0.596-0.878
		c0.049,1.518,0.106,3.036,0.174,4.554C20.255,75.894,19.737,74.618,20.367,73.324z M21.194,26.48
		c-1.439-1.63-2.526-3.649-1.277-5.678c0.349-0.568,0.837-0.999,1.408-1.332C21.286,21.807,21.242,24.143,21.194,26.48z
		 M27.029,92.619c-0.326-1.039-0.591-2.09-0.798-3.156c17.156,0.102,37.366,1.86,54.507-1.5c0.039,0.896,0.062,1.793,0.071,2.69
		C62.927,92.304,44.977,92.603,27.029,92.619z M80.315,83.652c-16.658,3.443-37.053,1.607-53.933,1.494
		c-0.021-0.001-0.042-0.006-0.063-0.006h-0.381c-0.356-4.948-0.579-9.899-0.715-14.851c1.26-0.297,2.528-0.444,3.526-0.536
		c2.75-0.254,2.774-4.575,0-4.319c-1.158,0.107-2.387,0.268-3.611,0.522c-0.066-3.822-0.099-7.644-0.084-11.467
		c1.173-0.019,2.291,0.064,3.155,0.147c2.773,0.266,2.747-4.055,0-4.319c-0.99-0.095-2.048-0.135-3.123-0.103
		c0.044-4.472,0.12-8.945,0.21-13.418c1.507-0.122,3.027-0.056,4.262,0.025c2.782,0.181,2.765-4.139,0-4.319
		c-1.318-0.086-2.743-0.105-4.175,0.004c0.099-4.669,0.2-9.339,0.275-14.008c1.336-0.024,2.639,0.108,3.63,0.237
		c2.756,0.359,2.721-3.965,0-4.319c-1.178-0.153-2.38-0.224-3.571-0.185c0.022-1.826,0.04-3.651,0.049-5.477
		C42.587,8.96,62.644,8.519,79.463,8.48C82.21,33.456,80.424,58.591,80.315,83.652z"/>
	<path style="fill:#1E1E1C;" d="M41.52,35.604c-0.347-0.671-0.95-1.056-1.655-1.056c-0.99,0-1.924,0.755-2.118,1.68
		c-1.351,4.236-2.689,8.787-4.34,14.755c-0.174,0.629-0.067,1.243,0.301,1.726c0.395,0.519,1.067,0.842,1.754,0.842
		c0.932,0,1.667-0.563,1.918-1.472c0.121-0.437,0.246-0.873,0.371-1.31l0.129-0.454c1.64,0.116,3.288,0.139,4.749,0.146
		c0.225,0.823,0.443,1.649,0.659,2.477c0.238,0.915,0.966,1.484,1.899,1.484c0,0,0,0,0,0c0.682,0,1.354-0.321,1.753-0.838
		c0.374-0.482,0.489-1.097,0.325-1.728C45.653,45.654,44.059,40.515,41.52,35.604z M41.423,46.327
		c-0.835-0.014-1.624-0.04-2.384-0.079c0.357-1.226,0.719-2.451,1.086-3.674C40.569,43.74,40.999,44.981,41.423,46.327z"/>
	<path style="fill:#1E1E1C;" d="M59.596,44.771c0-1.024-0.69-2.061-2.009-2.061h-6.935c-1.319,0-2.01,1.037-2.01,2.061
		c0,1.023,0.69,2.06,2.01,2.06h6.935C58.905,46.831,59.596,45.794,59.596,44.771z"/>
	<path style="fill:#1E1E1C;" d="M72.31,34.323c-0.214-0.072-0.442-0.108-0.68-0.108h-7.976c-1.319,0-2.009,1.037-2.009,2.061
		s0.69,2.061,2.009,2.061h5.034c-2.856,3.984-5.963,8.074-9.477,12.476c-0.169,0.213-0.296,0.454-0.366,0.68l-0.043,0.14
		c-0.186,0.636-0.069,1.372,0.305,1.923c0.354,0.521,0.905,0.842,1.584,0.906c3.572,0.341,7.145,0.682,10.715,1.037
		c0.079,0.008,0.155,0.012,0.229,0.012c0,0,0,0,0,0c1.014,0,1.759-0.74,1.812-1.8c0.051-1.029-0.612-2.195-1.942-2.327
		c-2.279-0.228-4.559-0.446-6.838-0.664l-0.152-0.015c3.888-4.958,7.051-9.219,9.913-13.357c0.421-0.609,0.482-1.304,0.166-1.906
		C74.19,34.668,73.219,34.185,72.31,34.323z"/>
</g>
</svg>
