<?xml version="1.0" encoding="iso-8859-1"?>
<!-- Generator: Adobe Illustrator 17.0.2, SVG Export Plug-In . SVG Version: 6.00 Build 0)  -->
<!DOCTYPE svg PUBLIC "-//W3C//DTD SVG 1.1//EN" "http://www.w3.org/Graphics/SVG/1.1/DTD/svg11.dtd">
<svg version="1.1" id="Capa_1" xmlns="http://www.w3.org/2000/svg" xmlns:xlink="http://www.w3.org/1999/xlink" x="0px" y="0px"
	 width="100px" height="100px" viewBox="0 0 100 100" style="enable-background:new 0 0 100 100;" xml:space="preserve">
<g>
	<path style="fill:#1E1E1C;" d="M83.603,21.625c0.089-0.596-0.078-1.237-0.633-1.797c-2.71-2.733-3.13-5.422-0.562-8.437
		c0.128-0.15,0.228-0.305,0.311-0.463c0.96-1.254,0.39-3.658-1.713-3.75c-16.23-0.714-35.851-0.776-52.087-1.311
		c-0.094-0.003-0.177,0.011-0.266,0.018c-0.037-0.004-0.07-0.015-0.109-0.018c-5.354-0.324-10.972,2.732-11.546,8.502
		c-0.063,0.638-0.043,1.235,0.025,1.805c-0.176,0.309-0.288,0.677-0.283,1.123c0.216,21.257-0.39,42.469-0.56,63.713
		c-0.021,0.171-0.025,0.353-0.002,0.552c0.75,6.501,4.781,11.281,11.394,12.286c0.215,0.033,0.417,0.03,0.613,0.012
		c0.116,0.028,0.231,0.057,0.359,0.069c15.58,1.425,31.211,1.319,46.84,1.312h4.691c1.305,0.395,2.986-0.288,2.991-2.061
		c0.056-23.801,1.779-47.589,0.562-71.385C83.625,21.733,83.609,21.682,83.603,21.625z M21.475,14.589
		c0.549-3.376,4.118-4.404,7.069-4.226c0.103,0.006,0.194-0.006,0.29-0.011c0.029,0.002,0.055,0.01,0.085,0.011
		c14.94,0.493,33.263,0.607,48.201,1.174c-1.104,2.504-1.15,5.05-0.098,7.493c-15.092-0.686-33.564-0.399-48.666-0.049
		c-0.05,0.001-0.09,0.013-0.139,0.017c-0.28-0.131-0.606-0.208-0.986-0.204C24.684,18.818,20.929,17.945,21.475,14.589z
		 M66.824,23.208c-0.357,5.408-0.693,10.816-0.943,16.23c-0.985-1.008-1.984-2.002-3.033-2.945c-0.74-0.666-1.617-0.645-2.304-0.274
		c-0.201,0.039-0.404,0.1-0.611,0.212c-1.806,0.974-3.645,1.847-5.536,2.612c0.345-5.307,0.572-10.619,0.772-15.934
		C59.084,23.107,62.992,23.136,66.824,23.208z M29.036,89.469c-0.164-0.015-0.329-0.024-0.493-0.039
		c-0.052-0.005-0.095,0.003-0.146,0.001c-4.271-0.769-7.205-3.367-7.724-7.87c-0.005-0.044-0.02-0.081-0.027-0.123
		c0.009-0.084,0.026-0.162,0.027-0.251c0.156-19.762,0.685-39.495,0.588-59.263c1.776,0.925,3.896,1.387,5.969,1.368
		c0.043,0,0.08-0.011,0.122-0.013c0.284,0.133,0.615,0.209,1.003,0.2c0.948-0.022,1.91-0.044,2.88-0.065
		C30.861,45.437,29.247,67.456,29.036,89.469z M78.594,90.741h-4.709c-0.004,0-0.007,0.001-0.011,0.001
		c-13.629,0.01-27.259,0.046-40.853-0.954c0.198-22.147,1.833-44.3,2.207-66.458c5.154-0.102,10.537-0.183,15.951-0.213
		c-0.235,6.263-0.499,12.524-0.961,18.775c-0.081,1.086,0.589,1.705,1.401,1.869c0.378,0.185,0.84,0.236,1.374,0.054
		c2.793-0.952,5.485-2.14,8.099-3.501c1.602,1.529,3.119,3.141,4.671,4.721c0.55,1.892,3.822,1.674,3.903-0.65
		c0.245-7.037,0.678-14.062,1.142-21.087c2.871,0.079,5.684,0.184,8.404,0.325C80.216,45.997,78.747,68.364,78.594,90.741z"/>
</g>
</svg>
