<?xml version="1.0" encoding="iso-8859-1"?>
<!-- Generator: Adobe Illustrator 17.0.2, SVG Export Plug-In . SVG Version: 6.00 Build 0)  -->
<!DOCTYPE svg PUBLIC "-//W3C//DTD SVG 1.1//EN" "http://www.w3.org/Graphics/SVG/1.1/DTD/svg11.dtd">
<svg version="1.1" id="Capa_1" xmlns="http://www.w3.org/2000/svg" xmlns:xlink="http://www.w3.org/1999/xlink" x="0px" y="0px"
	 width="100px" height="100px" viewBox="0 0 100 100" style="enable-background:new 0 0 100 100;" xml:space="preserve">
<g>
	<path d="M47.375,63.699c-1.264,0.37-2.285,1.319-3.035,2.823c-0.773,1.549-1.025,2.917-0.77,4.181
		c0.169,0.838,0.53,1.737,0.965,2.405c1.151,1.765,3.06,2.776,5.239,2.777c0,0,0,0,0,0c1.18,0,2.382-0.297,3.477-0.859
		c1.746-0.896,2.999-2.471,3.351-4.213c0.306-1.509-0.093-3.017-1.123-4.246C53.577,64.297,49.922,62.954,47.375,63.699z
		 M52.177,69.861c-0.021,0.269-0.338,0.758-1.162,1.25c-0.962,0.577-2.197,0.312-2.79-0.597c-0.334-0.513-0.3-1.438,0.075-2.02
		c0.121-0.188,0.302-0.36,0.809-0.36c0.259,0,0.562,0.046,0.924,0.141c0.617,0.162,1.199,0.459,1.681,0.861
		C51.936,69.322,52.198,69.599,52.177,69.861z"/>
	<path d="M55.577,25.198c-0.002,0-0.004,0-0.006,0c-0.109-0.028-0.223-0.049-0.341-0.064c-3.843-0.468-7.741-0.792-11.587-0.965
		l-0.129-0.003c-0.432,0-0.842,0.102-1.198,0.295c-1.157,0.279-1.934,1.239-1.956,2.448c-0.112,6.419,0.961,12.777,2,18.926
		c0.752,4.453,1.529,9.057,1.839,13.611c0.058,0.854,0.488,1.587,1.188,2.034c0.461,0.431,1.055,0.657,1.728,0.657h4.636
		c1.15,0,2.08-0.686,2.414-1.762c0.185-0.323,0.299-0.675,0.339-1.049c0.446-4.157,0.946-8.381,1.429-12.466
		c0.737-6.233,1.5-12.678,2.089-19.041c0.084-0.908-0.265-1.501-0.573-1.839C56.997,25.482,56.314,25.198,55.577,25.198z
		 M49.187,56.939c-0.381-3.847-1.028-7.696-1.656-11.427c-0.882-5.244-1.792-10.656-1.95-16.038c2.33,0.137,4.682,0.33,7.017,0.577
		c-0.551,5.58-1.216,11.227-1.861,16.697c-0.4,3.396-0.8,6.792-1.176,10.19H49.187z"/>
	<path d="M85.857,42.664c0.554-0.789,1.205-1.821,1.999-3.169c1.312-2.228,2.773-4.967,3.067-5.748
		c0.19-0.503,0.168-1.062-0.059-1.55c-0.227-0.487-0.642-0.863-1.149-1.042c-0.379-0.133-0.786-0.282-1.213-0.438
		c-2.311-0.843-5.105-1.863-7.762-2.142c1.014-3.293,1.162-7.245,0.934-9.67c-0.051-0.541-0.319-1.038-0.744-1.376
		c-0.424-0.338-0.965-0.489-1.507-0.419c-2.822,0.37-6.334,0.895-9.72,1.769c-0.086-0.543-0.167-1.097-0.251-1.665
		c-0.395-2.681-0.803-5.454-1.843-8.062c-0.345-0.865-1.242-1.376-2.162-1.236c-3.178,0.489-5.791,2.668-8.097,4.591
		c-0.335,0.28-0.664,0.554-0.987,0.817c-1.301-2.08-2.689-4.116-4.042-6.1c-0.492-0.722-0.984-1.443-1.47-2.164
		c-0.372-0.551-0.993-0.882-1.658-0.882s-1.287,0.331-1.659,0.882c-0.685,1.017-1.323,2.094-1.939,3.135
		c-1.018,1.719-1.979,3.343-3.127,4.708c-0.255,0.304-0.431,0.498-0.551,0.622c-0.34-0.157-0.851-0.448-1.104-0.593
		c-2.352-1.339-4.821-3.27-7.054-5.015c-0.869-0.679-2.126-0.526-2.807,0.344c-0.351,0.449-0.48,1.001-0.403,1.524
		c-0.072,0.592-0.411,2.138-1.011,4.604c-0.107,0.441-0.18,0.749-0.196,0.833c-0.108,0.563-0.185,1.103-0.256,1.608
		c-0.095,0.672-0.239,1.687-0.404,1.885c-0.002,0.001-0.166,0.094-0.684,0.094c-0.163,0-0.338-0.009-0.529-0.026
		c-1.804-0.163-3.755-0.645-5.642-1.111c-1.02-0.252-2.032-0.501-3.026-0.708c-0.66-0.136-1.343,0.068-1.819,0.544
		c-0.476,0.476-0.681,1.16-0.544,1.819c0.05,0.244,0.149,0.913,0.285,1.811c0.537,3.555,0.942,5.992,1.311,7.675
		c-3.42,0.425-7.812,1.879-9.297,2.443c-0.618,0.235-1.073,0.768-1.228,1.41c-0.154,0.643,0.026,1.329,0.47,1.818
		c0.603,0.666,4.143,5.607,5.429,7.806c-1.967,1.759-5.926,4.879-7.354,5.415c-0.731-0.147-1.515,0.118-1.995,0.752
		c-0.667,0.88-0.495,2.135,0.386,2.802c0.782,0.593,1.978,1.207,3.362,1.917c1.478,0.759,4.817,2.472,5.497,3.472
		c-0.67,1.679-3.928,6.741-5.086,7.883c-0.563,0.229-1.015,0.711-1.182,1.344c-0.281,1.068,0.357,2.162,1.425,2.443c0,0,0,0,0,0
		c0.923,0.243,2.274,0.37,3.84,0.517c1.729,0.163,5.179,0.487,6.275,1.043c0.033,1.924-1.059,7.789-1.645,9.225
		c-0.418,0.441-0.632,1.065-0.523,1.711c0.184,1.089,1.214,1.822,2.304,1.64h0c0.002,0,0.004,0,0.006-0.001
		c1.148-0.194,2.408-0.644,3.742-1.119c1.713-0.611,3.656-1.303,5.114-1.303c0.492,0,0.88,0.077,1.185,0.232
		c0.943,0.562,1.345,5.134,1.497,6.855c0.108,1.225,0.201,2.282,0.368,3.094c0.191,0.93,1.009,1.598,1.959,1.598
		c0.707,0,0.707,0,4.402-2.9c0.81-0.636,1.486-1.167,1.583-1.241c1.135-0.849,2.708-2.075,3.715-1.606
		c0.994,0.954,4.365,5.617,4.937,7.071c-0.038,0.709,0.304,1.417,0.953,1.815c0.326,0.2,0.687,0.295,1.043,0.295
		c0.673,0,1.33-0.34,1.707-0.956h0c0.001-0.002,0.002-0.004,0.003-0.006c0.471-0.769,0.92-1.719,1.396-2.725
		c1.154-2.442,2.726-5.767,4.636-5.912c1.281,0.395,5.852,3.007,6.963,4.174c0.127,0.655,0.579,1.232,1.249,1.488
		c1.031,0.396,2.188-0.121,2.583-1.152c0.081-0.211,0.295-0.771,1.388-6.302c0.279-1.41,0.492-2.488,0.65-3.323
		c0.389,0.104,0.789,0.212,1.196,0.323c2.513,0.685,5.362,1.461,7.9,1.461c0,0,0,0,0,0c0.395,0,0.78-0.019,1.155-0.057
		c1.07-0.11,1.862-1.047,1.791-2.121c-0.037-0.556-0.355-2.154-1.294-6.672c-0.232-1.116-0.495-2.382-0.693-3.364
		c0.61-0.175,1.213-0.356,1.806-0.535c2.571-0.775,5-1.507,7.485-1.58c0.67-0.02,1.286-0.374,1.64-0.943s0.399-1.278,0.121-1.888
		c-1.268-2.771-3.273-5.569-5.21-8.134c0.769-0.489,1.758-1.155,3.05-2.063c4.721-3.318,5.138-4.044,5.339-4.393
		c0.458-0.796,0.314-1.802-0.348-2.438C91.441,45.929,88.617,44.261,85.857,42.664z M82.298,54.391
		c-0.296,0.056-0.585,0.18-0.842,0.375c-0.879,0.668-1.049,1.923-0.381,2.802l0,0l0,0c0,0.001,0.001,0.001,0.001,0.002l0.403,0.529
		c1.498,1.964,3.139,4.115,4.431,6.227c-1.866,0.339-3.66,0.879-5.416,1.409c-1.177,0.354-2.288,0.689-3.413,0.966
		c-1.904,0.462-1.566,2.153-1.209,3.943c0.194,0.972,0.466,2.281,0.747,3.634c0.248,1.191,0.562,2.706,0.81,3.938
		c-1.682-0.21-3.562-0.722-5.395-1.222c-1.218-0.332-2.368-0.645-3.46-0.872l-0.421,2.033l-1.974-0.241
		c-0.069,0.564-0.824,4.511-1.433,7.493c-2.656-1.868-6.366-3.75-7.69-3.768c-3.995,0-6.211,3.781-7.805,7.057
		c-1.689-2.616-3.993-5.542-4.871-6.046c-0.797-0.458-1.663-0.69-2.572-0.69c-2.289,0-4.225,1.448-5.64,2.505
		c-0.075,0.057-0.791,0.617-1.651,1.293c-0.113,0.089-0.229,0.18-0.346,0.271c-0.346-3.825-0.865-7.93-3.589-9.326
		c-0.872-0.447-1.885-0.674-3.011-0.674c-2.019,0-4.161,0.72-6.086,1.404c0.778-3.38,1.609-8.362,0.506-9.82
		c-1.394-1.843-4.615-2.312-9.019-2.732c1.826-2.569,4.653-6.933,4.377-8.673c-0.43-2.713-3.771-4.557-7.16-6.303
		c3.352-2.226,6.973-5.669,7.021-5.721c1.304-1.385,0.459-2.898-2.495-7.221c-0.609-0.892-1.333-1.918-1.994-2.831
		c2.339-0.712,5.279-1.438,7.013-1.438c0.374,0,0.559,0.036,0.621,0.052c1.075,0.27,2.158-0.382,2.427-1.453
		c0.168-0.671-0.024-1.349-0.456-1.828c-0.446-1.21-1.134-5.523-1.501-7.921c0.013,0.003,0.025,0.006,0.038,0.01
		c2.033,0.502,4.135,1.022,6.243,1.211c0.319,0.029,0.614,0.042,0.888,0.042c4.281,0,4.743-3.26,5.048-5.417
		c0.063-0.446,0.129-0.92,0.221-1.398c0.02-0.09,0.078-0.329,0.158-0.659c0.204-0.836,0.382-1.568,0.533-2.211
		c1.57,1.181,3.22,2.342,4.875,3.285c1.284,0.731,2.204,1.211,3.25,1.211c1.645,0,2.644-1.187,3.446-2.14
		c1.361-1.617,2.453-3.461,3.509-5.245c0.077-0.13,0.154-0.26,0.23-0.389c1.65,2.42,3.34,4.915,4.809,7.42
		c0.279,0.477,0.743,0.816,1.281,0.938c0.54,0.123,1.104,0.017,1.562-0.292c1.019-0.687,2.022-1.523,2.993-2.333
		c1.489-1.242,3.017-2.516,4.559-3.217c0.474,1.703,0.743,3.529,1.023,5.434c0.194,1.321,0.396,2.688,0.673,4.019
		c0.116,0.553,0.459,1.031,0.947,1.317s1.074,0.353,1.611,0.182c2.93-0.921,6.283-1.527,9.049-1.937
		c-0.026,3.024-0.632,6.459-1.841,8.214c-0.477,0.692-0.47,1.609,0.018,2.295c0.489,0.685,1.352,0.993,2.163,0.767
		c0.362-0.1,0.794-0.151,1.284-0.151c2.055,0,4.635,0.854,6.87,1.659c-1.247,2.326-3.373,5.979-4.309,7.031
		c-0.438,0.15-0.826,0.452-1.078,0.883c-0.554,0.948-0.24,2.165,0.703,2.727c0.626,0.374,1.272,0.747,1.926,1.125
		c1.99,1.151,4.03,2.331,5.782,3.669C87.171,51.222,83.452,53.802,82.298,54.391z"/>
</g>
</svg>
