<?xml version="1.0" encoding="iso-8859-1"?>
<!-- Generator: Adobe Illustrator 17.0.2, SVG Export Plug-In . SVG Version: 6.00 Build 0)  -->
<!DOCTYPE svg PUBLIC "-//W3C//DTD SVG 1.1//EN" "http://www.w3.org/Graphics/SVG/1.1/DTD/svg11.dtd">
<svg version="1.1" id="Capa_1" xmlns="http://www.w3.org/2000/svg" xmlns:xlink="http://www.w3.org/1999/xlink" x="0px" y="0px"
	 width="100px" height="100px" viewBox="0 0 100 100" style="enable-background:new 0 0 100 100;" xml:space="preserve">
<g>
	<path d="M47.807,69.441c-1.181,0.346-2.133,1.23-2.832,2.629c-0.716,1.437-0.949,2.707-0.712,3.883
		c0.157,0.778,0.492,1.612,0.896,2.231c1.069,1.641,2.844,2.582,4.868,2.582c1.094,0,2.208-0.275,3.223-0.795
		c1.622-0.833,2.786-2.296,3.113-3.917c0.285-1.407-0.087-2.813-1.046-3.958C53.555,69.991,50.167,68.75,47.807,69.441z
		 M52.144,75.159c-0.019,0.244-0.343,0.673-1.022,1.079c-0.844,0.505-1.922,0.276-2.442-0.52c-0.291-0.445-0.259-1.251,0.068-1.759
		c0.098-0.152,0.246-0.292,0.67-0.292c0.227,0,0.504,0.042,0.824,0.126c0.554,0.145,1.075,0.412,1.507,0.771
		C51.904,74.695,52.161,74.944,52.144,75.159z"/>
	<path d="M44.294,33.232c-0.406,0-0.792,0.095-1.128,0.275c-1.092,0.268-1.824,1.176-1.845,2.32
		c-0.103,5.886,0.881,11.713,1.833,17.348c0.688,4.076,1.4,8.29,1.684,12.458c0.055,0.807,0.461,1.5,1.121,1.923
		c0.437,0.406,0.998,0.62,1.634,0.62h4.246c1.088,0,1.969-0.647,2.289-1.665c0.172-0.305,0.279-0.635,0.316-0.985
		c0.408-3.804,0.858-7.603,1.307-11.401c0.676-5.713,1.375-11.622,1.916-17.455c0.062-0.672-0.131-1.294-0.546-1.749
		c-0.429-0.471-1.075-0.741-1.772-0.742c-0.1-0.025-0.204-0.044-0.313-0.058c-3.522-0.429-7.094-0.727-10.618-0.885L44.294,33.232z
		 M52.521,38.782c-0.502,5.074-1.107,10.207-1.693,15.18c-0.365,3.094-0.729,6.188-1.072,9.285h-0.191
		c-0.35-3.501-0.939-7.001-1.51-10.396c-0.802-4.77-1.629-9.69-1.782-14.583C48.349,38.392,50.442,38.564,52.521,38.782z"/>
	<path d="M52.978,9.756c-0.151-0.5-0.442-0.942-0.82-1.302c-0.593-0.691-1.368-0.964-2.14-0.933
		c-0.773-0.031-1.547,0.242-2.14,0.933c-0.379,0.36-0.67,0.802-0.821,1.302c-0.386,1.282-1.532,2.663-2.21,3.822
		c-0.763,1.305-1.541,2.601-2.315,3.9c-1.546,2.594-3.118,5.173-4.698,7.746c-3.159,5.147-6.391,10.249-9.553,15.394
		c-6.321,10.285-12.527,20.619-18.04,31.365c-1.547,3.015-3.109,6.054-4.469,9.158c-1.063,2.426-5.625,8.998-0.067,9.578
		c29.196,3.043,58.43-0.603,87.663-0.834c1.871-0.015,2.801-1.428,2.833-2.878c0.121-0.588,0.074-1.234-0.21-1.896
		C84.534,58.412,67.343,34.874,52.978,9.756z M10.541,85.172C21.366,61.04,36.679,39.38,50.018,16.616
		c13.115,22.382,28.144,43.692,38.934,67.338C62.804,84.439,36.659,87.246,10.541,85.172z"/>
</g>
</svg>
