<?xml version="1.0" encoding="utf-8"?>
<!-- Generator: Adobe Illustrator 17.0.2, SVG Export Plug-In . SVG Version: 6.00 Build 0)  -->
<!DOCTYPE svg PUBLIC "-//W3C//DTD SVG 1.1//EN" "http://www.w3.org/Graphics/SVG/1.1/DTD/svg11.dtd">
<svg version="1.1" id="Capa_1" xmlns="http://www.w3.org/2000/svg" xmlns:xlink="http://www.w3.org/1999/xlink" x="0px" y="0px"
	 width="100px" height="100px" viewBox="0 0 100 100" enable-background="new 0 0 100 100" xml:space="preserve">
<g>
	<path fill="#1D1D1B" d="M84.686,9.632c-0.054-1.069-0.7-2.024-2.124-2.239c-21.842-3.288-45.074,0.941-59.464,19.02
		C9.271,43.787,9.357,67.635,16.271,87.788c0.092,0.269,0.216,0.499,0.354,0.711c0.263,1.11,1.085,2.092,2.519,2.281
		c9.577,1.261,19.619,0.988,29.069-1.263c0.152-0.009,0.302-0.006,0.453-0.017c0.48-0.035,0.879-0.187,1.216-0.403
		c10.749-2.852,20.638-8.343,28.064-17.179C92.813,54.23,92.352,30.62,84.798,9.864C84.766,9.777,84.722,9.711,84.686,9.632z
		 M79.68,12.876c1.16,3.234,2.131,6.6,2.873,10.032c-4.444-5.305-10.461-8.797-17.238-10.635
		C70.139,12.019,74.989,12.248,79.68,12.876z M21.577,85.141c-0.699-2.127-1.314-4.28-1.843-6.45
		c2.701,2.84,5.841,5.161,9.289,6.925C26.542,85.568,24.055,85.409,21.577,85.141z M43.405,84.495
		c-11.108-0.823-20.58-6.958-25.576-17.411c-0.159-1.919-0.226-3.838-0.216-5.751c6.961,11.632,18.672,19.238,32.036,21.678
		C47.601,83.613,45.517,84.107,43.405,84.495z M72.709,69.04c-3.829,4.093-8.163,7.323-12.834,9.813
		c-18.373,0.233-35.205-9.689-41.402-27.362c1.266-7.217,3.969-14.178,8.485-20.515c2.499-3.507,5.442-6.445,8.702-8.885
		c9.749-0.391,19.751,0.356,28.758,4.361c10.066,4.475,15.865,13.253,17.838,23.88c0.049,0.266,0.137,0.488,0.24,0.692
		C80.772,57.598,77.64,63.768,72.709,69.04z M84.132,39.558C80.86,32.35,75.47,26.507,67.994,22.639
		c-7.255-3.754-15.517-5.227-23.739-5.564c1.052-0.469,2.123-0.897,3.207-1.295c0.169,0.033,0.347,0.053,0.538,0.053
		c0.209,0,0.403-0.023,0.585-0.062c0.226,0.054,0.472,0.081,0.749,0.062c15.211-1.052,29.984,4.421,34.589,20.165
		c0.063,0.216,0.149,0.405,0.248,0.579C84.185,37.573,84.166,38.566,84.132,39.558z"/>
	<path fill="#1D1D1B" d="M64.784,37.016c0.681-0.918,1.364-1.834,2.042-2.755c1.915-2.6-2.427-5.09-4.317-2.524
		c-0.601,0.816-1.207,1.628-1.811,2.442c-0.581-0.35-1.164-0.695-1.769-1.006c-2.862-1.472-5.392,2.842-2.524,4.317
		c0.436,0.224,0.855,0.474,1.277,0.718c-0.9,1.194-1.806,2.384-2.716,3.57c-0.569-0.423-1.137-0.847-1.704-1.272
		c-1.093-0.82-2.791-0.178-3.42,0.897c-0.748,1.277-0.191,2.605,0.897,3.42c0.393,0.294,0.786,0.587,1.179,0.88
		c-1.189,1.515-2.391,3.021-3.603,4.518c-0.685-0.46-1.367-0.925-2.053-1.382c-2.691-1.794-5.192,2.538-2.524,4.317
		c0.463,0.309,0.923,0.624,1.386,0.933c-1.192,1.427-2.405,2.837-3.624,4.242c-0.746-0.497-1.493-0.995-2.239-1.493
		c-2.691-1.794-5.192,2.539-2.524,4.317c0.471,0.314,0.942,0.628,1.413,0.942c-0.641,0.709-1.268,1.43-1.919,2.132
		c-2.189,2.36,1.339,5.904,3.536,3.536c0.875-0.944,1.72-1.912,2.579-2.87c1.131,0.754,2.261,1.508,3.392,2.261
		c2.691,1.794,5.192-2.539,2.524-4.317c-0.861-0.574-1.722-1.148-2.583-1.722c1.201-1.394,2.399-2.789,3.575-4.203
		c1.057,0.738,2.117,1.472,3.151,2.242c1.096,0.816,2.789,0.181,3.42-0.897c0.746-1.274,0.194-2.609-0.897-3.42
		c-0.823-0.612-1.668-1.192-2.506-1.783c1.185-1.47,2.362-2.946,3.527-4.432c0.918,0.639,1.843,1.268,2.789,1.866
		c2.734,1.729,5.24-2.599,2.524-4.317c-0.763-0.482-1.512-0.983-2.256-1.493c0.937-1.223,1.87-2.45,2.797-3.681
		c0.597,0.465,1.184,0.943,1.762,1.434c2.441,2.075,5.996-1.445,3.536-3.536C66.343,38.255,65.569,37.629,64.784,37.016z"/>
</g>
</svg>
