<?xml version="1.0" encoding="iso-8859-1"?>
<!-- Generator: Adobe Illustrator 17.0.2, SVG Export Plug-In . SVG Version: 6.00 Build 0)  -->
<!DOCTYPE svg PUBLIC "-//W3C//DTD SVG 1.1//EN" "http://www.w3.org/Graphics/SVG/1.1/DTD/svg11.dtd">
<svg version="1.1" id="Capa_1" xmlns="http://www.w3.org/2000/svg" xmlns:xlink="http://www.w3.org/1999/xlink" x="0px" y="0px"
	 width="100px" height="100px" viewBox="0 0 100 100" style="enable-background:new 0 0 100 100;" xml:space="preserve">
<g>
	<path style="fill:#1D1D1B;" d="M9.615,46.841c3.297-0.116,6.364-2.375,6.935-5.294c0.043-0.218,0.066-0.44,0.08-0.665
		c2.521-1.164,5.038-2.338,7.529-3.566c1.458,1.137,3.349,1.8,5.107,1.738c0.542-0.019,1.075-0.101,1.594-0.229
		c4.752,5.032,9.5,10.068,14.123,15.221c-0.302,0.689-0.495,1.4-0.514,2.043c-0.116,3.802,4.027,6.675,7.612,6.549
		c3.297-0.116,6.364-2.375,6.935-5.294c0.25-1.279,0.021-2.685-0.877-4.093c-0.003-0.006-0.009-0.011-0.012-0.017
		c1.549-6.342,2.952-12.719,4.49-19.064c0.261,0.021,0.522,0.032,0.779,0.023c1.131-0.04,2.233-0.337,3.218-0.821
		c2.703,1.527,5.256,3.283,7.795,5.063c-0.105,0.386-0.181,0.768-0.192,1.126c-0.116,3.802,4.026,6.675,7.612,6.549
		c3.297-0.116,6.364-2.375,6.935-5.294c0.25-1.279,0.021-2.685-0.877-4.093c-1.894-2.968-7.521-3.689-10.557-2.213
		c-0.123,0.06-0.241,0.145-0.362,0.222c-2.301-1.612-4.613-3.206-7.028-4.642c0.174-0.382,0.309-0.779,0.389-1.191
		c0.25-1.279,0.021-2.685-0.877-4.093c-1.895-2.968-7.521-3.689-10.557-2.213c-1.649,0.801-3.057,3.212-3.113,5.051
		c-0.06,1.971,1.028,3.687,2.585,4.87c-1.47,6.038-2.814,12.105-4.269,18.146c-2.011-0.528-4.276-0.473-5.967,0.151
		c-4.357-4.856-8.822-9.613-13.302-14.357c0.686-0.783,1.176-1.698,1.371-2.694c0.25-1.279,0.022-2.685-0.877-4.093
		c-1.895-2.968-7.521-3.689-10.557-2.213c-1.648,0.801-3.057,3.212-3.113,5.051c-0.01,0.336,0.023,0.662,0.076,0.982
		c-2.221,1.092-4.463,2.142-6.71,3.181c-2.307-2.294-7.16-2.762-9.905-1.428c-1.649,0.801-3.057,3.212-3.114,5.051
		C1.886,44.094,6.029,46.967,9.615,46.841z M78.476,39.361c0.191-0.187,0.353-0.407,0.479-0.653
		c1.616-1.198,6.996,0.429,5.328,2.447c-0.048,0.058-0.102,0.116-0.162,0.175C82.675,42.745,77.775,41.312,78.476,39.361z
		 M60.291,27c1.25-1.583,7.315,0.115,5.558,2.239c-0.048,0.058-0.102,0.116-0.162,0.175C64.133,30.935,58.58,29.166,60.291,27z
		 M48.976,55.446c1.25-1.583,7.315,0.115,5.558,2.239c-0.048,0.058-0.102,0.116-0.161,0.175
		C52.819,59.381,47.265,57.611,48.976,55.446z M26.162,31.863c1.25-1.583,7.315,0.115,5.558,2.239
		c-0.048,0.058-0.102,0.116-0.161,0.175C30.005,35.797,24.451,34.028,26.162,31.863z M6.51,39.649
		c1.251-1.583,7.315,0.115,5.559,2.239c-0.048,0.058-0.102,0.116-0.161,0.175C10.353,43.584,4.799,41.815,6.51,39.649z"/>
	<path style="fill:#1D1D1B;" d="M84.188,56.344c-0.133,0.06-0.26,0.145-0.39,0.222c-2.483-1.612-4.978-3.206-7.583-4.642
		c0.187-0.382,0.333-0.779,0.42-1.191c0.27-1.279,0.023-2.685-0.946-4.093c-2.044-2.968-8.115-3.689-11.39-2.213
		c-1.779,0.801-3.299,3.212-3.359,5.051c-0.065,1.971,1.109,3.687,2.79,4.87c-1.586,6.038-3.036,12.105-4.606,18.146
		c-2.17-0.528-4.613-0.473-6.438,0.151c-4.702-4.856-9.519-9.613-14.352-14.357c0.74-0.783,1.268-1.699,1.479-2.694
		c0.27-1.279,0.023-2.685-0.946-4.093c-2.044-2.968-8.114-3.689-11.391-2.213c-1.779,0.801-3.298,3.212-3.359,5.051
		c-0.011,0.336,0.025,0.662,0.083,0.982c-2.397,1.092-4.815,2.142-7.24,3.181c-2.49-2.294-7.726-2.762-10.687-1.428
		c-1.779,0.801-3.298,3.212-3.36,5.051c-0.125,3.802,4.344,6.675,8.213,6.549c3.558-0.116,6.866-2.375,7.483-5.294
		c0.046-0.218,0.071-0.44,0.086-0.665c2.721-1.164,5.436-2.338,8.124-3.566c1.573,1.137,3.613,1.8,5.511,1.738
		c0.584-0.019,1.16-0.101,1.719-0.229c5.128,5.032,10.251,10.068,15.238,15.22c-0.326,0.689-0.534,1.4-0.555,2.043
		c-0.125,3.802,4.344,6.675,8.213,6.549c3.558-0.116,6.866-2.375,7.483-5.294c0.27-1.279,0.023-2.685-0.947-4.093
		c-0.004-0.006-0.01-0.011-0.014-0.017c1.672-6.342,3.186-12.719,4.844-19.064c0.282,0.021,0.563,0.032,0.841,0.023
		c1.221-0.04,2.409-0.337,3.472-0.821c2.916,1.527,5.671,3.283,8.411,5.063c-0.114,0.386-0.195,0.768-0.207,1.126
		c-0.125,3.802,4.344,6.675,8.213,6.549c3.558-0.116,6.866-2.375,7.483-5.294c0.27-1.279,0.023-2.685-0.946-4.093
		C93.535,55.59,87.464,54.869,84.188,56.344z M13.773,63.725c-0.052,0.058-0.11,0.116-0.174,0.175
		c-1.677,1.521-7.669-0.248-5.823-2.414C9.125,59.903,15.669,61.6,13.773,63.725z M34.977,55.938
		c-0.052,0.058-0.11,0.116-0.174,0.175c-1.677,1.521-7.668-0.248-5.823-2.414C30.329,52.116,36.872,53.814,34.977,55.938z
		 M59.593,79.521c-0.052,0.058-0.11,0.116-0.174,0.175c-1.677,1.521-7.669-0.248-5.823-2.414
		C54.945,75.699,61.488,77.397,59.593,79.521z M71.801,51.075c-0.052,0.058-0.11,0.116-0.174,0.175
		c-1.677,1.521-7.669-0.248-5.823-2.414C67.153,47.253,73.696,48.951,71.801,51.075z M91.69,62.992
		c-0.052,0.058-0.11,0.116-0.174,0.175c-1.561,1.415-6.848-0.019-6.091-1.969c0.206-0.187,0.38-0.407,0.517-0.653
		C87.686,59.347,93.49,60.974,91.69,62.992z"/>
</g>
</svg>
