<?xml version="1.0" encoding="utf-8"?>
<!-- Generator: Adobe Illustrator 17.0.2, SVG Export Plug-In . SVG Version: 6.00 Build 0)  -->
<!DOCTYPE svg PUBLIC "-//W3C//DTD SVG 1.1//EN" "http://www.w3.org/Graphics/SVG/1.1/DTD/svg11.dtd">
<svg version="1.1" id="Capa_1" xmlns="http://www.w3.org/2000/svg" xmlns:xlink="http://www.w3.org/1999/xlink" x="0px" y="0px"
	 width="100px" height="100px" viewBox="0 0 100 100" enable-background="new 0 0 100 100" xml:space="preserve">
<g>
	<path fill="#1D1D1B" d="M85.282,44.722c-1.352-2.145-3.647-2.383-5.449-1.569c-0.857,0.349-1.625,0.956-2.168,1.783
		c-0.741,1.128-1.391,2.312-2.11,3.452c-0.242,0.241-0.473,0.508-0.676,0.834c-1.873,3.004-3.716,6.027-5.652,8.991
		c-2.308,2.251-1.327,7.381,2.923,7.533c1.563,0.056,3.126,0.094,4.689,0.125c0.738,5.033-0.5,7.158-4.852,12.565
		c-3.569,4.435-9.566,6.912-15.537,8.014c0.429-13.912,0.787-42.473,0.468-56.39c1.071-0.304,2.118-0.703,3.108-1.222
		c6.266-3.284,7.833-11.502,4.989-17.528c-2.803-5.94-9.008-8.224-15.04-7.258c-1.211-0.593-2.686-0.689-4.213,0.072
		c-7.419,3.702-9.406,11.975-5.93,19.159c1.631,3.371,4.433,5.557,7.649,6.632c0.329,14.184-0.046,43.011-0.485,57.189
		c-14.7-0.911-22.709-8.515-22.89-22.034c0.725,0.001,1.45,0.003,2.176,0.003c0.238,0,0.461-0.021,0.678-0.052
		c0.562,0.043,1.126,0.051,1.679,0.052c0.444,0,0.866-0.089,1.271-0.219c0.642-0.017,1.304-0.193,1.964-0.58
		c1.824-1.068,2.968-4.008,1.538-5.865c-3.632-4.718-7.111-9.537-10.288-14.575c-1.353-2.145-3.648-2.383-5.449-1.569
		c-0.857,0.349-1.625,0.956-2.168,1.783c-0.741,1.128-1.39,2.312-2.109,3.452c-0.243,0.241-0.473,0.508-0.677,0.834
		c-1.874,3.004-3.716,6.027-5.652,8.991c-2.308,2.251-1.327,7.381,2.923,7.533c1.554,0.055,3.107,0.094,4.662,0.124
		c0.078,20.176,13.701,31.428,34.922,31.616c10.506,0.093,23.103-4.065,29.829-12.422c5.716-7.102,7.567-11.561,6.845-18.222
		c0.729,0.001,1.459,0.003,2.189,0.003c0.238,0,0.462-0.021,0.679-0.052c0.562,0.043,1.126,0.051,1.679,0.052
		c0.444,0,0.866-0.089,1.271-0.219c0.642-0.017,1.304-0.193,1.964-0.58c1.824-1.068,2.968-4.008,1.538-5.865
		C91.938,54.579,88.459,49.76,85.282,44.722z M17.768,56.461c0.559-0.9,1.117-1.801,1.676-2.701c0.63,0.911,1.265,1.818,1.911,2.718
		C20.159,56.472,18.963,56.475,17.768,56.461z M48.247,14.19c0.367-0.04,0.75-0.122,1.15-0.264c2.919-1.034,5.553-1.105,6.979,1.175
		c1.142,1.826,0.858,3.856-0.625,5.293C51.769,24.251,45.606,18.269,48.247,14.19z M82.616,57.36
		c-0.588-0.124-1.215-0.125-1.839-0.009c-0.284-0.002-0.568-0.001-0.854-0.004c0.56-0.9,1.118-1.801,1.677-2.701
		c0.63,0.911,1.265,1.818,1.911,2.718C83.213,57.363,82.915,57.361,82.616,57.36z"/>
</g>
</svg>
