<?xml version="1.0" encoding="utf-8"?>
<!-- Generator: Adobe Illustrator 17.0.2, SVG Export Plug-In . SVG Version: 6.00 Build 0)  -->
<!DOCTYPE svg PUBLIC "-//W3C//DTD SVG 1.1//EN" "http://www.w3.org/Graphics/SVG/1.1/DTD/svg11.dtd">
<svg version="1.1" id="Capa_1" xmlns="http://www.w3.org/2000/svg" xmlns:xlink="http://www.w3.org/1999/xlink" x="0px" y="0px"
	 width="100px" height="100px" viewBox="0 0 100 100" enable-background="new 0 0 100 100" xml:space="preserve">
<g>
	<path fill="#1D1D1B" d="M67.985,13.761c1.264-1.22,2.474-2.49,3.596-3.846c0.694-0.839,0.825-2.003,0-2.828
		c-0.716-0.716-2.133-0.841-2.829,0c-1.208,1.462-2.521,2.822-3.891,4.128c-4.303-2.918-9.645-4.385-15.953-3.797
		c-3.722,0.347-7.224,1.451-10.347,3.148c-0.979-1.277-1.913-2.589-2.835-3.907c-0.624-0.891-1.738-1.303-2.736-0.718
		c-0.883,0.517-1.344,1.842-0.718,2.736c0.959,1.37,1.941,2.72,2.951,4.051c-0.455-0.6-6.384,6.923-6.815,7.661
		c-1.254,2.147-5.44,10.384-2.841,12.414c1.11,0.867,3.315,0.257,4.656,0.263c2.088,0.009,4.178,0.084,6.265,0.137
		c4.285,0.109,8.569,0.253,12.854,0.382c8.439,0.253,16.881,0.482,25.324,0.418c1.029-0.008,1.641-0.652,1.849-1.419
		c0.24-0.395,0.356-0.882,0.247-1.446C75.416,24.186,72.444,18.064,67.985,13.761z M29.304,29.046
		c1.758-9.569,9.919-16.336,19.605-17.63C61.714,9.707,69.542,18.724,72.412,30C58.036,30.024,43.675,29.291,29.304,29.046z"/>
	<path fill="#1D1D1B" d="M74.667,36c-15.667-0.007-31.333-0.16-47-0.167c-1.069,0-1.688,0.688-1.871,1.492
		c-0.254,0.301-0.426,0.692-0.462,1.175c-0.753,9.987-0.237,20.002-0.667,30c-0.008,0.182,0.009,0.347,0.04,0.503
		c0.003,0.118,0.008,0.237,0.032,0.362c0.906,4.75,4.791,7.674,9.567,7.36c-0.688,0.045,0.036,11.775,0.111,12.508
		c0.263,2.564,0.893,5.45,3.542,6.525c3.05,1.238,6.665-0.497,8.667-2.821c3.61-4.189,3.288-10.537,2.984-15.697
		c0.987-0.041,1.977-0.055,2.965-0.061c-0.682,0.005-0.536,11.087-0.301,12.164c1.05,4.816,5.643,8.251,10.42,6.414
		c4.653-1.79,5.688-6.219,5.476-10.718c-0.12-2.543-0.19-5.171-0.483-7.698c1.569-0.139,3.099-0.581,4.393-1.527
		c2.181-1.595,3.016-4.048,3.253-6.647c0.01-0.113,0.002-0.215,0-0.333c0.804-10.039,1.135-20.094,1.163-30.163
		C76.857,37.506,76.25,36.001,74.667,36z M71.333,68.833c-0.009,0.107,0,0.204,0.006,0.302c-0.001,0.011-0.005,0.02-0.006,0.031
		c-0.327,3.575-2.934,4.451-6.167,4.167c-1.814-0.159-2.331,1.784-1.585,3.022c0.691,5.439,2.948,14.555-3.85,16.122
		c-6.607-2.049-3.161-12.029-3.064-17.144c0.029-1.501-1.312-2.121-2.449-1.875c-1.86,0.401-4.412-0.292-6.384-0.125
		c-0.144,0.012-0.284,0.038-0.42,0.072c-1.006-0.009-1.982,0.631-1.913,1.928c0.257,4.785,2.379,15.932-4.667,16.667
		c-0.059,0.006-0.11,0.024-0.167,0.034c-5.134-2.691-2.209-12.95-2.333-17.534c-0.034-1.231-0.967-1.869-1.923-1.923
		c-0.24-0.045-0.497-0.055-0.775-0.006c-1.522,0.27-3.228,0.398-4.664-0.29c-1.463-0.701-2.008-2.209-2.317-3.696
		c0.002-0.03,0.011-0.055,0.012-0.085c0.411-9.552-0.03-19.119,0.585-28.661c14.411,0.015,28.821,0.135,43.231,0.154
		C72.431,49.619,72.102,59.234,71.333,68.833z"/>
	<path fill="#1D1D1B" d="M89.42,33.807c-0.154-0.207-0.349-0.39-0.578-0.534c-1.187-0.747-2.592-1.054-3.983-0.955
		c-0.218-0.083-0.45-0.139-0.693-0.152c-2.988-0.159-5.416,1.653-5.928,4.635c-0.029,0.166-0.037,0.331-0.034,0.494
		c-0.122,0.248-0.198,0.536-0.204,0.871c-0.151,7.734-0.12,15.452,0.5,23.167c0.001,0.02,0.008,0.036,0.01,0.056
		c-0.005,0.091-0.016,0.179-0.01,0.278c0.134,2.123,0.759,4.158,2.548,5.453c1.603,1.159,3.621,1.158,5.489,0.835
		c0.047-0.005,0.095-0.015,0.142-0.023c0.006-0.001,0.012-0.002,0.019-0.003c0.003-0.001,0.006-0.002,0.009-0.003
		c0.215-0.039,0.43-0.101,0.636-0.199c1.941-0.918,3.144-2.808,3.586-4.862c0.03-0.138,0.045-0.277,0.05-0.414
		c0.005-0.04,0.018-0.076,0.021-0.118c0.747-9.177,1.844-18.779-1.071-27.698C89.815,34.288,89.636,34.019,89.42,33.807z
		 M87.165,60.857c-0.056,0.308-0.129,0.677-0.234,1.054c-0.3,1.078-0.861,2.228-2.031,2.247c-4.433,0.072-2.842-17.238-2.941-20.141
		c-0.067-1.963-0.853-5.796,0.778-7.367c4.248-4.093,4.877,6.942,4.975,8.547C88.019,50.214,88.063,55.9,87.165,60.857z"/>
	<path fill="#1D1D1B" d="M13.48,33.714c-4.28,1.912-3.915,6.613-3.948,10.55c-0.051,6.026,0.145,12.06,0.591,18.069
		c0.001,0.02,0.008,0.036,0.01,0.056c-0.005,0.091-0.016,0.179-0.01,0.277c0.485,7.63,10.743,9.036,12.429,1.199
		c0.03-0.138,0.045-0.277,0.05-0.414c0.005-0.04,0.018-0.076,0.021-0.118c0.747-9.177,1.844-18.779-1.071-27.698
		C20.383,32.057,16.138,32.527,13.48,33.714z M18.657,62.939c-0.07,0.301-0.146,0.597-0.249,0.89
		c-0.014,0.028-0.027,0.057-0.047,0.1c-0.087,0.182-0.195,0.352-0.303,0.522c-0.135,0.195-0.152,0.218-0.05,0.067
		c-0.116,0.138-0.251,0.259-0.385,0.379c-0.029,0.019-0.067,0.046-0.122,0.083c-0.049,0.033-0.105,0.054-0.157,0.083
		c-0.029,0.004-0.057,0.004-0.085,0.009c-0.954,0.175-1.729,0.136-2.39-0.277c-0.412-0.258-0.693-1.31-0.745-2.128
		c-0.001-0.012-0.005-0.022-0.006-0.035c0.005-0.097,0.015-0.192,0.006-0.298c-0.489-5.939-0.351-11.835-0.536-17.777
		c-0.058-1.853-0.832-5.588,0.85-6.997c4.411-3.695,4.81,7.152,4.922,8.882C19.719,51.947,19.11,57.456,18.657,62.939z"/>
	<path fill="#1D1D1B" d="M39.667,19.667c-2.579,0-2.579,4,0,4C42.246,23.667,42.246,19.667,39.667,19.667z"/>
	<path fill="#1D1D1B" d="M62.5,19.5c-2.58,0-2.58,4,0,4S65.08,19.5,62.5,19.5z"/>
</g>
</svg>
