<?xml version="1.0" encoding="iso-8859-1"?>
<!-- Generator: Adobe Illustrator 17.0.2, SVG Export Plug-In . SVG Version: 6.00 Build 0)  -->
<!DOCTYPE svg PUBLIC "-//W3C//DTD SVG 1.1//EN" "http://www.w3.org/Graphics/SVG/1.1/DTD/svg11.dtd">
<svg version="1.1" id="Capa_1" xmlns="http://www.w3.org/2000/svg" xmlns:xlink="http://www.w3.org/1999/xlink" x="0px" y="0px"
	 width="100px" height="100px" viewBox="0 0 100 100" style="enable-background:new 0 0 100 100;" xml:space="preserve">
<g>
	<path style="fill:#1E1E1C;" d="M84.883,67.823c-4.964-2.449-8.108-7.113-8.628-12.795c-0.558-6.089,2.029-11.902,6.919-15.549
		c0.684-0.51,1.091-1.214,1.177-2.037c0.091-0.871-0.202-1.786-0.755-2.41c-0.105-0.146-0.225-0.29-0.371-0.428
		c-4.784-4.52-10.797-7.008-16.931-7.008l-0.26,0.001c-2.923,0.033-5.856,0.744-8.693,1.431c-2.869,0.695-5.835,1.414-8.751,1.414
		h-0.001c-1.197,0-2.305-0.117-3.384-0.356c-7.007-4.038-13.199-4.923-18.347-2.64c-5.014,2.225-8.753,7.146-11.114,14.626
		c-2.059,6.515-2.603,14.31-1.574,22.538c1.254,10.045,6.119,17.735,11.189,24.55c0.29,0.39,0.657,0.691,1.091,0.899
		c0.096,0.094,0.196,0.185,0.312,0.27c2.503,1.832,5.307,2.686,8.822,2.686c2.275,0,4.618-0.356,6.885-0.701
		c2.261-0.345,4.598-0.7,6.86-0.7c1.314,0,2.496,0.117,3.612,0.358c1.389,0.299,2.665,0.839,3.9,1.36
		c1.868,0.79,3.801,1.606,6.142,1.606c0.001,0,0.001,0,0.001,0c0.224,0,0.449-0.007,0.681-0.022c3.25-0.217,6.562-1.751,9.843-4.561
		c5.874-5.026,9.5-12.166,12.438-18.466c0.16-0.344,0.254-0.703,0.278-1.069C86.589,69.579,86.067,68.407,84.883,67.823z
		 M70.788,56.573c0.722,6.311,3.958,11.589,9.132,14.914c-4.446,9.306-9.856,17.832-19.038,18.017
		c-3.484-2.44-7.021-3.578-11.116-3.578c-0.885,0-1.812,0.056-2.756,0.165c-1.468,0.171-2.921,0.453-4.326,0.726
		c-2.176,0.422-4.231,0.821-6.265,0.821c-2.606,0-4.742-0.675-6.727-2.127c-0.026-0.02-0.053-0.036-0.084-0.054
		c-4.716-6.407-8.134-12.116-9.492-19.108c-1.139-5.858-1.118-12.319,0.059-18.684c1.251-6.756,3.672-11.491,7.195-14.075
		c1.569-1.15,3.315-1.709,5.337-1.709c2.877,0,5.826,1.188,7.794,2.081c2.978,1.352,6.371,2.066,9.815,2.066
		c3.657,0,7.281-0.795,10.48-2.3c0.077-0.036,0.144-0.076,0.243-0.139c5.758-1.517,11.562-0.268,16.436,3.512
		C72.474,42.265,69.979,49.501,70.788,56.573z"/>
	<path style="fill:#1E1E1C;" d="M49.996,26.995c0.592,0,1.15-0.158,1.622-0.459C68.909,22.839,73.587,13.723,74.466,6.72
		c0.122-0.972-0.222-1.593-0.53-1.944c-0.463-0.523-1.188-0.823-1.993-0.823c-0.396,0-0.803,0.074-1.086,0.182
		c-0.117,0-0.235,0.004-0.359,0.021c-10.52,1.479-19.174,8.714-23.15,19.356c-0.312,0.834-0.234,1.652,0.218,2.304
		C48.069,26.543,49.001,26.995,49.996,26.995z M55.602,19.603c2.949-4.319,7.076-7.407,12.046-9.01
		C65.737,14.513,61.693,17.538,55.602,19.603z"/>
</g>
</svg>
