<?xml version="1.0" encoding="iso-8859-1"?>
<!-- Generator: Adobe Illustrator 17.0.2, SVG Export Plug-In . SVG Version: 6.00 Build 0)  -->
<!DOCTYPE svg PUBLIC "-//W3C//DTD SVG 1.1//EN" "http://www.w3.org/Graphics/SVG/1.1/DTD/svg11.dtd">
<svg version="1.1" id="Capa_1" xmlns="http://www.w3.org/2000/svg" xmlns:xlink="http://www.w3.org/1999/xlink" x="0px" y="0px"
	 width="100px" height="100px" viewBox="0 0 100 100" style="enable-background:new 0 0 100 100;" xml:space="preserve">
<g>
	<path style="fill:#1D1D1B;" d="M65.341,47.146c-11.138-0.329-22.269,0.186-33.408,0.229c-0.87,0.003-1.51,0.358-1.93,0.877
		c-0.531,0.419-0.896,1.065-0.896,1.949c0.001,2.973,0.021,5.944,0.218,8.912c0.106,1.612,1.378,2.442,2.639,2.501
		c0.353,0.198,0.771,0.325,1.273,0.325c11.231,0,22.461,0.013,33.69,0.217c0.608,0.011,1.103-0.154,1.491-0.426
		c0.698-0.386,1.185-1.11,1.117-2.182c-0.209-3.333-0.43-6.666-0.652-9.998C68.75,47.543,66.817,46.744,65.341,47.146z
		 M34.444,56.723c-0.052-1.383-0.058-2.769-0.076-4.153c9.829-0.093,19.653-0.467,29.481-0.241c0.1,1.526,0.2,3.052,0.299,4.579
		C54.247,56.754,44.346,56.725,34.444,56.723z"/>
	<path style="fill:#1D1D1B;" d="M90.376,28.217c0.009-0.305-0.039-0.634-0.176-0.989c-1.729-4.492-3.503-8.957-6.131-13.012
		c-0.597-0.92-1.481-1.252-2.338-1.192c-0.177-0.049-0.366-0.084-0.567-0.1c-20.403-1.55-40.854-1.003-61.294-0.978
		c-1.226,0.002-2,0.698-2.332,1.579c-3.789,3.553-6.957,7.703-9.701,12.102c-0.091,0.145-0.155,0.289-0.214,0.433
		c-0.475,0.419-0.794,1.036-0.794,1.862c-0.001,3.05-0.042,6.09-0.326,9.129c-0.023,0.253-0.007,0.48,0.028,0.695
		c-0.01,0.094-0.028,0.184-0.028,0.283c0,1.31,1.191,2.756,2.608,2.608c1.521-0.159,3.044-0.238,4.568-0.28
		c0.066,16.8,0.859,28.679-0.33,45.599c-0.059,0.832,0.219,1.454,0.67,1.872c0.417,0.569,1.059,0.99,1.938,1.062
		c22.155,1.806,44.33,0.073,66.511,0c0.274-0.001,0.518-0.047,0.747-0.112c1.228-0.095,2.428-0.923,2.513-2.497
		c0.87-16.167,0.968-27.722,0.977-43.372c1.208-0.067,2.418-0.238,3.629-0.41c1.254-0.178,1.982-1.597,1.89-2.779
		c0.012-0.127,0.03-0.25,0.025-0.388c-0.131-3.725-0.66-7.222-1.723-10.8C90.49,28.411,90.424,28.325,90.376,28.217z M21.28,17.157
		c19.68-0.046,39.369-0.508,59.014,0.928c1.545,2.596,2.796,5.32,3.922,8.116c-23.009-2.576-46.166-2.742-69.282-1.761
		C16.826,21.831,18.907,19.377,21.28,17.157z M80.636,83.694c-20.66,0.149-41.315,1.596-61.953,0.175
		c0.978-16.055,0.293-26.912,0.218-42.984c20.823-0.625,41.626,0.579,62.444,0.996c0.047,0.044,0.092,0.089,0.142,0.13
		C81.481,57.621,81.399,68.071,80.636,83.694z M86.103,37.738c-0.415-0.583-1.076-0.999-2.004-1.014
		c-21.632-0.353-43.247-1.695-64.884-1.064c-0.406-0.344-0.944-0.566-1.627-0.566c-1.914,0-3.824,0.022-5.731,0.122
		c0.116-1.807,0.153-3.616,0.17-5.427c24.658-1.144,49.372-1.075,73.912,1.804c0.503,2.016,0.831,4.029,0.994,6.107
		C86.656,37.722,86.379,37.735,86.103,37.738z"/>
</g>
</svg>
