<?xml version="1.0" encoding="utf-8"?>
<!-- Generator: Adobe Illustrator 17.0.2, SVG Export Plug-In . SVG Version: 6.00 Build 0)  -->
<!DOCTYPE svg PUBLIC "-//W3C//DTD SVG 1.1//EN" "http://www.w3.org/Graphics/SVG/1.1/DTD/svg11.dtd">
<svg version="1.1" id="Capa_1" xmlns="http://www.w3.org/2000/svg" xmlns:xlink="http://www.w3.org/1999/xlink" x="0px" y="0px"
	 width="100px" height="100px" viewBox="0 0 100 100" enable-background="new 0 0 100 100" xml:space="preserve">
<g>
	<path fill="#1D1D1B" d="M88.057,54.699c-1.72-10.067-8.642-16.039-17.666-18.773c0.649,0.197,4.321-4.86,5.12-5.686
		c1.076,1.192,2.146,2.39,3.181,3.618c0.361,0.429,0.769,0.659,1.18,0.738c1.162,0.454,2.609,0.099,2.95-1.465
		c0.901-4.133,1.973-8.226,2.874-12.358c0.08-0.364,0.078-0.702,0.014-1.009c0.928-1.467-0.304-4.04-2.555-3.544
		c-4.009,0.884-7.916,2.08-11.784,3.449c-0.181,0.065-0.344,0.145-0.492,0.236c-1.363,0.488-2.349,2.408-1.098,3.895
		c0.863,1.025,1.75,2.028,2.645,3.024c-0.019,0.017-0.04,0.029-0.058,0.047c-1.825,1.846-3.367,3.942-5.208,5.783
		c-2.475-11.177-8.678-19.994-20.896-22.218c-13.008-2.368-26.443,1.582-39.523,1.392c-2.967-0.043-2.962,4.555,0,4.598
		c2.034,0.03,4.062-0.045,6.089-0.154c0.017,0.018,0.027,0.038,0.045,0.056l35.306,35.306l-4.455,4.455h-8.245
		c-2.966,0-2.966,4.598,0,4.598h7.614c0.654,2.674,1.171,5.374,1.665,8.084c0.531,2.914,4.962,1.676,4.434-1.223
		c-0.526-2.893-1.08-5.776-1.799-8.626c1.346-1.346,2.691-2.691,4.037-4.037l31.282,31.282c0.389,0.389,0.817,0.592,1.244,0.655
		c-0.03,2.215-0.012,4.426,0.095,6.629c0.143,2.951,4.742,2.966,4.599,0C88.031,80.603,90.233,67.445,88.057,54.699z M80.81,21.534
		c-0.467,2.047-0.95,4.089-1.436,6.131c-1.345-1.5-2.7-2.992-4.042-4.497C77.144,22.574,78.969,22.027,80.81,21.534z M18.883,15.83
		c7.107-0.65,14.199-1.571,21.348-1.393c14.084,0.35,20.843,9.08,23.011,22.134c-3.937,3.936-7.873,7.873-11.809,11.809
		L18.883,15.83z M84.12,81.067L54.685,51.632l11.948-11.948c10.26,2.364,16.204,8.338,17.412,19.234
		C84.856,66.237,84.404,73.662,84.12,81.067z"/>
</g>
</svg>
