<?xml version="1.0" encoding="iso-8859-1"?>
<!-- Generator: Adobe Illustrator 17.0.2, SVG Export Plug-In . SVG Version: 6.00 Build 0)  -->
<!DOCTYPE svg PUBLIC "-//W3C//DTD SVG 1.1//EN" "http://www.w3.org/Graphics/SVG/1.1/DTD/svg11.dtd">
<svg version="1.1" id="Capa_1" xmlns="http://www.w3.org/2000/svg" xmlns:xlink="http://www.w3.org/1999/xlink" x="0px" y="0px"
	 width="100px" height="100px" viewBox="0 0 100 100" style="enable-background:new 0 0 100 100;" xml:space="preserve">
<g>
	<path style="fill:#1D1D1B;" d="M90.243,45.398l-0.192-0.086L58.768,10.553c-0.675-0.75-1.442-1.13-2.281-1.13
		c-1.799,0-3.536,1.762-3.646,3.696l-0.056,0.298c-0.032,0.132-0.067,0.263-0.082,0.408c-0.458,4.43-0.554,8.755-0.587,12.403
		l-0.009,0.991H14.18c-2.12,0-2.914,1.389-3.199,2.216l-0.063,0.186l-0.129,0.147C10.265,30.366,10,31.119,10,32.008v34.465
		c0,0.889,0.265,1.643,0.788,2.24l0.129,0.147l0.063,0.186c0.285,0.828,1.079,2.217,3.199,2.217h37.928l0.009,0.991
		c0.033,3.647,0.129,7.973,0.587,12.399c0.015,0.147,0.05,0.278,0.082,0.41l0.056,0.3c0.109,1.934,1.847,3.695,3.646,3.695
		c0.838,0,1.605-0.381,2.281-1.131l31.283-34.76l0.192-0.086c1.469-0.659,2.47-2.251,2.381-3.784L92.62,49.24l0.004-0.058
		C92.713,47.649,91.712,46.058,90.243,45.398z M59.331,76.646l-0.042-2.543c-0.035-2.136-0.049-4.272-0.049-6.411
		c-0.001-2.361-1.795-3.419-3.573-3.419v-0.997l-0.023,0.997l-0.124,0.001L55.4,64.244c-0.343-0.084-0.645-0.123-0.95-0.123H17.142
		V34.36H54.45c0.307,0,0.607-0.039,0.948-0.123l0.121-0.029l0.124,0c1.802,0,3.596-1.057,3.597-3.419
		c0-2.138,0.014-4.275,0.049-6.411l0.042-2.543L83.995,49.24L59.331,76.646z"/>
</g>
</svg>
