<?xml version="1.0" encoding="iso-8859-1"?>
<!-- Generator: Adobe Illustrator 17.0.2, SVG Export Plug-In . SVG Version: 6.00 Build 0)  -->
<!DOCTYPE svg PUBLIC "-//W3C//DTD SVG 1.1//EN" "http://www.w3.org/Graphics/SVG/1.1/DTD/svg11.dtd">
<svg version="1.1" id="Capa_1" xmlns="http://www.w3.org/2000/svg" xmlns:xlink="http://www.w3.org/1999/xlink" x="0px" y="0px"
	 width="100px" height="100px" viewBox="0 0 100 100" style="enable-background:new 0 0 100 100;" xml:space="preserve">
<g>
	<path style="fill:#1D1D1B;" d="M77.081,31.212c-1.267-0.667-2.361-1.243-3.099-1.706c-5.365-3.364-11.128-6.673-17.128-9.836
		c-5.622-2.965-11.522-5.838-17.534-8.541c-1.558-0.7-3.054-1.581-4.638-2.513C32.07,7.08,29.369,5.49,26.254,4.678
		c-2.86-0.745-5.182-0.259-6.716,1.351c-2.045,2.147-2.164,5.633-2.012,8.759c0.256,5.216,0.318,10.55,0.379,15.709
		c0.029,2.481,0.059,4.961,0.107,7.439c0.092,4.565,0.141,9.129,0.189,13.692c0.127,11.805,0.258,24.011,1.154,36.038
		c0.03,0.401,0.11,0.797,0.245,1.202c0.368,2.349,2.162,4.027,4.351,4.027c0.588,0,1.188-0.12,1.782-0.354
		C37.261,87.983,48.91,81.25,61.348,71.956c5.29-3.954,10.698-8.322,16.073-12.984c0.987-0.856,2.304-1.779,3.696-2.758
		c3.721-2.61,7.938-5.57,9.298-9.527c0.525-1.529,0.755-3.926-1.135-6.664C86.686,36.268,81.135,33.346,77.081,31.212z
		 M78.956,44.518C66.399,56.061,48.323,71.402,28.684,80.661c-0.658-11.961-0.759-24.104-0.855-35.875
		c-0.076-9.252-0.155-18.789-0.504-28.231C47.047,24.854,64.792,34.465,78.956,44.518z"/>
</g>
</svg>
