<?xml version="1.0" encoding="iso-8859-1"?>
<!-- Generator: Adobe Illustrator 17.0.2, SVG Export Plug-In . SVG Version: 6.00 Build 0)  -->
<!DOCTYPE svg PUBLIC "-//W3C//DTD SVG 1.1//EN" "http://www.w3.org/Graphics/SVG/1.1/DTD/svg11.dtd">
<svg version="1.1" id="Capa_1" xmlns="http://www.w3.org/2000/svg" xmlns:xlink="http://www.w3.org/1999/xlink" x="0px" y="0px"
	 width="100px" height="100px" viewBox="0 0 100 100" style="enable-background:new 0 0 100 100;" xml:space="preserve">
<g>
	<path style="fill:#1D1D1B;" d="M41.724,52.294c-9.19,0.898-18.384,1.77-27.575,2.669c-1.463,0.143-2.278,1.247-2.444,2.399
		c-0.484,0.883-0.492,2.004,0.433,2.929c1.914,1.914,3.816,3.838,5.597,5.877c-2.523,2.68-9.562,9.621-12.541,11.801
		c-1.488,1.089-1.353,2.978-0.476,4.09c0.111,0.373,0.314,0.742,0.655,1.083c4.206,4.206,8.397,8.425,12.432,12.797
		c1.088,1.18,2.491,0.938,3.409,0.105c0.146-0.082,0.29-0.173,0.43-0.288c3.309-2.722,10.773-10.074,13.81-13.089
		c1.468,1.335,2.883,2.727,4.289,4.132c0.547,0.547,1.163,0.76,1.758,0.75c1.556,0.741,3.826,0.013,3.752-2.213
		c-0.336-10.237-0.185-20.474,0-30.713C45.291,52.519,43.253,51.746,41.724,52.294z M39.961,79.799
		c-0.847-0.793-1.707-1.574-2.595-2.325c-0.73-0.617-1.553-0.742-2.297-0.57c-0.641-0.051-1.315,0.16-1.908,0.753
		c-2.913,2.911-10.237,10.175-13.344,12.874c-3.165-3.366-6.412-6.653-9.675-9.924c3.082-2.51,10.277-9.674,12.964-12.638
		c1.314-1.449,0.586-3.308-0.689-4.094c-0.103-0.225-0.228-0.446-0.408-0.659c-1.029-1.216-2.108-2.385-3.211-3.532
		c7.078-0.687,14.157-1.366,21.235-2.055C39.91,65.019,39.834,72.409,39.961,79.799z"/>
	<path style="fill:#1D1D1B;" d="M93.622,16.571c-4.176-4.236-8.338-8.483-12.342-12.883c-1.08-1.187-2.484-0.956-3.409-0.129
		C77.726,3.64,77.581,3.73,77.44,3.844c-3.328,2.699-10.844,9.999-13.901,12.993c-1.459-1.346-2.864-2.747-4.26-4.161
		c-0.543-0.55-1.158-0.768-1.753-0.763c-1.551-0.752-3.825-0.039-3.768,2.187c0.266,10.239,0.042,20.475-0.214,30.712
		c-0.053,2.104,1.98,2.891,3.513,2.353c9.197-0.834,18.396-1.641,27.593-2.476c1.465-0.133,2.287-1.231,2.461-2.382
		c0.49-0.88,0.505-2-0.413-2.932c-1.9-1.928-3.79-3.865-5.556-5.916c2.541-2.663,9.628-9.554,12.623-11.713
		c1.496-1.079,1.374-2.968,0.504-4.087C94.161,17.285,93.96,16.915,93.622,16.571z M75.784,31.621
		c-1.325,1.44-0.609,3.304,0.661,4.099c0.101,0.225,0.225,0.448,0.403,0.662c1.02,1.224,2.092,2.399,3.187,3.554
		c-7.083,0.637-14.167,1.267-21.249,1.907c0.174-7.39,0.302-14.779,0.227-22.17c0.841,0.799,1.696,1.586,2.579,2.343
		c0.726,0.622,1.548,0.752,2.293,0.586c0.641,0.056,1.316-0.151,1.913-0.74c2.933-2.891,10.308-10.103,13.434-12.78
		c3.141,3.388,6.365,6.697,9.606,9.992C85.737,21.561,78.492,28.675,75.784,31.621z"/>
</g>
</svg>
