<?xml version="1.0" encoding="iso-8859-1"?>
<!-- Generator: Adobe Illustrator 17.0.2, SVG Export Plug-In . SVG Version: 6.00 Build 0)  -->
<!DOCTYPE svg PUBLIC "-//W3C//DTD SVG 1.1//EN" "http://www.w3.org/Graphics/SVG/1.1/DTD/svg11.dtd">
<svg version="1.1" id="Capa_1" xmlns="http://www.w3.org/2000/svg" xmlns:xlink="http://www.w3.org/1999/xlink" x="0px" y="0px"
	 width="100px" height="100px" viewBox="0 0 100 100" style="enable-background:new 0 0 100 100;" xml:space="preserve">
<g>
	<path style="fill:#1D1D1B;" d="M14.328,92.382c0.492,0.287,1.114,0.407,1.868,0.241c12.189-2.671,24.232-7.916,36.267-11.201
		c0.148,0.093,0.299,0.183,0.476,0.258c10.353,4.336,20.995,9.82,31.756,12.988c0.548,0.161,1.062,0.159,1.536,0.06
		c1.912-0.032,3.788-1.723,2.726-3.929c-13.32-27.676-25.307-55.946-36.24-84.646c-0.459-1.207-1.394-1.732-2.373-1.777
		c-1.232-0.319-2.556,0.114-3.056,1.707c-8.863,28.253-17.947,56.936-34.906,81.546C10.965,89.685,12.5,91.963,14.328,92.382z
		 M80.815,87.368c-8.639-2.67-17.183-7.601-25.534-11.098c-0.197-0.083-0.389-0.136-0.577-0.176
		c-0.088-17.078-0.029-32.156-0.21-49.233C62.662,47.288,71.4,67.478,80.815,87.368z M48.551,21.466
		c0.275,18.957,0.205,35.916,0.3,54.875c-9.332,2.54-18.675,7.023-28.093,9.216C33.243,65.72,41.347,43.72,48.551,21.466z"/>
</g>
</svg>
