<?xml version="1.0" encoding="iso-8859-1"?>
<!-- Generator: Adobe Illustrator 17.0.2, SVG Export Plug-In . SVG Version: 6.00 Build 0)  -->
<!DOCTYPE svg PUBLIC "-//W3C//DTD SVG 1.1//EN" "http://www.w3.org/Graphics/SVG/1.1/DTD/svg11.dtd">
<svg version="1.1" id="Capa_1" xmlns="http://www.w3.org/2000/svg" xmlns:xlink="http://www.w3.org/1999/xlink" x="0px" y="0px"
	 width="100px" height="100px" viewBox="0 0 100 100" style="enable-background:new 0 0 100 100;" xml:space="preserve">
<g>
	<path style="fill:#1D1D1B;" d="M90.397,29.621l-0.063-0.186c-0.285-0.828-1.079-2.216-3.199-2.216H49.207l-0.009-0.991
		c-0.03-3.425-0.125-7.929-0.586-12.399c-0.015-0.142-0.049-0.271-0.08-0.401l-0.058-0.308c-0.109-1.935-1.848-3.696-3.646-3.696
		c-0.839,0-1.606,0.38-2.281,1.13L11.265,45.312l-0.192,0.086c-1.469,0.66-2.47,2.251-2.382,3.784l0.004,0.058L8.69,49.298
		c-0.088,1.533,0.913,3.125,2.382,3.784l0.192,0.086l0.141,0.157l31.142,34.603c0.675,0.75,1.442,1.131,2.281,1.131
		c1.799,0,3.537-1.762,3.646-3.696l0.058-0.31c0.031-0.129,0.065-0.259,0.08-0.4c0.461-4.47,0.556-8.974,0.586-12.398l0.009-0.991
		h37.928c2.12,0,2.914-1.389,3.199-2.217l0.063-0.186l0.13-0.148c0.522-0.597,0.787-1.35,0.787-2.239V32.008
		c0-0.89-0.265-1.643-0.787-2.24L90.397,29.621z M84.173,64.121H46.865c-0.307,0-0.608,0.039-0.951,0.123l-0.119,0.029l-0.124-0.001
		c-1.802,0-3.596,1.058-3.597,3.419c0,2.139-0.014,4.275-0.049,6.411l-0.042,2.543L17.319,49.24l24.664-27.405l0.042,2.543
		c0.035,2.136,0.049,4.273,0.049,6.411c0.001,2.361,1.795,3.419,3.573,3.419l0.269,0.029c0.341,0.084,0.643,0.123,0.949,0.123
		h37.308V64.121z"/>
</g>
</svg>
