<?xml version="1.0" encoding="iso-8859-1"?>
<!-- Generator: Adobe Illustrator 17.0.2, SVG Export Plug-In . SVG Version: 6.00 Build 0)  -->
<!DOCTYPE svg PUBLIC "-//W3C//DTD SVG 1.1//EN" "http://www.w3.org/Graphics/SVG/1.1/DTD/svg11.dtd">
<svg version="1.1" id="Capa_1" xmlns="http://www.w3.org/2000/svg" xmlns:xlink="http://www.w3.org/1999/xlink" x="0px" y="0px"
	 width="100px" height="100px" viewBox="0 0 100 100" style="enable-background:new 0 0 100 100;" xml:space="preserve">
<g>
	<path style="fill:#1D1D1B;" d="M91.541,36.29c-0.007-0.064-0.018-0.125-0.041-0.247c0.041-0.731-0.02-1.384-0.186-1.993
		c-1.047-3.859-3.135-6.792-6.204-8.715c-1.871-1.172-4.095-1.743-6.8-1.743c-0.46,0-0.92,0.017-1.38,0.046
		c-0.504-0.116-0.996-0.175-1.502-0.179c-11.977-0.103-19.575,0.265-27.685,0.662c-6.153,0.302-12.508,0.613-21.305,0.749
		c1.966-2.61,3.712-5.134,5.318-7.69c1.237-1.967,1.348-4.083,0.312-5.956c-1.165-2.109-3.611-3.525-6.088-3.525
		c-2.17,0-4.034,1.065-5.25,3c-3.46,5.504-7.67,10.873-12.871,16.414c-1.514,1.613-2.086,3.623-1.623,5.599
		c0.139,1.371,0.809,2.663,1.938,3.736c6.638,6.307,11.777,11.633,16.174,16.761c1.19,1.389,2.663,2.122,4.258,2.122
		c2.367,0,4.711-1.639,5.833-4.078c1.116-2.428,0.754-4.99-0.995-7.03c-1.637-1.909-3.391-3.852-5.443-6.028
		c0.502,0.052,1.097,0.077,1.792,0.077c2.706,0,6.376-0.397,9.056-0.688c1.402-0.152,2.613-0.283,3.188-0.3
		c2.882-0.088,4.247-0.185,5.567-0.279c1.305-0.093,2.654-0.188,5.489-0.277c10.103-0.315,12.985-0.326,22.537-0.359l1.279-0.005
		l0.002,0.013l0.109-0.005c0.333,0,0.631,0.138,0.91,0.421c2.262,2.29,2.143,12.235,2.085,17.015
		c-0.015,1.256-0.026,2.248-0.002,2.857c0.143,3.423,0.253,6.848,0.364,10.271c0.188,5.823,0.383,11.845,0.734,17.763
		c0.239,4.039,3.573,6.152,6.743,6.152c1.817,0,3.493-0.671,4.597-1.842c1.05-1.114,1.55-2.625,1.446-4.369
		c-0.319-5.39-0.528-11.566-0.75-18.105C92.791,55.962,92.421,45.03,91.541,36.29z"/>
</g>
</svg>
