<?xml version="1.0" encoding="iso-8859-1"?>
<!-- Generator: Adobe Illustrator 17.0.2, SVG Export Plug-In . SVG Version: 6.00 Build 0)  -->
<!DOCTYPE svg PUBLIC "-//W3C//DTD SVG 1.1//EN" "http://www.w3.org/Graphics/SVG/1.1/DTD/svg11.dtd">
<svg version="1.1" id="Capa_1" xmlns="http://www.w3.org/2000/svg" xmlns:xlink="http://www.w3.org/1999/xlink" x="0px" y="0px"
	 width="100px" height="100px" viewBox="0 0 100 100" style="enable-background:new 0 0 100 100;" xml:space="preserve">
<g>
	<path style="fill:#1D1D1B;" d="M95.958,38.007c-0.001-0.372-0.034-0.742-0.1-1.1c-0.038-0.899-0.249-1.771-0.626-2.594
		c-1.59-3.463-5.259-6.173-9.129-6.744c-0.509-0.074-1.06-0.093-1.599-0.06c-0.392-0.079-0.792-0.119-1.191-0.119l-0.172,0.002
		c-8.806,0.245-13.779,0.294-21.396,0.305c1.328-1.188,2.543-2.294,3.678-3.349c1.677-1.559,2.201-3.699,1.405-5.726
		c-0.897-2.281-3.185-3.875-5.562-3.875c-1.383,0-2.691,0.538-3.785,1.554c-3.912,3.637-8.142,7.338-12.575,11.003
		c-2.018,0.424-3.698,2.183-4.234,4.469c-0.567,2.421,0.312,4.706,2.352,6.113c5.475,3.775,10.764,7.89,15.72,12.232
		c1.093,0.956,2.389,1.462,3.748,1.462c2.43,0,4.818-1.665,5.681-3.959c0.765-2.032,0.207-4.069-1.528-5.589
		c-1.105-0.967-2.269-1.957-3.567-3.031c7.433-0.016,11.974-0.077,20.123-0.303c0.245-0.007,0.479-0.031,0.706-0.064
		c0.206,0.045,0.411,0.096,0.614,0.157c0.047,0.025,0.092,0.051,0.134,0.077c0.004,1.232,0.01,2.465,0.017,3.697
		c0.038,7.649,0.077,15.556-0.542,23.3l-0.034,0.059c-0.029,0.043-0.1,0.141-0.174,0.244l-0.181,0.256
		c-0.277,0.319-0.584,0.628-0.935,0.943c-0.271,0.188-0.561,0.349-0.834,0.502c-0.058,0.03-0.117,0.06-0.177,0.089
		c-0.068,0.019-0.143,0.044-0.229,0.075c-4.456,0.005-8.719,0.03-12.867,0.055c-4.314,0.025-8.505,0.051-12.66,0.051
		c-9.683,0-21.395-0.123-34.85-1.034c-0.276-0.019-0.591-0.013-0.73-0.002h-2.401c-0.147-0.048-0.298-0.089-0.455-0.123
		c-0.266-0.056-0.525-0.121-0.814-0.207c-0.127-0.069-0.249-0.146-0.37-0.224c-0.104-0.094-0.206-0.187-0.307-0.284
		c-0.09-0.087-0.186-0.161-0.296-0.235c-0.057-0.058-0.113-0.114-0.172-0.171c-0.1-0.316-0.23-0.631-0.39-0.938
		c-0.067-2.629-0.262-5.28-0.449-7.847c-0.455-6.229-0.886-12.127,0.283-18.007c4.134,0.092,8.262,0.292,13.114,0.561
		c3.703,0.21,5.47-2.611,5.541-5.216c0.079-2.872-1.76-5.885-5.43-6.089c-5.682-0.314-11.241-0.599-16.833-0.622
		c-1.008,0-1.923,0.223-2.723,0.663c-1.81,0.522-3.098,1.866-3.634,3.795c-2.461,8.834-1.966,17.996-1.486,26.855
		c0.14,2.583,0.283,5.254,0.352,7.873c0.031,1.188,0.383,2.276,1.018,3.161c0.207,0.681,0.486,1.288,0.831,1.808
		c0.591,0.892,1.281,1.619,2.228,2.347c0.026,0.03,0.054,0.06,0.071,0.077c1.829,1.782,3.91,2.971,6.188,3.534
		c0.796,0.395,1.621,0.595,2.455,0.595h3.723c0.097,0,0.19-0.009,0.325-0.026c0.074,0.01,0.149,0.019,0.228,0.024
		c13.51,0.915,25.266,1.038,34.984,1.038c4.163,0,8.358-0.024,12.677-0.051c4.258-0.025,8.634-0.051,13.214-0.055l0.112-0.005
		c0.173,0.017,0.347,0.025,0.521,0.025c0.523,0,1.036-0.078,1.526-0.233c4.382-1.39,7.898-4.218,10.171-8.179
		c0.356-0.621,0.588-1.298,0.689-2.013c0.202-0.52,0.331-1.082,0.386-1.675c0.729-8.182,0.686-16.497,0.643-24.538
		C95.969,41.152,95.961,39.58,95.958,38.007z"/>
</g>
</svg>
