<?xml version="1.0" encoding="iso-8859-1"?>
<!-- Generator: Adobe Illustrator 17.0.2, SVG Export Plug-In . SVG Version: 6.00 Build 0)  -->
<!DOCTYPE svg PUBLIC "-//W3C//DTD SVG 1.1//EN" "http://www.w3.org/Graphics/SVG/1.1/DTD/svg11.dtd">
<svg version="1.1" id="Capa_1" xmlns="http://www.w3.org/2000/svg" xmlns:xlink="http://www.w3.org/1999/xlink" x="0px" y="0px"
	 width="100px" height="100px" viewBox="0 0 100 100" style="enable-background:new 0 0 100 100;" xml:space="preserve">
<g>
	<path style="fill:#1D1D1B;" d="M6.186,46.166c5.459,2.918,10.747,6.6,15.861,10.161c5.457,3.799,11.1,7.728,17.014,10.782
		c0.601,0.31,1.187,0.467,1.743,0.467c0.799,0,1.534-0.326,2.127-0.942c1.123-1.168,1.567-3.179,1.509-4.654
		c-0.057-1.443-0.116-5.779,0.03-7.21l0.074,0c17.297,0,31.916,9.475,45.138,19.714c0.639,0.495,1.388,0.757,2.164,0.757
		c1.524,0,2.997-1.011,3.502-2.404c0.388-1.072,0.112-2.173-0.735-2.991c-0.082-0.299-0.198-0.575-0.354-0.838
		C83.323,50.579,69.53,30.751,44.05,28.321c-0.065-2.264-0.243-7.338-0.602-10.52c-0.034-0.299-0.108-0.588-0.232-0.906
		c-0.367-1.584-1.656-2.727-3.087-2.727c-0.624,0-1.234,0.207-1.813,0.615c-5.751,4.049-11.65,8.923-17.356,13.637
		c-4.766,3.937-9.693,8.008-14.427,11.502c-0.303,0.223-0.561,0.488-0.787,0.808c-0.884,0.775-1.361,1.924-1.251,3.025
		C4.597,44.781,5.197,45.638,6.186,46.166z M14.004,42.828c3.677-2.735,7.43-5.985,11.068-9.135
		c3.974-3.441,8.072-6.989,12.095-9.893c0.114,2.45,0.177,5.832,0.185,7.702c0.009,2.059,1.569,3.127,3.044,3.264
		c0.251,0.064,0.494,0.1,0.741,0.111c19.012,0.825,30.517,12.513,39.104,24.716C67.61,51.68,56.258,47.976,44.759,47.976
		c-0.985,0-1.986,0.028-2.975,0.083c-0.965,0.054-1.785,0.445-2.38,1.133c-0.545,0.442-0.913,1.075-1.067,1.836
		c-0.386,1.909-0.616,5.212-0.695,7.593c-4.099-2.404-8.13-5.257-12.038-8.024C21.84,47.933,17.959,45.186,14.004,42.828z"/>
</g>
</svg>
