<?xml version="1.0" encoding="iso-8859-1"?>
<!-- Generator: Adobe Illustrator 17.0.2, SVG Export Plug-In . SVG Version: 6.00 Build 0)  -->
<!DOCTYPE svg PUBLIC "-//W3C//DTD SVG 1.1//EN" "http://www.w3.org/Graphics/SVG/1.1/DTD/svg11.dtd">
<svg version="1.1" id="Capa_1" xmlns="http://www.w3.org/2000/svg" xmlns:xlink="http://www.w3.org/1999/xlink" x="0px" y="0px"
	 width="100px" height="100px" viewBox="0 0 100 100" style="enable-background:new 0 0 100 100;" xml:space="preserve">
<g>
	<path style="fill:#1D1D1B;" d="M95.328,67.753C85.005,50.355,71.981,31.634,47.906,29.428c-0.058-2.032-0.226-7.015-0.572-10.098
		c-0.032-0.283-0.104-0.556-0.202-0.774c-0.308-1.432-1.453-2.471-2.726-2.471c-0.546,0-1.081,0.182-1.593,0.542
		c-5.42,3.816-10.985,8.414-16.367,12.86c-4.502,3.72-9.158,7.566-13.633,10.869c-0.273,0.201-0.506,0.442-0.712,0.736
		c-0.784,0.68-1.226,1.73-1.129,2.695c0.091,0.897,0.619,1.647,1.488,2.112c5.164,2.761,10.161,6.24,14.993,9.604
		c5.146,3.583,10.469,7.288,16.039,10.165c0.537,0.277,1.059,0.418,1.551,0.418c0.696,0,1.338-0.285,1.857-0.825
		c1.018-1.059,1.42-2.893,1.367-4.241C48.21,59.525,48.152,55.161,48.32,54l0.255-0.001c16.39,0,30.227,8.966,42.739,18.655
		c0.566,0.438,1.229,0.67,1.915,0.67c1.355,0,2.663-0.896,3.11-2.132c0.349-0.963,0.1-1.918-0.685-2.644
		C95.581,68.26,95.474,67.998,95.328,67.753z M83.036,59.489C70.796,51.66,59.856,48,48.778,48c-0.927,0-1.867,0.026-2.797,0.078
		c-0.859,0.048-1.589,0.397-2.113,1.011c-0.484,0.387-0.812,0.948-0.949,1.625c-0.382,1.891-0.602,5.232-0.662,7.483
		c-3.982-2.31-7.895-5.079-11.686-7.762c-3.634-2.572-7.384-5.227-11.203-7.482c3.544-2.615,7.171-5.755,10.685-8.798
		c3.858-3.341,7.842-6.79,11.748-9.577c0.119,2.326,0.184,5.731,0.192,7.661c0.007,1.854,1.387,2.783,2.654,2.865
		c0.245,0.067,0.48,0.104,0.72,0.115C63.845,36.021,74.837,47.625,83.036,59.489z"/>
	<path style="fill:#1D1D1B;" d="M5.098,48.542c9.139,6.346,18.187,12.827,27.598,18.768c2.152,1.359,4.723-1.712,2.543-3.087
		c-9.211-5.815-18.074-12.145-27.014-18.361c-0.084-0.137-0.184-0.272-0.312-0.402c-1.595-1.613-1.439-2.973,0.125-4.547
		c0.049-0.049,0.082-0.102,0.125-0.153c0.199-0.082,0.396-0.188,0.584-0.347c8.487-7.195,16.869-14.515,25.667-21.333
		c2.037-1.578-0.816-4.388-2.828-2.828c-8.797,6.818-17.18,14.138-25.667,21.333c-0.02,0.017-0.032,0.036-0.051,0.053
		c-0.227,0.096-0.449,0.238-0.657,0.447c-2.819,2.835-3.188,6.35-0.874,9.339C4.411,47.831,4.64,48.224,5.098,48.542z"/>
</g>
</svg>
