<?xml version="1.0" encoding="utf-8"?>
<!-- Generator: Adobe Illustrator 17.0.2, SVG Export Plug-In . SVG Version: 6.00 Build 0)  -->
<!DOCTYPE svg PUBLIC "-//W3C//DTD SVG 1.1//EN" "http://www.w3.org/Graphics/SVG/1.1/DTD/svg11.dtd">
<svg version="1.1" id="Capa_1" xmlns="http://www.w3.org/2000/svg" xmlns:xlink="http://www.w3.org/1999/xlink" x="0px" y="0px"
	 width="100px" height="100px" viewBox="0 0 100 100" enable-background="new 0 0 100 100" xml:space="preserve">
<g>
	<path fill="#1D1D1B" d="M94.938,47.093c-0.039-4.171-0.136-8.353-0.05-12.524c0.047-2.31,0.225-4.769,0.087-7.123
		c-0.836-14.282-18.114-11.522-28.081-11.514c0.158,0-2.685-4.589-3.151-5.022c-1.407-1.306-3.073-2.175-4.916-2.668
		c-4.197-1.124-8.775-0.456-13.05-0.296c-6.141,0.229-10.958,1.904-12.252,8.636c-3.829,0.12-7.657,0.247-11.485,0.397
		c-4.619-0.389-9.777,0.682-12.878,4.409c-2.152,2.587-1.676,6.35-1.753,9.529c-0.114,4.716-0.223,9.431-0.235,14.149
		c-0.014,5.333,0.07,10.665,0.249,15.995c0.152,4.544-0.587,9.393,1.054,13.743c3.192,8.46,14.272,7.122,21.58,7.398
		c0,0.032-0.008,0.059-0.008,0.092c0.11,8.78,14.362,10.144,13.441,0.232c6.204,0.087,12.407,0.06,18.611-0.05
		c-0.019,3.727,2.725,6.551,6.356,6.831c4.399,0.339,6.932-2.574,7.766-6.691c0.038-0.19,0.056-0.38,0.06-0.568
		c0.002-0.079,8.585-0.385,9.626-0.539c2.952-0.438,5.339-1.667,7.186-4.055c2.756-3.565,1.966-8.538,1.966-12.747
		C95.059,58.836,94.993,52.965,94.938,47.093z M16.783,76.335c-0.186-0.113-0.381-0.214-0.593-0.289
		c-0.257-0.09-0.4-0.144-0.864-0.403c-0.192-0.107-0.371-0.234-0.551-0.36c0.085,0.043-0.366-0.329-0.372-0.334
		c-0.474-0.446-0.8-0.9-1.149-1.518c-0.001-0.031,0.005-0.057,0.003-0.089c-1.053-16.07-1.069-32.15-0.411-48.235
		c1.695-1.811,3.748-2.787,6.087-3.027c1.083,18.072,2.132,36.144,2.532,54.247c0.002,0.093,0.022,0.174,0.032,0.263
		C19.926,76.505,18.355,76.431,16.783,76.335z M31.172,77.016c-1.507-0.054-3.015-0.103-4.522-0.169
		c0.026-0.165,0.044-0.336,0.04-0.521c-0.4-18.086-1.447-36.142-2.529-54.197c1.596-0.06,3.192-0.105,4.788-0.16
		C29.164,40.348,31.671,58.62,31.172,77.016z M40.949,13.511c3.313-0.304,6.643-0.438,9.971-0.371
		c1.981,0.04,4.152-0.364,6.102,0.077c1.118,0.253,3.816,2.788,4.24,2.783c-7.422,0.091-14.843,0.221-22.262,0.424
		C39.41,15.32,40.037,14.355,40.949,13.511z M38.239,83.845c-0.035,0.092-0.093,0.248-0.129,0.309
		c-0.004,0.006-0.004,0.007-0.007,0.013c-0.026,0.022-0.06,0.051-0.112,0.104c-0.007,0.007-0.007,0.008-0.014,0.015
		c-0.033,0.015-0.083,0.041-0.155,0.085c-0.034,0.02-0.046,0.029-0.07,0.044c-0.04,0.009-0.093,0.024-0.174,0.05
		c-0.119,0.038-0.244,0.054-0.367,0.078c-0.026-0.001-0.048-0.008-0.074-0.009c-0.031-0.001-0.389-0.029-0.494-0.028
		c-0.171-0.035-0.342-0.074-0.51-0.123c-0.017-0.005-0.021-0.005-0.036-0.01c-0.029-0.019-0.065-0.042-0.129-0.077
		c-0.046-0.03-0.074-0.048-0.102-0.066c-0.057-0.053-0.117-0.105-0.171-0.162c-0.01-0.01-0.012-0.011-0.02-0.019
		c-0.016-0.03-0.031-0.058-0.065-0.111c-0.042-0.071-0.077-0.146-0.115-0.219c-0.012-0.036-0.029-0.086-0.054-0.155
		c-0.058-0.178-0.092-0.364-0.128-0.548c0.032,0.087-0.018-0.412-0.036-0.632c0.997,0.029,1.994,0.029,2.99,0.052
		c0.042,0.383,0.053,0.762,0.035,1.145C38.291,83.589,38.264,83.723,38.239,83.845z M36.394,77.181
		c0.521-18.51-2.024-36.894-2.226-55.386c9.817-0.304,19.636-0.507,29.458-0.61c0.001,0.097-0.008,0.188,0.003,0.292
		c2.053,18.497,1.951,37.11,2.917,55.675C56.496,77.42,46.444,77.449,36.394,77.181z M70.63,83.414
		c-0.065,0.193-0.214,0.465-0.403,0.747h-1.996c-0.11-0.07-0.33-0.212-0.369-0.222c-0.049-0.045-0.096-0.092-0.143-0.138
		c0.089,0.073-0.226-0.304-0.261-0.366c-0.138-0.273-0.148-0.295-0.03-0.067c-0.008-0.021-0.092-0.438-0.118-0.49
		c-0.013-0.173-0.02-0.345-0.014-0.519c1.223-0.033,2.445-0.087,3.668-0.127C70.867,82.63,70.761,83.025,70.63,83.414z
		 M71.763,77.005c-0.958-18.516-0.863-37.08-2.91-55.528c-0.013-0.119-0.046-0.225-0.071-0.335c1.528-0.01,3.057-0.016,4.585-0.023
		c0.62,18.615,0.279,37.249,3.322,55.684C75.047,76.873,73.405,76.946,71.763,77.005z M89.106,72.713
		c-0.963,2.366-2.997,3.908-7.163,3.742c-1.543-0.062-2.503-23.964-2.602-26.33c-0.401-9.655-0.432-19.319-0.751-28.977
		c-0.015-0.45,7.175,1.091,7.91,1.576c2.525,1.667,2.987,4.715,3.221,7.52c0.839,10.027,0.037,20.537,0.037,30.609
		C89.759,64.859,90.402,69.531,89.106,72.713z"/>
</g>
</svg>
