<?xml version="1.0" encoding="utf-8"?>
<!-- Generator: Adobe Illustrator 17.0.2, SVG Export Plug-In . SVG Version: 6.00 Build 0)  -->
<!DOCTYPE svg PUBLIC "-//W3C//DTD SVG 1.1//EN" "http://www.w3.org/Graphics/SVG/1.1/DTD/svg11.dtd">
<svg version="1.1" id="Capa_1" xmlns="http://www.w3.org/2000/svg" xmlns:xlink="http://www.w3.org/1999/xlink" x="0px" y="0px"
	 width="100px" height="100px" viewBox="0 0 100 100" enable-background="new 0 0 100 100" xml:space="preserve">
<g>
	<path fill="#1D1D1B" d="M83.276,49.043c0.099-0.36,0.084-0.777-0.102-1.244c-4.135-10.387-8.91-20.491-13.467-30.695
		c-0.489-1.094-1.445-1.321-2.304-1.032c-0.213-0.052-0.444-0.081-0.706-0.061c-6.554,0.492-13.117,0.771-19.683,1V7.089
		c0-2.847-4.415-2.847-4.415,0V17.16c-6.194,0.201-12.39,0.388-18.58,0.69c-0.289,0.014-0.541,0.082-0.771,0.176
		c-0.725,0.134-1.399,0.586-1.726,1.445c-3.979,10.487-7.962,20.973-12.054,31.416c-1.017,0.528-1.697,1.74-0.968,3.028
		c3.064,5.412,7.304,9.718,13.679,10.521c6.058,0.763,10.916-4.356,13.679-9.049c0.376-0.638,0.392-1.258,0.192-1.787
		c-0.043-0.339-0.143-0.671-0.322-0.957c-0.007-0.021-0.008-0.04-0.015-0.061c-3.534-9.983-6.621-20.081-8.854-30.433
		c5.244-0.23,10.491-0.404,15.739-0.575v58.55c-5.894,0.901-11.571,3.609-16.185,8.181c-0.351,0.348-0.539,0.729-0.613,1.112
		c-0.915,1.162-0.799,3.089,1.035,3.405c13.345,2.302,26.644,0.456,40.044-0.197c2.352-0.115,2.754-3.168,1.198-4.126
		c-5.865-5.786-13.47-8.718-21.065-8.714V21.425c5.653-0.197,11.305-0.44,16.95-0.816c-1.986,9.83-4.052,19.642-6.386,29.397
		c-0.01,0.043-0.01,0.083-0.018,0.126c-0.564,0.782-0.667,1.877,0.218,2.758c3.844,3.827,8.285,6.809,13.884,6.742
		c5.208-0.062,9.18-4.011,12.025-7.924C84.451,50.658,84.07,49.636,83.276,49.043z M22.182,60.021
		c-3.06-0.07-5.563-2.229-7.479-4.696c5.109,0.392,10.223,0.635,15.346,0.73C28.086,58.43,25.6,60.099,22.182,60.021z M30.737,51.65
		c-5.525-0.088-11.04-0.348-16.548-0.781c3.118-7.977,6.175-15.977,9.217-23.983C25.383,35.274,27.91,43.501,30.737,51.65z
		 M61.216,88.555c-9.668,0.67-19.354,1.619-28.991,0.588C40.848,82.671,52.391,82.578,61.216,88.555z M64.386,52.642
		c4.249-0.133,8.499-0.185,12.75-0.2C73.153,55.768,68.687,55.478,64.386,52.642z M62.505,48.296
		c1.915-8.187,3.661-16.41,5.338-24.648c3.657,8.084,7.366,16.143,10.681,24.376C73.183,48.038,67.843,48.096,62.505,48.296z"/>
</g>
</svg>
