<?xml version="1.0" encoding="iso-8859-1"?>
<!-- Generator: Adobe Illustrator 17.0.2, SVG Export Plug-In . SVG Version: 6.00 Build 0)  -->
<!DOCTYPE svg PUBLIC "-//W3C//DTD SVG 1.1//EN" "http://www.w3.org/Graphics/SVG/1.1/DTD/svg11.dtd">
<svg version="1.1" id="Capa_1" xmlns="http://www.w3.org/2000/svg" xmlns:xlink="http://www.w3.org/1999/xlink" x="0px" y="0px"
	 width="100px" height="100px" viewBox="0 0 100 100" style="enable-background:new 0 0 100 100;" xml:space="preserve">
<g>
	<path style="fill:#1E1E1C;" d="M51.222,2.085c-0.375-0.074-0.723-0.067-1.038,0c-7.752-1.367-15.481-0.495-22,4.306
		c-6.427,4.734-10.15,12.828-10.594,20.668c-0.92,16.288,15.761,28.264,26.911,37.244c0.08,0.065,0.166,0.109,0.248,0.163
		c0.154,0.245,0.365,0.451,0.61,0.622c-0.409,1.453-0.891,2.887-1.479,4.276c-0.331,0.782-0.388,1.626-0.057,2.324
		c0.313,0.826,1.026,1.502,2.149,1.565c1.539,0.087,3.075,0.194,4.613,0.307c0.959,4.233,4.053,7.008,7.648,9.336
		c4.57,2.958,7.655,4.59,4.308,10.22c-1.602,2.693,2.589,5.13,4.185,2.447c2.744-4.614,3.502-9.495-0.847-13.327
		c-3.335-2.938-8.015-4.387-9.974-8.283c1.374,0.099,2.747,0.193,4.123,0.271c0.12,0.007,0.228-0.007,0.339-0.015
		c0.05,0.003,0.095,0.015,0.146,0.015c1.225,0,2.552-1.106,2.424-2.424c-0.256-2.641-0.724-5.155-1.676-7.59
		c0.045-0.051,0.091-0.098,0.133-0.154C75.077,45.578,80.942,7.972,51.222,2.085z M49.322,68.621
		c0.35-0.973,0.666-1.957,0.927-2.964c0.012-0.051,0.012-0.096,0.022-0.146c2.125,0.016,4.25,0.068,6.374,0.16
		c0.497,1.137,0.835,2.331,1.068,3.55C54.916,69.034,52.12,68.817,49.322,68.621z M57.735,60.865
		c-3.36-0.176-6.723-0.209-10.087-0.213c-9.561-7.678-21.213-15.983-24.645-28.364c-2.014-7.272,1.194-15.124,6.197-20.394
		c5.418-5.707,13.692-6.406,20.974-4.893c0.312,0.065,0.601,0.062,0.873,0.026C75.768,12.912,68.994,44.967,57.735,60.865z"/>
	<path style="fill:#1E1E1C;" d="M44,9.25c-3.21-0.305-3.181,4.698,0,5c9.562,0.908,15.171,8.719,14.75,18
		c-0.146,3.225,4.854,3.211,5,0C64.303,20.043,56.191,10.408,44,9.25z"/>
</g>
</svg>
