<?xml version="1.0" encoding="iso-8859-1"?>
<!-- Generator: Adobe Illustrator 17.0.2, SVG Export Plug-In . SVG Version: 6.00 Build 0)  -->
<!DOCTYPE svg PUBLIC "-//W3C//DTD SVG 1.1//EN" "http://www.w3.org/Graphics/SVG/1.1/DTD/svg11.dtd">
<svg version="1.1" id="Capa_1" xmlns="http://www.w3.org/2000/svg" xmlns:xlink="http://www.w3.org/1999/xlink" x="0px" y="0px"
	 width="100px" height="100px" viewBox="0 0 100 100" style="enable-background:new 0 0 100 100;" xml:space="preserve">
<g>
	<path style="fill:#1D1D1B;" d="M25.069,17.051c-0.39-0.334-0.908-0.551-1.569-0.551c-4.169,0-8.336,0.023-12.5,0.25
		c-1.461,0.08-2.252,1.162-2.384,2.299c-0.063,0.216-0.11,0.444-0.116,0.701C8.226,31.739,7.755,43.724,7.569,55.715
		c-0.093,5.999-0.116,11.999-0.01,17.998c0.055,3.099,0.143,6.197,0.275,9.295C7.93,85.285,6.447,91,10.25,91
		c0.09,0,0.175-0.018,0.263-0.027C10.594,90.979,10.665,91,10.75,91c4.506-0.019,9.002-0.251,13.5-0.5
		c1.429-0.079,2.22-1.117,2.377-2.227c0.072-0.235,0.123-0.487,0.123-0.773C26.743,64.75,26.507,42,26.5,19.25
		C26.5,18.113,25.874,17.386,25.069,17.051z M12.978,85.966c-1.099-21.439-0.063-42.882,0.472-64.322
		c2.684-0.099,5.369-0.125,8.055-0.134c0.021,21.375,0.222,42.749,0.24,64.124C18.824,85.787,15.903,85.912,12.978,85.966z"/>
	<path style="fill:#1D1D1B;" d="M47.692,33.951c-0.331-0.228-0.723-0.395-1.192-0.451c-4.088-0.492-8.147-0.684-12.25-0.25
		c-1.014,0.107-1.703,0.692-2.072,1.426c-0.243,0.356-0.406,0.792-0.428,1.324C31.057,53.419,31.901,70.889,30,88.255
		c-0.526,4.876,11.291,2.995,14,2.995c1.638,0,2.439-1.289,2.414-2.559c0.037-0.141,0.071-0.284,0.086-0.441
		c1.654-17.296,0.856-34.721,2.75-52C49.393,34.948,48.647,34.19,47.692,33.951z M41.66,86.25h-6.459
		c1.565-16.014,0.945-32.116,1.478-48.18c2.463-0.12,4.915-0.04,7.372,0.175C42.486,54.204,43.02,70.276,41.66,86.25z"/>
	<path style="fill:#1D1D1B;" d="M67.282,49.341c-0.167-0.045-0.343-0.078-0.532-0.091c-3.592-0.257-7.178-0.538-10.75-1
		c-1.345-0.174-2.109,0.618-2.315,1.619c-0.257,0.365-0.424,0.821-0.435,1.381c-0.252,12.586-0.518,25.171-1,37.75
		c-0.075,1.968,1.756,2.724,3.224,2.29c0.296,0.13,0.636,0.208,1.026,0.21c3.085,0.017,6.165,0.234,9.25,0.25
		c1.379,0.007,2.163-0.904,2.363-1.95c0.227-0.352,0.376-0.78,0.387-1.3c0.263-12.255,0.75-24.503,1.25-36.75
		C69.817,50.109,68.555,49.31,67.282,49.341z M63.546,86.709c-2.07-0.06-4.139-0.159-6.21-0.193c0.397-11,0.645-22.003,0.867-33.007
		c2.147,0.237,4.299,0.415,6.453,0.58C64.215,64.96,63.798,75.831,63.546,86.709z"/>
	<path style="fill:#1D1D1B;" d="M85.745,70.364c-0.228-0.066-0.47-0.114-0.745-0.114c-2.46,0-4.92,0.017-7.372,0.223
		c-1.46-0.477-3.378,0.28-3.378,2.277v16.5c0,0.742,0.272,1.305,0.68,1.706c0.249,0.974,1.016,1.794,2.32,1.794h8.5
		c1.528,0,2.323-1.124,2.402-2.305c0.057-0.214,0.098-0.441,0.098-0.695c0-5.669-0.022-11.335-0.25-17
		C87.941,71.291,86.877,70.499,85.745,70.364z M79.25,87.75V75.358c1.275-0.067,2.552-0.087,3.83-0.097
		c0.126,4.162,0.154,8.325,0.162,12.489H79.25z"/>
</g>
</svg>
