<?xml version="1.0" encoding="iso-8859-1"?>
<!-- Generator: Adobe Illustrator 17.0.2, SVG Export Plug-In . SVG Version: 6.00 Build 0)  -->
<!DOCTYPE svg PUBLIC "-//W3C//DTD SVG 1.1//EN" "http://www.w3.org/Graphics/SVG/1.1/DTD/svg11.dtd">
<svg version="1.1" id="Capa_1" xmlns="http://www.w3.org/2000/svg" xmlns:xlink="http://www.w3.org/1999/xlink" x="0px" y="0px"
	 width="100px" height="100px" viewBox="0 0 100 100" style="enable-background:new 0 0 100 100;" xml:space="preserve">
<g>
	<path style="fill:#1D1D1B;" d="M91.847,18.112c-0.006-0.27-0.056-0.511-0.123-0.738c-0.138-1.198-0.972-2.338-2.511-2.422
		c-4.386-0.239-8.774-0.263-13.166-0.263c-0.696,0-1.241,0.228-1.652,0.58c-0.848,0.353-1.507,1.119-1.508,2.317
		c-0.007,23.962-0.256,47.923-0.263,71.885c0,0.301,0.053,0.566,0.129,0.814c0.166,1.169,0.999,2.262,2.504,2.346
		c4.737,0.263,9.473,0.507,14.219,0.527c0.09,0,0.165-0.022,0.25-0.029c0.092,0.01,0.182,0.029,0.277,0.029
		c4.006,0,2.443-6.019,2.544-8.417c0.139-3.263,0.232-6.526,0.29-9.79c0.112-6.318,0.088-12.638-0.01-18.957
		C92.631,43.363,92.135,30.74,91.847,18.112z M87.13,87.855c-3.08-0.057-6.157-0.188-9.234-0.35
		c0.019-22.513,0.231-45.025,0.253-67.539c2.829,0.01,5.657,0.037,8.484,0.141C87.196,42.69,88.287,65.274,87.13,87.855z"/>
	<path style="fill:#1D1D1B;" d="M67.358,35.228c-0.022-0.56-0.195-1.019-0.45-1.395c-0.389-0.773-1.115-1.389-2.183-1.502
		c-4.322-0.457-8.596-0.255-12.902,0.263c-0.494,0.059-0.907,0.235-1.256,0.475c-1.005,0.252-1.791,1.05-1.641,2.421
		c1.995,18.2,1.154,36.552,2.896,54.769c0.016,0.165,0.052,0.316,0.091,0.465c-0.027,1.337,0.817,2.695,2.542,2.695
		c2.854,0,15.3,1.981,14.746-3.154C67.199,71.975,68.089,53.575,67.358,35.228z M56.92,88.154
		c-1.432-16.824-0.87-33.753-2.517-50.562c2.588-0.226,5.171-0.31,7.765-0.184c0.561,16.92-0.092,33.879,1.556,50.746H56.92z"/>
	<path style="fill:#1D1D1B;" d="M44.255,49.836c-0.217-1.055-1.021-1.889-2.438-1.705c-3.762,0.486-7.54,0.783-11.322,1.053
		c-0.199,0.014-0.385,0.049-0.561,0.096c-1.341-0.032-2.67,0.808-2.599,2.537c0.526,12.9,1.039,25.799,1.317,38.707
		c0.012,0.548,0.169,0.998,0.408,1.37c0.21,1.101,1.036,2.061,2.488,2.053c3.25-0.017,6.493-0.245,9.743-0.263
		c0.411-0.002,0.769-0.084,1.081-0.222c1.546,0.458,3.475-0.338,3.396-2.411c-0.507-13.249-0.788-26.505-1.053-39.76
		C44.702,50.701,44.526,50.22,44.255,49.836z M33.87,88.637C33.604,77.18,33.165,65.73,32.7,54.28
		c2.268-0.173,4.535-0.362,6.796-0.611c0.234,11.59,0.495,23.18,0.914,34.765C38.229,88.469,36.05,88.574,33.87,88.637z"/>
	<path style="fill:#1D1D1B;" d="M19.038,71.536c-2.583-0.217-5.173-0.234-7.765-0.235c-0.29,0-0.545,0.05-0.785,0.12
		c-1.192,0.142-2.313,0.976-2.375,2.513C7.873,79.901,7.85,85.87,7.85,91.84c0,0.268,0.042,0.507,0.103,0.732
		C8.037,93.817,8.874,95,10.483,95h8.953c1.374,0,2.182-0.864,2.444-1.89c0.429-0.422,0.716-1.015,0.716-1.796V73.935
		C22.595,71.831,20.576,71.034,19.038,71.536z M17.329,89.734h-4.204c0.008-4.386,0.038-8.771,0.17-13.154
		c1.346,0.01,2.691,0.032,4.034,0.102V89.734z"/>
	<path style="fill:#1D1D1B;" d="M13.313,48.758c0.694,0,1.366-0.24,1.996-0.714c8.351-6.283,27.152-22.405,35.858-30.339
		c-0.049,1.461-0.076,2.813-0.081,4.09c-0.004,0.989,0.333,1.854,0.977,2.5c0.665,0.667,1.628,1.051,2.644,1.051
		c1.804,0,3.635-1.217,3.645-3.542c0.019-4.27,0.275-8.615,0.525-12.848c0.059-0.997-0.237-1.87-0.856-2.526
		c-0.63-0.668-1.568-1.056-2.58-1.065c-0.226-0.053-0.444-0.085-0.665-0.099C50.557,5.021,46.363,5,42.081,5c0,0,0,0,0,0
		c-2.328,0-3.546,1.827-3.547,3.632s1.218,3.633,3.547,3.634c1.421,0,2.841,0.004,4.262,0.017
		c-8.594,7.855-26.865,23.573-34.893,29.614c-1.356,1.02-1.855,2.678-1.305,4.327C10.651,47.74,11.924,48.758,13.313,48.758z"/>
</g>
</svg>
