<?xml version="1.0" encoding="utf-8"?>
<!-- Generator: Adobe Illustrator 17.0.2, SVG Export Plug-In . SVG Version: 6.00 Build 0)  -->
<!DOCTYPE svg PUBLIC "-//W3C//DTD SVG 1.1//EN" "http://www.w3.org/Graphics/SVG/1.1/DTD/svg11.dtd">
<svg version="1.1" id="Capa_1" xmlns="http://www.w3.org/2000/svg" xmlns:xlink="http://www.w3.org/1999/xlink" x="0px" y="0px"
	 width="100px" height="100px" viewBox="0 0 100 100" enable-background="new 0 0 100 100" xml:space="preserve">
<g>
	<path fill="#1D1D1B" d="M71.271,39.243c0.033-1.251,0.066-2.502,0.089-3.753c0.001-0.042-0.009-0.077-0.01-0.117
		c1.793-2.228,2.954-5.051,3.488-7.763c1.031-5.226,0.232-11.117-3.456-15.164c-4.62-5.072-11.96-3.613-17.441-1.023
		c-0.092,0.043-0.181,0.094-0.271,0.138c-8.041-13.434-26.521-7.93-32.979,5.42c-0.161,0.028-0.326,0.066-0.498,0.13
		c-3.457,1.278-6.384,3.126-7.842,6.624c-1.188,2.852,0.121,5.996,1.931,8.214c2.115,2.591,4.967,3.789,7.962,3.983
		c0.823,17.394-0.329,34.771-1.62,52.117c-0.018,0.234-0.003,0.448,0.03,0.649c-0.008,0.797,0.358,1.594,1.259,2.118
		c13.868,8.078,32.177,6.828,46.077-0.52c0.424-0.224,0.722-0.511,0.933-0.828c1.095-0.19,2.018-1.006,1.917-2.459
		c-0.172-2.477-0.275-4.954-0.35-7.431C91.922,81.518,92.63,34.849,71.271,39.243z M65.363,85.801
		c-11.811,6.244-27.4,7.529-39.463,1.242c0.079-1.071,0.155-2.143,0.233-3.215c12.964,4.83,26.939,3.39,39.191-2.796
		c0.058,1.563,0.138,3.126,0.234,4.689C65.493,85.75,65.428,85.766,65.363,85.801z M65.186,75.203
		c-11.814,6.686-25.957,8.699-38.674,3.219c0.977-14.346,1.631-28.711,0.913-43.089c1.35-0.386,2.646-0.951,3.858-1.631
		c3.014,2.824,6.711,4.915,10.97,4.83c3.61-0.072,6.219-2.251,7.922-5.09c4.21,3.997,9.63,7.391,15.478,5.815
		c0.144-0.039,0.278-0.091,0.418-0.135C65.759,51.151,65.049,63.176,65.186,75.203z M69.923,25.627
		c-0.307,2.094-0.88,3.78-1.903,5.481c-0.867,1.441-2.153,2.59-3.496,3.053c-4.744,1.634-10.188-3.617-13.441-7.275
		c-1.67-1.878-4.14-0.288-4.353,1.679c-2.309,7.137-8.48,4.725-12.562,0.674c-0.785-1.26-2.68-2.018-4.197-0.791
		c-3.156,2.552-7.935,3.443-11.233,0.615c-3.398-2.914-0.486-5.705,2.837-6.934c0.167-0.062,0.314-0.14,0.457-0.222
		c1.005,0.335,2.113,0.061,2.66-1.234c4.219-9.988,19.839-18.447,25.426-4.784c0.833,2.039,3.336,2.12,4.547,1.034
		c2.402-1.348,5.01-2.54,7.788-2.712c1.858-0.115,3.561,0.4,4.674,1.354C69.77,17.831,70.427,22.199,69.923,25.627z M70.392,74.32
		c-0.079-9.887,0.384-19.773,0.718-29.661C86.205,40.265,85.033,76.235,70.392,74.32z"/>
	<path fill="#1D1D1B" d="M32.331,44.857v25.238c0,3.356,5.204,3.356,5.204,0V44.857C37.535,41.501,32.331,41.501,32.331,44.857z"/>
	<path fill="#1D1D1B" d="M43.779,45.897v25.238c0,3.356,5.204,3.356,5.204,0V45.897C48.983,42.542,43.779,42.542,43.779,45.897z"/>
	<path fill="#1D1D1B" d="M54.187,45.897v25.238c0,3.356,5.204,3.356,5.204,0V45.897C59.391,42.542,54.187,42.542,54.187,45.897z"/>
</g>
</svg>
