<?xml version="1.0" encoding="utf-8"?>
<!-- Generator: Adobe Illustrator 17.0.2, SVG Export Plug-In . SVG Version: 6.00 Build 0)  -->
<!DOCTYPE svg PUBLIC "-//W3C//DTD SVG 1.1//EN" "http://www.w3.org/Graphics/SVG/1.1/DTD/svg11.dtd">
<svg version="1.1" id="Capa_1" xmlns="http://www.w3.org/2000/svg" xmlns:xlink="http://www.w3.org/1999/xlink" x="0px" y="0px"
	 width="100px" height="100px" viewBox="0 0 100 100" enable-background="new 0 0 100 100" xml:space="preserve">
<g>
	<path fill="#1D1D1B" d="M41.157,45.985c5.142-3.885,7.391-10.945,5.896-17.874C44.022,14.068,18.644,15.332,7.68,15.949
		c-0.064,0.004-0.121,0.017-0.182,0.025c-1.002-0.099-2.165,0.518-2.347,1.57c-0.206,1.189-0.06,2.359,0.486,3.354
		c-0.101,0.264-0.162,0.56-0.129,0.916c1.604,17.832-1.417,35.6-1.304,53.436c0.001,0.206,0.032,0.391,0.077,0.567
		c-0.029,1.108,0.667,2.244,2.096,2.257c8.776,0.077,27.452,1.105,36.198-0.078c0.041-0.006,0.073-0.02,0.112-0.027
		c0.433-0.031,0.874-0.192,1.28-0.532C54.539,68.612,52.64,51.016,41.157,45.985z M41.52,73.803c-0.034,0.003-0.065-0.001-0.1,0.004
		c-7.594,1.027-25.238,0.177-32.865-0.035c-0.12-0.003,1.769-37.355,1.765-40.807c-0.002-1.935-0.041-3.869-0.123-5.802
		c-0.068-1.595-0.498-3.522-0.187-5.093c0.502-2.539,2.766-2.201,4.786-2.133c7.42,0.248,14.872-0.707,21.915,2.309
		c1.953,0.836,3.819,2.005,4.938,3.876c4.276,7.149,0.08,17.828-8.558,18.5c-2.774,0.216-2.795,4.562,0,4.344
		c0.053-0.004,0.105-0.012,0.158-0.017c0.091,0.007,0.178,0.021,0.276,0.017C47.529,48.436,50.389,65.528,41.52,73.803z"/>
	<path fill="#1D1D1B" d="M15.062,37.888c-0.012,0.196,0.003,0.375,0.033,0.544c-0.076,0.907,0.38,1.789,1.562,1.985
		c5.573,0.926,17.23,1.196,18.393-6.649c1.263-8.517-10.948-9.296-16.512-8.696c-1.022,0.11-1.667,0.779-1.935,1.561
		c-0.053,0.157-1.573,0.664-1.854,1.145c-0.51,0.87-0.212,1.701-0.063,2.628C15.083,32.883,15.214,35.383,15.062,37.888z
		 M28.309,30.174c1.481,0.558,2.517,1.714,2.495,2.783c-0.02,0.959-1.588,2.209-2.91,2.74c-2.639,1.06-5.623,1.094-8.451,0.759
		c0.045-2.375-0.152-4.73-0.558-7.072C22.06,29.062,25.283,29.034,28.309,30.174z"/>
	<path fill="#1D1D1B" d="M17.669,52.876c-1.022,0.11-1.667,0.779-1.935,1.561c-1.212,0.109-2.431,1.153-2.115,2.709
		c0.576,2.834,0.749,5.661,0.574,8.546c-0.012,0.196,0.003,0.375,0.033,0.544c-0.077,0.907,0.379,1.789,1.562,1.985
		c5.573,0.926,22.443,1.196,23.606-6.649C40.658,53.055,23.234,52.276,17.669,52.876z M32.238,63.501
		c-2.639,1.06-10.836,1.094-13.664,0.759c0.045-2.375-0.152-4.729-0.558-7.072c3.175-0.322,11.612-0.35,14.637,0.79
		c1.481,0.558,2.517,1.714,2.495,2.783C35.128,61.721,33.56,62.97,32.238,63.501z"/>
	<path fill="#1D1D1B" d="M72.389,33.25c-8.754,0.483-15.065,7.016-17.983,14.851c-2.77,7.437-2.354,16.853,2.331,23.437
		c5.959,8.374,16.637,7.979,25.326,4.633c0.08-0.031,0.145-0.073,0.217-0.109c0.146-0.015,0.292-0.049,0.435-0.108
		c2.719-1.134,5.457-2.249,7.904-3.912c0.371-0.252,0.615-0.564,0.771-0.898c0.447-0.611,0.626-1.43,0.225-2.291
		c-1.143-2.453-2.584-4.733-4.127-6.951c-0.56-0.806-1.392-1.049-2.164-0.935c-0.329,0.022-0.674,0.129-1.025,0.373
		c-5.223,3.625-12.248,4.705-14.64-1.339c8.552-0.907,17.15-1.192,25.728-1.781c1.152-0.079,1.822-0.874,2.021-1.762
		c0.073-0.192,0.13-0.397,0.151-0.627C98.798,41.965,85.389,32.533,72.389,33.25z M68.019,55.831
		c-0.301,0.035-0.564,0.125-0.8,0.246c-1.255,0.013-2.644,1.083-2.381,2.721c1.724,10.708,12.235,11.792,20.189,7.219
		c0.677,1.042,1.316,2.107,1.908,3.199c-1.719,0.989-3.539,1.784-5.374,2.549c-0.061,0.026-0.117,0.058-0.176,0.087
		c-0.152,0.024-0.311,0.067-0.476,0.13c-6.789,2.614-14.809,3.773-20.106-2.25c-4.214-4.793-4.375-12.383-2.902-18.236
		c1.616-6.426,6.004-12.065,12.635-13.631c3.987-0.942,8.182,0.134,11.894,1.596c6.645,2.617,10.781,7.643,10.85,14.55
		C84.852,54.547,76.411,54.857,68.019,55.831z"/>
	<path fill="#1D1D1B" d="M70.808,43.292c-4.463,0.677-6.86,4.615-6.627,8.919c0.083,1.525,1.422,2.214,2.593,2.071
		c0.167,0.002,0.338-0.012,0.519-0.048c3.833-0.782,7.7-1.249,11.586-1.66c0.441-0.047,0.804-0.205,1.105-0.423
		c1.011-0.51,1.751-1.739,1.133-3.063C79.287,45.171,75.164,42.632,70.808,43.292z M68.981,49.521
		c1.094-2.246,3.917-2.327,6.115-0.866C73.051,48.9,71.011,49.178,68.981,49.521z"/>
	<path fill="#1D1D1B" d="M54.913,27.738c0.028,0.363,0.133,0.703,0.292,1.007c-0.281,1.25,0.386,2.701,2.026,2.613
		c10.327-0.551,20.657-0.558,30.989-0.145c0.727,0.029,1.26-0.245,1.609-0.663c0.64-0.462,1.036-1.241,0.775-2.231
		c-0.554-2.102-1.005-4.218-1.304-6.372c-0.06-0.436-0.304-0.796-0.637-1.062c-0.298-0.689-0.924-1.231-1.892-1.257
		c-9.996-0.269-19.987-0.128-29.976,0.29c-0.061,0.003-0.113,0.018-0.172,0.024c-0.24-0.018-0.478-0.007-0.695,0.053
		c-1.244,0.342-1.69,1.502-1.517,2.672C54.66,24.348,54.783,26.045,54.913,27.738z M85.248,23.947
		c0.151,0.951,0.323,1.897,0.526,2.837c-8.864-0.297-17.727-0.264-26.586,0.149c-0.075-0.916-0.159-1.832-0.257-2.745
		C67.701,23.858,76.473,23.747,85.248,23.947z"/>
</g>
</svg>
