<?xml version="1.0" encoding="iso-8859-1"?>
<!-- Generator: Adobe Illustrator 17.0.2, SVG Export Plug-In . SVG Version: 6.00 Build 0)  -->
<!DOCTYPE svg PUBLIC "-//W3C//DTD SVG 1.1//EN" "http://www.w3.org/Graphics/SVG/1.1/DTD/svg11.dtd">
<svg version="1.1" id="Capa_1" xmlns="http://www.w3.org/2000/svg" xmlns:xlink="http://www.w3.org/1999/xlink" x="0px" y="0px"
	 width="100px" height="100px" viewBox="0 0 100 100" style="enable-background:new 0 0 100 100;" xml:space="preserve">
<g>
	<path style="fill:#1D1D1B;" d="M89.067,72.198c-0.529-0.593-1.113-1.131-1.732-1.63c0.228-0.327,0.395-0.736,0.479-1.234
		c1.836-10.977,0.89-29.452-6.444-38.394c-3.764-4.589-9.701-8.237-15.966-10.486c-0.025-0.144-0.052-0.29-0.105-0.443
		c-2.048-5.942-5.592-16.835-13.537-16.72C44.629,3.395,41.331,13.67,39.602,19.72c-7.064,2.136-13.988,6.089-18.197,11.221
		c-7.334,8.942-8.281,27.417-6.444,38.394c0.058,0.349,0.17,0.64,0.303,0.904c-0.78,0.586-1.508,1.233-2.157,1.96
		c-2.465,2.762-1.24,5.691,0.939,7.827c-0.326,0.301-0.643,0.612-0.939,0.944c-3.543,3.971,0.534,8.29,4.115,10.095
		c10.266,5.172,21.347,4,32.471,4.556c0.29,0.083,0.604,0.129,0.957,0.105c0.146-0.01,0.292-0.016,0.437-0.025
		c0.146,0.009,0.291,0.015,0.437,0.025c0.353,0.024,0.667-0.022,0.957-0.105c11.124-0.555,22.205,0.616,32.471-4.556
		c3.582-1.804,7.659-6.124,4.115-10.095c-0.296-0.332-0.613-0.643-0.939-0.944C90.307,77.889,91.532,74.96,89.067,72.198z
		 M51.865,8.3c3.224-0.939,6.225,6.293,7.726,10.493c-2.838-0.605-5.63-0.901-8.203-0.835c-1.975-0.051-4.08,0.116-6.234,0.466
		C46.394,14.247,48.333,9.329,51.865,8.3z M25.506,35.85c4.257-6.454,15.085-10.45,22.334-11.393c0.195,0.01,0.396,0.009,0.615-0.02
		c0.968-0.129,1.948-0.183,2.932-0.193c0.984,0.01,1.964,0.065,2.932,0.193c0.219,0.029,0.42,0.03,0.615,0.02
		c7.25,0.943,18.077,4.939,22.334,11.393c5.004,7.586,5.974,22.669,4.535,31.598c-2.666-1.073-5.509-1.8-8.113-2.439
		c-7.353-1.804-14.873-1.793-22.443-1.934c-0.021,0-0.037-0.005-0.058-0.005c-0.034,0.001-0.069,0.001-0.103,0.002
		c-0.034-0.001-0.069-0.001-0.103-0.002c-0.021,0-0.038,0.005-0.058,0.005c-7.569,0.142-15.09,0.131-22.443,1.934
		c-2.42,0.594-5.046,1.265-7.545,2.218C19.55,58.272,20.542,43.375,25.506,35.85z M84.666,84.998
		c-1.619,1.563-4.196,2.385-6.279,3.063c-9.085,2.957-17.938,1.809-27.3,2.339c-9.363-0.53-18.216,0.618-27.3-2.339
		c-2.082-0.678-4.659-1.5-6.279-3.063c-0.75-0.723-0.157-0.97,0.945-1.797c0.095-0.071,0.204-0.129,0.301-0.198
		c7.055,3.112,14.471,3.47,22.003,3.613c-1.266-1.266-1.795-3.046-1.739-4.812c-0.014-0.132-0.014-0.262-0.011-0.392
		c-4.42-0.083-8.796-0.376-13.214-1.539c2.206-0.633,4.455-1.104,6.496-1.556c3.2-0.71,6.459-0.967,9.735-1.075
		c-0.081,0.195-0.158,0.391-0.232,0.589c-0.438,1.174-0.742,2.394-0.805,3.606c-0.074,1.437,0.187,2.859,0.979,4.17
		c0.229,0.379,0.481,0.727,0.754,1.045c1.895,2.214,4.77,2.994,7.714,2.874c2.303-0.094,4.783-1.121,6.446-2.826
		c0.449-0.461,0.852-0.961,1.16-1.517c0.68-1.229,0.982-2.485,1-3.733c0.021-1.45-0.345-2.889-0.946-4.262
		c-0.006-0.014-0.012-0.029-0.018-0.043c0.066,0.013,0.131,0.028,0.197,0.045c3.908,0.071,7.801,0.281,11.612,1.126
		c2.04,0.452,4.29,0.923,6.496,1.556c-5.29,1.392-10.521,1.534-15.837,1.568c0.041,1.709-0.322,3.394-1.26,4.901
		c-0.071,0.115-0.157,0.216-0.242,0.317c8.347-0.142,16.582-0.217,24.377-3.656c0.097,0.069,0.206,0.127,0.301,0.198
		C84.824,84.028,85.416,84.274,84.666,84.998z M52.318,77.122c0.07,0.097,0.137,0.194,0.204,0.289
		c0.298,0.428,0.572,0.855,0.823,1.338c0.384,0.74,0.494,1.073,0.604,1.534c0.07,0.29,0.108,0.586,0.14,0.881
		c0.004,0.039,0.007,0.058,0.011,0.08c-0.007,0.037-0.015,0.113-0.026,0.267c0,0.003,0,0.004-0.001,0.007
		c-0.005,0.074-0.054,0.332-0.076,0.469c-0.073,0.235-0.156,0.467-0.26,0.69c0.33-0.712-0.85,0.966-0.297,0.4
		c-0.167,0.171-0.351,0.323-0.537,0.472c-0.088,0.069-0.178,0.134-0.27,0.198c-0.026,0.014-0.046,0.024-0.091,0.049
		c-0.351,0.198-0.724,0.349-1.103,0.485c-0.055,0.007-0.43,0.114-0.524,0.135c-0.307,0.066-0.62,0.106-0.932,0.138
		c-0.076,0.008-0.125,0.014-0.169,0.019c-0.02-0.001-0.048-0.002-0.098-0.003c-0.249-0.001-0.497-0.02-0.744-0.043
		c-0.231-0.021-0.46-0.061-0.688-0.102c-0.152-0.043-0.303-0.092-0.453-0.144c-0.144-0.05-0.281-0.116-0.42-0.179
		c-0.08-0.048-0.337-0.186-0.413-0.237c-0.056-0.038-0.191-0.154-0.288-0.236c-0.106-0.113-0.203-0.233-0.297-0.357
		c-0.053-0.096-0.191-0.321-0.23-0.406c-0.029-0.063-0.047-0.102-0.066-0.14c-0.002-0.02-0.008-0.051-0.02-0.103
		c-0.049-0.205-0.069-0.414-0.09-0.624c0.017,0.03,0.021-0.278,0.026-0.531c0.002-0.126,0.005-0.24,0.01-0.289
		c0.109-1.015,0.638-2.294,1.281-3.47c0.104-0.19,0.206-0.382,0.315-0.565c1.014-0.008,2.028-0.018,3.04-0.037
		c0.144-0.003,0.275-0.027,0.409-0.048c0.133,0.021,0.265,0.045,0.409,0.048C51.77,77.116,52.044,77.118,52.318,77.122z
		 M73.691,73.78c-7.353-1.804-14.873-1.792-22.443-1.934c-0.021,0-0.037-0.005-0.058-0.005c-0.034,0.001-0.069,0.001-0.103,0.002
		c-0.034-0.001-0.069-0.001-0.103-0.002c-0.021,0-0.038,0.005-0.058,0.005c-7.569,0.142-15.09,0.131-22.443,1.934
		c-3.214,0.788-6.789,1.712-9.949,3.255c-0.367-0.248-0.718-0.511-1.026-0.808c-0.75-0.723-0.157-0.97,0.945-1.797
		c3.789-2.841,9.329-3.885,13.836-4.884c6.013-1.333,12.229-1.087,18.389-1.206c0.144-0.003,0.275-0.027,0.409-0.048
		c0.133,0.021,0.265,0.045,0.409,0.048c6.16,0.118,12.376-0.128,18.389,1.206c4.506,0.999,10.047,2.044,13.836,4.884
		c1.103,0.827,1.695,1.073,0.946,1.797c-0.308,0.297-0.659,0.56-1.026,0.808C80.48,75.492,76.905,74.568,73.691,73.78z"/>
</g>
</svg>
