<?xml version="1.0" encoding="utf-8"?>
<!-- Generator: Adobe Illustrator 17.0.2, SVG Export Plug-In . SVG Version: 6.00 Build 0)  -->
<!DOCTYPE svg PUBLIC "-//W3C//DTD SVG 1.1//EN" "http://www.w3.org/Graphics/SVG/1.1/DTD/svg11.dtd">
<svg version="1.1" id="Capa_1" xmlns="http://www.w3.org/2000/svg" xmlns:xlink="http://www.w3.org/1999/xlink" x="0px" y="0px"
	 width="100px" height="100px" viewBox="0 0 100 100" enable-background="new 0 0 100 100" xml:space="preserve">
<g>
	<path fill="#1D1D1B" d="M78.218,50.265c-0.381-0.143-0.809-0.2-1.277-0.155c-0.064-0.006-0.128-0.006-0.193-0.011
		c-1.177-5.753-2.201-11.538-3.156-17.337c3.309-0.783,6.168-2.788,7.64-6.075c0.627-1.4,0.419-3.014-1.01-3.851
		c-1.215-0.712-3.224-0.391-3.851,1.01c-1.109,2.475-3.035,3.618-5.732,3.673c-0.735,0.015-1.314,0.265-1.751,0.643
		c-0.859,0.607-1.452,1.626-1.244,2.92c0.482,3.011,0.981,6.019,1.505,9.021c-8.744-0.628-17.5-0.515-26.261-0.486
		c-0.102-0.914-0.114-1.841-0.115-2.81c0-0.164-0.024-0.313-0.046-0.462c0.297-0.032,0.592-0.074,0.89-0.101
		c3.586-0.322,3.617-5.954,0-5.63c-3.583,0.322-7.107,0.932-10.6,1.789c-3.525,0.865-2.029,6.294,1.496,5.429
		c0.877-0.215,1.755-0.411,2.635-0.595c0.011,1.562,0.085,3.137,0.418,4.665c-3.074,3.569-6.126,7.155-9.135,10.777
		c-2.39-1.205-5.006-2.024-7.635-2.413c-0.381-0.143-0.809-0.2-1.277-0.155c-1.173-0.111-2.342-0.141-3.487-0.074
		c-1.391,0.081-2.243,0.969-2.564,2.016C7.228,55.1,2.869,60.92,2.371,68.318c-0.64,9.496,8.691,17.144,17.606,17.573
		c9.299,0.448,16.668-5.599,18.432-14.384c-0.03,0.242,5.472-0.725,5.796-0.777c3.076-0.492,4.928-0.962,7.321-3.102
		c3.472-3.105,6.624-6.666,9.791-10.077c1.256-1.353,9.457-8.664,9.152-10.256c0.254,1.327,0.516,2.653,0.785,3.978
		c-0.157,0.241-0.28,0.503-0.364,0.777C64.65,55.1,60.292,60.92,59.793,68.318c-0.64,9.496,8.691,17.144,17.606,17.573
		c9.968,0.481,17.724-6.5,18.73-16.321C97.232,58.806,87.805,51.684,78.218,50.265z M29.501,60.204
		c1.521,1.541,2.656,3.476,3.222,5.813c-2.651,0.04-5.304,0.048-7.957,0.053C26.331,64.104,27.909,62.149,29.501,60.204z
		 M19.342,80.175C12.753,79.28,7.14,73.854,8.12,66.969c0.866-6.084,6.028-9.838,11.609-11.188c1.778,0.206,3.496,0.648,5.08,1.313
		c-2.493,3.058-4.966,6.132-7.39,9.247c-0.388,0.498-0.581,1.032-0.63,1.559c-0.121,0.311-0.195,0.645-0.195,0.994
		c0,1.534,1.28,2.815,2.815,2.815h1.97c0.342,0,0.668-0.072,0.974-0.188c0.297,0.11,0.62,0.188,0.996,0.188
		c3.15,0,6.298-0.016,9.444-0.063C31.36,77.331,25.212,80.971,19.342,80.175z M38.659,65.868c-0.522-4.052-2.62-7.437-5.556-10.034
		c1.932-2.318,3.899-4.607,5.858-6.903c1.506,5.546,2.898,11.121,4.146,16.733C41.625,65.746,40.142,65.815,38.659,65.868z
		 M48.247,62.894c-1.342-5.922-2.844-11.802-4.464-17.653c6.945-0.026,13.886-0.086,20.821,0.226
		C59.347,51.462,53.949,57.322,48.247,62.894z M76.764,80.175c-6.589-0.894-12.202-6.321-11.222-13.206
		c0.62-4.357,3.447-7.512,7.049-9.451c0.809,3.588,1.68,7.164,2.652,10.718c0.956,3.498,6.387,2.011,5.428-1.497
		c-0.982-3.592-1.861-7.206-2.677-10.833c6.449,1.023,11.987,5.108,12.523,12.436C91.068,75.862,83.709,81.117,76.764,80.175z"/>
</g>
</svg>
