<?xml version="1.0" encoding="iso-8859-1"?>
<!-- Generator: Adobe Illustrator 17.0.2, SVG Export Plug-In . SVG Version: 6.00 Build 0)  -->
<!DOCTYPE svg PUBLIC "-//W3C//DTD SVG 1.1//EN" "http://www.w3.org/Graphics/SVG/1.1/DTD/svg11.dtd">
<svg version="1.1" id="Capa_1" xmlns="http://www.w3.org/2000/svg" xmlns:xlink="http://www.w3.org/1999/xlink" x="0px" y="0px"
	 width="100px" height="100px" viewBox="0 0 100 100" style="enable-background:new 0 0 100 100;" xml:space="preserve">
<g>
	<path style="fill:#1E1E1C;" d="M87.747,11.585C75.08-0.324,55.567,1.019,44.096,13.651C33.685,25.115,32.393,42.023,23.505,54.482
		c-1.324,1.856-3.98,3.527-4.949,5.499c-1.107,2.254,0.708,1.969,0.562,3.984c-0.09,1.238-2.668,3.637-3.408,4.578
		c-0.261,0.331-5.657,0.108-6.523,0.339c-2.103,0.562-3.974,1.61-5.345,3.324c-6.32,7.901,3.057,15.14,11.045,12.643
		c-1.47,0.46,3.287,6.679,3.878,7.133c4.77,3.665,12.402,1.23,14.899-4.029c1.521-3.202,0.144-6.83-1.744-9.62
		c1.48-1.907,2.654-4.034,3.618-6.244c0.248-0.155,0.475-0.384,0.657-0.717c5.437-9.964,17.149-7.536,26.75-8.85
		c7.837-1.073,16.122-3.066,22.749-7.571C100.689,44.759,100.51,23.583,87.747,11.585z M27.854,79.777
		c1.525,1.917,2.859,4.267,1.924,6.739c-0.889,2.349-4.083,3.003-6.253,3.272c-3.621-1.183-4.952-3.807-4.459-7.702
		c0.084-0.665-0.111-1.187-0.456-1.555c-0.483-0.83-1.44-1.326-2.532-0.716c-3.479,1.947-7.106,2.29-10.052-0.694
		c-0.735-5.859,4.797-7.285,9.859-6.362c0.22,0.04,0.418,0.038,0.606,0.018c0.608,0.029,1.238-0.181,1.729-0.761
		c1.484-1.751,2.781-3.641,4.139-5.487c0.109,0.098,0.235,0.19,0.381,0.274c2.805,1.627,5.66,3.161,8.529,4.671
		c-0.91,1.912-2.011,3.711-3.401,5.331c-0.274,0.32-0.392,0.718-0.389,1.124C27.301,78.507,27.368,79.166,27.854,79.777z
		 M92.959,36.175c-0.879,8.702-7.03,14.64-14.636,18.085c-7.38,3.342-15.966,4.534-23.99,4.911
		c-8.507,0.4-16.197,1.223-20.923,8.791c-2.714-1.426-5.408-2.887-8.063-4.421c-0.134-0.194-0.298-0.368-0.506-0.502
		c-0.237-0.152-0.493-0.275-0.747-0.397c-0.022-0.028-0.037-0.06-0.062-0.086c-0.348-0.397-0.717-0.776-1.098-1.143
		c9.545-9.654,12.553-23.318,18.155-35.337c3.103-6.66,7.529-12.536,14.139-15.993c8.434-4.41,18.396-3.202,26.249,1.814
		C89.754,17.183,93.932,26.532,92.959,36.175z"/>
	<path style="fill:#1E1E1C;" d="M79.129,23.121c8.267,9.114,1.393,20.857-8.927,24.236c-3.659,1.198-2.093,6.993,1.596,5.786
		c14.76-4.834,22.942-21.73,11.573-34.264C80.767,16.007,76.536,20.263,79.129,23.121z"/>
</g>
</svg>
