<?xml version="1.0" encoding="iso-8859-1"?>
<!-- Generator: Adobe Illustrator 17.0.2, SVG Export Plug-In . SVG Version: 6.00 Build 0)  -->
<!DOCTYPE svg PUBLIC "-//W3C//DTD SVG 1.1//EN" "http://www.w3.org/Graphics/SVG/1.1/DTD/svg11.dtd">
<svg version="1.1" id="Capa_1" xmlns="http://www.w3.org/2000/svg" xmlns:xlink="http://www.w3.org/1999/xlink" x="0px" y="0px"
	 width="100px" height="100px" viewBox="0 0 100 100" style="enable-background:new 0 0 100 100;" xml:space="preserve">
<g>
	<path style="fill:#1D1D1B;" d="M90.502,15.952h-6.486c0.316-2.816,0.588-5.637,0.845-8.461c0.264-2.899-4.251-2.873-4.513,0
		c-0.155,1.701-0.316,3.4-0.486,5.098C70.66-2.264,46.497-0.607,41.553,17.467c-4.263-0.048-8.547,0.335-12.854,1.104
		c-1.252,0.224-1.724,1.182-1.619,2.147c-0.003,0.007-0.008,0.011-0.011,0.018c-0.828,1.752-1.261,3.592-1.234,5.497
		c-5.477,1.609-10.493,4.411-13.979,9.028c-3.211,4.253-6.174,10.788-6.884,16.102c-2.147,16.086,6.993,32.634,21.106,40.182
		c16.538,8.845,39.145,4.87,50.817-9.933c10.978-13.92,9.076-33.348-3.621-45.397c-3.84-3.644-10.032-6.528-14.96-8.476
		c0.255-1.849,0.253-3.704,0.037-5.584c-0.017-0.145-0.044-0.287-0.079-0.425c-0.028-0.869-0.505-1.713-1.578-2.033
		c-3.473-1.036-6.959-1.69-10.461-2.014c4.771-13.311,24.03-14.701,30.451-1.733h-7.052c-2.91,0-2.91,4.513,0,4.513h9.303
		c-0.2,1.41-0.427,2.817-0.675,4.222c-0.031,0.084-0.067,0.165-0.086,0.255c-0.268,1.319-0.579,2.629-0.846,3.949
		c-0.244,1.204,0.331,2.433,1.576,2.776c1.124,0.309,2.531-0.37,2.776-1.576c0.21-1.037,0.443-2.069,0.665-3.103
		c0.077-0.168,0.143-0.351,0.181-0.563c0.361-1.98,0.657-3.968,0.929-5.959h7.049C93.412,20.465,93.412,15.952,90.502,15.952z
		 M70.958,40.238c6.228,5.91,9.193,14.195,8.685,22.678c-1.198,19.988-21.381,30.158-39.344,28.34
		C23.151,89.522,10.578,74.672,9.31,57.941C8.324,44.936,16.34,32.198,29.722,30.057C43.854,27.796,60.269,30.096,70.958,40.238z
		 M53.945,23.643c0.047,0.871,0.061,1.74-0.009,2.605c-4.282-1.223-8.728-1.827-13.192-1.877c-3.358-0.038-6.893,0.188-10.363,0.8
		c0.077-0.737,0.255-1.461,0.584-2.157c0.042-0.089,0.071-0.181,0.104-0.272C38.789,21.498,46.384,21.644,53.945,23.643z"/>
	<path style="fill:#1D1D1B;" d="M48.187,45.943c0.09,0.055,0.175,0.114,0.281,0.161c10.702,4.797,12.795,15.988,7.087,25.681
		c-0.841,1.429,0.058,2.775,1.259,3.214c2.466,1.863,5.189,2.915,8.304,3.283c0.712,0.084,1.352-0.319,1.769-0.887
		c0.166-0.142,0.325-0.304,0.462-0.513c9.619-14.639,2.959-34.024-12.655-41.163c-0.232-0.106-0.46-0.16-0.684-0.191
		c-0.338-0.246-0.77-0.399-1.301-0.399c-0.491,0-0.892,0.136-1.217,0.35c-0.326,0.1-0.646,0.289-0.942,0.593
		c-2.155,2.213-3.366,4.746-3.764,7.8C46.667,44.786,47.364,45.592,48.187,45.943z M53.12,39.961
		c12.613,6.216,18.238,21.279,10.97,33.612c-1.273-0.276-2.503-0.765-3.606-1.454c5.357-10.985,2.591-23.782-8.897-29.482
		C51.912,41.653,52.455,40.764,53.12,39.961z"/>
</g>
</svg>
