<?xml version="1.0" encoding="iso-8859-1"?>
<!-- Generator: Adobe Illustrator 17.0.2, SVG Export Plug-In . SVG Version: 6.00 Build 0)  -->
<!DOCTYPE svg PUBLIC "-//W3C//DTD SVG 1.1//EN" "http://www.w3.org/Graphics/SVG/1.1/DTD/svg11.dtd">
<svg version="1.1" id="Capa_1" xmlns="http://www.w3.org/2000/svg" xmlns:xlink="http://www.w3.org/1999/xlink" x="0px" y="0px"
	 width="100px" height="100px" viewBox="0 0 100 100" style="enable-background:new 0 0 100 100;" xml:space="preserve">
<g>
	<path style="fill:#1E1E1C;" d="M55.371,3.75C44.937,4.25,34.495,4.285,24.05,4.286c-1.185,0-1.858,0.79-2.026,1.691
		c-0.07,0.216-0.118,0.45-0.115,0.719C22.171,29.98,21.34,59.91,19.824,83.15c-1.024,1.205-0.516,3.587,1.55,3.587
		c0.092,0,0.173-0.016,0.259-0.026c0.347,0.009,0.714-0.063,1.089-0.267c4.933-2.672,10.045-5.92,15.268-7.954
		c5.112,2.523,10.3,5.882,15.498,8.221c0.362,0.163,0.715,0.215,1.051,0.198c1.16,0.14,2.438-0.538,2.439-2.047
		c0.016-23.916,0.521-54.253,0.535-78.169c0-0.235-0.04-0.442-0.097-0.637C57.541,4.901,56.867,3.678,55.371,3.75z M52.709,81.686
		c-4.323-1.957-8.631-4.946-12.885-7.053c-0.44-0.625-1.195-0.967-2.156-0.598c-4.56,1.752-9.048,4.664-13.42,6.83
		c1.384-21.874,2.146-50.389,1.954-72.3c9.01-0.008,18.017-0.072,27.021-0.45C53.19,30.498,52.762,59.303,52.709,81.686z"/>
	<path style="fill:#1E1E1C;" d="M71.222,13.594c-0.16-0.04-0.33-0.068-0.518-0.069c-3.087-0.016-6.169-0.06-9.249-0.297
		c-2.574-0.198-2.577,3.803-0.021,4c2.573,0.198,5.149,0.259,7.727,0.284c-0.408,23.756-0.702,47.509-0.835,71.268
		c-2.379-1.157-4.801-2.224-7.229-3.279c-2.338-1.017-4.396,2.418-2.036,3.444c3.456,1.502,6.904,3.017,10.226,4.802
		c1.651,0.888,3.172-0.692,3.008-2.089c0.002-0.042,0.012-0.079,0.013-0.122c0.128-25.336,0.445-50.664,0.886-75.996
		C73.216,14.246,72.224,13.597,71.222,13.594z"/>
	<path style="fill:#1E1E1C;" d="M46.741,85.023c-1.754,1.116-3.518,2.215-5.315,3.255C41.63,86.687,41.845,85.097,42,83.5
		c0.249-2.567-3.753-2.543-4,0c-0.276,2.84-0.746,5.657-1,8.5c-0.165,1.841,1.838,2.345,3.074,1.549
		c0.062-0.025,0.123-0.041,0.186-0.072c2.937-1.491,5.723-3.233,8.5-5C50.929,87.097,48.924,83.634,46.741,85.023z"/>
</g>
</svg>
