<?xml version="1.0" encoding="iso-8859-1"?>
<!-- Generator: Adobe Illustrator 17.0.2, SVG Export Plug-In . SVG Version: 6.00 Build 0)  -->
<!DOCTYPE svg PUBLIC "-//W3C//DTD SVG 1.1//EN" "http://www.w3.org/Graphics/SVG/1.1/DTD/svg11.dtd">
<svg version="1.1" id="Capa_1" xmlns="http://www.w3.org/2000/svg" xmlns:xlink="http://www.w3.org/1999/xlink" x="0px" y="0px"
	 width="100px" height="100px" viewBox="0 0 100 100" style="enable-background:new 0 0 100 100;" xml:space="preserve">
<g>
	<path style="fill:#1E1E1C;" d="M65.497,5.273C55.062,5.823,44.62,5.861,34.176,5.862c-1.185,0-1.858,0.869-2.026,1.859
		c-0.07,0.238-0.118,0.495-0.115,0.79c0.263,25.602-0.568,58.511-2.085,84.064c-1.024,1.325-0.516,3.944,1.55,3.944
		c0.092,0,0.173-0.018,0.259-0.028c0.347,0.01,0.713-0.07,1.089-0.293c4.933-2.938,10.045-6.509,15.268-8.745
		c5.112,2.774,10.299,6.467,15.498,9.04c0.362,0.179,0.715,0.237,1.051,0.218c1.16,0.154,2.438-0.592,2.439-2.251
		c0.016-26.296,0.52-59.652,0.536-85.948c0-0.258-0.041-0.486-0.097-0.7C67.667,6.538,66.992,5.195,65.497,5.273z M62.835,90.965
		c-4.323-2.152-8.631-5.439-12.885-7.755c-0.44-0.687-1.195-1.063-2.156-0.658c-4.56,1.927-9.048,5.128-13.42,7.51
		c1.383-24.051,2.146-55.404,1.954-79.495c9.01-0.009,18.018-0.079,27.021-0.495C63.316,34.683,62.888,66.354,62.835,90.965z"/>
</g>
</svg>
