<?xml version="1.0" encoding="iso-8859-1"?>
<!-- Generator: Adobe Illustrator 17.0.2, SVG Export Plug-In . SVG Version: 6.00 Build 0)  -->
<!DOCTYPE svg PUBLIC "-//W3C//DTD SVG 1.1//EN" "http://www.w3.org/Graphics/SVG/1.1/DTD/svg11.dtd">
<svg version="1.1" id="Capa_1" xmlns="http://www.w3.org/2000/svg" xmlns:xlink="http://www.w3.org/1999/xlink" x="0px" y="0px"
	 width="100px" height="100px" viewBox="0 0 100 100" style="enable-background:new 0 0 100 100;" xml:space="preserve">
<g>
	<path style="fill:#1E1E1C;" d="M96.287,27.163c0.009-0.416-0.109-0.752-0.305-1.009c-0.117-0.234-0.289-0.453-0.537-0.637
		c-13.139-9.746-31.902-14.9-44.996-2.83c-13.094-12.07-31.857-6.916-44.996,2.83c-0.248,0.184-0.419,0.403-0.537,0.637
		c-0.196,0.257-0.314,0.592-0.305,1.009C4.946,43.428,4.447,59.69,4.422,75.956c0,0.284,0.059,0.529,0.16,0.739
		c-0.276,1.172,0.578,2.567,1.992,2.016c13.871-5.407,29.559-6.603,42.207,2.112c0.289,0.685,0.934,1.18,1.669,1.01
		c0.735,0.169,1.38-0.326,1.668-1.01c12.648-8.715,28.336-7.519,42.207-2.112c1.414,0.551,2.268-0.844,1.992-2.016
		c0.1-0.21,0.16-0.455,0.16-0.739C96.451,59.69,95.952,43.428,96.287,27.163z M50.449,77.87
		c-12.657-8.722-28.527-8.191-42.621-3.215C7.875,59.041,8.321,43.429,8.02,27.815c12.022-8.65,29.28-13.762,41.096-1.71
		c0.413,0.421,0.888,0.548,1.333,0.489c0.445,0.06,0.92-0.068,1.333-0.489c11.815-12.052,29.074-6.941,41.096,1.71
		c-0.301,15.614,0.146,31.226,0.192,46.841C78.976,69.679,63.105,69.148,50.449,77.87z"/>
	<path style="fill:#1E1E1C;" d="M95.093,81.273c-14.374-5.786-34.484-7.967-45.044,4.554c-10.56-12.52-30.671-10.34-45.044-4.554
		c-2.538,1.021-0.347,4.466,2.168,3.454c13.007-5.236,32.416-7.568,40.969,5.532c0.476,0.729,1.202,0.989,1.907,0.94
		c0.706,0.049,1.431-0.211,1.907-0.94c8.553-13.101,27.962-10.768,40.969-5.532C95.439,85.74,97.63,82.294,95.093,81.273z"/>
	<path style="fill:#1E1E1C;" d="M13.698,42.36c0.329,0.752,1.173,1.262,2.059,0.685c2.282-1.485,4.715-2.567,7.392-3.099
		c0.876-0.174,1.17-0.884,1.053-1.561C24.23,38.266,24.25,38.139,24.25,38v-8.5c0-0.998-0.798-1.477-1.571-1.445
		c-0.132-0.034-0.271-0.057-0.429-0.055c-3.075,0.053-6.017,0.861-8.507,2.705c-0.488,0.361-0.669,0.87-0.641,1.36
		C13.053,32.198,13.014,32.34,13,32.5c-0.239,2.829-0.25,5.663-0.25,8.5C12.75,41.725,13.171,42.178,13.698,42.36z M15.98,32.803
		c1.618-1.025,3.368-1.58,5.27-1.747v6.249c-1.925,0.495-3.763,1.269-5.496,2.241C15.763,37.296,15.803,35.048,15.98,32.803z"/>
	<path style="fill:#1E1E1C;" d="M30.149,31.446c3.689-1.264,7.25-0.92,10.594,1.099c1.661,1.003,3.167-1.592,1.514-2.59
		c-3.984-2.405-8.498-2.911-12.906-1.401C27.532,29.177,28.313,32.075,30.149,31.446z"/>
	<path style="fill:#1E1E1C;" d="M29.899,37.946c3.703-0.779,7.167-0.229,10.344,1.849c1.624,1.062,3.125-1.536,1.514-2.59
		c-3.852-2.519-8.192-3.091-12.656-2.151C27.208,35.452,28.012,38.344,29.899,37.946z"/>
	<path style="fill:#1E1E1C;" d="M43.257,46.705c-10.019-5.629-21.787-3.448-31.014,2.75c-1.597,1.073-0.097,3.673,1.514,2.59
		c8.327-5.593,18.87-7.872,27.986-2.75C43.432,50.244,44.943,47.652,43.257,46.705z"/>
	<path style="fill:#1E1E1C;" d="M43.257,53.705c-10.019-5.629-21.787-3.448-31.014,2.75c-1.597,1.073-0.097,3.673,1.514,2.59
		c8.327-5.593,18.87-7.872,27.986-2.75C43.432,57.244,44.943,54.652,43.257,53.705z"/>
	<path style="fill:#1E1E1C;" d="M43.257,60.705c-10.019-5.629-21.787-3.448-31.014,2.75c-1.597,1.073-0.097,3.673,1.514,2.59
		c8.327-5.593,18.87-7.872,27.986-2.75C43.432,64.244,44.943,61.652,43.257,60.705z"/>
	<path style="fill:#1E1E1C;" d="M56.396,50.477c8.659-5.863,19.354-4.47,28.118,0.411c1.695,0.944,2.973-1.771,1.293-2.707
		c-9.711-5.409-21.619-6.603-31.135-0.159C53.069,49.106,54.792,51.563,56.396,50.477z"/>
	<path style="fill:#1E1E1C;" d="M56.978,57.453c8.659-5.863,19.354-4.47,28.118,0.411c1.695,0.944,2.973-1.771,1.292-2.707
		c-9.711-5.409-21.619-6.603-31.135-0.159C53.652,56.082,55.374,58.539,56.978,57.453z"/>
	<path style="fill:#1E1E1C;" d="M56.396,36.477c8.659-5.863,19.354-4.47,28.118,0.411c1.695,0.944,2.973-1.771,1.293-2.707
		c-9.711-5.409-21.619-6.603-31.135-0.159C53.069,35.106,54.792,37.563,56.396,36.477z"/>
	<path style="fill:#1E1E1C;" d="M55.254,40.997c-1.602,1.085,0.12,3.541,1.724,2.455c8.659-5.863,19.354-4.47,28.118,0.411
		c1.695,0.944,2.973-1.771,1.292-2.707C76.678,35.748,64.77,34.554,55.254,40.997z"/>
	<path style="fill:#1E1E1C;" d="M86.972,62.132c-9.711-5.409-21.62-6.603-31.135-0.159c-1.602,1.085,0.121,3.541,1.724,2.455
		c8.659-5.863,19.355-4.47,28.118,0.411C87.374,65.784,88.652,63.068,86.972,62.132z"/>
</g>
</svg>
