<?xml version="1.0" encoding="iso-8859-1"?>
<!-- Generator: Adobe Illustrator 17.0.2, SVG Export Plug-In . SVG Version: 6.00 Build 0)  -->
<!DOCTYPE svg PUBLIC "-//W3C//DTD SVG 1.1//EN" "http://www.w3.org/Graphics/SVG/1.1/DTD/svg11.dtd">
<svg version="1.1" id="Capa_1" xmlns="http://www.w3.org/2000/svg" xmlns:xlink="http://www.w3.org/1999/xlink" x="0px" y="0px"
	 width="100px" height="100px" viewBox="0 0 100 100" style="enable-background:new 0 0 100 100;" xml:space="preserve">
<g>
	<path style="fill:#1D1D1B;" d="M93.874,36.883c0.069-1.152-0.541-2.318-1.841-2.527c-0.044-0.035-0.079-0.075-0.126-0.108
		c-7.963-5.568-15.965-11.083-23.617-17.077c-0.342-0.268-0.704-0.426-1.067-0.508c-0.315-0.147-0.683-0.233-1.113-0.223
		c-19.279,0.427-38.544,1.242-57.808,2.079c-0.548,0.024-0.998,0.193-1.359,0.45c-1.445,0.017-3.031,1.245-2.711,3.125
		c2.42,14.234,3.16,28.584,2.822,43.005c-0.022,0.937,0.391,1.592,0.981,1.983c0.056,0.066,0.1,0.133,0.166,0.197
		c7.751,7.563,16.725,13.416,26.716,17.516c0.368,0.671,1.057,1.147,2.081,1.098c17.883-0.85,35.75-2.042,53.65-2.495
		c0.239-0.006,0.455-0.047,0.658-0.103c1.325,0.111,2.716-0.679,2.669-2.392c-0.389-14.418-0.389-28.834,0-43.253
		C93.981,37.366,93.938,37.117,93.874,36.883z M34.55,79.27c-8.357-3.696-15.896-8.846-22.493-15.212
		c0.248-12.656-0.373-25.246-2.151-37.759c8.129,5.212,16.18,10.542,24.215,15.897C34.482,54.552,34.781,66.909,34.55,79.27z
		 M36.165,37.234c-0.141,0.012-0.267,0.045-0.396,0.075c-7.103-4.732-14.226-9.433-21.4-14.058
		c17.115-0.736,34.23-1.425,51.357-1.81c5.897,4.577,11.963,8.916,18.069,13.202C67.906,35.284,52.012,35.84,36.165,37.234z
		 M88.933,78.465c-16.482,0.459-32.938,1.498-49.405,2.308c0.29-12.932-0.046-25.858-0.424-38.786
		c16.586-1.354,33.219-1.867,49.842-2.568C88.625,52.435,88.622,65.449,88.933,78.465z"/>
	<path style="fill:#1D1D1B;" d="M82.202,56.776c-5.312-4.186-9.089-8.473-14.604-12.194c-0.33-0.557-0.907-0.925-1.537-0.802
		c-0.641-0.045-1.169,0.392-1.428,0.985c-5.016,4.371-8.238,9.089-12.996,13.896c-1.319,1.333,0.363,3.157,1.834,2.677
		c0.228,0.082,0.493,0.111,0.805,0.054c1.674-0.308,3.357-0.563,5.038-0.833c-0.069,3.433,0.058,11.085-0.096,14.515
		c-0.046,1.008,0.654,1.495,1.429,1.519c0.192,0.053,0.405,0.076,0.646,0.049c3.045-0.346,4.703-0.426,6.757-0.616
		c2.062-0.065,3.718-0.189,6.782-0.219c0.243-0.002,0.451-0.052,0.635-0.128c0.765-0.119,1.401-0.688,1.231-1.683
		c-0.575-3.385-1.389-10.995-1.879-14.393c1.701,0.061,3.402,0.108,5.102,0.208c0.316,0.019,0.576-0.043,0.792-0.152
		C82.23,59.954,83.675,57.937,82.202,56.776z M72.771,56.155c-0.978-0.051-1.466,0.603-1.516,1.349
		c-0.067,0.21-0.089,0.452-0.052,0.725c0.456,3.341,1.262,10.875,1.823,14.214c-0.281-0.218-0.656-0.336-1.131-0.269
		c-1.787,0.25-2.964,0.382-4.054,0.482c-1.094,0.034-2.278,0.048-4.082,0.019c-0.48-0.008-0.837,0.156-1.09,0.406
		c0.146-3.383,0.021-10.958,0.062-14.33c0.004-0.276-0.048-0.513-0.14-0.714c-0.141-0.734-0.706-1.323-1.67-1.153
		c-1.099,0.195-2.202,0.366-3.304,0.539c3.342-3.36,5.323-6.586,8.69-9.654c3.719,2.631,6.081,5.589,9.81,8.514
		C75.001,56.248,73.885,56.213,72.771,56.155z"/>
</g>
</svg>
