<?xml version="1.0" encoding="iso-8859-1"?>
<!-- Generator: Adobe Illustrator 17.0.2, SVG Export Plug-In . SVG Version: 6.00 Build 0)  -->
<!DOCTYPE svg PUBLIC "-//W3C//DTD SVG 1.1//EN" "http://www.w3.org/Graphics/SVG/1.1/DTD/svg11.dtd">
<svg version="1.1" id="Capa_1" xmlns="http://www.w3.org/2000/svg" xmlns:xlink="http://www.w3.org/1999/xlink" x="0px" y="0px"
	 width="100px" height="100px" viewBox="0 0 100 100" style="enable-background:new 0 0 100 100;" xml:space="preserve">
<g>
	<path style="fill:#1D1D1B;" d="M94.71,36.883c0.069-1.152-0.541-2.318-1.841-2.527c-0.044-0.035-0.078-0.075-0.126-0.108
		C84.78,28.68,76.778,23.165,69.126,17.171c-0.342-0.268-0.704-0.426-1.067-0.508c-0.315-0.147-0.683-0.233-1.113-0.223
		c-19.279,0.427-38.544,1.242-57.808,2.079c-0.548,0.024-0.998,0.193-1.359,0.45c-1.445,0.017-3.031,1.245-2.711,3.125
		c2.42,14.234,3.16,28.584,2.822,43.005c-0.022,0.937,0.391,1.592,0.981,1.983c0.056,0.066,0.1,0.133,0.166,0.197
		c7.751,7.563,16.725,13.416,26.716,17.516c0.368,0.671,1.057,1.147,2.081,1.098c17.883-0.85,35.75-2.042,53.65-2.495
		c0.239-0.006,0.455-0.047,0.658-0.103c1.325,0.111,2.716-0.679,2.669-2.392c-0.39-14.418-0.39-28.834,0-43.253
		C94.818,37.366,94.775,37.117,94.71,36.883z M35.387,79.27c-8.356-3.696-15.896-8.846-22.493-15.212
		c0.248-12.656-0.373-25.246-2.151-37.759c8.129,5.212,16.18,10.542,24.215,15.897C35.319,54.552,35.618,66.909,35.387,79.27z
		 M37.002,37.234c-0.14,0.012-0.267,0.045-0.396,0.075c-7.103-4.732-14.226-9.433-21.399-14.058
		c17.114-0.736,34.23-1.425,51.357-1.81c5.897,4.577,11.962,8.916,18.069,13.202C68.743,35.284,52.849,35.84,37.002,37.234z
		 M89.771,78.465c-16.482,0.459-32.938,1.498-49.405,2.308c0.29-12.932-0.046-25.858-0.424-38.786
		c16.586-1.354,33.219-1.867,49.842-2.568C89.462,52.435,89.458,65.449,89.771,78.465z"/>
	<path style="fill:#1D1D1B;" d="M80.169,59.187c-0.232-0.083-0.501-0.113-0.818-0.054c-1.701,0.315-3.411,0.576-5.118,0.852
		c0.066-3.488-0.073-11.265,0.081-14.751c0.045-1.025-0.667-1.518-1.454-1.542c-0.195-0.053-0.411-0.077-0.656-0.049
		c-3.094,0.356-4.779,0.439-6.866,0.634c-2.095,0.068-3.777,0.196-6.892,0.231c-0.247,0.003-0.458,0.053-0.645,0.13
		c-0.778,0.122-1.422,0.7-1.249,1.712c0.588,3.439,1.425,11.172,1.927,14.625c-1.729-0.06-3.458-0.106-5.185-0.205
		c-0.322-0.018-0.585,0.045-0.805,0.156c-1.544-0.298-3.01,1.754-1.512,2.931c5.404,4.248,9.247,8.6,14.856,12.375
		c0.336,0.566,0.923,0.939,1.564,0.813c0.651,0.045,1.188-0.399,1.45-1.003c5.092-4.448,8.361-9.246,13.19-14.137
		C83.375,60.55,81.663,58.698,80.169,59.187z M67.141,72.991c-3.782-2.669-6.187-5.673-9.979-8.64
		c1.134,0.035,2.267,0.069,3.4,0.127c0.994,0.051,1.489-0.615,1.539-1.373c0.068-0.213,0.09-0.459,0.052-0.737
		c-0.467-3.395-1.295-11.05-1.869-14.443c0.286,0.221,0.667,0.341,1.15,0.272c1.816-0.256,3.011-0.391,4.119-0.495
		c1.112-0.036,2.315-0.051,4.149-0.024c0.488,0.007,0.851-0.159,1.107-0.414C70.663,50.702,70.8,58.4,70.761,61.827
		c-0.003,0.281,0.05,0.522,0.143,0.725c0.144,0.746,0.719,1.344,1.699,1.169c1.116-0.199,2.237-0.374,3.357-0.551
		C72.569,66.589,70.559,69.87,67.141,72.991z"/>
</g>
</svg>
