<?xml version="1.0" encoding="utf-8"?>
<!-- Generator: Adobe Illustrator 17.0.2, SVG Export Plug-In . SVG Version: 6.00 Build 0)  -->
<!DOCTYPE svg PUBLIC "-//W3C//DTD SVG 1.1//EN" "http://www.w3.org/Graphics/SVG/1.1/DTD/svg11.dtd">
<svg version="1.1" id="Capa_1" xmlns="http://www.w3.org/2000/svg" xmlns:xlink="http://www.w3.org/1999/xlink" x="0px" y="0px"
	 width="100px" height="100px" viewBox="0 0 100 100" enable-background="new 0 0 100 100" xml:space="preserve">
<g>
	<path fill="#1D1D1B" d="M87.815,27.79c-0.058-0.222-0.146-0.433-0.269-0.643c-0.014-0.12-0.035-0.243-0.068-0.369
		C82.694,8.531,64.659,5.807,54.334,5.807c-8.189,0-15.361,1.568-19.936,2.884c-11.139,3.205-19.109,8.252-23.691,15.003
		c-4.445,6.55-3.488,14.912,2.621,22.959c0.25,10.242,3.016,19.223,8.221,26.699c4.866,6.988,11.792,12.272,19.7,15.21
		c0.499,1.994,0.623,3.988,0.417,6.104c-0.249,2.568,3.753,2.543,4,0c0.156-1.602,0.128-3.188-0.079-4.751
		c1.436,0.362,2.895,0.651,4.373,0.859c1.763,0.248,3.554,0.374,5.323,0.374c4.844,0,9.513-0.929,13.791-2.683
		c0.279,2.087,0.994,4.095,2.198,5.878c1.436,2.124,4.903,0.125,3.454-2.019c-1.204-1.782-1.73-3.685-1.776-5.732
		c2.45-1.384,4.728-3.066,6.778-5.031C91.317,70.453,91.613,53.01,90.758,43.601C90.325,38.847,89.363,33.674,87.815,27.79z
		 M15.744,30.563c-0.632,0.3-1.055,0.877-1.198,1.641c-0.308,1.635-0.562,3.313-0.76,5.009c-1.466-4.457-0.713-8.589,2.25-12.308
		c5.267-6.608,14.323-9.803,20.678-11.631c5.713-1.644,11.994-2.548,17.686-2.548c8.835,0,24.248,2.258,28.214,17.38
		c0.058,0.223,0.146,0.434,0.269,0.643c0.014,0.12,0.035,0.243,0.068,0.369c0.485,1.847,0.931,3.739,1.327,5.634
		c-2.813-0.562-5.173-1.988-7.193-4.347c-0.596-0.695-1.256-0.841-1.705-0.841c-0.506,0-1.012,0.183-1.447,0.52
		c-0.309-0.065-0.617-0.079-0.952-0.031c-10.351,1.528-20.487,2.9-30.711,2.9c-8.858,0-16.685-1.054-23.927-3.222
		C17.332,29.428,16.343,29.753,15.744,30.563z M80.484,72.602c-5.136,8.465-14.65,13.519-25.453,13.519l-0.554-0.005
		c-10.197-0.166-20.107-5.09-27.189-13.509c-5.647-6.711-8.741-15.775-8.951-26.217c0.078-0.384,0.074-0.759-0.013-1.114
		c-0.003-3.327,0.271-6.722,0.817-10.1c7.031,1.873,14.57,2.785,23.027,2.785c10.696,0,21.255-1.429,32.031-3.02
		c0.07-0.01,0.141-0.023,0.209-0.039c2.9,2.917,6.626,4.66,10.815,5.062C87.251,53.328,85.699,64.009,80.484,72.602z"/>
	<path fill="#1D1D1B" d="M38.039,56.081c-0.001-1.612-1.27-2.455-2.522-2.455c-0.649,0-1.258,0.216-1.716,0.609
		c-0.526,0.453-0.805,1.092-0.805,1.846c0,1.202,0.048,2.784,0.423,4.358c0.257,1.081,1.291,1.865,2.458,1.865
		c0.221,0,0.438-0.029,0.647-0.086c1.315-0.362,2.091-1.717,1.766-3.084C38.057,58.15,38.039,57.287,38.039,56.081z"/>
	<path fill="#1D1D1B" d="M67.943,54.097c-0.217-1.071-1.279-1.879-2.471-1.879c-0.22,0-0.435,0.028-0.639,0.084
		c-1.312,0.361-2.057,1.651-1.77,3.068c0.367,1.811,0.816,3.381,1.372,4.8c0.438,1.113,1.359,1.806,2.406,1.806
		c0.224,0,0.452-0.031,0.68-0.094c0.67-0.185,1.293-0.712,1.626-1.376c0.295-0.588,0.337-1.219,0.118-1.775
		C68.727,57.353,68.306,55.88,67.943,54.097z"/>
	<path fill="#1D1D1B" d="M37.401,44.516c-2.512-0.312-5.002-0.044-7.176,0.774c-1.417,0.533-1.849,1.888-1.647,2.994
		c0.22,1.204,1.096,2.012,2.183,2.012c0.289,0,0.589-0.058,0.891-0.171c1.72-0.647,3.534-0.833,5.627-0.574
		c0.08,0.01,0.16,0.015,0.238,0.015c0.624,0,1.222-0.297,1.684-0.836c0.42-0.491,0.661-1.108,0.661-1.696
		C39.861,45.69,38.896,44.702,37.401,44.516z"/>
	<path fill="#1D1D1B" d="M69.21,43.838c-2.746,0-5.437,0.027-8.144,0.34c-1.636,0.189-2.44,1.642-2.367,2.914
		c0.074,1.281,0.941,2.142,2.158,2.142c0.104,0,0.212-0.006,0.324-0.019c2.651-0.306,5.311-0.333,8.028-0.333
		c1.612,0,2.456-1.269,2.455-2.522C71.665,45.106,70.822,43.838,69.21,43.838z"/>
	<path fill="#1D1D1B" d="M61.412,69.503c-4.745,1.893-9.227,1.997-14.075,0.329c-1.452-0.497-2.836,0.41-3.091,1.938
		c-0.184,1.095,0.269,2.418,1.689,2.906c2.671,0.919,5.385,1.385,8.065,1.385c0,0,0,0,0.001,0c2.997,0,5.977-0.582,8.855-1.729
		c1.412-0.563,1.828-1.939,1.614-3.053C64.184,69.771,62.825,68.945,61.412,69.503z"/>
	<path fill="#1D1D1B" d="M49.79,64.607c2.576,0.708,5.206,0.988,7.749,0c2.284-0.888,1.292-4.606-1.022-3.707
		c-1.948,0.757-3.731,0.542-5.705,0C48.417,60.243,47.402,63.951,49.79,64.607z"/>
</g>
</svg>
