<?xml version="1.0" encoding="iso-8859-1"?>
<!-- Generator: Adobe Illustrator 17.0.2, SVG Export Plug-In . SVG Version: 6.00 Build 0)  -->
<!DOCTYPE svg PUBLIC "-//W3C//DTD SVG 1.1//EN" "http://www.w3.org/Graphics/SVG/1.1/DTD/svg11.dtd">
<svg version="1.1" id="Capa_1" xmlns="http://www.w3.org/2000/svg" xmlns:xlink="http://www.w3.org/1999/xlink" x="0px" y="0px"
	 width="100px" height="100px" viewBox="0 0 100 100" style="enable-background:new 0 0 100 100;" xml:space="preserve">
<g>
	<path style="fill:#1D1D1B;" d="M77.342,47.452c-3.091-17.724-20.947-26.099-37.351-21.621c-1.32,0.36-1.932,1.356-1.996,2.406
		c-10.103,5.541-15.846,17.088-13.889,28.947c2.464,14.93,18.617,22.232,32.194,18.954C68.738,73.135,79.654,60.712,77.342,47.452z
		 M55.923,70.367c-10.979,3.667-22.83-2.255-26.085-13.435c-3.396-11.659,5.641-23.406,16.74-25.935
		c0.559-0.127,0.98-0.379,1.3-0.693c10.993-0.458,21.022,5.684,23.806,17.454C74.163,58.236,65.045,67.32,55.923,70.367z"/>
	<path style="fill:#1D1D1B;" d="M52.325,14.712V6.236c0-3.644-5.65-3.644-5.65,0v8.476C46.675,18.356,52.325,18.356,52.325,14.712z"
		/>
	<path style="fill:#1D1D1B;" d="M77.207,24.62c1.813-2.116,3.611-4.244,5.245-6.505c0.904-1.251,0.218-3.144-1.014-3.865
		c-1.426-0.835-2.965-0.232-3.865,1.014c-1.35,1.869-2.862,3.612-4.361,5.361c-1.001,1.168-1.151,2.844,0,3.995
		C74.238,25.646,76.204,25.791,77.207,24.62z"/>
	<path style="fill:#1D1D1B;" d="M91.878,48.897h-6.781c-3.644,0-3.644,5.65,0,5.65h6.781C95.522,54.548,95.522,48.897,91.878,48.897
		z"/>
	<path style="fill:#1D1D1B;" d="M80.032,76.282c-2.562-2.597-6.556,1.4-3.995,3.995c2.258,2.289,4.243,4.811,6.215,7.346
		c0.947,1.218,3.008,0.987,3.995,0c1.189-1.189,0.945-2.781,0-3.995C84.276,81.092,82.291,78.571,80.032,76.282z"/>
	<path style="fill:#1D1D1B;" d="M46.957,85.06c-0.001,2.735-0.005,5.469-0.282,8.193c-0.157,1.535,1.404,2.825,2.825,2.825
		c1.658,0,2.669-1.294,2.825-2.825c0.278-2.724,0.282-5.458,0.283-8.193C52.608,81.416,46.958,81.416,46.957,85.06z"/>
	<path style="fill:#1D1D1B;" d="M25.466,77.977c-1.65,1.924-3.3,3.849-5.085,5.65c-2.566,2.59,1.428,6.586,3.995,3.995
		c1.785-1.801,3.436-3.726,5.085-5.65c1.001-1.168,1.151-2.845,0-3.995C28.435,76.951,26.469,76.807,25.466,77.977z"/>
	<path style="fill:#1D1D1B;" d="M16.162,49.462H7.122c-3.644,0-3.644,5.65,0,5.65h9.041C19.806,55.113,19.806,49.462,16.162,49.462z
		"/>
	<path style="fill:#1D1D1B;" d="M22.082,30.713c3.24,1.649,6.1-3.226,2.852-4.879c-2.526-1.286-4.906-2.792-7.056-4.644
		c-2.746-2.365-6.761,1.614-3.995,3.995C16.399,27.353,19.122,29.206,22.082,30.713z"/>
</g>
</svg>
