<?xml version="1.0" encoding="iso-8859-1"?>
<!-- Generator: Adobe Illustrator 17.0.2, SVG Export Plug-In . SVG Version: 6.00 Build 0)  -->
<!DOCTYPE svg PUBLIC "-//W3C//DTD SVG 1.1//EN" "http://www.w3.org/Graphics/SVG/1.1/DTD/svg11.dtd">
<svg version="1.1" id="Capa_1" xmlns="http://www.w3.org/2000/svg" xmlns:xlink="http://www.w3.org/1999/xlink" x="0px" y="0px"
	 width="100px" height="100px" viewBox="0 0 100 100" style="enable-background:new 0 0 100 100;" xml:space="preserve">
<g>
	<path style="fill:#1D1D1B;" d="M77.486,47.57c-3.052-17.497-20.68-25.765-36.874-21.344c-1.303,0.356-1.907,1.338-1.97,2.376
		c-9.974,5.47-15.644,16.869-13.711,28.577c2.433,14.739,18.38,21.948,31.783,18.711C68.992,72.925,79.769,60.661,77.486,47.57z
		 M47.332,38.511c-0.167,0.435-0.176,0.906-0.059,1.358c-0.387,10.391-0.099,20.797-0.072,31.201
		c-7.605-0.984-14.302-6.21-16.611-14.141c-3.352-11.509,5.568-23.107,16.526-25.603c0.25-0.057,0.463-0.145,0.66-0.247
		C47.573,33.555,47.439,36.033,47.332,38.511z M52.731,30.823c2.453,0.302,4.806,0.959,6.983,1.949
		c-2.474,0.786-4.915,1.661-7.298,2.683C52.503,33.91,52.602,32.366,52.731,30.823z M52.174,40.972
		c3.837-1.863,7.873-3.202,11.974-4.389c0.337-0.097,0.612-0.248,0.846-0.427c1.538,1.343,2.897,2.924,4.026,4.734
		c-5.515,2.024-11.166,3.429-16.953,4.383C52.092,43.839,52.129,42.405,52.174,40.972z M56.341,70.192
		c-1.394,0.466-2.802,0.769-4.204,0.93c-0.002-0.959-0.011-1.917-0.017-2.876c3.961-0.686,7.913-1.425,11.869-2.139
		C61.633,67.905,58.989,69.308,56.341,70.192z M69.255,60.628c-0.428-0.19-0.926-0.27-1.483-0.176
		c-5.24,0.886-10.459,1.889-15.692,2.812c-0.013-1.282-0.026-2.563-0.038-3.845c6.668-0.96,13.216-2.396,19.712-4.158
		C71.238,57.165,70.385,58.97,69.255,60.628z M52.008,54.485c-0.006-1.414-0.001-2.827,0.004-4.24
		c6.55-0.998,12.929-2.542,19.132-4.895c0.286,0.813,0.548,1.646,0.756,2.523c0.17,0.719,0.267,1.428,0.33,2.133
		C65.574,51.88,58.853,53.482,52.008,54.485z"/>
	<path style="fill:#1D1D1B;" d="M52.789,15.249V6.882c0-3.597-5.578-3.597-5.578,0v8.367C47.211,18.846,52.789,18.846,52.789,15.249
		z"/>
	<path style="fill:#1D1D1B;" d="M77.353,25.031c1.79-2.089,3.565-4.19,5.178-6.422c0.892-1.235,0.216-3.104-1.001-3.816
		c-1.407-0.825-2.927-0.229-3.816,1.001c-1.333,1.845-2.825,3.566-4.305,5.293c-0.988,1.153-1.136,2.808,0,3.944
		C74.421,26.043,76.363,26.186,77.353,25.031z"/>
	<path style="fill:#1D1D1B;" d="M91.836,48.997h-6.694c-3.597,0-3.597,5.578,0,5.578h6.694
		C95.434,54.575,95.434,48.997,91.836,48.997z"/>
	<path style="fill:#1D1D1B;" d="M80.142,76.031c-2.529-2.564-6.472,1.382-3.944,3.944c2.229,2.26,4.189,4.749,6.136,7.252
		c0.935,1.202,2.97,0.975,3.944,0c1.174-1.174,0.933-2.746,0-3.944C84.331,80.781,82.371,78.291,80.142,76.031z"/>
	<path style="fill:#1D1D1B;" d="M47.49,84.697c0,2.7-0.005,5.399-0.279,8.088c-0.155,1.515,1.385,2.789,2.789,2.789
		c1.637,0,2.635-1.277,2.789-2.789c0.274-2.689,0.278-5.388,0.279-8.088C53.069,81.1,47.49,81.1,47.49,84.697z"/>
	<path style="fill:#1D1D1B;" d="M26.273,77.705c-1.629,1.9-3.258,3.8-5.02,5.578c-2.534,2.557,1.41,6.502,3.944,3.944
		c1.762-1.778,3.392-3.678,5.02-5.578c0.989-1.153,1.136-2.808,0-3.944C29.204,76.692,27.263,76.55,26.273,77.705z"/>
	<path style="fill:#1D1D1B;" d="M17.089,49.555H8.164c-3.597,0-3.597,5.578,0,5.578h8.925
		C20.686,55.133,20.686,49.555,17.089,49.555z"/>
	<path style="fill:#1D1D1B;" d="M22.933,31.045c3.198,1.628,6.022-3.185,2.815-4.817c-2.494-1.269-4.844-2.756-6.966-4.584
		c-2.71-2.335-6.674,1.593-3.944,3.944C17.322,27.728,20.01,29.558,22.933,31.045z"/>
</g>
</svg>
