<?xml version="1.0" encoding="iso-8859-1"?>
<!-- Generator: Adobe Illustrator 17.0.2, SVG Export Plug-In . SVG Version: 6.00 Build 0)  -->
<!DOCTYPE svg PUBLIC "-//W3C//DTD SVG 1.1//EN" "http://www.w3.org/Graphics/SVG/1.1/DTD/svg11.dtd">
<svg version="1.1" id="Capa_1" xmlns="http://www.w3.org/2000/svg" xmlns:xlink="http://www.w3.org/1999/xlink" x="0px" y="0px"
	 width="100px" height="100px" viewBox="0 0 100 100" style="enable-background:new 0 0 100 100;" xml:space="preserve">
<g>
	<path style="fill:#1D1D1B;" d="M73.213,76.767c0.956-3.187,1.598-6.544,1.885-9.967c5.774-0.51,11.52-1.231,17.241-2.168
		c2.795-0.458,1.605-4.698-1.17-4.244c-5.274,0.863-10.567,1.519-15.888,1.994c0-5.424-0.82-10.848-2.478-15.778
		c8.688-2.266,14.331-9.811,13.816-19.06c-0.157-2.822-4.559-2.837-4.401,0c0.424,7.63-3.964,13.199-11.057,14.933
		c-2.983-6.427-7.59-11.599-13.806-14.198c4.333-2.514,8.432-6.477,7.752-11.8c-0.807-6.319-5.121-10.656-10.053-14.308
		c-0.723-0.536-1.436-0.516-2.002-0.19c-0.941,0.151-1.747,0.846-1.676,2.09c0.267,4.654-0.708,9.039-2.963,13.12
		c-0.093,0.08-0.175,0.185-0.26,0.283c-0.085-0.098-0.167-0.203-0.26-0.283c-2.255-4.081-3.23-8.466-2.963-13.12
		c0.071-1.243-0.734-1.939-1.676-2.09c-0.566-0.327-1.279-0.346-2.002,0.19c-4.932,3.652-9.246,7.989-10.053,14.308
		c-0.698,5.462,3.635,9.487,8.089,11.988c-5.975,2.649-10.424,7.709-13.336,13.958C19.149,40.349,14.934,34.698,14,27.545
		c-0.363-2.773-4.768-2.808-4.401,0c1.162,8.896,6.168,16.291,14.711,18.989c-1.473,4.353-2.291,9.095-2.467,13.884
		c-5.138-0.321-10.24-0.913-15.327-1.741c-2.775-0.452-3.966,3.789-1.17,4.244c5.479,0.892,10.978,1.552,16.515,1.897
		c0.186,4.047,0.837,8.052,1.951,11.81C14.069,78.4,5.053,82.923,4.952,94.297c-0.025,2.839,4.376,2.837,4.401,0
		c0.082-9.223,8.075-12.3,15.922-13.517c3.888,9.399,11.043,16.501,21.472,17.442c0.198,0.06,0.407,0.105,0.644,0.11
		c0.391,0.008,0.771-0.004,1.153-0.012c0.382,0.008,0.763,0.02,1.153,0.012c0.237-0.005,0.447-0.049,0.644-0.11
		c10.357-0.934,17.478-7.951,21.383-17.254c8.059,0.985,17.638,3.77,18.806,13.085c0.348,2.777,4.754,2.811,4.401,0
		C93.485,82.496,83.461,78.268,73.213,76.767z M51.59,20.177c0.221-0.17,0.422-0.395,0.587-0.691
		c1.953-3.506,3.151-7.286,3.521-11.211c2.745,2.439,5.343,5.624,5.03,9.152c-0.39,4.394-4.421,6.704-8.08,8.342
		c-0.728-0.302-1.771-0.817-2.202-1.59c0.091-0.587,0.068-1.183-0.024-1.777C50.659,21.604,51.111,20.871,51.59,20.177z
		 M35.58,17.427c-0.313-3.527,2.284-6.713,5.03-9.152c0.369,3.925,1.568,7.705,3.521,11.211c0.165,0.296,0.366,0.521,0.587,0.691
		c0.478,0.694,0.93,1.426,1.169,2.225c-0.092,0.594-0.115,1.19-0.024,1.777c-0.431,0.773-1.474,1.287-2.202,1.59
		C40.001,24.13,35.971,21.821,35.58,17.427z M26.13,63.085c0.017-0.185,0.016-0.372-0.008-0.558
		c-0.033-7.63,1.737-15.266,5.297-21.13c1.251,11.85,5.155,23.41,11.71,33.18c-2.497,4.528-5.421,8.747-8.779,12.665
		C29.015,81.331,26.274,72.249,26.13,63.085z M48.545,93.917c-4.255-0.133-7.899-1.495-10.942-3.725
		c3.133-3.655,5.923-7.565,8.35-11.721c3.634,4.617,7.924,8.74,12.891,12.169C55.935,92.602,52.505,93.793,48.545,93.917z
		 M62.297,87.724c-0.041-0.031-0.073-0.066-0.118-0.095c-17.097-11.213-25.89-31.315-26.743-51.303
		c3.426-3.286,7.793-5.34,13.109-5.465C72.778,31.431,77.386,71.937,62.297,87.724z"/>
</g>
</svg>
