<?xml version="1.0" encoding="iso-8859-1"?>
<!-- Generator: Adobe Illustrator 17.0.2, SVG Export Plug-In . SVG Version: 6.00 Build 0)  -->
<!DOCTYPE svg PUBLIC "-//W3C//DTD SVG 1.1//EN" "http://www.w3.org/Graphics/SVG/1.1/DTD/svg11.dtd">
<svg version="1.1" id="Capa_1" xmlns="http://www.w3.org/2000/svg" xmlns:xlink="http://www.w3.org/1999/xlink" x="0px" y="0px"
	 width="100px" height="100px" viewBox="0 0 100 100" style="enable-background:new 0 0 100 100;" xml:space="preserve">
<g>
	<path style="fill:#1E1E1C;" d="M35.708,36.622c3.365,2.385,7.176,3.646,11.021,3.646c5.032,0,9.986-2.115,13.951-5.955
		c1.056-1.023,2.16-2.218,2.457-2.572c0.133-0.159,0.254-0.341,0.36-0.542c3.809-7.197,3.171-14.643-1.752-20.429
		c-1.161-1.365-2.193-2.525-2.568-2.887c-0.197-0.189-0.438-0.359-0.718-0.503c-3.421-1.76-6.886-2.652-10.3-2.652
		c-4.694,0-9.223,1.663-13.462,4.942c-0.197,0.152-0.366,0.318-0.502,0.493c-0.303,0.391-1.281,1.728-2.146,2.997
		C26.401,21.444,27.906,31.092,35.708,36.622z M38.268,14.379c0.09-0.095,0.17-0.194,0.242-0.293c0.291-0.404,1.547-1.496,3.01-2.23
		c3.209-1.612,6.799-1.959,10.377-1.004c1.673,0.446,3.986,1.875,5.156,3.185c3.025,3.388,3.981,7.331,2.764,11.402
		c-0.459,1.534-1.199,2.884-1.451,3.147c-2.784,3.739-6.671,5.763-11.003,5.763c-5.289,0-10.306-3.075-12.201-7.477
		C34.143,24.507,33.194,19.74,38.268,14.379z"/>
	<path style="fill:#1E1E1C;" d="M83.567,51.471c-0.006-0.371-0.1-0.762-0.335-1.161c-2.478-4.203-6.76-6.125-11.565-5.537
		c-0.043,0.005-0.08,0.02-0.122,0.027c-0.091-0.009-0.177-0.027-0.274-0.027c-16.644,0-33.406-0.783-49.986,0.978
		c-0.3-0.034-0.626-0.01-0.979,0.098c-3.401,1.038-6.286,3.373-7.762,6.641c-0.136,0.302-0.224,0.616-0.262,0.928
		c-0.155,0.301-0.253,0.653-0.261,1.065c-0.223,11.368-0.696,22.722,0,34.084c0.06,0.978,0.593,1.64,1.281,1.992
		c0.352,0.334,0.833,0.556,1.461,0.556c4.498,0,8.996-0.019,13.49-0.227c0.009,1.509,0.016,2.909,0.019,4.117
		c0.001,0.419,0.096,0.776,0.25,1.081c0.271,0.771,0.937,1.387,2,1.389c12.718,0.015,25.434,0.262,38.152,0.276
		c1.99,0.002,2.587-2.146,1.801-3.449c-0.004-0.502-0.011-1.035-0.019-1.588c3.642-0.186,7.287-0.216,10.935-0.216
		c0.576,0,1.03-0.186,1.373-0.474c1.307,0.194,2.78-0.56,2.776-2.268c-0.025-12.304-0.436-24.59-1.387-36.858
		C84.105,52.307,83.885,51.833,83.567,51.471z M50.134,50.305c1.027,1.198,2.035,2.409,2.946,3.696
		c-0.803,1.105-1.635,2.188-2.46,3.277c-1.125-0.887-2.178-1.869-3.242-2.832C48.34,53.094,49.276,51.725,50.134,50.305z
		 M33.018,93.062c-0.034-7.648-0.178-19.958-0.191-26.69c-0.006-3.067-4.762-3.067-4.756,0c0.01,5.011,0.092,13.12,0.148,20.093
		c-3.843,0.177-7.688,0.217-11.535,0.223c-0.537-10.68-0.124-21.353,0.089-32.04c0.968-1.997,2.499-3.45,4.628-4.152
		c8.176-0.862,16.396-1.108,24.624-1.137c-0.797,1.235-1.647,2.435-2.501,3.631c-0.239,0.334-0.32,0.732-0.282,1.125
		c-0.445,0.69-0.473,1.592,0.345,2.299c1.582,1.368,3.099,2.801,4.737,4.098c-1.781,4.884-3.98,9.553-6.716,13.978
		c-0.139,0.225-0.217,0.447-0.262,0.663c-0.21,0.494-0.227,1.081,0.096,1.689c2.858,5.39,5.726,10.773,8.214,16.345
		C44.109,93.134,38.564,93.081,33.018,93.062z M45.445,75.866c2.269-3.76,4.152-7.708,5.767-11.782
		c1.685,3.668,3.22,7.388,4.359,11.281c0.005,0.017,0.014,0.031,0.019,0.048c-0.005,0.02-0.014,0.035-0.019,0.056
		c-1.032,4.33-2.411,8.555-3.798,12.779C49.787,84.059,47.618,79.962,45.445,75.866z M70.363,88.295
		c-0.187-7.429-0.565-16.745-0.876-22.318c-0.171-3.049-4.927-3.066-4.756,0c0.387,6.926,0.88,19.658,0.976,27.335
		c-3.784-0.014-7.568-0.052-11.352-0.088c1.781-5.539,3.722-11.026,5.073-16.693c0.09-0.379,0.07-0.721-0.017-1.027
		c0.127-0.345,0.15-0.75,0.017-1.203c-1.462-4.996-3.555-9.739-5.788-14.428c1.025-1.374,2.084-2.723,3.086-4.115
		c0.096-0.133,0.159-0.278,0.206-0.427c0.605-0.558,0.875-1.433,0.294-2.342c-0.802-1.256-1.709-2.437-2.652-3.59
		c5.504,0.049,11.006,0.126,16.495,0.128c0.185,0.022,0.381,0.027,0.597,0.001c3.17-0.388,5.772,0.322,7.458,3.182
		c0.086,0.146,0.183,0.271,0.283,0.387c0.898,11.643,1.299,23.302,1.357,34.977C77.296,88.079,73.828,88.115,70.363,88.295z"/>
</g>
</svg>
