<?xml version="1.0" encoding="iso-8859-1"?>
<!-- Generator: Adobe Illustrator 17.0.2, SVG Export Plug-In . SVG Version: 6.00 Build 0)  -->
<!DOCTYPE svg PUBLIC "-//W3C//DTD SVG 1.1//EN" "http://www.w3.org/Graphics/SVG/1.1/DTD/svg11.dtd">
<svg version="1.1" id="Capa_1" xmlns="http://www.w3.org/2000/svg" xmlns:xlink="http://www.w3.org/1999/xlink" x="0px" y="0px"
	 width="100px" height="100px" viewBox="0 0 100 100" style="enable-background:new 0 0 100 100;" xml:space="preserve">
<g>
	<path style="fill:#1D1D1B;" d="M90.669,86.277c-2.361,0.001-4.721,0.01-7.082,0.013c-0.066-0.957-0.185-1.908-0.409-2.853
		c-0.358-1.507-2.043-2.385-3.497-1.985c-1.532,0.421-2.343,1.99-1.985,3.496c0.069,0.289,0.131,0.578,0.185,0.87
		c0.005,0.032,0.007,0.046,0.011,0.072c0.014,0.137,0.024,0.273,0.033,0.41c-4.911,0.01-9.821,0.017-14.732,0.028v-2.894
		c0-1.549-1.293-2.842-2.842-2.842c-1.549,0-2.842,1.293-2.842,2.842v2.897c-4.8,0.006-9.601,0.021-14.401,0.007v-1.767
		c0-1.549-1.293-2.842-2.842-2.842s-2.842,1.293-2.842,2.842v1.734c-4.042-0.022-8.085-0.042-12.127-0.092v-2.021
		c0-1.549-1.293-2.842-2.842-2.842s-2.842,1.293-2.842,2.842v1.945c-3.002-0.049-6.004-0.105-9.005-0.176
		c0.176-4.315,0.299-8.632,0.401-12.949h3.109c1.549,0,2.842-1.293,2.842-2.842c0-1.549-1.293-2.842-2.842-2.842h-2.981
		c0.065-3.663,0.098-7.326,0.128-10.99h1.717c1.549,0,2.842-1.293,2.842-2.842c0-1.549-1.293-2.842-2.842-2.842h-1.679
		c0.022-4.926,0.014-9.853,0.008-14.78h3.188c3.666,0,3.666-5.684,0-5.684h-3.189c-0.008-3.916-0.015-7.832-0.022-11.748h3.59
		c3.666,0,3.666-5.684,0-5.684h-3.6V9.537c0-1.549-1.293-2.842-2.842-2.842c-1.55,0-2.842,1.293-2.842,2.842v3.41c0,0,0,0,0,0.001
		c0.01,25.14,0.356,50.29-0.758,75.414c-0.023,0.52,0.081,0.958,0.261,1.33c0.338,1.019,1.198,1.855,2.581,1.891
		c27.659,0.727,55.328,0.389,82.993,0.379C94.334,91.96,94.335,86.276,90.669,86.277z"/>
	<path style="fill:#1D1D1B;" d="M21.319,26.401h4.62c1.596,3.547,3.13,7.11,4.387,10.798c0.341,1.001,1.049,1.576,1.848,1.818
		c1.238,0.876,3.101,0.918,4.104-0.76c1.144-1.914,2.248-3.848,3.321-5.799c2.544,7.835,4.865,15.736,7.021,23.69
		c0.023,0.085,0.06,0.152,0.088,0.231c0.516,1.94,2.969,3.323,4.662,1.402c1.914-2.171,3.918-4.256,5.95-6.314
		c1.791,3.689,3.368,7.467,4.773,11.331c0.03,0.441,0.14,0.87,0.351,1.23c0.844,1.441,2.476,1.655,3.889,1.02
		c2.23-1.004,4.097-2.555,5.849-4.229c2.156,3.026,4.252,6.092,6.179,9.272c0.201,0.333,0.442,0.585,0.7,0.789
		c0.524,0.604,1.286,0.998,2.133,0.998h3.79c1.549,0,2.842-1.293,2.842-2.842c0-1.549-1.293-2.842-2.842-2.842h-2.361
		c-2.285-3.676-4.77-7.216-7.312-10.719c-1.129-1.556-3.04-1.483-4.271-0.636c-0.583,0.044-1.176,0.286-1.708,0.819
		c-0.944,0.943-1.88,1.838-2.892,2.635c-1.728-4.456-3.665-8.823-5.908-13.049c-0.964-1.817-2.93-1.71-4.169-0.696
		c-0.231,0.129-0.458,0.284-0.674,0.499c-1.64,1.64-3.272,3.288-4.874,4.964c-2.38-8.505-4.943-16.953-7.808-25.311
		c-0.699-2.04-2.903-2.345-4.343-1.54c-0.05,0.022-0.096,0.056-0.145,0.082c-0.039,0.025-0.079,0.046-0.117,0.072
		c-0.375,0.233-0.714,0.578-0.969,1.086c-1.096,2.178-2.255,4.319-3.446,6.443c-1.179-2.938-2.461-5.833-3.772-8.717
		c-0.608-1.338-1.76-1.662-2.825-1.369c-0.127-0.015-0.25-0.038-0.387-0.038h-5.684C17.653,20.716,17.653,26.401,21.319,26.401z"/>
</g>
</svg>
