<?xml version="1.0" encoding="iso-8859-1"?>
<!-- Generator: Adobe Illustrator 17.0.2, SVG Export Plug-In . SVG Version: 6.00 Build 0)  -->
<!DOCTYPE svg PUBLIC "-//W3C//DTD SVG 1.1//EN" "http://www.w3.org/Graphics/SVG/1.1/DTD/svg11.dtd">
<svg version="1.1" id="Capa_1" xmlns="http://www.w3.org/2000/svg" xmlns:xlink="http://www.w3.org/1999/xlink" x="0px" y="0px"
	 width="100px" height="100px" viewBox="0 0 100 100" style="enable-background:new 0 0 100 100;" xml:space="preserve">
<g>
	<path style="fill:#1D1D1B;" d="M26.516,15.269c-0.411-0.352-0.956-0.58-1.652-0.58c-4.392,0-8.78,0.025-13.166,0.263
		c-1.539,0.084-2.373,1.224-2.511,2.422c-0.067,0.227-0.116,0.468-0.123,0.738c-0.288,12.628-0.784,25.25-0.98,37.88
		c-0.098,6.318-0.122,12.638-0.01,18.957c0.058,3.264,0.151,6.527,0.29,9.79c0.101,2.398-1.461,8.417,2.544,8.417
		c0.095,0,0.185-0.019,0.277-0.029c0.085,0.007,0.16,0.029,0.25,0.029c4.746-0.02,9.482-0.264,14.219-0.527
		c1.505-0.083,2.338-1.177,2.504-2.346c0.076-0.248,0.129-0.513,0.129-0.814c-0.007-23.962-0.255-47.923-0.263-71.885
		C28.022,16.388,27.363,15.622,26.516,15.269z M13.781,87.855c-1.157-22.581-0.066-45.166,0.497-67.747
		c2.827-0.104,5.655-0.131,8.484-0.141c0.021,22.513,0.234,45.025,0.253,67.539C19.939,87.667,16.861,87.798,13.781,87.855z"/>
	<path style="fill:#1D1D1B;" d="M50.344,33.07c-0.349-0.24-0.761-0.416-1.255-0.475c-4.306-0.518-8.581-0.72-12.903-0.263
		c-1.067,0.113-1.793,0.729-2.183,1.502c-0.256,0.375-0.428,0.834-0.45,1.395c-0.73,18.347,0.159,36.747-1.844,55.038
		c-0.554,5.135,11.892,3.154,14.746,3.154c1.725,0,2.569-1.358,2.542-2.695c0.039-0.149,0.075-0.3,0.091-0.465
		c1.742-18.217,0.902-36.57,2.896-54.769C52.135,34.12,51.349,33.322,50.344,33.07z M43.991,88.154h-6.804
		c1.648-16.867,0.995-33.826,1.556-50.746c2.594-0.126,5.177-0.042,7.765,0.184C44.86,54.401,45.423,71.33,43.991,88.154z"/>
	<path style="fill:#1D1D1B;" d="M70.977,49.279c-0.176-0.047-0.361-0.082-0.561-0.096c-3.783-0.271-7.56-0.567-11.322-1.053
		c-1.417-0.183-2.222,0.651-2.438,1.705c-0.271,0.385-0.446,0.865-0.458,1.454c-0.266,13.256-0.546,26.511-1.053,39.76
		c-0.08,2.073,1.849,2.869,3.396,2.411c0.312,0.137,0.67,0.219,1.081,0.222c3.25,0.018,6.493,0.246,9.743,0.263
		c1.452,0.008,2.278-0.952,2.488-2.053c0.239-0.371,0.396-0.821,0.408-1.37c0.277-12.908,0.791-25.808,1.316-38.707
		C73.647,50.088,72.318,49.247,70.977,49.279z M67.042,88.637c-2.18-0.063-4.359-0.167-6.541-0.203
		c0.418-11.585,0.68-23.175,0.914-34.765c2.261,0.249,4.527,0.437,6.796,0.611C67.746,65.73,67.308,77.18,67.042,88.637z"/>
	<path style="fill:#1D1D1B;" d="M90.423,71.422c-0.24-0.07-0.495-0.12-0.785-0.12c-2.592,0-5.182,0.018-7.765,0.235
		c-1.538-0.503-3.558,0.295-3.558,2.398v17.379c0,0.781,0.287,1.375,0.716,1.796c0.262,1.026,1.071,1.89,2.444,1.89h8.953
		c1.609,0,2.446-1.183,2.53-2.428c0.061-0.225,0.103-0.464,0.103-0.732c0-5.971-0.023-11.939-0.263-17.905
		C92.736,72.398,91.615,71.564,90.423,71.422z M83.582,89.734V76.682c1.344-0.07,2.688-0.092,4.034-0.102
		c0.132,4.384,0.162,8.768,0.17,13.154H83.582z"/>
	<path style="fill:#1D1D1B;" d="M90.975,27.935c-0.278-2.136-1.985-3.093-3.553-3.093c-1.11,0-2.182,0.465-2.866,1.244
		c-0.646,0.735-0.926,1.716-0.79,2.763c0.167,1.28,0.358,2.602,0.589,4.048C74.731,26.108,54.07,12.452,45,7.257
		c-0.56-0.321-1.134-0.483-1.705-0.483c-1.448,0-2.708,1.075-3.133,2.675c-0.473,1.777,0.223,3.499,1.773,4.387
		c8.718,4.995,28.803,18.316,38.308,25.041c-1.407,0.19-2.816,0.37-4.226,0.547c-2.269,0.285-3.193,2.167-3.091,3.795
		c0.107,1.713,1.34,3.447,3.49,3.447c0.163,0,0.331-0.01,0.505-0.032c4.254-0.534,8.416-1.077,12.567-1.844
		c0.218-0.041,0.431-0.1,0.646-0.18c0.987-0.134,1.856-0.619,2.402-1.346c0.551-0.733,0.744-1.648,0.55-2.691
		C92.318,36.438,91.524,32.164,90.975,27.935z"/>
</g>
</svg>
