<?xml version="1.0" encoding="iso-8859-1"?>
<!-- Generator: Adobe Illustrator 17.0.2, SVG Export Plug-In . SVG Version: 6.00 Build 0)  -->
<!DOCTYPE svg PUBLIC "-//W3C//DTD SVG 1.1//EN" "http://www.w3.org/Graphics/SVG/1.1/DTD/svg11.dtd">
<svg version="1.1" id="Capa_1" xmlns="http://www.w3.org/2000/svg" xmlns:xlink="http://www.w3.org/1999/xlink" x="0px" y="0px"
	 width="100px" height="100px" viewBox="0 0 100 100" style="enable-background:new 0 0 100 100;" xml:space="preserve">
<g>
	<path style="fill:#1E1E1C;" d="M90.481,24.086c-0.19-1.005-0.809-1.544-1.541-1.729c-0.292-0.121-0.609-0.191-0.94-0.191h-0.833
		c-0.263,0-0.514,0.054-0.754,0.132c-0.143-0.025-0.283-0.055-0.443-0.055c-3.303-0.002-6.607-0.019-9.91-0.028
		c-0.07-1.102-0.118-2.207-0.127-3.318c-0.025-3.235-5.044-3.238-5.019,0c0.009,1.103,0.051,2.204,0.118,3.303
		c-2.91-0.01-5.82-0.013-8.729-0.025c-0.093-1.227-0.161-2.457-0.171-3.697c-0.025-3.235-5.044-3.238-5.019,0
		c0.01,1.23,0.073,2.455,0.162,3.677c-2.877-0.012-5.754-0.025-8.632-0.035c-0.083-1.355-0.175-2.709-0.313-4.06
		c-0.325-3.187-5.347-3.219-5.019,0c0.137,1.346,0.23,2.695,0.312,4.045c-2.96-0.007-5.92-0.028-8.879-0.027
		c-0.25-1.141-0.493-2.284-0.724-3.431c-0.639-3.171-5.476-1.826-4.84,1.334c0.142,0.705,0.292,1.408,0.441,2.111
		c-2.759,0.007-5.518,0.004-8.276,0.023c-0.206-0.884-0.435-1.763-0.709-2.632c-0.97-3.075-5.816-1.761-4.84,1.334
		c0.14,0.445,0.24,0.897,0.36,1.345c-2.241,0.023-4.482,0.045-6.723,0.079c-0.626,0.01-1.128,0.208-1.511,0.518
		c-1.182,0.081-2.289,0.878-2.253,2.41c0.4,17.164,0.5,38.336,2.091,55.444c0.021,0.222,0.069,0.426,0.132,0.617
		c0.156,1.122,0.947,2.191,2.378,2.311c27.139,2.266,55.455,5.274,82.225-1.344c1.378-0.341,1.894-1.464,1.775-2.551
		c0.048-0.217,0.079-0.447,0.067-0.705C93.541,61.928,93.665,40.886,90.481,24.086z M10.731,27.248
		c2.152-0.031,4.304-0.031,6.456-0.052c0.247,1.685,0.438,3.381,0.609,5.086c0.32,3.189,5.342,3.22,5.019,0
		c-0.172-1.71-0.347-3.423-0.574-5.127c2.844-0.019,5.688-0.017,8.531-0.023c0.411,1.668,0.847,3.33,1.334,4.98
		c0.914,3.097,5.758,1.778,4.84-1.334c-0.359-1.215-0.687-2.436-1.003-3.66c2.657-0.001,5.314,0.016,7.971,0.022
		c0.064,1.018,0.137,2.035,0.232,3.051c0.296,3.195,5.318,3.223,5.019,0c-0.094-1.011-0.167-2.024-0.231-3.037
		c2.967,0.009,5.934,0.021,8.901,0.032c0.182,1.227,0.384,2.451,0.622,3.672c0.616,3.175,5.454,1.827,4.84-1.334
		c-0.15-0.773-0.28-1.546-0.404-2.32c2.888,0.011,5.776,0.013,8.663,0.022c0.195,1.356,0.417,2.708,0.703,4.05
		c0.673,3.165,5.511,1.822,4.84-1.334c-0.191-0.899-0.356-1.8-0.498-2.703c3.123,0.008,6.246,0.022,9.369,0.024
		c0.654,3.748,1.14,7.509,1.518,11.28c-25.504-0.328-51,0.412-76.49,1.219C10.904,35.59,10.823,31.419,10.731,27.248z
		 M12.621,78.724c-0.864-9.967-1.25-23.954-1.506-33.948c25.595-0.81,51.195-1.553,76.805-1.211
		c0.765,10.043,0.905,24.139,1.349,34.217C64.306,83.508,37.922,80.87,12.621,78.724z"/>
	<path style="fill:#1E1E1C;" d="M54.25,49.796c-3.869,0-3.869,6.367,0,6.367S58.119,49.796,54.25,49.796z"/>
	<path style="fill:#1E1E1C;" d="M66.5,49.531c-3.869,0-3.869,6.367,0,6.367S70.369,49.531,66.5,49.531z"/>
	<path style="fill:#1E1E1C;" d="M78.75,49c-3.869,0-3.869,6.367,0,6.367S82.619,49,78.75,49z"/>
	<path style="fill:#1E1E1C;" d="M54.25,59.347c-3.869,0-3.869,6.367,0,6.367S58.119,59.347,54.25,59.347z"/>
	<path style="fill:#1E1E1C;" d="M66.5,59.082c-3.869,0-3.869,6.367,0,6.367S70.369,59.082,66.5,59.082z"/>
	<path style="fill:#1E1E1C;" d="M78.75,58.551c-3.869,0-3.869,6.367,0,6.367S82.619,58.551,78.75,58.551z"/>
	<path style="fill:#1E1E1C;" d="M19.329,58.979c-3.867-0.117-4.038,6.248-0.17,6.365C23.027,65.46,23.197,59.096,19.329,58.979z"/>
	<path style="fill:#1E1E1C;" d="M31.582,59.083c-3.868-0.117-4.038,6.248-0.17,6.365C35.279,65.564,35.449,59.199,31.582,59.083z"/>
	<path style="fill:#1E1E1C;" d="M43.841,58.921c-3.868-0.117-4.038,6.248-0.17,6.365C47.538,65.403,47.708,59.038,43.841,58.921z"/>
	<path style="fill:#1E1E1C;" d="M19.329,68.53c-3.867-0.117-4.038,6.248-0.17,6.365S23.197,68.647,19.329,68.53z"/>
	<path style="fill:#1E1E1C;" d="M31.582,68.634c-3.868-0.117-4.038,6.248-0.17,6.365C35.279,75.115,35.449,68.75,31.582,68.634z"/>
	<path style="fill:#1E1E1C;" d="M43.841,68.472c-3.868-0.117-4.038,6.248-0.17,6.365C47.538,74.954,47.708,68.589,43.841,68.472z"/>
</g>
</svg>
