<?xml version="1.0" encoding="utf-8"?>
<!-- Generator: Adobe Illustrator 17.0.2, SVG Export Plug-In . SVG Version: 6.00 Build 0)  -->
<!DOCTYPE svg PUBLIC "-//W3C//DTD SVG 1.1//EN" "http://www.w3.org/Graphics/SVG/1.1/DTD/svg11.dtd">
<svg version="1.1" id="Capa_1" xmlns="http://www.w3.org/2000/svg" xmlns:xlink="http://www.w3.org/1999/xlink" x="0px" y="0px"
	 width="100px" height="100px" viewBox="0 0 100 100" enable-background="new 0 0 100 100" xml:space="preserve">
<g>
	<path fill="#1D1D1B" d="M80.125,83.198c-5.891-4.76-13.239-11.391-17.348-16.248c4.231-6.877,7.347-13.77,9.271-20.51
		c2.892-10.138,1.914-20.251-2.755-28.479C65.24,10.824,57.793,3.172,49.374,3.824c-11.92,0.922-17.927,13.74-16.916,36.092
		c0.41,9.068,3.148,18.146,8.141,27.009c-3.987,4.905-10.375,11.656-14.926,16.233c-0.971,0.978-0.969,2.557,0.005,3.53l9.379,9.379
		c0.469,0.469,1.104,0.732,1.768,0.732c0.001,0,0.002,0,0.003,0c0.665-0.001,1.301-0.267,1.77-0.737
		c2.905-2.922,8.853-9.086,13.073-13.974c3.116,3.241,7.051,6.593,10.333,9.389l1.406,1.2c0.304,0.256,0.964,0.867,1.67,1.52
		c1.237,1.142,2.082,1.917,2.538,2.279c0.458,0.364,1.008,0.544,1.556,0.544c0.643,0,1.283-0.247,1.768-0.732l9.379-9.379
		c0.501-0.501,0.767-1.191,0.729-1.899S80.676,83.644,80.125,83.198z M69.078,91.083c-0.209-0.193-0.417-0.384-0.606-0.56
		c-0.776-0.716-1.503-1.385-1.823-1.655l-1.402-1.196c-3.889-3.312-8.729-7.436-11.738-10.995c-0.475-0.562-1.174-0.887-1.909-0.887
		c-0.008,0-0.016,0-0.024,0c-0.744,0.008-1.446,0.346-1.916,0.924c-3.042,3.744-8.453,9.543-12.846,14.038l-5.843-5.844
		c3.46-3.54,10.462-10.854,14.624-16.23c0.628-0.812,0.697-1.924,0.173-2.807c-5.12-8.622-7.916-17.43-8.312-26.181
		C36.279,13.74,44.66,9.204,49.76,8.81c0.206-0.016,0.41-0.024,0.614-0.024c5.499,0,11.279,5.848,14.569,11.644
		c4.002,7.051,4.817,15.801,2.295,24.639c-1.932,6.774-5.174,13.745-9.634,20.719c-0.568,0.887-0.518,2.035,0.124,2.87
		c3.825,4.977,11.172,11.717,17.108,16.667L69.078,91.083z"/>
	<path fill="#1D1D1B" d="M58.846,26.529c-1.668-3.279-3.745-6-6.178-8.089c-0.167-0.143-0.35-0.268-0.633-0.433
		c-0.597-0.348-1.312-0.435-1.972-0.238c-0.662,0.196-1.213,0.658-1.523,1.275c-0.069,0.138-0.137,0.273-0.196,0.39
		c-0.166,0.209-0.301,0.45-0.396,0.716c-0.814,2.292-1.417,4.735-1.793,7.264c-0.701,4.708-0.743,11.192-0.109,16.521
		c0.127,1.067,0.669,4.126,1.451,6.266c0.6,1.64,1.314,3.354,2.186,5.243c0.398,0.863,1.252,1.427,2.203,1.452
		c0.023,0.001,0.045,0.001,0.068,0.001c0.925,0,1.776-0.512,2.21-1.333c1.495-2.829,2.742-5.637,3.709-8.343
		C60.08,41.036,62.187,33.094,58.846,26.529z M53.163,45.54c-0.318,0.89-0.669,1.793-1.054,2.707
		c-0.551-1.619-0.99-3.994-1.099-4.903C50.434,38.495,50.47,32.389,51.1,28.15c0.175-1.172,0.404-2.322,0.687-3.439
		c0.958,1.199,1.829,2.565,2.603,4.085C56.864,33.66,55.034,40.299,53.163,45.54z"/>
</g>
</svg>
