<?xml version="1.0" encoding="iso-8859-1"?>
<!-- Generator: Adobe Illustrator 17.0.2, SVG Export Plug-In . SVG Version: 6.00 Build 0)  -->
<!DOCTYPE svg PUBLIC "-//W3C//DTD SVG 1.1//EN" "http://www.w3.org/Graphics/SVG/1.1/DTD/svg11.dtd">
<svg version="1.1" id="Capa_1" xmlns="http://www.w3.org/2000/svg" xmlns:xlink="http://www.w3.org/1999/xlink" x="0px" y="0px"
	 width="100px" height="100px" viewBox="0 0 100 100" style="enable-background:new 0 0 100 100;" xml:space="preserve">
<g>
	<path style="fill:#1D1D1B;" d="M91.119,9.731C90.403,8.223,88.974,7.063,86.824,7C62.401,6.286,37.969,6.251,13.538,6.25
		C13.07,6.102,12.585,6,12.074,6c-2.726,0-5,2.274-5,5v1.5c0,0.758,0.19,1.473,0.503,2.122C7.418,15.11,7.325,15.65,7.324,16.25
		C7.275,39.508,5.637,62.738,6.074,86c0.009,0.474,0.077,0.909,0.186,1.314c0.155,2.358,1.756,4.548,4.814,4.436
		c26.324-0.963,52.664-0.756,79-0.75c1.784,0,3.072-0.766,3.869-1.873c0.672-0.778,1.108-1.817,1.131-3.127
		c0.425-24.547-1.725-49.008-3-73.5C92.016,11.381,91.659,10.461,91.119,9.731z M16.037,81.595
		c-0.178-21.789,1.241-43.554,1.287-65.343c21.667,0.005,43.334,0.071,64.994,0.632c1.192,21.363,2.885,42.708,2.806,64.112
		C62.093,80.975,39.059,80.877,16.037,81.595z"/>
	<path style="fill:#1D1D1B;" d="M74.027,55.904c-3.117-3.059-6.475-5.826-9.896-8.526c2.345-2.716,4.688-5.435,7.037-8.148
		c0.386-0.446,0.62-0.921,0.748-1.4c0.743-1.287,0.581-2.987-0.511-4.078l-0.476-0.476c-0.393-0.392-0.867-0.651-1.37-0.806
		c-2.514-2.151-4.865-4.477-7.205-6.816c-1.255-1.254-2.785-1.191-3.955-0.48c-0.36,0.161-0.715,0.386-1.047,0.719l-8.129,8.128
		c-2.679-2.561-5.435-5.042-8.069-7.652c-1.238-1.226-2.74-1.182-3.903-0.507c-0.378,0.161-0.75,0.396-1.099,0.745l-8.099,8.099
		c-0.7,0.701-0.979,1.488-0.977,2.252c-0.005,0.045-0.003,0.09-0.005,0.135c0.002,0.04,0.001,0.081,0.004,0.121
		c-0.002,0.765,0.275,1.554,0.978,2.256c2.781,2.781,5.582,5.537,8.48,8.193l-8.957,8.957c-1.414,1.414-1.158,3.18-0.181,4.382
		c0.128,0.542,0.401,1.079,0.896,1.573l8.575,8.575c1.084,1.084,2.374,1.18,3.461,0.732c0.689-0.054,1.389-0.341,2.018-0.97
		L51.257,62c3.158,2.875,6.239,5.834,9.431,8.672c1.436,1.277,3.174,1.046,4.381,0.147c0.295-0.156,0.585-0.349,0.859-0.623
		l8.338-8.337c1.069-1.07,1.176-2.341,0.748-3.419C75.098,57.589,74.828,56.69,74.027,55.904z M62.954,63.642
		c-2.979-2.738-5.902-5.535-8.936-8.214c-0.184-0.162-0.373-0.292-0.564-0.407c-1.192-1.184-3.145-1.601-4.676-0.069l-9.29,9.29
		l-5.002-5.002l9.289-9.29c1.359-1.358,1.183-3.045,0.301-4.241c-0.177-0.347-0.421-0.685-0.776-0.999
		c-2.782-2.456-5.454-5.023-8.092-7.629l3.607-3.607c2.446,2.317,4.946,4.578,7.343,6.949c0.229,0.227,0.468,0.398,0.712,0.542
		c1.181,1.258,3.192,1.746,4.767,0.173l8.348-8.349c1.42,1.391,2.874,2.744,4.372,4.05c-2.334,2.703-4.665,5.41-7.003,8.11
		c-0.209,0.24-0.364,0.49-0.494,0.744c-1.311,1.178-1.762,3.113,0.018,4.497c3.654,2.844,7.268,5.725,10.662,8.87L62.954,63.642z"/>
</g>
</svg>
