<?xml version="1.0" encoding="utf-8"?>
<!-- Generator: Adobe Illustrator 17.0.2, SVG Export Plug-In . SVG Version: 6.00 Build 0)  -->
<!DOCTYPE svg PUBLIC "-//W3C//DTD SVG 1.1//EN" "http://www.w3.org/Graphics/SVG/1.1/DTD/svg11.dtd">
<svg version="1.1" id="Capa_1" xmlns="http://www.w3.org/2000/svg" xmlns:xlink="http://www.w3.org/1999/xlink" x="0px" y="0px"
	 width="100px" height="100px" viewBox="0 0 100 100" enable-background="new 0 0 100 100" xml:space="preserve">
<g>
	<path fill="#1D1D1B" d="M56.665,77.98c-0.259-1.211,0.087-2.445,0.948-3.387c1.348-1.473,2.488-2.904,3.695-4.419
		c0.334-0.42,0.678-0.846,1.021-1.273c-0.066-1.568-0.128-3.136-0.185-4.704c-1.136-1.412-2.306-2.851-3.5-4.045
		c-0.175-0.175-0.331-0.365-0.474-0.575c-0.665-0.756-0.99-1.667-0.985-2.572c0.185,5.612,0.368,11.224,0.66,16.832
		c-9.061,0.241-18.122,0.268-27.183,0.026c0.47-16.687-1.824-33.26-2.006-49.931c8.85-0.274,17.702-0.457,26.556-0.55
		c0.001,0.088-0.008,0.17,0.003,0.264c1.227,11.058,1.601,22.161,1.967,33.268c0.028-0.924,0.404-1.835,1.132-2.563l3.373-3.373
		c-0.325-9.126-0.753-18.244-1.762-27.332c-0.012-0.107-0.041-0.202-0.064-0.302c1.378-0.009,2.755-0.014,4.133-0.021
		c0.277,8.31,0.342,16.623,0.669,24.918c0.511-0.282,1.067-0.455,1.646-0.473c0.202-0.035,0.406-0.053,0.609-0.053
		c0.901,0,1.747,0.363,2.436,0.998c-0.333-8.451-0.373-16.91-0.651-25.363c-0.013-0.405,6.469,0.983,7.131,1.421
		c2.277,1.503,2.692,4.25,2.904,6.779c0.555,6.629,0.314,13.491,0.146,20.26c0.188-0.175,0.375-0.348,0.588-0.545
		c0.162-0.151,0.458-0.518,0.719-0.843c0.819-1.018,1.876-2.317,3.256-2.857c-0.003-0.275-0.005-0.55-0.008-0.826
		c-0.035-3.76-0.122-7.53-0.045-11.29c0.043-2.083,0.203-4.299,0.079-6.421c-0.754-12.876-16.33-10.387-25.315-10.38
		c0.143,0-2.42-4.137-2.841-4.528c-1.268-1.177-2.77-1.96-4.432-2.405c-3.784-1.013-7.911-0.411-11.764-0.267
		c-5.536,0.207-9.879,1.716-11.045,7.786c-3.451,0.108-6.903,0.222-10.354,0.358c-4.164-0.351-8.814,0.614-11.609,3.975
		c-1.94,2.333-1.511,5.725-1.58,8.591c-0.103,4.252-0.201,8.502-0.212,12.755c-0.013,4.808,0.063,9.615,0.224,14.419
		c0.137,4.097-0.53,8.468,0.95,12.389c2.877,7.627,12.867,6.42,19.454,6.67c0,0.029-0.007,0.054-0.007,0.083
		c0.099,7.915,12.948,9.145,12.117,0.209c5.593,0.079,11.185,0.054,16.778-0.045c-0.017,3.36,2.456,5.906,5.73,6.158
		c0.982,0.076,1.861-0.029,2.639-0.286c-1.249-1.269-2.479-2.545-3.649-3.892C57.604,80.041,56.898,79.07,56.665,77.98z
		 M34.77,16.464c2.987-0.274,5.989-0.395,8.989-0.334c1.786,0.036,3.743-0.328,5.5,0.07c1.008,0.228,3.44,2.513,3.822,2.509
		c-6.691,0.082-13.381,0.199-20.07,0.383C33.383,18.095,33.947,17.225,34.77,16.464z M12.984,73.1
		c-0.167-0.102-0.343-0.193-0.534-0.26c-0.232-0.081-0.36-0.13-0.779-0.363c-0.173-0.096-0.335-0.211-0.496-0.325
		c0.077,0.039-0.33-0.296-0.336-0.302c-0.427-0.402-0.721-0.811-1.036-1.369c-0.001-0.028,0.005-0.052,0.003-0.08
		C8.857,55.914,8.842,41.418,9.435,26.917c1.528-1.632,3.379-2.513,5.488-2.729c0.977,16.292,1.922,32.584,2.283,48.904
		c0.002,0.084,0.02,0.157,0.029,0.237C15.818,73.254,14.401,73.188,12.984,73.1z M25.955,73.715
		c-1.359-0.049-2.718-0.093-4.076-0.152c0.024-0.149,0.04-0.303,0.036-0.47c-0.36-16.305-1.305-32.582-2.28-48.859
		c1.439-0.055,2.878-0.094,4.316-0.144C24.145,40.658,26.406,57.131,25.955,73.715z M32.327,79.871
		c-0.032,0.083-0.084,0.223-0.116,0.279c-0.003,0.006-0.003,0.007-0.006,0.012c-0.024,0.02-0.054,0.046-0.101,0.093
		c-0.006,0.006-0.007,0.007-0.012,0.013c-0.03,0.013-0.074,0.037-0.14,0.076c-0.031,0.018-0.041,0.026-0.063,0.04
		c-0.036,0.009-0.084,0.022-0.157,0.045c-0.108,0.034-0.22,0.048-0.331,0.071c-0.023-0.001-0.043-0.007-0.067-0.008
		c-0.028,0-0.351-0.027-0.445-0.026c-0.154-0.032-0.308-0.066-0.459-0.111c-0.016-0.005-0.019-0.005-0.032-0.009
		c-0.026-0.017-0.059-0.037-0.117-0.069c-0.041-0.027-0.067-0.044-0.092-0.06c-0.052-0.048-0.106-0.094-0.154-0.146
		c-0.009-0.009-0.011-0.01-0.018-0.017c-0.014-0.027-0.028-0.053-0.058-0.1c-0.038-0.064-0.07-0.131-0.104-0.198
		c-0.01-0.032-0.026-0.078-0.048-0.14c-0.052-0.161-0.083-0.328-0.115-0.494c0.029,0.078-0.016-0.371-0.032-0.57
		c0.898,0.026,1.797,0.026,2.696,0.047c0.038,0.345,0.048,0.687,0.031,1.033C32.373,79.64,32.349,79.761,32.327,79.871z"/>
	<path fill="#1D1D1B" d="M92.444,76.296c-2.723-3.011-5.43-6.034-8.045-9.139l7.906-7.906c0.878-0.878,0.599-2.001-0.107-2.654
		c-0.063-0.108-0.135-0.216-0.224-0.32c-1.93-2.25-4.019-4.348-6.113-6.443c-0.373-0.373-0.75-0.529-1.122-0.529
		c-0.432,0-0.858,0.212-1.269,0.529c-1.028,0.794-1.961,2.268-2.634,2.894c-0.826,0.768-1.446,1.341-2.009,1.86
		c-1.071,0.986-1.921,1.764-3.492,3.225c-1.776-1.79-3.971-4.03-5.855-6.056c-0.462-0.497-0.911-0.985-1.324-1.446
		c-0.378-0.422-0.813-0.598-1.236-0.598c-0.137,0-0.273,0.018-0.405,0.053c-0.029-0.002-0.059-0.002-0.089-0.002
		c-0.422,0-0.858,0.16-1.245,0.547l-0.409,0.409l-2.989,2.989l-2.055,2.055c-0.846,0.846-0.62,1.922,0.03,2.584
		c0.08,0.133,0.176,0.265,0.301,0.39c0.674,0.674,1.325,1.406,1.966,2.162c1.316,1.553,2.585,3.213,3.885,4.737
		c0.309,0.362,0.619,0.717,0.933,1.06c-0.248,0.267-0.482,0.533-0.718,0.799c-1.317,1.484-2.479,2.955-3.657,4.43
		c-1.062,1.331-2.142,2.665-3.379,4.016c-0.779,0.851-0.576,1.901,0.026,2.568c0.2,0.222,0.445,0.402,0.712,0.517
		c0.331,0.386,0.686,0.75,1.026,1.127c1.029,1.139,2.085,2.253,3.166,3.344c0.341,0.344,0.676,0.693,1.018,1.036
		c0.386,0.386,0.82,0.548,1.241,0.548c0.3,0,0.592-0.082,0.857-0.223c0.247-0.091,0.489-0.246,0.712-0.49
		c2.023-2.219,4.113-4.371,6.219-6.509c0.811-0.824,1.618-1.652,2.435-2.471c0.469,0.563,0.955,1.111,1.431,1.669
		c2.056,2.412,4.152,4.789,6.273,7.146c0.378,0.42,0.812,0.596,1.234,0.596c0.355,0,0.701-0.124,1-0.331
		c0.309-0.056,0.618-0.186,0.906-0.43c2.086-1.764,3.357-2.993,5.431-4.77c0.959-0.822,0.684-1.93-0.054-2.58
		C92.647,76.555,92.559,76.423,92.444,76.296z M85.816,80.411c-1.614-1.799-3.208-3.615-4.784-5.447
		c-0.99-1.152-1.981-2.304-2.942-3.481c-0.177-0.216-0.368-0.369-0.566-0.471c-0.21-0.108-0.427-0.159-0.642-0.159
		c-0.171,0-0.341,0.031-0.505,0.087c-0.005,0-0.01,0-0.015,0c-0.423,0-0.858,0.155-1.246,0.543c-0.549,0.549-1.092,1.105-1.64,1.655
		c-1.639,1.648-3.26,3.312-4.866,4.99c-0.764,0.798-1.537,1.587-2.289,2.397c-0.065-0.066-0.124-0.136-0.189-0.202
		c-1.031-1.051-2.041-2.12-3.018-3.221c1.108-1.188,2.083-2.367,3.027-3.546c0.24-0.299,0.478-0.598,0.715-0.897
		c1.183-1.491,2.362-2.985,3.733-4.501c0.044-0.049,0.084-0.097,0.129-0.146c0.796-0.873,0.561-1.955-0.074-2.62
		c-0.069-0.12-0.154-0.239-0.256-0.354c-0.036-0.04-0.071-0.083-0.107-0.123c-1.69-1.904-3.304-4.122-5.017-6.111
		c-0.514-0.597-1.036-1.176-1.573-1.715l1.357-1.357l1.57-1.57c0.951,1.034,2.038,2.173,3.153,3.323
		c1.545,1.593,3.144,3.205,4.522,4.583c0.27,0.269,0.585,0.389,0.934,0.389c0.996,0,2.269-0.987,3.562-2.277
		c1.747-1.741,3.528-4.033,4.726-5.261c0.513-0.526,0.922-0.861,1.17-0.861c0.061,0,0.113,0.02,0.154,0.062
		c1.21,1.228,2.408,2.466,3.559,3.75l-4.847,4.847l-2.674,2.674c-0.162,0.162-0.274,0.335-0.362,0.51
		c-0.499,0.674-0.641,1.648,0.032,2.464c0.844,1.024,1.717,2.024,2.582,3.029c1.86,2.161,3.744,4.301,5.654,6.418
		C87.565,78.904,87.042,79.328,85.816,80.411z"/>
</g>
</svg>
