<?xml version="1.0" encoding="iso-8859-1"?>
<!-- Generator: Adobe Illustrator 17.0.2, SVG Export Plug-In . SVG Version: 6.00 Build 0)  -->
<!DOCTYPE svg PUBLIC "-//W3C//DTD SVG 1.1//EN" "http://www.w3.org/Graphics/SVG/1.1/DTD/svg11.dtd">
<svg version="1.1" id="Capa_1" xmlns="http://www.w3.org/2000/svg" xmlns:xlink="http://www.w3.org/1999/xlink" x="0px" y="0px"
	 width="100px" height="100px" viewBox="0 0 100 100" style="enable-background:new 0 0 100 100;" xml:space="preserve">
<g>
	<path style="fill:#1D1D1B;" d="M41.628,25.367c-1.239-1.226-2.741-1.182-3.904-0.507c-0.378,0.161-0.75,0.396-1.099,0.745
		l-8.099,8.099c-0.7,0.701-0.979,1.488-0.977,2.252c-0.004,0.045-0.002,0.09-0.005,0.135c0.003,0.04,0.001,0.081,0.005,0.121
		c-0.003,0.765,0.275,1.554,0.977,2.256c2.782,2.781,5.583,5.537,8.481,8.193l-8.958,8.957c-1.414,1.414-1.158,3.18-0.181,4.382
		c0.129,0.542,0.402,1.079,0.896,1.573l8.575,8.575c1.084,1.084,2.374,1.18,3.461,0.732c0.689-0.054,1.389-0.341,2.018-0.97
		L51.729,61c3.158,2.875,6.239,5.834,9.431,8.672c1.435,1.277,3.173,1.046,4.38,0.147c0.295-0.156,0.586-0.349,0.86-0.623
		l8.337-8.337c1.069-1.07,1.177-2.341,0.748-3.419c0.084-0.851-0.186-1.75-0.986-2.536c-3.117-3.059-6.475-5.826-9.896-8.526
		c2.346-2.716,4.688-5.435,7.037-8.148c0.387-0.446,0.62-0.921,0.748-1.4c0.743-1.287,0.581-2.987-0.51-4.078l-0.477-0.476
		c-0.393-0.392-0.867-0.651-1.369-0.806c-2.515-2.151-4.866-4.477-7.206-6.816c-1.254-1.254-2.784-1.191-3.955-0.48
		c-0.36,0.161-0.715,0.386-1.047,0.719l-8.128,8.128C47.018,30.458,44.262,27.977,41.628,25.367z M60.457,31.787
		c1.419,1.391,2.873,2.744,4.372,4.05c-2.335,2.703-4.666,5.41-7.004,8.11c-0.208,0.24-0.364,0.49-0.494,0.744
		c-1.311,1.178-1.761,3.113,0.018,4.497c3.654,2.844,7.268,5.725,10.662,8.87l-4.584,4.584c-2.979-2.738-5.903-5.535-8.937-8.214
		c-0.184-0.162-0.373-0.292-0.564-0.407c-1.192-1.184-3.144-1.601-4.676-0.069l-9.29,9.29l-5.002-5.002l9.29-9.29
		c1.358-1.358,1.182-3.045,0.3-4.241c-0.176-0.347-0.421-0.685-0.776-0.999c-2.782-2.456-5.454-5.023-8.092-7.629l3.607-3.607
		c2.447,2.317,4.946,4.578,7.343,6.949c0.229,0.227,0.469,0.398,0.712,0.542c1.182,1.258,3.192,1.746,4.767,0.173L60.457,31.787z"/>
	<path style="fill:#1D1D1B;" d="M51.035,5.211c-1.981,0-3.995,0.118-6.008,0.353c-0.944,0.121-1.886,0.262-2.799,0.417
		c-0.577,0.09-1.108,0.262-1.586,0.51C21.658,9.008,7.128,23.231,4.419,42.005C1.103,65,18.524,86.667,43.257,90.306
		c2.175,0.32,4.413,0.482,6.653,0.482c0.001,0,0.001,0,0.003,0c22.705,0,42.427-15.434,45.875-35.9
		c1.986-11.792-2.308-24.735-11.781-35.509C75.974,10.243,64.265,5.211,51.035,5.211z M53.666,15.553
		c8.899,0.618,16.624,4.298,22.973,10.948c7.456,7.811,10.782,18.795,8.681,28.665c-2.675,12.562-15.876,25.277-35.932,25.277
		c-2.328,0-4.619-0.204-6.811-0.605c-18.442-3.383-30.911-20.4-27.796-37.935c2.674-15.04,15.907-25.543,32.183-25.543
		c1.099,0,2.214,0.049,3.313,0.146C51.616,16.625,52.755,16.28,53.666,15.553z"/>
</g>
</svg>
