<?xml version="1.0" encoding="iso-8859-1"?>
<!-- Generator: Adobe Illustrator 17.0.2, SVG Export Plug-In . SVG Version: 6.00 Build 0)  -->
<!DOCTYPE svg PUBLIC "-//W3C//DTD SVG 1.1//EN" "http://www.w3.org/Graphics/SVG/1.1/DTD/svg11.dtd">
<svg version="1.1" id="Capa_1" xmlns="http://www.w3.org/2000/svg" xmlns:xlink="http://www.w3.org/1999/xlink" x="0px" y="0px"
	 width="100px" height="100px" viewBox="0 0 100 100" style="enable-background:new 0 0 100 100;" xml:space="preserve">
<g>
	<path style="fill:#1E1E1C;" d="M95.437,21.806c-0.007-0.207-0.014-0.414-0.021-0.622c-0.083-2.459-0.367-4.681-1.99-6.649
		c-1.489-1.806-4.001-2.395-6.208-2.598c-0.129-0.012-0.253,0.002-0.377,0.015c-0.069-0.003-0.131-0.017-0.203-0.015
		c-9.304,0.249-18.602,0.012-27.903-0.267c-0.079-0.006-0.15-0.023-0.232-0.023H46.32c-0.047,0-0.086,0.011-0.132,0.013
		c-0.054-0.002-0.102-0.014-0.158-0.013c-4.68,0.075-8.634,2.617-9.479,7.428c-0.041,0.235-0.05,0.469-0.043,0.7
		c-0.017,0.095-0.042,0.183-0.05,0.284c-0.464,6.093-0.763,12.199-0.891,18.309c-0.065,3.119-0.085,6.239-0.06,9.358
		c0.026,3.238-0.373,6.619,1.38,9.535c1.552,2.582,4.15,3.434,6.958,3.947c0.13,0.024,0.269,0.033,0.413,0.036
		c0.01,0,0.02,0.002,0.058,0c0.088,0,0.169,0.011,0.263,0.002c5.963-0.544,11.934-0.812,17.919-0.857
		c0.415,0.246,0.834,0.483,1.257,0.714c0.036,0.024,0.062,0.053,0.1,0.076c6.174,3.775,12.623,7.024,19.143,10.152
		c1.341,0.643,2.606,0.112,3.335-0.804c0.527-0.479,0.805-1.178,0.608-2.038c-0.032-0.224-0.098-0.441-0.205-0.648l-2.983-7.756
		h2.303c0.134,0,0.253-0.021,0.376-0.037c2.128,0.238,4.321,0.125,6.121-1.196c3.496-2.564,3.456-7.443,3.535-11.314
		c0.114-5.536-0.074-11.081-0.296-16.611C95.672,27.887,95.543,24.847,95.437,21.806z M90.851,51.739
		c-0.131,1.056-0.456,2.043-1.198,2.802c-1.357,0.984-3.512,0.363-5.058,0.325c-1.332-0.033-2.762,0-4.049,0
		c-0.354,0-0.663,0.068-0.943,0.172c-1.503,0.135-2.844,1.34-2.155,3.132c0.732,1.904,1.464,3.808,2.197,5.711
		c-4.105-2.06-8.155-4.223-12.1-6.584c-0.141-0.129-0.297-0.245-0.474-0.335c-0.594-0.3-1.17-0.629-1.742-0.966
		c-0.42-0.5-1.042-0.844-1.896-0.841c-6.299,0.022-12.58,0.298-18.853,0.87c-0.039,0.004-0.072,0.016-0.111,0.021
		c-0.061-0.005-0.115-0.02-0.179-0.021c-0.836-0.016-1.475-0.164-2.114-0.542c-0.48-0.284-0.934-0.939-1.17-1.602
		c-0.064-0.18-0.145-0.35-0.237-0.511c0.027-0.169,0.045-0.345,0.04-0.535c-0.259-10.935,0.036-21.851,0.869-32.757
		c0.525-2.293,1.87-3.169,4.352-3.209c0.048-0.001,0.088-0.013,0.134-0.015c0.054,0.003,0.101,0.015,0.156,0.015h11.602
		c5.542,0.007,11.062,0.461,16.599,0.5c2.812,0.02,5.609-0.182,8.416-0.292c1.852-0.073,4.409-0.359,6.029,0.781
		c1.918,1.351,1.455,4.382,1.521,6.416c0.1,3.068,0.205,6.135,0.289,9.203c0.084,3.069,0.14,6.138,0.14,9.208
		c0,1.562-0.013,3.125-0.047,4.687C90.841,48.674,91.033,50.272,90.851,51.739z"/>
	<path style="fill:#1E1E1C;" d="M58.119,65.042c0,0,0,6.15,0.003,6.178c-0.127,0.296-0.211,0.619-0.249,0.956
		c0.048-0.427-0.101,0.377-0.101,0.374c-0.023,0.089-0.037,0.151-0.045,0.192c-0.018,0.034-0.038,0.07-0.069,0.133
		c-0.01,0.02-0.208,0.32-0.237,0.387c-0.095,0.107-0.195,0.208-0.3,0.304c0.024-0.045-0.352,0.237-0.383,0.255
		c-0.06,0.035-0.094,0.056-0.127,0.077c-0.04,0.009-0.098,0.026-0.203,0.061c-0.617,0.208-0.676,0.173-1.242,0.184
		c-0.08,0.002-0.148,0.019-0.224,0.027c-0.09-0.009-0.173-0.027-0.268-0.027H36.717c-0.795,0-1.39,0.309-1.787,0.772
		c-0.236,0.106-0.469,0.241-0.691,0.441c-2.239,2.015-4.42,4.086-6.551,6.208c0.304-1.346,0.586-2.698,0.823-4.061
		c0.708-4.071-4.372-2.98-6.584-2.923c-2.5,0.064-5.995,0.962-8.405,0.331c-0.766-0.201-2.596-1.208-2.643-2.159
		c-0.514-10.199-1.213-20.388-1.713-30.589c-0.001-0.022-0.008-0.041-0.009-0.063c-0.005-0.189-0.028-0.385-0.079-0.591
		c-0.26-1.051-0.252-1.965,0.052-2.514c1.349-2.434,6.019-1.674,8.226-1.485c4.07,0.348,8.145,0.319,12.228,0.471
		c3.174,0.118,3.163-4.803-0.002-4.92c-4.079-0.151-8.162-0.212-12.244-0.234c-4.366-0.024-9.369-0.447-12.314,3.465
		c-1.299,1.726-1.212,4.183-0.761,6.201c0.502,10.143,1.196,20.276,1.704,30.419c0.009,0.178,0.038,0.344,0.075,0.502
		c-0.016,0.393,0.053,0.807,0.261,1.232c3.063,6.27,11.017,5.038,16.826,4.813c-0.731,3.393-1.669,6.731-2.806,10.019
		c-0.326,0.942-0.082,1.715,0.437,2.24c0.794,1.18,2.453,1.757,3.675,0.4c4.12-4.578,8.467-8.927,13.036-13.055h17.204
		c0.078,0,0.145-0.016,0.219-0.022c0.091,0.007,0.176,0.024,0.273,0.022c2.026-0.04,3.77-0.64,5.337-1.92
		c1.447-1.181,2.045-3.036,2.268-4.817c0.165-0.319,0.267-0.693,0.267-1.135v-6.15C63.039,61.87,58.119,61.87,58.119,65.042z"/>
</g>
</svg>
