<?xml version="1.0" encoding="iso-8859-1"?>
<!-- Generator: Adobe Illustrator 17.0.2, SVG Export Plug-In . SVG Version: 6.00 Build 0)  -->
<!DOCTYPE svg PUBLIC "-//W3C//DTD SVG 1.1//EN" "http://www.w3.org/Graphics/SVG/1.1/DTD/svg11.dtd">
<svg version="1.1" id="Capa_1" xmlns="http://www.w3.org/2000/svg" xmlns:xlink="http://www.w3.org/1999/xlink" x="0px" y="0px"
	 width="100px" height="100px" viewBox="0 0 100 100" style="enable-background:new 0 0 100 100;" xml:space="preserve">
<g>
	<path style="fill:#1E1E1C;" d="M91.85,24.132c-0.01-0.293-0.02-0.585-0.03-0.878c-0.117-3.473-0.518-6.61-2.811-9.39
		c-2.103-2.55-5.65-3.382-8.768-3.67c-0.182-0.017-0.357,0.003-0.532,0.021c-0.098-0.004-0.185-0.024-0.288-0.021
		c-13.14,0.352-26.272,0.017-39.406-0.377c-0.111-0.009-0.212-0.033-0.328-0.033H22.482c-0.066,0-0.122,0.016-0.187,0.018
		c-0.077-0.003-0.144-0.02-0.223-0.018c-6.61,0.107-12.193,3.696-13.386,10.49c-0.058,0.332-0.07,0.662-0.061,0.988
		c-0.023,0.134-0.06,0.259-0.071,0.402c-0.656,8.606-1.078,17.229-1.258,25.857c-0.092,4.405-0.12,8.811-0.085,13.216
		c0.036,4.573-0.526,9.347,1.95,13.466c2.192,3.647,5.861,4.85,9.827,5.575c0.184,0.034,0.38,0.047,0.584,0.051
		c0.015,0,0.028,0.003,0.082,0.001c0.125,0,0.239,0.015,0.371,0.003c8.421-0.768,16.854-1.147,25.307-1.21
		c0.586,0.347,1.178,0.683,1.776,1.008c0.051,0.034,0.087,0.075,0.141,0.108c8.72,5.331,17.827,9.92,27.036,14.337
		c1.894,0.908,3.68,0.158,4.711-1.135c0.744-0.676,1.137-1.664,0.859-2.879c-0.046-0.316-0.138-0.623-0.29-0.915L75.35,78.195h3.252
		c0.189,0,0.357-0.03,0.531-0.053c3.006,0.336,6.102,0.176,8.645-1.689c4.937-3.621,4.88-10.512,4.992-15.978
		c0.161-7.818-0.104-15.649-0.417-23.46C92.181,32.721,91.999,28.427,91.85,24.132z M85.373,66.406
		c-0.185,1.491-0.644,2.885-1.692,3.957c-1.917,1.389-4.96,0.513-7.143,0.459c-1.882-0.047-3.901,0-5.719,0
		c-0.5,0-0.936,0.097-1.331,0.243c-2.123,0.19-4.017,1.893-3.043,4.424c1.034,2.689,2.068,5.377,3.102,8.066
		c-5.798-2.91-11.517-5.964-17.089-9.299c-0.2-0.182-0.419-0.346-0.67-0.473c-0.838-0.423-1.652-0.889-2.461-1.364
		c-0.593-0.706-1.472-1.191-2.677-1.187c-8.896,0.031-17.767,0.42-26.626,1.229c-0.056,0.005-0.102,0.023-0.157,0.03
		c-0.087-0.007-0.163-0.028-0.253-0.03c-1.18-0.023-2.083-0.232-2.985-0.765c-0.678-0.401-1.318-1.327-1.652-2.263
		c-0.091-0.254-0.205-0.494-0.335-0.722c0.039-0.238,0.063-0.487,0.057-0.755c-0.366-15.443,0.051-30.86,1.227-46.262
		c0.741-3.238,2.641-4.476,6.146-4.533c0.067-0.001,0.124-0.018,0.189-0.022c0.076,0.004,0.142,0.022,0.22,0.022h16.385
		c7.826,0.009,15.623,0.65,23.442,0.707c3.971,0.029,7.922-0.257,11.886-0.413c2.616-0.103,6.227-0.508,8.514,1.104
		c2.708,1.908,2.055,6.188,2.148,9.061c0.141,4.332,0.29,8.664,0.408,12.997c0.118,4.334,0.197,8.669,0.198,13.005
		c0,2.207-0.018,4.413-0.066,6.619C85.359,62.077,85.63,64.335,85.373,66.406z"/>
</g>
</svg>
