<?xml version="1.0" encoding="utf-8"?>
<!-- Generator: Adobe Illustrator 17.0.2, SVG Export Plug-In . SVG Version: 6.00 Build 0)  -->
<!DOCTYPE svg PUBLIC "-//W3C//DTD SVG 1.1//EN" "http://www.w3.org/Graphics/SVG/1.1/DTD/svg11.dtd">
<svg version="1.1" id="Capa_1" xmlns="http://www.w3.org/2000/svg" xmlns:xlink="http://www.w3.org/1999/xlink" x="0px" y="0px"
	 width="100px" height="100px" viewBox="0 0 100 100" enable-background="new 0 0 100 100" xml:space="preserve">
<g>
	<path fill="#1D1D1B" d="M87.779,79.88c-0.034-0.284-0.139-0.583-0.339-0.89c-8.232-12.66-16.593-25.239-24.221-38.278
		c-0.006-0.032-0.003-0.061-0.009-0.094c-1.362-7.073-2.235-14.166-2.339-21.376c-0.002-0.186-0.026-0.36-0.064-0.524
		c0.833-0.046,1.667-0.091,2.501-0.139c0.056-0.003,0.104-0.018,0.158-0.025c0.126,0.031,0.256,0.055,0.391,0.062
		c3.974,0.194,6.898-3.661,6.077-7.374c-1.314-5.943-8.86-4.467-13.298-4.568c-4.864-0.11-15.181,0.021-15.272,0.012
		c-3.693-0.367-7.369-0.961-11.083-0.5c-8.018,0.997-7.854,9.315-0.474,11.381c-0.005,0.043-0.017,0.08-0.02,0.124
		c-0.429,6.935-0.306,13.84,0.331,20.758c0.019,0.208,0.066,0.39,0.126,0.558c-2.55,16.177-11.422,30.226-18.052,44.935
		c-0.04,0.054-0.086,0.101-0.119,0.161c-1.521,2.745-1.909,5.742-0.303,8.556c0.104,0.183,0.226,0.334,0.355,0.469
		c0.063,0.101,0.131,0.201,0.214,0.292c1.257,1.365,2.918,1.928,4.733,2.071c0.054,0.004,0.105-0.005,0.158-0.004
		c0.04,0.006,0.075,0.019,0.116,0.023c21.382,2.057,42.304-2.181,63.333-5.455c0.252-0.039,0.465-0.119,0.658-0.214
		c0.062-0.002,0.122,0.001,0.185-0.005c2.326-0.222,4.335-1.516,5.689-3.39c0.136-0.188,0.225-0.377,0.294-0.565
		c0.104-0.148,0.2-0.305,0.275-0.476c0.742-1.702,0.621-3.569,0.083-5.308C87.84,80.022,87.807,79.952,87.779,79.88z M28.895,12.147
		c-0.398-0.617-0.406-1.324-0.263-2.036c3.764-0.394,7.521-0.419,11.291-0.112c0.016,0.002,0.028,0.008,0.044,0.009
		c7.994,0.865,15.993,1.232,24.032,1.073c0.062-0.001,0.117-0.016,0.176-0.021c0.063,0.015,0.125,0.035,0.19,0.046
		c0.037,0.006,0.051,0.008,0.079,0.012c0.031,0.011,0.081,0.028,0.175,0.055c0.128,0.037,0.25,0.091,0.373,0.141
		c0.009,0.016,0.255,0.143,0.308,0.178c0.03,0.023,0.046,0.035,0.066,0.051c0.053,0.055,0.107,0.109,0.157,0.168
		c0.024,0.027,0.035,0.037,0.051,0.055c0.011,0.018,0.014,0.026,0.028,0.05c0.056,0.095,0.095,0.199,0.139,0.3
		c-0.001,0.027,0.087,0.294,0.101,0.354c0.021,0.1,0.077,0.879,0.061,0.396c0.002,0.061,0.013,0.119,0.019,0.178
		c-0.02,0.068-0.038,0.136-0.061,0.203c-0.011,0.035-0.102,0.219-0.145,0.313c-0.047,0.075-0.1,0.147-0.153,0.218
		c-0.005-0.007-0.079,0.065-0.15,0.136c-0.068,0.044-0.214,0.148-0.266,0.174c-0.035,0.018-0.05,0.027-0.073,0.039
		c-0.027,0.006-0.049,0.01-0.094,0.023c-0.132,0.036-0.269,0.05-0.404,0.068c0.003-0.014-0.362,0.003-0.417,0.001
		c-0.17-0.032-0.351-0.049-0.553-0.037c-10.563,0.603-21.127,1.19-31.603-0.665c-0.178-0.032-0.345-0.042-0.503-0.036
		C30.538,13.261,29.389,12.914,28.895,12.147z M31.58,51.508h8.091c2.601,0,2.601-4.032,0-4.032h-6.846
		c0.58-2.068,1.084-4.165,1.483-6.301h6.118c2.601,0,2.601-4.032,0-4.032h-6.022c-0.229-2.605-0.362-5.209-0.424-7.813h6.698
		c2.601,0,2.601-4.032,0-4.032h-6.726c0.018-2.337,0.077-4.675,0.217-7.016c7.405,1.05,14.851,0.99,22.305,0.656
		c0,0.003,0,0.005,0,0.008c0.106,7.407,0.941,14.715,2.313,21.988c-0.081,0.42-0.017,0.889,0.271,1.381
		c1.775,3.041,3.594,6.054,5.438,9.051c-10.634,5.927-22.812,8.67-34.59,4.752C30.499,54.594,31.062,53.059,31.58,51.508z
		 M83.64,83.888c-0.024,0.03-0.051,0.052-0.074,0.083c-0.082,0.118-0.168,0.233-0.257,0.345c-0.022,0.023-0.043,0.045-0.075,0.078
		c-0.106,0.105-0.215,0.205-0.329,0.302c0.003-0.002-0.342,0.244-0.353,0.264c-0.648,0.394-1.062,0.478-1.911,0.559
		c-0.228,0.022-0.434,0.102-0.626,0.207c-0.072,0.005-0.141,0-0.217,0.012c-20.645,3.215-41.16,7.397-62.154,5.378
		c-0.059-0.006-0.111,0.002-0.168,0c-0.036-0.005-0.07-0.016-0.106-0.019c-0.222-0.017-0.442-0.046-0.662-0.076
		c0.026-0.01-0.432-0.113-0.511-0.139c-0.059-0.021-0.114-0.047-0.171-0.071c-0.025-0.016-0.063-0.039-0.118-0.071
		c-0.052-0.035-0.1-0.074-0.15-0.112c-0.02-0.022-0.051-0.055-0.099-0.104c-0.018-0.018-0.038-0.032-0.055-0.049
		c-0.673-1.315-0.629-2.552,0.115-3.895c0.085-0.155,0.151-0.316,0.206-0.479c0.137-0.163,0.264-0.343,0.363-0.562
		c3.883-8.636,8.417-17.001,12.098-25.677c12.923,4.499,26.572,1.472,38.243-5.066c5.498,8.796,11.21,17.458,16.866,26.156
		c0.021,0.031,0.045,0.054,0.066,0.083C83.872,82.05,84.046,82.902,83.64,83.888z"/>
</g>
</svg>
