<?xml version="1.0" encoding="iso-8859-1"?>
<!-- Generator: Adobe Illustrator 17.0.2, SVG Export Plug-In . SVG Version: 6.00 Build 0)  -->
<!DOCTYPE svg PUBLIC "-//W3C//DTD SVG 1.1//EN" "http://www.w3.org/Graphics/SVG/1.1/DTD/svg11.dtd">
<svg version="1.1" id="Capa_1" xmlns="http://www.w3.org/2000/svg" xmlns:xlink="http://www.w3.org/1999/xlink" x="0px" y="0px"
	 width="100px" height="100px" viewBox="0 0 100 100" style="enable-background:new 0 0 100 100;" xml:space="preserve">
<g>
	<path style="fill:#1E1E1C;" d="M81.265,19.534l0.009-0.185c0.036-0.768-0.216-1.513-0.674-1.993
		c-0.403-0.422-0.94-0.637-1.596-0.637H67.976l-0.005-0.495c-0.007-0.665-0.012-1.329-0.013-1.994c0-0.222-0.029-0.442-0.092-0.694
		l-0.018-0.072l0.003-0.074c0.039-0.77-0.212-1.517-0.671-2c-0.403-0.424-0.941-0.639-1.598-0.639c-2.083,0-4.167-0.009-6.25-0.018
		l-0.489-0.002l-0.011-0.489c-0.041-2.167-0.181-3.973-0.439-5.684c-0.166-1.094-1.321-1.748-2.342-1.748L55.91,2.812l-0.122-0.014
		l-9.742-0.005c-0.723,0-1.319,0.271-1.725,0.785c-0.49,0.619-0.668,1.537-0.466,2.395l0.035,0.148l-0.053,0.143
		C43.727,6.56,43.67,6.856,43.67,7.143v3.368l-0.515-0.016c-2.121-0.065-4.241-0.139-6.361-0.242l-0.105-0.003
		c-0.2,0-0.398,0.028-0.625,0.088l-0.066,0.018l-0.068-0.001h0c-1.185,0-2.427,0.747-2.444,2.388
		c-0.009,0.841-0.042,1.68-0.092,2.516l-0.028,0.469l-0.469,0.001c-3.638,0.01-7.533,0.076-11.362,0.489
		c-0.131,0.014-0.25,0.048-0.37,0.08l-0.151,0.022c-1.195,0-2.389,0.737-2.389,2.385v9.449c0,0.531,0.133,0.999,0.395,1.39
		l0.084,0.126v0.152c-0.003,21.229-0.077,40.399-0.958,60.025c-0.011,0.24,0.013,0.477,0.076,0.745l0.023,0.102l-0.018,0.102
		c-0.119,0.655-0.013,1.254,0.297,1.686c0.281,0.392,0.721,0.635,1.307,0.722c19.211,2.85,38.166,3.083,59.177,3.085
		c1.519,0,2.016-1.156,2.159-1.653l0.032-0.111l0.079-0.087c0.389-0.427,0.586-0.975,0.586-1.627V21.193
		c0-0.595-0.162-1.104-0.48-1.513L81.265,19.534z M48.423,7.762h5.593l0.024,0.475c0.032,0.647,0.051,1.296,0.055,1.944l0.003,0.508
		l-1.816-0.019c-1.123-0.011-2.245-0.022-3.367-0.042l-0.491-0.009V7.762z M37.463,25.89c0.178-1.347,0.347-4.61,0.483-7.232
		c0.062-1.207,0.117-2.262,0.161-2.9l0.034-0.486l0.487,0.021c8.287,0.355,16.476,0.413,24.091,0.422l0.494,0l0.005,0.494
		c0.033,3.092,0.114,8.568,0.297,10.5l0.054,0.57l-0.572-0.023c-4.353-0.178-8.782-0.302-13.065-0.422
		c-3.998-0.112-7.996-0.224-11.992-0.379l-0.548-0.021L37.463,25.89z M77.107,91.318h-0.5c-18.868-0.013-35.896-0.217-53.216-2.596
		l-0.451-0.062l0.02-0.455c0.827-19.364,0.895-38.652,0.895-60.05c0-0.531-0.133-1-0.395-1.391l-0.084-0.126v-5.624l0.463-0.034
		c3.08-0.227,6.129-0.269,8.442-0.279l0.569-0.002l-0.071,0.567c-0.022,0.177-0.049,1.5-0.071,2.564
		c-0.036,1.731-0.056,2.57-0.084,2.777c-0.063,0.461-0.046,0.916,0.051,1.351l0.021,0.098l-0.018,0.1
		c-0.15,0.825,0.056,1.712,0.537,2.316c0.411,0.516,1.002,0.806,1.709,0.838c5.027,0.23,10.143,0.366,15.091,0.497
		c4.953,0.131,10.074,0.267,15.11,0.498l0.13,0.003c0.715,0,1.18-0.272,1.49-0.612c0.429-0.177,0.8-0.492,1.019-0.915
		c0.021-0.042,0.04-0.085,0.058-0.129c0.042-0.101,0.083-0.203,0.107-0.313c0.045-0.203,0.069-0.408,0.101-0.612
		c0.311-0.414,0.469-0.88,0.411-1.336c-0.047-0.37-0.083-1.739-0.128-3.633c-0.026-1.107-0.054-2.252-0.078-2.526l-0.047-0.543
		h8.919V91.318z"/>
	<path style="fill:#1E1E1C;" d="M66.466,40.462c-0.225,0.106-0.415,0.24-0.583,0.407c-8.892,8.888-16.466,16.273-24.413,23.322
		l-4.047-4.915c-0.47-0.57-1.002-0.69-1.366-0.69c-0.413,0-0.831,0.157-1.185,0.443l-0.062,0.034c-2.268,1.46-4.393,2.686-6.5,3.75
		c-0.631,0.319-1.004,0.869-1.037,1.52c-0.278,0.723-0.1,1.478,0.486,2.037c1.876,1.795,3.624,3.783,5.315,5.706
		c1.857,2.112,3.779,4.298,5.891,6.254c0.08,0.074,0.162,0.138,0.245,0.195c0.359,0.459,0.857,0.721,1.381,0.721
		c0.38,0,0.749-0.133,1.097-0.395c5.892-4.446,11.142-9.458,15.057-13.327c1.149-1.136,2.303-2.27,3.458-3.404
		c4.042-3.973,8.223-8.081,12.179-12.252c0.236-0.249,0.399-0.536,0.487-0.854c0.381-0.616,0.357-1.33-0.071-1.975
		c-1.364-2.053-2.552-3.978-3.631-5.884c-0.357-0.63-0.954-0.991-1.638-0.991C67.149,40.165,66.764,40.276,66.466,40.462z
		 M67.012,45.421c0.482,0.794,1.013,1.638,1.609,2.558c-2.873,2.992-5.878,5.955-8.788,8.823c-1.555,1.533-3.109,3.065-4.65,4.607
		c-4.356,4.359-9.109,8.955-14.398,13.087c-1.691-1.666-3.286-3.476-4.832-5.229c-1.176-1.334-2.388-2.708-3.644-4.022
		c1.059-0.584,2.135-1.216,3.263-1.914l4.229,5.135c0.471,0.573,1.005,0.693,1.369,0.693c0.452,0,0.901-0.185,1.273-0.52
		c0.121-0.07,0.231-0.15,0.334-0.241C51.273,60.957,59.438,52.972,67.012,45.421z"/>
</g>
</svg>
