<?xml version="1.0" encoding="iso-8859-1"?>
<!-- Generator: Adobe Illustrator 17.0.2, SVG Export Plug-In . SVG Version: 6.00 Build 0)  -->
<!DOCTYPE svg PUBLIC "-//W3C//DTD SVG 1.1//EN" "http://www.w3.org/Graphics/SVG/1.1/DTD/svg11.dtd">
<svg version="1.1" id="Capa_1" xmlns="http://www.w3.org/2000/svg" xmlns:xlink="http://www.w3.org/1999/xlink" x="0px" y="0px"
	 width="100px" height="100px" viewBox="0 0 100 100" style="enable-background:new 0 0 100 100;" xml:space="preserve">
<g>
	<path style="fill:#1D1D1B;" d="M36.747,87.1c2.039,2.158,4.45,3.884,7.058,5.288c5.627,3.03,10.354,4.277,16.161,1.421
		c3.192-1.57,6.216-3.719,8.113-5.874c5.539-6.294,7.858-16.836,8.88-24.925c1.113-8.812,0.728-17.914,0.523-26.777
		c-0.106-4.559-7.187-4.569-7.081,0c0.372,16.046,2.546,44.242-14.856,51.663c-2.498,0.405-5.072,0.387-7.432-0.623
		C27.089,72.369,30.842,41.658,33.586,18.779c3.838-6.156,14.204-9.644,18.055-1.691c5.125,10.581,6.798,22.563,6.177,34.211
		c-0.233,4.37-0.722,8.759-1.647,13.04c-0.342,1.582-1.377,8.42-2.956,9.229c-6.081,3.09-8.029-15.477-8.296-18.298
		c-0.779-8.246-0.22-16.545,0.256-24.79c0.263-4.564-6.819-4.538-7.081,0c-0.618,10.707-1.131,21.363,0.899,31.95
		c1.312,6.843,2.348,15.728,10.511,17.577c4.93,1.117,9.438-0.587,11.456-5.256c2.215-5.124,2.58-11.304,3.247-16.785
		c0.701-5.761,1.134-11.533,0.749-17.336c-0.758-11.432-4.487-34.696-19.414-35.1C26.504,5.016,25.688,23.132,24.788,37.303
		c-0.756,11.891-0.032,23.486,3.834,34.832C30.451,77.503,32.803,82.927,36.747,87.1z"/>
</g>
</svg>
