<?xml version="1.0" encoding="iso-8859-1"?>
<!-- Generator: Adobe Illustrator 17.0.2, SVG Export Plug-In . SVG Version: 6.00 Build 0)  -->
<!DOCTYPE svg PUBLIC "-//W3C//DTD SVG 1.1//EN" "http://www.w3.org/Graphics/SVG/1.1/DTD/svg11.dtd">
<svg version="1.1" id="Capa_1" xmlns="http://www.w3.org/2000/svg" xmlns:xlink="http://www.w3.org/1999/xlink" x="0px" y="0px"
	 width="100px" height="100px" viewBox="0 0 100 100" style="enable-background:new 0 0 100 100;" xml:space="preserve">
<g>
	<path style="fill:#1E1E1C;" d="M80.764,19.534l0.009-0.185c0.036-0.768-0.216-1.513-0.674-1.993
		c-0.403-0.422-0.94-0.637-1.596-0.637H67.475l-0.005-0.495c-0.007-0.665-0.012-1.329-0.013-1.994c0-0.222-0.029-0.442-0.092-0.694
		l-0.018-0.072l0.003-0.074c0.039-0.77-0.212-1.518-0.671-2c-0.403-0.424-0.941-0.639-1.598-0.639c-2.083,0-4.167-0.009-6.25-0.018
		l-0.489-0.002l-0.011-0.489c-0.041-2.163-0.181-3.969-0.44-5.684c-0.165-1.094-1.32-1.748-2.342-1.748l-0.141,0.001l-0.122-0.014
		l-9.742-0.005c-0.723,0-1.319,0.271-1.725,0.785c-0.49,0.619-0.668,1.537-0.466,2.395l0.035,0.148l-0.053,0.143
		c-0.111,0.296-0.167,0.592-0.167,0.879v3.368l-0.515-0.016c-2.121-0.065-4.241-0.139-6.361-0.242l-0.105-0.003
		c-0.2,0-0.398,0.028-0.625,0.088l-0.066,0.018l-0.068-0.001h0c-1.185,0-2.427,0.747-2.444,2.388
		c-0.009,0.841-0.042,1.68-0.092,2.516l-0.028,0.469l-0.469,0.001c-3.638,0.01-7.533,0.076-11.362,0.489
		c-0.131,0.014-0.249,0.048-0.368,0.08l-0.153,0.022c-1.195,0-2.389,0.737-2.389,2.385v9.449c0,0.531,0.133,0.999,0.395,1.39
		l0.084,0.126v0.152c-0.003,21.229-0.077,40.399-0.958,60.025c-0.011,0.239,0.013,0.476,0.076,0.745l0.023,0.102l-0.018,0.102
		c-0.119,0.655-0.013,1.254,0.297,1.686c0.281,0.392,0.721,0.635,1.307,0.722c19.211,2.85,38.166,3.083,59.177,3.085
		c1.519,0,2.016-1.156,2.159-1.653l0.032-0.111l0.079-0.087c0.389-0.427,0.586-0.975,0.586-1.627V21.193
		c0-0.595-0.162-1.104-0.48-1.513L80.764,19.534z M47.922,7.762h5.593l0.024,0.475c0.032,0.647,0.051,1.296,0.055,1.944l0.003,0.508
		l-1.816-0.019c-1.123-0.011-2.245-0.022-3.367-0.042l-0.491-0.009V7.762z M36.962,25.89c0.177-1.344,0.346-4.6,0.482-7.215
		c0.063-1.214,0.118-2.276,0.162-2.918l0.034-0.486l0.487,0.021c8.287,0.355,16.476,0.413,24.091,0.422l0.494,0l0.005,0.494
		c0.056,5.343,0.162,9.072,0.296,10.5l0.054,0.57l-0.572-0.023c-4.353-0.178-8.782-0.302-13.065-0.422
		c-3.998-0.112-7.995-0.224-11.992-0.379l-0.548-0.021L36.962,25.89z M49.514,31.806c4.953,0.131,10.074,0.267,15.11,0.498
		l0.13,0.003c0.715,0,1.18-0.272,1.49-0.612c0.429-0.177,0.8-0.492,1.018-0.915c0.022-0.042,0.04-0.085,0.058-0.129
		c0.042-0.101,0.083-0.203,0.107-0.313c0.046-0.206,0.075-0.412,0.106-0.618c0.248-0.333,0.383-0.698,0.398-1.066
		c0.171-0.029,0.343-0.053,0.516-0.072c0.16-0.018,0.32-0.03,0.481-0.041c0.149-0.01,0.298-0.023,0.447-0.03
		c-0.948,11.468-0.927,29.198-1.083,40.701c-4.017,0.001-8.032,0.019-12.043,0.259c-1.247,0.074-1.886,1.095-1.921,2.105
		c-0.041,0.152-0.069,0.314-0.079,0.488c-0.215,3.872-0.243,7.75-0.248,11.627c-7.589-0.097-15.175-0.379-22.764-0.449
		c-0.159-16.274,0.288-38.781-1.075-55.011h1.004h0.503h0.501c-0.125,0.803,0.076,1.655,0.543,2.241
		c0.411,0.516,1.002,0.806,1.709,0.838C39.45,31.54,44.566,31.675,49.514,31.806z M66.748,73.364
		c-2.906,3.157-5.84,6.287-8.744,9.447c0.007-3.095,0.044-6.189,0.18-9.281C61.037,73.406,63.892,73.37,66.748,73.364z
		 M76.606,91.318h-0.5c-18.868-0.013-35.896-0.217-53.216-2.596l-0.451-0.062l0.02-0.455c0.826-19.344,0.894-38.64,0.895-60.05
		c0-0.531-0.133-1-0.395-1.391l-0.084-0.126v-5.624l0.463-0.034c3.08-0.227,6.129-0.269,8.442-0.279l0.569-0.002l-0.071,0.567
		c-0.022,0.177-0.049,1.5-0.071,2.564c-0.002,0.089-0.003,0.166-0.005,0.251h-0.5h-0.5H29c-0.25,0-0.488,0.055-0.71,0.145
		c-1.153-0.248-2.435,0.387-2.29,1.93c1.637,17.425,1.036,41.14,1.25,58.616c0.002,0.186,0.028,0.357,0.066,0.517
		c0.002,1.036,0.646,2.072,1.934,2.077c9.419,0.033,18.831,0.485,28.25,0.519c0.069,0,0.129-0.014,0.194-0.019
		c0.567,0.134,1.19-0.006,1.72-0.589c3.966-4.357,8.035-8.611,12-12.968c0.231-0.254,0.38-0.525,0.467-0.8
		c0.22-0.309,0.36-0.702,0.369-1.186c0.224-13.065,0.068-32.365,1.25-45.389c0.03-0.334-0.006-0.625-0.093-0.874
		c-0.131-0.906-0.765-1.72-1.907-1.719c-0.903,0-1.801,0.016-2.696,0.079c-0.167,0.012-0.333,0.026-0.499,0.042
		s-0.333,0.029-0.499,0.049c-0.025-1.025-0.05-2.024-0.072-2.278l-0.047-0.543h8.919V91.318z"/>
	<path style="fill:#1E1E1C;" d="M38.25,43.533c7.082,0.235,14.165,0.259,21.25,0.259c2.58,0,2.58-4.15,0-4.15
		c-7.085,0-14.168-0.024-21.25-0.259C35.669,39.298,35.677,43.448,38.25,43.533z"/>
	<path style="fill:#1E1E1C;" d="M59.75,48.461c-6.84-0.241-13.67-0.224-20.5,0.259c-2.559,0.181-2.576,4.332,0,4.15
		c6.83-0.484,13.66-0.501,20.5-0.259C62.331,52.702,62.322,48.552,59.75,48.461z"/>
	<path style="fill:#1E1E1C;" d="M59.5,58.836c-6.501,0.019-12.999,0.24-19.5,0.259c-2.579,0.007-2.58,4.157,0,4.15
		c6.501-0.019,12.999-0.24,19.5-0.259C62.079,62.978,62.08,58.828,59.5,58.836z"/>
</g>
</svg>
