<?xml version="1.0" encoding="utf-8"?>
<!-- Generator: Adobe Illustrator 17.0.2, SVG Export Plug-In . SVG Version: 6.00 Build 0)  -->
<!DOCTYPE svg PUBLIC "-//W3C//DTD SVG 1.1//EN" "http://www.w3.org/Graphics/SVG/1.1/DTD/svg11.dtd">
<svg version="1.1" id="Capa_1" xmlns="http://www.w3.org/2000/svg" xmlns:xlink="http://www.w3.org/1999/xlink" x="0px" y="0px"
	 width="100px" height="100px" viewBox="0 0 100 100" enable-background="new 0 0 100 100" xml:space="preserve">
<g>
	<path fill="#1D1D1B" d="M79.096,19.274l0.009-0.185c0.035-0.768-0.217-1.513-0.675-1.994c-0.403-0.422-0.939-0.636-1.596-0.636
		H65.805L65.8,15.964c-0.007-0.664-0.012-1.328-0.013-1.994c0-0.224-0.029-0.444-0.092-0.693l-0.019-0.073l0.004-0.075
		c0.038-0.77-0.213-1.518-0.672-2c-0.403-0.424-0.94-0.639-1.598-0.639c-2.084,0-4.168-0.009-6.251-0.018l-0.489-0.002l-0.009-0.489
		c-0.04-2.159-0.18-3.965-0.439-5.684c-0.166-1.094-1.32-1.748-2.342-1.748L53.74,2.552l-0.12-0.013l-9.744-0.005
		c-0.723,0-1.319,0.271-1.726,0.785c-0.489,0.62-0.668,1.537-0.465,2.394l0.035,0.148l-0.054,0.143
		C41.557,6.299,41.5,6.595,41.5,6.883v3.368l-0.516-0.016c-2.12-0.065-4.24-0.139-6.36-0.242l-0.104-0.002
		c-0.201,0-0.401,0.028-0.628,0.088l-0.066,0.018l-0.068-0.001h-0.001c-1.185,0-2.427,0.747-2.443,2.387
		c-0.009,0.842-0.042,1.681-0.093,2.517l-0.028,0.469l-0.47,0.001c-3.643,0.01-7.54,0.077-11.361,0.49
		c-0.127,0.014-0.242,0.046-0.357,0.076l-0.163,0.025c-1.195,0-2.389,0.737-2.389,2.385v9.45c0,0.531,0.133,0.999,0.394,1.389
		l0.085,0.126v0.152c-0.003,21.229-0.077,40.4-0.959,60.025c-0.01,0.238,0.014,0.476,0.077,0.746l0.023,0.101l-0.019,0.102
		c-0.118,0.655-0.013,1.254,0.298,1.687c0.28,0.392,0.72,0.634,1.306,0.722c19.212,2.849,38.166,3.082,59.177,3.084
		c1.519,0,2.016-1.156,2.159-1.653l0.032-0.111l0.078-0.086c0.389-0.428,0.586-0.976,0.586-1.628V20.933
		c0-0.595-0.161-1.104-0.48-1.513L79.096,19.274z M46.253,7.501h5.593l0.023,0.475c0.033,0.648,0.052,1.296,0.056,1.945l0.003,0.508
		l-1.747-0.018c-1.146-0.011-2.292-0.022-3.437-0.042l-0.491-0.009V7.501z M35.292,25.63c0.178-1.348,0.348-4.611,0.483-7.233
		c0.062-1.207,0.117-2.261,0.161-2.899l0.034-0.486l0.486,0.021c8.294,0.356,16.48,0.414,24.092,0.422l0.494,0l0.005,0.494
		c0.056,5.343,0.161,9.072,0.297,10.5l0.054,0.57l-0.572-0.023c-4.354-0.178-8.784-0.302-13.068-0.421
		c-3.997-0.112-7.993-0.224-11.989-0.379l-0.548-0.021L35.292,25.63z M31.045,30.211c0.411,0.516,1.002,0.805,1.708,0.837
		c5.027,0.23,10.144,0.366,15.091,0.497c4.953,0.131,10.074,0.267,15.11,0.498l0.131,0.003c0.715,0,1.181-0.272,1.491-0.612
		c0.429-0.177,0.8-0.492,1.018-0.915c0.021-0.042,0.04-0.085,0.059-0.129c0.042-0.101,0.082-0.203,0.107-0.313
		c0.045-0.205,0.075-0.412,0.105-0.618c0.248-0.333,0.384-0.698,0.397-1.067c0.171-0.029,0.343-0.054,0.516-0.072
		c0.16-0.018,0.32-0.03,0.481-0.041c0.148-0.01,0.298-0.023,0.447-0.03c-0.948,11.468-0.928,29.198-1.083,40.701
		c-4.017,0.001-8.032,0.019-12.043,0.259c-1.247,0.074-1.886,1.095-1.922,2.105c-0.04,0.152-0.068,0.314-0.078,0.488
		c-0.216,3.872-0.243,7.75-0.248,11.627c-7.589-0.097-15.175-0.379-22.764-0.449c-0.159-16.274,0.288-38.781-1.075-55.011h1.004H30
		h0.501C30.377,28.774,30.578,29.625,31.045,30.211z M65.078,73.103c-2.906,3.157-5.84,6.287-8.744,9.447
		c0.008-3.095,0.045-6.189,0.181-9.281C59.368,73.145,62.223,73.11,65.078,73.103z M74.938,91.058h-0.5
		c-18.861-0.012-35.885-0.215-53.217-2.596l-0.45-0.062l0.019-0.455c0.826-19.344,0.895-38.64,0.896-60.05
		c0-0.532-0.133-1-0.396-1.391l-0.085-0.126v-5.624l0.463-0.034c3.087-0.228,6.134-0.269,8.443-0.28l0.569-0.002l-0.071,0.567
		c-0.022,0.176-0.05,1.495-0.071,2.555c-0.002,0.093-0.004,0.173-0.006,0.261h-0.5h-0.5h-2.2c-0.25,0-0.488,0.055-0.71,0.145
		c-1.153-0.248-2.436,0.387-2.29,1.93c1.637,17.425,1.035,41.14,1.25,58.616c0.002,0.186,0.027,0.357,0.065,0.517
		c0.002,1.036,0.646,2.072,1.935,2.077c9.419,0.033,18.831,0.485,28.25,0.519c0.069,0,0.129-0.014,0.194-0.019
		c0.566,0.134,1.189-0.006,1.72-0.588c3.966-4.357,8.034-8.611,12-12.968c0.231-0.254,0.38-0.525,0.467-0.8
		c0.22-0.309,0.36-0.702,0.369-1.186c0.224-13.065,0.068-32.365,1.25-45.389c0.03-0.334-0.007-0.625-0.094-0.874
		c-0.131-0.906-0.765-1.72-1.906-1.719c-0.903,0-1.801,0.016-2.696,0.079c-0.166,0.012-0.332,0.026-0.499,0.042
		c-0.166,0.016-0.332,0.029-0.498,0.049c-0.026-1.062-0.051-2.024-0.072-2.278l-0.047-0.543h8.919V91.058z"/>
	<path fill="#1D1D1B" d="M36.581,43.272c7.082,0.235,14.165,0.259,21.25,0.259c2.579,0,2.579-4.15,0-4.15
		c-7.085,0-14.168-0.024-21.25-0.259C34,39.037,34.008,43.187,36.581,43.272z"/>
	<path fill="#1D1D1B" d="M58.081,48.2c-6.841-0.241-13.67-0.224-20.5,0.259c-2.56,0.181-2.576,4.332,0,4.15
		c6.83-0.484,13.659-0.501,20.5-0.259C60.662,52.441,60.653,48.291,58.081,48.2z"/>
	<path fill="#1D1D1B" d="M57.831,58.575c-6.501,0.019-12.999,0.24-19.5,0.259c-2.579,0.007-2.58,4.157,0,4.15
		c6.501-0.019,12.999-0.24,19.5-0.259C60.41,62.717,60.41,58.567,57.831,58.575z"/>
</g>
</svg>
