<?xml version="1.0" encoding="iso-8859-1"?>
<!-- Generator: Adobe Illustrator 17.0.2, SVG Export Plug-In . SVG Version: 6.00 Build 0)  -->
<!DOCTYPE svg PUBLIC "-//W3C//DTD SVG 1.1//EN" "http://www.w3.org/Graphics/SVG/1.1/DTD/svg11.dtd">
<svg version="1.1" id="Capa_1" xmlns="http://www.w3.org/2000/svg" xmlns:xlink="http://www.w3.org/1999/xlink" x="0px" y="0px"
	 width="100px" height="100px" viewBox="0 0 100 100" style="enable-background:new 0 0 100 100;" xml:space="preserve">
<g>
	<path style="fill:#1D1D1B;" d="M33.578,73.396c-4.285-8.206-7.843-16.767-12.314-24.879c-0.011-0.02-0.025-0.034-0.037-0.053
		c4.835-8.311,8.066-17.362,12.099-26.068c0.615-1.328-0.728-2.527-1.771-2.263c-0.012-0.001-0.022-0.005-0.034-0.006
		c-3.514-0.249-7.039-0.27-10.555-0.503c-0.673-0.045-1.106,0.292-1.311,0.751c-0.184,0.115-0.354,0.275-0.493,0.498
		C13.721,29.589,8.657,38.54,2.828,47.009c-0.234,0.34-0.294,0.673-0.245,0.975c-0.049,0.302,0.011,0.635,0.245,0.975
		c5.829,8.469,10.893,17.42,16.335,26.135c0.139,0.223,0.309,0.384,0.493,0.498c0.205,0.46,0.638,0.796,1.311,0.751
		c3.515-0.233,7.04-0.253,10.555-0.503c0.234-0.017,0.439-0.077,0.616-0.168C33.146,75.682,34.2,74.587,33.578,73.396z
		 M21.595,73.295c-5.26-8.442-10.183-17.092-15.795-25.311c5.611-8.218,10.534-16.869,15.795-25.31
		c2.715,0.161,5.436,0.221,8.152,0.365c-3.72,8.32-6.893,16.876-11.589,24.724c-0.446,0.745-0.175,1.456,0.349,1.872
		c0.032,0.133,0.078,0.267,0.153,0.404c4.109,7.456,7.454,15.288,11.294,22.878C27.169,73.07,24.38,73.129,21.595,73.295z"/>
	<path style="fill:#1D1D1B;" d="M96.706,47.009c-5.829-8.469-10.892-17.42-16.335-26.135c-0.139-0.223-0.309-0.384-0.494-0.498
		c-0.205-0.46-0.638-0.796-1.311-0.751c-3.515,0.233-7.04,0.253-10.555,0.503c-0.012,0.001-0.022,0.005-0.034,0.006
		c-1.043-0.264-2.386,0.935-1.771,2.263c4.034,8.706,7.264,17.756,12.099,26.068c-0.012,0.019-0.026,0.033-0.037,0.053
		C73.8,56.628,70.242,65.19,65.957,73.396c-0.622,1.191,0.432,2.287,1.439,2.278c0.178,0.091,0.382,0.151,0.616,0.168
		c3.514,0.249,7.039,0.27,10.555,0.503c0.673,0.045,1.106-0.292,1.311-0.751c0.185-0.115,0.354-0.275,0.494-0.498
		c5.442-8.716,10.506-17.666,16.335-26.135c0.234-0.34,0.294-0.673,0.245-0.975C97,47.682,96.94,47.349,96.706,47.009z
		 M77.94,73.295c-2.785-0.166-5.574-0.225-8.359-0.378c3.84-7.591,7.185-15.423,11.294-22.878c0.075-0.137,0.121-0.271,0.153-0.404
		c0.524-0.416,0.795-1.127,0.349-1.872c-4.696-7.848-7.869-16.404-11.589-24.724c2.716-0.144,5.436-0.204,8.152-0.365
		c5.26,8.442,10.183,17.092,15.795,25.31C88.123,56.202,83.2,64.853,77.94,73.295z"/>
	<path style="fill:#1D1D1B;" d="M62.997,6.808c-0.061-0.008-0.117-0.022-0.183-0.024l-8.755-0.294
		c-1.069-0.036-1.605,0.809-1.592,1.648c-2.799,10.681-5.12,21.487-7.426,32.283c-2.317,10.853-4.649,21.705-7.319,32.478
		c-0.746,3.01-1.533,6.012-2.366,8.999c-0.348,1.248-0.553,2.618-1.185,3.764c-0.608,1.103-1.479,2.994,0.655,3.054
		c3.635,0.103,7.263-0.027,10.896-0.165c0.076-0.003,0.144-0.018,0.214-0.029c0.684,0.097,1.396-0.209,1.625-1.079
		c6.836-25.914,12.267-52.246,17.252-78.574C65.049,7.618,63.948,6.772,62.997,6.808z M44.799,85.403
		c-2.386,0.088-4.77,0.162-7.157,0.162C44.724,60.58,48.877,34.855,55.348,9.72l6.038,0.203
		C56.576,35.214,51.328,60.498,44.799,85.403z"/>
</g>
</svg>
