<?xml version="1.0" encoding="iso-8859-1"?>
<!-- Generator: Adobe Illustrator 17.0.2, SVG Export Plug-In . SVG Version: 6.00 Build 0)  -->
<!DOCTYPE svg PUBLIC "-//W3C//DTD SVG 1.1//EN" "http://www.w3.org/Graphics/SVG/1.1/DTD/svg11.dtd">
<svg version="1.1" id="Capa_1" xmlns="http://www.w3.org/2000/svg" xmlns:xlink="http://www.w3.org/1999/xlink" x="0px" y="0px"
	 width="100px" height="100px" viewBox="0 0 100 100" style="enable-background:new 0 0 100 100;" xml:space="preserve">
<g>
	<path style="fill:#1D1D1B;" d="M73.607,33.779c-4.406,0-8.567,1.414-12.084,4.097c-2.708-11.357-13.417-19.519-25.782-19.519
		c-1.001,0-2.014,0.055-3.012,0.164c-7.08,0.772-12.644,4.628-15.667,10.855c-3.177,6.546-2.858,14.462,0.789,20.885
		C9.78,50.106,3.559,55.399,2.495,63.356c-0.493,3.687,0.418,6.883,2.709,9.5c3.837,4.384,10.54,5.946,15.534,5.946
		c1.149,0,2.273-0.078,3.267-0.223c0.095,0.013,0.191,0.024,0.295,0.024c16.86,0,35.969,0,54.808-0.259
		c0.184-0.003,0.37-0.025,0.564-0.07c0.266,0.037,0.543,0.04,0.845-0.012c6.255-1.087,11.246-4.607,14.054-9.913
		c3.164-5.979,3.212-13.611,0.13-20.415C90.865,39.468,82.388,33.779,73.607,33.779z M23.332,56.2
		c1.179,0.188,2.432-0.568,2.888-1.718c0.368-0.925,0.134-1.906-0.626-2.624c-5.274-4.98-7.055-12.038-4.647-18.418
		c2.261-5.992,7.639-9.711,14.386-9.949c11.857-0.41,21.688,8.754,21.712,20.072c0.004,1.645,1.297,2.505,2.573,2.505
		c1.149,0,2.091-0.636,2.433-1.631c3.222-3.599,7.285-5.5,11.755-5.5c6.984,0,13.626,4.761,16.529,11.847
		c2.171,5.3,2.058,10.822-0.309,15.15c-2.117,3.87-5.758,6.388-10.533,7.283c-0.118-0.017-0.243-0.027-0.395-0.027
		c-0.001,0-0.002,0-0.003,0c-18.829,0.26-37.936,0.26-54.794,0.26c-0.182,0-0.36,0.018-0.542,0.055
		c-0.194-0.012-0.395-0.008-0.609,0.025c-0.993,0.16-2.021,0.241-3.057,0.241c-5.733,0-12.446-2.507-12.497-9.57
		c-0.016-2.278,0.773-4.286,2.282-5.806c1.853-1.865,4.684-2.936,7.767-2.936c1.16,0,2.294,0.153,3.371,0.458
		c0.187,0.053,0.38,0.083,0.587,0.093C22.121,56.264,22.7,56.345,23.332,56.2z"/>
</g>
</svg>
