<?xml version="1.0" encoding="iso-8859-1"?>
<!-- Generator: Adobe Illustrator 17.0.2, SVG Export Plug-In . SVG Version: 6.00 Build 0)  -->
<!DOCTYPE svg PUBLIC "-//W3C//DTD SVG 1.1//EN" "http://www.w3.org/Graphics/SVG/1.1/DTD/svg11.dtd">
<svg version="1.1" id="Capa_1" xmlns="http://www.w3.org/2000/svg" xmlns:xlink="http://www.w3.org/1999/xlink" x="0px" y="0px"
	 width="100px" height="100px" viewBox="0 0 100 100" style="enable-background:new 0 0 100 100;" xml:space="preserve">
<g>
	<path style="fill:#1E1E1C;" d="M14.852,78.936c-0.204-22.177,0.531-44.36-0.354-66.527c-0.103-2.577-4.312-2.433-4.208,0.145
		c0.886,22.167,0.15,44.35,0.354,66.527C10.667,81.662,14.875,81.512,14.852,78.936z"/>
	<path style="fill:#1E1E1C;" d="M36.604,12.371c-0.103-2.577-4.312-2.434-4.208,0.145c0.886,22.167,0.149,44.351,0.354,66.527
		c0.024,2.582,4.232,2.431,4.209-0.145C36.754,56.722,37.489,34.538,36.604,12.371z"/>
	<path style="fill:#1E1E1C;" d="M53.801,78.869c-0.204-22.177,0.531-44.36-0.354-66.527c-0.103-2.577-4.312-2.433-4.208,0.145
		c0.886,22.167,0.149,44.351,0.354,66.527C49.616,81.595,53.824,81.445,53.801,78.869z"/>
	<path style="fill:#1E1E1C;" d="M45.226,78.923c-0.364-22.171-0.057-44.34-0.907-66.508c-0.099-2.577-3.101-2.475-3.002,0.103
		c0.85,22.168,0.543,44.337,0.907,66.508C42.266,81.607,45.268,81.498,45.226,78.923z"/>
	<path style="fill:#1E1E1C;" d="M88.185,12.282c-0.103-2.577-4.312-2.434-4.208,0.145c0.886,22.167,0.149,44.351,0.354,66.527
		c0.024,2.582,4.232,2.431,4.209-0.145C88.335,56.633,89.07,34.449,88.185,12.282z"/>
	<path style="fill:#1E1E1C;" d="M76.055,12.459c0.85,22.168,0.543,44.337,0.907,66.508c0.042,2.581,3.044,2.472,3.002-0.103
		c-0.364-22.171-0.057-44.34-0.907-66.508C78.958,9.779,75.956,9.88,76.055,12.459z"/>
	<path style="fill:#1E1E1C;" d="M28.536,78.913c-0.204-22.177,0.532-44.36-0.354-66.527c-0.104-2.577-9.575-2.424-9.473,0.154
		c0.886,22.167,0.15,44.351,0.354,66.527C19.089,81.648,28.561,81.488,28.536,78.913z"/>
	<path style="fill:#1E1E1C;" d="M71.696,78.838c-0.204-22.177,0.531-44.36-0.354-66.527c-0.103-2.577-13.785-2.417-13.683,0.161
		c0.886,22.167,0.15,44.35,0.354,66.527C58.037,81.581,71.72,81.414,71.696,78.838z"/>
	<path style="fill:#1E1E1C;" d="M16.147,83.654c-3.142-1.686-7.292,9.36,0.022,8.763c2.009-0.164,2.992-1.506,3.134-3.16
		c0.024-0.284,0.024-0.578,0-0.876C19.12,86.145,18.15,84.73,16.147,83.654z M16.062,89.39c-0.034,0.037-0.071,0.072-0.108,0.106
		c-0.003,0-0.004,0.001-0.004,0.001c0.028-0.045-0.039-0.021-0.076,0.001c-0.023-0.006-0.045-0.012-0.084-0.021
		c-0.228-0.049-0.33-0.099-0.49-0.186c-0.373-0.897-0.217-1.677,0.274-2.379c0.453,0.663,0.64,1.416,0.604,2.273
		C16.123,89.269,16.054,89.384,16.062,89.39z"/>
	<path style="fill:#1E1E1C;" d="M29.747,83.654c-3.141-1.686-7.292,9.36,0.022,8.763c2.009-0.164,2.993-1.506,3.135-3.16
		c0.024-0.284,0.023-0.578-0.001-0.876C32.72,86.145,31.751,84.73,29.747,83.654z M29.662,89.39
		c-0.035,0.037-0.072,0.072-0.108,0.106c-0.004,0-0.005,0.001-0.005,0.001c0.029-0.045-0.038-0.021-0.076,0.001
		c-0.023-0.006-0.045-0.012-0.084-0.021c-0.228-0.049-0.33-0.099-0.49-0.186c-0.373-0.897-0.217-1.677,0.274-2.379
		c0.453,0.663,0.64,1.416,0.605,2.273C29.723,89.269,29.653,89.384,29.662,89.39z"/>
	<path style="fill:#1E1E1C;" d="M43.348,83.654c-3.142-1.686-7.293,9.36,0.022,8.763c2.008-0.164,2.992-1.506,3.134-3.16
		c0.024-0.284,0.024-0.578,0-0.876C46.32,86.145,45.351,84.73,43.348,83.654z M43.262,89.39c-0.035,0.037-0.071,0.072-0.108,0.106
		c-0.003,0-0.004,0.001-0.004,0.001c0.028-0.045-0.039-0.021-0.077,0.001c-0.023-0.006-0.045-0.012-0.084-0.021
		c-0.228-0.049-0.329-0.099-0.49-0.186c-0.373-0.897-0.216-1.677,0.275-2.379c0.452,0.663,0.64,1.416,0.604,2.273
		C43.323,89.269,43.253,89.384,43.262,89.39z"/>
	<path style="fill:#1E1E1C;" d="M56.947,83.654c-3.142-1.686-7.293,9.36,0.022,8.763c2.009-0.164,2.992-1.506,3.134-3.16
		c0.024-0.284,0.024-0.578,0-0.876C59.92,86.145,58.95,84.73,56.947,83.654z M56.861,89.39c-0.034,0.037-0.071,0.072-0.108,0.106
		c-0.003,0-0.004,0.001-0.004,0.001c0.028-0.045-0.039-0.021-0.076,0.001c-0.024-0.006-0.045-0.012-0.084-0.021
		c-0.228-0.049-0.33-0.099-0.49-0.186c-0.373-0.897-0.217-1.677,0.274-2.379c0.453,0.663,0.64,1.416,0.604,2.273
		C56.923,89.269,56.854,89.384,56.861,89.39z"/>
	<path style="fill:#1E1E1C;" d="M70.547,83.654c-3.141-1.686-7.292,9.36,0.022,8.763c2.009-0.164,2.993-1.506,3.135-3.16
		c0.024-0.284,0.023-0.578-0.001-0.876C73.52,86.145,72.551,84.73,70.547,83.654z M70.461,89.39
		c-0.034,0.037-0.071,0.072-0.107,0.106c-0.004,0-0.005,0.001-0.005,0.001c0.029-0.045-0.038-0.021-0.076,0.001
		c-0.023-0.006-0.045-0.012-0.084-0.021c-0.228-0.049-0.33-0.099-0.49-0.186c-0.373-0.897-0.217-1.677,0.274-2.379
		c0.453,0.663,0.64,1.416,0.605,2.273C70.522,89.269,70.453,89.384,70.461,89.39z"/>
	<path style="fill:#1E1E1C;" d="M84.147,83.654c-3.142-1.686-7.293,9.36,0.022,8.763c2.008-0.164,2.992-1.506,3.134-3.16
		c0.024-0.284,0.024-0.578-0.001-0.876C87.119,86.145,86.15,84.73,84.147,83.654z M84.062,89.39
		c-0.035,0.037-0.071,0.072-0.108,0.106c-0.003,0-0.004,0.001-0.004,0.001c0.028-0.045-0.039-0.021-0.077,0.001
		c-0.023-0.006-0.045-0.012-0.084-0.021c-0.228-0.049-0.329-0.099-0.49-0.186c-0.373-0.897-0.216-1.677,0.275-2.379
		c0.452,0.663,0.64,1.416,0.604,2.273C84.123,89.269,84.053,89.384,84.062,89.39z"/>
</g>
</svg>
