<?xml version="1.0" encoding="iso-8859-1"?>
<!-- Generator: Adobe Illustrator 17.0.2, SVG Export Plug-In . SVG Version: 6.00 Build 0)  -->
<!DOCTYPE svg PUBLIC "-//W3C//DTD SVG 1.1//EN" "http://www.w3.org/Graphics/SVG/1.1/DTD/svg11.dtd">
<svg version="1.1" id="Capa_1" xmlns="http://www.w3.org/2000/svg" xmlns:xlink="http://www.w3.org/1999/xlink" x="0px" y="0px"
	 width="100px" height="100px" viewBox="0 0 100 100" style="enable-background:new 0 0 100 100;" xml:space="preserve">
<g>
	<path style="fill:#1E1E1C;" d="M75.817,42.527c0.055-1.179,0.103-2.357,0.173-3.536c0.04-0.7-0.178-1.234-0.529-1.621
		c-1.277-3.216-4.962-5.204-8.021-6.38c-7.108-2.734-15.062-3.091-22.593-2.912c-0.329,0.008-0.616,0.076-0.879,0.171
		c-6.366-0.206-13.046,0.053-19.007,2.328c-3.426,1.308-7.347,3.982-7.014,8.143c0.054,0.674,0.217,1.3,0.451,1.888
		c0.939,14.809-0.042,29.624-0.326,44.442c-0.154,0.429-0.157,0.939,0.078,1.517c5.883,14.386,46.216,13.117,56.389,2.056
		c0.399-0.434,0.603-0.908,0.655-1.377c0.341-0.385,0.561-0.903,0.55-1.573c-0.074-4.599-0.16-9.198-0.226-13.797
		c7.756-1.489,14.059-7.031,13.912-15.349C89.294,48.696,82.793,43.955,75.817,42.527z M23.868,37.269
		c1.081-1.133,2.802-1.681,4.246-2.147c10.469-3.375,24.43-2.811,34.988,0.032c2.327,0.627,6.672,1.998,7.466,4.361
		c0.12,0.363,0.074,0.501-0.578,1.184c-1.082,1.133-2.803,1.681-4.246,2.147c-0.131,0.042-0.268,0.077-0.399,0.118
		c-11.755-6.908-25.733-7.578-38.089-1.723c-0.147,0.07-0.274,0.151-0.392,0.236c-1.646-0.739-3.141-1.733-3.575-3.024
		C23.169,38.09,23.216,37.952,23.868,37.269z M58.211,44.559c-7.994,1.181-16.748,0.664-24.427-1.016
		C41.842,40.918,50.413,41.366,58.211,44.559z M22.951,85.448c0-0.007,0.002-0.013,0.002-0.02
		c0.242-13.255,1.067-26.507,0.594-39.755c0.959,0.517,1.943,0.949,2.871,1.306c7.108,2.734,15.063,3.091,22.593,2.912
		c0.329-0.008,0.615-0.076,0.879-0.171c6.366,0.206,13.045-0.052,19.006-2.328c0.617-0.235,1.249-0.517,1.87-0.841
		c-0.435,12.945-0.124,25.897,0.087,38.849C63.457,93.166,27.354,95.862,22.951,85.448z M75.462,66.876
		c-0.061-6.492-0.036-12.984,0.165-19.474c4.562,1.056,8.467,4.065,8.917,9.125C85.049,62.217,80.351,65.583,75.462,66.876z"/>
	<path style="fill:#1E1E1C;" d="M38.532,17.688c0.039,0.032,0.079,0.051,0.118,0.08c1.259,1.797,1.381,3.444-0.573,4.899
		c-1.005,0.748-1.514,1.976-0.825,3.15c0.581,0.992,2.141,1.577,3.149,0.826c3.902-2.906,5.112-7.363,2.054-11.439
		c-0.061-0.081-0.128-0.152-0.194-0.226c-0.121-0.189-0.267-0.374-0.473-0.547c-3.121-2.614-2.832-5.043,0-7.795
		c2.133-2.072-1.126-5.326-3.256-3.256C34.022,7.764,33.498,13.472,38.532,17.688z"/>
	<path style="fill:#1E1E1C;" d="M55.109,17.688c0.039,0.032,0.08,0.051,0.118,0.08c1.259,1.797,1.382,3.444-0.573,4.899
		c-1.004,0.748-1.514,1.976-0.825,3.15c0.581,0.992,2.141,1.577,3.149,0.826c3.902-2.906,5.112-7.363,2.055-11.439
		c-0.062-0.081-0.129-0.152-0.195-0.226c-0.121-0.189-0.267-0.374-0.473-0.547c-3.12-2.614-2.832-5.043,0-7.795
		c2.133-2.072-1.126-5.326-3.256-3.256C50.6,7.764,50.075,13.472,55.109,17.688z"/>
</g>
</svg>
