<?xml version="1.0" encoding="utf-8"?>
<!-- Generator: Adobe Illustrator 17.0.2, SVG Export Plug-In . SVG Version: 6.00 Build 0)  -->
<!DOCTYPE svg PUBLIC "-//W3C//DTD SVG 1.1//EN" "http://www.w3.org/Graphics/SVG/1.1/DTD/svg11.dtd">
<svg version="1.1" id="Capa_1" xmlns="http://www.w3.org/2000/svg" xmlns:xlink="http://www.w3.org/1999/xlink" x="0px" y="0px"
	 width="100px" height="100px" viewBox="0 0 100 100" enable-background="new 0 0 100 100" xml:space="preserve">
<g>
	<path fill="#1D1D1B" d="M92.114,13.676c-0.316-0.76-0.971-1.233-1.795-1.299c-1.191-0.092-2.344-0.065-3.636,0.07
		c-1.825-5.499-6.156-8.643-11.942-8.643c-0.708,0-1.443,0.047-2.185,0.14c-0.388,0.048-0.741,0.201-1.029,0.443
		c-0.312,0.153-0.568,0.392-0.764,0.708C70.331,5.8,69.76,6.447,68.927,7.177c-0.013,0-0.019,0-0.026,0
		c-2.852,0.11-5.703,0.249-8.554,0.387c-6.246,0.303-12.706,0.617-19.055,0.617c-3.483,0-6.658-0.092-9.7-0.281
		c-1.195-1.193-2.38-2.353-3.666-3.436c-0.622-0.524-1.472-0.656-2.139-0.327c-6.417-0.637-11.102,2.261-12.964,8.005
		c-0.037,0.053-0.071,0.107-0.099,0.165c-0.113,0.236-0.215,0.475-0.304,0.712c-1.464,0.054-2.916,0.059-4.396,0.059
		c-0.402,0-0.767,0.1-1.084,0.297c-0.937,0.227-1.531,0.988-1.524,1.964c0.013,2.086,0.212,4.151,0.592,6.137
		c0.034,0.176,0.09,0.342,0.169,0.505c-0.012,0.569,0.183,1.109,0.542,1.501c0.371,0.402,0.88,0.615,1.484,0.615l2.898-0.002
		c0.003,0.013,0.006,0.025,0.009,0.038c5.822,24.666,11.291,46.841,19.257,68.393c-0.068,0.591,0.095,1.206,0.448,1.671
		c0.358,0.472,0.894,0.762,1.506,0.817c6.114,0.558,12.113,0.841,17.831,0.841c8.103,0,16.034-0.569,23.564-1.69
		c0.021-0.003,0.041-0.007,0.062-0.012c1.036,0.136,1.96-0.444,2.249-1.451c4.69-16.334,6.783-33.409,8.807-49.922
		c0.763-6.218,1.55-12.643,2.466-18.943c1.241-0.082,2.481-0.169,3.722-0.268c0.143-0.011,0.273-0.038,0.328-0.054
		c0.585,0,1.138-0.22,1.517-0.602c0.365-0.369,0.555-0.863,0.549-1.43c-0.025-2.657-0.407-5.154-1.134-7.42
		C92.234,13.909,92.167,13.759,92.114,13.676z M68.942,7.676l0,0.002c0,0,0,0,0,0V7.676z M25.723,7.891
		c0.136,0.019,0.265,0.023,0.394,0.014c0.926,0.826,1.918,1.771,3.103,2.956c0.257,0.256,0.553,0.425,0.88,0.503
		c0.265,0.164,0.562,0.257,0.883,0.278c3.216,0.213,6.578,0.316,10.278,0.316c6.369,0,12.836-0.315,19.09-0.619
		c2.862-0.14,5.726-0.279,8.59-0.39c0.11-0.004,0.219-0.018,0.328-0.041c0.553,0.089,1.154-0.083,1.641-0.476
		c1.094-0.883,1.974-1.803,2.684-2.806c4.529-0.31,7.674,1.433,9.218,5.203c-11.894,0.649-24.361,0.978-37.07,0.978
		c-9.421,0-19.28-0.18-29.318-0.537C17.741,9.121,21.029,7.228,25.723,7.891z M72.403,90.172
		c-6.946,1.017-14.325,1.532-21.938,1.532c-5.161,0-10.62-0.236-16.232-0.703c-1.37-3.718-2.66-7.453-3.895-11.211
		c15.21,0.734,30.662,2.047,45.214-2.946C74.647,81.323,73.623,85.777,72.403,90.172z M80.801,41.749
		c-1.235,10.059-2.499,20.333-4.355,30.506C61.234,78.106,45,76.464,29.031,75.73C25,62.969,21.593,49.875,18.24,36.061
		c21.011,2.291,42.637,3.795,63.394-1.028C81.351,37.288,81.073,39.534,80.801,41.749z M82.176,30.805
		c-21.067,5.24-43.155,3.538-64.51,1.195c-0.145-0.016-0.279-0.014-0.407-0.004c-0.625-2.604-1.249-5.229-1.877-7.889
		c6.54,0.039,13.178,0.157,19.604,0.271c7.86,0.14,15.987,0.284,23.98,0.284c9.012,0,16.91-0.189,24.12-0.576
		C82.769,26.317,82.469,28.561,82.176,30.805z M58.98,20.5c-7.978,0-16.095-0.145-23.944-0.284
		c-7.854-0.14-15.977-0.284-23.965-0.284l-1.118,0.001c-0.145-0.854-0.245-1.743-0.306-2.695c1.578-0.009,3.248-0.043,4.919-0.172
		c0.164-0.012,0.329-0.044,0.491-0.094c1.01-0.309,2.939-0.151,4.709,0.055c0.812,0.094,1.578,0.184,2.222,0.203
		c2.405,0.071,4.812,0.13,7.217,0.181c4.737,0.099,9.542,0.157,14.279,0.171l2.286,0.003c9.013,0,17.965-0.167,26.608-0.495
		c0.29-0.011,1.138-0.057,2.308-0.121c3.65-0.2,10.445-0.572,13.159-0.572c0.386,0,0.623,0.008,0.77,0.017
		c0.259,1.026,0.436,2.055,0.535,3.124C80.201,20.193,70.597,20.5,58.98,20.5z"/>
	<path fill="#1D1D1B" d="M57.31,62.212c-1.781-1.281-3.993-1.778-5.95-1.339c-0.086,0.02-0.167,0.043-0.245,0.069
		c-0.123-0.063-0.223-0.22-0.338-0.702c0.002-0.067,0.002-0.136-0.006-0.209c-0.482-4.464-5.153-8.684-9.61-8.684
		c-1.768,0-3.378,0.68-4.658,1.968c-4.311,4.336,0.435,10.244,2.222,12.469c2.87,3.571,6.655,6.416,11.252,8.454
		c1.223,0.543,2.516,0.829,3.737,0.829c0.001,0,0.001,0,0.001,0c3.297,0,5.854-2.026,6.673-5.287
		C61.078,67.025,59.871,64.055,57.31,62.212z M56.355,68.336c-0.007,0.211-0.03,0.405-0.047,0.534l-0.064,0.238
		c-0.022,0.069-0.035,0.139-0.039,0.192c-0.276,0.987-0.966,1.551-2.163,1.766c-0.045-0.017-0.091-0.031-0.138-0.043
		c-6.707-1.701-11.805-6.046-15.153-12.915c0.032-0.639,0.258-1.157,0.709-1.627c0.033-0.035,0.061-0.071,0.057-0.077l0.113-0.094
		c1.041-0.999,2.139-1.057,3.584-0.215c0.153,0.151,0.316,0.271,0.497,0.368c1.742,0.924,2.709,2.16,2.876,3.674
		c0.004,0.041,0.012,0.08,0.022,0.129c-0.025,0.235-0.013,0.472,0.038,0.706c0.609,2.764,2.529,4.42,5.078,4.211
		c0.35-0.028,0.688-0.13,0.985-0.295c0.25-0.032,0.499-0.046,0.75,0.002c0.436,0.083,0.722,0.287,0.889,0.445
		c0.038,0.036,0.072,0.055,0.074,0.057l1.952,1.97c0.032,0.152,0.052,0.303,0.062,0.462C56.388,68,56.361,68.168,56.355,68.336z"/>
	<path fill="#1D1D1B" d="M47.262,42.877c-0.034,0.044-0.061,0.088-0.077,0.121l-0.095,0.114c-1.974,2.81-1.717,6.229,0.673,8.924
		c0.1,0.111,0.21,0.212,0.333,0.304c1.969,2.535,4.672,3.8,7.756,3.677c0.062-0.003,0.117-0.011,0.199-0.024
		c0.51,0.045,0.678,0.118,0.756,0.225c-0.014,0.081-0.024,0.165-0.031,0.252c-0.159,2.289,0.702,4.345,2.37,5.643
		c0.044,0.033,0.088,0.06,0.119,0.073l0.092,0.08c1.803,1.364,3.384,2.273,5.241,2.273c0.784,0,1.555-0.164,2.355-0.502
		c1.789-0.755,3.063-2.073,3.686-3.813c0.731-2.049,0.484-4.571-0.663-6.747c-2.133-4.043-5.597-7.657-9.505-9.914
		c-2.408-1.39-5.069-2.544-7.493-3.249c-0.305-0.089-0.627-0.11-0.916-0.067c-0.153-0.008-0.315-0.002-0.49,0.026
		C49.827,40.573,48.336,41.475,47.262,42.877z M55.371,52.366v-0.002V52.366C55.371,52.366,55.371,52.366,55.371,52.366z
		 M50.318,45.702c0.496-0.608,1.396-0.735,2.064-0.735c0.862,0,1.864,0.213,2.75,0.585c1.054,0.443,2.049,0.94,2.958,1.477
		c2.055,1.212,3.81,2.645,5.218,4.258l0.157,0.18c1.396,1.598,2.979,3.409,3.497,5.407c0.317,1.225-0.167,2.562-1.152,3.179
		c-0.808,0.508-1.792,0.419-2.716-0.264c-0.175-0.129-0.366-0.249-0.56-0.37c-0.28-0.176-0.545-0.342-0.747-0.534
		c-0.607-0.578-0.648-1.341-0.696-2.224c-0.038-0.707-0.077-1.438-0.412-2.146c-0.741-1.566-2.433-2.582-4.526-2.717l-0.136-0.004
		c-0.19,0-0.381,0.024-0.564,0.074c-0.032-0.003-0.069-0.008-0.131-0.002l-0.151,0.003c-2.187,0-4.735-1.976-5.146-3.989
		C49.828,46.915,49.927,46.182,50.318,45.702z"/>
</g>
</svg>
