<?xml version="1.0" encoding="iso-8859-1"?>
<!-- Generator: Adobe Illustrator 17.0.2, SVG Export Plug-In . SVG Version: 6.00 Build 0)  -->
<!DOCTYPE svg PUBLIC "-//W3C//DTD SVG 1.1//EN" "http://www.w3.org/Graphics/SVG/1.1/DTD/svg11.dtd">
<svg version="1.1" id="Capa_1" xmlns="http://www.w3.org/2000/svg" xmlns:xlink="http://www.w3.org/1999/xlink" x="0px" y="0px"
	 width="100px" height="100px" viewBox="0 0 100 100" style="enable-background:new 0 0 100 100;" xml:space="preserve">
<g>
	<path style="fill:#1D1D1B;" d="M50.701,66.723L50.701,66.723c1.154,0,2.305-0.083,3.42-0.247
		c5.343-0.784,10.325-3.941,13.328-8.445c2.562-3.844,3.383-8.283,2.31-12.501c-1.896-7.453-8.799-12.268-17.587-12.268
		c-2.034,0-4.046,0.264-5.981,0.786c-0.262,0.02-0.507,0.069-0.748,0.152c-0.539,0.187-1.091,0.403-1.664,0.652
		c-0.8,0.321-1.548,0.675-2.224,1.05c-0.179,0.099-0.349,0.218-0.516,0.36c-6.315,3.844-9.37,10.125-8.383,17.248
		C33.922,62.637,42.631,66.723,50.701,66.723z M44.624,40.988c2.293-1.229,4.879-1.878,7.479-1.878
		c4.792,0,10.512,2.358,12.195,8.976c0.578,2.271,0.131,4.447-1.328,6.47c-2.709,3.757-8.32,6.085-12.224,6.367
		c-0.396,0.028-0.784,0.042-1.161,0.042c-6.259,0-9.506-3.846-10.458-7.444C38.051,49.451,39.34,43.993,44.624,40.988z"/>
	<path style="fill:#1D1D1B;" d="M95.669,37.476c-0.781-2.405-1.563-4.81-2.306-7.227c-0.093-0.302-0.229-0.588-0.412-0.867
		l-0.001-0.004c-0.327-1.372-1.353-2.321-2.702-2.519c-0.202-0.091-0.41-0.155-0.621-0.191c-2.861-0.507-5.655-1.142-8.723-1.858
		c-0.078-2.512-0.16-5.022-0.251-7.535c-0.008-0.205-0.041-0.41-0.1-0.625c-0.101-0.737-0.515-1.372-1.174-1.795
		c-4.55-2.92-9.33-5.173-14.206-6.695c-0.587-0.185-1.182-0.164-1.717,0.052c-0.442,0.096-0.844,0.305-1.198,0.622
		c-0.854,0.77-1.7,1.548-2.536,2.335c-1.518-1.822-3.088-3.744-4.563-5.714c-0.128-0.169-0.278-0.324-0.447-0.462
		c-0.778-1.109-2.104-1.605-3.463-1.279c-0.002,0.001-0.005,0.001-0.008,0.002c-0.299-0.036-0.616-0.035-0.958,0.023
		c-2.493,0.425-4.992,0.812-7.491,1.197C38.64,5.577,34.347,6.24,30.145,7.083c-1.409,0.282-2.375,1.286-2.57,2.648
		c-0.151,0.286-0.256,0.582-0.321,0.899l-0.229,1.12c-0.42,2.049-0.853,4.159-1.186,6.277c-3.021-0.144-6.152-0.379-9.54-0.716
		c-1.398-0.145-2.445,0.725-2.67,2.033c-0.021,0.043-0.042,0.088-0.061,0.136c-1.941,4.866-4.308,9.373-6.366,13.141
		c-0.536,0.979-0.426,2.092,0.277,2.939c0.083,0.161,0.176,0.308,0.283,0.443c1.27,1.606,2.581,3.327,3.993,5.24
		c-1.848,1.311-3.631,2.723-5.362,4.095l-0.971,0.768c-0.254,0.201-0.47,0.429-0.657,0.69c-1.128,0.788-1.589,2.104-1.207,3.488
		c1.143,4.133,2.486,8.266,3.785,12.263c0.781,2.403,1.562,4.807,2.306,7.222c0.093,0.303,0.228,0.588,0.411,0.866l0.001,0.004
		c0.326,1.373,1.353,2.323,2.703,2.519c0.2,0.09,0.407,0.154,0.62,0.192c2.668,0.473,5.351,1.074,8.084,1.71
		c-0.065,0.903-0.129,1.808-0.192,2.711c-0.144,2.049-0.287,4.098-0.461,6.145c-0.091,1.068,0.401,1.966,1.322,2.421
		c0.063,0.045,0.128,0.086,0.194,0.121c4.358,2.322,8.835,4.135,13.306,5.386c0.175,0.048,0.354,0.08,0.535,0.094
		c0.568,0.09,1.168-0.042,1.708-0.39c1.435-0.93,2.864-1.868,4.292-2.806l0.666-0.438c1.733,2.076,3.419,4.128,5.011,6.255
		c0.128,0.17,0.279,0.326,0.45,0.466c0.617,0.88,1.562,1.381,2.621,1.381c0.277,0,0.562-0.034,0.843-0.102
		c0.002-0.001,0.004-0.001,0.006-0.002c0.301,0.036,0.617,0.035,0.96-0.023c2.493-0.425,4.992-0.812,7.491-1.197
		c4.152-0.642,8.445-1.305,12.647-2.147c1.409-0.282,2.375-1.287,2.57-2.649c0.151-0.286,0.256-0.582,0.32-0.898l0.23-1.126
		c0.399-1.948,0.811-3.954,1.137-5.966c2.873,0.355,5.616,0.427,8.237,0.22c0.391-0.031,0.76-0.142,1.099-0.327
		c0.34-0.152,0.643-0.386,0.902-0.694c3.027-3.622,6.756-8.538,8.731-14.463c0.195-0.585,0.187-1.173-0.021-1.711
		c-0.099-0.461-0.322-0.878-0.666-1.239c-1.658-1.75-3.026-3.491-4.162-5.3c1.855-1.314,3.644-2.731,5.381-4.107l0.961-0.761
		c0.254-0.201,0.471-0.429,0.658-0.692c1.127-0.788,1.589-2.104,1.207-3.487C98.311,45.602,96.968,41.471,95.669,37.476z
		 M26.722,71.028c-0.263-1.174-1.12-2.009-2.371-2.301c-2.848-0.666-5.642-1.308-8.456-1.828c-0.622-1.99-1.263-3.973-1.904-5.956
		c-1.097-3.391-2.228-6.89-3.238-10.37l0.444-0.354c1.744-1.389,3.547-2.825,5.423-4.067c1.291-0.854,1.841-2.323,1.458-3.812
		c0.145-0.637-0.004-1.31-0.429-1.896c-1.68-2.324-3.383-4.597-5.068-6.761c2.182-4.07,3.882-7.584,5.299-10.957
		c3.275,0.299,6.304,0.498,9.232,0.609c0.488,0.252,1.048,0.384,1.637,0.384c1.553,0,3.338-0.975,3.591-3.112
		c0.263-2.228,0.731-4.479,1.184-6.655l0.119-0.575c3.571-0.669,7.215-1.237,10.745-1.787c2.05-0.32,4.099-0.64,6.146-0.979
		c1.735,2.279,3.566,4.483,5.443,6.725c0.637,0.759,1.482,1.177,2.382,1.177c0.86,0,1.735-0.387,2.346-1.01
		c0.063-0.05,0.125-0.102,0.183-0.161c1.302-1.33,2.693-2.616,3.942-3.75c3.601,1.228,7.169,2.915,10.624,5.021
		c0.114,3.158,0.227,6.315,0.312,9.475c0.023,0.848,0.409,1.588,1.068,2.066c0.436,0.568,1.062,0.96,1.826,1.139
		c2.846,0.666,5.638,1.307,8.456,1.829c0.62,1.982,1.258,3.958,1.897,5.934c1.099,3.397,2.233,6.904,3.245,10.392l-0.456,0.362
		c-1.741,1.387-3.541,2.82-5.411,4.06c-0.967,0.64-1.534,1.645-1.571,2.773c-0.134,0.575-0.066,1.169,0.198,1.726
		c1.355,2.847,3.197,5.56,5.624,8.277c-1.325,3.42-3.393,6.756-6.624,10.688c-2.583,0.113-5.198-0.048-7.844-0.476
		c-0.546-0.356-1.219-0.55-1.924-0.55c-1.547,0-3.328,0.972-3.579,3.106c-0.262,2.225-0.73,4.475-1.183,6.649l-0.12,0.581
		c-3.57,0.668-7.211,1.236-10.74,1.786c-2.051,0.32-4.103,0.641-6.151,0.98c-1.737-2.282-3.567-4.484-5.443-6.724
		c-0.251-0.301-0.547-0.553-0.88-0.75c-0.813-0.703-1.955-0.777-2.9-0.166c-1.351,0.874-2.696,1.758-4.041,2.642
		c-1.053,0.692-2.106,1.384-3.162,2.071c-3.364-1.01-6.68-2.335-9.87-3.946c0.109-1.414,0.207-2.829,0.305-4.245
		c0.138-1.997,0.276-3.994,0.447-5.988C26.971,71.848,26.9,71.42,26.722,71.028z M14.527,19.793
		C14.527,19.793,14.527,19.793,14.527,19.793l-0.003-0.001L14.527,19.793z"/>
</g>
</svg>
