<?xml version="1.0" encoding="iso-8859-1"?>
<!-- Generator: Adobe Illustrator 17.0.2, SVG Export Plug-In . SVG Version: 6.00 Build 0)  -->
<!DOCTYPE svg PUBLIC "-//W3C//DTD SVG 1.1//EN" "http://www.w3.org/Graphics/SVG/1.1/DTD/svg11.dtd">
<svg version="1.1" id="Capa_1" xmlns="http://www.w3.org/2000/svg" xmlns:xlink="http://www.w3.org/1999/xlink" x="0px" y="0px"
	 width="100px" height="100px" viewBox="0 0 100 100" style="enable-background:new 0 0 100 100;" xml:space="preserve">
<g>
	<path style="fill:#1E1E1C;" d="M90.605,17.561c-2.869-1.204-5.974-1.997-9-2.694c-6.013-1.383-12.3-1.335-18.319,0.039
		c-0.892,0.203-1.781,0.449-2.665,0.727c0.677,0.791,1.096,1.598,1.224,2.423c0.117,0.754,0.161,1.531,0.18,2.315
		c8.459-2.675,17.577-1.974,25.825,1.504c-7.611,4.525-17.644,4.309-25.867,0.869c-0.051,0.933-0.12,1.868-0.198,2.793
		c-0.071,0.835-0.13,1.624-0.174,2.39c9.5,3.483,20.619,2.966,29.235-2.243c-0.039,1.342-0.062,2.684-0.094,4.026
		c-8.997,4.993-19.882,5.602-29.232,1.503c-0.035,1.75-0.066,3.503-0.092,5.259c9.406,3.511,20.055,3.041,29.206-1.199
		c-0.026,1.557-0.032,3.115-0.05,4.672c-9.357,4.456-19.57,3.48-29.212,0.584c-0.011,0.912-0.018,1.827-0.026,2.741
		c0.302-0.054,0.602-0.111,0.907-0.154c1.175-0.168,2.368-0.253,3.547-0.253c5.384,0,10.463,1.762,14.693,4.781
		c3.392-0.33,6.749-1.082,10.032-2.364c-0.009,1.195-0.007,2.391-0.014,3.586c-1.768,1.177-3.605,2.12-5.484,2.862
		c1.112,1.255,2.118,2.617,2.995,4.075c0.832-0.368,1.657-0.76,2.468-1.203c-0.005,1.703-0.02,3.406-0.02,5.109
		c0,0.131-0.122,0.29-0.314,0.463c0.573,1.493,1.023,3.052,1.338,4.664c1.016-0.633,2.006-1.293,2.914-2
		c0.561-0.436,0.806-0.948,0.841-1.458c0.071-0.233,0.122-0.482,0.122-0.765c0-10.216,0.016-20.438,0.249-30.655
		c0.06-2.635,0.661-5.794,0.25-8.386C95.589,19.797,91.972,18.134,90.605,17.561z"/>
	<path style="fill:#1E1E1C;" d="M40.288,72.246c-0.057,0.011-0.112,0.026-0.169,0.037c-1.955,0.36-3.947,0.581-5.946,0.654
		c-0.484,0.018-0.969,0.026-1.454,0.026c-2.625,0-5.249-0.261-7.806-0.806c-2.175-0.464-4.306-1.161-6.332-2.094
		c-0.855-0.394-6.072-2.683-6.073-3.675c0-2.125-0.02-4.25-0.025-6.375c6.67,3.261,13.847,5.032,20.969,5.032
		c2.411,0,4.814-0.214,7.192-0.63c0.452-2.404,1.217-4.705,2.252-6.851c-3.149,0.886-6.37,1.332-9.606,1.332
		c-6.857,0-13.771-1.918-20.161-5.453c-0.227-0.125-0.451-0.215-0.673-0.28c-0.011-2.018-0.008-4.037-0.024-6.055
		c7.646,2.633,15.562,4.341,23.406,4.341c4.273,0,8.524-0.516,12.702-1.655c1.222-1.161,2.557-2.202,3.988-3.104
		c2.08-1.309,4.368-2.318,6.814-2.973c0.012-1.272,0.021-2.544,0.036-3.815c0.017-1.413,0.042-2.826,0.063-4.24
		c0.028-1.801,0.057-3.601,0.095-5.402c0.01-0.445,0.014-0.891,0.023-1.336c0.013-0.576,0.05-1.176,0.093-1.784
		c0.121-1.72,0.313-3.535,0.37-5.296c0.009-0.26,0.017-0.519,0.019-0.776c0.005-0.934-0.039-1.844-0.173-2.704
		c-0.107-0.694-0.612-1.374-1.308-2.004c-1.542-1.399-4.022-2.548-5.184-3.046c-3.539-1.516-7.367-2.515-11.1-3.392
		c-3.648-0.857-7.38-1.278-11.112-1.278c-3.853,0-7.708,0.448-11.479,1.327c-4.264,0.994-8.5,2.735-12.329,4.893
		c-1.232,0.694-1.613,1.831-1.448,2.912c-0.036,0.212-0.058,0.435-0.049,0.679c0.574,16.352,0.604,32.712,0.604,49.073
		c0,0.357,0.062,0.671,0.151,0.964c0.043,0.642,0.346,1.287,1.036,1.836c7.116,5.658,16.611,8.871,25.92,8.871
		c2.701,0,5.384-0.281,7.99-0.841c-0.502-1.532-0.88-3.126-1.115-4.77C40.383,73.139,40.331,72.692,40.288,72.246z M31.25,14.791
		c6.358,0,12.729,1.371,18.728,3.954c-4.892,2.97-10.598,4.322-16.374,4.322c-6.612,0-13.317-1.77-19.01-4.909
		C19.953,15.875,25.597,14.791,31.25,14.791z M12.054,23.828c6.367,3.506,13.698,5.343,20.983,5.343
		c6.671,0,13.294-1.561,19.114-4.769c0.51-0.281,1.024-0.554,1.521-0.861c-0.049,1.69-0.077,3.38-0.116,5.07
		c-0.417,0.236-0.846,0.445-1.269,0.666c-5.863,3.057-12.309,4.635-18.753,4.635c-7.304,0-14.595-2-21.012-6.086
		c-0.129-0.082-0.257-0.134-0.385-0.194C12.108,26.364,12.089,25.096,12.054,23.828z M12.298,34.808
		c6.591,3.532,13.906,5.269,21.229,5.269c6.454,0,12.911-1.366,18.89-4.025c0.331-0.147,0.666-0.281,0.994-0.437
		c-0.032,1.961-0.039,3.922-0.062,5.883c-0.282,0.137-0.567,0.252-0.851,0.381c-5.357,2.441-10.931,3.461-16.547,3.461
		c-7.943,0-15.97-2.003-23.591-4.775C12.337,38.648,12.33,36.728,12.298,34.808z"/>
	<path style="fill:#1E1E1C;" d="M89.319,66.092c-0.171-0.748-0.37-1.483-0.599-2.206c-0.253-0.797-0.538-1.576-0.855-2.337
		c-0.694-1.665-1.524-3.249-2.498-4.712c-0.997-1.498-2.138-2.866-3.378-4.107c-2.058-2.06-4.41-3.731-6.954-4.918
		c-2.771-1.294-5.755-2.029-8.82-2.029c-1.079,0-2.171,0.086-3.258,0.254c-0.369,0.057-0.737,0.124-1.104,0.2
		c-0.181,0.038-0.357,0.084-0.536,0.126c-0.337,0.079-0.671,0.164-1.002,0.257c-0.338,0.095-0.673,0.196-1.004,0.305
		c-0.644,0.213-1.277,0.449-1.895,0.715c-1.465,0.631-2.85,1.409-4.145,2.308c-0.244,0.169-0.484,0.341-0.721,0.519
		c-0.096,0.072-0.189,0.146-0.283,0.219c-0.342,0.264-0.675,0.538-1.002,0.819c-0.177,0.153-0.355,0.303-0.528,0.461
		c-0.829,0.755-1.604,1.566-2.325,2.424c-0.453,0.54-0.882,1.101-1.289,1.678c-1.658,2.346-2.92,4.977-3.705,7.767
		c-0.104,0.367-0.198,0.736-0.284,1.108c-0.083,0.355-0.158,0.712-0.225,1.071c-0.002,0.008-0.003,0.016-0.005,0.023
		c-0.219,1.185-0.351,2.392-0.393,3.611c-0.012,0.347-0.017,0.694-0.013,1.042c0.003,0.343,0.012,0.687,0.03,1.031
		c0.037,0.711,0.102,1.425,0.204,2.14c0.196,1.372,0.515,2.699,0.916,3.986c0.1,0.321,0.207,0.636,0.319,0.951
		c0.112,0.316,0.232,0.629,0.356,0.939c3.659,9.133,12.332,15.486,22.113,15.486c1.079,0,2.17-0.077,3.244-0.231
		c5.41-0.773,12.778-5.244,16.087-9.762c3.715-5.071,5.055-11.531,3.772-18.19C89.48,66.718,89.392,66.408,89.319,66.092z
		 M48.941,63.09c0.182-0.453,0.377-0.898,0.59-1.335c0.804-1.644,1.823-3.17,3.029-4.534c1.853-2.096,4.127-3.811,6.722-4.943
		c0.327-0.142,0.667-0.257,1.003-0.381c0.331-0.122,0.661-0.246,1.001-0.35c0.257-0.078,0.521-0.138,0.783-0.205
		c0.268-0.068,0.528-0.153,0.801-0.21c1.115-0.232,2.24-0.35,3.345-0.35c3.477,0,6.591,1.127,9.246,2.935
		c1.782,1.213,3.352,2.735,4.677,4.448c1.275,1.647,2.329,3.459,3.12,5.34c0.619,1.474,1.086,2.983,1.374,4.477
		c0.013,0.066,0.017,0.131,0.028,0.197c0.953,5.207-0.076,10.205-2.924,14.093c-2.545,3.474-8.628,7.176-12.763,7.768
		c-0.84,0.12-1.692,0.181-2.535,0.181c-7.661,0-14.474-4.987-17.419-12.185c-0.126-0.308-0.241-0.621-0.353-0.936
		c-0.111-0.315-0.213-0.634-0.31-0.956c-0.29-0.97-0.527-1.965-0.675-2.994c-0.157-1.095-0.199-2.186-0.168-3.267
		c0.011-0.379,0.035-0.756,0.067-1.131c0.034-0.387,0.062-0.775,0.118-1.157c0.164-1.109,0.433-2.192,0.776-3.247
		C48.616,63.922,48.774,63.505,48.941,63.09z"/>
	<path style="fill:#1E1E1C;" d="M57.067,65.211c0.428,1.211,1.158,2.292,2.075,3.106c0.279,0.247,0.576,0.462,0.885,0.655
		c0.295,0.184,0.601,0.344,0.917,0.472c0.062,0.025,0.122,0.059,0.185,0.082c1.116,0.404,2.277,0.657,3.385,0.861
		c0.075,2.239,0.13,4.566,0.168,7.077c-1.22-0.673-2.41-1.579-3.227-2.469c-0.454-0.495-1.023-0.757-1.646-0.757
		c-0.929,0-1.847,0.612-2.231,1.488c-0.356,0.811-0.201,1.666,0.425,2.349c1.69,1.842,4.182,3.469,6.721,4.399l0.005,0.751
		c-0.004,0.648,0.222,1.219,0.651,1.651c0.454,0.456,1.103,0.717,1.78,0.717c1.049,0,2.181-0.67,2.189-2.144l-0.001-0.143
		c1.948-0.062,3.602-0.708,4.918-1.925c2.286-2.111,3.705-5.121,3.613-7.666c-0.054-1.503-0.627-2.833-1.658-3.896
		c-0.191-0.197-0.392-0.387-0.614-0.565c-1.973-1.576-4.337-2.274-6.63-2.764c-0.025-0.654-0.055-1.308-0.081-1.963
		c-0.043-1.049-0.085-2.097-0.131-3.146c0.786,0.208,1.545,0.478,2.224,0.791c1.297,0.599,2.623-0.15,2.934-1.56
		c0.142-0.643,0.039-1.395-0.39-1.998c-0.224-0.314-0.531-0.59-0.95-0.783c-1.207-0.557-2.591-0.981-4.027-1.235v-0.021
		c-0.065-1.518-1.348-2.336-2.521-2.336c-0.626,0-1.184,0.222-1.569,0.624c-0.373,0.391-0.557,0.921-0.53,1.531l0.002,0.034
		c-0.483,0.056-0.944,0.144-1.392,0.248c-0.445,0.104-0.875,0.228-1.281,0.379c-0.351,0.13-0.682,0.282-1.002,0.447
		c-0.352,0.181-0.689,0.378-1.001,0.599c-0.439,0.311-0.839,0.66-1.193,1.048c-0.207,0.227-0.383,0.473-0.545,0.727
		c-0.836,1.309-1.086,2.955-0.668,4.649C56.912,64.761,56.988,64.986,57.067,65.211z M73.314,74.107
		c-0.002,1.448-1.384,3.311-2.334,3.956c-0.478,0.324-1.037,0.523-1.668,0.596c-0.03-2.573-0.082-4.998-0.157-7.376
		c1.433,0.379,2.526,0.854,3.485,1.508C73.095,73.101,73.315,73.531,73.314,74.107z M64.327,65.59
		c-0.312-0.067-0.622-0.139-0.928-0.216c-1.077-0.27-1.935-1.139-2.037-2.068c-0.042-0.377,0.055-0.718,0.268-1.019
		c0.192-0.272,0.479-0.513,0.869-0.709c0.474-0.238,1.023-0.411,1.64-0.518c0.033,0.766,0.063,1.532,0.096,2.298
		C64.266,64.102,64.297,64.845,64.327,65.59z"/>
</g>
</svg>
