<?xml version="1.0" encoding="iso-8859-1"?>
<!-- Generator: Adobe Illustrator 17.0.2, SVG Export Plug-In . SVG Version: 6.00 Build 0)  -->
<!DOCTYPE svg PUBLIC "-//W3C//DTD SVG 1.1//EN" "http://www.w3.org/Graphics/SVG/1.1/DTD/svg11.dtd">
<svg version="1.1" id="Capa_1" xmlns="http://www.w3.org/2000/svg" xmlns:xlink="http://www.w3.org/1999/xlink" x="0px" y="0px"
	 width="100px" height="100px" viewBox="0 0 100 100" style="enable-background:new 0 0 100 100;" xml:space="preserve">
<g>
	<path style="fill:#1D1D1B;" d="M27.543,86.903c7.174,3.82,14.816,5.757,22.714,5.757c0.001,0,0.001,0,0.002,0
		c13.226,0,25.747-5.463,35.254-15.381c14.641-15.273,14.49-39.123-0.344-54.297C74.878,12.455,62.606,7.719,48.625,8.885
		c-0.258-0.06-0.517-0.089-0.818-0.089c-0.003,0-0.006,0-0.008,0c-20.02,0.425-36.17,12.878-41.145,31.726
		C1.85,58.725,10.439,77.797,27.543,86.903z M12.134,47.827c1.199-17.458,15.404-31.013,33.81-32.296
		c0.475,0.141,0.953,0.182,1.469,0.112c1.709-0.236,3.468-0.355,5.226-0.355c12.091,0,23.684,5.505,30.254,14.368
		c4.155,5.604,8.236,15.157,4.08,28.838C81.945,75.042,67.299,85.735,49.66,85.735c-2.122,0-4.271-0.164-6.388-0.488
		C23.944,82.289,10.849,66.552,12.134,47.827z"/>
	<path style="fill:#1D1D1B;" d="M35.928,60.762c0.127,1.693,1.387,2.611,2.638,2.804c10.565,4.969,22.292,6.134,32.464,6.836
		c0.075,0.005,0.149,0.008,0.221,0.008c0.298,0,0.587-0.042,0.862-0.126c1.518-0.223,2.474-1.429,2.335-2.969
		c-0.825-9.152-3.603-18.553-9.008-30.479c-0.269-0.594-0.682-1.052-1.199-1.332c-0.294-0.228-0.633-0.4-1.008-0.513
		c-3.181-0.959-6.518-1.755-9.744-2.524c-6.768-1.613-13.767-3.282-19.815-6.571c-0.464-0.252-0.949-0.38-1.439-0.38
		c-1.247,0-2.406,0.875-2.841,2.136c-0.284,0.629-0.307,1.334-0.067,2.043C33.017,40.61,35.176,50.773,35.928,60.762z
		 M54.917,47.975c0.946,1.772,0.427,3.876-1.263,5.118c-1.525,1.121-3.606,0.965-4.789-0.392c-1.209-1.388-0.9-3.245,0.043-4.444
		c0.135-0.113,0.257-0.242,0.366-0.386c0.735-0.97,1.945-1.597,3.083-1.597C53.454,46.274,54.315,46.846,54.917,47.975z
		 M47.481,57.562c1.16,0.644,2.489,0.998,3.894,0.998c0.817,0,1.632-0.122,2.421-0.362c3.941-1.203,6.53-4.813,6.442-8.985
		c-0.023-1.078-0.266-2.095-0.681-3.017c0.899-0.696,1.733-1.395,2.52-2.105c2.992,7.213,4.955,13.83,5.95,20.083
		c-7.73-0.616-15.754-1.655-23.177-4.446C45.729,58.935,46.601,58.217,47.481,57.562z M55.05,42.099
		c-0.766-0.262-1.584-0.415-2.441-0.424l-0.124,0c-2.664,0-4.869,0.972-6.557,2.89c-0.051,0.045-0.101,0.092-0.149,0.142
		c-2.16,2.253-2.86,5.353-2.009,8.171c-0.845,0.639-1.661,1.3-2.446,1.98c-0.851-6.839-2.302-13.812-4.343-20.808
		c4.69,1.839,9.74,3.015,14.645,4.156c2.083,0.485,4.211,0.983,6.299,1.529C56.994,40.576,56.04,41.378,55.05,42.099z"/>
</g>
</svg>
