<?xml version="1.0" encoding="utf-8"?>
<!-- Generator: Adobe Illustrator 17.0.2, SVG Export Plug-In . SVG Version: 6.00 Build 0)  -->
<!DOCTYPE svg PUBLIC "-//W3C//DTD SVG 1.1//EN" "http://www.w3.org/Graphics/SVG/1.1/DTD/svg11.dtd">
<svg version="1.1" id="Capa_1" xmlns="http://www.w3.org/2000/svg" xmlns:xlink="http://www.w3.org/1999/xlink" x="0px" y="0px"
	 width="100px" height="100px" viewBox="0 0 100 100" enable-background="new 0 0 100 100" xml:space="preserve">
<g>
	<path fill="#1D1D1B" d="M79.597,19.274l0.009-0.185c0.035-0.768-0.217-1.513-0.675-1.994c-0.403-0.422-0.94-0.636-1.596-0.636
		H66.306l-0.005-0.495c-0.007-0.664-0.012-1.328-0.013-1.994c0-0.224-0.029-0.444-0.092-0.693l-0.019-0.073l0.004-0.075
		c0.038-0.769-0.212-1.516-0.671-1.999c-0.403-0.424-0.941-0.639-1.599-0.639c-2.084,0-4.168-0.009-6.251-0.018l-0.489-0.002
		l-0.009-0.489c-0.04-2.159-0.18-3.965-0.439-5.684c-0.166-1.094-1.32-1.748-2.342-1.748l-0.141,0.001l-0.12-0.013l-9.744-0.005
		c-0.723,0-1.319,0.271-1.726,0.785c-0.489,0.62-0.668,1.537-0.465,2.394l0.035,0.148l-0.054,0.143
		c-0.11,0.295-0.167,0.591-0.167,0.879v3.368l-0.516-0.016c-2.12-0.065-4.24-0.139-6.36-0.242l-0.104-0.002
		c-0.201,0-0.401,0.028-0.628,0.088l-0.066,0.018l-0.068-0.001h-0.001c-1.185,0-2.427,0.747-2.443,2.387
		c-0.009,0.842-0.042,1.681-0.093,2.517l-0.028,0.469l-0.47,0.001c-3.643,0.01-7.54,0.077-11.361,0.49
		c-0.127,0.014-0.242,0.046-0.357,0.076l-0.163,0.025c-1.195,0-2.389,0.737-2.389,2.385v9.45c0,0.531,0.133,0.999,0.394,1.389
		l0.085,0.126v0.152c-0.003,21.229-0.077,40.4-0.959,60.025c-0.011,0.238,0.014,0.476,0.077,0.746l0.023,0.101l-0.019,0.102
		c-0.118,0.655-0.013,1.254,0.298,1.687c0.28,0.392,0.72,0.634,1.306,0.722c19.212,2.849,38.166,3.082,59.177,3.084
		c1.519,0,2.016-1.156,2.159-1.653l0.032-0.111l0.078-0.086c0.389-0.428,0.586-0.976,0.586-1.628V20.933
		c0-0.595-0.161-1.104-0.48-1.513L79.597,19.274z M46.754,7.501h5.593l0.023,0.475c0.033,0.648,0.052,1.296,0.056,1.945l0.003,0.508
		l-1.747-0.018c-1.146-0.011-2.292-0.022-3.437-0.042l-0.491-0.009V7.501z M35.793,25.63c0.178-1.348,0.348-4.611,0.483-7.233
		c0.062-1.207,0.117-2.261,0.161-2.899l0.034-0.486l0.486,0.021c8.294,0.356,16.48,0.414,24.092,0.422l0.494,0l0.005,0.494
		c0.057,5.344,0.161,9.073,0.297,10.5l0.054,0.57l-0.572-0.023c-4.354-0.178-8.784-0.302-13.068-0.421
		c-3.997-0.112-7.993-0.224-11.989-0.379l-0.548-0.021L35.793,25.63z M75.438,91.058h-0.5c-18.861-0.012-35.885-0.215-53.217-2.596
		l-0.45-0.062l0.019-0.455c0.826-19.344,0.895-38.64,0.896-60.05c0-0.531-0.133-1-0.396-1.392l-0.084-0.126v-5.624l0.463-0.034
		c3.086-0.228,6.133-0.269,8.442-0.28l0.569-0.002l-0.071,0.567c-0.022,0.176-0.05,1.495-0.071,2.555
		c-0.036,1.738-0.056,2.58-0.085,2.787c-0.063,0.461-0.046,0.916,0.052,1.349l0.021,0.099l-0.018,0.1
		c-0.15,0.825,0.056,1.712,0.537,2.316c0.41,0.516,1.001,0.806,1.708,0.838c5.027,0.23,10.144,0.366,15.091,0.497
		c4.953,0.131,10.074,0.267,15.11,0.498l0.131,0.003c0.715,0,1.18-0.272,1.491-0.612c0.429-0.177,0.8-0.492,1.018-0.915
		c0.021-0.042,0.04-0.085,0.059-0.129c0.042-0.101,0.083-0.203,0.107-0.313c0.045-0.203,0.068-0.408,0.101-0.612
		c0.312-0.414,0.47-0.881,0.411-1.336c-0.047-0.37-0.083-1.739-0.128-3.634c-0.028-1.158-0.055-2.251-0.078-2.525l-0.047-0.543
		h8.919V91.058z"/>
	<path fill="#1D1D1B" d="M64.797,40.201c-0.224,0.106-0.414,0.239-0.583,0.407c-8.892,8.887-16.466,16.273-24.412,23.322
		l-4.047-4.913c-0.471-0.572-1.003-0.692-1.366-0.692c-0.411,0-0.829,0.157-1.183,0.443l-0.063,0.035
		c-2.276,1.464-4.401,2.69-6.499,3.749c-0.631,0.319-1.004,0.869-1.038,1.52c-0.276,0.723-0.099,1.478,0.486,2.038
		c1.878,1.796,3.627,3.785,5.318,5.709c1.857,2.111,3.777,4.295,5.888,6.25c0.08,0.074,0.162,0.139,0.245,0.196
		c0.358,0.459,0.856,0.72,1.38,0.72c0.381,0,0.75-0.133,1.097-0.395c5.896-4.449,11.144-9.459,15.058-13.327
		c1.132-1.118,2.268-2.234,3.404-3.352c4.061-3.989,8.26-8.115,12.234-12.305c0.235-0.249,0.398-0.536,0.486-0.854
		c0.38-0.616,0.356-1.33-0.071-1.974c-1.363-2.053-2.551-3.978-3.631-5.884c-0.356-0.63-0.954-0.991-1.638-0.991
		C65.479,39.904,65.095,40.015,64.797,40.201z M58.164,56.541c-1.556,1.533-3.109,3.065-4.65,4.607
		c-4.357,4.361-9.113,8.958-14.398,13.087c-1.688-1.664-3.283-3.472-4.827-5.224c-1.178-1.335-2.391-2.711-3.648-4.026
		c1.062-0.587,2.138-1.219,3.264-1.915l4.229,5.136c0.472,0.572,1.005,0.692,1.369,0.692c0.452,0,0.901-0.185,1.272-0.52
		c0.121-0.07,0.23-0.149,0.334-0.241C49.6,60.699,57.766,52.713,65.342,45.16c0.48,0.792,1.004,1.622,1.61,2.558
		C64.078,50.71,61.073,53.673,58.164,56.541z"/>
</g>
</svg>
