<?xml version="1.0" encoding="iso-8859-1"?>
<!-- Generator: Adobe Illustrator 17.0.2, SVG Export Plug-In . SVG Version: 6.00 Build 0)  -->
<!DOCTYPE svg PUBLIC "-//W3C//DTD SVG 1.1//EN" "http://www.w3.org/Graphics/SVG/1.1/DTD/svg11.dtd">
<svg version="1.1" id="Capa_1" xmlns="http://www.w3.org/2000/svg" xmlns:xlink="http://www.w3.org/1999/xlink" x="0px" y="0px"
	 width="100px" height="100px" viewBox="0 0 100 100" style="enable-background:new 0 0 100 100;" xml:space="preserve">
<g>
	<path style="fill:#1D1D1B;" d="M90.262,61.341c-6.936-5.011-14.253-9.26-22.026-12.765c-1.627-4.701-3.142-9.448-4.807-14.044
		c-3.427-9.461-6.752-18.957-9.852-28.531c-0.573-1.772-2.436-2.069-3.708-1.411c-0.586,0.256-1.072,0.761-1.28,1.578
		c-3.574,13.996-9.457,27.006-15.466,40.002c-0.191,0.074-0.373,0.166-0.539,0.282c-0.353,0.031-0.722,0.15-1.096,0.388
		c-7.569,4.814-15.534,8.895-23.5,13c-0.471,0.242-0.783,0.565-0.985,0.922c-0.667,0.691-0.907,1.706-0.162,2.748
		c10.042,14.038,25.59,23.57,41.994,28.399c0.197,0.058,0.386,0.092,0.567,0.106c0.43,0.143,0.938,0.133,1.512-0.106
		c14.86-6.203,31.407-12.539,40.244-26.899c0.542-0.88,0.464-1.733,0.059-2.4C91.059,62.139,90.752,61.696,90.262,61.341z
		 M51.274,14.949c1.248,3.701,2.527,7.392,3.825,11.076c-0.088,0.022-0.172,0.032-0.264,0.064c-2.545,0.894-5.109,1.021-7.579,0.147
		C48.711,22.522,50.068,18.767,51.274,14.949z M41.386,40.072c6.212,1.576,12.422,1.554,18.339-1.095
		c0.65,1.832,1.282,3.68,1.913,5.534c-0.241,0.068-0.485,0.165-0.733,0.33c-6.529,4.344-15.021,3.686-21.976,0.626
		C39.754,43.671,40.576,41.874,41.386,40.072z M33.014,58.329c1.059,0.319,2.133,0.613,3.212,0.891
		c9.843,3.865,20.306,3.625,30.035-1.394c0.04-0.021,0.068-0.047,0.105-0.068c0.756,1.932,1.544,3.848,2.404,5.723
		c-10.615,4.833-28.487,6.817-37.602-1.074C31.776,61.043,32.396,59.687,33.014,58.329z M49.834,86.986
		C35.69,82.761,21.921,74.747,12.701,63.027c5.69-2.936,11.36-5.898,16.869-9.156c-1.148,2.502-2.285,5.011-3.395,7.533
		c-0.081,0.183-0.139,0.364-0.178,0.543c-0.438,0.851-0.438,1.921,0.402,2.82c10.81,11.577,34.212,8.868,46.863,2.058
		c1.324-0.713,1.473-2.028,0.977-3.078c-0.036-0.275-0.106-0.555-0.246-0.842c-1.223-2.495-2.312-5.076-3.332-7.698
		c5.219,2.627,10.217,5.66,15.021,9.003C77.397,76.035,62.713,81.618,49.834,86.986z"/>
</g>
</svg>
