<?xml version="1.0" encoding="iso-8859-1"?>
<!-- Generator: Adobe Illustrator 17.0.2, SVG Export Plug-In . SVG Version: 6.00 Build 0)  -->
<!DOCTYPE svg PUBLIC "-//W3C//DTD SVG 1.1//EN" "http://www.w3.org/Graphics/SVG/1.1/DTD/svg11.dtd">
<svg version="1.1" id="Capa_1" xmlns="http://www.w3.org/2000/svg" xmlns:xlink="http://www.w3.org/1999/xlink" x="0px" y="0px"
	 width="100px" height="100px" viewBox="0 0 100 100" style="enable-background:new 0 0 100 100;" xml:space="preserve">
<g>
	<path style="fill:#1D1D1B;" d="M62.919,49.833c-0.675,0.861-1.355,1.717-2.033,2.576c5.255,4.496,9.39,8.093,10.824,9.482
		c1.521,1.473,3.625-1.044,2.115-2.507C72.391,57.995,68.217,54.365,62.919,49.833z"/>
	<path style="fill:#1D1D1B;" d="M76.786,70.285c-2.769-2.42-9.721-8.498-17.776-15.513c-0.683,0.854-1.375,1.701-2.066,2.548
		c8.032,6.996,14.959,13.052,17.728,15.472C76.265,74.185,78.377,71.675,76.786,70.285z"/>
	<path style="fill:#1D1D1B;" d="M52.759,62.322c5.846,4.917,10.554,8.894,12.306,10.413c1.599,1.387,3.711-1.122,2.115-2.507
		c-1.75-1.517-6.458-5.494-12.303-10.411C54.175,60.655,53.474,61.494,52.759,62.322z"/>
	<path style="fill:#1D1D1B;" d="M10.795,33.574c-0.102,0.121-0.177,0.246-0.237,0.371c-0.503,0.628-0.615,1.575,0.169,2.254
		c3.17,2.743,9.69,8.187,17.375,14.571c0.785-0.776,1.57-1.551,2.348-2.332c-7.294-6.06-13.429-11.176-16.359-13.682
		c0.798-0.945,1.601-1.884,2.404-2.824c2.19,1.828,8.836,7.386,16.567,13.863c0.767-0.784,1.522-1.577,2.282-2.367
		c-7.792-6.528-14.509-12.145-16.71-13.982c0.836-0.967,1.671-1.935,2.517-2.893c2.729,2.19,9.184,7.708,16.74,14.233
		c0.75-0.796,1.479-1.61,2.221-2.413c-7.575-6.542-14.049-12.078-16.775-14.269c0.577-0.639,1.151-1.28,1.735-1.913
		c2.063,1.724,8.969,7.507,16.881,14.173c0.736-0.809,1.486-1.607,2.214-2.424c-7.903-6.659-14.802-12.437-16.85-14.147
		c0.656-0.688,1.316-1.37,1.983-2.048c3.122,2.422,9.454,7.635,16.909,13.838c0.719-0.824,1.439-1.649,2.15-2.481
		c-7.541-6.275-13.962-11.557-17.226-14.083c-0.254-1.083-1.854-1.878-2.927-0.815c-0.179,0.177-0.353,0.359-0.531,0.536
		c-0.021-0.016-0.036-0.034-0.058-0.05c-2.174-1.514-4.211-3.195-6.235-4.902c-0.128-0.108-0.259-0.184-0.391-0.245
		c-0.629-0.513-1.611-0.654-2.338,0.089C13.922,14.467,9.568,19.6,5.613,25.091c-0.1,0.139-0.167,0.281-0.221,0.424
		c-0.354,0.62-0.386,1.452,0.241,2.096c1.816,1.868,3.656,3.71,5.615,5.428C11.097,33.218,10.946,33.395,10.795,33.574z
		 M8.852,26.229c3.439-4.68,7.162-9.106,11.174-13.302c1.734,1.45,3.488,2.869,5.34,4.169c-4.165,4.331-8.106,8.863-11.997,13.442
		C11.803,29.164,10.312,27.712,8.852,26.229z"/>
	<path style="fill:#1D1D1B;" d="M92.495,66.066c-0.078-0.101-0.171-0.2-0.283-0.292c-4.3-3.524-14.366-11.99-25.237-21.109
		c-0.677,0.86-1.355,1.719-2.03,2.581c10.413,8.734,19.957,16.76,23.957,20.049c-4.51,6.247-9.703,11.887-15.599,16.85
		c-3.767-3.243-12.861-10.814-22.911-19.159c-0.732,0.815-1.468,1.626-2.218,2.425c10.28,8.526,19.597,16.275,23.596,19.736
		c0.128,0.111,0.259,0.188,0.391,0.252c0.261,0.328,0.623,0.552,1.023,0.591c0.195,0.154,0.437,0.272,0.741,0.324
		c6.498,1.111,13.014,2.046,19.601,2.409c1.05,0.058,1.72-0.734,1.856-1.549c0.027-0.125,0.043-0.257,0.042-0.398
		c-0.057-7.398-0.934-14.703-2.497-21.93C92.849,66.497,92.693,66.245,92.495,66.066z M76.792,85.46
		c5.037-4.42,9.589-9.308,13.611-14.673c0.543,2.908,0.943,5.837,1.227,8.778c-0.124,0.068-0.245,0.149-0.36,0.255
		c-2.298,2.128-4.416,4.418-6.447,6.8C82.14,86.289,79.464,85.897,76.792,85.46z M88.79,87.056c1.022-1.148,2.072-2.268,3.158-3.355
		c0.069,1.213,0.127,2.427,0.156,3.642C90.997,87.263,89.893,87.163,88.79,87.056z"/>
	<path style="fill:#1D1D1B;" d="M49.823,59.854c0.66-0.876,1.322-1.748,1.982-2.619c0.668-0.881,1.347-1.753,2.033-2.619
		c0.678-0.856,1.375-1.698,2.086-2.53c0.4-0.467,0.79-0.94,1.205-1.397c0.253-0.28,0.508-0.557,0.761-0.837
		c0.736-0.809,1.472-1.618,2.209-2.426c0.73-0.802,1.455-1.608,2.182-2.412c0.734-0.812,1.464-1.628,2.19-2.447
		c1.665-1.877,3.297-3.784,4.888-5.731c0.313-0.383,0.637-0.755,0.946-1.142c6.131,2.046,13.73,2.132,18.138-3.403
		c4.42-5.55,4.02-12.66,1.505-18.946c-0.018-0.054-0.036-0.108-0.061-0.157c-0.025-0.061-0.046-0.123-0.072-0.183
		c-0.678-1.637-3.112-0.763-2.809,0.799c-1.127,3.898-3.499,7.653-7.618,8.795c-3.04,0.842-6.625,0.239-9.279-1.463
		c-2.085-1.337-4.591-3.666-4.229-6.432c0.527-4.021,5.123-5.986,8.453-7.201c0.447-0.163,0.71-0.457,0.827-0.796
		c1.243-0.541,1.344-2.682-0.274-2.776C68.176,3.538,61.032,4.85,56.05,9.684c-4.263,4.136-4.386,9.812-2.425,14.949
		c0.165,0.432,0.339,0.861,0.532,1.284c0.224,0.491-2.705,4.105-3.097,4.678c-0.109,0.16-0.227,0.314-0.336,0.473
		c-0.623,0.904-1.268,1.792-1.908,2.683c-0.421,0.585-0.825,1.182-1.253,1.762c-0.195,0.264-0.404,0.518-0.6,0.781
		c-0.656,0.876-1.326,1.742-2.001,2.603c-0.57,0.729-1.145,1.453-1.729,2.171c-0.689,0.848-1.39,1.687-2.099,2.519
		c-0.292,0.343-0.569,0.698-0.865,1.038c-0.491,0.565-0.993,1.12-1.492,1.678c-0.73,0.815-1.468,1.624-2.213,2.425
		c-0.347,0.373-0.689,0.75-1.039,1.119c-0.496,0.524-1.01,1.031-1.512,1.549c-0.761,0.785-1.515,1.577-2.291,2.347
		c-0.004,0.004-0.012,0.013-0.017,0.017c-0.498,0.504-3.323,3.813-3.829,3.686c-0.032-0.008-0.064-0.014-0.097-0.022
		c-5.788-1.433-11.973-0.514-15.53,4.81c-3.855,5.772-3.858,13.035-2.263,19.565c0.385,1.574,2.472,1.089,2.78-0.231
		c0.312-0.175,0.554-0.487,0.633-0.957C13.996,77.119,15.1,72.244,18.96,71c2.655-0.855,5.398,1.189,7.089,2.999
		c2.153,2.304,3.393,5.722,3.112,8.863c-0.38,4.258-3.646,7.268-7.277,9.08c-1.59-0.016-2.012,2.536-0.279,2.907
		c0.064,0.014,0.129,0.024,0.193,0.037c0.053,0.016,0.108,0.024,0.165,0.032c6.637,1.34,13.703,0.451,18.365-4.897
		c4.019-4.611,3.473-10.809,1.238-16.062c-0.351-0.823-0.739-1.626-1.161-2.393c-0.156-0.283,3.918-4.662,4.328-5.169
		c0.296-0.366,0.578-0.745,0.872-1.113c0.683-0.857,1.355-1.721,2.025-2.588c0.439-0.567,0.893-1.123,1.326-1.694
		C49.248,60.62,49.535,60.237,49.823,59.854z M43.351,63.415c-1.162,1.459-2.346,2.899-3.549,4.324
		c-0.689,0.816-1.365,1.644-2.069,2.447c-0.409,0.466-0.444,0.987-0.267,1.429c-0.058,0.316-0.016,0.662,0.187,1.009
		c0.043,0.074,0.082,0.149,0.124,0.223c0.312,0.548,0.606,1.105,0.873,1.674c2.071,4.414,2.637,9.37-0.516,13.556
		c-2.748,3.648-7.336,4.667-11.729,4.456c2.936-2.212,5.136-5.176,5.629-9.066c0.544-4.3-1.233-8.49-4.04-11.665
		c-2.474-2.8-6.265-4.553-9.984-3.578c-3.093,0.811-4.954,3.52-6.095,6.501c-0.086-3.315,0.488-6.609,2.014-9.654
		c2.776-5.541,8.698-6.109,14.067-4.566c0.47,0.135,0.852,0.036,1.137-0.183c0.115-0.088,0.217-0.19,0.298-0.313
		c0.954-1.448,2.88-2.716,4.123-3.947c0.141-0.14,0.275-0.286,0.416-0.426c0.78-0.778,1.542-1.572,2.307-2.364
		c0.478-0.495,0.969-0.976,1.441-1.476c0.37-0.391,0.723-0.797,1.089-1.191c0.744-0.802,1.487-1.607,2.215-2.424
		c0.787-0.883,1.553-1.785,2.32-2.686c0.612-0.719,1.238-1.427,1.836-2.159c0.094-0.115,0.183-0.233,0.276-0.348
		c0.592-0.727,1.168-1.467,1.747-2.204c0.676-0.861,1.344-1.727,2.003-2.602c0.634-0.842,1.268-1.684,1.886-2.538
		c0.644-0.89,1.268-1.793,1.893-2.695c0.67-0.966,1.332-1.936,1.982-2.915c0.673-1.014,1.347-2.026,1.997-3.053
		c0.37-0.354,0.534-0.887,0.229-1.501c-2.486-5.002-2.995-10.929,1.955-14.659c2.72-2.05,5.857-3.208,9.133-3.722
		c-2.726,1.66-5.055,3.979-5.295,7.167c-0.289,3.834,2.119,7.246,5.319,9.175c3.63,2.188,8.071,3.181,12.202,1.87
		c3.737-1.186,6.256-3.884,7.902-7.171c1,4.283,0.825,8.98-2.268,12.34c-4.067,4.419-10.012,4.217-15.286,2.314
		c-0.378-0.137-0.726-0.116-1.026-0.002c-0.466-0.094-0.972,0.034-1.357,0.52c-0.55,0.694-1.129,1.357-1.693,2.037
		c-1.496,1.801-3.025,3.568-4.588,5.301c-0.733,0.813-1.464,1.628-2.204,2.435c-0.728,0.793-1.455,1.587-2.185,2.38
		c-0.74,0.804-1.472,1.618-2.208,2.427c-0.66,0.725-1.325,1.445-1.979,2.179c-0.004,0.005-0.009,0.01-0.014,0.015
		c-0.726,0.814-1.415,1.653-2.083,2.506c-0.694,0.885-1.366,1.785-2.028,2.693c-0.646,0.885-1.284,1.776-1.929,2.663
		c-0.649,0.893-1.304,1.783-1.98,2.66c-0.06,0.078-0.123,0.153-0.183,0.231C44.723,61.707,44.033,62.558,43.351,63.415z"/>
</g>
</svg>
