<?xml version="1.0" encoding="iso-8859-1"?>
<!-- Generator: Adobe Illustrator 17.0.2, SVG Export Plug-In . SVG Version: 6.00 Build 0)  -->
<!DOCTYPE svg PUBLIC "-//W3C//DTD SVG 1.1//EN" "http://www.w3.org/Graphics/SVG/1.1/DTD/svg11.dtd">
<svg version="1.1" id="Capa_1" xmlns="http://www.w3.org/2000/svg" xmlns:xlink="http://www.w3.org/1999/xlink" x="0px" y="0px"
	 width="100px" height="100px" viewBox="0 0 100 100" style="enable-background:new 0 0 100 100;" xml:space="preserve">
<g>
	<path style="fill:#1D1D1B;" d="M76.638,64.989c-0.122-7.872-7.587-12.04-14.368-11.854c-0.18-0.027-0.378-0.035-0.579-0.015
		c-0.432,0.043-0.855,0.104-1.245,0.175c-0.606,0.09-1.183,0.212-1.707,0.359c-0.153,0.042-0.3,0.099-0.446,0.173
		c-4.994,1.625-8.137,5.47-8.627,10.562c-0.264,2.746,0.536,5.327,2.312,7.466c2.34,2.816,6.224,4.718,10.387,5.086
		c0.382,0.034,0.765,0.051,1.148,0.051c0,0,0,0,0,0c3.653,0,7.336-1.527,9.855-4.084C75.552,70.689,76.683,67.951,76.638,64.989z
		 M71.924,65.85c0.021,1.366-0.469,2.568-1.456,3.57c-1.643,1.668-4.683,2.746-7.747,2.746c-0.592,0-1.154-0.043-1.669-0.127
		c-4.475-0.729-6.238-3.748-6.396-6.33c-0.171-2.808,1.482-6.365,5.494-7.534c0.886-0.233,1.805-0.352,2.732-0.352
		C67.315,57.823,71.844,60.58,71.924,65.85z"/>
	<path style="fill:#1D1D1B;" d="M94.78,57.444c-0.015-0.23-0.061-0.456-0.139-0.685c-0.018-1.073-0.613-1.957-1.575-2.355
		c-0.13-0.096-0.27-0.177-0.417-0.24c-1.785-0.774-3.503-1.616-5.373-2.55c0.335-1.634,0.668-3.268,0.996-4.904
		c0.031-0.157,0.044-0.318,0.039-0.49c0.053-0.598-0.154-1.17-0.59-1.622c-2.626-2.727-5.516-5.036-8.589-6.864
		c-0.421-0.25-0.881-0.346-1.347-0.284h-0.009c-0.355,0-0.7,0.089-1.025,0.266c-0.608,0.332-1.212,0.669-1.814,1.013
		c-0.687-1.391-1.385-2.841-2.014-4.29c-0.063-0.146-0.145-0.287-0.241-0.418c-0.399-0.963-1.284-1.558-2.358-1.575
		c-0.227-0.077-0.452-0.122-0.682-0.138c-1.751-0.113-3.5-0.255-5.248-0.396c-2.914-0.235-5.928-0.478-8.913-0.585l-0.107-0.002
		c-1.062,0-1.936,0.577-2.33,1.523c-0.152,0.18-0.275,0.374-0.374,0.588l-0.328,0.705c-0.58,1.245-1.176,2.524-1.72,3.827
		c-1.929-0.562-3.919-1.199-6.056-1.938c-1.017-0.352-2.062,0.118-2.494,1.071c-0.018,0.021-0.035,0.044-0.051,0.068
		c-2.088,2.967-4.404,5.622-6.395,7.828c-0.599,0.665-0.726,1.549-0.347,2.342c0.034,0.129,0.077,0.25,0.132,0.369
		c0.558,1.199,1.127,2.479,1.73,3.89c-1.372,0.563-2.715,1.189-4.022,1.8l-0.768,0.357c-0.215,0.1-0.409,0.223-0.587,0.373
		c-0.984,0.41-1.562,1.324-1.521,2.438c0.107,2.982,0.35,5.994,0.585,8.907c0.141,1.75,0.282,3.5,0.396,5.253
		c0.015,0.231,0.061,0.458,0.139,0.685c0.018,1.074,0.614,1.958,1.576,2.356c0.132,0.097,0.271,0.177,0.417,0.24
		c1.651,0.717,3.285,1.511,4.941,2.334c-0.167,0.527-0.332,1.054-0.497,1.581c-0.423,1.352-0.847,2.703-1.29,4.047
		c-0.27,0.815-0.045,1.636,0.584,2.168l0.119,0.12c2.588,2.284,5.34,4.242,8.178,5.817c0.124,0.069,0.256,0.127,0.393,0.172
		c0.445,0.178,0.945,0.183,1.423,0.011c1.109-0.393,2.215-0.793,3.322-1.193l0.298-0.107c0.793,1.598,1.559,3.176,2.253,4.776
		c0.063,0.146,0.145,0.286,0.241,0.418c0.398,0.962,1.282,1.557,2.355,1.575c0.228,0.077,0.453,0.122,0.685,0.138
		c1.75,0.113,3.498,0.255,5.246,0.396c2.915,0.235,5.929,0.479,8.914,0.585l0.11,0.002c1.062,0,1.934-0.577,2.328-1.522
		c0.151-0.179,0.274-0.374,0.375-0.589l0.338-0.727c0.544-1.168,1.104-2.369,1.619-3.588c1.811,0.659,3.559,1.115,5.321,1.39
		c0.117,0.018,0.23,0.025,0.34,0.025c0.191,0,0.382-0.025,0.567-0.074c0.297-0.059,0.578-0.186,0.835-0.378
		c2.65-1.977,5.989-4.724,8.306-8.454c0.26-0.419,0.366-0.88,0.308-1.341c0.003-0.371-0.097-0.741-0.292-1.079
		c-0.775-1.339-1.381-2.631-1.841-3.926c1.377-0.564,2.727-1.193,4.039-1.805l0.777-0.361c0.214-0.1,0.408-0.223,0.587-0.374
		c0.985-0.409,1.562-1.324,1.522-2.439c-0.107-2.981-0.35-5.992-0.584-8.904C95.035,60.949,94.894,59.198,94.78,57.444z
		 M68.989,91.408c-2.456-0.123-4.941-0.32-7.351-0.512c-1.373-0.108-2.745-0.217-4.118-0.313c-0.789-1.768-1.647-3.501-2.528-5.264
		c-0.132-0.266-0.305-0.505-0.515-0.713c-0.517-0.701-1.407-0.974-2.269-0.667c-1.047,0.371-2.092,0.75-3.137,1.128
		c-0.785,0.285-1.571,0.569-2.357,0.851C44.718,84.751,42.8,83.4,41,81.896c0.279-0.872,0.552-1.745,0.824-2.618
		c0.416-1.329,0.831-2.658,1.268-3.981c0.113-0.343,0.139-0.686,0.079-1.02c-0.001-0.931-0.516-1.738-1.401-2.182
		c-1.77-0.884-3.508-1.744-5.266-2.528c-0.097-1.381-0.206-2.761-0.315-4.141c-0.19-2.403-0.387-4.881-0.51-7.329l0.181-0.084
		c1.394-0.654,2.835-1.331,4.288-1.862c0.766-0.281,1.334-0.79,1.642-1.472c0.442-0.978,0.347-2.248-0.29-3.884
		c-0.087-0.223-0.283-0.584-0.652-1.255c-0.334-0.609-1.051-1.913-1.302-2.551c2.106-2.374,3.807-4.455,5.292-6.478
		c0.854,0.253,2.52,0.834,3.323,1.114c0.581,0.202,1.026,0.356,1.164,0.396c0.237,0.069,0.509,0.178,0.798,0.291
		c0.777,0.305,1.658,0.649,2.529,0.649c1.148,0,2.005-0.615,2.415-1.732c0.529-1.444,1.202-2.879,1.853-4.267l0.094-0.201
		c2.446,0.123,4.921,0.319,7.322,0.51c1.382,0.109,2.764,0.219,4.147,0.315c0.789,1.769,1.646,3.502,2.528,5.267
		c0.446,0.893,1.242,1.404,2.183,1.404c0.504,0,1.011-0.15,1.384-0.389l0.187-0.1c1.038-0.653,2.117-1.264,3.095-1.804
		c2.118,1.351,4.15,2.979,6.052,4.851c-0.42,2.1-0.842,4.197-1.281,6.292c-0.137,0.656,0.019,1.299,0.428,1.795
		c0.234,0.501,0.637,0.903,1.174,1.172c1.765,0.882,3.499,1.74,5.267,2.528c0.097,1.383,0.206,2.764,0.315,4.145
		c0.19,2.401,0.386,4.878,0.51,7.325l-0.181,0.084c-1.394,0.654-2.835,1.331-4.288,1.863c-0.842,0.309-1.451,0.961-1.689,1.8
		c-0.204,0.424-0.257,0.895-0.155,1.371c0.453,2.117,1.243,4.222,2.41,6.416c-1.396,1.984-3.253,3.82-5.916,5.854
		c-1.664-0.33-3.334-0.839-4.975-1.516c-0.506-0.507-1.237-0.803-2.009-0.803c-1.188,0-2.178,0.688-2.584,1.797
		c-0.532,1.452-1.209,2.895-1.864,4.289L68.989,91.408z M70.63,95.847l0-0.01c0,0,0,0,0,0V95.847z"/>
	<path style="fill:#1D1D1B;" d="M23.574,17.23c-1.507,0-3.025,0.352-4.396,1.017c-0.133,0.04-0.256,0.095-0.376,0.164
		c-0.234,0.136-0.459,0.281-0.652,0.415c-0.318,0.205-0.617,0.425-0.883,0.648c-0.084,0.07-0.163,0.148-0.237,0.238
		c-2.435,2.244-3.229,5.276-2.178,8.334c0.979,2.848,3.631,4.547,7.093,4.548h0c1.178,0,2.385-0.207,3.491-0.597
		c2.28-0.805,4.197-2.619,5.129-4.856c0.806-1.936,0.782-3.99-0.067-5.784C29.257,18.734,26.732,17.23,23.574,17.23z M18.436,26.748
		c-0.593-1.598-0.1-3.384,1.237-4.534c1.054-0.861,2.415-1.355,3.734-1.355c1.798,0,3.259,0.905,4.007,2.483
		c0.347,0.731,0.337,1.473-0.028,2.267c-0.735,1.598-2.673,2.879-4.124,3.273C21.032,29.488,19.13,28.617,18.436,26.748z"/>
	<path style="fill:#1D1D1B;" d="M36.129,38.746c0.037-0.15,0.057-0.305,0.058-0.46l0.004-0.479c0.006-0.658,0.012-1.33,0-2.007
		c1.039-0.102,2.014-0.281,2.958-0.546c0.229-0.064,0.437-0.172,0.619-0.32c0.193-0.141,0.351-0.322,0.469-0.538
		c0.975-1.773,2.139-4.152,2.486-6.837c0.049-0.377-0.023-0.736-0.208-1.047c-0.12-0.259-0.308-0.483-0.55-0.656
		c-0.623-0.443-1.172-0.897-1.664-1.375c0.526-0.573,1.028-1.161,1.519-1.734l0.327-0.383c0.101-0.118,0.187-0.246,0.257-0.383
		c0.511-0.584,0.612-1.392,0.249-2.117c-0.805-1.613-1.689-3.204-2.545-4.742c-0.512-0.921-1.025-1.843-1.523-2.773
		c-0.073-0.135-0.16-0.26-0.265-0.378c-0.342-0.672-0.981-1.069-1.727-1.069c-0.007,0-0.015,0-0.022,0
		c-0.102-0.018-0.229-0.01-0.328-0.026c-1.073,0.021-2.137-0.009-3.247-0.045c-0.201-0.879-0.403-1.757-0.608-2.634
		c-0.027-0.116-0.067-0.23-0.122-0.345c-0.161-0.435-0.502-0.78-0.948-0.956c-2.148-0.852-4.339-1.403-6.513-1.643l-0.192-0.011
		c-0.304,0-0.594,0.081-0.847,0.235c-0.246,0.115-0.461,0.292-0.63,0.516c-0.167,0.222-0.332,0.445-0.496,0.669
		c-0.614-0.505-1.236-1.03-1.831-1.567c-0.081-0.072-0.168-0.137-0.264-0.193c-0.547-0.488-1.32-0.621-2.019-0.343
		c-0.156,0.021-0.305,0.058-0.451,0.113c-0.987,0.374-1.979,0.732-2.972,1.091c-1.655,0.598-3.366,1.216-5.03,1.902
		c-0.75,0.309-1.204,0.983-1.204,1.759C8.835,9.574,8.816,9.727,8.815,9.885l-0.004,0.471c-0.006,0.713-0.013,1.443,0.002,2.177
		c-1.084,0.151-2.213,0.281-3.425,0.396c-0.441,0.042-0.831,0.242-1.097,0.565c-0.229,0.277-0.354,0.623-0.362,0.993l-0.004,0.021
		c-0.399,2.118-1.001,4.137-1.538,5.83c-0.206,0.649-0.015,1.326,0.488,1.769c0.059,0.069,0.121,0.133,0.189,0.192
		c0.543,0.465,1.079,0.939,1.609,1.419c-0.511,0.559-1,1.131-1.479,1.69l-0.34,0.397c-0.104,0.12-0.189,0.247-0.26,0.386
		c-0.51,0.585-0.611,1.393-0.249,2.116c0.807,1.616,1.693,3.209,2.55,4.75c0.511,0.919,1.022,1.838,1.518,2.763
		c0.073,0.137,0.161,0.263,0.265,0.381c0.346,0.677,0.965,1.049,1.748,1.069c0.104,0.018,0.214-0.001,0.331,0.027
		c0.973-0.019,1.949,0.002,2.924,0.035l0.08,0.655c0.104,0.841,0.209,1.682,0.301,2.524c0.072,0.67,0.497,1.187,1.119,1.373
		l0.116,0.042c2.013,0.614,4.035,1.006,6.005,1.162l0.142,0.006c0.062,0,0.123-0.003,0.182-0.009
		c0.382-0.021,0.736-0.179,1.028-0.459c0.47-0.453,0.937-0.91,1.404-1.366c0.729,0.596,1.442,1.192,2.129,1.812
		c0.082,0.074,0.171,0.141,0.268,0.198c0.356,0.317,0.801,0.49,1.271,0.49c0,0,0,0,0,0c0.252,0,0.504-0.05,0.75-0.149
		c0.154-0.02,0.302-0.057,0.448-0.111c0.987-0.374,1.98-0.732,2.973-1.091c1.654-0.598,3.365-1.216,5.031-1.903
		C35.676,40.197,36.129,39.522,36.129,38.746z M32.663,33.109c-0.382,0.413-0.569,0.958-0.525,1.536
		c0.066,0.862,0.06,1.722,0.049,2.627c-1.293,0.507-2.616,0.986-3.9,1.452c-0.701,0.254-1.402,0.509-2.102,0.768
		c-0.823-0.72-1.667-1.408-2.532-2.107c-0.165-0.132-0.346-0.236-0.54-0.312c-0.599-0.318-1.346-0.21-1.85,0.276
		c-0.497,0.479-0.99,0.962-1.482,1.444l-0.899,0.878c-1.211-0.133-2.424-0.36-3.62-0.677c-0.055-0.462-0.113-0.925-0.171-1.387
		c-0.103-0.824-0.206-1.647-0.295-2.474c-0.029-0.266-0.118-0.515-0.258-0.729c-0.301-0.633-0.906-1.021-1.646-1.048
		c-1.096-0.039-2.194-0.071-3.289-0.073c-0.358-0.658-0.721-1.313-1.084-1.969c-0.661-1.191-1.341-2.419-1.982-3.647
		c0.587-0.689,1.146-1.342,1.762-1.948c0.427-0.422,0.652-0.939,0.651-1.498c-0.002-0.758-0.41-1.522-1.247-2.339
		c-0.093-0.091-0.366-0.303-0.707-0.557c-0.269-0.201-0.804-0.6-1.132-0.88c0.493-1.618,0.867-3.035,1.158-4.377
		c0.558-0.066,1.396-0.143,1.827-0.183c0.364-0.033,0.642-0.06,0.731-0.072c0.137-0.02,0.301-0.026,0.475-0.036
		c0.735-0.04,1.743-0.095,2.364-0.803c0.234-0.266,0.5-0.733,0.446-1.449c-0.065-0.863-0.059-1.723-0.049-2.627
		c1.284-0.503,2.596-0.979,3.871-1.442c0.71-0.258,1.421-0.516,2.13-0.778c0.817,0.715,1.664,1.404,2.528,2.104
		c0.873,0.707,2.139,0.499,2.783-0.412l0.084-0.112c0.351-0.534,0.73-1.062,1.089-1.548c1.324,0.203,2.666,0.546,4.002,1.021
		c0.276,1.181,0.55,2.362,0.816,3.546c0.112,0.499,0.417,0.898,0.851,1.126c0.315,0.254,0.705,0.396,1.139,0.41
		c1.097,0.041,2.195,0.075,3.29,0.074c0.362,0.666,0.73,1.329,1.098,1.992c0.656,1.184,1.332,2.402,1.969,3.623
		c-0.586,0.689-1.146,1.341-1.763,1.95c-0.468,0.462-0.681,1.08-0.595,1.715c-0.001,0.358,0.113,0.701,0.334,1
		c0.753,1.017,1.672,1.948,2.798,2.836c-0.269,1.276-0.779,2.596-1.606,4.166c-0.892,0.198-1.823,0.317-2.774,0.355
		C34.109,32.284,33.206,32.522,32.663,33.109z"/>
</g>
</svg>
