<?xml version="1.0" encoding="iso-8859-1"?>
<!-- Generator: Adobe Illustrator 17.0.2, SVG Export Plug-In . SVG Version: 6.00 Build 0)  -->
<!DOCTYPE svg PUBLIC "-//W3C//DTD SVG 1.1//EN" "http://www.w3.org/Graphics/SVG/1.1/DTD/svg11.dtd">
<svg version="1.1" id="Capa_1" xmlns="http://www.w3.org/2000/svg" xmlns:xlink="http://www.w3.org/1999/xlink" x="0px" y="0px"
	 width="100px" height="100px" viewBox="0 0 100 100" style="enable-background:new 0 0 100 100;" xml:space="preserve">
<g>
	<path style="fill:#1D1D1B;" d="M71.952,73.109c-4.443,0.487-8.34,3.914-9.528,8.147c-9.131,0.519-18.276,0.952-27.423,1.038
		c-1.797-7.691-2.127-15.522-1.905-23.397c8.745-0.009,17.486-0.08,26.217-0.605c1.3,4.119,5.752,6.213,10.328,6.178
		c2.888-0.022,6.397-0.643,8.763-2.398c3.011-2.235,4.061-4.875,3.803-7.408c-0.557-5.466-7.203-10.435-13.376-9.757
		c-4.215,0.462-7.929,3.571-9.315,7.501c-8.716,0.532-17.443,0.625-26.174,0.635c0.522-9.297,1.504-18.621,1.501-27.818
		c1.93-0.343,3.841-0.995,5.311-2.085c3.01-2.235,4.06-4.875,3.802-7.408c-0.556-5.466-7.202-10.435-13.376-9.757
		c-5.072,0.556-9.432,4.943-9.864,9.987c-0.468,5.464,3.534,8.627,8.282,9.389c-0.001,20.21-4.514,40.813,0.881,60.678
		c0.371,1.371,1.405,2.005,2.496,2.069c0.222,0.05,0.459,0.081,0.717,0.08c9.861-0.038,19.722-0.516,29.566-1.079
		c1.528,3.718,5.761,5.607,10.106,5.574c2.888-0.022,6.397-0.643,8.763-2.398c3.011-2.235,4.061-4.875,3.803-7.408
		C84.771,77.4,78.126,72.431,71.952,73.109z M69.777,50.803c6.062-0.628,9.224,6.499,2.042,7.912
		c-0.095-0.001-0.181-0.015-0.28-0.008C65.391,59.111,61.858,51.624,69.777,50.803z M31.526,11.87
		c6.062-0.628,9.223,6.499,2.041,7.912c-0.094-0.001-0.18-0.015-0.279-0.008C27.14,20.178,23.607,12.691,31.526,11.87z
		 M74.941,86.917c-0.094-0.001-0.18-0.015-0.279-0.008c-6.148,0.405-9.681-7.083-1.762-7.904
		C78.962,78.376,82.123,85.504,74.941,86.917z"/>
</g>
</svg>
