<?xml version="1.0" encoding="iso-8859-1"?>
<!-- Generator: Adobe Illustrator 17.0.2, SVG Export Plug-In . SVG Version: 6.00 Build 0)  -->
<!DOCTYPE svg PUBLIC "-//W3C//DTD SVG 1.1//EN" "http://www.w3.org/Graphics/SVG/1.1/DTD/svg11.dtd">
<svg version="1.1" id="Capa_1" xmlns="http://www.w3.org/2000/svg" xmlns:xlink="http://www.w3.org/1999/xlink" x="0px" y="0px"
	 width="100px" height="100px" viewBox="0 0 100 100" style="enable-background:new 0 0 100 100;" xml:space="preserve">
<g>
	<path style="fill:#1D1D1B;" d="M36.164,76.495c-0.074-18.471-0.925-36.933-0.721-55.405c1.514-0.38,2.962-0.969,4.131-1.836
		c3.025-2.246,4.081-4.899,3.821-7.445c-0.56-5.494-7.238-10.487-13.443-9.807c-5.099,0.559-9.48,4.968-9.915,10.038
		c-0.526,6.146,4.573,9.396,10.054,9.605c-0.183,18.378,0.661,36.745,0.728,55.122c-4.199,1.328-7.538,5.218-7.915,9.609
		c-0.548,6.398,5,9.668,10.729,9.624c2.902-0.022,6.43-0.646,8.808-2.41c3.025-2.246,4.081-4.899,3.821-7.445
		C45.803,81.636,41.222,77.471,36.164,76.495z M30.904,7.928c6.094-0.632,9.271,6.532,2.053,7.952
		c-0.095-0.001-0.182-0.015-0.281-0.009C26.496,16.278,22.946,8.753,30.904,7.928z M35.822,90.215
		c-0.094-0.001-0.181-0.015-0.28-0.009c-6.18,0.407-9.729-7.119-1.771-7.943C39.863,81.632,43.041,88.795,35.822,90.215z"/>
	<path style="fill:#1D1D1B;" d="M67.164,76.495c-0.074-18.471-0.925-36.933-0.721-55.405c1.514-0.38,2.962-0.969,4.131-1.836
		c3.025-2.246,4.081-4.899,3.821-7.445c-0.56-5.494-7.238-10.487-13.443-9.807c-5.099,0.559-9.48,4.968-9.915,10.038
		c-0.526,6.146,4.573,9.396,10.054,9.605c-0.183,18.378,0.661,36.745,0.728,55.122c-4.199,1.328-7.538,5.218-7.915,9.609
		c-0.548,6.398,5,9.668,10.729,9.624c2.902-0.022,6.43-0.646,8.808-2.41c3.025-2.246,4.081-4.899,3.821-7.445
		C76.803,81.636,72.222,77.471,67.164,76.495z M61.904,7.928c6.094-0.632,9.271,6.532,2.053,7.952
		c-0.095-0.001-0.182-0.015-0.281-0.009C57.496,16.278,53.946,8.753,61.904,7.928z M66.822,90.215
		c-0.094-0.001-0.181-0.015-0.28-0.009c-6.18,0.407-9.729-7.119-1.771-7.943C70.863,81.632,74.041,88.795,66.822,90.215z"/>
</g>
</svg>
