<?xml version="1.0" encoding="iso-8859-1"?>
<!-- Generator: Adobe Illustrator 17.0.2, SVG Export Plug-In . SVG Version: 6.00 Build 0)  -->
<!DOCTYPE svg PUBLIC "-//W3C//DTD SVG 1.1//EN" "http://www.w3.org/Graphics/SVG/1.1/DTD/svg11.dtd">
<svg version="1.1" id="Capa_1" xmlns="http://www.w3.org/2000/svg" xmlns:xlink="http://www.w3.org/1999/xlink" x="0px" y="0px"
	 width="100px" height="100px" viewBox="0 0 100 100" style="enable-background:new 0 0 100 100;" xml:space="preserve">
<g>
	<path style="fill:#1E1E1C;" d="M83.55,6.316c-0.158-1.312-1.24-1.994-2.284-2.049c-0.208-0.065-0.431-0.111-0.685-0.111
		C63.124,4.178,42.43,4.664,24.973,4.427c-0.302-0.004-0.565,0.051-0.802,0.139c-1.226-0.277-2.704,0.391-2.707,2.021
		c-0.005,2.79-0.031,5.58-0.067,8.37c-2.014,0.665-3.828,1.823-5.205,3.666c-3.147,4.214,0.291,9.535,3.476,12.436
		c0.447,0.407,0.941,0.571,1.421,0.575c-0.012,0.568-0.023,1.137-0.035,1.705c-1.768,0.598-3.368,1.542-4.564,3
		c-3.322,4.049-0.602,8.96,2.369,12.266c0.355,0.395,0.753,0.586,1.152,0.65c0.238,0.269,0.484,0.528,0.763,0.756
		c-0.002,0.272-0.004,0.543-0.007,0.815c-2.516,0.698-4.754,2.055-6.016,4.457c-2.604,4.954,2.144,9.451,6.074,11.692
		c0.003,0.134,0.008,0.267,0.01,0.401c-1.865,0.922-3.456,2.257-4.406,4.208c-2.256,4.633,1.557,8.848,5.05,11.456
		c0.058,0.904,0.122,1.809,0.187,2.713c-0.074,0.237-0.108,0.505-0.078,0.813c0.292,2.995,0.829,5.906,1.918,8.721
		c0.379,0.981,1.234,1.405,2.076,1.413c0.222,0.08,0.465,0.134,0.745,0.133c18.715-0.01,37.434-0.3,56.073-2.106
		c0.143-0.014,0.274-0.044,0.401-0.079c1.094,0.057,2.232-0.614,2.231-2.027c0-2.462-0.01-4.92-0.263-7.371
		c-0.021-0.206-0.073-0.39-0.137-0.565C84.695,58.558,86.694,32.346,83.55,6.316z M18.671,57.096
		c0.443-0.842,1.181-1.419,2.066-1.817c-0.007,2.172-0.002,4.344,0.016,6.515C19.139,60.566,17.722,58.904,18.671,57.096z
		 M20.129,38.735c0.247-0.255,0.529-0.469,0.824-0.666c-0.041,2.069-0.078,4.137-0.111,6.206
		C19.546,42.585,18.478,40.442,20.129,38.735z M20.371,73.324c0.157-0.322,0.36-0.613,0.596-0.878
		c0.049,1.518,0.106,3.036,0.174,4.554C20.259,75.894,19.74,74.618,20.371,73.324z M21.197,26.48
		c-1.439-1.63-2.526-3.649-1.277-5.678c0.349-0.568,0.837-0.999,1.408-1.332C21.289,21.807,21.245,24.143,21.197,26.48z
		 M27.032,92.619c-0.326-1.039-0.591-2.09-0.798-3.156c17.156,0.102,37.366,1.86,54.507-1.5c0.039,0.896,0.062,1.793,0.071,2.69
		C62.93,92.304,44.98,92.603,27.032,92.619z M80.319,83.652c-16.658,3.443-37.053,1.607-53.933,1.494
		c-0.021-0.001-0.042-0.006-0.063-0.006h-0.381c-0.356-4.948-0.579-9.899-0.715-14.851c1.26-0.297,2.528-0.444,3.526-0.536
		c2.75-0.254,2.774-4.575,0-4.319c-1.158,0.107-2.387,0.268-3.611,0.522c-0.066-3.822-0.099-7.644-0.084-11.467
		c1.173-0.019,2.291,0.064,3.155,0.147c2.773,0.266,2.747-4.055,0-4.319c-0.99-0.095-2.048-0.135-3.123-0.103
		c0.044-4.472,0.12-8.945,0.21-13.418c1.507-0.122,3.027-0.056,4.262,0.025c2.782,0.181,2.765-4.139,0-4.319
		c-1.318-0.086-2.743-0.105-4.175,0.004c0.099-4.669,0.2-9.339,0.275-14.008c1.336-0.024,2.639,0.108,3.63,0.237
		c2.756,0.359,2.721-3.965,0-4.319c-1.178-0.153-2.38-0.224-3.571-0.185c0.022-1.826,0.04-3.651,0.049-5.477
		C42.59,8.96,62.647,8.519,79.466,8.48C82.214,33.456,80.427,58.591,80.319,83.652z"/>
	<path style="fill:#1E1E1C;" d="M42.435,33.587c-0.189,0.13-0.341,0.277-0.477,0.431c-0.066,0.046-0.135,0.081-0.199,0.136
		c-11.364,9.47-6.486,28.545,8.033,30.95c5.095,0.844,12.164,0.877,17.141-0.573c2.924-0.852,1.679-5.419-1.258-4.563
		c-7.25,2.112-14.527,1.896-21.101-2.044c-0.078-0.103-0.157-0.206-0.259-0.305c-6.178-5.965-5.771-14.643,0.789-20.118
		c0.009-0.008,0.015-0.016,0.024-0.024c8.175-5.347,23.251-3.911,23.937,8.013c0.002,0.039,0.013,0.072,0.018,0.111
		c-0.007,0.094-0.021,0.183-0.018,0.283c0.081,2.16-0.823,3.629-2.793,4.289c-2.052-0.479-3.237-1.716-3.798-3.932
		c-0.063-0.247-0.16-0.455-0.27-0.644c-0.4-1.718-1.157-3.302-2.482-4.602c-1.637-1.605-3.881-2.291-6.124-2.513
		c-0.215-0.057-0.443-0.096-0.701-0.091c-0.087,0.002-0.167,0.019-0.252,0.022c-0.179-0.008-0.359-0.02-0.536-0.022
		c-0.382-0.006-0.717,0.064-1.003,0.19c-3.472,0.623-6.14,2.816-7.633,6.101c-2.727,6.001,4.799,11.123,9.819,11.653
		c0.11,0.012,0.216-0.001,0.322-0.01c0.025,0.001,0.047,0.009,0.072,0.01c2.308,0.078,4.342-0.48,6.158-1.913
		c0.556-0.439,0.991-0.979,1.346-1.571c1.238,1.039,2.739,1.768,4.486,2.019c0.109,0.016,0.218,0.02,0.327,0.026
		c0.34,0.076,0.715,0.081,1.128-0.026c4.225-1.095,6.83-4.629,6.667-8.986c-0.001-0.033-0.01-0.06-0.012-0.092
		c0.006-0.1,0.019-0.195,0.012-0.302C72.905,29.96,53.801,25.753,42.435,33.587z M57.826,48.249
		c-0.299,2.593-1.616,3.437-4.141,3.352c-0.103-0.003-0.193,0.012-0.288,0.019c-0.035-0.005-0.069-0.015-0.104-0.019
		c-5.462-0.604-7.36-7.961-0.749-8.449c3.065,0.166,5.091,1.577,5.283,4.899c0.002,0.038,0.013,0.069,0.017,0.106
		C57.838,48.189,57.83,48.218,57.826,48.249z"/>
</g>
</svg>
