<?xml version="1.0" encoding="utf-8"?>
<!-- Generator: Adobe Illustrator 17.0.2, SVG Export Plug-In . SVG Version: 6.00 Build 0)  -->
<!DOCTYPE svg PUBLIC "-//W3C//DTD SVG 1.1//EN" "http://www.w3.org/Graphics/SVG/1.1/DTD/svg11.dtd">
<svg version="1.1" id="Capa_1" xmlns="http://www.w3.org/2000/svg" xmlns:xlink="http://www.w3.org/1999/xlink" x="0px" y="0px"
	 width="100px" height="100px" viewBox="0 0 100 100" enable-background="new 0 0 100 100" xml:space="preserve">
<g>
	<path fill="#1D1D1B" d="M80.778,40.696c-0.036-0.149-0.088-0.284-0.145-0.413c0.058-0.157,0.103-0.326,0.129-0.509
		c1.636-11.468-1.729-22.168-11.396-28.999C58.919,3.392,38.66-0.167,28.646,9.704c-2.656,2.618-5.83,7.25-6.663,10.932
		c-0.015,0.066-0.014,0.128-0.023,0.193c-0.06,0.105-0.121,0.209-0.168,0.331c-0.99,2.543-2.639,4.379-4.855,5.881
		c-0.229,0.085-0.458,0.203-0.68,0.387c-2.475,2.053-3.562,4.82-3.455,7.938c-0.116,0.428-0.105,0.911,0.098,1.424
		c1.919,4.858,1.541,9.716-0.375,14.506c-0.025,0.063-0.033,0.122-0.054,0.184c-0.243,0.4-0.356,0.901-0.239,1.501
		c1.402,7.157,4.095,13.832,9.411,18.831c1.092,1.027,3.048,1.079,3.518-0.749c0.463-1.807,0.924-3.613,1.467-5.396
		c3.812,2.712,6.643,6.311,8.187,10.91c0.224,0.665,0.634,1.051,1.112,1.22c0.397,0.271,0.889,0.431,1.47,0.394
		c8.124-0.518,16.259-0.719,24.396-0.907c0.275-0.006,0.52-0.064,0.747-0.144c1.067,0.03,2.152-0.592,2.278-1.964
		c0.237-2.582,0.564-5.257,1.876-7.546c0.009-0.014,0.012-0.029,0.02-0.044c0.672-0.417,1.484-0.802,2.256-0.57
		c1.828,0.552,2.526,6.883,5.439,4.009c4.829-4.761,7.844-10.446,8.998-17.09c0.244-0.401,0.348-0.909,0.199-1.521L80.778,40.696z
		 M79.092,52.888c-0.717,4.689-2.608,8.897-5.542,12.495c-0.751-1.089-1.731-1.98-3.049-2.551c-2.832-1.226-6.562,0.439-7.847,2.975
		c-1.133,2.237-1.72,4.609-2.059,7.073c-7.381,0.175-14.76,0.39-22.131,0.821c-2.201-5.709-6.388-10.286-11.749-13.26
		c-1.457-0.808-2.949,0.1-3.438,1.269c-0.051,0.097-0.103,0.19-0.143,0.301c-0.385,1.076-0.718,2.167-1.03,3.264
		c-2.554-3.836-4.407-8.02-5.364-12.536c2.227-5.621,2.488-11.383,0.467-17.046c0.014-0.163,0.017-0.329,0.002-0.496
		c-0.146-1.74,0.532-3.183,1.84-4.29c0.136-0.056,0.271-0.121,0.403-0.207c3.016-1.95,5.207-4.638,6.514-7.982
		c0.082-0.162,0.154-0.339,0.201-0.547c1.087-4.812,3.844-8.581,8.113-11.075c0.343-0.2,0.593-0.453,0.779-0.733
		c9.874-2.808,21.709-1.815,30.633,3.349c9.335,5.401,12.068,15.572,10.625,25.695c-0.055,0.379-0.018,0.71,0.08,0.999
		c-0.088,0.316-0.106,0.673-0.009,1.078l2.727,11.307C79.11,52.825,79.098,52.853,79.092,52.888z"/>
	<path fill="#1D1D1B" d="M43.394,43.817c-0.056-0.109-0.118-0.217-0.186-0.323c-1.264-1.975-4.486-3.295-6.54-3.824
		c-0.044-0.011-0.086-0.014-0.13-0.023c-0.408-0.267-0.927-0.394-1.555-0.27c-4.182,0.832-7.68,3.224-9.836,6.915
		c-0.858,0.619-1.091,1.737-0.712,2.74c0.936,2.481,2.099,4.873,3.903,6.847c0.299,0.592,0.855,1.059,1.702,1.161
		c6.825,0.82,9.94-0.61,12.273-6.843C43.085,48.137,44.506,45.993,43.394,43.817z M36.921,51.931
		c-0.042,0.115-0.062,0.226-0.086,0.337c-1.774,0.401-3.549,0.53-5.353,0.41c-1.066-1.263-1.828-2.675-2.463-4.179
		c1.485-2.35,3.525-3.931,6.239-4.603c1.446,0.392,2.72,1.063,3.912,1.898L36.921,51.931z"/>
	<path fill="#1D1D1B" d="M73.324,46.292c-2.157-3.691-5.654-6.083-9.836-6.915c-0.628-0.124-1.146,0.003-1.556,0.27
		c-0.043,0.009-0.086,0.012-0.129,0.023c-2.501,0.644-4.728,2.074-6.687,3.724c-1.049,0.885-1.191,2.205-0.907,3.602
		c0.426,2.089,1.804,4.349,2.53,5.587c2.671,4.543,6.473,5.082,11.69,4.455c0.847-0.101,1.403-0.568,1.702-1.161
		c1.805-1.973,2.968-4.366,3.903-6.847C74.415,48.029,74.183,46.912,73.324,46.292z M66.989,52.677
		c-0.404,0.479-3.962,0.038-4.602-0.339c-1.867-1.102-2.387-4.634-3.087-6.543c1.192-0.836,2.466-1.506,3.912-1.898
		c2.714,0.672,4.754,2.252,6.239,4.603C68.817,50.002,68.056,51.414,66.989,52.677z"/>
	<path fill="#1D1D1B" d="M72.117,74.951c-0.701-0.849-2.305-1.183-3.139-0.299c-1.432,1.516-2.878,3.01-4.454,4.377
		c-0.017,0.008-0.034,0.011-0.052,0.02c-0.276,0.145-0.537,0.319-0.797,0.495c-0.03,0.001-0.058-0.006-0.09-0.004
		c-8.171,0.429-16.332,0.692-24.501,0.125c-0.276-0.144-0.608-0.23-1.011-0.221c-2.867,0.061-5.266-0.569-7.263-2.72
		c-0.257-0.276-0.539-0.462-0.831-0.581c-0.949-2.087-4.622-1.222-4.198,1.392c0.346,2.138,0.485,4.292,0.602,6.453
		c0.019,0.34,0.151,0.641,0.348,0.901c0.043,0.118,0.088,0.236,0.155,0.357c1.86,3.325,4.443,5.965,7.563,8.131
		c0.257,0.178,0.516,0.284,0.771,0.347c1.726,1.16,3.636,1.946,5.582,2.66c0.026,0.01,0.052,0.011,0.078,0.02
		c0.28,0.168,0.618,0.282,1.028,0.301c6.851,0.311,13.632-0.372,20.293-1.999c0.052-0.013,0.093-0.035,0.143-0.05
		c0.32,0.016,0.662-0.037,1.02-0.192c4.127-1.786,6.976-5.028,8.01-9.426c0.007-0.03,0.006-0.058,0.011-0.088
		c0.079-0.133,0.143-0.277,0.181-0.435c0.612-2.505,1.201-5.011,1.219-7.603c0.003-0.384-0.079-0.719-0.217-1.011
		C72.505,75.576,72.366,75.254,72.117,74.951z M67.381,82.981l-0.001,0.003c-0.077,0.155-0.145,0.324-0.19,0.521
		c-0.757,3.217-2.424,5.379-5.378,6.757c-0.128,0.01-0.258,0.022-0.396,0.056c-6.229,1.522-12.526,2.22-18.938,1.949
		c-0.048-0.021-0.087-0.049-0.14-0.068c-1.672-0.614-3.305-1.23-4.773-2.259c-0.239-0.168-0.482-0.27-0.723-0.336
		c-2.382-1.682-4.473-3.663-5.91-6.234c-0.049-0.088-0.108-0.158-0.163-0.235c-0.017-0.304-0.036-0.608-0.054-0.911
		c2.003,1.129,4.256,1.671,6.741,1.656c0.228,0.101,0.479,0.176,0.773,0.198c8.475,0.622,16.939,0.323,25.413-0.114
		c0.502,0.153,1.05,0.142,1.536-0.113c0.301-0.157,0.585-0.346,0.865-0.537c0.091-0.064,0.181-0.129,0.27-0.195
		c0.019-0.014,0.022-0.018,0.037-0.029c0.005-0.002,0.009-0.006,0.014-0.009c0.277-0.082,0.555-0.229,0.823-0.458
		c0.118-0.101,0.23-0.208,0.348-0.31C67.482,82.536,67.436,82.758,67.381,82.981z"/>
	<path fill="#1D1D1B" d="M46.337,54.953c-1.103,0-2.378,1.02-2.229,2.229c0.212,1.727,0.048,3.326-0.478,4.98
		c-0.872,2.748,3.433,3.915,4.299,1.185c0.63-1.986,0.892-4.092,0.637-6.165C48.418,55.976,47.663,54.953,46.337,54.953z"/>
	<path fill="#1D1D1B" d="M54.417,56.346c-0.04-2.872-4.497-2.876-4.458,0c0.035,2.702,0.799,5.313,2.882,7.149
		c2.147,1.893,5.312-1.248,3.151-3.152C54.765,59.26,54.438,57.942,54.417,56.346z"/>
</g>
</svg>
