<?xml version="1.0" encoding="utf-8"?>
<!-- Generator: Adobe Illustrator 17.0.2, SVG Export Plug-In . SVG Version: 6.00 Build 0)  -->
<!DOCTYPE svg PUBLIC "-//W3C//DTD SVG 1.1//EN" "http://www.w3.org/Graphics/SVG/1.1/DTD/svg11.dtd">
<svg version="1.1" id="Capa_1" xmlns="http://www.w3.org/2000/svg" xmlns:xlink="http://www.w3.org/1999/xlink" x="0px" y="0px"
	 width="100px" height="100px" viewBox="0 0 100 100" enable-background="new 0 0 100 100" xml:space="preserve">
<g>
	<path fill="#1D1D1B" d="M95.919,46.819c0.01-0.242,0-0.488-0.054-0.734c-0.337-1.526-1.11-2.999-2.318-4.014
		c-1.134-0.953-2.398-1.434-3.794-1.694c-0.381-0.239-0.824-0.383-1.299-0.377c-2.751,0.034-5.047,0.951-6.659,3.238
		c-0.371,0.526-0.429,1.172-0.28,1.776c-0.492,0.925-0.819,1.934-0.936,3.079c-0.173,1.701,0.699,3.331,1.816,4.619
		c-3.729,5.004-9.552,9.398-16.097,7.766c-3.984-0.993-6.222-5.371-7.572-8.862c-3.115-8.053-3.514-16.953-4.318-25.494
		c0.956-0.221,1.888-0.605,2.763-1.214c0.261-0.182,0.486-0.4,0.672-0.64c0.17-0.153,0.332-0.318,0.475-0.507
		c1.239-1.638,1.596-3.758,1.341-5.762c-0.008-0.062-0.024-0.12-0.035-0.181c0.01-0.242,0-0.488-0.054-0.734
		c-0.337-1.526-1.11-2.999-2.318-4.014c-1.134-0.953-2.398-1.434-3.794-1.694c-0.381-0.239-0.824-0.383-1.299-0.377
		c-2.751,0.034-5.047,0.951-6.659,3.238c-0.371,0.526-0.429,1.172-0.28,1.776c-0.492,0.925-0.819,1.934-0.936,3.079
		c-0.225,2.208,1.308,4.302,2.857,5.674c0.392,0.347,0.814,0.531,1.235,0.608c0.258,0.12,0.521,0.217,0.784,0.316
		c-1.25,9.821-2.662,20.61-8.063,29.095c-5.738,9.014-15.538,5.42-23.072,0.836c1.157-1.619,1.495-3.673,1.248-5.622
		c-0.008-0.062-0.024-0.12-0.035-0.181c0.01-0.242,0-0.488-0.054-0.734c-0.337-1.526-1.11-2.999-2.318-4.014
		c-1.134-0.953-2.398-1.434-3.794-1.694c-0.381-0.239-0.824-0.383-1.299-0.377c-2.751,0.034-5.047,0.951-6.659,3.238
		c-0.371,0.526-0.429,1.172-0.28,1.776c-0.492,0.925-0.819,1.934-0.936,3.079c-0.225,2.208,1.308,4.302,2.857,5.674
		c0.392,0.347,0.814,0.531,1.235,0.608c1.392,0.646,2.867,0.989,4.324,0.966c2.615,6.454,5.196,12.919,8.275,19.17
		c0.111,0.226,0.245,0.409,0.388,0.571c0.094,0.626,0.474,1.208,1.259,1.576c17.498,8.204,37.11,6.732,55.176,1.252
		c0.778-0.236,1.273-0.722,1.532-1.299c0.53-0.27,0.978-0.735,1.214-1.447c2.524-7.621,4.896-15.29,7.341-22.936
		c2.048,0.314,4.127-0.041,5.964-1.32c0.261-0.182,0.486-0.4,0.672-0.64c0.17-0.153,0.332-0.318,0.475-0.507
		c1.239-1.638,1.596-3.758,1.341-5.762C95.947,46.938,95.93,46.88,95.919,46.819z M14.004,51.495
		c-0.314,1.286-1.572,2.256-3.24,1.597c-3.959-1.562-0.368-7.003,2.495-4.165C14.011,49.673,14.209,50.652,14.004,51.495z
		 M53.643,16.927c0.753,0.746,0.952,1.725,0.746,2.568c-0.314,1.286-1.572,2.256-3.24,1.597
		C47.189,19.529,50.78,14.089,53.643,16.927z M75.53,76.25c-16.415,4.896-34.465,6.583-50.435-0.765
		c-0.045-0.164-0.104-0.329-0.187-0.496c-2.101-4.265-3.953-8.634-5.753-13.027c8.081,4.046,17.214,5.605,24.186-1.934
		c4.101-4.435,6.466-10.349,7.987-16.574c0.935,5.24,2.421,10.317,5.113,14.872c2.557,4.328,6.585,6.979,11.566,7.47
		c4.488,0.443,8.592-1.187,12.093-3.774C78.598,66.772,77.091,71.52,75.53,76.25z M90.683,48.495
		c-0.314,1.286-1.572,2.256-3.241,1.597c-3.959-1.562-0.368-7.003,2.495-4.165C90.69,46.673,90.889,47.652,90.683,48.495z"/>
	<path fill="#1D1D1B" d="M60.115,67.976c0.012-0.29,0-0.583-0.065-0.877c-0.403-1.825-1.327-3.585-2.771-4.798
		c-1.356-1.139-2.867-1.715-4.535-2.025c-0.456-0.285-0.985-0.458-1.552-0.451c-3.289,0.04-6.034,1.137-7.96,3.871
		c-0.443,0.629-0.513,1.401-0.335,2.124c-0.588,1.105-0.979,2.312-1.119,3.681c-0.269,2.639,1.563,5.143,3.416,6.783
		c0.468,0.414,0.973,0.634,1.477,0.727c3.435,1.592,7.287,1.687,10.513-0.558c0.312-0.217,0.581-0.478,0.804-0.765
		c0.203-0.183,0.397-0.38,0.567-0.606c1.481-1.958,1.908-4.493,1.604-6.888C60.148,68.119,60.128,68.049,60.115,67.976z
		 M53.855,69.979c-0.376,1.538-1.879,2.697-3.874,1.909c-4.733-1.868-0.44-8.371,2.982-4.979
		C53.864,67.801,54.102,68.972,53.855,69.979z"/>
	<path fill="#1D1D1B" d="M28.75,68.75c-3.224,0-3.224,5,0,5S31.974,68.75,28.75,68.75z"/>
	<path fill="#1D1D1B" d="M70.25,74.5c3.224,0,3.224-5,0-5S67.026,74.5,70.25,74.5z"/>
</g>
</svg>
