<?xml version="1.0" encoding="iso-8859-1"?>
<!-- Generator: Adobe Illustrator 17.0.2, SVG Export Plug-In . SVG Version: 6.00 Build 0)  -->
<!DOCTYPE svg PUBLIC "-//W3C//DTD SVG 1.1//EN" "http://www.w3.org/Graphics/SVG/1.1/DTD/svg11.dtd">
<svg version="1.1" id="Capa_1" xmlns="http://www.w3.org/2000/svg" xmlns:xlink="http://www.w3.org/1999/xlink" x="0px" y="0px"
	 width="100px" height="100px" viewBox="0 0 100 100" style="enable-background:new 0 0 100 100;" xml:space="preserve">
<g>
	<path style="fill:#1E1E1C;" d="M82.73,28.855c-0.181-5.491-0.282-12.909-0.228-18.404c0.002-0.245-0.037-0.461-0.093-0.664
		c0.107-1.197-0.596-2.461-2.129-2.421c-19.354,0.508-38.704-0.25-58.058-0.28c-1.61-0.003-2.315,1.412-2.117,2.654
		c-0.064,0.216-0.109,0.448-0.106,0.712c0.292,23.095,1.086,56.279,1.111,79.377c0,0.518,0.147,0.939,0.382,1.272
		c0.142,0.979,0.846,1.845,2.119,1.813c8.365-0.208,16.734-0.342,25.093-0.752c7.45-0.365,16.734,0.124,23.856-2.307
		c2.521-0.861,4.776-2.134,6.71-3.977c3.534-3.369,4.741-7.892,5.045-12.658c0.292-4.577-0.247-9.379-0.354-13.597
		C83.686,48.728,83.089,39.748,82.73,28.855z M70.484,70.049c-1.362,0.008-2.678,1.071-2.069,2.705
		c1.224,3.286,1.784,7.366-0.099,10.509c-2.276,3.801-6.338,3.698-10.2,4.185c-2.362,0.298-4.873,0.14-7.253,0.207
		c-1.853,0.052-25.314,0.624-25.314,0.716c-0.055-22.233-0.79-54.553-1.087-76.784c17.868,0.077,35.733,0.691,53.601,0.309
		c-0.068,18.253,1.55,44.639,1.646,59.065c-2.772-0.875-5.637-1.244-8.595-1.046C70.883,69.929,70.678,69.982,70.484,70.049z
		 M72.23,85.245c1.794-3.058,2.242-6.81,1.309-10.877c2.161,0.084,4.292,0.501,6.31,1.356c0.008,0.025,0.015,0.052,0.023,0.077
		C79.218,80.62,76.169,83.577,72.23,85.245z"/>
	<path style="fill:#1E1E1C;" d="M42.167,53.583c-6.85,0.395-9.326-12.763-2.333-13.667c2.836-0.366,2.872-4.871,0-4.5
		c-12.881,1.664-10.3,23.395,2.333,22.667C45.051,57.917,45.067,53.416,42.167,53.583z"/>
	<path style="fill:#1E1E1C;" d="M53.035,42.81c-1.246-2.18-0.889-2.932,1.563-3.641c2.782-0.805,1.598-5.147-1.196-4.339
		c-5.31,1.535-6.825,5.47-4.252,10.251c1.049,1.95,2.45,3.688,3.512,5.632c1.266,2.319-0.614,2.28-2.995,2.536
		c-2.854,0.307-2.883,4.811,0,4.5c5.335-0.575,9.744-3.13,7.072-8.928C55.757,46.69,54.196,44.844,53.035,42.81z"/>
	<path style="fill:#1E1E1C;" d="M65.035,42.81c-1.246-2.18-0.889-2.932,1.563-3.641c2.782-0.805,1.598-5.147-1.196-4.339
		c-5.31,1.535-6.825,5.47-4.252,10.251c1.049,1.95,2.45,3.688,3.512,5.632c1.266,2.319-0.614,2.28-2.995,2.536
		c-2.854,0.307-2.883,4.811,0,4.5c5.335-0.575,9.744-3.13,7.072-8.928C67.757,46.69,66.196,44.844,65.035,42.81z"/>
</g>
</svg>
