<?xml version="1.0" encoding="utf-8"?>
<!-- Generator: Adobe Illustrator 17.0.2, SVG Export Plug-In . SVG Version: 6.00 Build 0)  -->
<!DOCTYPE svg PUBLIC "-//W3C//DTD SVG 1.1//EN" "http://www.w3.org/Graphics/SVG/1.1/DTD/svg11.dtd">
<svg version="1.1" id="Capa_1" xmlns="http://www.w3.org/2000/svg" xmlns:xlink="http://www.w3.org/1999/xlink" x="0px" y="0px"
	 width="100px" height="100px" viewBox="0 0 100 100" enable-background="new 0 0 100 100" xml:space="preserve">
<g>
	<path fill="#1D1D1B" d="M52.582,7.605C28.708,5.02,7.993,23.401,9.662,47.928c0.108,1.586,1.278,2.461,2.516,2.63
		c0.32,0.355,0.762,0.637,1.361,0.778c0.869,0.205,1.744,0.403,2.621,0.597c2.222,12.55,5.203,24.882,9.78,36.798
		c-0.083,1.141,0.499,2.235,1.993,2.465c14.394,2.214,28.75,3.272,43.177,0.738c1.107-0.194,1.714-0.858,1.921-1.655
		c0.472-0.303,0.871-0.756,1.119-1.385c4.776-12.106,7.312-24.786,8.196-37.746c1.184-0.403,2.361-0.828,3.526-1.288
		c0.505-0.199,0.886-0.502,1.178-0.855c1.055-0.293,1.941-1.138,1.961-2.553C89.313,25.762,72.663,9.78,52.582,7.605z
		 M69.086,86.684C56.362,88.83,43.54,87.95,30.841,86.071c-4.006-10.699-6.761-21.725-8.853-32.938
		c1.686,0.32,3.387,0.61,5.095,0.884c0.011,0.062,0.01,0.12,0.024,0.184c1.457,6.19,2.932,12.372,4.798,18.454
		c1.044,3.403,6.388,1.951,5.338-1.472c-1.652-5.385-2.995-10.85-4.293-16.328c2.957,0.367,5.934,0.65,8.917,0.843
		c0.372,5.914,0.689,12.543,2.587,18.064c1.153,3.355,6.502,1.914,5.338-1.472c-1.726-5.022-2.038-10.951-2.373-16.344
		c3.552,0.086,7.103,0.023,10.632-0.2c0.61,5.897,0.295,11.77-0.409,17.648c-0.424,3.54,5.117,3.499,5.536,0
		c0.722-6.024,1.042-12.041,0.369-18.085c-0.002-0.02-0.01-0.037-0.012-0.057c4.444-0.509,8.838-1.289,13.135-2.416
		C75.728,64.461,73.297,75.788,69.086,86.684z M15.121,46.022c-0.323-20.717,17.362-35.603,37.833-32.829
		c16.449,2.229,29.932,14.911,30.506,31.669C61.944,53.027,37.124,51.192,15.121,46.022z"/>
	<path fill="#1D1D1B" d="M26.648,29.554c-1.06,1.805-1.892,3.731-2.952,5.536c-1.812,3.085,2.974,5.87,4.78,2.794
		c1.06-1.805,1.893-3.731,2.953-5.536C33.241,29.263,28.455,26.478,26.648,29.554z"/>
	<path fill="#1D1D1B" d="M47.668,27.919c0.828-1.414,0.212-2.884-0.993-3.787c-1.422-1.066-2.845-2.136-4.429-2.953
		c-1.341-0.691-2.995-0.359-3.787,0.993c-0.732,1.249-0.347,3.097,0.993,3.787c1.584,0.816,3.008,1.887,4.429,2.953
		C45.091,29.819,46.971,29.109,47.668,27.919z"/>
	<path fill="#1D1D1B" d="M64.391,24.87c-1.405-0.823-2.896-0.22-3.787,0.993c-1.052,1.431-1.901,2.997-2.953,4.429
		c-0.896,1.218-0.206,3.085,0.993,3.787c1.405,0.823,2.896,0.22,3.787-0.993c1.052-1.431,1.9-2.997,2.952-4.429
		C66.279,27.439,65.59,25.573,64.391,24.87z"/>
	<path fill="#1D1D1B" d="M73.497,36.555c-0.246-0.111-0.49-0.227-0.732-0.347c-0.597-0.299-1.173-0.638-1.731-1.004
		c-1.264-0.827-3.054-0.259-3.787,0.993c-0.792,1.351-0.267,2.963,0.993,3.787c1.351,0.883,2.827,1.597,4.352,2.124
		c1.426,0.494,3.024-0.55,3.405-1.933c0.42-1.526-0.509-2.912-1.933-3.405C73.991,36.745,73.594,36.588,73.497,36.555z"/>
	<path fill="#1D1D1B" d="M47.75,38.22c-0.369,0.369-0.738,0.738-1.107,1.107c-1.066,1.066-1.066,2.848,0,3.915
		c1.066,1.066,2.848,1.066,3.915,0c0.369-0.369,0.738-0.738,1.107-1.107c1.066-1.066,1.066-2.848,0-3.915
		C50.598,37.154,48.816,37.154,47.75,38.22z"/>
</g>
</svg>
