<?xml version="1.0" encoding="utf-8"?>
<!-- Generator: Adobe Illustrator 17.0.2, SVG Export Plug-In . SVG Version: 6.00 Build 0)  -->
<!DOCTYPE svg PUBLIC "-//W3C//DTD SVG 1.1//EN" "http://www.w3.org/Graphics/SVG/1.1/DTD/svg11.dtd">
<svg version="1.1" id="Capa_1" xmlns="http://www.w3.org/2000/svg" xmlns:xlink="http://www.w3.org/1999/xlink" x="0px" y="0px"
	 width="100px" height="100px" viewBox="0 0 100 100" enable-background="new 0 0 100 100" xml:space="preserve">
<g>
	<path fill="#1D1D1B" d="M45.616,12.198c-0.669-3.591-6.132-2.066-5.466,1.507c0.688,3.692-0.17,6.541-2.336,8.71
		c-0.01-3.438-0.026-6.875-0.033-10.314c-0.006-3.655-5.675-3.656-5.669,0c0.006,3.297,0.025,6.594,0.039,9.89
		c-1.512-2.953-1.967-6.303-1.456-10.173c0.477-3.616-5.198-3.57-5.669,0c-0.994,7.531,1.458,14.252,7.107,19.175
		c-0.03,3.709-0.089,8.552-0.246,12.26c-0.258,0.316-0.45,0.724-0.524,1.258c-1.889,13.557-5.365,30.565-3.401,44.308
		c0.142,0.992,0.664,1.583,1.327,1.861c0.329,0.338,0.735,0.594,1.22,0.685c1.571,0.296,3.128,0.384,4.722,0.385
		c0.049,0,0.094-0.012,0.142-0.015c0.048,0.002,0.093,0.015,0.142,0.015c1.583-0.001,3.17-0.03,4.722-0.385
		c0.289-0.066,0.545-0.194,0.782-0.348c0.839-0.415,1.498-1.206,1.582-2.385c1.005-14.118-1.947-31.531-4.92-45.255
		c-0.03-0.137-0.071-0.261-0.113-0.383c0.161-3.888,0.217-8.91,0.242-12.799c0.087-0.272,0.101-0.553,0.079-0.835
		C44.401,25.802,46.995,19.6,45.616,12.198z M37.069,86.063c-0.519,0.015-1.038,0.018-1.556,0.018c-0.048,0-0.094,0.012-0.142,0.015
		c-0.048-0.003-0.093-0.015-0.142-0.015c-0.57,0-1.14-0.003-1.711-0.022c-0.08-0.003-0.16-0.011-0.24-0.016
		c-0.947-8.205,0.225-19.883,1.603-28.079C36.367,66.126,37.38,77.757,37.069,86.063z"/>
	<path fill="#1D1D1B" d="M66.745,11.228c0.023-0.19,0.022-0.381-0.003-0.573c-0.026-1.352-0.949-2.117-2-2.286
		c-0.536-0.135-1.135-0.098-1.753,0.222c-13.849,7.159-13.081,28.43-2.256,37.926c0.241,0.212,0.496,0.353,0.753,0.459
		c-0.044,2.243-0.096,4.485-0.17,6.725c-0.366,0.293-0.636,0.743-0.725,1.384c-1.666,11.958-4.732,23.958-3,36.079
		c0.125,0.875,0.585,1.396,1.17,1.642c0.29,0.298,0.648,0.524,1.076,0.604c1.386,0.261,2.759,0.339,4.165,0.339
		c0.043,0,0.083-0.011,0.125-0.013c0.042,0.002,0.082,0.013,0.125,0.013c1.396,0,2.796-0.026,4.165-0.339
		c0.255-0.058,0.481-0.171,0.69-0.307c0.74-0.366,1.322-1.064,1.396-2.103c0.873-12.256-1.636-24.421-4.216-36.342
		C66.795,40.204,66.562,25.69,66.745,11.228z M61.585,39.993c-5.016-7.002-5.725-17.941,0.114-24.198
		C61.638,23.855,61.664,31.927,61.585,39.993z M65.623,88.734c-0.457,0.014-0.916,0.016-1.373,0.016
		c-0.043,0-0.083,0.011-0.125,0.013C64.083,88.761,64.043,88.75,64,88.75c-0.503,0-1.006-0.003-1.509-0.02
		c-0.071-0.002-0.141-0.01-0.212-0.014c-0.835-7.237,0.198-14.537,1.414-21.765C65.004,74.149,65.897,81.408,65.623,88.734z"/>
</g>
</svg>
