<?xml version="1.0" encoding="iso-8859-1"?>
<!-- Generator: Adobe Illustrator 17.0.2, SVG Export Plug-In . SVG Version: 6.00 Build 0)  -->
<!DOCTYPE svg PUBLIC "-//W3C//DTD SVG 1.1//EN" "http://www.w3.org/Graphics/SVG/1.1/DTD/svg11.dtd">
<svg version="1.1" id="Capa_1" xmlns="http://www.w3.org/2000/svg" xmlns:xlink="http://www.w3.org/1999/xlink" x="0px" y="0px"
	 width="100px" height="100px" viewBox="0 0 100 100" style="enable-background:new 0 0 100 100;" xml:space="preserve">
<g>
	<path style="fill:#1D1D1B;" d="M36.062,7.592C0.85,12.871-4.001,63.246,20.599,83.239c-2.095,1.006-4.198,1.997-6.319,2.948
		c-2.824,1.266-3.472,5.313-2.036,7.764c1.687,2.879,4.94,3.301,7.764,2.036c5.175-2.32,10.251-4.842,15.321-7.377
		c1.299-0.649,2.088-1.56,2.508-2.569c1.154-1.382,1.551-3.316,1.234-5.258c-0.743-4.581-1.223-9.18-1.499-13.812
		c-0.435-7.271-11.787-7.314-11.349,0c0.125,2.093,0.308,4.179,0.519,6.262C10.194,57.526,13.229,22.411,39.079,18.535
		C46.298,17.453,43.219,6.519,36.062,7.592z"/>
	<path style="fill:#1D1D1B;" d="M74.382,17.537c2.095-1.006,4.198-1.997,6.32-2.948c2.823-1.266,3.471-5.313,2.035-7.764
		c-1.687-2.879-4.94-3.301-7.764-2.036c-5.174,2.32-10.25,4.842-15.32,7.377c-1.299,0.649-2.088,1.56-2.509,2.569
		c-1.154,1.382-1.55,3.316-1.234,5.258c0.744,4.581,1.223,9.18,1.5,13.812c0.435,7.271,11.786,7.314,11.349,0
		c-0.125-2.093-0.308-4.179-0.519-6.262C84.787,43.25,81.751,78.365,55.901,82.24c-7.218,1.082-4.14,12.016,3.017,10.943
		C94.131,87.905,98.981,37.53,74.382,17.537z"/>
</g>
</svg>
