<?xml version="1.0" encoding="iso-8859-1"?>
<!-- Generator: Adobe Illustrator 17.0.2, SVG Export Plug-In . SVG Version: 6.00 Build 0)  -->
<!DOCTYPE svg PUBLIC "-//W3C//DTD SVG 1.1//EN" "http://www.w3.org/Graphics/SVG/1.1/DTD/svg11.dtd">
<svg version="1.1" id="Capa_1" xmlns="http://www.w3.org/2000/svg" xmlns:xlink="http://www.w3.org/1999/xlink" x="0px" y="0px"
	 width="100px" height="100px" viewBox="0 0 100 100" style="enable-background:new 0 0 100 100;" xml:space="preserve">
<g>
	<path style="fill:#1D1D1B;" d="M73.573,12.736c-4.578-1.92-9.569-3.188-14.281-4.272c-4.633-1.066-9.433-1.606-14.267-1.606
		c-4.931,0-9.891,0.562-14.743,1.668c-5.218,1.19-10.69,3.317-15.825,6.151c-1.696,0.935-1.744,2.391-1.621,3.175l0.013,0.082
		l-0.015,0.082c-0.046,0.265-0.065,0.512-0.056,0.755c0.722,20.116,0.782,40.072,0.783,62.203c0,0.349,0.055,0.69,0.174,1.074
		l0.021,0.113c0.051,0.751,0.438,1.412,1.148,1.966c9.091,7.077,21.205,11.136,33.234,11.136c6.282,0,12.191-1.093,17.564-3.249
		c4.913-1.972,9.823-4.772,13.825-7.887c0.711-0.554,1.098-1.215,1.149-1.966l0.021-0.112c0.118-0.386,0.173-0.727,0.173-1.075
		c0-16.614,0.03-32.858,0.396-48.93c0.033-1.445,0.164-2.949,0.302-4.542c0.259-2.989,0.527-6.081,0.104-8.75
		C81.395,16.995,78.367,14.746,73.573,12.736z M23.388,17.952c6.851-2.856,14.167-4.305,21.747-4.305
		c8.262,0,16.48,1.699,24.427,5.05l0.912,0.385l-0.851,0.506c-6.103,3.629-13.519,5.547-21.444,5.547
		c-8.516,0-17.336-2.23-24.836-6.281l-0.922-0.498L23.388,17.952z M74.067,74.662c-0.008,1.623-0.017,3.245-0.017,4.868
		c0,0.898-1.323,2.081-7.776,4.936l-0.379,0.169c-2.938,1.325-6.032,2.287-9.196,2.857c-2.574,0.463-5.187,0.744-7.765,0.836
		c-0.633,0.022-1.268,0.034-1.901,0.034c-3.492,0-6.924-0.348-10.201-1.032c-2.891-0.604-5.682-1.508-8.297-2.687l-0.319-0.143
		c-6.885-3.057-7.834-4.195-7.834-4.971c0-1.565-0.009-3.13-0.018-4.694l-0.017-4.18L21.064,71
		c8.645,4.14,17.953,6.327,26.918,6.327c9.075,0,17.607-2.149,25.36-6.389l0.742-0.406L74.067,74.662z M74.139,56.509
		c-0.008,1.059-0.01,2.117-0.013,3.175l-0.01,2.812l-0.222,0.147c-7.872,5.237-16.66,7.894-26.122,7.894
		c-8.807,0-17.911-2.41-26.327-6.971c-0.247-0.134-0.499-0.236-0.77-0.314l-0.36-0.103l-0.014-3.652
		c-0.004-1.465-0.008-2.931-0.02-4.396l-0.005-0.702l0.665,0.225c10.772,3.633,20.909,5.475,30.129,5.475
		c7.956,0,15.488-1.365,22.387-4.059l0.687-0.269L74.139,56.509z M74.311,40.544c-0.025,1.528-0.039,3.057-0.052,4.585l-0.032,3.18
		l-0.281,0.134c-6.852,3.263-14.499,4.918-22.729,4.918c-9.167,0-19.207-1.989-30.695-6.079l-0.328-0.117l-0.033-3.151
		c-0.013-1.498-0.026-2.996-0.053-4.493l-0.015-0.844l0.747,0.392c8.252,4.331,17.671,6.62,27.239,6.62
		c8.78,0,17.605-1.939,25.521-5.607l0.724-0.335L74.311,40.544z M74.649,25.25c-0.041,1.417-0.071,2.833-0.102,4.25l-0.054,2.458
		l-0.25,0.139c-7.992,4.435-17.035,6.779-26.151,6.78c-0.001,0-0.002,0-0.002,0c-9.79,0-19.282-2.693-27.453-7.788
		c-0.109-0.068-0.218-0.115-0.326-0.164l-0.4-0.184l-0.05-2.241c-0.02-0.962-0.04-1.925-0.068-2.888l-0.024-0.865l0.762,0.411
		c8.141,4.39,17.448,6.71,26.916,6.711c9.657,0,18.802-2.442,26.444-7.062l0.785-0.475L74.649,25.25z"/>
</g>
</svg>
