<?xml version="1.0" encoding="iso-8859-1"?>
<!-- Generator: Adobe Illustrator 17.0.2, SVG Export Plug-In . SVG Version: 6.00 Build 0)  -->
<!DOCTYPE svg PUBLIC "-//W3C//DTD SVG 1.1//EN" "http://www.w3.org/Graphics/SVG/1.1/DTD/svg11.dtd">
<svg version="1.1" id="Capa_1" xmlns="http://www.w3.org/2000/svg" xmlns:xlink="http://www.w3.org/1999/xlink" x="0px" y="0px"
	 width="100px" height="100px" viewBox="0 0 100 100" style="enable-background:new 0 0 100 100;" xml:space="preserve">
<g>
	<path style="fill:#1D1D1B;" d="M90.521,18.366c-4.611-3.764-8.866-7.862-13.225-11.866c-1.185-1.088-2.629-1.063-3.745-0.468
		c-0.974,0.52-2.019,2.037-2.757,2.859c-6.51,7.235-13.204,14.301-20.68,20.693c-0.839,0.718-2.126,0.62-2.849-0.215
		c-6.317-7.297-11.852-15.105-17.23-23.01c-0.726-1.067-1.818-1.456-2.879-1.384c-1.103,0.075-2.223,0.699-2.616,0.878
		c-0.229,0.103-0.453,0.235-0.671,0.4c-4.685,3.55-9.564,6.863-14.457,10.166c-0.073,0.049-0.14,0.102-0.203,0.155
		c-0.108,0.092-1.068,0.571-1.635,1.519c-0.614,1.026-0.669,2.35,0.372,3.479c7.998,8.672,15.53,17.693,23.496,26.389
		c0.746,0.814,0.661,2.037-0.178,2.755c-9.162,7.841-16.675,17.193-26.52,24.391c-0.578,0.423-0.911,0.904-1.05,1.396
		c-0.267,0.946,0.243,2.219,0.533,2.733c0.158,0.28,0.384,0.553,0.689,0.811c4.535,3.84,8.709,8.008,12.986,12.083
		c1.164,1.109,2.61,1.107,3.738,0.529c0.982-0.504,2.054-2.001,2.808-2.808c6.654-7.128,13.488-14.083,21.092-20.352
		c0.852-0.703,2.135-0.583,2.843,0.266c6.171,7.401,11.549,15.299,16.771,23.291c0.705,1.079,1.79,1.486,2.853,1.431
		c1.103-0.057,2.234-0.662,2.632-0.834c0.23-0.1,0.457-0.227,0.678-0.389c4.755-3.472,9.699-6.703,14.657-9.924
		c0.074-0.049,0.142-0.1,0.207-0.153c0.109-0.09,1.076-0.552,1.662-1.488c0.635-1.016,0.717-2.34-0.303-3.487
		c-7.91-8.899-15.338-18.146-23.224-27.061c-0.732-0.827-0.643-2.071,0.186-2.801C73.625,40.313,81,30.732,90.791,23.303
		c0.57-0.433,0.894-0.919,1.022-1.413c0.248-0.95-0.288-2.214-0.588-2.724C91.062,18.889,90.832,18.62,90.521,18.366z M82.427,22.18
		C73.4,29.949,66.158,39.31,56.795,46.794c-0.407,0.326-0.683,0.678-0.848,1.041c-0.31,0.681-0.349,1.96-0.14,2.699
		c0.115,0.407,0.336,0.811,0.686,1.196c7.841,8.611,15.122,17.627,22.725,26.412c0.723,0.835,0.562,1.999-0.36,2.605
		c-2.761,1.814-5.504,3.65-8.207,5.535c-0.906,0.632-2.13,0.403-2.744-0.515c-4.855-7.263-9.944-14.377-15.667-21.097
		c-0.716-0.841-1.646-2.415-2.558-3.038c-1.143-0.781-2.785-0.996-4.183,0.06c-8.886,6.713-16.647,14.425-24.139,22.392
		c-0.757,0.805-2.012,0.837-2.809,0.073c-1.823-1.749-3.656-3.489-5.532-5.191c-0.817-0.742-0.785-1.889,0.065-2.594
		c9.18-7.619,16.606-16.859,26.116-24.187c0.38-0.292,0.648-0.609,0.824-0.938c0.328-0.612,0.416-1.842,0.189-2.558
		c-0.126-0.394-0.352-0.784-0.7-1.153c-8.011-8.48-15.469-17.375-23.244-26.033c-0.738-0.822-0.599-1.988,0.313-2.611
		c2.723-1.859,5.428-3.738,8.091-5.667c0.895-0.648,2.123-0.442,2.754,0.465c4.999,7.183,10.229,14.213,16.086,20.839
		c0.731,0.828,1.69,2.383,2.612,2.991c1.158,0.763,2.806,0.952,4.183-0.127c8.751-6.858,16.357-14.697,23.689-22.786
		c0.742-0.818,1.997-0.874,2.808-0.124c1.858,1.72,3.728,3.43,5.637,5.101C83.275,20.312,83.265,21.459,82.427,22.18z"/>
</g>
</svg>
