<?xml version="1.0" encoding="iso-8859-1"?>
<!-- Generator: Adobe Illustrator 17.0.2, SVG Export Plug-In . SVG Version: 6.00 Build 0)  -->
<!DOCTYPE svg PUBLIC "-//W3C//DTD SVG 1.1//EN" "http://www.w3.org/Graphics/SVG/1.1/DTD/svg11.dtd">
<svg version="1.1" id="Capa_1" xmlns="http://www.w3.org/2000/svg" xmlns:xlink="http://www.w3.org/1999/xlink" x="0px" y="0px"
	 width="100px" height="100px" viewBox="0 0 100 100" style="enable-background:new 0 0 100 100;" xml:space="preserve">
<g>
	<path style="fill:#1E1E1C;" d="M93.949,31.558c-0.068-0.927-0.625-1.524-1.307-1.802c-0.281-0.161-0.615-0.264-1.018-0.264
		c-1.071-0.001-2.142-0.011-3.213-0.014c-0.114-1.577-0.385-3.14-0.76-4.678c-0.265-1.087-1.142-1.5-2-1.416
		c-0.133-0.029-0.274-0.048-0.426-0.051c-12.653-0.247-25.306-0.457-37.958-0.015c-0.373-0.969-0.75-1.871-1.13-2.55
		c-0.294-0.526-0.706-0.817-1.149-0.94c-0.304-0.21-0.684-0.342-1.151-0.342c-8.771,0-22.707-0.024-31.475-0.203
		c-0.315-0.195-0.68-0.314-1.071-0.314H7.676c-0.992,0-1.838,0.729-2.026,1.672c-0.154,0.258-0.265,0.557-0.299,0.911
		c-1.68,17.55,0.424,42.283,0.258,59.857c-0.013,1.404,1.125,2.06,2.211,1.985c0.119,0.034,0.24,0.066,0.372,0.081
		c25.984,3.044,57.319,3.376,83.433,4.391c1.182,0.046,1.835-0.742,1.967-1.641c0.226-0.31,0.362-0.709,0.357-1.2
		C93.762,68.919,95.13,47.65,93.949,31.558z M84.109,27.308c0.134,0.713,0.239,1.428,0.3,2.151
		c-11.667-0.068-23.333-0.256-34.998-0.464c-0.223-0.489-0.456-1.085-0.695-1.726C60.512,26.903,72.311,27.08,84.109,27.308z
		 M89.814,83.668c-24.993-0.943-55.196-1.34-80.069-4.151c0.009-16.346-1.739-39.849-0.41-56.173
		c0.05,0.004,0.095,0.017,0.148,0.018c9.45,0.232,24.068,0.256,33.521,0.258c1.062,1.868,2.156,5.725,2.974,7.714
		c0.162,0.393,0.394,0.74,0.685,1.004c0.332,0.444,0.849,0.759,1.566,0.771c13.905,0.248,27.81,0.481,41.718,0.509
		C90.85,48.571,89.719,68.7,89.814,83.668z"/>
	<path style="fill:#1E1E1C;" d="M68.306,67.49c-2.935-3.244-5.851-6.502-8.669-9.847l8.519-8.519
		c0.946-0.946,0.646-2.156-0.115-2.86c-0.067-0.117-0.145-0.233-0.241-0.344c-2.079-2.424-4.33-4.685-6.587-6.943
		c-2.032-2.033-4.149,1.941-5.416,3.119c-2.583,2.402-3.346,3.077-5.928,5.479c-2.384-2.402-5.476-5.563-7.735-8.083
		c-0.54-0.602-1.186-0.739-1.768-0.587c-0.484-0.025-0.99,0.14-1.437,0.587l-5.875,5.875c-0.912,0.912-0.668,2.071,0.032,2.785
		c0.086,0.144,0.189,0.285,0.324,0.42c2.571,2.571,4.855,5.896,7.31,8.577c-3.098,3.339-5.278,6.602-8.354,9.962
		c-1.119,1.222-0.357,2.825,0.795,3.324c1.774,2.069,3.688,4.007,5.614,5.934c0.713,0.713,1.576,0.715,2.26,0.35
		c0.266-0.099,0.526-0.265,0.767-0.528c3.02-3.312,6.161-6.504,9.324-9.676c2.693,3.231,5.488,6.371,8.301,9.498
		c0.75,0.833,1.702,0.774,2.407,0.285c0.333-0.061,0.666-0.201,0.976-0.463c2.248-1.9,3.617-3.225,5.852-5.14
		c1.034-0.885,0.736-2.079-0.058-2.78C68.525,67.769,68.43,67.627,68.306,67.49z M61.165,71.924
		c-2.833-3.157-5.643-6.333-8.325-9.621c-0.553-0.677-1.238-0.794-1.845-0.585c-0.46-0.004-0.937,0.162-1.359,0.585
		c-3.204,3.205-6.393,6.423-9.477,9.743c-1.184-1.199-2.337-2.428-3.456-3.688c3.053-3.276,5.177-6.485,8.194-9.794
		c0.857-0.941,0.604-2.107-0.08-2.824c-0.074-0.13-0.165-0.257-0.276-0.381c-2.411-2.691-4.668-6.007-7.216-8.566l3.154-3.154
		c2.444,2.657,5.713,5.962,8.27,8.519c2.842,2.833,10.299-9.645,11.364-8.564c1.304,1.323,2.595,2.657,3.834,4.041l-8.104,8.103
		c-0.175,0.175-0.295,0.361-0.39,0.549c-0.538,0.726-0.691,1.776,0.034,2.656c2.865,3.475,5.859,6.837,8.875,10.18
		C63.05,70.3,62.486,70.757,61.165,71.924z"/>
</g>
</svg>
