<?xml version="1.0" encoding="iso-8859-1"?>
<!-- Generator: Adobe Illustrator 17.0.2, SVG Export Plug-In . SVG Version: 6.00 Build 0)  -->
<!DOCTYPE svg PUBLIC "-//W3C//DTD SVG 1.1//EN" "http://www.w3.org/Graphics/SVG/1.1/DTD/svg11.dtd">
<svg version="1.1" id="Capa_1" xmlns="http://www.w3.org/2000/svg" xmlns:xlink="http://www.w3.org/1999/xlink" x="0px" y="0px"
	 width="100px" height="100px" viewBox="0 0 100 100" style="enable-background:new 0 0 100 100;" xml:space="preserve">
<g>
	<path style="fill:#1E1E1C;" d="M81.654,26.034c-0.189-5.747-0.295-11.511-0.238-17.261c0.002-0.256-0.039-0.482-0.097-0.695
		c0.113-1.253-0.624-2.576-2.229-2.534C58.834,6.075,38.583,5.282,18.326,5.25c-1.686-0.003-2.423,1.478-2.215,2.777
		C16.043,8.253,15.997,8.496,16,8.773c0.306,24.171,1.136,58.901,1.163,83.076c0,0.542,0.154,0.983,0.4,1.331
		c0.149,1.025,0.885,1.931,2.217,1.898c8.755-0.217,17.514-0.358,26.263-0.787c7.797-0.382,17.514,0.13,24.967-2.415
		c2.638-0.901,5-2.234,7.023-4.162c3.699-3.526,4.962-8.26,5.28-13.248c0.307-4.791-0.258-9.816-0.37-14.23
		C82.654,48.833,82.029,37.435,81.654,26.034z M68.837,71.148c-1.425,0.008-2.803,1.121-2.166,2.831
		c1.281,3.439,1.867,7.71-0.103,10.999c-2.383,3.978-6.634,3.87-10.675,4.38c-2.472,0.311-5.099,0.146-7.591,0.217
		c-1.938,0.055-26.494,0.653-26.494,0.749C21.75,67.053,20.981,33.226,20.669,9.96c18.702,0.081,37.398,0.723,56.099,0.323
		c-0.063,17.103,1.609,44.72,1.723,61.817c-2.901-0.915-5.899-1.302-8.996-1.095C69.254,71.022,69.039,71.077,68.837,71.148z
		 M70.664,87.051c1.878-3.2,2.347-7.128,1.37-11.384c2.262,0.088,4.492,0.524,6.604,1.42c0.009,0.027,0.015,0.055,0.025,0.081
		C77.978,82.212,74.787,85.306,70.664,87.051z"/>
	<path style="fill:#1E1E1C;" d="M72.97,53.069c0.038-0.152,0.063-0.313,0.063-0.491c0-2.437,0.028-4.869,0.235-7.299
		c0.106-1.244-0.837-1.839-1.807-1.802c-0.168-0.047-0.346-0.081-0.547-0.081H30.181c-1.558,0-2.111,1.547-1.671,2.658
		c-0.046,0.271-0.029,0.571,0.09,0.903c0.626,1.748-0.039,3.548,0.168,5.385c0.115,1.02,0.771,1.884,1.884,1.884
		c0.081,0,0.163-0.015,0.244-0.027c0.075,0.01,0.146,0.025,0.227,0.027c13.028,0.247,26.995,0.686,40.026,0.706
		C72.357,54.935,72.963,54.005,72.97,53.069z M69.276,51.149c-12.012-0.055-24.96-0.428-36.969-0.665
		c-0.152-1.12,0.598-2.232,0.301-3.322h36.767C69.307,48.491,69.286,49.82,69.276,51.149z"/>
</g>
</svg>
