<?xml version="1.0" encoding="iso-8859-1"?>
<!-- Generator: Adobe Illustrator 17.0.2, SVG Export Plug-In . SVG Version: 6.00 Build 0)  -->
<!DOCTYPE svg PUBLIC "-//W3C//DTD SVG 1.1//EN" "http://www.w3.org/Graphics/SVG/1.1/DTD/svg11.dtd">
<svg version="1.1" id="Capa_1" xmlns="http://www.w3.org/2000/svg" xmlns:xlink="http://www.w3.org/1999/xlink" x="0px" y="0px"
	 width="100px" height="100px" viewBox="0 0 100 100" style="enable-background:new 0 0 100 100;" xml:space="preserve">
<g>
	<path style="fill:#1E1E1C;" d="M28.127,37.109c3.047,2.16,6.497,3.301,9.977,3.301c4.555,0,9.042-1.915,12.633-5.393
		c0.958-0.928,1.96-2.013,2.229-2.333c0.117-0.14,0.224-0.301,0.316-0.476c3.45-6.516,2.873-13.256-1.582-18.491
		c-1.057-1.242-1.994-2.295-2.331-2.621c-0.173-0.167-0.386-0.316-0.631-0.442c-3.101-1.595-6.241-2.404-9.333-2.404
		c-4.25,0-8.354,1.507-12.196,4.478c-0.173,0.134-0.321,0.28-0.439,0.432c-0.274,0.353-1.16,1.563-1.951,2.723
		C19.709,23.379,21.07,32.107,28.127,37.109z M30.339,16.88c0.078-0.083,0.148-0.17,0.212-0.258c0.27-0.374,1.428-1.382,2.772-2.057
		c2.94-1.477,6.229-1.794,9.507-0.92c1.537,0.41,3.662,1.722,4.735,2.925c2.775,3.108,3.651,6.726,2.534,10.461
		c-0.42,1.405-1.105,2.651-1.339,2.898c-2.546,3.419-6.11,5.274-10.081,5.274c-4.848,0-9.448-2.82-11.186-6.859
		C26.56,26.173,25.686,21.795,30.339,16.88z"/>
	<path style="fill:#1E1E1C;" d="M71.318,54.6c-0.074-0.765-0.182-1.552-0.321-2.334c-1.444,0.008-2.91,0.014-4.406,0.018
		c0.158,0.61,0.237,1.257,0.274,1.953c0.126,2.336,0.312,4.669,0.427,7.005c0.23,4.716,0.38,9.433,0.496,14.153
		c0.065,2.673,0.089,5.347,0.102,8.021c-3.157,0.003-6.312,0.036-9.466,0.199c-0.17-6.761-0.514-15.238-0.798-20.309
		c-0.155-2.775-4.484-2.79-4.328,0c0.353,6.302,0.801,17.889,0.889,24.875c-9.916-0.037-19.831-0.193-29.747-0.227
		c-0.031-6.96-0.162-18.162-0.174-24.288c-0.005-2.791-4.333-2.791-4.328,0c0.009,4.56,0.084,11.939,0.135,18.284
		c-3.497,0.161-6.997,0.197-10.497,0.203c-0.489-9.718-0.113-19.432,0.081-29.156c0.881-1.817,2.274-3.14,4.211-3.778
		c6.137-0.647,12.306-0.912,18.474-1.002c6.191-0.09,12.383,0.003,18.573,0.068c0.599,0.006,1.198-0.001,1.797-0.001
		c-0.005-0.05-0.02-0.096-0.023-0.147l-0.298-4.165c-2.937-0.028-5.874-0.065-8.811-0.091c-6.372-0.056-12.748-0.054-19.115,0.232
		c-3.574,0.161-7.145,0.409-10.703,0.787c-0.273-0.031-0.57-0.009-0.891,0.089c-3.094,0.945-5.72,3.069-7.064,6.044
		c-0.124,0.275-0.204,0.56-0.239,0.844c-0.141,0.274-0.23,0.594-0.237,0.969c-0.203,10.345-0.633,20.677,0,31.016
		c0.055,0.89,0.54,1.492,1.165,1.813c0.32,0.304,0.758,0.506,1.329,0.506c4.094,0,8.186-0.018,12.275-0.207
		c0.009,1.373,0.015,2.647,0.017,3.746c0.001,0.382,0.088,0.706,0.228,0.984c0.246,0.702,0.852,1.263,1.82,1.264
		c11.573,0.013,23.145,0.238,34.718,0.252c1.811,0.002,2.354-1.952,1.639-3.138c-0.004-0.457-0.01-0.942-0.017-1.445
		c3.314-0.169,6.631-0.196,9.951-0.197c0.524,0,0.937-0.169,1.25-0.431c1.189,0.177,2.529-0.509,2.526-2.063
		c-0.014-6.773-0.285-13.524-0.495-20.292C71.635,61.305,71.639,57.937,71.318,54.6z"/>
	<path style="fill:#1E1E1C;" d="M94.15,35.21c-0.198-0.06-0.414-0.097-0.654-0.097c-0.066,0-0.134,0.003-0.203,0.009
		c-9.753,0.824-17.819,0.933-26.758,0.933c-2.909,0-5.91-0.012-9.093-0.014c0,0-0.001,0-0.002,0c-0.298,0-0.559,0.057-0.797,0.141
		c-0.171-0.033-0.345-0.05-0.518-0.05c-1.146,0-2.237,0.731-2.132,2.208l0.402,5.63l0.288,4.026
		c0.007,0.102,0.031,0.193,0.048,0.288c0.225,1.221,1.25,1.862,2.278,1.914c0.204,0.057,0.419,0.097,0.663,0.097
		c2.764,0,5.391-0.001,7.946-0.007c1.662-0.004,3.294-0.01,4.906-0.018c7.732-0.042,15.071-0.15,23.687-0.434
		c1.197-0.039,1.903-0.819,2.132-1.724c0.126-0.292,0.194-0.634,0.167-1.035c-0.213-3.216-0.23-6.434-0.23-9.655
		C96.281,36.01,95.241,35.279,94.15,35.21z M66.977,45.682c-2.51,0.008-5.102,0.012-7.859,0.012
		c-0.043-0.599-0.086-1.198-0.128-1.797c-0.078-1.086-0.155-2.171-0.233-3.256c2.57,0.003,5.003,0.01,7.356,0.01
		c8.622,0,16.183-0.095,25.578-0.815c0.012,1.822,0.059,3.642,0.142,5.462C82.686,45.566,75.306,45.654,66.977,45.682z"/>
</g>
</svg>
