<?xml version="1.0" encoding="iso-8859-1"?>
<!-- Generator: Adobe Illustrator 17.0.2, SVG Export Plug-In . SVG Version: 6.00 Build 0)  -->
<!DOCTYPE svg PUBLIC "-//W3C//DTD SVG 1.1//EN" "http://www.w3.org/Graphics/SVG/1.1/DTD/svg11.dtd">
<svg version="1.1" id="Capa_1" xmlns="http://www.w3.org/2000/svg" xmlns:xlink="http://www.w3.org/1999/xlink" x="0px" y="0px"
	 width="100px" height="100px" viewBox="0 0 100 100" style="enable-background:new 0 0 100 100;" xml:space="preserve">
<g>
	<path style="fill:#1E1E1C;" d="M95.045,31.558c-0.068-0.927-0.625-1.524-1.307-1.802c-0.281-0.161-0.615-0.264-1.018-0.264
		c-1.071-0.001-2.142-0.011-3.213-0.014c-0.114-1.577-0.385-3.14-0.76-4.678c-0.265-1.087-1.142-1.5-2-1.416
		c-0.133-0.029-0.274-0.048-0.426-0.051c-12.653-0.247-25.306-0.457-37.957-0.015c-0.373-0.969-0.75-1.871-1.13-2.55
		c-0.294-0.526-0.706-0.817-1.149-0.94c-0.304-0.21-0.684-0.342-1.151-0.342c-8.771,0-22.707-0.024-31.475-0.203
		c-0.315-0.195-0.68-0.314-1.071-0.314H8.771c-0.992,0-1.838,0.729-2.026,1.672C6.592,20.901,6.48,21.2,6.447,21.553
		c-1.68,17.55,0.423,42.283,0.258,59.857c-0.013,1.404,1.125,2.06,2.211,1.985c0.119,0.034,0.239,0.066,0.372,0.081
		c25.984,3.044,57.319,3.376,83.433,4.391c1.182,0.046,1.835-0.742,1.967-1.641c0.226-0.31,0.362-0.709,0.357-1.2
		C94.858,68.919,96.225,47.65,95.045,31.558z M85.205,27.308c0.135,0.713,0.239,1.428,0.3,2.151
		c-11.667-0.068-23.333-0.256-34.998-0.464c-0.223-0.489-0.456-1.085-0.695-1.726C61.607,26.903,73.406,27.08,85.205,27.308z
		 M90.91,83.668c-24.992-0.943-55.195-1.34-80.068-4.151c0.009-16.346-1.739-39.849-0.41-56.173c0.05,0.004,0.095,0.017,0.148,0.018
		c9.45,0.232,24.067,0.256,33.52,0.258c1.062,1.868,2.157,5.725,2.974,7.714c0.162,0.393,0.394,0.74,0.685,1.004
		c0.332,0.444,0.849,0.759,1.566,0.771c13.905,0.248,27.81,0.481,41.718,0.509C91.946,48.571,90.814,68.7,90.91,83.668z"/>
	<path style="fill:#1E1E1C;" d="M73.581,50.586C73.403,50.536,73.213,50.5,73,50.5H29.75c-1.654,0-2.242,1.642-1.774,2.822
		c-0.049,0.288-0.031,0.607,0.096,0.959c0.666,1.856-0.041,3.767,0.179,5.718c0.122,1.083,0.818,2,2,2
		c0.086,0,0.173-0.015,0.259-0.028c0.08,0.01,0.155,0.027,0.241,0.028c13.833,0.262,28.663,0.728,42.5,0.75
		c1.282,0.002,1.926-0.985,1.933-1.979c0.04-0.161,0.067-0.332,0.067-0.521c0-2.588,0.03-5.17,0.25-7.75
		C75.612,51.179,74.611,50.547,73.581,50.586z M71.261,58.733c-12.754-0.058-26.502-0.454-39.254-0.706
		c-0.161-1.19,0.634-2.37,0.32-3.527h39.039C71.293,55.91,71.271,57.321,71.261,58.733z"/>
</g>
</svg>
