<?xml version="1.0" encoding="iso-8859-1"?>
<!-- Generator: Adobe Illustrator 17.0.2, SVG Export Plug-In . SVG Version: 6.00 Build 0)  -->
<!DOCTYPE svg PUBLIC "-//W3C//DTD SVG 1.1//EN" "http://www.w3.org/Graphics/SVG/1.1/DTD/svg11.dtd">
<svg version="1.1" id="Capa_1" xmlns="http://www.w3.org/2000/svg" xmlns:xlink="http://www.w3.org/1999/xlink" x="0px" y="0px"
	 width="100px" height="100px" viewBox="0 0 100 100" style="enable-background:new 0 0 100 100;" xml:space="preserve">
<g>
	<path style="fill:#1D1D1B;" d="M73.741,33.779c-4.406,0-8.567,1.414-12.084,4.097C58.948,26.518,48.24,18.357,35.875,18.357
		c-1.001,0-2.015,0.055-3.012,0.164c-7.08,0.772-12.644,4.628-15.667,10.855c-3.178,6.546-2.859,14.462,0.788,20.885
		c-0.124-0.002-0.248-0.004-0.372-0.004c-7.915,0-13.937,5.264-14.984,13.099c-0.493,3.687,0.418,6.882,2.709,9.5
		c3.837,4.384,10.54,5.946,15.534,5.946c1.149,0,2.273-0.078,3.268-0.223c0.095,0.013,0.19,0.024,0.294,0.024
		c16.86,0,35.97,0,54.809-0.259c0.184-0.003,0.37-0.025,0.564-0.07c0.266,0.037,0.543,0.04,0.845-0.012
		c6.255-1.087,11.246-4.607,14.053-9.913c3.164-5.979,3.212-13.61,0.13-20.415C90.999,39.468,82.521,33.779,73.741,33.779z
		 M23.465,56.2c1.18,0.188,2.432-0.568,2.889-1.718c0.368-0.925,0.133-1.906-0.627-2.624c-5.274-4.98-7.054-12.038-4.647-18.418
		c2.261-5.992,7.638-9.711,14.386-9.949c11.867-0.41,21.688,8.754,21.713,20.072c0.003,1.645,1.297,2.505,2.573,2.505
		c1.148,0,2.09-0.636,2.433-1.631c3.222-3.599,7.285-5.5,11.755-5.5c6.984,0,13.626,4.761,16.528,11.847
		c2.171,5.299,2.059,10.822-0.308,15.149c-2.117,3.871-5.758,6.389-10.534,7.284c-0.118-0.017-0.222-0.03-0.398-0.027
		c-18.829,0.26-37.937,0.26-54.794,0.26c-0.182,0-0.36,0.018-0.542,0.055c-0.194-0.013-0.396-0.008-0.609,0.025
		c-0.993,0.16-2.021,0.241-3.057,0.241c-5.733,0-12.446-2.507-12.497-9.57c-0.016-2.278,0.772-4.286,2.281-5.805
		c1.853-1.866,4.684-2.937,7.767-2.937c1.16,0,2.293,0.153,3.371,0.458c0.187,0.053,0.38,0.083,0.586,0.093
		C22.254,56.264,22.833,56.345,23.465,56.2z"/>
	<path style="fill:#1D1D1B;" d="M31.736,71.859c1.547,0,3.053-0.619,4.24-1.744c1.962-1.859,4.013-3.807,6.083-5.81
		c2.147,1.997,4.051,3.727,5.853,5.321c1.16,1.026,2.542,1.569,3.995,1.569c2.549,0,4.829-1.671,5.809-4.257
		c1.006-2.655,0.308-5.562-1.777-7.406c-1.504-1.33-3.052-2.733-4.809-4.36c1.023-1.077,1.941-2.067,2.822-3.042
		c1.806-1.999,2.241-4.786,1.136-7.274c-1.057-2.38-3.296-3.918-5.704-3.918c-1.668,0-3.246,0.729-4.443,2.054
		c-0.96,1.063-1.974,2.152-3.128,3.358c-0.659-0.632-1.317-1.263-1.975-1.895l-1.534-1.473c-1.219-1.169-2.8-1.814-4.45-1.814
		h-0.001c-2.709,0-5.205,1.681-6.211,4.183c-0.934,2.322-0.36,4.871,1.498,6.653l2.05,1.967c0.512,0.492,1.025,0.984,1.537,1.476
		c-1.825,1.761-3.618,3.465-5.327,5.085c-1.982,1.878-2.586,4.618-1.577,7.15C26.818,70.181,29.195,71.859,31.736,71.859z
		 M30.15,63.436c2.797-2.65,5.585-5.309,8.335-8.01c-2.195-2.099-4.384-4.205-6.576-6.307c-1.73-1.66,0.028-3.949,1.945-3.949
		c0.576,0,1.167,0.207,1.681,0.7c2.126,2.04,4.25,4.082,6.38,6.117c2.033-2.065,4.045-4.154,5.995-6.312
		c0.468-0.518,0.981-0.735,1.474-0.735c1.739,0,3.231,2.704,1.6,4.51c-1.81,2.003-3.673,3.946-5.557,5.869
		c2.59,2.439,5.199,4.856,7.861,7.211c1.869,1.653,0.462,4.666-1.382,4.666c-0.437,0-0.898-0.169-1.345-0.565
		c-2.9-2.565-5.741-5.2-8.559-7.86c-2.891,2.851-5.832,5.65-8.778,8.441c-0.481,0.455-0.996,0.648-1.489,0.648
		C29.885,67.859,28.35,65.142,30.15,63.436z"/>
</g>
</svg>
