<?xml version="1.0" encoding="utf-8"?>
<!-- Generator: Adobe Illustrator 17.0.2, SVG Export Plug-In . SVG Version: 6.00 Build 0)  -->
<!DOCTYPE svg PUBLIC "-//W3C//DTD SVG 1.1//EN" "http://www.w3.org/Graphics/SVG/1.1/DTD/svg11.dtd">
<svg version="1.1" id="Capa_1" xmlns="http://www.w3.org/2000/svg" xmlns:xlink="http://www.w3.org/1999/xlink" x="0px" y="0px"
	 width="100px" height="100px" viewBox="0 0 100 100" enable-background="new 0 0 100 100" xml:space="preserve">
<g>
	<path fill="#1D1D1B" d="M97.608,11.427c0.031-1.626-0.992-3.385-3.063-3.592C66.044,4.993,37.403,6.715,8.824,6.233
		C8.182,6.222,7.652,6.38,7.21,6.634C5.727,6.771,4.323,7.788,4.284,9.704C3.761,35.783,3.75,61.866,3.75,87.949
		c0,0.994,0.376,1.743,0.939,2.259c0.502,0.801,1.339,1.404,2.533,1.48c28.453,1.82,56.964,1.343,85.455,1.068
		c1.103-0.011,1.902-0.482,2.416-1.156c0.788-0.498,1.345-1.352,1.323-2.583c-0.469-25.56,1.285-51.086,1.335-76.642
		C97.75,12.026,97.692,11.717,97.608,11.427z M51.239,51.939c0.965-0.014,1.93-0.032,2.895-0.047
		c-0.983,0.846-1.982,1.674-2.994,2.485C51.173,53.564,51.204,52.752,51.239,51.939z M50.863,62.603
		c3.834-2.771,7.471-5.786,10.966-8.974c0.636-0.58,0.928-1.235,0.989-1.883c1.443-0.026,2.885-0.049,4.328-0.075
		c-5.349,4.613-10.595,9.336-16.335,13.434C50.829,64.271,50.84,63.437,50.863,62.603z M44.259,12.593
		c-0.095,0.098-0.194,0.187-0.282,0.301C35.696,23.688,29.312,35.88,19.109,45.092c-0.09,0.081-0.152,0.169-0.229,0.253
		c-1.598-0.051-3.196-0.095-4.793-0.163C24.62,36.046,32.967,25.354,39.01,12.626C40.76,12.614,42.509,12.604,44.259,12.593z
		 M10.647,12.664c0.968,0.013,1.936,0.012,2.904,0.021c-1.002,1.162-1.982,2.342-2.956,3.528
		C10.614,15.03,10.625,13.847,10.647,12.664z M10.47,24.656c0.847,0.024,1.687-0.256,2.222-0.936
		c2.896-3.672,5.915-7.238,9.08-10.682c0.094-0.103,0.16-0.211,0.238-0.316c0.233,0,0.466-0.003,0.699-0.003
		c-3.706,5.442-7.608,10.664-12.273,15.263C10.45,26.873,10.455,25.764,10.47,24.656z M10.351,36.585
		c0.159-0.093,0.318-0.188,0.472-0.313c7.717-6.295,13.436-14.327,18.927-22.546c0.236-0.354,0.372-0.702,0.455-1.044
		c0.546-0.003,1.093-0.007,1.639-0.01c-5.499,10.523-12.666,19.469-21.527,27.312C10.33,38.85,10.34,37.717,10.351,36.585z
		 M44.521,86.532c-11.459-0.121-22.915-0.425-34.361-1.094c0-11.335,0.012-22.671,0.066-34.006c11.53,0.596,23.064,0.686,34.6,0.583
		C44.331,63.514,44.064,75.016,44.521,86.532z M45.123,45.603c-1.68,0.016-3.359,0.013-5.039,0.018
		c1.884-2.189,3.672-4.454,5.389-6.774C45.355,41.099,45.234,43.351,45.123,45.603z M46.049,27.496
		c-0.476,0.239-0.918,0.604-1.271,1.153c-3.646,5.67-7.709,10.985-12.317,15.908c-0.309,0.33-0.516,0.68-0.661,1.035
		c-1.349-0.012-2.699-0.015-4.048-0.036c7.144-7.661,12.563-16.686,18.652-25.218C46.298,22.725,46.17,25.111,46.049,27.496z
		 M50.709,72.898c8.555-5.476,15.915-12.476,23.671-19.001c0.85-0.715,1.131-1.562,1.044-2.369c1.358-0.021,2.716-0.037,4.074-0.055
		c-9.353,8.503-19.483,16.117-28.771,24.69C50.722,75.073,50.705,73.985,50.709,72.898z M80.627,86.463
		c3.056-2.74,6.147-5.441,9.328-8.032c-0.008,2.647-0.005,5.294,0.028,7.942C86.865,86.404,83.746,86.434,80.627,86.463z
		 M90.029,70.304c-0.102,0.063-0.204,0.112-0.306,0.19c-5.979,4.602-11.6,9.609-17.206,14.655c-0.478,0.43-0.754,0.904-0.898,1.385
		c-2.125,0.015-4.25,0.034-6.375,0.044c8.744-7.29,16.93-15.209,24.915-23.329C90.107,65.6,90.065,67.952,90.029,70.304z
		 M90.364,55.095c-0.374,0.154-0.723,0.378-1.022,0.678c-0.043,0.043-0.079,0.093-0.121,0.137c-0.6,0.085-1.203,0.373-1.748,0.931
		C77.219,67.34,66.686,77.572,55.09,86.594c-1.386-0.002-2.772,0.002-4.157-0.004c-0.024-0.607-0.03-1.214-0.05-1.821
		c0.181-0.12,0.359-0.259,0.531-0.429c11.477-11.308,24.719-20.604,36.318-31.778c0.385-0.371,0.64-0.77,0.794-1.177
		c0.647-0.004,1.293-0.012,1.94-0.014C90.429,52.612,90.397,53.854,90.364,55.095z M90.657,44.96
		c-13.04,0.038-26.081,0.38-39.122,0.566c0.542-10.986,1.213-21.97,1.591-32.96c12.748,0.009,25.487,0.271,38.2,1.389
		C91.279,24.293,90.97,34.626,90.657,44.96z"/>
</g>
</svg>
