<?xml version="1.0" encoding="iso-8859-1"?>
<!-- Generator: Adobe Illustrator 17.0.2, SVG Export Plug-In . SVG Version: 6.00 Build 0)  -->
<!DOCTYPE svg PUBLIC "-//W3C//DTD SVG 1.1//EN" "http://www.w3.org/Graphics/SVG/1.1/DTD/svg11.dtd">
<svg version="1.1" id="Capa_1" xmlns="http://www.w3.org/2000/svg" xmlns:xlink="http://www.w3.org/1999/xlink" x="0px" y="0px"
	 width="100px" height="100px" viewBox="0 0 100 100" style="enable-background:new 0 0 100 100;" xml:space="preserve">
<g>
	<path style="fill:#1D1D1B;" d="M94.289,87.396C71.592,87.421,36.4,88.249,13,88.106c-1.104-0.007-1.981-0.91-1.965-2.014
		c0.338-22.448-1.166-52.993-2.444-74.891c-0.19-3.263-5.282-3.281-5.091,0c1.359,23.284,2.994,55.742,2.376,79.08
		c-0.005,0.198,0.009,0.384,0.04,0.558c0.054,0.305,0.321,1.309,1.019,1.843c0.381,0.292,0.876,0.476,1.487,0.483
		c24.215,0.301,61.655-0.652,85.868-0.679C97.572,92.483,97.572,87.392,94.289,87.396z"/>
	<path style="fill:#1D1D1B;" d="M12.806,26.102c0.753,18.685,2.233,37.333,2.903,56.022c0.004,0.106,0.013,0.208,0.028,0.306
		c0.025,0.168-0.039,1.323,0.692,2.152c0.409,0.463,1.017,0.769,1.824,0.767c20.369-0.058,50.91-1.933,71.274-0.657
		c0.665,0.042,1.193-0.135,1.587-0.443c0.732-0.575,1.246-1.959,1.282-2.728c0.02-0.423-0.078-0.875-0.33-1.336
		c-2.976-5.436-5.581-11.047-8.035-16.732c-0.438-1.014-0.743-2.185-0.839-2.594c-0.055-0.235-0.148-0.47-0.284-0.702
		c-0.653-1.115-2.351-1.722-3.482-0.914c-1.435,1.024-2.88,2.033-4.341,3.017c-0.916,0.617-2.124,0.337-2.672-0.622
		c-2.352-4.11-4.463-8.344-6.214-12.757c-0.075-0.188-0.165-0.359-0.267-0.513c-0.176-0.267-0.511-0.696-0.751-0.951
		c-0.148-0.157-0.312-0.293-0.491-0.397c-1.305-0.765-2.647-0.192-3.483,0.912c-1.021,1.348-2.109,2.642-3.259,3.88
		c-0.752,0.809-1.89,0.695-2.509-0.22c-3.736-5.522-7.511-11.018-11.215-16.562c-0.021-0.031-0.044-0.059-0.067-0.085
		c-0.04-0.045-0.146-0.345-0.31-0.632c-0.1-0.175-0.219-0.336-0.36-0.477c-1.037-1.037-2.547-0.903-3.6-0.001
		c-1.195,1.024-2.36,2.057-3.468,3.146c-0.788,0.774-1.932,0.722-2.6-0.158c-5.008-6.601-10.067-13.164-15.045-19.789
		c-0.155-0.206-0.326-0.379-0.508-0.521c-0.317-0.248-0.764-0.512-0.935-0.692c-0.103-0.108-0.208-0.216-0.313-0.321
		c-0.979-0.981-2.619-0.981-3.6-0.001c-0.135,0.135-0.25,0.283-0.346,0.44c-0.162,0.264-0.483,0.796-0.62,1.228
		c-0.077,0.243-0.12,0.512-0.12,0.81l-0.001,4.752c0,0.261,0.034,0.5,0.095,0.718C12.537,23.832,12.761,24.999,12.806,26.102z
		 M19.03,25.722c4.559,5.992,9.145,11.963,13.668,17.982c1.233,1.641,3.457,1.224,4.422,0.031c0.111-0.115,0.217-0.237,0.313-0.369
		c0.66-0.898,1.413-1.725,2.213-2.51c0.789-0.774,1.965-0.618,2.583,0.297c3.941,5.836,7.934,11.636,11.846,17.491
		c0.83,1.242,2.201,1.381,3.269,0.905c1.009-0.45,2.054-1.974,2.833-2.756c0.456-0.457,0.903-0.922,1.341-1.395
		c0.75-0.811,1.689-0.673,2.153,0.329c1.974,4.27,4.208,8.404,6.693,12.425c0.376,0.61,0.881,0.962,1.422,1.112
		c0.984,0.272,2.031-0.207,2.29-0.309c0.148-0.058,0.298-0.133,0.448-0.228c1.092-0.687,2.165-1.4,3.228-2.126
		c0.912-0.623,1.998-0.316,2.441,0.696c1.525,3.483,3.116,6.934,4.818,10.332c0.495,0.988,0.01,1.743-1.094,1.705
		c-18.578-0.639-43.518,0.632-61.195,0.88c-1.104,0.016-2.035-0.87-2.081-1.974c-0.721-17.38-2.044-34.73-2.744-52.112
		C17.853,25.025,18.361,24.843,19.03,25.722z"/>
</g>
</svg>
