<?xml version="1.0" encoding="iso-8859-1"?>
<!-- Generator: Adobe Illustrator 17.0.2, SVG Export Plug-In . SVG Version: 6.00 Build 0)  -->
<!DOCTYPE svg PUBLIC "-//W3C//DTD SVG 1.1//EN" "http://www.w3.org/Graphics/SVG/1.1/DTD/svg11.dtd">
<svg version="1.1" id="Capa_1" xmlns="http://www.w3.org/2000/svg" xmlns:xlink="http://www.w3.org/1999/xlink" x="0px" y="0px"
	 width="100px" height="100px" viewBox="0 0 100 100" style="enable-background:new 0 0 100 100;" xml:space="preserve">
<g>
	<path style="fill:#1D1D1B;" d="M29.265,60.345c-4.524,6.758-8.791,13.663-12.793,20.718c-0.018,0.032-0.026,0.062-0.043,0.093
		c-1.555,1.699-0.683,4.701,1.71,3.56c7.687-3.666,15.388-7.303,22.943-11.281c-0.289-1.427-0.567-2.851-0.835-4.274
		c-5.595,2.972-11.274,5.749-16.975,8.477c3.215-5.45,6.588-10.819,10.13-16.092C32.019,61.157,30.639,60.758,29.265,60.345z"/>
	<path style="fill:#1D1D1B;" d="M27.779,39.09c1.433-0.285,2.863-0.559,4.291-0.822c-2.786-5.285-5.404-10.642-7.978-16.02
		c5.73,3.38,11.366,6.941,16.898,10.684c0.426-1.358,0.846-2.735,1.261-4.127c-7.031-4.739-14.229-9.186-21.584-13.357
		c-0.032-0.018-0.062-0.026-0.093-0.043c-1.699-1.555-4.701-0.683-3.56,1.711C20.523,24.474,23.999,31.847,27.779,39.09z"/>
	<path style="fill:#1D1D1B;" d="M47.551,35.855c-0.021,0.068-0.043,0.134-0.064,0.202c0.013-0.009,0.023-0.019,0.037-0.028
		C47.533,35.971,47.542,35.913,47.551,35.855z"/>
	<path style="fill:#1D1D1B;" d="M64.635,56.475c-0.104-0.005-0.209-0.013-0.314-0.02l0.039,0.075
		C64.452,56.512,64.542,56.493,64.635,56.475z"/>
	<path style="fill:#1D1D1B;" d="M80.334,24.734c-2.291,4.988-5.441,10.469-8.846,15.867c1.349,0.4,2.708,0.793,4.068,1.181
		c4.105-6.637,7.884-13.459,10.593-19.739c0.229-0.529,0.257-0.981,0.156-1.354c0.098-0.49,0.063-0.983-0.136-1.377
		c-0.542-1.07-1.847-1.206-3.002-0.579c-0.105,0.059-0.211,0.113-0.318,0.167c0.015-0.01-0.05,0.018-0.218,0.095
		c-0.305,0.133-0.613,0.255-0.92,0.381c-0.716,0.293-1.427,0.615-2.116,0.989c-4.687,2.667-10.027,5.76-15.433,8.76
		c0.318,1.435,0.617,2.842,0.898,4.211C70.411,30.382,75.687,27.348,80.334,24.734z"/>
	<path style="fill:#1D1D1B;" d="M70.236,47.649c-0.72-0.211-1.438-0.424-2.154-0.638c0.515,0.209,1.033,0.407,1.561,0.581
		C69.841,47.611,70.038,47.63,70.236,47.649z"/>
	<path style="fill:#1D1D1B;" d="M60.762,75.03c6.38,3.911,12.9,7.496,18.923,10.095c0.529,0.228,0.981,0.256,1.354,0.156
		c0.489,0.098,0.983,0.063,1.376-0.136c1.07-0.542,1.206-1.847,0.579-3.002c-0.059-0.105-0.113-0.211-0.167-0.318
		c0.01,0.015-0.018-0.05-0.094-0.218c-0.133-0.305-0.255-0.613-0.381-0.92c-0.293-0.716-0.615-1.427-0.989-2.116
		c-2.828-4.97-6.137-10.673-9.305-16.413c-1.369,0.309-2.768,0.612-4.196,0.911c3.12,5.68,6.362,11.313,9.132,16.241
		c-4.718-2.167-9.876-5.106-14.99-8.298C61.6,72.355,61.186,73.694,60.762,75.03z"/>
	<path style="fill:#1D1D1B;" d="M33.99,60.676c2.15,0.602,4.308,1.185,6.486,1.718c0.334,2.029,0.695,4.051,1.068,6.07
		c0.265,1.435,0.541,2.867,0.825,4.297c1.562,7.839,3.41,15.601,5.532,23.287c0.01,0.035,0.025,0.062,0.036,0.096
		c0.102,2.301,2.842,3.807,3.727,1.307c2.722-7.684,5.469-15.359,7.919-23.154c0.421-1.34,0.832-2.684,1.234-4.032
		c0.71-2.384,1.395-4.777,2.027-7.191c1.494-0.288,3.006-0.592,4.525-0.909c1.393-0.291,2.792-0.594,4.193-0.909
		c8.428-1.897,16.869-4.238,23.912-7.035c0.536-0.213,0.875-0.512,1.067-0.847c0.416-0.277,0.74-0.65,0.877-1.069
		c0.095-0.29,0.111-0.571,0.063-0.836c-0.139-0.779-0.837-1.417-1.776-1.696c-0.116-0.032-0.229-0.07-0.343-0.107
		c0.018,0.004-0.048-0.023-0.221-0.087c-0.31-0.122-0.614-0.253-0.919-0.381c-0.714-0.299-1.444-0.574-2.196-0.797
		c-5.335-1.465-11.476-3.097-17.575-4.849c-1.368-0.393-2.729-0.793-4.084-1.198c-1.868-0.558-3.719-1.125-5.517-1.703
		c-0.39-2.131-0.811-4.309-1.262-6.507c-0.286-1.394-0.585-2.796-0.896-4.201c-1.935-8.753-4.347-17.579-7.254-24.896
		c-0.213-0.536-0.512-0.875-0.847-1.067c-0.277-0.416-0.65-0.74-1.07-0.877c-1.139-0.374-2.159,0.454-2.532,1.713
		c-0.032,0.116-0.07,0.229-0.107,0.343v0c0.003-0.018-0.023,0.049-0.087,0.221c-0.121,0.31-0.253,0.614-0.381,0.92
		c-0.299,0.713-0.574,1.444-0.797,2.195c-1.764,6.422-3.77,14.002-5.936,21.277c-0.415,1.393-0.835,2.77-1.262,4.13
		c-0.526,1.675-1.056,3.329-1.598,4.919c-2.595,0.403-5.178,0.846-7.755,1.314c-1.436,0.261-2.869,0.532-4.299,0.813
		c-8.183,1.605-16.28,3.524-24.296,5.737c-0.035,0.01-0.062,0.025-0.096,0.036c-1.343,0.059-2.407,1.017-2.571,1.98
		c-0.117,0.688,0.222,1.378,1.263,1.747c8.868,3.141,17.723,6.32,26.767,9.029C31.216,59.888,32.601,60.287,33.99,60.676z
		 M12.58,48.855c6.031-1.539,12.116-2.91,18.25-4.102c1.44-0.28,2.884-0.543,4.33-0.802c1.361-0.244,2.72-0.498,4.086-0.723
		l4.718-0.739l1.452-4.338c0.187-0.581,0.371-1.177,0.556-1.766c0.43-1.366,0.855-2.747,1.274-4.145
		c2.173-7.252,4.193-14.789,5.983-21.18c2.257,6.094,4.155,13.524,5.72,20.915c0.299,1.41,0.582,2.815,0.857,4.213
		c0.195,0.992,0.388,1.984,0.571,2.962l0.844,4.672l4.436,1.411c0.781,0.241,1.572,0.479,2.362,0.716
		c1.365,0.41,2.738,0.815,4.115,1.214c5.709,1.653,11.426,3.202,16.493,4.616c0.275,0.077,0.562,0.156,0.833,0.232
		c-5.821,2.156-12.862,3.98-19.923,5.504c-1.405,0.303-2.807,0.594-4.204,0.873c-0.466,0.093-0.935,0.191-1.399,0.281l-4.479,0.843
		l-1.144,4.403c-0.366,1.339-0.765,2.664-1.155,3.994c-0.4,1.363-0.805,2.723-1.226,4.078c-1.759,5.658-3.674,11.254-5.64,16.83
		c-1.545-5.989-2.924-12.03-4.129-18.12c-0.285-1.44-0.551-2.885-0.815-4.33c-0.18-0.987-0.373-1.97-0.543-2.959l-0.725-4.442
		l-4.312-1.05c-1.094-0.281-2.184-0.573-3.271-0.871c-1.391-0.381-2.777-0.775-4.158-1.181c-6.964-2.048-13.811-4.388-20.634-6.793
		C11.994,48.996,12.288,48.929,12.58,48.855z"/>
	<path style="fill:#1D1D1B;" d="M52.126,57.583C52.126,57.583,52.126,57.583,52.126,57.583c3.331,0,6.592-2.256,7.93-5.486
		c1.263-3.049,0.582-6.304-1.822-8.707c-1.598-1.599-3.55-2.443-5.643-2.443c-3.331,0-6.591,2.256-7.93,5.487
		c-1.263,3.048-0.582,6.303,1.822,8.707C48.082,56.738,50.033,57.583,52.126,57.583z M49.281,48.346c0.567-1.368,1.99-2.4,3.31-2.4
		c0.749,0,1.458,0.329,2.107,0.979c0.979,0.979,1.228,2.075,0.738,3.258c-0.567,1.368-1.99,2.4-3.31,2.4
		c-0.749,0-1.458-0.329-2.108-0.979C49.039,50.625,48.791,49.528,49.281,48.346z"/>
</g>
</svg>
