<?xml version="1.0" encoding="iso-8859-1"?>
<!-- Generator: Adobe Illustrator 17.0.2, SVG Export Plug-In . SVG Version: 6.00 Build 0)  -->
<!DOCTYPE svg PUBLIC "-//W3C//DTD SVG 1.1//EN" "http://www.w3.org/Graphics/SVG/1.1/DTD/svg11.dtd">
<svg version="1.1" id="Capa_1" xmlns="http://www.w3.org/2000/svg" xmlns:xlink="http://www.w3.org/1999/xlink" x="0px" y="0px"
	 width="100px" height="100px" viewBox="0 0 100 100" style="enable-background:new 0 0 100 100;" xml:space="preserve">
<g>
	<path style="fill:#1D1D1B;" d="M45.583,13.032c0.499-0.011,0.998-0.024,1.497-0.031c0.332-0.005,0.664-0.011,0.996-0.015
		c0.501-0.006,1.002-0.009,1.504-0.013c0.5-0.004,0.999-0.011,1.498-0.013c-0.098-2.339-0.206-4.622-0.331-6.796
		c-0.126-2.194-1.913-3.342-3.612-3.342c-0.981,0-1.903,0.38-2.528,1.042c-0.605,0.642-0.909,1.52-0.854,2.472
		c0.123,2.151,0.23,4.412,0.327,6.728C44.581,13.049,45.082,13.043,45.583,13.032z"/>
	<path style="fill:#1D1D1B;" d="M51.382,21.719c-0.053,0.039-0.104,0.079-0.162,0.114c0.069,0.069,0.118,0.146,0.172,0.221
		C51.389,21.942,51.385,21.831,51.382,21.719z"/>
	<path style="fill:#1D1D1B;" d="M47.728,40.733c0.333,0.004,0.667,0.006,1,0.01c0.501,0.007,1.001,0.02,1.502,0.029
		c0.5,0.009,0.999,0.017,1.499,0.029c-0.026-2.607-0.058-5.199-0.099-7.759c-0.5-0.002-1-0.007-1.499-0.012
		c-0.501-0.004-1.001-0.009-1.502-0.016c-0.333-0.005-0.667-0.011-1-0.017c-0.5-0.009-1-0.024-1.499-0.037
		c-0.501-0.014-1.001-0.028-1.502-0.046c0.042,2.571,0.074,5.175,0.1,7.795c0.501,0.002,1.001,0.008,1.502,0.012
		C46.729,40.724,47.229,40.727,47.728,40.733z"/>
	<path style="fill:#1D1D1B;" d="M48.82,61.24c-0.333,0.006-0.667,0.016-1,0.021c-0.5,0.007-1,0.01-1.5,0.015s-1,0.012-1.5,0.015
		c0,6.447-0.02,12.757-0.038,18.699c-0.015,4.945-0.03,9.656-0.032,14.011c0,1.033,0.407,1.953,1.146,2.589
		c0.634,0.546,1.47,0.846,2.353,0.846c1.995,0,3.5-1.476,3.5-3.434c0.002-4.352,0.017-9.061,0.032-14.003
		c0.019-5.984,0.038-12.341,0.038-18.835c-0.5,0.017-1,0.03-1.5,0.043S49.32,61.231,48.82,61.24z"/>
	<path style="fill:#1D1D1B;" d="M55.502,39.873c0,0.003-0.001,0.006-0.002,0.009c-0.046,0.347-0.108,0.691-0.162,1.036
		c-0.166,1.052-0.353,2.101-0.53,3.152c-0.8-0.041-1.852-0.082-3.051-0.126c-0.478-0.017-0.976-0.035-1.498-0.052
		c-0.486-0.016-0.987-0.033-1.503-0.05c-0.327-0.011-0.664-0.022-1-0.033c-0.493-0.016-0.992-0.033-1.498-0.05
		c-0.498-0.017-0.998-0.034-1.502-0.051c-2.309-0.079-4.647-0.165-6.721-0.261c-2.038-0.094-3.819-0.198-5.033-0.315
		c-1.264-0.122-1.896,0.787-1.913,1.769c-0.044,0.149-0.075,0.308-0.087,0.481c-0.226,3.414-0.258,6.837-0.5,10.25
		c-0.116,1.631,1.446,2.219,2.654,1.783c1.446,0.129,3.676,0.239,6.199,0.332c1.736,0.064,3.61,0.119,5.465,0.166
		c0.504,0.013,1.003,0.025,1.501,0.037c0.507,0.012,1.006,0.023,1.499,0.034c0.336,0.007,0.673,0.015,1,0.021
		c0.514,0.01,1.015,0.02,1.501,0.029c0.522,0.01,1.02,0.018,1.499,0.027c1.269,0.021,2.376,0.038,3.216,0.048
		c0.135,0.95,0.182,1.907,0.201,2.868c0.011,0.551,0.015,1.103,0.015,1.656c0.001,2.005,2.412,2.444,3.488,1.332
		c5.094-3.146,9.676-6.959,13.927-11.168c0.739-0.732,0.715-1.623,0.31-2.314c-0.103-0.267-0.278-0.528-0.56-0.765
		c-4.577-3.828-9.041-7.786-13.5-11.75C57.313,36.545,55.083,38.266,55.502,39.873z M59.129,58.927
		c-0.082-1.031-0.213-2.058-0.45-3.076c-0.006-0.024-0.016-0.043-0.023-0.067c-0.1-0.644-0.476-1.237-1.126-1.503
		c-0.227-0.093-0.486-0.148-0.78-0.149c-1.21-0.004-2.949-0.021-4.94-0.05c-0.486-0.007-0.986-0.015-1.499-0.023
		c-0.492-0.008-0.992-0.017-1.501-0.026c-0.33-0.006-0.665-0.013-1-0.019c-0.497-0.01-0.996-0.02-1.499-0.031
		c-0.501-0.011-1.001-0.023-1.501-0.035c-1.799-0.044-3.571-0.096-5.181-0.155c-2.02-0.075-3.786-0.161-5.006-0.26
		c0.105-2.078,0.172-4.158,0.274-6.236c1.833,0.158,5.084,0.292,8.558,0.411c0.441,0.015,0.884,0.03,1.33,0.044
		c0.501,0.016,1.001,0.033,1.501,0.048c0.504,0.016,1.003,0.032,1.499,0.047c0.336,0.01,0.67,0.021,1,0.031
		c0.511,0.016,1.012,0.031,1.501,0.047c0.517,0.016,1.015,0.032,1.499,0.048c1.706,0.055,3.186,0.108,4.215,0.16
		c0.123,0.006,0.235-0.005,0.346-0.017c0.051,0.005,0.103,0.017,0.154,0.017c0.107,0,0.205-0.016,0.304-0.03
		c0.012-0.003,0.023-0.005,0.035-0.008c0.001,0,0.002-0.001,0.003-0.001c0.236-0.039,0.449-0.115,0.637-0.226
		c0.584-0.347,0.934-0.999,1.022-1.734c0.03-0.252,0.07-0.502,0.106-0.753c0.06-0.419,0.123-0.838,0.194-1.256
		c0.045-0.269,0.089-0.539,0.136-0.808c0.048,0.042,0.097,0.084,0.144,0.127c3.049,2.699,6.115,5.379,9.224,8.01
		C65.429,54.179,62.393,56.691,59.129,58.927z"/>
	<path style="fill:#1D1D1B;" d="M37.011,35.964c1.076,1.112,3.487,0.673,3.488-1.332c0-0.776,0.002-1.55,0.032-2.321
		c0.028-0.737,0.081-1.472,0.185-2.203c0.977-0.012,2.322-0.032,3.86-0.06c0.483-0.009,0.984-0.018,1.503-0.028
		c0.487-0.009,0.985-0.02,1.496-0.03c0.331-0.007,0.661-0.014,0.999-0.021c0.496-0.011,0.997-0.023,1.503-0.035
		c0.496-0.012,0.996-0.025,1.496-0.038c1.521-0.04,3.037-0.086,4.473-0.137c2.665-0.095,5.038-0.209,6.549-0.344
		c1.208,0.436,2.769-0.151,2.654-1.783c-0.242-3.413-0.274-6.836-0.5-10.25c-0.011-0.173-0.043-0.331-0.087-0.481
		c-0.017-0.983-0.649-1.891-1.913-1.769c-1.334,0.128-3.353,0.241-5.646,0.343c-1.859,0.082-3.893,0.157-5.916,0.227
		c-0.502,0.017-1,0.034-1.496,0.051c-0.507,0.017-1.008,0.034-1.502,0.05c-0.335,0.011-0.671,0.022-0.997,0.033
		c-0.512,0.017-1.012,0.034-1.496,0.05c-0.522,0.018-1.023,0.035-1.502,0.052c-1.286,0.046-2.406,0.09-3.252,0.133
		c-0.161-0.955-0.329-1.909-0.485-2.865c-0.072-0.44-0.148-0.88-0.207-1.323c0-0.003-0.001-0.006-0.002-0.009
		c0.418-1.607-1.811-3.329-3.412-1.905c-4.459,3.964-8.923,7.922-13.5,11.75c-0.283,0.237-0.458,0.497-0.56,0.765
		c-0.404,0.69-0.428,1.582,0.31,2.314C27.335,29.005,31.917,32.819,37.011,35.964z M36.812,15.315
		c0.164,0.936,0.324,1.873,0.436,2.817c0.129,1.082,0.812,2,2,2c0.051,0,0.103-0.012,0.154-0.017
		c0.111,0.012,0.223,0.023,0.346,0.017c0.076-0.004,0.173-0.008,0.254-0.012c1.091-0.052,2.592-0.105,4.327-0.16
		c0.484-0.016,0.987-0.031,1.501-0.047c0.49-0.015,0.989-0.031,1.497-0.047c0.329-0.01,0.663-0.021,0.998-0.031
		c0.498-0.016,0.998-0.031,1.501-0.047c0.5-0.016,0.999-0.032,1.497-0.049c0.446-0.015,0.887-0.03,1.326-0.045
		c3.338-0.116,6.432-0.246,8.202-0.398c0.102,2.078,0.169,4.158,0.274,6.236c-1.299,0.105-3.22,0.196-5.404,0.274
		c-1.337,0.048-2.768,0.09-4.233,0.128c-0.498,0.013-0.997,0.025-1.497,0.036c-0.502,0.011-1.004,0.023-1.502,0.033
		c-0.336,0.007-0.667,0.013-0.999,0.02c-0.507,0.01-1.005,0.019-1.497,0.027c-0.513,0.009-1.013,0.017-1.502,0.024
		c-1.983,0.03-3.734,0.049-5.029,0.056c-0.154,0.001-0.324,0.002-0.465,0.003c-1.136,0.004-1.771,0.783-1.906,1.651
		c-0.006,0.024-0.017,0.042-0.023,0.067c-0.237,1.019-0.368,2.045-0.45,3.076c-3.264-2.236-6.3-4.748-9.176-7.475
		C30.602,20.78,33.716,18.058,36.812,15.315z"/>
</g>
</svg>
