<?xml version="1.0" encoding="utf-8"?>
<!-- Generator: Adobe Illustrator 17.0.2, SVG Export Plug-In . SVG Version: 6.00 Build 0)  -->
<!DOCTYPE svg PUBLIC "-//W3C//DTD SVG 1.1//EN" "http://www.w3.org/Graphics/SVG/1.1/DTD/svg11.dtd">
<svg version="1.1" id="Capa_1" xmlns="http://www.w3.org/2000/svg" xmlns:xlink="http://www.w3.org/1999/xlink" x="0px" y="0px"
	 width="100px" height="100px" viewBox="0 0 100 100" enable-background="new 0 0 100 100" xml:space="preserve">
<g>
	<path fill="#1D1D1B" d="M74.738,48.418c-1.331-11.27-9.822-16.452-19.516-19.827c10.134-3.735,17.609-9.855,17.555-21.519
		c-0.012-2.675-4.161-2.676-4.149,0c0.057,12.461-10.158,16.246-20.177,19.364c-10.019-3.118-20.234-6.903-20.177-19.364
		c0.012-2.676-4.137-2.675-4.149,0c-0.054,11.664,7.421,17.784,17.555,21.519c-9.693,3.376-18.185,8.557-19.516,19.827
		c-1.441,12.205,9.287,16.205,19.171,18.681c-4.088,1.919-7.752,4.565-11.453,7.284c-5.878,4.319-8.068,11.915-7.832,19.128
		c0.087,2.669,4.236,2.677,4.149,0c-0.328-10.054,5.753-15.442,13.148-20.683c2.705-1.917,5.867-3.064,9.103-3.96
		c3.236,0.897,6.398,2.044,9.103,3.96c7.396,5.241,13.476,10.629,13.148,20.683c-0.087,2.677,4.062,2.669,4.149,0
		c0.235-7.213-1.955-14.809-7.833-19.128c-3.7-2.719-7.365-5.365-11.453-7.284C65.451,64.624,76.179,60.624,74.738,48.418z
		 M48.452,64.678c-9.525-2.295-24.795-4.408-22.022-16.803c2.498-11.168,12.363-14.158,22.022-17.084
		c9.66,2.925,19.524,5.916,22.022,17.084C73.247,60.27,57.977,62.383,48.452,64.678z"/>
	<path fill="#1D1D1B" d="M34.153,12.258c9.222-0.317,18.439-0.328,27.66,0c2.677,0.095,2.668-4.054,0-4.149
		c-9.221-0.328-18.439-0.317-27.66,0C31.485,8.201,31.476,12.35,34.153,12.258z"/>
	<path fill="#1D1D1B" d="M36.573,15.024c-2.676,0-2.676,4.149,0,4.149h23.166c2.676,0,2.676-4.149,0-4.149H36.573z"/>
	<path fill="#1D1D1B" d="M43.143,38.536h10.027c2.676,0,2.676-4.149,0-4.149H43.143C40.467,34.387,40.467,38.536,43.143,38.536z"/>
	<path fill="#1D1D1B" d="M33.461,45.451c9.683-0.001,19.365-0.023,29.043-0.346c2.668-0.089,2.677-4.238,0-4.149
		c-9.679,0.323-19.36,0.345-29.043,0.346C30.786,41.302,30.786,45.451,33.461,45.451z"/>
	<path fill="#1D1D1B" d="M65.617,49.254c-11.641-0.333-23.281-0.323-34.921,0c-2.67,0.074-2.677,4.223,0,4.149
		c11.641-0.323,23.281-0.333,34.921,0C68.294,53.48,68.286,49.331,65.617,49.254z"/>
	<path fill="#1D1D1B" d="M55.936,56.17H38.993c-2.676,0-2.676,4.149,0,4.149h16.942C58.611,60.319,58.611,56.17,55.936,56.17z"/>
	<path fill="#1D1D1B" d="M51.095,76.569c2.676,0,2.676-4.149,0-4.149h-6.224c-2.676,0-2.676,4.149,0,4.149H51.095z"/>
	<path fill="#1D1D1B" d="M34.844,83.484c9.113,0.628,18.202,0.651,27.315,0c2.653-0.189,2.671-4.34,0-4.149
		c-9.113,0.651-18.202,0.628-27.315,0C32.173,79.151,32.19,83.301,34.844,83.484z"/>
	<path fill="#1D1D1B" d="M65.617,86.942c-11.411-0.02-22.819-0.326-34.23-0.346c-2.676-0.005-2.675,4.145,0,4.149
		c11.411,0.02,22.819,0.326,34.23,0.346C68.292,91.096,68.292,86.946,65.617,86.942z"/>
</g>
</svg>
