<?xml version="1.0" encoding="iso-8859-1"?>
<!-- Generator: Adobe Illustrator 17.0.2, SVG Export Plug-In . SVG Version: 6.00 Build 0)  -->
<!DOCTYPE svg PUBLIC "-//W3C//DTD SVG 1.1//EN" "http://www.w3.org/Graphics/SVG/1.1/DTD/svg11.dtd">
<svg version="1.1" id="Capa_1" xmlns="http://www.w3.org/2000/svg" xmlns:xlink="http://www.w3.org/1999/xlink" x="0px" y="0px"
	 width="100px" height="100px" viewBox="0 0 100 100" style="enable-background:new 0 0 100 100;" xml:space="preserve">
<g>
	<path style="fill:#1E1E1C;" d="M80.529,28.855c-0.181-5.491-0.282-12.909-0.227-18.404c0.002-0.245-0.037-0.461-0.093-0.664
		c0.107-1.197-0.596-2.461-2.13-2.421c-19.354,0.508-38.704-0.25-58.058-0.28c-1.61-0.003-2.315,1.412-2.117,2.654
		c-0.064,0.216-0.109,0.448-0.106,0.712c0.292,23.095,1.086,56.279,1.111,79.377c0,0.518,0.147,0.939,0.382,1.272
		c0.143,0.979,0.846,1.845,2.119,1.813c8.366-0.208,16.734-0.342,25.093-0.752c7.45-0.365,16.734,0.124,23.856-2.307
		c2.521-0.861,4.776-2.134,6.71-3.977c3.534-3.369,4.741-7.892,5.045-12.658c0.292-4.577-0.247-9.379-0.354-13.597
		C81.485,48.728,80.888,39.748,80.529,28.855z M68.283,70.049c-1.362,0.008-2.678,1.071-2.069,2.705
		c1.224,3.286,1.784,7.366-0.099,10.509c-2.276,3.801-6.338,3.698-10.2,4.185c-2.362,0.298-4.873,0.14-7.253,0.207
		c-1.852,0.052-25.314,0.624-25.314,0.716c-0.055-22.233-0.79-54.553-1.087-76.784c17.869,0.077,35.733,0.691,53.601,0.309
		c-0.068,18.253,1.55,44.639,1.646,59.065c-2.772-0.875-5.637-1.244-8.595-1.046C68.682,69.929,68.477,69.982,68.283,70.049z
		 M70.029,85.245c1.794-3.058,2.242-6.81,1.309-10.877c2.161,0.084,4.292,0.501,6.31,1.356c0.008,0.025,0.015,0.052,0.023,0.077
		C77.017,80.62,73.968,83.577,70.029,85.245z"/>
	<path style="fill:#1E1E1C;" d="M29.458,37.318c-2.545,0.301-2.768,2.869-2.652,4.947c0.167,2.989,0.24,5.994,0.468,8.981
		c0.039,0.502,0.206,0.916,0.443,1.258c0.237,0.965,0.993,1.772,2.288,1.746c3.27-0.065,6.59-1.41,8.524-4.115
		c2.109-2.95,1.75-7.681-0.548-10.524C36.017,37.181,32.288,36.983,29.458,37.318z M32.055,48.992
		c-0.109-2.293-0.127-4.589-0.132-6.886C36.423,42.321,35.567,47.824,32.055,48.992z"/>
	<path style="fill:#1E1E1C;" d="M56.071,39.694c-4.787-5.058-14.319-1.055-14.734,5.715c-0.396,6.439,9.292,10.339,13.73,5.99
		c1.416-1.387,2.956-4.47,3.045-6.458c0.01-0.053,0.008-0.109,0.013-0.163c0-0.03,0.006-0.057,0.006-0.087
		c0-0.019-0.004-0.034-0.004-0.052c0-0.074,0.013-0.146,0.004-0.221C57.911,42.598,57.351,41.046,56.071,39.694z M46.253,45.409
		c-0.178-2.904,6.608-4.404,7.006-0.722c0.003,0.028,0.005,0.057,0.008,0.086C53.604,49.029,46.501,49.463,46.253,45.409z"/>
	<path style="fill:#1E1E1C;" d="M72.333,50.154c0-1.266-1.12-2.555-2.458-2.458c-2.014,0.146-4.23-0.665-4.359-2.913
		c-0.143-2.489,2.319-3.842,4.526-3.456c1.318,0.231,2.643-0.334,3.023-1.717c0.33-1.197-0.395-2.792-1.716-3.023
		c-3.62-0.634-7.666,0.508-9.667,3.715c-3.702,5.932,1.706,12.781,8.194,12.31C71.211,52.514,72.333,51.567,72.333,50.154z"/>
</g>
</svg>
