<?xml version="1.0" encoding="iso-8859-1"?>
<!-- Generator: Adobe Illustrator 17.0.2, SVG Export Plug-In . SVG Version: 6.00 Build 0)  -->
<!DOCTYPE svg PUBLIC "-//W3C//DTD SVG 1.1//EN" "http://www.w3.org/Graphics/SVG/1.1/DTD/svg11.dtd">
<svg version="1.1" id="Capa_1" xmlns="http://www.w3.org/2000/svg" xmlns:xlink="http://www.w3.org/1999/xlink" x="0px" y="0px"
	 width="100px" height="100px" viewBox="0 0 100 100" style="enable-background:new 0 0 100 100;" xml:space="preserve">
<g>
	<path style="fill:#1D1D1B;" d="M75.928,8.063c-0.191-0.051-0.394-0.086-0.611-0.099C57.61,6.85,39.888,6.185,22.16,7.22
		c-1.666,0.097-2.549,1.362-2.665,2.662C19.189,10.299,19,10.835,19,11.495c0.019,27.312,0.711,49.04,1.095,76.348
		c-0.703,1.613,0.108,4.012,2.436,4.132c14.121,0.725,24.911,1.133,39.032,1.859c0.356,0.018,0.667-0.033,0.952-0.117
		c0.595-0.018,1.205-0.221,1.763-0.699c5.266-4.514,10.488-9.065,15.241-14.126c0.584-0.622,0.799-1.318,0.767-1.984
		c0.042-0.226,0.066-0.465,0.05-0.73c-1.444-23.641-1.139-41.754-1.487-65.424C78.822,8.915,77.352,8.022,75.928,8.063z
		 M63.301,86.502c-0.252-2.953-0.545-5.901-0.923-8.841c3.671-0.637,7.386-0.777,11.117-0.607
		C70.232,80.348,66.8,83.46,63.301,86.502z M58.591,72.744c-1.606,0.376-2.153,1.71-1.947,2.967c-0.033,0.265-0.043,0.54,0,0.835
		c0.566,3.824,0.907,7.672,1.211,11.524c-11.286-0.565-20.391-0.955-32.206-1.526c-0.381-26.479-1.032-47.378-1.069-73.861
		c16.249-0.809,32.493-0.249,48.724,0.737c0.272,21.231,0.113,36.898,1.214,58.107C69.172,71.205,63.814,71.521,58.591,72.744z"/>
	<path style="fill:#1D1D1B;" d="M32.25,26.25c3.419,0,6.837,0.009,10.25,0.25c3.219,0.228,3.197-4.774,0-5
		c-3.413-0.241-6.831-0.25-10.25-0.25C29.025,21.25,29.026,26.25,32.25,26.25z"/>
	<path style="fill:#1D1D1B;" d="M42.5,35c3.217,0.247,3.193-4.755,0-5c-3.247-0.249-6.492-0.481-9.75-0.5
		c-3.225-0.019-3.223,4.981,0,5C36.008,34.519,39.253,34.751,42.5,35z"/>
	<path style="fill:#1D1D1B;" d="M43.25,43.25c3.197-0.228,3.219-5.23,0-5C40.16,38.47,37.081,38.254,34,38
		c-3.215-0.266-3.189,4.737,0,5C37.081,43.254,40.16,43.47,43.25,43.25z"/>
	<path style="fill:#1D1D1B;" d="M65.75,47.75C55.499,47.75,45.249,47.765,35,48c-3.219,0.074-3.226,5.074,0,5
		c10.249-0.235,20.499-0.25,30.75-0.25C68.975,52.75,68.975,47.75,65.75,47.75z"/>
	<path style="fill:#1D1D1B;" d="M65.75,57.25c-9.906,0.699-19.828,0.514-29.75,0.5c-3.225-0.005-3.224,4.995,0,5
		c9.922,0.014,19.844,0.199,29.75-0.5C68.947,62.024,68.969,57.023,65.75,57.25z"/>
	<path style="fill:#1D1D1B;" d="M67.25,24c-0.005-1.48-1.062-2.272-2.203-2.393c-0.352-0.217-0.778-0.357-1.297-0.357h-12
		c-1.769,0-2.561,1.504-2.389,2.862c-0.058,0.198-0.1,0.407-0.111,0.638c-0.243,4.997-0.25,9.998-0.25,15
		c0,0.66,0.216,1.178,0.55,1.567c0.334,0.806,1.062,1.433,2.2,1.433c4.669-0.001,9.335-0.023,14-0.25
		c1.702-0.083,2.497-1.528,2.395-2.844c0.041-0.259,0.058-0.529,0.016-0.82C67.463,33.92,67.269,28.96,67.25,24z M54.003,37.745
		c0.007-3.833,0.039-7.665,0.19-11.495h8.096c0.073,3.8,0.301,7.58,0.734,11.355C60.018,37.704,57.011,37.737,54.003,37.745z"/>
	<path style="fill:#1D1D1B;" d="M50,67.75H36.25c-3.225,0-3.225,5,0,5H50C53.225,72.75,53.225,67.75,50,67.75z"/>
</g>
</svg>
