<?xml version="1.0" encoding="iso-8859-1"?>
<!-- Generator: Adobe Illustrator 17.0.2, SVG Export Plug-In . SVG Version: 6.00 Build 0)  -->
<!DOCTYPE svg PUBLIC "-//W3C//DTD SVG 1.1//EN" "http://www.w3.org/Graphics/SVG/1.1/DTD/svg11.dtd">
<svg version="1.1" id="Capa_1" xmlns="http://www.w3.org/2000/svg" xmlns:xlink="http://www.w3.org/1999/xlink" x="0px" y="0px"
	 width="100px" height="100px" viewBox="0 0 100 100" style="enable-background:new 0 0 100 100;" xml:space="preserve">
<g>
	<path style="fill:#1D1D1B;" d="M86.122,50.767l-0.304-0.057c-0.131-0.032-0.261-0.067-0.404-0.082
		c-4.431-0.458-8.755-0.553-12.4-0.586l-0.991-0.009V12.105c0-2.119-1.389-2.914-2.217-3.198L69.62,8.843l-0.147-0.129
		c-0.598-0.522-1.352-0.788-2.24-0.788H32.768c-0.889,0-1.643,0.265-2.24,0.788L30.38,8.843l-0.186,0.064
		c-0.828,0.285-2.217,1.079-2.217,3.198v37.928l-0.991,0.009c-3.646,0.033-7.97,0.128-12.399,0.586
		c-0.145,0.015-0.274,0.05-0.405,0.082l-0.304,0.057c-1.529,0.086-3.01,1.204-3.521,2.657c-0.294,0.835-0.366,2.079,0.956,3.27
		l34.76,31.282l0.086,0.192c0.658,1.467,2.211,2.481,3.784,2.382L50,90.546l0.058,0.004c1.567,0.099,3.126-0.915,3.784-2.382
		l0.086-0.192l0.157-0.141l34.603-31.142c1.322-1.19,1.25-2.435,0.956-3.27C89.132,51.971,87.651,50.853,86.122,50.767z M50,81.921
		L22.595,57.257l2.543-0.042c2.136-0.035,4.272-0.049,6.411-0.049c0.991,0,1.8-0.309,2.404-0.917c0.65-0.654,1.021-1.631,1.015-2.68
		l-0.001-0.124l0.029-0.119c0.084-0.343,0.123-0.645,0.123-0.95V15.067h29.762v37.309c0,0.306,0.039,0.607,0.123,0.95l0.029,0.119
		l-0.001,0.124c-0.006,1.049,0.364,2.025,1.015,2.68c0.604,0.608,1.413,0.917,2.404,0.917c2.139,0,4.275,0.014,6.411,0.049
		l2.543,0.042L50,81.921z"/>
</g>
</svg>
