<?xml version="1.0" encoding="iso-8859-1"?>
<!-- Generator: Adobe Illustrator 17.0.2, SVG Export Plug-In . SVG Version: 6.00 Build 0)  -->
<!DOCTYPE svg PUBLIC "-//W3C//DTD SVG 1.1//EN" "http://www.w3.org/Graphics/SVG/1.1/DTD/svg11.dtd">
<svg version="1.1" id="Capa_1" xmlns="http://www.w3.org/2000/svg" xmlns:xlink="http://www.w3.org/1999/xlink" x="0px" y="0px"
	 width="100px" height="100px" viewBox="0 0 100 100" style="enable-background:new 0 0 100 100;" xml:space="preserve">
<g>
	<path style="fill:#1D1D1B;" d="M96.776,58.744c-3.728-11.247-6.311-22.843-9.623-34.213c-0.603-2.07-0.839-4.258-1.743-6.236
		c-0.723-1.581-2.542-4.073-4.425-4.077c-4.806-0.01-9.612-0.08-14.417-0.173c-0.521-0.246-1.121-0.307-1.688-0.191
		c-0.167,0.034-0.329,0.084-0.486,0.146c-1.001,0.398-1.746,1.359-1.436,2.725c0.26,1.145,0.414,2.412,0.521,3.731
		c0.12,1.492,0.178,3.05,0.238,4.596c0.086,2.217,0.185,4.398,0.511,6.276c0.122,0.699,0.459,1.183,0.897,1.497
		c0.374,0.413,0.907,0.706,1.627,0.751c1.359,0.086,2.716,0.179,4.07,0.3c-4.379,5.466-9.984,9.466-16.265,12.622
		c-5.873-3.896-11.484-8.109-16.323-13.19c1.241,0.06,2.481,0.132,3.722,0.21c1.534,0.096,2.4-0.989,2.546-2.172
		c0.068-0.204,0.12-0.421,0.138-0.665c0.19-2.676,0.519-5.333,0.902-7.982c0.127-0.876,0.256-1.752,0.394-2.627
		c0.199-1.267,0.405-2.533,0.613-3.799c0.296-1.804-1.181-2.674-2.611-2.516c0.027-0.07,0.055-0.14,0.082-0.211
		c-5.119-0.103-10.239-0.181-15.36-0.192c-2.396-0.004-3.788,2.847-4.624,4.628c-1.165,2.482-2.536,4.84-3.807,7.268
		c-3.332,6.361-6.35,12.878-9.509,19.325c-0.852,1.739-1.702,3.48-2.573,5.21c-0.437,0.868-1.574,4.281-2.438,4.664
		c-1.184,0.526-1.748,1.841-1.688,3.136c-0.093,0.343-0.144,0.721-0.113,1.155c0.39,5.474,0.362,10.939,0,16.414
		c-0.038,0.575,0.052,1.062,0.222,1.477c-0.425,1.883,0.49,3.95,2.797,3.922c28.165-0.344,56.458,2.041,85.733,1.728
		c1.951-0.021,2.924-1.66,2.919-3.285c1.247-6.14,1.631-12.338,1.322-18.604C96.995,59.903,96.979,59.355,96.776,58.744z
		 M30.384,19.853c3.512,0.017,7.023,0.065,10.534,0.125c-0.431,2.793-0.821,5.59-1.087,8.405c-2.167-0.122-4.334-0.204-6.506-0.183
		c-1.959-0.575-4.218,2.042-2.585,4.13c3.143,4.017,6.812,7.588,10.746,10.824c3.282,2.7,7.739,7.074,11.792,8.484
		c3.408,1.186,9.482-3.941,12.063-5.806c4.353-3.145,8.225-6.945,11.282-11.371c0.339-0.491,0.471-0.985,0.455-1.448
		c0.537-1.387-0.098-3.385-2.044-3.673c-2.062-0.306-4.132-0.489-6.208-0.635c-0.436-2.354-0.378-5.332-0.473-8.154
		c3.759,0.065,7.518,0.116,11.278,0.132c3.397,10.28,6.674,25.605,10.049,35.893c-25.591-1.741-51.233-1.947-76.867-2.29
		C18.357,44.262,24.233,29.464,30.384,19.853z M90.005,75.807c-27.217,0.045-54.248-2.067-79.997-1.91
		c0.246-4.392,0.272-8.779,0.039-13.17c26.979,0.376,53.97,0.524,80.904,2.411C91.026,67.396,90.742,71.608,90.005,75.807z"/>
	<path style="fill:#1D1D1B;" d="M57.127,20.259c-0.006,0.021-0.018,0.038-0.024,0.059c0.021,0,0.041,0.001,0.061,0.001
		C57.152,20.299,57.139,20.279,57.127,20.259z"/>
</g>
</svg>
