<?xml version="1.0" encoding="iso-8859-1"?>
<!-- Generator: Adobe Illustrator 17.0.2, SVG Export Plug-In . SVG Version: 6.00 Build 0)  -->
<!DOCTYPE svg PUBLIC "-//W3C//DTD SVG 1.1//EN" "http://www.w3.org/Graphics/SVG/1.1/DTD/svg11.dtd">
<svg version="1.1" id="Capa_1" xmlns="http://www.w3.org/2000/svg" xmlns:xlink="http://www.w3.org/1999/xlink" x="0px" y="0px"
	 width="100px" height="100px" viewBox="0 0 100 100" style="enable-background:new 0 0 100 100;" xml:space="preserve">
<g>
	<path style="fill:#1E1E1C;" d="M79.266,22.356c-0.159-4.814-0.247-9.642-0.2-14.458c0.002-0.215-0.032-0.404-0.081-0.582
		c0.094-1.049-0.522-2.158-1.867-2.122C60.152,5.638,43.189,4.974,26.223,4.947c-1.412-0.002-2.03,1.238-1.855,2.326
		c-0.057,0.189-0.096,0.393-0.093,0.624c0.256,20.246,0.952,49.336,0.974,69.584c0,0.454,0.129,0.823,0.334,1.115
		c0.125,0.858,0.742,1.617,1.857,1.59c3.024-0.075,6.049-0.142,9.074-0.216c0.186-0.06,0.374-0.11,0.567-0.137
		c0.092-0.023,0.213-0.048,0.352-0.064c0.775-0.09,1.547-0.144,2.272-0.177v-3.717c-5.374,0.142-10.567,0.289-10.567,0.329
		c-0.049-19.49-0.693-47.823-0.953-67.311C43.85,8.96,59.51,9.498,75.174,9.163c-0.053,14.326,1.348,37.457,1.443,51.778
		c-2.43-0.767-4.941-1.091-7.535-0.917c-0.202,0.014-0.382,0.059-0.552,0.118c-1.194,0.007-2.348,0.939-1.814,2.371
		c1.073,2.881,1.564,6.458-0.086,9.212c-1.817,3.034-4.932,3.231-8.031,3.564v3.972c4.101-0.167,8.229-0.554,11.751-1.757
		c2.21-0.754,4.188-1.871,5.882-3.486c3.099-2.953,4.156-6.919,4.423-11.097c0.256-4.013-0.216-8.222-0.311-11.919
		C80.104,41.452,79.58,31.905,79.266,22.356z M70.061,73.464c1.573-2.681,1.966-5.97,1.147-9.535
		c1.895,0.074,3.763,0.439,5.531,1.189c0.008,0.022,0.013,0.046,0.021,0.068C76.187,69.41,73.514,72.002,70.061,73.464z"/>
	<path style="fill:#1E1E1C;" d="M60.855,81.804c-0.07-0.018-0.139-0.04-0.215-0.049c-1.344-0.156-2.692-0.201-4.041-0.215v-2.213
		v-3.843V64.464c0-0.804-0.416-1.307-0.935-1.508c-0.231-0.228-0.541-0.377-0.938-0.377h-5.037h-1.074h-5.038
		c-0.396,0-0.706,0.149-0.938,0.377c-0.52,0.201-0.935,0.704-0.935,1.508v11.358v4.002v1.716c-1.349,0.014-2.697,0.059-4.041,0.215
		c-0.076,0.009-0.145,0.031-0.215,0.049c-1.146,0.073-2.112,1.693-1.028,2.791c3.731,3.778,7.462,7.555,11.193,11.333
		c0.245,0.613,0.829,1.083,1.457,1.083c0.027,0,0.054-0.001,0.081-0.003c0.027,0.002,0.054,0.003,0.081,0.003
		c0.627,0,1.212-0.47,1.457-1.083c3.731-3.778,7.462-7.555,11.193-11.333C62.967,83.498,62.001,81.877,60.855,81.804z
		 M49.152,93.016c-2.679-2.713-5.358-5.425-8.037-8.137c0.689-0.013,1.378-0.018,2.068-0.018c0.958,0,1.434-0.839,1.429-1.675
		c0.029-0.134,0.049-0.276,0.049-0.432V80.87c-0.006-0.084-0.03-0.149-0.03-0.24c0-0.302,0.007-0.602,0.01-0.904
		c0.004-0.416,0.007-0.831,0.02-1.246v-2.735v-9.84h3.953h1.074h3.953v8.898c0,0.003,0.001,0.006,0.001,0.009
		c0.017,0.25,0.017,0.498,0.024,0.748c0.017,0.616,0.013,1.232-0.025,1.844v1.992v3.357c0,0.157,0.02,0.299,0.049,0.432
		c-0.004,0.836,0.472,1.674,1.429,1.675c0.69,0,1.379,0.005,2.068,0.018C54.51,87.591,51.831,90.303,49.152,93.016z"/>
</g>
</svg>
