<?xml version="1.0" encoding="iso-8859-1"?>
<!-- Generator: Adobe Illustrator 17.0.2, SVG Export Plug-In . SVG Version: 6.00 Build 0)  -->
<!DOCTYPE svg PUBLIC "-//W3C//DTD SVG 1.1//EN" "http://www.w3.org/Graphics/SVG/1.1/DTD/svg11.dtd">
<svg version="1.1" id="Capa_1" xmlns="http://www.w3.org/2000/svg" xmlns:xlink="http://www.w3.org/1999/xlink" x="0px" y="0px"
	 width="100px" height="100px" viewBox="0 0 100 100" style="enable-background:new 0 0 100 100;" xml:space="preserve">
<g>
	<path style="fill:#1E1E1C;" d="M89.455,18.836c-0.307-1.65-2.074-2.652-3.665-2.548c-0.072-0.004-0.135-0.021-0.21-0.021
		c-20.998,0-41.982-1.117-62.974-0.12c-1.408,0.067-3.893-0.287-6.281-0.278c-3.211,0.011-6.245,0.677-6.245,3.898
		c0,0.093,0.021,0.181,0.028,0.271c-0.023,0.365-0.009,0.746,0.097,1.159c5.834,22.777,18.21,43.455,32.65,61.794
		c0.812,1.031,1.802,1.325,2.733,1.159c0.495,0.071,0.99,0.115,1.492,0.116c1.127,0.001,2.135-0.563,2.778-1.412
		c0.151-0.111,0.302-0.22,0.447-0.363c16.595-16.455,31.422-35.619,39.4-57.794c0.259-0.72,0.266-1.362,0.116-1.926
		C89.8,21.45,89.699,20.145,89.455,18.836z M46.513,76.372c-12.259-15.86-22.755-33.668-28.437-52.967
		c21.555-1.413,43.142-0.284,64.72-0.152C75.388,43.562,61.651,61.169,46.513,76.372z"/>
</g>
</svg>
