<?xml version="1.0" encoding="iso-8859-1"?>
<!-- Generator: Adobe Illustrator 17.0.2, SVG Export Plug-In . SVG Version: 6.00 Build 0)  -->
<!DOCTYPE svg PUBLIC "-//W3C//DTD SVG 1.1//EN" "http://www.w3.org/Graphics/SVG/1.1/DTD/svg11.dtd">
<svg version="1.1" id="Capa_1" xmlns="http://www.w3.org/2000/svg" xmlns:xlink="http://www.w3.org/1999/xlink" x="0px" y="0px"
	 width="100px" height="100px" viewBox="0 0 100 100" style="enable-background:new 0 0 100 100;" xml:space="preserve">
<g>
	<path style="fill:#1D1D1B;" d="M67.843,49.063c-2.45-0.017-4.898-0.048-7.341-0.23c-0.078-3.33,0.048-12.276,0.582-15.574
		c0.267-1.648-1.021-2.778-2.293-2.938c-0.309-0.17-0.674-0.279-1.111-0.282c-5.383-0.038-10.765-0.093-16.143-0.347
		c-1.451-0.068-2.201,0.978-2.263,2.099c-0.042,0.145-0.077,0.295-0.094,0.458c-0.403,3.857-0.541,13.338-0.581,17.211
		c-1.795,0.073-4.496,0.075-6.294,0.063c-0.7-0.005-1.232,0.25-1.61,0.634c-1.474,0.511-2.473,2.423-1.011,3.81
		c6.722,6.383,12.225,13.076,18.612,19.791c1.312,1.38,3.118,0.583,3.754-0.742c5.352-6.419,12.532-12.823,17.883-19.243
		c0.852-1.022,0.676-2.251,0.05-3.099C69.733,49.798,69.027,49.071,67.843,49.063z M49.749,68.505
		c-4.617-4.841-8.36-9.651-13.138-14.333c1.05-0.027,3.005-0.07,4.054-0.151c0.863-0.067,1.472-0.509,1.843-1.092
		c0.445-0.374,0.746-0.939,0.751-1.698c0.027-3.727,0.131-13.062,0.418-16.776c4.179,0.158,8.359,0.212,12.542,0.247
		c-0.391,3.576-0.475,12.765-0.323,16.383c0.074,1.769,1.725,2.504,3.046,2.2c0.208,0.08,0.43,0.143,0.682,0.166
		c1.436,0.13,2.874,0.197,4.313,0.235C59.812,58.627,53.872,63.563,49.749,68.505z"/>
	<path style="fill:#1D1D1B;" d="M83.004,5.024C79.765,4.254,76.16,3.88,71.983,3.88c-3.418,0-6.834,0.242-10.137,0.476l-2.006,0.14
		c-4.866,0.33-9.708,0.372-13.384,0.372c-0.001,0-0.002,0-0.002,0c-1.971,0-3.941-0.014-5.913-0.027
		c-1.986-0.014-3.974-0.027-5.963-0.027l-0.923,0.001c-1.245,0-2.718-0.07-4.276-0.144c-1.812-0.086-3.866-0.184-5.906-0.184
		c-4.629,0-18.718,0-18.718,13.722c0,1.662,0.009,3.325,0.019,4.988c0.012,2.181,0.023,4.362,0.015,6.542
		c-0.015,3.595-0.01,7.188-0.004,10.782c0.015,9.724,0.029,19.778-0.38,29.635l-0.015,0.352C4.12,77.004,3.712,86.821,8.853,92.182
		c2.315,2.413,5.434,3.638,9.271,3.638c7.283,0.001,14.694,0.076,21.862,0.149c6.665,0.068,13.558,0.138,20.343,0.148l1.131,0.001
		c6.013,0,11.041-0.086,15.824-0.27l0.72-0.026c4.241-0.153,9.519-0.344,13.491-3.711c4.395-3.725,4.322-9.027,4.264-13.288
		c-0.007-0.498-0.014-0.994-0.014-1.486c-0.002-6.687,0.076-13.506,0.152-20.102c0.145-12.56,0.294-25.547-0.104-38.308
		C95.637,13.934,93.291,7.468,83.004,5.024z M90.396,57.172c-0.076,6.611-0.154,13.448-0.152,20.167
		c0,0.516,0.007,1.037,0.015,1.561c0.06,4.336-0.067,7.106-2.321,9.017c-2.519,2.135-6.39,2.274-10.133,2.409l-0.732,0.027
		c-4.712,0.182-9.673,0.266-15.613,0.266l-1.122-0.001c-6.762-0.011-13.643-0.08-20.296-0.148
		c-7.181-0.073-14.606-0.148-21.918-0.149c-2.312,0-4.046-0.637-5.301-1.944c-3.518-3.668-3.168-12.076-2.936-17.64l0.015-0.353
		c0.414-9.974,0.398-20.089,0.384-29.871c-0.006-3.583-0.011-7.167,0.004-10.751c0.009-2.198-0.003-4.396-0.015-6.594
		c-0.01-1.653-0.019-3.306-0.019-4.958c0-4.935,2.248-8.222,13.218-8.222c1.909,0,3.809,0.09,5.645,0.178
		c1.626,0.078,3.162,0.15,4.617,0.15l0.844-0.001c1.977,0,3.951,0.014,5.925,0.027c1.984,0.014,3.968,0.027,5.951,0.027
		c0.001,0,0.001,0,0.002,0c3.762,0,8.725-0.043,13.755-0.384l2.023-0.141c3.208-0.227,6.524-0.462,9.748-0.462
		c3.743,0,6.932,0.326,9.749,0.995c7.403,1.758,8.465,5.586,8.562,8.724C90.689,31.743,90.541,44.67,90.396,57.172z"/>
	<path style="fill:#1D1D1B;" d="M75.797,14.41c-1.209-0.194-2.521-0.293-3.899-0.293l-0.243,0.001
		c-5.91,0.048-11.82-0.008-17.731-0.066c-6.519-0.062-13.037-0.125-19.554-0.049l-0.562,0.003c-0.549,0-1.125-0.007-1.721-0.015
		c-0.662-0.008-1.348-0.017-2.045-0.017c-4.395,0-16.069,0-16.069,11.204c0,1.296,0.007,2.593,0.014,3.891
		c0.01,1.715,0.019,3.43,0.012,5.145c-0.012,2.813-0.007,5.625-0.003,8.437c0.012,7.622,0.024,15.503-0.297,23.224l-0.011,0.274
		c-0.217,5.193-0.544,13.042,3.662,17.427c1.931,2.014,4.521,3.035,7.696,3.035c5.724,0.001,11.55,0.06,17.184,0.117
		c5.209,0.053,10.595,0.107,15.898,0.116l0.896,0.001c4.645,0,8.707-0.069,12.419-0.212l0.565-0.021
		c3.415-0.124,7.665-0.277,10.936-3.05c3.658-3.101,3.6-7.414,3.552-10.879c-0.005-0.388-0.011-0.773-0.011-1.156
		c-0.002-5.232,0.06-10.572,0.119-15.735c0.114-9.856,0.232-20.048-0.081-30.069C86.328,19.507,82.519,15.489,75.797,14.41z
		 M81.104,55.729c-0.06,5.18-0.122,10.535-0.12,15.801c0,0.406,0.006,0.817,0.012,1.229c0.044,3.215-0.011,5.253-1.609,6.608
		c-1.817,1.54-4.745,1.646-7.578,1.748l-0.577,0.021c-3.641,0.14-7.634,0.208-12.208,0.208l-0.888-0.001
		c-5.28-0.009-10.654-0.063-15.852-0.116c-5.647-0.058-11.487-0.116-17.239-0.117c-2.188,0-3.175-0.766-3.728-1.342
		c-2.582-2.692-2.313-9.131-2.136-13.392l0.012-0.275c0.325-7.838,0.312-15.779,0.301-23.459c-0.004-2.802-0.009-5.604,0.003-8.406
		c0.007-1.732-0.002-3.465-0.012-5.197c-0.007-1.287-0.014-2.574-0.014-3.861c0-3.699,1.685-5.704,10.569-5.704
		c0.674,0,1.336,0.008,1.976,0.016c0.62,0.008,1.22,0.016,1.79,0.016l0.627-0.003c6.478-0.076,12.958-0.013,19.436,0.049
		c5.945,0.058,11.889,0.115,17.83,0.066l0.198-0.001c1.086,0,2.104,0.075,3.027,0.224c5.266,0.845,6.026,3.68,6.1,6.055
		C81.334,35.798,81.218,45.93,81.104,55.729z"/>
</g>
</svg>
