<?xml version="1.0" encoding="iso-8859-1"?>
<!-- Generator: Adobe Illustrator 17.0.2, SVG Export Plug-In . SVG Version: 6.00 Build 0)  -->
<!DOCTYPE svg PUBLIC "-//W3C//DTD SVG 1.1//EN" "http://www.w3.org/Graphics/SVG/1.1/DTD/svg11.dtd">
<svg version="1.1" id="Capa_1" xmlns="http://www.w3.org/2000/svg" xmlns:xlink="http://www.w3.org/1999/xlink" x="0px" y="0px"
	 width="100px" height="100px" viewBox="0 0 100 100" style="enable-background:new 0 0 100 100;" xml:space="preserve">
<g>
	<path style="fill:#1E1E1C;" d="M93.607,34.056c-3.387-4.042-6.947-7.928-10.667-11.667c-1.601-1.609-3.711-0.812-4.642,0.671
		c-9.301,7.818-18.511,16.744-27.821,24.551c-8.897-8.856-18.976-17.392-28.204-25.889c-1.035-0.953-2.256-0.991-3.254-0.534
		c-0.949,0.073-1.819,0.647-2.458,1.474c-3.003,3.888-6.169,7.644-9.468,11.284c-1.503,0.916-2.332,3.055-0.729,4.685
		c12.788,13.007,27.2,24.394,38.667,38.667c0.314,0.391,0.659,0.655,1.015,0.819c1.074,0.817,2.625,1.023,3.895-0.153
		C64.317,64.653,79.54,52.281,93.607,38.632c0.954-0.925,1.069-2.028,0.712-2.974C94.25,35.114,94.034,34.565,93.607,34.056z
		 M48.05,71.575C37.448,58.783,24.556,48.236,12.783,36.569c2.517-2.852,4.941-5.777,7.298-8.762
		c9.053,8.107,18.765,16.465,27.284,25.159c0.444,0.453,0.93,0.703,1.418,0.817c1.073,0.728,2.567,0.899,3.824-0.15
		c9.448-7.888,18.775-16.919,28.185-24.851c2.308,2.394,4.534,4.864,6.712,7.378C74.726,48.375,61.096,59.65,48.05,71.575z"/>
</g>
</svg>
