<?xml version="1.0" encoding="iso-8859-1"?>
<!-- Generator: Adobe Illustrator 17.0.2, SVG Export Plug-In . SVG Version: 6.00 Build 0)  -->
<!DOCTYPE svg PUBLIC "-//W3C//DTD SVG 1.1//EN" "http://www.w3.org/Graphics/SVG/1.1/DTD/svg11.dtd">
<svg version="1.1" id="Capa_1" xmlns="http://www.w3.org/2000/svg" xmlns:xlink="http://www.w3.org/1999/xlink" x="0px" y="0px"
	 width="100px" height="100px" viewBox="0 0 100 100" style="enable-background:new 0 0 100 100;" xml:space="preserve">
<g>
	<path style="fill:#1E1E1C;" d="M78.875,59.193l-0.08-0.141c-0.055-0.147-0.162-0.33-0.307-0.507
		c-0.099-0.288-0.204-0.577-0.33-0.866c-0.09-0.206-0.193-0.413-0.295-0.619c-0.422-0.855-0.926-1.711-1.468-2.571
		c0.074-0.171,0.125-0.362,0.133-0.582c0.505-12.741,0.716-25.492-0.774-38.179c-0.012-0.104-0.041-0.196-0.068-0.289
		c0.042-0.196,0.052-0.409,0.012-0.639c-0.602-3.498-2.016-6.774-3.878-9.779c-0.007-0.771-0.503-1.585-1.483-1.676
		C57.377,2.14,44.379,2.549,31.384,2.573c-0.297,0-0.545,0.076-0.753,0.193c-0.3,0.039-0.599,0.194-0.857,0.518
		c-2.268,2.852-4.405,5.799-6.434,8.826c-0.326,0.488-0.321,0.963-0.131,1.353c-0.208,0.242-0.347,0.56-0.338,0.976
		c0.26,12.726,0.519,25.453,0.774,38.179c0.008,0.422,0.159,0.75,0.382,0.993c-0.379,0.523-0.748,1.045-1.108,1.566
		c-0.173,0.25-0.332,0.501-0.498,0.751c-0.182,0.274-0.36,0.549-0.531,0.823c-0.15,0.136-0.274,0.326-0.345,0.576
		c-0.202,0.429-0.184,0.839-0.023,1.185c0.617,8.659,0.721,17.453,0.815,25.965c0.032,2.917,0.064,5.834,0.117,8.751
		c0.003,0.173,0.034,0.343,0.097,0.532c0.127,0.771,0.606,1.542,1.625,1.638c12.996,1.226,28.765,1.299,42.678,1.364
		c4.124,0.019,8.132,0.037,11.932,0.084l0.029,0.496c0,0,0,0,0,0v-0.496c0.344,0,0.648-0.088,0.902-0.262l0.202-0.081
		c0.309-0.051,1.313-0.312,1.262-1.554c-0.492-11.76-1.009-23.271-1.933-34.791C79.219,59.787,79.093,59.461,78.875,59.193z
		 M74.591,57.314c0.093,0.172,0.181,0.345,0.267,0.517c-1.898-0.099-3.838-0.192-5.821-0.278c-0.046-0.17-0.095-0.339-0.146-0.507
		c-0.051-0.169-0.103-0.338-0.158-0.506c-0.247-0.76-0.519-1.512-0.774-2.269c-0.258-0.765-0.904-1.079-1.538-1.063
		c-0.144-0.043-0.296-0.073-0.47-0.073H50.123c-0.09-0.137-0.168-0.283-0.248-0.427c-0.21-0.38-0.41-0.763-0.645-1.129
		c-0.353-0.548-0.979-0.84-1.592-0.741c-0.084-0.013-0.168-0.026-0.261-0.026h-13.93c-0.455,0-0.801,0.165-1.049,0.414
		c-0.212,0.127-0.404,0.321-0.545,0.611c-0.547,1.117-0.993,2.269-1.387,3.441c-0.056,0.166-0.116,0.33-0.169,0.496
		c-0.053,0.163-0.1,0.329-0.15,0.493c-1.396-0.05-2.764-0.102-4.12-0.156c0.114-0.161,0.232-0.323,0.348-0.484
		c0.117-0.163,0.233-0.326,0.352-0.49c1.513-2.089,3.093-4.197,4.241-6.352c13.062,1.169,26.166,0.941,39.266,1.092
		c1.001,2.318,2.769,4.628,4.077,6.922C74.408,56.971,74.499,57.142,74.591,57.314z M33.519,55.885
		c0.058-0.167,0.134-0.328,0.195-0.495c0.184-0.498,0.365-0.997,0.584-1.482h12.712c0.317,0.564,0.626,1.126,1.079,1.61
		c0.053,0.057,0.114,0.103,0.174,0.149c0.046,0.062,0.103,0.117,0.16,0.172c0.245,0.235,0.579,0.391,1.018,0.391h11.272h4.654
		c0.02,0.057,0.038,0.116,0.058,0.173c0.059,0.168,0.113,0.338,0.17,0.507c0.057,0.169,0.115,0.337,0.169,0.506
		c-6.615-0.261-13.543-0.465-20.328-0.666c-4.16-0.123-8.182-0.243-12.073-0.372C33.417,56.215,33.462,56.048,33.519,55.885z
		 M31.197,19.856c12.284,0.504,24.577,0.766,36.854,1.433c0.643,8.353,1.039,16.719,1.392,25.089
		c-12.541-0.131-25.085,0.046-37.591-1.013C31.718,36.857,31.749,28.35,31.197,19.856z M31.815,5.666
		c12.403-0.03,24.807-0.377,37.178,0.67c1.426,2.263,2.553,4.651,3.25,7.209c-14.986-1.237-29.985-2.645-45.016-1.621
		C28.697,9.795,30.21,7.697,31.815,5.666z M72.755,16.684c1.22,11.019,1.195,22.085,0.824,33.15
		c-0.237-0.474-0.446-0.949-0.621-1.424c0.031-0.144,0.051-0.297,0.043-0.467c-0.389-9.321-0.807-18.639-1.552-27.939
		c-0.032-0.407-0.177-0.738-0.388-0.997c-0.224-0.599-0.74-1.091-1.552-1.137c-13.184-0.754-26.389-0.991-39.581-1.552
		c-0.429-0.018-0.775,0.095-1.04,0.288c-0.739,0.124-1.361,0.673-1.289,1.652c0.699,9.431,0.607,18.878,0.776,28.327
		c0.002,0.136,0.038,0.249,0.066,0.367c-0.506,0.984-1.108,1.957-1.758,2.923c-0.233-11.586-0.469-23.173-0.705-34.759
		C41.599,13.909,57.185,15.403,72.755,16.684z M77.24,93.482c-3.215-0.033-6.605-0.051-10.098-0.068
		c-13.362-0.068-28.508-0.146-40.902-1.196L25.79,92.18l-0.007-0.452c-0.037-2.337-0.063-4.673-0.09-7.009
		c-0.093-8.117-0.189-16.51-0.725-24.748l-0.036-0.555l0.556,0.022c6.167,0.254,12.876,0.453,19.979,0.665
		c10.293,0.308,20.937,0.625,30.073,1.122l0.438,0.023l0.034,0.438c0.763,9.906,1.245,19.667,1.735,31.274l0.022,0.527L77.24,93.482
		z"/>
	<path style="fill:#1E1E1C;" d="M62.751,72.451c-0.749-0.206-1.765,0.248-1.904,1.081c-0.11,0.655-0.219,1.327-0.416,1.967
		c-6.488,0.139-12.977,0.16-19.466,0.162c-0.214-0.641-1.435-1.288-1.554-1.956c-0.148-0.831-1.148-1.289-1.904-1.081
		c-0.869,0.239-1.229,1.074-1.082,1.904c0.179,1.006,0.486,1.974,0.86,2.924c0.005,0.013,0.012,0.024,0.018,0.037
		c0.105,0.671,0.596,1.271,1.475,1.271c7.052,0,15.135-0.013,22.185-0.172c0.093-0.002,0.177-0.017,0.262-0.032
		c0.617,0.096,1.312-0.151,1.591-0.735c0.533-1.118,1.845-2.25,2.048-3.465C65.003,73.524,63.627,72.692,62.751,72.451z"/>
	<path style="fill:#1E1E1C;" d="M39.678,33.794c0.192,0.26,0.434,0.469,0.703,0.603c0.217,0.169,0.482,0.294,0.805,0.335
		c6.175,0.793,12.358,0.846,18.574,0.688c0.052-0.001,0.098-0.013,0.148-0.018c0.78,0.106,1.402-0.401,1.688-1.118
		c0.316-0.791,0.643-1.582,0.86-2.408c0.214-0.815-0.262-1.678-1.082-1.904c-0.806-0.222-1.69,0.265-1.904,1.081
		c-0.115,0.437-0.262,0.863-0.42,1.286c-5.706,0.129-11.385,0.059-17.057-0.611c-0.528-0.744-1.038-1.5-1.605-2.218
		c-0.523-0.664-1.646-0.544-2.189,0c-0.648,0.649-0.522,1.527,0,2.189C38.701,32.335,39.174,33.113,39.678,33.794z"/>
</g>
</svg>
