<?xml version="1.0" encoding="utf-8"?>
<!-- Generator: Adobe Illustrator 17.0.2, SVG Export Plug-In . SVG Version: 6.00 Build 0)  -->
<!DOCTYPE svg PUBLIC "-//W3C//DTD SVG 1.1//EN" "http://www.w3.org/Graphics/SVG/1.1/DTD/svg11.dtd">
<svg version="1.1" id="Capa_1" xmlns="http://www.w3.org/2000/svg" xmlns:xlink="http://www.w3.org/1999/xlink" x="0px" y="0px"
	 width="100px" height="100px" viewBox="0 0 100 100" enable-background="new 0 0 100 100" xml:space="preserve">
<g>
	<path fill="#1D1D1B" d="M59.628,8.838c-0.462-0.653-1.168-1.112-2.03-1.31c-3.469-0.797-6.978-1.201-10.428-1.201
		c-9.574,0-18.66,3.072-26.294,8.887c-1.202,0.188-2.148,0.969-2.566,2.116c-2.546,2.251-4.877,4.812-6.93,7.616
		C1.084,39.004-0.059,58.109,8.535,72.486c8.103,13.555,24.381,21.976,42.484,21.977c0.001,0,0.001,0,0.002,0
		c3.918,0,7.775-0.415,11.461-1.232c19.923-4.422,34.281-21.233,34.139-39.975C96.545,43.06,92.595,33.32,85.198,25.088
		C78.597,17.742,69.528,11.981,59.628,8.838z M48.521,13.489c0.346,0.156,0.696,0.256,1.065,0.304
		c9.465,1.224,17.773,4.849,24.71,10.782c-4.35,4.745-9.175,8.926-14.364,12.449c-7.732-9.79-17.821-16.99-28.116-20.117
		C37.046,14.484,42.774,13.307,48.521,13.489z M12.225,38.578c2.173-6.266,5.97-11.84,10.994-16.145
		c10.668,1.002,22.001,7.807,30.587,18.339c-10.084,5.538-21.034,8.459-31.739,8.459c-3.973,0-7.961-0.397-11.868-1.181
		C10.46,44.886,11.141,41.704,12.225,38.578z M10.342,55.346c3.842,0.665,7.752,1.001,11.643,1.001
		c12.251,0,24.692-3.358,36.042-9.722c1.936,3.047,3.56,6.201,4.838,9.4c-12.193,5.306-23.62,14.342-33.14,26.21
		C18.767,76.532,11.775,66.819,10.342,55.346z M63.456,85.466c-4.086,1.158-8.377,1.745-12.761,1.745
		c-4.814,0-9.664-0.737-14.116-2.141c8.22-9.915,18.018-17.557,28.468-22.202C67.006,71.075,66.461,78.855,63.456,85.466z
		 M86.937,65.962c-2.948,6.744-8.03,12.223-14.769,15.952c1.601-6.697,1.444-14.092-0.468-21.579
		c5.703-1.812,11.58-2.778,17.5-2.879C88.875,60.409,88.116,63.266,86.937,65.962z M69.489,53.533
		c-1.437-3.646-3.254-7.219-5.416-10.648c5.538-3.763,10.677-8.214,15.298-13.251c1.522,1.763,2.935,3.653,4.209,5.63
		c3.003,4.66,4.911,9.833,5.55,15.027C82.479,50.396,75.881,51.484,69.489,53.533z"/>
</g>
</svg>
