<?xml version="1.0" encoding="iso-8859-1"?>
<!-- Generator: Adobe Illustrator 17.0.2, SVG Export Plug-In . SVG Version: 6.00 Build 0)  -->
<!DOCTYPE svg PUBLIC "-//W3C//DTD SVG 1.1//EN" "http://www.w3.org/Graphics/SVG/1.1/DTD/svg11.dtd">
<svg version="1.1" id="Capa_1" xmlns="http://www.w3.org/2000/svg" xmlns:xlink="http://www.w3.org/1999/xlink" x="0px" y="0px"
	 width="100px" height="100px" viewBox="0 0 100 100" style="enable-background:new 0 0 100 100;" xml:space="preserve">
<g>
	<path style="fill:#1D1D1B;" d="M89.802,7.143L86.217,4.06c-1.175-1.011-2.611-1.622-4.151-1.766
		c-2.398-0.225-4.767,0.73-6.336,2.555L60.486,22.57l-0.504-0.402c-0.917-0.73-1.835-1.46-2.747-2.198
		c-0.771-0.623-1.702-0.716-2.515-0.261c-0.454,0.059-0.893,0.231-1.275,0.504c-1.819,1.295-3.122,3.184-3.668,5.318
		c-0.259,1.011-0.03,1.989,0.576,2.58l0.084,0.113c0.491,0.559,0.992,1.106,1.497,1.65C40.97,44.753,27.115,57.417,13.715,69.667
		l-3.604,3.297c-0.124,0.113-0.237,0.241-0.344,0.386c-0.582,0.386-0.947,0.969-1.062,1.694c-0.564,3.609-0.93,7.256-1.252,10.691
		c-0.177,0.2-0.329,0.423-0.453,0.665c-0.181,0.352-0.384,0.713-0.59,1.082c-1.266,2.263-2.841,5.08-0.259,7.485
		c0.121,0.112,0.237,0.234,0.354,0.356c0.494,0.515,1.055,1.098,1.957,1.147c0.197,0.011,0.403,0.019,0.615,0.019
		c0.638,0,1.332-0.07,2.017-0.339c0.748-0.293,1.301-0.77,1.836-1.23c0.299-0.258,0.584-0.504,0.938-0.744
		c3.948,0.064,8.098-0.208,12.689-0.823c0.514-0.069,0.962-0.272,1.306-0.591c0.494-0.12,0.938-0.381,1.293-0.763
		C37.225,83.321,44.654,73.87,51.84,64.73c5.435-6.914,11.052-14.059,16.906-20.819c1.027,0.636,1.916,1.16,2.773,1.635
		c0.216,0.12,0.45,0.207,0.715,0.265c0.704,0.309,1.438,0.286,2.023-0.063c2.446-1.459,4.146-3.251,5.351-5.642
		c0.51-1.013,0.038-2.115-0.634-2.744c-0.16-0.274-0.38-0.519-0.653-0.731l-2.428-1.912l14.698-17.087
		C93.265,14.522,92.911,9.817,89.802,7.143z M54.81,52.982l-3.396-3.396c-1.825-1.825-4.654,1.003-2.828,2.828
		c1.167,1.167,2.333,2.333,3.5,3.5c0.076,0.076,0.155,0.131,0.233,0.191c-1.508,1.905-3.005,3.805-4.485,5.687
		c-1.514,1.925-3.041,3.864-4.58,5.807c-1.36-0.915-2.664-1.858-3.84-3.013c-1.841-1.808-4.671,1.019-2.828,2.828
		c1.275,1.252,2.704,2.311,4.175,3.315c-2.392,2.988-4.823,5.967-7.304,8.908c-0.016-0.017-0.026-0.035-0.043-0.051
		c-1.434-1.408-3.066-2.592-4.5-4c-1.841-1.808-4.671,1.019-2.828,2.828c1.434,1.408,3.066,2.592,4.5,4
		c0.096,0.094,0.195,0.168,0.295,0.237c-1.701,1.963-3.423,3.905-5.178,5.806c-4.61,0.617-8.462,0.863-12.132,0.765
		c-0.357-0.006-0.717,0.054-1.043,0.187c-0.289,0.037-0.549,0.125-0.773,0.266c-0.481,0.3-1.098,0.703-1.705,1.215
		c0.21-0.471,0.505-0.926,0.816-1.406c0.254-0.393,0.517-0.798,0.733-1.22c0.072-0.14,0.124-0.289,0.159-0.459
		c0.355-0.379,0.57-0.869,0.624-1.429c0.342-3.638,0.663-6.703,1.113-9.785l3.347-3.062c13.496-12.34,27.446-25.095,38.594-40.042
		c2.918,2.834,5.991,5.41,9.148,7.667C61.249,45.014,58,48.994,54.81,52.982z M74.078,39.617c-0.325,0.379-0.692,0.73-1.097,1.05
		c-6.527-3.813-12.584-8.8-18.01-14.828c0.165-0.31,0.359-0.593,0.586-0.855C61.363,29.667,67.431,34.461,74.078,39.617z
		 M86.833,14.398L72.444,31.125L65.1,24.808L79.488,8.081c0.858-0.997,2.489-1.129,3.496-0.263l3.585,3.084
		C87.605,11.793,87.723,13.362,86.833,14.398z"/>
</g>
</svg>
