<?xml version="1.0" encoding="iso-8859-1"?>
<!-- Generator: Adobe Illustrator 17.0.2, SVG Export Plug-In . SVG Version: 6.00 Build 0)  -->
<!DOCTYPE svg PUBLIC "-//W3C//DTD SVG 1.1//EN" "http://www.w3.org/Graphics/SVG/1.1/DTD/svg11.dtd">
<svg version="1.1" id="Capa_1" xmlns="http://www.w3.org/2000/svg" xmlns:xlink="http://www.w3.org/1999/xlink" x="0px" y="0px"
	 width="100px" height="100px" viewBox="0 0 100 100" style="enable-background:new 0 0 100 100;" xml:space="preserve">
<g>
	<path style="fill:#1E1E1C;" d="M71.619,50.351c-1.472,1.629-2.988,3.185-4.541,4.686c0.215,6.232,0.38,12.094,0.414,17.064
		c-2.901-0.915-5.899-1.302-8.996-1.095c-0.242,0.016-0.457,0.071-0.659,0.141c-1.425,0.008-2.803,1.121-2.166,2.831
		c1.281,3.439,1.867,7.71-0.103,10.999c-2.383,3.978-6.634,3.87-10.675,4.38c-2.472,0.311-5.099,0.146-7.591,0.217
		c-1.938,0.055-26.494,0.653-26.494,0.749C10.75,67.053,9.981,33.226,9.669,9.96c18.702,0.081,37.398,0.723,56.099,0.323
		c-0.005,1.522,0.003,3.131,0.023,4.804c1.531-1.648,3.069-3.284,4.62-4.899c0.002-0.472,0-0.945,0.004-1.417
		c0.002-0.256-0.039-0.482-0.097-0.695c0.113-1.253-0.624-2.576-2.229-2.534C47.834,6.075,27.583,5.282,7.326,5.25
		C5.641,5.247,4.903,6.728,5.111,8.027C5.043,8.253,4.997,8.496,5,8.773c0.306,24.171,1.136,58.901,1.163,83.076
		c0,0.542,0.154,0.983,0.4,1.331c0.149,1.025,0.885,1.931,2.217,1.898c8.755-0.217,17.514-0.358,26.263-0.787
		c7.797-0.382,17.514,0.13,24.967-2.415c2.638-0.901,5-2.234,7.023-4.162c3.699-3.526,4.962-8.26,5.28-13.248
		c0.307-4.791-0.258-9.816-0.37-14.23C71.86,56.94,71.745,53.645,71.619,50.351z M59.664,87.051c1.878-3.2,2.347-7.128,1.37-11.384
		c2.262,0.088,4.492,0.524,6.604,1.42c0.009,0.027,0.015,0.055,0.025,0.081C66.978,82.212,63.787,85.306,59.664,87.051z"/>
	<path style="fill:#1E1E1C;" d="M85.661,6.799c-0.113-0.13-0.239-0.243-0.342-0.312c-0.681-0.654-1.591-0.793-2.269-0.331
		C81.672,7.1,80.212,8.127,78.8,9.277l-0.064-0.085c-0.097-0.127-0.209-0.245-0.276-0.291c-0.209-0.262-0.458-0.455-0.721-0.589
		c-0.588-0.301-1.253-0.276-1.75,0.147c-1.259,1.072-3.21,2.785-5.584,4.89c-1.396,1.238-2.936,2.608-4.58,4.076
		c-2.387,2.13-4.979,4.452-7.628,6.826c-1.37,1.228-2.752,2.467-4.129,3.702c-9.039,8.105-18.385,16.486-22.021,19.582
		c-0.091,0.078-0.174,0.168-0.249,0.273c-0.309,0.197-0.534,0.494-0.637,0.843c-0.155,0.183-0.268,0.405-0.335,0.661
		c-1.106,4.239-2.485,9.864-3.331,15.785c-0.163,1.139,0.579,2.052,1.318,2.407c0.136,0.073,0.269,0.128,0.404,0.166
		c5.567,1.596,11.372,2.587,17.252,2.947l0.113,0.004c0.318,0,0.596-0.087,0.827-0.259c0.112-0.062,0.217-0.136,0.312-0.222
		c2.485-2.259,7.801-6.956,13.958-12.396c0.356-0.315,0.723-0.638,1.084-0.958c1.389-1.227,2.808-2.482,4.245-3.752
		c1.515-1.34,3.04-2.689,4.558-4.034c1.562-1.384,3.107-2.755,4.616-4.097c6.65-5.914,12.525-11.196,15.209-13.79
		c0.498-0.061,0.953-0.38,1.215-0.865c0.352-0.651,0.292-1.453-0.161-2.144l-0.156-0.235c1.291-1.384,2.676-2.623,3.989-3.777
		c0.104-0.092,0.196-0.199,0.279-0.326c0.543-0.542,0.807-1.552,0.128-2.56C93.241,16.09,89.531,11.242,85.661,6.799z
		 M92.958,21.793c-0.914,0.817-1.927,1.753-2.898,2.769c-2.98-4.33-6.132-8.544-8.876-12.156c0.837-0.684,1.774-1.388,2.894-2.178
		C87.194,13.888,90.179,17.775,92.958,21.793z M57.355,30.286c0.048-0.043,0.096-0.086,0.144-0.129
		c2.927-2.622,5.795-5.19,8.438-7.553c1.606-1.436,3.13-2.797,4.529-4.043c2.268-2.02,4.202-3.736,5.655-5.01
		c0.354-0.311,0.691-0.605,0.984-0.86c0.469,0.615,0.936,1.231,1.402,1.848c-0.252,0.224-0.566,0.503-0.913,0.811
		c-1.584,1.406-4.094,3.632-7.067,6.267c-1.417,1.255-2.936,2.6-4.507,3.991c-2.491,2.205-5.107,4.519-7.65,6.765
		c-6.668,5.891-12.805,11.293-14.675,12.881c-0.551,0.468-0.715,1.198-0.438,1.952c0.275,0.749,1.014,1.507,1.895,1.507
		c0.353,0,0.689-0.127,0.972-0.368c2.222-1.887,10.406-9.103,18.373-16.149c0.564-0.499,1.125-0.995,1.685-1.49
		c1.541-1.363,3.053-2.702,4.498-3.982c2.489-2.204,4.767-4.223,6.603-5.852c1.567-1.39,2.816-2.499,3.593-3.189
		c0.487,0.65,0.973,1.3,1.457,1.952c-0.954,0.874-2.638,2.364-5.485,4.827c-1.617,1.398-3.606,3.108-6.058,5.201
		c-1.356,1.158-2.86,2.44-4.51,3.842c-1.975,1.679-4.171,3.542-6.611,5.606c-4.515,3.821-9.854,8.325-16.19,13.655l-0.539,0.453
		c-0.553,0.465-0.719,1.192-0.444,1.944c0.274,0.752,1.015,1.513,1.901,1.513c0.351,0,0.686-0.126,0.969-0.363l0.458-0.386
		c6.166-5.187,11.39-9.594,15.83-13.351c1.719-1.454,3.321-2.811,4.81-4.075c1.635-1.388,3.136-2.663,4.514-3.837
		c0.821-0.699,1.6-1.364,2.335-1.992c6.554-5.598,9.814-8.454,11.344-9.849c0.253,0.35,0.507,0.701,0.759,1.053
		c-2.271,2.015-5.686,5.037-9.494,8.391c-1.572,1.385-3.211,2.826-4.865,4.277c-1.508,1.323-3.026,2.652-4.518,3.956
		c-1.869,1.632-3.69,3.218-5.392,4.692c-4.558,3.948-8.241,7.08-9.531,8.035c-0.572,0.424-0.769,1.115-0.527,1.849
		c0.255,0.772,1.036,1.594,1.98,1.594c0.33,0,0.649-0.107,0.923-0.31c1.261-0.934,4.77-3.913,9.11-7.668
		c1.159-1.003,2.376-2.06,3.628-3.15c1.481-1.291,3.007-2.623,4.536-3.962c3.544-3.103,7.095-6.229,10.102-8.882
		c2.657-2.344,4.888-4.32,6.311-5.583c0.294,0.431,0.587,0.862,0.879,1.295c-1.447,1.386-3.786,3.527-6.656,6.114
		c-3.053,2.752-6.71,6.012-10.539,9.409c-1.498,1.329-3.018,2.676-4.542,4.025c-1.699,1.504-3.395,3.003-5.06,4.474
		c-0.979,0.866-1.952,1.725-2.9,2.563c-5.329,4.709-9.969,8.81-12.363,10.966c-4.278-4.97-8.069-10.34-11.279-15.976
		C38.99,46.734,48.306,38.391,57.355,30.286z M42.473,66.503c-1.731-0.194-3.527-0.464-5.357-0.804
		c-0.029-0.059-0.062-0.118-0.098-0.178c-1.31-2.125-2.838-4.339-4.669-6.763c0.345-1.618,0.723-3.261,1.147-4.985
		C36.199,58.268,39.212,62.54,42.473,66.503z M32.413,64.68c-0.378-0.093-0.756-0.188-1.134-0.286
		c0.06-0.359,0.121-0.717,0.185-1.074C31.79,63.779,32.105,64.23,32.413,64.68z M46.583,70.121l-0.001-0.011c0,0,0,0,0.001,0V70.121
		z"/>
</g>
</svg>
