<?xml version="1.0" encoding="iso-8859-1"?>
<!-- Generator: Adobe Illustrator 17.0.2, SVG Export Plug-In . SVG Version: 6.00 Build 0)  -->
<!DOCTYPE svg PUBLIC "-//W3C//DTD SVG 1.1//EN" "http://www.w3.org/Graphics/SVG/1.1/DTD/svg11.dtd">
<svg version="1.1" id="Capa_1" xmlns="http://www.w3.org/2000/svg" xmlns:xlink="http://www.w3.org/1999/xlink" x="0px" y="0px"
	 width="100px" height="100px" viewBox="0 0 100 100" style="enable-background:new 0 0 100 100;" xml:space="preserve">
<g>
	<path style="fill:#1D1D1B;" d="M90.322,74.914c-0.276-0.069-0.567-0.116-0.888-0.122c-26.295-0.462-52.593-0.475-78.891-0.475
		c-0.188,0-0.354,0.029-0.527,0.052c-0.473-0.063-0.945-0.042-1.371,0.075c-2.053,0.565-2.758,2.462-2.49,4.385
		C6.641,82.295,6.88,85.8,6.504,89.288c-0.131,1.22,0.61,2.315,1.622,2.96c0.551,0.903,1.509,1.554,2.893,1.555
		c26.141,0.016,52.285,0.425,78.416-0.475c1.313-0.045,2.238-0.671,2.8-1.524c0.988-0.531,1.715-1.524,1.715-2.991V78.357
		C93.95,76.031,92.125,74.887,90.322,74.914z M86.821,86.273c-24.337,0.759-48.685,0.445-73.029,0.406
		c0.041-1.748-0.046-3.492-0.212-5.232c24.414,0.002,48.829,0.036,73.242,0.438V86.273z"/>
	<path style="fill:#1D1D1B;" d="M10.544,68.139c25.672,0.082,51.382,2.234,76.99-0.475c0.437-0.046,0.819-0.17,1.172-0.327
		c2.571,0.057,4.995-3.538,2.774-6.233C77.908,44.64,65.248,27.458,51.964,10.765c-0.142-0.994-0.65-1.923-1.523-2.472
		c-0.56-0.852-1.494-1.461-2.828-1.461c-1.718,0-2.793,0.996-3.227,2.243c-0.081,0.079-0.166,0.135-0.244,0.226
		C30.21,25.51,20.812,44.847,7.941,61.825c-0.402,0.53-0.598,1.055-0.662,1.559C6.646,65.455,7.729,68.13,10.544,68.139z
		 M47.427,16.451c11.729,14.768,22.998,29.896,34.843,44.57c-21.63,1.752-43.325,0.386-65.002,0.057
		C27.665,46.428,36.005,30.353,47.427,16.451z"/>
</g>
</svg>
