<?xml version="1.0" encoding="iso-8859-1"?>
<!-- Generator: Adobe Illustrator 17.0.2, SVG Export Plug-In . SVG Version: 6.00 Build 0)  -->
<!DOCTYPE svg PUBLIC "-//W3C//DTD SVG 1.1//EN" "http://www.w3.org/Graphics/SVG/1.1/DTD/svg11.dtd">
<svg version="1.1" id="Capa_1" xmlns="http://www.w3.org/2000/svg" xmlns:xlink="http://www.w3.org/1999/xlink" x="0px" y="0px"
	 width="100px" height="100px" viewBox="0 0 100 100" style="enable-background:new 0 0 100 100;" xml:space="preserve">
<g>
	<path d="M94.326,42.174c-0.352-0.761-1.065-1.341-2.159-1.341c-1.901,0-3.793,0.032-5.684,0.178
		c-0.052-0.559-0.093-1.119-0.149-1.678c-0.016-0.16-0.052-0.307-0.091-0.451c-0.048-1.211-0.846-2.385-2.409-2.383
		c-22.78,0.037-45.566,1.263-68.333,0c-0.572-0.032-1.036,0.105-1.404,0.343c-2.535,0.021-5.068,0.09-7.596,0.323
		c-1.609,0.149-2.409,1.5-2.395,2.763C4.042,40.155,3.998,40.395,4,40.667c0.05,6.383,0.782,16.696,1.756,22.998
		c0.23,1.486,1.405,1.972,2.542,1.755c0.168,0.041,0.345,0.07,0.535,0.08c25.218,1.26,50.443,0.023,75.667-0.333
		c0.846-0.012,1.464-0.37,1.866-0.884c0.569-0.396,0.971-1.04,0.967-1.949c-0.003-0.725-0.034-1.448-0.046-2.172
		c1.965-0.014,3.927-0.071,5.879-0.328c1.351-0.178,2.5-1.003,2.5-2.5c0-0.103-0.019-0.209-0.035-0.314
		c0.015-0.116,0.035-0.227,0.035-0.352V44.333C95.667,43.239,95.087,42.526,94.326,42.174z M10.326,60.558
		C9.628,55.72,9.149,46.872,9.039,41.984c2.595-0.14,5.194-0.15,7.794-0.15c0.415,0,0.774-0.085,1.082-0.229
		c21.196,1.017,42.406,0.012,63.612-0.093c0.44,4.889,0.697,13.784,0.773,18.691C58.308,60.587,34.314,61.664,10.326,60.558z
		 M90.667,55.057c-1.17,0.069-2.342,0.098-3.515,0.104c-0.073-1.727-0.156-7.454-0.272-9.179c1.26-0.086,2.523-0.117,3.787-0.132
		V55.057z"/>
</g>
</svg>
