<?xml version="1.0" encoding="iso-8859-1"?>
<!-- Generator: Adobe Illustrator 17.0.2, SVG Export Plug-In . SVG Version: 6.00 Build 0)  -->
<!DOCTYPE svg PUBLIC "-//W3C//DTD SVG 1.1//EN" "http://www.w3.org/Graphics/SVG/1.1/DTD/svg11.dtd">
<svg version="1.1" id="Capa_1" xmlns="http://www.w3.org/2000/svg" xmlns:xlink="http://www.w3.org/1999/xlink" x="0px" y="0px"
	 width="100px" height="100px" viewBox="0 0 100 100" style="enable-background:new 0 0 100 100;" xml:space="preserve">
<g>
	<path style="fill:#1E1E1C;" d="M83.932,28.855c-0.181-5.491-0.282-12.909-0.228-18.404c0.002-0.245-0.037-0.461-0.093-0.664
		c0.107-1.197-0.596-2.461-2.129-2.421c-19.354,0.508-38.704-0.25-58.058-0.28c-1.61-0.003-2.315,1.412-2.117,2.654
		c-0.064,0.216-0.109,0.448-0.106,0.712c0.292,23.095,1.086,56.279,1.111,79.377c0,0.518,0.147,0.939,0.382,1.272
		c0.142,0.979,0.846,1.845,2.119,1.813c8.365-0.208,16.734-0.342,25.093-0.752c7.45-0.365,16.734,0.124,23.855-2.307
		c2.521-0.861,4.777-2.134,6.71-3.977c3.535-3.369,4.741-7.892,5.046-12.658c0.292-4.577-0.247-9.379-0.354-13.597
		C84.887,48.728,84.29,39.748,83.932,28.855z M71.686,70.049c-1.362,0.008-2.678,1.071-2.07,2.705
		c1.225,3.286,1.784,7.366-0.098,10.509c-2.276,3.801-6.338,3.698-10.2,4.185c-2.361,0.298-4.872,0.14-7.253,0.207
		c-1.853,0.052-25.314,0.624-25.314,0.716c-0.055-22.233-0.79-54.553-1.087-76.784c17.869,0.077,35.733,0.691,53.602,0.309
		c-0.068,18.253,1.55,44.639,1.646,59.065c-2.772-0.875-5.637-1.244-8.595-1.046C72.084,69.929,71.878,69.982,71.686,70.049z
		 M73.431,85.245c1.795-3.058,2.243-6.81,1.31-10.877c2.161,0.084,4.292,0.501,6.309,1.356c0.009,0.025,0.015,0.052,0.024,0.077
		C80.419,80.62,77.371,83.577,73.431,85.245z"/>
	<path style="fill:#1E1E1C;" d="M42.667,34.583c-2.226-0.182-4.44-0.485-6.667-0.667c-0.221-0.018-0.419,0-0.607,0.033
		C34.111,33.548,32.37,34.232,32.25,36c-0.47,6.94-0.643,13.879-0.5,20.833c0.006,0.302,0.07,0.564,0.162,0.803
		c0.215,0.905,0.907,1.707,2.088,1.78c2.387,0.149,4.775,0.166,7.167,0.167c2.902,0,2.902-4.5,0-4.5c-1.646,0-3.29-0.026-4.934-0.08
		c-0.026-2.086-0.016-4.17,0.012-6.253h2.921c1.227,0,2.25-1.023,2.25-2.25c0-1.227-1.023-2.25-2.25-2.25h-2.819
		c0.062-1.925,0.153-3.849,0.26-5.773c2.022,0.184,4.036,0.441,6.06,0.606C45.561,39.32,45.538,34.818,42.667,34.583z"/>
	<path style="fill:#1E1E1C;" d="M51.802,34.391c-1.992-0.899-3.785,1.119-3.379,2.665c-0.093,0.233-0.16,0.487-0.173,0.778
		c-0.3,6.721-0.223,13.451-0.667,20.167c-0.192,2.898,4.31,2.88,4.5,0c0.118-1.784,0.197-3.569,0.258-5.354
		c4.015-1.162,7.196-3.96,7.069-8.407C59.284,39.801,55.616,36.112,51.802,34.391z M52.474,47.798
		c0.053-2.442,0.109-4.884,0.188-7.325C55.01,42.856,55.907,46.112,52.474,47.798z"/>
	<path style="fill:#1E1E1C;" d="M71.5,34.25c-3.294-0.426-7.168-0.651-9.34,2.32c-1.645,2.25-0.206,5.592,0.785,7.765
		c1.321,2.898,3.22,5.52,4.437,8.466c1.286,3.115-0.572,2.64-3.617,2.196c-2.837-0.413-4.059,3.922-1.196,4.339
		c2.874,0.419,7.339,1.069,9.166-1.934c1.544-2.537,0.19-5.557-0.968-7.951c-1.382-2.855-3.271-5.492-4.385-8.473
		c-1.332-3.563,2.481-2.57,5.119-2.229C74.372,39.121,74.336,34.617,71.5,34.25z"/>
</g>
</svg>
