<?xml version="1.0" encoding="iso-8859-1"?>
<!-- Generator: Adobe Illustrator 17.0.2, SVG Export Plug-In . SVG Version: 6.00 Build 0)  -->
<!DOCTYPE svg PUBLIC "-//W3C//DTD SVG 1.1//EN" "http://www.w3.org/Graphics/SVG/1.1/DTD/svg11.dtd">
<svg version="1.1" id="Capa_1" xmlns="http://www.w3.org/2000/svg" xmlns:xlink="http://www.w3.org/1999/xlink" x="0px" y="0px"
	 width="100px" height="100px" viewBox="0 0 100 100" style="enable-background:new 0 0 100 100;" xml:space="preserve">
<g>
	<path style="fill:#1E1E1C;" d="M85.137,71.494c-0.777,0-1.575,0.094-2.373,0.278c-6.316,1.46-11.822,2.17-16.833,2.17
		c-6.222,0-11.643-1.083-16.458-3.301c4.442-1.099,6.785-5.152,6.825-9.163c0.048-4.852-3.17-9.828-9.413-9.952
		c-3.45-0.067-6.9-0.076-10.35-0.046c-0.069-1.364-0.046-2.758,0.071-4.166l0.557-0.011c2.283-0.044,4.565-0.087,6.849-0.14
		c6.247-0.144,9.459-5.136,9.403-9.992c-0.047-4.062-2.465-8.169-7.035-9.178c1.196-0.968,2.469-1.794,3.812-2.47
		c3.385-1.706,7.622-2.534,12.954-2.534c4.803,0,9.771,0.684,14.05,1.325c0.658,0.099,1.318,0.149,1.965,0.149
		c4.782,0,8.49-2.678,9.676-6.988c0.72-2.615,0.184-5.749-1.397-8.179c-1.379-2.119-3.394-3.473-5.673-3.814
		C74.578,4.405,69.1,3.925,64.002,3.925c-8.812,0-16.416,1.523-23.248,4.658c-7.855,3.604-14.211,10.397-18.453,19.697
		c-3.217,0.122-6.096,0.269-8.761,0.448c-6.23,0.419-9.421,5.746-9.26,10.545c0.176,5.224,3.815,8.872,8.851,8.872
		c0.243,0,0.49-0.008,0.744-0.025c1.024-0.069,2.083-0.132,3.224-0.193c-0.12,1.384-0.166,2.774-0.136,4.162
		c-0.978,0.049-1.954,0.102-2.932,0.163c-6.227,0.392-9.427,5.697-9.275,10.491c0.165,5.254,3.821,8.925,8.892,8.925
		c0.229,0,0.46-0.008,0.697-0.022c2.513-0.158,5.201-0.296,8.179-0.42c2.861,4.812,6.795,9.207,11.45,12.781
		c8.069,6.193,18.562,9.335,31.186,9.335c0.002,0,0.002,0,0.004,0c6.902,0,14.492-0.945,22.557-2.81
		c4.762-1.1,7.589-5.106,7.034-9.969C94.252,76.166,90.712,71.494,85.137,71.494z M86.594,85.66
		c-7.696,1.779-14.906,2.681-21.431,2.681c-0.001,0-0.003,0-0.003,0c-11.498,0-20.966-2.793-28.142-8.302
		c-4.542-3.486-8.304-7.832-10.879-12.567c-0.438-0.807-1.282-1.306-2.196-1.306c-0.032,0-0.064,0.001-0.097,0.002
		c-3.632,0.141-6.843,0.3-9.815,0.486c-0.13,0.008-0.258,0.013-0.384,0.013c-3.585,0-3.873-3.4-3.895-4.082
		c-0.076-2.43,1.328-5.139,4.593-5.344c1.501-0.095,3.003-0.168,4.505-0.24l0.87-0.043c0.68-0.033,1.316-0.343,1.764-0.856
		c0.446-0.514,0.664-1.187,0.604-1.865c-0.221-2.444-0.169-4.922,0.154-7.361c0.035-0.263,0.077-0.528,0.119-0.793l0.066-0.421
		c0.112-0.74-0.111-1.492-0.612-2.049c-0.5-0.556-1.227-0.852-1.972-0.827c-2.406,0.108-4.409,0.218-6.304,0.345
		c-0.14,0.009-0.275,0.014-0.409,0.014c-3.538,0-3.831-3.365-3.854-4.04c-0.082-2.44,1.322-5.168,4.599-5.389
		c3.036-0.204,6.362-0.366,10.169-0.496c0.975-0.033,1.842-0.63,2.22-1.529c2.605-6.194,7.596-14.443,16.575-18.563
		c6.163-2.828,13.086-4.203,21.162-4.203c4.84,0,10.09,0.463,17.023,1.502c1.083,0.162,1.807,0.958,2.222,1.597
		c0.801,1.229,1.109,2.888,0.769,4.126c-0.794,2.883-3.383,3.314-4.855,3.314c-0.398,0-0.811-0.032-1.224-0.093
		c-4.458-0.668-9.645-1.381-14.791-1.381c-6.132,0-11.105,1.004-15.204,3.069c-3.539,1.783-6.666,4.384-9.294,7.73
		c-0.596,0.76-0.701,1.795-0.271,2.66c0.432,0.864,1.281,1.389,2.288,1.384l3.493-0.073c3.104,0,4.233,2.408,4.257,4.47
		c0.021,1.794-0.907,4.853-4.519,4.936c-2.276,0.052-4.553,0.096-6.829,0.14l-2.734,0.053c-1.214,0.024-2.235,0.917-2.421,2.118
		c-0.094,0.606-0.173,1.213-0.234,1.824c-0.271,2.735-0.238,5.436,0.097,8.027c0.162,1.247,1.225,2.179,2.479,2.179
		c0.012,0,0.022,0,0.033,0c4.164-0.053,8.331-0.061,12.499,0.021c3.6,0.071,4.53,3.116,4.513,4.903
		c-0.021,2.077-1.156,4.503-4.288,4.503l-0.125-0.001c-1.518-0.03-3.035-0.038-4.551-0.047l-0.957-0.005c-0.005,0-0.01,0-0.015,0
		c-1.027,0-1.951,0.629-2.327,1.586c-0.378,0.962-0.125,2.057,0.637,2.756c1.227,1.126,2.486,2.078,3.854,2.91
		c6.427,3.911,13.756,5.812,22.406,5.812c5.394,0,11.269-0.752,17.959-2.299c0.428-0.099,0.848-0.149,1.246-0.149
		c2.705,0,4.387,2.332,4.649,4.635C89.912,82.24,89.855,84.906,86.594,85.66z"/>
</g>
</svg>
