<?xml version="1.0" encoding="iso-8859-1"?>
<!-- Generator: Adobe Illustrator 17.0.2, SVG Export Plug-In . SVG Version: 6.00 Build 0)  -->
<!DOCTYPE svg PUBLIC "-//W3C//DTD SVG 1.1//EN" "http://www.w3.org/Graphics/SVG/1.1/DTD/svg11.dtd">
<svg version="1.1" id="Capa_1" xmlns="http://www.w3.org/2000/svg" xmlns:xlink="http://www.w3.org/1999/xlink" x="0px" y="0px"
	 width="100px" height="100px" viewBox="0 0 100 100" style="enable-background:new 0 0 100 100;" xml:space="preserve">
<g>
	<path style="fill:#1D1D1B;" d="M56.222,72.34c-1.098,0-2.12,0.415-2.804,1.14c-0.661,0.701-0.979,1.637-0.916,2.704
		c0.21,3.62,0.264,7.195,0.278,10.559c-4.75,0.072-9.377,0.108-13.769,0.108c-8.104,0-15.628-0.118-22.969-0.36
		c-0.061-14.483-0.41-29.181-0.748-43.402c-0.24-10.142-0.489-20.619-0.632-30.943c5.619-0.316,11.659-0.458,19.411-0.458
		c3.585,0,7.17,0.029,10.755,0.058c1.914,0.016,3.829,0.031,5.743,0.042c0.105,2.243,0.283,4.47,0.485,6.901
		c0.007,0.081,0.019,0.157,0.037,0.25c-0.026,0.18-0.04,0.36-0.04,0.538v2.312c0,2.145,1.745,3.89,3.891,3.89
		c2.145,0,3.89-1.745,3.89-3.89v-2.312c0-0.061-0.004-0.12-0.012-0.179c0.027-0.258,0.03-0.511,0.008-0.771
		c-0.271-3.268-0.551-6.646-0.574-10.04c-0.006-0.87-0.27-1.664-0.765-2.306c-0.612-1.35-1.877-2.152-3.412-2.156
		c-3.185-0.006-6.369-0.033-9.554-0.061c-3.632-0.031-7.265-0.062-10.896-0.062c-6.265,0-14.537,0.08-22.98,0.704
		C9.343,4.702,8.257,5.353,7.585,6.442c-0.502,0.65-0.762,1.461-0.752,2.352C6.965,20.27,7.245,31.933,7.516,43.211
		c0.366,15.241,0.745,31,0.763,46.5c0.002,1.578,0.826,2.851,2.218,3.449c0.668,0.63,1.528,0.98,2.502,1.018
		c8.255,0.313,16.739,0.467,25.938,0.467c0,0,0.001,0,0.002,0c5.671,0,11.48-0.058,17.761-0.177c1.675-0.032,3.03-1.021,3.552-2.588
		c0.212-0.484,0.319-1.02,0.319-1.592c0-5.046-0.021-9.599-0.291-14.221C60.136,73.62,58.13,72.34,56.222,72.34z"/>
	<path style="fill:#1D1D1B;" d="M92.655,45.338C84.701,36.5,76.747,27.662,68.792,18.824c-2.311-2.567-5.723-0.28-5.876,2.435
		c-0.039,0.166-0.085,0.328-0.103,0.508c-0.329,3.185-0.424,6.377-0.453,9.573H39.698c-1.693,0-2.752,0.984-3.175,2.215
		c-0.48,0.549-0.793,1.281-0.793,2.221v11.932v2.543v11.933c0,0.94,0.313,1.672,0.793,2.221c0.423,1.231,1.482,2.215,3.175,2.215
		H62.36c0.029,3.196,0.124,6.388,0.453,9.573c0.018,0.181,0.064,0.342,0.103,0.508c0.153,2.715,3.565,5.003,5.876,2.435
		c7.954-8.838,15.909-17.676,23.863-26.514c1.346-0.605,2.365-2.085,2.275-3.643C95.021,47.423,94.001,45.943,92.655,45.338z
		 M69.389,68.019c-0.026-1.632-0.037-3.265-0.037-4.9c-0.001-2.268-1.767-3.396-3.526-3.386c-0.282-0.069-0.58-0.116-0.911-0.116
		H42.734v-9.364v-2.543v-9.364h22.181c0.331,0,0.629-0.047,0.911-0.116c1.759,0.01,3.525-1.118,3.526-3.386
		c0-1.634,0.011-3.267,0.037-4.9c5.711,6.346,11.422,12.692,17.134,19.038C80.811,55.327,75.1,61.673,69.389,68.019z"/>
</g>
</svg>
