<?xml version="1.0" encoding="iso-8859-1"?>
<!-- Generator: Adobe Illustrator 17.0.2, SVG Export Plug-In . SVG Version: 6.00 Build 0)  -->
<!DOCTYPE svg PUBLIC "-//W3C//DTD SVG 1.1//EN" "http://www.w3.org/Graphics/SVG/1.1/DTD/svg11.dtd">
<svg version="1.1" id="Capa_1" xmlns="http://www.w3.org/2000/svg" xmlns:xlink="http://www.w3.org/1999/xlink" x="0px" y="0px"
	 width="100px" height="100px" viewBox="0 0 100 100" style="enable-background:new 0 0 100 100;" xml:space="preserve">
<g>
	<path style="fill:#1D1D1B;" d="M65.286,72.048c-1.098,0-2.12,0.415-2.804,1.14c-0.661,0.701-0.979,1.637-0.916,2.704
		c0.209,3.607,0.263,7.188,0.277,10.559c-4.793,0.07-10.347,0.107-16.137,0.107c-10.849,0.001-20.735-0.128-27.998-0.361
		c-0.061-14.499-0.41-29.211-0.748-43.449c-0.24-10.126-0.489-20.587-0.632-30.895c5.704-0.312,13.229-0.458,23.546-0.458
		c5.098,0,10.139,0.035,14.67,0.067c1.785,0.013,3.492,0.024,5.092,0.034c0.105,2.242,0.283,4.469,0.485,6.9
		c0.007,0.081,0.019,0.157,0.037,0.25c-0.026,0.18-0.04,0.36-0.04,0.538v2.312c0,2.145,1.745,3.89,3.891,3.89
		c2.145,0,3.89-1.745,3.89-3.89v-2.312c0-0.061-0.004-0.121-0.012-0.179c0.027-0.258,0.03-0.511,0.008-0.771
		c-0.271-3.261-0.552-6.633-0.574-10.04c-0.006-0.87-0.27-1.664-0.765-2.306c-0.612-1.35-1.877-2.152-3.412-2.156
		c-2.949-0.006-6.207-0.029-9.646-0.055c-4.51-0.033-9.333-0.068-14.185-0.068c-11.92,0-20.498,0.224-26.996,0.704
		C11.008,4.41,9.922,5.061,9.251,6.15C8.749,6.801,8.489,7.613,8.5,8.501c0.132,11.48,0.412,23.146,0.683,34.429
		c0.366,15.237,0.744,30.993,0.763,46.489c0.002,1.576,0.826,2.85,2.218,3.449c0.667,0.63,1.527,0.98,2.501,1.017
		c7.918,0.301,18.811,0.467,30.671,0.467c7.161,0,14.416-0.062,20.427-0.177c1.675-0.031,3.031-1.021,3.553-2.587
		c0.212-0.484,0.319-1.02,0.319-1.592c-0.001-5.064-0.023-9.629-0.291-14.221C69.2,73.328,67.194,72.048,65.286,72.048z"/>
	<path style="fill:#1D1D1B;" d="M78.031,31.048H55.369c-0.029-3.196-0.124-6.388-0.453-9.573c-0.018-0.181-0.064-0.342-0.103-0.508
		c-0.153-2.715-3.565-5.003-5.876-2.435c-7.954,8.838-15.909,17.676-23.863,26.514c-1.346,0.605-2.365,2.084-2.275,3.643
		c-0.09,1.558,0.929,3.038,2.275,3.643c7.954,8.838,15.909,17.676,23.863,26.514c2.311,2.567,5.723,0.279,5.876-2.435
		c0.039-0.166,0.085-0.328,0.103-0.508c0.329-3.185,0.424-6.377,0.453-9.573h22.662c1.693,0,2.752-0.984,3.175-2.215
		C81.687,63.565,82,62.832,82,61.893V49.96v-2.544V35.484c0-0.94-0.313-1.672-0.793-2.221
		C80.783,32.032,79.724,31.048,78.031,31.048z M74.996,47.417v2.544v9.364H52.815c-0.331,0-0.628,0.047-0.911,0.116
		c-1.759-0.01-3.525,1.118-3.526,3.386c0,1.634-0.011,3.267-0.038,4.9c-5.711-6.346-11.422-12.692-17.134-19.038
		c5.711-6.346,11.422-12.692,17.134-19.038c0.026,1.632,0.038,3.265,0.038,4.9c0,2.268,1.767,3.396,3.526,3.386
		c0.282,0.069,0.58,0.116,0.911,0.116h22.181V47.417z"/>
</g>
</svg>
