<?xml version="1.0" encoding="iso-8859-1"?>
<!-- Generator: Adobe Illustrator 17.0.2, SVG Export Plug-In . SVG Version: 6.00 Build 0)  -->
<!DOCTYPE svg PUBLIC "-//W3C//DTD SVG 1.1//EN" "http://www.w3.org/Graphics/SVG/1.1/DTD/svg11.dtd">
<svg version="1.1" id="Capa_1" xmlns="http://www.w3.org/2000/svg" xmlns:xlink="http://www.w3.org/1999/xlink" x="0px" y="0px"
	 width="100px" height="100px" viewBox="0 0 100 100" style="enable-background:new 0 0 100 100;" xml:space="preserve">
<g>
	<path style="fill:#1D1D1B;" d="M88.582,56.89c-0.133-1.465-1.23-2.287-2.382-2.461c-0.88-0.49-2-0.506-2.932,0.412
		c-1.928,1.901-3.865,3.789-5.916,5.556c-2.208-2.108-7.317-7.336-10.231-10.769c3.677-3.339,8.561-8.087,10.881-10.359
		c1.459,1.346,2.864,2.747,4.26,4.161c0.543,0.55,1.157,0.768,1.753,0.763c1.551,0.752,3.825,0.039,3.767-2.187
		c-0.265-10.239-0.042-20.475,0.214-30.712c0.053-2.104-1.98-2.891-3.513-2.353c-9.197,0.834-18.396,1.641-27.593,2.476
		c-1.465,0.133-2.287,1.231-2.461,2.382c-0.49,0.88-0.506,2,0.413,2.931c1.9,1.928,3.79,3.865,5.556,5.916
		c-2.064,2.163-7.126,7.114-10.559,10.055c-3.369-3.663-8.21-8.575-10.518-10.899c1.335-1.468,2.727-2.883,4.132-4.289
		c0.546-0.547,0.759-1.163,0.75-1.758c0.741-1.556,0.013-3.826-2.213-3.752c-10.236,0.337-20.474,0.185-30.712,0
		c-2.104-0.038-2.877,2-2.329,3.529c0.897,9.191,1.77,18.384,2.668,27.575c0.143,1.464,1.247,2.278,2.399,2.444
		c0.883,0.484,2.003,0.492,2.929-0.433c1.914-1.914,3.838-3.816,5.876-5.597c2.168,2.041,7.122,7.034,10.09,10.446
		c-3.683,3.374-8.74,8.357-11.108,10.71c-1.468-1.335-2.883-2.727-4.289-4.132c-0.547-0.547-1.163-0.759-1.758-0.75
		c-1.557-0.741-3.826-0.013-3.752,2.213c0.336,10.237,0.185,20.474,0,30.713c-0.039,2.104,2,2.877,3.529,2.329
		c9.191-0.898,18.384-1.77,27.575-2.669c1.463-0.143,2.278-1.247,2.444-2.399c0.484-0.883,0.492-2.004-0.433-2.929
		c-1.914-1.915-3.816-3.838-5.597-5.877c2.083-2.214,7.242-7.327,10.655-10.27c3.347,3.699,8.235,8.728,10.552,11.094
		c-1.346,1.459-2.747,2.864-4.162,4.26c-0.55,0.543-0.768,1.158-0.763,1.753c-0.752,1.551-0.04,3.825,2.187,3.767
		c10.239-0.265,20.475-0.042,30.712,0.214c2.104,0.053,2.891-1.98,2.354-3.513C90.224,75.286,89.417,66.087,88.582,56.89z
		 M65.757,24.486c1.324-1.44,0.609-3.304-0.661-4.099c-0.101-0.225-0.225-0.448-0.403-0.662c-1.02-1.223-2.092-2.399-3.187-3.554
		c7.083-0.637,14.166-1.267,21.249-1.907c-0.175,7.39-0.302,14.779-0.227,22.17c-0.842-0.799-1.696-1.586-2.579-2.343
		c-0.726-0.622-1.548-0.752-2.293-0.586c-0.641-0.056-1.316,0.151-1.913,0.74c-2.84,2.8-9.836,9.641-13.114,12.501
		c-0.15,0.041-0.294,0.095-0.435,0.157c-2.88-3.103-5.831-6.139-8.798-9.16c0-0.369-0.099-0.728-0.266-1.061
		C56.42,33.939,63.164,27.307,65.757,24.486z M49.849,58.162c-2.716-2.727-5.413-5.471-8.059-8.265
		c2.748-2.737,5.514-5.456,8.33-8.122c2.717,2.768,5.413,5.555,8.057,8.393C55.431,52.864,52.665,55.538,49.849,58.162z
		 M24.623,34.151c-1.449-1.314-3.308-0.586-4.094,0.689c-0.225,0.102-0.446,0.228-0.659,0.408c-1.216,1.029-2.385,2.109-3.532,3.211
		c-0.687-7.078-1.366-14.157-2.055-21.235c7.391,0.123,14.781,0.199,22.171,0.072c-0.793,0.847-1.574,1.707-2.324,2.595
		c-0.617,0.73-0.742,1.553-0.57,2.297c-0.051,0.641,0.16,1.315,0.753,1.908c2.736,2.738,9.316,9.372,12.338,12.739
		c0.028,0.314,0.107,0.617,0.226,0.903c-3.082,2.906-6.099,5.878-9.099,8.868c-0.281-0.004-0.557,0.048-0.82,0.145
		C34.222,43.504,27.479,36.741,24.623,34.151z M34.151,75.377c-1.314,1.449-0.586,3.308,0.689,4.094
		c0.103,0.225,0.228,0.446,0.408,0.659c1.029,1.216,2.108,2.385,3.211,3.532c-7.078,0.687-14.157,1.366-21.235,2.055
		c0.123-7.391,0.199-14.781,0.072-22.171c0.847,0.793,1.707,1.574,2.595,2.325c0.73,0.617,1.553,0.742,2.297,0.57
		c0.641,0.051,1.315-0.16,1.908-0.753c2.795-2.794,9.643-9.584,12.938-12.514c0.22-0.016,0.436-0.05,0.645-0.112
		c2.991,3.174,6.053,6.28,9.133,9.369c0.032,0.152,0.078,0.302,0.138,0.446C43.787,65.495,36.794,72.462,34.151,75.377z
		 M63.565,82.529c0.799-0.842,1.586-1.696,2.343-2.579c0.622-0.726,0.752-1.548,0.586-2.293c0.056-0.64-0.151-1.316-0.739-1.913
		c-2.854-2.895-9.908-10.109-12.665-13.302c-0.017-0.066-0.024-0.134-0.045-0.198c3.197-2.966,6.323-6.007,9.434-9.064
		c0.23-0.053,0.451-0.149,0.661-0.266c2.622,3.201,9.49,10.191,12.374,12.842c1.44,1.324,3.304,0.609,4.099-0.661
		c0.226-0.101,0.448-0.225,0.662-0.403c1.224-1.02,2.399-2.092,3.554-3.187c0.637,7.083,1.267,14.166,1.907,21.248
		C78.346,82.581,70.957,82.453,63.565,82.529z"/>
</g>
</svg>
