<?xml version="1.0" encoding="iso-8859-1"?>
<!-- Generator: Adobe Illustrator 17.0.2, SVG Export Plug-In . SVG Version: 6.00 Build 0)  -->
<!DOCTYPE svg PUBLIC "-//W3C//DTD SVG 1.1//EN" "http://www.w3.org/Graphics/SVG/1.1/DTD/svg11.dtd">
<svg version="1.1" id="Capa_1" xmlns="http://www.w3.org/2000/svg" xmlns:xlink="http://www.w3.org/1999/xlink" x="0px" y="0px"
	 width="100px" height="100px" viewBox="0 0 100 100" style="enable-background:new 0 0 100 100;" xml:space="preserve">
<g>
	<path style="fill:#1D1D1B;" d="M53.336,60.03c-4.206-4.206-8.397-8.425-12.432-12.797c-1.088-1.18-2.491-0.938-3.409-0.105
		c-0.146,0.082-0.29,0.173-0.43,0.288c-3.309,2.722-10.773,10.074-13.81,13.089c-1.468-1.335-2.883-2.727-4.289-4.132
		c-0.547-0.547-1.163-0.759-1.758-0.75c-1.556-0.741-3.826-0.013-3.752,2.213c0.337,10.237,0.185,20.474,0,30.713
		c-0.038,2.104,2,2.877,3.529,2.329c9.191-0.898,18.384-1.77,27.575-2.669c1.464-0.143,2.278-1.247,2.444-2.399
		c0.484-0.883,0.492-2.004-0.433-2.929c-1.914-1.915-3.816-3.838-5.597-5.877c2.523-2.681,9.562-9.621,12.541-11.801
		c1.488-1.089,1.353-2.978,0.476-4.09C53.88,60.74,53.677,60.371,53.336,60.03z M35.603,75.203
		c-1.314,1.449-0.586,3.308,0.689,4.094c0.103,0.225,0.228,0.446,0.408,0.659c1.029,1.216,2.109,2.385,3.211,3.532
		c-7.078,0.687-14.157,1.366-21.234,2.055c0.123-7.391,0.199-14.781,0.072-22.171c0.847,0.793,1.707,1.574,2.595,2.325
		c0.73,0.617,1.553,0.742,2.297,0.57c0.641,0.051,1.315-0.16,1.908-0.753c2.913-2.911,10.238-10.175,13.344-12.874
		c3.165,3.366,6.412,6.653,9.675,9.924C45.486,65.075,38.291,72.239,35.603,75.203z"/>
	<path style="fill:#1D1D1B;" d="M85.935,8.768c-9.197,0.834-18.396,1.641-27.593,2.476c-1.464,0.133-2.287,1.231-2.46,2.382
		c-0.49,0.88-0.506,2,0.412,2.931c1.901,1.928,3.79,3.865,5.556,5.916c-2.542,2.663-9.629,9.554-12.623,11.713
		c-1.496,1.079-1.373,2.968-0.504,4.087c0.109,0.374,0.309,0.745,0.648,1.088c4.176,4.236,8.338,8.483,12.342,12.883
		c1.08,1.187,2.484,0.956,3.408,0.129c0.146-0.081,0.291-0.171,0.432-0.285c3.328-2.699,10.844-9.999,13.901-12.993
		c1.458,1.346,2.864,2.747,4.259,4.161c0.543,0.55,1.158,0.768,1.753,0.763c1.551,0.752,3.826,0.039,3.768-2.187
		c-0.265-10.239-0.042-20.475,0.214-30.712C89.501,9.018,87.468,8.231,85.935,8.768z M83.981,36.261
		c-0.842-0.799-1.696-1.586-2.579-2.343c-0.726-0.622-1.547-0.752-2.293-0.586c-0.64-0.056-1.316,0.151-1.913,0.74
		c-2.933,2.891-10.309,10.103-13.434,12.78c-3.142-3.388-6.366-6.697-9.606-9.991c3.099-2.488,10.344-9.602,13.052-12.548
		c1.325-1.44,0.609-3.304-0.661-4.099c-0.101-0.225-0.224-0.448-0.403-0.662c-1.021-1.223-2.092-2.399-3.187-3.554
		c7.083-0.637,14.166-1.267,21.248-1.907C84.033,21.48,83.905,28.87,83.981,36.261z"/>
</g>
</svg>
