<?xml version="1.0" encoding="iso-8859-1"?>
<!-- Generator: Adobe Illustrator 17.0.2, SVG Export Plug-In . SVG Version: 6.00 Build 0)  -->
<!DOCTYPE svg PUBLIC "-//W3C//DTD SVG 1.1//EN" "http://www.w3.org/Graphics/SVG/1.1/DTD/svg11.dtd">
<svg version="1.1" id="Capa_1" xmlns="http://www.w3.org/2000/svg" xmlns:xlink="http://www.w3.org/1999/xlink" x="0px" y="0px"
	 width="100px" height="100px" viewBox="0 0 100 100" style="enable-background:new 0 0 100 100;" xml:space="preserve">
<g>
	<path style="fill:#1D1D1B;" d="M7.978,71.968c-0.152,0.991-0.07,1.981,0.462,2.874c0.016,0.028,0.039,0.05,0.056,0.076
		c0.427,0.824,1.236,1.435,2.458,1.422c25.085-0.269,50.17,1.689,75.234,0c0.557-0.037,1.021-0.21,1.41-0.46
		c1.381-0.097,2.716-1.026,2.768-2.805c0.406-14.017,1.432-11.078,2.191-25.078c0.049-0.903-0.255-1.583-0.741-2.051
		c-1.786,0.711-3.487,1.591-5.134,2.595c-0.71,12.507-1.621,9.043-2.063,22.034c-21.535,1.323-43.085,0.071-64.636-0.08
		c0.296-0.069,0.591-0.145,0.883-0.234c2.46-0.75,1.41-4.612-1.063-3.857c-2.02,0.616-4.149,0.602-6.247,0.596
		c-0.042-2.125-0.079-4.122-0.111-6.001h5.889c2.58,0,2.58-4,0-4h-5.951c-0.036-2.587-0.062-4.999-0.077-7.333h7.362
		c2.579,0,2.579-4,0-4H13.29c-0.002-2.082,0.004-4.16,0.02-6.319C15.704,39.48,18.1,39.5,20.5,39.5c2.58,0.001,2.58-3.999,0-4
		c-2.388,0-4.771-0.021-7.152-0.151c0.027-2.361,0.063-4.858,0.109-7.593c2.736-0.062,5.472-0.089,8.209-0.089c2.579,0,2.579-4,0-4
		c-2.714,0-5.427,0.027-8.139,0.088c0.021-1.112,0.042-2.256,0.065-3.45c15.485,0.341,31.509,0.649,46.999,0.669
		c0.067,0,0.124-0.015,0.188-0.018c0.206-1.929,0.277-3.859,0.118-5.794c-0.103-0.01-0.197-0.031-0.306-0.031
		c-16.438-0.021-33.41-0.366-49.843-0.73c-1.718-0.038-2.643,1.155-2.794,2.473c-0.092,0.278-0.159,0.575-0.166,0.913
		c-0.467,22.399-0.467,30.8,0,53.199C7.796,71.352,7.868,71.675,7.978,71.968z"/>
	<path style="fill:#1D1D1B;" d="M95.611,32.565C87.08,26.269,78.186,20.493,69.519,14.39c-1.422-1.001-2.793,0.075-3.08,1.413
		c-0.079,0.193-0.143,0.399-0.169,0.631c-0.281,2.492-0.441,4.989-0.506,7.493c-20.24,1.674-31.492,16.623-41.307,33.165
		c-0.142,0.239-0.22,0.474-0.267,0.704c-2.056,1.713,0.971,4.656,3.118,2.993c11.263-8.722,23.359-16.506,37.969-16.317
		c0.355,0.005,0.204,4.344,0.182,4.917c-0.074,1.881,0.986,4.949,3.52,3.641c9.373-4.84,17.695-11.404,26.992-16.375
		c1.556-0.832,1.249-2.63,0.191-3.505C96.021,32.938,95.845,32.738,95.611,32.565z M69.833,47.657
		c-0.018-1.85-0.212-3.693-0.582-5.523c-0.111-0.547-0.37-0.931-0.704-1.185c-0.347-0.424-0.867-0.722-1.559-0.76
		C54.25,39.48,43.306,44.462,33.198,51.234c8.159-12.26,18.081-22.398,34.331-23.102c0.19-0.008,0.365-0.04,0.53-0.085
		c1.017-0.073,1.984-0.759,1.989-2.074c0.008-1.946,0.083-3.888,0.214-5.826c6.902,4.786,13.888,9.45,20.698,14.367
		C83.774,38.661,77.059,43.578,69.833,47.657z"/>
</g>
</svg>
