<?xml version="1.0" encoding="iso-8859-1"?>
<!-- Generator: Adobe Illustrator 17.0.2, SVG Export Plug-In . SVG Version: 6.00 Build 0)  -->
<!DOCTYPE svg PUBLIC "-//W3C//DTD SVG 1.1//EN" "http://www.w3.org/Graphics/SVG/1.1/DTD/svg11.dtd">
<svg version="1.1" id="Capa_1" xmlns="http://www.w3.org/2000/svg" xmlns:xlink="http://www.w3.org/1999/xlink" x="0px" y="0px"
	 width="100px" height="100px" viewBox="0 0 100 100" style="enable-background:new 0 0 100 100;" xml:space="preserve">
<g>
	<path style="fill:#1D1D1B;" d="M45.785,23.175C27.223,24.074,9.879,34.663,3.861,52.703c-0.166,0.495-0.186,0.944-0.115,1.35
		c-0.141,0.609-0.054,1.293,0.403,1.992C24.534,87.28,73.04,79.882,95.133,54.339c0.155-0.181,0.282-0.367,0.386-0.556
		c0.698-0.812,0.985-1.974,0.346-3.189C86.107,32.054,66.359,22.179,45.785,23.175z M9.529,53.798
		c4.572-13.134,16.041-21.03,29.036-23.855c-8.13,3.241-14.625,10.213-15.562,19.433c-0.793,7.811,2.683,15.08,8.35,19.868
		C22.751,66.854,15.049,61.91,9.529,53.798z M46.581,69.653c-10.271,0.598-18.768-9.32-18.38-19.117
		c0.32-8.09,6.735-14.008,14.052-16.261c2.408-0.18,4.809-0.17,7.218,0.052c0.23,0.021,0.441,0.013,0.641-0.014
		c8.688,2.385,15.563,9.984,14.207,19.732C63.119,62.667,55.015,69.162,46.581,69.653z M62.316,68.263
		c3.854-3.745,6.556-8.693,7.283-13.919c1.777-12.773-7.832-22.816-19.413-25.457c-0.024-0.033-0.045-0.068-0.07-0.099
		c16.25,0.275,31.45,8.702,39.758,22.847C82.81,59.218,72.932,65.063,62.316,68.263z"/>
	<path style="fill:#1D1D1B;" d="M57.658,49.639c-0.983-2.849-2.479-5.348-5.115-6.934c-0.619-0.372-1.279-0.637-1.96-0.825
		c-0.84-0.348-1.712-0.563-2.594-0.669c0.073,0.117,0.15,0.229,0.214,0.355c0.709,1.408,0.851,2.832,0.621,4.373
		c-0.172,1.149-0.8,2.447-1.703,3.201c-1.345,1.123-3.012,1.582-4.735,1.092c-1.786-0.509-3.284-1.764-4.496-3.127
		c-0.269-0.302-0.463-0.646-0.589-1.007c-2.411,2.884-2.887,6.768-0.059,10.307c3.416,4.273,9.873,5.703,14.886,3.752
		c0.075-0.029,0.134-0.071,0.206-0.104c0.498-0.091,0.96-0.306,1.328-0.657c0.246-0.149,0.488-0.325,0.717-0.565
		c1.933-2.017,3.575-4.493,3.42-7.404c-0.002-0.049-0.016-0.093-0.02-0.142C57.882,50.794,57.868,50.247,57.658,49.639z"/>
</g>
</svg>
