<?xml version="1.0" encoding="iso-8859-1"?>
<!-- Generator: Adobe Illustrator 17.0.2, SVG Export Plug-In . SVG Version: 6.00 Build 0)  -->
<!DOCTYPE svg PUBLIC "-//W3C//DTD SVG 1.1//EN" "http://www.w3.org/Graphics/SVG/1.1/DTD/svg11.dtd">
<svg version="1.1" id="Capa_1" xmlns="http://www.w3.org/2000/svg" xmlns:xlink="http://www.w3.org/1999/xlink" x="0px" y="0px"
	 width="100px" height="100px" viewBox="0 0 100 100" style="enable-background:new 0 0 100 100;" xml:space="preserve">
<g>
	<path style="fill:#1D1D1B;" d="M94.157,32.667c-0.001-0.228-0.049-0.429-0.115-0.617c-0.244-1.262-1.715-2.34-3.267-1.443
		c-7.519,4.345-14.509,9.347-21.85,13.914c0.181-4.498,0.043-8.994-0.229-13.497c0.511-1.585-2.011-3.325-3.847-1.938
		c-7.173,5.42-14.978,10.088-22.56,15.029c-0.235-5.204-0.54-10.405-0.572-15.615c-0.001-0.223-0.046-0.42-0.109-0.605
		c-0.3-1.44-2.332-2.538-3.728-1.143c-2.393,2.392-4.978,4.579-7.668,6.654c0.277-7.356,0.524-14.711,0.544-22.073
		c0-0.201-0.031-0.381-0.075-0.551c0.052-1.037-0.586-2.116-1.925-2.116H18.424c-0.205,0-0.387,0.033-0.56,0.079
		c-1.051-0.071-2.141,0.564-2.107,1.921c0.274,11.157-0.328,22.278-1.31,33.389c-1.966,1.236-3.935,2.47-5.89,3.717
		c-0.317,0.203-0.543,0.444-0.703,0.702c-0.26,0.304-0.417,0.7-0.411,1.191c0.154,10.557-0.166,27.11-0.187,37.667
		c0,0.282,0.061,0.527,0.155,0.747c0.21,0.81,0.903,1.527,2.092,1.586C36.766,91.019,64.062,90.5,91.348,90.5
		c1.744,0,2.431-1.445,2.076-2.599c0.145-1.758,0.082-3.483-0.201-5.223C93.175,68.002,94.277,47.345,94.157,32.667z M26.744,12.667
		c-0.011,1.667-0.037,3.334-0.066,5h-6.874c0.01-1.666,0.009-3.333-0.016-5H26.744z M19.747,21.667h6.841
		c-0.124,4.923-0.299,9.844-0.489,14.766c-2.421,1.704-4.914,3.333-7.425,4.941C19.216,34.811,19.603,28.243,19.747,21.667z
		 M88.726,84c0.003,0.376,0.109,0.69,0.274,0.956c0.027,0.516,0.033,1.032,0.015,1.548c-25.756,0.025-51.519,0.437-77.251-0.744
		c0.044-9.747,0.298-25.492,0.18-35.24c8.726-5.528,17.711-10.807,25.374-17.467c0.162,5.15,0.489,10.295,0.654,15.446
		c0.077,2.4,3.989,2.566,4.449,0.484c7.291-4.845,14.842-9.371,21.961-14.412c0.198,4.644,0.212,9.283-0.19,13.928
		c-0.126,1.461,1.267,2.084,2.537,1.885c0.332-0.022,0.679-0.116,1.033-0.325c7.492-4.419,14.496-9.446,21.895-13.979
		C89.603,50.058,88.612,70.02,88.726,84z"/>
	<path style="fill:#1D1D1B;" d="M78.238,56.833h-6.555c-1.1,0-1.78,0.577-2.045,1.293c-0.166,0.281-0.253,0.622-0.202,1.04
		c0.358,2.948,0.34,9.884,0,12.833c-0.144,1.254,0.858,1.885,1.954,1.909C71.594,73.962,71.812,74,72.058,74h6.367
		c1.331,0,2.043-0.844,2.152-1.756c0.056-0.177,0.096-0.365,0.096-0.578v-12.5c0-0.524-0.191-0.936-0.487-1.247
		C79.873,57.305,79.229,56.833,78.238,56.833z M76.178,70h-2.072c0.112-1.723,0.111-7.444-0.015-9.167h2.087V70z"/>
	<path style="fill:#1D1D1B;" d="M59.135,56.833H52.58c-1.1,0-1.78,0.577-2.045,1.293c-0.166,0.281-0.253,0.622-0.202,1.04
		c0.358,2.948,0.34,9.884,0,12.833c-0.145,1.254,0.858,1.885,1.954,1.909C52.491,73.962,52.708,74,52.955,74h6.367
		c1.331,0,2.043-0.844,2.152-1.756c0.056-0.177,0.095-0.365,0.095-0.578v-12.5c0-0.524-0.191-0.936-0.487-1.247
		C60.77,57.305,60.126,56.833,59.135,56.833z M57.075,70h-2.072c0.112-1.723,0.111-7.444-0.015-9.167h2.087V70z"/>
	<path style="fill:#1D1D1B;" d="M40.032,56.833h-6.555c-1.101,0-1.781,0.577-2.046,1.293c-0.166,0.281-0.253,0.622-0.202,1.04
		c0.358,2.948,0.34,9.884,0,12.833c-0.145,1.254,0.858,1.885,1.954,1.909C33.388,73.962,33.605,74,33.852,74h6.368
		c1.331,0,2.042-0.844,2.152-1.756c0.056-0.177,0.095-0.365,0.095-0.578v-12.5c0-0.524-0.191-0.936-0.486-1.247
		C41.667,57.305,41.023,56.833,40.032,56.833z M37.972,70H35.9c0.112-1.723,0.111-7.444-0.015-9.167h2.086V70z"/>
</g>
</svg>
