<?xml version="1.0" encoding="iso-8859-1"?>
<!-- Generator: Adobe Illustrator 17.0.2, SVG Export Plug-In . SVG Version: 6.00 Build 0)  -->
<!DOCTYPE svg PUBLIC "-//W3C//DTD SVG 1.1//EN" "http://www.w3.org/Graphics/SVG/1.1/DTD/svg11.dtd">
<svg version="1.1" id="Capa_1" xmlns="http://www.w3.org/2000/svg" xmlns:xlink="http://www.w3.org/1999/xlink" x="0px" y="0px"
	 width="100px" height="100px" viewBox="0 0 100 100" style="enable-background:new 0 0 100 100;" xml:space="preserve">
<g>
	<path style="fill:#1E1E1C;" d="M28.127,37.109c3.047,2.16,6.497,3.301,9.977,3.301c4.555,0,9.042-1.915,12.633-5.393
		c0.958-0.928,1.96-2.013,2.229-2.333c0.117-0.14,0.224-0.301,0.316-0.476c3.45-6.516,2.873-13.256-1.582-18.491
		c-1.057-1.242-1.994-2.295-2.331-2.621c-0.173-0.167-0.386-0.316-0.631-0.442c-3.101-1.595-6.241-2.404-9.333-2.404
		c-4.25,0-8.354,1.507-12.196,4.478c-0.173,0.134-0.321,0.28-0.439,0.432c-0.274,0.353-1.16,1.563-1.951,2.723
		C19.709,23.379,21.07,32.107,28.127,37.109z M30.339,16.88c0.078-0.083,0.148-0.17,0.212-0.258c0.27-0.374,1.428-1.382,2.772-2.057
		c2.94-1.477,6.229-1.794,9.507-0.92c1.537,0.41,3.662,1.722,4.735,2.925c2.775,3.108,3.651,6.726,2.534,10.461
		c-0.42,1.405-1.105,2.651-1.339,2.898c-2.546,3.419-6.11,5.274-10.081,5.274c-4.848,0-9.448-2.82-11.186-6.859
		C26.56,26.173,25.686,21.795,30.339,16.88z"/>
	<path style="fill:#1E1E1C;" d="M71.632,60.482c-0.108,0.059-0.212,0.115-0.321,0.174c-1.298,0.707-2.617,1.421-3.957,2.079
		c0.191,4.219,0.331,8.439,0.435,12.661c0.065,2.673,0.089,5.347,0.102,8.021c-3.157,0.003-6.312,0.036-9.466,0.199
		c-0.17-6.761-0.514-15.238-0.798-20.309c-0.155-2.775-4.484-2.79-4.328,0c0.353,6.302,0.801,17.889,0.889,24.875
		c-9.916-0.037-19.831-0.193-29.747-0.227c-0.031-6.96-0.162-18.162-0.174-24.288c-0.005-2.791-4.333-2.791-4.328,0
		c0.009,4.56,0.084,11.939,0.135,18.284c-3.497,0.161-6.997,0.197-10.497,0.203c-0.489-9.718-0.113-19.432,0.081-29.156
		c0.881-1.817,2.274-3.14,4.211-3.778c6.137-0.647,12.306-0.912,18.474-1.002c6.191-0.09,12.383,0.003,18.573,0.068
		c2.648,0.028,5.297-0.027,7.945-0.024c0.459,0,0.933-0.004,1.409,0.002c-0.529-0.843-1.367-1.686-2.191-2.511
		c-0.475-0.475-0.966-0.967-1.396-1.462c-0.098-0.112-0.216-0.234-0.327-0.352c-1.078,0.026-2.155,0.052-3.221,0.042
		c-3.185-0.029-6.369-0.071-9.553-0.099c-6.372-0.056-12.748-0.054-19.115,0.232c-3.574,0.161-7.145,0.409-10.703,0.787
		c-0.273-0.031-0.57-0.009-0.891,0.089c-3.094,0.945-5.72,3.069-7.063,6.044c-0.124,0.275-0.204,0.56-0.239,0.844
		c-0.141,0.274-0.23,0.594-0.237,0.969c-0.203,10.345-0.633,20.677,0,31.016c0.055,0.89,0.54,1.492,1.165,1.813
		c0.32,0.304,0.758,0.506,1.329,0.506c4.094,0,8.186-0.018,12.275-0.207c0.009,1.373,0.015,2.647,0.017,3.746
		c0.001,0.382,0.088,0.706,0.228,0.984c0.246,0.702,0.852,1.263,1.82,1.264c11.573,0.013,23.145,0.238,34.718,0.252
		c1.811,0.002,2.354-1.952,1.639-3.138c-0.004-0.457-0.01-0.942-0.017-1.445c3.314-0.169,6.631-0.196,9.951-0.197
		c0.524,0,0.937-0.169,1.25-0.431c1.189,0.177,2.529-0.509,2.526-2.063c-0.014-6.773-0.285-13.524-0.495-20.292
		C71.696,63.266,71.669,61.874,71.632,60.482z"/>
	<path style="fill:#1E1E1C;" d="M95.016,34.957c-0.768-0.146-1.577-0.352-2.435-0.57c-0.884-0.225-1.799-0.458-2.722-0.636
		c-1.638-0.315-3.296-0.573-4.899-0.823c-0.449-0.07-0.898-0.14-1.347-0.21c-0.437-0.841-0.87-1.741-1.322-2.678
		c-1.465-3.04-2.979-6.182-5.161-8.554c-0.335-0.365-0.78-0.598-1.261-0.684c-0.116-0.021-0.232-0.04-0.351-0.043
		c-0.61-0.009-1.206,0.228-1.639,0.662c-2.254,2.265-3.881,5.692-5.316,8.715c-0.47,0.99-0.919,1.938-1.365,2.793
		c-0.375,0.059-0.866,0.115-1.34,0.162c-0.574,0.057-1.124,0.103-1.417,0.126c-0.437,0.036-0.772,0.066-0.922,0.087l-0.97,0.134
		c-2.253,0.309-4.583,0.629-6.886,1.278c-0.307,0.087-0.587,0.239-0.827,0.439c-0.222,0.185-0.41,0.41-0.549,0.669
		c-0.261,0.49-0.32,1.055-0.189,1.591c0.014,0.056,0.019,0.114,0.037,0.169c0.574,1.745,2.14,3.245,3.521,4.568
		c0.418,0.401,0.816,0.779,1.132,1.125c0.185,0.203,0.387,0.408,0.596,0.616c0.235,0.233,0.48,0.469,0.732,0.709
		c1.09,1.039,2.326,2.216,2.412,3.191c0.018,0.203,0.022,0.418,0.033,0.628c0.001,0.016,0.002,0.033,0.002,0.049
		c0.134,2.897-0.404,6.415-0.891,9.553l-0.176,1.141c-0.095,0.625,0.09,1.245,0.477,1.73c0.079,0.1,0.155,0.202,0.252,0.288
		c0.417,0.371,0.951,0.569,1.496,0.569c0.199,0,0.398-0.026,0.595-0.08c0.656-0.18,1.304-0.396,1.947-0.632
		c0.333-0.122,0.664-0.251,0.994-0.386c1.466-0.597,2.901-1.299,4.311-2.021c0.439-0.225,0.877-0.451,1.311-0.676
		c0.604-0.313,1.175-0.6,1.752-0.892c0.279-0.141,0.571-0.296,0.846-0.43l2.17,1.003c1.66,0.766,3.321,1.532,4.979,2.308
		c0.286,0.134,0.574,0.294,0.866,0.454c0.948,0.52,2.123,1.148,3.502,1.271c0.06,0.005,0.114,0.023,0.174,0.027
		c0.746,0.03,1.429-0.301,1.871-0.846c0.223-0.276,0.389-0.603,0.46-0.973c0.591-3.054-0.058-6.639-0.631-9.803
		c-0.148-0.82-0.284-1.598-0.4-2.345c-0.034-0.218-0.074-0.446-0.103-0.656c0.535-0.619,1.646-1.656,2.114-2.094
		c0.421-0.394,0.75-0.708,0.89-0.862c0.486-0.536,0.981-1.068,1.476-1.601c1.17-1.257,2.379-2.558,3.498-3.938
		c0.115-0.142,0.206-0.298,0.282-0.459c0.253-0.537,0.292-1.159,0.082-1.731C96.437,35.65,95.793,35.105,95.016,34.957z
		 M70.733,35.856c0.646-1.161,1.252-2.438,1.895-3.79c0.828-1.744,1.676-3.512,2.603-5.024c0.07-0.114,0.137-0.238,0.208-0.349
		c1.016,1.601,1.917,3.472,2.798,5.3c0.628,1.302,1.277,2.649,1.955,3.864c0.334,0.599,0.922,1.012,1.598,1.124
		c0.825,0.136,1.651,0.265,2.478,0.394c1.564,0.243,3.182,0.495,4.739,0.795c0.471,0.091,0.949,0.201,1.44,0.321
		c-0.086,0.094-0.176,0.189-0.263,0.283c-0.21,0.226-0.419,0.452-0.633,0.682c-0.508,0.546-1.016,1.092-1.51,1.637
		c-0.111,0.118-0.344,0.332-0.633,0.602c-2.688,2.51-3.766,3.684-3.6,5.2c0.01,0.088,0.028,0.183,0.038,0.272
		c0.142,1.181,0.358,2.41,0.593,3.712c0.328,1.81,0.663,3.658,0.765,5.332c-0.182-0.097-0.363-0.187-0.543-0.274
		c-0.043-0.021-0.087-0.045-0.13-0.066c-1.664-0.778-3.332-1.548-5-2.317l-3.124-1.444c-0.3-0.14-0.624-0.209-0.947-0.209
		s-0.646,0.069-0.947,0.209c-1.097,0.509-2.208,1.08-3.296,1.643c-0.136,0.071-0.276,0.141-0.411,0.211
		c-1.267,0.657-2.556,1.315-3.841,1.905c-0.151,0.069-0.302,0.148-0.452,0.215c0.113-0.799,0.215-1.62,0.306-2.445
		c0.233-2.13,0.36-4.295,0.189-6.238c-0.064-0.733-0.268-1.401-0.55-2.024c-0.746-1.643-2.09-2.937-3.239-4.032
		c-0.397-0.378-0.782-0.743-1.109-1.101c-0.375-0.411-0.845-0.864-1.343-1.341c-0.182-0.173-0.383-0.366-0.589-0.568
		c0.971-0.162,1.962-0.298,2.98-0.438l0.37-0.051l0.606-0.084c0.119-0.015,0.36-0.033,0.67-0.059
		c0.176-0.014,0.321-0.028,0.486-0.042C68.711,37.37,70.038,37.107,70.733,35.856z"/>
</g>
</svg>
