<?xml version="1.0" encoding="utf-8"?>
<!-- Generator: Adobe Illustrator 17.0.2, SVG Export Plug-In . SVG Version: 6.00 Build 0)  -->
<!DOCTYPE svg PUBLIC "-//W3C//DTD SVG 1.1//EN" "http://www.w3.org/Graphics/SVG/1.1/DTD/svg11.dtd">
<svg version="1.1" id="Capa_1" xmlns="http://www.w3.org/2000/svg" xmlns:xlink="http://www.w3.org/1999/xlink" x="0px" y="0px"
	 width="100px" height="100px" viewBox="0 0 100 100" enable-background="new 0 0 100 100" xml:space="preserve">
<g>
	<path fill="#1D1D1B" d="M90.364,5.004c-0.424-0.483-1.079-0.729-1.896-0.433c-11.279,4.092-23.594,3.723-34.75,8.25
		c-0.734,0.298-1.139,0.878-1.277,1.506C52.349,14.53,52.277,14.749,52.25,15c-0.478,4.466-0.669,8.908-0.278,13.385
		c-1.474-3.53-1.795-7.266-1.472-11.135c0.138-1.655-1.467-2.23-2.688-1.755c-0.265,0.027-0.542,0.115-0.821,0.278
		c-5.534,3.218-10.618,7.072-15.405,11.313c-0.903,0.8-0.76,1.837-0.161,2.546c1.188,4.206,2.5,8.374,3.931,12.504
		C33.165,39.927,31.758,37.232,31.5,34c-0.18-2.255-3.318-2.53-3.908-0.792c-0.105,0.151-0.2,0.315-0.271,0.51
		c-3.928,10.928-4.21,22.56-0.422,33.546c-6.331,7.581-12.132,15.648-17.376,24.226c-1.349,2.207,2.111,4.215,3.454,2.019
		C18.496,84.483,24.652,76.03,31.4,68.115c0.183,0.067,0.378,0.12,0.6,0.135c17.027,1.173,30.751-7.053,44.009-16.773
		c1.912-1.402,0.326-4.495-1.581-3.699c-0.147-0.001-0.301,0.012-0.46,0.044c-3.184,0.631-6.4,0.609-9.549-0.16
		c-0.053-0.046-0.103-0.095-0.16-0.138c-0.423-0.32-0.647-0.619-0.637-0.951c4.752,0.398,9.459,0.273,14.159-0.644
		c0.336-0.065,0.604-0.193,0.818-0.359c0.194-0.097,0.385-0.222,0.564-0.405C89.329,34.783,91.667,20.773,91.5,6.75
		C91.489,5.855,90.997,5.278,90.364,5.004z M76.552,42.1c-4.574,0.87-9.179,0.85-13.802,0.4c-0.188-0.018-0.359-0.008-0.52,0.017
		c-0.441,0.039-0.859,0.213-1.145,0.569c-1.024,1.28-1.627,2.597-1.393,4.263c0.2,1.419,1.118,2.475,2.184,3.341
		c0.23,0.334,0.584,0.605,1.091,0.739c1.692,0.447,3.398,0.693,5.11,0.779c-10.144,6.891-20.764,12.238-33.381,12.137
		c9.169-10.226,19.371-19.51,30.562-27.867c0.227-0.169,0.396-0.365,0.528-0.572c0.128-0.065,0.254-0.144,0.376-0.241
		c5.481-4.311,10.101-9.428,14.063-15.155c1.472-2.127-1.997-4.124-3.454-2.019c-3.769,5.448-8.229,10.248-13.437,14.345
		c-0.166,0.13-0.288,0.271-0.392,0.415c-12.139,9.095-23.159,19.211-32.976,30.429c-2.144-7.572-2.267-15.292-0.544-22.881
		c1.06,2.024,2.534,3.831,4.412,5.366c0.026,0.022,0.055,0.034,0.082,0.054c0.483,0.617,1.309,0.895,2.114,0.71
		c1.817-0.416,2.946-1.914,3.397-3.647c0.041-0.156,0.056-0.313,0.06-0.468c0.085-0.321,0.083-0.686-0.06-1.095
		c-1.463-4.181-2.789-8.405-4.001-12.665c3.472-3.002,7.113-5.759,10.979-8.217c0.116,3.887,0.993,7.643,2.867,11.172
		c0.37,0.696,0.95,0.988,1.542,0.996c0.589,0.303,1.314,0.299,1.945-0.029c1.194-0.621,2.133-1.551,2.702-2.748
		c0.373-0.318,0.603-0.808,0.539-1.479c-0.397-4.21-0.266-8.387,0.135-12.582c10.124-3.734,21.112-3.818,31.369-7.053
		C87.396,21.166,85.214,33.088,76.552,42.1z"/>
</g>
</svg>
