<?xml version="1.0" encoding="iso-8859-1"?>
<!-- Generator: Adobe Illustrator 17.0.2, SVG Export Plug-In . SVG Version: 6.00 Build 0)  -->
<!DOCTYPE svg PUBLIC "-//W3C//DTD SVG 1.1//EN" "http://www.w3.org/Graphics/SVG/1.1/DTD/svg11.dtd">
<svg version="1.1" id="Capa_1" xmlns="http://www.w3.org/2000/svg" xmlns:xlink="http://www.w3.org/1999/xlink" x="0px" y="0px"
	 width="100px" height="100px" viewBox="0 0 100 100" style="enable-background:new 0 0 100 100;" xml:space="preserve">
<g>
	<path style="fill:#1E1E1C;" d="M50.338,2.76c-0.789-0.051-1.579-0.081-2.369-0.106c-0.177-0.04-0.365-0.064-0.579-0.045
		c-0.068,0.006-0.136,0.016-0.204,0.022c-0.252-0.007-0.504-0.015-0.756-0.022c-0.367-0.01-0.673,0.078-0.931,0.223
		C30.735,4.93,18.229,16.34,16.392,32.53C14.413,49.964,26.14,64.612,42.26,67.518c0.491,0.088,0.984,0.164,1.477,0.234v7.887
		h-4.595c-0.21,0-0.396,0.036-0.57,0.086c-0.999-0.04-1.966,0.57-1.848,1.849c0.223,2.414,0.241,4.832,0.242,7.255
		c0,0.045,0.01,0.083,0.012,0.127c-0.003,0.038-0.012,0.077-0.012,0.115c0,1.137,0.886,1.826,1.935,1.935
		c1.608,0.166,3.219,0.219,4.832,0.235c-0.009,2.826-0.05,3.649-0.238,6.471c-0.017,0.261,0.018,0.488,0.08,0.694
		c0.084,0.892,0.698,1.724,1.854,1.724c2.503,0,5.002,0.01,7.496,0.242c0.766,0.071,1.292-0.248,1.583-0.73
		c0.608-0.265,1.077-0.823,1.077-1.688c0-2.903,0.011-3.807,0.162-6.705h5.157c0.217,0,0.407-0.038,0.586-0.091
		c0.84-0.131,1.591-0.745,1.59-1.843c0-2.583-0.006-5.164-0.242-7.738c-0.006-0.062-0.023-0.116-0.033-0.175
		c0.019-0.103,0.033-0.206,0.033-0.308c0-1.137-0.886-1.826-1.935-1.935c-1.569-0.162-3.14-0.217-4.713-0.234
		c0.155-2.476,0.313-4.952,0.474-7.427c12.634-2.27,24.002-10.415,27.711-23.42c2.668-9.355-0.399-22.891-6.078-30.219
		C71.711,5.352,60.077,3.394,50.338,2.76z M80.943,41.888C78.51,54.174,67.914,60.95,56.461,63.117
		c-0.213,0.032-0.426,0.062-0.64,0.091c-0.24,0.033-0.479,0.068-0.719,0.098c-0.193,0.024-0.377,0.071-0.554,0.13
		c-0.466,0.158-0.864,0.435-1.11,0.834c-0.281,0.301-0.478,0.701-0.512,1.212c-0.056,0.84-0.106,1.68-0.161,2.52
		c-0.051,0.791-0.101,1.582-0.152,2.372c-0.138,2.158-0.278,4.315-0.413,6.473c-0.08,1.273,0.891,1.888,1.88,1.859
		c0.166,0.044,0.341,0.076,0.538,0.076c1.48,0,2.958,0.017,4.434,0.1c0.096,1.497,0.146,2.995,0.156,4.495h-5.315
		c-1.281,0-1.899,1.019-1.865,2.011c-0.034,0.128-0.059,0.262-0.07,0.407c-0.203,2.872-0.234,3.75-0.239,6.628
		c-1.425-0.094-2.852-0.146-4.28-0.157c0.149-2.983,0.167-3.968,0.167-6.955c0-1.239-0.954-1.861-1.914-1.87
		c-0.156-0.039-0.322-0.065-0.505-0.065c-1.457,0-2.911-0.017-4.363-0.096c-0.009-1.259-0.028-2.516-0.094-3.773h4.941
		c1.238,0,1.86-0.953,1.87-1.913c0.038-0.156,0.065-0.322,0.065-0.505v-6.7v-2.285v-2.139c0-0.53-0.181-0.94-0.456-1.245
		c-0.291-0.469-0.776-0.796-1.335-0.89c-0.101-0.017-0.2-0.042-0.305-0.042H45.43h-0.322c-0.399-0.028-0.798-0.058-1.193-0.097
		c-14.602-1.431-25.063-15.108-23.79-30.223C21.379,18.595,33.627,7.969,47.168,6.688c8.693,0.277,17.556,1.344,24.92,6.628
		C79.43,18.584,82.709,32.968,80.943,41.888z"/>
	<path style="fill:#1E1E1C;" d="M50.532,11.634c-0.533-0.034-1.066-0.056-1.6-0.073c-0.206-0.039-0.413-0.048-0.602-0.031
		l-0.099,0.01l-0.528-0.014c-0.32,0-0.625,0.063-0.91,0.189c-11.289,1.673-19.716,10.32-20.992,21.563
		C24.4,45.623,32.506,56.584,44.657,58.774c1.68,0.303,3.411,0.456,5.144,0.456c0.001,0,0,0,0.001,0
		c14.07,0,22.878-8.797,25.365-17.515c1.871-6.558-0.107-16.409-4.41-21.96C65.833,13.403,57.362,12.078,50.532,11.634z
		 M70.828,39.723C68.636,50.79,56.242,55.124,46.086,54.128c-9.502-0.932-16.541-9.902-15.691-19.997
		c0.789-9.364,8.309-16.824,17.893-17.759c5.767,0.187,11.783,0.86,16.763,4.433C69.747,24.175,72.012,33.741,70.828,39.723z"/>
</g>
</svg>
