<?xml version="1.0" encoding="iso-8859-1"?>
<!-- Generator: Adobe Illustrator 17.0.2, SVG Export Plug-In . SVG Version: 6.00 Build 0)  -->
<!DOCTYPE svg PUBLIC "-//W3C//DTD SVG 1.1//EN" "http://www.w3.org/Graphics/SVG/1.1/DTD/svg11.dtd">
<svg version="1.1" id="Capa_1" xmlns="http://www.w3.org/2000/svg" xmlns:xlink="http://www.w3.org/1999/xlink" x="0px" y="0px"
	 width="100px" height="100px" viewBox="0 0 100 100" style="enable-background:new 0 0 100 100;" xml:space="preserve">
<g>
	<path style="fill:#1D1D1B;" d="M85.895,37.062c-4.687,0.085-9.112,1.055-13.112,3.032c2.427-8.647-0.005-17.416-7.102-24.174
		c-0.18-0.24-0.386-0.42-0.61-0.547c-2.095-1.506-4.929,1.432-2.947,3.319c1.367,2.711,3.089,9.228-0.782,10.833
		c-1.8,0.747-3.782-2.498-4.487-3.637c-3.31-5.344-3.714-12.537-0.862-18.117c0.049-0.036,0.094-0.077,0.143-0.113
		C58.3,6.09,56.488,2.59,54.328,3.533c-0.643,0.032-1.273,0.344-1.702,1.062c-0.052,0.088-0.094,0.184-0.145,0.273
		c-9.811,7.937-13.783,20.479-9.034,32.564c0.103,0.261,0.244,0.475,0.402,0.665c0.892,2.291,1.994,6.502-0.993,7.578
		c-4.882,1.757-6.641-5.766-8.143-8.781c-2.912-5.843-9.078-9.648-14.924-12.064c-2.295-0.949-3.461,2.122-2.069,3.691
		c3.411,10.075-0.783,18.579-3.146,28.313c-1.677,6.909-1.444,14.246,1.186,20.877c4.806,12.119,17.073,18.487,29.507,19.59
		c13.25,1.175,30.802-4.03,36.902-16.824c5.845-12.259,1.24-26.871,5.366-39.69C88.592,39.503,88.05,37.023,85.895,37.062z
		 M37.442,62.879c1.454,1.084,2.583,2.416,3.347,3.921l0.037,0.14c0.789,2.271,2.686,4.924,5.436,4.924
		c0.41,0,0.831-0.061,1.25-0.179c1.112-0.316,1.959-1.021,2.45-2.041c0.854-1.778,0.463-4.061-0.132-5.475
		c-0.049-0.117-0.111-0.226-0.192-0.338c-1.083-2.914-1.028-5.976,0.115-8.66c0.244,3.06,1.544,5.817,3.6,7.484
		c1.622,1.314,3.716,1.246,5.123-0.187c0.39-0.396,0.708-0.841,0.956-1.331c0.499,2.344,0.004,4.812-1.464,7.223
		c-0.034,0.056-0.06,0.109-0.089,0.175c-0.313,0.46-0.349,1.03-0.093,1.54c0.481,0.955,1.824,1.263,2.619,0.506
		c1.602-1.528,3.554-2.51,5.81-2.925c-0.566,2.61-0.621,5.278-0.674,7.866c-0.056,2.73-0.113,5.554-0.783,8.244
		c-1.485,5.971-8.775,8.644-15.34,8.644c-0.476,0-0.941-0.014-1.394-0.042c-6.458-0.397-11.704-4.546-13.055-10.323
		c-0.863-3.692,0.285-7.387,1.396-10.959C37.352,67.906,37.697,65.32,37.442,62.879z M79.371,75.072
		c-1.806,7.258-7.46,11.954-14.246,14.698c0.789-0.876,1.466-1.849,1.983-2.933c1.658-3.478,1.701-7.335,1.743-11.064
		c0.034-3.016,0.068-6.133,0.97-8.99c0.356-0.495,0.419-1.186,0.153-1.751c-0.256-0.544-0.782-0.868-1.439-0.868c0,0,0,0-0.001,0
		c-2.126,0.039-4.106,0.429-5.9,1.16c0.84-4.263-0.572-8.479-3.915-11.654c-0.129-0.172-0.284-0.311-0.417-0.383
		c-0.848-0.606-2.13-0.166-2.512,0.789c-0.223,0.557-0.104,1.145,0.317,1.591c0.487,1.004,0.968,2.837,0.562,3.93
		c-0.144,0.388-0.385,0.647-0.825,0.811c-0.246,0-0.714-0.284-1.566-1.659c-1.569-2.532-1.751-5.962-0.465-8.573
		c0.583-0.442,0.811-1.181,0.58-1.893c-0.281-0.868-1.151-1.36-1.934-1.069c-0.493,0.052-0.907,0.324-1.174,0.773l-0.038,0.069
		c-5.202,4.261-7.025,10.914-4.641,16.98c0.057,0.143,0.132,0.275,0.229,0.402c0.433,1.14,0.542,2.099,0.296,2.638
		c-0.105,0.231-0.273,0.382-0.529,0.474c-0.19,0.068-0.373,0.104-0.542,0.104c-1.202,0-1.952-1.863-2.5-3.224
		c-0.164-0.408-0.315-0.781-0.461-1.073c-1.298-2.604-3.924-4.737-7.805-6.341c-0.771-0.318-1.548-0.001-1.881,0.738
		c-0.273,0.607-0.191,1.33,0.199,1.837c1.263,3.824,0.27,7.238-0.781,10.852c-0.292,1.004-0.594,2.042-0.852,3.104
		c-0.916,3.772-0.701,7.528,0.621,10.862c0.872,2.198,2.252,4.111,4.029,5.676c-8.788-3.068-15.853-9.916-18.078-19.432
		c-1.756-7.511,0.561-15.056,2.778-22.187c1.914-6.158,2.893-11.947,1.78-18.01c3.75,2.328,6.807,5.46,8.864,9.55
		c0.019,0.078,0.028,0.152,0.056,0.232c1.739,5.006,6.034,10.45,12.014,8.754c5.913-1.677,5.875-8.928,3.942-13.525
		c-0.092-0.218-0.212-0.401-0.344-0.568c-2.844-7.53-1.984-15.274,2.075-21.522c-0.482,6.714,1.673,13.817,6.769,17.948
		c2.781,2.255,6.248,2.303,8.8-0.294c1.469-1.495,2.287-3.281,2.637-5.174c2.269,5.666,1.619,11.934-2.093,18.028
		c-0.066,0.108-0.108,0.214-0.154,0.32c-1.474,1.99,1.467,4.725,3.446,2.84c3.836-3.656,8.414-5.623,13.469-6.268
		C79.787,52.703,82.094,64.125,79.371,75.072z"/>
</g>
</svg>
