<?xml version="1.0" encoding="iso-8859-1"?>
<!-- Generator: Adobe Illustrator 17.0.2, SVG Export Plug-In . SVG Version: 6.00 Build 0)  -->
<!DOCTYPE svg PUBLIC "-//W3C//DTD SVG 1.1//EN" "http://www.w3.org/Graphics/SVG/1.1/DTD/svg11.dtd">
<svg version="1.1" id="Capa_1" xmlns="http://www.w3.org/2000/svg" xmlns:xlink="http://www.w3.org/1999/xlink" x="0px" y="0px"
	 width="100px" height="100px" viewBox="0 0 100 100" style="enable-background:new 0 0 100 100;" xml:space="preserve">
<g>
	<path style="fill:#1D1D1B;" d="M89.385,9.96c-0.666,1.009-1.294,2.034-1.905,3.065c-7.018-2.636-13.491-4.764-21.105-3.727
		c-6.077,0.828-11.424,4.412-15.549,8.778c-2.392,2.532-4.395,5.36-6.16,8.359c-7.664,0.375-15.143-0.326-22.617-2.113
		c-0.452-0.108-0.868-0.105-1.245-0.026c-0.888-0.053-1.796,0.307-2.398,1.285C11.288,37.145,5.547,49.698,3.604,63.233
		c-0.047,0.326-0.028,0.629,0.019,0.918c-0.425,1.098-0.168,2.362,1.24,3c12.675,5.736,26.803,6.722,40.205,3.017
		c0.04-0.011,0.07-0.03,0.109-0.042c0.908-0.152,1.737-0.735,2.079-1.872c1.523-5.059,3.092-10.117,5.205-14.966
		c0.101-0.232,0.162-0.46,0.202-0.685c0.542,0.051,1.051,0.105,1.508,0.158c6.672,0.776,13.199,2.473,19.71,4.084
		c-1.532,10.493-2.508,21.1-3.957,31.328c-0.489,3.456,4.791,4.945,5.285,1.457c3.659-25.832,4.061-54.41,18.908-76.903
		C96.072,9.766,91.323,7.024,89.385,9.96z M9.15,63.063c1.983-11.861,6.861-22.826,13.014-33.104
		c6.453,1.424,12.958,2.135,19.548,2.05c-3.312,6.894-5.861,14.284-9.056,20.978c-0.107,0.223-0.175,0.444-0.223,0.661
		c-1.36,3.933,0.692,7.426,3.329,10.649c0.132,0.377,0.333,0.737,0.611,1.054c0.273,0.311,0.559,0.608,0.851,0.898
		C27.776,67.713,18.046,66.734,9.15,63.063z M42.905,63.778c-0.69-0.419-1.317-0.929-1.902-1.513c-0.114-0.27-0.261-0.536-0.48-0.79
		c-6.405-7.421-0.059-9.073,6.462-9.139C45.441,56.088,44.117,59.91,42.905,63.778z M74.734,51.411
		c-9.701-2.396-19.596-4.903-29.636-4.61c-1.236,0.036-2.579,0.146-3.917,0.385c3.192-7.559,6.271-15.182,10.918-21.981
		c3.251-4.757,7.715-8.416,13.256-10.086c6.688-2.016,13.236,0.349,19.488,2.737C79.59,28.335,76.697,39.747,74.734,51.411z"/>
</g>
</svg>
