<?xml version="1.0" encoding="iso-8859-1"?>
<!-- Generator: Adobe Illustrator 17.0.2, SVG Export Plug-In . SVG Version: 6.00 Build 0)  -->
<!DOCTYPE svg PUBLIC "-//W3C//DTD SVG 1.1//EN" "http://www.w3.org/Graphics/SVG/1.1/DTD/svg11.dtd">
<svg version="1.1" id="Capa_1" xmlns="http://www.w3.org/2000/svg" xmlns:xlink="http://www.w3.org/1999/xlink" x="0px" y="0px"
	 width="100px" height="100px" viewBox="0 0 100 100" style="enable-background:new 0 0 100 100;" xml:space="preserve">
<g>
	<path style="fill:#1E1E1C;" d="M60.498,75.947c-5.458-19.576-12.45-38.551-18.491-57.902c-0.146-0.468-0.395-0.804-0.693-1.026
		c-0.559-0.414-1.297-0.371-1.437-0.401c-0.082-0.017-0.167-0.029-0.257-0.033c-4.915-0.211-9.807,0.02-14.704,0.497
		c-0.141,0.014-0.273,0.042-0.396,0.084c-0.213,0.071-0.761,0.207-1.105,0.498c-0.184,0.155-0.349,0.369-0.482,0.651
		C14.122,36.903,8.018,56.927,3.146,77.19c-0.122,0.509-0.074,0.957,0.084,1.327c0.294,0.687,1.12,1.179,1.45,1.316
		c0.186,0.077,0.396,0.121,0.631,0.123c3.937,0.019,9.871,0.231,13.808,0.249c0.507,0.002,0.902-0.19,1.184-0.49
		c0.499-0.531,0.588-1.299,0.655-1.444c0.039-0.084,0.073-0.173,0.102-0.27l2.428-8.125c0.316-1.058,1.466-1.967,2.569-2.038
		c3.11-0.2,6.219-0.439,9.329-0.638c1.103-0.07,2.332,0.71,2.764,1.727c0.922,2.172,1.908,4.306,2.99,6.384
		c0.51,0.98,0.92,2.312,1.298,2.791c0.209,0.265,0.517,0.462,0.936,0.542c3.751,0.716,6.073,1.078,9.388,0.907
		c1.103-0.057,2.095-0.125,2.222-0.107c0.074,0.011,0.15,0.017,0.231,0.017c1.36-0.001,2.75-0.031,4.039-0.568
		c0.4-0.167,0.743-0.445,0.977-0.8c0.39-0.59,0.368-1.423,0.35-1.681C60.569,76.262,60.542,76.108,60.498,75.947z M56.438,75.226
		c-0.036,0-0.071,0.002-0.109,0.007c-3.726,0.531-6.008,0.507-9.253,0.03c-1.093-0.161-2.411-1.102-2.92-2.082
		c-1.533-2.952-2.878-6.014-4.116-9.139c-0.166-0.419-0.4-0.696-0.668-0.857c-0.523-0.315-1.122-0.12-1.191-0.125
		c-0.041-0.003-0.082-0.005-0.126-0.003c-5.053,0.274-10.096,0.731-15.149,0.994c-0.277,0.014-0.521,0.086-0.73,0.199
		c-0.371,0.201-0.788,0.671-0.966,0.956c-0.099,0.159-0.182,0.343-0.245,0.553c-0.85,2.843-1.699,5.686-2.548,8.528
		c-0.316,1.058-1.468,1.904-2.572,1.885c-2.1-0.037-4.612-0.088-6.712-0.128c-1.104-0.021-1.788-0.907-1.52-1.979
		c4.393-17.607,9.789-34.963,17.246-51.257c0.46-1.004,1.733-1.899,2.834-1.984c3.11-0.239,6.221-0.363,9.339-0.324
		c1.104,0.014,2.268,0.902,2.603,1.955c5.398,16.973,11.405,33.705,16.362,50.849C56.303,74.365,56.498,75.226,56.438,75.226z"/>
	<path style="fill:#1E1E1C;" d="M33.793,38.92c-0.131-0.385-0.332-0.679-0.572-0.892c-0.443-0.393-1.098-0.493-1.272-0.532
		c-0.104-0.023-0.21-0.036-0.32-0.036c-0.832,0.001-1.678,0.046-2.479,0.319c-0.1,0.034-0.194,0.078-0.284,0.13
		c-0.149,0.086-0.687,0.289-1.011,0.682c-0.174,0.211-0.312,0.484-0.396,0.825c-1.384,5.612-2.914,11.171-4.679,16.65
		c-0.289,0.898,0.003,1.604,0.525,2.014c0.869,0.683,1.934,0.249,1.987,0.253c0.031,0.002,0.063,0.003,0.097,0.001
		c3.417-0.239,6.833-0.492,10.248-0.745c0.142-0.011,0.272-0.04,0.393-0.082c0.21-0.074,0.459-0.179,0.577-0.199
		s1.181,0.023,1.793-0.765c0.326-0.42,0.478-1.008,0.293-1.718C37.287,49.436,35.578,44.164,33.793,38.92z M32.658,53.832
		c-1.183,0.087-2.365,0.173-3.547,0.258c-1.102,0.079-1.731-0.712-1.417-1.771c0.875-2.953,1.691-5.925,2.461-8.915
		c0.275-1.07,0.538-1.942,0.595-1.945c0.057-0.003,0.389,0.843,0.736,1.892c0.921,2.785,1.804,5.585,2.622,8.409
		C34.413,52.821,33.759,53.751,32.658,53.832z"/>
	<path style="fill:#1E1E1C;" d="M58.317,33.339c-0.321,0.047-0.582,0.151-0.788,0.296c-0.384,0.27-0.89,0.997-1.045,1.562
		c-0.091,0.331-0.104,0.691-0.031,1.05c0.233,1.149,0.504,2.29,0.737,3.439c0.021,0.103,0.054,0.201,0.095,0.293
		c0.07,0.155,0.104,0.47,0.103,0.724c0,0.151,0.015,0.304,0.047,0.457c0.126,0.595,0.299,1.177,0.504,1.748
		c0.34,0.947,0.786,2.55,1.526,3.144c0.416,0.333,0.966,0.515,1.616,0.41c5.677-0.923,11.716-1.674,16.749,0.517
		c1.013,0.441,0.874,0.921-0.228,1.007c-8.262,0.643-16.963,5.04-17.689,13.811c-0.459,5.548,2.795,9.606,6.977,12.834
		c4.61,3.56,10.82,3.904,16.415,2.661c1.079-0.24,1.965-0.179,2.017,0.212c0.052,0.392,0.052,1.491,0.629,2.113
		c0.316,0.341,0.776,0.565,1.381,0.565h5.895c0.104,0,0.201-0.009,0.295-0.023c0.162-0.025,1.016-0.085,1.59-0.644
		c0.318-0.31,0.537-0.742,0.571-1.297c0.715-11.472,2.726-24.701-3.142-35.216C85.829,30.973,69.971,31.635,58.317,33.339z
		 M92.047,74.259c-0.09,1.101-0.78,1.994-1.548,1.994s-1.431-0.494-1.441-1.105c-0.007-0.369-0.006-0.738-0.006-1.106
		c0-0.868-0.461-1.439-1.068-1.712c-1.007-0.453-2.771,0.385-3.833,0.692c-3.938,1.138-7.916,1.317-11.952,0.084
		c-4.715-1.441-9.184-6.625-8.26-11.697c1.573-8.633,13.461-10.817,20.415-9.052c1.137,0.289,1.969-0.366,2.293-1.215
		c0.395-1.032-0.241-2.133-0.36-2.383c-0.068-0.144-0.156-0.286-0.267-0.423c-5.632-6.933-13.957-7.241-22.079-6.231
		c-1.096,0.136-2.198-0.219-2.403-0.843c-0.121-0.369-0.227-0.748-0.312-1.147c-0.021-0.103-0.055-0.2-0.097-0.293
		c-0.071-0.155-0.105-0.472-0.104-0.725c0.001-0.151-0.013-0.303-0.044-0.456c-0.057-0.282-0.117-0.563-0.177-0.845
		c-0.101-0.466,0.703-0.964,1.801-1.085c10.948-1.203,23.53-0.294,28.037,11.43C93.716,56.144,92.75,65.624,92.047,74.259z"/>
	<path style="fill:#1E1E1C;" d="M81.292,57.578c-2.448-1.369-5.418-0.932-7.639,0.639c-2.684,1.899-3.261,5.714-1.383,8.313
		c1.66,2.298,5.146,3.282,7.896,2.843c3.662-0.584,5.105-3.502,4.733-6.394C84.626,60.852,83.37,58.739,81.292,57.578z
		 M80.909,64.198c-0.023,0.087-0.049,0.17-0.079,0.248c-0.803,2.119-3.962,0.807-5.366-0.108c-0.689-0.449,0.053-2.027,0.386-2.422
		c0.566-0.67,1.65-1.206,2.534-1.165C80.065,60.829,81.324,62.617,80.909,64.198z"/>
</g>
</svg>
