<?xml version="1.0" encoding="iso-8859-1"?>
<!-- Generator: Adobe Illustrator 17.0.2, SVG Export Plug-In . SVG Version: 6.00 Build 0)  -->
<!DOCTYPE svg PUBLIC "-//W3C//DTD SVG 1.1//EN" "http://www.w3.org/Graphics/SVG/1.1/DTD/svg11.dtd">
<svg version="1.1" id="Capa_1" xmlns="http://www.w3.org/2000/svg" xmlns:xlink="http://www.w3.org/1999/xlink" x="0px" y="0px"
	 width="100px" height="100px" viewBox="0 0 100 100" style="enable-background:new 0 0 100 100;" xml:space="preserve">
<g>
	<path style="fill:#1D1D1B;" d="M86.512,8.837c-4.537,0.744-9.333,1.102-15.095,1.128c-0.32,0.002-0.63,0.036-0.966,0.108
		c-2.177,0.176-3.776,1.638-3.909,3.596c-0.126,1.84-0.252,11.098-0.394,22.512c-1.757-1.083-3.567-2.039-5.139-2.866
		c-1.185-0.623-2.207-1.162-2.894-1.592c-5.027-3.151-10.427-6.253-16.051-9.218c-5.269-2.778-10.797-5.47-16.432-8.003
		c-1.453-0.653-2.853-1.477-4.334-2.349c-2.454-1.444-4.991-2.937-7.924-3.701C10.643,7.74,8.43,8.21,6.96,9.753
		c-1.948,2.046-2.062,5.343-1.918,8.298c0.24,4.886,0.299,9.884,0.355,14.717c0.027,2.321,0.055,4.642,0.101,6.961
		c0.086,4.274,0.132,8.548,0.177,12.821c0.119,11.06,0.241,22.496,1.081,33.77c0.029,0.383,0.106,0.759,0.233,1.145
		c0.358,2.256,2.088,3.867,4.197,3.867c0,0,0,0,0.001,0c0.566,0,1.144-0.115,1.716-0.341c10.805-4.272,21.726-10.586,33.388-19.299
		c4.952-3.701,10.02-7.794,15.062-12.167c0.92-0.798,2.15-1.661,3.452-2.575c0.36-0.253,0.726-0.51,1.092-0.771
		c-0.209,15.731-0.459,30.52-0.772,32.766c-0.097,0.7,0.013,1.379,0.316,1.978c0.5,1.459,1.824,2.357,3.498,2.357
		c0.158,0,0.322-0.008,0.491-0.024c6.596-0.645,12.276-0.841,17.611-0.608l0.228,0.005c0.789,0,1.5-0.18,2.114-0.535
		c1.344-0.619,2.162-1.772,2.251-3.18c0.343-5.434,0.359-75.079,0.359-75.782c0-1.05-0.421-1.988-1.191-2.669
		C89.851,9.208,88.292,8.548,86.512,8.837z M74.368,44.171c0.109-11.643,0.212-22.733,0.307-26.667
		c3.114-0.092,6.071-0.295,8.966-0.618l-0.004,2.902c-0.018,14.503-0.067,56.408-0.194,65.176c-3.119-0.022-6.255,0.081-9.611,0.314
		C74.022,79.979,74.179,64.564,74.368,44.171z M62.507,45.903C50.792,56.664,33.988,70.905,15.734,79.55
		c-0.606-11.138-0.699-22.441-0.79-33.402c-0.07-8.605-0.144-17.472-0.464-26.255C32.811,27.62,49.312,36.556,62.507,45.903z"/>
</g>
</svg>
