<?xml version="1.0" encoding="iso-8859-1"?>
<!-- Generator: Adobe Illustrator 17.0.2, SVG Export Plug-In . SVG Version: 6.00 Build 0)  -->
<!DOCTYPE svg PUBLIC "-//W3C//DTD SVG 1.1//EN" "http://www.w3.org/Graphics/SVG/1.1/DTD/svg11.dtd">
<svg version="1.1" id="Capa_1" xmlns="http://www.w3.org/2000/svg" xmlns:xlink="http://www.w3.org/1999/xlink" x="0px" y="0px"
	 width="100px" height="100px" viewBox="0 0 100 100" style="enable-background:new 0 0 100 100;" xml:space="preserve">
<g>
	<path style="fill:#1D1D1B;" d="M8.677,72.653c12.513-9.689,26.35-18.655,42.739-18.655L51.672,54
		c0.167,1.161,0.109,5.525,0.051,7.022c-0.052,1.349,0.351,3.184,1.368,4.241c0.52,0.54,1.162,0.825,1.857,0.825
		c0.491,0,1.014-0.141,1.551-0.418c5.569-2.876,10.891-6.581,16.036-10.164c4.833-3.365,9.831-6.844,14.995-9.605
		c0.87-0.465,1.398-1.215,1.488-2.113c0.097-0.965-0.345-2.015-1.129-2.694c-0.203-0.291-0.436-0.532-0.711-0.736
		c-4.476-3.303-9.132-7.149-13.635-10.87c-5.381-4.446-10.946-9.043-16.366-12.859c-0.512-0.36-1.047-0.542-1.593-0.542
		c-1.272,0-2.418,1.039-2.7,2.388c-0.122,0.304-0.194,0.576-0.227,0.856c-0.348,3.08-0.516,8.065-0.573,10.098
		C28.011,31.634,14.987,50.355,4.664,67.754C4.518,68,4.409,68.262,4.336,68.549c-0.783,0.726-1.033,1.68-0.685,2.643
		c0.447,1.235,1.756,2.132,3.11,2.132C7.448,73.324,8.11,73.092,8.677,72.653z M16.956,59.489
		c8.199-11.864,19.19-23.468,37.669-24.27c0.238-0.011,0.474-0.048,0.623-0.099c1.363-0.098,2.742-1.026,2.751-2.881
		c0.007-1.862,0.073-5.322,0.192-7.661c3.905,2.786,7.886,6.233,11.743,9.573c3.516,3.044,7.144,6.185,10.688,8.801
		c-3.819,2.257-7.571,4.913-11.206,7.485c-3.79,2.682-7.701,5.45-11.682,7.76c-0.062-2.255-0.282-5.6-0.663-7.483
		c-0.137-0.677-0.465-1.237-0.949-1.624c-0.523-0.614-1.252-0.964-2.113-1.012C41.976,47.409,30.22,51.004,16.956,59.489z"/>
	<path style="fill:#1D1D1B;" d="M94.124,37.638c-0.019-0.017-0.031-0.036-0.051-0.053c-8.487-7.195-16.87-14.515-25.667-21.333
		c-2.012-1.559-4.865,1.25-2.828,2.828c8.797,6.818,17.18,14.138,25.667,21.333c0.188,0.159,0.385,0.266,0.584,0.347
		c0.042,0.051,0.075,0.103,0.125,0.153c1.564,1.573,1.72,2.934,0.125,4.547c-0.128,0.129-0.228,0.264-0.312,0.402
		c-8.94,6.216-17.803,12.547-27.014,18.361c-2.179,1.375,0.391,4.446,2.543,3.087c9.412-5.941,18.459-12.422,27.598-18.768
		c0.458-0.318,0.688-0.712,0.761-1.117c2.314-2.989,1.946-6.505-0.874-9.339C94.572,37.876,94.35,37.734,94.124,37.638z"/>
</g>
</svg>
