<?xml version="1.0" encoding="utf-8"?>
<!-- Generator: Adobe Illustrator 17.0.2, SVG Export Plug-In . SVG Version: 6.00 Build 0)  -->
<!DOCTYPE svg PUBLIC "-//W3C//DTD SVG 1.1//EN" "http://www.w3.org/Graphics/SVG/1.1/DTD/svg11.dtd">
<svg version="1.1" id="Capa_1" xmlns="http://www.w3.org/2000/svg" xmlns:xlink="http://www.w3.org/1999/xlink" x="0px" y="0px"
	 width="100px" height="100px" viewBox="0 0 100 100" enable-background="new 0 0 100 100" xml:space="preserve">
<g>
	<path fill="#1D1D1B" d="M97.023,17.636c-2.527-3.329-5.28-6.369-8.183-9.037c-1.207-1.11-3.056-1.015-4.208,0.127
		c-0.184,0.118-0.348,0.248-0.498,0.396c-4.288,4.212-8.594,8.546-12.757,12.738c-2.376,2.392-4.752,4.784-7.138,7.166
		c-4.047-3.461-11.268-11.072-15.18-15.525c-0.081-0.6-0.368-1.175-0.833-1.655c-1.14-1.176-3.028-1.331-4.284-0.277
		c-3.599,3.016-7.129,5.858-10.603,8.61c-2.213-1.168-4.709-1.779-7.156-1.779c-6.784,0-11.999,4.188-13.285,10.67
		c-0.559,2.814-0.359,5.158,0.202,7.068c-2.752,2.224-5.538,4.519-8.357,6.924c-0.858,0.452-1.492,1.293-1.67,2.23
		c-0.177,0.929,0.103,1.838,0.786,2.559C16.315,61,30.434,75.902,45.153,89.645c0.575,0.537,1.27,0.821,2.009,0.821
		c0.36,0,0.718-0.067,1.063-0.2c0.637-0.094,1.216-0.414,1.683-0.934c11.998-13.351,23.061-27.058,32.881-40.74
		c0.541-0.754,0.691-1.606,0.429-2.412c-0.106-0.576-0.399-1.113-0.853-1.558c-1.387-1.362-2.896-2.596-4.354-3.788
		c-0.646-0.529-1.294-1.058-1.933-1.599c6.287-5.643,13.073-11.523,20.266-16.696c0.975-0.701,1.435-1.803,1.254-2.978
		C97.654,19.055,97.575,18.362,97.023,17.636z M45.261,18.25c4.042,4.552,10.73,11.571,14.716,15.008
		c-3.848,3.796-7.119,6.952-10.187,9.827c-2.429-1.746-5.034-3.48-7.755-5.163c-0.812-0.502-1.739-0.561-2.543-0.245
		c0.633-1.595,1.008-3.425,1.008-5.528c0-3.227-0.973-5.909-2.53-8.029C40.372,22.219,42.802,20.272,45.261,18.25z M17.804,30.044
		c0.972-4.898,4.967-6.644,8.381-6.644c0.891,0,1.783,0.114,2.645,0.335c0.391,0.1,0.771,0.229,1.146,0.374
		c0.352,0.136,0.695,0.289,1.027,0.464c0.606,0.32,1.174,0.705,1.69,1.154c0.253,0.22,0.49,0.459,0.716,0.71
		c0.222,0.247,0.427,0.509,0.619,0.785c0.912,1.315,1.473,2.955,1.473,4.927c0,6.3-4.629,8.536-8.593,8.536
		c-2.645,0-5.123-0.926-6.847-2.513c-0.248-0.228-0.48-0.47-0.695-0.725c-0.021-0.025-0.047-0.047-0.068-0.073
		c-0.193-0.235-0.369-0.479-0.529-0.73c-0.36-0.564-0.634-1.171-0.832-1.815c-0.107-0.35-0.187-0.713-0.246-1.085
		c-0.062-0.385-0.097-0.781-0.107-1.19C17.563,31.76,17.629,30.926,17.804,30.044z M76.359,47.266
		c-8.729,12.02-18.526,24.149-29.143,36.076C34.661,71.482,22.644,58.943,10.438,46.071c1.921-1.631,3.826-3.207,5.717-4.749
		c2.665,2.739,6.595,4.362,10.753,4.362c2.476,0,5.022-0.609,7.233-1.865c-0.707,1.081-1.371,2.151-1.973,3.154
		c-0.188,0.312-0.315,0.64-0.382,0.979c-0.829,0.612-1.349,1.588-1.334,2.578c0.016,1.036,0.608,1.896,1.626,2.357l1.432,0.647
		c4.989,2.259,10.148,4.593,14.992,7.313c1.27,0.711,2.773,0.42,3.699-0.665c0.116-0.071,0.23-0.151,0.342-0.241
		c6.243-5.041,12.278-10.515,18.115-15.809l0.939-0.852c0.757,0.652,1.527,1.286,2.299,1.919
		C74.711,45.872,75.549,46.561,76.359,47.266z M66.76,39.612C61.21,44.63,55.476,49.814,49.592,54.63
		c-3.854-2.062-7.831-3.915-11.633-5.641c0.979-1.605,1.974-3.159,3.092-4.591c2.594,1.662,4.922,3.264,7.104,4.889
		c0.055,0.04,0.119,0.076,0.102,0.061c1.172,0.859,2.766,0.792,3.837-0.2c8.083-7.476,15.959-15.41,23.576-23.083
		c3.63-3.656,7.376-7.43,11.108-11.117c1.406,1.41,2.722,2.86,3.927,4.327C82.286,25.574,74.397,32.707,66.76,39.612z"/>
</g>
</svg>
