<?xml version="1.0" encoding="iso-8859-1"?>
<!-- Generator: Adobe Illustrator 17.0.2, SVG Export Plug-In . SVG Version: 6.00 Build 0)  -->
<!DOCTYPE svg PUBLIC "-//W3C//DTD SVG 1.1//EN" "http://www.w3.org/Graphics/SVG/1.1/DTD/svg11.dtd">
<svg version="1.1" id="Capa_1" xmlns="http://www.w3.org/2000/svg" xmlns:xlink="http://www.w3.org/1999/xlink" x="0px" y="0px"
	 width="100px" height="100px" viewBox="0 0 100 100" style="enable-background:new 0 0 100 100;" xml:space="preserve">
<g>
	<path style="fill:#1D1D1B;" d="M89.501,13.072c-0.142-0.142-0.303-0.251-0.471-0.345c-0.182-0.25-0.44-0.472-0.8-0.641
		c-11.977-5.613-25.476-7.302-38.587-7.39C36.824,4.61,23.178,6.414,11.676,12.361c-1.339,0.692-1.33,2.081-0.659,3.043
		c0.034,0.419,0.182,0.845,0.489,1.242c8.198,10.599,17.259,20.588,24.135,32.141c3.307,5.556,5.72,11.523,7.335,17.774
		c2.107,8.158,1.483,16.463,1.746,24.786c0.014,0.442,0.142,0.807,0.333,1.112c0.351,1.48,2.294,2.588,3.703,1.18
		c3.276-3.276,6.562-6.541,10.095-9.544c0.052-0.045,0.087-0.093,0.134-0.139c0.029-0.024,0.051-0.056,0.079-0.082
		c0.045-0.049,0.1-0.097,0.139-0.148c0.289-0.342,0.476-0.796,0.477-1.372c0.003-11.644,2.564-21.998,8.182-32.197
		C74.37,38.339,82.96,27.764,90.029,16.292c0.468-0.76,0.41-1.494,0.07-2.074C90.021,13.795,89.821,13.393,89.501,13.072z
		 M17.825,14.355c9.966-4.115,21.154-5.183,31.818-5.254c10.536-0.07,21.632,1.144,31.645,4.83
		c-20.658,5.45-42.26,4.357-63.191,0.515C18.005,14.416,17.915,14.386,17.825,14.355z M55.288,81.38
		c-2.152,1.856-4.221,3.8-6.252,5.786c-0.075-4.863-0.097-9.676-0.601-14.495c2.528-0.779,5.096-1.381,7.688-1.905
		C55.6,74.242,55.33,77.782,55.288,81.38z M63.288,49.332c-2.966,5.385-5.013,10.989-6.298,16.782
		c-3.093,0.593-6.162,1.245-9.176,2.139c-0.069-0.393-0.128-0.785-0.206-1.179c-1.339-6.716-4.097-13.107-7.356-19.094
		C34.538,37.486,26.564,28.343,19.02,19.058c21.512,3.761,43.681,4.67,64.827-1.245C77.027,28.342,69.348,38.33,63.288,49.332z"/>
</g>
</svg>
