<?xml version="1.0" encoding="iso-8859-1"?>
<!-- Generator: Adobe Illustrator 17.0.2, SVG Export Plug-In . SVG Version: 6.00 Build 0)  -->
<!DOCTYPE svg PUBLIC "-//W3C//DTD SVG 1.1//EN" "http://www.w3.org/Graphics/SVG/1.1/DTD/svg11.dtd">
<svg version="1.1" id="Capa_1" xmlns="http://www.w3.org/2000/svg" xmlns:xlink="http://www.w3.org/1999/xlink" x="0px" y="0px"
	 width="100px" height="100px" viewBox="0 0 100 100" style="enable-background:new 0 0 100 100;" xml:space="preserve">
<g>
	<path style="fill:#1D1D1B;" d="M68.311,73.82c2.054-0.228,3.207-1.789,3.452-3.415c0.126-0.37,0.215-0.771,0.216-1.231
		c0.072-19.09,1.42-38.138,1.956-57.215c0.001-0.043-0.008-0.079-0.008-0.121c0.986-2.126-0.067-5.355-3.17-5.503
		C51.207,5.404,31.641,5.358,12.073,5.357c-2.574,0-3.736,2.172-3.508,4.153c-0.087,0.303-0.149,0.624-0.16,0.982
		c-0.56,19.625-2.449,39.156-4.401,58.682c-0.245,2.455,1.635,3.604,3.555,3.493c0.334,0.1,0.689,0.172,1.091,0.175
		C28.562,72.997,48.422,76.027,68.311,73.82z M11.699,65.555c1.746-17.589,3.369-35.186,3.962-52.857
		c16.967,0.008,33.933,0.115,50.887,0.816c-0.539,17.777-1.718,35.53-1.878,53.317C47.014,68.249,29.375,65.934,11.699,65.555z"/>
	<path style="fill:#1D1D1B;" d="M90.586,25.272l-0.104-0.014c-0.122-0.017-0.243-0.032-0.375-0.032H79.727
		c-2.389,0-3.638,1.884-3.638,3.744c0,1.861,1.25,3.744,3.638,3.744h6.917c-2.881,19.312-4.333,35.553-4.561,51.02
		c-8.846,0.281-18.328,0.407-30.652,0.407c-5.276,0-10.553-0.022-15.83-0.044c-3.542-0.016-7.083-0.03-10.624-0.038
		c-0.086-1.249-0.235-2.306-0.461-3.293c-0.366-1.602-1.904-2.765-3.656-2.765c-0.327,0-0.647,0.043-0.955,0.127
		c-1.967,0.542-3.094,2.513-2.62,4.585c0.312,1.364,0.309,2.986,0.305,4.555l-0.001,0.527c0,1.011,0.353,1.895,0.99,2.523
		l0.205,0.207c0.662,0.662,1.543,1.013,2.549,1.013c4.883,0.004,9.767,0.025,14.649,0.047c5.377,0.023,10.753,0.048,16.13,0.048
		c13.633,0,24.023-0.163,33.688-0.527c2.368-0.089,3.521-1.952,3.603-3.666c0.083-0.33,0.122-0.63,0.123-0.939
		c0.084-17.106,1.694-35.089,5.069-56.591c0.181-1.155-0.123-2.267-0.855-3.131C92.959,25.859,91.731,25.28,90.586,25.272z"/>
</g>
</svg>
