<?xml version="1.0" encoding="iso-8859-1"?>
<!-- Generator: Adobe Illustrator 17.0.2, SVG Export Plug-In . SVG Version: 6.00 Build 0)  -->
<!DOCTYPE svg PUBLIC "-//W3C//DTD SVG 1.1//EN" "http://www.w3.org/Graphics/SVG/1.1/DTD/svg11.dtd">
<svg version="1.1" id="Capa_1" xmlns="http://www.w3.org/2000/svg" xmlns:xlink="http://www.w3.org/1999/xlink" x="0px" y="0px"
	 width="100px" height="100px" viewBox="0 0 100 100" style="enable-background:new 0 0 100 100;" xml:space="preserve">
<g>
	<path style="fill:#1D1D1B;" d="M81.002,34.33c-0.234-0.009-0.439,0.024-0.63,0.076c-8.675-0.877-17.461-1.212-26.26-1.222
		c2.605-3.458,6.842-3.917,11.072-5.392c4.829-1.683,6.863-5.543,6.315-10.543c-0.347-3.169-5.351-3.203-5,0
		c0.601,5.489-2.969,5.85-7.417,7.111c-4.648,1.317-8.529,3.817-10.492,8.378c-0.071,0.164-0.118,0.326-0.155,0.487
		c-9.554,0.131-19.1,0.589-28.516,1.105c-0.101,0.006-0.192,0.027-0.285,0.044c-0.16-0.032-0.329-0.052-0.516-0.044
		C3.865,34.947-1.758,52.976,3.754,65.87c2.537,5.936,8.008,10.712,14.505,11.537c9.866,1.253,17.696-5.053,22.077-13.361
		c6.503,0.399,13.009,0.185,19.52,0.138c4.394,8.24,12.194,14.47,22.006,13.223c6.497-0.825,11.968-5.601,14.505-11.537
		C101.879,52.976,96.257,34.947,81.002,34.33z M92.646,64.416c-2.212,4.46-6.174,8.625-11.43,9.067
		c-8.556,0.718-14.671-4.822-18.314-12.122c-0.176-0.352-0.408-0.593-0.666-0.758c-0.312-0.265-0.726-0.436-1.255-0.435
		c-7.283,0.026-14.56,0.335-21.832-0.2c-1.016-0.075-1.623,0.505-1.836,1.243c-0.031,0.051-0.066,0.093-0.094,0.15
		c-3.643,7.3-9.758,12.84-18.314,12.122c-5.256-0.441-9.218-4.606-11.43-9.067c-4.998-10.077-0.388-25.593,11.644-26.08
		c0.099-0.004,0.187-0.024,0.278-0.039c0.162,0.031,0.333,0.049,0.523,0.039c20.97-1.15,42.587-2.035,63.494,0.401
		c0.198,0.023,0.375,0.013,0.542-0.012C93.757,40.944,97.211,55.212,92.646,64.416z"/>
	<path style="fill:#1D1D1B;" d="M26.761,51.264h-3.556v-2.52c0-3.942-6.142-3.943-6.142,0v2.52h-2.935
		c-0.906,0-1.709,0.354-2.261,0.995c-0.479,0.558-0.742,1.295-0.742,2.076c0,1.526,1.031,3.071,3.003,3.071h2.935v3.142
		c0,1.972,1.545,3.003,3.071,3.003c1.526,0,3.071-1.031,3.071-3.003v-3.142h3.556c1.972,0,3.003-1.545,3.003-3.071
		S28.733,51.264,26.761,51.264z"/>
	<path style="fill:#1D1D1B;" d="M80.189,44.637c-0.906,0-1.709,0.354-2.261,0.995c-0.479,0.557-0.742,1.294-0.742,2.076
		c0,1.526,1.031,3.071,3.003,3.071c0.906,0,1.709-0.354,2.261-0.995c0.479-0.557,0.742-1.294,0.742-2.076
		C83.192,46.182,82.161,44.637,80.189,44.637z"/>
	<path style="fill:#1D1D1B;" d="M72.941,53.335c-0.906,0-1.709,0.354-2.26,0.995c-0.479,0.557-0.743,1.294-0.743,2.075
		c0,1.526,1.031,3.071,3.003,3.071c0.906,0,1.709-0.354,2.26-0.995c0.479-0.557,0.743-1.294,0.743-2.076
		C75.945,54.88,74.913,53.335,72.941,53.335z"/>
	<path style="fill:#1D1D1B;" d="M86.402,52.507c-0.906,0-1.709,0.354-2.26,0.995c-0.479,0.557-0.743,1.294-0.743,2.075
		c0,1.526,1.031,3.071,3.003,3.071c0.906,0,1.709-0.354,2.26-0.995c0.479-0.557,0.743-1.294,0.743-2.076
		C89.405,54.052,88.374,52.507,86.402,52.507z"/>
	<path style="fill:#1D1D1B;" d="M79.982,59.341c-0.906,0-1.709,0.354-2.26,0.995c-0.479,0.557-0.743,1.294-0.743,2.075
		c0,1.526,1.031,3.071,3.003,3.071c0.906,0,1.709-0.354,2.26-0.995c0.479-0.557,0.743-1.294,0.743-2.076
		C82.985,60.886,81.954,59.341,79.982,59.341z"/>
	<path style="fill:#1D1D1B;" d="M46.435,47.744h-4.763c-1.971,0-3.003,1.545-3.003,3.071c0,1.526,1.031,3.071,3.003,3.071h4.763
		c1.971,0,3.003-1.545,3.003-3.071C49.438,49.289,48.406,47.744,46.435,47.744z"/>
	<path style="fill:#1D1D1B;" d="M60.516,47.744h-5.177c-1.972,0-3.003,1.545-3.003,3.071c0,1.526,1.031,3.071,3.003,3.071h5.177
		c1.972,0,3.003-1.545,3.003-3.071C63.519,49.289,62.488,47.744,60.516,47.744z"/>
</g>
</svg>
