<?xml version="1.0" encoding="iso-8859-1"?>
<!-- Generator: Adobe Illustrator 17.0.2, SVG Export Plug-In . SVG Version: 6.00 Build 0)  -->
<!DOCTYPE svg PUBLIC "-//W3C//DTD SVG 1.1//EN" "http://www.w3.org/Graphics/SVG/1.1/DTD/svg11.dtd">
<svg version="1.1" id="Capa_1" xmlns="http://www.w3.org/2000/svg" xmlns:xlink="http://www.w3.org/1999/xlink" x="0px" y="0px"
	 width="100px" height="100px" viewBox="0 0 100 100" style="enable-background:new 0 0 100 100;" xml:space="preserve">
<g>
	<path style="fill:#1E1E1C;" d="M81.932,28.855c-0.181-5.491-0.282-12.909-0.228-18.404c0.002-0.245-0.037-0.461-0.093-0.664
		c0.107-1.197-0.596-2.461-2.129-2.421c-19.354,0.508-38.704-0.25-58.059-0.28c-1.61-0.003-2.315,1.412-2.117,2.654
		c-0.064,0.216-0.109,0.448-0.106,0.712c0.292,23.095,1.086,56.279,1.111,79.377c0,0.518,0.147,0.939,0.382,1.272
		c0.142,0.979,0.846,1.845,2.119,1.813c8.365-0.208,16.735-0.342,25.093-0.752c7.45-0.365,16.734,0.124,23.855-2.307
		c2.521-0.861,4.777-2.134,6.71-3.977c3.535-3.369,4.741-7.892,5.046-12.658c0.292-4.577-0.247-9.379-0.354-13.597
		C82.887,48.728,82.29,39.748,81.932,28.855z M69.686,70.049c-1.362,0.008-2.679,1.071-2.069,2.705
		c1.224,3.286,1.784,7.366-0.099,10.509c-2.276,3.801-6.339,3.698-10.2,4.185c-2.361,0.298-4.872,0.14-7.253,0.207
		c-1.853,0.052-25.314,0.624-25.314,0.716c-0.055-22.233-0.79-54.553-1.087-76.784c17.869,0.077,35.733,0.691,53.601,0.309
		c-0.067,18.253,1.551,44.639,1.646,59.065c-2.772-0.875-5.637-1.244-8.596-1.046C70.084,69.929,69.879,69.982,69.686,70.049z
		 M71.431,85.245c1.795-3.058,2.242-6.81,1.31-10.877c2.161,0.084,4.291,0.501,6.31,1.356c0.009,0.025,0.015,0.052,0.023,0.077
		C78.419,80.62,75.37,83.577,71.431,85.245z"/>
	<path style="fill:#1E1E1C;" d="M35.286,46.226c0.019-0.098,0.029-0.196,0.05-0.294c0.083-0.39,0.067-0.78-0.021-1.144
		c0.476-3.628,2.428-6.795,6.686-7.037c2.885-0.164,2.9-4.665,0-4.5c-7.43,0.424-11.377,6.511-11.313,13.394
		c-0.138,1.121-0.184,2.249-0.115,3.382c-0.176,2.885,0.374,5.654,2.317,8.023c2.408,2.937,6.625,3.101,10.043,2.454
		c0.235-0.045,0.433-0.123,0.614-0.214c0.413-0.162,0.79-0.473,1.063-0.987c1.761-3.301,2.098-6.702-0.27-9.762
		C42.33,46.943,38.493,46.215,35.286,46.226z M41.089,56.266c-1.844,0.25-3.677,0.039-5.019-1.398
		c-0.884-0.947-1.129-2.367-1.112-3.744c0.05-0.13,0.087-0.264,0.106-0.404c1.896-0.026,3.747,0.245,5.384,1.304
		C41.991,53.023,41.711,54.803,41.089,56.266z"/>
	<path style="fill:#1E1E1C;" d="M54.75,35.5c0.107-2.903-4.393-2.893-4.5,0c-0.272,7.333,0.118,14.665,0,22
		c-0.047,2.903,4.453,2.899,4.5,0C54.868,50.165,54.478,42.833,54.75,35.5z"/>
	<path style="fill:#1E1E1C;" d="M70.765,32.33c-2.483-0.351-4.93-0.412-7.432-0.247c-1.265,0.083-1.977,0.999-2.133,1.983
		c-0.06,0.186-0.104,0.382-0.117,0.601c-0.456,7.606-0.344,15.218-0.333,22.833c0.004,2.902,4.504,2.902,4.5,0
		c-0.004-3.028-0.017-6.056-0.006-9.083h2.423c2.901,0,2.901-4.5,0-4.5h-2.378c0.038-2.477,0.096-4.954,0.216-7.431
		c1.359-0.035,2.722-0.006,4.063,0.184c1.214,0.172,2.412-0.277,2.768-1.571C72.63,34.032,71.981,32.502,70.765,32.33z"/>
</g>
</svg>
