<?xml version="1.0" encoding="iso-8859-1"?>
<!-- Generator: Adobe Illustrator 17.0.2, SVG Export Plug-In . SVG Version: 6.00 Build 0)  -->
<!DOCTYPE svg PUBLIC "-//W3C//DTD SVG 1.1//EN" "http://www.w3.org/Graphics/SVG/1.1/DTD/svg11.dtd">
<svg version="1.1" id="Capa_1" xmlns="http://www.w3.org/2000/svg" xmlns:xlink="http://www.w3.org/1999/xlink" x="0px" y="0px"
	 width="100px" height="100px" viewBox="0 0 100 100" style="enable-background:new 0 0 100 100;" xml:space="preserve">
<g>
	<path style="fill:#1D1D1B;" d="M70.736,5.868C63.785,4.606,56.27,3.967,48.4,3.967c-3.791,0-7.668,0.151-11.525,0.448l-0.133,0.01
		C29.391,4.99,9.865,6.49,9.855,17.867c-0.001,0.952,0.106,1.967,0.362,3.004c0.762,20.389,6.497,49.859,13.407,68.393
		c0.022,0.06,0.056,0.107,0.081,0.165c0.215,1.134,0.952,2.167,2.364,2.613c16.616,5.245,34.683,3.551,51.528,0.333
		c0.828-0.158,1.434-0.523,1.846-1.004c0.549-0.395,1-0.978,1.265-1.773c6.495-19.544,9.044-50.836,9.455-71.425
		c0.001-0.078,0.012-0.155,0.011-0.233C90.074,10.859,79.549,7.467,70.736,5.868z M37.354,12.401l0.134-0.01
		c3.654-0.282,7.325-0.424,10.911-0.424c7.392,0,14.427,0.597,20.908,1.772c6.633,1.204,11.245,3.162,12.621,4.369
		c-0.113,0.125-0.266,0.278-0.471,0.458c-5.27,4.618-16.733,7.266-31.456,7.266c-0.553,0-1.213,0.007-1.964,0.014
		c-0.954,0.01-2.058,0.021-3.271,0.021c-0.014,0-0.028,0-0.043,0c-2.97,0-11.821-0.008-18.555-1.718
		c-5.519-1.401-8.315-3.513-8.313-6.275C17.855,17.833,18.389,13.859,37.354,12.401z M74.563,85.841
		c-14.658,2.719-30.267,4.061-44.768-0.011c-5.52-14.962-10.288-37.921-11.993-56.282c1.752,0.902,3.847,1.708,6.397,2.355
		c6.934,1.761,15.059,1.964,20.567,1.964c1.244,0,2.375-0.011,3.352-0.021c0.72-0.007,1.353-0.014,1.887-0.014
		c8.536,0,23.166-0.918,32.854-6.512C82.008,46.068,79.559,70.149,74.563,85.841z"/>
</g>
</svg>
