<?xml version="1.0" encoding="iso-8859-1"?>
<!-- Generator: Adobe Illustrator 17.0.2, SVG Export Plug-In . SVG Version: 6.00 Build 0)  -->
<!DOCTYPE svg PUBLIC "-//W3C//DTD SVG 1.1//EN" "http://www.w3.org/Graphics/SVG/1.1/DTD/svg11.dtd">
<svg version="1.1" id="Capa_1" xmlns="http://www.w3.org/2000/svg" xmlns:xlink="http://www.w3.org/1999/xlink" x="0px" y="0px"
	 width="100px" height="100px" viewBox="0 0 100 100" style="enable-background:new 0 0 100 100;" xml:space="preserve">
<g>
	<path style="fill:#1D1D1B;" d="M6.811,20.492c0.218,0.072,0.455,0.122,0.725,0.122c27.768,0.029,55.533,1.06,83.298,0.278
		c0.362-0.01,0.678-0.091,0.949-0.224c0.629-0.187,1.191-0.632,1.471-1.407c0.01-0.029,0.017-0.06,0.028-0.089
		c0.162-0.307,0.271-0.652,0.321-1.018c0.705-2.273,1.117-4.614,1.396-6.98c0.04-0.341-0.04-0.662-0.189-0.954
		c-0.247-0.824-0.924-1.512-2.032-1.545c-28.405-0.859-56.849-1.623-85.242,0C7.447,8.679,7.369,8.7,7.286,8.713
		c-0.853,0.014-1.657,0.491-1.892,1.592c-0.569,2.668-0.892,5.362-0.635,8.087C4.877,19.649,5.822,20.349,6.811,20.492z
		 M9.397,13.029c26.767-1.433,53.578-0.801,80.357-0.001c-0.129,1.151-0.263,2.301-0.398,3.451
		c-26.742,0.693-53.484-0.237-80.227-0.3C9.146,15.124,9.234,14.076,9.397,13.029z"/>
	<path style="fill:#1D1D1B;" d="M74.721,51.751c0.647-0.638,0.901-1.598,0.219-2.589c-0.099-0.144-0.21-0.276-0.311-0.419
		c-0.003-0.003-0.004-0.007-0.007-0.01c-6.659-9.499-15.572-16.625-24.912-23.364c-0.327-0.236-0.651-0.359-0.963-0.404
		c-0.609-0.425-1.406-0.5-2.216,0.116c-9.312,7.086-16.81,15.885-21.497,26.665c-0.525,1.207-0.013,2.34,0.814,2.981
		c0.503,0.496,1.21,0.802,2.067,0.68l9.351-1.336c-0.208,6.227-0.417,12.051-0.629,20.811c-0.07,0.188-0.124,0.389-0.138,0.618
		c-0.107,1.715-0.22,3.429-0.328,5.144c-0.436,1.385,0.225,3.054,2.044,2.854c7.358-0.808,14.709-1.103,22.108-0.861
		c0.27,0.009,0.506-0.032,0.727-0.094c1.216,0.095,2.482-0.632,2.432-2.203c-0.265-8.186-0.537-19.114-0.81-27.3
		c3.425-0.219,6.85-0.404,10.285-0.421C73.772,52.614,74.355,52.257,74.721,51.751z M60.324,48.598
		c-1.309,0.088-2.036,1.048-2.181,2.068c-0.078,0.24-0.126,0.502-0.116,0.803c0.265,7.936,0.527,18.615,0.785,26.551
		c-4.897-0.112-9.776,0.029-14.652,0.38c0.094-0.217,0.159-0.457,0.173-0.734c0.632-12.659,0.349-15.331,0.333-28
		c-0.001-1.269-0.971-1.911-1.955-1.931c-0.212-0.06-0.444-0.092-0.712-0.069c-2.433,0.205-4.872,0.299-7.309,0.427
		c3.802-6.566,8.615-12.337,14.39-17.346c0.038-0.033,0.063-0.07,0.098-0.104c7.059,5.17,13.852,10.663,19.309,17.493
		C65.765,48.246,63.045,48.416,60.324,48.598z"/>
</g>
</svg>
