<?xml version="1.0" encoding="utf-8"?>
<!-- Generator: Adobe Illustrator 17.0.2, SVG Export Plug-In . SVG Version: 6.00 Build 0)  -->
<!DOCTYPE svg PUBLIC "-//W3C//DTD SVG 1.1//EN" "http://www.w3.org/Graphics/SVG/1.1/DTD/svg11.dtd">
<svg version="1.1" id="Capa_1" xmlns="http://www.w3.org/2000/svg" xmlns:xlink="http://www.w3.org/1999/xlink" x="0px" y="0px"
	 width="100px" height="100px" viewBox="0 0 100 100" enable-background="new 0 0 100 100" xml:space="preserve">
<g>
	<path fill="#1D1D1B" d="M53.682,13.151c-0.242-0.054-0.471-0.069-0.692-0.065c-0.445-0.192-0.954-0.282-1.523-0.202
		c-16.53,2.334-31.862,8.802-45.654,18.116c-1.986,1.341-1.263,4.008,0.33,4.817c0.198,0.42,0.515,0.809,1.002,1.115
		c4.778,3.012,9.827,5.273,15.047,7.007c-0.07,0.342-0.116,0.696-0.117,1.082c0,0.037,0.01,0.071,0.011,0.107
		c-0.137,0.284-0.241,0.598-0.277,0.958c-0.511,5.055-0.76,10.104-0.533,15.183c0.074,1.667,1.379,2.519,2.678,2.563
		c3.077,1.528,6.257,2.74,9.493,3.66c0.283,3.828,0.557,7.656,0.814,11.485c-3.809,2.017-5.751,5.52-4.979,9.738
		c0.015,0.903,0.493,1.772,1.304,2.29c1.967,1.257,4.33,1.968,6.672,1.695c0.022-0.003,0.043-0.009,0.065-0.012
		c0.3,0.025,0.607,0.008,0.909-0.083c2.481-0.743,4.755-2.268,5.854-4.687c0.199-0.437,0.299-0.896,0.308-1.345
		c0.205-0.366,0.333-0.803,0.322-1.331c-0.043-2.058-0.688-4.066-2.245-5.48c-0.853-0.775-1.863-1.275-2.938-1.582
		c-0.214-3.152-0.436-6.304-0.667-9.455c13.12,2.343,26.836-0.054,38.627-7.022c0.572-0.338,0.928-0.784,1.117-1.27
		c0.441-0.427,0.735-1.031,0.735-1.829c0-4.531,0.02-9.06,0.267-13.585c0.015-0.282-0.01-0.539-0.063-0.774
		c0.04-0.181,0.063-0.367,0.063-0.558v-1.332c0-0.069-0.016-0.135-0.021-0.203c4.249-1.706,8.431-3.629,12.553-5.755
		c0.764-0.394,1.168-0.977,1.297-1.605c0.783-0.944,0.965-2.315-0.225-3.378C82.082,21.483,68.063,16.338,53.682,13.151z
		 M26.556,59.193c-0.086-4.355,0.136-8.693,0.573-13.034c0.105-0.216,0.183-0.446,0.225-0.689c1.51,0.398,3.034,0.746,4.564,1.073
		c0.354,5.098,0.728,10.194,1.109,15.29C30.83,61.109,28.665,60.241,26.556,59.193z M39.008,83.832
		c0.057,0.088,0.111,0.177,0.161,0.269c-0.019,0.007,0.147,0.411,0.163,0.469c0.015,0.082,0.027,0.142,0.036,0.185
		c0.012,0.162,0.021,0.325,0.021,0.488c0.001,0.047,0.013,0.086,0.016,0.132c-0.141,0.288-0.292,0.566-0.469,0.834
		c-0.023,0.026-0.044,0.05-0.079,0.091c-0.136,0.152-0.291,0.286-0.444,0.42c-0.026,0.018-0.045,0.031-0.08,0.056
		c-0.192,0.132-0.398,0.243-0.603,0.354c-0.035,0.019-0.247,0.109-0.36,0.158c-0.098,0.035-0.198,0.067-0.298,0.098
		c-0.985,0.088-1.834-0.042-2.677-0.395c-0.076-1.643,0.999-2.6,2.608-3.442c0.209-0.109,0.38-0.237,0.536-0.372
		c0.146,0.028,0.395,0.067,0.411,0.071c0.033,0.008,0.336,0.118,0.444,0.149c0.157,0.096,0.379,0.237,0.428,0.254
		C38.892,83.72,38.968,83.798,39.008,83.832z M74.284,45.021c-0.227,4.17-0.26,8.342-0.264,12.516
		c-10.888,6.186-23.552,8.237-35.557,5.76c-0.392-5.245-0.778-10.49-1.146-15.736c4.909,0.805,9.886,1.33,14.868,1.702
		c0.241,0.04,0.497,0.058,0.789,0.021c7.375-0.953,14.467-2.734,21.356-5.144c0.016,0.091,0.042,0.179,0.067,0.267
		C74.34,44.597,74.296,44.798,74.284,45.021z M52.974,43.956c-0.081,0.011-0.151,0.037-0.229,0.053
		c-0.101-0.018-0.196-0.045-0.304-0.053c-4.59-0.338-9.171-0.806-13.69-1.523c3.964-3.652,7.991-7.232,12.11-10.711
		c2.628-2.22-1.16-5.969-3.767-3.767c-4.874,4.117-9.647,8.347-14.301,12.71c-0.236,0.131-0.44,0.307-0.615,0.515
		c-7.111-1.591-13.994-3.978-20.419-7.697c12.302-7.758,25.696-13.119,40.158-15.309c0.114,0.04,0.221,0.086,0.349,0.115
		c12.383,2.744,24.643,6.88,34.654,14.788C76.177,38.379,64.924,42.411,52.974,43.956z"/>
</g>
</svg>
