<?xml version="1.0" encoding="iso-8859-1"?>
<!-- Generator: Adobe Illustrator 17.0.2, SVG Export Plug-In . SVG Version: 6.00 Build 0)  -->
<!DOCTYPE svg PUBLIC "-//W3C//DTD SVG 1.1//EN" "http://www.w3.org/Graphics/SVG/1.1/DTD/svg11.dtd">
<svg version="1.1" id="Capa_1" xmlns="http://www.w3.org/2000/svg" xmlns:xlink="http://www.w3.org/1999/xlink" x="0px" y="0px"
	 width="100px" height="100px" viewBox="0 0 100 100" style="enable-background:new 0 0 100 100;" xml:space="preserve">
<g>
	<path style="fill:#1D1D1B;" d="M96.372,58.744C92.419,46.817,88.653,29.82,84.7,17.892c-0.297-0.896-0.837-1.485-1.47-1.833
		c-0.408-1.035-1.283-1.838-2.648-1.841c-17.446-0.037-34.88-0.828-52.325-0.864c-1.507-0.003-2.424,0.968-2.764,2.157
		c-0.082,0.102-0.169,0.193-0.245,0.311C18.215,26.771,11.534,42.958,5.303,54.45c-1.184,0.526-1.748,1.841-1.689,3.136
		c-0.093,0.343-0.144,0.721-0.113,1.155c0.39,5.474,0.362,10.939,0,16.414c-0.038,0.575,0.052,1.062,0.222,1.477
		c-0.425,1.883,0.49,3.95,2.796,3.922c28.165-0.344,56.458,2.041,85.734,1.728c1.951-0.021,2.924-1.66,2.919-3.285
		c1.247-6.14,1.631-12.338,1.322-18.604C96.59,59.903,96.575,59.355,96.372,58.744z M29.98,19.853
		c16.418,0.079,32.827,0.759,49.246,0.83c3.397,10.28,6.674,25.605,10.049,35.893c-25.591-1.741-51.233-1.947-76.867-2.29
		C17.953,44.262,23.829,29.464,29.98,19.853z M89.601,75.807c-27.217,0.045-54.248-2.067-79.997-1.91
		c0.246-4.392,0.272-8.779,0.04-13.17c26.979,0.376,53.97,0.524,80.903,2.411C90.622,67.396,90.338,71.608,89.601,75.807z"/>
</g>
</svg>
