<?xml version="1.0" encoding="iso-8859-1"?>
<!-- Generator: Adobe Illustrator 17.0.2, SVG Export Plug-In . SVG Version: 6.00 Build 0)  -->
<!DOCTYPE svg PUBLIC "-//W3C//DTD SVG 1.1//EN" "http://www.w3.org/Graphics/SVG/1.1/DTD/svg11.dtd">
<svg version="1.1" id="Capa_1" xmlns="http://www.w3.org/2000/svg" xmlns:xlink="http://www.w3.org/1999/xlink" x="0px" y="0px"
	 width="100px" height="100px" viewBox="0 0 100 100" style="enable-background:new 0 0 100 100;" xml:space="preserve">
<g>
	<path style="fill:#1D1D1B;" d="M49.71,4.774C33.029,4.397,17.884,10.548,9.869,26.291C2.644,40.48,3.424,57.898,4.329,73.319
		c0.218,3.72,6.025,3.741,5.805,0c-0.053-0.899-0.103-1.8-0.152-2.702c0.227,0.054,0.468,0.089,0.732,0.089
		c2.226,0,4.446,0.034,6.663,0.218c2.851,7.686,9.228,13.472,18.881,12.264c1.354-0.169,2.21-1.071,2.569-2.116
		c0.204-0.382,0.333-0.832,0.334-1.369c0.011-7.52,0.1-15.041,0.203-22.561c0.085-6.161,2.988-16.625-6.473-17.017
		c-9.167-0.38-15.32,7.881-16.792,16.068h-4.844c-0.086-0.009-0.169-0.026-0.256-0.026H9.664c0.168-7.696,1.047-15.343,3.473-22.699
		c2.144-6.502,6.17-12.24,11.762-16.206c6.746-4.784,14.751-6.583,22.746-6.693c0.221,0.041,0.457,0.063,0.714,0.052
		c0.45-0.02,0.901-0.03,1.352-0.04c0.451,0.01,0.902,0.02,1.352,0.04c0.257,0.011,0.492-0.011,0.714-0.052
		c7.995,0.11,16,1.908,22.746,6.693c5.592,3.966,9.617,9.703,11.762,16.206c2.426,7.356,3.305,15.003,3.473,22.699h-0.424
		c-0.191,0-0.376,0.027-0.556,0.07c-0.121-0.014-0.232-0.043-0.362-0.043c0,0-5.084,0-5.094,0c0.128,0-2.267-6.824-2.593-7.412
		c-1.311-2.366-3.092-4.361-5.37-5.83c-2.963-1.911-15.399-6.249-15.389,0.761c0.018,11.998,0.273,23.995,0.29,35.993
		c0.001,0.535,0.13,0.985,0.334,1.367c0.359,1.045,1.215,1.947,2.569,2.116c9.653,1.208,16.03-4.577,18.881-12.264
		c2.217-0.184,4.437-0.217,6.663-0.218c0.264,0,0.505-0.036,0.732-0.089c-0.048,0.902-0.099,1.803-0.152,2.702
		c-0.22,3.741,5.587,3.72,5.805,0c0.905-15.421,1.685-32.839-5.539-47.028C81.537,10.548,66.392,4.397,49.71,4.774z M33.634,46.033
		c-0.04,10.466-0.225,20.932-0.265,31.398C17.684,76.09,16.74,46.376,33.634,46.033z M11,62c0.005,0,0.01-0.001,0.015-0.002h4.661
		c0.029,1.009,0.113,2.018,0.246,3.017c-1.504-0.082-3.011-0.103-4.519-0.109c-0.184-0.044-0.373-0.074-0.569-0.074H9.73
		C9.699,63.889,9.675,62.945,9.658,62H11z M66.052,77.431c-0.04-10.467-0.224-20.932-0.265-31.398
		C82.681,46.376,81.737,76.09,66.052,77.431z M89.69,64.848c-0.185,0.011-0.363,0.043-0.536,0.094
		c-0.143-0.023-0.29-0.041-0.448-0.041c-1.738,0-3.473,0.02-5.206,0.114c0.133-0.999,0.217-2.008,0.246-3.017h4.67
		c0.04,0,0.071-0.012,0.11-0.013C88.573,61.988,88.618,62,88.667,62h1.096C89.745,62.95,89.721,63.899,89.69,64.848z"/>
</g>
</svg>
