<?xml version="1.0" encoding="iso-8859-1"?>
<!-- Generator: Adobe Illustrator 17.0.2, SVG Export Plug-In . SVG Version: 6.00 Build 0)  -->
<!DOCTYPE svg PUBLIC "-//W3C//DTD SVG 1.1//EN" "http://www.w3.org/Graphics/SVG/1.1/DTD/svg11.dtd">
<svg version="1.1" id="Capa_1" xmlns="http://www.w3.org/2000/svg" xmlns:xlink="http://www.w3.org/1999/xlink" x="0px" y="0px"
	 width="100px" height="100px" viewBox="0 0 100 100" style="enable-background:new 0 0 100 100;" xml:space="preserve">
<g>
	<path style="fill:#1D1D1B;" d="M74.821,18.186c-0.946-0.119-1.903-0.18-2.847-0.18c-8.261,0-14.648,4.417-18.908,8.715
		C48.969,18.366,42.565,13,34.852,11.519c-1.199-0.23-2.438-0.347-3.685-0.347c-9.276,0-19.322,6.649-23.887,15.811
		c-4.605,9.244-3.104,19.331,4.466,29.979c7.621,10.721,17.132,20.049,26.33,29.07l1.896,1.861c0.721,1.367,2.092,2.234,3.572,2.235
		c0.614,0,1.221-0.147,1.803-0.438l3.325-1.652c11.541-5.729,23.475-11.652,34.043-19.487c10.495-7.78,15.048-16.905,13.531-27.122
		C94.72,31.138,86.288,19.63,74.821,18.186z M88.761,47.153c-0.374,8.739-10.183,15.009-16.672,19.159
		c-8.846,5.655-18.35,10.427-27.582,15.025c-7.488-7.361-15.202-14.974-21.963-23.213c-4.886-5.954-12.27-14.952-9.919-23.379
		c2.124-7.611,9.974-15.759,18.273-15.759c0.533,0,1.069,0.035,1.593,0.103c9.6,1.253,13.782,10.795,15.211,15.181
		c-0.062,0.883,0.22,1.747,0.815,2.47c0.789,0.96,2.014,1.534,3.276,1.534c1.311,0,2.498-0.634,3.26-1.74
		c2.211-3.209,8.284-10.675,16.924-10.675c0.911,0,1.834,0.086,2.743,0.257C83.203,27.703,89.129,38.532,88.761,47.153z"/>
</g>
</svg>
