<?xml version="1.0" encoding="utf-8"?>
<!-- Generator: Adobe Illustrator 17.0.2, SVG Export Plug-In . SVG Version: 6.00 Build 0)  -->
<!DOCTYPE svg PUBLIC "-//W3C//DTD SVG 1.1//EN" "http://www.w3.org/Graphics/SVG/1.1/DTD/svg11.dtd">
<svg version="1.1" id="Capa_1" xmlns="http://www.w3.org/2000/svg" xmlns:xlink="http://www.w3.org/1999/xlink" x="0px" y="0px"
	 width="100px" height="100px" viewBox="0 0 100 100" enable-background="new 0 0 100 100" xml:space="preserve">
<g>
	<path fill="#1D1D1B" d="M91.988,14.841c-2.71,1.792-5.396,3.619-8.077,5.453c-4.081-5.323-10.268-8.367-17.146-8.024
		c-8.542,0.426-14.771,7.026-18.656,14.186c-4.626-6.675-11.506-12.529-20.015-12.042c-7.74,0.443-14.159,5.055-17.4,12.062
		c-4.214,9.111-1.545,20.117,3.992,28.059c1.709,2.452,3.61,4.709,5.642,6.831c-2.861,1.907-5.766,3.743-8.74,5.465
		c0.09-1.358,0.152-2.718,0.161-4.081c0.022-3.225-4.978-3.223-5,0c-0.019,2.759-0.251,5.504-0.5,8.25
		c-0.123,1.351,0.695,2.114,1.702,2.322c0.188,0.131,0.392,0.251,0.634,0.339c2.506,0.912,5.006,1.823,7.403,2.998
		c2.883,1.414,5.418-2.898,2.523-4.317c-1.202-0.59-2.43-1.119-3.669-1.623c3.112-1.828,6.152-3.771,9.145-5.793
		c7.851,7.159,17.065,12.924,25.148,19.817c0.777,0.662,1.665,0.763,2.441,0.525c0.62-0.021,1.249-0.262,1.78-0.824
		c10.49-11.087,23.558-20.102,31.026-33.714c4.274-7.791,5.854-17.884,2.096-26.147c2.667-1.823,5.339-3.641,8.034-5.423
		C97.188,17.389,94.686,13.057,91.988,14.841z M75.912,54.657c-6.908,9.482-16.72,16.689-24.968,25.025
		c-9.072-7.377-19.559-13.483-27.416-22.147c-6.045-6.665-11.772-16.144-9.37-25.559c1.554-6.09,6.331-12.06,13.086-12.447
		c8.706-0.499,14.744,5.961,18.709,13.018c0.661,1.176,1.792,1.422,2.783,1.115c0.881,0.024,1.754-0.393,2.209-1.455
		c3.189-7.44,8.502-14.508,17.211-14.942c4.718-0.235,8.763,2.341,11.525,5.92c-3.713,2.539-7.437,5.061-11.215,7.502
		C68.309,29.469,67.256,28.5,66,28.5c-1.363,0-2.5,1.137-2.5,2.5v3.75c0,0.495,0.153,0.958,0.41,1.35
		c0.283,0.7,0.908,1.241,1.676,1.561c-0.454-0.189,0.368,0.2,0.447,0.241c0.26,0.137,0.514,0.288,0.768,0.437
		c0.476,0.28,0.946,0.567,1.438,0.82c1.212,0.623,2.705,0.325,3.42-0.897c0.613-1.047,0.348-2.551-0.661-3.261
		c3.773-2.438,7.492-4.956,11.2-7.492c0.103,0.244,0.208,0.488,0.3,0.734C85.893,37.348,81.21,47.384,75.912,54.657z"/>
</g>
</svg>
