<?xml version="1.0" encoding="utf-8"?>
<!-- Generator: Adobe Illustrator 17.0.2, SVG Export Plug-In . SVG Version: 6.00 Build 0)  -->
<!DOCTYPE svg PUBLIC "-//W3C//DTD SVG 1.1//EN" "http://www.w3.org/Graphics/SVG/1.1/DTD/svg11.dtd">
<svg version="1.1" id="Capa_1" xmlns="http://www.w3.org/2000/svg" xmlns:xlink="http://www.w3.org/1999/xlink" x="0px" y="0px"
	 width="100px" height="100px" viewBox="0 0 100 100" enable-background="new 0 0 100 100" xml:space="preserve">
<g>
	<path fill="#1D1D1B" d="M83.893,75.953c5.126-14.445,7.275-31.815,1.896-46.407C80.078,14.055,66.506,6.453,49.48,7.499
		c-17.024-1.047-30.597,6.555-36.308,22.047C7.794,44.138,9.943,61.508,15.07,75.953c-2.338,2.195-4.747,4.319-6.957,6.633
		c-1.138,1.19-0.405,2.745,0.75,3.276c0.014,0.017,0.024,0.035,0.037,0.052c1.796,2.199,3.595,4.396,5.514,6.5
		c0.479,0.525,1.041,0.695,1.575,0.637c0.728,0.8,2.003,1.119,2.969,0.113c5.435-5.654,10.982-11.206,16.539-16.75
		c0.119-0.118,0.218-0.24,0.299-0.365c0.587-0.565,0.845-1.417,0.292-2.309c-8.696-14.044-6.554-36.798,13.393-39.358
		c19.947,2.56,22.09,25.314,13.394,39.358c-0.553,0.892-0.295,1.744,0.292,2.309c0.081,0.125,0.18,0.247,0.299,0.365
		c5.557,5.544,11.104,11.096,16.539,16.75c0.966,1.006,2.241,0.687,2.969-0.113c0.534,0.058,1.097-0.112,1.576-0.637
		c1.918-2.104,3.717-4.301,5.513-6.5c0.013-0.017,0.023-0.035,0.037-0.052c1.155-0.531,1.888-2.086,0.75-3.276
		C88.639,80.272,86.229,78.148,83.893,75.953z M81.892,89.228c-4.814-4.985-9.707-9.899-14.616-14.799
		c-0.329-0.329,3.535-9.481,3.804-10.637c0.85-3.665,1.085-7.435,0.618-11.164c-0.901-7.209-4.282-14.41-11.002-18.282
		c-4.193-2.416-9.156-4.523-13.852-3.536c-20.294,4.262-24.257,27.368-15.157,43.62c-4.909,4.901-9.802,9.815-14.616,14.799
		c-1.556-1.726-3.038-3.509-4.507-5.302c1.914-1.878,3.922-3.666,5.87-5.512c0.112-0.107,0.206-0.218,0.286-0.331
		c0.703-0.397,1.138-1.142,0.779-2.115c-4.851-13.15-6.79-27.906-3.422-41.593c1.737-7.062,5.791-13.967,12.271-18.027
		c13.523-8.473,38.475-7.405,48.576,5.583c2.738,3.521,4.911,8.176,5.961,12.444c3.368,13.688,1.429,28.443-3.422,41.594
		c-0.358,0.973,0.076,1.718,0.779,2.115c0.08,0.113,0.174,0.224,0.286,0.331c1.948,1.846,3.956,3.634,5.87,5.512
		C84.93,85.72,83.447,87.502,81.892,89.228z"/>
	<path fill="#1D1D1B" d="M49.736,14.616c-0.456,0-0.911,0.037-1.357,0.108c-0.684-0.531-1.645-0.509-2.288,0.099
		c-2.611,2.464-3.321,5.78-1.807,8.447c0.961,1.693,2.787,2.664,5.01,2.664c1.138,0,2.298-0.249,3.355-0.718
		c1.843-0.819,3.178-2.183,3.661-3.743c0.391-1.262,0.196-2.582-0.564-3.817C54.576,15.752,52.329,14.616,49.736,14.616z
		 M53.006,20.352c-0.166,0.734-1.209,1.441-2.108,1.787c-0.516,0.199-1.047,0.304-1.536,0.304c-0.683,0-1.611-0.204-2.164-1.177
		c-0.537-0.946-0.124-1.994,0.389-2.774c0.181,0,0.364-0.031,0.546-0.09c1.714-0.564,3.39-0.225,4.496,0.94
		C52.957,19.688,53.081,20.018,53.006,20.352z"/>
	<path fill="#1D1D1B" d="M29.736,22.616c-0.456,0-0.911,0.037-1.357,0.108c-0.684-0.531-1.646-0.509-2.288,0.099
		c-2.611,2.464-3.321,5.78-1.807,8.447c0.961,1.693,2.787,2.664,5.01,2.664c1.138,0,2.298-0.249,3.355-0.718
		c1.843-0.819,3.178-2.183,3.661-3.743c0.391-1.262,0.196-2.582-0.564-3.817C34.576,23.752,32.329,22.616,29.736,22.616z
		 M33.006,28.352c-0.166,0.734-1.209,1.441-2.108,1.787c-0.516,0.199-1.047,0.304-1.536,0.304c-0.683,0-1.611-0.204-2.164-1.177
		c-0.537-0.946-0.124-1.994,0.389-2.774c0.181,0,0.364-0.031,0.546-0.09c1.715-0.564,3.389-0.225,4.496,0.94
		C32.957,27.688,33.081,28.018,33.006,28.352z"/>
	<path fill="#1D1D1B" d="M21.819,39.212c-0.296,0-0.593,0.022-0.884,0.065c-0.522-0.367-1.234-0.332-1.71,0.119
		c-1.837,1.733-2.332,4.07-1.262,5.955c0.685,1.206,1.979,1.897,3.555,1.897c0.798,0,1.611-0.174,2.353-0.503
		c1.299-0.578,2.241-1.543,2.584-2.651c0.28-0.905,0.142-1.851-0.401-2.733C25.227,40.015,23.644,39.212,21.819,39.212z
		 M23.895,43.247c-0.095,0.419-0.761,0.883-1.34,1.105c-0.333,0.128-0.676,0.196-0.99,0.196c-0.615,0-1.065-0.243-1.338-0.721
		c-0.312-0.551-0.086-1.174,0.217-1.659c0.11-0.008,0.222-0.03,0.333-0.066c1.113-0.366,2.188-0.149,2.9,0.599
		C23.923,42.962,23.919,43.138,23.895,43.247z"/>
	<path fill="#1D1D1B" d="M81.436,44.09c0.279-0.902,0.142-1.843-0.399-2.722c-0.823-1.34-2.399-2.14-4.216-2.14
		c-0.295,0-0.589,0.022-0.879,0.065c-0.523-0.367-1.23-0.327-1.704,0.119c-1.828,1.726-2.321,4.052-1.256,5.928
		c0.682,1.2,1.972,1.889,3.539,1.889c0.795,0,1.604-0.173,2.343-0.501C80.156,46.154,81.094,45.193,81.436,44.09z M78.883,43.247
		c-0.094,0.416-0.756,0.876-1.331,1.098c-0.331,0.128-0.672,0.195-0.984,0.195c-0.612,0-1.06-0.241-1.33-0.717
		c-0.31-0.547-0.086-1.165,0.215-1.646c0.11-0.008,0.221-0.03,0.331-0.066c1.106-0.365,2.176-0.148,2.884,0.596
		C78.911,42.964,78.907,43.138,78.883,43.247z"/>
	<path fill="#1D1D1B" d="M75.311,29.473c0.391-1.262,0.196-2.582-0.564-3.817c-1.17-1.904-3.417-3.041-6.01-3.041
		c-0.456,0-0.911,0.037-1.357,0.108c-0.684-0.531-1.646-0.509-2.288,0.099c-2.611,2.464-3.321,5.78-1.807,8.447
		c0.961,1.693,2.787,2.664,5.01,2.664c1.138,0,2.298-0.249,3.355-0.718C73.492,32.397,74.827,31.033,75.311,29.473z M72.006,28.352
		c-0.166,0.734-1.209,1.441-2.108,1.787c-0.516,0.199-1.047,0.304-1.536,0.304c-0.683,0-1.611-0.204-2.164-1.177
		c-0.537-0.946-0.124-1.994,0.389-2.774c0.181,0,0.364-0.031,0.546-0.09c1.715-0.564,3.39-0.225,4.496,0.94
		C71.957,27.688,72.081,28.018,72.006,28.352z"/>
</g>
</svg>
