<?xml version="1.0" encoding="iso-8859-1"?>
<!-- Generator: Adobe Illustrator 17.0.2, SVG Export Plug-In . SVG Version: 6.00 Build 0)  -->
<!DOCTYPE svg PUBLIC "-//W3C//DTD SVG 1.1//EN" "http://www.w3.org/Graphics/SVG/1.1/DTD/svg11.dtd">
<svg version="1.1" id="Capa_1" xmlns="http://www.w3.org/2000/svg" xmlns:xlink="http://www.w3.org/1999/xlink" x="0px" y="0px"
	 width="100px" height="100px" viewBox="0 0 100 100" style="enable-background:new 0 0 100 100;" xml:space="preserve">
<g>
	<path style="fill:#1D1D1B;" d="M94.54,87.399c-2.058,0.005-4.115,0.026-6.172,0.056c-1.377-16.264-2.298-32.559-3.173-48.857
		c0.212-0.508,0.275-1.092,0.167-1.677c-0.159-0.861-0.202-1.774-0.214-2.687c1.762,0.051,3.525,0.126,5.29,0.234
		c1.473,0.09,2.258-0.911,2.378-2.038c0.36-0.803,0.273-1.759-0.615-2.53c-2.935-2.546-6.013-4.876-9.192-7.048
		c0.01-0.085,0.025-0.167,0.025-0.259c-0.018-4.967-0.223-9.931-0.24-14.898c-0.004-1.256-0.993-1.873-1.967-1.856
		c-0.136-0.035-0.281-0.058-0.436-0.066c-4.402-0.225-8.808-0.24-13.216-0.24c-1.23,0-1.849,0.947-1.858,1.901
		c-0.038,0.155-0.065,0.32-0.065,0.502c0,1.555-0.018,3.107-0.077,4.658c-4.898-2.41-9.9-4.632-14.924-6.766
		c-0.935-0.397-1.828-0.225-2.518,0.229c-0.398,0.008-0.817,0.119-1.245,0.394C32.652,15.36,19.804,25.641,6.598,35.431
		c-2.339,1.734-0.447,5.503,1.876,4.645c0.002,0,0.003,0,0.006,0c1.041-0.065,2.081-0.146,3.121-0.221
		c1.09,16.553,0.211,33.163,1.424,49.708c-1.28-0.015-2.561-0.029-3.841-0.057c-3.4-0.074-3.393,5.195,0,5.269
		c12.923,0.281,25.831-0.115,38.738-0.635c12.16-0.252,24.316-0.711,36.465-1.346c3.384-0.071,6.769-0.118,10.155-0.126
		C97.938,92.66,97.938,87.391,94.54,87.399z M69.08,9.38c3.297,0.006,6.594,0.042,9.888,0.178c0.042,3.593,0.146,7.184,0.193,10.776
		c-3.33-2.09-6.752-4.033-10.245-5.85C69.032,12.784,69.066,11.083,69.08,9.38z M49.002,88.827
		c-4.094,0.167-8.188,0.323-12.284,0.45c-0.287-3.007-0.435-6.013-0.508-9.019c0.343,0.201,0.753,0.33,1.25,0.33
		c3.216,0,3.216-4.986,0-4.986c-0.514,0-0.938,0.138-1.287,0.352c0.02-2.922,0.103-5.845,0.288-8.772
		c3.633-2.395,7.652-2.977,11.729-1.284C48.932,73.528,49.209,81.161,49.002,88.827z M53.99,88.62
		c0.21-8.104-0.098-16.17-0.948-24.237C53,63.98,52.88,63.629,52.707,63.328c-0.137-0.557-0.513-1.068-1.211-1.409
		c-6.185-3.02-12.849-2.608-18.41,1.558c-0.257,0.192-0.449,0.414-0.608,0.647c-0.511,0.4-0.881,1.005-0.938,1.818
		c-0.553,7.822-0.552,15.613,0.199,23.414c-4.581,0.022-9.163,0.018-13.744-0.027c-1.189-16.498-0.319-33.058-1.413-49.563
		c-0.007-0.107-0.032-0.202-0.05-0.302c21.222-1.836,42.346-5.335,63.648-5.304c0.022,0.788,0.059,1.575,0.138,2.359
		c-0.123,0.304-0.186,0.659-0.164,1.066c0.116,2.165,0.237,4.329,0.356,6.494c-0.59-1.718-1.661-3.312-3.15-4.556
		c-6.836-5.709-18.795-2.144-18.335,7.628c0.117,2.481,1.195,6.43,2.935,8.297c4.732,5.075,12.666,2.056,16.677-2.259
		c1.117-1.202,1.814-2.577,2.152-4.005c0.718,12.798,1.519,25.591,2.602,38.365C73.586,87.768,63.789,88.205,53.99,88.62z
		 M75.642,48.801c-0.054,0.117-0.108,0.233-0.173,0.349c-0.732,1.303-2.018,2.407-3.49,3.103v-3.376
		C73.199,48.839,74.42,48.814,75.642,48.801z M71.979,45.031v-2.847c0.477,0.15,0.955,0.35,1.428,0.613
		c0.948,0.528,1.682,1.288,2.134,2.16C74.353,44.971,73.166,44.996,71.979,45.031z M64.717,45.328
		c0.049-0.097,0.097-0.195,0.149-0.289c0.79-1.421,1.943-2.382,3.268-2.847v2.979C66.995,45.221,65.856,45.273,64.717,45.328z
		 M68.134,49.016v3.982c-0.805-0.074-1.58-0.303-2.27-0.737c-1.187-0.745-1.758-1.851-1.91-3.052
		C65.348,49.141,66.74,49.077,68.134,49.016z M16.079,34.516c10.806-8.157,21.531-16.423,32.924-23.761
		c0.025-0.016,0.042-0.036,0.066-0.052c11.965,5.117,23.903,10.73,34.355,18.517C60.87,28.792,38.53,32.599,16.079,34.516z"/>
</g>
</svg>
