<?xml version="1.0" encoding="iso-8859-1"?>
<!-- Generator: Adobe Illustrator 17.0.2, SVG Export Plug-In . SVG Version: 6.00 Build 0)  -->
<!DOCTYPE svg PUBLIC "-//W3C//DTD SVG 1.1//EN" "http://www.w3.org/Graphics/SVG/1.1/DTD/svg11.dtd">
<svg version="1.1" id="Capa_1" xmlns="http://www.w3.org/2000/svg" xmlns:xlink="http://www.w3.org/1999/xlink" x="0px" y="0px"
	 width="100px" height="100px" viewBox="0 0 100 100" style="enable-background:new 0 0 100 100;" xml:space="preserve">
<g>
	<path style="fill:#1E1E1C;" d="M84.133,28.855c-0.181-5.491-0.282-12.909-0.228-18.404c0.002-0.245-0.037-0.461-0.093-0.664
		c0.107-1.197-0.596-2.461-2.129-2.421c-19.354,0.508-38.704-0.25-58.059-0.28c-1.61-0.003-2.315,1.412-2.116,2.654
		c-0.065,0.216-0.109,0.448-0.106,0.712c0.292,23.095,1.086,56.279,1.111,79.377c0,0.518,0.147,0.939,0.382,1.272
		c0.142,0.979,0.846,1.845,2.118,1.813c8.366-0.208,16.735-0.342,25.094-0.752c7.45-0.365,16.734,0.124,23.855-2.307
		c2.521-0.861,4.777-2.134,6.71-3.977c3.535-3.369,4.741-7.892,5.045-12.658c0.292-4.577-0.247-9.379-0.354-13.597
		C85.088,48.728,84.491,39.748,84.133,28.855z M71.887,70.049c-1.362,0.008-2.678,1.071-2.07,2.705
		c1.224,3.286,1.784,7.366-0.098,10.509c-2.276,3.801-6.338,3.698-10.2,4.185c-2.361,0.298-4.872,0.14-7.253,0.207
		c-1.853,0.052-25.314,0.624-25.314,0.716c-0.055-22.233-0.79-54.553-1.087-76.784c17.869,0.077,35.733,0.691,53.601,0.309
		c-0.067,18.253,1.551,44.639,1.646,59.065c-2.772-0.875-5.637-1.244-8.595-1.046C72.285,69.929,72.08,69.982,71.887,70.049z
		 M73.632,85.245c1.795-3.058,2.243-6.81,1.31-10.877c2.161,0.084,4.292,0.501,6.309,1.356c0.009,0.025,0.015,0.052,0.024,0.077
		C80.62,80.62,77.571,83.577,73.632,85.245z"/>
	<path style="fill:#1E1E1C;" d="M37.6,39.142c-0.068,2.266-0.125,4.531-0.151,6.795c-0.92-0.008-1.838-0.041-2.755-0.115
		c-0.157-2.207-0.393-4.41-0.695-6.615c-0.377-2.752-4.544-1.576-4.169,1.15c0.586,4.274,0.842,8.566,0.724,12.879
		c-0.077,2.79,4.248,2.783,4.324,0c0.028-1.029,0.024-2.054,0.007-3.078c0.855,0.063,1.712,0.095,2.569,0.103
		c0.023,1.472,0.065,2.944,0.146,4.416c0.154,2.773,4.479,2.788,4.325,0c-0.287-5.179-0.156-10.355,0-15.536
		C42.009,36.352,37.684,36.36,37.6,39.142z"/>
	<path style="fill:#1E1E1C;" d="M51.134,36.98c-2.14,0.142-4.271-0.007-6.406-0.16c-2.785-0.199-2.765,4.127,0,4.325
		c0.175,0.013,0.35,0.024,0.525,0.036c0.31,4.226,0.354,8.458,0.355,12.697c0,2.789,4.325,2.789,4.325,0
		c-0.001-4.18-0.044-8.352-0.342-12.519c0.514-0.004,1.028-0.02,1.543-0.054C53.902,41.121,53.92,36.796,51.134,36.98z"/>
	<path style="fill:#1E1E1C;" d="M65.515,36.757c-0.726-0.065-1.482,0.201-1.993,0.974c-0.817,1.238-1.581,2.509-2.33,3.788
		c-1.103-1.284-2.205-2.568-3.244-3.906c-0.724-0.933-2.303-0.755-3.058,0c-0.357,0.357-0.54,0.76-0.594,1.175
		c-0.03,0.16-0.045,0.33-0.04,0.514c0.15,4.697,0.174,9.397,0.32,14.095c0.086,2.782,4.411,2.79,4.324,0
		c-0.084-2.712-0.133-5.425-0.183-8.138c0.38,0.445,0.761,0.89,1.137,1.338c0.217,0.26,0.501,0.425,0.809,0.524
		c0.917,0.452,2.094,0.343,2.748-0.801c0.234-0.41,0.473-0.816,0.708-1.225c0.183,2.767,0.363,5.535,0.547,8.302
		c0.185,2.767,4.51,2.785,4.325,0c-0.324-4.858-0.647-9.716-0.961-14.575C67.937,37.343,66.658,36.657,65.515,36.757z"/>
	<path style="fill:#1E1E1C;" d="M79.083,52.436c0-1.076-0.989-2.298-2.162-2.162c-0.72,0.083-1.444,0.131-2.167,0.181
		c-0.281-3.886-0.604-7.767-1.117-11.632c-0.361-2.723-4.69-2.758-4.325,0c0.615,4.628,0.959,9.278,1.282,13.934
		c0.072,1.039,0.727,1.69,1.507,1.951c0.296,0.161,0.625,0.252,0.976,0.211c1.278-0.148,2.566-0.172,3.844-0.32
		C78.092,54.463,79.083,53.717,79.083,52.436z"/>
</g>
</svg>
