<?xml version="1.0" encoding="utf-8"?>
<!-- Generator: Adobe Illustrator 17.0.2, SVG Export Plug-In . SVG Version: 6.00 Build 0)  -->
<!DOCTYPE svg PUBLIC "-//W3C//DTD SVG 1.1//EN" "http://www.w3.org/Graphics/SVG/1.1/DTD/svg11.dtd">
<svg version="1.1" id="Capa_1" xmlns="http://www.w3.org/2000/svg" xmlns:xlink="http://www.w3.org/1999/xlink" x="0px" y="0px"
	 width="100px" height="100px" viewBox="0 0 100 100" enable-background="new 0 0 100 100" xml:space="preserve">
<g>
	<path fill="#1D1D1B" d="M68.934,27.268c1.29-4.664,1.05-9.69-1.174-14.542c-2.865-6.248-9.684-9.21-16.171-9.677
		c-12.642-0.909-23.04,7.904-23.77,19.277c-10.143,1.685-17.843,9.742-13.31,20.565c2.594,6.192,7.578,9.456,13.153,10.226
		c0.03,0.171,0.079,0.349,0.154,0.534c5.622,13.899,11.196,27.835,18.366,41.028c0.306,0.562,0.726,0.898,1.186,1.067
		c1.049,1.079,2.884,1.311,3.653-0.42c5.916-13.319,9.813-27.322,13.893-41.275c6.663,0.29,13.329-2.285,14.504-9.825
		C80.599,36.634,75.285,30.489,68.934,27.268z M38.823,65.794c-0.316-0.165-0.626-0.249-0.926-0.28
		c-1.721-4.112-3.412-8.238-5.084-12.372c0.601-0.073,1.201-0.179,1.802-0.303c0.118,0.316,0.315,0.625,0.621,0.911
		c3.185,2.978,6.49,5.813,9.886,8.533c-1.199,1.624-2.404,3.244-3.608,4.864C40.614,66.701,39.713,66.26,38.823,65.794z
		 M43.938,79.326c-0.708-1.525-1.407-3.054-2.091-4.59c0.036-0.042,0.077-0.074,0.112-0.12c0.351-0.461,0.695-0.928,1.044-1.391
		c1.122,0.518,2.249,1.029,3.383,1.52C45.558,76.265,44.737,77.79,43.938,79.326z M48.556,88.777
		c-0.729-1.406-1.437-2.823-2.135-4.244c0.275-0.198,0.522-0.474,0.714-0.857c1.198-2.381,2.469-4.723,3.755-7.058
		c0.623,0.248,1.249,0.489,1.875,0.731C51.47,81.197,50.093,85.015,48.556,88.777z M54.271,72.751
		c-0.937-0.36-1.876-0.717-2.804-1.095c-0.442-0.389-1.007-0.633-1.582-0.672c-1.315-0.554-2.623-1.125-3.922-1.716
		c0.99-1.337,1.978-2.677,2.966-4.016c1.832,1.391,3.683,2.758,5.565,4.086c0.252,0.178,0.5,0.282,0.745,0.352
		C54.923,70.713,54.596,71.732,54.271,72.751z M63.858,49.147c-0.238-0.068-0.484-0.099-0.732-0.103
		c-0.295-0.047-0.572-0.043-0.831-0.002c-1.499-0.584-2.939-1.296-4.381-2.016c-1.183-0.591-2.62-0.325-3.32,0.871
		c-0.635,1.084-0.312,2.729,0.871,3.32c1.512,0.756,3.032,1.499,4.594,2.142c-1.125,3.863-2.239,7.732-3.386,11.59
		c-1.645-1.165-3.263-2.363-4.864-3.582c0.812-1.088,1.623-2.175,2.445-3.255c1.897-2.492-2.322-4.905-4.191-2.45
		c-0.691,0.908-1.372,1.823-2.055,2.736c-2.865-2.309-5.657-4.709-8.37-7.206c0.823-0.376,1.633-0.797,2.42-1.271
		c2.679-1.61,0.24-5.808-2.45-4.191c-7.29,4.383-16.095,4.032-20.378-4.103c-3.981-7.561,1.823-13.212,8.856-14.479
		c0.22,1.268,0.552,2.553,1.023,3.849c1.061,2.918,5.752,1.658,4.68-1.29C29.555,18.056,37.46,8.6,49.362,7.891
		c4.867-0.29,10.087,1.326,13.074,5.364c5.649,7.638,1.239,17.688-5.198,23.148c-2.39,2.028,1.061,5.444,3.432,3.432
		c2.737-2.321,4.94-5.088,6.497-8.107c4.289,2.186,7.632,6.094,7.542,11.143C74.606,48.627,68.43,49.732,63.858,49.147z"/>
</g>
</svg>
