<?xml version="1.0" encoding="iso-8859-1"?>
<!-- Generator: Adobe Illustrator 17.0.2, SVG Export Plug-In . SVG Version: 6.00 Build 0)  -->
<!DOCTYPE svg PUBLIC "-//W3C//DTD SVG 1.1//EN" "http://www.w3.org/Graphics/SVG/1.1/DTD/svg11.dtd">
<svg version="1.1" id="Capa_1" xmlns="http://www.w3.org/2000/svg" xmlns:xlink="http://www.w3.org/1999/xlink" x="0px" y="0px"
	 width="100px" height="100px" viewBox="0 0 100 100" style="enable-background:new 0 0 100 100;" xml:space="preserve">
<g>
	<path style="fill:#1E1E1C;" d="M97.348,16.632c0.001-2.147-2.098-2.935-3.648-2.37c-26.044,0.045-57.145,1.025-83.091,1.052
		c-0.095,0-0.178,0.019-0.267,0.027c-0.087-0.009-0.171-0.027-0.26-0.027c-1.3,0.001-2.592,0.064-3.865,0.358
		c-0.146,0.034-0.281,0.088-0.413,0.147c-0.025,0.008-0.05,0.018-0.075,0.027c-0.004,0.002-0.008,0.003-0.012,0.005
		c-0.913,0.332-1.655,1.117-1.7,2.363C3.384,35.871,3.49,53.541,3.49,71.207c0,2.398,2.616,3.097,4.162,2.113
		c28.98,0.043,58.122,1.904,87.059-0.004c0.227-0.015,0.436-0.056,0.632-0.113c1.244-0.078,2.377-0.91,2.268-2.523
		C96.397,52.76,97.334,34.582,97.348,16.632z M8.761,68.051C8.752,52.233,8.707,36.413,9.216,20.602
		c0.288-0.005,0.577-0.015,0.865-0.015c0.088,0,0.171-0.018,0.256-0.027c0.091,0.008,0.175,0.027,0.271,0.027
		c25.406-0.026,55.745-0.965,81.448-1.047c-0.094,16.173-0.774,32.504,0.146,48.648C64.46,69.812,36.539,68.135,8.761,68.051z"/>
	<path style="fill:#1E1E1C;" d="M87.313,27.346c-0.085-0.776-0.625-1.5-1.63-1.517c-6.676-0.11-17.889,0.132-24.562,0.284
		c-0.828,0.019-1.325,0.522-1.527,1.13c-0.224,0.283-0.357,0.628-0.319,1c0.107,1.039,0.128,2.081,0.134,3.124
		c-0.125,7.762-0.161,22.34-0.418,30.099c-0.045,1.351,1.224,1.866,2.226,1.556c0.016,0.001,0.029,0.005,0.045,0.006
		c6.911,0.234,18.361-0.112,25.272-0.142c0.651-0.003,1.104-0.307,1.369-0.729c0.319-0.272,0.52-0.689,0.477-1.259
		c-0.663-8.744-0.849-24.316-0.994-33.081C87.384,27.645,87.354,27.491,87.313,27.346z M79.214,59.574
		c-3.525,0.05-7.479,0.105-11.012,0.112c0.035-4.542,0.933-9.731,4.822-12.222c0.155-0.036,0.311-0.068,0.457-0.145
		c0.573-0.302,1.276-0.276,1.943-0.14C79.461,49.607,79.648,55.132,79.214,59.574z M69.848,38.521
		c1.177-1.835,4.776-2.997,6.695-1.86c1.366,0.809,1.357,2.811,0.941,4.212c-0.082,0.083-0.159,0.175-0.23,0.282
		C75.134,44.356,67.669,41.919,69.848,38.521z M82.621,59.526c0.501-5.439-0.29-11.283-4.479-14.563
		c2.512-1.736,3.698-5.257,2.603-8.067c-0.008-0.022-0.017-0.043-0.026-0.065c-1.427-3.532-6.005-4.704-9.465-3.645
		c-4.579,1.402-5.949,6.981-3.332,10.654c0.542,0.761,1.241,1.337,2.029,1.748c-3.859,3.35-5.094,8.807-5.152,14.089
		c-0.839-0.008-1.629-0.02-2.351-0.038c0.197-6.844,0.251-20.505,0.356-27.351c0.008-0.07,0.021-0.137,0.021-0.212
		c0-0.235-0.007-0.469-0.008-0.704c0.003-0.191,0.005-0.382,0.008-0.573c0.001-0.064-0.012-0.117-0.017-0.177
		c-0.007-0.381-0.029-0.761-0.048-1.141c5.567-0.136,15.676-0.297,21.246-0.251c0.136,7.826,0.331,22.461,0.879,30.27
		C84.192,59.506,83.421,59.516,82.621,59.526z"/>
	<path style="fill:#1E1E1C;" d="M18.518,32.714c10.37-0.433,20.741,0.306,31.11-0.132c2.71-0.115,2.721-4.333,0-4.218
		c-10.37,0.438-20.74-0.301-31.11,0.132C15.808,28.609,15.797,32.828,18.518,32.714z"/>
	<path style="fill:#1E1E1C;" d="M51.474,38.646c-12.016,0.637-23.972-1.178-35.988-0.791c-2.713,0.087-2.722,4.306,0,4.218
		c12.016-0.387,23.972,1.427,35.988,0.791C54.179,42.721,54.193,38.502,51.474,38.646z"/>
	<path style="fill:#1E1E1C;" d="M50.287,55.256c-11.169-0.066-22.31-1.096-33.483-0.791c-2.715,0.074-2.722,4.293,0,4.218
		c11.173-0.305,22.314,0.724,33.483,0.791C53.008,59.491,53.007,55.272,50.287,55.256z"/>
</g>
</svg>
