<?xml version="1.0" encoding="utf-8"?>
<!-- Generator: Adobe Illustrator 16.0.0, SVG Export Plug-In . SVG Version: 6.00 Build 0)  -->
<!DOCTYPE svg PUBLIC "-//W3C//DTD SVG 1.1//EN" "http://www.w3.org/Graphics/SVG/1.1/DTD/svg11.dtd">
<svg version="1.1" id="Capa_1" xmlns="http://www.w3.org/2000/svg" xmlns:xlink="http://www.w3.org/1999/xlink" x="0px" y="0px"
	 width="100px" height="100px" viewBox="0 0 100 100" enable-background="new 0 0 100 100" xml:space="preserve">
<g>
	<path d="M58.813,0.536C35.255-0.28,10.492,13.412,12.632,39.904C12.688,41.75,14.813,50,6.515,56.712
		c-2.952,2.397-2.171,7.038,1.984,9.325c1.378,0.761,2.819,1.267,4.315,1.62c-0.308,1.659-0.156,3.338,0.643,4.916
		c-1.954,3.809,0.656,7.279,2.939,8.1c1.073,0.53,0.245,2.452,0.364,4.063c0.333,4.623,5.846,6.865,9.413,6.306
		c6.394-1.036,13.585-0.707,15.987,6.316c0.48,1.403,1.692,1.786,3,1.942c2.902,0.355,36.178-3.393,37.178-3.998
		c1.395-0.435,2.521-1.997,1.62-3.679c-7.687-14.332,7.699-29.548,10.656-43.316C99.599,25.653,80.28,0.536,58.813,0.536z
		 M89.919,46.649c-3.211,14.731-17.3,28.972-11.722,44.396c-10.477,1.422-31.638,3.647-31.71,3.658
		c-3.771-8.394-12.547-9.9-21.23-8.586c-1.147,0.227-3.601-0.039-3.536-2.276c0.714-4.933-2.453-7.759-3.704-8.063
		c-0.47-0.153-0.274-0.385-0.281-0.378c2.358-2.65-1.192-5.065,0.609-8.48c1.098-2.082-0.313-3.467-2.632-3.787
		c-2.889-0.313-4.414-1.396-5.415-1.839c-0.485-0.231-0.673-0.653-0.227-1.148c9.179-8.333,7.617-20.133,7.608-20.241
		C15.605,14.236,41.832,4.085,59.066,5.583C79.456,7.42,93.365,27.425,89.919,46.649z"/>
	<path d="M45.748,27.149c-6.688,4.031-8.087,12.125-5.323,19.014c0.66,1.646,1.721,3.081,2.535,4.647
		c2.373,4.569,0.781,4.162,0.802,5.901c0.023,2.037,0.534,5.748,0.749,6.748c0.173,1.09,0.972,2.064,2.398,2.064
		c16.433,0,16.706,1.017,17.6-0.933c0.527-0.89,0.339-1.506,0.339-6.934c0-2.598-2.667-0.329,2.24-7.005
		c1.25-1.7,2.488-3.34,3.301-5.303c1.729-4.183,1.444-8.941-0.811-12.88C64.812,24.124,53.414,22.53,45.748,27.149z M59.812,60.688
		c-3.561-0.146-7.124-0.178-10.689-0.188c-0.075-0.55-0.138-1.1-0.193-1.651c3.639-0.068,7.261,0.106,10.882,0.47V60.688z
		 M64.327,46.168c-1.456,1.522-3.643,3.853-4.909,8.07c-0.868-0.083-1.736-0.154-2.604-0.215c0.007-1-0.557-3.013,0.413-6.774
		c0.03-0.116,0.042-0.225,0.052-0.333l2.608-2.609c1.761-1.758-0.907-4.434-2.669-2.67l-1.282,1.281
		c-0.39-0.656-0.813-1.294-1.293-1.911c-1.199-1.542-4.527,0.277-2.67,2.671c0.64,0.821,1.115,1.791,1.579,2.731
		c-0.617,2.475-0.751,4.928-0.46,7.44c-1.321-0.037-2.644-0.057-3.968-0.033c-0.236-2.702-1.306-4.551-2.341-6.109
		c-0.626-1.018-7.218-10.95,2.239-16.651c5.286-3.185,11.572-1.359,15.714,2.641C69.706,40.36,65.141,45.266,64.327,46.168z"/>
	<path d="M34.441,36.179c-2.182-0.015-4.352-0.198-6.524-0.395c-2.287-0.208-2.267,3.354,0,3.56c2.172,0.197,4.342,0.38,6.524,0.395
		C36.736,39.754,36.735,36.194,34.441,36.179z"/>
	<path d="M44.677,21.639c-1.263-1.894-2.546-3.774-4.035-5.501c-1.501-1.742-4.006,0.787-2.517,2.517
		c1.29,1.497,2.384,3.138,3.478,4.78C42.871,25.334,45.955,23.553,44.677,21.639z"/>
	<path d="M67.218,22.446c0.94-1.505,1.883-3.009,2.768-4.547c1.146-1.994-1.929-3.785-3.073-1.797
		c-0.885,1.539-1.827,3.044-2.768,4.547C62.925,22.603,66.005,24.387,67.218,22.446z"/>
	<path d="M76.04,37.5c2.269-0.636,4.445-1.512,6.555-2.552c2.059-1.016,0.254-4.084-1.795-3.073
		c-1.841,0.907-3.729,1.639-5.705,2.193C72.888,34.686,73.827,38.12,76.04,37.5z"/>
</g>
</svg>
