<?xml version="1.0" encoding="iso-8859-1"?>
<!-- Generator: Adobe Illustrator 17.0.2, SVG Export Plug-In . SVG Version: 6.00 Build 0)  -->
<!DOCTYPE svg PUBLIC "-//W3C//DTD SVG 1.1//EN" "http://www.w3.org/Graphics/SVG/1.1/DTD/svg11.dtd">
<svg version="1.1" id="Capa_1" xmlns="http://www.w3.org/2000/svg" xmlns:xlink="http://www.w3.org/1999/xlink" x="0px" y="0px"
	 width="100px" height="100px" viewBox="0 0 100 100" style="enable-background:new 0 0 100 100;" xml:space="preserve">
<g>
	<path style="fill:#1E1E1C;" d="M82.932,28.855c-0.181-5.491-0.282-12.909-0.228-18.404c0.002-0.245-0.037-0.461-0.093-0.664
		c0.107-1.197-0.596-2.461-2.129-2.421c-19.354,0.508-38.704-0.25-58.058-0.28c-1.61-0.003-2.315,1.412-2.117,2.654
		c-0.064,0.216-0.109,0.448-0.106,0.712c0.292,23.095,1.086,56.279,1.111,79.377c0,0.518,0.147,0.939,0.382,1.272
		c0.142,0.979,0.846,1.845,2.119,1.813c8.365-0.208,16.734-0.342,25.093-0.752c7.45-0.365,16.734,0.124,23.855-2.307
		c2.521-0.861,4.777-2.134,6.71-3.977c3.535-3.369,4.741-7.892,5.046-12.658c0.292-4.577-0.247-9.379-0.354-13.597
		C83.887,48.728,83.29,39.748,82.932,28.855z M70.686,70.049c-1.362,0.008-2.678,1.071-2.07,2.705
		c1.225,3.286,1.784,7.366-0.098,10.509c-2.276,3.801-6.338,3.698-10.2,4.185c-2.361,0.298-4.872,0.14-7.253,0.207
		c-1.853,0.052-25.314,0.624-25.314,0.716c-0.055-22.233-0.79-54.553-1.087-76.784c17.869,0.077,35.733,0.691,53.602,0.309
		c-0.068,18.253,1.55,44.639,1.646,59.065c-2.772-0.875-5.637-1.244-8.595-1.046C71.084,69.929,70.878,69.982,70.686,70.049z
		 M72.431,85.245c1.795-3.058,2.243-6.81,1.31-10.877c2.161,0.084,4.292,0.501,6.309,1.356c0.009,0.025,0.015,0.052,0.024,0.077
		C79.419,80.62,76.371,83.577,72.431,85.245z"/>
	<path style="fill:#1E1E1C;" d="M45.003,30.069c-0.722-2.249-3.754-1.872-4.353-0.146c-0.054,0.101-0.111,0.198-0.153,0.313
		c-2.948,7.906-5.729,15.87-9.44,23.463c-1.269,2.596,2.611,4.878,3.886,2.271c1.228-2.512,2.345-5.069,3.417-7.644
		c2.471,0.18,4.928,0.448,7.375,0.845c0.324,0.053,0.624,0.036,0.902-0.023c0.62,1.817,1.24,3.634,1.86,5.452
		c0.931,2.73,5.278,1.558,4.339-1.196C50.189,45.636,47.512,37.881,45.003,30.069z M40.124,43.958
		c0.859-2.2,1.701-4.407,2.524-6.623c0.799,2.408,1.613,4.812,2.428,7.215C43.43,44.312,41.779,44.112,40.124,43.958z"/>
	<path style="fill:#1E1E1C;" d="M58.083,40c0.177,4.28,0.489,8.553,0.667,12.833c0.12,2.891,4.62,2.903,4.5,0
		c-0.177-4.28-0.49-8.553-0.667-12.833C62.464,37.109,57.963,37.097,58.083,40z"/>
	<path style="fill:#1E1E1C;" d="M59.5,31.083c-2.902,0-2.902,4.5,0,4.5S62.402,31.083,59.5,31.083z"/>
</g>
</svg>
