<?xml version="1.0" encoding="iso-8859-1"?>
<!-- Generator: Adobe Illustrator 17.0.2, SVG Export Plug-In . SVG Version: 6.00 Build 0)  -->
<!DOCTYPE svg PUBLIC "-//W3C//DTD SVG 1.1//EN" "http://www.w3.org/Graphics/SVG/1.1/DTD/svg11.dtd">
<svg version="1.1" id="Capa_1" xmlns="http://www.w3.org/2000/svg" xmlns:xlink="http://www.w3.org/1999/xlink" x="0px" y="0px"
	 width="100px" height="100px" viewBox="0 0 100 100" style="enable-background:new 0 0 100 100;" xml:space="preserve">
<g>
	<path style="fill:#1D1D1B;" d="M87.117,42.29c-0.245-0.465-0.572-0.769-0.933-0.956c-0.357-0.29-0.822-0.481-1.396-0.505
		c-3.801-0.162-7.59-0.003-11.386,0.196c-3.022,0.158-3.038,4.871,0,4.712c3.365-0.176,6.724-0.308,10.09-0.226
		c2.259,4.292,4.518,8.585,6.778,12.877c-7.464,0.19-14.921,0.452-22.364,1.091c-0.386,0.033-0.721,0.142-1.01,0.303
		c-0.55,0.174-1.046,0.553-1.417,1.06c-1.228,1.68-2.548,3.269-4.029,4.724c-8.615,0.002-17.227,0.039-25.836,0.364
		c-1.259-1.668-2.358-3.456-3.366-5.284c-0.493-0.895-1.28-1.211-2.053-1.147c-0.121-0.012-0.241-0.026-0.374-0.02
		c-6.536,0.297-13.062,0.206-19.593-0.05c3.267-4.033,6.587-8.022,10.01-11.925h7.227c3.038,0,3.038-4.712,0-4.712h-8.049
		c-0.59,0-1.062,0.181-1.423,0.467c-0.29,0.122-0.572,0.32-0.832,0.615C12.603,49.058,8.195,54.365,3.91,59.776
		c-0.133,0.168-0.233,0.341-0.316,0.517c-0.221,0.348-0.339,0.79-0.276,1.345c0.831,7.328,1.864,14.616,3.421,21.828
		c0.305,1.413,1.492,1.86,2.585,1.63c0.206,0.057,0.423,0.098,0.668,0.099c26.642,0.125,53.261-2.052,79.9-0.785
		c0.835,0.04,1.432-0.294,1.806-0.793c0.027-0.032,0.05-0.07,0.075-0.104c0.034-0.051,0.069-0.101,0.098-0.155
		c0.12-0.198,0.226-0.415,0.292-0.678c1.825-7.188,3.286-14.42,3.969-21.809c0.174-0.54,0.154-1.159-0.182-1.798L87.117,42.29z
		 M88.059,79.626c-25.711-1.073-51.406,0.927-77.12,0.858C9.828,75.046,8.995,69.57,8.326,64.062
		c6.849,0.301,13.692,0.43,20.544,0.156c1.142,1.94,2.401,3.79,3.8,5.564c0.18,0.228,0.411,0.388,0.663,0.5
		c0.357,0.259,0.821,0.409,1.396,0.386c9.093-0.365,18.189-0.392,27.288-0.393c0.199,0,0.384-0.023,0.557-0.06
		c0.508-0.016,1.029-0.197,1.501-0.63c1.8-1.647,3.339-3.521,4.798-5.466c7.43-0.606,14.873-0.859,22.322-1.045
		C90.543,68.665,89.402,74.159,88.059,79.626z"/>
	<path style="fill:#1D1D1B;" d="M48.56,56.015c0.415,0.783,1.177,1.325,2.051,1.209c0.873,0.116,1.635-0.426,2.05-1.209
		c7.367-5.651,12.23-11.949,19.266-18.232c1.947-1.739-0.234-4.418-2.319-3.878c-0.31-0.133-0.676-0.197-1.114-0.144
		c-2.353,0.284-4.713,0.495-7.071,0.726c0.39-4.764,0.869-15.408,1.377-20.161c0.15-1.397-0.781-2.133-1.855-2.233
		c-0.262-0.09-0.556-0.14-0.893-0.123c-4.261,0.22-6.571,0.19-9.442,0.276c-2.871-0.087-5.181-0.056-9.442-0.276
		c-0.338-0.018-0.631,0.033-0.893,0.123c-1.074,0.1-2.005,0.835-1.855,2.233c0.509,4.753,0.988,15.397,1.377,20.161
		c-2.358-0.231-4.718-0.442-7.071-0.726c-0.438-0.053-0.804,0.011-1.114,0.144c-2.085-0.54-4.266,2.139-2.319,3.878
		C36.33,44.066,41.194,50.363,48.56,56.015z M42.346,39.455c1.355,0.155,2.089-0.713,2.222-1.745
		c0.111-0.286,0.162-0.62,0.134-1.004c-0.347-4.682-0.821-15.218-1.314-19.906c0.372,0.327,0.882,0.523,1.549,0.471
		c2.505-0.194,4.151-0.276,5.674-0.323c1.523,0.047,3.169,0.129,5.674,0.323c0.667,0.052,1.177-0.145,1.549-0.471
		c-0.493,4.688-0.968,15.225-1.314,19.906c-0.028,0.384,0.023,0.718,0.134,1.004c0.133,1.032,0.867,1.899,2.222,1.745
		c1.543-0.176,3.09-0.32,4.637-0.466c-4.938,4.388-7.948,8.71-12.901,12.689c-4.953-3.979-7.964-8.3-12.902-12.689
		C39.256,39.135,40.803,39.278,42.346,39.455z"/>
</g>
</svg>
