<?xml version="1.0" encoding="iso-8859-1"?>
<!-- Generator: Adobe Illustrator 17.0.2, SVG Export Plug-In . SVG Version: 6.00 Build 0)  -->
<!DOCTYPE svg PUBLIC "-//W3C//DTD SVG 1.1//EN" "http://www.w3.org/Graphics/SVG/1.1/DTD/svg11.dtd">
<svg version="1.1" id="Capa_1" xmlns="http://www.w3.org/2000/svg" xmlns:xlink="http://www.w3.org/1999/xlink" x="0px" y="0px"
	 width="100px" height="100px" viewBox="0 0 100 100" style="enable-background:new 0 0 100 100;" xml:space="preserve">
<g>
	<path style="fill:#1D1D1B;" d="M23.787,47.154c0.003,0.003,0.004,0.007,0.007,0.01c6.659,9.499,15.572,16.625,24.912,23.364
		c0.327,0.236,0.651,0.359,0.963,0.404c0.609,0.425,1.406,0.5,2.216-0.116c9.312-7.086,16.81-15.885,21.497-26.665
		c0.525-1.207,0.013-2.34-0.814-2.981c-0.503-0.496-1.21-0.802-2.067-0.68l-9.351,1.336c0.208-6.227,0.417-12.051,0.629-20.811
		c0.07-0.188,0.124-0.389,0.138-0.618c0.107-1.715,0.22-3.429,0.328-5.144c0.436-1.385-0.225-3.054-2.044-2.854
		c-7.358,0.808-14.709,1.103-22.108,0.861c-0.27-0.009-0.506,0.032-0.727,0.094c-1.216-0.095-2.482,0.632-2.432,2.203
		c0.265,8.186,0.537,19.114,0.81,27.3c-3.425,0.219-6.85,0.404-10.285,0.421c-0.815,0.004-1.398,0.361-1.764,0.867
		c-0.647,0.638-0.901,1.598-0.219,2.589C23.575,46.879,23.686,47.011,23.787,47.154z M38.093,47.298
		c1.309-0.088,2.036-1.048,2.181-2.068c0.078-0.24,0.126-0.502,0.116-0.803c-0.265-7.936-0.527-18.615-0.785-26.551
		c4.897,0.112,9.776-0.029,14.652-0.38c-0.094,0.217-0.159,0.457-0.173,0.734c-0.632,12.659-0.349,15.331-0.333,28
		c0.001,1.269,0.971,1.911,1.955,1.931c0.212,0.06,0.444,0.092,0.712,0.069c2.433-0.205,4.872-0.299,7.309-0.427
		c-3.802,6.566-8.615,12.337-14.39,17.346c-0.038,0.033-0.063,0.07-0.098,0.104c-7.059-5.17-13.852-10.663-19.309-17.493
		C32.652,47.65,35.372,47.48,38.093,47.298z"/>
	<path style="fill:#1D1D1B;" d="M96.333,67.333c0-0.169-0.02-0.326-0.053-0.473c0.432-1.188-0.151-2.752-1.781-2.694
		c-0.039,0.001-0.078,0.004-0.117,0.005c-0.017,0-0.033-0.005-0.049-0.005c-0.042,0-0.082,0.01-0.124,0.013
		c-4.92,0.181-9.827,0.507-14.71,1.154c-1.492,0.198-2.104,1.681-1.831,2.789c0.001,0.016-0.003,0.028-0.002,0.044
		c0.107,1.895,0.276,3.784,0.458,5.671c-18.399,0.027-36.792,0.476-55.18,1.085c0.248-3.037-0.23-6.033-0.445-9.09
		c-0.081-1.149-0.852-1.918-2-2c-4.498-0.32-8.992-0.475-13.5-0.333c-1.068,0.034-1.688,0.745-1.87,1.557
		c-0.194,0.292-0.311,0.658-0.297,1.109c0.173,5.772,0.459,11.571-0.429,17.302c-0.109,0.707,0.121,1.295,0.508,1.728
		C5.227,85.671,5.751,86.007,6.5,86c29.169-0.284,58.372,1.593,87.5-0.667c0.25-0.019,0.468-0.082,0.669-0.167H95c1.09,0,2-0.91,2-2
		c0-0.046-0.018-0.088-0.021-0.133c0.027-0.165,0.04-0.339,0.021-0.533C96.521,77.454,96.346,72.401,96.333,67.333z M8.589,81.988
		c0.488-4.559,0.434-9.117,0.307-13.703c2.751,0.199,5.505,0.346,8.261,0.469c0.011,3.053,0.307,6.08,0.748,9.111
		c0.003,0.022,0.011,0.039,0.015,0.061c0.104,0.905,0.737,1.739,1.914,1.741c20.113,0.031,40.228,0.941,60.333,0
		c0.185-0.009,0.354-0.042,0.512-0.088c1.009,0.013,1.957-0.62,1.821-1.912c-0.278-2.647-0.53-5.296-0.716-7.951
		c3.096-0.201,6.194-0.346,9.294-0.474c-0.125,4.107,0.089,8.18,0.685,12.245C64.072,83.438,36.316,81.812,8.589,81.988z"/>
</g>
</svg>
