<?xml version="1.0" encoding="utf-8"?>
<!-- Generator: Adobe Illustrator 17.0.2, SVG Export Plug-In . SVG Version: 6.00 Build 0)  -->
<!DOCTYPE svg PUBLIC "-//W3C//DTD SVG 1.1//EN" "http://www.w3.org/Graphics/SVG/1.1/DTD/svg11.dtd">
<svg version="1.1" id="Capa_1" xmlns="http://www.w3.org/2000/svg" xmlns:xlink="http://www.w3.org/1999/xlink" x="0px" y="0px"
	 width="100px" height="100px" viewBox="0 0 100 100" enable-background="new 0 0 100 100" xml:space="preserve">
<g>
	<path fill="#1D1D1B" d="M81.266,19.227l0.009-0.185c0.036-0.768-0.216-1.513-0.674-1.993c-0.403-0.422-0.94-0.637-1.596-0.637
		H67.977l-0.006-0.494c-0.008-0.665-0.013-1.329-0.013-1.995c0-0.221-0.029-0.441-0.093-0.692l-0.019-0.073l0.004-0.075
		c0.038-0.769-0.212-1.516-0.671-1.999c-0.403-0.424-0.941-0.639-1.599-0.639c-2.084,0-4.168-0.009-6.25-0.018l-0.488-0.002
		l-0.01-0.488c-0.042-2.169-0.182-3.975-0.44-5.684c-0.166-1.095-1.32-1.749-2.342-1.749L55.91,2.505l-0.119-0.013l-9.744-0.005
		c-0.723,0-1.32,0.271-1.727,0.786c-0.489,0.619-0.668,1.536-0.465,2.394l0.035,0.147l-0.053,0.143
		c-0.111,0.298-0.168,0.594-0.168,0.88v3.368l-0.516-0.016c-2.12-0.065-4.24-0.139-6.36-0.242L36.69,9.944
		c-0.202,0-0.4,0.028-0.626,0.088l-0.066,0.018l-0.069-0.001h-0.001c-1.186,0-2.427,0.747-2.444,2.388
		c-0.009,0.841-0.041,1.68-0.092,2.516l-0.028,0.469l-0.47,0.001c-3.643,0.01-7.541,0.077-11.361,0.49
		c-0.13,0.014-0.245,0.046-0.361,0.077l-0.159,0.024c-1.195,0-2.39,0.737-2.39,2.385v9.45c0,0.53,0.133,0.998,0.395,1.389
		l0.085,0.126v0.152c-0.004,21.253-0.079,40.44-0.96,60.025c-0.011,0.239,0.015,0.476,0.077,0.745l0.024,0.101l-0.019,0.103
		c-0.119,0.655-0.014,1.253,0.297,1.686c0.28,0.392,0.721,0.635,1.307,0.723c19.211,2.849,38.166,3.082,59.177,3.084l0.002,0.5v-0.5
		c1.516,0,2.013-1.156,2.156-1.653l0.032-0.111l0.078-0.086c0.39-0.429,0.587-0.977,0.587-1.628V20.886
		c0-0.595-0.162-1.104-0.481-1.513L81.266,19.227z M48.423,7.455h5.595l0.022,0.476c0.032,0.647,0.051,1.295,0.055,1.943
		l0.003,0.508l-1.746-0.018c-1.146-0.011-2.292-0.022-3.438-0.042l-0.491-0.009V7.455z M37.462,25.583
		c0.178-1.348,0.348-4.611,0.483-7.233c0.062-1.207,0.117-2.261,0.161-2.899l0.034-0.486l0.486,0.021
		c8.295,0.356,16.48,0.414,24.092,0.422l0.494,0l0.005,0.494c0.056,5.343,0.161,9.072,0.297,10.5l0.054,0.57l-0.572-0.023
		c-4.354-0.178-8.784-0.302-13.068-0.421c-3.997-0.112-7.993-0.224-11.989-0.379l-0.548-0.021L37.462,25.583z M77.107,91.011h-0.5
		c-18.861-0.012-35.885-0.215-53.217-2.596l-0.45-0.062l0.019-0.455c0.826-19.344,0.895-38.64,0.896-60.05
		c0-0.531-0.133-1-0.396-1.392l-0.084-0.126v-5.624l0.463-0.034c3.075-0.227,6.128-0.269,8.442-0.28l0.57-0.003l-0.071,0.567
		c-0.022,0.176-0.05,1.495-0.072,2.555c-0.036,1.738-0.056,2.58-0.085,2.787c-0.062,0.461-0.045,0.916,0.052,1.351l0.021,0.098
		l-0.018,0.1c-0.15,0.825,0.056,1.712,0.537,2.315c0.41,0.516,1.001,0.806,1.708,0.838c5.027,0.23,10.144,0.366,15.092,0.497
		c4.953,0.131,10.074,0.267,15.11,0.498l0.131,0.003c1.518,0,1.938-1.213,2.049-1.735l0.039-0.184l0.15-0.113
		c0.68-0.508,1.033-1.212,0.947-1.884c-0.047-0.37-0.083-1.739-0.128-3.633c-0.026-1.107-0.054-2.252-0.077-2.526l-0.047-0.543
		h8.918V91.011z"/>
	<path fill="#1D1D1B" d="M67.734,70.718c-2.935-3.244-5.851-6.502-8.669-9.847l8.52-8.519c0.945-0.946,0.646-2.156-0.115-2.86
		c-0.067-0.117-0.146-0.233-0.241-0.344c-2.079-2.424-4.33-4.685-6.587-6.943c-2.032-2.033-4.149,1.941-5.415,3.119
		c-2.583,2.402-3.346,3.076-5.928,5.479c-2.384-2.402-5.476-5.563-7.736-8.083c-0.539-0.602-1.186-0.739-1.768-0.587
		c-0.484-0.025-0.99,0.14-1.437,0.587l-5.875,5.875c-0.912,0.912-0.668,2.071,0.031,2.785c0.087,0.144,0.189,0.285,0.324,0.42
		c2.571,2.571,4.855,5.895,7.31,8.577c-3.098,3.339-5.278,6.602-8.354,9.962c-1.118,1.222-0.357,2.825,0.795,3.324
		c1.774,2.069,3.688,4.007,5.614,5.934c0.713,0.713,1.576,0.716,2.26,0.35c0.267-0.099,0.527-0.265,0.768-0.528
		c3.02-3.312,6.161-6.504,9.324-9.676c2.692,3.231,5.487,6.371,8.301,9.498c0.75,0.833,1.702,0.774,2.407,0.285
		c0.333-0.061,0.665-0.201,0.976-0.463c2.248-1.9,3.617-3.225,5.853-5.14c1.033-0.885,0.736-2.079-0.058-2.78
		C67.953,70.998,67.858,70.855,67.734,70.718z M60.593,75.153c-2.832-3.157-5.642-6.334-8.324-9.621
		c-0.553-0.677-1.238-0.794-1.846-0.585c-0.46-0.004-0.937,0.162-1.359,0.585c-3.204,3.205-6.393,6.423-9.477,9.743
		c-1.185-1.199-2.337-2.428-3.456-3.688c3.054-3.276,5.177-6.485,8.194-9.794c0.857-0.941,0.604-2.107-0.08-2.824
		c-0.075-0.13-0.165-0.257-0.276-0.381c-2.41-2.691-4.668-6.007-7.216-8.566l3.154-3.154c2.444,2.657,5.713,5.962,8.27,8.519
		c2.842,2.833,10.3-9.645,11.364-8.564c1.303,1.323,2.595,2.657,3.834,4.041l-8.104,8.103c-0.175,0.175-0.295,0.361-0.391,0.549
		c-0.537,0.726-0.69,1.776,0.035,2.656c2.864,3.475,5.858,6.837,8.875,10.18C62.478,73.529,61.914,73.986,60.593,75.153z"/>
</g>
</svg>
