<?xml version="1.0" encoding="iso-8859-1"?>
<!-- Generator: Adobe Illustrator 17.0.2, SVG Export Plug-In . SVG Version: 6.00 Build 0)  -->
<!DOCTYPE svg PUBLIC "-//W3C//DTD SVG 1.1//EN" "http://www.w3.org/Graphics/SVG/1.1/DTD/svg11.dtd">
<svg version="1.1" id="Capa_1" xmlns="http://www.w3.org/2000/svg" xmlns:xlink="http://www.w3.org/1999/xlink" x="0px" y="0px"
	 width="100px" height="100px" viewBox="0 0 100 100" style="enable-background:new 0 0 100 100;" xml:space="preserve">
<g>
	<path d="M38.951,67.138c4.138,0,8.098-0.771,11.752-2.164c4.966,10.511,10.517,20.731,15.649,31.161
		c0.731,1.485,2.229,1.514,3.305,0.805c5.28-0.782,9.974-2.755,14.134-6.225c0.016-0.013,0.026-0.029,0.041-0.042
		c1.383-0.452,2.392-1.916,1.331-3.44c-7.183-10.318-15.291-19.961-22.17-30.487c5.598-5.929,9.041-13.913,9.041-22.691
		c0-5.474-2.281-11.564-3.263-13.929C63.952,8.507,52.917,1.571,39.254,1.571c-4.98,0-10.162,0.951-14.985,2.749
		C11.234,9.182,5.728,23.6,6.052,35.734C6.508,52.756,21.574,67.138,38.951,67.138z M79.544,87.812
		c-2.872,2.183-6.207,3.576-9.759,4.173c-1.719-3.457-3.478-6.893-5.241-10.327c2.197-1.739,4.48-3.349,6.884-4.792
		C74.169,80.487,76.909,84.111,79.544,87.812z M68.407,72.86c-2.139,1.315-4.189,2.755-6.174,4.288
		c-2.419-4.726-4.807-9.467-7.082-14.265c1.456-0.821,2.842-1.75,4.15-2.774C62.189,64.466,65.269,68.683,68.407,72.86z
		 M26.365,9.942c4.159-1.551,8.616-2.371,12.889-2.371c11.321,0,20.061,5.414,23.978,14.853c1.756,4.232,2.804,8.58,2.804,11.629
		c0,14.935-12.149,27.084-27.084,27.084c-14.211,0-26.53-11.707-26.901-25.564C11.782,25.573,16.105,13.769,26.365,9.942z"/>
	<path d="M38.956,55.572c11.855,0,21.5-9.645,21.5-21.5s-9.645-21.5-21.5-21.5s-21.5,9.645-21.5,21.5S27.101,55.572,38.956,55.572z
		 M38.956,18.572c8.547,0,15.5,6.953,15.5,15.5c0,8.547-6.953,15.5-15.5,15.5s-15.5-6.953-15.5-15.5
		C23.456,25.525,30.409,18.572,38.956,18.572z"/>
	<path d="M30.667,36.333c2.233-0.125,4.464-0.275,6.696-0.422c0.144,2.364,0.289,4.728,0.471,7.089c0.246,3.193,5.248,3.217,5,0
		c-0.19-2.466-0.339-4.935-0.49-7.403c2.274-0.15,4.548-0.303,6.823-0.43c3.206-0.18,3.223-5.181,0-5
		c-2.384,0.134-4.766,0.294-7.149,0.451c-0.145-2.097-0.305-4.192-0.518-6.284c-0.324-3.175-5.327-3.207-5,0
		c0.224,2.196,0.389,4.397,0.539,6.598c-2.124,0.139-4.247,0.283-6.373,0.402C27.461,31.513,27.444,36.514,30.667,36.333z"/>
</g>
</svg>
