<?xml version="1.0" encoding="iso-8859-1"?>
<!-- Generator: Adobe Illustrator 17.0.2, SVG Export Plug-In . SVG Version: 6.00 Build 0)  -->
<!DOCTYPE svg PUBLIC "-//W3C//DTD SVG 1.1//EN" "http://www.w3.org/Graphics/SVG/1.1/DTD/svg11.dtd">
<svg version="1.1" id="Capa_1" xmlns="http://www.w3.org/2000/svg" xmlns:xlink="http://www.w3.org/1999/xlink" x="0px" y="0px"
	 width="100px" height="100px" viewBox="0 0 100 100" style="enable-background:new 0 0 100 100;" xml:space="preserve">
<g>
	<path style="fill:#1D1D1B;" d="M80.95,69.828c4.838-1.108,9.265-4.729,11.554-9.447c1.961-4.044,2.069-8.325,0.303-12.053
		C88.673,39.6,78.762,35.694,70.774,35.694c-0.405,0-0.808,0.01-1.208,0.029c-9.761,0.473-17.526,7.227-24.377,13.185l-1.499,1.301
		c-4.382,3.782-16.83,12.073-25.276,12.074c-4.169,0-6.544-2-7.474-6.297c-0.818-3.78,1.605-7.579,4.422-9.377
		c4.411-2.818,10.866-1.993,18.899,2.344c0.54,0.292,1.106,0.439,1.684,0.439c1.583,0,3.027-1.17,3.435-2.782
		c0.385-1.521-0.273-2.994-1.674-3.75c-3.217-1.737-9.64-4.652-16.501-4.652c-6.763,0-12.036,2.897-15.249,8.377
		c-2.487,4.242-2.813,9.203-0.894,13.61c1.872,4.3,5.609,7.361,10.252,8.396c1.757,0.392,3.541,0.59,5.301,0.59
		c11.021,0,20-7.475,28.683-14.703c4.235-3.526,8.235-6.855,12.28-9.15c2.53-1.435,6.104-2.257,9.805-2.257
		c7.664,0,15.473,3.474,15.645,11.234c0.049,2.207-0.649,4.064-2.076,5.523c-1.832,1.873-4.85,2.991-8.072,2.992
		c-1.194,0-2.348-0.151-3.43-0.45c-5.172-1.428-10.073-5.067-14.599-8.787c-0.66-0.542-1.444-0.83-2.267-0.83
		c-1.546,0-2.988,1.007-3.504,2.449c-0.456,1.273-0.059,2.625,1.038,3.526c7.268,5.973,15.11,11.5,23.219,11.501
		C78.569,70.23,79.786,70.095,80.95,69.828z"/>
</g>
</svg>
