<?xml version="1.0" encoding="iso-8859-1"?>
<!-- Generator: Adobe Illustrator 17.0.2, SVG Export Plug-In . SVG Version: 6.00 Build 0)  -->
<!DOCTYPE svg PUBLIC "-//W3C//DTD SVG 1.1//EN" "http://www.w3.org/Graphics/SVG/1.1/DTD/svg11.dtd">
<svg version="1.1" id="Capa_1" xmlns="http://www.w3.org/2000/svg" xmlns:xlink="http://www.w3.org/1999/xlink" x="0px" y="0px"
	 width="100px" height="100px" viewBox="0 0 100 100" style="enable-background:new 0 0 100 100;" xml:space="preserve">
<g>
	<path style="fill:#1D1D1B;" d="M97.406,45.424C96.41,26.259,80.114,11.363,64.531,6.556c-5.074-1.566-10.386-2.36-15.787-2.36
		c-17.345,0-32.41,7.997-40.301,21.392C5.6,30.412,3.513,36.475,2.716,42.219c-2.929,21.111,8.042,42.51,25.52,49.773
		c4.629,1.923,9.787,2.898,15.331,2.899c0.002,0,0.003,0,0.005,0c14.849,0,30.72-7,41.418-18.27
		C93.697,67.451,97.99,56.662,97.406,45.424z M88.939,57.271c-5.298,16.067-22.437,26.395-37.071,29.501
		c-2.714,0.576-5.436,0.869-8.089,0.869c-14.917,0-26.86-8.883-31.947-23.761c-5.027-14.703-2.607-29.686,6.473-40.079
		c7.217-8.263,18.216-12.812,30.973-12.812c1.266,0,2.548,0.048,3.816,0.142c0.299,0.128,0.592,0.21,0.891,0.251
		C66.72,13.101,79.165,20.95,85.69,31.381C90.74,39.451,91.863,48.404,88.939,57.271z"/>
	<path style="fill:#1D1D1B;" d="M57.843,38.251c-0.026-0.611-0.238-1.164-0.612-1.605c-0.416-0.941-1.247-1.516-2.293-1.578
		c-3.431-0.21-7.039-0.034-11.483,0.558c-0.244,0.003-0.443,0.028-0.562,0.065c-0.676,0.093-1.219,0.391-1.57,0.862
		c-0.357,0.48-0.498,1.116-0.399,1.697c-0.008,0.221-0.002,0.444,0.03,0.67l0.732,5.103c0.146,4.315,0.351,8.699,0.549,12.938
		c0.189,4.04,0.385,8.217,0.535,12.389c-0.683,1.292-1.471,2.051-2.696,2.604c-0.362,0.163-0.668,0.43-0.85,0.719
		c-0.618,0.637-0.881,1.588-0.703,2.545c0.121,0.653,0.194,1.335,0.266,1.993c0.072,0.677,0.148,1.377,0.275,2.066l0.021,0.084
		c0.138,1.101,0.934,2.19,2.428,2.19l0.156-0.004c5.045-0.253,10.415-0.546,15.728-1.085c0.426-0.043,0.823-0.178,1.185-0.401
		c1.068-0.206,2.068-1.063,1.972-2.564c-0.325-5.036-0.721-10.149-1.103-15.095C58.837,54.491,58.205,46.311,57.843,38.251z
		 M47.761,71.244c0.18-0.409,0.277-0.838,0.279-1.19c0.046-0.229,0.064-0.446,0.058-0.664c-0.145-4.168-0.343-8.403-0.534-12.498
		c-0.198-4.244-0.404-8.633-0.549-12.948c-0.007-0.21-0.035-0.411-0.082-0.631l-0.39-2.725c2.071-0.2,4.102-0.287,6.08-0.258
		c0.373,7.457,0.952,15.013,1.512,22.324c0.324,4.228,0.647,8.455,0.935,12.686c-4.022,0.357-7.981,0.59-11.097,0.754l-0.023-0.208
		C45.56,74.808,46.905,73.171,47.761,71.244z"/>
	<path style="fill:#1D1D1B;" d="M49.525,33.623C49.526,33.623,49.526,33.623,49.525,33.623c3.586,0,6.225-1.7,7.431-4.788
		c0.85-2.177,1.006-6.277-0.057-8.506c-1.739-3.651-7.061-5.833-11.2-5.833c-0.595,0-1.16,0.045-1.68,0.134
		c-2.83,0.486-5.157,2.226-6.382,4.772c-1.206,2.506-1.114,5.362,0.251,7.837C39.862,30.819,44.975,33.623,49.525,33.623z
		 M42.748,22.313c0.843-2.142,3.06-2.373,3.974-2.373c1.624,0,3.326,0.638,4.337,1.625c1.086,1.061,1.478,2.61,1.024,4.044
		c-0.43,1.357-1.505,2.271-2.949,2.505c-2.113,0.342-5.356-0.733-6.383-3.037C42.367,24.214,42.366,23.283,42.748,22.313z"/>
</g>
</svg>
