<?xml version="1.0" encoding="iso-8859-1"?>
<!-- Generator: Adobe Illustrator 17.0.2, SVG Export Plug-In . SVG Version: 6.00 Build 0)  -->
<!DOCTYPE svg PUBLIC "-//W3C//DTD SVG 1.1//EN" "http://www.w3.org/Graphics/SVG/1.1/DTD/svg11.dtd">
<svg version="1.1" id="Capa_1" xmlns="http://www.w3.org/2000/svg" xmlns:xlink="http://www.w3.org/1999/xlink" x="0px" y="0px"
	 width="100px" height="100px" viewBox="0 0 100 100" style="enable-background:new 0 0 100 100;" xml:space="preserve">
<g>
	<path d="M59.113,37.566c-0.08-0.999-0.756-1.877-2.053-1.745c-5.18,0.529-10.384,0.74-15.563,1.271
		c-1.023-0.246-2.182,0.151-2.512,1.468c-0.85,3.393-1.709,6.78-2.305,10.229c-0.119,0.69,0.06,1.279,0.4,1.731
		c0.226,0.85,0.88,1.608,1.972,1.725c1.995,0.213,3.993,0.346,5.996,0.402c-0.289,9.742-0.668,19.482-0.947,29.224
		c-0.295,1.246,0.367,2.717,2.011,2.645c3.026-0.133,6.05-0.133,9.076,0c0.537,0.024,0.968-0.12,1.297-0.365
		c0.735-0.271,1.311-0.915,1.296-1.941c-0.217-14.667,1.241-29.282,1.441-43.94C59.225,38.008,59.179,37.779,59.113,37.566z
		 M53.455,80.146c-1.659-0.045-3.317-0.063-4.976-0.028c0.29-9.724,0.668-19.445,0.945-29.169c0.025-0.865-0.375-1.46-0.939-1.787
		c-0.345-0.471-0.891-0.802-1.654-0.806c-1.884-0.008-3.761-0.088-5.636-0.236c0.454-2.288,0.999-4.555,1.561-6.82
		c4.028-0.375,8.066-0.609,12.096-0.96C54.572,53.616,53.395,66.862,53.455,80.146z"/>
	<path d="M50.303,15.171c-0.193-0.034-0.375-0.038-0.554-0.026c-0.266-0.112-0.554-0.169-0.856-0.169l-0.145,0.004
		c-3.085,0.18-6.088,1.726-8.032,4.134c-1.764,2.184-2.506,4.861-2.091,7.541c0.732,4.727,5.2,8.292,10.392,8.292
		c0.832,0,1.654-0.097,2.444-0.29c4.011-0.977,7.188-4.92,7.728-9.59C59.812,19.674,55.19,16.006,50.303,15.171z M54.614,24.221
		c0.104,2.123-1.23,4.364-3.319,5.578c-0.699,0.406-1.483,0.611-2.33,0.611c-2.135,0-4.375-1.325-5.448-3.222
		c-0.922-1.628-0.475-3.146,0.063-4.134c1.031-1.893,3.229-3.352,5.228-3.469c0.039-0.002,0.076-0.007,0.112-0.013
		c0.08,0.025,0.164,0.046,0.256,0.062C52.665,20.23,54.494,21.773,54.614,24.221z"/>
	<path d="M49.865,3.452c-8.896,0-17.535,2.26-24.981,6.535c-6.581,3.779-13.156,11.918-16.753,18.308
		C1.322,40.392,1.539,57.276,8.686,71.309c3.639,7.147,9.221,12.912,16.142,16.672c6.379,3.467,16.683,7.515,24.729,7.515
		c24.773,0,45.12-19.754,46.32-44.971c0.021-0.439,0.035-0.876,0.043-1.312c0.139-8.129-3.534-17.454-4.664-20.118
		C84.554,13.278,68.693,3.452,49.865,3.452z M89.884,50.238c-1.048,22.013-18.762,39.257-40.327,39.257
		c-6.478,0-15.648-3.408-21.865-6.787c-5.85-3.178-10.573-8.062-13.659-14.123c-6.26-12.292-6.524-26.953-0.673-37.348
		c3.09-5.49,8.95-12.854,14.513-16.048c6.538-3.754,14.143-5.738,21.993-5.738c16.377,0,30.12,8.424,35.866,21.983
		c2.087,4.924,4.283,12.153,4.188,17.675C89.914,49.485,89.902,49.86,89.884,50.238z"/>
</g>
</svg>
