<?xml version="1.0" encoding="iso-8859-1"?>
<!-- Generator: Adobe Illustrator 17.0.2, SVG Export Plug-In . SVG Version: 6.00 Build 0)  -->
<!DOCTYPE svg PUBLIC "-//W3C//DTD SVG 1.1//EN" "http://www.w3.org/Graphics/SVG/1.1/DTD/svg11.dtd">
<svg version="1.1" id="Capa_1" xmlns="http://www.w3.org/2000/svg" xmlns:xlink="http://www.w3.org/1999/xlink" x="0px" y="0px"
	 width="100px" height="100px" viewBox="0 0 100 100" style="enable-background:new 0 0 100 100;" xml:space="preserve">
<g>
	<path style="fill:#1E1E1C;" d="M82.932,28.855c-0.181-5.491-0.282-12.909-0.228-18.404c0.002-0.245-0.037-0.461-0.093-0.664
		c0.107-1.197-0.596-2.461-2.129-2.421c-19.354,0.508-38.704-0.25-58.058-0.28c-1.61-0.003-2.315,1.412-2.117,2.654
		c-0.064,0.216-0.109,0.448-0.106,0.712c0.292,23.095,1.086,56.279,1.111,79.377c0,0.518,0.147,0.939,0.382,1.272
		c0.142,0.979,0.846,1.845,2.119,1.813c8.365-0.208,16.734-0.342,25.093-0.752c7.45-0.365,16.734,0.124,23.855-2.307
		c2.521-0.861,4.777-2.134,6.71-3.977c3.535-3.369,4.741-7.892,5.046-12.658c0.292-4.577-0.247-9.379-0.354-13.597
		C83.887,48.728,83.29,39.748,82.932,28.855z M70.686,70.049c-1.362,0.008-2.678,1.071-2.07,2.705
		c1.225,3.286,1.784,7.366-0.098,10.509c-2.276,3.801-6.338,3.698-10.2,4.185c-2.361,0.298-4.872,0.14-7.253,0.207
		c-1.853,0.052-25.314,0.624-25.314,0.716c-0.055-22.233-0.79-54.553-1.087-76.784c17.869,0.077,35.733,0.691,53.602,0.309
		c-0.068,18.253,1.55,44.639,1.646,59.065c-2.772-0.875-5.637-1.244-8.595-1.046C71.084,69.929,70.878,69.982,70.686,70.049z
		 M72.431,85.245c1.795-3.058,2.243-6.81,1.31-10.877c2.161,0.084,4.292,0.501,6.309,1.356c0.009,0.025,0.015,0.052,0.024,0.077
		C79.419,80.62,76.371,83.577,72.431,85.245z"/>
	<path style="fill:#1E1E1C;" d="M50.667,33.75c-4.61,0.165-9.219,0.321-13.833,0.333c-2.902,0.008-2.902,4.508,0,4.5
		c1.949-0.005,3.896-0.046,5.844-0.093c0.826,3.307,1.377,6.676,1.307,10.093c-0.026,1.249-0.135,2.927-0.98,3.934
		c-0.969,1.154-3.239-0.137-4.202-0.627c-2.581-1.312-4.858,2.57-2.271,3.886c4.673,2.376,9.692,2.258,11.438-3.408
		c1.335-4.332,0.378-9.583-0.689-14.009c1.129-0.037,2.258-0.069,3.387-0.11C53.56,38.147,53.57,33.646,50.667,33.75z"/>
	<path style="fill:#1E1E1C;" d="M60.461,39.246c-0.435-0.901-0.235-1.574-0.539-1.362c1.311-0.916,3.985-0.306,5.412-0.134
		c2.877,0.346,2.844-4.158,0-4.5c-3.006-0.361-7.591-0.772-9.296,2.444c-1.37,2.583,0.326,5.647,1.651,7.867
		c1.633,2.736,3.675,5.236,5.059,8.118c0.113,0.236,0.271,0.821,0.326,1.032c-1.399,0.735-4.396-0.119-5.809-0.381
		c-2.836-0.525-4.047,3.812-1.196,4.339c3.052,0.565,8.093,1.746,10.51-1.021c2.068-2.368,0.512-5.583-0.822-7.885
		C64.079,44.871,61.919,42.268,60.461,39.246z"/>
</g>
</svg>
