<?xml version="1.0" encoding="iso-8859-1"?>
<!-- Generator: Adobe Illustrator 17.0.2, SVG Export Plug-In . SVG Version: 6.00 Build 0)  -->
<!DOCTYPE svg PUBLIC "-//W3C//DTD SVG 1.1//EN" "http://www.w3.org/Graphics/SVG/1.1/DTD/svg11.dtd">
<svg version="1.1" id="Capa_1" xmlns="http://www.w3.org/2000/svg" xmlns:xlink="http://www.w3.org/1999/xlink" x="0px" y="0px"
	 width="100px" height="100px" viewBox="0 0 100 100" style="enable-background:new 0 0 100 100;" xml:space="preserve">
<g>
	<path style="fill:#1D1D1B;" d="M44.039,50.237c-9.191,0.898-18.384,1.77-27.575,2.669c-1.463,0.143-2.278,1.247-2.444,2.399
		c-0.484,0.883-0.492,2.004,0.433,2.929c1.914,1.914,3.816,3.838,5.597,5.877c-2.522,2.681-9.562,9.621-12.541,11.801
		C6.021,77,6.157,78.889,7.033,80.001c0.112,0.373,0.315,0.742,0.656,1.083c4.206,4.207,8.397,8.425,12.431,12.797
		c1.088,1.18,2.491,0.938,3.409,0.105c0.146-0.082,0.29-0.173,0.43-0.288c3.309-2.722,10.773-10.074,13.81-13.089
		c1.468,1.335,2.883,2.727,4.288,4.132c0.547,0.547,1.163,0.759,1.758,0.75c1.557,0.741,3.826,0.013,3.752-2.213
		c-0.337-10.237-0.186-20.474,0-30.713C47.606,50.461,45.568,49.688,44.039,50.237z M42.276,77.742
		c-0.847-0.793-1.707-1.574-2.595-2.325c-0.73-0.617-1.553-0.742-2.297-0.57c-0.641-0.051-1.315,0.16-1.908,0.753
		c-2.913,2.911-10.238,10.175-13.344,12.873c-3.165-3.366-6.412-6.653-9.675-9.924c3.082-2.51,10.277-9.674,12.965-12.638
		c1.314-1.449,0.586-3.308-0.689-4.094c-0.103-0.225-0.228-0.446-0.407-0.659c-1.029-1.216-2.109-2.385-3.212-3.532
		c7.078-0.687,14.157-1.366,21.235-2.055C42.225,62.962,42.149,70.352,42.276,77.742z"/>
	<path style="fill:#1D1D1B;" d="M59.373,45.107c9.196-0.834,18.396-1.641,27.593-2.476c1.464-0.133,2.287-1.231,2.46-2.382
		c0.49-0.88,0.506-2-0.413-2.932c-1.9-1.928-3.789-3.865-5.556-5.916c2.542-2.663,9.629-9.554,12.623-11.713
		c1.496-1.079,1.373-2.968,0.504-4.087c-0.109-0.374-0.309-0.745-0.648-1.088c-4.176-4.236-8.338-8.483-12.342-12.883
		c-1.08-1.187-2.484-0.956-3.408-0.129c-0.146,0.081-0.291,0.171-0.432,0.285c-3.328,2.699-10.843,9.999-13.901,12.993
		c-1.458-1.346-2.864-2.747-4.259-4.161c-0.543-0.55-1.158-0.768-1.753-0.763c-1.551-0.752-3.826-0.039-3.768,2.187
		c0.265,10.239,0.042,20.475-0.214,30.712C55.807,44.858,57.84,45.645,59.373,45.107z M61.327,17.615
		c0.842,0.799,1.696,1.586,2.579,2.343c0.726,0.622,1.547,0.752,2.293,0.586c0.64,0.056,1.316-0.151,1.913-0.74
		c2.933-2.891,10.309-10.103,13.434-12.78c3.141,3.388,6.366,6.697,9.606,9.991c-3.099,2.488-10.344,9.602-13.053,12.548
		c-1.324,1.44-0.609,3.304,0.661,4.099c0.101,0.225,0.224,0.448,0.403,0.662c1.021,1.224,2.092,2.399,3.187,3.554
		c-7.083,0.637-14.166,1.267-21.249,1.907C61.275,32.395,61.402,25.006,61.327,17.615z"/>
	<path style="fill:#1D1D1B;" d="M46.647,12.411c-0.144-1.464-1.247-2.278-2.399-2.444c-0.883-0.484-2.003-0.492-2.928,0.433
		c-1.915,1.914-3.838,3.816-5.877,5.597c-2.68-2.523-9.621-9.562-11.801-12.541c-1.089-1.488-2.978-1.352-4.09-0.476
		c-0.373,0.112-0.742,0.315-1.083,0.655c-4.207,4.206-8.425,8.397-12.797,12.431c-1.18,1.088-0.938,2.491-0.104,3.409
		c0.082,0.145,0.172,0.29,0.288,0.43c2.722,3.309,10.074,10.774,13.089,13.81c-1.335,1.468-2.727,2.883-4.132,4.289
		c-0.546,0.547-0.759,1.163-0.75,1.758c-0.741,1.556-0.013,3.826,2.213,3.752c10.236-0.337,20.474-0.185,30.713,0
		c2.104,0.038,2.877-2,2.329-3.529C48.418,30.796,47.546,21.602,46.647,12.411z M21.811,38.224c0.793-0.847,1.574-1.707,2.325-2.595
		c0.617-0.73,0.742-1.553,0.57-2.297c0.051-0.641-0.161-1.315-0.753-1.908c-2.912-2.913-10.175-10.238-12.874-13.344
		c3.366-3.165,6.653-6.412,9.924-9.675c2.51,3.082,9.674,10.277,12.638,12.965c1.449,1.314,3.308,0.586,4.094-0.689
		c0.225-0.102,0.447-0.228,0.659-0.408c1.217-1.029,2.385-2.109,3.532-3.211c0.687,7.078,1.366,14.157,2.055,21.235
		C36.591,38.172,29.201,38.097,21.811,38.224z"/>
	<path style="fill:#1D1D1B;" d="M97.766,75.702c-2.699-3.328-9.999-10.844-12.993-13.901c1.346-1.459,2.747-2.864,4.162-4.26
		c0.55-0.543,0.767-1.158,0.762-1.753c0.752-1.551,0.04-3.825-2.187-3.767c-10.239,0.265-20.475,0.042-30.712-0.214
		c-2.104-0.053-2.891,1.98-2.354,3.513c0.833,9.197,1.642,18.396,2.477,27.593c0.133,1.465,1.23,2.287,2.382,2.461
		c0.88,0.49,2,0.506,2.931-0.412c1.928-1.9,3.865-3.789,5.916-5.556c2.663,2.541,9.554,9.629,11.713,12.623
		c1.079,1.496,2.968,1.373,4.087,0.504c0.374-0.109,0.745-0.309,1.088-0.648c4.236-4.176,8.483-8.338,12.883-12.342
		c1.187-1.08,0.956-2.484,0.128-3.409C97.97,75.988,97.88,75.843,97.766,75.702z M82.537,87.099
		c-2.488-3.099-9.602-10.344-12.548-13.052c-1.44-1.325-3.304-0.609-4.099,0.661c-0.225,0.101-0.448,0.225-0.662,0.403
		c-1.224,1.02-2.399,2.092-3.555,3.187c-0.637-7.083-1.267-14.166-1.907-21.248c7.39,0.175,14.779,0.302,22.17,0.226
		c-0.799,0.842-1.586,1.696-2.342,2.579c-0.622,0.726-0.752,1.548-0.586,2.293c-0.056,0.64,0.151,1.316,0.74,1.913
		c2.891,2.933,10.103,10.308,12.78,13.434C89.14,80.634,85.831,83.858,82.537,87.099z"/>
</g>
</svg>
