<?xml version="1.0" encoding="iso-8859-1"?>
<!-- Generator: Adobe Illustrator 17.0.2, SVG Export Plug-In . SVG Version: 6.00 Build 0)  -->
<!DOCTYPE svg PUBLIC "-//W3C//DTD SVG 1.1//EN" "http://www.w3.org/Graphics/SVG/1.1/DTD/svg11.dtd">
<svg version="1.1" id="Capa_1" xmlns="http://www.w3.org/2000/svg" xmlns:xlink="http://www.w3.org/1999/xlink" x="0px" y="0px"
	 width="100px" height="100px" viewBox="0 0 100 100" style="enable-background:new 0 0 100 100;" xml:space="preserve">
<g>
	<path style="fill:#1E1E1C;" d="M84.133,28.855c-0.181-5.491-0.282-12.909-0.228-18.404c0.002-0.245-0.037-0.461-0.093-0.664
		c0.107-1.197-0.596-2.461-2.129-2.421c-19.354,0.508-38.704-0.25-58.059-0.28c-1.61-0.003-2.315,1.412-2.116,2.654
		c-0.065,0.216-0.109,0.448-0.106,0.712c0.292,23.095,1.086,56.279,1.111,79.377c0,0.518,0.147,0.939,0.382,1.272
		c0.142,0.979,0.846,1.845,2.118,1.813c8.366-0.208,16.735-0.342,25.094-0.752c7.45-0.365,16.734,0.124,23.855-2.307
		c2.521-0.861,4.777-2.134,6.71-3.977c3.535-3.369,4.741-7.892,5.045-12.658c0.292-4.577-0.247-9.379-0.354-13.597
		C85.088,48.728,84.491,39.748,84.133,28.855z M71.887,70.049c-1.362,0.008-2.678,1.071-2.07,2.705
		c1.224,3.286,1.784,7.366-0.098,10.509c-2.276,3.801-6.338,3.698-10.2,4.185c-2.361,0.298-4.872,0.14-7.253,0.207
		c-1.853,0.052-25.314,0.624-25.314,0.716c-0.055-22.233-0.79-54.553-1.087-76.784c17.869,0.077,35.733,0.691,53.601,0.309
		c-0.067,18.253,1.551,44.639,1.646,59.065c-2.772-0.875-5.637-1.244-8.595-1.046C72.285,69.929,72.08,69.982,71.887,70.049z
		 M73.632,85.245c1.795-3.058,2.243-6.81,1.31-10.877c2.161,0.084,4.292,0.501,6.309,1.356c0.009,0.025,0.015,0.052,0.024,0.077
		C80.62,80.62,77.571,83.577,73.632,85.245z"/>
	<path style="fill:#1E1E1C;" d="M41.013,34.855c-0.207-0.061-0.428-0.105-0.679-0.105h-7c-2.902,0-2.902,4.5,0,4.5h5.585
		c0.184,2.737,0.263,5.481,0.084,8.222c-0.1,1.535-0.3,3.217-1.021,4.598c-0.669,1.282-2.451-0.629-3.059-1.161
		c-2.173-1.903-5.369,1.267-3.182,3.182c3.961,3.469,8.738,4.193,10.862-1.435C44.396,47.91,43.668,41.938,43.25,37
		C43.135,35.648,42.076,34.937,41.013,34.855z"/>
	<path style="fill:#1E1E1C;" d="M49.5,35.083c-0.971,0.094-1.607,0.677-1.922,1.392c-0.202,0.321-0.331,0.713-0.328,1.191
		c0.033,5.359,0.439,10.751-0.419,16.069c-0.458,2.838,3.877,4.055,4.339,1.196c0.431-2.664,0.589-5.323,0.637-7.987
		c3.715-0.563,8.055-2.464,7.411-6.898C58.589,35.719,53.003,34.745,49.5,35.083z M54.77,40.983
		c-0.025-0.002-0.116,0.177-0.083,0.174c-0.131,0.146-0.273,0.284-0.42,0.412c-0.523,0.458-1.521,0.722-2.457,0.873
		c-0.012-0.963-0.026-1.927-0.039-2.893c0.599,0.049,1.193,0.149,1.791,0.342c0.449,0.146,0.084,0.017,0.474,0.225
		c-0.021-0.011,0.627,0.443,0.347,0.211c0.355,0.294,0.374,0.357,0.414,0.497C54.789,40.855,54.78,40.916,54.77,40.983z"/>
	<path style="fill:#1E1E1C;" d="M75.651,53.316c0.173-0.529,0.276-1.079,0.329-1.643c0.167-1.049,0.262-2.11,0.271-3.174
		c0.005-0.64-0.217-1.13-0.555-1.487c-0.188-0.361-0.474-0.674-0.824-0.895c-0.358-0.352-0.866-0.571-1.538-0.534
		c-2.832,0.154-5.665,0.166-8.5,0.167c-0.07,0-0.13,0.014-0.196,0.019c-0.364-3.069,0.845-6.084,4.196-6.519
		c2.835-0.369,2.872-4.873,0-4.5c-13,1.69-10.402,22.805,2.333,22.5c0.115-0.003,0.218-0.024,0.325-0.04
		c0.67,0.085,1.37-0.146,1.933-0.619c0.976-0.82,1.649-1.802,2.073-2.875C75.562,53.591,75.613,53.457,75.651,53.316z
		 M71.331,52.069c0,0.002,0,0.004-0.001,0.006c-0.107,0.231-0.237,0.455-0.412,0.667c-1.879-0.041-3.426-1.05-4.521-2.501
		c1.696-0.005,3.391-0.037,5.086-0.096c0.007,0.04,0.006,0.08,0.015,0.12c0.044,0.213,0.058,0.409,0.065,0.601
		C71.501,51.263,71.429,51.661,71.331,52.069z"/>
</g>
</svg>
