<?xml version="1.0" encoding="iso-8859-1"?>
<!-- Generator: Adobe Illustrator 17.0.2, SVG Export Plug-In . SVG Version: 6.00 Build 0)  -->
<!DOCTYPE svg PUBLIC "-//W3C//DTD SVG 1.1//EN" "http://www.w3.org/Graphics/SVG/1.1/DTD/svg11.dtd">
<svg version="1.1" id="Capa_1" xmlns="http://www.w3.org/2000/svg" xmlns:xlink="http://www.w3.org/1999/xlink" x="0px" y="0px"
	 width="100px" height="100px" viewBox="0 0 100 100" style="enable-background:new 0 0 100 100;" xml:space="preserve">
<g>
	<path style="fill:#1D1D1B;" d="M91.782,62.104c-6.636-6.306-11.775-11.632-16.174-16.762c-1.19-1.388-2.663-2.122-4.258-2.122
		c-2.367,0-4.712,1.64-5.834,4.079c-1.116,2.428-0.753,4.99,0.996,7.03c1.617,1.887,3.408,3.87,5.443,6.028
		c-0.503-0.053-1.098-0.077-1.793-0.077c-2.705,0-6.374,0.397-9.052,0.687c-1.403,0.152-2.615,0.283-3.19,0.301
		c-2.881,0.088-4.245,0.185-5.565,0.279c-1.305,0.093-2.654,0.188-5.491,0.276c-10.124,0.316-13.016,0.326-22.597,0.36l-1.206,0.004
		l-0.001-0.015c-0.001,0-0.001,0-0.001,0l-0.031,0.003c-0.371,0.021-0.697-0.108-1.002-0.417
		c-2.262-2.289-2.143-12.235-2.085-17.015c0.015-1.256,0.026-2.248,0.002-2.857c-0.143-3.425-0.253-6.851-0.364-10.277
		c-0.188-5.821-0.384-11.841-0.734-17.758c-0.239-4.039-3.573-6.152-6.743-6.152c-1.818,0-3.493,0.671-4.597,1.842
		c-1.05,1.114-1.551,2.625-1.447,4.369c0.319,5.392,0.529,11.572,0.751,18.115c0.357,10.569,0.729,21.499,1.608,30.236
		c0.007,0.063,0.018,0.124,0.041,0.246c-0.042,0.728,0.019,1.38,0.185,1.993c1.049,3.861,3.136,6.793,6.204,8.715
		c1.872,1.173,4.096,1.742,6.8,1.742c0.46,0,0.92-0.016,1.38-0.046c0.502,0.116,0.994,0.175,1.503,0.18
		c11.979,0.106,19.573-0.264,27.682-0.661c6.154-0.302,12.51-0.613,21.308-0.749c-1.967,2.61-3.712,5.134-5.318,7.689
		c-1.237,1.967-1.348,4.082-0.312,5.956c1.165,2.108,3.611,3.525,6.088,3.525c2.17,0,4.034-1.065,5.249-2.999
		c3.46-5.504,7.671-10.873,12.872-16.415c1.514-1.612,2.086-3.623,1.623-5.599C93.581,64.468,92.911,63.176,91.782,62.104z"/>
</g>
</svg>
