<?xml version="1.0" encoding="iso-8859-1"?>
<!-- Generator: Adobe Illustrator 17.0.2, SVG Export Plug-In . SVG Version: 6.00 Build 0)  -->
<!DOCTYPE svg PUBLIC "-//W3C//DTD SVG 1.1//EN" "http://www.w3.org/Graphics/SVG/1.1/DTD/svg11.dtd">
<svg version="1.1" id="Capa_1" xmlns="http://www.w3.org/2000/svg" xmlns:xlink="http://www.w3.org/1999/xlink" x="0px" y="0px"
	 width="100px" height="100px" viewBox="0 0 100 100" style="enable-background:new 0 0 100 100;" xml:space="preserve">
<g>
	<path style="fill:#1D1D1B;" d="M61.756,6.797c-11.439,1.433-17.84,10.946-19.68,21.631c-0.066,0.386-0.05,0.742,0.027,1.065
		c-0.563,2.813-0.271,5.625,0.59,8.365C32.382,47.463,21.31,56.101,9.819,64.22c-1.685,0.968-3.397,1.888-5.162,2.719
		c-0.917,0.432-1.153,1.227-0.968,1.967c-0.033,0.178-0.051,0.365-0.046,0.568l0.5,19.479c0.031,1.198,0.744,1.929,1.621,2.21
		c0.147,0.111,0.313,0.212,0.506,0.299c3.744,1.692,7.571,2.572,11.689,2.528c0.653-0.007,1.161-0.225,1.54-0.557
		c0.49-0.053,0.983-0.257,1.433-0.662c2.835-2.56,5.648-5.138,8.086-8.088c0.405-0.49,0.58-1.018,0.596-1.532
		c0.186-0.651,0.132-1.359-0.295-1.906c-0.922-1.183-1.78-2.412-2.654-3.631c10.078-8.337,19.916-16.958,29.989-25.3
		c13.838,3.358,28.796,1.779,36.872-11.186c5.211-8.366,1.676-18.088-4.674-24.595C82.06,9.575,71.421,5.586,61.756,6.797z
		 M90.024,37.079c-5.34,12.679-20.91,13.183-32.372,10.361c-0.166-0.041-0.322-0.058-0.477-0.069
		c-0.849-0.365-1.883-0.349-2.766,0.377c-4.344,3.577-8.638,7.214-12.923,10.861c-1.068-0.606-2.108-1.263-3.073-2.024
		c-0.855-0.674-1.99-0.838-2.828,0c-0.703,0.703-0.858,2.152,0,2.828c0.876,0.691,1.776,1.327,2.704,1.919
		c-2.212,1.886-4.425,3.772-6.643,5.653c-0.869-0.936-1.829-1.78-2.971-2.38c-0.966-0.507-2.167-0.254-2.737,0.717
		c-0.531,0.908-0.247,2.23,0.718,2.736c0.723,0.379,1.369,0.901,1.953,1.487c-2.217,1.868-4.437,3.734-6.675,5.578
		c-0.221,0.182-0.376,0.376-0.505,0.575c-0.64,0.806-0.867,2.03-0.209,2.874c1.033,1.324,1.984,2.708,2.972,4.065
		c-0.973,1.083-1.991,2.121-3.034,3.135c-1.616-1.406-3.362-2.642-5.149-3.834c-2.153-1.436-4.153,2.03-2.019,3.454
		c1.473,0.983,2.903,1.985,4.241,3.121c-0.181,0.165-0.36,0.332-0.542,0.496c-3.012,0.014-5.853-0.566-8.613-1.749L8.662,71.096
		c13.438-9.295,26.376-19.228,38.303-30.42c0.094-0.089,0.164-0.182,0.239-0.274c0.758-0.527,1.186-1.44,0.742-2.588
		c-3.997-10.358,2.83-23.722,13.719-26.004c7.515-1.575,15.957,1.873,21.735,6.499C88.987,22.783,93.019,29.972,90.024,37.079z"/>
	<path style="fill:#1D1D1B;" d="M77.82,23.822c-5.542-4.254-13.674-6.177-18.973-1.336c-5.595,5.112-2.991,12.453,2.407,16.299
		c5.081,3.62,13.422,4.871,18.79,1.288C86.722,35.614,83.758,28.38,77.82,23.822z M75.253,36.88c-3.799,1.205-8.402-0.44-11.6-2.454
		c-3.336-2.101-4.383-7.175-0.181-9.044c3.413-1.518,7.712-0.486,10.847,1.385C77.921,29.746,81.22,34.987,75.253,36.88z"/>
</g>
</svg>
