<?xml version="1.0" encoding="iso-8859-1"?>
<!-- Generator: Adobe Illustrator 17.0.2, SVG Export Plug-In . SVG Version: 6.00 Build 0)  -->
<!DOCTYPE svg PUBLIC "-//W3C//DTD SVG 1.1//EN" "http://www.w3.org/Graphics/SVG/1.1/DTD/svg11.dtd">
<svg version="1.1" id="Capa_1" xmlns="http://www.w3.org/2000/svg" xmlns:xlink="http://www.w3.org/1999/xlink" x="0px" y="0px"
	 width="100px" height="100px" viewBox="0 0 100 100" style="enable-background:new 0 0 100 100;" xml:space="preserve">
<g>
	<path style="fill:#1D1D1B;" d="M49.881,96.323c1.606,0.416,3.255,0.649,4.913,0.723c0.759,0.39,1.687,0.451,2.653-0.121
		c24.27-14.378,36.991-49.734,37.824-77.456c0.894-1.717,0.058-4.284-2.159-4.4c-0.676-0.14-1.397-0.066-2.026,0.217
		c-14.667,1.978-29.997,0.399-39.681-12.119c-0.475-0.613-1.05-0.943-1.644-1.07c-0.487-0.299-1.096-0.451-1.823-0.367
		c-1.022,0.118-1.707,0.64-2.103,1.321C45.528,3.203,45.23,3.4,44.957,3.684c-10.068,10.491-23.423,14.732-37.7,14.647
		c-1.573-0.147-3.239,0.784-3.185,2.82C4.811,49.234,20.334,90.319,49.881,96.323z M10.108,24.159
		c14.501-0.371,27.747-5.347,38.19-15.56c10.443,11.844,25.794,14.434,41.006,12.832c-0.068,1.281-0.179,2.551-0.302,3.818
		c-26.125,1.522-52.18,4.417-78.378,4.028C10.396,27.56,10.221,25.85,10.108,24.159z M88.218,31.184
		c-3.448,20.468-14.34,48.59-32.723,60.003c-0.312-0.005-0.616-0.013-0.905-0.03c-0.151-0.037-0.303-0.071-0.47-0.085
		c-0.652-0.055-1.293-0.142-1.931-0.241c-0.349-0.076-0.706-0.162-1.089-0.267c-0.294-0.081-0.569-0.106-0.834-0.107
		c-21.474-4.904-34.274-34.495-38.628-55.278C37.232,35.476,62.693,32.697,88.218,31.184z"/>
	<path style="fill:#1D1D1B;" d="M35.055,64.19v-8.426c3.374,1.802,6.555,3.924,9.454,6.449c2.412,2.101,5.953-1.41,3.525-3.525
		c-3.035-2.644-6.312-4.943-9.813-6.882c1.971-2.242,4.037-4.424,6.401-6.235c1.076-0.825,1.646-2.127,0.894-3.41
		c-0.622-1.062-2.329-1.723-3.41-0.894c-2.592,1.986-4.877,4.246-7.051,6.64v-6.15c0-3.215-4.985-3.215-4.985,0V64.19
		C30.07,67.404,35.055,67.404,35.055,64.19z"/>
	<path style="fill:#1D1D1B;" d="M55.826,60.451c-0.019-4.016-0.203-8.023-0.447-12.028c1.519,1.671,3.012,3.366,4.5,5.067
		c0.215,0.245,0.445,0.414,0.68,0.545c1.082,0.734,2.717,0.769,3.65-0.634c1.351-2.032,2.691-4.068,4.071-6.077
		c0.237,3.744-0.001,7.502-0.733,11.218c-0.619,3.14,4.186,4.478,4.807,1.325c1.287-6.532,1.287-13.071,0-19.604
		c-0.446-2.266-3.046-2.204-4.248-0.829c-0.261,0.162-0.509,0.37-0.723,0.649c-1.994,2.589-3.82,5.29-5.626,8.008
		c-2.433-2.758-4.898-5.486-7.492-8.097c-1.804-1.817-4.395,0.046-4.239,2.032c-0.024,0.175-0.03,0.362-0.016,0.561
		c0.424,5.95,0.803,11.896,0.831,17.863C50.856,63.665,55.841,63.666,55.826,60.451z"/>
</g>
</svg>
