<?xml version="1.0" encoding="iso-8859-1"?>
<!-- Generator: Adobe Illustrator 17.0.2, SVG Export Plug-In . SVG Version: 6.00 Build 0)  -->
<!DOCTYPE svg PUBLIC "-//W3C//DTD SVG 1.1//EN" "http://www.w3.org/Graphics/SVG/1.1/DTD/svg11.dtd">
<svg version="1.1" id="Capa_1" xmlns="http://www.w3.org/2000/svg" xmlns:xlink="http://www.w3.org/1999/xlink" x="0px" y="0px"
	 width="100px" height="100px" viewBox="0 0 100 100" style="enable-background:new 0 0 100 100;" xml:space="preserve">
<g>
	<path style="fill:#1D1D1B;" d="M76.633,2.374c-0.947-0.033-1.587,0.413-1.93,1.038c-0.104,0.074-0.208,0.149-0.307,0.246
		C62.74,15.04,52.34,27.562,41.687,39.863c-2.567-1.751-5.252-3.263-8.036-4.458c-0.872-0.374-1.701-0.204-2.334,0.231
		c-0.245,0.022-0.495,0.07-0.751,0.176c-4.979,2.076-9.004,5.489-12.099,9.845c-0.587,0.253-1.012,0.76-1.238,1.341
		c-0.552,0.488-0.85,1.236-0.56,2.173c4.63,14.961,17.462,35.634,34.754,37.091c0.821,0.069,1.404-0.241,1.767-0.722
		c0.322-0.038,0.654-0.137,0.995-0.391c4.858-3.612,8.567-8.093,10.645-13.819c0.12-0.33,0.158-0.635,0.139-0.916
		c0.044-0.32,0.013-0.673-0.139-1.064c-0.98-2.519-2.166-5.029-3.521-7.491c11.229-11.729,21.783-24.093,33.418-35.433
		c0.416-0.405,0.621-0.856,0.673-1.302c0.537-0.365,0.943-0.943,1.017-1.747C97.55,11.118,88.485,2.783,76.633,2.374z
		 M22.138,50.983c3.731,1.258,7.18,3.138,10.281,5.475c-0.743,3.702-0.919,7.923,1.439,11.082c2.436,3.263,6.452,3.619,10.165,2.928
		c1.637,3.285,2.844,6.795,3.515,10.435C35.626,77.28,26.355,62.363,22.138,50.983z M35.972,59.488
		c2.26,2.177,4.271,4.617,5.964,7.271c-1.822,0.192-3.729-0.039-4.88-1.58C35.881,63.603,35.756,61.493,35.972,59.488z
		 M52.169,80.946c-2.711-15.594-13.534-29.368-28.635-34.373c2.439-2.895,5.465-5.097,9.007-6.623
		c12.303,5.737,22.853,17.903,27.765,30.394C58.713,74.609,55.775,78.201,52.169,80.946z M91.84,22.883
		c-0.124,0.083-0.247,0.177-0.366,0.292C80.115,34.245,69.783,46.289,58.851,57.768c-3.668-5.668-8.254-10.91-13.479-15.152
		c7.554-8.733,15-17.562,22.861-26.012l3.724,3.724c2.098,2.098,5.351-1.155,3.253-3.253l-3.815-3.815
		c2.011-2.101,4.043-4.184,6.125-6.221C86.4,7.713,92.45,13.742,91.84,22.883z"/>
	<path style="fill:#1D1D1B;" d="M8.5,67.891c2.316-0.78,4.596-1.66,6.912-2.44c2.801-0.944,1.645-5.398-1.167-4.451
		c-2.316,0.78-4.596,1.66-6.912,2.44C4.531,64.384,5.688,68.838,8.5,67.891z"/>
	<path style="fill:#1D1D1B;" d="M21.944,83.353l4.879-4.879c2.098-2.098-1.155-5.351-3.253-3.253L18.691,80.1
		C16.594,82.198,19.846,85.45,21.944,83.353z"/>
	<path style="fill:#1D1D1B;" d="M37.459,92.908c0.207-2.035,0.808-4.023,1.552-5.922c0.457-1.168-0.537-2.52-1.642-2.809
		c-1.317-0.344-2.351,0.474-2.809,1.642c-0.899,2.295-1.453,4.638-1.701,7.089c-0.127,1.249,1.142,2.3,2.3,2.3
		C36.507,95.208,37.333,94.154,37.459,92.908z"/>
	<path style="fill:#1D1D1B;" d="M60.547,46.018c3.48,3.48,8.875-1.916,5.396-5.396C62.463,37.143,57.067,42.539,60.547,46.018z"/>
</g>
</svg>
