<?xml version="1.0" encoding="iso-8859-1"?>
<!-- Generator: Adobe Illustrator 17.0.2, SVG Export Plug-In . SVG Version: 6.00 Build 0)  -->
<!DOCTYPE svg PUBLIC "-//W3C//DTD SVG 1.1//EN" "http://www.w3.org/Graphics/SVG/1.1/DTD/svg11.dtd">
<svg version="1.1" id="Capa_1" xmlns="http://www.w3.org/2000/svg" xmlns:xlink="http://www.w3.org/1999/xlink" x="0px" y="0px"
	 width="100px" height="100px" viewBox="0 0 100 100" style="enable-background:new 0 0 100 100;" xml:space="preserve">
<g>
	<path style="fill:#1E1E1C;" d="M82.398,17.405c-0.011-3.211-0.677-6.245-3.898-6.245c-0.093,0-0.181,0.021-0.271,0.028
		c-0.365-0.023-0.746-0.009-1.159,0.097c-22.777,5.834-43.455,18.21-61.794,32.65c-1.031,0.812-1.325,1.802-1.159,2.733
		c-0.071,0.495-0.115,0.99-0.116,1.492c-0.001,1.127,0.563,2.135,1.412,2.778c0.111,0.151,0.22,0.302,0.363,0.447
		c16.455,16.595,35.619,31.422,57.794,39.4c0.72,0.259,1.362,0.266,1.926,0.116c1.322-0.021,2.627-0.122,3.936-0.366
		c1.65-0.307,2.652-2.074,2.548-3.665C81.982,86.798,82,86.735,82,86.66c0-20.998,1.117-41.982,0.12-62.974
		C82.053,22.278,82.406,19.793,82.398,17.405z M75.015,83.876c-20.31-7.408-37.917-21.145-53.119-36.283
		c15.86-12.259,33.668-22.755,52.967-28.437C76.275,40.711,75.146,62.298,75.015,83.876z"/>
</g>
</svg>
