<?xml version="1.0" encoding="iso-8859-1"?>
<!-- Generator: Adobe Illustrator 17.0.2, SVG Export Plug-In . SVG Version: 6.00 Build 0)  -->
<!DOCTYPE svg PUBLIC "-//W3C//DTD SVG 1.1//EN" "http://www.w3.org/Graphics/SVG/1.1/DTD/svg11.dtd">
<svg version="1.1" id="Capa_1" xmlns="http://www.w3.org/2000/svg" xmlns:xlink="http://www.w3.org/1999/xlink" x="0px" y="0px"
	 width="100px" height="100px" viewBox="0 0 100 100" style="enable-background:new 0 0 100 100;" xml:space="preserve">
<g>
	<path style="fill:#1D1D1B;" d="M69.295,39.124c-0.145-0.042-0.295-0.077-0.458-0.094c-3.856-0.403-13.338-0.54-17.21-0.581
		c-0.073-1.795-0.075-4.496-0.063-6.294c0.005-0.7-0.25-1.232-0.634-1.61c-0.511-1.474-2.423-2.473-3.81-1.011
		c-6.383,6.722-13.076,12.225-19.792,18.612c-1.38,1.313-0.583,3.117,0.742,3.754c6.419,5.352,12.823,12.532,19.243,17.883
		c1.022,0.852,2.251,0.676,3.099,0.05c0.876-0.249,1.604-0.956,1.612-2.14c0.018-2.45,0.048-4.898,0.23-7.341
		c3.331-0.078,12.276,0.048,15.574,0.582c1.648,0.267,2.778-1.021,2.938-2.293c0.169-0.309,0.278-0.674,0.281-1.111
		c0.038-5.383,0.093-10.765,0.347-16.143C71.463,39.936,70.416,39.186,69.295,39.124z M66.384,56.068
		c-3.576-0.391-12.765-0.475-16.383-0.323c-1.769,0.074-2.504,1.725-2.2,3.046c-0.08,0.209-0.143,0.43-0.166,0.682
		c-0.13,1.436-0.197,2.874-0.235,4.314c-4.94-4.125-9.876-10.065-14.818-14.188c4.841-4.617,9.651-8.36,14.333-13.138
		c0.027,1.05,0.07,3.005,0.151,4.054c0.066,0.862,0.509,1.472,1.092,1.843c0.374,0.445,0.939,0.745,1.697,0.751
		c3.727,0.027,13.062,0.131,16.775,0.418C66.473,47.706,66.418,51.887,66.384,56.068z"/>
	<path style="fill:#1D1D1B;" d="M96.591,59.69c-0.435-6.409-0.389-12.97-0.345-19.315c0.017-2.266,0.032-4.533,0.027-6.803
		c-0.003-1.26,0.068-2.758,0.144-4.345c0.337-7.089,0.757-15.912-4.081-20.985c-2.302-2.414-5.483-3.638-9.457-3.638
		c-1.662,0-3.326,0.009-4.989,0.018c-1.653,0.009-3.308,0.018-4.961,0.018l-1.58-0.003c-1.736-0.007-3.472-0.01-5.207-0.01
		L54.99,4.64c-7.681,0-15.911-0.046-24.058-0.384l-0.351-0.015C28.993,4.175,27.192,4.1,25.308,4.1
		c-13.297,0-20.039,4.668-20.04,13.873C5.267,25.27,5.19,32.695,5.117,39.875C5.05,46.527,4.979,53.406,4.969,60.179
		c-0.01,6.519,0.075,11.906,0.27,16.955l0.026,0.72c0.153,4.24,0.344,9.518,3.711,13.491c3.592,4.236,8.576,4.334,13.287,4.263
		c0.498-0.007,0.995-0.014,1.487-0.014h0.299c6.587,0,13.306,0.077,19.804,0.152c6.521,0.075,13.267,0.152,19.903,0.152
		c6.849,0,12.868-0.083,18.403-0.256c4.994-0.156,11.459-2.502,13.903-12.789c1.669-7.024,1.16-14.211,0.668-21.161L96.591,59.69z
		 M90.711,81.582c-1.758,7.403-5.586,8.465-8.724,8.562c-5.477,0.171-11.44,0.254-18.231,0.254c-6.605,0-13.334-0.077-19.841-0.152
		c-6.513-0.075-13.248-0.152-19.866-0.152h-0.301c-0.516,0-1.037,0.007-1.561,0.015c-0.507,0.007-1.015,0.014-1.521,0.014
		c-3.494,0-5.841-0.382-7.495-2.333c-2.135-2.521-2.274-6.391-2.409-10.134l-0.027-0.732c-0.191-4.975-0.275-10.292-0.266-16.736
		c0.011-6.748,0.081-13.615,0.148-20.255c0.073-7.194,0.149-14.633,0.15-21.958c0-4.141,1.729-8.374,14.54-8.374
		c1.77,0,3.51,0.073,5.045,0.137l0.352,0.015c8.247,0.342,16.547,0.389,24.286,0.389l11.151-0.011c1.728,0,3.456,0.002,5.185,0.01
		l1.603,0.003c1.663,0,3.327-0.009,4.991-0.018c1.653-0.009,3.307-0.018,4.959-0.018c2.444,0,4.235,0.632,5.477,1.934
		c3.213,3.369,2.84,11.206,2.568,16.928c-0.079,1.656-0.153,3.221-0.15,4.617c0.005,2.253-0.011,4.504-0.027,6.753
		c-0.045,6.446-0.091,13.111,0.356,19.725l0.142,2.019C91.707,68.618,92.186,75.377,90.711,81.582z"/>
	<path style="fill:#1D1D1B;" d="M87.096,31.937c0.064-5.097,0.144-11.441-3.619-15.251c-1.877-1.9-4.423-2.864-7.568-2.864
		c-1.299,0-2.599,0.007-3.898,0.014c-1.289,0.007-2.58,0.014-3.869,0.014l-1.267-0.002c-1.356-0.005-2.711-0.007-4.066-0.007
		l-8.77,0.009c-6.011,0-12.45-0.037-18.824-0.301l-0.274-0.012c-1.251-0.052-2.67-0.111-4.16-0.111
		c-10.817,0-16.303,3.859-16.303,11.47c-0.001,5.723-0.06,11.548-0.117,17.181c-0.054,5.21-0.108,10.597-0.117,15.902
		c-0.008,5.11,0.06,9.342,0.212,13.314l0.021,0.565c0.124,3.415,0.277,7.664,3.05,10.937c2.981,3.519,7.042,3.606,10.881,3.551
		c0.387-0.005,0.772-0.011,1.153-0.011h0.213c5.162,0,10.43,0.061,15.523,0.119c5.116,0.06,10.407,0.121,15.616,0.121
		c5.378,0,10.105-0.066,14.453-0.202c6.215-0.194,10.232-4.003,11.312-10.727c0.206-1.281,0.305-2.675,0.293-4.142
		c-0.049-5.907,0.01-11.925,0.065-17.744c0.062-6.4,0.125-13.017,0.049-19.54C87.075,33.509,87.086,32.741,87.096,31.937z
		 M81.535,53.707c-0.056,5.844-0.114,11.886-0.065,17.841c0.009,1.161-0.065,2.246-0.223,3.226c-0.847,5.267-3.68,6.027-6.055,6.101
		c-4.29,0.135-8.961,0.2-14.281,0.2c-5.177,0-10.452-0.062-15.553-0.12c-5.109-0.06-10.393-0.12-15.587-0.12h-0.216
		c-0.405,0-0.815,0.006-1.227,0.012c-0.397,0.006-0.797,0.011-1.195,0.011c-2.56,0-4.266-0.265-5.413-1.618
		c-1.541-1.818-1.646-4.747-1.749-7.58l-0.021-0.577c-0.149-3.898-0.216-8.06-0.208-13.096c0.009-5.28,0.063-10.656,0.116-15.854
		c0.058-5.646,0.117-11.486,0.118-17.237c0-3.101,1.309-5.97,10.803-5.97c1.375,0,2.733,0.057,3.931,0.107l0.275,0.011
		c6.475,0.269,12.983,0.306,19.053,0.306l8.77-0.009c1.348,0,2.695,0.002,4.043,0.007l1.29,0.002c1.3,0,2.6-0.007,3.899-0.014
		c1.29-0.007,2.579-0.014,3.868-0.014c1.643,0,2.839,0.402,3.655,1.229c2.147,2.175,2.081,7.459,2.032,11.317
		c-0.011,0.851-0.021,1.664-0.012,2.416C81.66,40.749,81.597,47.336,81.535,53.707z"/>
</g>
</svg>
