<?xml version="1.0" encoding="iso-8859-1"?>
<!-- Generator: Adobe Illustrator 17.0.2, SVG Export Plug-In . SVG Version: 6.00 Build 0)  -->
<!DOCTYPE svg PUBLIC "-//W3C//DTD SVG 1.1//EN" "http://www.w3.org/Graphics/SVG/1.1/DTD/svg11.dtd">
<svg version="1.1" id="Capa_1" xmlns="http://www.w3.org/2000/svg" xmlns:xlink="http://www.w3.org/1999/xlink" x="0px" y="0px"
	 width="100px" height="100px" viewBox="0 0 100 100" style="enable-background:new 0 0 100 100;" xml:space="preserve">
<g>
	<path style="fill:#1E1E1C;" d="M74.655,18.867c-0.073-0.949-0.647-1.819-1.474-2.458c-3.888-3.003-7.644-6.169-11.284-9.468
		c-0.916-1.503-3.055-2.332-4.685-0.729C44.205,19,32.818,33.412,18.545,44.879c-0.391,0.314-0.655,0.659-0.819,1.015
		c-0.817,1.074-1.023,2.625,0.153,3.895c13.312,14.376,25.684,29.599,39.333,43.667c0.925,0.954,2.028,1.069,2.974,0.712
		c0.544-0.07,1.093-0.286,1.602-0.712c4.042-3.387,7.928-6.947,11.667-10.667c1.609-1.601,0.812-3.711-0.671-4.642
		c-7.818-9.301-16.744-18.511-24.551-27.821c8.856-8.897,17.392-18.976,25.889-28.204C75.075,21.086,75.112,19.866,74.655,18.867z
		 M42.879,47.212c-0.453,0.444-0.703,0.93-0.817,1.418c-0.728,1.073-0.899,2.567,0.15,3.824
		c7.888,9.448,16.919,18.775,24.851,28.185c-2.394,2.308-4.864,4.534-7.378,6.712C47.469,74.573,36.194,60.943,24.27,47.898
		C37.061,37.295,47.608,24.403,59.275,12.63c2.852,2.517,5.777,4.941,8.762,7.298C59.931,28.981,51.572,38.693,42.879,47.212z"/>
</g>
</svg>
