<?xml version="1.0" encoding="iso-8859-1"?>
<!-- Generator: Adobe Illustrator 17.0.2, SVG Export Plug-In . SVG Version: 6.00 Build 0)  -->
<!DOCTYPE svg PUBLIC "-//W3C//DTD SVG 1.1//EN" "http://www.w3.org/Graphics/SVG/1.1/DTD/svg11.dtd">
<svg version="1.1" id="Capa_1" xmlns="http://www.w3.org/2000/svg" xmlns:xlink="http://www.w3.org/1999/xlink" x="0px" y="0px"
	 width="100px" height="100px" viewBox="0 0 100 100" style="enable-background:new 0 0 100 100;" xml:space="preserve">
<g>
	<path style="fill:#1D1D1B;" d="M82.12,21.276c-0.067-1.408,0.286-3.893,0.278-6.281C82.387,11.784,81.721,8.75,78.5,8.75
		c-0.093,0-0.181,0.021-0.271,0.028c-0.365-0.023-0.746-0.009-1.159,0.097c-22.777,5.834-43.455,18.21-61.794,32.65
		c-1.031,0.812-1.325,1.802-1.159,2.733c-0.071,0.495-0.115,0.99-0.116,1.492c-0.001,1.127,0.563,2.135,1.412,2.778
		c0.111,0.151,0.22,0.302,0.363,0.447c16.455,16.595,35.619,31.422,57.794,39.4c0.72,0.259,1.362,0.266,1.926,0.116
		c1.322-0.021,2.627-0.122,3.936-0.366c1.65-0.307,2.652-2.074,2.548-3.665C81.982,84.388,82,84.325,82,84.25
		C82,63.252,83.117,42.268,82.12,21.276z M75.015,81.466c-20.31-7.408-37.917-21.145-53.119-36.283
		c15.86-12.259,33.668-22.755,52.967-28.437C76.275,38.301,75.146,59.888,75.015,81.466z"/>
</g>
</svg>
