<?xml version="1.0" encoding="iso-8859-1"?>
<!-- Generator: Adobe Illustrator 17.0.2, SVG Export Plug-In . SVG Version: 6.00 Build 0)  -->
<!DOCTYPE svg PUBLIC "-//W3C//DTD SVG 1.1//EN" "http://www.w3.org/Graphics/SVG/1.1/DTD/svg11.dtd">
<svg version="1.1" id="Capa_1" xmlns="http://www.w3.org/2000/svg" xmlns:xlink="http://www.w3.org/1999/xlink" x="0px" y="0px"
	 width="100px" height="100px" viewBox="0 0 100 100" style="enable-background:new 0 0 100 100;" xml:space="preserve">
<g>
	<path d="M44.913,67.138c4.138,0,8.098-0.771,11.752-2.164c4.966,10.512,10.517,20.731,15.649,31.161
		c0.731,1.485,2.229,1.514,3.305,0.805c5.28-0.782,9.974-2.755,14.134-6.225c0.016-0.013,0.026-0.029,0.042-0.042
		c1.382-0.452,2.392-1.916,1.331-3.44c-7.183-10.318-15.291-19.961-22.17-30.488c5.598-5.929,9.041-13.913,9.041-22.691
		c0-5.474-2.281-11.564-3.263-13.929C69.914,8.507,58.879,1.571,45.216,1.571c-4.98,0-10.162,0.951-14.984,2.749
		C17.197,9.182,11.689,23.6,12.014,35.734C12.47,52.756,27.536,67.138,44.913,67.138z M85.506,87.812
		c-2.872,2.183-6.207,3.576-9.759,4.173c-1.719-3.457-3.478-6.893-5.241-10.327c2.197-1.739,4.48-3.349,6.884-4.792
		C80.131,80.487,82.871,84.111,85.506,87.812z M74.369,72.86c-2.139,1.315-4.189,2.755-6.174,4.288
		c-2.419-4.726-4.807-9.467-7.082-14.265c1.455-0.821,2.842-1.75,4.15-2.774C68.151,64.466,71.231,68.683,74.369,72.86z
		 M32.327,9.942c4.159-1.551,8.616-2.371,12.889-2.371c11.321,0,20.061,5.414,23.978,14.853c1.756,4.232,2.804,8.58,2.804,11.629
		c0,14.935-12.149,27.084-27.084,27.084c-14.211,0-26.53-11.707-26.901-25.564C17.744,25.573,22.067,13.769,32.327,9.942z"/>
	<path d="M44.918,55.572c11.855,0,21.5-9.645,21.5-21.5s-9.645-21.5-21.5-21.5c-11.854,0-21.499,9.645-21.499,21.5
		S33.063,55.572,44.918,55.572z M44.918,18.572c8.547,0,15.5,6.953,15.5,15.5c0,8.547-6.953,15.5-15.5,15.5
		c-8.546,0-15.499-6.953-15.499-15.5C29.419,25.525,36.372,18.572,44.918,18.572z"/>
	<path d="M55,35.667c3.224,0,3.224-5,0-5c-6.617,0.001-13.229,0.031-19.833,0.5c-3.197,0.227-3.219,5.229,0,5
		C41.771,35.698,48.383,35.668,55,35.667z"/>
</g>
</svg>
