<?xml version="1.0" encoding="iso-8859-1"?>
<!-- Generator: Adobe Illustrator 17.0.2, SVG Export Plug-In . SVG Version: 6.00 Build 0)  -->
<!DOCTYPE svg PUBLIC "-//W3C//DTD SVG 1.1//EN" "http://www.w3.org/Graphics/SVG/1.1/DTD/svg11.dtd">
<svg version="1.1" id="Capa_1" xmlns="http://www.w3.org/2000/svg" xmlns:xlink="http://www.w3.org/1999/xlink" x="0px" y="0px"
	 width="100px" height="100px" viewBox="0 0 100 100" style="enable-background:new 0 0 100 100;" xml:space="preserve">
<g>
	<path style="fill:#1D1D1B;" d="M34.35,7.023c-4.985,2.333-10.737,5.771-14.648,9.686c-4.815,4.819-10.5,11.482-13.218,17.793
		c-7.469,17.346-2.96,37.277,11.375,49.621c23.361,20.116,65.545,9.536,76.192-19.462c5.086-13.852,0.029-29.447-8.293-40.893
		C74.405,8.153,52.66-1.545,34.35,7.023z M30.312,53.175c-6.962,3.419-13.828,7.027-20.713,10.599
		c-3.427-10.968-1.716-23.52,4.628-33.884c0.85-1.388,1.895-2.775,3.063-4.131c4.996,4.714,9.96,9.461,15.108,14.01
		c0.008,0.007,0.017,0.011,0.025,0.018C30.269,43.822,29.587,48.543,30.312,53.175z M47.189,9.195
		c8.818-0.517,17.382,2.161,24.402,7.157c-0.184,0.174-0.356,0.375-0.5,0.636c-3.015,5.488-6.451,10.7-10.183,15.719
		c-4.14-2.809-9.374-4.152-14.934-2.933c-1.486-6.584-3.086-13.142-4.52-19.738C43.333,9.606,45.245,9.309,47.189,9.195z
		 M35.262,87.969c0.051-0.1,0.107-0.193,0.149-0.304c2.287-6.147,4.683-12.252,7.136-18.334c1.912,0.748,4.029,1.22,6.359,1.329
		c1.555,0.073,3.019-0.017,4.401-0.234c1.836,6.004,3.857,11.947,5.91,17.881C51.347,90.229,42.999,90.185,35.262,87.969z
		 M49.868,66.043c-7.696,0.466-12.272-5.653-13.933-11.412c-1.745-6.047-0.316-13.166,4.956-17.557
		c10.873-9.057,24.354,2.287,23.621,12.724c-0.022,0.312,0.028,0.583,0.114,0.829C64.006,58.18,59.658,65.45,49.868,66.043z
		 M87.915,66.543C87.779,66.519,87.642,66.5,87.5,66.5h-0.25c-0.026,0-0.05,0.007-0.076,0.008c-0.214-0.169-0.465-0.312-0.759-0.419
		c-6.261-2.261-12.442-4.734-18.684-7.049c1.551-3.409,2.299-7.195,2.234-10.823c6.842-0.98,13.64-2.226,20.454-3.385
		C92.288,52.647,91.136,60.067,87.915,66.543z"/>
</g>
</svg>
