<?xml version="1.0" encoding="iso-8859-1"?>
<!-- Generator: Adobe Illustrator 17.0.2, SVG Export Plug-In . SVG Version: 6.00 Build 0)  -->
<!DOCTYPE svg PUBLIC "-//W3C//DTD SVG 1.1//EN" "http://www.w3.org/Graphics/SVG/1.1/DTD/svg11.dtd">
<svg version="1.1" id="Capa_1" xmlns="http://www.w3.org/2000/svg" xmlns:xlink="http://www.w3.org/1999/xlink" x="0px" y="0px"
	 width="100px" height="100px" viewBox="0 0 100 100" style="enable-background:new 0 0 100 100;" xml:space="preserve">
<g>
	<path style="fill:#1D1D1B;" d="M95.826,49.903c-0.018-0.402-0.037-0.801-0.078-1.053c-0.045-0.275-0.135-0.547-0.266-0.809
		c-1.45-2.884-4.085-4.538-7.231-4.538c-1.232,0-2.479,0.255-3.708,0.759c-0.295,0.121-0.567,0.276-0.809,0.461
		c-0.15,0.116-0.341,0.276-0.543,0.449c-0.268,0.227-0.56,0.475-0.805,0.652c-1.026,0.739-1.79,1.576-2.343,2.596
		c-0.012-0.001-0.025-0.002-0.038-0.003c-1.931-0.148-4.214-0.309-6.499-0.382c-0.377-0.011-0.897-0.301-1.092-0.608
		c-1.195-1.886-2.158-3.7-2.946-5.545c-0.232-0.543-0.7-0.961-1.317-1.176c-0.492-0.172-0.969-0.174-1.204-0.169
		c-0.067-0.008-0.136-0.014-0.208-0.014H56.284c-0.376,0-0.729,0.068-1.047,0.202c-0.516,0.216-0.952,0.673-1.166,0.926
		c-0.099,0.117-0.192,0.247-0.276,0.394c-0.92,1.604-1.929,3.305-3.084,5.198c-0.016,0.026-0.031,0.046-0.039,0.062
		c-0.012-0.016-0.024-0.037-0.038-0.064c-2.852-5.608-5.132-10.677-6.973-15.496c-0.416-1.087-1.406-1.762-2.585-1.762
		c-1.138,0-2.143,0.62-2.499,1.542c-0.12,0.309-0.18,0.697-0.238,1.073c-0.047,0.3-0.095,0.61-0.166,0.811
		c-3.075,8.729-5.44,17.617-7.03,26.424c-1.12-1.854-2.247-3.705-3.374-5.555c-2.308-3.789-4.694-7.707-6.975-11.597
		c-0.482-0.822-1.243-1.275-2.143-1.275c-0.691,0-1.393,0.279-1.904,0.747c-0.406,0.33-0.737,0.783-0.958,1.311
		c-0.548,1.307-1.11,2.608-1.671,3.909l-0.473,1.096c-0.132,0.309-0.559,0.589-0.894,0.589H5.081c-1.683,0-2.563,1.325-2.563,2.634
		c0,1.308,0.88,2.633,2.563,2.633h9.601c0.056,0,0.107-0.004,0.138-0.006c0.053,0.003,0.128,0.007,0.221,0.007
		c0.354,0,0.681-0.059,0.971-0.173c0.698-0.277,1.272-0.881,1.615-1.701c0.393-0.936,0.792-1.867,1.196-2.798
		c1.424,2.373,2.863,4.736,4.302,7.101c2.138,3.513,4.349,7.144,6.472,10.746c0.073,0.122,0.148,0.272,0.229,0.433
		c0.244,0.482,0.521,1.029,0.907,1.336c0.421,0.336,0.988,0.521,1.597,0.521c1.28,0,2.688-0.845,2.902-2.459
		c1.167-8.763,3.262-17.902,6.229-27.173c1.886,4.295,4.035,8.709,6.565,13.484c0.165,0.312,0.372,0.574,0.616,0.781
		c0.445,0.379,1.333,0.687,1.981,0.687c0.893-0.001,1.661-0.435,2.164-1.219c1.48-2.313,2.977-4.77,4.574-7.509
		c0.181-0.31,0.67-0.591,1.027-0.591h6.451c0.339,0,0.788,0.285,0.942,0.597c0.903,1.824,1.974,3.636,3.183,5.383
		c0.072,0.104,0.148,0.198,0.28,0.346c0.172,0.206,0.529,0.635,1.028,0.881c0.345,0.171,0.735,0.259,1.157,0.261
		c2.618,0.014,5.264,0.185,7.507,0.351c0.316,0.023,0.681,0.329,0.796,0.668c0.313,0.92,0.778,1.866,1.382,2.813
		c0.16,0.251,0.35,0.468,0.563,0.645c0.255,0.212,0.525,0.344,0.708,0.431l0.042,0.034c1.615,1.215,3.493,1.857,5.428,1.857
		c1.199,0,2.39-0.245,3.537-0.728c0.096-0.04,0.188-0.085,0.279-0.133c0.04-0.021,0.104-0.048,0.179-0.08
		c0.166-0.072,0.374-0.163,0.549-0.264c0.183-0.106,0.354-0.235,0.51-0.382c2.169-2.043,3.189-4.78,2.951-7.914
		C95.846,50.357,95.836,50.129,95.826,49.903z M84.874,53.051c-0.354-0.762-0.444-1.398-0.282-2.002
		c0.304-1.129,2.255-1.79,3.354-2.161c0.069-0.023,0.133-0.051,0.148-0.062c0.023-0.006,0.147-0.028,0.339-0.028
		c0.17,0,0.339,0.018,0.489,0.052c0.476,0.109,0.884,0.346,1.249,0.723c0.278,0.288,0.423,0.711,0.431,0.82
		c0.003,0.148,0.016,0.298,0.04,0.448c0.169,1.076-0.058,2.082-0.674,2.989c-0.227,0.334-0.827,0.734-1.233,0.821
		c-1.007,0.218-1.868,0.083-2.798-0.44C85.565,54.004,85.059,53.451,84.874,53.051z"/>
</g>
</svg>
