<?xml version="1.0" encoding="iso-8859-1"?>
<!-- Generator: Adobe Illustrator 17.0.2, SVG Export Plug-In . SVG Version: 6.00 Build 0)  -->
<!DOCTYPE svg PUBLIC "-//W3C//DTD SVG 1.1//EN" "http://www.w3.org/Graphics/SVG/1.1/DTD/svg11.dtd">
<svg version="1.1" id="Capa_1" xmlns="http://www.w3.org/2000/svg" xmlns:xlink="http://www.w3.org/1999/xlink" x="0px" y="0px"
	 width="100px" height="100px" viewBox="0 0 100 100" style="enable-background:new 0 0 100 100;" xml:space="preserve">
<g>
	<path style="fill:#1D1D1B;" d="M52.4,6.75c-0.23-0.016-0.436,0.006-0.63,0.043c-0.161-0.031-0.332-0.046-0.514-0.043
		c-14.992,0.22-28.04,7.262-30.264,23.087c-2.016,14.345,4.414,29.319,13.15,40.509c-1.341,0.995-2.42,2.315-2.523,4.063
		c-0.105,1.775,0.821,3.183,2.032,4.33c-1.105,0.945-1.941,2.148-2.032,3.677c-0.148,2.504,1.742,4.286,3.612,5.622
		c0.072,0.052,0.144,0.084,0.216,0.124c-0.538,0.656-0.913,1.422-0.967,2.33c-0.125,2.105,1.465,3.604,3.037,4.727
		c0.107,0.077,0.214,0.133,0.321,0.184c0.307,0.317,0.732,0.536,1.291,0.559c7.991,0.327,15.954,0.501,23.756-1.511
		c0.505-0.131,0.852-0.403,1.073-0.738c0.184-0.2,0.335-0.451,0.431-0.766c0.579-1.902,0.353-3.824-0.628-5.427
		c0.548-0.123,1.095-0.254,1.642-0.395c0.602-0.155,1.013-0.479,1.276-0.878c0.219-0.238,0.398-0.536,0.512-0.911
		c0.715-2.351,0.387-4.723-0.899-6.674c0.151-0.128,0.284-0.267,0.387-0.423c0.219-0.238,0.398-0.536,0.512-0.911
		c0.779-2.56,0.332-5.149-1.256-7.187C83.105,50.058,86.851,9.185,52.4,6.75z M37.868,84.374c-0.099-0.1-0.204-0.198-0.328-0.287
		c-0.441-0.315-0.819-0.668-1.186-1.068c-0.103-0.113-0.129-0.318-0.15-0.363c0.149-0.407,0.712-0.777,1.261-1.066
		c0.196,0.052,0.403,0.088,0.635,0.088c8.118-0.014,16.229-0.201,24.339-0.547c0.396,0.57,0.549,1.179,0.523,1.854
		C54.702,84.898,46.303,84.712,37.868,84.374z M37.868,76.367c-0.099-0.1-0.204-0.198-0.328-0.287
		c-0.441-0.315-0.819-0.668-1.186-1.068c-0.103-0.113-0.129-0.318-0.15-0.363c0.149-0.407,0.712-0.777,1.261-1.066
		c0.196,0.052,0.403,0.088,0.635,0.088c8.118-0.014,16.229-0.201,24.339-0.547c0.396,0.57,0.549,1.179,0.523,1.854
		C54.702,76.89,46.303,76.705,37.868,76.367z M39.733,92.138c-0.083-0.084-0.171-0.167-0.276-0.241
		c-0.371-0.265-0.689-0.562-0.997-0.898c-0.087-0.095-0.108-0.267-0.126-0.305c0.126-0.342,0.599-0.653,1.061-0.897
		c0.165,0.044,0.339,0.074,0.535,0.074c6.826-0.012,13.645-0.169,20.464-0.46c0.333,0.479,0.461,0.991,0.44,1.559
		C53.888,92.578,46.826,92.422,39.733,92.138z M62.222,67.476c-0.307,0.347-0.473,0.72-0.548,1.093
		c-3.063,0.127-6.126,0.216-9.19,0.297c0.412-6.071,0.479-12.148,0.485-18.231c4.2-3.744,7.033-8.615,8.31-14.107
		c0.667-2.871-3.744-4.09-4.412-1.216c-1.044,4.489-3.18,8.303-6.432,11.447c-3.446-2.742-5.912-6.373-7.078-10.684
		c-0.77-2.845-5.184-1.636-4.412,1.216c1.515,5.602,4.869,10.184,9.447,13.622c-0.009,6.025-0.079,12.044-0.491,18.056
		c-3.007,0.057-6.014,0.11-9.021,0.119c-0.082-0.159-0.18-0.316-0.306-0.468c-8.012-9.719-13.513-22.274-13.326-35.012
		c0.221-15.106,12.078-22.079,26.008-22.283c0.225-0.003,0.427-0.04,0.617-0.093c0.165,0.047,0.339,0.079,0.527,0.093
		C82.865,13.479,76.953,50.826,62.222,67.476z"/>
</g>
</svg>
