<?xml version="1.0" encoding="utf-8"?>
<!-- Generator: Adobe Illustrator 17.0.2, SVG Export Plug-In . SVG Version: 6.00 Build 0)  -->
<!DOCTYPE svg PUBLIC "-//W3C//DTD SVG 1.1//EN" "http://www.w3.org/Graphics/SVG/1.1/DTD/svg11.dtd">
<svg version="1.1" id="Capa_1" xmlns="http://www.w3.org/2000/svg" xmlns:xlink="http://www.w3.org/1999/xlink" x="0px" y="0px"
	 width="100px" height="100px" viewBox="0 0 100 100" enable-background="new 0 0 100 100" xml:space="preserve">
<g>
	<path fill="#1D1D1B" d="M29.431,41.959c-0.122-1.025-0.866-1.968-2.25-1.968c-4.493,0-8.985-0.008-13.476-0.151
		c-1.558-0.049-2.307,1.12-2.264,2.283c-0.261,0.342-0.416,0.788-0.4,1.338c0.378,13.651,2.122,27.228,2.351,40.886
		c0.019,1.104,0.705,1.789,1.547,2.057c0.312,0.189,0.679,0.323,1.118,0.357c3.813,0.295,7.626,0.599,11.439,0.905
		c0.493,0.04,0.896-0.057,1.228-0.232c1.201,0.033,2.411-0.69,2.376-2.182c-0.33-14.238-1.083-28.463-1.567-42.696
		C29.525,42.339,29.485,42.144,29.431,41.959z M18.035,82.391c-0.341-12.683-1.849-25.304-2.256-37.985
		c3.042,0.07,6.083,0.099,9.125,0.104c0.457,12.847,1.093,25.687,1.429,38.538C23.567,82.827,20.802,82.607,18.035,82.391z"/>
	<path fill="#1D1D1B" d="M18.839,10.27c-0.161,0.017-0.309,0.052-0.453,0.092c-6.99,0.317-12.029,5.915-12.367,12.941
		c-0.337,7.007,5.986,12.646,12.977,12.626c6.601-0.019,12.342-5.159,13.253-11.325C33.43,16.617,27.362,9.361,18.839,10.27z
		 M20.583,31.19C9.132,34.202,7.616,15.116,18.155,14.769c0.209,0.036,0.432,0.054,0.685,0.027c0.077-0.008,0.147-0.008,0.223-0.014
		c0.286,0.019,0.574,0.039,0.876,0.084c0.408,0.061,0.781,0.025,1.118-0.074C29.876,15.732,29.499,28.844,20.583,31.19z"/>
	<path fill="#1D1D1B" d="M88.685,44.333c-7.74-11.659-20.526-15.24-33.874-12.544c-0.13-1.646-0.361-3.285-0.603-4.921
		c-0.151-1.024-1.292-1.639-2.314-1.642c-0.18-0.026-0.371-0.036-0.579-0.019c-3.599,0.29-7.202,0.441-10.812,0.453
		c-1.408,0.005-2.153,0.984-2.254,2.029c-0.049,0.167-0.084,0.344-0.097,0.535c-1.226,18.435-1.543,36.902-1.098,55.369
		c0.042,1.699,1.654,2.402,2.98,2.12c4.754,0.28,9.5,0.413,14.258,0.143c0.801-0.045,1.383-0.403,1.76-0.895
		c0.433-0.357,0.69-0.91,0.59-1.67c-1.161-8.862-8.154-36.227,7.415-35.948c0.179,0.032,0.369,0.05,0.577,0.041
		c19.245-0.789,10.036,24.962,10.849,37.17c0.111,1.665,1.709,2.374,3.013,2.127c0.184,0.063,0.377,0.113,0.591,0.136
		c4.064,0.44,8.137,0.742,12.224,0.905c1.555,0.062,2.304-1.098,2.262-2.259c0.066-0.228,0.105-0.475,0.088-0.758
		C92.781,70.582,96.748,56.479,88.685,44.333z M88.851,83.077c-2.934-0.157-5.861-0.394-8.785-0.694
		c-0.712-15.284,7.021-38.05-14.976-39.526c-20.07-0.19-15.3,25.709-13.412,38.568c-3.324,0.092-6.645,0.014-9.967-0.151
		c-0.353-17.049-0.048-34.096,1.024-51.118c2.395-0.046,4.786-0.165,7.176-0.333c0.169,1.372,0.292,2.748,0.306,4.133
		c0.006,0.626,0.235,1.109,0.579,1.466c0.402,0.952,1.378,1.666,2.71,1.319c13.77-3.584,25.45,0.268,32.645,12.298
		C92.371,59.438,88.026,71.214,88.851,83.077z"/>
</g>
</svg>
