<?xml version="1.0" encoding="iso-8859-1"?>
<!-- Generator: Adobe Illustrator 17.0.2, SVG Export Plug-In . SVG Version: 6.00 Build 0)  -->
<!DOCTYPE svg PUBLIC "-//W3C//DTD SVG 1.1//EN" "http://www.w3.org/Graphics/SVG/1.1/DTD/svg11.dtd">
<svg version="1.1" id="Capa_1" xmlns="http://www.w3.org/2000/svg" xmlns:xlink="http://www.w3.org/1999/xlink" x="0px" y="0px"
	 width="100px" height="100px" viewBox="0 0 100 100" style="enable-background:new 0 0 100 100;" xml:space="preserve">
<g>
	<path style="fill:#1D1D1B;" d="M48.472,33.053c-0.504,0-1.002,0.016-1.486,0.047c-0.086,0.005-0.167,0.017-0.27,0.035
		c-0.323-0.022-0.652-0.002-0.97,0.069c-7.613,1.679-14.813,8.419-13.163,17.604c1.448,8.06,8.882,13.909,17.677,13.909c0,0,0,0,0,0
		c0.582,0,1.17-0.026,1.749-0.078c8.08-0.727,16.407-6.969,16.358-16.158C68.313,38.46,58.077,33.053,48.472,33.053z M39.18,50.036
		c-0.503-1.941-0.251-3.773,0.749-5.446c1.348-2.254,3.984-4.057,7.07-4.842l0.042,0.002l0.068-0.004
		c0.446-0.028,0.9-0.043,1.358-0.043c5.676,0,12.554,2.328,13.256,8.89c0.189,1.768-0.335,3.42-1.559,4.91
		c-2.292,2.793-6.375,4.317-9.406,4.59C45.375,58.577,40.499,55.117,39.18,50.036z"/>
	<path style="fill:#1D1D1B;" d="M44.641,25.194c7.551-0.744,16.105,1.91,23.708,7.323c0.678,0.483,1.396,0.729,2.132,0.729
		c0,0,0,0,0,0c1.558,0,2.967-1.136,3.507-2.826c0.57-1.782-0.007-3.552-1.505-4.618c-9.878-7.036-22.005-9.931-32.871-7.789
		C28.916,20.12,20.625,29.599,19.178,41.234c-1.43-0.033-2.86-0.062-4.29-0.092c-2.887-0.059-5.775-0.117-8.662-0.216l-0.157-0.003
		c-2.402,0-3.691,1.897-3.723,3.771c-0.034,1.982,1.265,4.035,3.812,4.122c2.804,0.096,5.609,0.149,8.414,0.202
		c2.695,0.051,5.39,0.102,8.085,0.19l0.148,0.003c1.18,0,2.201-0.479,2.887-1.351c0.756-0.71,1.15-1.677,1.14-2.804
		C26.73,34.409,34.053,26.241,44.641,25.194z"/>
	<path style="fill:#1D1D1B;" d="M93.955,49.136c-2.804-0.096-5.609-0.149-8.414-0.202c-2.695-0.051-5.39-0.102-8.085-0.19
		l-0.148-0.003c-1.18,0-2.201,0.479-2.887,1.351c-0.757,0.71-1.151,1.677-1.14,2.804c0.102,10.649-7.221,18.817-17.809,19.864
		c-7.551,0.748-16.105-1.91-23.707-7.323c-0.678-0.483-1.396-0.729-2.132-0.729c-1.558,0-2.967,1.136-3.508,2.826
		c-0.57,1.782,0.007,3.552,1.505,4.618c7.697,5.482,16.759,8.501,25.517,8.501c2.481,0,4.956-0.239,7.354-0.712
		c10.696-2.107,18.986-11.586,20.434-23.222c1.43,0.034,2.86,0.062,4.291,0.092c2.887,0.059,5.774,0.117,8.661,0.216l0.157,0.003
		c2.401,0,3.69-1.897,3.723-3.771C97.801,51.275,96.502,49.223,93.955,49.136z"/>
</g>
</svg>
