<?xml version="1.0" encoding="iso-8859-1"?>
<!-- Generator: Adobe Illustrator 17.0.2, SVG Export Plug-In . SVG Version: 6.00 Build 0)  -->
<!DOCTYPE svg PUBLIC "-//W3C//DTD SVG 1.1//EN" "http://www.w3.org/Graphics/SVG/1.1/DTD/svg11.dtd">
<svg version="1.1" id="Capa_1" xmlns="http://www.w3.org/2000/svg" xmlns:xlink="http://www.w3.org/1999/xlink" x="0px" y="0px"
	 width="100px" height="100px" viewBox="0 0 100 100" style="enable-background:new 0 0 100 100;" xml:space="preserve">
<g>
	<path style="fill:#1D1D1B;" d="M50.568,63.036c3.767,0,7.544-0.468,11.226-1.39c1.909-0.478,2.989-2.029,2.751-3.955
		c-0.228-1.849-1.75-3.813-4.124-3.813c-0.348,0-0.704,0.045-1.057,0.134c-2.879,0.721-5.84,1.086-8.802,1.086
		c-7.57,0-15.149-2.371-21.917-6.858c-5.279-3.502-14.384-10.794-16.043-20.3c-0.578-3.308,0.078-6.113,1.949-8.338
		c2.399-2.854,6.717-4.558,11.551-4.558c1.665,0,3.277,0.205,4.794,0.609c9.13,2.431,17.74,10.121,20.472,18.287
		c0.556,1.663,1.912,2.655,3.625,2.655c1.379,0,2.719-0.671,3.497-1.751c0.721-1,0.888-2.237,0.471-3.483
		C54.735,18.732,37.541,6.793,23.58,6.793c-9.737,0-16.415,5.645-18.804,15.896C1.689,35.936,15.354,48.2,21.372,52.858
		c8.602,6.658,18.697,10.178,29.194,10.178C50.567,63.036,50.567,63.036,50.568,63.036z"/>
	<path style="fill:#1D1D1B;" d="M79.682,50.019C71.079,43.36,60.983,39.84,50.485,39.84c-3.768,0-7.544,0.468-11.227,1.39
		c-1.908,0.478-2.988,2.03-2.751,3.955c0.228,1.849,1.751,3.813,4.125,3.814c0,0,0,0,0,0c0.347,0,0.703-0.045,1.056-0.134
		c10.242-2.562,21.306-0.469,30.72,5.772c5.279,3.502,14.384,10.795,16.043,20.299c0.577,3.308-0.079,6.113-1.949,8.339
		c-2.399,2.854-6.717,4.558-11.551,4.558c-1.664,0-3.277-0.205-4.794-0.608c-9.131-2.433-17.741-10.124-20.472-18.288
		c-0.556-1.663-1.912-2.655-3.625-2.655c-1.379,0-2.719,0.67-3.496,1.75c-0.721,1.001-0.888,2.238-0.471,3.484
		c4.225,12.629,21.418,24.568,35.38,24.568c9.737,0,16.415-5.645,18.804-15.896C99.364,66.941,85.7,54.677,79.682,50.019z"/>
</g>
</svg>
