<?xml version="1.0" encoding="iso-8859-1"?>
<!-- Generator: Adobe Illustrator 17.0.2, SVG Export Plug-In . SVG Version: 6.00 Build 0)  -->
<!DOCTYPE svg PUBLIC "-//W3C//DTD SVG 1.1//EN" "http://www.w3.org/Graphics/SVG/1.1/DTD/svg11.dtd">
<svg version="1.1" id="Capa_1" xmlns="http://www.w3.org/2000/svg" xmlns:xlink="http://www.w3.org/1999/xlink" x="0px" y="0px"
	 width="100px" height="100px" viewBox="0 0 100 100" style="enable-background:new 0 0 100 100;" xml:space="preserve">
<g>
	<path style="fill:#1D1D1B;" d="M92.797,31.871c-0.396-0.444-0.979-0.74-1.754-0.74c-5.583,0.001-75.229,0.025-80.805,0.328
		c-1.023,0.056-1.711,0.613-2.072,1.332c-0.267,0.372-0.419,0.858-0.389,1.458c0.276,5.498,0.964,2.944,0.344,8.409
		c-0.146,1.282,0.587,2.027,1.526,2.262c0.342,0.173,0.757,0.26,1.263,0.199c5.452-0.653,74.997-0.99,80.477-1.313
		c1.501-0.088,2.283-1.25,2.358-2.422c0.059-0.214,0.102-0.441,0.104-0.696c0.025-4.748-0.662-1.443,0.225-6.114
		C94.311,33.322,93.674,32.368,92.797,31.871z M13.31,39.937c0.041-2.313-0.555-3.663-0.555-3.663
		c4.012-0.162,72.094-0.208,76.11-0.216c0,0-0.58,1.628,0.1,2.972C85.097,39.266,17.164,39.537,13.31,39.937z"/>
	<path style="fill:#1D1D1B;" d="M93.73,49.791c-0.361-0.719-1.049-1.276-2.072-1.332c-5.576-0.303-75.223-0.327-80.805-0.328
		c-0.775,0-1.358,0.296-1.755,0.74c-0.876,0.497-1.513,1.452-1.275,2.704c0.887,4.671,0.2,1.365,0.225,6.114
		c0.001,0.255,0.044,0.482,0.104,0.696c0.075,1.173,0.857,2.334,2.358,2.422c5.479,0.323,75.025,0.66,80.477,1.313
		c0.506,0.061,0.921-0.027,1.263-0.199c0.94-0.235,1.673-0.98,1.527-2.262c-0.62-5.465,0.068-2.911,0.344-8.409
		C94.149,50.649,93.997,50.164,93.73,49.791z M88.584,56.937c-3.854-0.4-71.787-0.671-75.655-0.906c0.68-1.344,0.1-2.972,0.1-2.972
		c4.016,0.008,72.098,0.054,76.11,0.216C89.14,53.274,88.544,54.624,88.584,56.937z"/>
	<path style="fill:#1D1D1B;" d="M92.797,65.871c-0.396-0.444-0.979-0.74-1.754-0.74c-5.583,0.001-75.229,0.025-80.805,0.328
		c-1.023,0.056-1.711,0.613-2.072,1.332c-0.267,0.372-0.419,0.858-0.389,1.458c0.276,5.498,0.964,2.944,0.344,8.409
		c-0.146,1.282,0.587,2.027,1.526,2.262c0.342,0.173,0.757,0.26,1.263,0.199c5.452-0.653,74.997-0.99,80.477-1.313
		c1.501-0.088,2.283-1.25,2.358-2.422c0.059-0.214,0.102-0.441,0.104-0.696c0.025-4.748-0.662-1.443,0.225-6.114
		C94.311,67.322,93.674,66.368,92.797,65.871z M13.31,73.937c0.041-2.313-0.555-3.663-0.555-3.663
		c4.012-0.162,72.094-0.208,76.11-0.216c0,0-0.58,1.628,0.1,2.972C85.097,73.266,17.164,73.537,13.31,73.937z"/>
</g>
</svg>
