<?xml version="1.0" encoding="iso-8859-1"?>
<!-- Generator: Adobe Illustrator 17.0.2, SVG Export Plug-In . SVG Version: 6.00 Build 0)  -->
<!DOCTYPE svg PUBLIC "-//W3C//DTD SVG 1.1//EN" "http://www.w3.org/Graphics/SVG/1.1/DTD/svg11.dtd">
<svg version="1.1" id="Capa_1" xmlns="http://www.w3.org/2000/svg" xmlns:xlink="http://www.w3.org/1999/xlink" x="0px" y="0px"
	 width="100px" height="100px" viewBox="0 0 100 100" style="enable-background:new 0 0 100 100;" xml:space="preserve">
<g>
	<path style="fill:#1E1E1C;" d="M81.166,9.773c0.002-0.256-0.039-0.482-0.097-0.695c0.112-1.253-0.624-2.576-2.229-2.534
		C58.584,7.075,38.333,6.282,18.076,6.25c-1.686-0.003-2.423,1.478-2.215,2.777c-0.068,0.226-0.114,0.469-0.111,0.745
		c0.306,24.171,1.136,58.901,1.163,83.076c0,0.542,0.154,0.983,0.399,1.331c0.149,1.025,0.886,1.931,2.217,1.898
		c12.11-0.301,28.565-0.829,40.95-1.144c0.156,0.016,0.322,0.011,0.494-0.013c0.236-0.006,0.48-0.012,0.713-0.018
		c0.479-0.012,0.869-0.154,1.193-0.365c10.192-0.893,19.893-6.121,20.321-17.836c0.018-0.501-0.098-0.915-0.298-1.248
		C82.946,57.064,80.983,28.168,81.166,9.773z M68.587,72.148c-1.426,0.008-2.803,1.121-2.166,2.831
		c1.281,3.439,1.867,7.71-0.103,10.999c-2.383,3.978-6.634,3.87-10.676,4.38c-2.471,0.311-5.099,0.146-7.591,0.217
		c-1.939,0.055-26.494,0.653-26.494,0.749C21.5,68.053,20.73,34.226,20.419,10.96c18.702,0.081,37.398,0.723,56.099,0.323
		c-0.063,17.103,1.609,44.72,1.723,61.817c-2.901-0.915-5.899-1.302-8.996-1.095C69.004,72.022,68.789,72.077,68.587,72.148z
		 M70.414,88.051c1.878-3.2,2.347-7.128,1.371-11.384c2.262,0.088,4.491,0.524,6.604,1.42c0.009,0.027,0.015,0.055,0.025,0.081
		C77.728,83.212,74.537,86.306,70.414,88.051z"/>
	<path style="fill:#1E1E1C;" d="M32.086,37.002c-3.571,0-3.571,5.591,0,5.591S35.657,37.002,32.086,37.002z"/>
	<path style="fill:#1E1E1C;" d="M65.866,37.002H42.607c-3.571,0-3.571,5.591,0,5.591h23.258
		C69.437,42.594,69.437,37.002,65.866,37.002z"/>
	<path style="fill:#1E1E1C;" d="M32.086,24.701c-3.571,0-3.571,5.591,0,5.591S35.657,24.701,32.086,24.701z"/>
	<path style="fill:#1E1E1C;" d="M65.866,24.701H42.607c-3.571,0-3.571,5.591,0,5.591h23.258
		C69.437,30.293,69.437,24.701,65.866,24.701z"/>
	<path style="fill:#1E1E1C;" d="M31.532,53.776c3.571,0,3.571-5.591,0-5.591S27.961,53.776,31.532,53.776z"/>
	<path style="fill:#1E1E1C;" d="M65.866,48.185H41.223c-3.571,0-3.571,5.591,0,5.591h24.643
		C69.437,53.776,69.437,48.185,65.866,48.185z"/>
	<path style="fill:#1E1E1C;" d="M32.086,61.325c-3.571,0-3.571,5.591,0,5.591S35.657,61.325,32.086,61.325z"/>
	<path style="fill:#1E1E1C;" d="M65.589,61.325c-6.371-0.001-18.276-0.021-24.643-0.28c-3.572-0.145-3.558,5.447,0,5.591
		c6.366,0.258,18.272,0.279,24.643,0.28C69.16,66.916,69.16,61.325,65.589,61.325z"/>
</g>
</svg>
