<?xml version="1.0" encoding="iso-8859-1"?>
<!-- Generator: Adobe Illustrator 17.0.2, SVG Export Plug-In . SVG Version: 6.00 Build 0)  -->
<!DOCTYPE svg PUBLIC "-//W3C//DTD SVG 1.1//EN" "http://www.w3.org/Graphics/SVG/1.1/DTD/svg11.dtd">
<svg version="1.1" id="Capa_1" xmlns="http://www.w3.org/2000/svg" xmlns:xlink="http://www.w3.org/1999/xlink" x="0px" y="0px"
	 width="100px" height="100px" viewBox="0 0 100 100" style="enable-background:new 0 0 100 100;" xml:space="preserve">
<g>
	<path style="fill:#1D1D1B;" d="M25.03,15.523c0.036-0.706-0.134-1.356-0.493-1.888c-0.536-1.011-1.51-1.625-2.682-1.688
		c-5.047-0.275-10.08-0.298-15.221-0.299c-0.88,0-1.643,0.304-2.219,0.882c-1.194,0.746-1.77,2.044-1.507,3.425
		C3.628,19.748,3.975,23.753,4,28.563c0.001,0.259,0.036,0.519,0.104,0.791c0.154,1.689,1.402,2.928,3.068,3.025
		c5.3,0.312,10.072,0.617,14.808,1.185c0.139,0.017,0.273,0.024,0.402,0.024c0.429,0,0.835-0.086,1.208-0.256
		c1.406-0.399,2.2-1.606,2.03-3.104C25,24.773,24.808,19.963,25.03,15.523z M18.821,26.761c-2.977-0.287-5.867-0.488-8.421-0.648
		c-0.086-2.785-0.297-5.419-0.64-7.997c3.407,0.015,6.179,0.063,8.743,0.154C18.471,20.99,18.576,23.787,18.821,26.761z"/>
	<path style="fill:#1D1D1B;" d="M28.518,28.562c0.001,0.262,0.034,0.517,0.104,0.793c0.155,1.689,1.402,2.927,3.067,3.025
		c1.995,0.118,11.421,0.236,22.335,0.374c16.306,0.205,36.6,0.46,39.524,0.811c0.139,0.017,0.273,0.024,0.402,0.024
		c0.429,0,0.835-0.086,1.208-0.256c1.406-0.399,2.2-1.606,2.029-3.104c-0.619-5.456-0.812-10.266-0.589-14.705
		c0.036-0.706-0.134-1.356-0.493-1.888c-0.536-1.011-1.51-1.625-2.682-1.688c-5.32-0.29-61.704-0.299-62.273-0.299
		c-0.88,0-1.644,0.304-2.219,0.882c-1.194,0.746-1.77,2.044-1.507,3.425C28.146,19.745,28.492,23.75,28.518,28.562z M90.395,26.813
		c-4.641-0.182-19.987-0.33-33.704-0.462c-9.585-0.092-18.704-0.181-21.774-0.261c-0.087-2.777-0.298-5.404-0.64-7.975l2.226,0.003
		c30.991,0.038,48.975,0.094,53.569,0.167C90.041,21.013,90.147,23.822,90.395,26.813z"/>
	<path style="fill:#1D1D1B;" d="M96.6,42.025c0.036-0.706-0.134-1.356-0.493-1.888c-0.536-1.011-1.509-1.625-2.682-1.689
		c-5.229-0.285-59.944-0.298-62.271-0.299c-0.881,0-1.646,0.305-2.221,0.882c-1.194,0.746-1.77,2.044-1.507,3.425
		c0.72,3.79,1.066,7.795,1.092,12.605c0.001,0.264,0.034,0.518,0.104,0.794c0.155,1.689,1.402,2.928,3.067,3.025
		c1.997,0.118,11.432,0.236,22.357,0.374c16.297,0.205,36.579,0.46,39.503,0.811c0.139,0.017,0.273,0.024,0.402,0.024
		c0.429,0,0.835-0.086,1.208-0.256c1.406-0.399,2.2-1.606,2.029-3.104C96.57,51.274,96.377,46.464,96.6,42.025z M90.395,53.315
		c-4.643-0.182-20.002-0.33-33.73-0.463c-9.572-0.093-18.679-0.181-21.748-0.261c-0.087-2.778-0.298-5.405-0.64-7.976l2.238,0.003
		c30.984,0.038,48.964,0.094,53.557,0.167C90.041,47.515,90.147,50.323,90.395,53.315z"/>
	<path style="fill:#1D1D1B;" d="M96.6,68.527c0.036-0.706-0.134-1.356-0.493-1.888c-0.536-1.011-1.509-1.625-2.682-1.688
		c-5.324-0.291-61.703-0.299-62.275-0.299c-0.879,0-1.643,0.305-2.217,0.882c-1.194,0.745-1.77,2.044-1.507,3.425
		c0.72,3.789,1.066,7.795,1.092,12.605c0.001,0.259,0.035,0.52,0.104,0.794c0.155,1.689,1.402,2.928,3.067,3.025
		c1.994,0.117,11.411,0.236,22.314,0.373c16.315,0.205,36.619,0.461,39.545,0.812c0.139,0.017,0.273,0.024,0.402,0.024
		c0.429,0,0.835-0.086,1.208-0.256c1.406-0.399,2.2-1.606,2.029-3.104C96.57,77.775,96.377,72.965,96.6,68.527z M90.395,79.817
		c-4.643-0.182-20.002-0.33-33.73-0.463c-9.572-0.093-18.679-0.181-21.748-0.261c-0.087-2.777-0.298-5.405-0.64-7.976l2.552,0.003
		c11.851,0.015,46.412,0.058,53.243,0.167C90.041,74.017,90.147,76.826,90.395,79.817z"/>
	<path style="fill:#1D1D1B;" d="M25.03,42.025c0.036-0.706-0.134-1.356-0.493-1.888c-0.536-1.01-1.509-1.625-2.682-1.689
		c-5.04-0.274-10.075-0.298-15.219-0.299c-0.881,0-1.645,0.305-2.221,0.882c-1.193,0.746-1.77,2.044-1.507,3.425
		C3.628,46.25,3.975,50.255,4,55.065c0.001,0.259,0.036,0.519,0.104,0.791c0.155,1.689,1.403,2.928,3.067,3.025
		c5.498,0.324,10.079,0.618,14.808,1.185c0.139,0.017,0.273,0.024,0.402,0.024c0.429,0,0.835-0.086,1.208-0.256
		c1.406-0.399,2.2-1.606,2.03-3.104C25,51.275,24.808,46.465,25.03,42.025z M18.821,53.263c-3.01-0.289-5.974-0.495-8.421-0.647
		c-0.086-2.786-0.297-5.42-0.64-7.997c2.534,0.01,5.596,0.043,8.743,0.154C18.471,47.492,18.576,50.288,18.821,53.263z"/>
	<path style="fill:#1D1D1B;" d="M25.03,67.458c0.036-0.706-0.134-1.356-0.493-1.888c-0.536-1.011-1.509-1.625-2.682-1.688
		c-5.039-0.275-10.074-0.299-15.219-0.3c-0.881,0-1.645,0.305-2.221,0.883c-1.194,0.745-1.77,2.043-1.507,3.425
		C3.628,71.682,3.975,75.688,4,80.498c0.001,0.259,0.036,0.519,0.104,0.791c0.155,1.689,1.403,2.928,3.068,3.025
		c5.292,0.312,10.058,0.615,14.808,1.185c0.139,0.017,0.273,0.024,0.402,0.024c0.429,0,0.835-0.086,1.208-0.256
		c1.406-0.399,2.2-1.606,2.03-3.104C25,76.707,24.808,71.897,25.03,67.458z M18.821,78.695c-3.01-0.289-5.974-0.495-8.421-0.647
		c-0.086-2.786-0.297-5.42-0.64-7.997c2.536,0.011,5.6,0.043,8.743,0.153C18.471,72.925,18.576,75.721,18.821,78.695z"/>
</g>
</svg>
