<?xml version="1.0" encoding="iso-8859-1"?>
<!-- Generator: Adobe Illustrator 17.0.2, SVG Export Plug-In . SVG Version: 6.00 Build 0)  -->
<!DOCTYPE svg PUBLIC "-//W3C//DTD SVG 1.1//EN" "http://www.w3.org/Graphics/SVG/1.1/DTD/svg11.dtd">
<svg version="1.1" id="Capa_1" xmlns="http://www.w3.org/2000/svg" xmlns:xlink="http://www.w3.org/1999/xlink" x="0px" y="0px"
	 width="100px" height="100px" viewBox="0 0 100 100" style="enable-background:new 0 0 100 100;" xml:space="preserve">
<g>
	<path style="fill:#1D1D1B;" d="M53.487,6.018c-1.26,0-2.574,0.042-3.845,0.122h-1.55c-0.42,0-0.832,0.09-1.227,0.27
		c-9.717,0.194-18.024,5.496-21.715,13.877c-3.621,8.221-1.884,17.559-0.263,23.868c3.727,14.506,12.203,30.09,23.494,43.392
		c-1.458-0.037-2.913-0.075-4.353-0.114c-2.379-0.063-4.758-0.126-7.138-0.182l-0.11-0.001c-2.135,0-3.27,1.463-3.287,2.909
		c-0.018,1.497,1.127,3.04,3.35,3.091c2.377,0.056,4.753,0.119,7.13,0.183C50.76,93.613,57.777,93.8,64.688,93.8
		c1.987,0,3.973-0.015,5.961-0.05c2.221-0.039,3.37-1.573,3.356-3.068c-0.013-1.457-1.153-2.932-3.39-2.932c0,0-0.001,0-0.002,0
		c-1.975,0.035-3.951,0.05-5.926,0.05c-1.602,0-3.211-0.012-4.822-0.03c12.053-12.837,20.664-31.278,22.72-48.964
		c0.77-6.617,0.434-16.111-5.534-23.76C72.379,9.056,64.45,6.018,53.487,6.018z M76.18,40.732
		c-2.387,15.962-10.797,32.772-22.032,44.12c-8.896-10.215-16.207-22.488-21.172-35.556c-3.315-8.727-4.449-16.005-3.466-22.253
		c1.346-8.548,8.75-14.519,18.006-14.519c0.183,0,0.366,0.002,0.634,0.008c0.434,0,0.846-0.087,1.227-0.26h1.04
		c0.197,0,0.398-0.022,0.61-0.067c0.823-0.035,1.651-0.054,2.479-0.054c8.801,0,15.039,2.315,19.071,7.079
		C76.422,23.773,77.635,31.007,76.18,40.732z"/>
	<path style="fill:#1D1D1B;" d="M53.014,15.693c-0.19,0-0.379,0.002-0.504,0.008c-9.064-0.363-15.668,5.408-16.26,14.09
		c-0.679,9.941,8.3,17.315,17.112,17.964c0.389,0.029,0.781,0.043,1.172,0.043c0,0,0,0,0.001,0c8.694,0,16.965-6.737,18.061-14.712
		c0.55-4.001-0.534-7.693-3.135-10.677C65.904,18.329,59.448,15.693,53.014,15.693z M66.059,32.519
		c-0.734,5.34-7.093,8.646-12.618,8.646c-6.424-0.028-10.25-5.435-10.239-10.647c0.008-3.979,2.298-8.231,8.7-8.231
		c0.121,0,0.242,0.001,0.385,0.005c0.034,0.002,0.068,0.003,0.1,0.002c0.179-0.005,0.36-0.008,0.542-0.008
		c3.564,0,8.7,1.116,11.443,4.262C65.809,28.196,66.376,30.206,66.059,32.519z"/>
</g>
</svg>
