<?xml version="1.0" encoding="iso-8859-1"?>
<!-- Generator: Adobe Illustrator 17.0.2, SVG Export Plug-In . SVG Version: 6.00 Build 0)  -->
<!DOCTYPE svg PUBLIC "-//W3C//DTD SVG 1.1//EN" "http://www.w3.org/Graphics/SVG/1.1/DTD/svg11.dtd">
<svg version="1.1" id="Capa_1" xmlns="http://www.w3.org/2000/svg" xmlns:xlink="http://www.w3.org/1999/xlink" x="0px" y="0px"
	 width="100px" height="100px" viewBox="0 0 100 100" style="enable-background:new 0 0 100 100;" xml:space="preserve">
<g>
	<path style="fill:#1D1D1B;" d="M77.788,41.448c-0.213-0.064-0.438-0.111-0.688-0.125c-0.902-0.052-1.804-0.107-2.706-0.16
		c0.659,0.039,0.932-11.798,0.864-12.905c-0.25-4.073-1.059-8.285-2.896-11.959c-3.637-7.275-11.227-8.761-18.565-9.201
		c-7.909-0.475-16.047,0.578-21.244,7.373c-5.424,7.092-6.578,16.312-6.009,25.008c-1.554,0.042-3.106,0.076-4.661,0.151
		c-1.691,0.081-2.557,1.403-2.606,2.722c-0.056,0.207-0.095,0.426-0.104,0.666c-0.605,15.579-0.092,31.179-1.016,46.748
		c-0.12,2.014,1.63,2.853,3.174,2.543c0.269,0.094,0.559,0.161,0.891,0.167c18.863,0.352,37.718,1.009,56.571,1.694
		c1.707,0.062,2.571-1.199,2.61-2.519c0.281-0.403,0.451-0.915,0.438-1.546c-0.306-15.365-0.086-30.741-1.355-46.07
		C80.354,42.4,79.072,41.542,77.788,41.448z M32.566,28.55c0.719-3.394,2.073-6.712,4.029-9.584
		c3.24-4.757,10.079-6.789,16.166-6.785c2.123,0.001,4.154,0.25,5.909,0.718c7.33,1.952,10.923,7.215,11.294,14.611
		c0.208,4.141-0.089,8.684-0.897,12.754c-0.04,0.2-0.055,0.391-0.056,0.577c-1.133-0.069-2.266-0.136-3.399-0.205
		c0.859-3.997,0.916-8.014-0.822-11.902c-2.062-4.614-7.411-6.624-12.036-7.301c-0.24-0.035-0.467-0.036-0.686-0.018
		c-0.22-0.051-0.454-0.083-0.713-0.078c-4.481,0.089-8.902,1.285-11.89,4.824c-3.085,3.655-3.551,8.653-3.068,13.242
		c-1.479-0.014-2.958-0.02-4.437-0.012C31.418,39.394,32.375,29.451,32.566,28.55z M60.155,40.316
		c-6.11-0.351-12.22-0.659-18.334-0.815c-0.347-3.086-0.364-6.247,1.192-9.029c1.655-2.958,5.245-3.654,8.343-3.715
		c0.113-0.002,0.21-0.025,0.316-0.038c3.422,0.532,6.686,1.521,8.438,4.75C61.504,34.037,60.937,37.427,60.155,40.316z
		 M23.708,87.087c0.692-14.032,0.358-28.085,0.825-42.124c16.937-0.604,33.818,0.679,50.72,1.67
		c1.01,13.989,0.896,28.012,1.146,42.03C58.839,88.028,41.278,87.43,23.708,87.087z"/>
	<path style="fill:#1D1D1B;" d="M49.998,52.998c-3.729,0-6.752,3.023-6.752,6.752c0,3.022,1.986,5.58,4.724,6.441
		c-0.193,3.934-0.22,7.87-0.22,11.809c0,2.579,4,2.579,4,0c0-3.933,0.027-7.864,0.22-11.792c2.767-0.844,4.78-3.415,4.78-6.458
		C56.75,56.021,53.727,52.998,49.998,52.998z"/>
</g>
</svg>
