<?xml version="1.0" encoding="iso-8859-1"?>
<!-- Generator: Adobe Illustrator 17.0.2, SVG Export Plug-In . SVG Version: 6.00 Build 0)  -->
<!DOCTYPE svg PUBLIC "-//W3C//DTD SVG 1.1//EN" "http://www.w3.org/Graphics/SVG/1.1/DTD/svg11.dtd">
<svg version="1.1" id="Capa_1" xmlns="http://www.w3.org/2000/svg" xmlns:xlink="http://www.w3.org/1999/xlink" x="0px" y="0px"
	 width="100px" height="100px" viewBox="0 0 100 100" style="enable-background:new 0 0 100 100;" xml:space="preserve">
<g>
	<path style="fill:#1D1D1B;" d="M76.3,6.843c-0.802,0-1.614,0.036-2.413,0.108c-8.248,0.746-15.768,5.755-21.247,14.131
		C46.285,11.708,35.78,5.689,25.675,5.689c-2.221,0-4.421,0.287-6.539,0.854c-6.544,1.752-11.88,6.624-14.638,13.369
		c-3.056,7.473-2.53,16.226,1.373,22.844c5.361,9.089,14.552,14.637,23.439,20.002c4.565,2.756,9.286,5.604,13.335,8.868
		c1.206,0.971,2.721,2.237,4.021,3.615c-1.64,1.617-4.883,6.989-4.914,7.053c-1.019,2.144-2.419,6.676-1.202,10.067
		c0.52,1.446,1.454,2.494,2.779,3.114c0.68,0.318,1.395,0.479,2.125,0.479c3.139,0,6.046-2.974,7.933-5.468
		c3.453-4.567,3.969-9.36,1.535-14.253c4.176-3.778,8.72-7.29,13.117-10.689c7.563-5.846,15.384-11.891,21.606-19.49
		c3.04-3.713,12.44-16.772,5.796-28.938C91.929,10.683,84.773,6.843,76.3,6.843z M49.114,85.408
		c-0.632,1.207-1.27,2.078-1.934,2.635c0.134-1.794,0.817-3.543,1.256-4.506c0.123-0.271,0.93-1.519,1.511-2.354
		C50.129,82.603,49.854,83.993,49.114,85.408z M41.556,18.188c1.947,1.604,3.668,3.416,5.116,5.382
		c0.172,0.234,0.437,0.676,0.745,1.188c1.777,2.96,3.686,5.85,5.753,5.85c1.025,0,1.893-0.721,2.58-2.144
		c4.384-9.078,11.379-14.491,19.696-15.242c0.483-0.044,0.974-0.065,1.458-0.065c6.363,0,11.959,3.725,13.926,9.268
		c2.591,7.307-1.51,15.966-12.536,26.471c-4.735,4.512-9.986,8.568-15.063,12.492c-3.985,3.079-8.102,6.26-11.957,9.649
		c-3.467-3.843-8.014-7.062-11.623-9.458c-2.141-1.421-4.455-2.812-6.905-4.284C20.702,50.056,7.053,41.852,9.205,26.576
		c1.23-8.734,7.731-14.378,16.562-14.378c0.649,0,1.313,0.031,1.975,0.095C32.598,12.755,37.504,14.849,41.556,18.188z"/>
</g>
</svg>
