<?xml version="1.0" encoding="iso-8859-1"?>
<!-- Generator: Adobe Illustrator 17.0.2, SVG Export Plug-In . SVG Version: 6.00 Build 0)  -->
<!DOCTYPE svg PUBLIC "-//W3C//DTD SVG 1.1//EN" "http://www.w3.org/Graphics/SVG/1.1/DTD/svg11.dtd">
<svg version="1.1" id="Capa_1" xmlns="http://www.w3.org/2000/svg" xmlns:xlink="http://www.w3.org/1999/xlink" x="0px" y="0px"
	 width="100px" height="100px" viewBox="0 0 100 100" style="enable-background:new 0 0 100 100;" xml:space="preserve">
<g>
	<path style="fill:#1D1D1B;" d="M74.223,22.315c-0.946-0.119-1.904-0.18-2.847-0.18c-8.262,0-14.648,4.417-18.907,8.715
		c-4.098-8.356-10.501-13.722-18.215-15.203c-1.199-0.23-2.438-0.347-3.685-0.347c-9.277,0-19.323,6.649-23.888,15.811
		c-4.605,9.244-3.104,19.33,4.466,29.979c7.624,10.726,17.14,20.057,26.341,29.08l1.887,1.851c0.72,1.367,2.091,2.235,3.571,2.235
		c0,0,0,0,0.001,0c0.613,0,1.22-0.147,1.802-0.437l3.321-1.651C59.612,86.44,71.548,80.516,82.117,72.68
		c10.495-7.781,15.048-16.906,13.531-27.122C94.121,35.267,85.689,23.759,74.223,22.315z M88.162,51.282
		C87.788,60.024,77.98,66.292,71.49,70.44c-8.846,5.655-18.349,10.428-27.581,15.025c-7.488-7.361-15.204-14.975-21.964-23.213
		c-4.886-5.955-12.269-14.954-9.918-23.379c2.124-7.61,9.973-15.759,18.271-15.759c0.533,0,1.07,0.035,1.594,0.103
		c9.601,1.252,13.783,10.794,15.211,15.18c-0.062,0.883,0.22,1.747,0.815,2.471c0.789,0.96,2.014,1.534,3.276,1.534
		c1.311,0,2.498-0.634,3.26-1.739c2.211-3.21,8.286-10.676,16.925-10.676c0.91,0,1.833,0.086,2.742,0.257
		C82.605,31.832,88.531,42.661,88.162,51.282z"/>
	<path style="fill:#1D1D1B;" d="M59.22,45.351c-4.1-0.516-7.665,1.579-10.271,4.532c-1.552-3.684-4.313-6.862-8.432-7.652
		c-4.837-0.928-10.003,2.611-12.112,6.844c-2.324,4.664-0.853,9.223,2.029,13.277c3.786,5.326,8.54,9.868,13.183,14.43
		c0.246,0.561,0.908,0.982,1.62,0.628c5.936-2.958,11.99-5.839,17.34-9.804c3.996-2.962,6.806-6.842,6.041-11.996
		C67.923,50.932,64.107,45.967,59.22,45.351z"/>
</g>
</svg>
