<?xml version="1.0" encoding="iso-8859-1"?>
<!-- Generator: Adobe Illustrator 17.0.2, SVG Export Plug-In . SVG Version: 6.00 Build 0)  -->
<!DOCTYPE svg PUBLIC "-//W3C//DTD SVG 1.1//EN" "http://www.w3.org/Graphics/SVG/1.1/DTD/svg11.dtd">
<svg version="1.1" id="Capa_1" xmlns="http://www.w3.org/2000/svg" xmlns:xlink="http://www.w3.org/1999/xlink" x="0px" y="0px"
	 width="100px" height="100px" viewBox="0 0 100 100" style="enable-background:new 0 0 100 100;" xml:space="preserve">
<g>
	<path style="fill:#1D1D1B;" d="M29.98,20.025c-0.135-0.124-0.275-0.219-0.417-0.299c-0.697-0.762-1.938-1.102-2.942-0.232
		c-2.677,2.322-5.091,4.839-7.22,7.674c-0.031,0.041-0.048,0.082-0.075,0.124c-0.593,0.704-0.715,1.708,0.224,2.455
		c19.912,15.844,43.562,39.356,60.681,58.177c0.044,0.053,0.079,0.108,0.131,0.159l3.536,3.536c0.134,0.134,0.274,0.236,0.417,0.322
		c0.708,0.695,1.86,0.937,2.765,0.032l5.48-5.48c0.149-0.149,0.257-0.306,0.347-0.465c0.827-0.684,1.183-1.935,0.184-2.893
		C73.365,64.224,50.094,38.52,29.98,20.025z M40.76,42.578c-5.548-5.022-11.212-9.888-16.996-14.54
		c1.294-1.571,2.723-3.028,4.224-4.405c5.31,4.911,10.484,9.967,15.592,15.093C42.816,40.187,41.886,41.443,40.76,42.578z"/>
	<path style="fill:#1D1D1B;" d="M12.735,30.859l-6.453,0.783c-2.561,0.311-2.079,4.282,0.482,3.971l6.453-0.783
		C15.778,34.519,15.296,30.549,12.735,30.859z"/>
	<path style="fill:#1D1D1B;" d="M17.01,18.759c-2.283-1.537-4.467-3.213-6.75-4.75c-2.146-1.445-4.146,2.022-2.019,3.454
		c2.283,1.537,4.467,3.213,6.75,4.75C17.137,23.659,19.136,20.192,17.01,18.759z"/>
	<path style="fill:#1D1D1B;" d="M20.99,5.259c-1.021,0.598-1.155,1.738-0.717,2.736c0.794,1.813,1.769,3.533,2.75,5.25
		c1.279,2.239,4.735,0.225,3.454-2.019c-0.981-1.717-1.956-3.437-2.75-5.25C23.289,4.978,21.848,4.757,20.99,5.259z"/>
	<path style="fill:#1D1D1B;" d="M33.816,11.07L32.8,15.196c-0.617,2.505,3.267,3.461,3.884,0.957l1.016-4.127
		C38.317,9.522,34.433,8.565,33.816,11.07z"/>
</g>
</svg>
