<?xml version="1.0" encoding="iso-8859-1"?>
<!-- Generator: Adobe Illustrator 17.0.2, SVG Export Plug-In . SVG Version: 6.00 Build 0)  -->
<!DOCTYPE svg PUBLIC "-//W3C//DTD SVG 1.1//EN" "http://www.w3.org/Graphics/SVG/1.1/DTD/svg11.dtd">
<svg version="1.1" id="Capa_1" xmlns="http://www.w3.org/2000/svg" xmlns:xlink="http://www.w3.org/1999/xlink" x="0px" y="0px"
	 width="100px" height="100px" viewBox="0 0 100 100" style="enable-background:new 0 0 100 100;" xml:space="preserve">
<g>
	<path style="fill:#1D1D1B;" d="M39.181,12.825c-11.5,0-20.855,9.356-20.855,20.855s9.356,20.855,20.855,20.855
		s20.855-9.356,20.855-20.855S50.681,12.825,39.181,12.825z M39.181,48.536c-8.191,0-14.855-6.664-14.855-14.855
		s6.664-14.855,14.855-14.855s14.855,6.664,14.855,14.855S47.373,48.536,39.181,48.536z"/>
	<path style="fill:#1D1D1B;" d="M62.441,55.653c5.431-5.742,8.772-13.481,8.772-21.99c0-5.303-2.208-11.196-3.157-13.484
		C63.387,8.926,52.7,2.207,39.469,2.207c-4.819,0-9.833,0.92-14.5,2.66C12.34,9.577,7.004,23.539,7.318,35.287
		c0.441,16.486,15.03,30.413,31.857,30.413c4.01,0,7.848-0.747,11.389-2.099c3.095,6.58,6.383,13.084,9.777,19.51
		c1.666,3.154,2.949,6.935,5.011,9.841c3.352,4.725,14.121-2.114,17.103-4.601c0.016-0.013,0.025-0.028,0.04-0.041
		c1.334-0.437,2.309-1.849,1.285-3.32C76.868,75.059,69.068,65.778,62.441,55.653z M13.316,35.126
		c-0.257-9.615,3.894-20.962,13.749-24.637c4.003-1.493,8.292-2.282,12.404-2.282c10.883,0,19.282,5.202,23.045,14.271
		c1.69,4.073,2.699,8.253,2.699,11.184c0,14.356-11.68,26.037-26.037,26.037C25.515,59.699,13.673,48.446,13.316,35.126z
		 M54.857,61.583c1.409-0.795,2.751-1.693,4.018-2.684c2.77,4.174,5.723,8.215,8.731,12.219c-2.064,1.269-4.043,2.659-5.959,4.139
		C59.329,70.726,57.039,66.182,54.857,61.583z M68.937,89.576c-1.659-3.336-3.357-6.653-5.059-9.968
		c2.12-1.678,4.324-3.232,6.645-4.625c2.645,3.496,5.289,6.994,7.833,10.565C75.583,87.656,72.364,89,68.937,89.576z"/>
</g>
</svg>
