<?xml version="1.0" encoding="iso-8859-1"?>
<!-- Generator: Adobe Illustrator 17.0.2, SVG Export Plug-In . SVG Version: 6.00 Build 0)  -->
<!DOCTYPE svg PUBLIC "-//W3C//DTD SVG 1.1//EN" "http://www.w3.org/Graphics/SVG/1.1/DTD/svg11.dtd">
<svg version="1.1" id="Capa_1" xmlns="http://www.w3.org/2000/svg" xmlns:xlink="http://www.w3.org/1999/xlink" x="0px" y="0px"
	 width="100px" height="100px" viewBox="0 0 100 100" style="enable-background:new 0 0 100 100;" xml:space="preserve">
<g>
	<path style="fill:#1D1D1B;" d="M90.13,29.956C82.598,14.142,65.931,3.211,49.647,4.134C33.364,3.211,16.697,14.142,9.165,29.956
		c-3.846,8.075-4.462,17.566-4.764,26.361c-0.383,11.157-0.127,22.419,0.491,33.56c0.113,2.038,2,2.892,3.531,2.57
		c7.655,0.362,15.304,0.676,22.969,0.537c1.202-0.022,1.986-0.676,2.37-1.521c0.229-0.382,0.375-0.843,0.372-1.403
		c-0.052-9.127-0.774-18.211-0.108-27.336c0.356-4.884,1.237-9.903,3.377-14.343c2.468-5.119,6.947-6.905,12.157-6.996
		c0.029,0,0.058-0.001,0.086,0c0.029,0,0.058,0.001,0.086,0c5.211,0.091,9.69,1.877,12.157,6.996
		c2.14,4.44,3.021,9.459,3.377,14.343c0.666,9.125-0.056,18.209-0.108,27.336c-0.003,0.56,0.142,1.02,0.372,1.403
		c0.385,0.845,1.168,1.5,2.37,1.521c7.665,0.138,15.314-0.175,22.969-0.537c1.531,0.323,3.418-0.532,3.531-2.57
		c0.618-11.141,0.874-22.403,0.491-33.56C94.592,47.522,93.975,38.031,90.13,29.956z M10.215,87.043
		c-0.193-3.395-0.39-6.855-0.546-10.345c6.203,0.204,12.412,0.081,18.61,0.41c0.094,3.724,0.253,7.27,0.329,10.404
		C22.473,87.541,16.345,87.322,10.215,87.043z M89.079,87.043c-6.13,0.279-12.257,0.497-18.393,0.469
		c0.073-3.008,0.222-6.398,0.317-9.959h18.584C89.438,80.754,89.257,83.926,89.079,87.043z M89.806,72.071H71.089
		c0.027-16.306-2.335-34.083-18.594-35.999c-0.197-0.056-0.407-0.094-0.632-0.109c-0.512-0.035-0.991-0.032-1.482-0.041
		c-0.243-0.008-0.483-0.019-0.733-0.02c-0.249,0.001-0.49,0.013-0.733,0.02c-0.49,0.01-0.97,0.007-1.481,0.041
		c-0.226,0.015-0.436,0.054-0.633,0.109c-16.11,1.898-18.575,19.368-18.593,35.55c-6.243-0.328-12.496-0.2-18.743-0.413
		C9.145,60.011,9.5,48.657,12.068,38.167c4.261-17.401,20.115-28.8,36.137-28.6c0.264,0.065,0.548,0.103,0.872,0.079
		c0.19-0.014,0.38-0.018,0.57-0.028c0.19,0.011,0.38,0.014,0.57,0.028c0.324,0.024,0.608-0.014,0.872-0.079
		c16.022-0.2,31.876,11.199,36.137,28.6C89.861,48.926,90.168,60.595,89.806,72.071z"/>
</g>
</svg>
