<?xml version="1.0" encoding="iso-8859-1"?>
<!-- Generator: Adobe Illustrator 17.0.2, SVG Export Plug-In . SVG Version: 6.00 Build 0)  -->
<!DOCTYPE svg PUBLIC "-//W3C//DTD SVG 1.1//EN" "http://www.w3.org/Graphics/SVG/1.1/DTD/svg11.dtd">
<svg version="1.1" id="Capa_1" xmlns="http://www.w3.org/2000/svg" xmlns:xlink="http://www.w3.org/1999/xlink" x="0px" y="0px"
	 width="100px" height="100px" viewBox="0 0 100 100" style="enable-background:new 0 0 100 100;" xml:space="preserve">
<g>
	<path style="fill:#1D1D1B;" d="M94.822,21.167c-0.054-1.536-1.063-2.999-3.049-2.933c-27.581,0.907-55.223-2.086-82.63,2.224
		c-2.326,0.366-2.719,2.551-1.879,4.215c0.008,0.03,0.017,0.06,0.025,0.09c-0.162,0.394-0.245,0.851-0.207,1.386
		C8.445,45.181,10.5,64.15,12.359,83.137c0.02,0.204,0.065,0.391,0.114,0.575c-0.033,1.608,0.979,3.199,3.052,3.118
		c25.682-0.999,51.428-0.116,77.04-2.638c0.22-0.022,0.423-0.068,0.62-0.123c1.517-0.083,3.006-1.092,3.074-3.043
		c0.681-19.721-0.496-39.402-1.319-59.099C94.928,21.655,94.885,21.403,94.822,21.167z M90.007,58.938
		c-4.288-6.169-9.135-11.92-14.226-17.48c4.594-3.106,9.022-6.455,13.239-10.105C89.428,40.548,89.826,49.741,90.007,58.938z
		 M86.991,24.667c-10.035,9.105-21.319,16.346-33.462,22.349c-12.215-6.083-23.294-14.01-34.673-21.478
		C41.458,23.122,64.283,25.051,86.991,24.667z M13.698,29.718c6.084,3.945,12.057,8.063,18.137,12.001
		c-5.088,8.433-10.648,16.603-14.727,25.51C15.865,54.735,14.649,42.239,13.698,29.718z M89.995,78.075
		c-23.683,2.128-47.475,1.539-71.22,2.325c0.255-0.315,0.462-0.7,0.595-1.17c3.533-12.55,11.135-23.111,17.817-34.126
		c4.526,2.793,9.141,5.44,13.941,7.788c0.056,0.027,0.111,0.038,0.166,0.062c0.906,0.776,2.2,1.118,3.557,0.466
		c5.348-2.57,10.529-5.397,15.535-8.483c7.307,7.908,14.114,16.147,19.445,25.551c0.081,0.143,0.176,0.257,0.267,0.378
		C90.084,73.269,90.056,75.672,89.995,78.075z"/>
</g>
</svg>
