<?xml version="1.0" encoding="iso-8859-1"?>
<!-- Generator: Adobe Illustrator 17.0.2, SVG Export Plug-In . SVG Version: 6.00 Build 0)  -->
<!DOCTYPE svg PUBLIC "-//W3C//DTD SVG 1.1//EN" "http://www.w3.org/Graphics/SVG/1.1/DTD/svg11.dtd">
<svg version="1.1" id="Capa_1" xmlns="http://www.w3.org/2000/svg" xmlns:xlink="http://www.w3.org/1999/xlink" x="0px" y="0px"
	 width="100px" height="100px" viewBox="0 0 100 100" style="enable-background:new 0 0 100 100;" xml:space="preserve">
<g>
	<path style="fill:#1E1E1C;" d="M41.939,27.63c-4.53,0-8.815,1.105-12.734,3.285c-6.908,3.842-13.362,13.54-14.386,21.618
		c-0.959,7.573,2.074,15.61,8.774,23.243c0.412,0.469,0.836,0.928,1.263,1.384c0.13,0.191,0.278,0.356,0.45,0.501l0.472,0.477
		c0.265,0.279,0.573,0.486,0.92,0.617c5.008,3.714,11.351,5.758,17.882,5.758c0,0,0,0,0.001,0c6.695,0,13.154-2.206,18.186-6.213
		c11.264-8.968,13.604-24.593,5.442-36.344C62.071,33.12,52.005,27.63,41.939,27.63z M59.893,74.065
		c-4.029,3.403-9.378,5.277-15.062,5.277c-5.825,0-11.55-1.965-15.72-5.394c-5.099-5.449-7.976-11.033-9.051-17.57
		c-1.104-6.709,4.957-16.543,10.906-20.526c3.134-2.098,6.633-3.161,10.402-3.161c9.195,0,17.443,6.053,22.096,11.717
		C70.589,53.081,68.987,66.385,59.893,74.065z"/>
	<path style="fill:#1E1E1C;" d="M93.459,8.067c-0.09-0.616-0.358-1.043-0.717-1.322c-0.37-0.38-0.877-0.65-1.54-0.693
		C84.317,5.604,79.11,7.01,69.448,7.502c-1.668,0.085-1.958,2.029-1.458,3.217c0.01,0.514,0.204,1.042,0.675,1.513
		c1.408,1.408,2.819,2.813,4.282,4.162c-2.466,2.788-5.009,5.502-7.606,8.169c-12.25-8.385-28.196-10.937-41.869-3.333
		C13.559,26.744,4.928,40.433,3.569,51.158c-2.511,19.81,15.293,34.875,15.625,34.969c13.903,10.443,35.955,12.512,50.818,0.679
		c16.007-12.743,18.415-34.491,7.519-50.178c-0.281-0.405-0.575-0.801-0.869-1.197c2.673-2.882,5.334-5.774,7.931-8.724
		c1.613,1.536,3.241,3.057,4.823,4.626c0.983,0.975,2.207,0.796,3.04,0.119c0.931-0.208,1.637-0.926,1.628-2.18
		C94.014,19.246,94.561,15.652,93.459,8.067z M89.111,24.579c-1.052-0.992-2.104-1.984-3.13-3.003
		c-1.341-1.33-3.139-0.523-3.764,0.785c-2.206,2.533-4.467,5.017-6.743,7.487c-0.601,0.652-1.202,1.303-1.805,1.953
		c-0.661,0.713-1.317,1.431-1.98,2.142c-0.717,0.77-0.769,1.673-0.458,2.43c0.121,0.295,0.295,0.567,0.513,0.801
		c0.187,0.2,0.403,0.368,0.638,0.499c0.211,0.247,0.426,0.493,0.631,0.743c10.86,13.22,9.001,34.132-5.304,44.534
		c-12.673,9.216-31.621,8.633-45.545-0.215C11.454,71.322,10.624,71.171,8.247,56.724c-1.71-10.396,7.446-24.961,16.257-30.859
		c12.361-8.275,26.994-4.857,38.313,3.109c0.006-0.006,0.01-0.013,0.017-0.019c0.036,0.034,0.071,0.069,0.107,0.103
		c0.167,0.163,0.338,0.323,0.503,0.488c0.259,0.259,0.57,0.434,0.9,0.542c0.275,0.09,0.563,0.135,0.851,0.122
		c0.608,0.079,1.256-0.096,1.822-0.665c0.699-0.703,1.37-1.431,2.059-2.143c0.477-0.492,0.952-0.986,1.424-1.482
		c2.465-2.59,4.892-5.215,7.236-7.919c0.319-0.368,0.487-0.764,0.557-1.159c0.361-0.761,0.291-1.678-0.556-2.414
		c-1.242-1.078-2.434-2.208-3.609-3.357c7.222-0.639,10.458-0.416,15.01-0.413C89.851,15.833,89.29,16.953,89.111,24.579z"/>
</g>
</svg>
