<?xml version="1.0" encoding="iso-8859-1"?>
<!-- Generator: Adobe Illustrator 17.0.2, SVG Export Plug-In . SVG Version: 6.00 Build 0)  -->
<!DOCTYPE svg PUBLIC "-//W3C//DTD SVG 1.1//EN" "http://www.w3.org/Graphics/SVG/1.1/DTD/svg11.dtd">
<svg version="1.1" id="Capa_1" xmlns="http://www.w3.org/2000/svg" xmlns:xlink="http://www.w3.org/1999/xlink" x="0px" y="0px"
	 width="100px" height="100px" viewBox="0 0 100 100" style="enable-background:new 0 0 100 100;" xml:space="preserve">
<g>
	<path style="fill:#1D1D1B;" d="M8.902,69.639c0.005,0.249,0.038,0.491,0.101,0.749c-0.071,0.941,0.22,1.899,0.797,2.6
		c0.588,0.714,1.448,1.139,2.42,1.195c11.457,0.664,22.709,3.695,33.592,6.626c12.423,3.346,25.27,6.806,38.564,6.807
		c0.001,0,0.003,0,0.005,0c1.033,0,2.065-0.021,3.105-0.063c1.006-0.041,1.876-0.473,2.475-1.222
		c0.927-0.592,1.454-1.58,1.456-2.747c0.008-5.225,0.066-10.54,0.122-15.68c0.121-11.131,0.247-22.641-0.123-33.97
		c-0.039-1.207-0.637-2.217-1.646-2.79c-0.784-0.665-1.741-0.945-2.833-0.752c-2.544,0.45-5.171,0.679-7.808,0.679
		c-0.746,0-1.49-0.022-2.232-0.057c0.088,0.242,0.13,0.504,0.103,0.777c-0.008,0.076-0.022,0.148-0.03,0.223
		c-0.037,0.338-0.086,0.669-0.135,1c-0.137,0.925-0.315,1.83-0.536,2.719c-0.083,0.333-0.169,0.665-0.263,0.995
		c-0.094,0.333-0.197,0.666-0.302,0.997c3.044,0.154,6.034,0.075,9.018-0.244c0.246,10.198,0.137,20.554,0.032,30.58
		c-0.045,4.265-0.089,8.529-0.108,12.794c-0.095,0-0.189,0-0.283,0c-13,0-25.722-3.422-38.026-6.731
		c-9.962-2.679-20.253-5.447-30.755-6.441c-0.069-3.013-0.155-6.026-0.241-9.039c-0.341-11.956-0.694-24.31,0.088-36.449
		c7.961,0.115,15.344,2.12,22.751,4.772c-0.016-0.357-0.038-0.713-0.034-1.068c0.004-0.348,0.027-0.694,0.049-1.041
		c0.056-0.888,0.159-1.772,0.31-2.65c0.057-0.333,0.119-0.665,0.187-0.997c0.025-0.121,0.043-0.244,0.069-0.365
		c0.048-0.224,0.118-0.422,0.206-0.594c-8.178-2.811-16.632-5.039-25.554-4.815c-0.598,0.016-1.146,0.168-1.632,0.455
		c-1.376,0.244-2.753,1.277-2.903,3.138c-1.061,13.14-0.672,26.48-0.296,39.382C8.718,62.155,8.827,65.897,8.902,69.639z"/>
	<path style="fill:#1D1D1B;" d="M60,34.968c0.021,0.006,0.042,0.011,0.063,0.017c-0.004-0.069-0.005-0.138-0.009-0.207
		C60.041,34.841,60.015,34.905,60,34.968z"/>
	<path style="fill:#1D1D1B;" d="M47.793,30.514c-0.054,0.026-0.109,0.039-0.164,0.059c0.053,0.021,0.105,0.042,0.158,0.062
		C47.789,30.595,47.791,30.554,47.793,30.514z"/>
	<path style="fill:#1D1D1B;" d="M41.435,28.159c0.159,1.375,0.424,2.667,0.701,3.808c0.051,0.21,0.102,0.416,0.154,0.615
		c2.173,8.454,7.357,17.592,14.224,25.071c0.395,0.43,0.913,0.667,1.458,0.667c0.538,0,1.062-0.227,1.463-0.628
		c0.029-0.019,0.057-0.039,0.085-0.059c0.292-0.097,0.562-0.261,0.792-0.483c4.278-4.141,7.836-9.606,10.251-15.493
		c0.57-1.39,1.082-2.801,1.518-4.227c0.1-0.326,0.189-0.653,0.281-0.98c0.092-0.327,0.189-0.653,0.274-0.981
		c0.237-0.914,0.435-1.83,0.611-2.747c0.063-0.329,0.13-0.658,0.185-0.986c0.056-0.331,0.099-0.661,0.146-0.992
		c0.05-0.351,0.107-0.702,0.148-1.052c0.04-0.341,0.053-0.671,0.078-1.006c0.355-4.717-0.696-8.82-3.101-11.903
		c-2.566-3.289-6.884-4.956-12.833-4.956c-0.711,0-1.412,0.024-2.033,0.064h-0.82c-0.256,0-0.507,0.049-0.75,0.145
		c-4.599,0.12-8.612,2.336-10.904,5.924c-0.342,0.535-0.648,1.099-0.909,1.693c-0.234,0.531-0.424,1.07-0.581,1.614
		c-0.094,0.323-0.177,0.647-0.246,0.973c-0.071,0.333-0.126,0.667-0.174,1.002c-0.13,0.917-0.176,1.833-0.162,2.732
		c0.006,0.364,0.021,0.726,0.045,1.083C41.362,27.428,41.393,27.797,41.435,28.159z M45.517,24.737
		c0.024-0.349,0.066-0.688,0.114-1.025c0.01-0.073,0.013-0.15,0.025-0.222c0.042-0.264,0.095-0.522,0.159-0.776
		c0.164-0.648,0.407-1.257,0.707-1.829c1.49-2.843,4.552-4.675,8.191-4.675l0.335,0.004c0.26,0,0.509-0.046,0.743-0.137h0.455
		c0.124,0,0.249-0.012,0.378-0.037c0.417-0.018,0.838-0.027,1.258-0.027c4.505,0,7.686,1.17,9.723,3.577
		c1.795,2.121,2.433,5.457,1.93,9.899c-0.024,0.212-0.047,0.423-0.077,0.639c-0.021,0.155-0.031,0.3-0.055,0.457
		c-0.027,0.178-0.062,0.357-0.092,0.535c-0.054,0.328-0.106,0.656-0.169,0.985c-0.179,0.924-0.4,1.85-0.65,2.775
		c-0.088,0.325-0.183,0.65-0.279,0.975c-0.096,0.323-0.19,0.646-0.294,0.968c-1.003,3.099-2.382,6.145-4.051,8.974
		c-1.627,2.757-3.527,5.307-5.627,7.492c-4.518-5.282-8.233-11.578-10.777-18.273c-0.631-1.661-1.106-3.216-1.436-4.682
		c-0.033-0.145-0.058-0.286-0.088-0.429c-0.081-0.391-0.159-0.781-0.218-1.16c-0.06-0.384-0.101-0.757-0.139-1.128
		C45.481,26.613,45.455,25.652,45.517,24.737z"/>
	<path style="fill:#1D1D1B;" d="M49.86,30.378c0.422,0.601,0.918,1.146,1.463,1.642c1.78,1.62,4.12,2.647,6.446,2.819
		c0.218,0.016,0.437,0.024,0.655,0.024c0,0,0,0,0,0c0.342,0,0.682-0.024,1.021-0.06c0.702-0.076,1.391-0.233,2.06-0.453
		c0.53-0.174,1.045-0.389,1.541-0.642c1.128-0.576,2.148-1.343,2.995-2.247c0.258-0.275,0.503-0.559,0.727-0.857
		c0.217-0.289,0.414-0.589,0.594-0.897c0.451-0.77,0.78-1.595,0.966-2.451c0.042-0.192,0.086-0.385,0.113-0.58
		c0.31-2.255-0.302-4.336-1.77-6.02c-1.998-2.291-5.466-3.713-9.053-3.713l-0.248,0.004c-4.332-0.178-7.663,2.18-8.737,5.917
		c-0.077,0.269-0.142,0.545-0.196,0.828c-0.062,0.33-0.111,0.667-0.139,1.015c-0.004,0.044-0.012,0.085-0.015,0.129
		c-0.021,0.315-0.021,0.624-0.009,0.93c0.046,1.156,0.332,2.236,0.792,3.224C49.293,29.475,49.554,29.942,49.86,30.378z
		 M53.041,26.451c-0.084-0.367-0.131-0.739-0.136-1.112c0-0.028-0.004-0.057-0.004-0.085c0.001-0.303,0.042-0.607,0.102-0.907
		c0.315-1.562,1.479-2.975,4.027-2.975l0.141-0.001l0.067,0.006l0.335-0.006c1.786,0,4.349,0.548,5.696,2.092
		c0.677,0.776,0.932,1.687,0.781,2.784c-0.091,0.659-0.366,1.253-0.767,1.773c-0.149,0.192-0.317,0.373-0.498,0.544
		c-0.299,0.283-0.635,0.538-1.002,0.76c-0.423,0.256-0.882,0.471-1.362,0.639c-0.833,0.292-1.724,0.448-2.574,0.448
		c-2.088-0.009-3.604-1.2-4.373-2.746C53.281,27.279,53.137,26.87,53.041,26.451z"/>
</g>
</svg>
