<?xml version="1.0" encoding="iso-8859-1"?>
<!-- Generator: Adobe Illustrator 17.0.2, SVG Export Plug-In . SVG Version: 6.00 Build 0)  -->
<!DOCTYPE svg PUBLIC "-//W3C//DTD SVG 1.1//EN" "http://www.w3.org/Graphics/SVG/1.1/DTD/svg11.dtd">
<svg version="1.1" id="Capa_1" xmlns="http://www.w3.org/2000/svg" xmlns:xlink="http://www.w3.org/1999/xlink" x="0px" y="0px"
	 width="100px" height="100px" viewBox="0 0 100 100" style="enable-background:new 0 0 100 100;" xml:space="preserve">
<g>
	<path style="fill:#1D1D1B;" d="M93.245,10.835c-0.483-0.309-1.035-0.474-1.645-0.489c-13.569-0.341-26.237,4.378-38.468,8.949
		c-11.571,4.324-23.537,8.796-36.076,8.797c-0.001,0-0.002,0-0.004,0c-3.027,0-6.044-0.263-8.968-0.78
		c-1.058-0.189-1.986,0.09-2.739,0.75c-0.98,0.535-1.562,1.502-1.6,2.664c-0.418,12.84-0.276,25.89-0.139,38.51
		c0.064,5.842,0.129,11.883,0.139,17.825c0.002,1.137,0.528,2.092,1.449,2.638c0.564,0.755,1.414,1.192,2.403,1.232
		c1.152,0.047,2.332,0.071,3.505,0.071c0,0,0,0,0.001,0c15.008,0,29.548-3.917,43.608-7.705c12.382-3.335,25.185-6.785,38.254-7.542
		c0.939-0.054,1.732-0.444,2.294-1.126c0.574-0.696,0.852-1.662,0.753-2.602c0.078-0.285,0.117-0.544,0.122-0.808
		c0.085-4.25,0.209-8.5,0.333-12.749c0.426-14.626,0.866-29.75-0.334-44.63C95.985,12.02,94.597,11.031,93.245,10.835z
		 M90.062,58.771c-0.103,3.607-0.206,7.214-0.287,10.821c-12.061,1.076-23.906,4.262-35.366,7.344
		c-14.306,3.847-29.137,7.819-44.281,7.656c-0.02-5.052-0.072-10.104-0.125-15.155C9.882,57.829,9.756,45.83,10.057,34.023
		c2.456,0.29,4.958,0.437,7.447,0.437c9.762,0,19.851-2.176,31.75-6.85l3.006-1.186c12.519-4.952,24.349-9.631,37.662-9.684
		C90.863,30.743,90.456,44.99,90.062,58.771z"/>
	<path style="fill:#1D1D1B;" d="M19.49,70.773c-0.298,0.142-0.822,0.298-1.298,0.423c-0.569,0.15-1.148,0.26-1.725,0.375
		c-1.069,0.214-1.67,1.466-1.397,2.46c0.304,1.106,1.392,1.611,2.46,1.397c1.379-0.276,2.701-0.594,3.978-1.202
		c0.984-0.468,1.233-1.856,0.718-2.736C21.642,70.492,20.475,70.305,19.49,70.773z"/>
	<path style="fill:#1D1D1B;" d="M29.99,66.273c-0.942,0.682-1.987,1.134-3.022,1.548c-1.011,0.405-1.71,1.32-1.397,2.46
		c0.265,0.962,1.447,1.803,2.46,1.397c1.37-0.549,2.774-1.08,3.978-1.952c0.881-0.638,1.309-1.727,0.718-2.736
		C32.216,66.119,30.875,65.633,29.99,66.273z"/>
	<path style="fill:#1D1D1B;" d="M40.26,58.773c-0.992-0.581-2.12-0.179-2.737,0.717c-0.016,0.024-0.135,0.181-0.183,0.248
		c-0.133,0.161-0.271,0.318-0.41,0.473c-0.351,0.388-0.724,0.755-1.094,1.125c-0.771,0.771-0.771,2.058,0,2.828
		c0.77,0.77,2.058,0.771,2.828,0c0.834-0.834,1.643-1.679,2.313-2.655C41.595,60.609,41.148,59.294,40.26,58.773z"/>
	<path style="fill:#1D1D1B;" d="M39.75,49.25c-1.09,0-2,0.91-2,2v2c0,1.09,0.91,2,2,2s2-0.91,2-2v-2
		C41.75,50.16,40.84,49.25,39.75,49.25z"/>
	<path style="fill:#1D1D1B;" d="M39.718,36.071c-1.89,0.716-3.864,1.807-4.512,3.87c-0.623,1.982,0.157,3.956,1.317,5.568
		c0.635,0.883,1.729,1.308,2.737,0.718c0.873-0.512,1.355-1.85,0.718-2.736c-0.429-0.596-1.14-1.531-0.99-2.243
		c0.139-0.66,1.2-1.094,1.795-1.319C43.17,39.024,42.135,35.156,39.718,36.071z"/>
	<path style="fill:#1D1D1B;" d="M47.468,33.321l-2.25,0.75c-1.033,0.344-1.698,1.367-1.397,2.46c0.277,1.009,1.426,1.742,2.46,1.397
		l2.25-0.75c1.033-0.344,1.698-1.367,1.397-2.46C49.651,33.71,48.503,32.977,47.468,33.321z"/>
	<path style="fill:#1D1D1B;" d="M59.782,32.571c-1.437-0.549-2.996-0.801-4.532-0.821c-2.581-0.034-2.577,3.966,0,4
		c1.205,0.016,2.341,0.248,3.468,0.679c1.02,0.389,2.192-0.422,2.46-1.397C61.489,33.904,60.799,32.96,59.782,32.571z"/>
	<path style="fill:#1D1D1B;" d="M66.51,43.727c0.896-0.525,1.327-1.831,0.718-2.736c-0.633-0.941-1.32-1.843-2-2.75
		c-0.653-0.87-1.715-1.316-2.737-0.717c-0.86,0.504-1.373,1.862-0.718,2.736c0.68,0.907,1.367,1.81,2,2.75
		C64.38,43.912,65.524,44.304,66.51,43.727z"/>
	<path style="fill:#1D1D1B;" d="M69,48.5c-0.131-1.082-0.811-2-2-2c-0.991,0-2.131,0.915-2,2c0.355,2.934,1.608,5.445,3.836,7.414
		c1.924,1.702,4.764-1.116,2.828-2.828C70.292,51.873,69.226,50.364,69,48.5z"/>
	<path style="fill:#1D1D1B;" d="M86.01,62.773c-1.014-0.672-2.043-1.321-3.068-1.974c0.715-1.391,1.388-2.806,1.987-4.267
		c0.979-2.387-2.892-3.416-3.857-1.063c-0.448,1.094-0.957,2.157-1.493,3.207c-1.022-0.635-2.044-1.271-3.069-1.902
		c-2.203-1.356-4.211,2.105-2.019,3.454c1.039,0.64,2.075,1.285,3.112,1.928c-0.658,1.05-1.342,2.085-2.079,3.085
		c-1.533,2.08,1.941,4.071,3.454,2.019c0.713-0.967,1.37-1.962,1.999-2.972c1.007,0.643,2.019,1.279,3.014,1.94
		C86.147,67.657,88.148,64.191,86.01,62.773z"/>
</g>
</svg>
