<?xml version="1.0" encoding="iso-8859-1"?>
<!-- Generator: Adobe Illustrator 17.0.2, SVG Export Plug-In . SVG Version: 6.00 Build 0)  -->
<!DOCTYPE svg PUBLIC "-//W3C//DTD SVG 1.1//EN" "http://www.w3.org/Graphics/SVG/1.1/DTD/svg11.dtd">
<svg version="1.1" id="Capa_1" xmlns="http://www.w3.org/2000/svg" xmlns:xlink="http://www.w3.org/1999/xlink" x="0px" y="0px"
	 width="100px" height="100px" viewBox="0 0 100 100" style="enable-background:new 0 0 100 100;" xml:space="preserve">
<g>
	<path style="fill:#1D1D1B;" d="M71.04,13.608c-0.561-0.782-1.47-1.143-2.408-0.978c-0.502-0.107-1.011-0.059-1.491,0.146
		c-8.723,3.721-17.383,7.938-25.758,12.017c-8.937,4.352-18.172,8.85-27.498,12.75c-0.187-0.288-0.44-0.529-0.759-0.723
		c-1.235-0.748-2.76-1.16-4.292-1.16c-2.222,0-4.255,0.843-5.579,2.312c-0.673,0.745-0.806,1.74-0.362,2.629
		c0,5.645,0.024,10.747,0.317,15.986c-0.027,0.798,0.389,1.587,1.112,2.11c1.001,0.724,2.398,1.122,3.937,1.122
		c1.537,0,3.037-0.404,4.113-1.109c0.201-0.132,0.374-0.289,0.477-0.427c0.039-0.032,0.077-0.066,0.115-0.103
		c0.881,0.294,1.764,0.586,2.647,0.874c-2.336,7.052-1.68,14.358-0.725,20.523c-0.012,1.073,0.62,1.93,1.647,2.236
		c2.792,0.832,5.08,1.422,7.199,1.856c0.173,0.036,0.346,0.055,0.515,0.055c0.542,0,1.049-0.185,1.469-0.534
		c0.789-0.413,1.54-1.298,1.346-2.586c-0.45-2.993-0.638-5.708-0.573-8.288c3.525-1.829,6.301-4.496,8.047-7.73
		c12.699,3.238,24.231,5.102,35.245,5.692l0.142,0.004c0.647,0,1.195-0.24,1.593-0.695c0.532-0.269,0.93-0.712,1.155-1.291
		C78.758,52.63,81.982,28.905,71.04,13.608z M27.2,66.236c0.253-1.18,0.563-2.29,0.939-3.359c0.493,0.137,0.987,0.271,1.481,0.403
		l0.183,0.05C29.077,64.422,28.218,65.383,27.2,66.236z M22.093,78.468c-0.983-0.245-1.896-0.486-2.765-0.733
		c-0.707-4.869-1.209-11.132,0.759-17.249c1.18,0.368,2.362,0.728,3.546,1.081C21.894,66.47,21.401,71.873,22.093,78.468z
		 M66.107,42.654c0.116,2.645-1.1,5.064-3.213,6.479c-0.285-2.491-0.394-5.245-0.332-8.387c0.025-1.281,0.086-2.545,0.181-3.764
		C64.756,38.099,65.998,40.17,66.107,42.654z M70.651,41.428c-0.365-4.549-3.085-8.017-7.31-9.359
		c0.949-5.629,2.722-10.18,5.274-13.542c9.294,16.066,3.203,37.935,0.681,45.345c-2.604-2.283-4.469-5.616-5.553-9.923
		C68.311,51.66,71.073,46.684,70.651,41.428z M64.064,65.153c-14.927-1.392-30.524-5.008-50.306-11.651
		c0.091-3.066,0.219-6.998,0.404-11.02c9.912-4.091,19.7-8.846,29.169-13.444c6.161-2.993,12.52-6.081,18.871-8.967
		c-2.751,5.573-4.179,12.745-4.357,21.859C57.707,48.995,58.703,58.6,64.064,65.153z M7.587,40.536c0-0.006,0-0.012,0-0.017
		c0.479-0.154,1.371-0.211,1.969-0.126C9.295,45.442,9.14,50.579,9.015,55.059c-0.22,0.026-0.527,0.047-0.872,0.047
		c-0.121,0-0.225-0.003-0.312-0.007C7.606,50.186,7.587,45.215,7.587,40.536z"/>
	<path style="fill:#1D1D1B;" d="M83.288,19.971c-0.794,0-1.614,0.468-2.092,1.191c-0.466,0.707-0.541,1.56-0.206,2.341
		c5.058,11.784,4.194,24.298-2.431,35.235c-0.438,0.725-0.467,1.538-0.076,2.231c0.429,0.761,1.311,1.272,2.194,1.272
		c0.805,0,1.489-0.398,1.927-1.122c7.4-12.216,8.287-26.378,2.495-39.876C84.753,20.435,84.092,19.971,83.288,19.971z"/>
	<path style="fill:#1D1D1B;" d="M92.938,27.477c-0.796,0-1.565,0.37-2.007,0.967c-0.407,0.549-0.512,1.243-0.296,1.955
		c2.116,6.958,1.771,13.821-1.026,20.399c-0.333,0.781-0.255,1.635,0.212,2.342c0.479,0.724,1.299,1.19,2.091,1.19
		c0.804,0,1.463-0.465,1.808-1.276c3.37-7.927,3.853-15.978,1.436-23.929C94.846,28.108,93.996,27.477,92.938,27.477z"/>
</g>
</svg>
