<?xml version="1.0" encoding="iso-8859-1"?>
<!-- Generator: Adobe Illustrator 17.0.2, SVG Export Plug-In . SVG Version: 6.00 Build 0)  -->
<!DOCTYPE svg PUBLIC "-//W3C//DTD SVG 1.1//EN" "http://www.w3.org/Graphics/SVG/1.1/DTD/svg11.dtd">
<svg version="1.1" id="Capa_1" xmlns="http://www.w3.org/2000/svg" xmlns:xlink="http://www.w3.org/1999/xlink" x="0px" y="0px"
	 width="100px" height="100px" viewBox="0 0 100 100" style="enable-background:new 0 0 100 100;" xml:space="preserve">
<g>
	<path style="fill:#1E1E1C;" d="M94.967,26.347c-1.615-2.806-3.669-5.634-6.086-8.37c-0.752-0.853-1.81-1.021-2.774-0.497
		l-0.126,0.047c-0.397,0.091-0.747,0.287-1.07,0.598c-5.14,4.958-10.887,7.369-17.568,7.369c-6.95,0-13.984-2.498-21.432-5.143
		l-2.181-0.772c-6.338-2.23-11.947-3.314-17.15-3.314c-8.401,0-15.661,2.843-22.194,8.692c-0.367,0.328-0.609,0.714-0.722,1.147
		l-0.037,0.098c-0.316,0.635-0.312,1.335,0.01,2.026c1.069,2.29,2.235,4.745,3.518,7.182l0.038,0.096
		c0.253,0.886,1.027,1.84,2.133,1.84c0.37,0,0.752-0.108,1.134-0.323l0.279-0.148c5.743-3.156,11.948-4.685,18.99-4.685
		c7.745,0,15.693,1.849,23.38,3.637c1.728,0.402,3.457,0.804,5.19,1.188c4.084,0.905,8,1.363,11.638,1.363
		c9.193,0,17.334-2.862,24.887-8.751c0.515-0.4,0.802-0.877,0.854-1.416c0.056-0.572-0.168-1.194-0.613-1.707L94.967,26.347z
		 M89.521,27.583c-5.792,3.938-11.863,5.773-19.108,5.773c-7.057,0-14.345-1.768-21.394-3.478
		c-7.081-1.718-13.243-2.553-18.838-2.553c-7.106,0-13.375,1.318-19.165,4.028l-0.441,0.207l-0.218-0.437
		c-0.522-1.046-1.036-2.097-1.537-3.154l-0.168-0.356l0.307-0.247c5.173-4.173,10.814-6.202,17.248-6.202
		c7.556,0,15.21,2.716,23.314,5.593l0.807,0.286c6.296,2.232,11.788,3.317,16.789,3.317c7.333,0,13.634-2.328,19.264-7.118
		l0.393-0.334l0.322,0.402c0.85,1.062,1.688,2.235,2.564,3.585l0.266,0.41L89.521,27.583z"/>
	<path style="fill:#1E1E1C;" d="M94.966,48.372c-1.614-2.804-3.668-5.632-6.085-8.368c-0.752-0.852-1.806-1.019-2.775-0.497
		l-0.125,0.047c-0.397,0.092-0.748,0.288-1.07,0.598c-5.14,4.958-10.887,7.369-17.568,7.369c-6.95,0-13.984-2.498-21.432-5.143
		l-2.181-0.772c-6.337-2.229-11.947-3.313-17.15-3.313c-8.401,0-15.661,2.843-22.194,8.692c-0.367,0.328-0.609,0.713-0.722,1.147
		L3.626,48.23c-0.316,0.635-0.312,1.335,0.01,2.027c1.068,2.287,2.234,4.741,3.518,7.182l0.038,0.096
		c0.253,0.887,1.027,1.84,2.133,1.84c0.37,0,0.752-0.108,1.134-0.323l0.279-0.147c5.743-3.156,11.948-4.686,18.99-4.686
		c7.745,0,15.692,1.85,23.379,3.637c1.728,0.402,3.458,0.805,5.191,1.188c4.084,0.904,8,1.363,11.638,1.363
		c9.193,0,17.334-2.862,24.887-8.752c0.515-0.4,0.802-0.877,0.854-1.416c0.056-0.571-0.168-1.193-0.613-1.706L94.966,48.372z
		 M89.521,49.61c-5.792,3.939-11.863,5.773-19.108,5.773c-7.057,0-14.345-1.768-21.394-3.478
		c-7.081-1.718-13.243-2.553-18.838-2.553c-7.106,0-13.375,1.317-19.165,4.028l-0.441,0.206l-0.218-0.437
		c-0.522-1.047-1.036-2.097-1.537-3.154l-0.168-0.356l0.307-0.247c5.173-4.173,10.814-6.202,17.248-6.202
		c7.557,0,15.211,2.717,23.315,5.594l0.806,0.286c6.296,2.232,11.788,3.317,16.789,3.317c7.333,0,13.634-2.329,19.264-7.118
		l0.393-0.334l0.322,0.402c0.85,1.062,1.688,2.235,2.564,3.585l0.266,0.41L89.521,49.61z"/>
	<path style="fill:#1E1E1C;" d="M94.966,70.398c-1.613-2.803-3.667-5.631-6.085-8.367c-0.752-0.853-1.808-1.019-2.775-0.497
		l-0.125,0.048c-0.397,0.092-0.748,0.287-1.07,0.598c-5.14,4.958-10.887,7.369-17.568,7.369c-6.949,0-13.983-2.498-21.431-5.143
		l-2.182-0.772c-6.337-2.229-11.947-3.313-17.15-3.313c-8.401,0-15.661,2.843-22.195,8.691c-0.366,0.328-0.608,0.715-0.721,1.148
		l-0.037,0.097c-0.316,0.635-0.312,1.336,0.01,2.026c1.067,2.286,2.232,4.739,3.518,7.183l0.038,0.096
		c0.253,0.886,1.028,1.84,2.134,1.84c0.37,0,0.751-0.108,1.133-0.323l0.259-0.138c5.765-3.167,11.969-4.695,19.011-4.695
		c7.746,0,15.694,1.849,23.381,3.637c1.727,0.401,3.457,0.804,5.189,1.188c4.084,0.904,8,1.363,11.639,1.363
		c9.192,0.001,17.333-2.862,24.886-8.751c0.515-0.4,0.802-0.877,0.854-1.416c0.056-0.571-0.168-1.193-0.613-1.706L94.966,70.398z
		 M89.521,71.637c-5.791,3.938-11.863,5.773-19.107,5.773c-7.055,0-14.345-1.769-21.395-3.478
		c-7.081-1.718-13.243-2.553-18.838-2.553c-7.106,0-13.375,1.317-19.165,4.028l-0.441,0.206l-0.218-0.437
		c-0.522-1.047-1.036-2.097-1.537-3.154l-0.168-0.355l0.307-0.248c5.173-4.172,10.814-6.2,17.248-6.2
		c7.557,0,15.211,2.717,23.315,5.593l0.806,0.285c6.297,2.232,11.788,3.318,16.789,3.318c7.333,0,13.635-2.328,19.264-7.118
		l0.393-0.334l0.322,0.402c0.85,1.062,1.688,2.235,2.564,3.585l0.266,0.411L89.521,71.637z"/>
</g>
</svg>
