<?xml version="1.0" encoding="iso-8859-1"?>
<!-- Generator: Adobe Illustrator 17.0.2, SVG Export Plug-In . SVG Version: 6.00 Build 0)  -->
<!DOCTYPE svg PUBLIC "-//W3C//DTD SVG 1.1//EN" "http://www.w3.org/Graphics/SVG/1.1/DTD/svg11.dtd">
<svg version="1.1" id="Capa_1" xmlns="http://www.w3.org/2000/svg" xmlns:xlink="http://www.w3.org/1999/xlink" x="0px" y="0px"
	 width="100px" height="100px" viewBox="0 0 100 100" style="enable-background:new 0 0 100 100;" xml:space="preserve">
<g>
	<path style="fill:#1D1D1B;" d="M93.621,14.446c0.039-0.758-0.145-1.456-0.529-2.024c-0.574-1.085-1.618-1.745-2.876-1.813
		c-5.754-0.313-77.795-0.33-80.859-0.33c-0.948,0-1.769,0.329-2.386,0.952c-1.288,0.799-1.909,2.194-1.626,3.678
		c0.795,4.191,1.179,8.618,1.207,13.933c0.001,0.283,0.038,0.558,0.113,0.857c0.163,1.816,1.502,3.148,3.29,3.253
		c2.217,0.131,14.716,0.263,29.189,0.416c21.39,0.226,48.011,0.507,51.226,0.892c0.15,0.018,0.295,0.027,0.435,0.027
		c0.46,0,0.896-0.093,1.296-0.277c1.504-0.424,2.354-1.714,2.172-3.316C93.588,24.665,93.375,19.351,93.621,14.446z M86.99,27.024
		c-5.458-0.204-26.125-0.37-44.566-0.518c-13.01-0.104-25.375-0.204-29.016-0.294c-0.096-3.139-0.334-6.104-0.724-9.004l3.529,0.004
		c15.885,0.016,62.457,0.064,70.411,0.187C86.586,20.478,86.707,23.646,86.99,27.024z"/>
	<path style="fill:#1D1D1B;" d="M93.621,43.695c0.039-0.758-0.145-1.456-0.529-2.025c-0.574-1.085-1.618-1.745-2.876-1.813
		c-5.781-0.314-80.11-0.33-80.859-0.33c-0.948,0-1.77,0.329-2.386,0.952c-1.288,0.799-1.909,2.194-1.626,3.678
		c0.795,4.191,1.179,8.618,1.207,13.933c0.001,0.282,0.038,0.558,0.113,0.857c0.163,1.815,1.501,3.147,3.289,3.253
		c2.218,0.131,14.724,0.263,29.205,0.416c21.384,0.226,47.997,0.506,51.212,0.892c0.15,0.018,0.294,0.026,0.433,0.026
		c0.462,0,0.897-0.093,1.298-0.276c1.504-0.425,2.354-1.716,2.171-3.316C93.588,53.914,93.375,48.6,93.621,43.695z M86.99,56.272
		c-5.458-0.204-26.133-0.37-44.582-0.518c-13.003-0.104-25.361-0.204-29-0.294c-0.096-3.14-0.334-6.104-0.724-9.005l3.897,0.004
		c15.801,0.017,62.119,0.064,70.043,0.187C86.586,49.726,86.707,52.894,86.99,56.272z"/>
	<path style="fill:#1D1D1B;" d="M93.621,72.943c0.039-0.759-0.145-1.457-0.529-2.025c-0.574-1.085-1.618-1.744-2.876-1.812
		c-5.745-0.313-77.795-0.329-80.859-0.33c-0.948,0-1.77,0.328-2.386,0.951c-1.288,0.8-1.909,2.195-1.626,3.679
		c0.795,4.191,1.179,8.618,1.207,13.934c0.001,0.283,0.038,0.558,0.113,0.857c0.163,1.816,1.502,3.147,3.289,3.252
		c2.219,0.131,14.733,0.264,29.225,0.416c21.375,0.226,47.978,0.507,51.192,0.892c0.15,0.018,0.294,0.026,0.433,0.026
		c0.461,0,0.897-0.093,1.297-0.276c1.504-0.424,2.354-1.714,2.172-3.316C93.588,83.162,93.375,77.848,93.621,72.943z M86.99,85.521
		c-5.456-0.203-26.114-0.369-44.549-0.518c-13.018-0.104-25.392-0.204-29.033-0.294c-0.096-3.14-0.334-6.104-0.724-9.006
		l4.256,0.006c15.719,0.016,61.788,0.064,69.685,0.187C86.586,78.975,86.707,82.143,86.99,85.521z"/>
</g>
</svg>
