<?xml version="1.0" encoding="utf-8"?>
<!-- Generator: Adobe Illustrator 17.0.2, SVG Export Plug-In . SVG Version: 6.00 Build 0)  -->
<!DOCTYPE svg PUBLIC "-//W3C//DTD SVG 1.1//EN" "http://www.w3.org/Graphics/SVG/1.1/DTD/svg11.dtd">
<svg version="1.1" id="Capa_1" xmlns="http://www.w3.org/2000/svg" xmlns:xlink="http://www.w3.org/1999/xlink" x="0px" y="0px"
	 width="100px" height="100px" viewBox="0 0 100 100" enable-background="new 0 0 100 100" xml:space="preserve">
<g>
	<path fill="#1D1D1B" d="M82.028,2.216c-0.138-0.248-0.313-0.422-0.505-0.544c-0.48-0.409-1.167-0.477-1.756-0.174
		c-0.994,0.512-1.893,1.186-2.886,1.698c-0.477,0.245-0.73,0.756-0.746,1.272c-0.271,0.411-0.329,0.946,0.027,1.498
		c0.1,0.154,0.2,0.307,0.301,0.461c-3.237,3.223-6.522,6.396-9.766,9.612c-1.137-1.09-2.276-2.177-3.414-3.266
		c-0.655-0.628-1.464-0.504-2.01-0.06c-0.109,0.061-0.217,0.134-0.329,0.238c-3.79,3.494-7.596,6.974-11.277,10.585
		c-1.95,1.913-4.248,3.496-6.029,5.582c-0.748,0.876-1.983,2.101-2.222,3.284c-0.046,0.227,0.132,3.676,0.663,3.148
		c-1.665,1.655-3.398,3.24-5.064,4.896c-0.068,0.068-0.121,0.139-0.173,0.21c-0.501,0.419-0.726,1.106-0.235,1.811
		c2.008,2.89,4.222,5.625,6.521,8.288c0.686,0.794,1.61,0.549,2.139-0.075c0.017-0.01,0.035-0.015,0.053-0.026
		c0.563-0.351,1.103-0.738,1.65-1.111c-0.509,2.93-1.169,5.828-1.861,8.742c-0.355,0.774-0.149,1.858,0.9,2.2
		c1.516,0.494,3.067,0.864,4.584,1.358c0.318,0.104,0.603,0.099,0.852,0.027c0.611,0.017,1.201-0.307,1.367-1.094
		c0.869-4.113,1.891-8.185,3.056-12.224c0.091-0.314,0.079-0.594,0.006-0.841c2.587-2.269,5.194-4.517,7.748-6.816
		c5.667,6.119,5.056,13.621,1.407,20.523c-1.762,3.335-3.652,7.289-6.233,10.069c-3.123,3.362-7.442,2.66-11.588,2.7
		c-6.038,0.058-12.068,0.347-18.108,0.273c-1.415-0.017-1.809,1.55-1.19,2.446c-0.015,2.095-0.149,4.187-0.165,6.282
		c-3.202,3.415-6.18,7.018-9.048,10.717c-1.005,0.733-0.705,2.761,0.896,2.795c16.697,0.359,35.443,1.12,52.12-0.17
		c0.064-0.005,0.121-0.021,0.182-0.032c1.074,0.054,2.197-1.063,1.478-2.267c-0.491-0.822-1.029-1.604-1.588-2.369
		c2.547-2.255,2.856-5.469,0.278-7.923c-0.333-0.317-0.707-0.435-1.065-0.418c-2.062-0.5-4.133-0.15-5.679,1.304
		c-0.636-0.584-1.276-1.163-1.925-1.733v-0.356c0.099-0.256,0.131-0.552,0.055-0.884c-0.025-0.111-0.032-0.223-0.055-0.335v-0.821
		c14.234-9.805,23.583-35.507,8.889-48.289c1.351-1.474,2.668-2.983,3.906-4.571c0.568-0.729,0.379-1.599-0.103-2.149
		c-0.062-0.12-0.136-0.238-0.237-0.351c-0.6-0.671-1.229-1.314-1.844-1.969c2.748-2.9,5.447-5.844,7.837-9.046
		c0.032,0.044,0.063,0.09,0.096,0.134c0.077,0.104,0.161,0.192,0.25,0.269c0.368,0.507,1.047,0.85,1.646,0.603
		c1.138-0.469,3.18-1.474,4.069-2.338c0.168-0.163,0.275-0.361,0.348-0.571c0.343-0.424,0.451-1.012,0.062-1.62
		C86.434,7.868,83.717,5.254,82.028,2.216z M44.436,47.571c-1.564-1.85-3.087-3.732-4.504-5.697c1.361-1.326,2.746-2.625,4.099-3.96
		c1.701,2.089,3.386,4.192,5.096,6.274C47.619,45.394,46.059,46.524,44.436,47.571z M50.196,58.526
		c-0.626-0.186-1.254-0.366-1.882-0.546c0.762-3.235,1.48-6.475,1.951-9.768c0.051-0.361-0.011-0.683-0.146-0.956
		c0.317-0.246,0.644-0.479,0.957-0.729c0.546,0.646,1.094,1.292,1.651,1.929C51.781,51.788,50.941,55.145,50.196,58.526z
		 M30.948,77.523c0.015,0.308,26.361-0.677,29.133-0.815c0.062,1.488,0.255,3.148,0.255,4.67c0,0,0,0.458,0,0.458
		c-9.148,0.628-20.349,0.332-29.512,0.274C30.858,80.581,30.921,79.053,30.948,77.523z M70.272,86.432
		c0.941,1.127,0.646,2.107-0.362,3.086c-0.774-0.898-1.575-1.774-2.416-2.615C68.291,86.262,69.204,86.168,70.272,86.432z
		 M69.294,93.628c-14.837,0.976-31.733,0.445-46.587,0.09c2.351-2.942,4.783-5.813,7.367-8.557
		c9.566,0.046,21.167,0.389,30.717-0.298C63.872,87.555,66.89,90.329,69.294,93.628z M63.12,77.121
		c0.029-0.625,0.072-1.25,0.13-1.871c0.103-1.109-0.848-1.571-1.707-1.401c-0.161-0.06-0.339-0.099-0.543-0.099h-0.416
		c8.369-10.838,15.544-23.82,5.289-34.917c1.471-1.368,2.905-2.773,4.309-4.208C82.732,45.721,75.14,67.721,63.12,77.121z
		 M54.022,45.278c-3.312-3.861-6.44-7.876-9.695-11.785c5.585-6.22,11.723-11.879,17.864-17.539
		c3.71,3.545,7.426,7.084,10.881,10.881C67.458,33.72,60.688,39.437,54.022,45.278z M71.893,21.152
		c-0.99-1.005-1.988-2.003-2.999-2.988c2.979-2.954,5.99-5.875,8.97-8.828c0.621,0.911,1.241,1.823,1.857,2.737
		C77.373,15.316,74.647,18.251,71.893,21.152z M83.978,11.851c-0.038,0.025-0.08,0.045-0.118,0.069
		c-1.562-2.164-3.032-4.391-4.487-6.629c0.218-0.134,0.438-0.268,0.654-0.404c1.301,2.329,3.638,4.23,5.049,6.494
		C85.051,11.398,84.011,11.829,83.978,11.851z"/>
	<path fill="#1D1D1B" d="M61.439,21.061l5.686,5.685c-0.596,0.921-1.311,1.727-2.186,2.443c-0.634,0.518-0.535,1.587,0,2.121
		c0.621,0.621,1.489,0.517,2.121,0c1.353-1.107,2.438-2.501,3.234-4.054c0.396-0.773,0.089-1.502-0.448-1.917
		c-0.07-0.137-0.158-0.273-0.286-0.4l-6-6C62.191,17.57,60.07,19.692,61.439,21.061z"/>
</g>
</svg>
