<?xml version="1.0" encoding="iso-8859-1"?>
<!-- Generator: Adobe Illustrator 17.0.2, SVG Export Plug-In . SVG Version: 6.00 Build 0)  -->
<!DOCTYPE svg PUBLIC "-//W3C//DTD SVG 1.1//EN" "http://www.w3.org/Graphics/SVG/1.1/DTD/svg11.dtd">
<svg version="1.1" id="Capa_1" xmlns="http://www.w3.org/2000/svg" xmlns:xlink="http://www.w3.org/1999/xlink" x="0px" y="0px"
	 width="100px" height="100px" viewBox="0 0 100 100" style="enable-background:new 0 0 100 100;" xml:space="preserve">
<g>
	<path style="fill:#1D1D1B;" d="M51.191,67.917c6.587,0.109,12.304-2.831,14.413-9.5c0.146-0.461,0.166-0.882,0.102-1.264
		c0.024-11.245,1.612-22.706,0.684-33.91C65.565,13.284,60.953,4.992,50.288,4.01c-0.093-0.009-0.174,0.003-0.263,0.002
		c-0.005,0-0.008-0.002-0.013-0.002c-8.581-0.455-15.031,4.482-16.417,13.031c-0.038,0.234-0.045,0.458-0.033,0.673
		c-0.04,0.19-0.064,0.393-0.065,0.609C33.371,33.392,26.664,70.046,51.191,67.917z M37.534,39.784
		c0.032,0.001,0.059,0.009,0.092,0.009c2.098,0,4.16-0.055,6.237-0.374c1.485-0.228,2.285-2.069,1.923-3.386
		c-0.432-1.571-1.904-2.15-3.386-1.922c-1.483,0.227-3.088,0.181-4.615,0.178c0.075-1.048,0.162-2.081,0.254-3.092
		c1.877-0.178,3.757-0.211,5.643-0.212c3.55-0.001,3.55-5.506,0-5.505c-1.709,0-3.414,0.026-5.115,0.163
		c0.11-1.209,0.212-2.418,0.288-3.629c1.601-0.214,3.21-0.371,4.826-0.387c3.548-0.035,3.551-5.54,0-5.505
		c-1.437,0.014-2.866,0.147-4.29,0.32c1.461-4.857,5.025-7.223,10.621-6.926c0.079,0.004,0.147-0.009,0.222-0.01
		c0.019,0.002,0.034,0.008,0.053,0.01c4.471,0.412,7.093,2.817,8.642,6.056h-3.412c-3.55,0-3.55,5.505,0,5.505h5.051
		c0.196,1.18,0.318,2.384,0.402,3.578h-5.178c-3.55,0-3.55,5.505,0,5.505h5.332c-0.002,1.101-0.018,2.202-0.043,3.303h-5.289
		c-3.55,0-3.55,5.505,0,5.505h5.093c-0.271,6.077-0.678,12.155-0.687,18.246c-1.089,3.12-6.375,5.286-10.149,5.611
		c-0.809,0.07-1.548,0.055-2.162-0.054c-3.845-0.678-6.722-3.415-8.093-6.979C37.928,50.934,37.445,45.308,37.534,39.784z"/>
	<path style="fill:#1D1D1B;" d="M71.856,56.128c-2.909,20.711-39.106,18.938-43.412,0c-0.787-3.461-6.095-1.993-5.309,1.464
		c2.546,11.197,13.692,17.655,25.225,18.691v14.576c-2.293,0.071-4.586,0.125-6.881,0.133c-3.549,0.013-3.551,5.518,0,5.505
		c5.694-0.021,11.38-0.28,17.066-0.55c3.534-0.168,3.55-5.674,0-5.505c-1.56,0.074-3.12,0.146-4.679,0.214V76.349
		c11.246-0.698,21.608-6.721,23.299-18.758C77.652,54.12,72.348,52.624,71.856,56.128z"/>
</g>
</svg>
