<?xml version="1.0" encoding="iso-8859-1"?>
<!-- Generator: Adobe Illustrator 17.0.2, SVG Export Plug-In . SVG Version: 6.00 Build 0)  -->
<!DOCTYPE svg PUBLIC "-//W3C//DTD SVG 1.1//EN" "http://www.w3.org/Graphics/SVG/1.1/DTD/svg11.dtd">
<svg version="1.1" id="Capa_1" xmlns="http://www.w3.org/2000/svg" xmlns:xlink="http://www.w3.org/1999/xlink" x="0px" y="0px"
	 width="100px" height="100px" viewBox="0 0 100 100" style="enable-background:new 0 0 100 100;" xml:space="preserve">
<g>
	<path style="fill:#1D1D1B;" d="M32.211,39.787l-5.083-0.008c-0.347,0-0.686,0.047-1.028,0.144
		c-1.234-0.163-2.474,0.248-3.236,1.066c-0.631,0.678-0.926,1.581-0.852,2.61l0.824,11.545c0.161,2.271,1.965,3.422,3.614,3.552
		c0.329,0.084,0.643,0.125,0.956,0.125c16.755,0,31.88-0.041,47.313-0.551c1.698-0.056,3.02-1.103,3.465-2.738
		c0.204-0.503,0.287-1.049,0.249-1.625c-0.253-3.806-0.273-7.602-0.273-11.479c0-1.977-1.381-3.456-3.372-3.632
		c-0.417-0.113-0.828-0.152-1.285-0.113c-12.15,1.027-24.414,1.113-34.955,1.113C36.436,39.795,34.323,39.791,32.211,39.787z
		 M29.776,47.281l2.075,0.003c2.024,0.003,4.05,0.007,6.074,0.007c9.884,0,21.337-0.071,32.755-0.898
		c0.02,1.488,0.059,2.989,0.117,4.483c-13.964,0.393-27.752,0.438-40.732,0.445L29.776,47.281z"/>
	<path style="fill:#1D1D1B;" d="M51.146,5.211c-1.981,0-3.995,0.118-6.008,0.353c-0.944,0.121-1.887,0.262-2.799,0.417
		c-0.577,0.09-1.108,0.262-1.586,0.51C21.769,9.008,7.238,23.231,4.529,42.005C1.213,65,18.635,86.667,43.367,90.306
		c2.175,0.32,4.413,0.482,6.653,0.482c0.001,0,0.001,0,0.003,0c22.705,0,42.427-15.434,45.875-35.9
		c1.985-11.792-2.309-24.734-11.781-35.509C76.084,10.243,64.375,5.211,51.146,5.211z M53.776,15.553
		c8.899,0.618,16.624,4.298,22.972,10.948c7.457,7.811,10.783,18.795,8.681,28.665c-2.675,12.562-15.876,25.277-35.931,25.277
		c-2.328,0-4.62-0.204-6.812-0.605c-18.441-3.383-30.91-20.4-27.795-37.935c2.673-15.04,15.906-25.543,32.182-25.543
		c1.099,0,2.214,0.049,3.313,0.146C51.727,16.625,52.865,16.28,53.776,15.553z"/>
</g>
</svg>
