<?xml version="1.0" encoding="iso-8859-1"?>
<!-- Generator: Adobe Illustrator 17.0.2, SVG Export Plug-In . SVG Version: 6.00 Build 0)  -->
<!DOCTYPE svg PUBLIC "-//W3C//DTD SVG 1.1//EN" "http://www.w3.org/Graphics/SVG/1.1/DTD/svg11.dtd">
<svg version="1.1" id="Capa_1" xmlns="http://www.w3.org/2000/svg" xmlns:xlink="http://www.w3.org/1999/xlink" x="0px" y="0px"
	 width="100px" height="100px" viewBox="0 0 100 100" style="enable-background:new 0 0 100 100;" xml:space="preserve">
<g>
	<path style="fill:#1D1D1B;" d="M90.545,9.731C89.829,8.223,88.399,7.063,86.25,7C61.827,6.286,37.395,6.251,12.964,6.25
		C12.496,6.102,12.011,6,11.5,6c-2.726,0-5,2.274-5,5v1.5c0,0.758,0.19,1.473,0.503,2.122C6.844,15.11,6.751,15.65,6.75,16.25
		C6.701,39.508,5.062,62.738,5.5,86c0.009,0.474,0.077,0.909,0.186,1.314c0.155,2.358,1.756,4.548,4.814,4.436
		c26.324-0.963,52.664-0.756,79-0.75c1.784,0,3.072-0.766,3.869-1.873C94.041,88.349,94.478,87.31,94.5,86
		c0.425-24.547-1.725-49.008-3-73.5C91.441,11.381,91.085,10.461,90.545,9.731z M15.463,81.595
		c-0.178-21.789,1.241-43.554,1.287-65.343c21.667,0.005,43.334,0.071,64.994,0.632c1.192,21.363,2.885,42.708,2.806,64.112
		C61.519,80.975,38.484,80.877,15.463,81.595z"/>
	<path style="fill:#1D1D1B;" d="M74.316,39.796c-0.417-0.113-0.829-0.153-1.285-0.113c-12.15,1.027-24.414,1.113-34.955,1.113
		c-2.112,0-4.225-0.004-6.337-0.008l-5.083-0.008c-0.347,0-0.686,0.047-1.028,0.144c-1.236-0.163-2.475,0.247-3.236,1.066
		c-0.631,0.678-0.926,1.58-0.853,2.61l0.825,11.545c0.161,2.271,1.965,3.422,3.614,3.552c0.329,0.084,0.643,0.125,0.956,0.125
		c16.754,0,31.879-0.041,47.313-0.551c1.698-0.056,3.02-1.102,3.465-2.738c0.204-0.503,0.287-1.049,0.249-1.625
		c-0.253-3.807-0.273-7.602-0.273-11.479C77.688,41.452,76.308,39.973,74.316,39.796z M29.305,48.281l2.075,0.003
		c2.024,0.003,4.05,0.007,6.074,0.007c9.885,0,21.337-0.071,32.755-0.898c0.02,1.492,0.059,2.993,0.117,4.483
		c-13.964,0.393-27.752,0.438-40.733,0.445L29.305,48.281z"/>
</g>
</svg>
