<?xml version="1.0" encoding="iso-8859-1"?>
<!-- Generator: Adobe Illustrator 17.0.2, SVG Export Plug-In . SVG Version: 6.00 Build 0)  -->
<!DOCTYPE svg PUBLIC "-//W3C//DTD SVG 1.1//EN" "http://www.w3.org/Graphics/SVG/1.1/DTD/svg11.dtd">
<svg version="1.1" id="Capa_1" xmlns="http://www.w3.org/2000/svg" xmlns:xlink="http://www.w3.org/1999/xlink" x="0px" y="0px"
	 width="100px" height="100px" viewBox="0 0 100 100" style="enable-background:new 0 0 100 100;" xml:space="preserve">
<g>
	<path style="fill:#1E1E1C;" d="M59.975,35.911c-0.347-0.204-0.732-0.746-0.826-1.159c-0.443-1.965-1.203-3.741-2.259-5.278
		c-0.18-0.262-0.396-0.483-0.643-0.658c-0.396-0.279-0.896-0.423-1.1-0.474c-0.073-0.09-0.206-0.333-0.298-0.671
		c-2.387-8.874-6.87-16.752-13.326-23.417c-0.474-0.49-1.053-0.75-1.685-0.754c-0.504,0-0.947,0.174-1.186,0.268L38.59,3.796
		c-0.084,0.015-0.17,0.035-0.259,0.06C26.595,7.211,20.063,18.27,22.077,31.374c0.189,1.229,1.126,1.97,2.343,1.859
		c0.479-0.042,0.943-0.217,1.221-0.321c0.072-0.027,0.13-0.05,0.168-0.061c0.139-0.038,0.277-0.089,0.419-0.158
		c4.317-2.089,8.508-1.747,12.206,0.998c0.25,0.186,0.452,0.357,0.568,0.464c0.017,1.022,0.104,2.133,0.271,3.48
		c0.034,0.281,0.064,0.535,0.082,0.71c-13.13,10.406-21.065,25.36-22.353,42.132c-0.012,0.141-0.009,0.272,0.002,0.399l0.01,0.175
		c0.011,0.221,0.026,0.521,0.076,0.772c0.047,0.231,0.127,0.46,0.238,0.679c4.229,8.328,13.327,12.825,27.813,13.749
		c1.704,0.108,3.463,0.164,5.228,0.164c0.001,0,0.001,0,0.001,0c9.338,0,19.557-1.554,29.554-4.491
		c0.079-0.023,0.154-0.051,0.244-0.07c0.241-0.027,0.742-0.085,1.188-0.375c0.35-0.229,0.627-0.563,0.824-0.994
		c4.176-9.08,3.751-20.044-1.195-30.872C76.558,49.92,68.704,41.06,59.975,35.911z M42.974,41.822
		c0.113-0.089,0.21-0.182,0.261-0.244c0.069-0.047,0.429-0.178,0.906-0.227c3.259-0.332,7.551-0.788,11.854-1.373
		c0.465-0.063,1.175,0.084,1.531,0.298C76.33,51.514,83.521,73.266,78.44,86.532c-0.139,0.362-0.618,0.791-1.007,0.9
		c-9.265,2.608-18.871,3.931-28.551,3.931h-0.169C35.408,91.343,26.555,87.949,22.4,81.276c-0.2-0.323-0.342-0.598-0.401-0.729
		C23.171,65.295,30.62,51.542,42.974,41.822z M49.835,28.821c-0.038,0.061-0.112,0.139-0.34,0.171c-0.276,0-0.585-0.204-0.703-0.465
		c-1.832-4.047-4.375-7.438-7.559-10.076c-0.479-0.398-1.045-0.608-1.636-0.608c-1.109,0-2.184,0.749-2.556,1.781
		c-0.317,0.879-0.046,1.786,0.725,2.424c2.569,2.13,4.63,4.75,6.123,7.784c0.049,0.098,0.055,0.191,0.019,0.27
		c-0.038,0.085-0.124,0.149-0.243,0.18l-0.416,0.111c-0.353,0.097-0.99-0.038-1.294-0.277c-3.149-2.471-6.584-3.724-10.21-3.724
		c-1.553,0-3.146,0.235-4.735,0.698c-0.149,0.042-0.342,0.098-0.346-0.22C26.57,18.569,31.056,11.763,38.37,9.109
		C38.677,9,39.219,9.141,39.444,9.396c4.912,5.528,8.421,11.95,10.429,19.087C49.908,28.606,49.895,28.726,49.835,28.821z
		 M53.962,35.115c-0.054,0.086-0.154,0.145-0.276,0.16c-3.264,0.42-6.549,0.767-9.103,1.024c-0.252,0-0.463-0.175-0.481-0.398
		c-0.021-0.288,0.232-0.625,0.533-0.708c2.597-0.711,5.327-1.284,8.115-1.704c0.031-0.005,0.062-0.007,0.095-0.007
		c0.321,0,0.686,0.215,0.796,0.469c0.126,0.292,0.24,0.59,0.343,0.893C54.018,34.944,54.01,35.038,53.962,35.115z"/>
	<path style="fill:#1E1E1C;" d="M43.308,78.554c1.533,0.907,3.457,1.771,5.42,2.431c0.312,0.105,0.565,0.475,0.543,0.791
		c-0.063,0.889-0.129,1.778-0.206,2.667c-0.068,0.8,0.172,1.523,0.694,2.094c0.553,0.602,1.376,0.961,2.202,0.961
		c1.303,0,2.218-0.849,2.331-2.162c0.073-0.861,0.138-1.722,0.199-2.583c0.018-0.255,0.224-0.439,0.529-0.439
		c0.001,0,0.002,0,0.003,0c0.408,0.028,0.814,0.043,1.215,0.043c3.834,0,6.67-1.395,8.2-4.033c2.257-3.895-1.766-8.072-4.17-10.567
		l-0.238-0.248c-1.325-1.38-2.714-2.657-4.138-3.952c-0.3-0.273-0.565-0.891-0.558-1.295c0.045-2.317,0.083-4.635,0.119-6.953
		c0.004-0.227,0.155-0.387,0.431-0.387c0.003,0,0.007,0,0.011,0l1.242,0.174c0.648,0.092,1.269,0.18,1.845,0.248
		c1.852,0.22,2.981-1.267,3.064-2.656c0.067-1.143-0.568-2.38-2.141-2.567c-0.513-0.061-1.097-0.143-1.733-0.232
		c-0.646-0.09-1.345-0.188-2.076-0.28c-0.297-0.037-0.542-0.317-0.537-0.611l0.037-1.95c0.015-0.695-0.203-1.292-0.628-1.726
		c-0.437-0.446-1.063-0.691-1.766-0.691c-1.377,0-2.86,0.961-2.898,2.743l-0.025,1.389c-0.005,0.286-0.253,0.536-0.552,0.558
		c-3.276,0.24-5.448,1.263-6.64,3.128c-2.252,3.528,1.524,7.437,3.781,9.771l0.251,0.26c0.671,0.697,1.426,1.439,2.308,2.269
		c0.304,0.285,0.562,0.896,0.552,1.307c-0.082,3.417-0.189,6.484-0.328,9.377c-0.008,0.139-0.097,0.282-0.295,0.201
		c-1.59-0.647-2.875-1.346-3.673-1.818c-1.469-0.868-3.161-0.054-3.615,1.607C41.725,76.675,42.212,77.905,43.308,78.554z
		 M50.174,55.098l-0.044,2.884c-0.443-0.485-0.834-0.937-1.19-1.377c-0.343-0.424-0.719-0.92-0.993-1.466
		c0.534-0.203,1.13-0.348,1.813-0.442l0.057-0.004c0.12,0,0.199,0.056,0.245,0.102C50.136,54.87,50.176,54.978,50.174,55.098z
		 M54.873,76.528c0.109-2.156,0.197-4.313,0.267-6.471c1.266,1.241,2.273,2.332,3.165,3.427l0.1,0.122
		c0.684,0.836,1.329,1.626,1.211,2.083c-0.078,0.302-0.525,0.624-1.294,0.933c-0.84,0.338-1.858,0.495-2.985,0.454
		c-0.118-0.004-0.231-0.059-0.318-0.153C54.918,76.815,54.866,76.672,54.873,76.528z"/>
</g>
</svg>
