<?xml version="1.0" encoding="iso-8859-1"?>
<!-- Generator: Adobe Illustrator 17.0.2, SVG Export Plug-In . SVG Version: 6.00 Build 0)  -->
<!DOCTYPE svg PUBLIC "-//W3C//DTD SVG 1.1//EN" "http://www.w3.org/Graphics/SVG/1.1/DTD/svg11.dtd">
<svg version="1.1" id="Capa_1" xmlns="http://www.w3.org/2000/svg" xmlns:xlink="http://www.w3.org/1999/xlink" x="0px" y="0px"
	 width="100px" height="100px" viewBox="0 0 100 100" style="enable-background:new 0 0 100 100;" xml:space="preserve">
<g>
	<path style="fill:#1E1E1C;" d="M53.093,21.613c-0.918-0.031-1.844-0.052-2.77-0.052c-1.208,0-2.297,0.035-3.329,0.106
		c-1.879,0.129-3.343,1.714-3.333,3.609c0.03,5.36-0.132,11.171-0.512,18.286c-0.104,1.906,1.356,3.581,3.252,3.733
		c2.017,0.163,4.004,0.218,5.917,0.253c1.912,0,3.464-1.496,3.533-3.404c0.232-6.3,0.448-12.6,0.642-18.905
		C56.55,23.305,55.025,21.678,53.093,21.613z M50.908,42.517c-0.882-0.023-1.784-0.057-2.692-0.108
		c0.304-6.006,0.448-11.1,0.449-15.82c0.863-0.03,1.827-0.034,2.784-0.017C51.283,31.887,51.103,37.202,50.908,42.517z"/>
	<path style="fill:#1E1E1C;" d="M69.161,62.565c-0.095-0.479-0.389-1.325-0.808-2.047c-1.242-2.139-3.156-3.741-5.688-4.763
		c-0.404-0.163-0.825-0.246-1.249-0.246c-1.742,0-3.11,1.35-3.183,3.14c-0.22,5.474-0.447,10.946-0.679,16.42
		c-0.038,0.929,0.282,1.797,0.902,2.444c0.607,0.633,1.432,0.981,2.32,0.981c0.279,0,0.561-0.036,0.84-0.106
		c2.696-0.685,4.75-1.766,6.102-3.212c0.946-1.012,1.88-2.322,2.293-5.038c0.28-1.827-0.299-5.396-0.8-7.344
		C69.193,62.721,69.177,62.646,69.161,62.565z M65.07,69.383c-0.237,1.562-0.626,1.977-1.002,2.379
		c-0.327,0.35-0.807,0.68-1.41,0.976c0.153-3.628,0.304-7.256,0.451-10.884c0.363,0.354,0.671,0.747,0.921,1.178
		c0.107,0.185,0.213,0.467,0.225,0.498c0.033,0.167,0.071,0.336,0.115,0.508C64.874,65.998,65.182,68.659,65.07,69.383z"/>
	<path style="fill:#1E1E1C;" d="M36.148,24.45c-6.721,3.575-7.655,8.836-7.258,12.595l0.008,0.117
		c0.015,0.448,0.096,1.329,0.477,2.188c1.107,2.495,3.837,4.083,6.36,5.306C36.204,44.884,36.695,45,37.194,45
		c1.679,0,3.011-1.308,3.099-3.044c0.283-5.667,0.422-10.347,0.437-14.727c0.003-0.888-0.32-1.703-0.91-2.295
		C38.888,23.997,37.385,23.792,36.148,24.45z M35.437,38.775c-0.802-0.538-1.3-1.022-1.488-1.447
		c-0.021-0.055-0.048-0.207-0.052-0.328c-0.005-0.143-0.015-0.286-0.031-0.456c-0.244-2.307,0.328-4.137,1.823-5.665
		C35.643,33.331,35.56,35.927,35.437,38.775z"/>
	<path style="fill:#1E1E1C;" d="M52.011,54.319c-2.267-0.147-4.107-0.306-5.793-0.498c-2.018-0.222-3.74,1.284-3.844,3.249
		c-0.213,4.07-0.394,8.143-0.573,12.215l-0.233,5.209c-0.083,1.818,1.197,3.445,2.976,3.785c2.113,0.405,4.24,0.681,6.323,0.819
		c0.055,0.004,0.177,0.008,0.231,0.008c1.875,0,3.408-1.472,3.49-3.354c0.25-5.919,0.496-11.838,0.732-17.757
		C55.396,56.095,53.913,54.445,52.011,54.319z M49.658,73.98c-1.01-0.103-2.026-0.239-3.045-0.409l0.183-4.064
		c0.155-3.516,0.312-7.031,0.488-10.546c0.927,0.089,1.91,0.172,2.983,0.25C50.069,64.136,49.865,69.059,49.658,73.98z"/>
	<path style="fill:#1E1E1C;" d="M81.074,60.954c-0.043-0.293-0.083-0.564-0.118-0.761c-0.072-0.413-0.185-0.823-0.333-1.222
		c-2.905-7.734-8.852-13.129-16.809-15.287c0.195-5.336,0.379-10.672,0.547-16.008c0.678,0.155,1.42,0.335,2.016,0.48
		c1.388,0.337,2.196,0.531,2.671,0.595c0.542,0.074,1.085,0.111,1.614,0.111c4.251,0,7.414-2.275,8.462-6.086
		c0.634-2.305,0.153-5.062-1.256-7.195c-1.215-1.84-2.982-3.003-4.979-3.275c-0.878-0.12-2.508-0.468-4.085-0.804
		c-1.446-0.309-2.836-0.605-3.963-0.803c0.022-0.877,0.045-1.754,0.065-2.632c0.041-1.771-0.545-3.329-1.694-4.505
		C62.037,2.36,60.33,1.67,58.528,1.67c-3.659,0-6.481,2.701-6.563,6.281L51.92,9.709c-1.325-0.013-2.653,0.008-3.888,0.062
		c-0.005-0.084-0.011-0.159-0.016-0.221c-0.359-3.997-3.701-6.088-6.817-6.088c-1.833,0-3.532,0.709-4.662,1.944
		c-0.771,0.844-1.647,2.326-1.444,4.588c0.041,0.458,0.073,1.156,0.105,1.854c-11.5,3.763-18.826,13.262-18.321,23.897
		c0.015,0.308,0.035,0.621,0.051,0.872c0.011,0.163,0.02,0.294,0.022,0.356c0.002,0.134,0.008,0.27,0.019,0.415
		c0.833,11.212,9.772,16.559,17.497,19.091c-0.23,4.353-0.428,8.757-0.618,13.034c-1.45-0.689-2.937-1.438-3.797-1.923
		c-1.344-0.756-2.746-1.14-4.17-1.14c-3.74,0-7.193,2.814-8.21,6.69c-0.971,3.706,0.528,7.191,3.913,9.097
		c3.152,1.774,7.785,3.896,11.358,5.216c-0.074,1.198-0.152,2.396-0.237,3.595c-0.125,1.788,0.4,3.367,1.52,4.568
		c1.143,1.227,2.845,1.93,4.668,1.93c3.137,0,6.461-2.111,6.745-6.149c0.02-0.284,0.039-0.569,0.058-0.854
		c1.098,0.146,2.202,0.264,3.309,0.351c-0.006,0.401-0.011,0.732-0.018,0.867c-0.075,1.779,0.485,3.347,1.622,4.533
		c1.162,1.213,2.867,1.908,4.678,1.908c3.167,0,6.465-2.14,6.641-6.226c0.01-0.233,0.021-0.854,0.03-1.53
		c6.823-1.133,12.362-4.271,16.042-9.097c3.736-4.897,4.824-11.43,3.231-19.414C81.174,61.65,81.122,61.285,81.074,60.954z
		 M74.023,78.318c-3.749,4.915-9.312,6.664-13.316,7.265c-0.24,0.036-0.481,0.068-0.726,0.098c-1.686,0.208-2.979,1.734-3.007,3.551
		l-0.013,0.869c-0.011,0.714-0.021,1.414-0.031,1.66c-0.057,1.339-1.272,1.442-1.645,1.442c-0.441,0-0.85-0.141-1.067-0.367
		c-0.064-0.067-0.262-0.273-0.237-0.855c0.011-0.23,0.021-1.016,0.031-1.789l0.008-0.6c0.026-1.91-1.448-3.489-3.355-3.596
		c-1.97-0.11-3.95-0.326-5.89-0.642c-0.19-0.031-0.379-0.046-0.563-0.046c-1.821,0-3.281,1.376-3.396,3.199
		c-0.054,0.848-0.107,1.695-0.167,2.541c-0.1,1.427-1.481,1.499-1.757,1.499c-0.429,0-0.815-0.13-1.011-0.339
		c-0.151-0.163-0.215-0.435-0.188-0.809c0.105-1.507,0.202-3.014,0.293-4.52c0.103-1.674-0.979-3.293-2.572-3.85
		c-3.361-1.177-8.252-3.39-11.377-5.149c-1.757-0.988-1.801-2.434-1.529-3.471c0.376-1.435,1.686-2.959,3.373-2.959
		c0.554,0,1.132,0.167,1.717,0.496c1.513,0.854,4.622,2.369,6.652,3.245c0.432,0.187,0.88,0.28,1.333,0.28
		c1.711,0,3.062-1.327,3.141-3.088l0.102-2.272c0.209-4.69,0.426-9.541,0.684-14.3c0.096-1.716-1.033-3.327-2.688-3.832
		c-9.47-2.882-14.332-7.776-14.866-14.955l-0.006-0.151c-0.002-0.092-0.014-0.304-0.031-0.576c-0.015-0.229-0.033-0.515-0.047-0.793
		c-0.47-9.891,7.522-16.742,15.652-19.145c1.652-0.489,2.793-2.087,2.712-3.801l-0.029-0.65c-0.04-0.869-0.082-1.784-0.133-2.361
		c-0.033-0.362,0.02-0.621,0.154-0.77c0.177-0.193,0.559-0.318,0.972-0.318c0.174,0,1.703,0.043,1.837,1.535
		c0.022,0.251,0.038,0.743,0.056,1.229l0.01,0.274c0.065,1.881,1.597,3.354,3.487,3.354c0.057,0,0.184-0.004,0.239-0.008
		c1.375-0.093,2.827-0.14,4.316-0.14c0.708,0,1.417,0.01,2.223,0.031c1.92,0,3.463-1.502,3.513-3.418l0.083-3.25
		c0.029-1.262,1.104-1.397,1.565-1.397c0.457,0,0.872,0.145,1.108,0.387c0.07,0.072,0.286,0.292,0.272,0.894
		c-0.03,1.283-0.064,2.566-0.099,3.85c-0.049,1.854,1.358,3.469,3.202,3.677c0.994,0.113,2.988,0.539,4.748,0.915
		c1.744,0.372,3.392,0.724,4.455,0.868c0.699,0.095,1.19,0.638,1.48,1.076c0.608,0.921,0.857,2.202,0.607,3.114
		c-0.44,1.601-1.666,2.413-3.642,2.413c-0.305,0-0.621-0.022-0.938-0.065c-0.27-0.04-1.366-0.306-2.168-0.5
		c-1.981-0.481-3.45-0.829-4.318-0.926c-2.038-0.222-3.755,1.314-3.817,3.313c-0.194,6.289-0.409,12.576-0.642,18.863
		c-0.064,1.744,1.179,3.357,2.89,3.752c6.784,1.572,11.853,5.986,14.271,12.426c0.041,0.109,0.071,0.222,0.093,0.339
		c0.028,0.16,0.059,0.375,0.093,0.607c0.061,0.417,0.129,0.877,0.2,1.24C77.626,69.429,76.852,74.612,74.023,78.318z"/>
</g>
</svg>
