<?xml version="1.0" encoding="iso-8859-1"?>
<!-- Generator: Adobe Illustrator 17.0.2, SVG Export Plug-In . SVG Version: 6.00 Build 0)  -->
<!DOCTYPE svg PUBLIC "-//W3C//DTD SVG 1.1//EN" "http://www.w3.org/Graphics/SVG/1.1/DTD/svg11.dtd">
<svg version="1.1" id="Capa_1" xmlns="http://www.w3.org/2000/svg" xmlns:xlink="http://www.w3.org/1999/xlink" x="0px" y="0px"
	 width="100px" height="100px" viewBox="0 0 100 100" style="enable-background:new 0 0 100 100;" xml:space="preserve">
<g>
	<path style="fill:#1D1D1B;" d="M93.328,18.639c-0.427-0.84-1.233-1.492-2.427-1.565c-27.848-1.716-55.738-2.575-83.639-2.315
		c-2.021,0.019-2.938,1.725-2.77,3.28c-0.067,0.239-0.116,0.491-0.124,0.772C3.83,38.536,4.092,58.261,4.93,77.975
		c-0.586,1.478-0.144,3.246,1.853,3.533c28.36,4.071,57.017,2.744,85.566,2.708c0.712-0.001,1.286-0.214,1.727-0.556
		c1.015-0.342,1.806-1.216,1.746-2.628c-0.849-20.056-1.426-40.121-1.447-60.197C94.374,19.828,93.945,19.102,93.328,18.639z
		 M10.65,76.233c-0.757-18.559-0.995-37.129-0.531-55.699c26.18-0.172,52.349,0.629,78.482,2.195
		c0.052,18.578,0.569,37.147,1.333,55.709C63.514,78.542,36.906,79.718,10.65,76.233z"/>
	<path style="fill:#1D1D1B;" d="M15.656,22.862c-3.733,0-3.733,5.788,0,5.788S19.388,22.862,15.656,22.862z"/>
	<path style="fill:#1D1D1B;" d="M83.57,29.807c3.733,0,3.733-5.788,0-5.788S79.838,29.807,83.57,29.807z"/>
	<path style="fill:#1D1D1B;" d="M16.813,68.395c-3.733,0-3.733,5.788,0,5.788S20.546,68.395,16.813,68.395z"/>
	<path style="fill:#1D1D1B;" d="M84.728,70.324c-3.733,0-3.733,5.788,0,5.788C88.46,76.113,88.46,70.324,84.728,70.324z"/>
	<path style="fill:#1D1D1B;" d="M82.223,41.327c-0.349-1.199-1.467-1.626-2.398-1.626c-0.2,0-0.403,0.019-0.606,0.057
		c-1.79,0.338-3.412,0.62-5.127,0.644c-1.438,0.02-2.119,0.966-2.277,1.845l-0.044,0.146c-0.24,1.444-0.382,2.974-0.443,4.789
		l-0.012,0.358l-0.344,0.104c-1.191,0.357-2.424,0.657-3.768,0.915c-1.029,0.197-1.635,1.173-1.702,2.035l-0.028,0.129
		c-0.599,1.678-1.172,3.189-1.752,4.622l-0.333,0.823l-0.531-0.712c-1.678-2.25-3.274-5.221-4.818-8.095
		c-1.104-2.054-2.147-3.995-3.188-5.629c-0.569-0.895-1.365-1.082-1.932-1.082c-1.108,0-2.213,0.733-2.515,1.67l-0.064,0.13
		c-0.137,0.199-0.231,0.38-0.298,0.57c-0.934,2.66-1.872,5.9-2.779,9.034c-0.869,3-1.767,6.103-2.656,8.676l-0.24,0.693
		l-0.558-0.477c-0.307-0.262-0.554-0.748-0.815-1.264c-0.175-0.345-0.392-0.773-0.536-0.908c-0.454-0.423-1.065-0.655-1.722-0.655
		l-0.18-0.02c-0.582-0.171-1.197-0.065-1.792,0.305c-0.631,0.392-1.279,0.952-1.964,1.546c-0.883,0.765-1.795,1.556-2.74,2.023
		l-0.321,0.158l-0.805-0.802c-1.271-1.271-2.585-2.585-4.017-3.73c-0.544-0.437-1.195-0.677-1.832-0.677
		c-0.613,0-1.175,0.225-1.624,0.649l-0.284,0.282c-0.034,0.025-0.068,0.05-0.101,0.081c-0.865,0.841-1.64,2.119-2.39,3.355
		c-0.614,1.012-1.193,1.968-1.837,2.739c-0.731,0.876-1.126,2.179-0.04,3.206c0.437,0.413,1.142,0.67,1.841,0.67
		c0.381,0,1.088-0.082,1.544-0.627c0.447-0.535,0.901-1.369,1.34-2.175c0.46-0.844,0.937-1.718,1.443-2.327l0.343-0.412l0.387,0.37
		c0.633,0.604,1.255,1.22,1.877,1.835l1.098,1.083l0.039,0.109c0.048,0.138,0.109,0.267,0.182,0.383
		c0.43,0.695,1.177,1.094,2.048,1.094c0.436,0,0.882-0.103,1.291-0.296c1.013-0.479,2.058-1.287,3.069-2.069
		c0.831-0.643,1.69-1.308,2.534-1.79l0.305-0.174l0.267,0.228c0.471,0.4,0.917,1.054,1.348,1.686
		c0.378,0.554,0.768,1.126,1.118,1.437l0.098,0.087l0.043,0.124c0.289,0.835,1.269,1.418,2.384,1.418
		c1.107,0,1.973-0.587,2.318-1.569c0.909-2.59,1.823-5.76,2.707-8.826c0.846-2.932,1.72-5.964,2.585-8.468l0.328-0.95l0.56,0.834
		c0.994,1.48,1.981,3.249,3.027,5.12c1.467,2.626,2.984,5.34,4.561,7.299c0.116,0.146,0.245,0.274,0.393,0.395l0.101,0.112
		c0.199,0.302,0.458,0.538,0.79,0.723c0.342,0.19,0.785,0.295,1.246,0.295c0.713,0,1.674-0.276,2.037-1.055
		c1.291-2.773,2.497-5.694,3.687-8.932l0.093-0.254l0.264-0.061c1.398-0.321,2.642-0.686,3.802-1.116l0.168-0.053
		c0.98-0.124,2.027-0.749,2.028-2.131v-0.229c0-1.263-0.001-2.57,0.109-3.859l0.034-0.406l0.405-0.048
		c1.41-0.168,2.777-0.414,3.927-0.631c0.559-0.105,1.043-0.452,1.365-0.976C82.282,42.553,82.386,41.889,82.223,41.327z"/>
</g>
</svg>
