<?xml version="1.0" encoding="iso-8859-1"?>
<!-- Generator: Adobe Illustrator 17.0.2, SVG Export Plug-In . SVG Version: 6.00 Build 0)  -->
<!DOCTYPE svg PUBLIC "-//W3C//DTD SVG 1.1//EN" "http://www.w3.org/Graphics/SVG/1.1/DTD/svg11.dtd">
<svg version="1.1" id="Capa_1" xmlns="http://www.w3.org/2000/svg" xmlns:xlink="http://www.w3.org/1999/xlink" x="0px" y="0px"
	 width="100px" height="100px" viewBox="0 0 100 100" style="enable-background:new 0 0 100 100;" xml:space="preserve">
<g>
	<path d="M26.592,8.374c-3.207,1.028-2.522,5.466,0.082,6.046c0.347,0.496,0.861,0.906,1.566,1.15
		c16.378,5.667,27.53,20.068,22.215,37.672C45.032,71.204,25.488,78.05,8.457,74.714c-0.477-0.093-0.919-0.083-1.323,0.003
		c-2.635-0.6-5.346,2.84-2.92,5.162c12.738,12.192,29.345,17.221,46.611,13.298c15.623-3.549,29.623-14.517,37.544-28.313
		c7.451-12.976,7.847-28.807-0.864-41.248C73.475,3.578,48.297,1.414,26.592,8.374z M81.918,63.638
		C74.999,75.087,63.099,83.41,50.313,86.934c-11.904,3.281-23.815,1.005-33.818-5.269c17.199,0.144,33.143-8.462,39.582-25.773
		c6.935-18.646-3.913-35.429-19.962-43.62c17.468-3.555,35.674-0.361,46.719,15.414C90.618,38.804,88.597,52.584,81.918,63.638z"/>
</g>
</svg>
