<?xml version="1.0" encoding="iso-8859-1"?>
<!-- Generator: Adobe Illustrator 17.0.2, SVG Export Plug-In . SVG Version: 6.00 Build 0)  -->
<!DOCTYPE svg PUBLIC "-//W3C//DTD SVG 1.1//EN" "http://www.w3.org/Graphics/SVG/1.1/DTD/svg11.dtd">
<svg version="1.1" id="Capa_1" xmlns="http://www.w3.org/2000/svg" xmlns:xlink="http://www.w3.org/1999/xlink" x="0px" y="0px"
	 width="100px" height="100px" viewBox="0 0 100 100" style="enable-background:new 0 0 100 100;" xml:space="preserve">
<g>
	<path style="fill:#1D1D1B;" d="M51.595,11.473c-1.874,0-3.778,0.112-5.683,0.334c-0.894,0.114-1.783,0.247-2.64,0.394
		c-0.552,0.085-1.06,0.248-1.518,0.483C23.807,15.073,10.068,28.525,7.507,46.28C4.369,68.033,20.848,88.531,44.24,91.973
		c2.057,0.303,4.174,0.456,6.292,0.456c0.001,0,0,0,0.002,0c21.474,0,40.128-14.601,43.39-33.962
		c1.88-11.157-2.181-23.4-11.141-33.591C75.183,16.233,64.106,11.473,51.595,11.473z M54.112,21.458
		c8.348,0.589,15.595,4.048,21.553,10.29c7.009,7.343,10.136,17.666,8.16,26.94C81.312,70.493,68.899,82.443,50.04,82.443
		c-2.189,0-4.344-0.191-6.404-0.569C26.3,78.693,14.578,62.699,17.506,46.219c2.512-14.133,14.949-24.003,30.248-24.003
		c1.032,0,2.081,0.046,3.116,0.138C52.144,22.466,53.236,22.143,54.112,21.458z"/>
</g>
</svg>
