<?xml version="1.0" encoding="iso-8859-1"?>
<!-- Generator: Adobe Illustrator 17.0.2, SVG Export Plug-In . SVG Version: 6.00 Build 0)  -->
<!DOCTYPE svg PUBLIC "-//W3C//DTD SVG 1.1//EN" "http://www.w3.org/Graphics/SVG/1.1/DTD/svg11.dtd">
<svg version="1.1" id="Capa_1" xmlns="http://www.w3.org/2000/svg" xmlns:xlink="http://www.w3.org/1999/xlink" x="0px" y="0px"
	 width="100px" height="100px" viewBox="0 0 100 100" style="enable-background:new 0 0 100 100;" xml:space="preserve">
<g>
	<path style="fill:#1D1D1B;" d="M42.863,13.509c0.041-0.803-0.14-1.491-0.537-2.045c-0.615-1.208-1.658-1.877-2.978-1.95
		c-8.97-0.488-17.931-0.529-27.086-0.531c-1.012,0-1.866,0.357-2.47,1.032l-0.126,0.102c-1.443,0.818-2.125,2.259-1.822,3.852
		c1.314,6.918,1.947,14.212,1.993,22.955c0.002,0.317,0.049,0.634,0.149,0.997l0.017,0.101c0.105,1.628,1.182,3.329,3.35,3.457
		c9.515,0.561,18.085,1.107,26.612,2.129c0.669,0.08,1.247-0.013,1.76-0.273l0.104-0.039c0.717-0.179,2.357-0.841,2.098-3.122
		C42.808,30.295,42.459,21.574,42.863,13.509z M35.966,36.206c-6.698-0.694-13.237-1.131-18.75-1.466l-0.46-0.028l-0.01-0.46
		c-0.132-6.246-0.607-12.04-1.453-17.712l-0.085-0.575l0.581,0.001c7.895,0.016,13.917,0.123,19.527,0.35l0.492,0.02l-0.012,0.492
		c-0.143,5.972,0.092,12.133,0.719,18.835l0.057,0.606L35.966,36.206z"/>
	<path style="fill:#1D1D1B;" d="M42.863,60.891c0.041-0.803-0.14-1.491-0.537-2.045c-0.615-1.209-1.658-1.878-2.978-1.949
		c-8.977-0.489-17.935-0.53-27.087-0.531c-1.012,0-1.866,0.356-2.47,1.031l-0.126,0.102c-1.443,0.819-2.125,2.26-1.822,3.854
		c1.314,6.917,1.947,14.211,1.993,22.954c0.002,0.316,0.049,0.633,0.149,0.996l0.017,0.101c0.105,1.629,1.182,3.33,3.35,3.457
		c9.515,0.561,18.085,1.108,26.612,2.13c0.67,0.08,1.248-0.014,1.76-0.273l0.104-0.039c0.717-0.179,2.357-0.841,2.098-3.122
		C42.808,77.677,42.459,68.955,42.863,60.891z M35.966,83.588c-6.688-0.693-13.231-1.131-18.75-1.467l-0.46-0.028l-0.01-0.46
		c-0.132-6.246-0.607-12.039-1.453-17.711l-0.085-0.575l0.581,0.001c7.896,0.016,13.919,0.123,19.527,0.35l0.492,0.021l-0.012,0.491
		c-0.143,5.973,0.092,12.134,0.719,18.835l0.057,0.607L35.966,83.588z"/>
	<path style="fill:#1D1D1B;" d="M91.136,13.509c0.041-0.803-0.14-1.491-0.537-2.045c-0.615-1.208-1.658-1.877-2.978-1.95
		c-8.97-0.488-17.931-0.529-27.086-0.531c-1.012,0-1.866,0.357-2.47,1.032l-0.126,0.102c-1.443,0.818-2.124,2.259-1.821,3.852
		c1.313,6.918,1.947,14.212,1.993,22.955c0.002,0.317,0.049,0.634,0.149,0.997l0.017,0.101c0.105,1.628,1.182,3.329,3.35,3.457
		c9.515,0.561,18.085,1.107,26.612,2.129c0.67,0.079,1.247-0.013,1.761-0.273l0.104-0.039c0.717-0.179,2.356-0.841,2.098-3.122
		C91.081,30.292,90.732,21.571,91.136,13.509z M84.238,36.206c-6.698-0.694-13.237-1.131-18.75-1.466l-0.46-0.028l-0.01-0.46
		c-0.132-6.246-0.607-12.04-1.453-17.712l-0.085-0.575l0.581,0.001c7.895,0.016,13.917,0.123,19.527,0.35l0.492,0.02l-0.012,0.492
		c-0.143,5.972,0.092,12.133,0.719,18.835l0.057,0.606L84.238,36.206z"/>
	<path style="fill:#1D1D1B;" d="M91.136,60.891c0.041-0.803-0.14-1.491-0.537-2.045c-0.615-1.209-1.658-1.878-2.978-1.949
		c-8.977-0.489-17.935-0.53-27.087-0.531c-1.012,0-1.866,0.356-2.47,1.031l-0.126,0.102c-1.443,0.819-2.124,2.259-1.821,3.853
		c1.313,6.918,1.947,14.213,1.993,22.955c0.002,0.316,0.049,0.633,0.149,0.996l0.017,0.101c0.105,1.629,1.182,3.33,3.35,3.457
		c9.515,0.561,18.085,1.108,26.612,2.13c0.671,0.08,1.248-0.014,1.761-0.273l0.104-0.039c0.717-0.179,2.356-0.841,2.098-3.122
		C91.081,77.674,90.732,68.952,91.136,60.891z M84.238,83.588c-6.688-0.693-13.231-1.131-18.75-1.467l-0.46-0.028l-0.01-0.46
		c-0.132-6.246-0.607-12.039-1.453-17.711l-0.085-0.575l0.581,0.001c7.897,0.016,13.919,0.123,19.527,0.35l0.492,0.021l-0.012,0.491
		c-0.143,5.973,0.092,12.134,0.719,18.835l0.057,0.607L84.238,83.588z"/>
</g>
</svg>
