<?xml version="1.0" encoding="iso-8859-1"?>
<!-- Generator: Adobe Illustrator 17.0.2, SVG Export Plug-In . SVG Version: 6.00 Build 0)  -->
<!DOCTYPE svg PUBLIC "-//W3C//DTD SVG 1.1//EN" "http://www.w3.org/Graphics/SVG/1.1/DTD/svg11.dtd">
<svg version="1.1" id="Capa_1" xmlns="http://www.w3.org/2000/svg" xmlns:xlink="http://www.w3.org/1999/xlink" x="0px" y="0px"
	 width="100px" height="100px" viewBox="0 0 100 100" style="enable-background:new 0 0 100 100;" xml:space="preserve">
<g>
	<path style="fill:#1D1D1B;" d="M30.338,12.272c0.039-0.763-0.145-1.466-0.533-2.039c-0.578-1.093-1.63-1.758-2.897-1.827
		C21.294,8.101,15.685,8.075,9.955,8.074C9,8.074,8.172,8.405,7.552,9.033c-1.296,0.804-1.923,2.209-1.639,3.705
		c0.803,4.231,1.191,8.701,1.219,14.069c0.001,0.286,0.038,0.563,0.114,0.864c0.164,1.83,1.513,3.17,3.312,3.276
		c5.907,0.349,11.227,0.688,16.508,1.321c0.151,0.018,0.296,0.026,0.435,0.026c0.465,0,0.904-0.094,1.307-0.279
		c1.515-0.426,2.37-1.725,2.187-3.338C30.305,22.592,30.09,17.227,30.338,12.272z M23.659,24.927
		c-3.409-0.331-6.713-0.56-9.621-0.741c-0.096-3.184-0.337-6.19-0.733-9.133c2.878,0.011,6.385,0.047,9.988,0.176
		C23.254,18.33,23.374,21.522,23.659,24.927z"/>
	<path style="fill:#1D1D1B;" d="M30.338,41.805c0.039-0.763-0.145-1.466-0.533-2.039c-0.578-1.093-1.629-1.758-2.897-1.827
		c-5.631-0.306-11.232-0.332-16.954-0.333c-0.955,0-1.782,0.331-2.403,0.959c-1.296,0.804-1.923,2.209-1.639,3.705
		c0.803,4.231,1.191,8.702,1.219,14.07c0.001,0.282,0.039,0.565,0.114,0.863c0.164,1.83,1.513,3.171,3.312,3.276
		c4.814,0.284,10.805,0.637,16.507,1.32c0.152,0.018,0.297,0.026,0.438,0.026c0.464,0,0.903-0.094,1.306-0.278
		c1.514-0.428,2.37-1.727,2.187-3.34C30.305,52.124,30.09,46.758,30.338,41.805z M23.659,54.459c-3.397-0.33-6.706-0.56-9.621-0.741
		c-0.096-3.184-0.337-6.19-0.733-9.133c3.904,0.016,7.062,0.071,9.988,0.176C23.254,47.862,23.374,51.055,23.659,54.459z"/>
	<path style="fill:#1D1D1B;" d="M30.338,70.145c0.039-0.763-0.145-1.466-0.533-2.039c-0.578-1.093-1.629-1.757-2.897-1.826
		c-5.624-0.306-11.229-0.332-16.954-0.333c-0.955,0-1.782,0.331-2.403,0.959c-1.297,0.805-1.923,2.21-1.639,3.705
		c0.803,4.23,1.191,8.701,1.219,14.069c0.001,0.286,0.038,0.563,0.114,0.864c0.164,1.828,1.512,3.17,3.312,3.276
		c4.814,0.284,10.805,0.637,16.509,1.32c0.15,0.018,0.294,0.026,0.433,0.026c0,0,0,0,0,0c0.465,0,0.904-0.094,1.308-0.278
		c1.515-0.427,2.371-1.726,2.188-3.34C30.305,80.465,30.09,75.099,30.338,70.145z M23.659,82.8c-3.445-0.334-6.84-0.568-9.621-0.741
		c-0.096-3.184-0.337-6.191-0.733-9.134c2.88,0.011,6.388,0.048,9.988,0.176C23.254,76.202,23.374,79.396,23.659,82.8z"/>
	<path style="fill:#1D1D1B;" d="M60.425,12.272c0.039-0.764-0.145-1.467-0.533-2.04c-0.578-1.093-1.629-1.757-2.896-1.826
		c-5.615-0.306-11.223-0.332-16.954-0.333c-0.955,0-1.782,0.331-2.403,0.959c-1.297,0.804-1.923,2.209-1.639,3.705
		c0.804,4.234,1.191,8.704,1.219,14.069c0.001,0.285,0.038,0.562,0.114,0.864c0.164,1.83,1.512,3.17,3.312,3.276
		c5.908,0.349,11.228,0.688,16.508,1.321c0.15,0.018,0.295,0.026,0.435,0.026c0.465,0,0.904-0.094,1.307-0.279
		c1.515-0.426,2.37-1.725,2.187-3.338C60.392,22.592,60.177,17.226,60.425,12.272z M53.746,24.927
		c-3.408-0.331-6.713-0.56-9.621-0.741c-0.096-3.184-0.337-6.19-0.733-9.133c2.878,0.011,6.384,0.047,9.989,0.176
		C53.341,18.329,53.461,21.521,53.746,24.927z"/>
	<path style="fill:#1D1D1B;" d="M60.425,41.805c0.039-0.764-0.145-1.467-0.533-2.039c-0.577-1.093-1.628-1.758-2.896-1.827
		c-5.631-0.306-11.233-0.332-16.954-0.333c-0.955,0-1.782,0.331-2.403,0.959c-1.297,0.804-1.923,2.209-1.639,3.705
		c0.804,4.234,1.191,8.705,1.219,14.07c0.001,0.285,0.038,0.562,0.114,0.864c0.164,1.829,1.512,3.17,3.312,3.275
		c4.814,0.284,10.806,0.638,16.507,1.32c0.151,0.018,0.297,0.026,0.438,0.026c0.464,0,0.903-0.094,1.306-0.278
		c1.514-0.427,2.37-1.727,2.187-3.339C60.392,52.124,60.177,46.758,60.425,41.805z M53.746,54.459
		c-3.396-0.33-6.706-0.56-9.621-0.741c-0.096-3.184-0.337-6.19-0.733-9.133c3.904,0.016,7.062,0.071,9.989,0.176
		C53.341,47.861,53.461,51.054,53.746,54.459z"/>
	<path style="fill:#1D1D1B;" d="M60.425,70.145c0.039-0.764-0.145-1.467-0.533-2.039c-0.578-1.093-1.629-1.757-2.896-1.826
		c-5.625-0.306-11.229-0.332-16.954-0.333c-0.955,0-1.782,0.331-2.403,0.959c-1.297,0.804-1.923,2.209-1.639,3.705
		c0.804,4.233,1.191,8.704,1.219,14.069c0.001,0.285,0.038,0.562,0.114,0.864c0.164,1.828,1.512,3.17,3.312,3.276
		c4.814,0.284,10.806,0.638,16.509,1.32c0.15,0.018,0.294,0.026,0.433,0.026c0.465,0,0.904-0.094,1.308-0.278
		c1.515-0.427,2.371-1.726,2.188-3.339C60.392,80.465,60.177,75.098,60.425,70.145z M53.746,82.8
		c-3.444-0.334-6.839-0.568-9.621-0.741c-0.096-3.184-0.337-6.191-0.733-9.134c2.88,0.011,6.388,0.048,9.989,0.176
		C53.341,76.201,53.461,79.395,53.746,82.8z"/>
	<path style="fill:#1D1D1B;" d="M91.626,12.272c0.039-0.764-0.145-1.467-0.533-2.04c-0.579-1.093-1.63-1.757-2.897-1.826
		c-5.614-0.306-11.223-0.332-16.953-0.333c-0.956,0-1.783,0.331-2.403,0.959c-1.296,0.804-1.923,2.209-1.639,3.705
		c0.803,4.231,1.191,8.701,1.219,14.069c0.001,0.287,0.038,0.564,0.115,0.865c0.164,1.829,1.512,3.169,3.312,3.275
		c5.908,0.349,11.228,0.688,16.508,1.321c0.151,0.018,0.296,0.026,0.435,0.026c0.465,0,0.904-0.094,1.308-0.279
		c1.514-0.426,2.37-1.725,2.187-3.338C91.593,22.589,91.378,17.223,91.626,12.272z M84.947,24.927
		c-3.409-0.331-6.713-0.56-9.621-0.741c-0.096-3.184-0.337-6.19-0.733-9.133c2.878,0.011,6.384,0.047,9.989,0.176
		C84.543,18.333,84.663,21.525,84.947,24.927z"/>
	<path style="fill:#1D1D1B;" d="M91.626,41.805c0.039-0.764-0.145-1.467-0.533-2.04c-0.578-1.093-1.629-1.757-2.897-1.827
		c-5.631-0.306-11.232-0.332-16.953-0.333c-0.956,0-1.783,0.331-2.403,0.959c-1.296,0.804-1.923,2.209-1.639,3.705
		c0.803,4.231,1.191,8.702,1.219,14.07c0.001,0.282,0.039,0.566,0.115,0.864c0.164,1.829,1.512,3.17,3.312,3.275
		c4.814,0.284,10.806,0.638,16.507,1.32c0.152,0.018,0.297,0.026,0.438,0.026c0.464,0,0.903-0.094,1.306-0.278
		c1.514-0.428,2.37-1.727,2.187-3.339C91.594,52.121,91.378,46.755,91.626,41.805z M84.947,54.459
		c-3.397-0.33-6.706-0.56-9.621-0.741c-0.096-3.184-0.337-6.19-0.733-9.133c3.904,0.016,7.062,0.071,9.989,0.176
		C84.542,47.865,84.663,51.058,84.947,54.459z"/>
	<path style="fill:#1D1D1B;" d="M91.626,70.145c0.039-0.764-0.145-1.467-0.533-2.04c-0.578-1.092-1.629-1.756-2.897-1.825
		c-5.624-0.306-11.229-0.332-16.953-0.333c-0.956,0-1.783,0.331-2.403,0.959c-1.297,0.805-1.923,2.21-1.639,3.705
		c0.803,4.23,1.191,8.701,1.219,14.069c0.001,0.287,0.038,0.564,0.115,0.865c0.164,1.828,1.512,3.169,3.312,3.275
		c4.814,0.284,10.806,0.638,16.509,1.32c0.15,0.018,0.294,0.026,0.433,0.026c0.465,0,0.905-0.094,1.308-0.278
		c1.515-0.427,2.371-1.726,2.188-3.339C91.593,80.462,91.378,75.096,91.626,70.145z M84.947,82.8
		c-3.445-0.334-6.84-0.568-9.621-0.741c-0.096-3.184-0.337-6.191-0.733-9.134c2.88,0.011,6.389,0.048,9.989,0.176
		C84.542,76.205,84.663,79.397,84.947,82.8z"/>
</g>
</svg>
