<?xml version="1.0" encoding="iso-8859-1"?>
<!-- Generator: Adobe Illustrator 17.0.2, SVG Export Plug-In . SVG Version: 6.00 Build 0)  -->
<!DOCTYPE svg PUBLIC "-//W3C//DTD SVG 1.1//EN" "http://www.w3.org/Graphics/SVG/1.1/DTD/svg11.dtd">
<svg version="1.1" id="Capa_1" xmlns="http://www.w3.org/2000/svg" xmlns:xlink="http://www.w3.org/1999/xlink" x="0px" y="0px"
	 width="100px" height="100px" viewBox="0 0 100 100" style="enable-background:new 0 0 100 100;" xml:space="preserve">
<g>
	<path style="fill:#1D1D1B;" d="M91.265,3.928c-0.605,0-1.214,0.217-1.759,0.628c-3.408,2.566-5.186,5.473-5.594,9.149
		c-0.147,1.318-0.171,2.63-0.195,3.899c-0.076,4.018-0.141,7.489-3.942,9.788c-2.36,1.427-5.491,1.634-8.519,1.834
		c-1.345,0.089-2.736,0.181-4.025,0.381c-4.02,0.626-7.636,2.625-11.032,6.101c-3.603-2.476-7.923-3.78-12.554-3.78
		c-6.188,0-12.457,2.286-17.663,6.439c-0.12,0.064-0.24,0.133-0.362,0.222c-1.229,0.894-2.499,1.773-3.777,2.658
		C13.947,46.714,5.784,52.368,4.471,62.825c-0.026,0.207-0.033,0.413-0.021,0.613c-0.636,6.598,1.531,13.108,2.884,16.41
		c3.426,8.365,10.205,14.145,18.134,15.463c1.003,0.167,2.041,0.251,3.086,0.251c0,0,0,0,0.001,0c7.829,0,15.154-4.634,19.919-8.521
		c16.883-13.772,22.227-28.994,15.048-42.862c-0.762-1.471-1.649-2.843-2.645-4.089c2.969-2.834,6.283-4.239,10.907-4.656
		c3.972-0.358,7.552-0.794,11.144-2.511c3.527-1.686,5.939-4.979,6.792-9.272c0.33-1.661,0.329-3.371,0.328-5.024
		c-0.002-3.509-0.004-6.539,2.866-8.7c1.167-0.878,1.615-2.362,1.141-3.78C93.611,4.82,92.49,3.928,91.265,3.928z M55.676,70.304
		c-2.51,3.626-5.991,7.363-10.363,11.125c-4.074,3.505-10.348,7.683-17.098,7.683c-0.888,0-1.775-0.073-2.637-0.216
		c-8.567-1.424-12.414-11.052-13.669-15.125c-1.619-5.249-2.265-12.802,3.852-18.978c2.461-2.485,5.377-4.604,8.197-6.652
		c1.004-0.729,2.034-1.478,3.047-2.245C33.746,57.041,43.621,65.446,55.676,70.304z M40.07,52.448
		c-3.066-3.15-5.774-6.721-8.068-10.636c3.487-2.328,7.285-3.554,11.031-3.554c3.046,0,5.979,0.829,8.55,2.407
		C47.534,44.971,43.752,48.841,40.07,52.448z M58.519,48.36c2.657,5.131,2.755,10.634,0.295,16.369
		c-5.111-1.94-9.821-4.625-14.024-7.991c3.695-3.625,7.478-7.502,11.518-11.804C57.153,46.004,57.894,47.153,58.519,48.36z"/>
</g>
</svg>
