<?xml version="1.0" encoding="iso-8859-1"?>
<!-- Generator: Adobe Illustrator 17.0.2, SVG Export Plug-In . SVG Version: 6.00 Build 0)  -->
<!DOCTYPE svg PUBLIC "-//W3C//DTD SVG 1.1//EN" "http://www.w3.org/Graphics/SVG/1.1/DTD/svg11.dtd">
<svg version="1.1" id="Capa_1" xmlns="http://www.w3.org/2000/svg" xmlns:xlink="http://www.w3.org/1999/xlink" x="0px" y="0px"
	 width="100px" height="100px" viewBox="0 0 100 100" style="enable-background:new 0 0 100 100;" xml:space="preserve">
<g>
	<path style="fill:#1D1D1B;" d="M91.96,54.193c-11.367-3.944-17.024-14.151-22.425-24.148C65.81,23.15,61.849,16.09,55.992,10.756
		c-2.93-2.668-6.056-4.453-9.877-5.502c-1.807-0.496-10.458-2.244-10.23,2.086c0.567,10.732,0.502,21.484,0.289,32.225
		c-0.106,5.344-0.252,10.687-0.375,16.031c-0.109,4.725,0.439,9.904-0.319,14.57c0.106-0.651-8.407-1.568-9.118-1.584
		c-3.375-0.079-6.799,0.408-9.918,1.741c-7.859,3.359-9.672,12.145-4.113,19.035c10.416,12.91,28.194,6.214,37.979-3.576
		c0.143-0.143,0.261-0.291,0.361-0.441c0.422-0.413,0.714-0.985,0.742-1.734C52,67.751,51.819,51.89,51.77,36.029
		c10.121,9.13,18.651,20.287,32.735,22.919c0.346,0.196,0.755,0.323,1.246,0.33c1.422,0.02,2.728,0.311,4.143,0.598
		c1.034,0.209,2.083-0.107,2.711-0.879C94.14,57.98,94.293,55.003,91.96,54.193z M51.001,28.632
		c-2.223-1.727-5.227,0.673-4.418,2.686c0.014,17.059,0.281,34.12-0.311,51.172c-7.634,7.42-20.346,13.302-29.24,4.406
		c-2.171-2.171-3.693-5.636-2.187-8.573c1.971-3.845,7.369-4.655,11.583-4.841c3.723,0.018,7.181,1.262,10.393,3.388
		c1.901,1.258,3.704-0.419,3.79-2.196c0.061-0.224,0.104-0.462,0.104-0.729c0-16.71,0.855-33.408,0.778-50.118
		c-0.021-4.577-0.653-9.431-0.25-13.966c0.052-0.586,6.822,1.802,7.319,2.059c2.447,1.265,4.656,3.046,6.539,5.046
		c6.661,7.073,10.443,16.362,15.503,24.539c2.2,3.555,4.73,7.019,7.712,9.967C67.706,46.37,60.428,35.958,51.001,28.632z"/>
</g>
</svg>
