<?xml version="1.0" encoding="iso-8859-1"?>
<!-- Generator: Adobe Illustrator 17.0.2, SVG Export Plug-In . SVG Version: 6.00 Build 0)  -->
<!DOCTYPE svg PUBLIC "-//W3C//DTD SVG 1.1//EN" "http://www.w3.org/Graphics/SVG/1.1/DTD/svg11.dtd">
<svg version="1.1" id="Capa_1" xmlns="http://www.w3.org/2000/svg" xmlns:xlink="http://www.w3.org/1999/xlink" x="0px" y="0px"
	 width="100px" height="100px" viewBox="0 0 100 100" style="enable-background:new 0 0 100 100;" xml:space="preserve">
<g>
	<path style="fill:#1D1D1B;" d="M81.311,7.3c-0.079-1.225-1.104-2.435-2.648-2.037C70.846,7.277,64.012,11.7,57.85,16.792
		c-5.334,4.409-10.284,7.822-16.568,10.75c-2.506,1.168-5.171,1.68-7.873,2.167c-1.723,0.31-5.314,0.399-5.356,2.842
		c-0.245,14.329,0.214,28.655,0.275,42.984c-0.133-0.033-0.266-0.067-0.417-0.075c-5.409-0.293-10.704,1.236-13.974,5.768
		c-2.426,3.363-2.601,8.235-0.456,11.758c2.447,4.019,7.307,4.764,11.541,3.638c7.989-2.125,12.713-9.375,15.855-16.52
		c0.153-0.347,0.206-0.686,0.193-1.009c0.057-0.196,0.098-0.404,0.098-0.641V57.071c0-4.543-1.097-7.375,3.606-9.279
		c2.46-0.996,4.907-2.024,7.348-3.067c4.89-2.088,9.915-4.978,15.026-6.411c0.994,6.299,0.583,13.186,0.793,19.582
		c0.212,6.454,0.92,13.188,0.476,19.619c0.056-0.805-8.043-0.64-11.229,2.212c-3.599,3.222-4.694,7.263-2.244,11.398
		c1.901,3.207,5.419,5.586,9.11,6.106c4.925,0.694,9.349-1.636,12.499-5.336c1.771-2.081,3.124-4.459,4.238-6.944
		c0.118-0.263,0.172-0.52,0.192-0.771c0.054-0.183,0.094-0.377,0.1-0.593c0.724-26.069,0.682-49.05,0.57-75.12
		C81.652,7.995,81.519,7.61,81.311,7.3z M76.812,83.416c-1.947,4.161-4.838,8.506-9.41,9.551c-2.77,0.633-5.763-0.585-7.801-2.727
		c-0.831-0.873-1.441-1.94-1.743-3.119c-0.179-0.697-0.067-0.096-0.104-0.629c-0.009-0.134,0.027-0.736,0.011-0.775
		c0.05-0.274,0.123-0.544,0.213-0.807c0.001-0.003,0.001-0.003,0.002-0.006c0.014-0.025,0.029-0.053,0.055-0.105
		c0.078-0.156,0.171-0.303,0.264-0.449c0.075-0.119-0.001-0.043,0.353-0.412c0.42-0.439,0.236-0.264,0.649-0.544
		c0.829-0.561,1.405-0.754,2.356-1.024c2.718-0.772,5.672-0.614,8.45-0.351c0.331,0.031,0.619-0.006,0.87-0.092
		c0.974-0.102,1.863-0.779,1.839-2.047c-0.292-14.926-0.852-29.845-1.426-44.762c-0.058-1.52-1.393-2.199-2.556-2.038
		c-0.304-0.004-0.622,0.052-0.947,0.192c-9.885,4.25-19.691,8.685-29.711,12.614c-0.636,0.249-1.043,0.696-1.256,1.21
		c-0.194,0.306-0.317,0.68-0.314,1.137c0.018,2.949,0.265,5.89,0.285,8.838v21.383c0,0.041,0.01,0.076,0.012,0.116
		c-2.471,5.494-5.731,10.993-11.499,13.407c-2.686,1.125-6.367,1.612-8.23-1.15c-1.461-2.166-1.042-4.997,0.245-7.122
		c2.14-3.532,6.746-4.172,10.492-3.969c0.239,0.013,0.449-0.017,0.646-0.065c0.16,0.039,0.324,0.065,0.494,0.065h1.141
		c0.203,0,0.397-0.039,0.584-0.094c0.961-0.116,1.841-0.794,1.839-2.044c-0.019-14.235-0.481-28.467-0.311-42.702
		c9.153-1.832,16.21-4.139,23.226-10.38c6.836-6.08,13.163-11.401,21.854-14.391C77.49,35.582,77.516,57.957,76.812,83.416z"/>
</g>
</svg>
