<?xml version="1.0" encoding="iso-8859-1"?>
<!-- Generator: Adobe Illustrator 17.0.2, SVG Export Plug-In . SVG Version: 6.00 Build 0)  -->
<!DOCTYPE svg PUBLIC "-//W3C//DTD SVG 1.1//EN" "http://www.w3.org/Graphics/SVG/1.1/DTD/svg11.dtd">
<svg version="1.1" id="Capa_1" xmlns="http://www.w3.org/2000/svg" xmlns:xlink="http://www.w3.org/1999/xlink" x="0px" y="0px"
	 width="100px" height="100px" viewBox="0 0 100 100" style="enable-background:new 0 0 100 100;" xml:space="preserve">
<g>
	<path style="fill:#1E1E1C;" d="M79.798,44.303c2.004-2.717,3.758-6.705,3.78-6.766c0.19-0.503,0.169-1.062-0.059-1.55
		c-0.227-0.488-0.642-0.863-1.149-1.042c-0.297-0.104-0.616-0.221-0.952-0.344c-1.704-0.622-3.735-1.363-5.728-1.652
		c0.736-2.698,0.759-5.708,0.606-7.324c-0.051-0.541-0.319-1.038-0.744-1.376c-0.424-0.339-0.971-0.492-1.507-0.419
		c-2.118,0.278-4.725,0.665-7.279,1.293c-0.042-0.282-0.084-0.567-0.127-0.857c-0.315-2.142-0.642-4.356-1.481-6.461
		c-0.345-0.864-1.231-1.381-2.162-1.236c-2.626,0.404-4.738,2.166-6.602,3.72c-0.138,0.115-0.273,0.228-0.408,0.34
		c-0.957-1.51-1.966-2.989-2.95-4.432c-0.388-0.569-0.774-1.136-1.157-1.703c-0.372-0.551-0.993-0.882-1.658-0.882
		s-1.287,0.331-1.658,0.882c-0.548,0.812-1.054,1.667-1.544,2.495c-0.795,1.344-1.547,2.613-2.433,3.665
		c-0.081,0.096-0.15,0.177-0.209,0.244c-0.215-0.113-0.448-0.246-0.569-0.315c-1.824-1.04-3.757-2.549-5.521-3.928
		c-0.871-0.679-2.127-0.526-2.808,0.345c-0.337,0.431-0.469,0.958-0.41,1.461c-0.066,0.485-0.328,1.67-0.78,3.53
		c-0.089,0.365-0.148,0.62-0.161,0.686c-0.087,0.452-0.149,0.885-0.207,1.291c-0.057,0.399-0.13,0.919-0.212,1.19
		c-0.121,0.012-0.358,0.015-0.61-0.008c-1.394-0.125-2.92-0.502-4.396-0.867c-0.81-0.2-1.614-0.398-2.404-0.562
		c-0.656-0.135-1.342,0.068-1.819,0.544c-0.476,0.476-0.681,1.159-0.545,1.819c0.039,0.189,0.115,0.708,0.221,1.405
		c0.376,2.489,0.669,4.311,0.943,5.651c-2.669,0.405-5.863,1.463-6.985,1.889c-0.615,0.233-1.065,0.768-1.222,1.406
		c-0.157,0.639,0.022,1.327,0.46,1.819c0.502,0.564,3.005,4.058,4.086,5.84c-1.711,1.609-3.818,3.1-6.051,4.268
		c-0.589,0.309-0.986,0.89-1.06,1.551c-0.074,0.661,0.187,1.316,0.693,1.746c0.806,0.684,1.905,1.197,3.069,1.741
		c1.037,0.484,2.872,1.342,3.338,2.046c-0.594,1.363-2.917,4.97-3.821,5.911c-0.521,0.241-0.936,0.706-1.094,1.306
		c-0.28,1.068,0.357,2.162,1.426,2.443c0.001,0,0.003,0,0.004,0.001c0.762,0.199,1.844,0.301,3.096,0.418
		c1.209,0.114,3.552,0.334,4.573,0.701c-0.064,1.663-0.81,5.636-1.24,6.77c-0.377,0.436-0.564,1.031-0.462,1.644
		c0.184,1.09,1.214,1.819,2.305,1.641c0.944-0.159,1.958-0.521,3.032-0.903c1.321-0.472,2.819-1.006,3.898-1.006
		c0.316,0,0.567,0.047,0.676,0.093c0.626,0.598,0.905,3.77,1.024,5.124c0.086,0.979,0.16,1.825,0.297,2.491
		c0.19,0.93,1.01,1.598,1.959,1.598c0.702,0,0.702,0,3.617-2.287c0.681-0.535,1.271-0.998,1.363-1.068
		c0.685-0.512,1.877-1.421,2.444-1.247c0.81,0.831,3.211,4.145,3.716,5.31c-0.001,0.674,0.339,1.332,0.955,1.71
		c0.326,0.2,0.687,0.295,1.043,0.295c0.673,0,1.33-0.339,1.707-0.955c0.001-0.001,0.002-0.003,0.003-0.004
		c0.384-0.627,0.744-1.389,1.125-2.194c0.803-1.698,2-4.231,3.232-4.422c1.053,0.373,4.242,2.2,5.168,3.087
		c0.16,0.598,0.595,1.113,1.217,1.352c1.026,0.393,2.188-0.12,2.583-1.152l0.001-0.001c0-0.001,0-0.001,0-0.002
		c0.074-0.193,0.25-0.66,1.116-5.044c0.173-0.873,0.314-1.591,0.429-2.184c0.166,0.045,0.334,0.091,0.504,0.137
		c2.013,0.549,4.293,1.17,6.355,1.17c0.001,0,0.001,0,0.001,0c0.326,0,0.645-0.015,0.953-0.047c1.071-0.109,1.863-1.049,1.791-2.123
		c-0.031-0.466-0.271-1.673-1.026-5.31c-0.155-0.749-0.329-1.585-0.474-2.294c0.358-0.105,0.713-0.212,1.063-0.317
		c2.003-0.604,3.895-1.174,5.8-1.229c0.67-0.02,1.286-0.374,1.64-0.943c0.354-0.569,0.399-1.277,0.12-1.888
		c-0.959-2.097-2.433-4.197-3.891-6.142c0.553-0.361,1.224-0.818,2.043-1.395c3.806-2.674,4.153-3.279,4.34-3.604
		c0.458-0.796,0.314-1.802-0.347-2.438C83.963,46.783,81.869,45.507,79.798,44.303z M76.228,53.298
		c-0.273,0.061-0.539,0.181-0.776,0.361c-0.879,0.67-1.048,1.925-0.379,2.803l0.312,0.41c1.058,1.386,2.207,2.891,3.162,4.379
		c-1.275,0.269-2.507,0.64-3.715,1.004c-0.925,0.278-1.799,0.542-2.682,0.759c-1.893,0.463-1.544,2.208-1.264,3.611
		c0.154,0.771,0.37,1.812,0.594,2.885c0.156,0.753,0.347,1.672,0.517,2.506c-1.147-0.194-2.399-0.535-3.623-0.868
		c-0.967-0.264-1.881-0.513-2.756-0.694c-1.083-0.227-2.138,0.47-2.364,1.55c-0.02,0.096-0.032,0.191-0.038,0.287
		c-0.086,0.569-0.563,3.075-0.993,5.211c-2.107-1.397-4.747-2.685-5.788-2.698c-3.134,0-4.933,2.641-6.219,5.158
		c-1.314-1.946-2.909-3.915-3.586-4.304c-0.694-0.399-1.448-0.602-2.241-0.602c-1.948,0-3.607,1.241-4.7,2.058
		c-0.05,0.038-0.455,0.354-0.986,0.771c-0.293-2.896-0.83-5.829-2.989-6.936c-0.749-0.384-1.613-0.578-2.57-0.578
		c-1.42,0-2.887,0.423-4.252,0.89c0.581-2.663,1.099-6.156,0.179-7.372c-1.127-1.488-3.396-1.915-6.697-2.252
		c1.448-2.079,3.339-5.126,3.11-6.568c-0.414-2.61-2.91-3.971-5.128-5.023c1.838-1.242,3.521-2.651,4.907-4.121
		c1.351-1.432,0.187-3.137-1.928-6.231c-0.379-0.554-0.812-1.174-1.236-1.766c1.702-0.494,3.66-0.95,4.854-0.95
		c0.272,0,0.384,0.027,0.388,0.028c1.069,0.265,2.158-0.38,2.427-1.453c0.161-0.639-0.006-1.284-0.395-1.757
		c-0.306-0.905-0.754-3.613-1.047-5.488c1.439,0.353,2.918,0.69,4.413,0.824c0.266,0.024,0.511,0.035,0.739,0.035
		c3.745,0,4.173-3.018,4.403-4.639c0.049-0.346,0.101-0.714,0.17-1.078c0.017-0.075,0.062-0.262,0.124-0.517
		c0.098-0.401,0.188-0.773,0.271-1.12c1.096,0.808,2.235,1.589,3.382,2.242c1.073,0.611,1.847,1.012,2.776,1.012
		c1.494,0,2.39-1.063,3.043-1.84c1.03-1.225,1.862-2.597,2.657-3.938c1.18,1.734,2.369,3.512,3.412,5.291
		c0.28,0.477,0.744,0.816,1.282,0.938c0.537,0.121,1.103,0.017,1.562-0.292c0.822-0.555,1.623-1.222,2.397-1.868
		c1.007-0.84,2.037-1.699,3.058-2.256c0.29,1.181,0.476,2.439,0.667,3.744c0.155,1.051,0.315,2.137,0.537,3.201
		c0.116,0.553,0.46,1.031,0.946,1.316c0.487,0.286,1.071,0.352,1.611,0.182c2.116-0.665,4.522-1.121,6.588-1.44
		c-0.079,2.176-0.533,4.552-1.366,5.759c-0.478,0.692-0.471,1.61,0.017,2.295c0.488,0.686,1.354,0.992,2.163,0.768
		c0.25-0.069,0.554-0.104,0.902-0.104c1.409,0,3.242,0.565,4.826,1.123c-0.955,1.753-2.362,4.147-3.053,4.968
		c-0.391,0.161-0.733,0.447-0.963,0.84c-0.554,0.948-0.24,2.165,0.702,2.727c0.497,0.296,1.01,0.593,1.528,0.893
		c1.393,0.805,2.817,1.629,4.077,2.538C79.55,51.148,77.102,52.836,76.228,53.298z"/>
	<path style="fill:#1E1E1C;" d="M88.755,42.593c0.596-0.84,1.302-1.958,2.175-3.44c1.382-2.348,2.922-5.232,3.231-6.052
		c0.19-0.503,0.169-1.062-0.058-1.55c-0.228-0.488-0.642-0.864-1.149-1.042c-0.4-0.141-0.829-0.297-1.28-0.462
		c-2.476-0.903-5.477-1.999-8.311-2.271c1.103-3.485,1.265-7.715,1.022-10.301c-0.051-0.541-0.319-1.038-0.744-1.376
		c-0.426-0.339-0.971-0.495-1.507-0.419c-3.012,0.395-6.768,0.956-10.373,1.896c-0.099-0.614-0.19-1.24-0.285-1.882
		c-0.415-2.825-0.846-5.747-1.939-8.489c-0.345-0.865-1.237-1.378-2.162-1.236c-3.324,0.512-6.072,2.803-8.496,4.824
		c-0.389,0.324-0.77,0.641-1.143,0.944c-1.388-2.226-2.873-4.404-4.32-6.526c-0.524-0.77-1.049-1.538-1.566-2.306
		c-0.371-0.552-0.993-0.882-1.658-0.882s-1.287,0.331-1.658,0.882c-0.722,1.07-1.395,2.206-2.045,3.304
		c-1.077,1.82-2.096,3.54-3.315,4.989c-0.311,0.369-0.512,0.589-0.643,0.719c-0.364-0.16-0.959-0.499-1.247-0.663
		c-2.489-1.417-5.1-3.458-7.464-5.305c0,0,0,0-0.001-0.001c-0.868-0.679-2.097-0.501-2.776,0.37
		c-0.664,0.85-0.503,2.091,0.316,2.782l-0.001,0.001c-0.608-0.475-0.745-1.134-0.732-1.416c-0.021,0.467-0.385,2.16-1.083,5.033
		c-0.113,0.466-0.19,0.792-0.207,0.879c-0.114,0.593-0.195,1.161-0.271,1.693c-0.31,2.186-0.31,2.186-1.26,2.186
		c-0.176,0-0.364-0.01-0.568-0.028c-1.915-0.172-3.979-0.683-5.977-1.176c-1.075-0.266-2.144-0.529-3.192-0.747
		c-0.657-0.134-1.343,0.068-1.819,0.544c-0.476,0.476-0.681,1.159-0.545,1.818c0.054,0.258,0.158,0.965,0.301,1.914
		c0.582,3.854,1.015,6.455,1.408,8.226c-3.612,0.427-8.329,1.987-9.914,2.589c-0.618,0.235-1.075,0.767-1.229,1.411
		c-0.154,0.644,0.026,1.329,0.472,1.818c0.772,0.848,4.528,6.148,5.812,8.379c-2.398,2.337-5.42,4.507-8.627,6.185
		c-0.59,0.309-0.987,0.89-1.062,1.552c-0.073,0.661,0.188,1.316,0.695,1.747c1.008,0.854,2.438,1.521,3.951,2.229
		c1.891,0.884,4.437,2.073,4.919,3.325c-0.612,1.687-4.198,7.272-5.455,8.489c-0.573,0.226-1.035,0.712-1.204,1.354
		c-0.28,1.068,0.357,2.162,1.426,2.443c0.966,0.254,2.389,0.387,4.036,0.542c1.864,0.175,5.596,0.525,6.731,1.149
		c0.064,2-1.116,8.347-1.753,9.868c-0.428,0.441-0.647,1.074-0.537,1.728c0.183,1.088,1.199,1.818,2.304,1.64
		c1.204-0.203,2.533-0.677,3.94-1.179c1.818-0.648,3.88-1.383,5.438-1.383c0.538,0,0.964,0.085,1.304,0.259
		c1.041,0.533,1.491,5.647,1.64,7.328c0.113,1.291,0.212,2.405,0.387,3.257c0.191,0.93,1.01,1.598,1.959,1.598
		c0.708,0,0.708,0,4.544-3.011c0.87-0.684,1.603-1.259,1.711-1.341c1.228-0.919,2.938-2.241,4.056-1.699
		c1.056,0.996,4.676,6.002,5.263,7.543c-0.048,0.718,0.295,1.438,0.951,1.84c0.326,0.2,0.687,0.295,1.043,0.295
		c0.673,0,1.33-0.339,1.707-0.955c0.002-0.003,0.003-0.005,0.005-0.008c0.493-0.807,0.967-1.808,1.467-2.866
		c1.235-2.613,2.918-6.174,5.014-6.31c1.357,0.402,6.286,3.217,7.442,4.467c0.118,0.669,0.574,1.262,1.255,1.522
		c1.028,0.393,2.188-0.12,2.583-1.152c0.085-0.22,0.309-0.805,1.462-6.639c0.308-1.56,0.54-2.732,0.708-3.627
		c0.449,0.118,0.911,0.244,1.383,0.373c2.647,0.722,5.648,1.539,8.314,1.539c0.001,0,0.001,0,0.001,0c0.413,0,0.815-0.02,1.206-0.06
		c1.071-0.109,1.863-1.048,1.791-2.123c-0.04-0.612-0.445-2.606-1.36-7.009c-0.255-1.226-0.545-2.621-0.757-3.677
		c0.679-0.194,1.35-0.396,2.009-0.595c2.723-0.82,5.293-1.595,7.932-1.672c0.67-0.02,1.285-0.373,1.64-0.942
		s0.399-1.278,0.121-1.888c-1.35-2.952-3.499-5.938-5.564-8.667c0.821-0.521,1.896-1.241,3.319-2.242
		c4.966-3.49,5.415-4.271,5.606-4.603c0.458-0.796,0.315-1.803-0.348-2.44C94.717,46.067,91.696,44.295,88.755,42.593z
		 M85.193,55.051c-0.303,0.054-0.598,0.179-0.859,0.378c-0.879,0.669-1.049,1.924-0.38,2.803c0.001,0,0.001,0,0.001,0l0.422,0.553
		c1.619,2.122,3.396,4.452,4.777,6.735c-2.021,0.354-3.965,0.939-5.864,1.512c-1.246,0.375-2.422,0.729-3.631,1.026
		c-1.888,0.476-1.558,2.126-1.176,4.038c0.206,1.03,0.494,2.418,0.792,3.851c0.282,1.361,0.622,2.997,0.882,4.291
		c-1.823-0.21-3.871-0.768-5.866-1.312c-1.285-0.351-2.499-0.681-3.65-0.919c-1.079-0.225-2.14,0.471-2.363,1.552
		c-0.021,0.104-0.035,0.208-0.04,0.312c-0.115,0.809-0.912,4.963-1.543,8.039c-2.799-1.985-6.825-4.055-8.195-4.072
		c-4.225,0-6.551,4.095-8.228,7.565c-1.779-2.785-4.276-5.973-5.217-6.515c-0.824-0.474-1.72-0.714-2.66-0.714
		c-2.382,0-4.409,1.517-5.887,2.622c-0.081,0.061-0.855,0.668-1.781,1.395c-0.16,0.126-0.325,0.255-0.492,0.386
		c-0.363-4.068-0.876-8.494-3.749-9.967c-0.905-0.463-1.957-0.698-3.128-0.698c-2.18,0-4.507,0.806-6.581,1.544
		c0.831-3.546,1.765-8.936,0.597-10.479c-1.465-1.936-4.918-2.413-9.639-2.859c1.912-2.672,5.007-7.391,4.715-9.236
		c-0.546-3.44-4.26-5.176-7.244-6.57c-0.108-0.051-0.217-0.102-0.325-0.152c2.805-1.783,5.38-3.875,7.448-6.069
		c1.324-1.402,0.439-2.979-2.643-7.489c-0.669-0.979-1.474-2.119-2.197-3.114c2.504-0.769,5.714-1.571,7.592-1.571
		c0.407,0,0.613,0.041,0.683,0.058c0.001,0,0.001,0,0.001,0c1.068,0.269,2.157-0.382,2.426-1.453
		c0.171-0.679-0.028-1.364-0.47-1.844c-0.484-1.288-1.24-6.06-1.624-8.575c0.068,0.017,0.136,0.034,0.204,0.05
		c2.144,0.53,4.359,1.078,6.577,1.277c0.333,0.03,0.642,0.044,0.928,0.044c4.423,0,4.902-3.385,5.22-5.625
		c0.067-0.472,0.138-0.976,0.235-1.485c0.021-0.095,0.083-0.35,0.169-0.703c0.232-0.957,0.433-1.782,0.6-2.498
		c1.696,1.28,3.483,2.545,5.275,3.565c1.341,0.764,2.3,1.264,3.377,1.264c1.686,0,2.721-1.231,3.553-2.22
		c1.433-1.702,2.584-3.646,3.697-5.526c0.111-0.189,0.223-0.375,0.332-0.561c1.775,2.603,3.601,5.29,5.183,7.988
		c0.279,0.477,0.743,0.816,1.282,0.938c0.536,0.122,1.102,0.017,1.561-0.292c1.071-0.722,2.129-1.604,3.152-2.457
		c1.617-1.349,3.277-2.733,4.96-3.467c0.525,1.841,0.815,3.815,1.119,5.877c0.205,1.395,0.417,2.836,0.71,4.239
		c0.115,0.553,0.459,1.031,0.946,1.317c0.487,0.285,1.071,0.353,1.611,0.182c3.146-0.989,6.754-1.634,9.704-2.068
		c-0.012,3.246-0.658,6.974-1.965,8.869c-0.478,0.692-0.471,1.61,0.017,2.295c0.489,0.686,1.354,0.992,2.163,0.768
		c0.393-0.109,0.859-0.164,1.387-0.164c2.228,0,5.021,0.938,7.418,1.804c-1.318,2.472-3.642,6.472-4.647,7.584
		c-0.449,0.147-0.849,0.453-1.105,0.893c-0.554,0.948-0.24,2.165,0.702,2.727c0.661,0.394,1.342,0.788,2.031,1.187
		c2.15,1.243,4.356,2.519,6.238,3.974C90.497,51.604,86.433,54.425,85.193,55.051z"/>
	<path style="fill:#1E1E1C;" d="M39.098,40.921c-0.413-2.428-4.099-1.395-3.689,1.017c0.371,2.179,0.782,4.348,1.228,6.509
		c-1.851-1.938-3.738-3.842-5.681-5.693c-1.512-1.441-3.676,0.276-3.219,1.872c-0.002,0.121,0.001,0.243,0.021,0.372
		c0.556,3.52,1.094,7.039,1.462,10.585c0.253,2.428,4.08,2.453,3.825,0c-0.213-2.052-0.479-4.096-0.77-6.136
		c2.072,2.115,4.096,4.278,6.08,6.48c0.762,2.097,4.182,1.081,3.611-1.235C40.842,50.135,39.884,45.548,39.098,40.921z"/>
	<path style="fill:#1E1E1C;" d="M50.068,45.446h-3.654c-0.189-1.082-0.371-2.165-0.537-3.252h1.514c2.467,0,2.467-3.825,0-3.825
		h-3.635c-1.395,0-1.999,1.222-1.816,2.285c-0.046,0.221-0.063,0.456-0.028,0.71c0.584,4.179,1.335,8.323,2.296,12.432
		c0.071,0.307,0.194,0.556,0.354,0.755c0.324,0.607,0.957,1.031,1.682,1.031h2.678c1.043,0,1.913-0.87,1.913-1.913
		s-0.87-1.913-1.913-1.913h-1.25c-0.186-0.827-0.362-1.656-0.533-2.486h2.932C52.535,49.271,52.535,45.446,50.068,45.446z"/>
	<path style="fill:#1E1E1C;" d="M67.541,39.391c-0.626,3.055-1.165,6.122-1.64,9.2c-0.646-0.887-1.318-1.757-2.049-2.585
		c-0.842-0.953-1.959-0.693-2.629,0.03c-0.207,0.134-0.401,0.312-0.566,0.548c-0.574,0.822-1.142,1.65-1.708,2.477
		c-1.043-2.871-1.98-5.777-2.829-8.715c-0.685-2.365-4.376-1.358-3.689,1.017c1.161,4.014,2.481,7.971,4.017,11.858
		c0.019,0.046,0.045,0.082,0.064,0.126c0.214,1.435,2.515,2.302,3.623,0.714c0.824-1.18,1.637-2.368,2.452-3.555
		c0.938,1.26,1.794,2.578,2.642,3.907c0.479,1.656,3.501,1.389,3.774-0.744c0.571-4.45,1.325-8.868,2.228-13.263
		C71.725,38,68.037,36.975,67.541,39.391z"/>
</g>
</svg>
