<?xml version="1.0" encoding="iso-8859-1"?>
<!-- Generator: Adobe Illustrator 17.0.2, SVG Export Plug-In . SVG Version: 6.00 Build 0)  -->
<!DOCTYPE svg PUBLIC "-//W3C//DTD SVG 1.1//EN" "http://www.w3.org/Graphics/SVG/1.1/DTD/svg11.dtd">
<svg version="1.1" id="Capa_1" xmlns="http://www.w3.org/2000/svg" xmlns:xlink="http://www.w3.org/1999/xlink" x="0px" y="0px"
	 width="100px" height="100px" viewBox="0 0 100 100" style="enable-background:new 0 0 100 100;" xml:space="preserve">
<g>
	<path style="fill:#1E1E1C;" d="M67.506,67.101c-0.033-0.131-0.072-0.303-0.093-0.504c-0.21-1.898-0.302-3.75-0.345-5.442h-3.821
		c0.116,3.694,0.197,7.075,0.216,9.969c-2.772-0.875-5.637-1.244-8.595-1.046c-0.23,0.015-0.436,0.068-0.629,0.135
		c-1.362,0.008-2.678,1.071-2.069,2.705c1.224,3.286,1.784,7.366-0.099,10.509c-2.276,3.801-6.338,3.698-10.2,4.185
		c-2.362,0.298-4.873,0.14-7.253,0.207c-1.853,0.052-25.314,0.624-25.314,0.716c-0.055-22.233-0.79-54.553-1.087-76.784
		c17.869,0.077,35.733,0.691,53.601,0.309c-0.021,5.589,0.117,11.942,0.32,18.479h4.403c-0.018-0.508-0.038-1.002-0.055-1.519
		c-0.181-5.491-0.282-12.909-0.228-18.404c0.002-0.245-0.037-0.461-0.093-0.664c0.107-1.197-0.596-2.461-2.129-2.421
		C44.682,8.038,25.332,7.28,5.978,7.25c-1.61-0.003-2.315,1.412-2.117,2.654c-0.064,0.216-0.109,0.448-0.106,0.712
		C4.047,33.71,4.841,66.894,4.866,89.992c0,0.518,0.147,0.939,0.382,1.272c0.143,0.979,0.846,1.845,2.119,1.813
		c8.365-0.208,16.734-0.342,25.093-0.752c7.45-0.365,16.734,0.124,23.856-2.307c2.521-0.861,4.776-2.134,6.71-3.977
		c3.534-3.369,4.741-7.892,5.045-12.658c0.094-1.471,0.097-2.965,0.061-4.455C67.806,68.37,67.579,67.754,67.506,67.101z
		 M55.985,85.409c1.794-3.058,2.242-6.81,1.309-10.877c2.161,0.084,4.292,0.501,6.31,1.356c0.008,0.025,0.015,0.052,0.023,0.077
		C62.973,80.785,59.924,83.741,55.985,85.409z"/>
	<path style="fill:#1E1E1C;" d="M93.487,43.099c-6.42-6.668-12.84-13.335-19.261-20.003c-0.573-0.596-1.231-0.845-1.87-0.845
		c-1.44,0-2.787,1.264-2.873,2.682c-0.031,0.125-0.068,0.247-0.083,0.383c-0.266,2.403-0.342,4.811-0.366,7.222h-2.423h-4.411
		H40.013c-1.366,0-2.221,0.743-2.562,1.671c-0.388,0.414-0.641,0.967-0.641,1.676v9.002v1.919v9.002
		c0,0.709,0.253,1.262,0.641,1.676c0.341,0.929,1.196,1.671,2.562,1.671h23.169h4.516h1.336c0.023,2.411,0.1,4.819,0.366,7.222
		c0.015,0.136,0.052,0.258,0.083,0.383c0.086,1.418,1.433,2.682,2.873,2.682c0.639,0,1.296-0.249,1.87-0.845
		c6.42-6.668,12.841-13.335,19.261-20.003c1.087-0.456,1.909-1.573,1.836-2.748C95.396,44.671,94.574,43.555,93.487,43.099z
		 M74.708,60.209c-0.021-1.231-0.03-2.463-0.03-3.696c0-1.704-1.414-2.554-2.828-2.554c-0.006,0-0.012,0-0.019,0
		c-0.228-0.052-0.468-0.088-0.735-0.088h-1.788c-0.174,0.033-0.359,0.053-0.559,0.053c-0.406,0-0.812-0.002-1.218-0.007
		c-0.508-0.007-1.015-0.023-1.521-0.045h-3.016H42.464v-7.065v-1.919v-7.065h19.027c0.003,0,0.006-0.001,0.009-0.002
		c0.295-0.029,0.589-0.028,0.884-0.04c0.782-0.033,1.563-0.026,2.34,0.042h2.108h4.265c0.267,0,0.507-0.035,0.735-0.088
		c0.006,0,0.012,0,0.019,0c1.414,0,2.827-0.851,2.828-2.554c0-1.233,0.009-2.465,0.03-3.696c4.61,4.788,9.22,9.575,13.83,14.363
		C83.928,50.634,79.318,55.422,74.708,60.209z"/>
</g>
</svg>
