<?xml version="1.0" encoding="iso-8859-1"?>
<!-- Generator: Adobe Illustrator 17.0.2, SVG Export Plug-In . SVG Version: 6.00 Build 0)  -->
<!DOCTYPE svg PUBLIC "-//W3C//DTD SVG 1.1//EN" "http://www.w3.org/Graphics/SVG/1.1/DTD/svg11.dtd">
<svg version="1.1" id="Capa_1" xmlns="http://www.w3.org/2000/svg" xmlns:xlink="http://www.w3.org/1999/xlink" x="0px" y="0px"
	 width="100px" height="100px" viewBox="0 0 100 100" style="enable-background:new 0 0 100 100;" xml:space="preserve">
<g>
	<path style="fill:#1D1D1B;" d="M93.468,46.137c-4.733-3.494-9.661-7.565-14.427-11.502c-5.706-4.713-11.605-9.588-17.356-13.637
		c-0.579-0.408-1.189-0.615-1.813-0.615c-1.431,0-2.72,1.143-3.087,2.727c-0.124,0.317-0.198,0.607-0.232,0.907
		c-0.358,3.182-0.536,8.255-0.602,10.519c-25.479,2.43-39.273,22.257-50.209,40.688c-0.155,0.262-0.271,0.538-0.354,0.837
		c-0.848,0.818-1.123,1.919-0.735,2.991c0.505,1.393,1.978,2.404,3.502,2.404c0.776,0,1.525-0.262,2.164-0.757
		C23.54,70.459,38.159,60.984,55.455,60.984l0.075,0c0.146,1.432,0.087,5.767,0.03,7.21c-0.059,1.475,0.386,3.485,1.509,4.653
		c0.593,0.617,1.328,0.942,2.127,0.942c0.557,0,1.143-0.157,1.743-0.467c5.914-3.054,11.557-6.983,17.014-10.782
		c5.114-3.561,10.402-7.242,15.861-10.161c0.988-0.528,1.589-1.384,1.691-2.411c0.11-1.101-0.367-2.25-1.251-3.024
		C94.029,46.625,93.771,46.36,93.468,46.137z M85.996,49.042c-3.955,2.358-7.836,5.105-11.6,7.768
		c-3.908,2.767-7.939,5.62-12.038,8.024c-0.079-2.38-0.31-5.685-0.695-7.593c-0.154-0.762-0.522-1.395-1.067-1.836
		c-0.595-0.688-1.415-1.079-2.38-1.133c-12.518-0.695-24.744,2.944-38.457,11.535c8.588-12.204,20.094-23.892,39.105-24.717
		c0.246-0.011,0.488-0.047,0.739-0.11c1.475-0.137,3.036-1.206,3.045-3.265c0.008-1.869,0.07-5.251,0.185-7.701
		c4.023,2.903,8.122,6.452,12.097,9.894C78.567,43.058,82.32,46.308,85.996,49.042z"/>
</g>
</svg>
