<?xml version="1.0" encoding="iso-8859-1"?>
<!-- Generator: Adobe Illustrator 17.0.2, SVG Export Plug-In . SVG Version: 6.00 Build 0)  -->
<!DOCTYPE svg PUBLIC "-//W3C//DTD SVG 1.1//EN" "http://www.w3.org/Graphics/SVG/1.1/DTD/svg11.dtd">
<svg version="1.1" id="Capa_1" xmlns="http://www.w3.org/2000/svg" xmlns:xlink="http://www.w3.org/1999/xlink" x="0px" y="0px"
	 width="100px" height="100px" viewBox="0 0 100 100" style="enable-background:new 0 0 100 100;" xml:space="preserve">
<g>
	<path style="fill:#1E1E1C;" d="M27.127,37.109c3.047,2.16,6.497,3.301,9.977,3.301c4.555,0,9.042-1.915,12.633-5.393
		c0.958-0.928,1.96-2.013,2.229-2.333c0.117-0.14,0.224-0.301,0.316-0.476c3.45-6.516,2.873-13.256-1.582-18.491
		c-1.057-1.242-1.994-2.295-2.331-2.621c-0.173-0.167-0.386-0.316-0.631-0.442c-3.101-1.595-6.241-2.404-9.333-2.404
		c-4.25,0-8.354,1.507-12.196,4.478c-0.173,0.134-0.321,0.28-0.439,0.432c-0.274,0.353-1.16,1.563-1.951,2.723
		C18.709,23.379,20.07,32.107,27.127,37.109z M29.339,16.88c0.078-0.083,0.148-0.17,0.212-0.258c0.27-0.374,1.428-1.382,2.772-2.057
		c2.94-1.477,6.229-1.794,9.507-0.92c1.537,0.41,3.662,1.722,4.735,2.925c2.775,3.108,3.651,6.726,2.534,10.461
		c-0.42,1.405-1.105,2.651-1.339,2.898c-2.546,3.419-6.11,5.274-10.081,5.274c-4.848,0-9.448-2.82-11.186-6.859
		C25.56,26.173,24.686,21.795,29.339,16.88z"/>
	<path style="fill:#1E1E1C;" d="M70.484,56.833c-1.485,0-2.968,0.03-4.449,0.121c0.094,1.429,0.188,2.858,0.258,4.288
		c0.23,4.716,0.38,9.433,0.496,14.153c0.065,2.673,0.089,5.347,0.102,8.021c-3.157,0.003-6.312,0.036-9.466,0.199
		c-0.17-6.761-0.514-15.238-0.798-20.309c-0.155-2.775-4.484-2.79-4.328,0c0.353,6.302,0.801,17.889,0.889,24.875
		c-9.916-0.037-19.831-0.193-29.747-0.227c-0.031-6.96-0.162-18.162-0.174-24.288c-0.005-2.791-4.333-2.791-4.328,0
		c0.009,4.56,0.084,11.939,0.135,18.284c-3.497,0.161-6.997,0.197-10.497,0.203c-0.489-9.718-0.113-19.432,0.081-29.156
		c0.881-1.817,2.274-3.14,4.211-3.778c6.137-0.647,12.306-0.912,18.474-1.002c6.191-0.09,12.383,0.003,18.573,0.068
		c1.035,0.011,2.071,0.004,3.106-0.002c0.115-1.435,0.14-2.872,0.142-4.312c-0.343,0.003-0.688,0.012-1.03,0.009
		c-3.185-0.029-6.369-0.071-9.553-0.099c-6.372-0.056-12.748-0.054-19.115,0.232c-3.574,0.161-7.145,0.409-10.703,0.787
		c-0.273-0.031-0.57-0.009-0.891,0.089c-3.094,0.945-5.72,3.069-7.063,6.044c-0.124,0.275-0.204,0.56-0.239,0.844
		c-0.141,0.274-0.23,0.594-0.237,0.969c-0.203,10.345-0.633,20.677,0,31.016c0.055,0.89,0.54,1.492,1.165,1.813
		c0.32,0.304,0.758,0.506,1.329,0.506c4.094,0,8.186-0.018,12.275-0.207c0.009,1.373,0.015,2.647,0.017,3.746
		c0.001,0.382,0.088,0.706,0.228,0.984c0.246,0.702,0.852,1.263,1.82,1.264c11.573,0.013,23.145,0.238,34.718,0.252
		c1.811,0.002,2.354-1.952,1.639-3.138c-0.004-0.457-0.01-0.942-0.017-1.445c3.314-0.169,6.631-0.196,9.951-0.197
		c0.524,0,0.937-0.169,1.25-0.431c1.189,0.177,2.529-0.509,2.526-2.063c-0.014-6.773-0.285-13.524-0.495-20.292
		C70.658,62.051,70.638,59.436,70.484,56.833z"/>
	<path style="fill:#1E1E1C;" d="M94.887,41.473l-0.167-0.122L78.464,23.288c-0.357-0.396-0.763-0.598-1.208-0.598
		c-0.95,0-1.867,0.929-1.925,1.95l-0.029,0.157c-0.017,0.069-0.036,0.137-0.043,0.212c-0.239,2.312-0.289,4.57-0.306,6.475
		l-0.004,0.496H57.188c-1.162,0-1.569,0.819-1.69,1.171l-0.096,0.167c-0.277,0.316-0.417,0.715-0.417,1.184v9.444v4.33v4.217
		c0,0.469,0.14,0.867,0.417,1.184l0.096,0.167c0.121,0.352,0.528,1.171,1.69,1.171h8.727h4.435h4.601l0.004,0.495
		c0.017,1.905,0.067,4.164,0.306,6.475c0.008,0.076,0.026,0.146,0.043,0.215l0.029,0.155c0.058,1.021,0.975,1.95,1.925,1.95
		c0.444,0,0.85-0.201,1.207-0.598l16.423-18.185c0.774-0.348,1.303-1.187,1.256-1.997C96.19,42.66,95.662,41.821,94.887,41.473z
		 M78.762,57.748l-0.021-1.272c-0.018-1.114-0.026-2.229-0.026-3.346c0-1.248-0.947-1.807-1.886-1.807v-0.499l-0.013,0.499
		l-0.123-0.015c-0.179-0.044-0.338-0.064-0.501-0.064h-6.398h-4.576h-6.464V48.26v-4.369v-8.138h17.438
		c0.162,0,0.321-0.021,0.501-0.065l0.061-0.015l0.062,0c0.511,0,0.99-0.166,1.328-0.456c0.374-0.321,0.571-0.789,0.571-1.351
		c0-1.116,0.008-2.231,0.026-3.346l0.021-1.271l12.825,14.25L78.762,57.748z"/>
</g>
</svg>
