<?xml version="1.0" encoding="iso-8859-1"?>
<!-- Generator: Adobe Illustrator 17.0.2, SVG Export Plug-In . SVG Version: 6.00 Build 0)  -->
<!DOCTYPE svg PUBLIC "-//W3C//DTD SVG 1.1//EN" "http://www.w3.org/Graphics/SVG/1.1/DTD/svg11.dtd">
<svg version="1.1" id="Capa_1" xmlns="http://www.w3.org/2000/svg" xmlns:xlink="http://www.w3.org/1999/xlink" x="0px" y="0px"
	 width="100px" height="100px" viewBox="0 0 100 100" style="enable-background:new 0 0 100 100;" xml:space="preserve">
<g>
	<path style="fill:#1D1D1B;" d="M64.747,58.836c1.4,1.365,2.8,2.729,4.201,4.094c6.775-5.796,6.654-15.394,1.11-22.209
		c-1.345,1.3-2.686,2.604-4.021,3.914C69.474,49.12,69.366,55.22,64.747,58.836z"/>
	<path style="fill:#1D1D1B;" d="M12.33,68.258c4.372,0.462,8.737,0.614,13.11,0.525c1.992-2.036,3.984-4.072,5.974-6.11
		c-5.763,0.397-11.499,0.423-17.244-0.075c-0.401-7.448-0.537-14.891-0.209-22.344c0.052-0.225,0.085-0.464,0.085-0.725
		c0-0.37-0.007-0.742-0.014-1.113c0.006-0.116,0.007-0.232,0.014-0.348c0.016-0.276-0.007-0.527-0.054-0.76
		c-0.009-0.194-0.019-0.388-0.032-0.582c3.865-0.21,7.732-0.309,11.601-0.359c-1.805-1.903-3.598-3.817-5.378-5.744
		c-3.118,0.085-6.235,0.211-9.351,0.433c-0.045,0.003-0.084,0.014-0.128,0.019c-0.308-0.019-0.623-0.002-0.941,0.085
		c-1.5,0.412-2.51,2.073-2.041,3.595c0.358,1.16,0.448,2.312,0.471,3.51c-0.508,9.1-0.26,18.18,0.301,27.272
		C8.628,67.73,10.691,68.635,12.33,68.258z"/>
	<path style="fill:#1D1D1B;" d="M83.204,28.392c6.078,13.844,3.623,30.587-3.847,44.71c1.46,1.434,2.916,2.871,4.37,4.31
		c9.278-16.611,11.897-36.719,3.945-53.02C86.174,25.716,84.684,27.049,83.204,28.392z"/>
	<path style="fill:#1D1D1B;" d="M58.19,52.427c1.058,1.037,2.117,2.073,3.176,3.108c-0.036-2.124-0.011-4.243,0.054-6.335
		C60.342,50.274,59.263,51.348,58.19,52.427z"/>
	<path style="fill:#1D1D1B;" d="M66.253,15.583c-5.344,4.497-8.061,13.346-9.427,21.414c2.439-2.399,4.89-4.787,7.361-7.154
		c2.075-6.753,5.689-12.195,11.989-11.17c1.583-1.434,3.177-2.857,4.78-4.27c-2.406-2.706-5.206-5.226-8.457-7.496
		c-0.351-0.245-0.699-0.387-1.037-0.461c-0.771-0.521-1.771-0.604-2.789,0.169C57.922,14.778,46.37,21.746,35.052,29.074
		c1.365,1.435,2.737,2.864,4.115,4.287C48.246,27.506,57.451,21.844,66.253,15.583z"/>
	<path style="fill:#1D1D1B;" d="M71.417,83.525c-3.461,0.322-4.465-0.907-5.591-5.053c-0.251-0.924-0.548-1.832-0.856-2.734
		c-2.814-2.751-5.63-5.5-8.445-8.251c0.392,2.161,0.906,4.284,1.57,6.339c0.86,2.665,1.563,5.703,2.598,8.493
		c-6.081-4.636-12.079-9.382-18.339-13.764c-1.378,1.414-2.755,2.828-4.133,4.242c9.913,6.833,19.118,14.653,28.992,21.561
		c0.922,0.645,1.825,0.639,2.562,0.269c0.437-0.118,0.87-0.341,1.272-0.726c1.745-1.673,3.393-3.458,4.958-5.318
		c0.484-0.221,0.822-0.556,1.053-0.946c-1.569-1.559-3.142-3.115-4.718-4.667C71.98,83.096,71.668,83.282,71.417,83.525z"/>
	<path style="fill:#1D1D1B;" d="M82,80.324c-1.409-1.46-2.832-2.906-4.25-4.358c-3.71-3.798-7.444-7.57-11.201-11.318
		c-1.44-1.437-2.873-2.881-4.318-4.312c-0.233-0.23-0.467-0.459-0.7-0.689c-1.767-1.748-3.542-3.489-5.315-5.23
		c-0.253-0.249-0.506-0.498-0.759-0.747c-0.583-0.572-1.164-1.148-1.747-1.719c0.608-0.62,1.218-1.238,1.827-1.857
		c0.046-0.047,0.092-0.094,0.138-0.14c2.014-2.048,4.03-4.095,6.054-6.134c0.575-0.579,1.155-1.154,1.73-1.732
		c1.333-1.339,2.669-2.677,4.008-4.011c4.557-4.543,9.149-9.054,13.789-13.519c1.411-1.358,2.834-2.703,4.254-4.052
		c1.31-1.244,2.606-2.502,3.925-3.739c2.357-2.209-1.186-5.738-3.536-3.536c-1.107,1.038-2.194,2.095-3.295,3.138
		c-1.4,1.327-2.798,2.654-4.188,3.989c-5.129,4.926-10.2,9.906-15.228,14.926c-2.375,2.371-4.749,4.744-7.109,7.13
		c-1.323,1.338-2.64,2.683-3.96,4.024c-0.661,0.672-1.324,1.343-1.984,2.016c-0.81-0.791-1.621-1.581-2.431-2.372
		c-3.749-3.655-7.499-7.309-11.252-10.961c-1.59-1.548-3.179-3.098-4.768-4.648C25.871,24.809,20.069,19.129,14.311,13.4
		c-2.287-2.276-5.823,1.259-3.536,3.536c4.581,4.558,9.191,9.081,13.81,13.595c1.976,1.932,3.951,3.865,5.93,5.793
		c4.558,4.439,9.117,8.875,13.671,13.315c0.815,0.795,1.631,1.59,2.446,2.386c-0.952,0.973-1.901,1.949-2.851,2.923
		c-2.875,2.946-5.75,5.894-8.621,8.845c-1.551,1.594-3.102,3.188-4.654,4.781c-6.838,7.023-13.688,14.038-20.607,20.992
		c-0.766,0.77-0.864,1.678-0.583,2.461c0.37,1.031,1.404,1.83,2.507,1.802c0.548-0.014,1.111-0.223,1.612-0.727
		c7.342-7.379,14.606-14.826,21.86-22.28c1.382-1.42,2.764-2.84,4.146-4.26c2.628-2.701,5.26-5.399,7.892-8.096
		c0.958-0.982,1.914-1.965,2.873-2.946c0.834,0.817,1.663,1.638,2.496,2.456c0.998,0.98,1.995,1.962,2.992,2.944
		c2.301,2.268,4.593,4.546,6.881,6.827c4.159,4.146,8.293,8.32,12.395,12.527c1.396,1.432,2.791,2.864,4.178,4.304
		c2.668,2.77,5.328,5.549,7.961,8.358c1.103,1.177,2.536,0.882,3.419,0c0.004-0.004,0.008-0.009,0.012-0.013
		c0.065-0.066,0.121-0.14,0.179-0.211c0.052-0.064,0.102-0.131,0.152-0.197c0.604-0.887,0.715-2.108-0.227-3.113
		C87.786,86.35,84.9,83.33,82,80.324z"/>
</g>
</svg>
