<?xml version="1.0" encoding="utf-8"?>
<!-- Generator: Adobe Illustrator 17.0.2, SVG Export Plug-In . SVG Version: 6.00 Build 0)  -->
<!DOCTYPE svg PUBLIC "-//W3C//DTD SVG 1.1//EN" "http://www.w3.org/Graphics/SVG/1.1/DTD/svg11.dtd">
<svg version="1.1" id="Capa_1" xmlns="http://www.w3.org/2000/svg" xmlns:xlink="http://www.w3.org/1999/xlink" x="0px" y="0px"
	 width="100px" height="100px" viewBox="0 0 100 100" enable-background="new 0 0 100 100" xml:space="preserve">
<g>
	<path fill="#1D1D1B" d="M80.983,3.472c-0.298-0.918-1.128-1.467-2.095-1.406c-0.216-0.036-0.443-0.044-0.688-0.006
		c-4.769,0.741-9.387,2.568-13.729,5.431c-8.329-2.333-17.227-2.194-26.07,0.399c-4.163-3.2-9.169-5.071-15.295-5.717
		c-0.938-0.099-1.664,0.389-1.923,1.233c-0.122,0.189-0.209,0.389-0.267,0.608c-1.417,5.523-1.419,10.884-0.008,15.937
		c-7.289,9.3-8.688,18.866-4.155,28.436c3.492,7.375,11.079,13.005,20.39,15.172c-0.771,1.062-1.355,2.216-1.744,3.444
		c-0.302,0.028-0.602,0.043-0.895,0.043c-3.793,0-6.523-2.375-9.415-4.889c-0.814-0.709-1.656-1.44-2.527-2.121
		c-2.76-2.153-5.759-3.2-9.168-3.2c-0.612,0-1.248,0.034-1.854,0.099c-0.129,0-0.257,0.013-0.334,0.032l-0.157,0.015
		c-0.081,0.007-0.163,0.014-0.249,0.025c-0.932,0.131-1.537,0.802-1.544,1.708c-0.007,0.955,0.685,2.052,1.808,2.227
		c4.639,1.436,6.649,5.087,8.777,8.952c0.819,1.49,1.668,3.031,2.685,4.469c2.313,3.271,5.714,4.929,10.106,4.929
		c1.082,0,2.251-0.101,3.48-0.299c0.207,2.881-0.224,7.554-4.536,10.147c-0.803,0.482-1.147,1.338-0.899,2.233
		c0.281,1.014,1.198,1.686,2.188,1.553c0.033,0.003,0.078,0.005,0.159,0.005c3.167,0,6.059-0.88,8.47-2.562
		c-0.619,1.309-1.388,2.479-2.326,3.546c-0.553,0.628-0.68,1.452-0.339,2.206c0.348,0.771,1.1,1.287,1.87,1.287
		c0.152,0,0.304-0.02,0.373-0.042c5.127,0,9.146-2.62,11.432-7.413c1.88,4.802,5.193,7.878,10.097,9.385
		c0.211,0.065,0.421,0.099,0.626,0.099c0.802,0,1.502-0.527,1.783-1.343c0.287-0.835,0.063-1.733-0.556-2.265
		c-0.783-1.158-1.395-2.388-1.85-3.723c1.513,1.091,3.408,1.643,5.659,1.643c1.293,0,2.735-0.184,4.286-0.545
		c0.919-0.215,1.488-0.922,1.487-1.848c-0.002-0.941-0.59-1.774-1.422-2.048c-0.235-0.251-0.531-0.433-0.881-0.542
		c-5.321-1.674-4.964-7.6-4.647-12.829c0.054-0.893,0.105-1.752,0.125-2.552c0.076-3.145-0.084-7.147-1.926-10.692
		c11.636-1.709,18.75-6.902,22.359-16.3c3.546-9.228,1.272-20.792-5.653-28.856C82.813,12.786,82.474,8.055,80.983,3.472z
		 M84.433,42.979c-2.161,9.473-9.679,14.863-22.345,16.019c-0.776,0.07-1.399,0.515-1.718,1.221
		c-0.571,0.822-0.521,1.824,0.131,2.569c2.969,3.396,2.786,8.523,2.609,13.483c-0.154,4.337-0.313,8.796,1.67,12.105
		c-1.037-0.944-1.752-2.435-2.196-4.541c-0.566-2.679-0.786-5.486-0.999-8.201c-0.174-2.214-0.354-4.504-0.72-6.73
		c-0.153-0.931-0.844-1.532-1.76-1.532c-0.654,0-1.301,0.301-1.728,0.805c-0.401,0.472-0.564,1.078-0.461,1.706
		c0.327,1.992,0.455,4.101,0.591,6.333c0.074,1.229,0.149,2.47,0.261,3.7c-0.03,0.122-0.05,0.24-0.059,0.359
		c-0.289,3.631-0.418,7.783,0.611,11.747c-3.837-4.403-3.904-11.604-3.964-18.03c-0.014-1.504-0.026-2.924-0.086-4.279
		c-0.058-1.287-1.102-1.96-2.104-1.96c-0.573,0-1.109,0.216-1.471,0.594c-0.35,0.365-0.521,0.854-0.496,1.41
		c0.056,1.262,0.087,2.566,0.119,3.896c0.044,1.852,0.09,3.766,0.204,5.663c-0.11,0.263-0.162,0.546-0.153,0.843
		c0.133,4.708-1.25,10.174-5.396,12.255c2.857-5.841,2.617-12.576,2.385-19.103c-0.03-0.858-0.061-1.715-0.084-2.565
		c-0.036-1.294-1.072-1.971-2.078-1.971c-0.572,0-1.11,0.216-1.477,0.592c-0.354,0.363-0.532,0.85-0.518,1.406
		c0.028,1.028,0.074,2.075,0.121,3.133c0.098,2.232,0.198,4.538,0.137,6.796c-0.08,0.143-0.139,0.282-0.183,0.432
		c-0.813,2.802-2.474,4.995-4.747,6.314c1.934-3.745,1.841-7.895,1.371-10.813c-0.02-1.034-0.776-2.103-2.01-2.103
		c-0.169,0-0.343,0.021-0.517,0.062c-1.59,0.385-2.974,0.571-4.23,0.571c-4.299,0-6.997-2.096-9.957-7.733
		c-0.581-1.109-1.169-2.114-1.77-3.024c0.607,0.495,1.213,1.017,1.833,1.551c0.812,0.7,1.653,1.424,2.523,2.105
		c3.396,2.659,7.065,3.561,11.428,2.792c0.264-0.047,0.503-0.137,0.712-0.268c0.577-0.227,0.968-0.709,1.104-1.367
		c0.461-2.221,1.592-3.991,3.362-5.262c0.771-0.553,1.066-1.467,0.771-2.384c-0.322-1.001-1.255-1.61-2.168-1.411
		c-8.075-1.006-14.963-5.106-19.4-11.554c-5.351-7.771-4.376-17.596,2.605-26.282c0.231-0.287,0.382-0.616,0.442-0.962
		c0.454-0.493,0.594-1.155,0.383-1.845c-1.285-4.199-1.439-8.479-0.472-13.071c4.941,0.753,9.072,2.556,12.285,5.361
		c0.799,0.696,1.976,0.663,2.768-0.026c8.425-2.45,16.673-2.505,24.588-0.159c0.567,0.235,1.188,0.158,1.739-0.222
		c3.714-2.555,7.527-4.222,11.643-5.088c0.968,3.752,1.081,7.366,0.346,11.034c-0.047,0.235-0.055,0.475-0.022,0.714
		c-0.058,0.566,0.133,1.117,0.539,1.56C84.2,25.891,86.39,34.403,84.433,42.979z"/>
	<path fill="#1D1D1B" d="M63.127,27.689c-0.816,0-1.634,0.046-2.43,0.137c-0.295-0.046-0.613-0.019-0.926,0.087
		c-1.715,0.583-4.342,1.006-7.811,1.254c-0.041,0.003-0.079,0.009-0.128,0.018c-0.042-0.008-0.084-0.014-0.13-0.018
		c-3.468-0.249-6.095-0.671-7.811-1.255c-0.312-0.106-0.631-0.132-0.925-0.087c-0.796-0.091-1.613-0.137-2.43-0.137
		c-5.545,0-10.63,2.016-13.602,5.394c-2.279,2.591-3.234,5.91-2.762,9.597c1.146,8.929,7.774,13.27,20.264,13.27
		c2.361,0,4.646-0.137,6.765-0.283c0.221-0.017,0.432-0.064,0.63-0.143c0.198,0.078,0.409,0.126,0.631,0.143
		c2.117,0.146,4.401,0.283,6.763,0.283c12.488,0,19.118-4.341,20.264-13.27c0.473-3.687-0.482-7.005-2.763-9.596
		C73.756,29.706,68.672,27.689,63.127,27.689z M75.186,43.618c-2.823,7.465-9.052,8.472-14.772,8.472c-2.122,0-4.3-0.16-6.406-0.315
		l-1.473-0.106c-0.054-0.004-0.105-0.006-0.157-0.006c-0.188,0-0.371,0.026-0.544,0.077c-0.222-0.065-0.46-0.09-0.7-0.071
		l-1.474,0.106c-2.106,0.155-4.285,0.315-6.407,0.315c-5.721,0-11.949-1.007-14.772-8.472c-0.993-2.627-0.812-4.95,0.538-6.904
		c2.74-3.968,9.422-5.42,13.923-4.884c0.028,0.003,0.057,0.005,0.106,0.005c2.551,0.823,6.116,1.153,8.659,1.333l0.149-0.004
		l0.179,0.001c2.493-0.178,6.104-0.513,8.581-1.329l0.108-0.006c4.507-0.536,11.183,0.916,13.924,4.884
		C75.998,38.668,76.179,40.991,75.186,43.618z"/>
	<path fill="#1D1D1B" d="M43.705,38.588c0.001-0.12,0.013-0.239-0.009-0.362c-0.483-2.754-4.474-4.675-6.315-2.11
		c-1.296,1.805-1.023,5.024-0.394,7.014c0.57,1.802,2.208,3.178,4.196,2.758c2.84-0.6,2.695-4.77,2.566-7.013
		C43.744,38.773,43.727,38.679,43.705,38.588z M40.385,42.869c-0.024-0.001-0.05,0.001-0.074-0.001
		c0.028-0.006-0.13-0.035-0.24-0.055c-0.344-1.429-0.73-3.42-0.201-4.818c0.279-0.742,0.89,1.349,0.896,1.43
		C40.863,40.549,40.632,41.776,40.385,42.869z"/>
	<path fill="#1D1D1B" d="M63.705,38.588c0.001-0.12,0.013-0.24-0.009-0.362c-0.38-2.165-2.276-3.517-4.446-3.226
		c-0.036,0.005-0.07,0.015-0.105,0.021c-0.422-0.029-0.854,0.121-1.205,0.418c-0.864,0.734-1.456,1.91-1.314,3.061
		c0.018,0.143,0.053,0.28,0.095,0.412c-0.125,1.771,0.111,3.52,0.584,5.237c0.05,0.182,0.128,0.331,0.218,0.464
		c0.187,0.37,0.532,0.661,0.955,0.834c1.042,0.427,2.205,0.575,3.297,0.25c0.146-0.044,0.278-0.113,0.401-0.193
		c0.403-0.134,0.749-0.444,0.896-0.979c0.508-1.843,0.786-3.736,0.679-5.649C63.744,38.773,63.727,38.679,63.705,38.588z
		 M60.385,42.869c-0.024-0.001-0.05,0.001-0.074-0.001c0.028-0.006-0.13-0.035-0.243-0.055c-1.034-0.194-0.4-4.141-0.155-4.801
		c0.282,0.095,0.829,0.435,0.841,0.785c0.001,0.027-0.005,0.05-0.003,0.078C60.827,40.244,60.682,41.555,60.385,42.869z"/>
</g>
</svg>
