<?xml version="1.0" encoding="utf-8"?>
<!-- Generator: Adobe Illustrator 17.0.2, SVG Export Plug-In . SVG Version: 6.00 Build 0)  -->
<!DOCTYPE svg PUBLIC "-//W3C//DTD SVG 1.1//EN" "http://www.w3.org/Graphics/SVG/1.1/DTD/svg11.dtd">
<svg version="1.1" id="Capa_1" xmlns="http://www.w3.org/2000/svg" xmlns:xlink="http://www.w3.org/1999/xlink" x="0px" y="0px"
	 width="100px" height="100px" viewBox="0 0 100 100" enable-background="new 0 0 100 100" xml:space="preserve">
<g>
	<path fill="#1D1D1B" d="M80.048,25.168c-0.327,0.023-0.611,0.111-0.854,0.242c-7.11-10.008-21.22-12.536-33.36-11.55
		c-10.776,0.876-22.405,5.41-26.8,15.287c-4.734,0.033-8.544,1.965-9.833,6.632c-4.579,1.775-7.938,5.854-5.777,11.009
		c1.45,3.46,4.543,5.335,7.939,5.77c-1.305,1.536-2.175,3.337-1.685,5.367c0.89,3.679,6.296,4.276,9.279,4.644
		c0.175,0.021,0.335,0.019,0.485,0.003c-0.128,0.014,5.659,13.368,6.459,14.591c2.84,4.341,6.719,7.94,11.493,10.046
		c10.867,4.794,22.781,0.878,31.02-7.023c4.975-4.77,10.455-11.54,13.248-17.887c2.683-0.088,5.709-0.546,7.359-2.834
		c1.291-1.79,0.995-3.949,0.218-5.909c2.61-0.248,5.108-1.346,6.991-3.348c3.422-3.637,2.175-8.499-1.006-11.701
		C96.616,30.078,87.935,24.607,80.048,25.168z M7.354,45.794c-2.125-3.325,1.18-5.727,4.071-6.568
		c0.626-0.182,1.268-0.72,1.393-1.393c0.588-3.167,2.33-4.346,4.895-4.627c-0.08,0.374-0.153,0.753-0.215,1.14
		c-0.094,0.173-0.173,0.366-0.216,0.598c-0.683,3.727-0.865,8.078-0.549,12.666c-0.229,0.129-0.415,0.3-0.561,0.502
		c-0.105,0.017-0.21,0.03-0.323,0.067C12.653,49.227,9.282,48.809,7.354,45.794z M13.525,56.866
		c-0.453-1.207,2.488-3.401,3.73-4.326c0.283,1.983,0.655,3.984,1.118,5.976C16.887,58.355,13.952,58.002,13.525,56.866z
		 M50.427,85.747c-0.079,0.026-0.145,0.063-0.216,0.095c-0.083-0.001-0.162-0.009-0.25,0c-22.935,2.264-32.046-32.291-28.829-49.838
		c0.009-0.048,0.006-0.092,0.011-0.139c0.11-0.214,0.193-0.452,0.226-0.724c1.495-12.218,15.01-16.523,25.545-17.38
		c12.441-1.011,27.938,2.231,31.876,15.915c0.056,0.194,0.137,0.359,0.228,0.51C87.109,55.795,71.131,79,50.427,85.747z
		 M85.718,57.256c-0.379,0.636-1.434,0.891-2.511,0.997c0.552-1.691,1.003-3.41,1.332-5.153c0.006,0.002,0.013,0.003,0.02,0.004
		C85.216,54.213,86.394,56.124,85.718,57.256z M93.072,47.747c-2.061,2.192-5.325,2.228-7.998,1.341
		c0.437-5.318-0.229-10.773-2.272-16.139c-0.047-0.123-0.106-0.231-0.167-0.336c-0.354-1.231-0.794-2.383-1.294-3.474
		c5.343,0.154,11.483,3.464,9.749,9.629c-0.291,1.035,0.212,1.815,0.945,2.201C94.136,42.91,95.285,45.395,93.072,47.747z"/>
	<path fill="#1D1D1B" d="M38.989,44.783v-0.665c0-1.087-0.907-1.995-1.995-1.995c-1.088,0-1.995,0.907-1.995,1.995v0.665
		c0,1.087,0.907,1.995,1.995,1.995C38.082,46.778,38.989,45.871,38.989,44.783z"/>
	<path fill="#1D1D1B" d="M62.759,42.124c-1.087,0-1.995,0.907-1.995,1.995v0.831c0,1.087,0.907,1.995,1.995,1.995
		s1.995-0.907,1.995-1.995v-0.831C64.754,43.031,63.847,42.124,62.759,42.124z"/>
	<path fill="#1D1D1B" d="M60.705,59.402c-4.301,7.604-14.135,6.775-19.308,0.594c-1.653-1.975-4.46,0.863-2.821,2.821
		c6.851,8.186,20.092,8.292,25.575-1.401C65.418,59.173,61.971,57.164,60.705,59.402z"/>
	<path fill="#1D1D1B" d="M49.718,58.679c0.291,0.067,0.56,0.07,0.809,0.03c0.074,0.015,0.147,0.033,0.223,0.042
		c4.276,0.509,7.987-1.49,8.679-5.968c0.022-0.143,0.032-0.285,0.033-0.426c0.101-0.467,0.049-0.96-0.235-1.365
		c-0.596-0.85-1.33-1.443-2.063-2.155c-0.781-0.759-2.049-0.779-2.828,0c-0.762,0.762-0.782,2.069,0,2.828
		c0.243,0.236,0.502,0.454,0.758,0.677c0.104,0.091,0.203,0.188,0.303,0.283c-0.17,0.687-0.454,1.336-1.062,1.742
		c-1.02,0.681-2.436,0.52-3.584,0.383c-0.084-0.01-0.166,0-0.248,0.005c-0.696-0.171-1.555-0.435-1.879-0.907
		c-0.367-0.534-0.014-1.57,0.354-2.339c1.107-2.315-2.341-4.345-3.454-2.019c-0.904,1.891-1.491,3.963-0.566,5.964
		C45.82,57.321,47.819,58.24,49.718,58.679z"/>
</g>
</svg>
