<?xml version="1.0" encoding="iso-8859-1"?>
<!-- Generator: Adobe Illustrator 17.0.2, SVG Export Plug-In . SVG Version: 6.00 Build 0)  -->
<!DOCTYPE svg PUBLIC "-//W3C//DTD SVG 1.1//EN" "http://www.w3.org/Graphics/SVG/1.1/DTD/svg11.dtd">
<svg version="1.1" id="Capa_1" xmlns="http://www.w3.org/2000/svg" xmlns:xlink="http://www.w3.org/1999/xlink" x="0px" y="0px"
	 width="100px" height="100px" viewBox="0 0 100 100" style="enable-background:new 0 0 100 100;" xml:space="preserve">
<g>
	<path style="fill:#1E1E1C;" d="M92.835,44.663c-0.051-0.465-0.195-0.864-0.401-1.207c-0.02-1.041-0.618-1.987-1.996-2.196
		c-3.656-0.555-7.317-1.008-10.983-1.389C78.742,35.516,78.609,31.163,79,26.75c0.022-0.251,0.008-0.479-0.032-0.688
		C78.981,25.958,79,25.857,79,25.75c0,0,0-0.25-0.003-0.276c3.752,0.01,7.502,0.025,11.253,0.026c3.225,0.001,3.225-4.999,0-5
		C63.499,20.494,36.749,20.25,10,20c-3.226-0.03-3.223,4.97,0,5c3.771,0.035,7.541,0.069,11.311,0.103
		c-0.025,0.129-0.053,0.256-0.061,0.397c-0.229,4.277-0.654,8.5-1.582,12.674c-4.708,0.028-12.449-2.477-13.05,4.001
		c-0.009,0.095-0.035,0.177-0.035,0.277v31.699c0,0.289,0.048,0.545,0.113,0.787c0.081,1.32,0.96,2.625,2.651,2.715
		c27.629,1.463,55.334,2.514,82.935,0c0.66-0.06,1.197-0.303,1.611-0.657c0.926-0.341,1.62-1.162,1.522-2.476
		C94.678,64.557,93.914,54.597,92.835,44.663z M26.234,25.148c15.923,0.142,31.847,0.259,47.77,0.314
		c0,0.013-0.004,0.025-0.004,0.038v0.25c0,0.212,0.036,0.415,0.088,0.613c-0.031,0.128-0.075,0.246-0.088,0.387
		c-0.376,4.25-0.229,8.446,0.352,12.636c-16.473-1.397-33.025-1.347-49.574-1.243c0.833-4.165,1.244-8.394,1.473-12.642
		C26.257,25.375,26.242,25.263,26.234,25.148z M37.27,73.335c0.009-3.22-0.108-6.436-0.247-9.651
		c0.189,0.073,0.375,0.12,0.558,0.141c0.166,0.043,0.337,0.074,0.513,0.092c3.259,0.328,6.385-1.023,8.435-3.566
		c0.226-0.28,0.401-0.588,0.523-0.906c0.204-0.333,0.346-0.725,0.375-1.195c0.149-2.378-0.336-4.696-1.83-6.589
		c-4.036-5.112-12.706-1.913-13.58,4.23c-0.169,0.332-0.271,0.724-0.256,1.192c0.17,5.365,0.506,10.72,0.498,16.088
		c-6.718-0.241-13.434-0.556-20.146-0.904V43.737c25.134-0.066,50.422-0.954,75.369,2.648c0.907,8.637,1.595,17.293,2.24,25.953
		C72.263,73.79,54.763,73.857,37.27,73.335z M37.127,56.18c0.283-3.69,5.258-1.979,5.317,1.242c0.017,0.921-1.905,1.317-3.444,0.904
		C37.925,58.038,37.037,57.354,37.127,56.18z"/>
	<path style="fill:#1E1E1C;" d="M14.988,57.021c-0.403,3.322,2.272,6.531,5.257,7.57c3.318,1.155,7.142-0.585,9.282-3.24
		c0.226-0.28,0.401-0.588,0.523-0.906c0.204-0.333,0.346-0.725,0.375-1.195c0.149-2.378-0.336-4.696-1.83-6.589
		C24.523,47.503,15.746,50.787,14.988,57.021z M21.82,59.953c-0.876-0.602-2.101-1.518-1.826-2.667
		c0.907-3.753,5.388-2.291,5.45,1.136C24.421,59.455,23.286,59.954,21.82,59.953z"/>
	<path style="fill:#1E1E1C;" d="M78.362,50.651c-1.64-1.107-3.557-1.443-5.351-1.096c-1.455,0.281-2.83,1.011-3.913,2.143
		c-2.914,3.047-3.146,8.124-2.25,12.05c0.35,1.534,2.089,2.213,3.425,1.55c1.616-0.802,1.421-2.369,1.332-3.881
		c-0.142-2.387-0.473-7.663,3.442-6.847c4.037,0.842,2.428,5.995,2.847,8.556c0.48,2.94,4.655,2.788,5.031-0.209
		C83.484,58.454,82.235,53.266,78.362,50.651z"/>
	<path style="fill:#1E1E1C;" d="M61.085,60.464c-1.206,0.316-2.454,0.347-3.614,0.049c1.701-1.522,3.342-3.104,4.797-4.87
		c0.479-0.58,0.732-1.282,0.699-1.969c0.12-0.879-0.163-1.82-1.08-2.457c-2.328-1.619-5.287-2.615-8.077-1.635
		c-2.44,0.857-4.198,3.035-4.699,5.552C47.6,62.72,55.998,66.967,62.415,65.286C65.531,64.469,64.208,59.646,61.085,60.464z
		 M53.936,56.977c-0.019-0.188-0.025-0.368-0.004-0.515c0.169-1.153,0.554-1.702,1.543-2.201c0.345-0.174,0.812-0.148,1.318-0.013
		C55.876,55.193,54.918,56.098,53.936,56.977z"/>
</g>
</svg>
