<?xml version="1.0" encoding="iso-8859-1"?>
<!-- Generator: Adobe Illustrator 17.0.2, SVG Export Plug-In . SVG Version: 6.00 Build 0)  -->
<!DOCTYPE svg PUBLIC "-//W3C//DTD SVG 1.1//EN" "http://www.w3.org/Graphics/SVG/1.1/DTD/svg11.dtd">
<svg version="1.1" id="Capa_1" xmlns="http://www.w3.org/2000/svg" xmlns:xlink="http://www.w3.org/1999/xlink" x="0px" y="0px"
	 width="100px" height="100px" viewBox="0 0 100 100" style="enable-background:new 0 0 100 100;" xml:space="preserve">
<g>
	<path style="fill:#1D1D1B;" d="M9.023,85.096c0.205,0.057,0.423,0.098,0.668,0.099c26.642,0.125,53.261-2.052,79.9-0.785
		c0.836,0.04,1.432-0.294,1.806-0.793c0.027-0.032,0.05-0.07,0.075-0.104c0.033-0.051,0.068-0.101,0.098-0.155
		c0.121-0.198,0.226-0.415,0.292-0.678c1.825-7.188,3.286-14.42,3.969-21.809c0.174-0.54,0.154-1.159-0.181-1.798L86.816,42.29
		c-0.245-0.465-0.572-0.769-0.933-0.956c-0.357-0.29-0.822-0.481-1.396-0.505c-1.228-0.052-2.454-0.063-3.679-0.057
		C76.206,40.679,71.602,40.629,67,40.5c-3.226-0.09-3.218,4.91,0,5c1.721,0.048,3.442,0.072,5.164,0.102
		c0.272,0.1,0.582,0.153,0.938,0.134c0.569-0.03,1.137-0.056,1.706-0.082c2.849,0.045,5.698,0.094,8.547,0.166
		c2.205,4.189,4.41,8.378,6.614,12.567c-7.464,0.19-14.921,0.452-22.364,1.091c-0.386,0.033-0.722,0.142-1.009,0.303
		c-0.55,0.174-1.047,0.553-1.417,1.06c-1.228,1.68-2.548,3.269-4.03,4.724c-8.615,0.002-17.227,0.039-25.836,0.364
		c-1.259-1.668-2.358-3.456-3.366-5.284c-0.493-0.895-1.28-1.211-2.053-1.147c-0.121-0.012-0.241-0.026-0.374-0.02
		c-6.536,0.297-13.062,0.206-19.593-0.05c3.267-4.033,6.587-8.022,10.01-11.925h0.13c4.201,0.002,8.401,0.019,12.6,0.163
		c3.226,0.111,3.215-4.89,0-5c-4.499-0.154-8.999-0.166-13.5-0.167c-1.011,0-1.705,0.492-2.082,1.167
		c-0.075,0.068-0.153,0.125-0.225,0.207c-4.558,5.183-8.966,10.491-13.251,15.901c-0.133,0.168-0.233,0.341-0.316,0.517
		c-0.221,0.348-0.339,0.79-0.276,1.345c0.831,7.328,1.864,14.616,3.422,21.828C6.743,84.879,7.931,85.326,9.023,85.096z
		 M28.569,64.218c1.142,1.94,2.401,3.79,3.8,5.564c0.18,0.228,0.411,0.388,0.663,0.5c0.356,0.259,0.821,0.409,1.396,0.386
		c9.093-0.365,18.189-0.392,27.288-0.393c0.199,0,0.384-0.023,0.557-0.06c0.508-0.016,1.029-0.197,1.501-0.63
		c1.8-1.647,3.339-3.521,4.798-5.466c7.429-0.606,14.872-0.859,22.322-1.045c-0.652,5.59-1.793,11.084-3.136,16.551
		c-25.711-1.073-51.406,0.927-77.12,0.858C9.527,75.046,8.694,69.57,8.025,64.062C14.873,64.363,21.717,64.492,28.569,64.218z"/>
	<path style="fill:#1D1D1B;" d="M31.312,34.311c0.31,0.133,0.676,0.197,1.114,0.144c2.353-0.284,4.713-0.495,7.071-0.726
		c-0.39,4.764-0.869,15.408-1.377,20.161c-0.15,1.397,0.781,2.133,1.855,2.233c0.262,0.09,0.556,0.14,0.893,0.123
		c4.261-0.22,6.571-0.19,9.442-0.276c2.871,0.087,5.181,0.056,9.442,0.276c0.338,0.017,0.631-0.033,0.893-0.123
		c1.074-0.1,2.005-0.836,1.855-2.233c-0.509-4.753-0.988-15.397-1.377-20.161c2.358,0.231,4.718,0.442,7.071,0.726
		c0.438,0.053,0.804-0.011,1.114-0.144c2.085,0.54,4.266-2.139,2.319-3.878c-7.036-6.283-11.899-12.58-19.266-18.232
		c-0.415-0.783-1.177-1.325-2.051-1.21c-0.873-0.116-1.635,0.427-2.05,1.209c-7.367,5.651-12.23,11.949-19.266,18.232
		C27.046,32.172,29.227,34.851,31.312,34.311z M50.31,16.539c4.953,3.979,7.964,8.301,12.902,12.689
		c-1.547-0.146-3.094-0.289-4.637-0.466c-1.355-0.155-2.089,0.713-2.222,1.745c-0.111,0.286-0.162,0.62-0.134,1.004
		c0.347,4.682,0.821,15.218,1.314,19.906c-0.372-0.327-0.882-0.523-1.549-0.471c-2.505,0.194-4.151,0.276-5.674,0.323
		c-1.523-0.047-3.169-0.129-5.674-0.323c-0.667-0.052-1.177,0.145-1.549,0.471c0.493-4.688,0.968-15.225,1.315-19.906
		c0.028-0.384-0.023-0.718-0.134-1.004c-0.133-1.032-0.867-1.899-2.222-1.745c-1.543,0.176-3.09,0.32-4.637,0.466
		C42.345,24.839,45.356,20.518,50.31,16.539z"/>
</g>
</svg>
