<?xml version="1.0" encoding="iso-8859-1"?>
<!-- Generator: Adobe Illustrator 17.0.2, SVG Export Plug-In . SVG Version: 6.00 Build 0)  -->
<!DOCTYPE svg PUBLIC "-//W3C//DTD SVG 1.1//EN" "http://www.w3.org/Graphics/SVG/1.1/DTD/svg11.dtd">
<svg version="1.1" id="Capa_1" xmlns="http://www.w3.org/2000/svg" xmlns:xlink="http://www.w3.org/1999/xlink" x="0px" y="0px"
	 width="100px" height="100px" viewBox="0 0 100 100" style="enable-background:new 0 0 100 100;" xml:space="preserve">
<g>
	<path style="fill:#1E1E1C;" d="M85.925,24.337c-0.168-5.106-0.262-12.005-0.211-17.114c0.002-0.228-0.035-0.429-0.086-0.618
		c0.1-1.113-0.554-2.289-1.98-2.251c-17.998,0.472-35.992-0.233-53.99-0.261c-1.497-0.002-2.153,1.313-1.968,2.468
		c-0.06,0.201-0.101,0.416-0.098,0.662c0.272,21.476,1.01,52.335,1.033,73.815c0,0.482,0.137,0.873,0.355,1.183
		c0.132,0.911,0.786,1.716,1.97,1.686c7.779-0.193,15.562-0.318,23.335-0.699c6.928-0.339,15.562,0.115,22.184-2.146
		c2.344-0.8,4.442-1.985,6.24-3.698c3.287-3.133,4.409-7.339,4.692-11.771c0.272-4.257-0.229-8.722-0.329-12.644
		C86.813,42.817,86.258,34.467,85.925,24.337z M74.537,62.644c-1.267,0.007-2.491,0.996-1.924,2.515
		c1.138,3.056,1.659,6.85-0.092,9.773c-2.117,3.534-5.894,3.439-9.485,3.891c-2.196,0.277-4.531,0.13-6.745,0.192
		c-1.723,0.049-23.541,0.58-23.541,0.666c-0.052-20.675-0.735-50.731-1.011-71.403C48.355,8.35,64.968,8.92,81.584,8.565
		c-0.063,16.974,1.442,41.511,1.531,54.926c-2.578-0.813-5.242-1.157-7.993-0.973C74.907,62.533,74.716,62.581,74.537,62.644z
		 M76.16,76.775c1.669-2.844,2.085-6.333,1.217-10.115c2.01,0.078,3.991,0.466,5.868,1.261c0.008,0.024,0.014,0.049,0.022,0.072
		C82.658,72.475,79.823,75.224,76.16,76.775z"/>
	<path style="fill:#1E1E1C;" d="M67,85.167c-1.363,0-2.5,1.137-2.5,2.5v1.769c-14.526,1.459-29.121,0.844-43.7,0.744
		c-0.36-21.339-1.198-42.669-1.286-64.013h4.152c3.225,0,3.225-5,0-5h-6c-0.236,0-0.449,0.034-0.651,0.083
		c-1.256-0.008-2.518,0.796-2.516,2.417C14.528,46.452,15.479,69.22,15.833,92c0.003,0.225,0.036,0.431,0.084,0.624
		c-0.016,1.262,0.788,2.538,2.416,2.542c16.235,0.038,32.497,0.901,48.667-1c1.002-0.118,1.688-0.702,2.059-1.432
		c0.277-0.402,0.441-0.885,0.441-1.401v-3.667C69.5,86.304,68.363,85.167,67,85.167z"/>
	<path style="fill:#1E1E1C;" d="M71.667,31.833c3.18-0.304,3.21-5.307,0-5c-10.088,0.965-20.202,1.312-30.333,1.333
		c-3.224,0.007-3.225,5.007,0,5C51.465,33.145,61.579,32.799,71.667,31.833z"/>
	<path style="fill:#1E1E1C;" d="M70.667,36.5c-8.87,0.972-17.749,1.283-26.667,1c-3.226-0.102-3.216,4.898,0,5
		c8.917,0.283,17.797-0.028,26.667-1C73.836,41.153,73.87,36.149,70.667,36.5z"/>
	<path style="fill:#1E1E1C;" d="M73.002,45.923C63.175,47.5,53.272,48.158,43.333,48.5c-3.215,0.111-3.226,5.111,0,5
		c10.39-0.358,20.727-1.108,30.998-2.756C77.508,50.234,76.155,45.417,73.002,45.923z"/>
</g>
</svg>
