<?xml version="1.0" encoding="iso-8859-1"?>
<!-- Generator: Adobe Illustrator 17.0.2, SVG Export Plug-In . SVG Version: 6.00 Build 0)  -->
<!DOCTYPE svg PUBLIC "-//W3C//DTD SVG 1.1//EN" "http://www.w3.org/Graphics/SVG/1.1/DTD/svg11.dtd">
<svg version="1.1" id="Capa_1" xmlns="http://www.w3.org/2000/svg" xmlns:xlink="http://www.w3.org/1999/xlink" x="0px" y="0px"
	 width="100px" height="100px" viewBox="0 0 100 100" style="enable-background:new 0 0 100 100;" xml:space="preserve">
<g>
	<path style="fill:#1D1D1B;" d="M80.667,5.827c-0.325-0.226-0.72-0.401-1.202-0.495C54.354,0.4,26.204,13.836,12.897,35.437
		C6.566,45.714,5.116,58.269,9.809,69.458c2.656,6.333,7.158,12.325,12.49,16.652c7.7,6.248,17.761,8.258,27.393,8.739
		c9.626,0.481,20.385-0.224,28.217-6.604c4.339-3.534,7.011-8.205,8.464-13.572c1.719-6.351-1.023-13.149-3.281-18.97
		c-2.201-5.671-4.6-11.467-1.49-17.219c2.479-4.585,6.147-8.443,8.818-12.917C96.302,15.714,89.984,9.082,80.667,5.827z
		 M86.171,19.55c-0.999,3.716-4.16,7.125-6.391,10.157c-5.644,7.668-7.507,14.13-4.458,23.452
		c3.473,10.618,8.872,20.675-1.004,29.778c-7.254,6.686-19.781,5.865-28.854,5.419c-0.32-0.016-0.605,0.02-0.875,0.077
		c-6.323-1.963-13.534-3.437-18.778-7.692c-4.743-3.849-8.567-9.565-10.714-15.242c-3.743-9.899-0.985-20.232,4.59-28.799
		C31.366,18.756,56.544,7.416,77.642,11.498c0.198,0.112,0.415,0.21,0.653,0.288C82.017,13.004,87.478,14.687,86.171,19.55z"/>
	<path style="fill:#1D1D1B;" d="M58.544,61.625c-3.836,0.776-6.792,4.023-8.826,7.147c-0.261,0.401-0.409,0.798-0.466,1.18
		c-0.134,0.229-0.252,0.479-0.331,0.773c-0.744,2.759-0.809,6.177,1.605,8.177c6.086,5.041,15.092-0.832,17.595-6.926
		c1.147-2.794,0.388-6.023-1.585-8.215C64.534,61.534,61.339,61.059,58.544,61.625z M62.436,70.176
		c-0.051,0.098-0.182,0.396-0.209,0.448c-0.134,0.248-0.293,0.482-0.452,0.716c-0.039,0.057-0.056,0.084-0.08,0.122
		c-0.031,0.026-0.088,0.085-0.217,0.233c-0.219,0.251-0.459,0.483-0.699,0.715c-0.785,0.761-1.707,1.361-2.662,1.895
		c-0.135,0.014-0.267,0.019-0.409,0.051c-0.933,0.212-1.234,0.273-2.231,0.276c-0.151-0.002-0.301-0.012-0.451-0.023
		c-0.037-0.007-0.067-0.013-0.121-0.023c-0.064-0.015-0.126-0.037-0.189-0.054c-0.024-0.014-0.146-0.062-0.257-0.112
		c-0.012-0.041-0.022-0.081-0.033-0.122c0.074,0.214-0.029-0.593-0.023-0.757c0.012-0.292,0.105-0.636,0.265-1.231
		c0.034-0.124,0.042-0.24,0.061-0.36c0.044-0.059,0.094-0.106,0.136-0.17c0.729-1.12,1.548-2.104,2.543-3.001
		c0.265-0.239,0.661-0.512,1.19-0.824c0.178-0.105,0.366-0.192,0.553-0.282c-0.016,0.022,0.432-0.157,0.49-0.175
		c0.162-0.051,0.329-0.083,0.494-0.118c0.113-0.018,0.303-0.049,0.378-0.052c0.165-0.009,0.33,0.002,0.494,0.011
		c0.086,0.009,0.179,0.02,0.234,0.033c0.12,0.026,0.234,0.069,0.35,0.107c0.088,0.036,0.201,0.084,0.261,0.117
		c0.048,0.027,0.133,0.084,0.208,0.135c0.088,0.081,0.178,0.16,0.262,0.245c0.002,0.002,0.002,0.002,0.003,0.004
		c0.072,0.11,0.145,0.22,0.21,0.335c0.008,0.015,0.01,0.016,0.017,0.028c0.034,0.097,0.054,0.198,0.078,0.298
		c-0.039-0.08,0.008,0.369,0.025,0.703C62.62,69.374,62.516,69.862,62.436,70.176z"/>
	<path style="fill:#1D1D1B;" d="M28.331,60.994c-1.009,0.04-1.893,0.605-2.329,1.449c-0.79,0.131-1.57,0.347-2.298,0.61
		c-1.342,0.485-2.232,1.764-1.83,3.223c0.309,1.121,1.491,2.032,2.675,1.943c0.271,0.912,0.603,1.806,1.054,2.641
		c0.609,1.129,1.591,2.164,2.865,2.507c1.79,0.482,3.368-0.505,4.249-1.955c0.718-0.141,1.379-0.575,1.808-1.235
		c1.458-2.246,2.24-4.96,0.422-7.233C33.444,61.068,30.526,60.908,28.331,60.994z"/>
	<path style="fill:#1D1D1B;" d="M25.789,54.383c0.315,0.661,0.899,1.194,1.644,1.446c2.538,0.857,5.361,0.942,7.112-1.382
		c1.447-1.92,0.879-4.787,0.252-6.892c-0.289-0.968-1.054-1.684-1.98-1.897c-0.322-0.732-0.725-1.436-1.16-2.076
		c-0.803-1.18-2.262-1.725-3.576-0.975c-1.01,0.576-1.6,1.947-1.22,3.072c-0.817,0.488-1.6,1.032-2.298,1.675
		c-0.943,0.87-1.703,2.078-1.719,3.396C22.819,52.603,24.166,53.888,25.789,54.383z"/>
	<path style="fill:#1D1D1B;" d="M44.975,33.824c0.199-0.931,0.334-1.874,0.338-2.824c0.005-1.283-0.362-2.662-1.316-3.572
		c-1.341-1.279-3.199-1.168-4.667-0.316c-0.698-0.22-1.486-0.155-2.178,0.22c-2.355,1.275-4.34,3.284-3.831,6.15
		c0.42,2.367,2.907,3.904,4.876,4.877c0.905,0.448,1.951,0.375,2.738-0.158c0.756,0.263,1.545,0.447,2.31,0.564
		c1.411,0.216,2.804-0.482,3.149-1.955C46.66,35.677,46.058,34.312,44.975,33.824z"/>
	<path style="fill:#1D1D1B;" d="M56.163,26.443c0.242,1.407,1.344,2.508,2.851,2.369c1.158-0.106,2.263-1.11,2.383-2.291
		c0.946-0.106,1.884-0.276,2.786-0.573c1.219-0.401,2.411-1.186,2.972-2.379c0.789-1.677,0.096-3.404-1.176-4.527
		c-0.013-0.732-0.324-1.459-0.898-1.997c-1.954-1.831-4.488-3.078-7.045-1.689c-2.112,1.148-2.783,3.993-3.084,6.169
		c-0.138,1.001,0.262,1.97,1.017,2.547C55.957,24.873,56.032,25.68,56.163,26.443z"/>
</g>
</svg>
