<?xml version="1.0" encoding="iso-8859-1"?>
<!-- Generator: Adobe Illustrator 17.0.2, SVG Export Plug-In . SVG Version: 6.00 Build 0)  -->
<!DOCTYPE svg PUBLIC "-//W3C//DTD SVG 1.1//EN" "http://www.w3.org/Graphics/SVG/1.1/DTD/svg11.dtd">
<svg version="1.1" id="Capa_1" xmlns="http://www.w3.org/2000/svg" xmlns:xlink="http://www.w3.org/1999/xlink" x="0px" y="0px"
	 width="100px" height="100px" viewBox="0 0 100 100" style="enable-background:new 0 0 100 100;" xml:space="preserve">
<g>
	<path style="fill:#1D1D1B;" d="M60.849,39.462C79.73,41.92,95.993,25.316,91.907,6.146c-0.423-1.981-2.697-1.944-3.756-0.758
		c-0.654,0.312-1.143,0.938-1.122,1.894c0.005,0.213-0.002,0.425-0.002,0.637c-0.308,0.235-0.573,0.553-0.746,0.98
		c-1.238,3.068-3.818,3.533-6.677,2.263c-0.356-0.158-0.704-0.214-1.036-0.203c-0.015-0.005-0.026-0.014-0.041-0.019
		c-6.478-2.301-13.044-1.547-18.229,3.127c-4.88,4.399-6.115,11.361-5.387,17.632C31.689,45.751,9.038,64.083,5.244,92.647
		c-0.005,0.039,0.004,0.069,0.001,0.107c-1.124,1.501,0.832,4.153,3.039,3.172C33.525,84.712,48.359,63.109,60.849,39.462z
		 M77.355,15.189c0.312,0.111,0.599,0.145,0.866,0.128c2.3,0.909,4.733,1.369,7.149,0.482c0.233-0.086,0.448-0.194,0.664-0.299
		c-3.168,11.892-13.594,20.883-26.664,16.527C57.504,20.661,65.602,11.014,77.355,15.189z M53.722,37.598
		c-1.632,5.111-3.895,9.88-6.621,14.368c-2.42-1.497-4.436-3.436-6.01-5.785C45.187,43.12,49.446,40.272,53.722,37.598z
		 M36.217,50.014c0.083,0.328,0.241,0.653,0.513,0.958c2.051,2.297,4.506,4.142,7.055,5.852c0.023,0.016,0.046,0.023,0.069,0.037
		C34.928,69.372,22.484,79.64,10.277,88.988C13.554,72.815,23.768,60.263,36.217,50.014z"/>
	<path style="fill:#1D1D1B;" d="M66.351,24.09c1.187-2.687,3.117-4.009,6.083-3.866c2.841,0.137,2.828-4.269,0-4.406
		c-4.359-0.211-8.118,2.041-9.888,6.048C61.409,24.44,65.204,26.684,66.351,24.09z"/>
</g>
</svg>
