<?xml version="1.0" encoding="utf-8"?>
<!-- Generator: Adobe Illustrator 17.0.2, SVG Export Plug-In . SVG Version: 6.00 Build 0)  -->
<!DOCTYPE svg PUBLIC "-//W3C//DTD SVG 1.1//EN" "http://www.w3.org/Graphics/SVG/1.1/DTD/svg11.dtd">
<svg version="1.1" id="Capa_1" xmlns="http://www.w3.org/2000/svg" xmlns:xlink="http://www.w3.org/1999/xlink" x="0px" y="0px"
	 width="100px" height="100px" viewBox="0 0 100 100" enable-background="new 0 0 100 100" xml:space="preserve">
<g>
	<path fill="#1D1D1B" d="M72.646,15.904c1.804-1.182,3.758-2.108,5.87-2.795c2.611-0.849,2.011-4.509-0.151-4.89
		c-0.112-0.055-0.22-0.113-0.347-0.155c-10.981-3.665-22.783-2.456-32.016,4.468c-9.779-6.978-21.69-6.968-33.219-4.468
		c-1.883,0.408-2.147,2.297-1.386,3.597c0.261,0.954,1.021,1.76,2.296,1.785c4.428,0.088,8.517,1.156,12.398,2.968
		c-10.253,5.773-18.644,13.3-23.003,24.721c-0.817,2.141,1.393,3.399,3.14,2.874c0.516-0.034,1.041-0.241,1.514-0.703
		c8.21-8.015,17.826-12.952,29.23-12.596c-0.803,20.183-0.462,40.389-1.146,60.575c-0.032,0.954,0.389,1.616,0.993,2.002
		c0.272,0.278,0.622,0.509,1.081,0.645c4.954,1.471,9.928,1.714,14.914,0.394c1.448,0.393,3.219-0.364,3.155-2.294
		c-0.624-18.835-0.169-37.679-0.393-56.519c4.142,5.312,7.472,11.168,9.683,17.638c0.845,2.473,4.222,2.046,4.84,0.135
		c0.073-0.121,0.146-0.243,0.205-0.384c2.579-6.245,2.866-12.776,0.822-18.984c8.021,0.318,15.851,1.598,23.475,4.307
		c2.656,0.944,3.976-2.633,2.239-4.248C90.735,25.368,82.612,18.851,72.646,15.904z M43.567,45.448
		c2.312-2.077,4.673-4.095,7.073-6.068c0.031,4.106,0.035,8.213,0.032,12.319C48.217,49.719,45.881,47.593,43.567,45.448z
		 M50.71,76.99c-2.491-2.172-4.922-4.41-7.339-6.665c2.446-2.917,4.885-5.839,7.289-8.791C50.654,66.686,50.662,71.839,50.71,76.99z
		 M48.533,56.306c-2.385,2.962-4.805,5.895-7.249,8.809c0.052-4.954,0.1-9.909,0.171-14.862
		C43.752,52.345,46.089,54.385,48.533,56.306z M48.382,81.501c-2.517,1.818-5.016,3.66-7.471,5.562
		c0.107-4.003,0.186-8.006,0.244-12.01C43.522,77.249,45.929,79.401,48.382,81.501z M44.968,90.177
		c1.937-1.484,3.901-2.933,5.882-4.359c0.027,1.286,0.05,2.571,0.086,3.857C48.922,90.142,46.945,90.291,44.968,90.177z
		 M67.991,28.867c-1.727-0.285-3.781,1.631-2.729,3.74c2.028,4.062,2.609,8.275,2.035,12.472
		c-3.317-6.992-7.832-13.294-13.268-18.918c-0.383-0.889-1.272-1.524-2.288-1.524h-3.481c-1.356,0-2.487,1.131-2.487,2.487
		c0,1.356,1.131,2.487,2.487,2.487h2.187c0.021,0.023,0.042,0.046,0.064,0.069c0.021,1.141,0.037,2.282,0.054,3.423
		c-0.112,0.068-0.225,0.133-0.334,0.221c-2.898,2.355-5.787,4.719-8.598,7.176c0.1-4.128,0.224-8.255,0.409-12.38
		c0.088-1.972-1.755-2.721-3.224-2.268c-9.083-0.734-17.321,1.65-24.642,6.121c4.786-5.563,11.094-9.673,17.93-13.145
		c0.018-0.009,0.031-0.022,0.049-0.031c1.64-0.67,2.438-3.287,0.448-4.512c-1.762-1.085-3.577-2.017-5.434-2.817
		c6.033,0.169,11.889,1.718,16.844,5.728c0.163,0.132,0.332,0.237,0.502,0.323c0.894,0.669,2.188,0.852,3.264-0.075
		c6.466-5.57,14.667-7.261,22.742-6.059c-1.736,1.072-3.367,2.322-4.873,3.786c-0.364,0.354-0.569,0.741-0.67,1.131
		c-0.613,1.295-0.274,2.97,1.519,3.274c8.576,1.455,15.837,5.554,21.639,11.588C81.554,29.614,74.812,28.93,67.991,28.867z"/>
</g>
</svg>
