<?xml version="1.0" encoding="utf-8"?>
<!-- Generator: Adobe Illustrator 17.0.2, SVG Export Plug-In . SVG Version: 6.00 Build 0)  -->
<!DOCTYPE svg PUBLIC "-//W3C//DTD SVG 1.1//EN" "http://www.w3.org/Graphics/SVG/1.1/DTD/svg11.dtd">
<svg version="1.1" id="Capa_1" xmlns="http://www.w3.org/2000/svg" xmlns:xlink="http://www.w3.org/1999/xlink" x="0px" y="0px"
	 width="100px" height="100px" viewBox="0 0 100 100" enable-background="new 0 0 100 100" xml:space="preserve">
<g>
	<path fill="#1D1D1B" d="M82.053,5.603c-0.179-0.04-0.352-0.061-0.524-0.065c-2.788-0.069-5.869-0.164-9.139-0.266
		c-8.394-0.259-17.907-0.553-27.002-0.553c-8.683,0-15.517,0.269-20.892,0.821c-1.066,0.109-1.897,0.763-2.264,1.766
		c-0.838,0.422-1.331,1.238-1.331,2.227c-0.005,12.238-0.091,25.489-0.175,38.303c-0.082,12.575-0.166,25.576-0.174,37.603
		c-0.228,0.278-0.373,0.599-0.479,0.931c-0.034,0.104-0.08,0.205-0.103,0.312c-0.006,0.028-0.011,0.056-0.016,0.084
		c-0.047,0.265-0.068,0.533-0.033,0.797c0.098,0.74,0.526,1.378,1.208,1.796c6.205,3.812,15.279,5.589,28.558,5.589
		c0.002,0,0.002,0,0.003,0c6.416,0,13.045-0.415,18.894-0.78c4.73-0.296,9.199-0.576,12.936-0.604
		c0.727-0.006,1.353-0.265,1.811-0.749c0.468-0.495,0.723-1.194,0.706-1.93c0.05-0.21,0.075-0.411,0.077-0.615
		c0.043-8.86,0.611-17.877,1.213-27.424c1.168-18.537,2.377-37.706-0.597-55.351C84.504,6.153,83.392,5.377,82.053,5.603z
		 M80.169,63.012c-0.573,8.851-1.115,17.218-1.223,25.419c-2.821,0.103-6.118,0.322-9.598,0.555
		c-6.076,0.406-12.962,0.866-19.654,0.866c-10.519,0-18.168-1.177-23.345-3.586c1.801-1.502,3.6-3.005,5.272-4.651
		c1.929-1.9-1.038-4.864-2.967-2.966c-0.934,0.92-1.913,1.788-2.903,2.643c0.006-2.944,0.016-5.935,0.027-8.952
		c1.83-1.923,3.825-3.674,5.843-5.404c2.056-1.763-0.925-4.716-2.967-2.966c-0.96,0.823-1.911,1.655-2.849,2.502
		c0.019-3.479,0.039-6.975,0.061-10.465c2.205-2.009,4.344-4.087,6.454-6.197c1.914-1.914-1.052-4.88-2.967-2.966
		c-1.142,1.142-2.29,2.277-3.45,3.4c0.005-0.82,0.011-1.642,0.016-2.459c0.017-2.623,0.034-5.266,0.051-7.913
		c2.047-1.761,4.081-3.539,6-5.441c1.923-1.906-1.043-4.87-2.965-2.966c-0.975,0.966-1.981,1.896-3.002,2.812
		c0.019-3.196,0.035-6.386,0.05-9.55c2.144-1.94,4.241-3.944,6.542-5.696c2.12-1.616,0.035-5.261-2.117-3.621
		c-1.526,1.162-2.976,2.409-4.403,3.68c0.009-2.872,0.016-5.714,0.018-8.499c5.003-0.453,11.33-0.674,19.317-0.674
		c9.372,0,19.117,0.301,27.714,0.567c2.431,0.075,4.733,0.146,6.857,0.205C82.482,27.278,81.307,45.442,80.169,63.012z"/>
</g>
</svg>
