<?xml version="1.0" encoding="iso-8859-1"?>
<!-- Generator: Adobe Illustrator 17.0.2, SVG Export Plug-In . SVG Version: 6.00 Build 0)  -->
<!DOCTYPE svg PUBLIC "-//W3C//DTD SVG 1.1//EN" "http://www.w3.org/Graphics/SVG/1.1/DTD/svg11.dtd">
<svg version="1.1" id="Capa_1" xmlns="http://www.w3.org/2000/svg" xmlns:xlink="http://www.w3.org/1999/xlink" x="0px" y="0px"
	 width="100px" height="100px" viewBox="0 0 100 100" style="enable-background:new 0 0 100 100;" xml:space="preserve">
<g>
	<path style="fill:#1D1D1B;" d="M76.928,8.063c-0.191-0.051-0.394-0.086-0.611-0.099C58.61,6.85,40.888,6.185,23.16,7.22
		c-1.666,0.097-2.549,1.362-2.665,2.662C20.189,10.299,20,10.835,20,11.495c0.019,27.312,0.711,49.04,1.095,76.348
		c-0.703,1.613,0.108,4.012,2.436,4.132c14.121,0.725,24.911,1.133,39.032,1.859c0.356,0.018,0.667-0.033,0.952-0.117
		c0.595-0.018,1.205-0.221,1.763-0.699c5.266-4.514,10.488-9.065,15.241-14.126c0.584-0.622,0.799-1.318,0.767-1.984
		c0.042-0.226,0.066-0.465,0.05-0.73c-1.444-23.641-1.139-41.754-1.487-65.424C79.822,8.915,78.352,8.022,76.928,8.063z
		 M64.301,86.502c-0.252-2.953-0.545-5.901-0.923-8.841c3.671-0.637,7.386-0.777,11.117-0.607
		C71.232,80.348,67.8,83.46,64.301,86.502z M59.591,72.744c-1.606,0.376-2.153,1.71-1.947,2.967c-0.033,0.265-0.043,0.54,0,0.835
		c0.566,3.824,0.907,7.672,1.211,11.524c-11.286-0.565-20.391-0.955-32.206-1.526c-0.381-26.479-1.032-47.378-1.069-73.861
		c16.249-0.809,32.493-0.249,48.724,0.737c0.272,21.231,0.113,36.898,1.214,58.107C70.172,71.205,64.814,71.521,59.591,72.744z"/>
</g>
</svg>
