<?xml version="1.0" encoding="iso-8859-1"?>
<!-- Generator: Adobe Illustrator 17.0.2, SVG Export Plug-In . SVG Version: 6.00 Build 0)  -->
<!DOCTYPE svg PUBLIC "-//W3C//DTD SVG 1.1//EN" "http://www.w3.org/Graphics/SVG/1.1/DTD/svg11.dtd">
<svg version="1.1" id="Capa_1" xmlns="http://www.w3.org/2000/svg" xmlns:xlink="http://www.w3.org/1999/xlink" x="0px" y="0px"
	 width="100px" height="100px" viewBox="0 0 100 100" style="enable-background:new 0 0 100 100;" xml:space="preserve">
<g>
	<path style="fill:#1D1D1B;" d="M12.52,58.51c1.101-0.064,2.201-0.141,3.301-0.223c0.04,0.002,0.073,0.014,0.115,0.013
		c18.153-0.698,36.292-1.86,54.465-1.89c1.12-0.002,1.531-1.099,1.235-1.907c0.389-2.487,0.587-4.98,0.635-7.495
		c8.163-1.556,16.339-3.039,24.545-4.353c1.525,0.113,2.094-2.282,0.467-2.69c-7.777-1.951-15.643-3.569-23.204-6.284
		c-0.392-0.427-1.017-0.656-1.679-0.336c-1.971,0.953-3.968,1.835-5.974,2.686c0.135-1.143,0.255-2.287,0.407-3.428
		c0.37-0.789-0.024-2.004-1.184-2.08c-7.979-0.525-15.778-2.324-23.688-3.387c-0.065-0.009-0.126-0.006-0.189-0.007
		c-0.347-0.188-0.778-0.187-1.214,0.145C28.036,36.84,16.035,47.081,3.215,56.254c-0.129,0.092-0.228,0.198-0.313,0.309
		c-0.171,0.186-0.256,0.404-0.274,0.632c-0.001,0.006-0.001,0.012-0.002,0.018c-0.002,0.033-0.006,0.066-0.005,0.099
		c-0.006,0.093,0.004,0.186,0.016,0.278c-0.207,0.795,0.213,1.765,1.273,1.74C6.774,59.262,9.65,58.946,12.52,58.51z M68.999,53.673
		c-12.251,0.059-24.488,0.606-36.723,1.167c5.861-1.112,11.713-2.271,17.565-3.433c6.556-1.302,13.111-2.606,19.673-3.87
		C69.461,49.593,69.306,51.636,68.999,53.673z M63.667,37.181c-9.485,3.807-19.295,6.679-29.146,9.443
		c9.939-3.748,19.848-7.566,29.368-12.312c-0.079,0.716-0.157,1.432-0.255,2.146C63.6,36.707,63.612,36.953,63.667,37.181z
		 M41.68,29.852c6.382,0.879,12.698,2.184,19.09,2.95c-15.134,7.334-31.19,12.478-46.75,18.822
		C23.326,44.479,32.361,36.983,41.68,29.852z M72.93,36.115c0.108,0.079,0.227,0.15,0.37,0.201
		c5.448,1.959,11.053,3.346,16.671,4.698c-13.23,2.247-26.393,4.866-39.554,7.483c-7.399,1.471-14.801,2.931-22.216,4.32
		c-4.267,0.799-8.629,1.757-13.006,2.515c-0.393,0.028-0.786,0.058-1.18,0.084C33.753,49.219,54.144,45.024,72.93,36.115z"/>
</g>
</svg>
