<?xml version="1.0" encoding="iso-8859-1"?>
<!-- Generator: Adobe Illustrator 17.0.2, SVG Export Plug-In . SVG Version: 6.00 Build 0)  -->
<!DOCTYPE svg PUBLIC "-//W3C//DTD SVG 1.1//EN" "http://www.w3.org/Graphics/SVG/1.1/DTD/svg11.dtd">
<svg version="1.1" id="Capa_1" xmlns="http://www.w3.org/2000/svg" xmlns:xlink="http://www.w3.org/1999/xlink" x="0px" y="0px"
	 width="100px" height="100px" viewBox="0 0 100 100" style="enable-background:new 0 0 100 100;" xml:space="preserve">
<g>
	<path style="fill:#1E1E1C;" d="M81.654,27.034c-0.189-5.747-0.295-11.511-0.238-17.261c0.002-0.256-0.039-0.482-0.097-0.695
		c0.113-1.253-0.624-2.576-2.229-2.534C58.834,7.075,38.583,6.282,18.326,6.25c-1.686-0.003-2.423,1.478-2.215,2.777
		C16.043,9.253,15.997,9.496,16,9.773c0.306,24.171,1.136,58.901,1.163,83.076c0,0.542,0.154,0.983,0.4,1.331
		c0.149,1.025,0.885,1.931,2.217,1.898c8.755-0.217,17.514-0.358,26.263-0.787c7.797-0.382,17.514,0.13,24.967-2.415
		c2.638-0.901,5-2.234,7.023-4.162c3.699-3.526,4.962-8.26,5.28-13.248c0.307-4.791-0.258-9.816-0.37-14.23
		C82.654,49.833,82.029,38.435,81.654,27.034z M68.837,72.148c-1.425,0.008-2.803,1.121-2.166,2.831
		c1.281,3.439,1.867,7.71-0.103,10.999c-2.383,3.978-6.634,3.87-10.675,4.38c-2.472,0.311-5.099,0.146-7.591,0.217
		c-1.938,0.055-26.494,0.653-26.494,0.749c-0.058-23.269-0.827-57.096-1.138-80.362c18.702,0.081,37.398,0.723,56.099,0.323
		c-0.063,17.103,1.609,44.72,1.723,61.817c-2.901-0.915-5.899-1.302-8.996-1.095C69.254,72.022,69.039,72.077,68.837,72.148z
		 M70.664,88.051c1.878-3.2,2.347-7.128,1.37-11.384c2.262,0.088,4.492,0.524,6.604,1.42c0.009,0.027,0.015,0.055,0.025,0.081
		C77.978,83.212,74.787,86.306,70.664,88.051z"/>
	<path style="fill:#1E1E1C;" d="M66.532,49.024H32.274c-3.571,0-3.571,5.591,0,5.591h34.258
		C70.104,54.615,70.104,49.024,66.532,49.024z"/>
	<path style="fill:#1E1E1C;" d="M66.532,61.325H32.274c-3.571,0-3.571,5.591,0,5.591h34.258
		C70.104,66.916,70.104,61.325,66.532,61.325z"/>
	<path style="fill:#1E1E1C;" d="M66.532,37.841H30.89c-3.571,0-3.571,5.591,0,5.591h35.643
		C70.104,43.432,70.104,37.841,66.532,37.841z"/>
	<path style="fill:#1E1E1C;" d="M30.613,30.572c6.366-0.258,29.272-0.279,35.643-0.28c3.57,0,3.571-5.592,0-5.591
		c-6.371,0.001-29.277,0.021-35.643,0.28C27.055,25.125,27.041,30.717,30.613,30.572z"/>
</g>
</svg>
