<?xml version="1.0" encoding="iso-8859-1"?>
<!-- Generator: Adobe Illustrator 17.0.2, SVG Export Plug-In . SVG Version: 6.00 Build 0)  -->
<!DOCTYPE svg PUBLIC "-//W3C//DTD SVG 1.1//EN" "http://www.w3.org/Graphics/SVG/1.1/DTD/svg11.dtd">
<svg version="1.1" id="Capa_1" xmlns="http://www.w3.org/2000/svg" xmlns:xlink="http://www.w3.org/1999/xlink" x="0px" y="0px"
	 width="100px" height="100px" viewBox="0 0 100 100" style="enable-background:new 0 0 100 100;" xml:space="preserve">
<g>
	<path style="fill:#1D1D1B;" d="M87.346,36.123c-0.245-0.465-0.571-0.769-0.933-0.956c-0.357-0.29-0.822-0.481-1.396-0.506
		c-0.174-0.007-0.347-0.006-0.52-0.012c-0.343-0.185-0.752-0.296-1.248-0.275c-21.121,0.897-42.221,2.437-63.375,2.125
		c-0.68-0.01-1.207,0.212-1.6,0.557c-0.017,0.013-0.037,0.022-0.053,0.035c-0.289,0.122-0.571,0.32-0.832,0.615
		c-4.558,5.183-8.966,10.491-13.251,15.901c-0.133,0.168-0.233,0.341-0.316,0.517c-0.221,0.348-0.339,0.79-0.276,1.345
		c0.831,7.328,1.864,14.616,3.422,21.828c0.305,1.413,1.492,1.86,2.585,1.63c0.205,0.057,0.423,0.098,0.668,0.099
		c26.642,0.125,53.261-2.052,79.9-0.785c0.836,0.04,1.432-0.294,1.807-0.793c0.027-0.032,0.05-0.07,0.075-0.104
		c0.034-0.051,0.068-0.101,0.098-0.155c0.12-0.198,0.226-0.415,0.292-0.678c1.825-7.188,3.286-14.42,3.969-21.809
		c0.174-0.54,0.155-1.159-0.181-1.798L87.346,36.123z M84.928,45.032c0.165-0.824,0.321-1.65,0.484-2.475
		c1.695,3.221,3.391,6.442,5.086,9.663c-1.048,0.027-2.096,0.06-3.145,0.09c-0.716-2.309-1.579-4.565-2.616-6.749
		C84.819,45.406,84.888,45.235,84.928,45.032z M81.959,39.434c-0.247,1.266-0.493,2.533-0.743,3.798
		c-18.964,0.831-37.915,2.007-56.9,2.246c-0.491-1.322-0.984-2.643-1.467-3.968C42.576,41.645,62.259,40.293,81.959,39.434z
		 M24.542,49.474c18.875-0.245,37.718-1.411,56.573-2.237c0.812,1.694,1.509,3.43,2.097,5.21
		c-5.031,0.182-10.058,0.434-15.079,0.865c-0.386,0.033-0.721,0.142-1.009,0.303c-0.55,0.174-1.047,0.553-1.417,1.06
		c-1.228,1.68-2.548,3.269-4.03,4.724c-8.614,0.002-17.227,0.039-25.836,0.364c-1.259-1.668-2.358-3.456-3.366-5.284
		c-0.493-0.895-1.28-1.211-2.052-1.147c-0.121-0.012-0.241-0.026-0.374-0.02c-2.819,0.128-5.636,0.173-8.453,0.174
		C22.661,52.211,23.644,50.872,24.542,49.474z M19.116,42.915c0.589,1.611,1.186,3.22,1.787,4.826
		c-1.267,1.918-2.693,3.699-4.316,5.345c-0.111,0.113-0.204,0.229-0.281,0.348c-1.949-0.041-3.898-0.096-5.848-0.172
		C13.288,49.766,16.172,46.316,19.116,42.915z M88.288,73.459c-25.711-1.073-51.406,0.927-77.121,0.858
		c-1.111-5.438-1.943-10.913-2.613-16.422c6.849,0.301,13.692,0.43,20.544,0.156c1.142,1.94,2.4,3.79,3.8,5.564
		c0.18,0.228,0.411,0.388,0.663,0.5c0.357,0.259,0.821,0.409,1.396,0.386c9.093-0.365,18.189-0.392,27.288-0.393
		c0.199,0,0.384-0.022,0.557-0.06c0.508-0.016,1.029-0.198,1.501-0.63c1.8-1.647,3.339-3.521,4.798-5.466
		c7.43-0.606,14.873-0.859,22.322-1.045C90.772,62.498,89.631,67.991,88.288,73.459z"/>
</g>
</svg>
