<?xml version="1.0" encoding="iso-8859-1"?>
<!-- Generator: Adobe Illustrator 17.0.2, SVG Export Plug-In . SVG Version: 6.00 Build 0)  -->
<!DOCTYPE svg PUBLIC "-//W3C//DTD SVG 1.1//EN" "http://www.w3.org/Graphics/SVG/1.1/DTD/svg11.dtd">
<svg version="1.1" id="Capa_1" xmlns="http://www.w3.org/2000/svg" xmlns:xlink="http://www.w3.org/1999/xlink" x="0px" y="0px"
	 width="100px" height="100px" viewBox="0 0 100 100" style="enable-background:new 0 0 100 100;" xml:space="preserve">
<g>
	<path style="fill:#1D1D1B;" d="M75.482,5.059c-4.852,0.794-9.977,1.177-16.132,1.205c-0.336,0.001-0.662,0.039-1.017,0.115
		c-2.275,0.181-3.948,1.705-4.087,3.744c-0.153,2.236-0.307,14.751-0.483,29.243c-0.262,21.365-0.587,47.954-1.028,51.13
		c-0.104,0.741,0.008,1.434,0.331,2.061c0.518,1.519,1.896,2.454,3.641,2.454c0.165,0,0.337-0.008,0.515-0.025
		c7.04-0.689,13.105-0.898,18.815-0.65c0.938,0.032,1.746-0.148,2.449-0.555c1.402-0.645,2.256-1.847,2.349-3.312
		c0.366-5.811,0.383-80.151,0.383-80.899c0-1.095-0.44-2.074-1.246-2.781C78.974,5.442,77.258,4.767,75.482,5.059z M72.503,13.438
		l-0.005,3.419c-0.019,15.493-0.073,60.353-0.209,69.478c-3.393-0.022-6.807,0.087-10.467,0.343
		c0.206-5.542,0.373-22.081,0.578-44.01c0.116-12.517,0.228-24.437,0.328-28.554C66.125,14.016,69.348,13.793,72.503,13.438z"/>
	<path style="fill:#1D1D1B;" d="M41.565,5.059c-4.852,0.794-9.977,1.177-16.132,1.205c-0.336,0.001-0.662,0.039-1.017,0.115
		c-2.275,0.181-3.948,1.705-4.087,3.745c-0.153,2.233-0.306,14.73-0.483,29.2c-0.262,21.382-0.587,47.994-1.028,51.172
		c-0.104,0.741,0.008,1.434,0.331,2.061c0.519,1.519,1.896,2.454,3.641,2.454c0.165,0,0.337-0.008,0.515-0.025
		c7.04-0.689,13.108-0.9,18.816-0.65c0.937,0.034,1.746-0.148,2.448-0.555c1.402-0.645,2.256-1.847,2.349-3.312
		c0.366-5.81,0.384-80.149,0.384-80.899c0-1.095-0.44-2.073-1.246-2.781C45.057,5.441,43.336,4.769,41.565,5.059z M38.586,13.438
		l-0.005,3.45c-0.019,15.485-0.073,60.323-0.208,69.447c-3.396-0.022-6.806,0.087-10.467,0.343
		c0.205-5.539,0.373-22.065,0.577-43.98c0.116-12.531,0.228-24.465,0.328-28.584C32.208,14.016,35.431,13.793,38.586,13.438z"/>
</g>
</svg>
