<?xml version="1.0" encoding="iso-8859-1"?>
<!-- Generator: Adobe Illustrator 17.0.2, SVG Export Plug-In . SVG Version: 6.00 Build 0)  -->
<!DOCTYPE svg PUBLIC "-//W3C//DTD SVG 1.1//EN" "http://www.w3.org/Graphics/SVG/1.1/DTD/svg11.dtd">
<svg version="1.1" id="Capa_1" xmlns="http://www.w3.org/2000/svg" xmlns:xlink="http://www.w3.org/1999/xlink" x="0px" y="0px"
	 width="100px" height="100px" viewBox="0 0 100 100" style="enable-background:new 0 0 100 100;" xml:space="preserve">
<g>
	<path style="fill:#1E1E1C;" d="M81.932,28.855c-0.181-5.491-0.282-12.909-0.228-18.404c0.002-0.245-0.037-0.461-0.093-0.664
		c0.107-1.197-0.596-2.461-2.129-2.421c-19.354,0.508-38.704-0.25-58.058-0.28c-1.61-0.003-2.315,1.412-2.117,2.654
		c-0.064,0.216-0.109,0.448-0.106,0.712c0.292,23.095,1.086,56.279,1.111,79.377c0,0.518,0.147,0.939,0.382,1.272
		c0.142,0.979,0.846,1.845,2.119,1.813c8.365-0.208,16.734-0.342,25.093-0.752c7.45-0.365,16.734,0.124,23.855-2.307
		c2.521-0.861,4.777-2.134,6.71-3.977c3.535-3.369,4.741-7.892,5.046-12.658c0.292-4.577-0.247-9.379-0.354-13.597
		C82.887,48.728,82.29,39.748,81.932,28.855z M69.686,70.049c-1.362,0.008-2.678,1.071-2.07,2.705
		c1.225,3.286,1.784,7.366-0.098,10.509c-2.276,3.801-6.338,3.698-10.2,4.185c-2.361,0.298-4.872,0.14-7.253,0.207
		c-1.853,0.052-25.314,0.624-25.314,0.716c-0.055-22.233-0.79-54.553-1.087-76.784c17.869,0.077,35.733,0.691,53.602,0.309
		c-0.068,18.253,1.55,44.639,1.646,59.065c-2.772-0.875-5.637-1.244-8.595-1.046C70.084,69.929,69.878,69.982,69.686,70.049z
		 M71.431,85.245c1.795-3.058,2.243-6.81,1.31-10.877c2.161,0.084,4.292,0.501,6.309,1.356c0.009,0.025,0.015,0.052,0.024,0.077
		C78.419,80.62,75.371,83.577,71.431,85.245z"/>
	<path style="fill:#1E1E1C;" d="M33.5,34.917c-1.139-0.12-1.816,0.512-2.052,1.335c-0.225,0.33-0.366,0.742-0.365,1.248
		c0.022,6.792,0.24,13.568-0.5,20.333c-0.316,2.883,4.188,2.852,4.5,0c0.322-2.939,0.457-5.88,0.512-8.823
		c3.605-0.11,7.181-1.682,6.979-6.028C42.354,38.241,37.782,35.369,33.5,34.917z M37.834,44.068
		c-0.609,0.468-1.409,0.595-2.206,0.582c-0.004-1.533-0.017-3.067-0.029-4.601c1.218,0.626,2.181,1.664,2.485,3.016
		C38.148,43.349,38.008,43.934,37.834,44.068z"/>
	<path style="fill:#1E1E1C;" d="M48.098,34.664c-1.384-0.371-2.372,0.498-2.685,1.563c-0.403,0.362-0.67,0.896-0.663,1.607
		c0.061,6.126,0.781,12.214,1,18.333c0.029,0.817,0.415,1.396,0.942,1.752c0.488,0.608,1.263,0.982,2.239,0.751
		C61.471,55.702,59.567,37.738,48.098,34.664z M50.115,53.338c-0.25-4.412-0.665-8.814-0.814-13.231
		C53.772,43.153,54.697,50.403,50.115,53.338z"/>
	<path style="fill:#1E1E1C;" d="M67.833,34.917c-1.774,0.163-3.554,0.166-5.333,0.167c-1.115,0-1.797,0.666-2.055,1.484
		c-0.148,0.304-0.23,0.665-0.195,1.1c0.501,6.227,0.918,12.43,0.333,18.667c-0.271,2.89,4.231,2.864,4.5,0
		c0.221-2.362,0.293-4.718,0.277-7.074c0.12-0.028,0.236-0.069,0.357-0.093c0.069-0.014,0.108-0.023,0.145-0.031
		c0.034-0.003,0.06-0.005,0.114-0.011c0.285-0.031,0.571-0.037,0.857-0.041c1.226-0.015,2.25-1.012,2.25-2.25
		c0-1.215-1.023-2.265-2.25-2.25c-0.537,0.006-1.073,0.054-1.606,0.13c-0.085-1.715-0.198-3.431-0.329-5.148
		c0.979-0.019,1.958-0.058,2.935-0.148c1.221-0.112,2.25-0.939,2.25-2.25C70.083,36.025,69.057,34.804,67.833,34.917z"/>
</g>
</svg>
