<?xml version="1.0" encoding="iso-8859-1"?>
<!-- Generator: Adobe Illustrator 17.0.2, SVG Export Plug-In . SVG Version: 6.00 Build 0)  -->
<!DOCTYPE svg PUBLIC "-//W3C//DTD SVG 1.1//EN" "http://www.w3.org/Graphics/SVG/1.1/DTD/svg11.dtd">
<svg version="1.1" id="Capa_1" xmlns="http://www.w3.org/2000/svg" xmlns:xlink="http://www.w3.org/1999/xlink" x="0px" y="0px"
	 width="100px" height="100px" viewBox="0 0 100 100" style="enable-background:new 0 0 100 100;" xml:space="preserve">
<g>
	<path style="fill:#1D1D1B;" d="M10.896,94.892c10.881-1.769,21.323-4.528,29.084-12.817c0.146-0.156,0.249-0.314,0.334-0.473
		c15.562-15.147,30.81-30.635,44.627-47.406c1.007,0.915,1.907,1.882,2.693,3.009c-7.121,9.039-14.592,17.78-22.474,26.166
		c-1.892,2.013,1.598,4.511,3.467,2.523c8.209-8.735,15.984-17.846,23.37-27.286c0.434-0.555,0.579-1.516,0.22-2.146
		c-1.471-2.583-3.303-4.49-5.509-6.399c-0.092-0.172-0.206-0.34-0.354-0.496c3.961-5.976,3.756-12.904-1.838-17.922
		c-5.547-4.976-13.909-4.115-19.606-0.05c-0.002,0-0.004-0.001-0.006-0.002c-0.663-0.42-1.516-0.447-2.266,0.292
		C46.666,27.619,32.01,44.608,18.03,62.12c-0.059,0.073-0.1,0.148-0.145,0.222c-0.107,0.112-0.208,0.241-0.301,0.391
		c-5.528,8.965-7.973,18.905-9.237,29.271c-0.056,0.459,0.024,0.848,0.185,1.175C8.726,94.208,9.562,95.109,10.896,94.892z
		 M83.119,26.665c-4.732-4.226-9.408-8.511-14.386-12.444C77.537,9.335,88.872,17.059,83.119,26.665z M64.324,16.238
		c6.135,4.652,11.762,9.895,17.517,15C68.409,47.59,53.594,62.686,38.454,77.447c-5.382-4.623-10.914-9.075-15.843-14.186
		C35.725,46.903,49.435,31.012,64.324,16.238z M20.117,66.839c4.834,4.894,10.173,9.234,15.394,13.712
		c-4.897,4.706-11.088,7.095-17.566,8.618c-1.354-0.985-2.719-1.973-3.869-3.198c-0.124-0.131-0.261-0.242-0.404-0.343
		C14.892,79.064,16.803,72.716,20.117,66.839z"/>
</g>
</svg>
