<?xml version="1.0" encoding="iso-8859-1"?>
<!-- Generator: Adobe Illustrator 17.0.2, SVG Export Plug-In . SVG Version: 6.00 Build 0)  -->
<!DOCTYPE svg PUBLIC "-//W3C//DTD SVG 1.1//EN" "http://www.w3.org/Graphics/SVG/1.1/DTD/svg11.dtd">
<svg version="1.1" id="Capa_1" xmlns="http://www.w3.org/2000/svg" xmlns:xlink="http://www.w3.org/1999/xlink" x="0px" y="0px"
	 width="100px" height="100px" viewBox="0 0 100 100" style="enable-background:new 0 0 100 100;" xml:space="preserve">
<g>
	<path style="fill:#1D1D1B;" d="M8.327,94.477c0.321,1.255,1.472,2.403,3.105,2.174c10.242-1.44,20.298-3.765,30.302-6.364
		c0.468-0.122,0.83-0.338,1.115-0.604c0.619-0.115,1.155-0.512,1.52-1.06c0.198-0.117,0.393-0.255,0.577-0.445
		c14.138-14.504,29.267-27.997,43.408-42.499c1.135-1.164,0.835-2.629-0.035-3.543c-0.112-0.187-0.244-0.372-0.42-0.548
		c-0.259-0.259-0.52-0.516-0.779-0.775c2.832-2.944,5.462-6.066,8.051-9.225c0.894-1.09,0.734-2.385,0.098-3.307
		c-0.102-0.215-0.226-0.428-0.401-0.632c-6.907-8.054-14.39-15.495-22.424-22.424c-1.234-1.064-2.749-0.715-3.664,0.171
		c-0.198,0.114-0.393,0.25-0.578,0.435c-2.936,2.934-5.896,5.831-9.091,8.485c-0.033,0.027-0.054,0.058-0.085,0.086
		c-0.302-0.255-0.597-0.515-0.9-0.768c-1.818-1.518-4.212-0.065-4.465,1.661C38.791,28.973,24.659,43.418,10.174,57.497
		c-0.164,0.159-0.295,0.325-0.404,0.494c-0.286,0.304-0.497,0.719-0.569,1.278C7.717,70.767,7.317,82.296,8.209,93.86
		C8.226,94.081,8.269,94.285,8.327,94.477z M13.203,91.178c-0.116-1.903-0.187-3.807-0.239-5.711
		c1.841,1.554,3.629,3.165,5.378,4.823C16.632,90.603,14.921,90.907,13.203,91.178z M70.74,10.558
		c6.824,6.023,13.228,12.444,19.221,19.299c-2.085,2.511-4.222,4.977-6.486,7.33c-6.686-6.638-13.444-13.195-20.524-19.408
		C65.671,15.503,68.224,13.053,70.74,10.558z M56.888,19.313c1.132,0.97,2.255,1.949,3.37,2.936
		c-7.546,7.474-15.224,14.808-22.206,22.825c-2.166,2.486,1.456,6.139,3.636,3.636c7.041-8.084,14.789-15.474,22.396-23.013
		c0.996,0.911,1.978,1.837,2.964,2.758C55.739,39.242,45.719,51.26,34.87,62.497c-2.301,2.383,1.332,6.024,3.636,3.636
		c10.883-11.272,20.93-23.33,32.283-34.143c1.448,1.385,2.881,2.787,4.316,4.186c-8.41,8.322-16.983,16.476-25.235,24.957
		c-2.311,2.375,1.323,6.015,3.636,3.636c8.263-8.492,16.849-16.658,25.27-24.992c1.379,1.362,2.759,2.723,4.13,4.093
		c-13.339,13.525-27.458,26.252-40.755,39.82c-9.869-6.973-18.73-15.094-26.604-24.255C29.292,46.024,42.762,32.329,56.888,19.313z
		 M13.664,65.088c6.995,7.847,14.754,14.881,23.209,21.117c-4.115,1.037-8.245,2.004-12.393,2.877
		c-3.488-3.452-7.1-6.748-10.973-9.768c-0.193-0.151-0.393-0.261-0.595-0.351C12.965,74.332,13.202,69.703,13.664,65.088z"/>
</g>
</svg>
