<?xml version="1.0" encoding="iso-8859-1"?>
<!-- Generator: Adobe Illustrator 17.0.2, SVG Export Plug-In . SVG Version: 6.00 Build 0)  -->
<!DOCTYPE svg PUBLIC "-//W3C//DTD SVG 1.1//EN" "http://www.w3.org/Graphics/SVG/1.1/DTD/svg11.dtd">
<svg version="1.1" id="Capa_1" xmlns="http://www.w3.org/2000/svg" xmlns:xlink="http://www.w3.org/1999/xlink" x="0px" y="0px"
	 width="100px" height="100px" viewBox="0 0 100 100" style="enable-background:new 0 0 100 100;" xml:space="preserve">
<g>
	<path style="fill:#1E1E1C;" d="M82.25,11.25c-13.919,0.033-27.83,0.705-41.75,0.5c-0.301-0.004-0.588,0.014-0.86,0.052
		c-0.472,0.066-1.736,0.151-2.841,0.166C23.167,12.153,8.958,19.807,9.522,35.205C10.027,48.97,23.024,57.966,36,57.25
		c0.048-0.003,0.094-0.008,0.14-0.013c0.077-0.009,0.131,0.879,0.118,1.983C36.149,68.482,35.86,77.77,36.25,87
		c0.271,6.424,10.272,6.45,10,0c-0.469-11.099,0.1-22.285,0.053-33.397c-0.042-9.939-0.138-19.878-0.097-29.817
		c0.005-1.105,0.906-2,2.01-2.006c4.667-0.023,9.334-0.112,14.001-0.211c1.104-0.023,1.992,0.853,1.984,1.958
		C64.054,44.348,64.5,65.179,64.5,86c0,6.449,10,6.449,10,0c0-20.885-0.449-41.78-0.297-62.665c0.008-1.104,0.912-2.015,2.016-2.031
		c2.01-0.028,4.021-0.05,6.031-0.055C88.698,21.235,88.699,11.235,82.25,11.25z M36.131,47.248c-0.043,0-0.086,0-0.131,0.002
		c-7.948,0.439-14.831-3.475-16.448-11.606c-1.753-8.813,7.155-12.553,14.67-13.447c1.097-0.131,1.986,0.721,1.981,1.826
		c-0.03,7.075,0.005,14.15,0.049,21.225C36.259,46.353,36.205,47.248,36.131,47.248z"/>
</g>
</svg>
