<?xml version="1.0" encoding="iso-8859-1"?>
<!-- Generator: Adobe Illustrator 17.0.2, SVG Export Plug-In . SVG Version: 6.00 Build 0)  -->
<!DOCTYPE svg PUBLIC "-//W3C//DTD SVG 1.1//EN" "http://www.w3.org/Graphics/SVG/1.1/DTD/svg11.dtd">
<svg version="1.1" id="Capa_1" xmlns="http://www.w3.org/2000/svg" xmlns:xlink="http://www.w3.org/1999/xlink" x="0px" y="0px"
	 width="100px" height="100px" viewBox="0 0 100 100" style="enable-background:new 0 0 100 100;" xml:space="preserve">
<g>
	<path style="fill:#1D1D1B;" d="M93.497,27.112c-0.168-1.628-1.368-2.558-2.648-2.79c-0.282-0.1-0.584-0.175-0.928-0.19
		c-27.01-1.182-54.049-1.745-81.071-0.596c-1.807,0.077-2.753,1.445-2.857,2.851c-0.064,0.225-0.109,0.465-0.124,0.726
		c-0.88,16.383-1.446,32.771-1.192,49.179c0.005,0.322,0.064,0.607,0.145,0.875c-0.184,1.597,0.76,3.438,2.835,3.595
		c28.535,2.163,57.336,3.212,85.738-1.001c1.67-0.248,2.289-1.5,2.139-2.777c0.039-0.216,0.057-0.446,0.049-0.693
		C95.027,59.886,95.183,43.458,93.497,27.112z M10.625,75.019c-0.196-15.22,0.299-30.424,1.087-45.622
		c25.36-0.966,50.734-0.468,76.083,0.609c1.332,14.736,1.313,29.532,1.768,44.313C63.441,77.923,36.861,76.94,10.625,75.019z"/>
	<path style="fill:#1D1D1B;" d="M85.638,66.739c-3.449-6.12-7.904-11.578-13.282-16.102c-1.279-1.076-2.81-0.876-3.881-0.104
		c-0.217,0.117-0.431,0.247-0.632,0.403c-2.844,2.198-5.621,4.479-8.379,6.781c-2.413-4.441-5.097-8.719-8.269-12.743
		c-0.982-1.246-3.205-1.089-4.215,0c-6.441,6.938-11.688,14.757-16.859,22.659c-0.58,0.886-0.599,1.749-0.296,2.475
		c-0.027,1.511,0.929,3.098,2.869,3.202c9.936,0.533,19.866,0.299,29.805,0c0.009,0,0.016-0.002,0.025-0.003
		c6.849-0.005,13.696-0.042,20.541-0.295c2.238-0.083,3.163-2.147,2.788-3.825C86.138,68.465,86.132,67.616,85.638,66.739z
		 M37.31,67.539c3.612-5.456,7.327-10.815,11.592-15.779c3.492,4.915,6.299,10.263,8.863,15.722
		C50.944,67.661,44.128,67.753,37.31,67.539z M64.223,67.344c-0.647-1.415-1.301-2.824-1.979-4.216
		c2.612-2.196,5.25-4.358,7.926-6.475c3.371,3.129,6.265,6.646,8.737,10.52C74.014,67.296,69.119,67.335,64.223,67.344z"/>
	<path style="fill:#1D1D1B;" d="M35.161,44.416c0.59-2.752-0.32-5.393-2.026-7.311c-1.905-2.141-4.803-3.382-7.713-2.871
		c-5.469,0.96-8.708,6.932-6.248,12.143c1.721,3.644,8.26,5.174,11.662,3.669C33.052,49.067,34.66,46.75,35.161,44.416z
		 M29.203,43.443c-0.992,1.649-2.938,1.358-3.866,0.099c-0.325-0.441-0.525-1-0.515-1.636
		C24.881,37.889,30.889,40.639,29.203,43.443z"/>
</g>
</svg>
