<?xml version="1.0" encoding="iso-8859-1"?>
<!-- Generator: Adobe Illustrator 17.0.2, SVG Export Plug-In . SVG Version: 6.00 Build 0)  -->
<!DOCTYPE svg PUBLIC "-//W3C//DTD SVG 1.1//EN" "http://www.w3.org/Graphics/SVG/1.1/DTD/svg11.dtd">
<svg version="1.1" id="Capa_1" xmlns="http://www.w3.org/2000/svg" xmlns:xlink="http://www.w3.org/1999/xlink" x="0px" y="0px"
	 width="100px" height="100px" viewBox="0 0 100 100" style="enable-background:new 0 0 100 100;" xml:space="preserve">
<g>
	<path style="fill:#1D1D1B;" d="M94.493,31.483c-0.172-1.781-1.402-2.799-2.715-3.054c-0.289-0.109-0.599-0.192-0.952-0.208
		c-5.611-0.262-11.223-0.492-16.836-0.687c-7.496-6.995-15.482-13.402-23.633-19.619c-0.387-0.629-1.058-1.082-2.024-1.082
		s-1.637,0.453-2.024,1.082c-8.237,6.297-16.24,12.89-24.477,19.186c-4.709,0.111-9.418,0.253-14.126,0.467
		c-1.852,0.084-2.823,1.581-2.929,3.12c-0.066,0.247-0.112,0.509-0.127,0.794c-0.903,17.93-1.483,35.866-1.222,53.824
		c0.005,0.353,0.066,0.665,0.149,0.958c-0.188,1.748,0.779,3.763,2.907,3.935c29.257,2.367,58.785,3.515,87.905-1.095
		c1.712-0.271,2.346-1.642,2.193-3.039c0.04-0.236,0.059-0.488,0.05-0.759C96.062,67.353,96.222,49.373,94.493,31.483z
		 M48.335,12.618c6.15,4.703,12.183,9.542,17.971,14.674C54.245,26.95,42.181,26.8,30.118,26.946
		C36.193,22.174,42.204,17.319,48.335,12.618z M9.527,83.915c-0.201-16.658,0.307-33.298,1.115-49.931
		c26.001-1.057,52.016-0.512,78.006,0.667c1.365,16.127,1.346,32.321,1.813,48.499C63.678,87.094,36.426,86.018,9.527,83.915z"/>
	<path style="fill:#1D1D1B;" d="M85.021,38.861c-0.135-1.314-1.104-2.064-2.137-2.252c-0.228-0.081-0.472-0.141-0.749-0.154
		c-21.797-0.954-43.619-1.408-65.425-0.481c-1.458,0.062-2.222,1.166-2.306,2.301c-0.052,0.182-0.088,0.375-0.1,0.586
		c-0.71,13.221-1.167,26.446-0.962,39.688c0.004,0.26,0.052,0.49,0.117,0.706c-0.148,1.289,0.613,2.775,2.288,2.902
		c23.028,1.745,46.271,2.592,69.192-0.808c1.348-0.2,1.847-1.211,1.726-2.241c0.031-0.174,0.046-0.36,0.04-0.559
		C86.256,65.31,86.383,52.052,85.021,38.861z M18.143,77.523c-0.158-12.283,0.241-24.553,0.878-36.818
		c20.466-0.78,40.943-0.378,61.4,0.492c1.074,11.892,1.06,23.833,1.427,35.762C60.767,79.866,39.316,79.073,18.143,77.523z"/>
	<path style="fill:#1D1D1B;" d="M78.68,70.841c-2.783-4.939-6.378-9.344-10.719-12.995c-1.032-0.868-2.268-0.707-3.132-0.084
		c-0.175,0.094-0.348,0.199-0.51,0.325c-2.295,1.774-4.536,3.615-6.762,5.473c-1.948-3.584-4.113-7.036-6.673-10.283
		c-0.792-1.005-2.586-0.879-3.402,0c-5.198,5.599-9.432,11.909-13.605,18.286c-0.468,0.715-0.483,1.411-0.239,1.997
		c-0.022,1.22,0.75,2.5,2.316,2.584c8.018,0.43,16.032,0.241,24.053,0c0.007,0,0.013-0.002,0.02-0.002
		c5.527-0.004,11.053-0.034,16.577-0.238c1.806-0.067,2.553-1.733,2.25-3.087C79.083,72.234,79.079,71.548,78.68,70.841z
		 M39.678,71.486c2.915-4.404,5.913-8.728,9.355-12.734c2.818,3.967,5.083,8.283,7.152,12.688
		C50.681,71.585,45.18,71.659,39.678,71.486z M61.397,71.329c-0.522-1.142-1.05-2.279-1.597-3.403
		c2.108-1.772,4.237-3.517,6.396-5.226c2.72,2.525,5.056,5.364,7.051,8.49C69.298,71.291,65.348,71.322,61.397,71.329z"/>
	<path style="fill:#1D1D1B;" d="M37.944,52.825c0.476-2.221-0.258-4.352-1.635-5.9c-1.537-1.728-3.876-2.729-6.225-2.317
		c-4.413,0.775-7.028,5.594-5.042,9.8c1.389,2.941,6.666,4.176,9.412,2.961C36.242,56.579,37.539,54.709,37.944,52.825z
		 M33.136,52.04c-0.801,1.331-2.371,1.096-3.12,0.08c-0.262-0.356-0.423-0.807-0.416-1.32C29.647,47.559,34.496,49.778,33.136,52.04
		z"/>
</g>
</svg>
