<?xml version="1.0" encoding="iso-8859-1"?>
<!-- Generator: Adobe Illustrator 17.0.2, SVG Export Plug-In . SVG Version: 6.00 Build 0)  -->
<!DOCTYPE svg PUBLIC "-//W3C//DTD SVG 1.1//EN" "http://www.w3.org/Graphics/SVG/1.1/DTD/svg11.dtd">
<svg version="1.1" id="Capa_1" xmlns="http://www.w3.org/2000/svg" xmlns:xlink="http://www.w3.org/1999/xlink" x="0px" y="0px"
	 width="100px" height="100px" viewBox="0 0 100 100" style="enable-background:new 0 0 100 100;" xml:space="preserve">
<g>
	<path style="fill:#1D1D1B;" d="M56.847,76.202c-0.326-2.187-0.61-4.378-0.87-6.571c-0.023-0.196-0.049-0.391-0.072-0.587
		c-0.021-0.183-0.043-0.366-0.064-0.549c-0.715-6.278-1.205-12.58-1.661-18.888c5.837,2.149,11.691,4.249,17.584,6.231
		c0.165,0.055,0.33,0.111,0.495,0.167c0.175,0.059,0.351,0.119,0.526,0.177c1.841,0.614,3.69,1.208,5.542,1.791
		c1.229,0.387,2.453,0.787,3.687,1.159c0.191,0.057,0.372,0.086,0.551,0.108c0.369,0.046,0.708,0.017,1.021-0.065
		c0.224-0.059,0.435-0.142,0.627-0.254c0.204,0.098,0.405,0.19,0.608,0.286c1.076-2.219,1.982-4.521,2.675-6.89
		C94.5,28.388,76.205,8.552,54.135,4.738c-0.485-0.352-1.096-0.58-1.846-0.599c-1.002-0.025-1.997-0.009-2.988,0.028
		c-1.776-0.113-3.564-0.131-5.357-0.028c-0.907,0.052-1.608,0.407-2.127,0.914C25.106,8.415,11.25,20.732,6.8,37.912
		C1.18,59.611,16.446,78.596,37.075,83.783c6.356,1.598,12.697,1.419,18.657-0.133c-0.013-0.057-0.023-0.114-0.035-0.17
		c0.157-0.077,0.31-0.164,0.455-0.265c0.155-0.107,0.302-0.227,0.438-0.36c0.672-0.655,1.078-1.601,0.88-2.753
		C57.248,78.803,57.042,77.503,56.847,76.202z M37.256,77.036c-17.631-4.434-28.351-20.971-23.788-38.59
		c4.236-16.353,19.449-26.848,35.718-27.675c21.045,1.474,38.038,19.023,31.559,41.16c-0.051,0.176-0.113,0.346-0.167,0.521
		c-9.832-3.073-19.502-6.615-29.162-10.192c-2.718-1.006-4.263,2.007-3.341,4.124c-0.037,0.228-0.053,0.471-0.034,0.737
		c0.729,10.201,1.514,20.387,3.032,30.497C46.541,78.336,41.851,78.191,37.256,77.036z"/>
	<path style="fill:#1D1D1B;" d="M93.627,67.742c-0.256-0.182-0.542-0.342-0.889-0.45c-0.624-0.194-1.243-0.402-1.865-0.599
		c-0.175-0.055-0.35-0.113-0.525-0.169c-0.19-0.06-0.379-0.122-0.568-0.182c-2.525-0.806-5.045-1.628-7.558-2.47
		c-1.508-0.505-3.016-1.007-4.521-1.521c-0.546-0.186-1.091-0.375-1.637-0.563c-0.501-0.172-1.001-0.346-1.502-0.519
		c-0.825-0.285-1.651-0.569-2.476-0.855c-3.314-1.149-6.627-2.303-9.941-3.453c-1.935-0.671-3.268,0.643-3.562,2.207
		c-0.131,0.333-0.21,0.69-0.21,1.064v0.795c0,0.634,0.211,1.224,0.56,1.711c-0.125,0.44-0.163,0.927-0.056,1.465
		c0.29,1.451,0.575,2.903,0.863,4.354c0.049,0.248,0.098,0.495,0.147,0.743c0.095,0.481,0.191,0.962,0.286,1.442
		c0.253,1.282,0.508,2.563,0.762,3.844c0.444,2.248,0.897,4.493,1.344,6.74c0.187,0.941,0.381,1.881,0.57,2.823
		c0.033,0.167,0.068,0.334,0.101,0.501c0.204,1.017,0.41,2.033,0.616,3.05c0.407,2.011,0.802,4.024,1.218,6.033
		c0.015,1.744,1.476,3.612,3.72,3.145c13.596-2.829,23.426-12.363,27.51-25.524C96.63,69.362,95.225,68,93.627,67.742z
		 M70.15,90.278c-0.42-2.047-0.826-4.097-1.238-6.146c-0.28-1.39-0.563-2.779-0.84-4.17c-0.035-0.176-0.071-0.351-0.106-0.526
		c-0.033-0.166-0.068-0.333-0.101-0.499c-0.038-0.189-0.076-0.377-0.114-0.566c-0.313-1.573-0.627-3.145-0.939-4.717
		c-0.144-0.728-0.289-1.456-0.433-2.184c-0.196-0.99-0.393-1.979-0.589-2.968c-0.033-0.166-0.066-0.332-0.099-0.498
		s-0.066-0.332-0.099-0.498c-0.216-1.091-0.432-2.181-0.649-3.272c1.648,0.574,3.297,1.146,4.946,1.718
		c0.264,0.091,0.528,0.184,0.792,0.275c0.265,0.092,0.529,0.182,0.794,0.274c0.193,0.067,0.386,0.132,0.579,0.198
		c2.156,0.744,4.315,1.48,6.476,2.209c0.477,0.161,0.955,0.32,1.432,0.48c0.343,0.115,0.686,0.23,1.029,0.345
		c0.342,0.114,0.683,0.23,1.025,0.343c2.425,0.805,4.853,1.599,7.289,2.37C85.792,81.223,79.137,87.477,70.15,90.278z"/>
</g>
</svg>
