<?xml version="1.0" encoding="iso-8859-1"?>
<!-- Generator: Adobe Illustrator 17.0.2, SVG Export Plug-In . SVG Version: 6.00 Build 0)  -->
<!DOCTYPE svg PUBLIC "-//W3C//DTD SVG 1.1//EN" "http://www.w3.org/Graphics/SVG/1.1/DTD/svg11.dtd">
<svg version="1.1" id="Capa_1" xmlns="http://www.w3.org/2000/svg" xmlns:xlink="http://www.w3.org/1999/xlink" x="0px" y="0px"
	 width="100px" height="100px" viewBox="0 0 100 100" style="enable-background:new 0 0 100 100;" xml:space="preserve">
<g>
	<path style="fill:#1D1D1B;" d="M15.903,43.579c0.492,0.259,0.992,0.391,1.487,0.391c0.884,0,1.549-0.409,1.951-0.753l0.134-0.082
		l0.226,0.451c0,0,0,0,0,0l-0.127-0.484c1.198-0.528,2.508-1.134,4.086-1.894l0.323-0.155l0.251,0.256
		c3.941,4.027,6.926,7.523,9.391,11.002c0.207,0.292,0.455,0.538,0.781,0.774l0.351,0.254l-0.202,0.384
		c-1.477,2.806-2.473,5.836-2.963,9.008l-0.04,0.133c-0.361,0.784-0.235,1.785,0.335,2.675c0.927,1.447,2.686,2.046,4.239,1.347
		c5.516-2.491,10.855-5.038,15.87-7.57l0.39-0.197l0.248,0.359c2.228,3.232,3.841,5.525,5.223,7.487
		c2.91,4.134,4.833,6.865,9.335,13.925c1.523,2.389,12.838,14.625,14.983,15.25c0.046-2.05-7.048-14.284-9.631-18.334
		c-4.369-6.851-6.222-9.483-9.027-13.467c-1.394-1.979-3.021-4.292-5.307-7.617l-0.317-0.461l0.494-0.264
		c5.547-2.958,10.568-5.841,15.353-8.813c0.979-0.608,1.494-1.539,1.451-2.621c-0.048-1.207-0.773-2.376-1.804-2.909l-0.123-0.064
		l-0.073-0.118c-0.367-0.593-0.897-1.032-1.575-1.302c-4.796-1.914-9.985-2.531-15.093-1.799l-0.334,0.048l-0.169-0.292
		c-1.42-2.454-2.821-4.918-4.223-7.382c-0.952-1.674-1.904-3.349-2.862-5.02l-0.212-0.369l0.331-0.268
		c1.307-1.059,3.024-2.468,4.714-3.975c0.898-0.802,1.189-1.821,0.818-2.87l-0.024-0.105c-0.052-0.418-0.171-0.836-0.355-1.242
		c-2.211-4.87-4.933-8.99-8.088-12.244c-1.068-1.102-2.521-1.209-3.74-0.364l-0.166,0.075c-0.277,0.067-0.523,0.157-0.754,0.274
		c-9.604,4.881-18.966,10.565-28.019,16.062c-2.009,1.22-4.018,2.44-6.032,3.652c-0.831,0.5-1.328,1.233-1.438,2.119l-0.022,0.177
		L5.819,26.77c-0.773,0.74-1.033,1.758-0.733,2.868C6.74,35.744,10.682,40.825,15.903,43.579z M60.636,44.319
		c1.221,0,2.459,0.094,3.682,0.279l1.402,0.212l-1.226,0.714c-7.381,4.3-15.275,8.43-24.134,12.626l-1.272,0.603l0.607-1.271
		C43.577,49.363,51.602,44.319,60.636,44.319z M49.733,39.573l0.285,0.496l-0.53,0.216c-4.125,1.682-7.863,4.289-10.809,7.538
		l-0.409,0.451l-0.363-0.489c-2.294-3.091-4.905-6.195-7.759-9.226l-0.441-0.468l0.563-0.312c4.388-2.429,8.779-5.224,13.054-8.308
		l0.451-0.326l2.242,3.927C47.254,35.241,48.49,37.409,49.733,39.573z M15.958,26.394c8.703-5.274,17.702-10.728,26.899-15.507
		l0.363-0.188l0.257,0.318c1.556,1.928,2.95,4.103,4.262,6.648l0.181,0.351l-0.3,0.257c-8.793,7.549-18.847,13.911-29.88,18.908
		L17.479,37.3l-0.234-0.167c-2.63-1.872-4.551-4.426-5.708-7.589l-0.142-0.387L15.958,26.394z"/>
</g>
</svg>
