<?xml version="1.0" encoding="iso-8859-1"?>
<!-- Generator: Adobe Illustrator 17.0.2, SVG Export Plug-In . SVG Version: 6.00 Build 0)  -->
<!DOCTYPE svg PUBLIC "-//W3C//DTD SVG 1.1//EN" "http://www.w3.org/Graphics/SVG/1.1/DTD/svg11.dtd">
<svg version="1.1" id="Capa_1" xmlns="http://www.w3.org/2000/svg" xmlns:xlink="http://www.w3.org/1999/xlink" x="0px" y="0px"
	 width="100px" height="100px" viewBox="0 0 100 100" style="enable-background:new 0 0 100 100;" xml:space="preserve">
<g>
	<path style="fill:#1E1E1C;" d="M87.963,71.25c-4.031-5.362-7.931-10.814-11.625-16.411h6.908c1.187,0,1.973-0.614,2.374-1.429
		c0.782-0.785,1.128-1.973,0.397-3.217C76.872,34.626,66.59,19.775,57.107,4.418c-1.109-1.794-3.228-1.554-4.399-0.433
		c-0.49,0.18-0.952,0.494-1.328,0.989C40.384,19.436,31.477,35.32,20.802,50.007c-1.606,2.211,0.804,4.336,2.967,3.965
		c0.06,0.009,0.113,0.027,0.175,0.033c1.53,0.134,3.062,0.236,4.595,0.321c-5.482,4.464-10.324,9.654-15.271,14.762
		c-3.312,3.421,2.938,5.653,5.316,5.878c1.45,0.137,18.796-1.476,18.796-0.647c0.002,5.276,0.031,10.55,0.277,15.822
		c0.015,0.335,0.091,0.629,0.193,0.901c-0.393,1.589,0.463,3.539,2.586,3.547c5.839,0.02,11.675,0.258,17.513,0.278
		c0.808,0.003,1.423-0.285,1.866-0.72c0.802-0.41,1.418-1.186,1.47-2.338c0.25-5.539,0.471-11.077,0.532-16.62
		c-0.005,0.452,22.533,1.75,24.749,1.222c0.725-0.173,2.153-0.287,2.604-0.971C89.784,74.511,88.944,71.728,87.963,71.25z
		 M55.836,89.279c-4.22-0.047-8.438-0.161-12.659-0.217c-0.2-4.856-0.233-9.714-0.237-14.574c4.442,0.132,8.883,0.276,13.322,0.453
		C56.213,79.722,56.044,84.501,55.836,89.279z M22.368,68.46c-0.342-0.005-0.641,0.055-0.918,0.143
		c5.065-5.248,10.245-10.356,16.498-14.236c2.168-1.346,1.363-4.17-0.383-4.995c-0.382-0.224-0.839-0.369-1.391-0.371
		c-2.572-0.009-5.141-0.094-7.705-0.239c8.829-12.645,16.658-25.966,25.805-38.39c8.157,13.021,16.782,25.745,24.713,38.906H71.57
		c-1.644,0-2.524,1.17-2.661,2.436c-0.276,0.677-0.262,1.478,0.262,2.303c3.599,5.672,7.435,11.175,11.412,16.582
		C61.196,69.455,41.789,68.729,22.368,68.46z"/>
	<path style="fill:#1E1E1C;" d="M45.996,37.882c-3.585,0-3.585,5.56,0,5.56C49.582,43.442,49.582,37.882,45.996,37.882z"/>
	<path style="fill:#1E1E1C;" d="M61.008,53.449c-3.586,0-3.586,5.56,0,5.56C64.593,59.009,64.593,53.449,61.008,53.449z"/>
	<path style="fill:#1E1E1C;" d="M58.413,30.84c-3.585,0-3.585,5.56,0,5.56S61.998,30.84,58.413,30.84z"/>
	<path style="fill:#1E1E1C;" d="M43.402,60.121c-3.586,0-3.586,5.56,0,5.56C46.986,65.68,46.986,60.121,43.402,60.121z"/>
</g>
</svg>
