<?xml version="1.0" encoding="utf-8"?>
<!-- Generator: Adobe Illustrator 17.0.2, SVG Export Plug-In . SVG Version: 6.00 Build 0)  -->
<!DOCTYPE svg PUBLIC "-//W3C//DTD SVG 1.1//EN" "http://www.w3.org/Graphics/SVG/1.1/DTD/svg11.dtd">
<svg version="1.1" id="Capa_1" xmlns="http://www.w3.org/2000/svg" xmlns:xlink="http://www.w3.org/1999/xlink" x="0px" y="0px"
	 width="100px" height="100px" viewBox="0 0 100 100" enable-background="new 0 0 100 100" xml:space="preserve">
<g>
	<path fill="#1D1D1B" d="M90.662,2.904c-0.379-0.198-0.836-0.282-1.36-0.166C87.879,3.052,86.45,3.345,85,3.5
		c-0.36,0.039-0.697,0.148-0.993,0.312c-0.012,0.005-0.023,0.013-0.034,0.018c-0.034,0.02-0.07,0.038-0.103,0.059
		c-0.292,0.158-0.558,0.401-0.763,0.768c-5.757,10.296-10.348,21.2-15.963,31.575c-5.796,10.709-12.939,22.246-24.095,27.995
		c-5.25-1.387-4.232-8.49-3.881-12.894c0.092-1.149-0.656-1.777-1.53-1.897c-0.132-0.077-0.276-0.145-0.438-0.198
		c-7.676-2.491-15.59-1.859-23.396-0.333c-0.192,0.037-0.356,0.099-0.507,0.172c-2.202,0.482-4.312,1.264-6.304,2.363
		c-0.644,0.356-0.919,0.891-0.959,1.446c-0.162,0.314-0.238,0.664-0.205,1.018c-1.6,12.85,1.068,23.398,12.241,30.86
		c10.212,6.82,22.686,3.529,31.692-3.612c10.763-8.534,18.01-20.32,24.592-32.18c7.648-13.781,13.71-28.468,18.078-43.607
		C92.833,3.965,91.783,3.02,90.662,2.904z M16.198,52.595c0.171-0.023,0.324-0.086,0.468-0.163
		c5.021-0.87,10.037-1.218,15.006-0.394c-5.944,2.956-14.497,5.043-20.278,1.779C12.934,53.224,14.535,52.824,16.198,52.595z
		 M54.713,71.062c-7.391,8.304-17.862,15.855-29.476,12.666c-12.639-3.47-16.3-14.98-15.711-26.375
		c7.535,4.104,18.266,1.49,25.45-2.528c-0.144,5.918,0.889,12.5,7.825,13.436c0.426,0.058,0.807-0.012,1.141-0.157
		c0.238-0.025,0.483-0.086,0.733-0.211c10.815-5.393,17.992-15.9,23.912-26.059c6.51-11.172,11.368-23.199,17.619-34.504
		c0.512-0.071,1.022-0.155,1.533-0.24C80.951,29.665,70.416,53.42,54.713,71.062z"/>
	<path fill="#1D1D1B" d="M23.553,32.358c-1.341,3.388-0.85,7.159,2.366,9.749c4.134,3.33,10.013,1.864,13.002-2.22
		c2.503-3.42,1.573-8.679-1.409-11.45c-3.382-3.142-7.722-1.919-11.185,0.313c-0.377,0.057-0.751,0.259-1.075,0.669
		c-0.045,0.057-0.084,0.117-0.128,0.175c-0.359,0.27-0.709,0.545-1.039,0.825C23.396,31.006,23.305,31.732,23.553,32.358z
		 M27.966,32.407c1.866-1.392,4.212-2.549,6.371-1.372c1.991,1.085,2.439,4.067,1.609,5.993c-1.073,2.489-4.322,3.629-6.732,2.485
		C26.308,38.134,26.255,34.726,27.966,32.407z"/>
	<path fill="#1D1D1B" d="M9.919,27.107c4.134,3.33,10.013,1.864,13.002-2.22c2.503-3.42,1.573-8.679-1.409-11.45
		c-3.382-3.142-7.722-1.919-11.185,0.313c-0.377,0.057-0.751,0.259-1.075,0.669c-0.045,0.057-0.084,0.117-0.128,0.175
		c-0.359,0.27-0.709,0.545-1.039,0.825c-0.69,0.587-0.781,1.313-0.533,1.939C6.212,20.746,6.704,24.516,9.919,27.107z
		 M11.966,17.407c1.866-1.392,4.212-2.549,6.371-1.372c1.991,1.085,2.439,4.067,1.609,5.993c-1.073,2.489-4.322,3.629-6.732,2.485
		C10.308,23.134,10.255,19.726,11.966,17.407z"/>
	<path fill="#1D1D1B" d="M15.333,18.667c1.156,0,1.79,0.805,1.91,1.692c1.424-0.931,1.069-3.692-1.076-3.692
		c-1.423,0-2.057,1.217-1.91,2.308C14.545,18.787,14.899,18.667,15.333,18.667z"/>
	<path fill="#1D1D1B" d="M32.167,33.5c1.156,0,1.79,0.805,1.909,1.692C35.5,34.261,35.146,31.5,33,31.5
		c-1.423,0-2.057,1.217-1.91,2.308C31.378,33.62,31.733,33.5,32.167,33.5z"/>
</g>
</svg>
