<?xml version="1.0" encoding="iso-8859-1"?>
<!-- Generator: Adobe Illustrator 17.0.2, SVG Export Plug-In . SVG Version: 6.00 Build 0)  -->
<!DOCTYPE svg PUBLIC "-//W3C//DTD SVG 1.1//EN" "http://www.w3.org/Graphics/SVG/1.1/DTD/svg11.dtd">
<svg version="1.1" id="Capa_1" xmlns="http://www.w3.org/2000/svg" xmlns:xlink="http://www.w3.org/1999/xlink" x="0px" y="0px"
	 width="100px" height="100px" viewBox="0 0 100 100" style="enable-background:new 0 0 100 100;" xml:space="preserve">
<g>
	<path style="fill:#1D1D1B;" d="M40.511,23.827c-0.661,0.542-1.106,1.369-1.096,2.491c0.04,4.367,0.458,8.698,0.968,13.026
		c-3.579,0.262-7.158,0.529-10.737,0.786c-0.589,0.042-1.09,0.213-1.52,0.461c-1.436,0.385-2.522,1.701-2.522,3.244v0.674
		c0,0.554,0.152,1.073,0.397,1.539c0.258,3.299,0.275,6.606,0.276,9.915c0,1.774,1.127,2.811,2.456,3.136
		c0.369,0.141,0.778,0.232,1.249,0.232h11.495c0.083,3.706,0.277,7.409,0.295,11.116c0.009,1.743,1.103,2.774,2.402,3.119
		c0.381,0.154,0.811,0.25,1.304,0.25h11.453c0.99,0,1.744-0.36,2.283-0.902c0.034-0.029,0.064-0.062,0.099-0.092
		c0.026-0.03,0.057-0.058,0.083-0.089c0.542-0.539,0.903-1.293,0.903-2.286c0-3.933-0.032-7.863-0.203-11.79h12.667
		c2,0,3.068-1.429,3.227-2.971c0.292-0.474,0.479-1.047,0.479-1.745V41.814c0-1.533-0.845-2.513-1.93-2.965
		c-0.526-0.449-1.224-0.741-2.113-0.741H59.826c-0.201-4.266-0.287-8.537-0.537-12.801c-0.111-1.917-1.504-2.983-2.993-3.201
		c-0.319-0.098-0.66-0.168-1.049-0.168h-11.79C41.943,21.939,40.97,22.762,40.511,23.827z M47.499,42.487
		c-0.573-4.596-1.091-9.188-1.267-13.811h6.483c0.17,4.042,0.26,8.088,0.51,12.127c0.016,0.244,0.058,0.471,0.111,0.687
		c0.006,1.68,1.091,3.355,3.258,3.355h13.138v7.074H56.595c-1.921,0-2.989,1.317-3.212,2.787c-0.12,0.37-0.187,0.782-0.157,1.256
		c0.231,3.704,0.305,7.409,0.327,11.116h-5.102c-0.092-3.369-0.261-6.735-0.278-10.106c-0.001-0.322-0.05-0.613-0.12-0.887
		c0.055-1.725-1.022-3.492-3.248-3.492H32.998c-0.02-1.987-0.092-3.972-0.228-5.955c3.562-0.261,7.124-0.526,10.687-0.782
		c0.317-0.023,0.604-0.089,0.875-0.177C46.092,45.773,47.778,44.724,47.499,42.487z"/>
	<path style="fill:#1D1D1B;" d="M51.035,5.211c-1.981,0-3.995,0.118-6.008,0.353c-0.944,0.121-1.886,0.262-2.799,0.417
		c-0.577,0.09-1.108,0.262-1.586,0.51C21.658,9.008,7.128,23.231,4.419,42.005C1.103,65,18.524,86.667,43.257,90.306
		c2.175,0.32,4.413,0.482,6.653,0.482c0.001,0,0.001,0,0.003,0c22.705,0,42.427-15.434,45.875-35.9
		c1.986-11.792-2.308-24.735-11.781-35.509C75.974,10.243,64.265,5.211,51.035,5.211z M53.666,15.553
		c8.899,0.618,16.624,4.298,22.973,10.948c7.456,7.811,10.782,18.795,8.681,28.665c-2.675,12.562-15.876,25.277-35.932,25.277
		c-2.328,0-4.619-0.204-6.811-0.605c-18.442-3.383-30.911-20.4-27.796-37.935c2.674-15.04,15.907-25.543,32.183-25.543
		c1.099,0,2.214,0.049,3.313,0.146C51.613,16.625,52.756,16.28,53.666,15.553z"/>
</g>
</svg>
