<?xml version="1.0" encoding="iso-8859-1"?>
<!-- Generator: Adobe Illustrator 17.0.2, SVG Export Plug-In . SVG Version: 6.00 Build 0)  -->
<!DOCTYPE svg PUBLIC "-//W3C//DTD SVG 1.1//EN" "http://www.w3.org/Graphics/SVG/1.1/DTD/svg11.dtd">
<svg version="1.1" id="Capa_1" xmlns="http://www.w3.org/2000/svg" xmlns:xlink="http://www.w3.org/1999/xlink" x="0px" y="0px"
	 width="100px" height="100px" viewBox="0 0 100 100" style="enable-background:new 0 0 100 100;" xml:space="preserve">
<g>
	<path style="fill:#1D1D1B;" d="M88.287,36.997l-0.218-0.091l-0.181-0.154c-0.638-0.545-1.442-0.821-2.393-0.821H63.982
		l-0.067-1.429c-0.133-2.815-0.234-5.631-0.335-8.447c-0.142-3.917-0.287-7.966-0.519-11.938c-0.14-2.376-1.895-3.472-3.491-3.705
		l-0.224-0.05c-0.446-0.137-0.838-0.201-1.23-0.201H39.325c-1.993,0-2.904,1.144-3.317,2.103l-0.145,0.334l-0.282,0.231
		c-0.806,0.662-1.209,1.603-1.198,2.797c0.067,7.254,0.812,14.483,1.532,20.598l0.184,1.557l-7.141,0.524
		c-3.846,0.283-7.691,0.566-11.537,0.842c-0.652,0.047-1.234,0.223-1.778,0.537l-0.171,0.099l-0.191,0.051
		c-1.686,0.452-2.909,2.018-2.909,3.722v1.074c0,0.583,0.155,1.172,0.461,1.752l0.145,0.274L13,46.966
		c0.408,5.234,0.443,10.516,0.444,15.918c0,2.585,1.938,3.338,2.772,3.542l0.18,0.056c0.477,0.183,0.952,0.271,1.454,0.271h19.786
		l0.033,1.466c0.051,2.274,0.128,4.547,0.205,6.82c0.122,3.575,0.248,7.272,0.266,10.924c0.013,2.537,1.901,3.312,2.713,3.527
		l0.177,0.06c0.482,0.194,0.979,0.289,1.517,0.289H60.8c1.052,0,1.918-0.335,2.575-0.996l0.296-0.293
		c0.662-0.659,0.998-1.526,0.998-2.58c-0.001-5.612-0.04-12.227-0.323-18.726l-0.067-1.565h21.755c2.435,0,3.481-1.75,3.65-3.388
		l0.035-0.342l0.181-0.293c0.363-0.589,0.54-1.241,0.54-1.993V40.336C90.439,38.315,89.27,37.404,88.287,36.997z M82.701,57.942
		H60.264c-2.929,0-3.522,2.423-3.635,3.166l-0.058,0.241c-0.152,0.466-0.211,0.938-0.18,1.442
		c0.408,6.547,0.495,12.952,0.524,17.801l0.009,1.509H45.826l-0.04-1.459c-0.05-1.79-0.112-3.58-0.175-5.37
		c-0.123-3.525-0.251-7.17-0.27-10.769c-0.002-0.337-0.048-0.67-0.146-1.049l-0.053-0.207l0.007-0.214
		c0.037-1.179-0.351-2.276-1.063-3.013c-0.646-0.667-1.525-1.005-2.614-1.005H21.172l-0.016-1.484
		c-0.033-3.24-0.154-6.404-0.359-9.405l-0.103-1.49l7.002-0.514c3.841-0.283,7.681-0.565,11.521-0.841
		c0.333-0.024,0.665-0.092,1.043-0.213l0.263-0.084L40.8,45c1.202,0.072,2.285-0.31,2.896-1.003
		c0.513-0.581,0.709-1.389,0.583-2.401c-1.025-8.222-1.763-15.134-2.03-22.141l-0.06-1.557h13.33l0.061,1.437
		c0.091,2.156,0.167,4.313,0.243,6.47c0.149,4.209,0.304,8.562,0.568,12.828c0.017,0.257,0.06,0.52,0.136,0.826l0.044,0.357
		c0.007,1.917,1.151,3.853,3.692,3.853h22.438V57.942z"/>
</g>
</svg>
