<?xml version="1.0" encoding="iso-8859-1"?>
<!-- Generator: Adobe Illustrator 17.0.2, SVG Export Plug-In . SVG Version: 6.00 Build 0)  -->
<!DOCTYPE svg PUBLIC "-//W3C//DTD SVG 1.1//EN" "http://www.w3.org/Graphics/SVG/1.1/DTD/svg11.dtd">
<svg version="1.1" id="Capa_1" xmlns="http://www.w3.org/2000/svg" xmlns:xlink="http://www.w3.org/1999/xlink" x="0px" y="0px"
	 width="100px" height="100px" viewBox="0 0 100 100" style="enable-background:new 0 0 100 100;" xml:space="preserve">
<g>
	<path style="fill:#1E1E1C;" d="M81.73,28.855c-0.181-5.491-0.282-12.909-0.228-18.404c0.002-0.245-0.037-0.461-0.093-0.664
		c0.107-1.197-0.596-2.461-2.129-2.421c-19.354,0.508-38.704-0.25-58.058-0.28c-1.61-0.003-2.315,1.412-2.117,2.654
		c-0.064,0.216-0.109,0.448-0.106,0.712c0.292,23.095,1.086,56.279,1.111,79.377c0,0.518,0.147,0.939,0.382,1.272
		c0.142,0.979,0.846,1.845,2.119,1.813c8.365-0.208,16.734-0.342,25.093-0.752c7.45-0.365,16.734,0.124,23.856-2.307
		c2.521-0.861,4.776-2.134,6.71-3.977c3.534-3.369,4.741-7.892,5.045-12.658c0.292-4.577-0.247-9.379-0.354-13.597
		C82.686,48.728,82.089,39.748,81.73,28.855z M69.484,70.049c-1.362,0.008-2.678,1.071-2.069,2.705
		c1.224,3.286,1.784,7.366-0.099,10.509c-2.276,3.801-6.338,3.698-10.2,4.185c-2.362,0.298-4.873,0.14-7.253,0.207
		c-1.853,0.052-25.314,0.624-25.314,0.716c-0.055-22.233-0.79-54.553-1.087-76.784c17.868,0.077,35.733,0.691,53.601,0.309
		c-0.068,18.253,1.55,44.639,1.646,59.065c-2.772-0.875-5.637-1.244-8.595-1.046C69.883,69.929,69.678,69.982,69.484,70.049z
		 M71.23,85.245c1.794-3.058,2.242-6.81,1.309-10.877c2.161,0.084,4.292,0.501,6.31,1.356c0.008,0.025,0.015,0.052,0.023,0.077
		C78.218,80.62,75.169,83.577,71.23,85.245z"/>
	<path style="fill:#1E1E1C;" d="M31.765,31.664c-2.094-0.363-3.298,1.901-2.64,3.313c-0.031,0.163-0.046,0.337-0.041,0.524
		c0.145,5.506-0.278,10.998-0.333,16.5c-0.029,2.903,4.471,2.9,4.5,0c0.019-1.841,0.08-3.681,0.145-5.521
		c3.524-0.452,6.793-2.398,6.754-6.467C40.107,35.567,35.777,32.359,31.765,31.664z M33.539,41.947
		c0.046-1.613,0.063-3.226,0.051-4.84c0.934,0.596,1.676,1.432,2.003,2.587C35.998,41.12,34.834,41.713,33.539,41.947z"/>
	<path style="fill:#1E1E1C;" d="M52.417,33.667c0.101,3.445,0.183,6.889,0.209,10.334c-2.153-3.262-4.184-6.603-6.183-9.969
		c-1.311-2.207-4.506-0.683-4.188,1.431c-0.001,0.013-0.004,0.024-0.005,0.038c-0.131,5.399,0.174,10.78,0.5,16.167
		c0.175,2.883,4.676,2.9,4.5,0c-0.169-2.786-0.329-5.571-0.428-8.358c1.859,2.957,3.791,5.866,5.902,8.66
		c0.032,0.042,0.069,0.072,0.103,0.111c0.917,1.752,4.197,1.393,4.257-1.08c0.14-5.78,0.002-11.555-0.167-17.333
		C56.832,30.771,52.332,30.763,52.417,33.667z"/>
	<path style="fill:#1E1E1C;" d="M74.669,43.902c-0.004-0.021-0.015-0.038-0.019-0.059c-0.126-1.007-0.839-1.927-2.15-1.927h-6.667
		c-0.271,0-0.509,0.05-0.73,0.122c-0.364-2.774,0.854-5.718,3.995-6.869c2.701-0.99,1.535-5.34-1.196-4.339
		c-9.975,3.655-9.74,19.153,1.167,21.339c0.097,0.019,0.187,0.02,0.28,0.028c0.594,0.346,1.347,0.397,2.121-0.088
		C74.386,50.281,75.295,47.174,74.669,43.902z M69.804,47.695c-0.923-0.257-1.707-0.711-2.374-1.279h2.934
		C70.29,46.889,70.116,47.327,69.804,47.695z"/>
</g>
</svg>
