<?xml version="1.0" encoding="iso-8859-1"?>
<!-- Generator: Adobe Illustrator 17.0.2, SVG Export Plug-In . SVG Version: 6.00 Build 0)  -->
<!DOCTYPE svg PUBLIC "-//W3C//DTD SVG 1.1//EN" "http://www.w3.org/Graphics/SVG/1.1/DTD/svg11.dtd">
<svg version="1.1" id="Capa_1" xmlns="http://www.w3.org/2000/svg" xmlns:xlink="http://www.w3.org/1999/xlink" x="0px" y="0px"
	 width="100px" height="100px" viewBox="0 0 100 100" style="enable-background:new 0 0 100 100;" xml:space="preserve">
<g>
	<path style="fill:#1D1D1B;" d="M84.514,75.938c0.567-17.636-12.286-31.991-30.543-31.121V20.872
		c1.24-0.356,2.418-0.862,3.388-1.581c2.828-2.1,3.814-4.58,3.572-6.96c-0.522-5.136-6.768-9.804-12.567-9.168
		c-4.767,0.523-8.862,4.644-9.269,9.384c-0.474,5.522,3.912,8.545,8.803,8.945v23.446c-18.467-0.054-33.492,11.86-32.574,30.654
		c-4.077,1.138-7.362,4.859-7.725,9.077c-0.512,5.981,4.675,9.038,10.031,8.997c2.713-0.021,6.011-0.604,8.232-2.253
		c2.829-2.1,3.815-4.58,3.573-6.96c-0.389-3.818-3.94-7.373-8.12-8.687c-1.412-15.895,11.883-24.689,26.582-24.746v24.338
		c-4.563,0.731-8.41,4.727-8.803,9.31c-0.513,5.981,4.674,9.038,10.03,8.997c2.713-0.021,6.011-0.604,8.233-2.253
		c2.828-2.1,3.814-4.58,3.572-6.96c-0.352-3.458-3.302-6.697-6.96-8.255V50.334c14.695-0.546,25.738,10.353,25.173,25.02
		c-4.577,0.719-8.439,4.721-8.833,9.315c-0.513,5.981,4.674,9.038,10.03,8.997c2.713-0.021,6.011-0.604,8.233-2.253
		c2.828-2.1,3.814-4.58,3.572-6.96C91.773,80.785,88.478,77.367,84.514,75.938z M19.677,88.259c-0.089-0.001-0.17-0.014-0.263-0.008
		c-5.654,0.372-8.947-6.355-2.109-7.365c0.549,0.154,1.164,0.12,1.754-0.066C23.862,81.27,25.888,87.037,19.677,88.259z
		 M49.254,8.702c5.695-0.59,8.666,6.106,1.918,7.434c-0.089-0.001-0.169-0.014-0.263-0.008C45.132,16.508,41.813,9.474,49.254,8.702
		z M51.172,88.259c-0.089-0.001-0.169-0.014-0.263-0.008c-5.763,0.379-9.077-6.619-1.708-7.419c0.822,0.511,1.894,0.618,2.817,0.31
		C55.701,82.472,56.706,87.17,51.172,88.259z M82.388,88.259c-0.089-0.001-0.169-0.014-0.263-0.008
		c-5.649,0.372-8.941-6.344-2.127-7.362c1.006,0.809,2.448,1.001,3.367,0.3C86.941,82.581,87.857,87.183,82.388,88.259z"/>
</g>
</svg>
