<?xml version="1.0" encoding="iso-8859-1"?>
<!-- Generator: Adobe Illustrator 17.0.2, SVG Export Plug-In . SVG Version: 6.00 Build 0)  -->
<!DOCTYPE svg PUBLIC "-//W3C//DTD SVG 1.1//EN" "http://www.w3.org/Graphics/SVG/1.1/DTD/svg11.dtd">
<svg version="1.1" id="Capa_1" xmlns="http://www.w3.org/2000/svg" xmlns:xlink="http://www.w3.org/1999/xlink" x="0px" y="0px"
	 width="100px" height="100px" viewBox="0 0 100 100" style="enable-background:new 0 0 100 100;" xml:space="preserve">
<g>
	<path style="fill:#1E1E1C;" d="M85.52,71.396c-0.25,0-0.502,0.011-0.758,0.032c-1.692,0.146-3.23,0.591-4.718,1.021
		c-1.306,0.377-2.538,0.733-3.749,0.846c-2.491,0.23-5.241,0.055-8.529-0.553c-0.412-0.076-0.824-0.156-1.233-0.24
		c-3.493-0.721-7.025-1.755-10.44-2.755c-3.475-1.018-7.056-2.065-10.715-2.828c0.417-2.597,0.686-5.434,0.836-8.844
		c4.135-0.22,7.731-3.66,8.286-8.014c0.363-2.866-0.771-5.753-3.034-7.725c-1.028-0.896-2.284-1.587-3.73-2.054
		c-0.416-0.135-0.848-0.198-1.305-0.266c-0.065-0.01-0.142-0.021-0.222-0.033c0.026-0.346,0.084-0.753,0.123-1.024
		c0.056-0.388,0.106-0.756,0.132-1.085c0.051-0.676,0.093-1.353,0.134-2.029c0.078-1.26,0.151-2.451,0.285-3.644
		c0.677-6.028,3.278-9.179,7.732-9.363c0.636-0.026,1.316-0.044,2.024-0.044c6.161,0,8.899,1.409,10.111,2.591
		c0.637,0.62,0.945,1.622,1.303,2.782c0.395,1.282,0.842,2.735,1.854,4.056c1.749,2.284,4.528,3.647,7.434,3.647
		c0.798,0,1.585-0.105,2.34-0.313c4.712-1.296,7.514-6.165,6.379-11.083c-1.218-5.283-4.256-10.244-8.334-13.609
		c-4.681-3.862-10.304-5.054-14.679-5.66c-2.253-0.312-5.227-0.671-8.261-0.671c-3.007,0-5.63,0.343-8.019,1.05
		c-5.253,1.555-10.604,5.857-13.313,10.707c-2.248,4.022-3.809,9.108-4.64,15.117c-0.393,2.834-0.506,5.605-0.583,8.422
		c-0.826,0.019-1.652,0.042-2.479,0.066c-5.866,0.181-8.864,4.892-8.794,9.453c0.066,4.342,3.05,8.739,8.623,8.739l0.324-0.005
		c0.722-0.022,1.442-0.042,2.158-0.059c-0.007,0.184-0.014,0.37-0.021,0.558c-0.087,2.424-0.187,5.171-0.948,7.141
		c-0.258,0.666-0.772,0.879-2.537,1.316c-0.562,0.14-1.128,0.282-1.675,0.463c-1.944,0.643-4.471,1.59-6.774,3.226
		c-3.297,2.344-7.693,6.237-9.919,11.478c-1.315,3.1-1.346,6.568-0.08,9.279c1.033,2.216,2.844,3.772,5.234,4.502
		c1.355,0.414,2.803,0.624,4.304,0.624c4.905,0,9.651-2.249,12.77-4.137c2.261-1.367,4.373-3.091,6.28-5.122
		c0.245-0.262,0.499-0.548,0.762-0.845c0.9-1.018,2.133-2.41,3.023-2.41c0.05,0,0.1,0.004,0.151,0.012
		c3.109,0.467,6.267,1.29,9.319,2.086l0.583,0.152c1.243,0.323,2.495,0.659,3.756,0.998c7.445,1.999,15.144,4.067,22.899,4.067
		c5.577,0,10.503-1.067,15.06-3.264c3.666-1.768,5.396-5.266,4.514-9.13C93.771,74.673,89.797,71.396,85.52,71.396z M88.08,83.644
		c-3.864,1.862-8.08,2.768-12.889,2.768c-7.097,0-14.471-1.981-21.603-3.896c-1.273-0.342-2.538-0.682-3.793-1.008l-0.581-0.151
		c-3.18-0.829-6.468-1.687-9.839-2.193c-0.304-0.045-0.602-0.066-0.894-0.066c-3.143,0-5.238,2.368-6.768,4.097
		c-0.229,0.259-0.449,0.509-0.664,0.736c-1.595,1.699-3.352,3.135-5.222,4.267c-2.574,1.558-6.43,3.414-10.182,3.414
		c-1.005,0-1.962-0.137-2.844-0.405c-1.026-0.313-1.733-0.914-2.164-1.835c-0.654-1.404-0.595-3.45,0.152-5.212
		c1.769-4.163,5.442-7.386,8.212-9.354c1.761-1.25,3.836-2.021,5.447-2.554c0.428-0.142,0.87-0.249,1.31-0.357
		c1.896-0.471,4.764-1.182,5.997-4.364c1.065-2.755,1.181-5.948,1.282-8.766c0.016-0.423,0.03-0.838,0.048-1.24
		c0.054-1.194-0.368-2.323-1.188-3.181c-0.81-0.847-1.952-1.332-3.23-1.332c-0.002,0-0.003,0-0.005,0
		c-0.97,0.021-1.94,0.046-2.913,0.075l-0.171,0.003c-3.394,0-3.614-3.178-3.624-3.815c-0.024-1.58,0.78-4.281,3.948-4.378
		c0.965-0.03,1.928-0.055,2.891-0.076c2.416-0.052,4.358-1.988,4.422-4.409c0.074-2.825,0.172-5.586,0.55-8.316
		c0.745-5.39,2.108-9.886,4.052-13.362c2.083-3.727,6.346-7.161,10.366-8.351c1.922-0.568,4.081-0.845,6.601-0.845
		c2.729,0,5.48,0.333,7.574,0.624c5.604,0.776,9.247,2.142,12.184,4.563c3.246,2.679,5.667,6.643,6.644,10.876
		c0.539,2.337-0.679,4.546-2.833,5.139c-1.562,0.429-3.473-0.241-4.479-1.554c-0.467-0.609-0.734-1.48-1.045-2.488
		c-0.464-1.506-1.042-3.381-2.591-4.891c-2.769-2.699-7.217-4.01-13.602-4.01c-0.78,0-1.531,0.02-2.231,0.048
		c-6.987,0.29-11.542,5.32-12.494,13.801c-0.148,1.318-0.229,2.628-0.307,3.896c-0.04,0.653-0.08,1.305-0.13,1.957
		c-0.017,0.228-0.056,0.484-0.095,0.754c-0.202,1.41-0.479,3.341,0.636,4.972c0.912,1.332,2.513,1.568,3.683,1.741
		c0.202,0.03,0.391,0.052,0.498,0.078c0.8,0.258,1.467,0.617,1.983,1.066c1.018,0.887,1.513,2.098,1.357,3.323
		c-0.225,1.758-1.721,3.657-3.747,3.657l-1.093-0.025c-1.933,0-3.356,1.774-3.461,4.317c-0.147,3.64-0.425,6.565-0.874,9.208
		c-0.416,2.46,0.847,4.616,2.939,5.017c3.818,0.728,7.664,1.854,11.383,2.942c3.512,1.028,7.143,2.091,10.838,2.854
		c0.444,0.091,0.89,0.179,1.335,0.26c3.748,0.694,6.95,0.891,9.897,0.614c1.682-0.156,3.203-0.596,4.675-1.021
		c1.314-0.38,2.556-0.738,3.759-0.842c2.383-0.211,4.26,1.794,4.699,3.722C90.25,81.709,89.641,82.891,88.08,83.644z"/>
</g>
</svg>
