<?xml version="1.0" encoding="iso-8859-1"?>
<!-- Generator: Adobe Illustrator 17.0.2, SVG Export Plug-In . SVG Version: 6.00 Build 0)  -->
<!DOCTYPE svg PUBLIC "-//W3C//DTD SVG 1.1//EN" "http://www.w3.org/Graphics/SVG/1.1/DTD/svg11.dtd">
<svg version="1.1" id="Capa_1" xmlns="http://www.w3.org/2000/svg" xmlns:xlink="http://www.w3.org/1999/xlink" x="0px" y="0px"
	 width="100px" height="100px" viewBox="0 0 100 100" style="enable-background:new 0 0 100 100;" xml:space="preserve">
<g>
	<path style="fill:#1D1D1B;" d="M72.038,25.151c-4.301-3.128-9.479-5.359-15.108-6.574c-0.053-3.26-0.109-6.52-0.166-9.78
		c-0.004-0.232-0.033-0.449-0.082-0.652c0.066-0.927-0.323-1.879-1.399-2.508C51.075,3.179,44.11,1.836,39.479,3.797
		c-4.546,1.924-4.124,6.725-3.852,10.946c0.088,1.357,0.179,2.711,0.27,4.064C27.737,20.766,20.588,24.88,15.75,30.62
		c-3.438,4.078-6.167,9.484-7.124,14.107c-3.011,14.537,1.736,30.584,12.388,41.88c7.136,7.57,16.601,11.571,27.37,11.571
		c6.659,0,13.579-1.602,20.01-4.631C85.81,85.344,94.13,63.232,86.94,44.258C84.071,36.685,79.058,30.257,72.038,25.151z
		 M37.573,49.193c-0.251,0.831-0.053,1.758,0.877,2.524c4.468,3.683,10.271,4.749,15.869,2.858c0.244-0.082,0.46-0.187,0.658-0.305
		c1.226-0.244,2.285-1.128,2.284-2.667c-0.003-4.627-0.036-9.253-0.08-13.88c3.534,1.406,6.685,3.475,9.042,6.052
		c4.065,4.446,6.009,11.128,5.331,18.335C70.479,73.567,59.02,80.414,48.562,80.414c-2.373,0-4.652-0.346-6.773-1.028
		c-7.584-2.438-15.551-11.812-16.105-25.015c-0.223-5.297,2.191-10.299,6.796-14.085c1.384-1.138,2.935-2.073,4.624-2.798
		C37.313,41.376,37.484,45.272,37.573,49.193z M41.768,9.061c1.68-0.297,3.368-0.397,5.021-0.238
		c1.371,0.132,2.718,0.438,4.011,0.985c0.046,2.628,0.09,5.256,0.133,7.883c0.033,2.017,0.062,4.033,0.093,6.05
		c0.031,2.083,0.063,4.165,0.09,6.248c0.025,2.023,0.044,4.046,0.064,6.069c0.022,2.167,0.04,4.334,0.054,6.501
		c0.016,2.314,0.032,4.629,0.038,6.943c-2.705,0.603-5.406,0.331-7.736-1.19c-0.041-1.889-0.08-3.777-0.121-5.666
		c-0.049-2.256-0.104-4.512-0.176-6.766c-0.062-2.003-0.14-4.006-0.238-6.007c-0.102-2.047-0.232-4.093-0.39-6.138
		c-0.153-1.985-0.327-3.969-0.551-5.951c-0.001-0.008-0.004-0.015-0.005-0.023c-0.04-0.33-0.138-0.621-0.262-0.89
		c-0.218-1.842-0.267-3.688-0.186-5.531C41.641,10.579,41.689,9.819,41.768,9.061z M65.837,88.12
		c-5.637,2.655-11.672,4.059-17.453,4.059c-9.076,0-17.03-3.35-23.005-9.687c-9.329-9.896-13.497-23.899-10.878-36.548
		c0.756-3.65,3.047-8.147,5.837-11.458c3.829-4.543,9.468-7.864,15.975-9.6c0.144,2.109,0.285,4.216,0.42,6.324
		c-2.98,1.007-5.696,2.495-8.063,4.441c-6.094,5.011-9.283,11.748-8.979,18.972c0.506,12.069,7.629,26.414,20.264,30.475
		c2.715,0.874,5.612,1.316,8.609,1.316c13.143,0,27.571-8.881,28.967-23.744c0.835-8.889-1.672-17.251-6.878-22.944
		c-3.457-3.781-8.244-6.682-13.537-8.377c-0.026-2.189-0.059-4.378-0.091-6.567c4.278,1.084,8.203,2.835,11.485,5.223
		c6.059,4.407,10.372,9.917,12.82,16.38C87.435,62.497,80.484,81.22,65.837,88.12z"/>
</g>
</svg>
