<?xml version="1.0" encoding="iso-8859-1"?>
<!-- Generator: Adobe Illustrator 17.0.2, SVG Export Plug-In . SVG Version: 6.00 Build 0)  -->
<!DOCTYPE svg PUBLIC "-//W3C//DTD SVG 1.1//EN" "http://www.w3.org/Graphics/SVG/1.1/DTD/svg11.dtd">
<svg version="1.1" id="Capa_1" xmlns="http://www.w3.org/2000/svg" xmlns:xlink="http://www.w3.org/1999/xlink" x="0px" y="0px"
	 width="100px" height="100px" viewBox="0 0 100 100" style="enable-background:new 0 0 100 100;" xml:space="preserve">
<g>
	<path style="fill:#1D1D1B;" d="M85.802,8.452c-2.935,0.764-5.472,2.258-7.926,3.702c-1.481,0.872-2.88,1.695-4.333,2.348
		c-5.633,2.532-11.161,5.225-16.432,8.003c-5.623,2.965-11.023,6.067-16.051,9.218c-0.688,0.431-1.71,0.969-2.896,1.593
		c-1.571,0.827-3.38,1.782-5.136,2.865c-0.141-11.417-0.267-20.673-0.394-22.513c-0.133-1.958-1.732-3.42-3.909-3.596
		c-0.336-0.072-0.646-0.106-0.966-0.108c-5.761-0.026-10.558-0.384-15.095-1.128c-1.777-0.289-3.337,0.371-4.29,1.649
		c-0.771,0.681-1.192,1.619-1.192,2.67c0.001,2.87,0.017,70.363,0.359,75.781c0.089,1.407,0.907,2.561,2.25,3.18
		c0.614,0.354,1.324,0.535,2.114,0.535l0.227-0.005c5.339-0.234,11.019-0.037,17.612,0.608c0.17,0.017,0.334,0.024,0.492,0.024
		c1.674,0,2.998-0.898,3.498-2.357c0.304-0.6,0.413-1.28,0.314-1.979c-0.311-2.245-0.561-17.037-0.771-32.765
		c0.366,0.26,0.732,0.517,1.092,0.77c1.303,0.915,2.533,1.778,3.453,2.576c5.041,4.372,10.109,8.466,15.062,12.167
		c11.659,8.712,22.58,15.024,33.387,19.299c0.572,0.226,1.149,0.341,1.717,0.341c2.11,0,3.84-1.611,4.198-3.868
		c0.128-0.388,0.204-0.766,0.232-1.148c0.84-11.272,0.963-22.712,1.082-33.775c0.045-4.27,0.091-8.54,0.177-12.811
		c0.046-2.323,0.073-4.648,0.101-6.974c0.057-4.829,0.115-9.823,0.354-14.705c0.145-2.955,0.03-6.251-1.919-8.298
		C90.746,8.208,88.525,7.74,85.802,8.452z M84.697,19.892c-0.32,8.778-0.394,17.64-0.464,26.239
		c-0.091,10.967-0.185,22.276-0.791,33.419c-18.256-8.646-35.059-22.887-46.771-33.646C49.864,36.557,66.365,27.621,84.697,19.892z
		 M25.346,85.278c-3.07-0.213-5.971-0.317-8.818-0.317c-0.265,0-0.528,0.001-0.793,0.003c-0.126-8.771-0.177-50.69-0.194-65.199
		l-0.004-2.879c2.895,0.323,5.853,0.526,8.967,0.618c0.094,3.932,0.197,15.01,0.306,26.639
		C24.998,64.549,25.154,79.975,25.346,85.278z"/>
</g>
</svg>
