<?xml version="1.0" encoding="iso-8859-1"?>
<!-- Generator: Adobe Illustrator 17.0.2, SVG Export Plug-In . SVG Version: 6.00 Build 0)  -->
<!DOCTYPE svg PUBLIC "-//W3C//DTD SVG 1.1//EN" "http://www.w3.org/Graphics/SVG/1.1/DTD/svg11.dtd">
<svg version="1.1" id="Capa_1" xmlns="http://www.w3.org/2000/svg" xmlns:xlink="http://www.w3.org/1999/xlink" x="0px" y="0px"
	 width="100px" height="100px" viewBox="0 0 100 100" style="enable-background:new 0 0 100 100;" xml:space="preserve">
<g>
	<path d="M29.959,67.242c1.386,2.685,3.161,5.146,5.288,7.404c0.068,0.072,0.14,0.121,0.21,0.182
		c0.15,0.282,0.371,0.554,0.686,0.801c8.448,6.621,16.639,13.558,24.997,20.29c0.097,0.078,0.198,0.133,0.298,0.195
		c0.935,1.01,2.464,1.343,3.527-0.065c9.027-11.957,16.627-24.804,23.942-37.856c0.228-0.406,0.326-0.802,0.34-1.178
		c0.32-1.03,0.025-2.167-1.289-2.723c-10.119-4.279-19.89-9.291-29.779-14.064c-0.352-0.17-0.695-0.25-1.025-0.271
		c-0.192-0.065-0.397-0.114-0.618-0.138c-4.396-0.478-8.694-0.424-13.067,0.245c-0.024,0.004-0.043,0.013-0.067,0.017
		c-0.581,0.018-1.175,0.233-1.704,0.744c-1.043,1.007-2.027,2.06-2.983,3.135c-2.683-2.258-3.636-5.348-3.18-8.729
		c0.476-3.534,1.901-6.381,3.507-9.502c1.632-3.174,2.433-7.412,1.506-10.887c-0.72-2.698-2.208-5.801-4.973-6.871
		c-1.615-0.625-3.859-0.781-5.565-0.506c-7.81,1.261-14.142,9.515-16.014,16.698c-0.044,0.168-0.062,0.327-0.076,0.484
		c-0.033,0.079-0.074,0.148-0.102,0.232c-3.68,11.294,0.349,27.201,7.569,36.312C23.614,64.006,26.594,66.287,29.959,67.242z
		 M44.821,45.097c0.019-0.003,0.035,0,0.054-0.003c3.701-0.565,7.446-0.483,11.159-0.109c8.998,4.349,17.908,8.878,27.071,12.871
		C76.802,69.04,70.26,80.088,62.656,90.442c-7.638-6.199-15.171-12.527-22.915-18.596c-0.135-0.105-0.273-0.186-0.412-0.262
		c-0.118-0.248-0.268-0.492-0.484-0.722c-1.03-1.093-1.946-2.244-2.757-3.453c2.361-0.534,4.629-1.573,6.663-2.931
		c1.042,0.534,2.204,0.839,3.404,0.839c1.354,0,2.686-0.371,3.851-1.071c1.712-1.03,2.921-2.665,3.403-4.604s0.181-3.95-0.849-5.662
		c-1.345-2.236-3.803-3.625-6.415-3.625c-1.354,0-2.686,0.371-3.851,1.071c-1.712,1.03-2.921,2.665-3.403,4.604
		c-0.377,1.518-0.268,3.077,0.289,4.505c-0.067,0.043-0.128,0.085-0.197,0.13c-1.633,1.052-3.518,1.749-5.45,1.814
		c-0.132-0.345-0.263-0.692-0.382-1.046C36.311,55.445,40.027,49.895,44.821,45.097z M48.249,55.057
		c0.348,0.264,0.649,0.595,0.884,0.985c0.479,0.797,0.62,1.732,0.395,2.635c-0.224,0.902-0.787,1.663-1.583,2.142
		c-0.484,0.291-1.029,0.452-1.586,0.485C47.657,59.49,47.992,57.382,48.249,55.057z M18.882,26.142
		c0.065-0.2,0.106-0.392,0.126-0.575c0.015-0.049,0.039-0.09,0.052-0.141c1.378-5.284,5.08-9.687,9.926-12.155
		c1.362-0.693,3.081-1.335,4.489-0.436c2.098,1.34,2.37,4.535,2.171,6.785c-0.085,0.961-0.6,1.809-0.965,2.682
		c-0.407,0.974-0.786,1.959-1.201,2.931c-0.819,1.923-1.666,3.84-2.249,5.851c-1.035,3.574-1.413,7.785,0.066,11.292
		c0.866,2.052,2.466,4.124,4.153,5.576c-2.656,3.532-4.97,7.318-7.034,11.26c-0.333,0.307-0.581,0.701-0.695,1.161
		c-2.054-1.707-3.618-4.176-4.83-6.363C18.627,46.308,16.087,34.722,18.882,26.142z"/>
</g>
</svg>
