<?xml version="1.0" encoding="iso-8859-1"?>
<!-- Generator: Adobe Illustrator 17.0.2, SVG Export Plug-In . SVG Version: 6.00 Build 0)  -->
<!DOCTYPE svg PUBLIC "-//W3C//DTD SVG 1.1//EN" "http://www.w3.org/Graphics/SVG/1.1/DTD/svg11.dtd">
<svg version="1.1" id="Capa_1" xmlns="http://www.w3.org/2000/svg" xmlns:xlink="http://www.w3.org/1999/xlink" x="0px" y="0px"
	 width="100px" height="100px" viewBox="0 0 100 100" style="enable-background:new 0 0 100 100;" xml:space="preserve">
<g>
	<path style="fill:#1E1E1C;" d="M94.252,31.558c-0.068-0.927-0.625-1.524-1.306-1.802c-0.281-0.161-0.616-0.264-1.019-0.264
		c-1.071-0.001-2.142-0.011-3.212-0.014c-0.114-1.577-0.385-3.14-0.76-4.678c-0.266-1.087-1.142-1.5-2-1.416
		c-0.134-0.029-0.274-0.048-0.426-0.051c-12.653-0.247-25.306-0.457-37.957-0.015c-0.373-0.969-0.75-1.871-1.13-2.55
		c-0.294-0.526-0.706-0.817-1.149-0.94c-0.304-0.21-0.684-0.342-1.151-0.342c-8.771,0-22.707-0.024-31.475-0.203
		c-0.315-0.195-0.68-0.314-1.071-0.314H7.979c-0.992,0-1.837,0.729-2.026,1.672C5.8,20.901,5.688,21.2,5.654,21.553
		c-1.679,17.55,0.424,42.283,0.258,59.857c-0.013,1.404,1.126,2.06,2.212,1.985c0.119,0.034,0.239,0.066,0.372,0.081
		c25.983,3.044,57.319,3.376,83.432,4.391c1.182,0.046,1.835-0.742,1.968-1.641c0.225-0.31,0.362-0.709,0.357-1.2
		C94.065,68.919,95.433,47.65,94.252,31.558z M84.413,27.308c0.135,0.713,0.239,1.428,0.3,2.151
		c-11.667-0.068-23.333-0.256-34.998-0.464c-0.223-0.489-0.456-1.085-0.695-1.726C60.815,26.903,72.614,27.08,84.413,27.308z
		 M90.118,83.668c-24.992-0.943-55.196-1.34-80.068-4.151c0.009-16.346-1.739-39.849-0.41-56.173
		c0.05,0.004,0.095,0.017,0.147,0.018c9.45,0.232,24.068,0.256,33.521,0.258c1.062,1.868,2.156,5.725,2.974,7.714
		c0.162,0.393,0.394,0.74,0.685,1.004c0.332,0.444,0.849,0.759,1.566,0.771c13.905,0.248,27.81,0.481,41.719,0.509
		C91.153,48.571,90.022,68.7,90.118,83.668z"/>
	<path style="fill:#1E1E1C;" d="M65.74,53.793c-0.329-0.254-0.736-0.392-1.209-0.409l-0.318-0.011
		c-0.513-0.018-0.513-0.018-0.63-3.8c-0.039-1.244-0.087-2.792-0.121-3.024c-0.358-2.453-1.394-5.74-4.289-7.471
		c-1.406-0.841-3.174-1.25-5.403-1.25c-1.213,0-2.414,0.11-3.844,0.275c-3.087,0.356-5.26,0.777-7.258,3.273
		c-2.089,2.609-3.26,5.729-3.386,9.023c-0.069,1.791-0.222,2.644-0.91,2.652l-0.471,0.008c-0.582,0.018-1.062,0.218-1.422,0.595
		c-0.55,0.576-0.628,1.426-0.658,1.745c0,0.008-0.012,0.113-0.013,0.121c-0.014,0.094-0.021,0.189-0.021,0.291v18.858
		c0,0.319,0.057,0.61,0.168,0.866c1.083,2.47,2.967,2.591,5.576,2.757l0.534,0.035c2.595,0.178,5.192,0.327,7.79,0.461
		c2.593,0.134,5.188,0.252,7.782,0.364c0.655,0.029,1.274,0.083,1.862,0.135c2.692,0.233,4.576,0.462,6.231-2.454
		c0.151-0.267,0.243-0.572,0.272-0.906c0.597-6.749,0.647-13.639,0.648-20.116c0-0.165-0.015-0.32-0.043-0.466
		C66.55,55.056,66.284,54.214,65.74,53.793z M45.503,44.617c0.802-1.148,2.634-2.046,3.871-2.22
		c1.859-0.262,3.791-0.402,5.741-0.417c0.024-0.003,0.092-0.01,0.116-0.01c0.194,0,1,0.158,1.747,0.64
		c0.689,0.445,1.264,1.142,1.314,1.395c1.158,2.765,1.487,5.489,0.989,8.276c-0.011,0.065-0.019,0.131-0.023,0.196
		c-0.036,0.507-0.516,0.654-2.139,0.654c-0.175,0-0.358-0.003-0.546-0.008c-3.852-0.106-7.245-0.162-10.373-0.169
		c-0.77-0.001-1.51-0.324-2.031-0.886c-0.47-0.507-0.701-1.15-0.652-1.811C43.673,48.18,44.341,46.282,45.503,44.617z
		 M62.046,72.478c-0.09,1.425-1.285,2.541-2.72,2.541c-0.007,0-0.108-0.002-0.115-0.002c-6.718-0.281-11.836-0.548-16.596-0.864
		c-1.449-0.098-2.627-1.36-2.627-2.814V59.884c0-1.472,1.193-2.682,2.66-2.697c1.04-0.011,2.08-0.017,3.119-0.017
		c4.112,0,8.568,0.081,14.026,0.256c1.465,0.048,2.647,1.278,2.637,2.742C62.393,64.99,62.271,68.902,62.046,72.478z"/>
	<path style="fill:#1E1E1C;" d="M51.75,60.375c-3.948,0-4.443,5.355-1.484,6.697c-0.018,0.098-0.024,0.199-0.016,0.303
		c0.092,1.174,0.026,2.321-0.196,3.476c-0.155,0.802,0.214,1.616,1.047,1.845c0.741,0.204,1.69-0.244,1.845-1.048
		c0.273-1.416,0.417-2.834,0.304-4.274c-0.008-0.1-0.023-0.197-0.046-0.292C56.194,65.763,55.711,60.375,51.75,60.375z"/>
</g>
</svg>
