<?xml version="1.0" encoding="iso-8859-1"?>
<!-- Generator: Adobe Illustrator 17.0.2, SVG Export Plug-In . SVG Version: 6.00 Build 0)  -->
<!DOCTYPE svg PUBLIC "-//W3C//DTD SVG 1.1//EN" "http://www.w3.org/Graphics/SVG/1.1/DTD/svg11.dtd">
<svg version="1.1" id="Capa_1" xmlns="http://www.w3.org/2000/svg" xmlns:xlink="http://www.w3.org/1999/xlink" x="0px" y="0px"
	 width="100px" height="100px" viewBox="0 0 100 100" style="enable-background:new 0 0 100 100;" xml:space="preserve">
<g>
	<path style="fill:#1D1D1B;" d="M53.77,6.107c-0.209-0.063-0.43-0.108-0.668-0.124c-0.262-0.018-0.523-0.021-0.784-0.034
		c-3.851-0.413-7.698-0.589-11.441-0.574C39.44,5.38,38.575,6.32,38.263,7.457C20.382,12.201,4.764,27.317,2.767,47.783
		C0.53,70.699,14.46,89.991,34.969,95.041c17.504,4.31,37.471-1.132,50.692-14.136c14.454-14.215,16.472-40.54,3.808-56.857
		C80.635,12.665,67.265,7.781,53.77,6.107z M58.409,89.032C39.66,93.55,18.443,86.848,10.74,66.713
		C-0.292,37.874,24.922,11.64,50.992,11.992c19.802,2.201,39.224,11.692,41.001,35.919C93.609,69.949,76.985,84.556,58.409,89.032z"
		/>
	<path style="fill:#1D1D1B;" d="M70.425,71.812C55.797,60.759,40.139,50.958,26.941,38.181c-0.347-0.335-0.719-0.545-1.096-0.666
		c-1.164-1.185-3.319-1.461-4.362,0.4c-7.119,12.698-3.841,27.276,6.685,37.078c11.479,10.691,29.563,10.973,41.98,1.797
		c0.045-0.034,0.078-0.074,0.121-0.109C71.688,75.733,72.268,73.205,70.425,71.812z M32.086,71.14
		c-8.124-6.92-10.98-17.804-7.25-27.395c12.134,11.33,26.113,20.441,39.472,30.296C53.987,79.929,41.394,79.068,32.086,71.14z"/>
	<path style="fill:#1D1D1B;" d="M67.516,26.366c-12.276-7.582-27.446-7.071-38.174,2.875c-1.572,1.458-0.764,3.442,0.693,4.255
		c0.213,0.328,0.512,0.631,0.929,0.877c15.87,9.386,29.424,21.857,43.953,33.036c1.831,1.408,4.176,0.226,4.755-1.362
		c0.024-0.05,0.056-0.091,0.077-0.143C85.689,51.79,80.903,34.636,67.516,26.366z M75.587,61.026
		c-13.033-10.267-25.489-21.311-39.67-30.044c8.515-5.945,19.942-5.937,28.781,0.076C74.824,37.947,78.811,49.729,75.587,61.026z"/>
</g>
</svg>
