<?xml version="1.0" encoding="iso-8859-1"?>
<!-- Generator: Adobe Illustrator 17.0.2, SVG Export Plug-In . SVG Version: 6.00 Build 0)  -->
<!DOCTYPE svg PUBLIC "-//W3C//DTD SVG 1.1//EN" "http://www.w3.org/Graphics/SVG/1.1/DTD/svg11.dtd">
<svg version="1.1" id="Capa_1" xmlns="http://www.w3.org/2000/svg" xmlns:xlink="http://www.w3.org/1999/xlink" x="0px" y="0px"
	 width="100px" height="100px" viewBox="0 0 100 100" style="enable-background:new 0 0 100 100;" xml:space="preserve">
<g>
	<path style="fill:#1E1E1C;" d="M82.73,28.855c-0.181-5.491-0.282-12.909-0.228-18.404c0.002-0.245-0.037-0.461-0.093-0.664
		c0.107-1.197-0.596-2.461-2.129-2.421c-19.354,0.508-38.704-0.25-58.058-0.28c-1.61-0.003-2.315,1.412-2.117,2.654
		c-0.064,0.216-0.109,0.448-0.106,0.712c0.292,23.095,1.086,56.279,1.111,79.377c0,0.518,0.147,0.939,0.382,1.272
		c0.142,0.979,0.846,1.845,2.119,1.813c8.365-0.208,16.734-0.342,25.093-0.752c7.45-0.365,16.734,0.124,23.856-2.307
		c2.521-0.861,4.776-2.134,6.71-3.977c3.534-3.369,4.741-7.892,5.045-12.658c0.292-4.577-0.247-9.379-0.354-13.597
		C83.686,48.728,83.089,39.748,82.73,28.855z M70.484,70.049c-1.362,0.008-2.678,1.071-2.069,2.705
		c1.224,3.286,1.784,7.366-0.099,10.509c-2.276,3.801-6.338,3.698-10.2,4.185c-2.362,0.298-4.873,0.14-7.253,0.207
		c-1.853,0.052-25.314,0.624-25.314,0.716c-0.055-22.233-0.79-54.553-1.087-76.784c17.868,0.077,35.733,0.691,53.601,0.309
		c-0.068,18.253,1.55,44.639,1.646,59.065c-2.772-0.875-5.637-1.244-8.595-1.046C70.883,69.929,70.678,69.982,70.484,70.049z
		 M72.23,85.245c1.794-3.058,2.242-6.81,1.309-10.877c2.161,0.084,4.292,0.501,6.31,1.356c0.008,0.025,0.015,0.052,0.023,0.077
		C79.218,80.62,76.169,83.577,72.23,85.245z"/>
	<path style="fill:#1E1E1C;" d="M34.833,34.25c-1.42-0.171-2.128,0.84-2.142,1.949c-0.059,0.195-0.102,0.402-0.108,0.635
		c-0.167,6.297-0.392,12.577-1.167,18.833c-0.356,2.875,4.148,2.841,4.5,0c0.311-2.508,0.517-5.021,0.682-7.536
		c0.258,0.01,0.534-0.023,0.833-0.127c3.562-1.252,6.607-3.806,5.859-7.908C42.595,36.279,38.149,34.65,34.833,34.25z
		 M36.855,43.427c0.058-1.368,0.11-2.738,0.152-4.108c0.832,0.356,1.57,0.888,1.861,1.67C39.314,42.187,37.923,42.985,36.855,43.427
		z"/>
	<path style="fill:#1E1E1C;" d="M51.039,42.169c-0.117-0.177-0.422-0.754-0.482-0.855c0.128-0.079,0.291-0.178,0.451-0.226
		c0.861-0.258,1.768-0.294,2.659-0.338c2.888-0.141,2.902-4.642,0-4.5c-2.727,0.133-6.381,0.47-7.491,3.45
		c-0.879,2.361,0.876,4.697,2.236,6.45c1.387,1.788,3.11,3.346,4.285,5.291c-1.221,0.34-3.342,0.054-4.53-0.024
		c-2.898-0.19-2.88,4.311,0,4.5c2.755,0.181,6.864,0.557,8.691-2.052c1.405-2.005,0.041-4.42-1.23-6.076
		C54.156,45.874,52.375,44.185,51.039,42.169z"/>
	<path style="fill:#1E1E1C;" d="M62.598,36.164c-2.041-0.37-3.23,1.765-2.682,3.188v14.815c0,2.148,2.462,2.701,3.743,1.67
		c4.602-1.404,8.056-4.984,8.153-10.003C71.913,40.599,67.332,37.023,62.598,36.164z M64.417,50.627v-9.121
		c1.599,0.858,2.779,2.228,2.896,4.327C67.435,48.017,66.128,49.611,64.417,50.627z"/>
</g>
</svg>
