<?xml version="1.0" encoding="iso-8859-1"?>
<!-- Generator: Adobe Illustrator 17.0.2, SVG Export Plug-In . SVG Version: 6.00 Build 0)  -->
<!DOCTYPE svg PUBLIC "-//W3C//DTD SVG 1.1//EN" "http://www.w3.org/Graphics/SVG/1.1/DTD/svg11.dtd">
<svg version="1.1" id="Capa_1" xmlns="http://www.w3.org/2000/svg" xmlns:xlink="http://www.w3.org/1999/xlink" x="0px" y="0px"
	 width="100px" height="100px" viewBox="0 0 100 100" style="enable-background:new 0 0 100 100;" xml:space="preserve">
<g>
	<path d="M46.035,68.984c-1.675,0.49-2.76,1.844-3.511,3.35c-0.782,1.569-1.348,3.371-0.993,5.131
		c0.201,0.996,0.637,2.129,1.193,2.982c2.411,3.698,7.071,4.18,10.764,2.284c3.808-1.955,5.732-6.526,2.782-10.046
		C54.048,70.031,49.515,67.966,46.035,68.984z M51.651,79.588c-2.084,1.245-4.683,0.711-6.006-1.318
		c-0.844-1.294-0.705-3.253,0.103-4.508c0.929-1.442,2.64-1.318,4.1-0.936c1.093,0.286,2.131,0.814,2.999,1.537
		C55.125,76.263,53.829,78.286,51.651,79.588z"/>
	<path d="M37.553,37.386c1.08,1.609,3.218,1.073,3.933-0.187c2.943-2.411,9.045-5.504,11.029-0.516
		c2.181,5.484-4.896,8.119-9.035,8.682c-1.236,0.168-1.69,1.089-1.576,2.031c-0.03,0.164-0.045,0.338-0.038,0.527
		c0.212,5.272,0.219,10.547,0.22,15.822c0,0.231,0.038,0.437,0.092,0.63c-0.116,1.176,0.581,2.447,2.105,2.446
		c3.307-0.001,6.603-0.034,9.889-0.439c0.355-0.044,0.664-0.155,0.929-0.313c1.002-0.107,1.928-0.803,1.928-2.104v-9.718
		c8.919-5.356,17.741-16.517,12.906-27.3C63.5,12.592,42.322,18.09,31.968,23.832c-0.607,0.336-0.929,0.818-1.038,1.333
		c-0.633,0.795-0.854,1.99-0.066,2.997C33.205,31.155,35.436,34.23,37.553,37.386z M65.868,28.557
		c4.631,8.914-5.206,18.726-12.145,22.523c-0.887,0.485-1.167,1.279-1.059,2.04c-0.012,0.098-0.029,0.192-0.029,0.297v8.72
		c-2.048,0.185-4.099,0.26-6.155,0.279c-0.004-4.367-0.027-8.734-0.174-13.099c3.673-0.764,7.055-2.423,9.323-5.552
		c1.878-2.592,2.083-6.165,0.799-9.038c-1.291-2.889-4.109-4.761-7.227-5.061c-3.469-0.334-6.675,1.201-9.395,3.255
		c-1.41-2.019-2.879-3.995-4.373-5.953C44.009,22.606,60.361,17.955,65.868,28.557z"/>
	<path d="M50,95.667c25.181,0,45.667-20.486,45.667-45.666c0-5.682-1.719-12.956-4.599-19.458
		c-7.109-16.049-22.227-25.63-40.44-25.63c-8.216,0-16.496,2.048-23.946,5.922C12.43,18.247,3.545,33.844,4.046,50.571
		c0.238,7.956,2.812,15.744,7.445,22.522C21.873,88.283,34.47,95.667,50,95.667z M29.45,16.158
		c6.598-3.432,13.921-5.245,21.177-5.245c15.768,0,28.835,8.247,34.954,22.06c2.52,5.689,4.085,12.214,4.085,17.028
		c0,21.872-17.794,39.666-39.667,39.666c-13.4,0-24.375-6.529-33.555-19.959c-3.984-5.83-6.197-12.509-6.401-19.316
		C9.618,36.174,17.417,22.417,29.45,16.158z"/>
</g>
</svg>
