<?xml version="1.0" encoding="iso-8859-1"?>
<!-- Generator: Adobe Illustrator 17.0.2, SVG Export Plug-In . SVG Version: 6.00 Build 0)  -->
<!DOCTYPE svg PUBLIC "-//W3C//DTD SVG 1.1//EN" "http://www.w3.org/Graphics/SVG/1.1/DTD/svg11.dtd">
<svg version="1.1" id="Capa_1" xmlns="http://www.w3.org/2000/svg" xmlns:xlink="http://www.w3.org/1999/xlink" x="0px" y="0px"
	 width="100px" height="100px" viewBox="0 0 100 100" style="enable-background:new 0 0 100 100;" xml:space="preserve">
<g>
	<path d="M42.696,71.853c-2.619,0.766-4.316,2.883-5.49,5.238c-1.223,2.453-2.107,5.271-1.553,8.023
		c0.314,1.558,0.996,3.329,1.866,4.664c3.77,5.782,11.057,6.536,16.833,3.572c5.956-3.057,8.963-10.205,4.351-15.71
		C55.227,73.491,48.139,70.261,42.696,71.853z M51.479,88.435c-3.258,1.948-7.323,1.112-9.392-2.06
		c-1.32-2.024-1.102-5.087,0.161-7.049c1.453-2.255,4.129-2.061,6.411-1.464c1.709,0.447,3.332,1.273,4.689,2.404
		C56.912,83.235,54.884,86.4,51.479,88.435z"/>
	<path d="M33.002,29.839c1.398,2.084,4.167,1.389,5.094-0.243c3.812-3.122,11.714-7.127,14.283-0.668
		c2.824,7.101-6.341,10.514-11.7,11.243c-1.601,0.218-2.189,1.41-2.041,2.631c-0.039,0.212-0.058,0.438-0.049,0.682
		c0.274,6.827,0.284,13.658,0.285,20.489c0,0.299,0.05,0.565,0.119,0.816c-0.15,1.522,0.752,3.169,2.727,3.168
		c4.282-0.001,8.55-0.044,12.806-0.569c0.46-0.057,0.859-0.201,1.203-0.406c1.297-0.138,2.497-1.04,2.497-2.724V51.674
		c11.55-6.936,22.974-21.39,16.714-35.353C66.604-2.27,39.179,4.851,25.77,12.286c-0.786,0.436-1.203,1.06-1.344,1.727
		c-0.82,1.029-1.105,2.577-0.086,3.881C27.372,21.77,30.26,25.753,33.002,29.839z M69.671,18.406
		c5.997,11.544-6.741,24.25-15.728,29.168c-1.148,0.628-1.512,1.657-1.371,2.641c-0.015,0.127-0.038,0.248-0.038,0.385v11.292
		c-2.652,0.24-5.308,0.336-7.971,0.362c-0.005-5.656-0.035-11.31-0.226-16.963c4.756-0.989,9.137-3.138,12.073-7.19
		c2.433-3.357,2.697-7.983,1.035-11.704c-1.672-3.741-5.321-6.165-9.359-6.554c-4.493-0.432-8.645,1.556-12.167,4.215
		c-1.826-2.615-3.728-5.174-5.664-7.71C41.363,10.699,62.538,4.676,69.671,18.406z"/>
</g>
</svg>
