<?xml version="1.0" encoding="iso-8859-1"?>
<!-- Generator: Adobe Illustrator 17.0.2, SVG Export Plug-In . SVG Version: 6.00 Build 0)  -->
<!DOCTYPE svg PUBLIC "-//W3C//DTD SVG 1.1//EN" "http://www.w3.org/Graphics/SVG/1.1/DTD/svg11.dtd">
<svg version="1.1" id="Capa_1" xmlns="http://www.w3.org/2000/svg" xmlns:xlink="http://www.w3.org/1999/xlink" x="0px" y="0px"
	 width="100px" height="100px" viewBox="0 0 100 100" style="enable-background:new 0 0 100 100;" xml:space="preserve">
<g>
	<path style="fill:#1D1D1B;" d="M32.568,12.575C20.646,7.164,2.695,17.382,5.683,31.605c1.678,7.984,8.98,13.761,16.781,15.197
		c6.751,1.243,12.963-1.716,17.508-6.379c-0.94,6.664-3.722,13.344-6.442,18.85C28.971,68.5,22.433,78.306,13.742,84.116
		c-3.248,2.171-0.202,7.45,3.074,5.26C35.926,76.604,64.127,26.899,32.568,12.575z M38.843,31.906
		c-3.841,6.612-10.203,10.505-17.872,8.286c-6.553-1.896-11.4-9.094-8.388-15.557c5.716-12.267,22.152-7.874,26.299,2.995
		c0.084,1.355,0.107,2.712,0.114,4.071C38.946,31.772,38.889,31.827,38.843,31.906z"/>
	<path style="fill:#1D1D1B;" d="M77.646,12.575c-11.922-5.411-29.873,4.807-26.885,19.03c1.677,7.984,8.98,13.761,16.781,15.197
		c6.751,1.243,12.963-1.716,17.508-6.379c-0.94,6.664-3.721,13.344-6.442,18.85C74.049,68.5,67.512,78.306,58.82,84.116
		c-3.248,2.171-0.202,7.45,3.074,5.26C81.004,76.604,109.206,26.899,77.646,12.575z M83.922,31.906
		c-3.841,6.612-10.203,10.505-17.872,8.286c-6.553-1.896-11.4-9.094-8.388-15.557c5.463-11.725,20.712-8.225,25.672,1.596
		c0.48,1.818,0.641,3.661,0.663,5.575C83.973,31.842,83.944,31.867,83.922,31.906z"/>
</g>
</svg>
