<?xml version="1.0" encoding="utf-8"?>
<!-- Generator: Adobe Illustrator 17.0.2, SVG Export Plug-In . SVG Version: 6.00 Build 0)  -->
<!DOCTYPE svg PUBLIC "-//W3C//DTD SVG 1.1//EN" "http://www.w3.org/Graphics/SVG/1.1/DTD/svg11.dtd">
<svg version="1.1" id="Capa_1" xmlns="http://www.w3.org/2000/svg" xmlns:xlink="http://www.w3.org/1999/xlink" x="0px" y="0px"
	 width="100px" height="100px" viewBox="0 0 100 100" enable-background="new 0 0 100 100" xml:space="preserve">
<g>
	<path fill="#1D1D1B" d="M90.2,72.448V51.778c0-1.427-1.022-2.186-2.122-2.296c-0.258-0.079-0.544-0.123-0.874-0.101
		c-3.912,0.271-7.826,0.469-11.74,0.634c-0.277-7.201-0.555-14.403-0.842-21.604c-0.009-0.225-0.049-0.429-0.104-0.621
		c1.002-0.506,1.794-1.278,2.247-2.221c0.576-1.2,0.572-2.586-0.011-3.904c-0.8-1.808-2.609-2.987-4.891-3.213
		c-0.478-0.444-1.187-0.571-1.849-0.294c-0.361,0.152-0.72,0.333-1.066,0.538c-0.375,0.116-0.694,0.337-0.923,0.635
		c-1.77,1.419-2.559,3.4-2.167,5.457c0.362,1.896,1.846,3.184,3.975,3.576c0,0.017-0.003,0.031-0.002,0.048
		c0.29,7.26,0.569,14.52,0.848,21.781c-19.654,0.626-39.328,0.05-58.966-1.11c-0.586-0.035-1.058,0.111-1.421,0.369
		c-0.7,0.351-1.238,1.023-1.275,2.028c-0.258,7.005,0.018,13.987,0.599,20.97c0.014,0.169,0.047,0.326,0.087,0.477
		c0.008,1.194,0.779,2.429,2.309,2.519c25.139,1.477,50.308,2.363,75.493,2.097c0.092-0.001,0.166-0.027,0.252-0.036
		c0.114,0.017,0.229,0.036,0.347,0.036c1.306,0,2.397-1.09,2.396-2.397c0-0.915-0.059-1.795-0.307-2.614
		C90.194,72.502,90.2,72.477,90.2,72.448z M69.566,23.993c-0.26-0.742,0.43-1.423,0.819-1.735c1.165-0.218,2.146,0.067,2.829,0.84
		c0.294,0.333,0.242,0.547,0.225,0.617c-0.073,0.3-0.419,0.616-0.86,0.787c-0.433,0.167-0.958,0.263-1.44,0.263
		C70.544,24.765,69.79,24.631,69.566,23.993z M14.288,70.777c-0.422-5.592-0.632-11.186-0.525-16.792
		c3.799,0.216,7.598,0.401,11.399,0.568c-3.996,2.722-6.861,7.029-5.222,12.064c0.63,1.935,1.873,3.51,3.44,4.652
		C20.35,71.115,17.318,70.951,14.288,70.777z M23.924,65.038c-1.07-3.288,1.787-5.872,4.362-7.405
		c3.323,0.158,7.15,1.503,8.947,4.381c2.182,3.495-4.423,6.859-7.131,7.068C27.388,69.292,24.769,67.632,23.924,65.038z
		 M85.407,71.311c-0.243,0.451-0.323,0.954-0.251,1.447c-16.554,0.128-33.102-0.239-49.637-0.931
		c3.98-2.059,7.256-6.006,6.061-10.486c-0.799-2.995-3.406-5.111-6.423-6.417c16.751,0.514,33.513,0.441,50.251-0.646V71.311z"/>
	<path fill="#1D1D1B" d="M50.956,64.36c7.591,0.001,15.181,0.019,22.768,0.3c3.093,0.114,3.082-4.679,0-4.793
		c-7.587-0.281-15.176-0.299-22.768-0.3C47.865,59.566,47.865,64.359,50.956,64.36z"/>
	<path fill="#1D1D1B" d="M80.614,64.659c3.091,0,3.091-4.793,0-4.793C77.523,59.866,77.523,64.659,80.614,64.659z"/>
	<path fill="#1D1D1B" d="M56.34,19.777c1.112,0.74,2.238,1.38,3.603,1.444c0.979,0.045,1.798-0.852,1.798-1.797
		c0-1.014-0.819-1.752-1.798-1.797c0.301,0.014-0.27-0.062-0.292-0.069c-0.408-0.119,0.053,0.045-0.341-0.161
		c-0.402-0.21-0.778-0.472-1.155-0.723c-0.816-0.544-1.986-0.163-2.459,0.645C55.178,18.201,55.526,19.236,56.34,19.777z"/>
	<path fill="#1D1D1B" d="M68.34,14.984c0.901-0.528,1.062-1.572,0.646-2.459c-0.43-0.915-0.354-1.991-0.354-2.987
		c-0.001-2.318-3.596-2.318-3.595,0c0.001,1.686,0.12,3.256,0.844,4.802C66.297,15.226,67.553,15.445,68.34,14.984z"/>
	<path fill="#1D1D1B" d="M77.311,14.984c0.883,0.517,1.917,0.169,2.459-0.645l1.798-2.696c0.544-0.816,0.162-1.986-0.646-2.459
		c-0.883-0.517-1.917-0.169-2.459,0.645l-1.798,2.696C76.121,13.341,76.503,14.511,77.311,14.984z"/>
	<path fill="#1D1D1B" d="M81.812,23.917c1.256-0.001,2.561,0.006,3.773-0.364c0.936-0.286,1.521-1.247,1.255-2.211
		c-0.254-0.925-1.274-1.541-2.211-1.255c-0.488,0.149-0.736,0.176-1.17,0.205c-0.548,0.037-1.098,0.03-1.647,0.03
		C79.494,20.323,79.494,23.918,81.812,23.917z"/>
</g>
</svg>
