<?xml version="1.0" encoding="utf-8"?>
<!-- Generator: Adobe Illustrator 17.0.2, SVG Export Plug-In . SVG Version: 6.00 Build 0)  -->
<!DOCTYPE svg PUBLIC "-//W3C//DTD SVG 1.1//EN" "http://www.w3.org/Graphics/SVG/1.1/DTD/svg11.dtd">
<svg version="1.1" id="Capa_1" xmlns="http://www.w3.org/2000/svg" xmlns:xlink="http://www.w3.org/1999/xlink" x="0px" y="0px"
	 width="100px" height="100px" viewBox="0 0 100 100" enable-background="new 0 0 100 100" xml:space="preserve">
<g>
	<path fill="#1D1D1B" d="M36.01,37.7c-0.226,0.321-0.103,0.919-0.06,1.095l0.411,1.67l-0.809,1.518
		c-1.109,2.083-1.765,4.241-2.004,6.594c-0.347,3.404,1.957,7.658,6.164,11.383c0.359,0.317,0.71,0.494,1.139,0.572l0.563,0.104
		l0.519,0.241c3.141,1.456,6.28,2.194,9.332,2.194c3.571,0,6.86-1.029,9.775-3.058c0.303-0.211,0.58-0.477,0.824-0.789l0.243-0.312
		l0.293-0.265c0.302-0.272,0.53-0.512,0.697-0.732c2.337-3.092,3.306-7.375,2.729-12.068c-0.031-0.145-0.053-0.25-0.072-0.357
		l-0.085-0.484l0.021-0.491c0.015-0.343,0-0.606-0.043-0.804c-0.757-3.426-2.431-6.367-4.714-8.285
		c-2.174-1.826-4.671-2.925-8.098-3.563l-0.84-0.156l-0.724-0.454c-0.345-0.216-0.687-0.325-1.018-0.325
		C43.729,31.008,39.21,33.16,36.01,37.7z M38.469,45.292c1.045-5.496,5.774-9.641,10.999-9.641c1.988,0,4.963,0.601,7.853,3.466
		c2.987,2.961,4.184,7.128,3.202,11.146c-1.21,4.954-5.331,8.282-10.254,8.282c-1.471,0-2.969-0.297-4.455-0.884
		C40.335,55.499,37.451,50.644,38.469,45.292z"/>
	<path fill="#1D1D1B" d="M37.091,32.267c0.682-0.562,0.789-1.535,0.519-2.354c-0.064-0.195-0.144-0.385-0.25-0.555
		c0.094-0.49-0.014-1.034-0.443-1.579c-0.482-0.613-0.946-1.237-1.409-1.862c-4.279-5.781-7.731-12.035-10.663-18.621
		c-0.374-0.839-1.005-1.191-1.667-1.204c-0.658-0.541-1.577-0.697-2.507-0.043C11.403,12.567,5.458,22.159,2.163,32.885
		c-0.229,0.744-0.097,1.371,0.237,1.847c0.063,0.873,0.587,1.687,1.699,1.952c7.331,1.745,14.678,3.249,22.158,4.055
		c1.144,0.123,2.29,0.232,3.439,0.321c0.674,0.052,1.184-0.148,1.548-0.483c0.425-0.391,0.648-0.966,0.663-1.575
		c0.302-0.194,0.558-0.454,0.712-0.797C33.674,35.854,35.099,33.908,37.091,32.267z M28.525,35.899
		c-0.052,0.115-0.09,0.232-0.126,0.35c-0.434-0.039-0.866-0.089-1.299-0.133c-6.721-0.688-13.327-2.004-19.907-3.533
		c2.79-8.301,7.418-15.9,14.331-21.335c2.86,6.2,6.21,12.092,10.312,17.554c0.287,0.382,0.568,0.768,0.863,1.147
		C30.942,31.645,29.528,33.664,28.525,35.899z"/>
	<path fill="#1D1D1B" d="M78.829,7.049c-0.93-0.654-1.849-0.498-2.507,0.043c-0.663,0.013-1.294,0.364-1.667,1.204
		c-2.89,6.491-6.282,12.662-10.476,18.373c-0.521,0.709-1.05,1.415-1.596,2.11c-0.429,0.546-0.537,1.089-0.443,1.579
		c-0.054,0.087-0.099,0.182-0.143,0.276c-0.398,0.866-0.35,2.005,0.412,2.633c1.992,1.642,3.417,3.588,4.472,5.939
		c0.154,0.343,0.41,0.602,0.712,0.797c0.027,1.13,0.751,2.171,2.211,2.058c0.02-0.002,0.041-0.004,0.061-0.006
		c1.516-0.118,3.023-0.276,4.527-0.453c7.083-0.831,14.055-2.262,21.01-3.917c1.113-0.265,1.636-1.079,1.699-1.952
		c0.333-0.476,0.465-1.103,0.237-1.847C94.042,23.159,88.097,13.567,78.829,7.049z M72.906,37.064
		c-0.601,0.064-1.202,0.131-1.805,0.185c-0.037-0.118-0.075-0.235-0.126-0.35c-1.003-2.235-2.417-4.254-4.173-5.951
		c0.355-0.455,0.695-0.92,1.039-1.381c4.022-5.396,7.316-11.208,10.135-17.319c6.914,5.435,11.541,13.034,14.331,21.335
		C85.892,35.074,79.453,36.362,72.906,37.064z"/>
	<path fill="#1D1D1B" d="M59.836,70.634c-0.751-1.338-1.53-2.663-2.335-3.975c-0.202-0.33-0.397-0.664-0.603-0.992
		c-0.778-1.24-2.045-1.203-2.97-0.552c-0.336-0.127-0.697-0.178-1.064-0.098c-2.517,0.552-4.929,0.565-7.434-0.058
		c-0.949-0.236-1.886,0.388-2.349,1.213c-0.056,0.099-0.108,0.199-0.149,0.303c-0.45,0.216-0.823,0.626-1.006,1.296
		c-0.23,0.842-0.479,1.675-0.735,2.505c-2.093,6.782-5.036,13.192-8.537,19.388c-0.452,0.8-0.359,1.516,0.025,2.056
		c-0.043,0.851,0.379,1.682,1.458,2.04c10.755,3.567,22.001,2.634,32.581-1.103c0.734-0.259,1.159-0.738,1.343-1.289
		c0.664-0.57,1.006-1.476,0.557-2.528C65.962,82.623,63.136,76.513,59.836,70.634z M37.808,89.98
		c3.235-5.907,5.945-12.018,7.887-18.467c0.165-0.547,0.334-1.092,0.487-1.644c2.409,0.401,4.873,0.336,7.266-0.189
		c0.123-0.027,0.24-0.066,0.357-0.107c0.449,0.735,0.887,1.476,1.317,2.22c3.164,5.478,5.842,11.194,8.361,17.002
		C55.151,91.495,46.29,92.3,37.808,89.98z"/>
</g>
</svg>
