<?xml version="1.0" encoding="iso-8859-1"?>
<!-- Generator: Adobe Illustrator 17.0.2, SVG Export Plug-In . SVG Version: 6.00 Build 0)  -->
<!DOCTYPE svg PUBLIC "-//W3C//DTD SVG 1.1//EN" "http://www.w3.org/Graphics/SVG/1.1/DTD/svg11.dtd">
<svg version="1.1" id="Capa_1" xmlns="http://www.w3.org/2000/svg" xmlns:xlink="http://www.w3.org/1999/xlink" x="0px" y="0px"
	 width="100px" height="100px" viewBox="0 0 100 100" style="enable-background:new 0 0 100 100;" xml:space="preserve">
<g>
	<path style="fill:#1E1E1C;" d="M36.729,37.106c0-0.037,0.006-0.076,0.006-0.113c-0.014,0.033-0.033,0.067-0.047,0.099
		C36.702,37.096,36.715,37.103,36.729,37.106z"/>
	<path style="fill:#1E1E1C;" d="M84.901,31.944c5.24-8.391,1.367-20.623-9.629-21.823c-9.116-0.995-17.738,4.819-19.513,13.556
		c-4.516-3.726-10.321-3.88-15.119-1.474c1.856,0.794,3.591,1.805,5.172,3.003c3.515-0.912,7.388-0.053,10.335,3.219
		c0.373,1.26,2.56,1.135,2.563-0.386c0.017-7.407,6.571-13.022,14.027-12.764c9.771,0.338,13.424,11.57,6.351,18.138
		c-1.031,0.958,0.104,2.383,1.221,2.151c0.112,0.029,0.23,0.049,0.362,0.049c0.252,0,0.462-0.062,0.638-0.159
		c0.116-0.001,0.237-0.012,0.366-0.048c0.112-0.031,0.228-0.051,0.341-0.077c0.051,0.006,0.095,0.021,0.149,0.021
		c0.263,0,0.48-0.066,0.668-0.166c3.656-0.458,7.741,1.478,7.711,5.663c-0.031,4.241-3.869,6.074-7.657,6.233
		c0.508,1.222,0.907,2.469,1.198,3.727c5.869-0.184,12.558-3.339,11.64-10.203C94.955,34.848,90.237,31.538,84.901,31.944z"/>
	<path style="fill:#1E1E1C;" d="M80.771,47.206c-0.035-0.078-0.077-0.151-0.113-0.229c-3.373-7.207-10.438-11.621-17.527-11.621
		c-3.702,0-7.408,1.201-10.599,3.834c-1.125-5.535-4.464-10.119-8.962-13.132c-1.569-1.051-3.276-1.912-5.085-2.551
		c-2.434-0.861-5.04-1.332-7.72-1.332c-0.837,0-1.681,0.045-2.528,0.138C14.547,23.807,9.725,39.036,16.25,49.483
		c-0.367-0.028-0.732-0.042-1.094-0.042c-6.185,0-11.478,4.052-12.384,10.825c-1.178,8.811,7.711,12.718,15.17,12.718
		c0.964,0,1.902-0.065,2.794-0.193c0.082,0.01,0.161,0.025,0.25,0.025c2.361,0,4.722-0.002,7.083-0.003
		c-0.17,0.344-0.246,0.682-0.236,1.001c0.012,0.363,0.125,0.7,0.313,1c0.851,1.358,3.212,1.916,4.446,0.153
		c0.036-0.051,0.069-0.104,0.105-0.156c0.229-0.331,0.453-0.665,0.674-1.001c0.218-0.331,0.429-0.666,0.638-1.002
		c4.811-0.006,9.62-0.022,14.43-0.046c-0.207,0.337-0.413,0.675-0.628,1.008c-0.219,0.338-0.447,0.67-0.675,1.003
		c-0.099,0.146-0.193,0.294-0.295,0.439c-1.854,2.648,2.482,5.143,4.316,2.524c0.685-0.977,1.325-1.978,1.934-2.996
		c0.199-0.332,0.393-0.668,0.584-1.004c0.19-0.333,0.377-0.669,0.562-1.006c1.873-0.013,3.747-0.033,5.62-0.051
		c-0.152,0.337-0.304,0.674-0.458,1.01c-0.155,0.336-0.313,0.67-0.471,1.004c-1.547,3.28-3.244,6.476-5.331,9.458
		c-1.854,2.648,2.482,5.143,4.316,2.524c2.625-3.748,4.636-7.833,6.5-12c0.006-0.013,0.008-0.026,0.013-0.039
		c0.147-0.342,0.22-0.679,0.228-1.003c0.008-0.354-0.058-0.692-0.183-1.003c1.118-0.013,2.236-0.021,3.354-0.036
		c0.172-0.002,0.326-0.03,0.471-0.068c0.113,0.02,0.23,0.032,0.353,0.032c0.102,0,0.207-0.008,0.315-0.027
		c10.844-1.884,15.569-12.04,13.052-21.782C81.709,49.556,81.299,48.37,80.771,47.206z M66.108,67.924
		c-0.094-0.015-0.191-0.027-0.296-0.027c-0.006,0-0.013,0-0.019,0c-3.057,0.041-6.114,0.07-9.171,0.096
		c0.155-0.334,0.312-0.667,0.465-1.002c0.153-0.334,0.305-0.669,0.456-1.004c0.038-0.084,0.076-0.168,0.114-0.253
		c1.306-2.917-3.002-5.462-4.316-2.524c-0.423,0.945-0.855,1.885-1.299,2.819c-0.159,0.336-0.322,0.669-0.485,1.003
		c-0.163,0.334-0.326,0.668-0.494,1c-4.8,0.029-9.601,0.047-14.401,0.054c0.169-0.332,0.336-0.664,0.501-0.998
		c0.164-0.333,0.329-0.665,0.489-1c0.494-1.033,0.973-2.074,1.44-3.121c1.306-2.917-3.002-5.462-4.316-2.524
		c-0.854,1.91-1.744,3.801-2.705,5.652c-0.174,0.335-0.351,0.668-0.53,1c-0.18,0.334-0.358,0.669-0.545,0.999
		c-2.752,0.002-5.505,0.003-8.257,0.003c-0.143,0-0.274,0.017-0.398,0.045c-0.06-0.005-0.119-0.008-0.181-0.008
		c-0.085,0-0.173,0.006-0.264,0.02c-0.793,0.125-1.624,0.19-2.463,0.19c-4.924,0-10.17-2.243-10.211-7.776
		c-0.034-4.712,4.12-7.133,8.281-7.133c0.441,0,0.883,0.027,1.319,0.082c0.233,0.124,0.505,0.206,0.832,0.206
		c0.068,0,0.123-0.019,0.186-0.026c0.142,0.033,0.285,0.057,0.424,0.096c0.161,0.045,0.312,0.059,0.456,0.06
		c0.22,0.121,0.481,0.198,0.794,0.198c0.165,0,0.312-0.025,0.451-0.062c0.103,0.021,0.204,0.031,0.306,0.031
		c1.279,0,2.404-1.605,1.214-2.71c-8.806-8.177-4.258-22.161,7.907-22.582c0.205-0.007,0.411-0.011,0.615-0.011
		c0.586,0,1.166,0.032,1.74,0.089c1.827,0.181,3.576,0.654,5.205,1.355c5.737,2.469,9.89,7.89,9.904,14.459
		c0.003,1.033,0.815,1.549,1.629,1.549c0.676,0,1.352-0.357,1.562-1.069c2.768-3.072,6.191-4.44,9.585-4.44
		c4.418,0,8.78,2.324,11.58,6.226c0.691,0.964,1.292,2.021,1.77,3.167c0.087,0.209,0.15,0.418,0.229,0.628
		C78.074,58.39,74.724,66.372,66.108,67.924z"/>
	<path style="fill:#1E1E1C;" d="M16.342,78.238c-1.865,4.167-3.876,8.252-6.5,12c-1.854,2.648,2.482,5.143,4.316,2.524
		c2.625-3.748,4.636-7.833,6.5-12C21.964,77.845,17.656,75.3,16.342,78.238z"/>
	<path style="fill:#1E1E1C;" d="M36.342,78.212c-1.865,4.167-3.876,8.252-6.5,12c-1.854,2.648,2.482,5.143,4.316,2.524
		c2.625-3.748,4.636-7.833,6.5-12C41.964,77.818,37.656,75.273,36.342,78.212z"/>
</g>
</svg>
