<?xml version="1.0" encoding="iso-8859-1"?>
<!-- Generator: Adobe Illustrator 17.0.2, SVG Export Plug-In . SVG Version: 6.00 Build 0)  -->
<!DOCTYPE svg PUBLIC "-//W3C//DTD SVG 1.1//EN" "http://www.w3.org/Graphics/SVG/1.1/DTD/svg11.dtd">
<svg version="1.1" id="Capa_1" xmlns="http://www.w3.org/2000/svg" xmlns:xlink="http://www.w3.org/1999/xlink" x="0px" y="0px"
	 width="100px" height="100px" viewBox="0 0 100 100" style="enable-background:new 0 0 100 100;" xml:space="preserve">
<g>
	<path style="fill:#1D1D1B;" d="M80.935,39.654c-0.542-0.514-1.278-0.861-2.233-0.88c-1.034-0.021-2.05,0.041-3.052,0.149
		c-3.02-0.131-6.054,0.207-8.823,1.001c-1.827,0.524-2.527,2.05-2.396,3.52c-3.474,2.761-6.058,6.639-7.182,11.398
		c-1.296,5.489,0.222,10.574,3.394,14.432H39.639c2.934-3.572,4.756-8.126,4.865-12.863c0.217-9.449-6.291-14.867-14.096-16.751
		c-0.542-0.514-1.278-0.861-2.233-0.88c-1.034-0.021-2.05,0.041-3.052,0.149c-3.02-0.131-6.054,0.207-8.823,1.001
		c-1.827,0.524-2.527,2.05-2.396,3.52c-3.474,2.761-6.058,6.639-7.182,11.398c-2.536,10.738,5.683,19.94,16.025,21.399
		c1.901,0.268,3.742,0.193,5.509-0.12H72.58c0.231,0.041,0.461,0.082,0.694,0.115c11.703,1.65,21.5-8.614,21.757-19.836
		C95.248,46.956,88.74,41.538,80.935,39.654z M25.917,69.273h-1.168c-0.235,0-0.451,0.029-0.662,0.066
		c-1.494-0.057-2.972-0.365-4.351-0.955c-5.723-2.448-7.578-8.146-5.841-13.795c1.66-5.399,6.743-8.294,12-8.857
		c6.399,0.505,11.907,4.139,11.725,12.088C37.47,64.328,31.837,68.698,25.917,69.273z M76.466,69.273h-2.689
		c-1.207-0.124-2.393-0.416-3.514-0.895c-5.723-2.448-7.578-8.146-5.841-13.795c1.66-5.399,6.743-8.294,12-8.857
		c6.399,0.505,11.907,4.139,11.725,12.088C87.997,64.315,82.378,68.69,76.466,69.273z"/>
</g>
</svg>
