<?xml version="1.0" encoding="iso-8859-1"?>
<!-- Generator: Adobe Illustrator 17.0.2, SVG Export Plug-In . SVG Version: 6.00 Build 0)  -->
<!DOCTYPE svg PUBLIC "-//W3C//DTD SVG 1.1//EN" "http://www.w3.org/Graphics/SVG/1.1/DTD/svg11.dtd">
<svg version="1.1" id="Capa_1" xmlns="http://www.w3.org/2000/svg" xmlns:xlink="http://www.w3.org/1999/xlink" x="0px" y="0px"
	 width="100px" height="100px" viewBox="0 0 100 100" style="enable-background:new 0 0 100 100;" xml:space="preserve">
<g>
	<path style="fill:#1D1D1B;" d="M75.93,11.493C59.037,0.151,35.885,6.13,23.052,21.009c-4.747,5.504-7.356,11.674-8.552,18.127
		c-0.696-0.714-1.404-1.418-2.137-2.103c-4.723-4.407-12.661,2.172-7.89,6.625c2.485,2.319,4.744,4.818,6.883,7.415
		c0.658,0.8,1.31,1.606,1.944,2.426c0.584,0.755,1.17,1.508,1.737,2.277c0.83,1.125,2.214,1.631,3.633,1.642
		c1.765,0.37,3.654-0.2,4.852-2.255c0.247-0.424,0.513-0.83,0.772-1.241c1.184-1.875,2.497-3.619,3.944-5.24
		c2.396-2.683,5.147-5.047,8.307-7.12c2.36-1.548,2.231-5.189,0.55-7.023c-2.017-2.201-4.98-1.945-7.339-0.398
		c-1.507,0.988-2.946,2.06-4.318,3.203c0.291-0.99,0.628-1.975,1.021-2.955c3.764-9.396,14.038-16.443,24.065-18.552
		c16.799-3.534,30.21,10.658,34.241,24.719c4.669,16.289-2.331,38.817-21.91,42.444c-11.846,2.194-23.252-3.473-30.799-12.118
		c-0.024,0.013-0.051,0.025-0.075,0.039c-0.055-0.126-0.135-0.236-0.199-0.356c-0.291-0.534-0.674-1.004-1.137-1.396
		c-1.168-0.987-2.781-1.481-4.419-1.165c-2.79,0.538-4.69,3.204-4.178,5.861l0.094,0.487c0.112,0.582,0.349,1.112,0.653,1.594
		c0.136,0.216,0.292,0.415,0.46,0.606c0.138,0.156,0.275,0.309,0.432,0.447c7.633,8.676,18.547,14.664,30.685,16.092
		c22.282,2.621,38.274-15.423,41.716-34.926C99.183,40.629,90.934,21.567,75.93,11.493z"/>
</g>
</svg>
