<?xml version="1.0" encoding="iso-8859-1"?>
<!-- Generator: Adobe Illustrator 17.0.2, SVG Export Plug-In . SVG Version: 6.00 Build 0)  -->
<!DOCTYPE svg PUBLIC "-//W3C//DTD SVG 1.1//EN" "http://www.w3.org/Graphics/SVG/1.1/DTD/svg11.dtd">
<svg version="1.1" id="Capa_1" xmlns="http://www.w3.org/2000/svg" xmlns:xlink="http://www.w3.org/1999/xlink" x="0px" y="0px"
	 width="100px" height="100px" viewBox="0 0 100 100" style="enable-background:new 0 0 100 100;" xml:space="preserve">
<g>
	<path style="fill:#1D1D1B;" d="M88.997,30.011c-2.95-2.135-6.784-2.603-10.372-2.358c-0.472-0.131-0.988-0.203-1.557-0.194
		c-16.206,0.258-35.402-0.779-51.604-0.426c1.175-1.035,2.341-2.082,3.495-3.142c4.9-4.503-2.402-11.767-7.283-7.283
		c-4.427,4.068-9.011,7.949-13.732,11.673c-2.208,1.742-1.81,5.473,0,7.283c2.951,2.949,7.216,4.659,10.468,7.29
		c2.539,2.055,5.237,5.747,8.962,4.958c3.811-0.807,5.729-5.698,2.615-8.546c-0.744-0.68-1.511-1.331-2.272-1.99
		c7.612-0.108,15.225,0.064,22.835,0.236c5.269,0.119,13.543-0.156,18.808,0.158c2.353,0.14,4.702,0.336,7.059,0.206
		c2.078-0.114,5.302-0.811,6.997,0.812c0.012,0.013,0.016,0.018,0.029,0.033c1.221,2.369,1.017,6.454,1.082,9.089
		c0.063,2.536,0.295,5.104,0.171,7.639c-0.168,3.46-1.991,11.117-6.923,10.821c-0.121-0.007-0.238-0.018-0.363-0.018
		c-17.396-0.013-37.794-0.3-55.184,0.343c-0.238,0.009-0.465,0.034-0.687,0.068c-0.115-0.02-0.226-0.052-0.343-0.068
		c-5.802-0.778-5.395-6.018-4.304-10.647c1.523-6.46-8.407-9.201-9.931-2.738c-1.276,5.41-1.536,10.622,0.776,15.77
		c3.87,8.613,14.619,7.858,22.358,7.686c3.928-0.087,7.858-0.137,11.787-0.163c7.796-0.052,18.593-0.01,26.389,0.022
		c7.064,0.029,16.738,0.756,21.676-5.441c3.957-4.965,4.422-11.855,4.681-17.941c0.128-3.019,0.374-6.496,0.18-9.909
		C94.517,38.079,93.22,33.067,88.997,30.011z"/>
</g>
</svg>
