<?xml version="1.0" encoding="iso-8859-1"?>
<!-- Generator: Adobe Illustrator 17.0.2, SVG Export Plug-In . SVG Version: 6.00 Build 0)  -->
<!DOCTYPE svg PUBLIC "-//W3C//DTD SVG 1.1//EN" "http://www.w3.org/Graphics/SVG/1.1/DTD/svg11.dtd">
<svg version="1.1" id="Capa_1" xmlns="http://www.w3.org/2000/svg" xmlns:xlink="http://www.w3.org/1999/xlink" x="0px" y="0px"
	 width="100px" height="100px" viewBox="0 0 100 100" style="enable-background:new 0 0 100 100;" xml:space="preserve">
<g>
	<path style="fill:#1D1D1B;" d="M88.166,37.033c-0.733,0.684-1.44,1.389-2.138,2.103c-1.194-6.453-3.804-12.623-8.551-18.127
		C64.645,6.13,41.492,0.151,24.6,11.493C9.595,21.567,1.346,40.629,4.441,58.165c3.441,19.503,19.433,37.548,41.716,34.926
		C58.294,91.664,69.209,85.676,76.842,77c0.156-0.138,0.294-0.291,0.432-0.447c0.168-0.191,0.323-0.39,0.46-0.606
		c0.305-0.482,0.54-1.011,0.652-1.594l0.095-0.487c0.512-2.657-1.389-5.323-4.179-5.861c-1.638-0.316-3.251,0.178-4.418,1.165
		c-0.464,0.392-0.846,0.862-1.137,1.396c-0.065,0.12-0.145,0.23-0.199,0.356c-0.024-0.013-0.051-0.025-0.075-0.039
		c-7.547,8.645-18.954,14.311-30.799,12.118c-19.58-3.627-26.58-26.156-21.91-42.444c4.031-14.062,17.442-28.254,34.241-24.719
		c10.027,2.11,20.302,9.157,24.065,18.552c0.393,0.98,0.729,1.965,1.02,2.955c-1.371-1.143-2.811-2.215-4.317-3.203
		c-2.358-1.547-5.322-1.803-7.34,0.398c-1.681,1.834-1.81,5.475,0.55,7.023c3.16,2.073,5.912,4.437,8.307,7.12
		c1.448,1.622,2.762,3.365,3.945,5.24c0.259,0.411,0.524,0.817,0.771,1.241c1.198,2.055,3.088,2.625,4.852,2.255
		c1.419-0.011,2.803-0.517,3.633-1.642c0.568-0.769,1.154-1.522,1.738-2.277c0.635-0.82,1.286-1.626,1.944-2.426
		c2.139-2.597,4.397-5.096,6.883-7.415C100.827,39.206,92.889,32.627,88.166,37.033z"/>
</g>
</svg>
