<?xml version="1.0" encoding="iso-8859-1"?>
<!-- Generator: Adobe Illustrator 17.0.2, SVG Export Plug-In . SVG Version: 6.00 Build 0)  -->
<!DOCTYPE svg PUBLIC "-//W3C//DTD SVG 1.1//EN" "http://www.w3.org/Graphics/SVG/1.1/DTD/svg11.dtd">
<svg version="1.1" id="Capa_1" xmlns="http://www.w3.org/2000/svg" xmlns:xlink="http://www.w3.org/1999/xlink" x="0px" y="0px"
	 width="100px" height="100px" viewBox="0 0 100 100" style="enable-background:new 0 0 100 100;" xml:space="preserve">
<g>
	<path style="fill:#1D1D1B;" d="M90.246,40.353c0-2.464-1.854-3.455-3.441-3.555l-0.114-0.021c-0.45-0.138-0.894-0.185-1.385-0.144
		c-18.717,1.582-37.583,1.714-53.796,1.714c-3.239,0-6.478-0.006-9.717-0.013c-2.599-0.005-5.196-0.01-7.795-0.012
		c-0.438,0-0.861,0.075-1.3,0.23l-0.128,0.045l-0.133-0.026c-0.281-0.054-0.568-0.082-0.854-0.082c-1.063,0-2.027,0.379-2.645,1.042
		c-0.581,0.625-0.84,1.457-0.767,2.472l1.265,17.711c0.167,2.345,2.025,3.484,3.793,3.575l0.108,0.018
		c0.393,0.108,0.737,0.159,1.082,0.159c25.693,0,48.884-0.063,72.515-0.843c1.729-0.057,3.015-1.098,3.442-2.785
		c0.242-0.576,0.332-1.137,0.292-1.742C90.278,52.198,90.246,46.337,90.246,40.353z M82.599,55.303
		c-22.574,0.661-45.661,0.723-65.528,0.728h-0.466l-0.733-10.271l5.361,0.008c3.107,0.006,6.214,0.012,9.32,0.012
		c15.599,0,33.746-0.116,51.732-1.494l0.534-0.041l0.004,0.536c0.021,3.294,0.108,6.659,0.26,10l0.023,0.508L82.599,55.303z"/>
</g>
</svg>
