<?xml version="1.0" encoding="iso-8859-1"?>
<!-- Generator: Adobe Illustrator 17.0.2, SVG Export Plug-In . SVG Version: 6.00 Build 0)  -->
<!DOCTYPE svg PUBLIC "-//W3C//DTD SVG 1.1//EN" "http://www.w3.org/Graphics/SVG/1.1/DTD/svg11.dtd">
<svg version="1.1" id="Capa_1" xmlns="http://www.w3.org/2000/svg" xmlns:xlink="http://www.w3.org/1999/xlink" x="0px" y="0px"
	 width="100px" height="100px" viewBox="0 0 100 100" style="enable-background:new 0 0 100 100;" xml:space="preserve">
<g>
	<path style="fill:#1E1E1C;" d="M42.727,6.24c-0.925-0.954-2.028-1.069-2.974-0.712c-0.544,0.07-1.093,0.286-1.602,0.712
		c-4.042,3.387-7.928,6.947-11.667,10.667c-1.609,1.601-0.812,3.711,0.671,4.642c7.818,9.301,16.744,18.511,24.551,27.821
		c-8.856,8.897-17.392,18.976-25.889,28.204c-0.953,1.035-0.991,2.256-0.534,3.254c0.073,0.949,0.647,1.819,1.474,2.458
		c3.888,3.003,7.644,6.169,11.284,9.468c0.916,1.503,3.055,2.332,4.685,0.729c13.007-12.788,24.394-27.2,38.667-38.667
		c0.391-0.314,0.655-0.659,0.819-1.015c0.817-1.074,1.023-2.625-0.153-3.895C68.748,35.53,56.376,20.307,42.727,6.24z
		 M40.664,87.065c-2.852-2.517-5.777-4.941-8.762-7.298c8.107-9.053,16.465-18.765,25.159-27.284
		c0.453-0.444,0.703-0.93,0.817-1.418c0.728-1.073,0.899-2.567-0.15-3.824c-7.888-9.448-16.919-18.775-24.851-28.185
		c2.394-2.308,4.864-4.534,7.378-6.712C52.47,25.122,63.745,38.751,75.67,51.797C62.879,62.399,52.331,75.292,40.664,87.065z"/>
</g>
</svg>
