<?xml version="1.0" encoding="iso-8859-1"?>
<!-- Generator: Adobe Illustrator 17.0.2, SVG Export Plug-In . SVG Version: 6.00 Build 0)  -->
<!DOCTYPE svg PUBLIC "-//W3C//DTD SVG 1.1//EN" "http://www.w3.org/Graphics/SVG/1.1/DTD/svg11.dtd">
<svg version="1.1" id="Capa_1" xmlns="http://www.w3.org/2000/svg" xmlns:xlink="http://www.w3.org/1999/xlink" x="0px" y="0px"
	 width="100px" height="100px" viewBox="0 0 100 100" style="enable-background:new 0 0 100 100;" xml:space="preserve">
<g>
	<path style="fill:#1D1D1B;" d="M54.337,29.533c-1.388-1.462-3.299-0.462-3.811,1.011c-0.384,0.378-0.638,0.91-0.634,1.61
		c0.012,1.798,0.01,4.499-0.062,6.294c-3.873,0.041-13.354,0.179-17.211,0.581c-0.163,0.017-0.313,0.052-0.458,0.094
		c-1.121,0.062-2.167,0.813-2.099,2.264c0.254,5.378,0.309,10.76,0.347,16.143c0.003,0.436,0.112,0.802,0.282,1.111
		c0.16,1.272,1.291,2.56,2.938,2.293c3.298-0.534,12.244-0.66,15.574-0.582c0.182,2.443,0.212,4.891,0.23,7.341
		c0.009,1.184,0.735,1.891,1.612,2.14c0.848,0.626,2.077,0.802,3.099-0.05c6.42-5.351,12.824-12.531,19.243-17.883
		c1.325-0.637,2.122-2.441,0.742-3.754C67.413,41.758,60.719,36.255,54.337,29.533z M54.056,63.787
		c-0.039-1.44-0.105-2.878-0.235-4.314c-0.023-0.251-0.086-0.473-0.166-0.682c0.304-1.321-0.431-2.972-2.2-3.046
		c-3.619-0.152-12.808-0.068-16.383,0.323c-0.034-4.182-0.088-8.363-0.247-12.541c3.713-0.287,13.049-0.391,16.775-0.418
		c0.759-0.005,1.324-0.305,1.698-0.751c0.583-0.371,1.026-0.98,1.092-1.843c0.081-1.049,0.124-3.005,0.151-4.054
		c4.682,4.778,9.492,8.52,14.333,13.138C63.933,53.722,58.997,59.662,54.056,63.787z"/>
	<path style="fill:#1D1D1B;" d="M96.188,17.973c0-9.206-6.742-13.874-20.04-13.874c-1.885,0-3.686,0.075-5.274,0.142l-0.351,0.015
		C62.377,4.594,54.146,4.64,46.466,4.64L35.314,4.629c-1.735,0-3.471,0.002-5.206,0.01l-1.581,0.003
		c-1.653,0-3.308-0.009-4.961-0.018c-1.663-0.009-3.327-0.018-4.989-0.018c-3.974,0-7.155,1.224-9.457,3.638
		C4.282,13.317,4.702,22.141,5.039,29.23c0.076,1.585,0.147,3.083,0.145,4.343c-0.005,2.275,0.011,4.547,0.026,6.818
		c0.044,6.34,0.089,12.895-0.345,19.298l-0.14,2.003c-0.492,6.95-1.001,14.137,0.668,21.161
		c2.444,10.287,8.909,12.633,13.903,12.789c5.535,0.173,11.555,0.256,18.403,0.256c6.638,0,13.382-0.077,19.904-0.152
		c6.497-0.075,13.216-0.152,19.803-0.152h0.299c0.492,0,0.988,0.007,1.487,0.014c4.701,0.069,9.695-0.025,13.287-4.264
		c3.367-3.973,3.558-9.25,3.711-13.49l0.026-0.72c0.194-5.049,0.279-10.437,0.27-16.955c-0.011-6.772-0.081-13.651-0.148-20.303
		C96.266,32.695,96.189,25.27,96.188,17.973z M90.722,76.923l-0.027,0.732c-0.135,3.743-0.274,7.613-2.409,10.134
		c-1.654,1.951-4.001,2.333-7.494,2.333c-0.508,0-1.016-0.007-1.522-0.014c-0.523-0.008-1.045-0.015-1.561-0.015h-0.301
		c-6.618,0-13.354,0.077-19.866,0.152c-6.507,0.075-13.235,0.152-19.841,0.152c-6.79,0-12.754-0.083-18.231-0.254
		c-3.138-0.098-6.966-1.159-8.724-8.562c-1.475-6.205-0.996-12.964-0.533-19.501l0.142-2.02c0.447-6.608,0.401-13.268,0.356-19.708
		c-0.016-2.254-0.031-4.51-0.026-6.769c0.003-1.396-0.071-2.96-0.15-4.615c-0.272-5.723-0.646-13.561,2.567-16.93
		c1.24-1.301,3.032-1.934,5.477-1.934c1.652,0,3.306,0.009,4.959,0.018c1.664,0.009,3.328,0.018,4.991,0.018l1.604-0.003
		c1.728-0.007,3.456-0.01,5.184-0.01l11.151,0.011c7.74,0,16.039-0.047,24.286-0.389l0.352-0.015
		C72.639,9.672,74.379,9.6,76.148,9.6c12.812,0,14.54,4.233,14.54,8.374c0.001,7.325,0.077,14.764,0.15,21.958
		c0.067,6.641,0.138,13.507,0.148,20.255C90.997,66.63,90.913,71.948,90.722,76.923z"/>
	<path style="fill:#1D1D1B;" d="M86.979,24.895c0-7.611-5.485-11.47-16.303-11.47c-1.49,0-2.908,0.059-4.16,0.111l-0.274,0.012
		c-6.374,0.264-12.813,0.301-18.823,0.301l-8.77-0.009c-1.355,0-2.71,0.002-4.066,0.007l-1.267,0.002
		c-1.29,0-2.581-0.007-3.871-0.014c-1.3-0.007-2.599-0.014-3.897-0.014c-3.146,0-5.691,0.964-7.568,2.864
		c-3.763,3.811-3.684,10.154-3.619,15.251c0.01,0.804,0.021,1.572,0.012,2.282c-0.076,6.525-0.012,13.143,0.05,19.543
		c0.056,5.818,0.113,11.836,0.065,17.74c-0.013,1.464,0.086,2.858,0.292,4.144c1.079,6.723,5.098,10.531,11.313,10.726
		c4.348,0.136,9.075,0.202,14.453,0.202c5.208,0,10.499-0.062,15.615-0.121c5.094-0.059,10.361-0.119,15.523-0.119h0.212
		c0.382,0,0.768,0.006,1.154,0.011c3.836,0.055,7.899-0.032,10.882-3.552c2.773-3.273,2.926-7.526,3.049-10.944l0.021-0.556
		c0.152-3.951,0.22-8.183,0.212-13.315c-0.009-5.316-0.063-10.715-0.117-15.936C87.04,36.419,86.98,30.606,86.979,24.895z
		 M81.506,71.081l-0.021,0.57c-0.103,2.835-0.208,5.767-1.75,7.587c-1.146,1.354-2.854,1.618-5.413,1.618
		c-0.398,0-0.798-0.005-1.195-0.011c-0.411-0.006-0.821-0.012-1.228-0.012h-0.215c-5.194,0-10.478,0.061-15.587,0.12
		c-5.101,0.059-10.375,0.12-15.552,0.12c-5.32,0-9.991-0.065-14.281-0.2c-2.375-0.073-5.209-0.834-6.056-6.1
		c-0.157-0.981-0.231-2.066-0.222-3.226c0.048-5.955-0.01-11.996-0.066-17.839c-0.061-6.372-0.124-12.96-0.049-19.427
		c0.009-0.751-0.001-1.564-0.012-2.416c-0.049-3.858-0.115-9.142,2.032-11.317c0.816-0.827,2.013-1.229,3.655-1.229
		c1.289,0,2.578,0.007,3.867,0.014c1.301,0.007,2.601,0.014,3.901,0.014l1.29-0.002c1.348-0.005,2.695-0.007,4.043-0.007l8.77,0.009
		c6.068,0,12.577-0.037,19.052-0.306l0.275-0.011c1.197-0.05,2.556-0.107,3.931-0.107c9.494,0,10.803,2.869,10.803,5.97
		c0.001,5.739,0.061,11.567,0.118,17.203c0.053,5.209,0.107,10.596,0.116,15.888C81.722,63.044,81.655,67.204,81.506,71.081z"/>
</g>
</svg>
