<?xml version="1.0" encoding="utf-8"?>
<!-- Generator: Adobe Illustrator 17.0.2, SVG Export Plug-In . SVG Version: 6.00 Build 0)  -->
<!DOCTYPE svg PUBLIC "-//W3C//DTD SVG 1.1//EN" "http://www.w3.org/Graphics/SVG/1.1/DTD/svg11.dtd">
<svg version="1.1" id="Capa_1" xmlns="http://www.w3.org/2000/svg" xmlns:xlink="http://www.w3.org/1999/xlink" x="0px" y="0px"
	 width="100px" height="100px" viewBox="0 0 100 100" enable-background="new 0 0 100 100" xml:space="preserve">
<g>
	<path fill="#1D1D1B" d="M42.807,33.132c-3.095,0-3.095,4.8,0,4.8S45.902,33.132,42.807,33.132z"/>
	<path fill="#1D1D1B" d="M58.707,37.332c3.095,0,3.095-4.8,0-4.8S55.611,37.332,58.707,37.332z"/>
	<path fill="#1D1D1B" d="M61.406,40.931c-5.959-0.265-11.841,0.102-17.737,0.986c-3.053,0.457-1.75,5.082,1.276,4.628
		c5.462-0.818,10.945-1.06,16.461-0.814C64.502,45.869,64.489,41.069,61.406,40.931z"/>
	<path fill="#1D1D1B" d="M92.671,60.613c-0.157-1.07-0.909-2.109-2.249-2.283c-3.913-0.505-7.833-0.807-11.774-0.875
		c-0.048-1.608-0.102-3.216-0.142-4.825c-0.051-2.007-2.09-2.705-3.495-2.104c-0.053-0.001-0.107-0.003-0.161-0.004
		c-0.855-8.884-1.468-17.785-2.045-26.691c-0.094-1.446-1.208-2.207-2.339-2.294c-0.204-0.058-0.419-0.101-0.661-0.106
		c-2.279-0.047-4.557-0.067-6.834-0.073v-2.571c0.107-0.245,0.168-0.513,0.168-0.794c0-0.778-0.057-1.541-0.164-2.307
		c0.718-0.275,1.379-0.701,1.93-1.318c3.462-3.872-1.66-10.212-6.128-9.026c-2.75,0.73-5.236,4.16-4.389,7.009
		c0.56,1.883,2.734,3.147,4.579,3.52c0.007,0.1,0.014,0.199,0.032,0.299c0.006,0.031,0.036,0.243,0.051,0.335
		c0.011,0.131,0.022,0.262,0.029,0.394c0.008,0.15,0.005,0.301,0.007,0.452c-0.099,0.235-0.158,0.502-0.158,0.809v3.224
		c-6.523,0.059-13.037,0.287-19.542,0.783c0,0,0-6.443,0.009-6.473c0.258-0.847,2.1-1.938,2.607-2.869
		c0.653-1.196,0.933-2.505,0.707-3.856c-0.443-2.655-2.586-4.735-5.345-4.792c-0.058-0.001-0.109,0.018-0.165,0.022
		c-1.252-0.118-2.418,0.109-3.551,0.759c-0.316,0.182-0.557,0.448-0.726,0.751c-1.235,0.968-2.276,2.172-2.54,3.784
		c-0.317,1.943,0.496,3.561,1.678,5.041c0.104,0.13,0.229,0.23,0.364,0.316c0.203,0.16,0.438,0.288,0.697,0.372
		c0.722,0.235,1.467,0.438,2.222,0.581v6.699c-1.412,0.131-2.824,0.269-4.236,0.426c-1.201,0.133-1.925,0.964-2.182,1.898
		c-0.147,0.31-0.234,0.673-0.219,1.102c0.299,8.454,0.497,16.895,0.052,25.346c-1.33,0.161-2.661,0.335-3.99,0.539
		c-1.39,0.213-1.869,1.288-1.701,2.352c-0.038,0.175-0.06,0.361-0.06,0.562c-0.001,0.922-0.005,1.844-0.009,2.766
		c-0.184-0.041-0.379-0.067-0.591-0.066c-4.322,0.022-8.614,0.346-12.899,0.9c-1.341,0.173-2.092,1.213-2.25,2.283
		c-0.077,0.219-0.136,0.453-0.151,0.717c-0.584,10.596-0.93,21.202-1.5,31.799c-0.166,3.094,4.635,3.078,4.8,0
		c0.542-10.086,0.888-20.181,1.423-30.267c3.514-0.384,7.036-0.614,10.577-0.632c0.205-0.001,0.394-0.026,0.572-0.066
		c-0.051,9.924-0.111,19.846,0.328,29.764c0.136,3.083,4.937,3.096,4.8,0c-0.527-11.906-0.336-23.817-0.305-35.73
		c15.247-2.098,30.64-1.249,45.981-0.901c0.322,11.512,0.824,23.018,1.121,34.531c0.08,3.089,4.88,3.097,4.8,0
		c-0.238-9.193-0.609-18.383-0.914-27.574c3.114,0.06,6.214,0.269,9.308,0.607c0.536,10.086,0.881,20.181,1.423,30.267
		c0.165,3.078,4.966,3.094,4.8,0c-0.569-10.596-0.915-21.203-1.5-31.799C92.808,61.066,92.749,60.832,92.671,60.613z M58.676,10.949
		c-0.821-1.347,1.839-1.954,3.085-0.398c1.313,1.653-1.528,1.775-2.458,1.055C59.003,11.373,58.8,11.152,58.676,10.949z
		 M34.807,11.512c-0.774-1.094-0.396-1.94,0.715-2.723c0.213-0.15,0.37-0.325,0.5-0.509c0.121-0.04,0.241-0.081,0.364-0.112
		c0.014-0.003,0.017-0.005,0.028-0.008c0.027,0.001,0.056,0.001,0.108-0.001c0.099-0.004,0.62,0.074,0.137-0.009
		c0.163,0.028,0.325,0.037,0.486,0.036c0.074,0.01,0.144,0.035,0.22,0.036c0.036,0,0.072,0.004,0.108,0.005
		c0.026,0.007,0.24,0.03,0.312,0.048c0.033,0.008,0.094,0.032,0.151,0.056c0.072,0.039,0.139,0.084,0.208,0.128
		c-0.182-0.087,0.234,0.348,0.222,0.269c0.039,0.064,0.077,0.129,0.112,0.195c0.002,0.015,0.033,0.088,0.066,0.168v1.827
		c0,0.071,0.015,0.139,0.022,0.208c-0.026,0.041-0.059,0.076-0.083,0.12c-0.034,0.064-0.073,0.123-0.108,0.185
		c-0.043,0.051-0.198,0.262-0.257,0.323c-0.042,0.041-0.088,0.079-0.132,0.118c-0.02,0.013-0.036,0.024-0.065,0.045
		c-0.011,0.007-0.024,0.011-0.035,0.018C36.817,12.011,35.816,11.811,34.807,11.512z M33.584,50.774
		c0.385-7.764,0.232-15.521-0.029-23.288c11.508-1.154,23.044-1.468,34.607-1.278c0.53,8.075,1.104,16.146,1.877,24.203
		C57.86,50.107,45.706,49.717,33.584,50.774z"/>
	<path fill="#1D1D1B" d="M44.75,72.5c-0.01-0.152-0.036-0.294-0.071-0.428C44.711,71.049,44.071,70,42.75,70H34.5
		c-0.859,0-1.425,0.447-1.712,1.038c-0.591,0.287-1.038,0.853-1.038,1.712c0,3.419-0.009,6.838-0.25,10.25
		c-0.036,0.502,0.091,0.902,0.314,1.207c0.129,0.601,0.566,1.101,1.404,1.221c3.339,0.478,6.663,0.57,10.032,0.571
		c0.233,0,0.438-0.042,0.63-0.102c1.038,0.048,2.03-0.577,1.87-1.898C45.287,80.177,45.006,76.341,44.75,72.5z M35.571,81.714
		c0.14-2.569,0.165-5.141,0.171-7.714h5.116c0.186,2.668,0.39,5.334,0.671,7.993C39.54,81.977,37.55,81.921,35.571,81.714z"/>
	<path fill="#1D1D1B" d="M65.75,69.75C61.169,69.984,56.585,70,52,70c-2.58,0-2.58,4,0,4c4.585,0,9.169-0.016,13.75-0.25
		C68.316,73.619,68.329,69.618,65.75,69.75z"/>
	<path fill="#1D1D1B" d="M65.75,78.25c-4.748,0.249-9.495,0.481-14.25,0.5c-2.579,0.01-2.58,4.01,0,4
		c4.755-0.019,9.502-0.251,14.25-0.5C68.316,82.115,68.329,78.115,65.75,78.25z"/>
	<path fill="#1D1D1B" d="M36.75,59.75c-2.58,0-2.58,4,0,4S39.33,59.75,36.75,59.75z"/>
	<path fill="#1D1D1B" d="M46.25,59.5c-2.58,0-2.58,4,0,4S48.83,59.5,46.25,59.5z"/>
	<path fill="#1D1D1B" d="M57.5,59.5c-2.58,0-2.58,4,0,4S60.08,59.5,57.5,59.5z"/>
</g>
</svg>
