<?xml version="1.0" encoding="utf-8"?>
<!-- Generator: Adobe Illustrator 17.0.2, SVG Export Plug-In . SVG Version: 6.00 Build 0)  -->
<!DOCTYPE svg PUBLIC "-//W3C//DTD SVG 1.1//EN" "http://www.w3.org/Graphics/SVG/1.1/DTD/svg11.dtd">
<svg version="1.1" id="Capa_1" xmlns="http://www.w3.org/2000/svg" xmlns:xlink="http://www.w3.org/1999/xlink" x="0px" y="0px"
	 width="100px" height="100px" viewBox="0 0 100 100" enable-background="new 0 0 100 100" xml:space="preserve">
<g>
	<path fill="#1D1D1B" d="M68.284,51.067c-0.068-0.037-0.139-0.07-0.212-0.1c0.262-7.419-0.027-14.043-0.881-20.235
		c-1.186-8.595-3.82-20.904-12.969-28.528c-0.36-0.3-0.776-0.452-1.234-0.452c-5.008,0-14.096,20.135-14.18,20.338
		c-3.661,8.89-5.76,17.454-6.417,26.18c-0.05,0.659-0.086,1.319-0.115,1.98c-0.122,0.035-0.239,0.079-0.353,0.133
		c-9.953,4.696-15.851,15.445-16.188,29.503l-0.142,0.326c-0.272,0.673-0.225,1.337,0.135,1.87c0.4,0.594,1.156,0.963,1.971,0.963
		c0.931,0,1.733-0.47,2.157-1.26c0.188-0.245,0.318-0.528,0.389-0.845c2.63-6.014,7.816-10.88,14.617-13.719
		c0.105,0.018,0.222,0.031,0.352,0.031c0.851-0.001,1.702-0.011,2.552-0.02l0.609-0.006v5.324c0,0.172,0.019,0.342,0.058,0.519
		c-0.074,1.119,0.566,2.031,1.65,2.339c0.3,0.085,0.601,0.158,0.901,0.231l0.03,0.008c-0.45,6.92,3.241,11.791,7.145,16.941
		c0.875,1.154,1.778,2.348,2.687,3.629c0.358,0.729,1.181,1.198,2.111,1.198c1.022,0,1.884-0.584,2.25-1.525
		c0.765-1.971,1.678-3.82,2.561-5.61c2.138-4.328,4.16-8.424,3.917-13.678c0.973-0.147,1.982-0.855,2.104-2.175
		c0.229-2.479,0.291-4.921,0.302-7.773l0.436-0.013c0.057-0.002,0.11-0.01,0.179-0.022c7.871,1.199,11.495,8.059,12.262,14.094
		c0.179,1.407,1.396,2.143,2.507,2.143c1.035,0,1.843-0.599,2.04-1.5c0.139-0.268,0.227-0.562,0.26-0.876
		C83.164,67.336,78.121,56.341,68.284,51.067z M21.487,70.98c1.341-5.304,4.292-11.667,10.747-15.541
		c0.068,2.506,0.262,5.094,0.577,7.709C28.316,65.117,24.516,67.746,21.487,70.98z M53.36,89.067
		c-0.293,0.584-0.587,1.17-0.877,1.764c-0.193-0.244-0.387-0.488-0.582-0.733c-3.24-4.071-6.586-8.276-6.404-13.483
		c0.558,0.092,1.143,0.177,1.771,0.257c0.528,2.588,1.638,5.018,3.383,7.414c0.353,0.927,1.268,1.592,2.208,1.592
		c0.575,0,1.112-0.239,1.553-0.69c0.517-0.529,1.011-1.086,1.488-1.678C55.211,85.379,54.303,87.188,53.36,89.067z M52.109,77.255
		c0.825,0.019,1.65,0.015,2.478-0.009c-0.472,0.857-0.967,1.644-1.497,2.379C52.694,78.865,52.366,78.072,52.109,77.255z
		 M59.275,72.262c-5.299,0.729-10.784,0.418-16.239-0.912v-4.163c5.519-0.083,11.121-0.236,16.39-0.394
		C59.418,68.359,59.389,70.289,59.275,72.262z M62.654,62.209c-0.663,0.155-3.485,0.468-15.41,0.468
		c-4.532,0-8.565-0.05-9.817-0.081c-2.228-19.597,2.955-38.208,15.41-55.33c7.094,7.237,9.098,17.923,10.047,26.474
		C63.799,41.986,63.725,51.043,62.654,62.209z M67.287,62.553c0.209-2.172,0.384-4.319,0.521-6.399
		c4.258,2.834,7.129,6.898,8.559,12.111C73.968,65.484,70.871,63.531,67.287,62.553z"/>
	<path fill="#1D1D1B" d="M58.529,30.672c-1.515-2.001-3.648-3.103-6.006-3.103c-3.525,0-7.021,2.456-8.908,6.255
		c-0.964,1.942-1.49,4.23-1.565,6.801c-0.084,2.929,1.136,6.058,3.184,8.166c1.587,1.634,3.489,2.497,5.502,2.497
		c0.798,0,1.611-0.14,2.414-0.414c2.475-0.847,4.613-2.94,6.021-5.895c1.75-3.672,2.107-8.147,0.912-11.399
		C59.676,32.476,59.153,31.497,58.529,30.672z M55.555,41.139c-0.463,2.113-2.25,4.132-4.155,4.695
		c-1.663,0.49-3.106-0.243-4.012-2.075c-1.04-2.106-0.602-5.463,0.338-7.553c0.603-1.342,2.768-3.806,4.496-3.806
		c0.203,0,0.397,0.035,0.578,0.104C55.562,33.559,56.182,38.279,55.555,41.139z"/>
</g>
</svg>
