<?xml version="1.0" encoding="iso-8859-1"?>
<!-- Generator: Adobe Illustrator 17.0.2, SVG Export Plug-In . SVG Version: 6.00 Build 0)  -->
<!DOCTYPE svg PUBLIC "-//W3C//DTD SVG 1.1//EN" "http://www.w3.org/Graphics/SVG/1.1/DTD/svg11.dtd">
<svg version="1.1" id="Capa_1" xmlns="http://www.w3.org/2000/svg" xmlns:xlink="http://www.w3.org/1999/xlink" x="0px" y="0px"
	 width="100px" height="100px" viewBox="0 0 100 100" style="enable-background:new 0 0 100 100;" xml:space="preserve">
<g>
	<path style="fill:#1D1D1B;" d="M25.389,68.673c-4.543-2.016-9.302-2.651-13.234,0.974c-3.439,3.17-4.512,8.566-3.261,13.03
		c1.645,5.869,7.395,9.919,13.444,9.301c6.966-0.711,13.631-7.12,11.672-14.393C32.843,73.253,29.304,70.41,25.389,68.673z
		 M21.577,87.305c-3.818,0.39-6.924-2.484-8.102-5.891c-0.882-2.551-0.327-5.116,1.173-7.296c3.616-5.255,11.298-0.76,14.012,3.18
		C32.006,82.158,26.186,86.835,21.577,87.305z"/>
	<path style="fill:#1D1D1B;" d="M44.941,53.468c-9.45-7.702-22.328-9.448-34.111-9.828c-0.922-0.03-1.518,0.446-1.806,1.081
		c-0.222,0.316-0.338,0.732-0.274,1.258c0.499,4.066,0.495,8.133,0.26,12.217c-0.08,1.38,0.984,2.04,2.056,1.997
		c0.168,0.046,0.346,0.078,0.544,0.082c7.88,0.172,16.276,1.321,22.557,6.5c6.755,5.571,7.553,14.752,6.817,22.874
		c-0.057,0.625,0.134,1.097,0.453,1.428c0.328,0.501,0.865,0.872,1.627,0.911c4.59,0.236,9.182,0.259,13.777,0.26
		c1.395,0,2.058-1.124,2.002-2.203c0.053-0.199,0.089-0.413,0.078-0.656C58.321,75.537,56.299,62.725,44.941,53.468z M45.273,87.921
		c0.506-8.586-1.1-17.107-7.424-23.413c-6.327-6.31-15.947-7.995-24.594-8.339c0.102-2.763,0.073-5.52-0.159-8.275
		c9.986,0.499,19.959,2.267,28.329,8.09c10.814,7.524,12.668,19.96,13.272,32.096C51.554,88.069,48.413,88.039,45.273,87.921z"/>
	<path style="fill:#1D1D1B;" d="M68.256,27.161C51.612,13.596,28.674,11.185,10.55,10.599c-0.002,0-0.005,0-0.007,0
		c-0.965,0-1.573,0.377-1.909,1.118l-0.117,0.205c-0.23,0.328-0.314,0.76-0.25,1.285c0.775,6.325,0.919,13.049,0.453,21.16
		c-0.036,0.625,0.117,1.122,0.454,1.479c0.375,0.397,0.978,0.625,1.653,0.625l0.309-0.01l0.186,0.051
		c0.229,0.062,0.43,0.093,0.63,0.097c12.231,0.269,27.765,1.809,39.426,11.425c9.883,8.15,13.851,21.325,12.132,40.277
		c-0.057,0.627,0.084,1.106,0.432,1.467l0.145,0.182c0.408,0.622,1.017,0.958,1.808,0.999c7.932,0.407,15.98,0.442,23.545,0.443
		c0.658,0,1.185-0.203,1.564-0.603c0.424-0.446,0.655-1.142,0.618-1.858l-0.011-0.197l0.052-0.191
		c0.073-0.274,0.102-0.505,0.091-0.745C90.852,66.996,88.219,43.433,68.256,27.161z M87.078,86.761l-1.318-0.005
		c-5.099-0.018-10.589-0.062-16.193-0.273l-1.276-0.048l0.075-1.274c0.992-16.82-3.165-29.997-12.356-39.165
		c-8.63-8.608-22.144-13.164-41.313-13.927l-1.245-0.05l0.046-1.245c0.188-5.078,0.099-9.667-0.27-14.028l-0.121-1.425l1.429,0.071
		c21.571,1.077,36.744,5.421,49.198,14.085c18.655,12.979,22.214,34.569,23.279,55.967L87.078,86.761z"/>
</g>
</svg>
