<?xml version="1.0" encoding="iso-8859-1"?>
<!-- Generator: Adobe Illustrator 17.0.2, SVG Export Plug-In . SVG Version: 6.00 Build 0)  -->
<!DOCTYPE svg PUBLIC "-//W3C//DTD SVG 1.1//EN" "http://www.w3.org/Graphics/SVG/1.1/DTD/svg11.dtd">
<svg version="1.1" id="Capa_1" xmlns="http://www.w3.org/2000/svg" xmlns:xlink="http://www.w3.org/1999/xlink" x="0px" y="0px"
	 width="100px" height="100px" viewBox="0 0 100 100" style="enable-background:new 0 0 100 100;" xml:space="preserve">
<g>
	<path style="fill:#1E1E1C;" d="M77.13,15.074c-5.967-5.163-13.407-7.247-21.098-8.168C35.549,0.373,17.278,13.885,9.3,32.62
		C0.701,52.814,4.793,75.356,23.438,87.948c19.035,12.856,45.198,7.572,59.799-9.351C99.196,60.101,95.257,30.762,77.13,15.074z
		 M42.046,88.453c-10.8-1.537-21.277-8.181-26.749-17.655c-4.892-8.471-4.851-19.078-2.658-28.33
		c3.371-14.224,13.571-27.061,26.902-30.133c0.02,0.001,0.037,0.007,0.057,0.007c4.797,0.142,9.864,0.15,14.817,0.686
		c0.469,0.147,0.938,0.293,1.41,0.465c0.781,0.285,1.464,0.248,2.036,0.014c5.343,0.899,10.446,2.611,14.799,6.037
		c9.631,7.578,14.708,21.243,14.43,33.212C86.567,75.316,63.416,91.494,42.046,88.453z"/>
	<path style="fill:#1E1E1C;" d="M36.743,45.992c4.477,0,4.477-6.943,0-6.943C32.266,39.049,32.266,45.992,36.743,45.992z"/>
	<path style="fill:#1E1E1C;" d="M60.697,46.339c4.478,0,4.478-6.943,0-6.943C56.22,39.396,56.22,46.339,60.697,46.339z"/>
	<path style="fill:#1E1E1C;" d="M30.123,62.982c-3.276,3.064,1.644,7.964,4.91,4.909c8.328-7.788,19.059-8.612,27.376-0.347
		c3.178,3.158,8.089-1.75,4.91-4.91C56.29,51.676,41.204,52.619,30.123,62.982z"/>
</g>
</svg>
