<?xml version="1.0" encoding="utf-8"?>
<!-- Generator: Adobe Illustrator 17.0.2, SVG Export Plug-In . SVG Version: 6.00 Build 0)  -->
<!DOCTYPE svg PUBLIC "-//W3C//DTD SVG 1.1//EN" "http://www.w3.org/Graphics/SVG/1.1/DTD/svg11.dtd">
<svg version="1.1" id="Capa_1" xmlns="http://www.w3.org/2000/svg" xmlns:xlink="http://www.w3.org/1999/xlink" x="0px" y="0px"
	 width="100px" height="100px" viewBox="0 0 100 100" enable-background="new 0 0 100 100" xml:space="preserve">
<g>
	<path fill="#1D1D1B" d="M20.274,71.3c-0.122-0.13-0.259-0.253-0.431-0.36c-0.591-0.369-1.549-0.89-1.833-1.582
		c-0.222-0.54,0.554-1,0.999-1.298c2.133-1.425,0.133-4.891-2.019-3.454c-1.655,1.105-3.141,2.627-3.03,4.764
		c0.113,2.16,1.839,3.702,3.542,4.813c0.204,0.236,0.463,0.439,0.799,0.579c2.035,0.845,3.965,2.04,5.471,3.656
		c1.551,1.664,0.149,2.251-1.638,2.82c-2.448,0.779-1.402,4.642,1.063,3.857c3.331-1.06,6.596-3.601,4.809-7.439
		C26.584,74.597,23.308,72.649,20.274,71.3z"/>
	<path fill="#1D1D1B" d="M27.914,59.752c-1.683-1.506-4.075,0.486-3.327,2.161c1.816,5.765,3.669,11.519,5.485,17.285
		c0.772,2.451,4.634,1.404,3.857-1.063c-0.248-0.789-0.501-1.576-0.75-2.365c0.957-0.549,1.911-1.102,2.831-1.71
		c0.201-0.133,0.372-0.297,0.517-0.477c0.631,0.665,1.278,1.315,1.893,1.997c1.731,1.92,4.55-0.918,2.828-2.828
		C37.083,68.133,32.546,63.897,27.914,59.752z M31.939,71.865c-0.446-1.403-0.889-2.807-1.336-4.209
		c1.071,1.013,2.122,2.048,3.168,3.087C33.17,71.132,32.558,71.504,31.939,71.865z"/>
	<path fill="#1D1D1B" d="M46.586,68.086c-0.461,0.376-1.064,0.776-1.685,1.12c-3.361-4.25-6.334-8.768-9.174-13.382
		c-1.349-2.192-4.81-0.184-3.454,2.019c3.215,5.225,6.611,10.304,10.479,15.071c0.231,0.285,0.487,0.462,0.75,0.568
		c0.423,0.215,0.907,0.291,1.362,0.113c1.682-0.655,3.153-1.54,4.549-2.681c0.845-0.691,0.713-2.116,0-2.828
		C48.586,67.258,47.429,67.397,46.586,68.086z"/>
	<path fill="#1D1D1B" d="M54.086,60.919c-0.269,0.219-0.704,0.505-1.118,0.753c-0.169,0.101-0.349,0.192-0.527,0.284
		c-0.794-0.956-1.542-1.94-2.268-2.939c0.398-0.251,0.791-0.511,1.17-0.791c0.875-0.646,1.313-1.72,0.718-2.736
		c-0.507-0.865-1.857-1.366-2.736-0.717c-0.446,0.329-0.912,0.629-1.383,0.92c-0.738-1.188-1.447-2.396-2.091-3.646
		c0.683-0.345,1.347-0.727,1.993-1.153c0.908-0.599,1.291-1.757,0.718-2.736c-0.528-0.902-1.825-1.318-2.736-0.718
		c-0.955,0.63-1.953,1.219-3.022,1.632c-0.676,0.261-1.2,0.766-1.389,1.405c-0.219,0.497-0.255,1.087,0.027,1.7
		c2.297,4.981,5.403,9.429,8.979,13.571c0.518,0.601,1.143,0.746,1.711,0.607c0.135-0.013,0.269-0.041,0.401-0.092
		c1.619-0.624,3.037-1.417,4.383-2.514c0.846-0.69,0.712-2.116,0-2.828C56.085,60.09,54.93,60.231,54.086,60.919z"/>
	<path fill="#1D1D1B" d="M94.259,7.601c-3.44-4.915-9.917-3.878-14.762-2.021c-2.791,1.07-5.635,2.386-8.218,3.894
		c-8.291,4.839-24.275,15.645-22.533,27.018C34.065,45.517,17.353,55.267,3.991,62.94c-0.316,0.181-0.539,0.409-0.696,0.657
		c-0.544,0.558-0.757,1.387-0.188,2.246c1.463,2.208,2.827,4.475,4.144,6.772c0.009,0.02,0.013,0.04,0.023,0.061
		c3.304,6.74,6.78,13.389,10.333,20c0.107,0.2,0.237,0.356,0.374,0.492c0.366,0.771,1.159,1.289,2.218,0.927
		c20.405-6.978,43.709-23.442,60.549-36.514c0.574-0.445,0.749-0.987,0.675-1.502c0.068-0.39,0.019-0.817-0.196-1.255
		c-1.307-2.662-2.796-5.2-4.378-7.675c1.769-1.309,3.405-2.773,4.824-4.164c4.517-4.428,8.459-9.482,11.131-15.24
		c1.898-4.09,3.898-10.01,3.288-15.079C95.869,10.822,95.302,9.091,94.259,7.601z M77.034,55.439
		c-15.59,12.1-37.742,27.534-56.475,34.279c-3.121-5.822-6.175-11.677-9.104-17.598c-0.041-0.206-0.107-0.416-0.228-0.63
		c-1.154-2.043-2.368-4.047-3.627-6.025c16.33-9.417,38.388-22.289,54.257-32.461c3.283,4.523,6.695,8.943,9.814,13.557
		c-0.982,0.515-1.977,0.914-2.966,1.15c-0.211-1.259-0.706-2.437-1.497-3.333c-0.109-0.124-0.223-0.241-0.34-0.353
		c-3.492-3.311-10.275-0.977-12.044,3.232c-0.897,2.134,0.062,5.948,1.998,7.372c2.287,1.682,5.984,2.086,8.542,0.825
		c1.692-0.834,2.761-2.469,3.213-4.298c1.659-0.317,3.308-0.973,4.9-1.839C74.741,51.306,75.939,53.338,77.034,55.439z
		 M62.15,46.143c0.659-0.065,1.353,0.12,2.022,0.704c0.289,0.253,0.493,0.529,0.634,0.818C63.886,47.388,62.996,46.895,62.15,46.143
		z M63.948,51.041c-0.839,0.86-2.032,1.407-3.12,1.191c-0.679-0.135-1.155-0.425-1.463-0.808c-0.647-0.808-0.543-2.031-0.005-3.1
		c0.025,0.026,0.041,0.054,0.068,0.08C60.873,49.788,62.394,50.623,63.948,51.041z M92.583,12.667
		c0.128,9.866-4.148,17.212-10.31,24.514c-1.691,2.004-4.302,4.902-7.252,7.189c-3.44-5.055-7.227-9.882-10.794-14.879
		c-0.13-0.182-0.279-0.322-0.435-0.445c-0.545-0.71-1.487-1.07-2.468-0.439c-2.903,1.865-5.998,3.813-9.208,5.805
		c0.293-8.222,12.644-16.52,18.295-20.271c5.338-3.542,19.773-12.238,22.18-1.561C92.59,12.61,92.583,12.636,92.583,12.667z"/>
</g>
</svg>
