<?xml version="1.0" encoding="iso-8859-1"?>
<!-- Generator: Adobe Illustrator 17.0.2, SVG Export Plug-In . SVG Version: 6.00 Build 0)  -->
<!DOCTYPE svg PUBLIC "-//W3C//DTD SVG 1.1//EN" "http://www.w3.org/Graphics/SVG/1.1/DTD/svg11.dtd">
<svg version="1.1" id="Capa_1" xmlns="http://www.w3.org/2000/svg" xmlns:xlink="http://www.w3.org/1999/xlink" x="0px" y="0px"
	 width="100px" height="100px" viewBox="0 0 100 100" style="enable-background:new 0 0 100 100;" xml:space="preserve">
<g>
	<path style="fill:#1E1E1C;" d="M78.944,44.303c2.004-2.717,3.758-6.705,3.78-6.766c0.19-0.503,0.169-1.062-0.059-1.55
		c-0.227-0.488-0.642-0.863-1.149-1.042c-0.297-0.104-0.616-0.221-0.952-0.344c-1.704-0.622-3.735-1.363-5.728-1.652
		c0.736-2.698,0.759-5.708,0.606-7.324c-0.051-0.541-0.319-1.038-0.744-1.376c-0.424-0.339-0.972-0.492-1.507-0.419
		c-2.118,0.278-4.726,0.665-7.279,1.293c-0.043-0.28-0.084-0.564-0.127-0.854c-0.315-2.143-0.641-4.358-1.481-6.465
		c-0.346-0.864-1.238-1.381-2.162-1.236c-2.625,0.404-4.737,2.165-6.601,3.719c-0.138,0.115-0.274,0.229-0.41,0.341
		c-0.954-1.505-1.959-2.979-2.939-4.418c-0.392-0.573-0.781-1.145-1.167-1.717c-0.371-0.552-0.993-0.882-1.658-0.882
		s-1.287,0.331-1.658,0.882c-0.548,0.812-1.054,1.667-1.544,2.495c-0.795,1.344-1.547,2.613-2.433,3.665
		c-0.081,0.096-0.15,0.177-0.209,0.244c-0.215-0.114-0.448-0.247-0.569-0.316c-1.83-1.042-3.767-2.556-5.516-3.923
		c-0.002-0.001-0.004-0.003-0.006-0.004c-0.869-0.68-2.127-0.526-2.808,0.344c-0.337,0.431-0.469,0.958-0.41,1.461
		c-0.052,0.374-0.24,1.308-0.786,3.551c-0.085,0.351-0.143,0.596-0.156,0.667c-0.087,0.452-0.148,0.884-0.206,1.29
		c-0.057,0.398-0.13,0.919-0.212,1.19c-0.124,0.012-0.359,0.015-0.61-0.008c-1.395-0.125-2.92-0.502-4.396-0.867
		c-0.811-0.2-1.615-0.399-2.406-0.562c-0.66-0.137-1.344,0.068-1.819,0.544c-0.477,0.477-0.681,1.161-0.544,1.82
		c0.039,0.19,0.116,0.715,0.223,1.417c0.375,2.482,0.668,4.299,0.941,5.637c-2.669,0.405-5.864,1.464-6.986,1.89
		c-0.615,0.233-1.064,0.767-1.221,1.406c-0.157,0.639,0.021,1.326,0.459,1.818c0.502,0.565,3.006,4.06,4.087,5.841
		c-1.712,1.611-3.82,3.101-6.051,4.269c-0.59,0.308-0.987,0.89-1.062,1.551c-0.073,0.662,0.188,1.316,0.695,1.747
		c0.806,0.683,1.904,1.196,3.068,1.74c1.038,0.484,2.873,1.342,3.339,2.046c-0.594,1.363-2.917,4.97-3.821,5.911
		c-0.521,0.241-0.936,0.706-1.094,1.306c-0.28,1.068,0.357,2.162,1.426,2.443c0.001,0,0.002,0,0.004,0.001
		c0.762,0.199,1.843,0.301,3.096,0.418c1.209,0.114,3.552,0.334,4.573,0.701c-0.064,1.663-0.81,5.635-1.24,6.77
		c-0.378,0.436-0.565,1.03-0.463,1.644c0.184,1.088,1.204,1.818,2.305,1.641c0.002-0.001,0.004-0.001,0.007-0.002
		c0.942-0.159,1.955-0.521,3.026-0.902c1.321-0.471,2.819-1.005,3.897-1.005c0.316,0,0.567,0.047,0.677,0.093
		c0.625,0.598,0.904,3.768,1.023,5.121c0.086,0.981,0.161,1.828,0.298,2.494c0.191,0.931,1.01,1.598,1.959,1.598
		c0.702,0,0.702,0,3.66-2.322c0.666-0.522,1.234-0.969,1.318-1.033c0.729-0.545,1.882-1.421,2.446-1.247
		c0.81,0.832,3.211,4.146,3.715,5.31c-0.001,0.674,0.339,1.332,0.955,1.71c0.326,0.2,0.687,0.295,1.043,0.295
		c0.673,0,1.33-0.339,1.707-0.955c0.001-0.001,0.002-0.003,0.003-0.004c0.384-0.627,0.743-1.389,1.125-2.194
		c0.803-1.698,2.001-4.232,3.232-4.422c1.053,0.372,4.243,2.199,5.169,3.087c0.16,0.598,0.595,1.113,1.217,1.352
		c1.03,0.393,2.188-0.12,2.583-1.152l0.001-0.001c0-0.001,0-0.001,0-0.002c0.074-0.193,0.25-0.66,1.116-5.044
		c0.172-0.873,0.313-1.591,0.428-2.184c0.167,0.045,0.335,0.091,0.506,0.138c2.012,0.548,4.292,1.169,6.354,1.169
		c0.326,0,0.645-0.015,0.953-0.047c1.07-0.109,1.862-1.047,1.792-2.12c-0.031-0.469-0.272-1.68-1.03-5.328
		c-0.154-0.743-0.327-1.573-0.471-2.278c0.359-0.105,0.715-0.212,1.065-0.318c2.002-0.603,3.893-1.173,5.799-1.229
		c0.67-0.02,1.286-0.374,1.64-0.943c0.354-0.569,0.399-1.278,0.12-1.888c-0.959-2.097-2.434-4.198-3.891-6.142
		c0.553-0.361,1.224-0.818,2.043-1.395c3.806-2.674,4.153-3.279,4.34-3.604c0.458-0.796,0.314-1.802-0.347-2.438
		C83.109,46.783,81.016,45.507,78.944,44.303z M75.374,53.298c-0.273,0.061-0.539,0.18-0.776,0.361
		c-0.879,0.669-1.048,1.924-0.379,2.803l0.319,0.419c1.055,1.383,2.201,2.885,3.154,4.37c-1.275,0.269-2.505,0.64-3.713,1.003
		c-0.926,0.279-1.801,0.543-2.684,0.76c-1.893,0.463-1.529,2.279-1.265,3.605c0.154,0.77,0.369,1.805,0.592,2.875
		c0.157,0.758,0.35,1.684,0.521,2.521c-1.148-0.194-2.399-0.535-3.622-0.868c-0.968-0.264-1.882-0.513-2.757-0.694
		c-1.079-0.223-2.137,0.468-2.363,1.547c-0.021,0.096-0.033,0.192-0.039,0.287c-0.086,0.57-0.563,3.077-0.994,5.213
		c-2.107-1.396-4.747-2.684-5.788-2.697c-3.133,0-4.932,2.641-6.219,5.158c-1.313-1.945-2.907-3.914-3.585-4.304
		c-0.694-0.399-1.448-0.602-2.241-0.602c-1.947,0-3.607,1.241-4.705,2.062c-0.051,0.037-0.453,0.353-0.982,0.768
		c-0.292-2.896-0.829-5.83-2.989-6.936c-0.749-0.384-1.613-0.578-2.57-0.578c-1.42,0-2.887,0.423-4.251,0.89
		c0.581-2.663,1.099-6.156,0.179-7.372c-1.127-1.488-3.396-1.915-6.697-2.252c1.448-2.079,3.339-5.126,3.11-6.569
		c-0.415-2.609-2.91-3.97-5.129-5.022c1.838-1.241,3.521-2.65,4.908-4.121c1.351-1.432,0.187-3.137-1.928-6.231
		c-0.379-0.554-0.813-1.174-1.237-1.766c1.702-0.494,3.66-0.949,4.855-0.949c0.272,0,0.384,0.027,0.388,0.028
		c1.067,0.265,2.158-0.38,2.427-1.453c0.161-0.639-0.006-1.284-0.395-1.757c-0.306-0.905-0.755-3.616-1.047-5.488
		c1.439,0.353,2.918,0.69,4.413,0.824c0.266,0.024,0.511,0.035,0.739,0.035c3.746,0,4.173-3.019,4.402-4.641
		c0.049-0.346,0.101-0.714,0.169-1.072c0.016-0.073,0.06-0.252,0.12-0.5c0.1-0.409,0.192-0.789,0.276-1.141
		c1.096,0.807,2.235,1.588,3.382,2.242c1.072,0.611,1.846,1.012,2.775,1.012c1.495,0,2.391-1.063,3.044-1.84
		c1.03-1.225,1.862-2.597,2.657-3.938c1.18,1.734,2.368,3.511,3.411,5.291c0.28,0.477,0.743,0.816,1.282,0.938
		c0.537,0.121,1.102,0.017,1.561-0.292c0.823-0.555,1.625-1.223,2.399-1.869c1.008-0.84,2.037-1.698,3.058-2.256
		c0.29,1.182,0.476,2.441,0.668,3.748c0.154,1.049,0.313,2.134,0.535,3.197c0.115,0.553,0.459,1.031,0.946,1.317
		c0.488,0.286,1.07,0.353,1.611,0.183c2.116-0.665,4.522-1.121,6.589-1.44c-0.079,2.176-0.533,4.552-1.366,5.759
		c-0.478,0.692-0.471,1.61,0.017,2.295c0.488,0.686,1.354,0.992,2.163,0.768c0.25-0.069,0.554-0.104,0.902-0.104
		c1.409,0,3.242,0.565,4.826,1.123c-0.956,1.753-2.363,4.147-3.053,4.968c-0.391,0.161-0.733,0.447-0.963,0.839
		c-0.554,0.948-0.24,2.165,0.702,2.727c0.497,0.296,1.01,0.593,1.528,0.893c1.393,0.805,2.817,1.629,4.077,2.538
		C78.696,51.148,76.248,52.836,75.374,53.298z"/>
	<path style="fill:#1E1E1C;" d="M87.9,42.593c0.597-0.839,1.303-1.958,2.176-3.44c1.382-2.347,2.922-5.232,3.231-6.052
		c0.19-0.503,0.169-1.062-0.058-1.55c-0.228-0.488-0.642-0.864-1.149-1.042c-0.4-0.141-0.829-0.297-1.28-0.462
		c-2.476-0.903-5.477-1.999-8.311-2.271c1.104-3.485,1.265-7.716,1.021-10.301c-0.051-0.541-0.319-1.038-0.744-1.376
		c-0.425-0.339-0.971-0.491-1.507-0.419c-3.012,0.395-6.767,0.956-10.372,1.896c-0.099-0.614-0.19-1.24-0.285-1.882
		c-0.416-2.825-0.846-5.746-1.939-8.488c-0.345-0.865-1.235-1.378-2.162-1.236c-3.325,0.512-6.072,2.803-8.496,4.824
		c-0.39,0.324-0.77,0.642-1.143,0.944C55.49,9.503,54,7.317,52.548,5.188c-0.521-0.763-1.039-1.524-1.553-2.286
		c-0.372-0.551-0.993-0.882-1.658-0.882c-0.666,0-1.287,0.331-1.659,0.882c-0.72,1.07-1.392,2.204-2.041,3.301
		c-1.079,1.822-2.098,3.542-3.317,4.992c-0.311,0.369-0.513,0.589-0.643,0.719c-0.364-0.16-0.959-0.499-1.247-0.663
		c-2.489-1.417-5.1-3.458-7.464-5.305c0,0,0,0-0.001-0.001c-0.869-0.679-2.096-0.501-2.776,0.37
		c-0.664,0.85-0.503,2.091,0.316,2.782l-0.001,0.001c-0.608-0.475-0.745-1.134-0.732-1.417c-0.021,0.467-0.386,2.16-1.084,5.032
		c-0.113,0.467-0.19,0.792-0.208,0.88c-0.113,0.593-0.194,1.16-0.27,1.692c-0.309,2.187-0.309,2.187-1.259,2.187
		c-0.176,0-0.364-0.01-0.568-0.028c-1.914-0.172-3.979-0.682-5.976-1.176c-1.076-0.266-2.145-0.529-3.194-0.747
		c-0.663-0.137-1.344,0.068-1.819,0.544c-0.477,0.476-0.681,1.16-0.544,1.819c0.053,0.259,0.158,0.971,0.303,1.926
		c0.581,3.846,1.013,6.443,1.406,8.212c-3.612,0.427-8.329,1.987-9.914,2.589c-0.618,0.235-1.075,0.767-1.229,1.411
		c-0.154,0.644,0.026,1.329,0.472,1.818c0.772,0.848,4.527,6.148,5.812,8.38c-2.398,2.336-5.42,4.506-8.628,6.185
		c-0.589,0.309-0.986,0.89-1.061,1.551c-0.073,0.662,0.188,1.316,0.695,1.746c1.008,0.854,2.438,1.522,3.951,2.23
		c1.891,0.883,4.437,2.072,4.919,3.324c-0.612,1.687-4.198,7.272-5.455,8.489c-0.573,0.226-1.035,0.712-1.204,1.354
		c-0.28,1.068,0.357,2.162,1.426,2.443c0.966,0.254,2.389,0.387,4.036,0.542c1.864,0.175,5.596,0.525,6.731,1.149
		c0.063,2-1.117,8.347-1.754,9.868c-0.428,0.441-0.647,1.074-0.537,1.728c0.183,1.088,1.204,1.818,2.304,1.64
		c1.205-0.203,2.534-0.677,3.941-1.179c1.818-0.648,3.88-1.383,5.438-1.383c0.538,0,0.964,0.085,1.304,0.259
		c1.041,0.533,1.491,5.647,1.64,7.328c0.113,1.291,0.212,2.405,0.387,3.257c0.191,0.93,1.01,1.598,1.959,1.598
		c0.707,0,0.707,0,4.515-2.988c0.883-0.693,1.631-1.28,1.74-1.363c1.228-0.92,2.93-2.241,4.056-1.699
		c1.055,0.995,4.676,6.001,5.262,7.542c-0.048,0.718,0.294,1.438,0.95,1.841c0.326,0.2,0.688,0.295,1.044,0.295
		c0.673,0,1.329-0.339,1.707-0.954c0,0,0,0,0-0.001c0.496-0.809,0.971-1.812,1.473-2.875c1.235-2.613,2.918-6.173,5.014-6.309
		c1.357,0.402,6.286,3.217,7.442,4.467c0.118,0.669,0.575,1.262,1.256,1.522c1.03,0.394,2.188-0.121,2.583-1.153
		c0-0.002,0.001-0.003,0.001-0.004c0.078-0.203,0.314-0.838,1.459-6.633c0.309-1.561,0.54-2.733,0.709-3.628
		c0.449,0.118,0.911,0.244,1.384,0.373c2.647,0.722,5.647,1.539,8.313,1.539c0.413,0,0.815-0.02,1.206-0.06
		c1.07-0.109,1.862-1.047,1.792-2.121c-0.039-0.581-0.375-2.268-1.367-7.041c-0.252-1.215-0.539-2.598-0.75-3.647
		c0.679-0.193,1.351-0.396,2.01-0.594c2.722-0.82,5.293-1.595,7.931-1.672c0.67-0.02,1.285-0.373,1.64-0.942
		s0.399-1.278,0.121-1.888c-1.35-2.952-3.499-5.938-5.564-8.667c0.821-0.521,1.896-1.241,3.319-2.242
		c4.966-3.491,5.415-4.271,5.606-4.604c0.457-0.796,0.313-1.801-0.348-2.438C93.863,46.068,90.843,44.295,87.9,42.593z
		 M84.34,55.051c-0.303,0.054-0.598,0.179-0.859,0.378c-0.879,0.669-1.049,1.924-0.38,2.803c0.001,0,0.001,0,0.001,0l0.422,0.553
		c1.619,2.122,3.396,4.452,4.777,6.735c-2.021,0.354-3.964,0.939-5.864,1.512c-1.245,0.375-2.422,0.729-3.636,1.027
		c-1.883,0.478-1.554,2.122-1.174,4.026c0.205,1.024,0.491,2.403,0.788,3.831c0.272,1.31,0.621,2.989,0.888,4.321
		c-1.822-0.21-3.87-0.768-5.864-1.312c-1.286-0.35-2.5-0.681-3.652-0.919l-0.421,2.034l-1.974-0.237
		c-0.073,0.608-0.899,4.93-1.551,8.105c-2.799-1.985-6.825-4.055-8.195-4.072c-4.225,0-6.551,4.095-8.229,7.565
		c-1.779-2.786-4.276-5.973-5.217-6.514c-0.824-0.475-1.719-0.715-2.66-0.715c-2.381,0-4.408,1.517-5.886,2.622
		c-0.082,0.061-0.872,0.681-1.811,1.417c-0.15,0.118-0.306,0.24-0.463,0.363c-0.363-4.068-0.876-8.494-3.749-9.967
		c-0.905-0.463-1.957-0.698-3.128-0.698c-2.181,0-4.508,0.806-6.582,1.544c0.832-3.545,1.767-8.934,0.598-10.479
		c-1.466-1.936-4.918-2.413-9.639-2.859c1.912-2.672,5.007-7.391,4.715-9.236c-0.546-3.44-4.26-5.175-7.244-6.57
		c-0.108-0.05-0.217-0.102-0.326-0.152c2.807-1.784,5.382-3.876,7.451-6.071c1.32-1.402,0.436-2.978-2.645-7.487
		c-0.669-0.979-1.474-2.119-2.197-3.114c2.504-0.769,5.714-1.571,7.592-1.571c0.403,0,0.609,0.04,0.681,0.058
		c0.001,0,0.002,0,0.003,0c1.068,0.27,2.157-0.382,2.427-1.454c0.17-0.679-0.029-1.364-0.471-1.844
		c-0.485-1.289-1.241-6.067-1.624-8.574c0.068,0.017,0.137,0.034,0.205,0.051c2.143,0.529,4.358,1.077,6.576,1.276
		c0.333,0.03,0.642,0.044,0.928,0.044c4.424,0,4.902-3.386,5.22-5.626c0.066-0.472,0.138-0.975,0.234-1.484
		c0.021-0.095,0.083-0.35,0.169-0.704c0.232-0.957,0.434-1.782,0.601-2.498c1.696,1.28,3.483,2.545,5.274,3.565
		c1.341,0.764,2.3,1.264,3.378,1.264c1.686,0,2.721-1.231,3.553-2.22c1.433-1.702,2.585-3.647,3.698-5.529
		c0.111-0.188,0.222-0.374,0.331-0.558c1.775,2.603,3.6,5.29,5.184,7.989c0.279,0.476,0.743,0.815,1.281,0.938
		c0.536,0.122,1.103,0.017,1.561-0.292c1.071-0.722,2.129-1.604,3.152-2.457c1.617-1.349,3.276-2.732,4.96-3.466
		c0.524,1.841,0.815,3.815,1.119,5.877c0.205,1.395,0.417,2.837,0.71,4.239c0.115,0.553,0.459,1.031,0.946,1.317
		c0.487,0.285,1.07,0.353,1.611,0.182c3.146-0.989,6.753-1.634,9.704-2.068c-0.012,3.245-0.658,6.973-1.965,8.869
		c-0.478,0.692-0.471,1.61,0.017,2.295c0.488,0.686,1.352,0.992,2.163,0.768c0.393-0.109,0.859-0.164,1.387-0.164
		c2.228,0,5.021,0.938,7.418,1.804c-1.318,2.472-3.643,6.472-4.647,7.584c-0.45,0.146-0.85,0.453-1.107,0.893
		c-0.553,0.948-0.239,2.164,0.703,2.726c0.661,0.394,1.343,0.788,2.033,1.188c2.149,1.243,4.355,2.518,6.236,3.973
		C89.644,51.604,85.579,54.425,84.34,55.051z"/>
	<path style="fill:#1E1E1C;" d="M32.409,44.543c-1.271-2.14-1.201-2.542,1.341-2.668c2.246-0.111,2.257-3.612,0-3.5
		c-4.885,0.242-6.913,3.183-4.563,7.581c1.112,2.083,2.624,3.933,3.816,5.971c1.177,2.012,1.3,2.917-1.253,3.199
		c-2.218,0.245-2.242,3.748,0,3.5c4.963-0.549,6.814-3.639,4.477-8.102C35.13,48.429,33.615,46.573,32.409,44.543z"/>
	<path style="fill:#1E1E1C;" d="M44.362,37.513c-0.872-1.043-2.589-0.406-2.925,0.772c-1.752,6.144-2.185,12.51-2.812,18.84
		c-0.223,2.246,3.279,2.224,3.5,0c0.135-1.36,0.265-2.719,0.398-4.078c1.238,0.154,2.477,0.263,3.724,0.304
		c0.181,1.407,0.352,2.795,0.565,4.114c0.361,2.224,3.733,1.277,3.375-0.93C49.12,49.958,48.822,42.846,44.362,37.513z
		 M42.896,49.594c0.252-2.148,0.55-4.288,0.973-6.409c0.942,2.055,1.48,4.332,1.869,6.641
		C44.787,49.785,43.839,49.715,42.896,49.594z"/>
	<path style="fill:#1E1E1C;" d="M57.875,54.75c-1.019,0.095-1.928,0.074-2.885-0.031c-0.466-5.331-0.954-10.658-1.615-15.969
		c-0.275-2.209-3.778-2.236-3.5,0c0.725,5.819,1.242,11.658,1.75,17.5c0.062,0.719,0.481,1.555,1.285,1.688
		c1.671,0.276,3.268,0.471,4.965,0.312C60.103,58.042,60.123,54.541,57.875,54.75z"/>
	<path style="fill:#1E1E1C;" d="M66.664,40.304c2.226-0.214,2.247-3.676,0-3.46c-1.506,0.145-2.977,0.29-4.465,0.556
		c-0.757,0.135-1.285,0.952-1.285,1.668v17.134c0,0.389,0.111,0.706,0.287,0.959c0.168,0.684,0.707,1.265,1.63,1.265h3.5
		c2.257,0,2.257-3.46,0-3.46h-1.917V49.53h1.75c0.954,0,1.75-0.787,1.75-1.73c0-0.943-0.796-1.73-1.75-1.73h-1.75v-5.518
		C65.162,40.452,65.912,40.365,66.664,40.304z"/>
</g>
</svg>
