<?xml version="1.0" encoding="utf-8"?>
<!-- Generator: Adobe Illustrator 17.0.2, SVG Export Plug-In . SVG Version: 6.00 Build 0)  -->
<!DOCTYPE svg PUBLIC "-//W3C//DTD SVG 1.1//EN" "http://www.w3.org/Graphics/SVG/1.1/DTD/svg11.dtd">
<svg version="1.1" id="Capa_1" xmlns="http://www.w3.org/2000/svg" xmlns:xlink="http://www.w3.org/1999/xlink" x="0px" y="0px"
	 width="100px" height="100px" viewBox="0 0 100 100" enable-background="new 0 0 100 100" xml:space="preserve">
<g>
	<path fill="#1D1D1B" d="M88.121,7.216c-0.204-0.859-0.874-1.578-2.024-1.549h0C71.988,6.011,62.219,6.028,48.107,6.029
		c-0.16,0-0.308,0.018-0.45,0.045c-0.142-0.027-0.29-0.045-0.45-0.045c-14.111,0-17.368-0.018-31.476-0.362h0
		c-1.151-0.028-1.82,0.691-2.024,1.549c-0.066,0.199-0.12,0.405-0.147,0.621c-0.339,2.738,0.09,5.375,1.185,7.878
		c0.129,0.968,0.816,1.86,2.071,1.891c0.417,0.01,0.822,0.02,1.22,0.03c0.756,6.686,3.787,11.912,8.971,16.346
		c5.358,4.582,8.738,8.808,13.396,14.156c-9.387,6.348-16.973,22.096-18.986,34.145c-1.172,0.029-2.344,0.047-3.516,0.085
		c-0.204,0.007-0.388,0.042-0.562,0.09c-1.363-0.08-2.797,0.989-2.254,2.658c0.655,2.015,1.095,4.064,1.447,6.151
		c0.002,0.017,0.011,0.031,0.015,0.047c0.104,0.991,0.792,1.908,2.079,1.908c10.259,0.001,20.512,0.04,30.752,0.724
		c0.053,0.004,0.101-0.032,0.145-0.084c0.225,0.065,0.472,0.103,0.755,0.084c10.24-0.684,22.665-0.723,32.923-0.724
		c1.287,0,1.974-0.917,2.079-1.908c0.004-0.017,0.012-0.031,0.015-0.047c0.352-2.087,0.792-4.136,1.447-6.151
		c0.542-1.669-0.892-2.738-2.254-2.658c-0.174-0.049-0.359-0.084-0.563-0.09c-1.172-0.038-2.344-0.056-3.516-0.085
		c-2.013-12.049-9.599-27.797-18.986-34.145c4.658-5.349,8.038-9.574,13.396-14.156c5.184-4.434,8.214-9.66,8.971-16.346
		c0.397-0.01,0.804-0.019,1.22-0.03c1.254-0.031,1.942-0.923,2.071-1.891c1.095-2.503,1.524-5.14,1.186-7.878
		C88.24,7.621,88.187,7.415,88.121,7.216z M81.807,86.659c-0.176,0.737-0.329,1.48-0.472,2.226
		c-9.636,0.007-21.438,0.077-31.057,0.719c-0.266,0.018-0.499,0.083-0.714,0.17c-0.055-0.1-0.116-0.165-0.185-0.17
		c-9.619-0.642-19.25-0.712-28.886-0.719c-0.143-0.746-0.295-1.489-0.472-2.226c9.787-0.273,19.571-0.264,29.357,0.051
		c0.058,0.002,0.108-0.043,0.155-0.106c0.223,0.07,0.465,0.115,0.744,0.106C60.065,86.395,72.02,86.386,81.807,86.659z
		 M56.597,47.263c-0.598,0.788-0.506,1.563-0.074,2.145c0.129,0.442,0.396,0.859,0.854,1.187
		c8.148,5.854,16.511,20.879,18.663,31.583c-7.863-0.126-17.896-0.063-25.761,0.19c-0.27,0.009-0.506,0.067-0.725,0.148
		c-0.052-0.087-0.109-0.146-0.175-0.148c-7.864-0.253-15.727-0.316-23.59-0.19c2.152-10.704,10.515-25.729,18.663-31.583
		c0.457-0.328,0.724-0.745,0.854-1.187c0.433-0.581,0.524-1.356-0.074-2.145c-7.837-10.329-20.958-15.5-22.856-29.524
		c9.45,0.223,13.4,0.294,25.195,0.59c0.031,0.001,0.057-0.006,0.087-0.006c0.031,0,0.057,0.007,0.088,0.006
		c11.795-0.295,22.257-0.367,31.707-0.59C77.555,31.763,64.434,36.935,56.597,47.263z M83.412,13.296
		c-13.335,0.304-22.332,0.358-35.666,0.692c-0.031,0.001-0.057,0.009-0.088,0.011c-0.03-0.002-0.056-0.01-0.087-0.011
		c-13.334-0.334-15.819-0.387-29.154-0.692c-0.395-1.053-0.589-2.141-0.623-3.249c13.421,0.298,15.991,0.322,29.415,0.323
		c0.16,0,0.308-0.018,0.45-0.045c0.142,0.027,0.29,0.045,0.45,0.045c13.424,0,22.506-0.025,35.928-0.323
		C84.001,11.155,83.807,12.243,83.412,13.296z"/>
	<path fill="#1D1D1B" d="M32.915,28.118c-0.678,0.728-0.914,1.889-0.039,2.823c4.997,5.333,10.176,7.422,15.66,12.256
		c0.291,0.256,0.601,0.401,0.913,0.475c0.577,0.485,1.393,0.668,2.243,0.185c7.222-4.103,13.024-6.89,17.754-13.669
		c1.037-1.485-0.304-2.91-1.731-2.968c-0.213-0.069-0.446-0.113-0.714-0.105c-10.78,0.327-21.561,0.317-32.341,0
		C33.786,27.088,33.208,27.525,32.915,28.118z M63.546,31.277c-3.611,4.519-7.852,5.371-12.824,8.393
		c-4.105-3.657-8.043-4.424-11.862-8.376C47.089,31.472,55.317,31.472,63.546,31.277z"/>
	<path fill="#1D1D1B" d="M49.703,53.317c-0.347-0.014-0.716,0.065-1.094,0.288c-8.422,4.978-13.974,12.85-16.258,22.327
		c-0.171,0.71,0.015,1.3,0.376,1.737c0.127,0.884,0.768,1.633,1.934,1.529c10.767-0.96,21.551-0.676,32.341-0.34
		c1.42,0.044,2.065-1.12,1.955-2.217c0.088-0.313,0.109-0.661,0.015-1.049c-2.342-9.701-8.321-17.794-17.279-22.327
		C50.96,52.895,50.256,52.984,49.703,53.317z M64.484,74.699c-9.214-0.274-18.424-0.43-27.623,0.25
		c2.271-7.467,6.801-13.602,13.619-17.696C57.469,61.068,62.188,67.173,64.484,74.699z"/>
</g>
</svg>
