<?xml version="1.0" encoding="iso-8859-1"?>
<!-- Generator: Adobe Illustrator 17.0.2, SVG Export Plug-In . SVG Version: 6.00 Build 0)  -->
<!DOCTYPE svg PUBLIC "-//W3C//DTD SVG 1.1//EN" "http://www.w3.org/Graphics/SVG/1.1/DTD/svg11.dtd">
<svg version="1.1" id="Capa_1" xmlns="http://www.w3.org/2000/svg" xmlns:xlink="http://www.w3.org/1999/xlink" x="0px" y="0px"
	 width="100px" height="100px" viewBox="0 0 100 100" style="enable-background:new 0 0 100 100;" xml:space="preserve">
<g>
	<path style="fill:#1D1D1B;" d="M90.223,30.332c-0.097-0.486-0.302-0.969-0.671-1.419c-5.036-6.141-10.715-12.084-15.225-18.708
		c-2.544-3.737-5.087-2.995-9.144-3.254c-4.342-0.277-8.706-0.27-13.054-0.387c-8.749-0.236-17.5-0.319-26.25-0.531
		C20.9,5.911,15.921,5.714,10.947,5.43c-0.059-0.003-0.109,0.009-0.167,0.009c-1.577-0.431-3.51,0.508-3.51,2.84
		c0,26.255,0.589,52.614-2.022,78.756c-0.191,1.918,1.04,2.879,2.389,2.91c0.228,0.075,0.469,0.13,0.736,0.142
		c26.398,1.18,52.816,1.016,79.229,0.814c1.611-0.012,2.485-1.274,2.636-2.647c0.065-0.251,0.113-0.517,0.122-0.812
		c0.55-18.584,0.875-37.175,0.184-55.76C90.524,31.161,90.406,30.714,90.223,30.332z M53.236,12.702
		c1.158,0.028,2.316,0.064,3.474,0.096c-0.133,5.615-0.161,11.231-0.167,16.848h-3.604C53.11,23.999,53.298,18.354,53.236,12.702z
		 M26.395,12.142c7.107,0.191,14.217,0.292,21.326,0.433c0.077,6.577-0.189,13.144-0.376,19.717
		c-0.014,0.498,0.062,0.931,0.206,1.303c0.284,1.174,1.127,2.157,2.552,2.157h9.007c1.177,0,1.956-0.673,2.354-1.568
		c0.357-0.474,0.587-1.099,0.587-1.892c0-6.44,0.021-12.878,0.171-19.315c1.411,0.051,2.822,0.098,4.233,0.163
		c-0.12,9.346,0.011,18.686,0.286,28.026c-13.502-0.447-27.031,0.485-40.487-0.998C26.485,30.827,26.418,21.485,26.395,12.142z
		 M66.112,84.922c-0.038-1.038-0.041-2.076,0.001-3.114c2.357-0.346,4.897-0.109,7.218,0.447c0.139,0.875,0.255,1.754,0.377,2.633
		C71.176,84.902,68.644,84.915,66.112,84.922z M84.918,84.815c-2.062,0.015-4.123,0.029-6.184,0.042
		c-0.3-1.753-0.45-3.529-0.824-5.272c-0.184-0.857-0.944-1.498-1.746-1.746c-4.049-1.249-8.971-1.698-13.079-0.5
		c-1.149,0.335-1.726,1.274-1.835,2.411c-0.167,1.729-0.201,3.453-0.138,5.179c-16.695,0.016-33.389-0.154-50.076-0.843
		c2.186-24.064,1.793-48.3,1.754-72.462c2.696,0.141,5.393,0.251,8.09,0.346c0.025,10.167,0.12,20.334-0.19,30.498
		c-0.029,0.951,0.274,1.666,0.747,2.156c0.438,0.671,1.105,1.179,2.011,1.303c15.204,2.082,30.51,0.709,45.772,1.425
		c0.37,0.017,0.691-0.046,0.984-0.151c1.177-0.216,2.197-1.182,2.141-2.902c-0.306-9.301-0.461-18.6-0.398-27.904
		c4.342,5.395,8.717,10.757,13.107,16.104C85.675,49.936,85.413,67.378,84.918,84.815z"/>
	<path style="fill:#1D1D1B;" d="M16.75,71.25c0,2.588-0.03,5.17-0.25,7.75c-0.273,3.214,4.729,3.188,5,0
		c0.22-2.58,0.25-5.162,0.25-7.75C21.75,68.026,16.75,68.026,16.75,71.25z"/>
</g>
</svg>
