<?xml version="1.0" encoding="iso-8859-1"?>
<!-- Generator: Adobe Illustrator 17.0.2, SVG Export Plug-In . SVG Version: 6.00 Build 0)  -->
<!DOCTYPE svg PUBLIC "-//W3C//DTD SVG 1.1//EN" "http://www.w3.org/Graphics/SVG/1.1/DTD/svg11.dtd">
<svg version="1.1" id="Capa_1" xmlns="http://www.w3.org/2000/svg" xmlns:xlink="http://www.w3.org/1999/xlink" x="0px" y="0px"
	 width="100px" height="100px" viewBox="0 0 100 100" style="enable-background:new 0 0 100 100;" xml:space="preserve">
<g>
	<path style="fill:#1D1D1B;" d="M92.979,70.538c-0.589-0.76-1.314-1.465-2.012-2.123c-4.998-4.715-12.516-7.611-19.269-5.23
		c-1.841,0.649-3.77,1.683-5.307,2.892c-2.655,2.087-4.335,5.154-4.986,8.446c-2.965-4.5-5.814-9.069-8.594-13.681
		c0.118-0.199,0.238-0.396,0.356-0.595c6.708-11.294,13.032-22.81,19.572-34.202c3.646-6.352,7.358-12.668,11.236-18.882
		c1.688-2.704-2.432-5.437-4.118-2.734C69.329,21.297,60.023,38.894,49.931,56.01C39.839,38.894,30.532,21.297,20.005,4.428
		c-1.687-2.703-5.806,0.03-4.118,2.734c7.005,11.222,13.447,22.774,19.961,34.283c3.677,6.496,7.347,13.024,11.166,19.458
		c-2.769,4.59-5.606,9.139-8.557,13.618c-0.651-3.292-2.331-6.359-4.986-8.446c-6.102-4.796-14.585-4.758-20.956-0.489
		c-1.839,1.232-3.711,2.784-5.184,4.441c-2.092,2.354-3.279,6.331-3.353,9.415c-0.09,3.727,1.733,7.123,4.38,9.685
		c5.877,5.69,15.892,6.047,22.619,1.685c5.319-3.45,8.362-8.663,11.796-13.846c2.456-3.707,4.813-7.481,7.123-11.282
		c2.055,3.357,4.158,6.683,6.344,9.949c3.324,4.965,6.09,10.06,10.899,13.819c4.5,3.516,10.192,5.411,15.84,3.879
		c1.512-0.41,2.957-1.03,4.346-1.751c1.3-0.674,3.123-1.431,4.178-2.453c2.545-2.464,4.321-5.683,4.385-9.267
		c0.042-2.374-0.651-5.359-1.869-7.683C93.706,71.581,93.358,71.026,92.979,70.538z M28.268,84.063
		c-0.029,0.033-0.047,0.067-0.073,0.1c-3.208,2.003-7.644,4.228-11.38,2.331c-2.696-1.368-3.677-4.578-3.667-7.4
		c0.01-3.087,1.437-6.218,4.082-7.895c3.202-2.029,7.202-1.181,10.59,0.25c0.753,0.727,1.456,1.493,2.096,2.305
		c0.346,0.607,0.676,1.222,0.967,1.857C31.601,78.491,30.699,81.32,28.268,84.063z M83.043,85.24
		c-0.368,0.184-0.736,0.368-1.104,0.552c-0.063,0.032-0.116,0.075-0.173,0.115c-4.7,0.986-9.581-0.187-12.081-4.564
		c-2.638-4.62,0.979-8.725,4.984-10.717c0.858-0.262,1.701-0.418,2.571-0.463c3.005,0.268,5.842,1.426,8.071,3.703
		C89.148,77.784,86.549,82.385,83.043,85.24z"/>
</g>
</svg>
