<?xml version="1.0" encoding="iso-8859-1"?>
<!-- Generator: Adobe Illustrator 17.0.2, SVG Export Plug-In . SVG Version: 6.00 Build 0)  -->
<!DOCTYPE svg PUBLIC "-//W3C//DTD SVG 1.1//EN" "http://www.w3.org/Graphics/SVG/1.1/DTD/svg11.dtd">
<svg version="1.1" id="Capa_1" xmlns="http://www.w3.org/2000/svg" xmlns:xlink="http://www.w3.org/1999/xlink" x="0px" y="0px"
	 width="100px" height="100px" viewBox="0 0 100 100" style="enable-background:new 0 0 100 100;" xml:space="preserve">
<g>
	<path style="fill:#1D1D1B;" d="M94.558,8.119c-0.196-0.277-0.453-0.51-0.765-0.689c-2.371-1.369-4.914-2.063-7.559-2.063
		c-5.208,0-10.709,2.523-17.312,7.94c-5.643,4.631-10.39,10.263-14.98,15.709c-2.124,2.52-4.32,5.126-6.572,7.592
		c-0.224,0.244-0.391,0.519-0.499,0.814l-0.063,0.076c-1.403,1.931-2.884,3.98-4.283,6.062l-0.231-0.202
		c-0.186-0.164-0.392-0.296-0.63-0.402c-0.394-0.331-0.895-0.506-1.502-0.506c-0.001,0-0.002,0-0.003,0
		c-1.672,0.035-3.091,0.611-4.103,1.668c-1.194,1.248-1.495,2.897-1.532,4.088c-0.182,0.604-0.062,1.25,0.343,1.827
		c1.474,2.105,3.179,4.102,5.07,5.937c-4.748,4.729-9.611,9.485-14.318,14.089c-5.003,4.894-10.176,9.953-15.214,14.982
		c-0.729,0.729-5.339,6.63-4.861,8.169c0.088,0.282,0.305,0.476,0.596,0.529l0.107,0.009c0.973,0,7.459-5.298,7.513-5.352
		c5.04-5.03,10.217-10.094,15.224-14.99c4.782-4.677,9.723-9.51,14.546-14.314c1.79,1.37,3.726,2.615,5.759,3.705
		c0.357,0.191,0.737,0.288,1.127,0.288l0.062,0.001c0.066,0.012,0.133,0.022,0.205,0.025c0.265,0.01,0.532,0.016,0.801,0.016
		c0,0,0,0,0.001,0c1.798,0,4.361-0.244,5.865-2.353c1.114-1.564,0.79-3.625-0.963-6.131c9.06-5.066,20.584-11.903,30.412-20.237
		c6.114-5.185,15.291-15.446,8.062-25.922C94.767,8.349,94.665,8.228,94.558,8.119z M46.368,46.338
		c1.458-2.188,3.012-4.34,4.483-6.363c0.096-0.133,0.178-0.273,0.248-0.427c2.151-2.373,4.254-4.847,6.287-7.239
		c3.384-3.98,6.883-8.098,10.682-11.832c4.925-4.843,11.414-10.4,17.939-10.4c1.105,0,2.177,0.186,3.214,0.515
		C84.26,23.774,73.119,33.029,60.657,38.94c-2.33,1.105-0.298,4.553,2.019,3.454c12.778-6.061,23.917-15.54,29.558-28.611
		c2.521,7.569-5.318,14.813-12.745,20.431c-7.419,5.611-16.056,11.101-27.161,17.263C50.128,49.99,48.125,48.265,46.368,46.338z
		 M39.284,47.965c0.025-0.087,0.042-0.177,0.057-0.262l0.197-0.355c0.024-0.015,0.048-0.028,0.072-0.042
		c0.001-0.001,0.001-0.001,0.002-0.001c4.715,4.146,8.818,7.427,12.899,10.311c0.102,0.072,0.209,0.135,0.323,0.191
		c0.11,0.177,0.197,0.33,0.243,0.428c-0.064,0.017-0.13,0.032-0.194,0.048c-0.449,0.106-1.094,0.122-1.765,0.099
		c-4.819-2.672-8.802-6.145-11.84-10.324L39.284,47.965z M47.229,37.773C47.229,37.773,47.229,37.773,47.229,37.773l-0.001-0.001
		L47.229,37.773z"/>
</g>
</svg>
