<?xml version="1.0" encoding="iso-8859-1"?>
<!-- Generator: Adobe Illustrator 17.0.2, SVG Export Plug-In . SVG Version: 6.00 Build 0)  -->
<!DOCTYPE svg PUBLIC "-//W3C//DTD SVG 1.1//EN" "http://www.w3.org/Graphics/SVG/1.1/DTD/svg11.dtd">
<svg version="1.1" id="Capa_1" xmlns="http://www.w3.org/2000/svg" xmlns:xlink="http://www.w3.org/1999/xlink" x="0px" y="0px"
	 width="100px" height="100px" viewBox="0 0 100 100" style="enable-background:new 0 0 100 100;" xml:space="preserve">
<g>
	<path style="fill:#1D1D1B;" d="M15.837,35.393C16.107,53.212,16.773,72.018,18.333,88c0.372,3.815,6.375,3.851,6,0
		c-1.541-15.787-2.209-34.329-2.486-51.955C19.859,36.346,17.773,36.073,15.837,35.393z"/>
	<path style="fill:#1D1D1B;" d="M16.004,14.658c0.368-0.136,0.756-0.237,1.164-0.281c1.594-0.172,3.102-0.066,4.503,0.275
		c-0.002-1.114-0.004-2.229-0.005-3.319c-0.001-3.869-6.001-3.869-6,0c0,1.104,0.002,2.234,0.005,3.363
		C15.785,14.675,15.893,14.672,16.004,14.658z"/>
	<path style="fill:#1D1D1B;" d="M47.544,78.682c0.234,3.189,0.496,6.305,0.79,9.318c0.372,3.815,6.375,3.851,6,0
		c-0.29-2.966-0.548-6.031-0.779-9.168C51.604,79.329,49.524,79.224,47.544,78.682z"/>
	<path style="fill:#1D1D1B;" d="M46.731,57.658c0.368-0.136,0.757-0.237,1.164-0.281c1.599-0.172,3.11-0.065,4.515,0.278
		c-0.601-15.861-0.738-32.172-0.744-46.322c-0.001-3.869-6.001-3.869-6,0c0.006,14.162,0.144,30.488,0.746,46.361
		C46.521,57.676,46.625,57.671,46.731,57.658z"/>
	<path style="fill:#1D1D1B;" d="M77.334,55.609c0.398,11.28,1.023,22.39,1.999,32.391c0.372,3.815,6.375,3.851,6,0
		c-0.956-9.797-1.574-20.66-1.973-31.702C81.364,56.59,79.273,56.301,77.334,55.609z"/>
	<path style="fill:#1D1D1B;" d="M77.204,34.941c0.125-0.027,0.24-0.026,0.361-0.041c0.368-0.136,0.756-0.237,1.164-0.281
		c1.442-0.155,2.812-0.081,4.098,0.185c-0.12-8.164-0.158-16.11-0.161-23.471c-0.001-3.869-6.001-3.869-6,0
		c0.003,7.428,0.042,15.454,0.165,23.696C76.955,35.001,77.079,34.968,77.204,34.941z"/>
	<path style="fill:#1D1D1B;" d="M13.625,32.127c0.667,0.494,1.404,0.93,2.184,1.291c1.873,0.867,3.995,1.291,6.013,1.039
		c0.465-0.058,0.926-0.144,1.375-0.277c4.346-1.293,5.915-5.732,6.189-9.842c0.085-0.43,0.074-0.874-0.094-1.301
		c-1.414-3.597-4.133-6.091-7.619-6.856c-1.128-0.248-2.336-0.317-3.607-0.18c-0.347,0.037-0.677,0.123-0.99,0.239
		c-0.103,0.013-0.201,0.012-0.307,0.035c-0.368,0.079-0.732,0.173-1.094,0.276c-3.575,1.011-6.757,3.197-7.083,7.226
		C8.312,27.236,11.069,30.233,13.625,32.127z M14.59,24.133c-0.002-0.041,0.004-0.082,0.004-0.123
		c0.009-0.04,0.023-0.108,0.039-0.186c0.022-0.044,0.049-0.098,0.078-0.158c0.06-0.064,0.166-0.19,0.259-0.295
		c0.093-0.077,0.217-0.18,0.27-0.214c0.15-0.098,0.307-0.186,0.466-0.268c0.161-0.083,0.324-0.161,0.487-0.238
		c-0.442,0.208,0.643-0.205,0.756-0.24c0.464-0.145,0.941-0.249,1.416-0.351c0.113-0.024,0.206-0.066,0.309-0.099
		c1.112-0.053,2.159,0.111,3.03,0.592c0.694,0.383,1.278,0.963,1.677,1.827c-0.091,1.229-0.327,2.279-0.781,3.09
		c-0.028,0.05-0.135,0.201-0.207,0.306c-0.09,0.101-0.187,0.196-0.286,0.289c-0.067,0.043-0.232,0.166-0.356,0.25
		c-0.043,0.029-0.082,0.054-0.108,0.069c-0.007,0.004-0.007,0.004-0.013,0.008c-0.05,0.012-0.121,0.031-0.221,0.061
		c-0.076,0.023-0.156,0.033-0.233,0.05c-0.051-0.007-0.475,0.04-0.61,0.04c-0.088,0-0.336-0.027-0.495-0.043
		c-0.214-0.042-0.429-0.086-0.641-0.142c-0.218-0.057-0.432-0.13-0.645-0.203c-0.096-0.033-0.164-0.055-0.216-0.072
		c-0.009-0.008-0.037-0.025-0.125-0.066c-0.561-0.262-1.09-0.587-1.602-0.936c-0.035-0.024-0.122-0.091-0.204-0.154
		c-0.208-0.172-0.41-0.353-0.606-0.539c-0.106-0.1-0.204-0.208-0.304-0.314c-0.053-0.057-0.109-0.11-0.162-0.167
		c-0.09-0.097-0.143-0.151-0.181-0.189c-0.011-0.016-0.016-0.023-0.033-0.047c-0.213-0.29-0.391-0.603-0.556-0.922
		c-0.028-0.087-0.149-0.39-0.182-0.507c-0.011-0.042-0.017-0.057-0.026-0.089C14.589,24.143,14.59,24.143,14.59,24.133z"/>
	<path style="fill:#1D1D1B;" d="M43.353,75.127c1.189,0.881,2.601,1.563,4.083,1.976c1.809,0.505,3.724,0.602,5.49,0.076
		c0.175-0.052,0.337-0.117,0.503-0.179c3.96-1.478,5.423-5.718,5.686-9.664c0.085-0.43,0.074-0.874-0.094-1.301
		c-1.265-3.217-3.575-5.549-6.541-6.554c-1.425-0.483-2.999-0.664-4.685-0.482c-0.347,0.037-0.677,0.123-0.99,0.239
		c-0.103,0.013-0.201,0.012-0.307,0.035c-0.008,0.002-0.017,0.004-0.025,0.006c-3.987,0.861-7.793,3.068-8.152,7.495
		C38.04,70.236,40.796,73.233,43.353,75.127z M44.317,67.133c-0.002-0.041,0.004-0.082,0.004-0.123
		c0.009-0.04,0.023-0.108,0.039-0.186c0.022-0.044,0.049-0.098,0.078-0.158c0.06-0.064,0.166-0.19,0.259-0.295
		c0.093-0.077,0.217-0.18,0.27-0.214c0.302-0.197,0.628-0.353,0.953-0.507c-0.442,0.208,0.643-0.205,0.756-0.24
		c0.022-0.007,0.046-0.012,0.068-0.019c0.443-0.134,0.896-0.235,1.348-0.332c0.113-0.024,0.206-0.066,0.309-0.099
		c1.808-0.086,3.455,0.379,4.42,1.911c0.101,0.161,0.202,0.322,0.288,0.507c-0.036,0.491-0.104,0.945-0.191,1.375
		c-0.131,0.646-0.318,1.228-0.59,1.715c-0.028,0.05-0.135,0.201-0.207,0.306c-0.09,0.101-0.187,0.196-0.286,0.289
		c-0.09,0.057-0.359,0.261-0.465,0.319c-0.007,0.004-0.007,0.004-0.013,0.008c-0.05,0.012-0.121,0.031-0.221,0.061
		c-0.076,0.023-0.156,0.033-0.233,0.05c-0.051-0.007-0.475,0.04-0.61,0.04c-0.088,0-0.336-0.027-0.495-0.043
		c-0.214-0.042-0.429-0.086-0.641-0.142c-0.218-0.057-0.432-0.13-0.645-0.203c-0.096-0.033-0.164-0.055-0.216-0.072
		c-0.009-0.008-0.037-0.025-0.125-0.066c-0.404-0.189-0.788-0.417-1.165-0.656c-0.146-0.093-0.294-0.182-0.437-0.279
		c-0.035-0.024-0.122-0.091-0.204-0.154c-0.208-0.172-0.41-0.353-0.606-0.539c-0.162-0.154-0.314-0.317-0.466-0.481
		c-0.09-0.097-0.143-0.151-0.181-0.189c-0.011-0.016-0.016-0.023-0.033-0.047c-0.213-0.29-0.391-0.603-0.556-0.922
		c-0.028-0.087-0.149-0.39-0.182-0.507c-0.011-0.042-0.017-0.057-0.026-0.089C44.316,67.143,44.317,67.143,44.317,67.133z"/>
	<path style="fill:#1D1D1B;" d="M74.186,52.369c0.921,0.682,1.977,1.245,3.093,1.66c1.933,0.719,4.048,0.957,6.016,0.493
		c0.154-0.036,0.312-0.056,0.464-0.101c4.346-1.293,5.915-5.732,6.189-9.842c0.085-0.43,0.074-0.874-0.094-1.301
		c-1.329-3.379-3.812-5.78-6.997-6.693c-1.303-0.374-2.721-0.505-4.229-0.343c-0.347,0.037-0.677,0.123-0.99,0.239
		c-0.103,0.013-0.201,0.012-0.307,0.035c-0.158,0.034-0.315,0.074-0.473,0.112c-3.82,0.927-7.359,3.128-7.704,7.389
		C68.873,47.478,71.63,50.475,74.186,52.369z M75.15,44.375c-0.002-0.041,0.004-0.082,0.004-0.123
		c0.009-0.04,0.023-0.108,0.039-0.186c0.022-0.044,0.049-0.098,0.078-0.158c0.06-0.064,0.166-0.19,0.259-0.295
		c0.093-0.077,0.217-0.18,0.27-0.214c0.302-0.197,0.628-0.353,0.953-0.507c-0.237,0.112-0.034,0.044,0.222-0.047
		c0.221-0.079,0.481-0.176,0.534-0.192c0.464-0.145,0.941-0.249,1.416-0.351c0.113-0.024,0.206-0.066,0.309-0.099
		c1.44-0.068,2.777,0.215,3.751,1.104c0.377,0.344,0.705,0.77,0.956,1.314c-0.091,1.229-0.327,2.279-0.781,3.09
		c-0.01,0.019-0.039,0.059-0.065,0.098c-0.044,0.066-0.097,0.141-0.142,0.207c-0.09,0.101-0.187,0.196-0.286,0.289
		c-0.09,0.057-0.359,0.261-0.465,0.319c-0.007,0.004-0.007,0.004-0.013,0.008c-0.05,0.012-0.121,0.031-0.221,0.061
		c-0.076,0.023-0.156,0.033-0.233,0.05c-0.051-0.007-0.475,0.04-0.61,0.04c-0.088,0-0.336-0.027-0.495-0.043
		c-0.214-0.042-0.429-0.086-0.641-0.142c-0.218-0.057-0.432-0.13-0.645-0.203c-0.096-0.033-0.164-0.055-0.216-0.072
		c-0.009-0.008-0.037-0.025-0.125-0.066c-0.561-0.262-1.09-0.587-1.602-0.936c-0.035-0.024-0.122-0.091-0.204-0.154
		c-0.042-0.035-0.082-0.074-0.124-0.11c-0.164-0.14-0.326-0.281-0.482-0.429c-0.162-0.154-0.314-0.317-0.466-0.481
		c-0.09-0.097-0.143-0.151-0.181-0.189c-0.011-0.016-0.016-0.023-0.033-0.047c-0.213-0.29-0.391-0.603-0.556-0.922
		c-0.028-0.087-0.149-0.39-0.182-0.507c-0.011-0.042-0.017-0.057-0.026-0.089C75.15,44.385,75.151,44.385,75.15,44.375z"/>
</g>
</svg>
