<?xml version="1.0" encoding="iso-8859-1"?>
<!-- Generator: Adobe Illustrator 17.0.2, SVG Export Plug-In . SVG Version: 6.00 Build 0)  -->
<!DOCTYPE svg PUBLIC "-//W3C//DTD SVG 1.1//EN" "http://www.w3.org/Graphics/SVG/1.1/DTD/svg11.dtd">
<svg version="1.1" id="Capa_1" xmlns="http://www.w3.org/2000/svg" xmlns:xlink="http://www.w3.org/1999/xlink" x="0px" y="0px"
	 width="100px" height="100px" viewBox="0 0 100 100" style="enable-background:new 0 0 100 100;" xml:space="preserve">
<g>
	<path style="fill:#1D1D1B;" d="M94.52,34.74c-0.048-0.599-0.083-1.198-0.127-1.797c-0.049-1.445-0.106-2.89-0.151-4.335
		c-0.007-0.212-0.043-0.404-0.094-0.584c-0.015-0.158-0.05-0.311-0.094-0.461c-0.226-4.292-0.357-8.586-0.37-12.889
		c-0.004-1.435-1.117-2.154-2.231-2.156c-0.173-0.043-0.356-0.071-0.556-0.073c-28.06-0.336-56.138-2.672-84.167-0.279
		c-0.772,0.066-1.328,0.447-1.683,0.957C4.686,13.48,4.46,13.993,4.5,14.674l0.836,14.214c0.004,0.075,0.023,0.139,0.033,0.21
		c0.667,4.678,0.161,9.707,0.271,14.432c0.252,10.745,0.805,21.454,0.608,32.208c-0.058,3.151-0.168,6.301-0.355,9.447
		c-0.025,0.422,0.058,0.774,0.205,1.072c0.267,0.791,0.941,1.429,2.024,1.437c28.544,0.2,57.017-2.432,85.56-2.23
		c0.254,0.002,0.478-0.042,0.687-0.104c1.208,0.132,2.473-0.569,2.378-2.126c-0.971-15.941-1.715-31.894-2.272-47.855
		C94.517,35.183,94.539,34.975,94.52,34.74z M9.064,16.45c26.706-2.035,53.455,0.036,80.188,0.428
		c0.035,3.094,0.124,6.186,0.27,9.274c-26.635,0.644-53.269-0.262-79.906-0.322C9.432,22.703,9.248,19.576,9.064,16.45z
		 M10.439,83.236c0.611-12.311,0.138-24.638-0.046-36.953c-0.049-3.311-0.078-6.622-0.059-9.933c0.002-0.37-0.596-6.06-0.467-6.06
		c26.635,0.065,53.267,0.969,79.901,0.316c0.051,0.797,0.111,1.594,0.169,2.39c0.539,16.014,1.272,32.02,2.226,48.014
		C64.901,80.911,37.7,83.285,10.439,83.236z"/>
	<path style="fill:#1D1D1B;" d="M82.25,67c-13.561-1.38-27.154-1.312-40.75-0.947V64.25c0-2.757-2.243-5-5-5h-3.625
		c-2.757,0-5,2.243-5,5v2.225c-3.125,0.101-6.251,0.197-9.375,0.275c-2.575,0.064-2.581,4.064,0,4
		c3.124-0.078,6.25-0.174,9.375-0.275V72c0,2.757,2.243,5,5,5H36.5c2.757,0,5-2.243,5-5v-1.947C55.096,69.688,68.689,69.62,82.25,71
		C84.816,71.261,84.791,67.258,82.25,67z M37.5,70.168V72c0,0.552-0.449,1-1,1h-3.625c-0.551,0-1-0.448-1-1v-1.654v-4V64.25
		c0-0.552,0.449-1,1-1H36.5c0.551,0,1,0.448,1,1v1.918V70.168z"/>
	<path style="fill:#1D1D1B;" d="M82.231,43.75c-3.124-0.078-6.25-0.174-9.375-0.275V41.25c0-2.757-2.243-5-5-5h-3.625
		c-2.757,0-5,2.243-5,5v1.803C45.635,42.688,32.042,42.62,18.481,44c-2.541,0.258-2.566,4.261,0,4
		c13.561-1.38,27.154-1.312,40.75-0.947V49c0,2.757,2.243,5,5,5h3.625c2.757,0,5-2.243,5-5v-1.525
		c3.125,0.101,6.251,0.197,9.375,0.275C84.812,47.814,84.806,43.814,82.231,43.75z M68.856,47.346V49c0,0.552-0.449,1-1,1h-3.625
		c-0.551,0-1-0.448-1-1v-1.832v-4V41.25c0-0.552,0.449-1,1-1h3.625c0.551,0,1,0.448,1,1v2.096V47.346z"/>
	<path style="fill:#1D1D1B;" d="M14.667,18.333c-2.58,0-2.58,4,0,4C17.246,22.333,17.246,18.333,14.667,18.333z"/>
	<path style="fill:#1D1D1B;" d="M21.333,18.333c-2.579,0-2.579,4,0,4C23.913,22.333,23.913,18.333,21.333,18.333z"/>
	<path style="fill:#1D1D1B;" d="M28.5,18.333c-2.58,0-2.58,4,0,4S31.08,18.333,28.5,18.333z"/>
</g>
</svg>
