<?xml version="1.0" encoding="iso-8859-1"?>
<!-- Generator: Adobe Illustrator 17.0.2, SVG Export Plug-In . SVG Version: 6.00 Build 0)  -->
<!DOCTYPE svg PUBLIC "-//W3C//DTD SVG 1.1//EN" "http://www.w3.org/Graphics/SVG/1.1/DTD/svg11.dtd">
<svg version="1.1" id="Capa_1" xmlns="http://www.w3.org/2000/svg" xmlns:xlink="http://www.w3.org/1999/xlink" x="0px" y="0px"
	 width="100px" height="100px" viewBox="0 0 100 100" style="enable-background:new 0 0 100 100;" xml:space="preserve">
<g>
	<path style="fill:#1D1D1B;" d="M75.269,72.821c-3.293,0-6.31,0.937-8.585,2.651c-2.752-1.804-5.491-3.626-8.23-5.448
		c-8.276-5.507-16.828-11.195-25.615-16.255c0.361-1.635,0.285-3.367-0.228-5.163c-0.177-0.623-0.408-1.24-0.689-1.844
		c9.713-5.343,18.675-12.067,27.349-18.576c2.309-1.732,4.617-3.465,6.941-5.174c2.585,2.249,6.144,3.524,9.903,3.524l0.194-0.001
		c4.659-0.055,9.217-2.169,11.614-5.385c1.894-2.541,2.405-5.603,1.477-8.853c-1.958-6.856-8.669-9.926-14.452-9.926
		c-4.146,0-7.852,1.498-10.169,4.109c-2.09,2.356-2.966,5.505-2.534,9.106c0.007,0.059,0.015,0.118,0.024,0.176
		c-2.479,1.819-4.939,3.667-7.399,5.514c-9.129,6.855-18.564,13.94-28.835,19.349c-2.342-1.256-5.118-1.942-7.882-1.942
		c-4.144,0-7.848,1.497-10.163,4.106c-2.089,2.354-2.965,5.503-2.533,9.104c0.862,7.188,7.632,10.95,13.873,10.95l0.192-0.001
		c2.96-0.035,5.976-0.922,8.378-2.448c9.019,5.144,17.804,10.99,26.305,16.646c2.78,1.85,5.561,3.7,8.354,5.531
		c-0.146,1.098-0.148,2.257-0.004,3.456c0.862,7.188,7.632,10.95,13.873,10.95l0.191-0.001c4.659-0.056,9.217-2.17,11.614-5.386
		c1.894-2.541,2.404-5.603,1.476-8.852C87.752,75.889,81.047,72.821,75.269,72.821z M71.462,82.078
		c0.861-1.113,2.148-1.778,3.442-1.778c0.183,0,0.368,0.014,0.553,0.042l0.113,0.017l0.114-0.009
		c2.514-0.199,4.581,2.14,5.845,4.087c0.742,1.143,0.431,1.762,0.329,1.965c-0.692,1.375-3.53,2.261-5.312,2.372
		c-0.154,0.01-0.309,0.015-0.463,0.015c-2.065,0-4.715-0.916-5.385-3.496C70.422,84.233,70.701,83.062,71.462,82.078z
		 M14.364,47.943c0.861-1.113,2.148-1.778,3.442-1.778c0.183,0,0.368,0.014,0.553,0.042l0.113,0.017l0.114-0.009
		c2.513-0.193,4.58,2.14,5.844,4.086c0.743,1.144,0.431,1.763,0.329,1.966c-0.692,1.375-3.53,2.261-5.313,2.372
		c-0.153,0.01-0.308,0.015-0.462,0.015c-2.065,0-4.714-0.916-5.385-3.496C13.324,50.099,13.603,48.927,14.364,47.943z M81.547,15.96
		c-0.692,1.375-3.53,2.261-5.312,2.372c-0.153,0.01-0.307,0.015-0.461,0.015c-2.066,0-4.717-0.916-5.387-3.496
		c-0.275-1.06,0.004-2.23,0.765-3.215c0.861-1.113,2.148-1.778,3.443-1.778c0.183,0,0.368,0.014,0.553,0.042l0.113,0.017
		l0.114-0.009c2.513-0.188,4.58,2.14,5.844,4.087C81.961,15.138,81.65,15.757,81.547,15.96z"/>
</g>
</svg>
