<?xml version="1.0" encoding="iso-8859-1"?>
<!-- Generator: Adobe Illustrator 17.0.2, SVG Export Plug-In . SVG Version: 6.00 Build 0)  -->
<!DOCTYPE svg PUBLIC "-//W3C//DTD SVG 1.1//EN" "http://www.w3.org/Graphics/SVG/1.1/DTD/svg11.dtd">
<svg version="1.1" id="Capa_1" xmlns="http://www.w3.org/2000/svg" xmlns:xlink="http://www.w3.org/1999/xlink" x="0px" y="0px"
	 width="100px" height="100px" viewBox="0 0 100 100" style="enable-background:new 0 0 100 100;" xml:space="preserve">
<g>
	<path style="fill:#1E1E1C;" d="M80.058,18.759c-0.223-0.993-0.924-1.463-1.689-1.531c-0.326-0.251-0.751-0.406-1.278-0.405
		c-3.297,0.006-6.832,0.04-10.495,0.089C63.153-1.776,39.94,3.032,34.021,17.456c-3.526,0.046-6.93,0.078-10.113,0.084
		c-0.08,0-0.146,0.023-0.223,0.031c-1.15-0.129-2.232-0.006-3.393,0.225c-0.616,0.123-1.08,0.57-1.34,1.12
		c-0.145,0.207-0.27,0.441-0.34,0.739C13.85,39.705,12.408,58.416,6.437,78.208c-0.121,0.399-0.121,0.759-0.047,1.08
		c-0.454,0.678-0.6,1.609-0.094,2.277c1.761,2.328,3.649,4.539,5.707,6.613c0.138,0.138,0.28,0.246,0.426,0.337
		c0.252,0.241,0.596,0.419,1.06,0.484c23.333,3.237,46.94,3.575,70.406,1.688c0.244-0.02,0.459-0.081,0.661-0.16
		c0.483,0.001,0.978-0.212,1.396-0.738c2.103-2.647,4.051-5.385,5.719-8.325c0.584-0.398,0.894-1.071,0.919-1.755
		c0.067-0.292,0.075-0.615,0.003-0.964C88.3,58.056,84.682,39.38,80.058,18.759z M62.217,16.976
		c-7.695,0.122-15.785,0.29-23.478,0.411C43.877,7.788,59.059,4.605,62.217,16.976z M32.25,44.477l2.079-2.911
		c0.983,1.242,2.073,2.395,3.19,3.524c0.159,2.038,0.213,4.078,0.225,6.121c-1.834-0.049-3.665-0.153-5.494-0.297V44.477z
		 M83.146,86.445c-22.754,1.784-45.727,1.556-68.354-1.57c-1.152-1.174-2.268-2.387-3.322-3.651
		c23.226,1.044,51.438,1.241,74.896,0.702C85.362,83.481,84.289,84.987,83.146,86.445z M11.271,76.914
		c5.215-18.741,6.907-36.21,11.267-55.139c0.062-0.003,0.124-0.01,0.186-0.012c0.053-0.002,0.697,0.072,0.255-0.003
		c0.213,0.036,0.424,0.041,0.632,0.031c0.102,0.013,0.188,0.046,0.298,0.046c1.857-0.004,3.795-0.016,5.785-0.034
		c0.128,5.345,0.84,10.586,2.378,15.729c0.023,0.079,0.06,0.145,0.089,0.217l-3.387,4.742c-0.092,0.128-0.154,0.267-0.201,0.41
		C28.375,43.192,28.25,43.555,28.25,44v8.25c0,0.235,0.043,0.441,0.103,0.633c0.115,0.904,0.746,1.772,1.897,1.867
		c2.913,0.242,5.825,0.48,8.75,0.5c0.211,0.001,0.397-0.032,0.573-0.08c1.056,0.081,2.177-0.554,2.177-1.92
		c0-2.837-0.011-5.671-0.25-8.5c-0.007-0.078-0.027-0.147-0.041-0.221c0.112-0.558-0.019-1.167-0.545-1.693
		c-1.595-1.596-3.212-3.188-4.438-5.095c-0.137-0.213-0.298-0.375-0.469-0.511c0.021-0.236,0.003-0.488-0.079-0.761
		c-1.444-4.827-2.114-9.699-2.236-14.71c13.919-0.176,29.932-0.586,42.489-0.629c4.324,19.454,7.793,36.934,11.797,56.454
		C64.554,78.171,34.68,77.988,11.271,76.914z"/>
</g>
</svg>
