<?xml version="1.0" encoding="iso-8859-1"?>
<!-- Generator: Adobe Illustrator 17.0.2, SVG Export Plug-In . SVG Version: 6.00 Build 0)  -->
<!DOCTYPE svg PUBLIC "-//W3C//DTD SVG 1.1//EN" "http://www.w3.org/Graphics/SVG/1.1/DTD/svg11.dtd">
<svg version="1.1" id="Capa_1" xmlns="http://www.w3.org/2000/svg" xmlns:xlink="http://www.w3.org/1999/xlink" x="0px" y="0px"
	 width="100px" height="100px" viewBox="0 0 100 100" style="enable-background:new 0 0 100 100;" xml:space="preserve">
<g>
	<path style="fill:#1E1E1C;" d="M91.358,66.385c-19.453,2.074-39.104,5.233-58.668,2.789c-0.116-0.059-0.232-0.119-0.356-0.165
		c-1.788-0.671-2.388-1.785-2.373-3.437c1.664-2.378,5.219-2.224,7.71-2.031c3.485,0.269,6.944,0.236,10.439,0.199
		c9.073-0.096,18.176-0.71,27.175-1.871c4.986-0.643,9.951-1.36,14.898-2.258c1.536-0.279,2.086-1.479,1.926-2.664
		c0.029-0.156,0.057-0.315,0.061-0.488c0.273-10.576,0.597-21.142,1.625-31.677c0.16-1.646-0.972-2.495-2.242-2.578
		c-0.297-0.097-0.627-0.152-1.007-0.13c-22.833,1.326-45.702,1.62-68.566,1.889c-0.133-0.155-0.285-0.302-0.46-0.437
		c-4.032-3.103-8.485-5.352-13.371-6.771c-3.362-0.976-4.787,4.25-1.441,5.221c12.578,3.653,18.228,14.525,20.636,26.66
		c0.724,3.641,1.082,7.34,1.368,11.038c0.018,0.23-3.156,2.708-3.506,3.341c-0.776,1.406-0.909,3.031-0.54,4.58
		c1.108,4.651,4.907,6.571,9.282,7.338c-0.768,1.016-1.388,2.201-1.831,3.546c-0.162,0.491-0.173,0.935-0.092,1.333
		c-0.006,2.507,0.718,4.923,2.548,6.716c1.902,1.864,4.628,2.46,7.194,2.598c0.296,0.016,0.558-0.021,0.804-0.079
		c0.092-0.007,0.181-0.002,0.277-0.017c4.727-0.768,8.169-4.26,8.598-9.041c0.157-1.743-0.297-3.318-1.145-4.656
		c7.408-0.121,14.691-0.744,22.068-1.474c-0.713,0.928-1.272,1.95-1.608,3.038c-1.866,6.047,4.012,10.304,9.632,10.606
		c0.296,0.016,0.558-0.021,0.804-0.079c0.092-0.007,0.181-0.002,0.277-0.017c4.727-0.768,8.169-4.26,8.598-9.041
		c0.22-2.45-0.767-4.565-2.357-6.16c1.215-0.136,2.429-0.276,3.645-0.406C94.793,71.434,94.829,66.015,91.358,66.385z
		 M86.804,54.712c-4.349,0.754-8.711,1.388-13.083,1.909c-0.022-2.034-0.051-4.068-0.111-6.1c4.44-0.06,8.881-0.076,13.321-0.026
		C86.888,51.9,86.841,53.306,86.804,54.712z M87.118,45.082c-4.577-0.053-9.15-0.029-13.721,0.042
		c-0.073-1.606-0.164-3.211-0.262-4.815c4.727-0.077,9.452-0.13,14.18-0.1C87.238,41.833,87.18,43.457,87.118,45.082z
		 M88.126,27.616c-0.205,2.391-0.374,4.785-0.522,7.179c-4.94-0.034-9.882,0.022-14.822,0.106c-0.168-2.191-0.361-4.38-0.572-6.569
		C77.517,28.134,82.822,27.907,88.126,27.616z M68.314,57.201c-5.075,0.493-10.162,0.839-15.259,1.021
		c-0.313-2.289-0.634-4.577-0.952-6.866c5.357-0.371,10.725-0.6,16.096-0.738C68.263,52.81,68.294,55.005,68.314,57.201z
		 M67.986,45.231c-5.543,0.155-11.079,0.407-16.608,0.804c-0.235-1.744-0.457-3.49-0.677-5.237
		c5.675-0.126,11.35-0.276,17.026-0.396C67.823,42.011,67.913,43.621,67.986,45.231z M66.811,28.522
		c0.207,2.157,0.399,4.315,0.564,6.474c-5.773,0.124-11.547,0.279-17.32,0.406c-0.237-2.14-0.462-4.282-0.648-6.429
		C55.209,28.858,61.011,28.709,66.811,28.522z M47.654,58.36c-4.546,0.063-9.098,0.005-13.65-0.184
		c-0.144-1.652-0.32-3.303-0.529-4.948c4.412-0.598,8.834-1.08,13.262-1.464C47.043,53.962,47.351,56.16,47.654,58.36z
		 M46.008,46.453c-4.462,0.393-8.918,0.879-13.367,1.474c-0.44-2.335-0.98-4.642-1.66-6.894c4.768,0.016,9.534-0.037,14.301-0.123
		C45.514,42.759,45.758,44.606,46.008,46.453z M25.695,29.333c6.102-0.074,12.204-0.157,18.304-0.262
		c0.188,2.15,0.407,4.295,0.646,6.439c-5.209,0.091-10.418,0.143-15.629,0.104C28.083,33.442,26.991,31.339,25.695,29.333z
		 M41.831,83.722c-0.023-0.002-0.042-0.009-0.064-0.01c-2.987-0.16-4.35-1.175-4.327-4.035c0.869-2.344,2.633-3.349,4.881-3.526
		c2.045,0.459,3.751,1.481,3.711,3.838C45.992,82.24,43.738,83.323,41.831,83.722z M80.457,82.098
		c-0.023-0.002-0.042-0.009-0.064-0.01c-2.987-0.16-4.35-1.175-4.327-4.035c0.869-2.344,2.633-3.349,4.88-3.526
		c2.046,0.459,3.752,1.481,3.712,3.838C84.618,80.615,82.364,81.698,80.457,82.098z"/>
</g>
</svg>
