<?xml version="1.0" encoding="iso-8859-1"?>
<!-- Generator: Adobe Illustrator 17.0.2, SVG Export Plug-In . SVG Version: 6.00 Build 0)  -->
<!DOCTYPE svg PUBLIC "-//W3C//DTD SVG 1.1//EN" "http://www.w3.org/Graphics/SVG/1.1/DTD/svg11.dtd">
<svg version="1.1" id="Capa_1" xmlns="http://www.w3.org/2000/svg" xmlns:xlink="http://www.w3.org/1999/xlink" x="0px" y="0px"
	 width="100px" height="100px" viewBox="0 0 100 100" style="enable-background:new 0 0 100 100;" xml:space="preserve">
<g>
	<path style="fill:#1D1D1B;" d="M55.38,48.739c-0.531-0.63-1.343-1.016-2.244-1.119c-2.571-0.294-5.161-0.286-7.746-0.287
		c-1.754,0-2.666,1.289-2.757,2.646c-0.066,0.246-0.112,0.506-0.112,0.797v42.591c0,0.649,0.184,1.178,0.475,1.599
		c0.266,1.149,1.153,2.13,2.681,2.13h7.746c1.76,0,2.672-1.299,2.758-2.661c0.064-0.241,0.109-0.497,0.111-0.782
		c0.043-9.284,0.559-33.028,0.861-42.305C57.199,49.943,56.397,49.075,55.38,48.739z M50.589,91.359h-2.33v-38.27
		c1.03,0.015,2.059,0.059,3.087,0.125C51.068,61.104,50.687,83.465,50.589,91.359z"/>
	<path style="fill:#1D1D1B;" d="M53.935,29.104c-1.641-0.62-3.405-0.666-5.282-0.134c-0.585-0.188-1.213-0.136-1.795,0.156
		c-3.615,1.809-6.84,5.738-5.38,10.091c1.239,3.695,5.336,5.007,8.469,5.007c0,0,0,0,0,0c1.248,0,2.467-0.194,3.527-0.56
		c2.251-0.779,4.267-2.608,5.262-4.775c0.834-1.817,0.914-3.692,0.229-5.421C58.193,31.519,56.548,30.091,53.935,29.104z
		 M45.923,37.582c-0.28-0.835,0.009-1.712,0.86-2.607c0.208-0.06,0.397-0.141,0.573-0.247c1.011-0.606,2.752-1.313,4.33-1.313
		c1.448,0,2.417,0.593,2.881,1.764c0.219,0.552,0.191,1.133-0.081,1.726c-0.526,1.145-1.797,2.022-2.756,2.354
		c-0.497,0.172-1.142,0.267-1.816,0.267C48.373,39.526,46.404,39.017,45.923,37.582z"/>
	<path style="fill:#1D1D1B;" d="M74.046,21.172c-0.512-1.224-1.656-1.703-2.723-1.637c-0.4-0.01-0.822,0.072-1.254,0.302
		c-2.444,1.298-4.912,2.549-7.329,3.898c-2.975,1.662,0.712,6.263,1.312,8.415c1.067,3.827,0.405,7.859-1.739,11.191
		c-0.16,0.248-0.253,0.493-0.318,0.733c-0.14,0.144-0.244,0.32-0.362,0.484c-0.753,0.78-1.097,2.107-0.411,3.016
		c1.666,2.208,3.775,3.927,6.197,5.261c0.421,0.232,0.832,0.32,1.223,0.32c0.652,0.086,1.349-0.099,1.956-0.71
		C79.077,43.935,78.398,31.577,74.046,21.172z M68.306,47.542c-0.623-0.415-1.225-0.868-1.767-1.378
		c0.024-0.095,0.055-0.188,0.068-0.286c0.005-0.007,0.01-0.012,0.015-0.019c3.782-5.879,3.753-12.808,0.693-18.924
		c0.997-0.534,1.999-1.06,2.999-1.587C72.889,32.839,73.489,41.165,68.306,47.542z"/>
	<path style="fill:#1D1D1B;" d="M85.74,7.06c-0.462-0.01-0.949,0.072-1.449,0.302c-2.824,1.298-5.677,2.549-8.471,3.899
		c-2.577,1.246-0.353,4.945,0.545,6.3c1.901,2.868,3.308,5.717,4.301,9.019c1.82,6.052,2.124,11.858,0.133,17.932
		c-1.186,3.62-3.206,7.009-5.472,10.056c-0.185,0.248-0.293,0.493-0.368,0.733c-0.162,0.144-0.282,0.32-0.418,0.484
		c-0.87,0.78-1.268,2.107-0.475,3.016c1.926,2.208,4.362,3.927,7.161,5.261c0.487,0.232,0.962,0.32,1.413,0.32
		c0.754,0.086,1.559-0.099,2.261-0.71c17.922-15.566,12.424-37.515,3.985-54.975C88.295,7.473,86.972,6.994,85.74,7.06z
		 M82.253,58.769c-0.72-0.415-1.416-0.868-2.042-1.378c0.028-0.095,0.063-0.188,0.078-0.286c0.005-0.007,0.012-0.012,0.017-0.019
		c10.858-14.604,9.384-27.784,0.801-42.625c1.152-0.534,2.31-1.06,3.466-1.587C90.979,28.994,96.346,43.762,82.253,58.769z"/>
	<path style="fill:#1D1D1B;" d="M38.266,44.075c-0.065-0.241-0.158-0.485-0.318-0.733c-2.144-3.332-2.806-7.364-1.739-11.191
		c0.6-2.153,4.287-6.753,1.312-8.415c-2.417-1.35-4.885-2.6-7.329-3.898c-0.432-0.23-0.854-0.312-1.254-0.302
		c-1.067-0.066-2.211,0.413-2.723,1.637c-4.352,10.405-5.031,22.763,3.448,31.274c0.608,0.61,1.304,0.796,1.956,0.71
		c0.391,0.001,0.802-0.088,1.223-0.32c2.422-1.334,4.53-3.053,6.196-5.261c0.686-0.909,0.342-2.235-0.411-3.016
		C38.51,44.395,38.405,44.219,38.266,44.075z M31.955,47.542c-5.183-6.378-4.583-14.704-2.008-22.194
		c1,0.527,2.002,1.054,2.999,1.587c-3.061,6.116-3.09,13.044,0.693,18.924c0.005,0.007,0.01,0.012,0.015,0.019
		c0.013,0.098,0.044,0.191,0.068,0.286C33.18,46.674,32.578,47.128,31.955,47.542z"/>
	<path style="fill:#1D1D1B;" d="M25.301,55.302c-0.075-0.241-0.183-0.485-0.368-0.733c-2.266-3.048-4.285-6.436-5.472-10.056
		c-1.99-6.074-1.687-11.881,0.133-17.932c0.993-3.302,2.399-6.151,4.301-9.019c0.898-1.354,3.122-5.053,0.545-6.3
		c-2.794-1.35-5.646-2.601-8.471-3.899c-0.5-0.23-0.987-0.312-1.449-0.302c-1.233-0.066-2.555,0.413-3.147,1.637
		C2.935,26.157-2.563,48.106,15.36,63.673c0.703,0.61,1.507,0.796,2.261,0.71c0.452,0.001,0.927-0.088,1.413-0.32
		c2.799-1.334,5.236-3.053,7.161-5.261c0.793-0.909,0.395-2.235-0.475-3.016C25.584,55.622,25.463,55.445,25.301,55.302z
		 M18.008,58.769c-14.094-15.007-8.726-29.775-2.32-45.895c1.156,0.527,2.314,1.054,3.466,1.587
		c-8.583,14.841-10.058,28.02,0.801,42.625c0.005,0.007,0.012,0.012,0.017,0.019c0.015,0.097,0.051,0.191,0.078,0.286
		C19.424,57.901,18.729,58.355,18.008,58.769z"/>
</g>
</svg>
