<?xml version="1.0" encoding="utf-8"?>
<!-- Generator: Adobe Illustrator 17.0.2, SVG Export Plug-In . SVG Version: 6.00 Build 0)  -->
<!DOCTYPE svg PUBLIC "-//W3C//DTD SVG 1.1//EN" "http://www.w3.org/Graphics/SVG/1.1/DTD/svg11.dtd">
<svg version="1.1" id="Capa_1" xmlns="http://www.w3.org/2000/svg" xmlns:xlink="http://www.w3.org/1999/xlink" x="0px" y="0px"
	 width="100px" height="100px" viewBox="0 0 100 100" enable-background="new 0 0 100 100" xml:space="preserve">
<g>
	<path fill="#1D1D1B" d="M85.121,62.996c0.247-1.344,0.985-3.712,1.338-4.844c0.38-1.221,0.601-1.938,0.711-2.476
		c1.568-7.643,0.708-14.555-2.707-21.751C79.384,23.224,71.523,16.231,61.73,13.704c-4.043-1.043-8.035-1.583-11.911-1.603
		c-1.11,0-2.34,0.209-3.643,0.431c-1.216,0.207-2.473,0.42-3.438,0.42c-0.241,0-0.416-0.014-0.537-0.029
		c-0.187-0.267-0.434-0.672-0.6-0.943c-0.456-0.746-0.927-1.516-1.521-2.106c-3.446-3.42-8.191-5.382-13.019-5.383
		c-8.091,0-15.241,5.482-17.386,13.333c-0.661,2.42-1.519,7.147,0.167,11.616c0.668,1.772,1.827,3.155,2.85,4.375
		c0.929,1.108,1.806,2.155,1.916,3.061c0.139,1.147-0.458,2.692-1.09,4.327c-0.606,1.568-1.232,3.19-1.436,4.958
		c-0.477,4.155-0.178,8.486,0.89,12.873c2.286,9.386,7.196,17.141,13.824,21.836c4.418,3.129,9.485,5.512,13.554,6.375
		c2.269,0.482,4.748,0.716,7.578,0.716c0.607,0,1.213-0.01,1.819-0.028c1.357-0.043,2.722-0.363,4.042-0.673
		c1.685-0.397,3.533-0.761,4.322-0.418c0.574,0.247,1.34,1.207,2.015,2.055c0.755,0.948,1.612,2.022,2.709,2.848
		c2.378,1.787,4.865,2.927,7.39,3.385c0.912,0.166,1.85,0.25,2.788,0.25c0,0,0,0,0,0c4.049,0,8.127-1.542,11.481-4.342
		c4.386-3.66,6.815-9.089,6.663-14.893C91.025,71.01,88.843,66.295,85.121,62.996z M80.653,86.433
		c-2.278,1.9-4.99,2.947-7.637,2.947c0,0,0,0,0,0c-0.579,0-1.156-0.051-1.715-0.153c-1.621-0.294-3.21-1.039-4.857-2.277
		c-0.487-0.366-1.039-1.059-1.623-1.791c-1.115-1.399-2.379-2.985-4.334-3.827c-1-0.43-2.086-0.64-3.322-0.64
		c-1.649,0-3.294,0.387-4.745,0.728c-1.08,0.254-2.099,0.493-2.855,0.517c-0.544,0.018-1.089,0.026-1.634,0.026
		c-2.406,0-4.477-0.191-6.332-0.585c-3.899-0.827-8.411-3.333-11.333-5.402c-5.448-3.858-9.519-10.379-11.462-18.359
		c-0.9-3.695-1.156-7.319-0.759-10.769c0.115-1.006,0.58-2.208,1.071-3.479c0.829-2.146,1.769-4.578,1.449-7.212
		c-0.324-2.673-1.958-4.625-3.272-6.192c-0.785-0.937-1.526-1.822-1.835-2.64c-0.795-2.106-0.792-4.992,0.007-7.917
		c1.457-5.332,6.118-8.914,11.597-8.914c3.256,0,6.461,1.328,8.768,3.616c0.133,0.151,0.446,0.664,0.653,1.002
		c0.757,1.238,1.54,2.52,2.864,3.164c0.939,0.457,2.049,0.679,3.393,0.679c1.472,0,3.05-0.269,4.443-0.505
		c1-0.17,2.033-0.346,2.651-0.346c3.335,0.018,6.833,0.493,10.397,1.412c10.125,2.613,15.818,10.679,18.811,16.984
		c2.867,6.042,3.562,11.584,2.25,17.973c-0.056,0.271-0.336,1.173-0.562,1.896c-1.652,5.302-2.255,7.82-1.093,9.688l0.297,0.479
		l0.451,0.337c2.937,2.201,4.678,5.639,4.777,9.433C85.266,80.262,83.623,83.954,80.653,86.433z"/>
	<path fill="#1D1D1B" d="M58.887,49.567c-3.34-1.119-13.1-2.512-15.577-6.035c4.698-6.368,14.262-2.004,20.502,1.04
		c0.713,0.348,1.401,0.319,1.982,0.072c0.682-0.107,1.318-0.476,1.635-1.114c0.846-1.705,1.637-3.436,2.554-5.107
		c2.887-5.267-10.982-8.717-13.732-9.507c-6.129-1.76-13.347-2.202-19.121,1.004c-3.09,1.716-5.571,4.903-6.878,8.173
		c-2.316,5.791,1.336,12.14,5.933,15.428c5.247,3.754,12.164,4.354,17.473,7.908c-3.406,1.148-13.588-0.001-16.672-2.564
		c-1.01-0.839-2.215-0.684-3.062-0.081c-0.228,0.113-0.452,0.26-0.664,0.474c-1.57,1.591-2.95,3.344-4.321,5.106
		c-0.788,1.013-0.992,2.341,0,3.333c0.117,0.116,0.254,0.216,0.401,0.306c0.132,0.162,0.282,0.317,0.469,0.455
		c7.517,5.545,24.967,8.709,33.805,4.653c4.836-2.22,11.105-9.605,8.456-15.279C69.815,53.005,63.523,51.121,58.887,49.567z
		 M65.51,65.494c-1.145,1.225-2.554,2.212-3.703,2.745c-2.883,1.336-6.161,1.903-9.318,1.982c-3.459,0.086-6.947-0.397-10.295-1.25
		c-0.621-0.158-8.455-3.128-8.252-3.377c0.539-0.662,1.097-1.307,1.668-1.941c3.895,2.587,9.435,3.156,13.984,2.941
		c2.817-0.133,11.018-1.267,10.329-5.42c-0.915-5.506-13.078-6.9-17.082-8.936c-2.696-1.371-6.637-4.35-7.831-7.255
		c-2.542-6.183,3.417-10.127,8.411-11.913c3.956-1.415,8.208-1.037,12.175,0.123c0.807,0.236,9.934,3.566,9.538,4.348
		c-0.342,0.675-0.675,1.354-1.005,2.035c0.439-0.908-13.957-3.655-15.398-3.565c-2.455,0.154-4.849,1.001-6.905,2.353
		c-10.28,6.761,5.185,13.02,10.629,14.544c4.012,1.123,14.361,2.347,15.143,7.587C67.858,62.249,66.87,64.039,65.51,65.494z"/>
</g>
</svg>
