<?xml version="1.0" encoding="iso-8859-1"?>
<!-- Generator: Adobe Illustrator 17.0.2, SVG Export Plug-In . SVG Version: 6.00 Build 0)  -->
<!DOCTYPE svg PUBLIC "-//W3C//DTD SVG 1.1//EN" "http://www.w3.org/Graphics/SVG/1.1/DTD/svg11.dtd">
<svg version="1.1" id="Capa_1" xmlns="http://www.w3.org/2000/svg" xmlns:xlink="http://www.w3.org/1999/xlink" x="0px" y="0px"
	 width="100px" height="100px" viewBox="0 0 100 100" style="enable-background:new 0 0 100 100;" xml:space="preserve">
<g>
	<path style="fill:#1E1E1C;" d="M78.042,15.074c-5.967-5.163-13.407-7.247-21.098-8.168C36.461,0.373,18.19,13.885,10.212,32.62
		C1.613,52.814,5.704,75.356,24.35,87.948c19.036,12.856,45.198,7.572,59.8-9.351C100.108,60.101,96.169,30.762,78.042,15.074z
		 M42.957,88.453c-10.799-1.537-21.277-8.181-26.749-17.655c-4.892-8.471-4.851-19.078-2.658-28.33
		c3.371-14.224,13.571-27.061,26.902-30.133c0.02,0.001,0.037,0.007,0.057,0.007c4.798,0.142,9.864,0.15,14.817,0.686
		c0.469,0.147,0.938,0.293,1.41,0.465c0.781,0.285,1.464,0.248,2.036,0.014c5.343,0.899,10.446,2.611,14.799,6.037
		c9.631,7.578,14.708,21.243,14.43,33.212C87.479,75.316,64.327,91.494,42.957,88.453z"/>
	<path style="fill:#1E1E1C;" d="M37.655,45.992c4.477,0,4.477-6.943,0-6.943S33.178,45.992,37.655,45.992z"/>
	<path style="fill:#1E1E1C;" d="M61.609,46.339c4.477,0,4.477-6.943,0-6.943S57.132,46.339,61.609,46.339z"/>
	<path style="fill:#1E1E1C;" d="M63.32,58.118c-8.317,8.265-19.048,7.441-27.376-0.347c-3.266-3.054-8.186,1.845-4.91,4.91
		c11.082,10.364,26.167,11.306,37.195,0.347C71.409,59.868,66.498,54.96,63.32,58.118z"/>
</g>
</svg>
