<?xml version="1.0" encoding="utf-8"?>
<!-- Generator: Adobe Illustrator 17.0.2, SVG Export Plug-In . SVG Version: 6.00 Build 0)  -->
<!DOCTYPE svg PUBLIC "-//W3C//DTD SVG 1.1//EN" "http://www.w3.org/Graphics/SVG/1.1/DTD/svg11.dtd">
<svg version="1.1" id="Capa_1" xmlns="http://www.w3.org/2000/svg" xmlns:xlink="http://www.w3.org/1999/xlink" x="0px" y="0px"
	 width="100px" height="100px" viewBox="0 0 100 100" enable-background="new 0 0 100 100" xml:space="preserve">
<g>
	<path fill="#1D1D1B" d="M76.593,27.908l-2.473,1.75c-2.892,2.046-5.06,3.514-6.731,4.556c0,0.005,0,0.009,0,0.013
		c1.241,0.296,2.31,0.821,3.185,1.507c0.84-0.552,1.767-1.178,2.813-1.901c-0.043,1.446-0.076,2.831-0.082,4.018
		c-0.211,0.222-0.418,0.432-0.627,0.648c0.478,1.187,0.602,2.53,0.323,3.932c0.943-0.923,1.896-1.891,2.872-2.929l0.433-0.433
		l-0.002-0.624c-0.006-2.015,0.087-4.815,0.182-7.51L76.593,27.908z"/>
	<path fill="#1D1D1B" d="M94.135,24.268c0.354,0.128,0.727,0.193,1.106,0.193c1.603,0,3.136-1.182,3.567-2.75
		c0.526-1.914-0.518-3.818-2.48-4.526c-0.069-0.025-0.139-0.05-0.208-0.075c0.492-0.891,0.586-1.95,0.225-2.987
		c-0.539-1.548-1.912-2.591-3.424-2.604c0.119-1.927-0.92-3.501-2.67-3.982c-1.75-0.48-4.284,0.511-4.603,2.781
		c-0.292,2.083-0.678,4.213-1.179,6.496c-0.979,0.671-2.12,1.483-3.28,2.32c0.022-2.349,0.002-4.212-0.064-5.704
		c1.112-1.034,2.29-2.108,3.52-3.141c1.611-1.354,1.969-3.434,0.868-5.057c-0.677-1.001-1.919-1.649-3.164-1.649
		c-0.798,0-1.528,0.259-2.111,0.749c-0.062,0.052-0.123,0.104-0.184,0.155c-0.753-0.973-1.959-1.483-3.104-1.483
		c-1.013,0-1.969,0.386-2.622,1.06c-0.121,0.125-0.231,0.259-0.331,0.399c-0.592-0.432-1.264-0.657-1.969-0.657
		c-1.438,0-2.803,0.975-3.397,2.425c-0.592,1.442-0.269,3.02,0.844,4.117c1.36,1.341,2.807,2.757,4.303,4.134
		c0.054,1.202,0.071,2.728,0.052,4.612c-2.139-1.486-3.834-2.61-5.201-3.45c-0.226-1.459-0.463-3.082-0.628-4.674
		c-0.217-2.093-1.739-3.555-3.702-3.555c-1.037,0-2.092,0.483-2.821,1.292c-0.663,0.736-0.976,1.65-0.88,2.57
		c0.009,0.081,0.017,0.162,0.025,0.243c-1.584,0.095-3.03,1.259-3.488,2.838c-0.219,0.754-0.185,1.499,0.072,2.165
		c-1.48,0.545-2.368,1.945-2.206,3.583c0.17,1.715,1.545,3.538,3.76,3.538c0.259,0,0.522-0.026,0.785-0.079
		c1.866-0.373,3.843-0.775,5.835-1.246c1.751,1.074,3.978,2.616,5.915,3.992c-1.589,1.129-3.358,2.355-4.916,3.358
		c0.458,0.943,0.76,1.941,0.905,2.983c1.787-1.113,4.143-2.731,7.464-5.124l1.688-1.217l-1.688-1.217
		c-3.904-2.813-6.482-4.562-8.357-5.668l-0.524-0.31l-0.593,0.144c-2.141,0.52-4.294,0.959-6.316,1.364
		c-0.594,0.119-0.933-0.421-0.972-0.813c-0.039-0.391,0.144-0.459,0.386-0.507c0.699-0.14,1.399-0.282,2.099-0.426l3.666-0.756
		l-3.88-2.423c-0.274-0.174-0.296-0.312-0.24-0.504c0.126-0.436,0.683-0.886,1.219-0.547l3.055,1.914l-0.416-3.16
		c-0.106-0.809-0.209-1.618-0.292-2.432c-0.01-0.096,0.093-0.218,0.124-0.253c0.177-0.195,0.438-0.301,0.593-0.301
		c0.567,0,0.691,0.604,0.718,0.865c0.2,1.92,0.495,3.855,0.757,5.519l0.109,0.696l0.605,0.36c1.82,1.082,4.338,2.77,7.923,5.313
		l2.3,1.632l0.068-2.819c0.09-3.759,0.078-6.392-0.039-8.285l-0.037-0.608l-0.451-0.41c-1.616-1.468-3.193-3.012-4.67-4.467
		c-0.102-0.1-0.371-0.365-0.175-0.843c0.139-0.337,0.434-0.563,0.622-0.563c0.11,0,0.233,0.098,0.317,0.181
		c0.509,0.501,1.019,1.001,1.529,1.499l2.677,2.61l-0.164-4.568c-0.005-0.179,0.026-0.305,0.094-0.375
		c0.089-0.091,0.269-0.148,0.469-0.148c0.14,0,0.835,0.036,0.857,0.745l0.107,3.618l2.403-2.132c0.61-0.542,1.224-1.08,1.85-1.605
		c0.045-0.038,0.124-0.046,0.182-0.046c0.273,0,0.571,0.17,0.68,0.331c0.318,0.469-0.113,0.91-0.313,1.078
		c-1.474,1.238-2.856,2.516-4.147,3.719l-0.516,0.481l0.042,0.704c0.121,2.059,0.137,4.978,0.048,9.184l-0.063,3.029l2.447-1.786
		c2.078-1.516,4.436-3.228,6.118-4.36l0.663-0.446v-0.639c0.562-2.518,0.992-4.856,1.312-7.144c0.013-0.093,0.328-0.321,0.7-0.321
		c0.07,0,0.115,0.009,0.136,0.015c0.386,0.106,0.539,0.464,0.455,1.065c-0.103,0.734-0.221,1.467-0.345,2.198l-0.643,3.801
		l3.629-2.819c0.089-0.071,0.221-0.155,0.341-0.155c0.2,0,0.496,0.237,0.619,0.591c0.166,0.477-0.127,0.709-0.236,0.796
		c-0.208,0.165-0.418,0.326-0.629,0.486l-2.602,2l2.832,0.829c0.94,0.275,1.713,0.524,2.432,0.784
		c0.131,0.047,0.771,0.312,0.607,0.91c-0.074,0.27-0.427,0.532-0.763,0.531c-1.89-0.683-3.923-1.258-6.215-1.761l-0.629-0.138
		l-0.532,0.36c-2.004,1.354-4.819,3.391-7.304,5.187l-1.681,1.215l1.681,1.215c2.998,2.168,5.439,3.927,7.304,5.188l0.532,0.36
		l0.629-0.138c2.296-0.504,4.329-1.08,6.303-1.775c0.26,0,0.601,0.275,0.675,0.545c0.164,0.598-0.477,0.863-0.606,0.91
		c-0.716,0.258-1.512,0.515-2.433,0.785l-2.832,0.829l2.602,2c0.211,0.161,0.421,0.322,0.628,0.486
		c0.11,0.087,0.403,0.32,0.237,0.797c-0.123,0.353-0.419,0.59-0.619,0.59c-0.12,0-0.252-0.084-0.343-0.156l-3.627-2.818l0.643,3.801
		c0.124,0.731,0.242,1.463,0.345,2.199c0.084,0.6-0.069,0.958-0.456,1.064c-0.02,0.006-0.064,0.015-0.135,0.015
		c-0.372,0-0.688-0.228-0.7-0.32c-0.32-2.288-0.75-4.626-1.312-7.144v-0.639l-0.663-0.446c-1.696-1.142-4.066-2.863-6.35-4.528
		l-2.296-1.675l-0.087,2.841c-0.104,3.384-0.19,6.364-0.189,8.56v0.644l0.467,0.443c1.701,1.618,3.317,2.979,4.94,4.16
		c0.106,0.078,0.137,0.248,0.146,0.317c0.025,0.222-0.039,0.474-0.156,0.612c-0.271,0.318-0.705,0.291-1.094,0.007
		c-0.618-0.45-1.258-0.95-2.013-1.574l-2.272-1.879l-0.202,3.3c-0.015,0.256-0.029,0.512-0.049,0.766
		c-0.044,0.59-0.52,0.679-0.8,0.679c-0.223,0-0.433-0.071-0.535-0.182c-0.027-0.03-0.112-0.121-0.092-0.402l0.312-4.597
		l-2.798,2.673c-0.115,0.11-0.233,0.216-0.349,0.325c1.861,1.343,3.131,3.152,3.665,5.171c1.266-0.066,2.552-0.734,3.189-1.983
		c0.059,0.043,0.118,0.087,0.177,0.129c0.705,0.514,1.551,0.797,2.38,0.797c1.073,0,2.053-0.455,2.76-1.28
		c0.659-0.772,0.979-1.86,0.855-2.912c-0.017-0.14-0.041-0.276-0.071-0.41c0.916,1.298,2.721,1.797,4.067,1.426
		c1.752-0.482,2.79-2.057,2.671-3.982c1.511-0.013,2.885-1.056,3.424-2.604c0.361-1.037,0.269-2.096-0.225-2.987
		c0.069-0.025,0.139-0.05,0.208-0.075c1.963-0.709,3.007-2.612,2.48-4.527c-0.432-1.567-1.965-2.75-3.567-2.75
		c-0.38,0-0.752,0.065-1.107,0.193c-1.589,0.574-3.299,1.07-5.21,1.51c-1.377-0.945-3.052-2.142-5.01-3.554
		c1.763-1.272,3.561-2.558,5.01-3.553C90.832,23.196,92.542,23.692,94.135,24.268z M84.895,41.677
		c-1.368-0.996-2.737-2.134-4.171-3.469c0.01-1.406,0.048-3.098,0.102-4.983c1.314,0.951,2.577,1.852,3.645,2.583
		c0.501,2.282,0.887,4.413,1.179,6.496c0.009,0.064,0.02,0.126,0.032,0.188C85.469,42.178,85.205,41.902,84.895,41.677z"/>
	<path fill="#1D1D1B" d="M69.751,62.998c-0.638,0-1.263,0.108-1.858,0.323c-2.694,0.973-5.587,1.811-8.812,2.554
		c-2.449-1.681-5.44-3.822-8.503-6.031c3.062-2.209,6.054-4.351,8.503-6.031c3.225,0.743,6.117,1.581,8.812,2.554
		c0.596,0.215,1.221,0.323,1.858,0.323c1.899,0,3.728-1.001,4.901-2.51c0.803-1.938,0.699-3.839-0.09-5.482
		c-0.598-1.244-1.586-2.336-2.871-3.182c-0.266-0.174-0.538-0.341-0.827-0.493c-0.128-0.068-0.225-0.15-0.3-0.241
		c-0.209-0.251-0.231-0.571-0.132-0.862c0.019-0.088,0.027-0.175,0.073-0.265c0.649-1.292,0.811-2.501,0.601-3.568
		c-0.263-1.332-1.111-2.437-2.37-3.178c-0.749-0.441-1.64-0.754-2.633-0.91c-0.135-0.021-0.247-0.062-0.341-0.117
		c-0.281-0.165-0.388-0.462-0.368-0.769c-0.008-0.068-0.031-0.126-0.025-0.203c0.04-0.519,0.035-1.027-0.006-1.526
		c-0.089-1.076-0.37-2.1-0.862-3.054c-0.044-0.086-0.093-0.17-0.14-0.254c-0.026-0.006-0.052-0.011-0.078-0.017
		c-0.754-0.874-1.75-1.535-2.965-1.87c-0.496-0.136-1.021-0.205-1.563-0.205c-2.657,0-5.721,1.708-6.163,4.874
		c-0.491,3.505-1.144,7.104-1.991,10.976c-1.669,1.143-3.618,2.53-5.599,3.959c0.04-4.004,0.005-7.171-0.107-9.703
		c1.825-1.696,3.872-3.565,5.949-5.31c2.708-2.273,3.309-5.767,1.462-8.496c-1.139-1.681-3.225-2.767-5.314-2.767
		c-1.339,0-2.563,0.435-3.542,1.256c-0.112,0.095-0.225,0.189-0.337,0.284c-1.262-1.652-3.3-2.519-5.233-2.519
		c-1.701,0-3.306,0.648-4.401,1.778c-0.213,0.219-0.404,0.452-0.574,0.697c-1.001-0.737-2.137-1.123-3.331-1.123
		c-2.413,0-4.706,1.637-5.705,4.074c-0.994,2.423-0.45,5.072,1.418,6.914c2.29,2.258,4.727,4.645,7.27,6.985
		c0.093,2.043,0.122,4.643,0.088,7.858c-3.64-2.529-6.52-4.44-8.838-5.863c-0.382-2.468-0.783-5.214-1.062-7.905
		c-0.365-3.516-2.921-5.971-6.216-5.971c-1.741,0-3.513,0.811-4.737,2.169c-1.114,1.236-1.64,2.769-1.479,4.317
		c0.015,0.146,0.03,0.293,0.046,0.439c-2.673,0.146-5.118,2.106-5.891,4.769c-0.37,1.275-0.31,2.537,0.131,3.662
		c-2.536,0.901-4.009,3.219-3.731,6.028c0.286,2.88,2.595,5.942,6.312,5.942c0.436,0,0.879-0.044,1.321-0.133
		c3.167-0.634,6.52-1.316,9.859-2.105c2.969,1.82,6.749,4.439,10.03,6.771c-3.282,2.333-7.062,4.951-10.03,6.771
		c-3.342-0.789-6.693-1.471-9.86-2.104c-0.441-0.089-0.885-0.133-1.32-0.133c-3.718,0-6.027,3.062-6.312,5.942
		c-0.278,2.808,1.195,5.126,3.731,6.027c-0.44,1.125-0.5,2.387-0.131,3.662c0.772,2.662,3.218,4.623,5.891,4.769
		c-0.016,0.146-0.031,0.293-0.046,0.439c-0.161,1.549,0.364,3.082,1.479,4.317c1.226,1.358,2.996,2.17,4.737,2.17
		c3.295,0,5.851-2.455,6.216-5.972c0.281-2.702,0.67-5.368,1.062-7.903c2.158-1.325,4.801-3.071,8.096-5.35
		c-0.074,2.474-0.131,4.84-0.142,6.855c-2.728,2.869-5.343,5.428-7.973,7.801c-1.141,1.029-1.757,2.508-1.735,4.163
		c0.024,1.854,0.868,3.714,2.2,4.853c2.278,1.948,5.554,1.904,8.079-0.058c0.154,0.229,0.327,0.446,0.517,0.651
		c1.13,1.218,2.804,1.916,4.593,1.916c2.243,0,4.593-1.153,5.715-3.384c0.11,0.081,0.219,0.161,0.328,0.241
		c1.186,0.862,2.605,1.338,3.998,1.338c1.802,0,3.447-0.763,4.633-2.148c1.107-1.296,1.645-3.125,1.438-4.892
		c-0.035-0.293-0.089-0.578-0.16-0.854c1.501,2.283,4.615,3.174,6.928,2.536c2.949-0.811,4.694-3.47,4.481-6.722
		c2.551-0.007,4.874-1.763,5.783-4.374c0.61-1.754,0.447-3.545-0.396-5.048c0.13-0.046,0.258-0.092,0.386-0.138
		c3.298-1.189,5.051-4.387,4.167-7.603C75.015,64.982,72.44,62.998,69.751,62.998z M52.271,85.803
		c-2.314-1.685-4.63-3.609-7.054-5.865c0.016-2.389,0.082-5.27,0.173-8.484c2.237,1.618,4.389,3.154,6.211,4.401
		c0.848,3.871,1.5,7.471,1.991,10.976c0.022,0.165,0.053,0.325,0.09,0.482C53.312,86.727,52.837,86.216,52.271,85.803z
		 M69.875,70.514c-1.21,0.437-2.553,0.87-4.106,1.324l-4.729,1.384l4.284,3.286c0.378,0.289,0.756,0.577,1.127,0.87
		c0.191,0.151,0.698,0.554,0.411,1.38c-0.192,0.553-0.686,1.019-1.076,1.019c-0.212,0-0.44-0.146-0.595-0.268
		c-0.198-0.158-0.4-0.312-0.602-0.466l-5.459-4.249l1.073,6.342c0.209,1.235,0.406,2.471,0.581,3.71
		c0.144,1.031-0.123,1.647-0.791,1.831c-0.036,0.011-0.115,0.027-0.237,0.027c-0.643,0-1.189-0.403-1.213-0.567
		c-0.546-3.904-1.285-7.915-2.259-12.257l-0.305-1.101l-0.759-0.51c-2.875-1.935-6.87-4.836-10.715-7.643l-3.826-2.793l-0.146,4.735
		c-0.182,5.92-0.321,10.742-0.319,14.446l0.001,1.072l0.776,0.738c2.869,2.729,5.596,5.024,8.336,7.02
		c0.189,0.138,0.243,0.434,0.258,0.555c0.045,0.383-0.067,0.818-0.271,1.058c-0.473,0.549-1.222,0.504-1.889,0.018
		c-1.046-0.761-2.126-1.605-3.397-2.658l-3.791-3.135l-0.331,5.469c-0.026,0.445-0.052,0.892-0.085,1.336
		c-0.079,1.06-0.992,1.174-1.381,1.174c-0.385,0-0.748-0.125-0.927-0.316c-0.05-0.054-0.199-0.215-0.162-0.703
		c0.02-0.256,0.034-0.512,0.049-0.768l0.461-6.895l-4.652,4.439c-0.905,0.865-1.818,1.722-2.749,2.562
		c-0.446,0.403-0.94,0.644-1.32,0.644c-0.148,0-0.355-0.031-0.64-0.273c-0.211-0.181-0.442-0.659-0.448-1.118
		c-0.003-0.199,0.04-0.344,0.085-0.384c2.944-2.658,5.865-5.533,8.89-8.749l0.735-0.735l-0.003-1.04
		c-0.01-3.38,0.146-8.115,0.306-12.676l0.178-5.045l-4.12,2.917c-5.804,4.108-9.897,6.848-12.884,8.622l-1.01,0.601l-0.183,1.161
		c-0.441,2.81-0.94,6.078-1.275,9.312c-0.047,0.447-0.261,1.487-1.243,1.487c-0.27,0-0.721-0.182-1.023-0.518
		c-0.057-0.062-0.237-0.278-0.22-0.454c0.143-1.37,0.313-2.736,0.494-4.102l0.697-5.275l-5.097,3.197
		c-0.248,0.157-0.479,0.233-0.703,0.233c-0.639,0-1.242-0.605-1.406-1.17c-0.099-0.341-0.062-0.583,0.418-0.887l6.49-4.048
		l-6.119-1.26c-1.18-0.243-2.36-0.483-3.542-0.72c-0.409-0.082-0.742-0.206-0.675-0.891c0.067-0.673,0.638-1.604,1.676-1.399
		c3.434,0.688,7.085,1.432,10.664,2.302l0.987,0.239l0.875-0.517c3.164-1.869,7.513-4.818,14.101-9.564l2.816-2.028l-2.816-2.028
		c-6.587-4.745-10.936-7.695-14.101-9.565l-0.875-0.517l-0.987,0.24c-3.578,0.87-7.229,1.614-10.663,2.301
		c-1.04,0.21-1.608-0.726-1.677-1.399c-0.067-0.685,0.266-0.808,0.675-0.89c1.182-0.236,2.362-0.477,3.542-0.72l6.112-1.259
		l-6.482-4.049c-0.48-0.304-0.519-0.546-0.419-0.887c0.163-0.565,0.768-1.17,1.406-1.17c0.225,0,0.455,0.077,0.702,0.233
		l5.098,3.198l-0.697-5.275c-0.181-1.365-0.352-2.732-0.494-4.102c-0.018-0.175,0.163-0.391,0.219-0.453
		c0.304-0.336,0.754-0.518,1.024-0.518c0.982,0,1.196,1.04,1.243,1.487c0.336,3.235,0.834,6.503,1.275,9.312l0.183,1.161l1.01,0.6
		c3.07,1.825,7.32,4.675,13.374,8.97l3.833,2.72l0.112-4.699c0.152-6.347,0.132-10.789-0.064-13.979l-0.062-1.014l-0.752-0.683
		c-2.749-2.497-5.401-5.094-7.883-7.541c-0.158-0.156-0.64-0.631-0.302-1.457c0.238-0.58,0.75-0.97,1.079-0.97
		c0.197,0,0.412,0.171,0.557,0.313c0.858,0.847,1.72,1.69,2.582,2.531l4.463,4.348l-0.245-6.853
		c-0.011-0.258-0.021-0.515-0.029-0.777c-0.01-0.311,0.047-0.532,0.167-0.656c0.155-0.16,0.467-0.259,0.812-0.259
		c0.24,0,1.44,0.062,1.478,1.292l0.209,6.015l3.978-3.535c1.029-0.915,2.065-1.821,3.122-2.708c0.083-0.07,0.224-0.085,0.326-0.085
		c0.472,0,0.987,0.295,1.174,0.57c0.551,0.813-0.191,1.573-0.536,1.863c-2.499,2.099-4.922,4.34-6.997,6.276l-0.858,0.802
		l0.068,1.173c0.205,3.47,0.23,8.396,0.081,15.502l-0.106,5.049l4.079-2.977c3.508-2.56,7.488-5.45,10.326-7.359l0.734-0.494
		l0.26-0.846l0.069-0.274c0.504-2.249,0.942-4.406,1.327-6.508c0.357-1.955,0.668-3.863,0.931-5.745
		c0.006-0.044,0.055-0.105,0.128-0.171c0.199-0.18,0.614-0.396,1.084-0.396c0.123,0,0.201,0.016,0.237,0.026
		c0.395,0.109,0.631,0.385,0.744,0.79c0.079,0.282,0.106,0.617,0.048,1.039c-0.092,0.65-0.202,1.297-0.305,1.945
		c-0.058,0.365-0.11,0.731-0.171,1.096c-0.037,0.224-0.067,0.449-0.105,0.672l-0.405,2.391l-0.669,3.951l1.949-1.517l2.531-1.969
		l0.975-0.758c0.188-0.144,0.376-0.288,0.561-0.434c0.016-0.012,0.031-0.023,0.046-0.035c0.154-0.123,0.383-0.268,0.595-0.268
		c0.391,0,0.884,0.466,1.076,1.019c0.287,0.826-0.22,1.228-0.41,1.378c-0.366,0.29-0.735,0.572-1.104,0.854l-2.326,1.786
		l-1.979,1.52l4.729,1.381c1.577,0.461,2.882,0.882,4.105,1.324c0.225,0.081,1.328,0.537,1.044,1.573
		c-0.146,0.528-0.896,1.072-1.329,0.917c-3.189-1.151-6.619-2.123-10.484-2.969l-1.047-0.229l-0.889,0.6
		c-3.362,2.273-7.919,5.567-12.325,8.753l-2.802,2.026l2.802,2.026c4.406,3.186,8.962,6.479,12.325,8.753l0.889,0.601l1.047-0.229
		c3.865-0.847,7.295-1.818,10.484-2.97c0.438-0.158,1.184,0.388,1.328,0.915C71.203,69.977,70.1,70.433,69.875,70.514z"/>
</g>
</svg>
