<?xml version="1.0" encoding="utf-8"?>
<!-- Generator: Adobe Illustrator 17.0.2, SVG Export Plug-In . SVG Version: 6.00 Build 0)  -->
<!DOCTYPE svg PUBLIC "-//W3C//DTD SVG 1.1//EN" "http://www.w3.org/Graphics/SVG/1.1/DTD/svg11.dtd">
<svg version="1.1" id="Capa_1" xmlns="http://www.w3.org/2000/svg" xmlns:xlink="http://www.w3.org/1999/xlink" x="0px" y="0px"
	 width="100px" height="100px" viewBox="0 0 100 100" enable-background="new 0 0 100 100" xml:space="preserve">
<g>
	<path fill="#1D1D1B" d="M67.864,9.505C44.383,0.747,16.943,13.149,7.747,36.064C5.524,41.605,3.951,48.245,3.821,54.24
		C3.33,76.778,22.949,92.241,44.087,93.166c19.475,0.852,40.467-10.106,49.002-27.932C103.685,43.106,89.659,17.635,67.864,9.505z
		 M65.846,15.571c3.498,1.208,6.84,2.91,9.936,5.157c-0.173,0.157-0.345,0.315-0.521,0.468c-0.084,0.072-0.169,0.143-0.253,0.214
		c-3.247-0.271-6.495-0.541-9.742-0.812C65.458,18.923,65.651,17.247,65.846,15.571z M39.084,15.32
		c-0.536,1.411-1.023,2.837-1.436,4.29c-2.442-0.086-4.848-0.33-7.234-0.739C33.139,17.292,36.05,16.086,39.084,15.32z
		 M12.323,65.848c-0.681-1.699-1.246-3.482-1.649-5.37c-1.385-6.49-0.659-13.293,1.635-19.623c2.754,2.251,5.621,4.36,8.497,6.455
		c0.211,3.266,0.247,6.536,0.25,9.809C18.268,60.152,15.356,63.062,12.323,65.848z M49.966,86.7
		c-3.326,0.315-6.656,0.24-9.899-0.227c-0.606-4.267-1.151-8.532-1.242-12.844c3.247-2.545,6.709-4.763,10.399-6.605
		c2.461,2.165,4.964,4.276,7.591,6.237c-1.899,4.497-4.109,8.841-6.646,13.016C50.083,86.419,50.024,86.559,49.966,86.7z
		 M90.23,52.119c-0.295,4.696-1.704,8.979-3.9,12.817c-1.243-1.639-2.559-3.215-3.964-4.718c1.019-3.194,1.667-6.454,2.06-9.78
		c1.904-1.054,3.816-2.1,5.779-3.041C90.311,48.969,90.329,50.546,90.23,52.119z M80.938,46.279
		c-0.599,0.333-0.964,0.784-1.152,1.278c-0.272,0.373-0.467,0.825-0.521,1.376c-0.368,3.77-1.135,7.428-2.389,11.005
		c-0.218,0.62-0.203,1.171-0.034,1.637c0.093,0.45,0.312,0.898,0.719,1.308c1.917,1.934,3.672,3.995,5.263,6.205
		c0.11,0.153,0.232,0.295,0.362,0.426c-6.509,8.008-16.598,13.51-26.422,15.99c2.155-3.905,4.043-7.937,5.726-12.082
		c0.472-1.164,0.079-2.081-0.667-2.629c-0.189-0.402-0.476-0.779-0.911-1.087c-3.319-2.354-6.361-5.047-9.399-7.747
		c-1.033-0.918-2.26-0.844-3.192-0.29c-0.244,0.043-0.491,0.109-0.743,0.228c-4.818,2.277-9.179,5.235-13.316,8.58
		c-0.911,0.736-1.059,1.654-0.768,2.463c-0.001,0.045-0.012,0.083-0.011,0.129c0.047,4.097,0.527,8.157,1.085,12.209
		c-8.15-2.373-15.304-7.328-19.787-14.56c0.181-0.102,0.359-0.225,0.53-0.381c3.601-3.26,7.033-6.692,10.293-10.293
		c0.554-0.611,0.75-1.294,0.705-1.944c0.046-0.201,0.074-0.415,0.074-0.649c-0.001-3.91-0.027-7.814-0.355-11.713
		c-0.096-1.142-0.767-1.894-1.598-2.271c-0.126-0.135-0.267-0.264-0.43-0.383c-3.225-2.346-6.422-4.718-9.459-7.299
		c2.505-4.833,5.945-9.203,10.02-12.727c4.725,1.205,9.535,1.866,14.422,1.916c0.223,0.002,0.43-0.021,0.625-0.061
		c3.654-0.755,3.98-6.846,5.223-9.776c0.098-0.231,0.165-0.467,0.218-0.703c0.225-0.01,0.448-0.034,0.674-0.039
		c1.015-0.023,1.777-0.435,2.286-1.037c4.277-0.293,8.547-0.044,12.678,0.804c-0.31,2.717-0.636,5.432-0.94,8.15
		c-0.038,0.34,0.022,0.666,0.144,0.968c0.18,1.173,1.021,2.279,2.518,2.404c4.259,0.355,8.518,0.71,12.777,1.065
		c0.152,0.013,0.289,0.002,0.428-0.007c0.57,0.089,1.152,0.003,1.625-0.357c0.912-0.693,1.766-1.437,2.6-2.204
		c4.855,4.837,8.13,11.102,9.591,17.767C86.529,43.253,83.726,44.731,80.938,46.279z"/>
	<path fill="#1D1D1B" d="M65.338,37.062c-1.198-1.862-2.184-3.797-3.246-5.734c-2.467-4.501-5.455-4.224-10.166-4.223
		c-1.949,0-3.902-0.358-5.852-0.23c-4.374,0.286-5.263,3.617-5.55,7.28c-0.21,2.681-0.617,5.378-1.127,8.018
		c-0.032,0.167-0.038,0.324-0.045,0.481c-0.297,0.872-0.146,1.864,0.78,2.683c3.454,3.052,7.044,5.94,10.679,8.772
		c0.162,0.127,0.332,0.239,0.506,0.339c1.026,0.896,2.617,1.202,3.921,0.042c2.713-2.414,5.578-4.649,8.438-6.884
		c1.776-1.388,4.374-2.73,4.334-5.217c-0.003-0.16-0.016-0.326-0.042-0.496C67.705,40.141,66.264,38.501,65.338,37.062z
		 M53.19,48.736c-2.713-2.144-5.396-4.325-8.008-6.593c0.53-3.088,0.891-6.199,1.192-9.318h10.054
		c1.614,3.127,3.381,6.168,5.185,9.189C58.788,44.236,55.939,46.423,53.19,48.736z"/>
</g>
</svg>
