<?xml version="1.0" encoding="utf-8"?>
<!-- Generator: Adobe Illustrator 17.0.2, SVG Export Plug-In . SVG Version: 6.00 Build 0)  -->
<!DOCTYPE svg PUBLIC "-//W3C//DTD SVG 1.1//EN" "http://www.w3.org/Graphics/SVG/1.1/DTD/svg11.dtd">
<svg version="1.1" id="Capa_1" xmlns="http://www.w3.org/2000/svg" xmlns:xlink="http://www.w3.org/1999/xlink" x="0px" y="0px"
	 width="100px" height="100px" viewBox="0 0 100 100" enable-background="new 0 0 100 100" xml:space="preserve">
<g>
	<path fill="#1D1D1B" d="M81.401,20.109c-0.176-0.047-0.362-0.081-0.571-0.08c-8.67,0.007-17.339,0.107-26.008,0.214V4.729
		c0-0.097-0.017-0.183-0.027-0.274C54.76,3.289,53.76,2.015,52.24,2.252c-3.73,0.583-7.324,1.859-10.431,4.03
		c-2.14,1.495-0.104,5.034,2.059,3.523c2.123-1.483,4.426-2.464,6.875-3.091v13.575c-9.689,0.121-19.378,0.241-29.068,0.249
		c-1.136,0.001-1.778,0.762-1.934,1.626c-0.121,0.116-0.236,0.246-0.338,0.404c-1.052,1.631-1.869,3.65-1.221,5.593
		c0.69,2.07,2.737,3.086,4.735,3.523c0.321,0.07,0.619,0.07,0.89,0.015c0.094,0.021,0.196,0.031,0.297,0.041
		c2.058,16.153,4.563,43.459,7.588,59.46c0.16,0.848,0.693,1.293,1.317,1.426c0.179,0.107,0.376,0.199,0.617,0.254
		c12.368,2.818,25.092,3.348,37.547,0.765c1.039-0.215,1.473-0.984,1.462-1.79c0.157-0.265,0.265-0.575,0.291-0.942
		c1.119-16.289,4.526-43.493,6.812-59.634c0.018-0.13,0.019-0.253,0.016-0.375c0.613-0.059,1.228-0.104,1.841-0.167
		c1.159-0.12,1.8-1.004,1.925-1.919c1.085-2.566,1.18-5.364-0.418-7.78C82.662,20.374,82.029,20.105,81.401,20.109z M68.93,89.934
		c-11.111,2.116-22.461,1.596-33.487-0.829c-0.879-4.686-1.708-20.599-2.498-25.299c5.815,1.804,11.316,1.172,17.213-1.266
		c7.134-2.949,13.467-7.024,21.479-6.074C70.491,63.85,69.483,82.472,68.93,89.934z M72.265,52.495
		c-0.115-0.034-0.231-0.067-0.359-0.084c-14.144-1.869-25.585,12.882-39.513,6.908c-0.068-0.029-0.135-0.042-0.202-0.064
		c-0.372-2.291-0.736-4.583-1.089-6.877c12.63,9.575,27.04-9.384,41.282-5.394c0.274,0.077,0.528,0.091,0.766,0.069
		C72.852,48.866,72.557,50.681,72.265,52.495z M73.786,43.174c-0.101-0.045-0.202-0.091-0.318-0.124
		c-7.215-2.021-13.923,0.634-20.44,3.643c-7.871,3.634-15.659,7.664-22.262-0.314c-0.2-0.241-0.417-0.408-0.641-0.52
		c-0.677-4.648-1.326-9.3-1.921-13.96c15.82,0.556,31.658,0.656,47.438-0.62C75.068,35.25,74.433,39.213,73.786,43.174z
		 M79.965,26.805c-18.532,1.806-37.153,1.608-55.741,0.873c-0.147-0.006-0.283,0.006-0.413,0.024
		c-0.494-0.113-0.969-0.241-1.416-0.489c-0.321-0.179-0.112-0.054-0.348-0.296c0.133,0.137,0.024-0.099-0.011-0.133
		c-0.066-0.48,0.434-1.452,0.889-2.157c0.003-0.006,0.005-0.011,0.008-0.017c19.049-0.034,38.094-0.471,57.143-0.499
		C80.368,24.984,80.312,25.892,79.965,26.805z"/>
</g>
</svg>
