<?xml version="1.0" encoding="iso-8859-1"?>
<!-- Generator: Adobe Illustrator 17.0.2, SVG Export Plug-In . SVG Version: 6.00 Build 0)  -->
<!DOCTYPE svg PUBLIC "-//W3C//DTD SVG 1.1//EN" "http://www.w3.org/Graphics/SVG/1.1/DTD/svg11.dtd">
<svg version="1.1" id="Capa_1" xmlns="http://www.w3.org/2000/svg" xmlns:xlink="http://www.w3.org/1999/xlink" x="0px" y="0px"
	 width="100px" height="100px" viewBox="0 0 100 100" style="enable-background:new 0 0 100 100;" xml:space="preserve">
<g>
	<path d="M57.784,11.397c-0.296-0.207-0.589-0.326-0.874-0.389c-0.65-0.439-1.493-0.509-2.35,0.142
		c-9.637,7.316-20.041,13.49-30.155,20.106c-6.205,0.003-12.403,0.05-18.595,0.491c-0.038,0.003-0.071,0.012-0.108,0.016
		c-0.26-0.016-0.525-0.002-0.793,0.072c-1.264,0.348-2.116,1.747-1.72,3.029c0.301,0.978,0.377,1.948,0.397,2.958
		c-0.428,7.669-0.219,15.322,0.254,22.985c0.114,1.85,1.852,2.613,3.234,2.295c5.435,0.575,10.857,0.591,16.307,0.205
		c10.551,6.467,19.825,14.708,29.948,21.791c0.777,0.544,1.538,0.539,2.159,0.227c0.368-0.099,0.733-0.288,1.072-0.612
		c1.471-1.41,2.859-2.914,4.179-4.482c0.628-0.286,0.989-0.787,1.125-1.36C77.85,58.679,81.068,27.658,57.784,11.397z
		 M25.872,59.059c-0.332-0.402-0.824-0.669-1.473-0.705c-0.287-0.05-0.561-0.04-0.822,0.019c-4.999,0.364-9.972,0.392-14.954-0.04
		C8.285,52.055,8.17,45.782,8.446,39.5c0.044-0.19,0.072-0.391,0.072-0.611c0-0.312-0.006-0.625-0.011-0.938
		c0.005-0.098,0.006-0.195,0.011-0.293c0.013-0.233-0.006-0.444-0.046-0.641c-0.008-0.164-0.016-0.327-0.027-0.491
		c5.52-0.3,11.044-0.346,16.573-0.346c0.485,0,0.887-0.125,1.223-0.319c0.169-0.065,0.34-0.151,0.512-0.263
		c8.594-5.627,17.395-10.937,25.765-16.889c-6.761,5.688-8.535,19.642-8.953,27.227c-0.395,7.17-0.147,14.968,2.077,21.859
		c0.725,2.246,1.318,4.806,2.19,7.158C40.642,69.47,33.596,63.793,25.872,59.059z M48.448,46.935
		c0.052-1.63,0.178-4.023,0.478-6.698c6.911,3.946,7.696,13.266-0.34,16.425C48.338,53.416,48.346,50.139,48.448,46.935z
		 M58.308,75.358c-0.606,0.044-1.085,0.271-1.437,0.612c-2.917,0.271-3.763-0.764-4.712-4.259c-0.712-2.621-1.825-5.09-2.467-7.73
		c-0.187-0.768-0.344-1.545-0.485-2.325c13.937-4.538,12.449-20.768,0.477-26.471c1.509-7.802,4.815-15.606,12.078-13.688
		C74.817,36.643,70.426,59.68,58.308,75.358z"/>
	<path d="M83.419,21.633c7.957,17.633,5.741,37.369-5.4,53.076c-2.02,2.848,2.666,5.541,4.663,2.726
		c12.325-17.377,14.127-39.189,5.4-58.528C86.651,15.738,81.998,18.486,83.419,21.633z"/>
	<path d="M78.419,23.992c-1.181-2.617-5.022-0.348-3.85,2.25c6.569,14.557,4.74,30.852-4.458,43.82
		c-1.667,2.351,2.201,4.574,3.85,2.25C84.137,57.966,85.624,39.958,78.419,23.992z"/>
</g>
</svg>
