<?xml version="1.0" encoding="iso-8859-1"?>
<!-- Generator: Adobe Illustrator 17.0.2, SVG Export Plug-In . SVG Version: 6.00 Build 0)  -->
<!DOCTYPE svg PUBLIC "-//W3C//DTD SVG 1.1//EN" "http://www.w3.org/Graphics/SVG/1.1/DTD/svg11.dtd">
<svg version="1.1" id="Capa_1" xmlns="http://www.w3.org/2000/svg" xmlns:xlink="http://www.w3.org/1999/xlink" x="0px" y="0px"
	 width="100px" height="100px" viewBox="0 0 100 100" style="enable-background:new 0 0 100 100;" xml:space="preserve">
<g>
	<path d="M63.532,9.126c-0.315-0.22-0.626-0.346-0.928-0.413c-0.69-0.466-1.585-0.54-2.496,0.151
		c-10.234,7.769-21.281,14.325-32.021,21.35c-6.588,0.004-13.17,0.053-19.745,0.521c-0.04,0.003-0.075,0.013-0.114,0.017
		c-0.276-0.017-0.558-0.002-0.842,0.076c-1.342,0.369-2.246,1.855-1.826,3.217c0.32,1.038,0.401,2.069,0.421,3.141
		c-0.455,8.144-0.233,16.27,0.27,24.407c0.121,1.964,1.967,2.774,3.434,2.437c5.771,0.61,11.528,0.628,17.316,0.218
		C38.203,71.115,48.05,79.867,58.8,87.387c0.825,0.577,1.633,0.572,2.292,0.241c0.391-0.105,0.779-0.305,1.138-0.65
		c1.562-1.497,3.036-3.094,4.437-4.759c0.667-0.304,1.05-0.836,1.195-1.444C84.839,59.333,88.255,26.393,63.532,9.126z
		 M29.645,59.736c-0.352-0.427-0.875-0.71-1.564-0.749c-0.304-0.053-0.596-0.042-0.873,0.02c-5.308,0.386-10.589,0.416-15.879-0.042
		c-0.359-6.665-0.481-13.326-0.187-19.997c0.047-0.201,0.076-0.415,0.076-0.648c0-0.331-0.006-0.664-0.012-0.996
		c0.006-0.104,0.006-0.208,0.012-0.311c0.014-0.247-0.007-0.471-0.049-0.68c-0.008-0.174-0.017-0.347-0.029-0.521
		c5.861-0.319,11.727-0.367,17.599-0.368c0.515,0,0.941-0.133,1.299-0.339c0.18-0.069,0.361-0.16,0.544-0.279
		c9.126-5.975,18.471-11.613,27.359-17.934c-7.179,6.04-9.063,20.857-9.507,28.912c-0.42,7.614-0.156,15.894,2.206,23.211
		c0.77,2.385,1.399,5.103,2.325,7.6C45.329,70.792,37.847,64.764,29.645,59.736z M53.618,46.862
		c0.055-1.731,0.189-4.272,0.507-7.113c7.339,4.19,8.173,14.087-0.361,17.441C53.501,53.745,53.509,50.265,53.618,46.862z
		 M64.088,77.044c-0.644,0.046-1.152,0.288-1.526,0.65c-3.097,0.288-3.995-0.812-5.003-4.522c-0.756-2.783-1.938-5.405-2.62-8.209
		c-0.198-0.816-0.365-1.64-0.515-2.469c14.8-4.819,13.219-22.053,0.507-28.109c1.603-8.285,5.113-16.571,12.826-14.535
		C81.619,35.934,76.955,60.396,64.088,77.044z"/>
	<path d="M82.175,23.595c7.367,16.326,5.315,34.599-5,49.143c-1.87,2.636,2.469,5.13,4.317,2.524
		c11.412-16.089,13.08-36.285,5-54.19C85.167,18.137,80.86,20.681,82.175,23.595z"/>
</g>
</svg>
