<?xml version="1.0" encoding="iso-8859-1"?>
<!-- Generator: Adobe Illustrator 17.0.2, SVG Export Plug-In . SVG Version: 6.00 Build 0)  -->
<!DOCTYPE svg PUBLIC "-//W3C//DTD SVG 1.1//EN" "http://www.w3.org/Graphics/SVG/1.1/DTD/svg11.dtd">
<svg version="1.1" id="Capa_1" xmlns="http://www.w3.org/2000/svg" xmlns:xlink="http://www.w3.org/1999/xlink" x="0px" y="0px"
	 width="100px" height="100px" viewBox="0 0 100 100" style="enable-background:new 0 0 100 100;" xml:space="preserve">
<g>
	<path d="M52.942,14.586c-0.27-0.189-0.538-0.298-0.798-0.355c-0.593-0.401-1.363-0.465-2.146,0.13
		c-8.8,6.681-18.3,12.318-27.535,18.359c-5.666,0.003-11.325,0.046-16.979,0.448c-0.034,0.002-0.065,0.011-0.098,0.015
		c-0.237-0.015-0.479-0.002-0.724,0.066c-1.154,0.317-1.932,1.595-1.571,2.766c0.275,0.893,0.344,1.779,0.362,2.701
		c-0.391,7.003-0.2,13.991,0.232,20.988c0.104,1.689,1.691,2.386,2.953,2.095c4.963,0.525,9.913,0.54,14.89,0.187
		c9.634,5.905,18.103,13.431,27.346,19.898c0.71,0.497,1.404,0.492,1.971,0.207c0.336-0.091,0.669-0.263,0.979-0.559
		c1.343-1.288,2.611-2.661,3.816-4.093c0.573-0.261,0.903-0.719,1.027-1.242C71.264,57.76,74.202,29.435,52.942,14.586z
		 M23.802,58.107c-0.303-0.367-0.752-0.611-1.345-0.644c-0.262-0.046-0.513-0.036-0.751,0.017
		c-4.564,0.332-9.106,0.358-13.655-0.037c-0.309-5.732-0.413-11.459-0.161-17.195c0.04-0.173,0.066-0.357,0.066-0.558
		c0-0.285-0.006-0.571-0.01-0.857c0.005-0.089,0.005-0.178,0.01-0.268c0.012-0.213-0.006-0.405-0.042-0.585
		c-0.007-0.149-0.014-0.299-0.025-0.448c5.04-0.274,10.084-0.315,15.133-0.316c0.443,0,0.81-0.114,1.117-0.292
		c0.154-0.059,0.31-0.137,0.468-0.24c7.847-5.138,15.884-9.987,23.527-15.422c-6.173,5.194-7.793,17.936-8.175,24.862
		c-0.361,6.548-0.134,13.668,1.897,19.96c0.662,2.051,1.203,4.389,1.999,6.536C37.289,67.614,30.855,62.43,23.802,58.107z
		 M44.417,47.036c0.048-1.489,0.162-3.674,0.436-6.116c6.311,3.603,7.028,12.114-0.31,14.998
		C44.316,52.955,44.324,49.962,44.417,47.036z M53.42,72.99c-0.554,0.04-0.991,0.247-1.312,0.559
		c-2.664,0.248-3.436-0.698-4.302-3.889c-0.65-2.393-1.666-4.648-2.253-7.059c-0.171-0.702-0.314-1.41-0.443-2.123
		c12.727-4.144,11.367-18.964,0.436-24.171c1.378-7.124,4.397-14.25,11.029-12.499C68.495,37.639,64.485,58.674,53.42,72.99z"/>
	<path d="M80.607,21.444c-1.306-2.895-5.555-0.385-4.258,2.489c7.266,16.101,5.242,34.122-4.931,48.465
		c-1.844,2.6,2.435,5.059,4.258,2.489C86.93,59.02,88.576,39.103,80.607,21.444z"/>
	<path d="M84.932,18.677c8.848,19.607,6.384,41.553-6.005,59.019c-2.246,3.166,2.965,6.161,5.185,3.031
		c13.705-19.323,15.709-43.577,6.005-65.081C88.526,12.122,83.353,15.177,84.932,18.677z"/>
	<path d="M71.784,26.087c-1.078-2.39-4.586-0.318-3.515,2.055c5.999,13.293,4.328,28.171-4.071,40.013
		c-1.523,2.147,2.01,4.177,3.515,2.055C77.005,57.109,78.363,40.666,71.784,26.087z"/>
</g>
</svg>
