<?xml version="1.0" encoding="iso-8859-1"?>
<!-- Generator: Adobe Illustrator 17.0.2, SVG Export Plug-In . SVG Version: 6.00 Build 0)  -->
<!DOCTYPE svg PUBLIC "-//W3C//DTD SVG 1.1//EN" "http://www.w3.org/Graphics/SVG/1.1/DTD/svg11.dtd">
<svg version="1.1" id="Capa_1" xmlns="http://www.w3.org/2000/svg" xmlns:xlink="http://www.w3.org/1999/xlink" x="0px" y="0px"
	 width="100px" height="100px" viewBox="0 0 100 100" style="enable-background:new 0 0 100 100;" xml:space="preserve">
<g>
	<path d="M72.636,4.55c-0.351-0.245-0.699-0.387-1.037-0.461c-0.771-0.521-1.771-0.604-2.789,0.169
		c-11.435,8.681-23.78,16.006-35.78,23.856c-7.362,0.004-14.716,0.06-22.063,0.582c-0.045,0.003-0.084,0.014-0.128,0.019
		c-0.308-0.019-0.623-0.002-0.941,0.085c-1.5,0.412-2.51,2.073-2.041,3.595c0.358,1.16,0.448,2.312,0.471,3.51
		c-0.508,9.1-0.26,18.18,0.301,27.272c0.136,2.195,2.198,3.1,3.837,2.723c6.449,0.682,12.882,0.702,19.349,0.243
		c12.519,7.673,23.523,17.452,35.535,25.856c0.922,0.645,1.825,0.64,2.562,0.269c0.437-0.118,0.87-0.341,1.272-0.726
		c1.745-1.673,3.393-3.458,4.958-5.318c0.745-0.339,1.174-0.934,1.335-1.614C96.444,60.652,100.262,23.845,72.636,4.55z
		 M34.771,61.102c-0.394-0.477-0.977-0.793-1.747-0.837c-0.34-0.059-0.666-0.047-0.976,0.022
		c-5.931,0.431-11.833,0.465-17.744-0.047c-0.401-7.448-0.537-14.891-0.209-22.344c0.052-0.225,0.086-0.464,0.085-0.725
		c0-0.37-0.007-0.742-0.014-1.113c0.006-0.116,0.007-0.232,0.014-0.348c0.016-0.276-0.007-0.527-0.054-0.76
		c-0.009-0.194-0.019-0.388-0.032-0.582c6.549-0.356,13.104-0.41,19.665-0.411c0.575,0,1.052-0.148,1.452-0.379
		c0.201-0.077,0.403-0.179,0.608-0.312c10.197-6.676,20.64-12.977,30.571-20.039c-8.022,6.749-10.127,23.306-10.623,32.306
		c-0.469,8.508-0.174,17.76,2.465,25.936c0.86,2.665,1.563,5.703,2.598,8.493C52.296,73.455,43.936,66.72,34.771,61.102z
		 M61.558,46.717c0.062-1.934,0.211-4.774,0.567-7.948c8.201,4.682,9.132,15.741-0.403,19.489
		C61.427,54.407,61.437,50.518,61.558,46.717z M73.258,80.441c-0.719,0.052-1.287,0.321-1.705,0.726
		c-3.461,0.322-4.465-0.907-5.591-5.053c-0.845-3.11-2.165-6.04-2.927-9.172c-0.222-0.912-0.408-1.833-0.575-2.759
		c16.537-5.385,14.771-24.642,0.566-31.409c1.791-9.257,5.713-18.517,14.331-16.241C92.846,34.505,87.635,61.839,73.258,80.441z"/>
</g>
</svg>
