<?xml version="1.0" encoding="iso-8859-1"?>
<!-- Generator: Adobe Illustrator 17.0.2, SVG Export Plug-In . SVG Version: 6.00 Build 0)  -->
<!DOCTYPE svg PUBLIC "-//W3C//DTD SVG 1.1//EN" "http://www.w3.org/Graphics/SVG/1.1/DTD/svg11.dtd">
<svg version="1.1" id="Capa_1" xmlns="http://www.w3.org/2000/svg" xmlns:xlink="http://www.w3.org/1999/xlink" x="0px" y="0px"
	 width="100px" height="100px" viewBox="0 0 100 100" style="enable-background:new 0 0 100 100;" xml:space="preserve">
<g>
	<path d="M49.216,75.117c1.688,0.6,3.216,0.543,4.705-0.497c3.054-2.133,5.285-6.582,6.921-9.813
		c4.768-9.418,6.598-21.067,8.436-31.391c0.633-3.556,0.545-8.565,2.198-11.848c0.438-0.869,0.204-1.69-0.354-2.265
		c-0.967-1.104-3.037-1.23-3.838,0.28c-3.502,6.6-8.777,12.539-12.728,18.916c-4.056,6.545-7.623,13.455-9.803,20.863
		c-0.86,2.921-3.138,8.481-2.083,11.547C43.174,72.376,47.767,74.602,49.216,75.117z M48.988,60.912
		c1.019-3.569,2.429-7.046,4.04-10.386c1.632-3.383,3.501-6.667,5.487-9.853c0.997-1.6,2.02-3.187,3.068-4.754
		c0.777-1.161,2.848-3.164,3.079-4.516c-1.018,5.963-1.839,11.991-3.288,17.83c-1.57,6.328-3.053,15.698-8.434,20.06
		c-1.378,1.117-4.351,1.443-5.446-0.185c-0.04-0.06-0.078-0.122-0.113-0.187C46.234,66.786,48.394,62.994,48.988,60.912z"/>
	<path d="M7.485,75.748c4.576,0.011,9.148,0.156,13.721,0.308c2.984,0.1,2.975-4.526,0-4.625c-4.573-0.152-9.145-0.297-13.721-0.308
		C4.502,71.116,4.503,75.741,7.485,75.748z"/>
	<path d="M8.014,52.306c4.241,2.106,8.555,4.061,12.796,6.167c2.662,1.322,5.006-2.667,2.334-3.994
		c-4.241-2.106-8.555-4.061-12.796-6.167C7.686,46.991,5.342,50.98,8.014,52.306z"/>
	<path d="M27.28,39.457c2.002,2.219,5.263-1.063,3.271-3.271c-2.729-3.024-5.524-5.985-8.325-8.942
		c-2.055-2.169-5.32,1.107-3.271,3.271C21.756,33.471,24.552,36.433,27.28,39.457z"/>
	<path d="M51.117,32.888c-0.311-5.137-0.608-10.273-0.771-15.417c-0.094-2.975-4.72-2.984-4.625,0
		c0.163,5.144,0.46,10.281,0.771,15.417C46.671,35.851,51.297,35.868,51.117,32.888z"/>
	<path d="M76.495,42.232c2.337-2.492,4.68-4.98,7.092-7.4c2.107-2.114-1.163-5.385-3.271-3.271c-2.412,2.42-4.755,4.908-7.092,7.4
		C71.187,41.134,74.451,44.412,76.495,42.232z"/>
	<path d="M79.331,59.56c4.727,0.141,9.455,0.154,14.184,0.154c2.983,0,2.983-4.625,0-4.625c-4.729,0-9.457-0.013-14.184-0.154
		C76.346,54.846,76.355,59.471,79.331,59.56z"/>
	<path d="M92.281,76.057c-4.873-0.18-9.628-0.803-14.34-2.076c-2.884-0.779-4.106,3.683-1.229,4.46
		c5.099,1.378,10.297,2.046,15.57,2.241C95.265,80.792,95.254,76.167,92.281,76.057z"/>
	<path d="M51.667,67.167c3.224,0,3.224-5,0-5C48.442,62.167,48.442,67.167,51.667,67.167z"/>
</g>
</svg>
