<?xml version="1.0" encoding="iso-8859-1"?>
<!-- Generator: Adobe Illustrator 17.0.2, SVG Export Plug-In . SVG Version: 6.00 Build 0)  -->
<!DOCTYPE svg PUBLIC "-//W3C//DTD SVG 1.1//EN" "http://www.w3.org/Graphics/SVG/1.1/DTD/svg11.dtd">
<svg version="1.1" id="Capa_1" xmlns="http://www.w3.org/2000/svg" xmlns:xlink="http://www.w3.org/1999/xlink" x="0px" y="0px"
	 width="100px" height="100px" viewBox="0 0 100 100" style="enable-background:new 0 0 100 100;" xml:space="preserve">
<g>
	<path style="fill:#1D1D1B;" d="M87.805,83.237c-3.597-23.453-6.854-46.955-8.919-70.597c0.144-0.527,0.067-1.034-0.164-1.477
		c-0.347-1.831-2.277-2.1-3.662-1.28c-0.379,0.166-0.739,0.419-1.047,0.802C53.033,36.788,28.011,59.188,5.707,84.099
		c-0.883,0.986-0.866,2.192-0.391,3.139c-0.112,1.34,0.651,2.693,2.382,2.659c26.073-0.512,52.272,2.125,78.071-2.875
		c1.489-0.289,2.079-1.478,1.984-2.644C87.844,84.034,87.868,83.653,87.805,83.237z M12.302,84.599
		c20.322-22.277,42.539-42.786,61.906-65.923c0.353,3.745,0.744,7.486,1.15,11.225c-1.003,0.015-2.004,0.091-2.995,0.3
		c-3.31,0.699-2.19,5.83,1.127,5.129c0.826-0.174,1.616-0.207,2.446-0.192c0.371,3.225,0.769,6.446,1.171,9.667
		c-0.899,0.207-1.8,0.413-2.7,0.62c-3.294,0.756-2.18,5.888,1.127,5.129c0.748-0.172,1.495-0.343,2.242-0.515
		c0.339,2.608,0.712,5.212,1.067,7.819c-0.996,0.186-1.976,0.443-2.944,0.789c-1.346,0.482-2.337,1.595-2,3.128
		c0.277,1.263,1.778,2.485,3.128,2.001c0.833-0.298,1.674-0.534,2.528-0.713c0.398,2.837,0.83,5.67,1.241,8.506
		c-1.008,0.174-2.003,0.412-2.99,0.761c-1.348,0.477-2.335,1.599-2,3.128c0.277,1.267,1.776,2.479,3.128,2.001
		c0.846-0.299,1.726-0.544,2.616-0.724c0.274,1.852,0.528,3.706,0.811,5.557C59.196,86.372,35.704,84.433,12.302,84.599z"/>
	<path style="fill:#1D1D1B;" d="M68.135,39.402c0.065-0.383,0.018-0.768-0.14-1.129c-0.237-0.924-1.025-1.536-2.004-1.536
		c-0.428,0-0.855,0.114-1.24,0.331c-0.332,0.155-0.617,0.379-0.848,0.667c-6.247,7.772-13.348,15.024-20.214,22.037
		c-4.656,4.755-9.471,9.673-13.992,14.723c-0.608,0.68-0.773,1.592-0.455,2.437c0.015,0.559,0.217,1.083,0.573,1.469
		c0.396,0.43,0.961,0.667,1.643,0.667c0.001,0,0.001,0,0.002,0c3.805-0.076,7.616-0.016,11.426,0.044
		c2.546,0.04,5.092,0.08,7.635,0.08c0.001,0,0.002,0,0.002,0c5.972,0,13.046-0.188,20.244-1.583c1.101-0.213,1.825-1.115,1.81-2.222
		c0.048-0.263,0.052-0.535,0.009-0.808C71.101,64.897,69.255,52.161,68.135,39.402z M67.731,73.434
		c-6.228,1.004-12.455,1.138-17.251,1.138c-2.527,0-5.058-0.041-7.588-0.082c-2.287-0.037-4.575-0.074-6.861-0.081
		c3.605-3.888,7.351-7.72,10.987-11.441c5.697-5.828,11.57-11.838,16.996-18.152C64.85,53.129,66.017,62.106,67.731,73.434z"/>
</g>
</svg>
