<?xml version="1.0" encoding="iso-8859-1"?>
<!-- Generator: Adobe Illustrator 17.0.2, SVG Export Plug-In . SVG Version: 6.00 Build 0)  -->
<!DOCTYPE svg PUBLIC "-//W3C//DTD SVG 1.1//EN" "http://www.w3.org/Graphics/SVG/1.1/DTD/svg11.dtd">
<svg version="1.1" id="Capa_1" xmlns="http://www.w3.org/2000/svg" xmlns:xlink="http://www.w3.org/1999/xlink" x="0px" y="0px"
	 width="100px" height="100px" viewBox="0 0 100 100" style="enable-background:new 0 0 100 100;" xml:space="preserve">
<g>
	<path style="fill:#1D1D1B;" d="M89.808,17.293l-0.003-0.595c-0.003-0.332-0.042-0.66-0.117-0.996
		c-0.267-2.291-2.06-4.022-4.352-4.157c-1.945-0.115-12.188-0.223-25.158-0.359c-17.383-0.184-41.19-0.435-43.869-0.756
		c-0.833-0.102-1.557,0.01-2.244,0.3c-2.006,0.62-3.178,2.428-2.934,4.58c0.495,4.363,0.803,62.888,0.552,67.909
		c-0.05,0.98,0.187,1.899,0.686,2.671c0.77,1.388,2.173,2.263,3.791,2.351c4.955,0.27,66.956,0.285,69.593,0.286h0.001
		c1.179,0,2.255-0.412,3.074-1.168c1.567-1.058,2.342-2.885,1.986-4.758C90.392,80.333,89.996,54.698,89.808,17.293z M20.664,19.968
		c5.746,0.139,19.22,0.256,36.645,0.396c9.732,0.079,19.044,0.153,23.324,0.221c0.015,1.859,0.033,4.64,0.056,7.975
		c0.173,25.809,0.335,43.869,0.561,50.729l-1.483-0.002c-32.395-0.033-52.103-0.081-58.788-0.142
		C21.008,68.707,20.893,30.923,20.664,19.968z"/>
</g>
</svg>
