<?xml version="1.0" encoding="utf-8"?>
<!-- Generator: Adobe Illustrator 17.0.2, SVG Export Plug-In . SVG Version: 6.00 Build 0)  -->
<!DOCTYPE svg PUBLIC "-//W3C//DTD SVG 1.1//EN" "http://www.w3.org/Graphics/SVG/1.1/DTD/svg11.dtd">
<svg version="1.1" id="Capa_1" xmlns="http://www.w3.org/2000/svg" xmlns:xlink="http://www.w3.org/1999/xlink" x="0px" y="0px"
	 width="100px" height="100px" viewBox="0 0 100 100" enable-background="new 0 0 100 100" xml:space="preserve">
<g>
	<path fill="#1D1D1B" d="M83.545,37.861c1.546,1.155,3.563,1.793,5.462,1.793c0,0,0,0,0.001,0c0.16,0,0.317-0.005,0.473-0.014
		c3.88-0.228,7.018-3.397,6.994-7.063c-0.029-4.386-4.285-7.007-8.383-7.007c-0.283,0-0.563,0.013-0.835,0.039
		c-0.169,0.015-0.337,0.048-0.501,0.098c-0.217,0.022-0.435,0.076-0.647,0.16c-3.162,1.238-5.007,3.584-5.174,6.427
		c-10.35-1.329-20.102-6.618-24.699-16.376c2.583-1.135,4.403-3.636,4.385-6.429c-0.029-4.387-4.285-7.008-8.383-7.008
		c-0.283,0-0.562,0.013-0.837,0.039c-0.169,0.016-0.336,0.049-0.499,0.098c-0.217,0.022-0.435,0.076-0.647,0.16
		c-3.693,1.446-5.609,4.398-5.126,7.896c0.33,2.386,2.11,4.145,4.284,5.094c-6.381,8.68-16.556,15.147-27.41,14.078
		c-0.099-0.036-0.197-0.075-0.306-0.092c-0.259-0.04-0.516-0.057-0.774-0.085c0.073-0.395,0.116-0.798,0.113-1.209
		c-0.029-4.387-4.285-7.008-8.383-7.008c-0.283,0-0.562,0.013-0.837,0.039c-0.168,0.016-0.335,0.049-0.498,0.097
		c-0.216,0.022-0.433,0.076-0.648,0.16c-3.693,1.447-5.609,4.399-5.126,7.896c0.509,3.688,4.481,5.893,8.027,5.893c0,0,0,0,0,0
		c0.159,0,0.316-0.005,0.473-0.014c1.303-0.077,2.518-0.491,3.562-1.138c8.908,7.217,10.415,27.702,0.325,34.267
		c-1.517-1.005-3.411-1.554-5.276-1.554c-0.283,0-0.562,0.013-0.837,0.039c-0.169,0.016-0.335,0.049-0.498,0.098
		c-0.215,0.021-0.432,0.075-0.648,0.16c-3.693,1.446-5.609,4.398-5.126,7.896c0.509,3.688,4.48,5.892,8.025,5.892
		c0.16,0,0.318-0.004,0.475-0.014c3.88-0.228,7.018-3.396,6.994-7.063c-0.001-0.131-0.018-0.255-0.026-0.383
		c8.527-0.15,19.012,2.051,24.013,9.18c-2.938,1.571-4.423,4.247-3.993,7.363c0.509,3.688,4.481,5.893,8.027,5.893h0
		c0.159,0,0.316-0.004,0.473-0.014c3.88-0.229,7.017-3.397,6.993-7.063c-0.018-2.807-1.771-4.886-4.103-6.022
		c6.547-7.928,18.882-10.156,28.545-8.078c0.011,0.105,0.002,0.205,0.017,0.31c0.509,3.688,4.48,5.892,8.025,5.892
		c0.16,0,0.318-0.004,0.475-0.014c3.88-0.228,7.018-3.396,6.994-7.063c-0.029-4.386-4.285-7.007-8.384-7.007
		c-0.283,0-0.562,0.013-0.838,0.039c-0.168,0.016-0.335,0.049-0.497,0.098c-0.215,0.021-0.432,0.075-0.648,0.16
		c-1.291,0.506-2.351,1.205-3.181,2.037C74.751,60.563,72.848,45.127,83.545,37.861z M87.593,30.469
		c0.036-0.014,0.07-0.028,0.104-0.043c0.102-0.005,0.205-0.008,0.309-0.008c0.351,0,3.431,0.063,3.63,2.255
		c0.038,0.411-0.086,0.777-0.379,1.117c-0.487,0.566-1.396,0.98-2.26,1.031c-1.271,0.066-2.887-0.614-3.263-1.957
		C85.426,31.771,86.711,30.815,87.593,30.469z M15.816,29.672c-0.487,0.566-1.396,0.98-2.26,1.031
		c-1.278,0.066-2.886-0.615-3.263-1.957c-0.307-1.094,0.979-2.05,1.857-2.395c0.037-0.014,0.072-0.029,0.106-0.044
		c0.102-0.005,0.205-0.008,0.309-0.008c0.351,0,3.431,0.063,3.63,2.255C16.233,28.966,16.109,29.332,15.816,29.672z M15.816,75.318
		c-0.487,0.565-1.396,0.98-2.26,1.031c-1.278,0.075-2.886-0.615-3.263-1.958c-0.307-1.094,0.979-2.05,1.863-2.396
		c0.034-0.014,0.068-0.028,0.101-0.043c0.102-0.005,0.205-0.008,0.309-0.008c0.351,0,3.43,0.063,3.63,2.256
		C16.233,74.612,16.109,74.978,15.816,75.318z M85.799,73.548c0.296-0.72,1.15-1.3,1.794-1.552c0.036-0.014,0.07-0.028,0.104-0.043
		c0.102-0.005,0.205-0.008,0.309-0.008c0.351,0,3.43,0.063,3.63,2.256c0.038,0.411-0.086,0.776-0.379,1.117
		c-0.487,0.565-1.396,0.98-2.26,1.031c-1.271,0.075-2.887-0.615-3.263-1.958c-0.035-0.123-0.043-0.244-0.04-0.363
		C85.744,73.873,85.778,73.712,85.799,73.548z M51.741,7.379c0.034-0.014,0.068-0.028,0.101-0.042
		c0.102-0.005,0.205-0.008,0.309-0.008c0.351,0,3.431,0.063,3.63,2.255c0.038,0.411-0.086,0.777-0.379,1.117
		c-0.487,0.566-1.396,0.98-2.26,1.031c-1.278,0.072-2.886-0.615-3.263-1.957C49.571,8.681,50.856,7.726,51.741,7.379z
		 M51.304,90.294c-0.487,0.565-1.396,0.98-2.26,1.031c-1.27,0.083-2.887-0.614-3.264-1.958c-0.307-1.094,0.979-2.05,1.863-2.396
		c0.034-0.014,0.068-0.028,0.101-0.043c0.102-0.005,0.205-0.008,0.309-0.008c0.351,0,3.43,0.063,3.63,2.256
		C51.721,89.588,51.597,89.953,51.304,90.294z M77.23,69.725c-10.352-1.092-21.813,2.593-28.425,10.545
		c-5.111-7.355-15.258-10.908-24.398-11.157c7.36-8.76,6.255-25.116-0.559-34.562c11.367,0.419,22.008-6.718,28.884-15.61
		c5.162,9.611,14.625,15.741,25.26,17.539C69.196,45.078,70.049,59.732,77.23,69.725z"/>
	<path fill="#1D1D1B" d="M41.708,38.732c-1.291,0.482-1.842,1.597-1.843,2.695c-5.019,5.825-3.65,13.961,3.229,18.766
		c5.778,4.036,15.203,3.211,19.395-2.695c3.321-4.679,2.868-11.282-0.726-15.672C56.806,35.769,48.389,36.236,41.708,38.732z
		 M58.961,52.487c-3.191,11.486-25.294-0.372-13.694-8.766c0.255-0.185,0.451-0.397,0.62-0.619c3.604-1.003,7.64-1.318,10.643,1.14
		C58.974,46.244,59.788,49.511,58.961,52.487z"/>
</g>
</svg>
