<?xml version="1.0" encoding="iso-8859-1"?>
<!-- Generator: Adobe Illustrator 17.0.2, SVG Export Plug-In . SVG Version: 6.00 Build 0)  -->
<!DOCTYPE svg PUBLIC "-//W3C//DTD SVG 1.1//EN" "http://www.w3.org/Graphics/SVG/1.1/DTD/svg11.dtd">
<svg version="1.1" id="Capa_1" xmlns="http://www.w3.org/2000/svg" xmlns:xlink="http://www.w3.org/1999/xlink" x="0px" y="0px"
	 width="100px" height="100px" viewBox="0 0 100 100" style="enable-background:new 0 0 100 100;" xml:space="preserve">
<g>
	<path style="fill:#1D1D1B;" d="M94.492,36.724c-0.434-0.556-1.104-0.939-2.024-0.939H63.636
		c-3.855-9.693-7.788-19.353-10.919-29.312c-0.932-2.965-5.202-2.13-5.324,0.472c-4.491,9.584-8.613,19.308-11.012,29.634
		c-10.261-0.065-20.515-0.493-30.776-0.524c-3.118-0.009-3.432,4.312-0.962,5.219c7.518,6.89,15.458,13.263,24.103,18.685
		c-2.85,9.677-5.957,19.269-9.286,28.792c-0.61,1.745,0.569,2.95,1.98,3.22c0.706,0.43,1.604,0.481,2.521-0.174
		c8.355-5.967,16.936-11.607,25.386-17.438c8.544,6.278,16.896,12.811,25.844,18.517c1.983,1.265,3.851-0.445,3.967-2.265
		c0.099-0.397,0.115-0.836-0.004-1.321c-2.363-9.612-5.14-19.082-9.406-28.015c9.179-5.867,16.604-13.922,25.167-20.615
		C96.521,39.405,95.857,37.59,94.492,36.724z M65.209,57.735c-0.569,0.336-0.929,0.778-1.123,1.259
		c-0.48,0.74-0.629,1.7-0.114,2.702c3.73,7.269,6.265,14.973,8.379,22.82c-7.192-4.947-14.096-10.295-21.145-15.45
		c-0.201-0.147-0.4-0.251-0.597-0.333c-0.727-0.507-1.683-0.619-2.665,0.063c-6.906,4.793-13.913,9.44-20.825,14.222
		c2.571-7.633,4.998-15.311,7.253-23.045c0.36-1.235-0.124-2.205-0.923-2.773c-0.183-0.514-0.538-0.99-1.126-1.353
		c-6.853-4.224-13.219-9.07-19.286-14.31c8.223,0.146,16.444,0.428,24.669,0.453c0.237,0.001,0.455-0.028,0.661-0.074
		c1.194,0.173,2.429-0.369,2.75-1.906c1.84-8.829,5.01-17.166,8.656-25.349c2.869,8.18,6.147,16.208,9.342,24.27
		c0.01,0.026,0.025,0.045,0.036,0.07c0.195,1.156,1.049,2.18,2.565,2.18h24.164C79.2,46.983,72.877,53.203,65.209,57.735z"/>
	<path style="fill:#1D1D1B;" d="M51.178,28.387c-0.497-1.578-2.77-1.134-2.834,0.251c-2.391,5.102-4.585,10.278-5.862,15.775
		c-5.461-0.034-10.92-0.263-16.382-0.279c-1.66-0.005-1.827,2.295-0.512,2.778c4.001,3.667,8.228,7.06,12.83,9.947
		c-1.517,5.151-3.171,10.257-4.943,15.326c-0.325,0.929,0.303,1.57,1.055,1.714c0.375,0.229,0.854,0.256,1.342-0.092
		c4.447-3.177,9.015-6.179,13.513-9.283c4.548,3.342,8.994,6.82,13.757,9.857c1.056,0.673,2.05-0.237,2.112-1.206
		c0.053-0.211,0.062-0.445-0.002-0.703c-1.258-5.116-2.736-10.158-5.006-14.913c4.886-3.123,8.838-7.411,13.396-10.974
		c0.855-0.668,0.502-1.634-0.225-2.095c-0.231-0.296-0.587-0.5-1.078-0.5H56.991C54.938,38.831,52.845,33.689,51.178,28.387z"/>
</g>
</svg>
