<?xml version="1.0" encoding="iso-8859-1"?>
<!-- Generator: Adobe Illustrator 17.0.2, SVG Export Plug-In . SVG Version: 6.00 Build 0)  -->
<!DOCTYPE svg PUBLIC "-//W3C//DTD SVG 1.1//EN" "http://www.w3.org/Graphics/SVG/1.1/DTD/svg11.dtd">
<svg version="1.1" id="Capa_1" xmlns="http://www.w3.org/2000/svg" xmlns:xlink="http://www.w3.org/1999/xlink" x="0px" y="0px"
	 width="100px" height="100px" viewBox="0 0 100 100" style="enable-background:new 0 0 100 100;" xml:space="preserve">
<g>
	<path style="fill:#1D1D1B;" d="M73.24,64.856c-0.443-0.487-1.062-0.753-1.762-0.753H56.672l-0.196-0.493
		c-1.685-4.231-3.424-8.598-4.879-12.992c6.307-2.472,12.088-6.337,17.646-11.792c0.281-0.275,0.493-0.592,0.63-0.943
		c0.25-0.41,0.376-0.876,0.376-1.387c-0.001-10.362-0.082-19.715-1.061-29.244c-0.009-0.088-0.025-0.17-0.049-0.273
		c-0.11-1.088-0.843-1.936-1.933-2.222c-4.023-1.058-8.483-1.571-13.634-1.571c-4.614,0-9.303,0.402-13.837,0.792
		c-3.163,0.271-6.433,0.553-9.598,0.687c-1.416,0.061-2.459,1.089-2.573,2.517c-0.045,0.193-0.069,0.383-0.073,0.575
		c-0.171,8.895,0.203,17.793,0.635,26.886c0.009,0.195,0.041,0.389,0.095,0.589c0.026,0.59,0.241,1.146,0.625,1.614
		c4.805,5.877,11.243,9.867,17.049,13.355c-1.955,4.229-4.035,9.142-5.326,14.323c-2.373-0.022-4.772-0.079-7.101-0.133
		c-2.83-0.065-5.755-0.134-8.647-0.143c-1.197,0-2.142,0.793-2.352,1.972c-0.201,1.129,0.335,2.22,1.29,2.682
		c4.236,3.872,8.276,7.027,12.323,9.626c-1.43,4.808-3.029,9.746-4.758,14.692c-0.231,0.662-0.182,1.335,0.14,1.895
		c0.313,0.543,0.857,0.94,1.51,1.109c0.723,0.359,1.585,0.282,2.292-0.224c2.825-2.018,5.751-4.001,8.581-5.92
		c1.486-1.007,2.973-2.015,4.453-3.032c0.9,0.665,1.797,1.334,2.694,2.003c3.431,2.559,6.978,5.205,10.668,7.558
		C62.068,96.868,62.5,97,62.945,97c1.202,0,2.25-1.022,2.376-2.298c0.077-0.362,0.069-0.732-0.022-1.101
		c-1.075-4.372-2.476-9.471-4.75-14.447c2.789-1.879,5.304-4.115,7.743-6.284c1.651-1.468,3.358-2.985,5.118-4.36
		c0.605-0.474,0.92-1.12,0.886-1.82C74.26,65.984,73.87,65.311,73.24,64.856z M41.237,78.373c0.262-0.9,0.018-1.791-0.638-2.392
		c-0.199-0.387-0.505-0.714-0.897-0.955c-2.683-1.654-5.34-3.556-8.066-5.776c0.586,0.014,1.172,0.027,1.758,0.041
		c2.84,0.067,5.777,0.136,8.686,0.145c0.13,0,0.257-0.01,0.386-0.03c1.187,0.099,2.168-0.652,2.413-1.829
		c0.717-3.442,1.843-6.939,3.585-11.104c1.053,2.853,2.182,5.687,3.281,8.447l0.882,2.219c0.25,1.12,1.172,1.862,2.335,1.862h10.334
		c-0.063,0.057-0.126,0.112-0.189,0.169c-2.743,2.443-5.579,4.971-8.777,6.86c-0.445,0.264-0.784,0.634-0.983,1.074
		c-0.438,0.732-0.463,1.591-0.062,2.372c1.388,2.704,2.548,5.662,3.657,9.357c-1.804-1.294-3.59-2.625-5.333-3.925
		c-1.23-0.916-2.46-1.834-3.703-2.742c-0.134-0.098-0.277-0.181-0.428-0.25c-0.752-0.475-1.704-0.445-2.481,0.094
		c-1.923,1.334-3.86,2.648-5.798,3.962c-0.978,0.662-1.955,1.325-2.931,1.99C39.332,84.708,40.327,81.493,41.237,78.373z
		 M49.084,45.841c-5.266-3.16-11.149-6.75-15.608-11.863c-0.367-7.76-0.71-15.979-0.631-24.082c2.326-0.15,4.693-0.36,6.99-0.563
		c4.428-0.393,9.007-0.799,13.464-0.799c4.001,0,7.514,0.33,10.711,1.008c0.775,8.674,0.854,17.266,0.859,26.025
		C59.798,40.423,54.626,43.789,49.084,45.841z"/>
</g>
</svg>
