<?xml version="1.0" encoding="utf-8"?>
<!-- Generator: Adobe Illustrator 17.0.2, SVG Export Plug-In . SVG Version: 6.00 Build 0)  -->
<!DOCTYPE svg PUBLIC "-//W3C//DTD SVG 1.1//EN" "http://www.w3.org/Graphics/SVG/1.1/DTD/svg11.dtd">
<svg version="1.1" id="Capa_1" xmlns="http://www.w3.org/2000/svg" xmlns:xlink="http://www.w3.org/1999/xlink" x="0px" y="0px"
	 width="100px" height="100px" viewBox="0 0 100 100" enable-background="new 0 0 100 100" xml:space="preserve">
<g>
	<path fill="#1D1D1B" d="M94.122,30.444c-0.1,0-0.194,0.02-0.291,0.03c-0.097-0.008-0.183-0.031-0.285-0.03
		c-3.841,0.04-7.68,0.127-11.52,0.23c-0.038-5.358-0.409-10.665-1.247-15.961c-0.252-1.597-1.452-2.199-2.675-2.069
		c-0.21-0.037-0.434-0.054-0.676-0.043c-19.848,0.841-39.71,1.14-59.575,1.151c-1.816,0.001-2.737,1.38-2.776,2.788
		c-0.054,0.207-0.09,0.428-0.102,0.666c-0.25,5.272-0.494,10.544-0.742,15.815c-3.206,0.031-6.412,0.042-9.619,0.014
		c-2.348-0.02-3.205,2.27-2.585,3.968c-0.002,0.116-0.016,0.225-0.005,0.349c1.089,13.026,1.423,32.981,1.439,46.049
		c0.001,0.826,0.296,1.457,0.74,1.916c0.423,0.837,1.228,1.483,2.426,1.538c28.707,1.324,57.358-1.373,86.053-1.727
		c0.271-0.003,0.517-0.045,0.749-0.105c1.395-0.052,2.736-0.97,2.705-2.773c-0.222-13.026,0.501-32.946,0.569-45.97
		c0.183-0.376,0.294-0.79,0.294-1.23v-1.727C97,31.753,95.691,30.444,94.122,30.444z M20.625,19.495
		c18.303-0.035,36.604-0.328,54.894-1.07c0.526,4.12,0.734,8.261,0.757,12.419c-18.763,0.623-37.513,1.741-56.281,2.095
		C20.206,28.457,20.414,23.976,20.625,19.495z M90.356,79.41c-27.058,0.448-54.079,2.811-81.146,1.785
		C9.162,69.348,8.82,50.612,7.883,38.8c27.709,0.054,55.365-2.154,83.067-2.561C90.889,48.329,90.271,67.318,90.356,79.41z"/>
	<path fill="#1D1D1B" d="M31.191,45.855c-3.877-1.576-9.103-0.791-12.684,1.148c-3.859,2.09-5.593,6.661-6.618,10.649
		c-0.259,1.004-0.003,1.839,0.506,2.455c-0.011,4.018,1.722,7.909,5.611,10.625c6.881,4.807,17.091-0.13,20.032-7.191
		C40.945,56.565,38.293,48.742,31.191,45.855z M28.074,50.996c0.006,0.001,0.011,0.002,0.017,0.003
		c-0.505,0.796-1.009,1.593-1.51,2.391c-1.045-0.704-2.092-1.405-3.129-2.119C24.743,50.859,26.264,50.744,28.074,50.996z
		 M19.641,64.86c-0.467-0.513-0.822-1.104-1.067-1.752c0.546,0.258,1.087,0.523,1.625,0.795
		C20.014,64.222,19.825,64.54,19.641,64.86z M19.304,58.387c-0.314-0.137-0.622-0.198-0.92-0.208
		c0.338-1.485,0.983-2.886,1.805-3.985c0.164,0.362,0.424,0.701,0.821,0.974c1.041,0.717,2.093,1.417,3.141,2.123
		c-0.54,0.877-1.071,1.76-1.604,2.641C21.482,59.389,20.405,58.868,19.304,58.387z M23.249,66.615
		c0.15-0.261,0.304-0.521,0.456-0.781c0.463,0.276,0.924,0.557,1.379,0.848C24.475,66.725,23.86,66.702,23.249,66.615z
		 M30.202,64.65c-0.081-0.074-0.155-0.151-0.25-0.219c-1.27-0.912-2.58-1.749-3.91-2.549c0.474-0.784,0.947-1.569,1.427-2.35
		c1.532,1.025,3.065,2.049,4.585,3.091C31.547,63.392,30.919,64.074,30.202,64.65z M29.897,55.63
		c0.585-0.931,1.172-1.861,1.761-2.79c1.214,1.338,1.788,3.223,1.761,5.16C32.249,57.204,31.072,56.418,29.897,55.63z"/>
	<path fill="#1D1D1B" d="M79.542,45.855c-3.878-1.576-9.103-0.791-12.684,1.148c-3.86,2.09-5.593,6.661-6.618,10.649
		c-0.258,1.004-0.002,1.839,0.507,2.455c-0.011,4.018,1.722,7.909,5.611,10.625c6.881,4.807,17.091-0.13,20.032-7.191
		C89.296,56.565,86.644,48.742,79.542,45.855z M79.837,52.665c0.75,0.759,1.285,1.709,1.596,2.763
		c-0.778-0.347-1.551-0.704-2.325-1.058C79.352,53.802,79.595,53.234,79.837,52.665z M76.245,50.979
		c-0.247,0.584-0.499,1.166-0.75,1.749c-1.13-0.518-2.26-1.038-3.396-1.542C73.281,50.859,74.651,50.777,76.245,50.979z
		 M69.488,65.974c-1.997-0.997-2.894-2.907-3.01-5.012c1.499,0.617,2.998,1.234,4.497,1.852
		C70.484,63.869,69.986,64.922,69.488,65.974z M67.313,56.361c0.28-0.679,0.635-1.292,1.021-1.86
		c0.056,0.029,0.102,0.064,0.163,0.091c1.732,0.751,3.447,1.538,5.161,2.328c-0.258,0.578-0.512,1.158-0.773,1.735
		C71.027,57.891,69.17,57.126,67.313,56.361z M73.567,66.663c0.364-0.777,0.729-1.554,1.09-2.333
		c0.91,0.375,1.819,0.749,2.729,1.124C76.222,66.126,74.912,66.543,73.567,66.663z M80.749,62.046
		c-0.196-0.172-0.42-0.325-0.693-0.438c-1.166-0.48-2.332-0.96-3.498-1.44c0.238-0.529,0.47-1.06,0.706-1.59
		c1.103,0.503,2.208,1,3.32,1.483c0.296,0.128,0.586,0.185,0.868,0.2C81.283,60.889,81.053,61.489,80.749,62.046z"/>
	<path fill="#1D1D1B" d="M58.911,64.374c-0.454-0.403-1.085-0.635-1.916-0.545c-4.708,0.512-9.428,0.569-14.158,0.573
		c-1.69-0.608-3.974,0.254-3.973,2.592c0,2.788,0.029,5.568,0.288,8.346c0.146,1.561,1.199,2.878,2.878,2.878
		c0.049,0,0.098-0.013,0.147-0.016c0.14,0.01,0.276,0.025,0.429,0.016c4.89-0.304,9.778-0.557,14.678-0.576
		c1.495-0.006,2.376-0.946,2.668-2.062c0.128-0.323,0.21-0.686,0.21-1.104v-7.771C60.161,65.592,59.637,64.819,58.911,64.374z
		 M54.405,71.93c-3.233,0.068-6.461,0.229-9.69,0.415c-0.031-0.731-0.054-1.463-0.067-2.195c3.257-0.021,6.51-0.096,9.757-0.344
		V71.93z"/>
	<path fill="#1D1D1B" d="M41.454,46.56c5.178-0.266,10.358-0.287,15.541-0.288c3.712,0,3.712-5.756,0-5.756
		c-5.183,0.001-10.363,0.022-15.541,0.288C37.761,40.994,37.743,46.751,41.454,46.56z"/>
</g>
</svg>
