<?xml version="1.0" encoding="iso-8859-1"?>
<!-- Generator: Adobe Illustrator 17.0.2, SVG Export Plug-In . SVG Version: 6.00 Build 0)  -->
<!DOCTYPE svg PUBLIC "-//W3C//DTD SVG 1.1//EN" "http://www.w3.org/Graphics/SVG/1.1/DTD/svg11.dtd">
<svg version="1.1" id="Capa_1" xmlns="http://www.w3.org/2000/svg" xmlns:xlink="http://www.w3.org/1999/xlink" x="0px" y="0px"
	 width="100px" height="100px" viewBox="0 0 100 100" style="enable-background:new 0 0 100 100;" xml:space="preserve">
<g>
	<path style="fill:#1E1E1C;" d="M95.794,27.309c-0.702-1.063-1.715-2.318-3.343-2.833c-0.302-0.095-0.624-0.117-0.952-0.065
		c-7.718-1.375-15.316-2.483-22.592-3.297c-0.178-3.833-1.769-7.373-4.615-10.257c-0.516-0.523-1.174-0.761-1.827-0.674
		c-0.125-0.034-0.25-0.057-0.376-0.069C55.75,9.485,49.283,9.432,43.202,9.43c-0.082,0-0.157,0.008-0.258,0.023
		c-0.102-0.014-0.213-0.029-0.364-0.023c-1.943,0.056-3.87,0.95-5.284,2.453c-0.368,0.39-0.591,0.843-0.665,1.347
		c-1.116,1.808-1.682,3.934-1.684,6.327c-9.63,0.282-18.901,1.246-27.565,2.865c-0.747,0.14-1.3,0.595-1.562,1.284
		c-0.262,0.396-0.443,0.759-0.618,1.241c-0.051,0.141-0.112,0.396-0.157,0.593c-0.019,0.083-0.034,0.153-0.036,0.163
		c-0.193,0.48-0.275,0.993-0.238,1.487C2.864,42.503,3.072,56.4,5.403,69.673c0.259,1.474,1.309,1.941,2.2,1.873
		c-0.026,0.078-0.048,0.158-0.067,0.239c-1.416,5.983,0.208,11.055,4.64,14.338c0.407,0.681,1.057,1.065,1.843,1.089
		c21.56,0.625,45.996,1.334,69.896,1.358c0.044,0,0.086-0.004,0.141-0.011c0.13,0.026,0.262,0.04,0.394,0.04
		c0.24,0,0.484-0.044,0.727-0.131c4.015-1.44,6.229-4.904,5.922-9.266c-0.004-0.063-0.014-0.124-0.03-0.214
		c0.02-0.137,0.031-0.279,0.031-0.432c0-1.076-0.001-2.388-0.28-3.644l0.797,0.021c0.671,0.018,1.342,0.036,2.051,0.047
		c0.724,0,1.343-0.323,1.752-0.913c0.372-0.321,0.629-0.759,0.765-1.303c0.645-2.59,0.969-5.028,0.991-7.455
		c0-0.066-0.005-0.127-0.015-0.186l0.109-3.528c0.301-10.604,0.612-21.568-0.4-32.348C96.793,28.43,96.413,27.746,95.794,27.309z
		 M92.541,65.169l-0.011,0.134c-0.014,1.469-0.173,2.967-0.488,4.566c-13.457-0.244-27.128-0.961-40.354-1.654
		c-13.789-0.723-28.044-1.47-42.076-1.683C7.715,54.564,7.609,41.67,9.3,28.202c0.028-0.219,0.029-0.437,0.002-0.676l0.017-0.044
		c0.037-0.097,0.074-0.194,0.111-0.301c9.905-1.791,20.552-2.698,31.649-2.698c14.935,0,31.145,1.6,49.556,4.893
		c0.222,0.04,0.43,0.041,0.63,0.018c0.038,0.014,0.072,0.025,0.103,0.034c0.03,0.019,0.061,0.037,0.091,0.057
		c0.065,0.065,0.129,0.132,0.189,0.201c0.07,0.083,0.138,0.167,0.216,0.276c0.106,0.162,0.205,0.329,0.305,0.496l0.075,0.125
		c0.028,0.046,0.058,0.089,0.093,0.139c0.865,10.348,0.568,20.899,0.281,31.103l-0.087,3.13
		C92.529,65.022,92.533,65.084,92.541,65.169z M39.545,19.459c0.009-1.625,0.461-2.947,1.377-4.027
		c0.121-0.142,0.224-0.296,0.318-0.478c0.448-0.27,0.951-0.435,1.369-0.447c0.081-0.003,0.157-0.013,0.255-0.03
		c0.108,0.018,0.219,0.03,0.338,0.03c5.928,0.001,12.231,0.052,18.454,0.647c1.479,1.705,2.316,3.497,2.545,5.458
		c-8.06-0.769-15.854-1.159-23.177-1.159C40.531,19.454,40.038,19.456,39.545,19.459z M54.689,75.049
		c-3.354,0.134-6.683-0.015-10.381-0.448l-0.004-1.689l10.511,0.545C54.796,73.94,54.761,74.49,54.689,75.049z M12.017,73.111
		c0.191-0.371,0.288-0.785,0.289-1.234c0-0.071,0-0.14,0.001-0.205c8.071,0.158,16.792,0.478,27.356,1.001v3.847
		c0,0.533,0.13,1.01,0.35,1.348c0.364,0.849,1.058,1.404,1.902,1.525c5.169,0.738,9.742,0.958,14.077,0.684
		c0.157-0.01,0.312-0.036,0.47-0.08c1.116,0.071,2.023-0.633,2.347-1.78c0.37-1.313,0.58-2.76,0.654-4.518
		c10.71,0.55,19.002,0.892,26.709,1.102c-0.052,0.352-0.032,0.706,0.061,1.036c0.051,0.182,0.094,0.36,0.132,0.538l0.035,0.191
		c0.001,0.027,0.006,0.092,0.017,0.205c0.04,0.506,0.038,1.015,0.037,1.521l0,0.266c0,0.054,0.004,0.104,0.013,0.181
		c-0.019,0.167-0.025,0.343-0.012,0.534c0.152,2.168-0.601,3.517-2.369,4.233c-0.055-0.007-0.111-0.012-0.17-0.012
		c-23.768-0.024-47.738-0.718-68.909-1.332c-0.116-0.129-0.235-0.237-0.366-0.333C11.97,79.882,11.109,77.048,12.017,73.111z"/>
</g>
</svg>
