<?xml version="1.0" encoding="iso-8859-1"?>
<!-- Generator: Adobe Illustrator 17.0.2, SVG Export Plug-In . SVG Version: 6.00 Build 0)  -->
<!DOCTYPE svg PUBLIC "-//W3C//DTD SVG 1.1//EN" "http://www.w3.org/Graphics/SVG/1.1/DTD/svg11.dtd">
<svg version="1.1" id="Capa_1" xmlns="http://www.w3.org/2000/svg" xmlns:xlink="http://www.w3.org/1999/xlink" x="0px" y="0px"
	 width="100px" height="100px" viewBox="0 0 100 100" style="enable-background:new 0 0 100 100;" xml:space="preserve">
<g>
	<path style="fill:#1E1E1C;" d="M73.18,38.848c-4.463-7.516-11.997-10.412-20.326-8.553c-3.07,0.685-1.769,5.391,1.298,4.706
		c7.98-1.781,14.217,2.848,16.728,10.418c1.909,5.755-0.967,11.634-4.88,15.743c-7.659,8.044-20.556,8.731-28.701,1.196
		c-5.689-5.264-7.6-13.891-5.698-21.24c2.193-8.476,9.857-11.731,17.998-10.667c3.114,0.407,3.075-4.479,0-4.881
		c-25.863-3.38-30.579,30.95-11.824,43.309c12.149,8.005,28.419,2.318,35.681-9.436C77.439,52.993,76.958,45.214,73.18,38.848z"/>
	<path style="fill:#1E1E1C;" d="M22.83,57.162c-0.182-1.285-1.187-2.586-2.755-2.586c-0.282,0-0.574,0.043-0.867,0.128
		c-3.9,1.127-7.349,2.33-10.542,3.678c-1.644,0.693-2.111,2.326-1.846,3.637c0.269,1.332,1.242,2.228,2.422,2.228c0,0,0,0,0.001,0
		c0.358,0,0.731-0.081,1.108-0.239c3.15-1.33,6.562-2.52,10.432-3.639C22.443,59.888,23.008,58.412,22.83,57.162z"/>
	<path style="fill:#1E1E1C;" d="M11.172,18.111c4.601,3.048,9.571,6.136,16.118,10.012c0.48,0.284,0.979,0.428,1.482,0.429
		c1.277,0,2.428-0.945,2.798-2.297c0.353-1.289-0.148-2.517-1.31-3.204c-6.537-3.871-11.495-6.951-16.074-9.986
		c-0.497-0.329-1.017-0.497-1.544-0.497c-1.186,0-2.284,0.898-2.672,2.185C9.574,16.07,10.034,17.357,11.172,18.111z"/>
	<path style="fill:#1E1E1C;" d="M52.757,76.393c-0.833,0-1.603,0.312-2.111,0.855c-0.487,0.521-0.718,1.222-0.664,2.026
		c0.238,3.578,0.478,7.156,0.732,10.732c0.132,1.847,1.664,2.812,3.11,2.812c0.834,0,1.603-0.312,2.108-0.855
		c0.486-0.522,0.713-1.224,0.656-2.027c-0.254-3.576-0.493-7.152-0.731-10.729C55.734,77.359,54.204,76.393,52.757,76.393z"/>
	<path style="fill:#1E1E1C;" d="M31.351,70.027c-1.002,0-1.861,0.488-2.421,1.375c-4.063,6.439-8.2,12.785-12.433,19.26
		c-0.586,0.896-0.65,1.867-0.181,2.735c0.525,0.971,1.648,1.623,2.796,1.623c0.001,0,0.001,0,0.001,0
		c0.999,0,1.862-0.479,2.432-1.35c4.224-6.459,8.354-12.793,12.441-19.273c0.572-0.906,0.623-1.887,0.143-2.759
		C33.598,70.675,32.48,70.027,31.351,70.027z"/>
	<path style="fill:#1E1E1C;" d="M70.808,27.456c0.998,0,1.863-0.474,2.437-1.335c1.503-2.255,2.953-4.478,4.176-6.879
		c0.491-0.964,0.46-1.986-0.086-2.877c-0.576-0.939-1.629-1.546-2.683-1.546c-0.995,0-1.846,0.549-2.333,1.507
		c-1.196,2.347-2.63,4.546-4.117,6.778c-0.593,0.89-0.664,1.856-0.2,2.722C68.522,26.8,69.65,27.455,70.808,27.456z"/>
	<path style="fill:#1E1E1C;" d="M90.074,77.856c-4.312-3.432-8.047-6.12-11.757-8.46c-0.49-0.31-1.001-0.467-1.519-0.467
		c-1.226,0-2.348,0.919-2.728,2.234c-0.377,1.305,0.103,2.564,1.251,3.289c3.531,2.229,7.025,4.726,10.681,7.636
		c0.562,0.446,1.22,0.683,1.903,0.683c0.001,0,0,0,0.001,0c1.34,0,2.626-0.896,3.057-2.129C91.325,79.609,91,78.595,90.074,77.856z"
		/>
	<path style="fill:#1E1E1C;" d="M49.753,22.082c0.837,0,1.6-0.313,2.092-0.858c0.473-0.523,0.679-1.224,0.597-2.027
		c-0.463-4.537-0.735-9.103-0.974-13.391c-0.104-1.854-1.625-2.824-3.074-2.824c-0.832,0-1.604,0.311-2.117,0.854
		c-0.492,0.521-0.729,1.221-0.685,2.025c0.24,4.308,0.514,8.894,0.978,13.437C46.756,21.125,48.312,22.082,49.753,22.082z"/>
	<path style="fill:#1E1E1C;" d="M89.681,42.407c-1.706,0.227-6.746,0.239-7.739,0.24c-1.877,0-2.859,1.479-2.859,2.94
		c0.001,1.459,0.982,2.938,2.858,2.938h0.001c1.005,0,6.106-0.014,7.871-0.248c1.744-0.232,2.872-1.384,2.872-2.935
		C92.685,43.89,91.318,42.181,89.681,42.407z"/>
</g>
</svg>
