<?xml version="1.0" encoding="iso-8859-1"?>
<!-- Generator: Adobe Illustrator 17.0.2, SVG Export Plug-In . SVG Version: 6.00 Build 0)  -->
<!DOCTYPE svg PUBLIC "-//W3C//DTD SVG 1.1//EN" "http://www.w3.org/Graphics/SVG/1.1/DTD/svg11.dtd">
<svg version="1.1" id="Capa_1" xmlns="http://www.w3.org/2000/svg" xmlns:xlink="http://www.w3.org/1999/xlink" x="0px" y="0px"
	 width="100px" height="100px" viewBox="0 0 100 100" style="enable-background:new 0 0 100 100;" xml:space="preserve">
<g>
	<path d="M68.262,37.144c-3.869-4.986-9.202-7.638-15.056-7.835c-0.198-0.095-0.417-0.174-0.68-0.211
		c-14.354-2.024-27.541,10.842-25.603,25.363c1.565,11.728,12.94,18.59,24.109,16.788c9.879-1.593,20.084-8.664,21.864-19.059
		C73.854,46.595,71.631,41.486,68.262,37.144z M68.108,52.454c-1.634,7.271-9.122,12.047-15.851,13.824
		c-8.037,2.122-15.716-0.982-19.53-8.399c-5.268-10.246,3.667-22.529,14.129-24.227c0.51,0.529,1.261,0.833,2.176,0.637
		C59.239,32.103,70.523,41.705,68.108,52.454z"/>
	<path d="M22.584,15.726c-2.025-2.225-5.309,1.078-3.293,3.293c2.593,2.849,4.851,5.945,7.087,9.076
		c1.729,2.421,5.771,0.099,4.021-2.351C27.934,22.295,25.441,18.866,22.584,15.726z"/>
	<path d="M53.77,19.701c0.209-4.203-0.087-8.347-0.782-12.495c-0.495-2.957-4.982-1.699-4.491,1.238
		c0.625,3.733,0.803,7.478,0.615,11.256C48.963,22.704,53.621,22.69,53.77,19.701z"/>
	<path d="M77.504,19.918c-2.873,2.406-5.654,4.919-8.616,7.218c-1.004,0.78-0.813,2.48,0,3.293c0.981,0.981,2.292,0.778,3.293,0
		c2.961-2.3,5.743-4.812,8.616-7.218C83.102,21.28,79.789,18.003,77.504,19.918z"/>
	<path d="M18.609,47.178c-4.432-0.484-8.841-1.146-13.273-1.63c-2.984-0.326-2.952,4.335,0,4.657
		c4.432,0.483,8.841,1.146,13.273,1.63C21.592,52.161,21.561,47.5,18.609,47.178z"/>
	<path d="M25.583,72.644c-4.444,3.264-8.957,6.43-13.505,9.547c-2.46,1.686-0.134,5.724,2.35,4.021
		c4.548-3.117,9.062-6.283,13.505-9.547C30.327,74.908,28.008,70.863,25.583,72.644z"/>
	<path d="M46.085,77.449c0.017,4.658,0.216,9.313,0.233,13.971c0.011,3.003,4.668,3.004,4.657,0
		c-0.017-4.658-0.216-9.313-0.233-13.971C50.731,74.446,46.074,74.445,46.085,77.449z"/>
	<path d="M72.647,67.42c-2.237-1.987-5.543,1.295-3.293,3.293c3.903,3.466,7.601,7.143,11.177,10.944
		c2.062,2.191,5.349-1.108,3.293-3.293C80.248,74.563,76.55,70.886,72.647,67.42z"/>
	<path d="M95.916,46.479c-5.358,0-10.713,0.018-16.067,0.233c-2.993,0.12-3.004,4.778,0,4.657
		c5.354-0.215,10.709-0.232,16.067-0.233C98.919,51.136,98.919,46.479,95.916,46.479z"/>
</g>
</svg>
