<?xml version="1.0" encoding="iso-8859-1"?>
<!-- Generator: Adobe Illustrator 17.0.2, SVG Export Plug-In . SVG Version: 6.00 Build 0)  -->
<!DOCTYPE svg PUBLIC "-//W3C//DTD SVG 1.1//EN" "http://www.w3.org/Graphics/SVG/1.1/DTD/svg11.dtd">
<svg version="1.1" id="Capa_1" xmlns="http://www.w3.org/2000/svg" xmlns:xlink="http://www.w3.org/1999/xlink" x="0px" y="0px"
	 width="100px" height="100px" viewBox="0 0 100 100" style="enable-background:new 0 0 100 100;" xml:space="preserve">
<g>
	<path style="fill:#1D1D1B;" d="M73.741,33.779c-4.406,0-8.567,1.414-12.084,4.097C58.948,26.518,48.24,18.357,35.875,18.357
		c-1.001,0-2.015,0.055-3.012,0.164c-7.08,0.772-12.644,4.628-15.667,10.855c-3.178,6.546-2.859,14.462,0.788,20.885
		c-0.124-0.002-0.248-0.004-0.372-0.004c-7.915,0-13.937,5.264-14.984,13.099c-0.493,3.687,0.418,6.882,2.709,9.5
		c3.837,4.384,10.54,5.946,15.534,5.946c1.149,0,2.273-0.078,3.268-0.223c0.095,0.013,0.19,0.024,0.294,0.024
		c16.86,0,35.97,0,54.809-0.259c0.184-0.003,0.37-0.025,0.564-0.07c0.266,0.037,0.543,0.04,0.845-0.012
		c6.255-1.087,11.246-4.607,14.053-9.913c3.164-5.979,3.212-13.61,0.13-20.415C90.999,39.468,82.521,33.779,73.741,33.779z
		 M23.465,56.2c1.178,0.188,2.432-0.568,2.889-1.718c0.368-0.925,0.133-1.906-0.627-2.624c-5.274-4.98-7.054-12.038-4.647-18.418
		c2.261-5.992,7.638-9.711,14.386-9.949c11.862-0.41,21.688,8.754,21.713,20.072c0.003,1.645,1.297,2.505,2.573,2.505
		c1.148,0,2.09-0.636,2.433-1.631c3.222-3.599,7.285-5.5,11.755-5.5c6.984,0,13.626,4.761,16.528,11.847
		c2.171,5.299,2.059,10.822-0.308,15.149c-2.117,3.871-5.758,6.389-10.534,7.284c-0.118-0.017-0.249-0.03-0.398-0.027
		c-18.829,0.26-37.937,0.26-54.794,0.26c-0.182,0-0.36,0.018-0.542,0.055c-0.194-0.013-0.396-0.008-0.609,0.025
		c-0.993,0.16-2.021,0.241-3.057,0.241c-5.733,0-12.446-2.507-12.497-9.57c-0.016-2.278,0.772-4.286,2.281-5.805
		c1.853-1.866,4.684-2.937,7.767-2.937c1.16,0,2.293,0.153,3.371,0.458c0.187,0.053,0.38,0.083,0.586,0.093
		C22.254,56.264,22.833,56.345,23.465,56.2z"/>
	<path style="fill:#1D1D1B;" d="M34.773,56.016c2.914-5.051,8.927-7.455,12.654-3.898c-0.357-0.056-0.715-0.104-1.071-0.167
		c-0.013-0.002-0.027-0.002-0.041-0.004c-0.286-0.141-0.619-0.227-1.01-0.227c-2.692,0-2.887,3.857-0.596,4.433
		c0.14,0.068,0.288,0.12,0.448,0.148c1.599,0.283,3.213,0.469,4.812,0.752c1.708,0.302,3.31,0.206,4.081-1.484
		c0.014-0.031,0.032-0.06,0.046-0.092c0.738-1.76,1.518-3.502,2.255-5.263c0.476-1.136-0.504-2.48-1.575-2.774
		c-1.301-0.358-2.3,0.442-2.774,1.575c-0.152,0.362-0.309,0.72-0.463,1.081c-5.536-6.781-15.796-4.789-20.66,3.643
		C29.423,56.263,33.321,58.534,34.773,56.016z"/>
	<path style="fill:#1D1D1B;" d="M52.26,61.026c-2.914,5.051-8.927,7.455-12.654,3.898c0.357,0.056,0.715,0.104,1.071,0.167
		c0.014,0.002,0.027,0.002,0.041,0.004c0.286,0.141,0.619,0.227,1.01,0.227c2.692,0,2.888-3.857,0.596-4.433
		c-0.14-0.068-0.288-0.12-0.448-0.148c-1.909-0.337-3.857-0.493-5.78-0.737c-1.479-0.188-2.466,0.049-3.114,1.469
		c-0.014,0.031-0.032,0.06-0.046,0.092c-0.737,1.76-1.518,3.502-2.255,5.263c-0.476,1.136,0.504,2.48,1.575,2.774
		c1.301,0.358,2.3-0.442,2.775-1.575c0.151-0.362,0.309-0.72,0.463-1.081c5.536,6.781,15.796,4.789,20.66-3.643
		C57.611,60.778,53.713,58.508,52.26,61.026z"/>
</g>
</svg>
