<?xml version="1.0" encoding="utf-8"?>
<!-- Generator: Adobe Illustrator 17.0.2, SVG Export Plug-In . SVG Version: 6.00 Build 0)  -->
<!DOCTYPE svg PUBLIC "-//W3C//DTD SVG 1.1//EN" "http://www.w3.org/Graphics/SVG/1.1/DTD/svg11.dtd">
<svg version="1.1" id="Capa_1" xmlns="http://www.w3.org/2000/svg" xmlns:xlink="http://www.w3.org/1999/xlink" x="0px" y="0px"
	 width="100px" height="100px" viewBox="0 0 100 100" enable-background="new 0 0 100 100" xml:space="preserve">
<g>
	<path fill="#1D1D1B" d="M94.56,23.019c-8.046-6.446-15.238-13.873-23.376-20.21c-2.446-1.905-5.919,1.516-3.444,3.444
		c3.605,2.807,7.022,5.83,10.412,8.885c-1.514,2.056-3.164,4.002-4.811,5.951c-3.213-2.864-6.435-5.718-9.793-8.412
		c-0.758-1.161-2.483-1.812-3.843-0.615c-15.058,13.258-27.288,29.49-40.421,44.56c-0.291,0.333-0.461,0.689-0.552,1.047
		c-0.267,0.761-0.173,1.643,0.552,2.397c0.634,0.659,1.27,1.317,1.906,1.973c-0.068,0.06-0.141,0.113-0.202,0.184
		c-1.38,1.624-2.644,3.347-4.139,4.87c-0.351,0.357-0.545,0.746-0.637,1.136c-0.271,0.6-0.258,1.321,0.257,2.058
		c1.079,1.547,2.222,3.046,3.427,4.491c-0.041,0.038-0.084,0.065-0.125,0.107C14.46,80.451,9.256,86.119,3.944,91.686
		c-2.167,2.271,1.272,5.719,3.444,3.444c5.295-5.55,10.484-11.2,15.779-16.75c1.219,1.236,2.492,2.421,3.833,3.535
		c0.621,1.034,1.909,1.688,3.271,0.934c2.689-1.488,5.229-3.249,7.44-5.391c0.518,0.415,1.021,0.845,1.547,1.251
		c0.962,0.742,1.91,0.559,2.574-0.049c0.123-0.056,0.246-0.113,0.371-0.195C59.526,67.049,74.896,52.86,86.662,35.71
		c0.387-0.564,0.479-1.117,0.386-1.616c0.04-0.79-0.249-1.612-1.016-2.203c-3.123-2.407-6.11-4.974-9.063-7.582
		c1.636-1.942,3.268-3.886,4.798-5.912c3.057,2.757,6.135,5.49,9.35,8.066C93.542,28.406,97.011,24.983,94.56,23.019z
		 M29.514,77.649c-2.936-2.564-5.582-5.435-7.902-8.567c0.96-1.121,1.865-2.291,2.821-3.416c0.051-0.06,0.09-0.125,0.135-0.187
		c3.03,3.046,6.136,6.005,9.373,8.828C32.575,75.577,31.093,76.675,29.514,77.649z M81.571,34.505
		C70.615,50.084,56.458,63.098,40.649,73.651c-5.868-4.669-11.151-10.009-16.352-15.401c1.16-1.346,2.313-2.701,3.464-4.059
		c1.42,1.032,2.773,2.108,3.942,3.439c0.876,0.998,2.551,0.892,3.444,0c0.984-0.984,0.875-2.447,0-3.444
		c-1.25-1.424-2.726-2.598-4.248-3.712c1.563-1.86,3.127-3.723,4.694-5.584c2.965,3.309,6.026,6.523,9.26,9.574
		c2.282,2.153,5.732-1.284,3.444-3.444c-3.333-3.145-6.483-6.463-9.533-9.88c2.086-2.453,4.192-4.889,6.326-7.298
		c1.389,1.743,2.822,3.449,4.389,5.037c2.208,2.238,5.65-1.207,3.444-3.444c-1.628-1.65-3.111-3.428-4.55-5.241
		c1.596-1.746,3.222-3.463,4.865-5.16c3.456,4.499,7.098,8.835,11.094,12.871c2.212,2.234,5.655-1.211,3.444-3.444
		c-3.998-4.037-7.674-8.359-11.106-12.885c1.534-1.507,3.084-2.997,4.675-4.444C68.223,22.768,74.634,28.942,81.571,34.505z"/>
</g>
</svg>
