<?xml version="1.0" encoding="iso-8859-1"?>
<!-- Generator: Adobe Illustrator 17.0.2, SVG Export Plug-In . SVG Version: 6.00 Build 0)  -->
<!DOCTYPE svg PUBLIC "-//W3C//DTD SVG 1.1//EN" "http://www.w3.org/Graphics/SVG/1.1/DTD/svg11.dtd">
<svg version="1.1" id="Capa_1" xmlns="http://www.w3.org/2000/svg" xmlns:xlink="http://www.w3.org/1999/xlink" x="0px" y="0px"
	 width="100px" height="100px" viewBox="0 0 100 100" style="enable-background:new 0 0 100 100;" xml:space="preserve">
<g>
	<path style="fill:#1D1D1B;" d="M28.576,48.615c-0.014-0.025-0.031-0.042-0.045-0.065c5.917-10.171,9.871-21.247,14.807-31.901
		c0.753-1.626-0.891-3.093-2.167-2.77c-0.015-0.001-0.027-0.006-0.041-0.007c-4.301-0.305-8.615-0.33-12.917-0.615
		c-0.824-0.055-1.353,0.357-1.604,0.919c-0.226,0.14-0.434,0.337-0.604,0.61c-6.66,10.666-12.857,21.619-19.99,31.984
		c-0.286,0.416-0.36,0.823-0.3,1.193c-0.06,0.37,0.014,0.778,0.3,1.193c7.133,10.365,13.33,21.318,19.99,31.984
		c0.17,0.273,0.378,0.47,0.604,0.61c0.251,0.562,0.781,0.974,1.604,0.919c4.302-0.285,8.616-0.31,12.917-0.615
		c0.286-0.02,0.537-0.094,0.754-0.205c1.232,0.011,2.523-1.33,1.762-2.788C38.401,69.019,34.048,58.542,28.576,48.615z
		 M28.981,78.938C22.543,68.607,16.519,58.02,9.652,47.963c6.867-10.057,12.892-20.644,19.329-30.975
		c3.323,0.198,6.652,0.271,9.976,0.447c-4.552,10.181-8.435,20.653-14.183,30.257c-0.545,0.911-0.214,1.782,0.428,2.291
		c0.04,0.163,0.095,0.327,0.187,0.495c5.029,9.124,9.122,18.709,13.822,27.998C35.803,78.662,32.389,78.735,28.981,78.938z"/>
	<path style="fill:#1D1D1B;" d="M94.911,46.77c-7.133-10.365-13.33-21.318-19.99-31.984c-0.17-0.273-0.378-0.47-0.604-0.61
		c-0.251-0.562-0.781-0.974-1.604-0.919c-4.302,0.285-8.616,0.31-12.917,0.615c-0.015,0.001-0.027,0.006-0.041,0.007
		c-1.276-0.323-2.92,1.144-2.167,2.77c4.936,10.654,8.89,21.73,14.807,31.901c-0.014,0.024-0.031,0.041-0.045,0.065
		c-5.471,9.927-9.825,20.404-15.069,30.446c-0.761,1.458,0.529,2.798,1.762,2.788c0.217,0.111,0.468,0.185,0.754,0.205
		c4.301,0.305,8.615,0.33,12.917,0.615c0.824,0.055,1.353-0.357,1.604-0.919c0.226-0.14,0.434-0.337,0.604-0.61
		c6.66-10.666,12.857-21.619,19.99-31.984c0.286-0.416,0.36-0.823,0.3-1.193C95.271,47.593,95.197,47.185,94.911,46.77z
		 M71.945,78.938c-3.408-0.203-6.822-0.275-10.23-0.462c4.7-9.289,8.792-18.874,13.822-27.998c0.092-0.167,0.148-0.332,0.188-0.495
		c0.641-0.509,0.973-1.379,0.428-2.291c-5.747-9.604-9.63-20.075-14.182-30.257c3.324-0.176,6.653-0.25,9.976-0.447
		c6.438,10.331,12.462,20.917,19.329,30.975C84.407,58.02,78.382,68.607,71.945,78.938z"/>
</g>
</svg>
