<?xml version="1.0" encoding="iso-8859-1"?>
<!-- Generator: Adobe Illustrator 17.0.2, SVG Export Plug-In . SVG Version: 6.00 Build 0)  -->
<!DOCTYPE svg PUBLIC "-//W3C//DTD SVG 1.1//EN" "http://www.w3.org/Graphics/SVG/1.1/DTD/svg11.dtd">
<svg version="1.1" id="Capa_1" xmlns="http://www.w3.org/2000/svg" xmlns:xlink="http://www.w3.org/1999/xlink" x="0px" y="0px"
	 width="100px" height="100px" viewBox="0 0 100 100" style="enable-background:new 0 0 100 100;" xml:space="preserve">
<g>
	<path style="fill:#1D1D1B;" d="M94.946,46.636l-0.193,0.005c-1.948,0.099-3.896,0.179-5.845,0.25
		c-3.356-18.54-17.817-32.262-36.369-34.333c-0.019-0.002-0.037-0.004-0.056-0.005c-0.09-0.037-0.182-0.069-0.275-0.099l0.002-1.719
		c0-1.913-1.469-3.355-3.418-3.355c-1.948,0-3.418,1.442-3.418,3.355l-0.001,1.472c-16.784,1.454-31.826,16.67-35.075,29.965
		c-0.7,2.862-1.1,5.788-1.195,8.719c-1.537-0.055-2.904-0.137-4.218-0.251c-1.951-0.167-3.386,1.181-3.468,3.086
		c-0.072,1.672,1.028,3.55,3.209,3.74c1.5,0.13,3.059,0.218,4.829,0.272c1.505,10.484,7.302,19.272,16.428,24.847
		c5.908,3.609,13.571,5.655,21.668,5.799c0.151,1.298,0.311,2.598,0.473,3.898c0.258,2.062,2.028,3.141,3.644,3.141
		c0.978,0,1.876-0.383,2.465-1.051c0.572-0.647,0.822-1.521,0.704-2.463c-0.161-1.283-0.318-2.565-0.468-3.847
		c17.463-1.966,35.548-12.996,35.297-33.233c-0.004-0.363-0.014-0.735-0.03-1.127c1.756-0.067,3.513-0.141,5.269-0.229
		c1.916-0.097,3.323-1.648,3.273-3.607C98.131,47.995,96.772,46.636,94.946,46.636z M53.688,81.316
		c-0.365-4.482-0.453-8.278-0.28-11.844c0.045-0.929-0.257-1.785-0.853-2.41c-0.614-0.645-1.514-1.014-2.469-1.014
		c-1.665,0-3.405,1.126-3.51,3.278c-0.181,3.715-0.089,7.658,0.29,12.297C29.71,81.017,19.353,70.601,16.65,60.275
		c-0.209-0.797-0.367-1.644-0.472-2.53c5.615-0.165,11.715-0.742,19.032-1.796c1.692-0.244,2.79-1.592,2.669-3.279
		c-0.131-1.825-1.722-3.729-4.117-3.39c-6.56,0.945-12.14,1.47-17.394,1.632c2.318-14.495,15.591-29.407,28.722-31.868
		c0.088-0.016,0.177-0.032,0.268-0.046c-0.027,6.301-0.097,11.263-0.224,15.913c-0.025,0.924,0.292,1.773,0.894,2.391
		c0.621,0.638,1.521,1.004,2.471,1.004c1.927,0,3.418-1.424,3.47-3.313c0.125-4.595,0.195-9.478,0.223-15.639
		c0.004,0,0.009,0.001,0.013,0.001c15.207,1.698,27.746,13.246,30.424,27.755c-4.857,0.167-9.84,0.358-14.77,0.732
		c-2.182,0.165-3.292,2.029-3.229,3.7c0.072,1.915,1.498,3.275,3.455,3.128c4.998-0.378,10.094-0.569,15.057-0.739
		c-0.073,2.416-0.409,4.831-1.002,7.201C79.148,73.093,65.949,79.783,53.688,81.316z"/>
</g>
</svg>
