<?xml version="1.0" encoding="iso-8859-1"?>
<!-- Generator: Adobe Illustrator 17.0.2, SVG Export Plug-In . SVG Version: 6.00 Build 0)  -->
<!DOCTYPE svg PUBLIC "-//W3C//DTD SVG 1.1//EN" "http://www.w3.org/Graphics/SVG/1.1/DTD/svg11.dtd">
<svg version="1.1" id="Capa_1" xmlns="http://www.w3.org/2000/svg" xmlns:xlink="http://www.w3.org/1999/xlink" x="0px" y="0px"
	 width="100px" height="100px" viewBox="0 0 100 100" style="enable-background:new 0 0 100 100;" xml:space="preserve">
<g>
	<path style="fill:#1D1D1B;" d="M16.292,36.578c5.336,7.5,12.521,13.951,20.032,20.445c8.07,6.978,15.201,11.421,22.442,13.984
		c0.443,0.157,0.887,0.195,1.315,0.112c8.865,0.405,16.308-2.106,21.954-7.444c2.524,1.783,4.809,5.102,4.338,7.479
		c-0.286,1.447-1.547,2.388-3.75,2.799c-1.304,0.243-2.069,1.248-1.948,2.559c0.117,1.267,1.114,2.614,2.731,2.614c0,0,0,0,0,0
		c0.174,0,0.354-0.016,0.541-0.051c5.175-0.965,8.25-4.708,7.834-9.535c-0.324-3.758-2.625-7.431-6.189-9.918
		c0.292-0.403,0.579-0.817,0.858-1.242c0.643-0.98,0.572-2.094-0.175-2.938c-0.125-0.454-0.388-0.859-0.785-1.207
		c-3.923-3.442-8.084-5.992-12.719-7.795c-0.645-0.251-1.282-0.246-1.837,0.01c-4.267,0.686-8.55,0.508-12.808-0.543
		c-0.041-0.034-0.083-0.067-0.13-0.098C49.83,40.483,42.57,33.935,36.415,26.34c1.704-3.26,2.932-6.729,3.652-10.317
		c0.128-0.64,0.036-1.27-0.237-1.754c-0.131-0.352-0.343-0.676-0.631-0.964c-3.722-3.722-7.737-7.645-12.288-11.109
		c-0.357-0.271-0.742-0.437-1.146-0.493c-1.021-0.628-2.283-0.515-3.174,0.327c-8.996,8.5-13.945,23.415-6.701,33.712
		C15.971,36.036,16.105,36.317,16.292,36.578z M31.285,24.756c-0.288,0.51-0.403,1.062-0.335,1.602
		c-0.167,0.809,0.02,1.61,0.533,2.267c6.544,8.387,14.552,15.697,23.802,21.727c0.17,0.111,0.352,0.201,0.554,0.276
		c0.257,0.17,0.528,0.29,0.826,0.364c4.814,1.211,9.818,1.434,14.974,0.67c3.197,1.291,6.281,3.15,9.176,5.532
		c-4.421,5.758-10.811,8.678-18.998,8.678c-0.605,0-1.216-0.016-1.834-0.046c-8.162-2.951-15.06-8.348-21.299-13.744
		C32.643,46.86,26.349,41.229,21.58,34.85c-0.104-0.42-0.306-0.802-0.599-1.135c-6.465-7.343-2.849-19.003,3.886-26.439
		c3.421,2.691,6.558,5.749,9.725,8.91C33.826,19.359,32.743,22.166,31.285,24.756z"/>
	<path style="fill:#1D1D1B;" d="M89.876,77.325c-0.476,0-1.17,0.163-1.778,0.94c-2.4,3.068-4.713,3.519-7.632,1.526
		c-0.451-0.307-0.923-0.463-1.404-0.463c-1.049,0-2.028,0.797-2.38,1.938c-0.367,1.191,0.037,2.362,1.055,3.057
		c1.918,1.308,3.928,1.971,5.974,1.972c0,0,0,0,0.001,0c3.084,0,6-1.556,8.209-4.379c0.675-0.864,0.788-1.976,0.301-2.975
		C91.75,77.975,90.808,77.325,89.876,77.325z"/>
	<path style="fill:#1D1D1B;" d="M80.113,93.073c1.141,0,2.302-0.166,3.45-0.491c1.495-0.424,2.006-1.748,1.85-2.871
		c-0.162-1.163-1.071-2.341-2.496-2.341c-0.25,0-0.509,0.038-0.769,0.111c-2.524,0.717-4.76,0.16-6.54-1.643
		c-0.509-0.516-1.128-0.789-1.789-0.789c-1.055,0-2.094,0.722-2.526,1.756c-0.403,0.965-0.191,2,0.568,2.77
		C74.122,91.864,76.975,93.073,80.113,93.073C80.113,93.073,80.113,93.073,80.113,93.073z"/>
	<path style="fill:#1D1D1B;" d="M67.68,91.458c-2.782-0.803-5.409-1.562-8.09-1.562c-3.122,0-5.769,1.032-8.329,3.247
		c-0.804,0.696-1.076,1.67-0.728,2.607c0.401,1.077,1.523,1.858,2.667,1.858c0.634,0,1.239-0.233,1.749-0.675
		c1.481-1.281,3.243-1.904,5.386-1.904c2.547,0,5.336,0.872,8.032,1.716c2.368,0.741,4.816,1.506,7.058,1.654
		c0.068,0.004,0.135,0.006,0.201,0.006c0,0,0,0,0,0c1.592,0,2.359-1.25,2.397-2.412c0.044-1.348-0.812-2.771-2.533-2.885
		C72.786,92.932,70.19,92.183,67.68,91.458z"/>
</g>
</svg>
