<?xml version="1.0" encoding="iso-8859-1"?>
<!-- Generator: Adobe Illustrator 17.0.2, SVG Export Plug-In . SVG Version: 6.00 Build 0)  -->
<!DOCTYPE svg PUBLIC "-//W3C//DTD SVG 1.1//EN" "http://www.w3.org/Graphics/SVG/1.1/DTD/svg11.dtd">
<svg version="1.1" id="Capa_1" xmlns="http://www.w3.org/2000/svg" xmlns:xlink="http://www.w3.org/1999/xlink" x="0px" y="0px"
	 width="100px" height="100px" viewBox="0 0 100 100" style="enable-background:new 0 0 100 100;" xml:space="preserve">
<g>
	<path style="fill:#1D1D1B;" d="M94.984,15.478c-0.056-1.024-0.736-2.038-2.05-2.099c-29.156-1.354-58.346-2.883-87.533-1.601
		c-1.302,0.057-1.981,1.05-2.048,2.064c-0.051,0.186-0.087,0.383-0.087,0.605v4.003c0,0.101,0.017,0.19,0.028,0.283
		c-0.01,0.083-0.027,0.161-0.028,0.251c-0.26,20.225-0.219,40.489,2.402,60.58c0.016,0.124,0.049,0.237,0.081,0.35
		c-0.041,1.097,0.642,2.258,2.054,2.319c29.088,1.251,58.175-1.247,87.267-0.267c0.248,0.008,0.465-0.029,0.668-0.085
		c1.007-0.072,1.974-0.751,2-2.05c0.428-21.306-2.319-42.495-2.669-63.782C95.066,15.84,95.032,15.654,94.984,15.478z
		 M93.492,77.652c-27.913-0.822-55.821,1.421-83.73,0.378C7.334,58.441,7.283,38.694,7.536,18.982
		c0.001-0.101-0.015-0.191-0.025-0.285c0.008-0.083,0.025-0.16,0.025-0.248v-2.483c27.775-1.091,55.552,0.29,83.298,1.585
		C91.266,37.606,93.698,57.58,93.492,77.652z"/>
	<path style="fill:#1D1D1B;" d="M88.645,21.588c-0.048-0.826-0.631-1.643-1.758-1.692c-25.003-1.091-50.036-2.323-75.066-1.29
		c-1.116,0.046-1.699,0.846-1.756,1.663c-0.044,0.15-0.075,0.309-0.075,0.487v3.226c0,0.081,0.015,0.153,0.024,0.228
		c-0.008,0.067-0.023,0.13-0.024,0.202c-0.222,16.297-0.188,32.627,2.06,48.816c0.014,0.1,0.042,0.191,0.07,0.282
		c-0.035,0.884,0.55,1.819,1.761,1.868c24.945,1.008,49.889-1.005,74.838-0.215c0.212,0.007,0.399-0.023,0.573-0.068
		c0.863-0.058,1.693-0.605,1.715-1.652c0.367-17.169-1.989-34.243-2.289-51.396C88.715,21.88,88.685,21.729,88.645,21.588z
		 M15.56,71.993c-2.082-15.785-2.126-31.698-1.909-47.581c0.001-0.082-0.013-0.154-0.021-0.23c0.007-0.067,0.021-0.129,0.021-0.2
		v-2.001c23.819-0.879,47.64,0.233,71.434,1.277c0.371,16.161,2.456,32.257,2.28,48.431C63.428,71.026,39.494,72.833,15.56,71.993z"
		/>
	<path style="fill:#1D1D1B;" d="M29.5,31c1.935,0,1.935-3,0-3S27.565,31,29.5,31z"/>
	<path style="fill:#1D1D1B;" d="M29.833,33.5c-1.935,0-1.935,3,0,3C31.768,36.5,31.768,33.5,29.833,33.5z"/>
	<path style="fill:#1D1D1B;" d="M38.038,26.41c-1.87,4.021-4.037,7.876-6.333,11.667c-1.005,1.659,1.59,3.166,2.59,1.514
		c2.296-3.791,4.463-7.646,6.333-11.667C41.439,26.181,38.853,24.657,38.038,26.41z"/>
	<path style="fill:#1D1D1B;" d="M24.101,35.387C22.16,35.65,20.494,35.16,20.333,33c-0.002-0.031-0.011-0.058-0.015-0.088
		c0.004-0.027,0.012-0.052,0.015-0.079c0.273-2.106,1.72-2.684,3.667-2.5c1.926,0.182,1.909-2.82,0-3
		c-1.53-0.144-3.17,0.065-4.424,1.021c-1.356,1.033-1.927,2.494-2.185,4.109c-0.031,0.104-0.048,0.217-0.053,0.339
		c-0.001,0.011-0.004,0.021-0.005,0.032c-0.005,0.038,0.002,0.073,0.001,0.11c0.001,0.02-0.003,0.036-0.001,0.057
		c0.001,0.008,0.002,0.015,0.002,0.022c0.003,0.057,0.007,0.112,0.019,0.167c0.167,1.778,0.798,3.247,2.274,4.336
		c1.481,1.093,3.556,0.987,5.27,0.755c0.812-0.11,1.242-1.138,1.048-1.845C25.708,35.568,24.911,35.277,24.101,35.387z"/>
</g>
</svg>
