<?xml version="1.0" encoding="iso-8859-1"?>
<!-- Generator: Adobe Illustrator 17.0.2, SVG Export Plug-In . SVG Version: 6.00 Build 0)  -->
<!DOCTYPE svg PUBLIC "-//W3C//DTD SVG 1.1//EN" "http://www.w3.org/Graphics/SVG/1.1/DTD/svg11.dtd">
<svg version="1.1" id="Capa_1" xmlns="http://www.w3.org/2000/svg" xmlns:xlink="http://www.w3.org/1999/xlink" x="0px" y="0px"
	 width="100px" height="100px" viewBox="0 0 100 100" style="enable-background:new 0 0 100 100;" xml:space="preserve">
<g>
	<path style="fill:#1D1D1B;" d="M75.428,8.063c-0.191-0.051-0.394-0.086-0.611-0.099C57.11,6.85,39.388,6.185,21.66,7.22
		c-1.666,0.097-2.549,1.362-2.665,2.662c-0.306,0.418-0.496,0.954-0.496,1.613c0.019,27.312,0.711,49.04,1.095,76.348
		c-0.703,1.613,0.108,4.012,2.436,4.132c14.121,0.725,24.911,1.133,39.032,1.859c0.356,0.018,0.667-0.033,0.952-0.117
		c0.595-0.018,1.205-0.221,1.763-0.699c5.266-4.514,10.488-9.065,15.241-14.126c0.584-0.622,0.799-1.318,0.767-1.984
		c0.042-0.226,0.066-0.465,0.05-0.73c-1.444-23.641-1.139-41.754-1.487-65.424C78.322,8.915,76.852,8.022,75.428,8.063z
		 M62.801,86.502c-0.252-2.953-0.545-5.901-0.923-8.841c3.671-0.637,7.386-0.777,11.117-0.607
		C69.732,80.348,66.3,83.46,62.801,86.502z M58.091,72.744c-1.606,0.376-2.153,1.71-1.947,2.967c-0.033,0.265-0.043,0.54,0,0.835
		c0.566,3.824,0.907,7.672,1.211,11.524c-11.286-0.565-20.391-0.955-32.206-1.526c-0.381-26.479-1.032-47.378-1.069-73.861
		c16.249-0.809,32.493-0.249,48.724,0.737c0.272,21.231,0.113,36.898,1.214,58.107C68.672,71.205,63.314,71.521,58.091,72.744z"/>
	<path style="fill:#1D1D1B;" d="M35.042,32.126c8.93,0.001,17.858,0.027,26.765,0.743c3.586,0.288,3.559-5.29,0-5.576
		c-8.907-0.716-17.835-0.742-26.765-0.743C31.446,26.549,31.446,32.125,35.042,32.126z"/>
	<path style="fill:#1D1D1B;" d="M62.922,38.445H34.298c-3.596,0-3.596,5.576,0,5.576h28.624
		C66.518,44.021,66.518,38.445,62.922,38.445z"/>
	<path style="fill:#1D1D1B;" d="M59.948,52.199c-7.555-0.349-15.12-0.395-22.675-0.743c-3.597-0.166-3.58,5.411,0,5.576
		c7.555,0.349,15.12,0.395,22.675,0.743C63.544,57.941,63.528,52.365,59.948,52.199z"/>
</g>
</svg>
