<?xml version="1.0" encoding="iso-8859-1"?>
<!-- Generator: Adobe Illustrator 17.0.2, SVG Export Plug-In . SVG Version: 6.00 Build 0)  -->
<!DOCTYPE svg PUBLIC "-//W3C//DTD SVG 1.1//EN" "http://www.w3.org/Graphics/SVG/1.1/DTD/svg11.dtd">
<svg version="1.1" id="Capa_1" xmlns="http://www.w3.org/2000/svg" xmlns:xlink="http://www.w3.org/1999/xlink" x="0px" y="0px"
	 width="100px" height="100px" viewBox="0 0 100 100" style="enable-background:new 0 0 100 100;" xml:space="preserve">
<g>
	<path style="fill:#1D1D1B;" d="M57.988,76.726c1.072-11.978,4.123-42.431,3.983-54.541C61.894,15.561,59.054,1.67,49.479,3.083
		c-7.365,1.087-7.748,13.676-8.116,19.121c-0.789,11.679,0.609,42.522,4.171,53.661c-4.156,2.421-7.645,6.224-6.502,11.4
		c0.991,4.49,5.412,7.609,9.441,9.145c4.08,1.556,9.293,1.298,12.264-2.244C65.308,88.715,63.097,80.847,57.988,76.726z
		 M45.141,26.518c0.064-4.128-0.391-18.011,4.919-19.555c3.348-0.974,6.368,5.28,7.022,7.519c1.378,4.717,1.041,9.993,0.725,14.832
		c-0.08,1.223-0.186,2.731-0.313,4.45c-4.123-0.451-8.199-0.336-12.279,0.248C45.136,31.014,45.112,28.429,45.141,26.518z
		 M57.011,92.324c-2.094,1.834-5.781,1.043-8.043,0.054c-2.662-1.163-5.342-3.251-6.126-6.164c-1.002-3.725,3.302-6.305,6.027-7.667
		c1.164-0.582,1.208-1.753,0.674-2.611c0.019-0.238-0.005-0.495-0.095-0.773c-2.282-7.038-3.612-24.381-4.101-37.15
		c3.942-0.609,7.875-0.696,11.849-0.283c-0.973,12.674-2.593,31.994-3.231,39.769c-0.05,0.608,0.142,1.065,0.46,1.38
		c0.135,0.179,0.3,0.347,0.518,0.49C59.034,82.06,61.169,88.682,57.011,92.324z"/>
	<path style="fill:#1D1D1B;" d="M52.843,80.273c-2.21-1.344-4.219,2.116-2.019,3.454c2.182,1.328,3.028,2.969,2.081,5.408
		c-0.935,2.408,2.934,3.441,3.857,1.063C58.354,86.097,56.424,82.452,52.843,80.273z"/>
	<path style="fill:#1D1D1B;" d="M29.5,27.141c2.114,0,4.224,0.019,6.333,0.193c2.575,0.213,2.558-4.43,0-4.641
		c-2.109-0.174-4.22-0.193-6.333-0.193C26.92,22.5,26.92,27.141,29.5,27.141z"/>
	<path style="fill:#1D1D1B;" d="M29.5,39.325h6.333c2.58,0,2.58-4.641,0-4.641H29.5C26.92,34.684,26.92,39.325,29.5,39.325z"/>
	<path style="fill:#1D1D1B;" d="M36.5,51.509c2.58,0,2.58-4.642,0-4.642h-6.333c-2.58,0-2.58,4.642,0,4.642H36.5z"/>
	<path style="fill:#1D1D1B;" d="M37.667,58.858h-6.333c-2.579,0-2.579,4.642,0,4.642h6.333C40.246,63.5,40.246,58.858,37.667,58.858
		z"/>
</g>
</svg>
