<?xml version="1.0" encoding="iso-8859-1"?>
<!-- Generator: Adobe Illustrator 17.0.2, SVG Export Plug-In . SVG Version: 6.00 Build 0)  -->
<!DOCTYPE svg PUBLIC "-//W3C//DTD SVG 1.1//EN" "http://www.w3.org/Graphics/SVG/1.1/DTD/svg11.dtd">
<svg version="1.1" id="Capa_1" xmlns="http://www.w3.org/2000/svg" xmlns:xlink="http://www.w3.org/1999/xlink" x="0px" y="0px"
	 width="100px" height="100px" viewBox="0 0 100 100" style="enable-background:new 0 0 100 100;" xml:space="preserve">
<g>
	<path style="fill:#1D1D1B;" d="M73.931,33.779c-4.406,0-8.567,1.414-12.084,4.097C59.139,26.518,48.43,18.357,36.065,18.357
		c-1.001,0-2.015,0.055-3.012,0.164c-7.08,0.772-12.644,4.628-15.667,10.855c-3.177,6.546-2.859,14.462,0.788,20.885
		c-0.124-0.002-0.248-0.004-0.372-0.004c-7.915,0-13.937,5.264-14.984,13.099c-0.493,3.687,0.418,6.882,2.709,9.5
		c3.837,4.384,10.54,5.946,15.534,5.946c1.149,0,2.273-0.078,3.268-0.223c0.095,0.013,0.19,0.024,0.295,0.024
		c16.86,0,35.969,0,54.808-0.259c0.184-0.003,0.37-0.025,0.564-0.07c0.266,0.037,0.543,0.04,0.845-0.012
		c6.255-1.087,11.246-4.607,14.053-9.913c3.164-5.979,3.212-13.61,0.13-20.415C91.189,39.468,82.712,33.779,73.931,33.779z
		 M23.655,56.2c1.179,0.188,2.432-0.568,2.889-1.718c0.368-0.925,0.133-1.906-0.627-2.624c-5.274-4.98-7.054-12.038-4.647-18.418
		c2.261-5.992,7.638-9.711,14.386-9.949c11.864-0.41,21.688,8.754,21.713,20.072c0.003,1.645,1.297,2.505,2.573,2.505
		c1.148,0,2.09-0.636,2.433-1.631c3.222-3.599,7.285-5.5,11.755-5.5c6.984,0,13.626,4.761,16.528,11.847
		c2.171,5.299,2.059,10.822-0.308,15.149c-2.117,3.871-5.758,6.389-10.533,7.284c-0.119-0.017-0.233-0.03-0.398-0.027
		c-18.829,0.26-37.936,0.26-54.794,0.26c-0.182,0-0.36,0.018-0.542,0.055c-0.193-0.013-0.396-0.008-0.609,0.025
		c-0.993,0.16-2.021,0.241-3.057,0.241c-5.733,0-12.446-2.507-12.497-9.57c-0.016-2.278,0.772-4.286,2.281-5.805
		c1.853-1.866,4.684-2.937,7.767-2.937c1.16,0,2.293,0.153,3.371,0.458c0.187,0.053,0.38,0.083,0.586,0.093
		C22.444,56.264,23.024,56.345,23.655,56.2z"/>
	<path style="fill:#1D1D1B;" d="M29.465,70.124l-0.063,0.089l0.087-0.065c0.285,0.273,0.659,0.439,1.062,0.439c0,0,0,0,0,0
		c0.333,0,0.661-0.112,0.947-0.326c7.018-5.226,14.423-10.856,21.034-17.176c0.061-0.058,0.117-0.12,0.169-0.187
		c0.447-0.461,0.601-1.18,0.371-1.798c-0.236-0.639-0.811-1.037-1.565-1.037c-0.001,0-0.002,0-0.003,0l-4.647,0.17l-0.008,0
		c0.547-2.302,1.317-4.589,2.066-6.813c0.639-1.896,1.299-3.856,1.825-5.843c0.275-0.431,0.323-0.959,0.117-1.444
		c-0.427-1.003-1.835-1.369-2.68-0.637c-2.055,1.785-3.533,3.267-4.767,4.78c-3.512,4.002-7.572,8.083-12.408,12.476l-0.09,0.091
		c-0.471,0.463-0.624,1.187-0.38,1.826c0.245,0.642,0.83,1.04,1.526,1.04c1.612,0,2.68,0.003,4.008,0.026
		c-0.283,0.601-0.56,1.198-0.835,1.793c-1.687,3.641-3.28,7.08-5.895,10.155c-0.34,0.398-0.474,0.909-0.373,1.413
		C29.016,69.501,29.2,69.859,29.465,70.124z M45.248,43.213c-0.864,2.797-1.537,5.492-2.039,8.148
		c-0.007,0.034-0.012,0.067-0.016,0.101c-0.157,0.486-0.095,1.024,0.175,1.45c0.293,0.461,0.783,0.726,1.412,0.726
		c0.001,0,0.003,0,0.004,0l2.333-0.085c-3.369,3.014-6.824,5.812-9.95,8.246c0.491-1.059,0.931-2.12,1.365-3.167
		c0.506-1.223,1.03-2.486,1.628-3.734c0.256-0.535,0.224-1.126-0.088-1.623c-0.318-0.506-0.876-0.819-1.455-0.819
		c-0.059,0-0.117,0.003-0.174,0.01c-0.861-0.027-1.524-0.045-2.176-0.057C39.618,49.241,42.572,46.216,45.248,43.213z"/>
</g>
</svg>
