<?xml version="1.0" encoding="iso-8859-1"?>
<!-- Generator: Adobe Illustrator 17.0.2, SVG Export Plug-In . SVG Version: 6.00 Build 0)  -->
<!DOCTYPE svg PUBLIC "-//W3C//DTD SVG 1.1//EN" "http://www.w3.org/Graphics/SVG/1.1/DTD/svg11.dtd">
<svg version="1.1" id="Capa_1" xmlns="http://www.w3.org/2000/svg" xmlns:xlink="http://www.w3.org/1999/xlink" x="0px" y="0px"
	 width="100px" height="100px" viewBox="0 0 100 100" style="enable-background:new 0 0 100 100;" xml:space="preserve">
<g>
	<path style="fill:#1D1D1B;" d="M80,6.75C65.834,6.988,57.667,7,43.5,7c-2.58,0-2.58,4,0,4c2.476,0-1.048-0.002,1.428-0.005
		c-3.41,8.107-6.68,16.263-10.905,23.995c-0.892,1.633,0.655,3.129,2.052,2.992C36.134,37.987,36.188,38,36.25,38h8.672
		c-3.347,7.594-6.448,15.291-9.601,22.968c-0.45,1.097,0.128,1.901,0.975,2.228c0.321,0.362,0.805,0.589,1.454,0.554
		c3.548-0.194,7.099-0.236,10.65-0.246C45.344,73.849,41.1,83.779,37.571,93.968c-0.54,1.56,0.839,2.544,2.126,2.424
		c0.706,0.534,1.694,0.629,2.467-0.228c12.79-14.178,23.497-30.004,35.063-45.155c0.999-1.309-0.056-2.587-1.35-2.82
		C75.628,48.071,75.337,48,75,48h-8.282c4.927-6.826,9.968-13.568,14.759-20.491c1.072-1.549-0.476-3.021-1.959-2.898
		c-0.247-0.058-0.513-0.079-0.8-0.04c-2.226,0.305-4.451,0.452-6.679,0.401c2.982-4.859,5.994-9.701,9.016-14.536
		C82.501,9.494,82.157,6.714,80,6.75z M67.023,25.491c-0.48,0.787-0.343,1.544,0.083,2.099c0.296,0.587,0.844,1.059,1.644,1.16
		c2.311,0.293,4.596,0.292,6.883,0.127c-4.655,6.573-9.477,13.026-14.157,19.582C60.291,49.506,60.71,52,62.75,52h8.755
		c-9.094,12.081-17.773,24.484-27.542,36.027c3.173-8.52,6.546-16.966,8.966-25.745c0.236-0.857-0.071-1.538-0.597-1.969
		c-0.315-0.474-0.837-0.812-1.582-0.812c-3.534,0-7.066,0.016-10.596,0.147c3.031-7.412,6.034-14.835,9.323-22.138
		c0.175-0.389,0.216-0.767,0.173-1.121c0.19-1.111-0.442-2.389-1.9-2.389h-8.688c3.812-7.471,6.882-15.269,10.165-22.991
		c0.003-0.007,0.003-0.014,0.006-0.021c8.961-0.017,17.921-0.062,26.881-0.188C73.065,15.685,70.021,20.574,67.023,25.491z"/>
</g>
</svg>
