<?xml version="1.0" encoding="iso-8859-1"?>
<!-- Generator: Adobe Illustrator 17.0.2, SVG Export Plug-In . SVG Version: 6.00 Build 0)  -->
<!DOCTYPE svg PUBLIC "-//W3C//DTD SVG 1.1//EN" "http://www.w3.org/Graphics/SVG/1.1/DTD/svg11.dtd">
<svg version="1.1" id="Capa_1" xmlns="http://www.w3.org/2000/svg" xmlns:xlink="http://www.w3.org/1999/xlink" x="0px" y="0px"
	 width="100px" height="100px" viewBox="0 0 100 100" style="enable-background:new 0 0 100 100;" xml:space="preserve">
<g>
	<path style="fill:#1D1D1B;" d="M78.47,43.203l-0.114,0.002c-2.562,0.092-5.74,0.185-8.945,0.278
		c-2.994,0.088-6.012,0.177-8.576,0.266c1.475-6.493,4.337-12.945,7.109-19.198c2.51-5.658,5.104-11.509,6.637-17.327l0.031-0.114
		c0.015-0.051,0.028-0.102,0.042-0.15c0.562-0.732,0.684-1.651,0.316-2.514c-0.454-1.067-1.572-1.813-2.72-1.813
		c-0.672,0-1.311,0.245-1.845,0.71c-5.49,4.766-9.429,8.717-12.746,12.782C48.105,27.009,37.068,38.107,23.92,50.051
		c-0.061,0.055-0.11,0.109-0.099,0.109c-0.854,0.762-1.152,2.079-0.724,3.204c0.409,1.076,1.358,1.718,2.538,1.718
		c5.184,0,10.68,0.011,16.231,0.129C34.628,69.786,27.52,80.974,19.563,90.328c-0.596,0.701-0.814,1.564-0.62,2.44
		c0.16,1.464,1.292,2.6,2.608,2.6c0.533,0,1.068-0.188,1.547-0.545c18.965-14.121,38.973-29.334,56.803-46.379
		c0.128-0.122,0.243-0.253,0.349-0.398c0.812-0.778,1.099-2.052,0.691-3.149C80.549,43.836,79.625,43.203,78.47,43.203z
		 M48.741,53.85c0.436-0.908,0.383-1.909-0.144-2.746c-0.544-0.864-1.523-1.422-2.495-1.422c-0.131,0-0.261,0.01-0.388,0.029
		c-4.539-0.142-8.984-0.189-12.949-0.208c10.47-9.735,19.522-18.927,27.621-28.042c0.205-0.151,0.379-0.32,0.532-0.514
		c0.172-0.221,0.35-0.437,0.527-0.651l0.555-0.649c0.098-0.109,0.177-0.222,0.251-0.336c0.967-1.157,1.993-2.312,3.094-3.479
		c-0.846,2.103-1.733,4.211-2.604,6.277c-3.17,7.531-6.449,15.318-7.943,23.234c-0.02,0.107-0.032,0.212-0.04,0.313
		c-0.329,0.869-0.243,1.882,0.237,2.639c0.475,0.748,1.281,1.177,2.213,1.177l0.118-0.003c2.325-0.086,5.35-0.171,8.36-0.256
		c1.844-0.053,3.683-0.104,5.354-0.156C58.738,60.354,45.737,70.675,34.852,78.996C39.591,71.693,44.164,63.41,48.741,53.85z"/>
</g>
</svg>
