<?xml version="1.0" encoding="utf-8"?>
<!-- Generator: Adobe Illustrator 17.0.2, SVG Export Plug-In . SVG Version: 6.00 Build 0)  -->
<!DOCTYPE svg PUBLIC "-//W3C//DTD SVG 1.1//EN" "http://www.w3.org/Graphics/SVG/1.1/DTD/svg11.dtd">
<svg version="1.1" id="Capa_1" xmlns="http://www.w3.org/2000/svg" xmlns:xlink="http://www.w3.org/1999/xlink" x="0px" y="0px"
	 width="100px" height="100px" viewBox="0 0 100 100" enable-background="new 0 0 100 100" xml:space="preserve">
<g>
	<path fill="#1D1D1B" d="M98.5,61.667c0.009-0.134,0-0.257-0.013-0.377c0.003-0.041,0.013-0.081,0.013-0.123v-2
		c0-0.36-0.106-0.696-0.279-0.99c-0.202-0.475-0.587-0.884-1.19-1.105c-2.053-0.753-3.799-2.032-4.372-4.222
		c-0.585-2.234,1.447-3.955,3.181-4.939c0.896-0.108,1.698-0.74,1.659-1.91c-0.164-4.867-0.45-12.727-0.758-17.587
		c0.77-1.219,0.256-3.198-1.572-3.079c-0.494-0.138-1.026-0.111-1.476,0.081C66.041,27.077,34.167,23.897,6.5,23.833
		c-0.67-0.002-1.162,0.27-1.484,0.669C4.707,24.821,4.501,25.26,4.5,25.833C4.487,30.562,4.324,38.282,4,43
		c-0.027,0.399,0.054,0.728,0.197,1.003c0.125,0.395,0.375,0.767,0.793,1.057c4.557,3.17,5.193,8.706,0,11.546
		c-0.039,0.021-0.067,0.048-0.103,0.071c-0.715,0.228-1.274,0.832-1.22,1.823c0.311,5.719,0.355,12.448,0.667,18.167
		c0.02,0.365,0.124,0.672,0.277,0.934c0.16,0.836,0.787,1.567,1.889,1.566c28.67-0.02,61.333-0.886,90-1
		c0.216-0.001,0.408-0.038,0.588-0.091c0.98-0.019,1.878-0.65,1.745-1.909C98.36,71.669,98.204,66.182,98.5,61.667z M8.265,75.159
		c-0.229-4.845-0.312-10.695-0.548-15.54c6.784-4.273,6.078-12.41,0.319-17.216c0.253-3.847,0.381-10.697,0.427-14.552
		c26.726,0.2,57.634,3.118,84.342,1.613c0.252,4.071,0.482,11.142,0.636,15.218c-2.92,1.771-5.073,4.596-4.795,8.193
		c0.272,3.523,2.86,5.977,5.854,7.428v0.863c0,0.105,0.016,0.207,0.032,0.308c-0.01,0.065-0.027,0.124-0.032,0.192
		c-0.252,3.85-0.161,8.68,0.16,12.513C67.195,74.318,35.733,75.108,8.265,75.159z"/>
	<path fill="#1D1D1B" d="M87.5,61.5c0.044-0.669-0.196-1.159-0.574-1.479c-0.116-0.148-0.248-0.289-0.416-0.414
		c-4.676-3.47-4.119-8.973,0.071-12.526c0.06-0.051,0.101-0.105,0.152-0.157c0.033-0.03,0.061-0.064,0.093-0.096
		c0.026-0.03,0.057-0.059,0.081-0.09c0.301-0.344,0.487-0.773,0.427-1.238c-0.32-2.492-0.499-7.994-0.667-10.5
		c-0.011-0.161-0.037-0.313-0.076-0.454c0.009-1.006-0.629-1.971-1.924-1.88C63.36,34.178,37.845,31.333,16.5,31.333
		c-1.455,0-2.089,1.273-1.902,2.383c-0.057,0.188-0.098,0.389-0.098,0.617c0,2.058-0.008,7.114-0.167,9.167
		c-0.007,0.095,0.002,0.18,0.006,0.268c-0.054,0.387,0.016,0.809,0.267,1.242c2.516,4.322,1.799,8.955-1.354,12.743
		c-0.021,0.025-0.033,0.052-0.053,0.078c-0.414,0.321-0.7,0.818-0.7,1.503c0,3.057-0.01,7.113-0.167,10.167
		c-0.012,0.241,0.021,0.452,0.074,0.648c0.039,0.966,0.676,1.887,1.926,1.852c22.441-0.617,48.898,0.28,71.333-0.667
		c0.527-0.022,0.94-0.213,1.251-0.493c0.72-0.398,1.236-1.178,1.011-2.205C87.485,66.607,87.364,63.571,87.5,61.5z M16.382,67.959
		c0.083-2.302,0.112-5.605,0.114-7.909c3.84-4.934,4.848-10.929,1.837-16.548c0-0.001,0-0.002,0-0.003
		c0.133-1.715,0.159-6.432,0.164-8.151c20.066,0.16,44.271,2.614,64.302,1.427c0.123,1.651,0.26,6.3,0.453,7.944
		c-5.484,5.104-5.211,12.672,0.22,17.502c-0.047,1.399,0.027,3.793,0.209,5.176C62.589,68.19,37.48,67.463,16.382,67.959z"/>
	<path fill="#1D1D1B" d="M51,43.333v18c0,2.579,4,2.579,4,0v-18C55,40.754,51,40.754,51,43.333z"/>
</g>
</svg>
