<?xml version="1.0" encoding="iso-8859-1"?>
<!-- Generator: Adobe Illustrator 17.0.2, SVG Export Plug-In . SVG Version: 6.00 Build 0)  -->
<!DOCTYPE svg PUBLIC "-//W3C//DTD SVG 1.1//EN" "http://www.w3.org/Graphics/SVG/1.1/DTD/svg11.dtd">
<svg version="1.1" id="Capa_1" xmlns="http://www.w3.org/2000/svg" xmlns:xlink="http://www.w3.org/1999/xlink" x="0px" y="0px"
	 width="100px" height="100px" viewBox="0 0 100 100" style="enable-background:new 0 0 100 100;" xml:space="preserve">
<g>
	<path style="fill:#1D1D1B;" d="M75.541,12.677C58.738,1.688,35.709,7.481,22.944,21.896c-4.722,5.333-7.316,11.31-8.506,17.562
		c-0.692-0.691-1.396-1.374-2.126-2.037c-4.696-4.269-12.593,2.104-7.847,6.418c2.472,2.247,4.719,4.668,6.846,7.184
		c0.655,0.775,1.303,1.556,1.934,2.35c0.582,0.731,1.165,1.461,1.729,2.206c0.825,1.09,2.201,1.58,3.613,1.59
		c1.755,0.358,3.635-0.194,4.825-2.185c0.246-0.411,0.51-0.804,0.769-1.203c1.177-1.817,2.483-3.506,3.923-5.077
		c2.383-2.6,5.12-4.889,8.263-6.898c2.347-1.5,2.219-5.027,0.547-6.804c-2.007-2.132-4.955-1.885-7.301-0.386
		c-1.514,0.967-2.936,2.039-4.312,3.159c0.293-0.978,0.635-1.951,1.033-2.919c3.743-9.103,13.963-15.93,23.937-17.974
		C66.98,13.46,80.319,27.21,84.329,40.833c4.645,15.781-2.318,37.607-21.793,41.121c-11.782,2.125-23.128-3.364-30.635-11.74
		c-0.024,0.013-0.05,0.024-0.074,0.038c-0.055-0.122-0.134-0.229-0.198-0.345c-0.29-0.517-0.67-0.973-1.131-1.352
		c-1.161-0.956-2.766-1.435-4.396-1.129c-2.774,0.521-4.665,3.104-4.155,5.679l0.094,0.472c0.111,0.564,0.346,1.077,0.648,1.544
		c0.136,0.209,0.291,0.402,0.458,0.587c0.137,0.151,0.274,0.299,0.43,0.433c7.592,8.405,18.448,14.207,30.521,15.59
		c22.164,2.54,38.07-14.942,41.494-33.838C98.67,40.905,90.465,22.437,75.541,12.677z"/>
	<path style="fill:#1D1D1B;" d="M50.964,56.83c5.875,2.884,11.596,6.024,17.158,9.446c5.439,3.347,10.427-5.039,5.02-8.366
		c-4.741-2.917-9.604-5.618-14.574-8.141c0.369-7.045,1.137-14.062,1.62-21.101c0.43-6.24-9.52-6.199-9.946,0
		c-0.533,7.755-1.437,15.482-1.74,23.252c-0.006,0.151-0.001,0.295,0.005,0.438C48.224,54.047,48.878,55.806,50.964,56.83z"/>
</g>
</svg>
