<?xml version="1.0" encoding="iso-8859-1"?>
<!-- Generator: Adobe Illustrator 17.0.2, SVG Export Plug-In . SVG Version: 6.00 Build 0)  -->
<!DOCTYPE svg PUBLIC "-//W3C//DTD SVG 1.1//EN" "http://www.w3.org/Graphics/SVG/1.1/DTD/svg11.dtd">
<svg version="1.1" id="Capa_1" xmlns="http://www.w3.org/2000/svg" xmlns:xlink="http://www.w3.org/1999/xlink" x="0px" y="0px"
	 width="100px" height="100px" viewBox="0 0 100 100" style="enable-background:new 0 0 100 100;" xml:space="preserve">
<g>
	<path style="fill:#1D1D1B;" d="M97.213,37.936c-1.289-0.987-2.893-1.023-4.437-0.772c-0.093,0.015-0.183,0.039-0.271,0.065
		c-0.685-0.487-1.358-0.992-2.039-1.485c0.138-1.437,0.276-2.874,0.414-4.31c0.023-0.241,0.007-0.478-0.041-0.702
		c0-0.421-0.155-0.852-0.536-1.222c-2.148-2.091-4.392-4.076-6.65-6.046c-0.085-0.225-0.221-0.444-0.423-0.645L70.294,9.96
		c-0.353-0.689-1.104-1.186-2.055-0.906c-4.638,1.364-8.186,4.49-10.48,8.704c-0.015,0.027-0.021,0.053-0.034,0.081
		c-0.396,0.52-0.534,1.241-0.112,1.957c1.587,2.693,3.251,5.497,5.083,8.162c-4.847,3.99-9.904,7.758-15.005,11.481
		c0.906,0.769,1.739,1.574,2.54,2.395c4.925-3.6,9.804-7.245,14.483-11.099c0.931,1.196,1.906,2.342,2.943,3.405
		c-3.999,4.322-7.941,8.72-11.908,13.099c0.866,0.702,1.8,1.368,2.853,1.97c3.862-4.265,7.703-8.546,11.598-12.755
		c3.451,2.804,7.513,4.68,12.518,4.818c0.688,0.938,1.403,1.857,2.089,2.796c-0.422,0.787-0.716,1.638-0.647,2.542
		c0.098,1.298,0.731,2.305,1.668,3.175c0.196,0.182,0.4,0.301,0.606,0.373c0.378,0.245,0.856,0.355,1.399,0.218
		c3.215-0.808,6.209-2.671,8.451-5.104C97.967,43.445,99.841,39.949,97.213,37.936z M87.777,46.8
		c-0.318-0.569-0.016-1.119,0.444-1.779c0.535-0.769,0.595-1.762-0.169-2.426c-0.038-0.033-0.083-0.057-0.125-0.087
		c-0.889-1.243-1.858-2.426-2.74-3.675c-0.482-0.682-1.458-0.88-2.418-0.973c-0.602-0.058-1.198-0.074-1.66-0.142
		c-1.574-0.23-3.149-0.536-4.616-1.174c-3.508-1.525-6.603-4.505-8.906-7.5c-1.249-1.623-2.367-3.35-3.471-5.074
		c-0.543-0.848-1.076-1.703-1.594-2.567c-0.17-0.284-1.581-2.279-1.452-2.5c1.675-2.89,4.056-5.004,7.125-6.192
		c0.703,0.698,1.405,1.397,2.108,2.095c2.691,2.676,5.374,5.36,8.087,8.013c1.542,1.508,3.094,3.007,4.649,4.502
		c0.805,0.774,1.612,1.547,2.418,2.32c0.223,0.214,2.022,1.626,1.976,1.892l-0.425,4.424c-0.011,0.113,0.011,0.219,0.016,0.33
		c-0.133,0.74,0.28,1.413,0.927,1.839c1.246,0.821,2.382,1.798,3.63,2.62c1.087,0.716,2.258-0.787,3.4-0.129
		C95.186,42.452,88.199,47.555,87.777,46.8z"/>
	<path style="fill:#1D1D1B;" d="M41.224,65.785c-0.431-0.577-0.96-1.112-1.518-1.538c-1.114,1.107-2.23,2.212-3.365,3.296
		c-0.005-0.009-0.007-0.019-0.011-0.028c-1.866-3.536-4.349-6.603-7.294-9.266c-0.093-0.119-0.178-0.241-0.271-0.359
		c-0.008-0.01-0.016-0.016-0.024-0.026c1.455-1.167,2.926-2.316,4.408-3.452c-0.648-0.936-1.273-1.899-1.867-2.897
		c-8.682,6.63-16.983,13.684-24.051,22.081c-0.141,0.168-0.233,0.342-0.301,0.516c-0.225,0.366-0.276,0.836-0.011,1.374
		c2.287,4.637,5.796,8.457,10.535,10.64c0.336,0.155,0.655,0.19,0.949,0.151c0.367,0.054,0.767-0.02,1.163-0.298
		c8.039-5.635,15.33-12.11,22.255-18.982c-0.036-0.056-0.075-0.112-0.104-0.17C41.549,66.482,41.389,66.132,41.224,65.785z
		 M18.265,82.675c-3.3-1.705-5.947-4.372-7.724-7.634c4.694-5.454,9.917-10.335,15.419-14.913c0.231,0.198,0.436,0.414,0.661,0.617
		c2.393,3.112,4.62,6.349,6.391,9.862c0.004,0.009,0.01,0.015,0.015,0.023C28.345,74.913,23.469,78.979,18.265,82.675z"/>
	<path style="fill:#1D1D1B;" d="M71.771,65.862c-4.6-4.718-9.667-9.026-14.623-13.434c-0.272-0.242-0.543-0.484-0.813-0.726
		c-0.855-0.765-1.7-1.538-2.543-2.313c-2.046-1.883-4.043-3.809-5.958-5.809c-0.784-0.819-1.568-1.637-2.319-2.485
		c-0.014-0.016-0.03-0.026-0.044-0.041c-0.083-0.087-0.17-0.161-0.261-0.224c-1.16-1.156-2.275-2.308-3.312-3.422
		c-0.173-0.186-0.344-0.389-0.516-0.578c-1.673-1.827-3.334-3.752-4.94-5.757c-0.89-1.11-1.784-2.268-2.659-3.438
		c-0.073-0.098-0.244-0.306-0.467-0.576c-0.311-0.376-1.14-1.38-1.537-1.95c1.441-5.048,0.368-9.664-2.983-12.736
		c-3.511-3.219-8.548-4.638-14.215-4.042c-1.088,0.114-1.892,0.886-2.047,1.965c-0.146,1.015,0.319,2.061,1.12,2.646
		c0.299,0.406,0.718,0.711,1.219,0.881c2.32,0.79,4.752,1.871,5.192,3.896c0.316,1.452-1.34,2.89-1.855,3.295
		c-1.302,1.025-3.234,1.45-4.834,1.045c-2.525-0.634-3.937-3.308-4.593-5.003c-0.042-0.571-0.272-1.106-0.67-1.539
		c-0.501-0.545-1.206-0.857-1.932-0.857c-1.082,0-1.977,0.693-2.28,1.767l-0.03,0.114c-0.022,0.072-0.038,0.134-0.04,0.154
		C2.24,22.588,3.175,27.948,6.465,31.785c2.042,2.382,4.862,3.641,8.155,3.641c1.595,0,3.288-0.301,4.951-0.875
		c2.456,2.798,5.051,5.47,7.569,8.061l1.683,1.735c0.502,0.519,0.986,1.049,1.463,1.586c1.104,1.241,2.164,2.531,3.253,3.868
		c0.09,0.111,0.179,0.218,0.27,0.33l1.135,1.391c0.103,0.125,0.222,0.229,0.35,0.321c0.161,0.196,0.32,0.394,0.48,0.591
		c2.33,2.884,4.543,5.915,6.737,8.977c0.679,0.947,1.356,1.897,2.034,2.847c1.08,1.512,2.164,3.022,3.262,4.517
		c7.006,9.535,14.629,18.434,25.994,23.033c0.474,0.192,0.914,0.139,1.275-0.049c0.235-0.029,0.479-0.129,0.717-0.34
		c3.913-3.462,7.552-8.722,4.898-14.065C78.527,72.997,75.143,69.32,71.771,65.862z M29.292,40.521
		c-2.724-2.804-5.541-5.702-8.138-8.723l-0.71-0.825l-1.004,0.419c-1.622,0.677-3.289,1.034-4.819,1.034
		c-2.425,0-4.402-0.872-5.878-2.594c-2.962-3.455-2.916-7.789-2.372-10.777c1.445,3.171,3.642,5.252,6.274,5.913
		c2.482,0.623,5.408-0.012,7.422-1.599c2.332-1.837,3.399-4.13,2.93-6.289c-0.773-3.552-4.413-5.125-6.512-5.874
		c4.234-0.133,7.702,1.011,10.284,3.378c3.66,3.355,2.605,8.236,1.981,10.181c-0.31,0.967,0.151,1.66,2.254,4.206
		c0.18,0.218,0.319,0.384,0.377,0.462c0.895,1.196,1.81,2.379,2.72,3.516c1.44,1.799,2.927,3.521,4.424,5.186
		c0.393,0.437,0.782,0.891,1.176,1.316c0.955,1.027,1.972,2.084,3.03,3.146c-0.142,0.25-0.348,0.551-0.592,0.879
		c-1.352,1.817-4.028,4.577-5.374,5.469c-0.074-0.083-0.151-0.158-0.232-0.22l-0.397-0.486c-0.062-0.076-0.125-0.153-0.187-0.229
		c-0.92-1.131-1.864-2.277-2.842-3.406c-0.689-0.795-1.392-1.583-2.126-2.343L29.292,40.521z M74.296,88.757
		c-10.073-4.346-17.078-12.263-23.448-20.845c-1.422-1.916-2.813-3.864-4.199-5.814c-0.676-0.951-1.351-1.902-2.028-2.85
		c-1.951-2.733-3.92-5.434-5.979-8.019c1.435-0.995,3.075-2.614,4.426-4.181c0.705-0.818,1.321-1.612,1.794-2.297
		c0.186,0.196,0.363,0.399,0.551,0.594c2.061,2.133,4.235,4.167,6.448,6.164c0.85,0.767,1.703,1.531,2.561,2.29
		c1.003,0.887,2.007,1.773,3.01,2.657c2.202,1.94,4.392,3.887,6.503,5.894c3.871,3.681,7.842,7.422,11.092,11.68
		C79.046,79.298,79.867,83.707,74.296,88.757z"/>
</g>
</svg>
