<?xml version="1.0" encoding="iso-8859-1"?>
<!-- Generator: Adobe Illustrator 17.0.2, SVG Export Plug-In . SVG Version: 6.00 Build 0)  -->
<!DOCTYPE svg PUBLIC "-//W3C//DTD SVG 1.1//EN" "http://www.w3.org/Graphics/SVG/1.1/DTD/svg11.dtd">
<svg version="1.1" id="Capa_1" xmlns="http://www.w3.org/2000/svg" xmlns:xlink="http://www.w3.org/1999/xlink" x="0px" y="0px"
	 width="100px" height="100px" viewBox="0 0 100 100" style="enable-background:new 0 0 100 100;" xml:space="preserve">
<g>
	<path d="M23.202,29.035c0.747,0.515,1.57,0.833,2.427,1.018c-1.024,19.046-3.039,38.931,3.926,57.113
		c0.335,0.874,0.95,1.421,1.655,1.701c0.242,0.339,0.587,0.64,1.084,0.861c12.448,5.529,25.678,5.286,38.442,0.858
		c1.668-0.579,2.176-2.162,1.872-3.511c2.424-18.448,4.724-37.442,2.821-56.046c1.506-0.332,2.914-0.967,3.959-2.13
		c2.067-2.3,1.669-5.259,0.652-7.898c0.002-0.734-0.344-1.436-1.129-1.918c-0.312-0.241-0.682-0.409-1.076-0.498
		c-5.717-2.443-11.802-3.72-18.027-4.313c0.11-0.556,0.062-1.165-0.208-1.79C57.657,8,53.787,2.716,48.221,3.436
		c-5.358,0.693-7.955,5.922-9.04,10.717c-3.579,0.188-7.123,0.424-10.584,0.624c-0.024,0.001-0.045,0.009-0.069,0.011
		c-0.164-0.021-0.331-0.031-0.502-0.011c-3.71,0.436-6.833,2.21-8.457,5.694c-0.216,0.463-0.323,0.952-0.334,1.431
		c-0.144,0.472-0.154,1.015,0.046,1.624C20.033,25.808,21.211,27.661,23.202,29.035z M67.068,85.785
		c-10.556,3.251-21.57,3.599-31.894-0.986c-0.157-0.07-0.312-0.112-0.466-0.155c-6.34-17.453-4.353-36.433-3.368-54.651
		c12.603-0.893,25.298-1.088,37.85,0.494c0.149,0.156,0.319,0.292,0.509,0.411C71.581,49.108,69.433,67.704,67.068,85.785z
		 M48.713,9.08c2.488-0.322,4.232,2.563,5.306,4.829c-2.971-0.103-5.956-0.086-8.932,0C45.691,11.72,46.748,9.334,48.713,9.08z
		 M26.055,21.202c-0.351,0.304,0.946-0.482,0.534-0.311c0.288-0.12,0.591-0.201,0.892-0.284c-0.069,0.019,0.943-0.169,0.545-0.123
		c0.035-0.004,0.068-0.014,0.103-0.019c0.151,0.014,0.301,0.029,0.467,0.019c14.875-0.862,32.182-2.957,46.309,3.011
		c0.045,0.133,0.103,0.261,0.144,0.396c0.056,0.196,0.103,0.395,0.143,0.595c0.003,0.044,0.006,0.091,0.011,0.16
		c0.004,0.103-0.004,0.207-0.008,0.31c-0.002,0.009-0.007,0.029-0.01,0.039c-0.06-0.01-0.474,0.288-0.305,0.256
		c-0.314,0.116-0.64,0.198-0.965,0.271c-0.155,0.035-0.361,0.06-0.593,0.078c-0.303-0.219-0.679-0.383-1.161-0.449
		c-14.48-1.988-29.02-1.812-43.565-0.673c-0.262,0.021-0.499,0.078-0.723,0.15c-1.418-0.02-2.322-0.708-2.915-2.166
		C25.232,22.002,25.519,21.666,26.055,21.202z"/>
	<path d="M40.583,39.32c-0.034-3.679-5.741-3.682-5.708,0c0.084,9.194,1.144,18.284,2.283,27.396c0.45,3.602,6.163,3.646,5.708,0
		C41.726,57.603,40.667,48.514,40.583,39.32z"/>
	<path d="M52.569,38.749c-0.197-3.66-5.906-3.68-5.708,0c0.544,10.094,0.908,20.195,1.998,30.25c0.392,3.619,6.104,3.657,5.708,0
		C53.477,58.944,53.112,48.843,52.569,38.749z"/>
	<path d="M59.52,39.222c1.537,11.291,0.802,22.705,0.754,34.057c-0.015,3.681,5.692,3.68,5.708,0
		c0.05-11.903,0.653-23.74-0.958-35.575C64.529,34.072,59.03,35.625,59.52,39.222z"/>
</g>
</svg>
