<?xml version="1.0" encoding="iso-8859-1"?>
<!-- Generator: Adobe Illustrator 17.0.2, SVG Export Plug-In . SVG Version: 6.00 Build 0)  -->
<!DOCTYPE svg PUBLIC "-//W3C//DTD SVG 1.1//EN" "http://www.w3.org/Graphics/SVG/1.1/DTD/svg11.dtd">
<svg version="1.1" id="Capa_1" xmlns="http://www.w3.org/2000/svg" xmlns:xlink="http://www.w3.org/1999/xlink" x="0px" y="0px"
	 width="100px" height="100px" viewBox="0 0 100 100" style="enable-background:new 0 0 100 100;" xml:space="preserve">
<g>
	<path style="fill:#1D1D1B;" d="M21.811,88.123c0.146,0.435,0.377,0.77,0.652,1.031c0.279,0.407,0.702,0.741,1.299,0.921
		c15.904,4.789,34.47,6.598,50.035-0.246c0.288-0.127,0.509-0.289,0.695-0.467c0.786-0.132,1.464-0.665,1.651-1.727
		c1.774-10.092,2.937-20.261,3.697-30.464c2.097-0.691,4.11-1.627,5.976-2.843c11.608-7.562,3.925-19.435-4.443-25.692
		c-0.1-0.075-0.2-0.123-0.299-0.18c0.115-3.586,0.23-7.013-0.682-10.008c-0.897-2.946-2.79-5.476-6.656-7.333
		C67.3,8.022,58.884,8.042,51.882,7.655c-3.064-0.169-6.058-0.086-9.114,0.134C34.061,7.671,6.709,9.573,9.763,22.6
		C9.921,44.961,14.752,66.976,21.811,88.123z M80.914,34.825c2.942,2.449,5.731,5.542,5.815,9.425
		c0.075,3.519-3.578,5.94-6.498,7.226C80.563,45.932,80.777,40.379,80.914,34.825z M75.421,50.07
		c-0.091,1.012-0.191,1.994-0.292,2.949c-6.864,1.264-14.206-0.449-20.004-4.264c0.217-0.368,0.415-0.739,0.568-1.114
		c0.847-2.063,0.287-4.446-1.17-6.065c-1.478-1.643-3.836-1.994-5.899-1.577c-2.832,0.573-5.014,2.97-6.515,5.276
		c-0.193,0.296-0.303,0.589-0.344,0.871c-0.099,0.169-0.186,0.353-0.244,0.571c-0.549,2.037-0.597,4.56,1.185,6.036
		c2.655,2.199,6.057,1.575,8.782-0.224c6.426,4.667,14.994,6.857,23.026,5.831c-1.206,9.27-3.353,18.43-5.61,27.485
		c-0.067,0.268-0.079,0.517-0.068,0.757c-13.413,4.883-29.259,2.97-42.688-0.929c-6.057-18.381-10.414-37.36-11.331-56.694
		c9.383,5.337,22.863,4.734,32.957,3.961c7.401-0.567,16.644-1.593,24.232-4.895c2.853,3.955,3.722,9.258,3.766,14.604
		C75.675,45.124,75.559,47.598,75.421,50.07z M45.567,48.797c0.009-0.216,0.077-0.47,0.196-0.909
		c0.025-0.092,0.03-0.177,0.044-0.266c0.033-0.044,0.07-0.078,0.101-0.126c0.539-0.827,1.143-1.553,1.877-2.215
		c0.195-0.176,0.487-0.378,0.878-0.609c0.132-0.078,0.271-0.142,0.409-0.208c-0.012,0.016,0.319-0.116,0.361-0.129
		c0.119-0.038,0.242-0.061,0.364-0.087c0.084-0.013,0.224-0.036,0.279-0.039c0.122-0.006,0.244,0.002,0.365,0.008
		c0.064,0.007,0.132,0.015,0.173,0.024c0.088,0.02,0.172,0.051,0.258,0.079c0.065,0.027,0.148,0.062,0.192,0.086
		c0.036,0.02,0.099,0.062,0.154,0.1c0.065,0.06,0.131,0.118,0.193,0.181c0.001,0.001,0.001,0.002,0.002,0.003
		c0.053,0.082,0.107,0.163,0.155,0.247c0.006,0.011,0.008,0.012,0.013,0.021c0.025,0.072,0.04,0.146,0.058,0.22
		c-0.029-0.059,0.006,0.273,0.018,0.519c-0.026,0.023-0.104,0.383-0.162,0.615c-0.038,0.073-0.134,0.292-0.155,0.33
		c-0.099,0.183-0.216,0.356-0.333,0.529c-0.028,0.042-0.041,0.062-0.059,0.09c-0.023,0.019-0.065,0.063-0.161,0.172
		c-0.161,0.186-0.338,0.357-0.515,0.528c-0.58,0.562-1.26,1.005-1.965,1.399c-0.1,0.01-0.197,0.014-0.302,0.038
		c-0.689,0.156-0.911,0.201-1.646,0.204c-0.112-0.001-0.223-0.009-0.334-0.017c-0.027-0.005-0.049-0.01-0.089-0.017
		c-0.047-0.011-0.093-0.027-0.14-0.04c-0.018-0.01-0.108-0.046-0.189-0.082c-0.008-0.03-0.017-0.06-0.024-0.09
		C45.639,49.514,45.563,48.918,45.567,48.797z M23.645,27.173c0.568-1.005,1.727-2.081,2.686-2.429
		c0.399-0.145,0.749-0.369,1.04-0.643c0.098-0.007,0.192-0.005,0.294-0.024c12.291-2.214,24.542-1.81,36.47,1.581
		c-5.951,1.556-12.382,2.088-17.541,2.483C39.734,28.667,31.085,29.084,23.645,27.173z M42.667,12.677
		c0.027-0.001,0.05,0.004,0.077,0.002c0.005,0,0.014-0.001,0.02-0.001c0.045,0.001,0.101,0,0.143,0.001
		c0.147,0.002,0.281-0.016,0.414-0.034c6.377-0.319,35.735-0.144,31.181,8.54c-1.212,0.85-2.544,1.579-3.945,2.224
		c-0.236-0.647-0.732-1.209-1.558-1.487c-13.897-4.673-28.283-5.256-42.663-2.667c-0.56,0.101-0.972,0.339-1.265,0.651
		c-0.023,0.007-0.046,0.007-0.069,0.015c-2.728,0.987-4.89,3.011-6.078,5.624c-1.248-0.564-2.436-1.219-3.537-1.992
		C10.17,13.739,36.67,12.618,42.667,12.677z"/>
</g>
</svg>
