<?xml version="1.0" encoding="utf-8"?>
<!-- Generator: Adobe Illustrator 17.0.2, SVG Export Plug-In . SVG Version: 6.00 Build 0)  -->
<!DOCTYPE svg PUBLIC "-//W3C//DTD SVG 1.1//EN" "http://www.w3.org/Graphics/SVG/1.1/DTD/svg11.dtd">
<svg version="1.1" id="Capa_1" xmlns="http://www.w3.org/2000/svg" xmlns:xlink="http://www.w3.org/1999/xlink" x="0px" y="0px"
	 width="100px" height="100px" viewBox="0 0 100 100" enable-background="new 0 0 100 100" xml:space="preserve">
<g>
	<path fill="#1D1D1B" d="M81.078,31.544c0.909-3.013,0.934-6.068-0.492-9.03c-1.358-2.82-4.296-4.494-7.224-5.451
		c-0.183-4.423-2.333-8.088-6.731-9.753c-4.129-1.563-8.726,0.088-12.174,2.675c-7.143-7.592-17.69-3.435-22.585,5.061
		c-9.674-1.836-16.872,6.31-15.312,15.708c-4.159,2.305-6.828,6.133-5.838,11.161c0.911,4.623,5.334,7.668,9.641,9.126
		c-0.423,3.467,0.34,6.991,3.366,9.204c3.081,2.253,7.044,2.238,10.633,1.327c0.164,2.025,0.324,4.05,0.461,6.074
		c-1.326-0.397-2.641-0.83-3.982-1.176c-1.044-0.27-1.867,0.139-2.366,0.803c-0.43,0.307-0.773,0.754-0.968,1.291
		c-0.698,1.919-1.167,3.91-1.865,5.829c-0.115,0.318-0.131,0.646-0.077,0.963c-0.062,0.593,0.121,1.222,0.677,1.772
		c2.701,2.674,5.631,5.083,8.739,7.267c-0.212,2.889-0.578,5.773-1.178,8.65c-0.612,2.934,3.882,4.182,4.496,1.24
		c2.419-11.591,1.496-23.192,0.55-34.893c-0.067-0.828-0.481-1.419-1.032-1.788c-0.401-0.955-1.343-1.616-2.619-1.16
		c-2.62,0.937-5.699,1.689-8.309,0.319c-2.415-1.268-2.213-4.298-1.647-6.544c0.096-0.383,0.099-0.734,0.036-1.053
		c-0.002-0.911-0.5-1.782-1.664-2.048c-3.328-0.761-6.892-2.402-8.21-5.807c-1.332-3.439,1.722-5.73,4.473-7.03
		c1.135-0.3,2.064-1.332,1.635-2.788c-2.138-7.249,2.829-13.743,10.475-11.628c1.017,0.656,2.398,0.613,3.046-0.797
		c2.937-6.398,11.195-12.68,16.718-5.137c0.413,1.539,2.438,2.658,3.901,1.179c4.835-4.887,13.533-5.215,13.04,3.481
		c-0.015,0.267,0.019,0.501,0.074,0.72c0.105,0.795,0.61,1.514,1.638,1.761c2.471,0.595,4.822,1.507,6.155,3.796
		c1.259,2.162,0.301,4.991-0.555,7.092c-0.392,0.961-0.104,1.727,0.478,2.214c0.193,0.253,0.46,0.479,0.827,0.653
		c6.209,2.943,10.033,8.703,8.315,15.659c-1.814,7.344-9.089,8.929-15.426,6.795c-1.007-0.927-2.708-1.087-3.518,0.469
		c-1.209,2.323-2.893,4.822-5.733,5.141c-2.709,0.304-4.881-1.855-6.459-3.748c-1.928-2.312-5.208,1.005-3.297,3.297
		c1.754,2.104,3.944,3.859,6.474,4.648c-0.902,8.843-1.716,17.678-1.562,26.578c0.052,3.004,4.715,3.009,4.663,0
		c-0.152-8.811,0.644-17.559,1.534-26.313c3.146-0.595,5.561-2.76,7.299-5.373c8.054,2.459,16.882-0.222,20.01-8.736
		C92.788,44.59,88.73,35.907,81.078,31.544z M35.206,78.797c-1.658-1.281-3.237-2.654-4.758-4.102
		c0.349-1.062,0.666-2.135,0.997-3.203c1.216,0.367,2.425,0.757,3.654,1.079C35.187,74.648,35.224,76.723,35.206,78.797z"/>
	<path fill="#1D1D1B" d="M41.647,19.757c-3.007,0-3.007,4.663,0,4.663S44.655,19.757,41.647,19.757z"/>
	<path fill="#1D1D1B" d="M66.362,31.414c3.007,0,3.007-4.663,0-4.663C63.354,26.751,63.354,31.414,66.362,31.414z"/>
	<path fill="#1D1D1B" d="M32.788,46.103c3.007,0,3.007-4.663,0-4.663S29.781,46.103,32.788,46.103z"/>
	<path fill="#1D1D1B" d="M51.44,35.844c-3.007,0-3.007,4.663,0,4.663S54.447,35.844,51.44,35.844z"/>
	<path fill="#1D1D1B" d="M73.123,46.103c-3.007,0-3.007,4.663,0,4.663S76.13,46.103,73.123,46.103z"/>
	<path fill="#1D1D1B" d="M57.968,55.196c3.007,0,3.007-4.663,0-4.663C54.961,50.533,54.961,55.196,57.968,55.196z"/>
	<path fill="#1D1D1B" d="M29.99,26.984c-3.007,0-3.007,4.663,0,4.663S32.997,26.984,29.99,26.984z"/>
</g>
</svg>
