<?xml version="1.0" encoding="iso-8859-1"?>
<!-- Generator: Adobe Illustrator 17.0.2, SVG Export Plug-In . SVG Version: 6.00 Build 0)  -->
<!DOCTYPE svg PUBLIC "-//W3C//DTD SVG 1.1//EN" "http://www.w3.org/Graphics/SVG/1.1/DTD/svg11.dtd">
<svg version="1.1" id="Capa_1" xmlns="http://www.w3.org/2000/svg" xmlns:xlink="http://www.w3.org/1999/xlink" x="0px" y="0px"
	 width="100px" height="100px" viewBox="0 0 100 100" style="enable-background:new 0 0 100 100;" xml:space="preserve">
<g>
	<path style="fill:#1D1D1B;" d="M92.706,20.889c-0.595-0.04-1.2,0.146-1.759,0.546c-12.108,8.679-27.429,16.729-42.243,24.513
		C33.234,54.076,17.238,62.48,4.693,71.688c-0.278,0.203-0.515,0.444-0.718,0.733c-1.091,0.663-1.63,2.085-1.287,3.437
		C3.023,77.18,4.088,78,5.506,78c3.648-0.041,7.562-0.059,11.659-0.059c15.852,0,34.707,0.271,51.343,0.509
		c8.159,0.116,15.909,0.228,22.736,0.3h0.039c1.666,0,2.524-1.114,2.784-2.189c0.285-0.458,0.431-0.981,0.433-1.56
		c0.028-9.82,0.466-18.938,0.888-27.754c0.358-7.481,0.729-15.216,0.862-23.489c0.014-0.818-0.254-1.528-0.772-2.055
		C94.811,21.025,93.733,20.709,92.706,20.889z M14.511,71.95c10.83-7.67,24.664-14.678,38.06-21.463
		c13.199-6.686,26.837-13.594,37.546-21.117c-0.177,6.414-0.463,12.404-0.74,18.206c-0.397,8.317-0.772,16.181-0.853,25.139
		c-5.38-0.064-11.494-0.148-17.972-0.238c-17.985-0.248-38.371-0.529-53.912-0.529C15.918,71.948,15.209,71.949,14.511,71.95z"/>
</g>
</svg>
