<?xml version="1.0" encoding="iso-8859-1"?>
<!-- Generator: Adobe Illustrator 17.0.2, SVG Export Plug-In . SVG Version: 6.00 Build 0)  -->
<!DOCTYPE svg PUBLIC "-//W3C//DTD SVG 1.1//EN" "http://www.w3.org/Graphics/SVG/1.1/DTD/svg11.dtd">
<svg version="1.1" id="Capa_1" xmlns="http://www.w3.org/2000/svg" xmlns:xlink="http://www.w3.org/1999/xlink" x="0px" y="0px"
	 width="100px" height="100px" viewBox="0 0 100 100" style="enable-background:new 0 0 100 100;" xml:space="preserve">
<g>
	<path style="fill:#1E1E1C;" d="M95.572,44.014c-3.263-3.249-6.643-6.371-10.115-9.393c-0.433-0.376-0.901-0.564-1.365-0.611
		c-0.246-0.07-0.513-0.113-0.819-0.095c-3.809,0.223-7.609,0.391-11.421,0.269c-0.048-1.695-0.1-3.391-0.14-5.086
		c-0.041-1.746-1.586-2.511-2.915-2.291c-0.235-0.072-0.488-0.121-0.777-0.117C48,26.994,27.98,26.684,7.97,26.049
		c-0.97-0.031-1.636,0.418-2,1.052C5.345,27.46,4.921,28.124,5,29.1c1.106,13.715,0.282,27.448,0.24,41.183
		c-0.001,0.339,0.064,0.634,0.166,0.899c0.141,0.651,0.515,1.257,1.112,1.628c0.388,0.465,0.977,0.775,1.772,0.764
		c2.092-0.028,4.182-0.031,6.272-0.031c0.585,0.033,1.171,0.067,1.756,0.112c0.151,0.012,0.29,0.004,0.426-0.009
		c-2.083,2.434-3.114,5.548-1.802,8.933c2.325,5.992,10.854,7.667,16.315,5.484c4.704-1.88,7.493-6.615,6.547-11.618
		c-0.183-0.969-0.53-1.812-0.981-2.562c10.771,0.272,21.541,0.613,32.315,0.649c0.199,0.051,0.41,0.086,0.646,0.086h1.266
		c-2.09,3.081-2.937,7.326-1.291,10.581c2.596,5.134,10.917,6.04,15.194,3.107c4.133-2.834,5.604-7.406,4.536-11.32
		c-0.226-0.827-0.572-1.622-1.024-2.368h5.205C95.086,75.13,97,74.409,97,72.451V47.162c0-0.764-0.293-1.337-0.732-1.725
		C96.225,44.951,96.018,44.458,95.572,44.014z M30.272,83.229c-2.896,1.742-8.378,1.194-10.44-1.621
		c-2.31-3.151,1.405-6.245,4.224-7.471c0.145,0.01,0.291,0.016,0.452-0.001c2.765-0.279,7.178-0.363,8.433,2.822
		C33.919,79.443,32.386,81.958,30.272,83.229z M14.452,68.727c-1.459-0.081-2.919-0.146-4.379-0.22
		c0.095-12.534,0.72-25.066-0.139-37.583c19.004,0.582,38.015,0.863,57.026,0.596c0.327,12.731,0.832,25.456,1.152,38.187
		C50.223,69.617,32.344,68.722,14.452,68.727z M79.722,85.213c-0.024,0.001-0.046-0.005-0.07-0.004
		c-2.588,0.119-4.622-0.737-6.106-2.811c-0.575-3.622,1.113-6.199,4.249-7.555c2.91-0.455,6.4,0.143,7.393,3.329
		C86.288,81.71,82.56,84.203,79.722,85.213z M92.184,69.801H72.933c-0.258-10.267-0.64-20.53-0.95-30.795
		c3.631,0.109,7.252-0.042,10.879-0.251c3.186,2.798,6.3,5.673,9.305,8.665c0.006,0.006,0.012,0.009,0.018,0.014V69.801z"/>
	<path style="fill:#1E1E1C;" d="M88.853,47.778c-2.142-1.314-4.131-3.058-6.079-5.331c-0.044-0.051-0.09-0.094-0.125-0.119
		c-0.357-0.427-0.883-0.662-1.481-0.662h-4.5c-0.167,0-0.329,0.021-0.503,0.065l-0.047-0.001c-0.976,0-2.017,0.652-2.115,1.896
		c-0.312,3.897-0.312,7.849,0,11.747c0.01,0.12,0.029,0.232,0.057,0.341c0.049,0.939,0.714,1.897,1.919,1.952l10.541,0.479
		l0.549,0.023c0.178,0,0.353-0.024,0.533-0.074c0.866-0.081,1.813-0.699,1.898-1.893c0.077-1.087,0.122-2.176,0.167-3.265
		c0.045-1.079,0.089-2.158,0.166-3.235c0.022-0.326-0.026-0.631-0.129-0.864C89.562,48.4,89.268,48.034,88.853,47.778z
		 M85.782,50.524c-0.054,0.903-0.096,1.808-0.138,2.712l-0.041,0.866l-7.698-0.351c-0.156-2.668-0.165-5.383-0.024-8.085h2.415
		C81.978,47.557,83.82,49.189,85.782,50.524z M87.067,57.669l-0.001-0.011l0.001,0V57.669z"/>
	<path style="fill:#1E1E1C;" d="M55.91,40.852c-1.654-1.045-3.402-1.83-4.881-2.296c-5.781-1.824-12.16-1.088-18.097-0.672
		c-5.932,0.415-14.975,1.968-17.365,8.445c-2.02,5.473,3.421,10.668,7.884,12.5c9.605,3.942,32.31,6.085,37.652-5.934
		C62.943,48.756,59.457,43.094,55.91,40.852z M55.437,51.164c-4.157,4.673-12.944,5.31-18.705,5.182
		c-4.067-0.09-10.891-0.837-14.021-3.668c-1.685-1.523-1.875-4.17-0.463-6.087c3.908-5.309,12.857-5.046,18.639-4.419
		C44.037,42.514,60.865,45.061,55.437,51.164z"/>
</g>
</svg>
