<?xml version="1.0" encoding="utf-8"?>
<!-- Generator: Adobe Illustrator 17.0.2, SVG Export Plug-In . SVG Version: 6.00 Build 0)  -->
<!DOCTYPE svg PUBLIC "-//W3C//DTD SVG 1.1//EN" "http://www.w3.org/Graphics/SVG/1.1/DTD/svg11.dtd">
<svg version="1.1" id="Capa_1" xmlns="http://www.w3.org/2000/svg" xmlns:xlink="http://www.w3.org/1999/xlink" x="0px" y="0px"
	 width="100px" height="100px" viewBox="0 0 100 100" enable-background="new 0 0 100 100" xml:space="preserve">
<g>
	<path fill="#1D1D1B" d="M84.29,11.788c-0.125-0.104-0.26-0.198-0.402-0.279c-1.114-0.735-2.539-0.587-3.457,0.331
		c-0.589,0.509-0.924,1.228-0.947,2.036c-0.246,8.454-5.546,15.352-16.679,21.706c-3.885,1.792-7.847,3.813-11.799,6.02
		c-0.063-0.128-0.126-0.256-0.188-0.385c-0.466-0.966-1.36-1.542-2.393-1.542c-1.001,0-2.002,0.564-2.551,1.437
		c-0.531,0.846-0.584,1.853-0.146,2.762c0.097,0.202,0.196,0.403,0.296,0.604c-0.846,0.504-1.688,1.014-2.522,1.525l-0.292-0.462
		c-0.536-0.849-1.408-1.335-2.394-1.335c-1.091,0-2.129,0.604-2.644,1.537c-0.475,0.86-0.432,1.891,0.114,2.755l0.358,0.568
		c-1.033,0.666-2.008,1.301-2.94,1.918c-0.079-0.105-0.158-0.21-0.236-0.315c-0.562-0.759-1.424-1.195-2.364-1.195
		c-1.14,0-2.229,0.645-2.713,1.605c-0.441,0.876-0.336,1.896,0.279,2.728c0.096,0.129,0.191,0.258,0.288,0.386
		c-6.768,4.664-13.386,9.563-20.122,14.587H5.431c-0.83,0-1.562,0.313-2.087,0.89c-1.127,0.85-1.512,2.273-0.932,3.548
		c1.077,2.371,2.582,4.453,4.473,6.191c0.536,0.681,1.417,1.096,2.357,1.096c1.265,0,2.324-0.721,2.764-1.883
		c0.663-1.754,1.631-3.476,2.879-5.119c0.234-0.31,0.397-0.648,0.485-0.999c0.487-0.363,0.974-0.726,1.462-1.088
		c2.403,3.43,6.229,5.238,11.107,5.238c6.516,0,13.291-3.097,16.427-4.741c0.09,0.121,0.179,0.243,0.267,0.366
		c0.559,0.777,1.423,1.223,2.373,1.223c1.126,0,2.211-0.64,2.699-1.591c0.448-0.873,0.355-1.896-0.248-2.737
		c-0.032-0.045-0.065-0.09-0.098-0.135c0.645-0.392,1.316-0.804,2.021-1.244c0.017,0.021,0.033,0.042,0.05,0.063
		c0.569,0.724,1.425,1.14,2.348,1.14c1.165,0,2.268-0.656,2.741-1.632c0.421-0.865,0.305-1.858-0.309-2.67
		c0.669-0.439,1.334-0.881,1.993-1.324c0.383,0.464,0.77,0.924,1.162,1.38c0.54,0.628,1.265,0.974,2.042,0.974
		c1.088,0,2.143-0.705,2.625-1.754c0.473-1.031,0.306-2.209-0.438-3.073c-0.219-0.255-0.436-0.512-0.65-0.77
		c7.595-5.401,15.238-12.43,12.314-20.323c-0.054-0.396-0.193-0.774-0.417-1.126c-0.405-0.637-0.861-1.209-1.366-1.714
		c6.293-2.123,12.837-2.079,19.738,0.106c0.301,0.095,0.604,0.143,0.901,0.143c1.379,0,2.521-1.049,2.716-2.464
		c0.061-0.244,0.089-0.481,0.086-0.72C96.811,25.284,92.209,17.182,84.29,11.788z M33.574,68.619
		c-2.415,0.241-4.912,0.491-7.483,1.353c-0.107,0.035-0.212,0.076-0.315,0.125c-1.834,0.217-3.291-0.496-4.327-2.1
		c3.719-2.736,8.232-6.011,12.955-9.259c0.67,0.875,1.341,1.749,2.012,2.623c1.486,1.936,2.972,3.871,4.44,5.818
		C38.531,68.122,36.11,68.365,33.574,68.619z M45.914,64.385c-1.548-2.056-3.115-4.099-4.684-6.142
		c-0.691-0.901-1.384-1.803-2.074-2.706c0.846-0.557,1.693-1.108,2.545-1.656c1.843,2.878,3.946,6.085,6.228,9.279
		C47.262,63.57,46.591,63.979,45.914,64.385z M52.79,60.109c-2.266-3.17-4.378-6.394-6.232-9.291
		c0.704-0.432,1.419-0.864,2.139-1.293c1.833,3.243,3.846,6.372,6.007,9.334C54.1,59.26,53.464,59.675,52.79,60.109z M64.29,51.56
		c-1.453,1.335-3.062,2.658-4.894,4.023c-2.054-2.814-3.976-5.81-5.733-8.934c3.699-2.071,7.43-3.988,11.111-5.709
		c0.214-0.064,0.411-0.148,0.602-0.255l0.68-0.343c0.235-0.111,0.47-0.222,0.694-0.323c0.179-0.024,0.352-0.037,0.517-0.037
		c0.632,0,1.562,0.147,2.458,1.381c0.03,0.084,0.064,0.169,0.104,0.254C71.407,45.021,67.152,48.93,64.29,51.56z M82.997,29.718
		c-1.337,0-2.675,0.076-4.005,0.228c2.739-3.295,4.588-6.864,5.524-10.667c3.297,3.183,5.464,7.073,6.274,11.271
		C88.17,29.997,85.557,29.718,82.997,29.718z"/>
</g>
</svg>
