<?xml version="1.0" encoding="iso-8859-1"?>
<!-- Generator: Adobe Illustrator 17.0.2, SVG Export Plug-In . SVG Version: 6.00 Build 0)  -->
<!DOCTYPE svg PUBLIC "-//W3C//DTD SVG 1.1//EN" "http://www.w3.org/Graphics/SVG/1.1/DTD/svg11.dtd">
<svg version="1.1" id="Capa_1" xmlns="http://www.w3.org/2000/svg" xmlns:xlink="http://www.w3.org/1999/xlink" x="0px" y="0px"
	 width="100px" height="100px" viewBox="0 0 100 100" style="enable-background:new 0 0 100 100;" xml:space="preserve">
<g>
	<path style="fill:#1D1D1B;" d="M12.399,88.749c1.83,0.299,3.887,0.591,6.274,0.889c0.098,0.353,0.2,0.704,0.302,1.055
		c0.222,0.762,0.452,1.549,0.619,2.33c0.271,1.27,1.534,2.227,2.938,2.227c0.261,0,0.518-0.034,0.762-0.101
		c1.554-0.428,2.458-2.003,2.104-3.665c-0.083-0.39-0.181-0.774-0.28-1.137c8.974,0.845,19.068,1.273,30.018,1.273
		c5.591,0,11.341-0.113,17.099-0.337c-0.077,0.46-0.198,0.896-0.382,1.379c-0.253,0.667-0.198,1.419,0.157,2.118
		c0.402,0.793,1.123,1.399,1.925,1.62c0.269,0.074,0.541,0.112,0.807,0.112c0,0,0,0,0,0c1.264,0,2.364-0.829,2.871-2.164
		c0.367-0.964,0.579-2.009,0.675-3.343c3.076-0.161,6.029-0.344,8.785-0.546c1.825-0.133,2.812-1.623,2.867-3.057
		c6.201-17.956,6.053-38.837-0.428-60.393c-0.39-1.297-1.47-2.103-2.82-2.103c-0.16,0-0.32,0.012-0.479,0.034
		c-0.291-0.084-0.562-0.124-0.843-0.124c-6.302-0.016-13.123-0.141-20.343-0.274c-7.533-0.138-15.306-0.281-23.001-0.307
		c5.064-3.306,10.025-6.839,14.765-10.518c0.951-0.738,1.291-1.762,0.932-2.81c-0.429-1.252-1.785-2.196-3.154-2.196
		c-0.692,0-1.359,0.234-1.93,0.677C45.776,14.711,38.345,19.729,30.548,24.3l-0.79,0.012c-1.347-7.176-3.191-13.779-5.633-20.174
		c-0.474-1.241-1.606-2.012-2.955-2.012c-1.064,0-2.058,0.481-2.591,1.257c-0.476,0.691-0.551,1.559-0.214,2.442
		c2.272,5.947,4.017,12.05,5.327,18.639c-5.019,0.167-9.42,0.419-13.438,0.768c-1.147,0.099-2.067,0.749-2.541,1.789
		c-0.335,0.343-0.579,0.758-0.725,1.235c-6.265,20.551-5.45,40.951,2.357,58.992C9.897,88.525,11.113,89.108,12.399,88.749z
		 M12.428,31.072c7.293-0.563,16.172-0.837,27.126-0.837c8.512,0,17.179,0.158,25.561,0.311c6.823,0.124,13.275,0.242,19.233,0.268
		c5.459,19.434,5.519,37.534,0.178,53.814c-9.728,0.669-20.023,1.023-29.796,1.023c-15.804,0-29.867-0.93-40.697-2.691
		C7.657,67.301,7.103,49.375,12.428,31.072z"/>
	<path style="fill:#1D1D1B;" d="M20.558,80.511c8.385,1.368,17.258,2.033,27.115,2.033c0,0,0,0,0.001,0
		c6.281,0,13.049-0.272,20.689-0.832c1.635-0.12,2.54-1.416,2.631-2.693c4.425-12.884,4.313-27.846-0.327-43.276
		c-0.391-1.3-1.571-2.07-2.917-1.941c-0.216-0.052-0.428-0.078-0.644-0.078c-4.685-0.012-9.453-0.112-14.064-0.209
		c-4.929-0.104-10.026-0.21-15.042-0.21c-7.338,0-13.392,0.229-19.051,0.72c-1.002,0.087-1.844,0.66-2.29,1.546
		c-0.272,0.302-0.471,0.657-0.594,1.059c-4.502,14.769-3.914,29.436,1.702,42.414C18.263,80.189,19.388,80.772,20.558,80.511z
		 M21.047,39.429c5.091-0.381,10.531-0.56,17.044-0.56c4.982,0,10.054,0.105,14.959,0.208c4.207,0.087,8.548,0.178,12.837,0.202
		c3.674,13.359,3.72,25.81,0.138,37.031c-6.899,0.468-13,0.696-18.633,0.696c-9.218,0-17.481-0.605-25.238-1.849
		C17.851,64.355,17.468,52.03,21.047,39.429z"/>
	<path style="fill:#1D1D1B;" d="M80.676,46.771c0.898,0,1.657-0.331,2.195-0.956c0.468-0.544,0.726-1.271,0.726-2.046
		c0-1.492-1.003-3.002-2.921-3.002c-0.898,0-1.657,0.331-2.195,0.956c-0.468,0.544-0.726,1.271-0.726,2.046
		C77.755,45.261,78.758,46.771,80.676,46.771z"/>
	<path style="fill:#1D1D1B;" d="M80.989,50.15c-0.898,0-1.657,0.331-2.195,0.956c-0.468,0.544-0.726,1.271-0.726,2.046
		c0,1.492,1.003,3.002,2.92,3.002c0.898,0,1.657-0.331,2.194-0.956c0.468-0.544,0.726-1.271,0.726-2.046
		C83.909,51.661,82.906,50.15,80.989,50.15z"/>
</g>
</svg>
