<?xml version="1.0" encoding="utf-8"?>
<!-- Generator: Adobe Illustrator 17.0.2, SVG Export Plug-In . SVG Version: 6.00 Build 0)  -->
<!DOCTYPE svg PUBLIC "-//W3C//DTD SVG 1.1//EN" "http://www.w3.org/Graphics/SVG/1.1/DTD/svg11.dtd">
<svg version="1.1" id="Capa_1" xmlns="http://www.w3.org/2000/svg" xmlns:xlink="http://www.w3.org/1999/xlink" x="0px" y="0px"
	 width="100px" height="100px" viewBox="0 0 100 100" enable-background="new 0 0 100 100" xml:space="preserve">
<g>
	<path fill="#1D1D1B" d="M89.702,48.117c-3.039-21.261-18.069-37.089-40.118-35.639c-0.098-1.74-0.362-3.468-0.698-5.177
		c-0.275-1.398-1.919-2.181-3.214-1.825c-1.448,0.398-2.1,1.818-1.824,3.213c0.238,1.209,0.423,2.408,0.508,3.626
		C23.45,11.482,7.837,26.723,10.868,48.527c0.227,1.634,1.557,2.117,2.798,1.8c0.667,0.367,1.5,0.379,2.346-0.239
		c6.921-5.061,13.951-5.061,20.873,0c0.064,0.047,0.128,0.073,0.192,0.113c0.654,1.135,2.014,1.805,3.424,0.866
		c2.777-1.849,5.572-3.086,8.39-3.641c1.062,9.484,3.527,18.761,3.612,28.366c0.056,6.255-2.649,11.115-8.817,13.236
		c-6.971,2.396-10.692-5.028-11.78-10.544c-0.65-3.304-5.686-1.901-5.037,1.389c2.989,15.168,17.792,19.221,27.876,7.357
		c3.912-4.603,3.139-12.314,2.658-17.826c-0.648-7.462-2.478-14.769-3.314-22.198c2.622,0.303,5.268,1.233,7.939,2.882
		c0.199,0.122,0.396,0.209,0.59,0.274c0.738,0.738,1.855,1.065,3.027,0.379c6.629-3.883,13.242-4.018,19.365,0.898
		c2.048,1.645,4.78-0.286,4.566-2.212C89.712,49.034,89.771,48.599,89.702,48.117z M36.059,43.448
		c-6.651-3.412-13.843-3.194-20.424,0.662c-0.746-16.263,11.507-26.292,26.891-26.576C37.323,25.195,35.213,34.048,36.059,43.448z
		 M41.394,44.524c-1.046-9.232,0.746-17.936,6.312-25.317c8.551,5.619,12.826,14.568,13.312,24.501
		C54.487,40.953,47.762,41.381,41.394,44.524z M66.289,44.586c-0.228-10.471-4.238-20.113-11.98-26.891
		c15.569,0.965,25.826,11.953,29.454,27.107C78.159,42.093,72.23,42.055,66.289,44.586z"/>
</g>
</svg>
