<?xml version="1.0" encoding="iso-8859-1"?>
<!-- Generator: Adobe Illustrator 17.0.2, SVG Export Plug-In . SVG Version: 6.00 Build 0)  -->
<!DOCTYPE svg PUBLIC "-//W3C//DTD SVG 1.1//EN" "http://www.w3.org/Graphics/SVG/1.1/DTD/svg11.dtd">
<svg version="1.1" id="Capa_1" xmlns="http://www.w3.org/2000/svg" xmlns:xlink="http://www.w3.org/1999/xlink" x="0px" y="0px"
	 width="100px" height="100px" viewBox="0 0 100 100" style="enable-background:new 0 0 100 100;" xml:space="preserve">
<g>
	<path style="fill:#1D1D1B;" d="M78.258,57.96c-2.736-2.686-5.685-5.115-8.688-7.486c2.06-2.385,4.116-4.772,6.179-7.154
		c0.34-0.392,0.545-0.809,0.657-1.229c0.652-1.13,0.51-2.623-0.448-3.581l-0.418-0.418c-0.345-0.344-0.762-0.572-1.202-0.708
		c-2.208-1.888-4.272-3.931-6.327-5.984c-1.102-1.101-2.445-1.045-3.473-0.422c-0.316,0.141-0.627,0.339-0.919,0.631l-7.137,7.137
		c-2.353-2.249-4.772-4.427-7.085-6.718c-1.088-1.077-2.407-1.038-3.428-0.445c-0.332,0.141-0.658,0.348-0.965,0.654l-7.11,7.111
		c-0.615,0.615-0.859,1.307-0.857,1.977c-0.004,0.04-0.002,0.079-0.004,0.119c0.002,0.035,0,0.071,0.003,0.107
		c-0.002,0.672,0.242,1.364,0.858,1.98c2.442,2.441,4.901,4.861,7.446,7.194l-7.864,7.864c-1.242,1.242-1.018,2.792-0.159,3.848
		c0.112,0.476,0.353,0.948,0.786,1.381l7.529,7.529c0.951,0.952,2.084,1.036,3.038,0.642c0.605-0.047,1.22-0.299,1.771-0.852
		l7.824-7.824c2.773,2.524,5.479,5.122,8.28,7.614c1.26,1.121,2.786,0.918,3.846,0.129c0.259-0.137,0.515-0.306,0.755-0.547
		l7.32-7.32c0.939-0.94,1.033-2.055,0.657-3.002C79.197,59.44,78.961,58.65,78.258,57.96z M68.536,64.754
		c-2.616-2.404-5.183-4.86-7.847-7.212c-0.16-0.142-0.327-0.257-0.495-0.358c-1.047-1.039-2.761-1.406-4.105-0.061l-8.156,8.156
		l-4.393-4.392l8.157-8.156c1.192-1.193,1.037-2.674,0.264-3.724c-0.155-0.304-0.37-0.602-0.683-0.877
		c-2.442-2.156-4.789-4.411-7.104-6.699l3.167-3.167c2.149,2.034,4.344,4.02,6.447,6.101c0.201,0.199,0.411,0.349,0.626,0.476
		c1.036,1.105,2.803,1.533,4.185,0.151l7.33-7.33c1.246,1.221,2.522,2.409,3.839,3.556c-2.05,2.373-4.097,4.75-6.149,7.12
		c-0.183,0.211-0.319,0.43-0.434,0.653c-1.151,1.034-1.547,2.733,0.015,3.948c3.209,2.497,6.382,5.027,9.362,7.788L68.536,64.754z"
		/>
	<path style="fill:#1D1D1B;" d="M92.728,20.104c-0.284-0.086-0.588-0.147-0.933-0.147H37.866c-0.332,0-0.625,0.057-0.901,0.136
		c-0.402,0.01-0.819,0.093-1.246,0.28C22.923,25.97,13.022,35.658,3.724,45.832c-3.789,4.15,5.234,12.334,7.657,14.957
		c6.274,6.791,12.217,13.684,19.457,19.51c0.753,0.606,1.589,0.795,2.37,0.701c0.476,0.443,1.107,0.751,1.916,0.8
		c19.483,1.169,38.987,1.194,58.492,0.609c1.767-0.053,2.731-1.32,2.907-2.685c0.086-0.294,0.146-0.61,0.139-0.97
		c-0.38-18.625-0.248-37.155-1.212-55.75C95.359,21.253,94.087,20.289,92.728,20.104z M35.124,75.707
		c-0.106-0.006-0.2,0.009-0.301,0.012C25.166,67.89,17.109,58.548,9.727,48.58c-0.039-0.054-0.087-0.092-0.128-0.142
		c8.292-8.943,17.09-17.255,28.298-22.388h51.639c0.965,16.788,0.501,33.533,0.964,50.347
		C72.033,76.888,53.569,76.814,35.124,75.707z"/>
</g>
</svg>
