<?xml version="1.0" encoding="iso-8859-1"?>
<!-- Generator: Adobe Illustrator 17.0.2, SVG Export Plug-In . SVG Version: 6.00 Build 0)  -->
<!DOCTYPE svg PUBLIC "-//W3C//DTD SVG 1.1//EN" "http://www.w3.org/Graphics/SVG/1.1/DTD/svg11.dtd">
<svg version="1.1" id="Capa_1" xmlns="http://www.w3.org/2000/svg" xmlns:xlink="http://www.w3.org/1999/xlink" x="0px" y="0px"
	 width="100px" height="100px" viewBox="0 0 100 100" style="enable-background:new 0 0 100 100;" xml:space="preserve">
<g>
	<path style="fill:#1D1D1B;" d="M54.354,77.499c-0.074-18.471-0.926-36.933-0.721-55.406c1.514-0.38,2.962-0.969,4.13-1.836
		c3.026-2.246,4.081-4.899,3.822-7.445c-0.56-5.494-7.239-10.487-13.443-9.807c-5.099,0.559-9.48,4.968-9.915,10.038
		c-0.526,6.146,4.572,9.396,10.053,9.605c-0.182,18.378,0.661,36.745,0.728,55.122c-4.199,1.328-7.538,5.218-7.914,9.609
		c-0.549,6.398,5,9.668,10.729,9.624c2.902-0.022,6.43-0.646,8.807-2.41c3.026-2.246,4.081-4.899,3.822-7.445
		C63.993,82.639,59.411,78.474,54.354,77.499z M49.095,8.931c6.093-0.632,9.27,6.532,2.052,7.952
		c-0.095-0.001-0.181-0.015-0.281-0.008C44.686,17.281,41.136,9.756,49.095,8.931z M54.013,91.219
		c-0.095-0.001-0.181-0.015-0.281-0.009c-6.18,0.407-9.729-7.118-1.771-7.943C58.054,82.635,61.23,89.798,54.013,91.219z"/>
</g>
</svg>
