<?xml version="1.0" encoding="iso-8859-1"?>
<!-- Generator: Adobe Illustrator 17.0.2, SVG Export Plug-In . SVG Version: 6.00 Build 0)  -->
<!DOCTYPE svg PUBLIC "-//W3C//DTD SVG 1.1//EN" "http://www.w3.org/Graphics/SVG/1.1/DTD/svg11.dtd">
<svg version="1.1" id="Capa_1" xmlns="http://www.w3.org/2000/svg" xmlns:xlink="http://www.w3.org/1999/xlink" x="0px" y="0px"
	 width="100px" height="100px" viewBox="0 0 100 100" style="enable-background:new 0 0 100 100;" xml:space="preserve">
<g>
	<path style="fill:#1D1D1B;" d="M36.97,67.941c-0.193,3.934-0.22,7.87-0.22,11.809c0,2.579,4,2.579,4,0
		c0-3.933,0.027-7.864,0.22-11.792c2.767-0.844,4.78-3.415,4.78-6.458c0-3.729-3.023-6.752-6.752-6.752s-6.752,3.023-6.752,6.752
		C32.246,64.522,34.232,67.08,36.97,67.941z"/>
	<path style="fill:#1D1D1B;" d="M69,8.25c-0.08,0.003-0.149,0.021-0.224,0.032c-0.091-0.013-0.178-0.03-0.276-0.032
		c-8.588-0.134-16.09,2.675-20.932,10.007c-4.311,6.528-5.021,15.155-4.875,22.89c-10.387-0.538-20.778-0.84-31.193-0.342
		c-1.624,0.078-2.455,1.347-2.502,2.613c-0.053,0.198-0.091,0.409-0.1,0.639C8.317,59.015,8.811,73.992,7.923,88.94
		c-0.115,1.933,1.565,2.739,3.047,2.441c0.258,0.09,0.537,0.155,0.855,0.161c18.111,0.338,36.213,0.969,54.314,1.626
		c1.639,0.06,2.469-1.151,2.506-2.419c0.27-0.387,0.433-0.879,0.421-1.484c-0.293-14.752-0.083-29.514-1.301-44.232
		c-0.13-1.568-1.359-2.391-2.592-2.482c-0.205-0.061-0.421-0.106-0.66-0.12c-2.612-0.149-5.223-0.308-7.833-0.469
		c0.132-6.896,3.829-14.241,11.102-15.727c0.16-0.001,0.326-0.016,0.5-0.057c3.676-0.87,7.229,1.454,9.929,4.298
		c2.648,2.79,2.767,7.21,2.289,10.773c-0.045,0.336-0.011,0.624,0.076,0.87c-0.059,1.042,0.578,2.13,1.924,2.13
		c3.201-0.001,6.363-0.083,9.532-0.571c0.011-0.002,0.02-0.006,0.031-0.008c0.955-0.058,1.89-0.694,1.937-1.92
		C94.637,25.274,88.308,7.431,69,8.25z M62.74,47.53c0.97,13.43,0.86,26.894,1.1,40.352c-16.859-0.609-33.72-1.184-50.588-1.512
		c0.664-13.472,0.344-26.964,0.792-40.443C30.304,45.347,46.512,46.579,62.74,47.53z M90.039,39.939
		c-1.806,0.219-3.625,0.288-5.444,0.305c0.41-4.555-0.553-9.01-3.555-12.595c-4.374-5.224-11.899-6.951-18.03-4.036
		c-6.582,3.13-10.182,11.037-10.33,18.106c-1.994-0.121-3.987-0.238-5.98-0.352c-0.125-6.552,0.432-13.228,3.273-19.216
		c1.491-3.144,6.371-6.577,9.357-8.153c3.689-1.947,7.899-2.609,12.024-2.07c8.156,1.065,14.542,6.428,16.87,14.296
		C88.571,27.403,90.691,39.86,90.039,39.939z"/>
</g>
</svg>
