<?xml version="1.0" encoding="iso-8859-1"?>
<!-- Generator: Adobe Illustrator 17.0.2, SVG Export Plug-In . SVG Version: 6.00 Build 0)  -->
<!DOCTYPE svg PUBLIC "-//W3C//DTD SVG 1.1//EN" "http://www.w3.org/Graphics/SVG/1.1/DTD/svg11.dtd">
<svg version="1.1" id="Capa_1" xmlns="http://www.w3.org/2000/svg" xmlns:xlink="http://www.w3.org/1999/xlink" x="0px" y="0px"
	 width="100px" height="100px" viewBox="0 0 100 100" style="enable-background:new 0 0 100 100;" xml:space="preserve">
<g>
	<path style="fill:#1D1D1B;" d="M51.269,26.982c-0.637-1.325-2.441-2.122-3.754-0.742c-6.387,6.715-11.89,13.409-18.612,19.791
		c-1.462,1.388-0.462,3.299,1.012,3.81c0.378,0.384,0.91,0.638,1.61,0.634c1.798-0.012,4.499-0.01,6.294,0.063
		c0.041,3.872,0.179,13.354,0.581,17.211c0.017,0.163,0.052,0.313,0.094,0.458c0.062,1.121,0.812,2.167,2.264,2.099
		c5.378-0.254,10.759-0.309,16.143-0.347c0.437-0.003,0.802-0.112,1.111-0.282c1.272-0.16,2.56-1.29,2.293-2.938
		c-0.534-3.298-0.66-12.244-0.582-15.574c2.443-0.182,4.891-0.213,7.341-0.23c1.184-0.008,1.891-0.735,2.14-1.612
		c0.626-0.848,0.802-2.077-0.05-3.099C63.801,39.805,56.621,33.401,51.269,26.982z M58.842,46.548
		c-0.251,0.023-0.473,0.086-0.682,0.166c-1.321-0.304-2.972,0.431-3.046,2.2c-0.151,3.618-0.068,12.807,0.323,16.383
		c-4.182,0.034-8.363,0.089-12.542,0.247c-0.287-3.713-0.391-13.049-0.418-16.776c-0.005-0.758-0.306-1.323-0.751-1.698
		c-0.371-0.583-0.98-1.026-1.842-1.092c-1.049-0.081-3.004-0.124-4.055-0.151c4.778-4.682,8.521-9.492,13.138-14.333
		c4.123,4.942,10.063,9.878,14.188,14.818C61.716,46.351,60.278,46.418,58.842,46.548z"/>
	<path style="fill:#1D1D1B;" d="M94.963,22.662c0-0.49,0.007-0.985,0.014-1.482c0.06-4.263,0.133-9.567-4.263-13.293
		c-3.974-3.367-9.252-3.557-13.492-3.71L76.503,4.15c-4.791-0.184-9.836-0.27-15.874-0.27l-1.081,0.001
		C52.781,3.892,45.909,3.962,39.264,4.03c-7.187,0.073-14.618,0.149-21.921,0.15c-3.837,0-6.956,1.224-9.271,3.638
		C2.93,13.179,3.34,22.999,3.611,29.496l0.014,0.348c0.409,9.853,0.394,19.904,0.379,29.625c-0.006,3.597-0.011,7.194,0.004,10.791
		c0.009,2.182-0.003,4.362-0.015,6.543c-0.01,1.663-0.019,3.326-0.019,4.988c0,13.722,14.09,13.722,18.72,13.722
		c2.039,0,4.092-0.097,5.903-0.184c1.558-0.073,3.028-0.144,4.343-0.144c0.001,0,0.002,0,0.002,0l0.812,0.001
		c1.998,0,3.995-0.014,5.991-0.028c1.981-0.014,3.961-0.027,5.941-0.027c3.671,0,8.508,0.042,13.372,0.372l2.003,0.14
		c3.305,0.233,6.722,0.476,10.141,0.476c0.001,0,0.001,0,0.001,0c4.176,0,7.78-0.374,11.02-1.144
		c10.287-2.444,12.633-8.909,12.789-13.903c0.398-12.771,0.249-25.768,0.104-38.337C95.039,36.148,94.961,29.338,94.963,22.662z
		 M89.514,80.899c-0.098,3.138-1.159,6.966-8.562,8.724c-2.817,0.67-6.006,0.995-9.748,0.995c0,0,0,0-0.001,0
		c-3.225,0-6.543-0.234-9.752-0.462l-2.02-0.142c-5.029-0.34-9.986-0.384-13.744-0.384c-1.993,0-3.986,0.014-5.979,0.027
		c-1.983,0.015-3.968,0.028-5.953,0.028l-0.881-0.001c-1.376,0-2.911,0.073-4.537,0.15c-1.835,0.087-3.733,0.177-5.642,0.177
		c-10.972,0-13.22-3.286-13.22-8.222c0-1.652,0.009-3.305,0.019-4.958c0.012-2.198,0.023-4.396,0.015-6.596
		c-0.015-3.587-0.01-7.174-0.004-10.761c0.015-9.778,0.03-19.89-0.383-29.86l-0.015-0.35c-0.232-5.564-0.584-13.974,2.935-17.642
		c1.255-1.309,2.989-1.945,5.302-1.945c7.331-0.001,14.776-0.077,21.977-0.15c6.635-0.068,13.495-0.138,20.237-0.148l1.072-0.001
		c5.967,0,10.943,0.084,15.663,0.266l0.73,0.027c3.744,0.135,7.616,0.275,10.135,2.41c2.254,1.91,2.38,4.682,2.32,9.021
		c-0.008,0.521-0.015,1.041-0.015,1.556c-0.002,6.709,0.077,13.536,0.153,20.138C89.76,55.31,89.909,68.246,89.514,80.899z"/>
	<path style="fill:#1D1D1B;" d="M85.704,28.471c0-0.383,0.006-0.769,0.011-1.156c0.048-3.465,0.106-7.777-3.552-10.879
		c-3.271-2.772-7.523-2.926-10.939-3.049l-0.562-0.021c-3.771-0.145-7.732-0.212-12.466-0.212l-0.849,0
		c-5.311,0.008-10.703,0.063-15.918,0.117c-5.628,0.057-11.448,0.116-17.166,0.117c-3.176,0-5.765,1.021-7.696,3.034
		c-4.205,4.384-3.878,12.233-3.661,17.426l0.011,0.276c0.319,7.707,0.308,15.576,0.297,23.186c-0.005,2.824-0.009,5.649,0.003,8.475
		c0.007,1.709-0.002,3.419-0.012,5.129c-0.008,1.303-0.015,2.604-0.015,3.906c0,11.203,11.673,11.203,16.066,11.203
		c0.699,0,1.386-0.008,2.05-0.017c0.597-0.008,1.175-0.015,1.724-0.015l0.559,0.003c2.149,0.025,4.299,0.035,6.448,0.035
		c4.371,0,8.742-0.042,13.113-0.084c5.909-0.058,11.813-0.114,17.724-0.065l0.231,0.001c1.38,0,2.695-0.099,3.911-0.294
		c6.723-1.08,10.531-5.098,10.726-11.312c0.312-10.021,0.195-20.212,0.081-30.068C85.764,39.044,85.702,33.705,85.704,28.471z
		 M80.244,74.104c-0.073,2.375-0.834,5.208-6.1,6.054c-0.927,0.149-1.949,0.225-3.039,0.225l-0.188-0.001
		c-5.938-0.046-11.879,0.009-17.82,0.065c-6.481,0.062-12.964,0.126-19.444,0.049l-0.623-0.003c-0.571,0-1.172,0.007-1.793,0.015
		c-0.642,0.009-1.305,0.017-1.98,0.017c-8.883,0-10.566-2.004-10.566-5.703c0-1.291,0.007-2.584,0.015-3.876
		c0.01-1.728,0.019-3.455,0.012-5.183c-0.012-2.814-0.008-5.629-0.003-8.443c0.011-7.667,0.023-15.597-0.301-23.421l-0.012-0.278
		c-0.178-4.26-0.446-10.698,2.136-13.39c0.552-0.576,1.539-1.341,3.727-1.341c5.746-0.001,11.58-0.06,17.222-0.118
		c5.203-0.053,10.584-0.108,15.871-0.116l0.84,0c4.662,0,8.556,0.066,12.255,0.208l0.574,0.021c2.833,0.102,5.764,0.208,7.581,1.749
		c1.599,1.355,1.653,3.394,1.609,6.608c-0.006,0.412-0.012,0.823-0.012,1.229c-0.002,5.266,0.06,10.623,0.12,15.803
		C80.437,54.07,80.554,64.202,80.244,74.104z"/>
</g>
</svg>
