<?xml version="1.0" encoding="iso-8859-1"?>
<!-- Generator: Adobe Illustrator 17.0.2, SVG Export Plug-In . SVG Version: 6.00 Build 0)  -->
<!DOCTYPE svg PUBLIC "-//W3C//DTD SVG 1.1//EN" "http://www.w3.org/Graphics/SVG/1.1/DTD/svg11.dtd">
<svg version="1.1" id="Capa_1" xmlns="http://www.w3.org/2000/svg" xmlns:xlink="http://www.w3.org/1999/xlink" x="0px" y="0px"
	 width="100px" height="100px" viewBox="0 0 100 100" style="enable-background:new 0 0 100 100;" xml:space="preserve">
<g>
	<path style="fill:#1D1D1B;" d="M50.291,33.924c1.357-0.076,2.622-1.029,3.075-2.317c0.398-1.132,0.081-2.274-0.872-3.131
		L31.913,9.953c-0.572-1.167-1.83-1.973-3.097-1.973c-0.06,0-0.119,0.002-0.121,0.005c-1.349-0.08-2.678,0.746-3.276,1.967
		L4.837,28.476c-0.952,0.857-1.27,1.999-0.871,3.131c0.453,1.288,1.718,2.241,3.062,2.323c0.124,0.03,0.249,0.059,0.386,0.074
		c2.5,0.258,5.011,0.327,7.01,0.35v54.555c0,1.366,0.734,2.449,1.972,2.913c0.549,0.45,1.216,0.679,1.984,0.679h20.574
		c0.757,0,1.441-0.234,1.984-0.679c1.236-0.464,1.972-1.547,1.972-2.913V34.354c1.999-0.023,4.51-0.092,7.009-0.35
		C50.054,33.989,50.177,33.96,50.291,33.924z M20.789,31.099c-0.011-0.893-0.345-1.734-0.924-2.316
		c-0.566-0.569-1.332-0.871-2.214-0.871c-0.845,0-1.689-0.003-2.533-0.012l13.548-12.192L42.214,27.9
		c-0.844,0.009-1.688,0.012-2.533,0.012c-0.882,0-1.647,0.301-2.214,0.871c-0.579,0.583-0.913,1.424-0.924,2.316
		c-0.061,0.264-0.091,0.516-0.091,0.77v54.174H20.88V31.869C20.88,31.615,20.85,31.363,20.789,31.099z"/>
	<path style="fill:#1D1D1B;" d="M93.316,66.554c-0.129-0.031-0.257-0.062-0.398-0.076c-2.496-0.258-5.008-0.326-7.009-0.351V11.572
		c0-1.367-0.735-2.449-1.972-2.914C83.395,8.215,82.71,7.98,81.953,7.98H61.379c-0.769,0-1.436,0.228-1.984,0.678
		c-1.237,0.465-1.972,1.547-1.972,2.914v54.555c-2,0.024-4.513,0.093-7.01,0.351c-0.143,0.015-0.272,0.045-0.372,0.079
		c-1.357,0.076-2.622,1.029-3.075,2.317c-0.398,1.133-0.081,2.273,0.872,3.131l20.581,18.522c0.571,1.167,1.829,1.973,3.097,1.973
		c0.06,0,0.119-0.001,0.121-0.005c0.061,0.004,0.12,0.005,0.18,0.005c1.267,0,2.524-0.806,3.097-1.972l20.581-18.523
		c0.953-0.857,1.271-1.998,0.872-3.131C95.913,67.586,94.648,66.633,93.316,66.554z M79.543,69.381
		c0.011,0.893,0.345,1.733,0.924,2.316c0.566,0.569,1.331,0.871,2.214,0.871c0.845,0,1.688,0.004,2.533,0.013L71.666,84.772
		L58.118,72.581c0.845-0.009,1.688-0.013,2.533-0.013c0.883,0,1.647-0.302,2.214-0.871c0.579-0.583,0.913-1.424,0.924-2.316
		c0.061-0.263,0.091-0.516,0.091-0.769V14.438h15.572v54.175C79.452,68.865,79.482,69.118,79.543,69.381z"/>
</g>
</svg>
