<?xml version="1.0" encoding="iso-8859-1"?>
<!-- Generator: Adobe Illustrator 17.0.2, SVG Export Plug-In . SVG Version: 6.00 Build 0)  -->
<!DOCTYPE svg PUBLIC "-//W3C//DTD SVG 1.1//EN" "http://www.w3.org/Graphics/SVG/1.1/DTD/svg11.dtd">
<svg version="1.1" id="Capa_1" xmlns="http://www.w3.org/2000/svg" xmlns:xlink="http://www.w3.org/1999/xlink" x="0px" y="0px"
	 width="100px" height="100px" viewBox="0 0 100 100" style="enable-background:new 0 0 100 100;" xml:space="preserve">
<g>
	<path style="fill:#1D1D1B;" d="M54.109,10.504l-0.086-0.192c-0.658-1.466-2.232-2.472-3.784-2.38l-0.058,0.003l-0.058-0.003
		c-0.064-0.004-0.129-0.006-0.193-0.006c-1.482,0-2.959,0.981-3.591,2.387l-0.087,0.192L11.494,41.788
		c-1.321,1.189-1.249,2.434-0.956,3.269c0.512,1.454,1.993,2.572,3.522,2.658l0.306,0.057c0.131,0.032,0.261,0.067,0.403,0.082
		c4.43,0.458,8.754,0.553,12.399,0.585l0.991,0.009v37.928c0,2.12,1.389,2.914,2.216,3.199l0.186,0.063l0.148,0.13
		c0.597,0.522,1.35,0.787,2.239,0.787h34.465c0.89,0,1.643-0.265,2.239-0.787l0.148-0.13l0.186-0.063
		c0.828-0.285,2.217-1.079,2.217-3.199V48.447l0.991-0.009c3.646-0.033,7.97-0.128,12.399-0.585c0.141-0.015,0.271-0.049,0.4-0.081
		l0.309-0.058c1.529-0.086,3.01-1.204,3.521-2.658c0.294-0.834,0.366-2.079-0.956-3.269L54.109,10.504z M75.044,41.266
		c-2.136,0.035-4.272,0.049-6.411,0.049c-0.991,0-1.801,0.309-2.405,0.917c-0.649,0.654-1.019,1.631-1.013,2.679l0.001,0.125
		l-0.03,0.121c-0.084,0.34-0.123,0.642-0.123,0.948v37.309H35.302V46.105c0-0.307-0.039-0.608-0.123-0.948l-0.03-0.121l0.001-0.125
		c0.006-1.049-0.364-2.026-1.014-2.68c-0.604-0.608-1.414-0.916-2.405-0.917c-2.139,0-4.274-0.014-6.411-0.049l-2.543-0.042
		L50.182,16.56l27.405,24.664L75.044,41.266z"/>
</g>
</svg>
