<?xml version="1.0" encoding="iso-8859-1"?>
<!-- Generator: Adobe Illustrator 17.0.2, SVG Export Plug-In . SVG Version: 6.00 Build 0)  -->
<!DOCTYPE svg PUBLIC "-//W3C//DTD SVG 1.1//EN" "http://www.w3.org/Graphics/SVG/1.1/DTD/svg11.dtd">
<svg version="1.1" id="Capa_1" xmlns="http://www.w3.org/2000/svg" xmlns:xlink="http://www.w3.org/1999/xlink" x="0px" y="0px"
	 width="100px" height="100px" viewBox="0 0 100 100" style="enable-background:new 0 0 100 100;" xml:space="preserve">
<g>
	<path style="fill:#1E1E1C;" d="M80.73,26.02c-0.181-5.491-0.282-12.909-0.228-18.404c0.002-0.245-0.037-0.461-0.093-0.664
		c0.107-1.197-0.596-2.461-2.129-2.421C58.927,5.038,39.577,4.28,20.223,4.25c-1.61-0.003-2.315,1.412-2.117,2.654
		C18.042,7.12,17.997,7.351,18,7.616c0.292,23.095,1.086,56.279,1.111,79.377c0,0.518,0.147,0.939,0.382,1.272
		c0.142,0.979,0.846,1.845,2.119,1.813c5.147-0.128,10.296-0.235,15.443-0.388v-4.569c-6.61,0.173-13.506,0.363-13.506,0.413
		c-0.055-22.233-0.79-54.553-1.087-76.784C40.33,8.828,58.195,9.442,76.063,9.059c-0.068,18.253,1.55,44.639,1.646,59.065
		c-2.772-0.875-5.637-1.244-8.595-1.046c-0.23,0.015-0.436,0.068-0.629,0.135c-1.362,0.008-2.678,1.071-2.069,2.705
		c1.224,3.286,1.784,7.366-0.099,10.509c-1.743,2.911-4.535,3.531-7.48,3.881v4.634c4.115-0.229,8.187-0.716,11.725-1.923
		c2.521-0.861,4.776-2.134,6.71-3.977c3.534-3.369,4.741-7.892,5.045-12.658c0.292-4.577-0.247-9.379-0.354-13.597
		C81.686,45.892,81.089,36.913,80.73,26.02z M70.23,82.409c1.794-3.058,2.242-6.81,1.309-10.877c2.161,0.084,4.292,0.501,6.31,1.356
		c0.008,0.025,0.015,0.052,0.023,0.077C77.218,77.785,74.169,80.741,70.23,82.409z"/>
	<path style="fill:#1E1E1C;" d="M61.917,73.797c1.368-0.087,2.521-2.021,1.228-3.332c-4.455-4.51-8.909-9.02-13.363-13.53
		c-0.292-0.732-0.989-1.293-1.739-1.293c-0.032,0-0.065,0.001-0.097,0.003c-0.032-0.002-0.065-0.003-0.097-0.003
		c-0.749,0-1.446,0.561-1.738,1.293c-4.455,4.51-8.909,9.02-13.363,13.53c-1.294,1.31-0.141,3.245,1.228,3.332
		c0.083,0.022,0.165,0.048,0.256,0.059c1.605,0.187,3.214,0.24,4.825,0.257v10.956v4.56V94.5c0,0.96,0.496,1.56,1.117,1.8
		c0.276,0.272,0.646,0.45,1.119,0.45h6.014h1.282H54.6c0.474,0,0.843-0.178,1.12-0.45c0.62-0.24,1.116-0.84,1.116-1.8v-5.465v-4.508
		V74.112c1.611-0.016,3.22-0.07,4.825-0.257C61.752,73.845,61.833,73.819,61.917,73.797z M55.071,70.148
		c-1.144,0-1.712,1.002-1.707,1.999c-0.035,0.16-0.059,0.329-0.059,0.516v10c0.022,0.167,0.035,0.344,0.035,0.534
		c0,0.529-0.01,1.057-0.018,1.584c-0.004,0.325-0.008,0.651-0.018,0.975v3.379v3.642h-4.72h-1.282h-4.72v-2.626
		c0-0.003-0.001-0.005-0.001-0.008c-0.015-0.216-0.012-0.431-0.021-0.646c-0.031-0.816-0.028-1.63,0.021-2.44v-2.08V72.664
		c0-0.187-0.023-0.356-0.059-0.516c0.005-0.998-0.563-1.999-1.707-1.999c-0.824,0-1.646-0.006-2.469-0.021
		c3.198-3.238,6.396-6.476,9.595-9.715c3.199,3.239,6.397,6.477,9.595,9.715C56.718,70.142,55.895,70.148,55.071,70.148z"/>
</g>
</svg>
