<?xml version="1.0" encoding="iso-8859-1"?>
<!-- Generator: Adobe Illustrator 17.0.2, SVG Export Plug-In . SVG Version: 6.00 Build 0)  -->
<!DOCTYPE svg PUBLIC "-//W3C//DTD SVG 1.1//EN" "http://www.w3.org/Graphics/SVG/1.1/DTD/svg11.dtd">
<svg version="1.1" id="Capa_1" xmlns="http://www.w3.org/2000/svg" xmlns:xlink="http://www.w3.org/1999/xlink" x="0px" y="0px"
	 width="100px" height="100px" viewBox="0 0 100 100" style="enable-background:new 0 0 100 100;" xml:space="preserve">
<g>
	<path style="fill:#1E1E1C;" d="M76.48,42.452c-3.146-12.286-9.606-24.519-19.747-37.397c-0.626-0.796-1.52-1.188-2.427-1.085
		c-0.314-0.04-0.606-0.06-0.894-0.06c-0.9,0-1.772,0.417-2.362,1.121c-0.092,0.07-0.182,0.145-0.271,0.233
		C39.009,16.935,31.209,28.384,26.935,40.264c-0.197,0.548-0.24,1.092-0.126,1.619c0.019,0.88,0.096,1.671,0.234,2.415
		c0.255,1.37,1.632,2.396,3.148,2.346l0.157,0.01c4.341,0,8.758,0.081,13.029,0.16c4.279,0.079,8.704,0.16,13.06,0.16
		c0.001,0,0.001,0,0.002,0c4.335,0,8.16-0.082,11.691-0.249l0.185-0.004c0.365,0,0.82,0.034,1.323,0.07
		c0.661,0.047,1.41,0.102,2.209,0.102c0.001,0,0.001,0,0.002,0c3.916-0.014,4.738-1.822,4.738-3.336
		c0-0.066-0.005-0.131-0.014-0.198C76.585,43.038,76.554,42.74,76.48,42.452z M69.47,40.458c-4,0.232-8.26,0.342-13.282,0.342
		c-4.405,0-8.89-0.086-13.228-0.169c-3.115-0.06-6.322-0.121-9.503-0.15c3.817-9.752,10.442-19.367,20.202-29.32
		C61.146,21.017,66.459,30.862,69.47,40.458z"/>
	<path style="fill:#1E1E1C;" d="M76.291,55.61c-0.256-1.369-1.638-2.39-3.148-2.346l-0.157-0.01c-4.342,0-8.759-0.081-13.032-0.16
		c-4.28-0.079-8.706-0.16-13.063-0.16c-4.334,0-8.157,0.081-11.686,0.249l-0.185,0.004c-0.365,0-0.821-0.034-1.323-0.07
		c-0.661-0.048-1.41-0.102-2.209-0.102c-0.001,0-0.001,0-0.002,0c-3.916,0.014-4.738,1.822-4.738,3.336
		c0,0.066,0.005,0.131,0.014,0.198c-0.012,0.321,0.018,0.619,0.092,0.907c3.146,12.285,9.605,24.518,19.747,37.396
		c0.627,0.797,1.52,1.189,2.427,1.087c0.313,0.039,0.605,0.059,0.888,0.06h0.004c0.899,0,1.771-0.416,2.362-1.121
		c0.092-0.07,0.182-0.145,0.271-0.232c11.771-11.673,19.571-23.122,23.845-35.001c0.198-0.549,0.24-1.094,0.126-1.62
		C76.506,57.145,76.429,56.354,76.291,55.61z M69.875,59.43c-3.817,9.752-10.443,19.366-20.202,29.319
		c-7.486-9.856-12.799-19.702-15.81-29.298c3.998-0.232,8.256-0.342,13.276-0.342c4.406,0,8.892,0.086,13.229,0.169
		C63.484,59.338,66.693,59.399,69.875,59.43z"/>
</g>
</svg>
