<?xml version="1.0" encoding="iso-8859-1"?>
<!-- Generator: Adobe Illustrator 17.0.2, SVG Export Plug-In . SVG Version: 6.00 Build 0)  -->
<!DOCTYPE svg PUBLIC "-//W3C//DTD SVG 1.1//EN" "http://www.w3.org/Graphics/SVG/1.1/DTD/svg11.dtd">
<svg version="1.1" id="Capa_1" xmlns="http://www.w3.org/2000/svg" xmlns:xlink="http://www.w3.org/1999/xlink" x="0px" y="0px"
	 width="100px" height="100px" viewBox="0 0 100 100" style="enable-background:new 0 0 100 100;" xml:space="preserve">
<g>
	<path style="fill:#1E1E1C;" d="M54.969,22.396c-0.314-0.391-0.659-0.655-1.015-0.819c-1.074-0.817-2.625-1.023-3.895,0.153
		C35.683,35.041,20.46,47.413,6.393,61.062c-0.954,0.925-1.069,2.028-0.712,2.974c0.07,0.544,0.286,1.093,0.712,1.602
		c3.387,4.042,6.947,7.928,10.667,11.667c1.601,1.609,3.711,0.812,4.642-0.671c9.301-7.818,18.511-16.744,27.821-24.551
		c8.897,8.856,18.976,17.392,28.204,25.889c1.035,0.953,2.256,0.991,3.254,0.534c0.949-0.073,1.819-0.647,2.458-1.474
		c3.003-3.888,6.169-7.644,9.468-11.284c1.503-0.916,2.332-3.055,0.729-4.685C80.848,48.055,66.436,36.669,54.969,22.396z
		 M79.919,71.887c-9.053-8.107-18.765-16.465-27.284-25.159c-0.444-0.453-0.93-0.703-1.418-0.817
		c-1.073-0.728-2.567-0.899-3.824,0.15c-9.448,7.888-18.775,16.919-28.185,24.851c-2.308-2.394-4.534-4.864-6.712-7.378
		C25.274,51.319,38.904,40.044,51.95,28.12c10.602,12.791,23.495,23.339,35.268,35.005C84.701,65.977,82.276,68.902,79.919,71.887z"
		/>
</g>
</svg>
