<?xml version="1.0" encoding="iso-8859-1"?>
<!-- Generator: Adobe Illustrator 17.0.2, SVG Export Plug-In . SVG Version: 6.00 Build 0)  -->
<!DOCTYPE svg PUBLIC "-//W3C//DTD SVG 1.1//EN" "http://www.w3.org/Graphics/SVG/1.1/DTD/svg11.dtd">
<svg version="1.1" id="Capa_1" xmlns="http://www.w3.org/2000/svg" xmlns:xlink="http://www.w3.org/1999/xlink" x="0px" y="0px"
	 width="100px" height="100px" viewBox="0 0 100 100" style="enable-background:new 0 0 100 100;" xml:space="preserve">
<g>
	<path style="fill:#1E1E1C;" d="M89.795,78.802c-5.834-22.777-18.21-43.455-32.65-61.794c-0.812-1.031-1.802-1.325-2.733-1.159
		c-0.495-0.071-0.99-0.115-1.492-0.116c-1.127-0.001-2.135,0.563-2.778,1.412c-0.151,0.111-0.302,0.22-0.447,0.363
		C33.1,33.963,18.273,53.128,10.295,75.302c-0.259,0.72-0.266,1.362-0.116,1.926c0.021,1.322,0.122,2.627,0.366,3.936
		c0.307,1.65,2.074,2.652,3.665,2.548c0.072,0.004,0.135,0.021,0.21,0.021c20.998,0,41.982,1.117,62.974,0.12
		c1.408-0.067,3.893,0.287,6.281,0.278c3.211-0.011,6.245-0.677,6.245-3.898c0-0.093-0.021-0.181-0.028-0.271
		C89.915,79.596,89.901,79.215,89.795,78.802z M17.204,76.748c7.408-20.31,21.145-37.917,36.283-53.119
		c12.259,15.86,22.755,33.668,28.437,52.967C60.369,78.008,38.782,76.879,17.204,76.748z"/>
</g>
</svg>
