<?xml version="1.0" encoding="iso-8859-1"?>
<!-- Generator: Adobe Illustrator 17.0.2, SVG Export Plug-In . SVG Version: 6.00 Build 0)  -->
<!DOCTYPE svg PUBLIC "-//W3C//DTD SVG 1.1//EN" "http://www.w3.org/Graphics/SVG/1.1/DTD/svg11.dtd">
<svg version="1.1" id="Capa_1" xmlns="http://www.w3.org/2000/svg" xmlns:xlink="http://www.w3.org/1999/xlink" x="0px" y="0px"
	 width="100px" height="100px" viewBox="0 0 100 100" style="enable-background:new 0 0 100 100;" xml:space="preserve">
<g>
	<path style="fill:#1D1D1B;" d="M73.741,33.779c-4.406,0-8.567,1.414-12.084,4.097C58.948,26.518,48.24,18.357,35.875,18.357
		c-1.001,0-2.015,0.055-3.012,0.164c-7.08,0.772-12.644,4.628-15.667,10.855c-3.178,6.546-2.859,14.462,0.788,20.885
		c-0.124-0.002-0.248-0.004-0.372-0.004c-7.915,0-13.937,5.264-14.984,13.099c-0.493,3.687,0.418,6.882,2.709,9.5
		c3.837,4.384,10.54,5.946,15.534,5.946c1.149,0,2.273-0.078,3.268-0.223c0.095,0.013,0.19,0.024,0.294,0.024
		c4.068,0,8.272,0,12.566-0.004v-0.227c0.606,0.105,1.251,0.012,1.788-0.276c0.237-0.127,0.447-0.297,0.628-0.501
		C39.767,77.205,39.998,76.678,40,76c0.002-0.52,0.024-1.039,0.031-1.559c0.002-0.167,0.007-0.334,0.01-0.502
		c0.003-0.166,0.007-0.332,0.01-0.498c0.024-1.17,0.045-2.341,0.09-3.51c0.056-1.477,0.119-2.954,0.192-4.431
		c0.004-0.081-0.009-0.151-0.011-0.228c0.002-0.035,0.011-0.07,0.011-0.106c0-1.436-1.141-2.403-2.5-2.5
		c-0.385-0.027-0.77-0.039-1.155-0.059c3.912-3.827,7.855-7.622,11.789-11.427c3.655,3.66,7.176,7.447,10.696,11.235
		c-0.832,0.024-1.665,0.039-2.496,0.084c-0.533,0.029-0.97,0.2-1.327,0.451c-1.101,0.149-2.07,0.938-2.007,2.383
		c0.104,2.343,0.158,4.686,0.223,7.03c0.01,0.347,0.022,0.695,0.033,1.042c0.005,0.166,0.01,0.332,0.016,0.498
		c0.006,0.167,0.01,0.335,0.016,0.502c0.017,0.476,0.024,0.952,0.045,1.428c0.03,0.675,0.281,1.2,0.648,1.592
		c0.03,0.048,0.072,0.086,0.105,0.132c0.136,0.189,0.303,0.354,0.497,0.494c0.37,0.27,0.833,0.448,1.417,0.448h4.833v0.021
		c6-0.038,12.049-0.093,18.075-0.175c0.184-0.003,0.37-0.025,0.564-0.07c0.266,0.037,0.543,0.04,0.845-0.012
		c6.255-1.087,11.246-4.607,14.053-9.913c3.164-5.979,3.212-13.61,0.13-20.415C90.999,39.468,82.521,33.779,73.741,33.779z
		 M58.474,69.849c-0.024-0.803-0.048-1.606-0.074-2.409c1.984-0.07,3.968-0.1,5.953-0.103c0.3,0.055,0.598,0.041,0.886-0.028
		c2.529-0.214,2.847-3.651,0.955-4.68c-5.209-5.565-10.31-11.23-15.76-16.564c-0.608-0.595-1.3-0.779-1.95-0.699
		c-0.64-0.07-1.32,0.118-1.919,0.699c-5.727,5.55-11.518,11.036-17.167,16.667c-1.098,1.094-0.846,2.473-0.042,3.364
		c0.439,0.715,1.239,1.167,2.143,1.237c1.247,0.096,2.496,0.148,3.745,0.201c-0.09,1.97-0.155,3.941-0.198,5.913
		c-3.611,0.002-7.169,0.003-10.614,0.003c-0.182,0-0.36,0.018-0.542,0.055c-0.193-0.013-0.396-0.008-0.609,0.025
		c-0.993,0.16-2.021,0.241-3.057,0.241c-5.733,0-12.446-2.507-12.497-9.57c-0.016-2.278,0.772-4.286,2.281-5.805
		c1.853-1.866,4.684-2.937,7.767-2.937c1.16,0,2.293,0.153,3.371,0.458c0.187,0.053,0.38,0.083,0.586,0.093
		c0.519,0.254,1.098,0.335,1.729,0.19c1.178,0.188,2.432-0.568,2.889-1.718c0.368-0.925,0.133-1.906-0.627-2.624
		c-5.274-4.98-7.054-12.038-4.647-18.418c2.261-5.992,7.638-9.711,14.386-9.949c11.878-0.41,21.688,8.754,21.713,20.072
		c0.003,1.645,1.297,2.505,2.573,2.505c1.148,0,2.09-0.636,2.433-1.631c3.222-3.599,7.285-5.5,11.755-5.5
		c6.984,0,13.626,4.761,16.528,11.847c2.171,5.299,2.059,10.822-0.308,15.149c-2.117,3.871-5.758,6.389-10.534,7.284
		c-0.118-0.017-0.245-0.03-0.398-0.027c-6.021,0.083-12.065,0.138-18.061,0.176V73.5h-2.581c-0.001-0.039-0.002-0.078-0.004-0.118
		C58.543,72.205,58.509,71.027,58.474,69.849z"/>
	<path style="fill:#1D1D1B;" d="M50.007,73.481c0.013-0.021,0.027-0.041,0.041-0.062c-0.033,0-0.065,0-0.098,0
		C49.968,73.441,49.989,73.46,50.007,73.481z"/>
</g>
</svg>
