<?xml version="1.0" encoding="iso-8859-1"?>
<!-- Generator: Adobe Illustrator 17.0.2, SVG Export Plug-In . SVG Version: 6.00 Build 0)  -->
<!DOCTYPE svg PUBLIC "-//W3C//DTD SVG 1.1//EN" "http://www.w3.org/Graphics/SVG/1.1/DTD/svg11.dtd">
<svg version="1.1" id="Capa_1" xmlns="http://www.w3.org/2000/svg" xmlns:xlink="http://www.w3.org/1999/xlink" x="0px" y="0px"
	 width="100px" height="100px" viewBox="0 0 100 100" style="enable-background:new 0 0 100 100;" xml:space="preserve">
<g>
	<path style="fill:#1D1D1B;" d="M96.183,12.842c1.033-1.426,0.392-4.04-1.932-4.092c-22.92-0.508-63.881-0.96-86.75,1
		C7.03,9.79,6.636,9.943,6.303,10.158c-0.711,0.372-1.254,1.068-1.302,2.092c-0.704,15.158-0.534,49.335-1,64.5
		c-0.008,0.258,0.027,0.488,0.079,0.704c0.04,0.951,0.573,1.867,1.756,2.207c8.706,2.499,20.269,3.371,32.516,3.421
		c-0.092-1.649-0.101-3.3-0.102-4.953c-11.085-0.049-21.467-0.776-29.213-2.781c0.277-9.816,0.31-31.983,0.504-45.353
		c27.104-0.264,54.205-0.951,81.312-0.748c-0.083,13.629,0.201,36.075,0.792,46.14c-7.085,0.486-16.267,1.243-26.135,1.84
		c0.034,1.657,0.211,3.294,0.445,4.927c10.419-0.635,20.152-1.44,27.796-1.903c0.759-0.046,1.333-0.367,1.734-0.82
		c0.77-0.338,1.336-1.058,1.266-2.18C95.805,62.114,95.551,28.736,96.183,12.842z M90.901,24.246
		c-27.095-0.204-54.184,0.482-81.276,0.747c0.071-3.767,0.161-7.303,0.279-10.418c21.043-1.65,60.16-1.349,81.248-0.891
		C91.035,16.853,90.953,20.436,90.901,24.246z"/>
	<path style="fill:#1D1D1B;" d="M16.001,17c-3.224,0-3.224,5,0,5C19.226,22,19.226,17,16.001,17z"/>
	<path style="fill:#1D1D1B;" d="M24.751,16.75c-3.224,0-3.224,5,0,5C27.976,21.75,27.976,16.75,24.751,16.75z"/>
	<path style="fill:#1D1D1B;" d="M34.001,16.25c-3.224,0-3.224,5,0,5C37.226,21.25,37.226,16.25,34.001,16.25z"/>
	<path style="fill:#1D1D1B;" d="M74.964,65.505c0.648-0.697,0.887-1.714,0.194-2.766c-5.686-8.631-12.504-16.305-20.141-23.256
		c-1.499-1.364-3.458-0.468-4.107,0.925c-6.731,7.865-12.795,16.284-20.179,23.575c-1.838,1.814,0.059,4.431,2.067,4.248
		c0.068,0.005,0.13,0.02,0.201,0.02h8.127c-0.119,2.142-0.195,4.689-0.234,7.343c-0.012,0.838-0.021,1.684-0.026,2.534
		c-0.01,1.671-0.006,3.344,0.011,4.955c0.016,1.515,0.042,2.974,0.08,4.314c-0.018,0.031-0.031,0.064-0.047,0.095
		c-0.79,1.522-0.104,3.794,2.089,3.675c0.137-0.007,0.275-0.009,0.412-0.016c0.216,0.013,0.432,0.011,0.643-0.024
		c5.549-0.258,11.078-0.195,16.611,0.373c1.466,0.151,2.247-0.815,2.368-1.937c0.162-0.303,0.269-0.657,0.298-1.063
		c0.007-0.097,0.013-0.202,0.02-0.301c0.121-1.774,0.213-3.789,0.286-5.909c0.055-1.619,0.1-3.293,0.137-4.961
		c0.02-0.875,0.037-1.745,0.054-2.605c0.05-2.617,0.088-5.128,0.133-7.259c2.961-0.064,5.917-0.218,8.871-0.465
		C73.904,66.91,74.61,66.283,74.964,65.505z M61.333,62.5c-1.898,0.006-2.67,1.739-2.333,3.164c0,0.001,0,0.002,0,0.003
		c-0.063,2.73-0.109,5.975-0.173,9.304c-0.017,0.875-0.035,1.75-0.055,2.63c-0.038,1.681-0.085,3.344-0.143,4.96
		c-0.025,0.71-0.053,1.405-0.083,2.088c-0.025,0.565-0.049,1.136-0.078,1.676c-2.92-0.232-5.84-0.331-8.763-0.327
		c-0.568,0.001-1.137,0.008-1.706,0.017c-0.691,0.011-1.383,0.019-2.075,0.041c-0.005-0.231-0.008-0.479-0.013-0.714
		c-0.015-0.758-0.028-1.531-0.037-2.325c-0.018-1.611-0.024-3.275-0.014-4.955c0.008-1.343,0.026-2.684,0.054-4.008
		c0.06-2.887,0.167-5.67,0.336-8.055c0.044-0.618-0.108-1.114-0.379-1.494c-0.365-0.719-1.068-1.256-2.121-1.256h-5.423
		c5.333-5.875,10.123-12.216,15.246-18.282c5.609,5.307,10.742,11.018,15.217,17.306C66.307,62.412,63.823,62.492,61.333,62.5z"/>
</g>
</svg>
