<?xml version="1.0" encoding="iso-8859-1"?>
<!-- Generator: Adobe Illustrator 17.0.2, SVG Export Plug-In . SVG Version: 6.00 Build 0)  -->
<!DOCTYPE svg PUBLIC "-//W3C//DTD SVG 1.1//EN" "http://www.w3.org/Graphics/SVG/1.1/DTD/svg11.dtd">
<svg version="1.1" id="Capa_1" xmlns="http://www.w3.org/2000/svg" xmlns:xlink="http://www.w3.org/1999/xlink" x="0px" y="0px"
	 width="100px" height="100px" viewBox="0 0 100 100" style="enable-background:new 0 0 100 100;" xml:space="preserve">
<g>
	<path style="fill:#1D1D1B;" d="M64.386,6.304c-4.783,0.525-8.894,4.66-9.301,9.416c-0.458,5.348,3.626,8.359,8.322,8.924
		c1.457,14.615-10.688,22.708-24.131,22.759V24.504c1.934-0.306,3.875-0.925,5.348-2.017c2.838-2.107,3.828-4.596,3.585-6.984
		c-0.524-5.154-6.791-9.838-12.611-9.199c-4.782,0.525-8.893,4.66-9.301,9.416c-0.43,5.017,3.139,7.975,7.46,8.789v48.613
		c-3.956,1.235-7.105,4.895-7.46,9.026c-0.514,6.002,4.69,9.069,10.065,9.028c2.723-0.021,6.031-0.606,8.262-2.261
		c2.838-2.107,3.828-4.596,3.585-6.984c-0.414-4.068-4.407-7.831-8.933-8.928V52.932c17.017,0.049,30.818-11.079,29.565-28.571
		c1.668-0.341,3.296-0.929,4.57-1.874c2.838-2.107,3.828-4.596,3.585-6.984C76.472,10.349,70.206,5.665,64.386,6.304z
		 M36.491,11.863c5.716-0.592,8.696,6.127,1.925,7.459c-0.089-0.001-0.17-0.014-0.264-0.008
		C32.355,19.696,29.025,12.637,36.491,11.863z M38.416,85.751c-0.089-0.001-0.17-0.014-0.264-0.008
		c-5.554,0.365-8.836-6.095-2.537-7.318c0.706,0.213,1.495,0.164,2.164-0.139C42.611,78.724,44.656,84.523,38.416,85.751z
		 M67.204,19.322c-0.089-0.001-0.17-0.014-0.264-0.008c-5.797,0.381-9.127-6.678-1.661-7.451
		C70.995,11.27,73.975,17.99,67.204,19.322z"/>
</g>
</svg>
