<?xml version="1.0" encoding="iso-8859-1"?>
<!-- Generator: Adobe Illustrator 17.0.2, SVG Export Plug-In . SVG Version: 6.00 Build 0)  -->
<!DOCTYPE svg PUBLIC "-//W3C//DTD SVG 1.1//EN" "http://www.w3.org/Graphics/SVG/1.1/DTD/svg11.dtd">
<svg version="1.1" id="Capa_1" xmlns="http://www.w3.org/2000/svg" xmlns:xlink="http://www.w3.org/1999/xlink" x="0px" y="0px"
	 width="100px" height="100px" viewBox="0 0 100 100" style="enable-background:new 0 0 100 100;" xml:space="preserve">
<g>
	<path style="fill:#1E1E1C;" d="M87.213,10.101c-0.015-0.087,0.118-0.997-0.428-1.741c-0.294-0.4-0.752-0.708-1.399-0.842
		C74.141,5.183,62.531,4.779,51.08,4.79c-5.816,0.005-11.627,0.193-17.439,0.414c-8.893,0.337-19.267-1.956-18.815,10.434
		c0.21,5.754,0.107,11.501,0.216,17.257c0.241,12.831,0.381,25.672,0.376,38.505c-0.003,7.084,0.073,14.168,0.075,21.252
		c0,0.41,0.082,0.766,0.224,1.071c0.257,0.552,0.986,1.279,1.537,1.536c0.304,0.142,0.66,0.223,1.069,0.224
		c20.235,0.018,46.79,0.629,67.023,0.629c0.579,0,1.054-0.16,1.426-0.424c0.682-0.483,1.114-1.493,1.262-1.919
		c0.083-0.24,0.134-0.507,0.142-0.802c0.825-27.705,0.59-55.043-0.944-82.709C87.229,10.204,87.222,10.152,87.213,10.101z
		 M70.566,88.928c-0.036,1.138-0.974,2.052-2.112,2.041c-0.749-0.008-1.502-0.015-2.258-0.024c-1.138-0.012-2.05-0.1-2.039-0.195
		c0.007-0.056,0.012-0.113,0.012-0.174c0-4.575-0.027-19.144-0.351-23.709c-0.24-3.371-5.514-3.395-5.273,0
		c0.325,4.565,0.351,19.135,0.351,23.709c0,0.05,0.005,0.097,0.01,0.143c0.01,0.079-0.905,0.132-2.043,0.118
		c-4.083-0.05-8.198-0.103-12.267-0.153c-1.138-0.014-2.091-0.947-2.118-2.086c-0.09-3.851-0.103-17.703-0.104-21.556
		c0-3.4-5.273-3.4-5.273,0c0,3.832,0.015,17.664,0.103,21.494c0.026,1.138-0.868,2.051-2.007,2.039
		c-0.865-0.009-1.725-0.018-2.578-0.026c-1.138-0.011-2.004-0.94-1.947-2.077c0.338-6.68,0.39-23.37,0.698-30.052
		c0.052-1.137,0.566-2.713,1.424-3.06c0.499-0.202,1.051-0.282,1.644-0.272c11.34-0.132,22.641,0.343,33.947,0.705
		c0.039,0.001,0.076-0.002,0.112-0.005c0.062-0.006,0.141-0.007,0.176-0.002c0.021,0.003,0.041,0.006,0.064,0.007
		c0.673,0.013,1.092,0.111,1.592,0.409c0.012,0.008,0.022,0.015,0.031,0.021c0.017,0.011,0.094,0.087,0.174,0.17
		c0.08,0.082,0.221,0.25,0.305,0.385c0.05,0.081,0.099,0.163,0.145,0.246c0.01,0.017,0.017,0.031,0.024,0.043
		c0.014,0.024,0.087,0.965,0.127,2.103C71.372,65.764,70.776,82.337,70.566,88.928z M83.248,89.006
		c-0.03,1.138-0.979,2.06-2.117,2.056c-1.076-0.004-2.172-0.01-3.282-0.016c-1.138-0.007-2.047-0.937-2.011-2.075
		c0.212-6.691,0.828-23.363,0.568-30.056c-0.044-1.138-0.087-2.26-0.112-2.506c-0.015-0.146-0.044-0.292-0.092-0.436
		c-1.125-3.397-3.893-5.381-7.464-5.451c-0.038-0.001-0.074,0.003-0.109,0.007c-0.06,0.007-0.139,0.008-0.176,0.001
		c-0.022-0.004-0.043-0.007-0.067-0.008c-11.248-0.361-22.49-0.83-33.746-0.703c-0.061,0.001-0.118-0.001-0.176,0
		c-3.207-0.083-5.965,1.507-7.725,4.118c-0.156,0.232-0.259,0.483-0.316,0.744c-0.096,0.438-0.109,0.987-0.161,1.218
		c-0.03,0.134-0.051,0.274-0.059,0.424c-0.406,7.366-0.43,24.745-0.802,32.111c-0.057,1.137-1.037,2.052-2.175,2.046
		c-0.217-0.001-0.433-0.002-0.648-0.003c-1.138-0.005-2.061-0.932-2.063-2.07c0-13.454-0.534-26.901-0.804-40.351
		C19.576,41.305,19.5,34.55,19.605,27.8c0.053-3.383,0.165-6.766,0.297-10.147c0.067-1.71-0.393-4.957,0.455-6.544
		c0.053-0.099,0.073-0.196,0.109-0.218s0.988-0.084,2.125-0.142c17.536-0.9,40.299-1.973,57.668,0.925
		c1.123,0.187,2.08,1.283,2.138,2.42C83.677,39.134,83.903,63.935,83.248,89.006z"/>
	<path style="fill:#1E1E1C;" d="M59.794,23.759c-0.166-0.16-0.368-0.305-0.61-0.43c-5.488-2.823-11.027-2.226-15.878,1.527
		c-0.176,0.136-0.319,0.28-0.434,0.428c-0.207,0.267-0.838,1.13-1.396,1.949c-3.542,5.195-3.167,11.868,2.499,15.884
		c5.597,3.967,12.228,2.873,16.782-1.539c0.712-0.689,1.421-1.46,1.616-1.693c0.111-0.133,0.213-0.284,0.305-0.457
		c2.538-4.795,2.116-9.881-1.198-13.776C60.837,24.896,60.092,24.046,59.794,23.759z M59.146,35.261
		c-0.284,0.949-0.726,1.7-0.778,1.754c-0.03,0.032-0.06,0.064-0.087,0.101c-6.12,8.247-19.549-0.157-11.837-8.304
		c0.078-0.083,0.147-0.167,0.208-0.252c0.106-0.147,0.808-0.785,1.694-1.229c1.962-0.985,4.085-1.155,6.184-0.596
		c0.958,0.255,2.324,1.105,2.984,1.844C59.251,30.524,59.891,32.772,59.146,35.261z"/>
</g>
</svg>
