<?xml version="1.0" encoding="iso-8859-1"?>
<!-- Generator: Adobe Illustrator 17.0.2, SVG Export Plug-In . SVG Version: 6.00 Build 0)  -->
<!DOCTYPE svg PUBLIC "-//W3C//DTD SVG 1.1//EN" "http://www.w3.org/Graphics/SVG/1.1/DTD/svg11.dtd">
<svg version="1.1" id="Capa_1" xmlns="http://www.w3.org/2000/svg" xmlns:xlink="http://www.w3.org/1999/xlink" x="0px" y="0px"
	 width="100px" height="100px" viewBox="0 0 100 100" style="enable-background:new 0 0 100 100;" xml:space="preserve">
<g>
	<path style="fill:#1E1E1C;" d="M27.127,37.109c3.047,2.16,6.497,3.301,9.977,3.301c4.555,0,9.042-1.915,12.633-5.393
		c0.958-0.928,1.96-2.013,2.229-2.333c0.117-0.14,0.224-0.301,0.316-0.476c3.45-6.516,2.873-13.256-1.582-18.491
		c-1.057-1.242-1.994-2.295-2.331-2.621c-0.173-0.167-0.386-0.316-0.631-0.442c-3.101-1.595-6.241-2.404-9.333-2.404
		c-4.25,0-8.354,1.507-12.196,4.478c-0.173,0.134-0.321,0.28-0.439,0.432c-0.274,0.353-1.16,1.563-1.951,2.723
		C18.709,23.379,20.07,32.107,27.127,37.109z M29.339,16.88c0.078-0.083,0.148-0.17,0.212-0.258c0.27-0.374,1.428-1.382,2.772-2.057
		c2.939-1.477,6.229-1.794,9.507-0.92c1.537,0.41,3.662,1.722,4.735,2.925c2.775,3.108,3.651,6.726,2.534,10.461
		c-0.42,1.405-1.105,2.651-1.339,2.898c-2.546,3.419-6.11,5.274-10.081,5.274c-4.848,0-9.448-2.82-11.186-6.859
		C25.56,26.173,24.686,21.795,29.339,16.88z"/>
	<path style="fill:#1E1E1C;" d="M70.611,59.678c-1.574,0.04-3.065,0.082-4.405,0.126c0.028,0.479,0.062,0.959,0.086,1.438
		c0.23,4.716,0.38,9.433,0.496,14.153c0.065,2.673,0.089,5.347,0.102,8.021c-3.157,0.003-6.312,0.036-9.466,0.199
		c-0.17-6.761-0.514-15.238-0.798-20.309c-0.155-2.775-4.484-2.79-4.328,0c0.353,6.302,0.801,17.889,0.889,24.875
		c-9.916-0.037-19.831-0.193-29.747-0.227c-0.031-6.96-0.162-18.162-0.174-24.288c-0.005-2.791-4.333-2.791-4.328,0
		c0.009,4.56,0.084,11.939,0.135,18.284c-3.497,0.161-6.997,0.197-10.497,0.203c-0.489-9.718-0.113-19.432,0.081-29.156
		c0.881-1.817,2.274-3.14,4.211-3.778c6.137-0.647,12.306-0.912,18.474-1.002c6.191-0.09,12.383,0.003,18.573,0.068
		c2.2,0.023,4.399-0.006,6.599-0.017c0.605-1.165,1.416-1.732,2.116-2.001c-0.943-0.44-1.642-1.293-2.117-2.357
		c-1.465,0.031-2.931,0.082-4.379,0.069c-3.185-0.029-6.369-0.071-9.553-0.099c-6.372-0.056-12.748-0.054-19.115,0.232
		c-3.574,0.161-7.145,0.409-10.703,0.787c-0.273-0.031-0.57-0.009-0.891,0.089c-3.094,0.945-5.72,3.069-7.063,6.044
		c-0.124,0.275-0.204,0.56-0.239,0.844c-0.141,0.274-0.23,0.594-0.237,0.969c-0.203,10.345-0.633,20.677,0,31.016
		c0.055,0.89,0.54,1.492,1.165,1.813c0.32,0.304,0.758,0.506,1.329,0.506c4.094,0,8.186-0.018,12.275-0.207
		c0.009,1.373,0.015,2.647,0.017,3.746c0.001,0.382,0.088,0.706,0.228,0.984c0.246,0.702,0.852,1.263,1.82,1.264
		c11.573,0.013,23.145,0.238,34.718,0.252c1.811,0.002,2.354-1.952,1.639-3.138c-0.004-0.457-0.01-0.942-0.017-1.445
		c3.314-0.169,6.631-0.196,9.951-0.197c0.524,0,0.937-0.169,1.25-0.431c1.189,0.177,2.529-0.509,2.526-2.063
		c-0.014-6.773-0.285-13.524-0.495-20.292C70.688,62.998,70.662,61.338,70.611,59.678z"/>
	<path style="fill:#1E1E1C;" d="M59.378,32.871c0.198,0.1,0.429,0.161,0.701,0.161c0.074,0,0.151-0.005,0.231-0.014
		c4.024-0.482,28.808-0.731,32.853-0.969c2.464-0.145,1.63-3.207,1.647-4.734c0.019-1.68,0.941-4.621-1.901-4.621c0,0,0,0,0,0
		c-4.12,0-28.973,0.018-33.094,0.242c-2.281,0.124-1.739,2.536-1.593,4.108C58.391,28.86,57.302,31.821,59.378,32.871z
		 M91.302,26.33c0,0-0.428,1.201,0.073,2.194c-2.855,0.174-26.449,0.374-29.293,0.669c0.03-1.707-0.41-2.704-0.41-2.704
		C64.634,26.37,88.338,26.336,91.302,26.33z"/>
	<path style="fill:#1E1E1C;" d="M93.363,35.483c-4.116-0.224-28.974-0.242-33.095-0.242c-2.933,0-3.201,6.485-1.447,8.649
		c0.33,0.407,0.724,0.679,1.193,0.706c0.744,0.044,2.195,0.088,4.085,0.134c8.382,0.204,25.484,0.442,28.768,0.835
		c0.08,0.01,0.157,0.014,0.231,0.014c0.271,0,0.502-0.061,0.7-0.161c0.837-0.423,1.106-1.003,1.153-1.667
		c0.063-0.885-0.269-1.919-0.173-2.926c0.119-1.253,0.935-3.212,0.114-4.359C94.626,35.936,94.118,35.524,93.363,35.483z
		 M91.095,41.741c-2.845-0.295-26.438-0.495-29.294-0.669c0.502-0.992,0.073-2.194,0.073-2.194c2.964,0.006,26.668,0.04,29.63,0.159
		C91.505,39.037,91.065,40.033,91.095,41.741z"/>
	<path style="fill:#1E1E1C;" d="M94.204,48.335c-0.293-0.327-0.723-0.546-1.295-0.546c0,0,0,0,0,0
		c-2.847,0-15.59,0.009-24.556,0.088c-4.011,0.035-7.268,0.085-8.541,0.154c-0.259,0.014-0.483,0.107-0.693,0.231
		c-2.292,1.359-1.712,8.708,0.258,9.704c0.198,0.1,0.429,0.161,0.701,0.161c0.074,0,0.151-0.005,0.231-0.014
		c0.949-0.114,3.062-0.214,5.777-0.305c1.353-0.045,2.853-0.088,4.441-0.128c8.738-0.223,20.02-0.381,22.635-0.536
		c2.656-0.157,1.636-4.992,1.982-6.814C95.321,49.406,94.851,48.702,94.204,48.335z M70.25,54.024
		c-1.627,0.032-3.124,0.066-4.393,0.101c-1.847,0.051-3.216,0.105-3.775,0.163c0.03-1.707-0.41-2.704-0.41-2.704
		c0.564-0.023,1.883-0.042,3.664-0.059c1.296-0.012,2.841-0.023,4.52-0.033c8.133-0.047,19.457-0.063,21.446-0.067
		c0,0-0.428,1.201,0.073,2.194C89.468,53.736,78.3,53.864,70.25,54.024z"/>
</g>
</svg>
