<?xml version="1.0" encoding="iso-8859-1"?>
<!-- Generator: Adobe Illustrator 17.0.2, SVG Export Plug-In . SVG Version: 6.00 Build 0)  -->
<!DOCTYPE svg PUBLIC "-//W3C//DTD SVG 1.1//EN" "http://www.w3.org/Graphics/SVG/1.1/DTD/svg11.dtd">
<svg version="1.1" id="Capa_1" xmlns="http://www.w3.org/2000/svg" xmlns:xlink="http://www.w3.org/1999/xlink" x="0px" y="0px"
	 width="100px" height="100px" viewBox="0 0 100 100" style="enable-background:new 0 0 100 100;" xml:space="preserve">
<g>
	<path style="fill:#1E1E1C;" d="M25.642,44.364c2.719,1.927,5.795,2.945,8.897,2.945c4.063,0,8.066-1.709,11.27-4.813
		c0.858-0.831,1.754-1.8,1.994-2.087c0.099-0.119,0.191-0.258,0.273-0.411c3.075-5.81,2.562-11.819-1.408-16.486
		c-0.946-1.112-1.784-2.054-2.086-2.345c-0.149-0.143-0.331-0.271-0.542-0.379c-2.769-1.424-5.573-2.146-8.332-2.146
		c-3.793,0-7.456,1.345-10.886,3.999c-0.149,0.115-0.276,0.239-0.377,0.369c-0.246,0.317-1.041,1.403-1.747,2.44
		C18.143,32.129,19.354,39.907,25.642,44.364z M27.494,26.216c0.067-0.071,0.127-0.145,0.181-0.22
		c0.283-0.392,1.345-1.286,2.526-1.879c2.662-1.338,5.641-1.625,8.607-0.834c1.396,0.372,3.326,1.564,4.301,2.657
		c2.516,2.818,3.311,6.099,2.297,9.489c-0.357,1.192-0.977,2.383-1.23,2.647c-2.293,3.083-5.521,4.763-9.12,4.763
		c-4.392,0-8.56-2.558-10.136-6.22C24.072,34.647,23.277,30.671,27.494,26.216z"/>
	<path style="fill:#1E1E1C;" d="M66.153,28.762c2.036,1.442,4.342,2.205,6.668,2.205c3.044,0,6.041-1.278,8.438-3.6
		c0.646-0.625,1.297-1.331,1.48-1.55c0.084-0.101,0.161-0.216,0.228-0.342c2.305-4.355,1.918-8.862-1.063-12.366
		c-0.698-0.821-1.32-1.52-1.547-1.739c-0.125-0.121-0.278-0.228-0.454-0.318c-2.066-1.063-4.161-1.602-6.225-1.602
		c-2.838,0-5.576,1.004-8.137,2.985c-0.125,0.097-0.232,0.202-0.318,0.313c-0.182,0.234-0.769,1.036-1.292,1.803
		C60.513,19.567,61.426,25.411,66.153,28.762z M67.819,15.406c0.058-0.061,0.108-0.123,0.153-0.186
		c0.17-0.235,0.907-0.875,1.77-1.307c1.904-0.956,4.031-1.161,6.154-0.595c0.987,0.263,2.352,1.106,3.044,1.88
		c1.816,2.034,2.367,4.303,1.637,6.744c-0.277,0.925-0.72,1.715-0.848,1.849c-1.658,2.225-3.961,3.425-6.527,3.425
		c-3.134,0-6.106-1.82-7.227-4.425C65.374,21.396,64.814,18.581,67.819,15.406z"/>
	<path style="fill:#1E1E1C;" d="M94.625,37.637c-0.03-0.265-0.116-0.521-0.259-0.762c-1.556-2.64-4.223-3.956-7.434-3.563
		c-0.011,0.001-0.022,0.003-0.032,0.005c-0.045-0.005-0.091-0.009-0.14-0.009c-2.346,0-4.697-0.026-7.049-0.052
		c-2.359-0.026-4.72-0.052-7.079-0.052c-4.354,0-10.088,0.078-15.858,0.688c-0.234-0.019-0.485,0.008-0.731,0.083
		c-2.244,0.685-4.054,2.236-4.966,4.256c-0.09,0.199-0.152,0.406-0.186,0.615c-0.109,0.239-0.167,0.5-0.172,0.776
		c-0.023,1.198-0.052,2.396-0.08,3.593c-0.041,1.74-0.076,3.503-0.103,5.272c0.165,0.001,0.331,0.003,0.496,0.004
		c0.168,0.001,0.336,0.003,0.504,0.005c0.619,0.006,1.237,0.016,1.855,0.029c0.166,0.004,0.332,0.013,0.497,0.017
		c0.167,0.004,0.335,0.012,0.502,0.017c0.026-1.831,0.063-3.655,0.104-5.455c0.025-1.083,0.05-2.167,0.072-3.25
		c0.534-1.049,1.336-1.762,2.385-2.121c5.707-0.599,11.388-0.676,15.704-0.676c2.353,0,4.707,0.026,7.059,0.052
		c2.311,0.026,4.621,0.048,6.866,0.048c0.148,0.018,0.308,0.022,0.478,0c0.291-0.035,0.573-0.055,0.845-0.055
		c1.448,0,2.445,0.547,3.138,1.722c0.036,0.061,0.074,0.117,0.113,0.17c0.491,6.414,0.752,13.058,0.798,20.29
		c-1.609,0.004-3.429,0.023-5.25,0.105c-0.11-4.138-0.322-9.469-0.513-12.891c-0.068-1.213-1.06-1.848-2.006-1.848
		c-0.543,0-1.05,0.206-1.389,0.564c-0.328,0.347-0.486,0.81-0.457,1.339c0.228,4.068,0.507,11.263,0.578,15.867
		c-3.057-0.014-6.114-0.043-9.171-0.072c-2.133-0.021-4.266-0.035-6.4-0.05c0.018,0.167,0.035,0.334,0.052,0.502
		c0.016,0.166,0.029,0.333,0.043,0.5c0.047,0.551,0.085,1.103,0.113,1.657c0.008,0.167,0.02,0.333,0.027,0.5
		c0.007,0.167,0.01,0.333,0.016,0.5c2.052,0.016,4.105,0.023,6.158,0.044c3.816,0.039,7.631,0.078,11.447,0.083h0.003
		c0.664,0,1.223-0.315,1.533-0.865c0.31-0.549,0.323-1.268,0.043-1.833l-0.004-0.346c2.068-0.093,4.126-0.106,6.054-0.106
		c0.356,0,0.685-0.093,0.964-0.269c0.034,0.001,0.068,0.002,0.102,0.002c0.539,0,1.051-0.202,1.403-0.556
		c0.341-0.342,0.521-0.799,0.52-1.323c-0.016-7.88-0.289-15.125-0.833-22.147C94.957,38.27,94.833,37.925,94.625,37.637z
		 M86.77,33.808l0,0.001l0,0V33.808z"/>
	<path style="fill:#1E1E1C;" d="M61.365,50.153c0.695,0.477,1.315,1.009,1.865,1.592c0.169,0.179,0.348,0.353,0.504,0.541
		c0.181,0.218,0.341,0.45,0.506,0.679c-0.02-2.346-0.036-4.553-0.039-6.201c-0.004-1.928-2.353-2.303-3.333-1.322
		c-0.341,0.342-0.521,0.8-0.52,1.324c0.002,0.803,0.006,1.742,0.013,2.762c0.172,0.095,0.338,0.193,0.502,0.294
		C61.035,49.928,61.2,50.04,61.365,50.153z"/>
	<path style="fill:#1E1E1C;" d="M64.664,67.194c-0.01-0.419-0.021-0.838-0.032-1.256c-0.005-0.167-0.009-0.334-0.014-0.5
		c-0.005-0.167-0.015-0.333-0.021-0.5c-0.02-0.553-0.039-1.106-0.069-1.658c-0.009-0.167-0.026-0.333-0.036-0.5
		c-0.01-0.168-0.026-0.335-0.037-0.502c-0.03-0.425-0.054-0.851-0.095-1.275c-0.015-0.16-0.039-0.324-0.056-0.486
		c-0.084-0.78-0.189-1.575-0.367-2.356c-0.044-0.195-0.103-0.386-0.156-0.578c-0.138-0.498-0.301-0.986-0.512-1.452
		c-0.27-0.596-0.604-1.159-1.032-1.665c-0.238-0.282-0.53-0.547-0.842-0.802c-0.162-0.133-0.326-0.265-0.503-0.389
		c-0.162-0.113-0.331-0.221-0.503-0.326c-0.359-0.219-0.735-0.42-1.124-0.598c-0.62-0.285-1.261-0.507-1.89-0.662
		c-0.462-0.114-0.917-0.199-1.344-0.229c-0.551-0.038-1.106-0.051-1.663-0.06c-0.164-0.003-0.328-0.01-0.492-0.01
		c-0.17-0.001-0.34,0.004-0.51,0.004c-0.62,0.003-1.239,0.009-1.86,0.024c-0.166,0.004-0.333,0.008-0.499,0.012
		c-0.167,0.004-0.334,0.008-0.501,0.012c-0.827,0.019-1.652,0.035-2.47,0.028c-1.436-0.013-2.872-0.029-4.309-0.044
		c-1.423-0.016-2.845-0.031-4.268-0.044c-5.72-0.05-11.445-0.049-17.161,0.208c-3.209,0.144-6.414,0.368-9.609,0.707
		c-0.245-0.028-0.512-0.008-0.8,0.08c-2.778,0.848-5.136,2.756-6.342,5.426c-0.111,0.247-0.183,0.503-0.214,0.758
		c-0.126,0.246-0.207,0.534-0.213,0.87c-0.182,9.288-0.568,18.564,0,27.846c0.049,0.799,0.485,1.34,1.046,1.627
		c0.287,0.273,0.681,0.454,1.194,0.454c3.675,0,7.349-0.016,11.021-0.186c0.008,1.232,0.013,2.376,0.015,3.363
		c0.001,0.343,0.079,0.634,0.205,0.883c0.221,0.63,0.765,1.133,1.634,1.134c10.39,0.012,20.779,0.214,31.169,0.226
		c1.625,0.002,2.114-1.753,1.472-2.817c-0.003-0.41-0.009-0.846-0.015-1.297c2.976-0.152,5.953-0.176,8.934-0.177
		c0.47,0,0.841-0.152,1.122-0.387c1.068,0.158,2.271-0.457,2.268-1.853c-0.013-6.081-0.256-12.142-0.444-18.218
		C64.707,69.085,64.686,68.14,64.664,67.194z M52.783,87.053c-0.152-6.07-0.461-13.68-0.716-18.233
		c-0.139-2.491-4.026-2.505-3.885,0c0.316,5.658,0.719,16.06,0.798,22.332c-8.902-0.034-17.804-0.173-26.706-0.204
		c-0.028-6.248-0.146-16.305-0.156-21.805c-0.005-2.505-3.891-2.506-3.886,0c0.008,4.094,0.075,10.718,0.121,16.415
		c-3.14,0.144-6.281,0.177-9.424,0.182C8.489,77.016,8.827,68.295,9,59.565c0.791-1.631,2.041-2.819,3.781-3.392
		c5.509-0.581,11.048-0.819,16.586-0.899c3.496-0.051,6.993-0.035,10.489-0.003c2.062,0.019,4.124,0.042,6.185,0.063
		c1.499,0.016,2.998,0.004,4.497-0.008c0.165-0.001,0.33-0.002,0.496-0.003c0.168-0.001,0.336-0.002,0.504-0.003
		c0.546-0.003,1.091-0.009,1.637-0.009c0.073,0,0.147,0,0.22-0.001c0.17,0,0.339-0.001,0.511-0.002c0.163,0,0.328,0.002,0.493,0.003
		c0.733,0.007,1.471,0.052,2.175,0.204c0.822,0.178,1.595,0.503,2.236,1.13c0.342,0.335,0.602,0.686,0.811,1.052
		c0.122,0.213,0.225,0.431,0.311,0.656c0.061,0.159,0.114,0.322,0.159,0.487c0.045,0.164,0.083,0.331,0.116,0.501
		c0.08,0.423,0.129,0.865,0.154,1.333c0.006,0.103,0.013,0.206,0.019,0.309c0.01,0.166,0.021,0.333,0.031,0.499
		c0.01,0.169,0.021,0.338,0.032,0.507c0.005,0.089,0.011,0.178,0.017,0.266c0.05,0.795,0.095,1.589,0.146,2.384
		c0.048,0.753,0.097,1.506,0.135,2.26c0.001,0.021,0.003,0.042,0.004,0.064c0.207,4.234,0.342,8.469,0.445,12.706
		c0.059,2.4,0.08,4.801,0.092,7.201C58.447,86.876,55.614,86.906,52.783,87.053z"/>
</g>
</svg>
