<?xml version="1.0" encoding="iso-8859-1"?>
<!-- Generator: Adobe Illustrator 17.0.2, SVG Export Plug-In . SVG Version: 6.00 Build 0)  -->
<!DOCTYPE svg PUBLIC "-//W3C//DTD SVG 1.1//EN" "http://www.w3.org/Graphics/SVG/1.1/DTD/svg11.dtd">
<svg version="1.1" id="Capa_1" xmlns="http://www.w3.org/2000/svg" xmlns:xlink="http://www.w3.org/1999/xlink" x="0px" y="0px"
	 width="100px" height="100px" viewBox="0 0 100 100" style="enable-background:new 0 0 100 100;" xml:space="preserve">
<g>
	<path style="fill:#1D1D1B;" d="M87.333,11.667c-1.236,0-2.328,0.573-3.061,1.454C84.037,13.05,83.786,12.999,83.5,13
		c-7.27,0.017-18.53,0.235-25.788,0.633c0-0.459,0.007-0.919,0.038-1.383c0.041-0.617-0.112-1.113-0.384-1.492
		C57,10.042,56.298,9.506,55.25,9.5c-2.879-0.016-5.741-0.204-8.585-0.661c-1.479-0.238-2.554,0.699-2.958,1.81
		c-0.322,0.391-0.512,0.918-0.456,1.6c0.021,0.259,0.015,0.518,0.024,0.778C43.182,13.019,43.097,13,43,13
		c-8.086-0.019-20.168-0.255-28.25-0.5c-0.283-0.009-0.533,0.034-0.766,0.097c-0.719-1.064-1.936-1.764-3.317-1.764
		c-2.209,0-4,1.791-4,4c0,2.209,1.791,4,4,4c1.278,0,2.402-0.61,3.134-1.542c0.279,0.119,0.591,0.198,0.949,0.209
		C22.832,17.745,34.914,17.981,43,18c0.075,0,0.139-0.015,0.211-0.02c0.004,0.423,0.004,0.847,0.039,1.27
		c0.085,1.035,0.661,2.098,1.739,2.38C32.613,32.713,17.188,47.355,19.643,64.876c1.353,9.66,10.725,17.249,19.307,20.42
		C49.31,89.124,61.183,87.841,72,88.25c0.043,0.002,0.078-0.007,0.12-0.007C72.092,88.828,72.054,89.414,72,90
		c-0.066,0.711,0.278,1.357,0.799,1.816c0.335,0.807,1.062,1.434,2.201,1.434h8.25c0.256,0,0.484-0.041,0.7-0.099
		c1.251,0.005,2.436-0.792,2.3-2.401c-0.225-2.664-0.25-5.329-0.25-8c0-0.66-0.216-1.177-0.549-1.567
		c-0.335-0.806-1.062-1.433-2.201-1.433H76c-0.091,0-0.171,0.017-0.257,0.025c-0.081-0.008-0.16-0.025-0.243-0.025h-1
		c-0.369,0-0.719,0.089-1.037,0.238c-0.888,0.278-1.569,1.023-1.463,2.262c0.029,0.337,0.044,0.673,0.066,1.009
		c-0.023-0.001-0.042-0.008-0.066-0.009c-16.442-0.621-43.163,1.851-47.536-19.703c-1.664-8.201,4.182-16.78,8.969-22.824
		c5.323-6.722,11.739-12.548,18.109-18.252c1.393,0.029,2.779-0.056,4.122-0.309c0.82-0.155,1.551-0.96,1.746-1.746
		c0.148-0.596,0.231-1.189,0.285-1.781C64.958,18.236,76.225,18.017,83.5,18c0.196,0,0.378-0.021,0.55-0.056
		c0.722,1.039,1.921,1.722,3.283,1.722c2.209,0,4-1.791,4-4C91.333,13.458,89.542,11.667,87.333,11.667z M77.133,84.75h3.88
		c0.012,1.167,0.032,2.334,0.084,3.5h-3.978C77.176,87.083,77.17,85.917,77.133,84.75z M52.817,17.508
		c-1.51,0.082-3.1-0.077-4.61-0.329c0.021-1.038,0.081-2.076,0.092-3.115c1.484,0.173,2.971,0.303,4.464,0.371
		C52.81,15.463,52.879,16.491,52.817,17.508z"/>
</g>
</svg>
