<?xml version="1.0" encoding="utf-8"?>
<!-- Generator: Adobe Illustrator 17.0.2, SVG Export Plug-In . SVG Version: 6.00 Build 0)  -->
<!DOCTYPE svg PUBLIC "-//W3C//DTD SVG 1.1//EN" "http://www.w3.org/Graphics/SVG/1.1/DTD/svg11.dtd">
<svg version="1.1" id="Capa_1" xmlns="http://www.w3.org/2000/svg" xmlns:xlink="http://www.w3.org/1999/xlink" x="0px" y="0px"
	 width="100px" height="100px" viewBox="0 0 100 100" enable-background="new 0 0 100 100" xml:space="preserve">
<g>
	<path fill="#1D1D1B" d="M92.732,29.566c-3.337,2.579-6.909,4.828-10.492,7.053c-0.019-4.457-0.074-8.913-0.24-13.368
		c-0.009-0.249-0.056-0.471-0.119-0.681c-0.173-1.082-0.967-2.054-2.381-2.069C59.164,20.283,24.75,20.976,4.415,21
		c-3.169,0.004-3.216,4.824-0.154,4.985c-0.265,3.257-0.614,6.506-0.846,9.765c-0.036,0.51,0.069,0.929,0.256,1.277
		C3.279,48.962,4.019,60.894,3.915,72.833c-0.008,0.902,0.384,1.542,0.943,1.939c0.401,0.425,0.971,0.714,1.723,0.728
		c19.778,0.345,53.648,0.951,73.419,0c0.219-0.011,0.42-0.048,0.609-0.1c1.189-0.066,2.295-0.859,2.224-2.4
		c-0.086-1.866-0.124-3.733-0.144-5.6c3.354,2.277,6.726,4.523,10.215,6.592c0.188,0.112,0.375,0.191,0.559,0.251
		c1.438,1.286,4.312,0.715,4.203-1.743c-0.595-13.454-0.073-26.925-0.65-40.378C97.744,30.191,94.868,27.916,92.732,29.566z
		 M81.429,60.508c-1.551-1.054-3.035-0.038-3.498,1.351c-0.163,0.321-0.264,0.698-0.264,1.141c0,2.53,0.028,5.059,0.099,7.587
		c-18.249,0.772-50.595,0.291-68.85-0.044c0.002-11.962-0.72-23.917-0.167-35.877c0.019-0.397-0.043-0.744-0.162-1.043
		c0.216-2.55,0.468-5.096,0.675-7.646c17.907-0.105,49.896-0.62,67.805-0.491c0.151,5.138,0.181,10.277,0.183,15.418
		c-0.007,0.117-0.008,0.232,0,0.348c0,0.082,0,0.164,0,0.247c0,2.765,3.67,3.151,4.717,1.173c3.431-2.155,6.866-4.286,10.193-6.587
		c0.302,10.594,0.057,21.197,0.347,31.791C88.751,65.517,85.098,63.003,81.429,60.508z"/>
</g>
</svg>
