<?xml version="1.0" encoding="utf-8"?>
<!-- Generator: Adobe Illustrator 17.0.2, SVG Export Plug-In . SVG Version: 6.00 Build 0)  -->
<!DOCTYPE svg PUBLIC "-//W3C//DTD SVG 1.1//EN" "http://www.w3.org/Graphics/SVG/1.1/DTD/svg11.dtd">
<svg version="1.1" id="Capa_1" xmlns="http://www.w3.org/2000/svg" xmlns:xlink="http://www.w3.org/1999/xlink" x="0px" y="0px"
	 width="100px" height="100px" viewBox="0 0 100 100" enable-background="new 0 0 100 100" xml:space="preserve">
<g>
	<path fill="#1D1D1B" d="M86.379,12.459C81.229,8.027,74.224,9.144,68.415,11.5c-2.857,1.159-5.424,2.809-8.167,4.188
		c-2.574,1.293-5.595,2.136-6.062,5.358c-0.5,3.451,0.771,7.619,3.338,9.984c2.264,2.087,5.316,2.759,8.343,2.778
		C63.841,46.926,61.57,60.41,55.378,72.21c-4.688-9.2-4.977-20.651-6.432-30.6c-1.491-10.193-4.108-21.943-14.021-27.115
		c-2.851-1.488-6.042,1.513-8.468,3.057c-3.256,2.072-6.42,4.286-9.672,6.365c-2.918,1.865-6.094,3.305-8.847,5.43
		c-1.244,0.961-2.792,2.142-3.521,3.579C3.26,35.206,4.64,35.63,5.457,37.528c0.408,0.947,1.275,1.674,2.625,1.662
		c5.855-0.052,11.659-0.672,17.381-1.843c0.327-0.067,5.748,23.087,6.295,25.22c2.218,8.635,5.114,16.787,9.097,24.786
		c1.71,3.435,7.275,6.332,10.954,6.317c4.993-0.02,9.693-3.236,13.451-6.21c8.679-6.869,15.135-16.055,19.454-26.191
		c2.419-5.679,4.324-11.695,5.713-17.711C92.604,34.122,94.77,19.678,86.379,12.459z M85.027,39.89
		c-1.743,9.179-5.086,18.156-9.69,26.276c-2.556,4.508-5.906,8.422-9.207,12.393c-2.521,3.032-5.443,5.626-9.061,7.254
		c-6.306,2.838-9.957,1.556-12.877-4.99c-3.119-6.99-5.605-14.555-7.337-22.006c-1-4.3-1.988-8.601-3.003-12.898
		c-0.992-4.2-2.035-8.392-3.289-12.523c-0.009-0.031-0.024-0.054-0.034-0.084c-0.328-1.528-1.691-2.882-3.654-2.411
		c-4.232,1.016-8.489,1.679-12.792,2.021c6.236-4.414,12.908-8.151,19.269-12.379c8.414,5.669,9.275,18.375,10.498,27.588
		c1.004,7.565,1.767,15.296,4.272,22.555c1.051,3.045,2.685,7.681,5.709,9.357c8.326,4.613,14.34-26.166,15.315-30.668
		c0.878-4.055,1.565-8.142,2.224-12.24c0.345-2.15,2.72-10.17-2.118-9.539c-2.466,0.322-5.197,0.59-7.411-0.761
		c-1.28-0.781-1.627-2.373-1.674-3.919c5.78-3.907,16.882-11.286,22.892-5.369C88.216,22.623,86.195,33.733,85.027,39.89z"/>
</g>
</svg>
