<?xml version="1.0" encoding="iso-8859-1"?>
<!-- Generator: Adobe Illustrator 17.0.2, SVG Export Plug-In . SVG Version: 6.00 Build 0)  -->
<!DOCTYPE svg PUBLIC "-//W3C//DTD SVG 1.1//EN" "http://www.w3.org/Graphics/SVG/1.1/DTD/svg11.dtd">
<svg version="1.1" id="Capa_1" xmlns="http://www.w3.org/2000/svg" xmlns:xlink="http://www.w3.org/1999/xlink" x="0px" y="0px"
	 width="100px" height="100px" viewBox="0 0 100 100" style="enable-background:new 0 0 100 100;" xml:space="preserve">
<g>
	<path style="fill:#1D1D1B;" d="M68.97,43.18c-1.192-1.802-2.453-3.609-3.673-5.356c-2.559-3.667-5.204-7.457-7.409-11.472
		c-1.737-3.161-3.033-6.615-3.854-10.268c-0.25-1.108-0.345-2.354-0.446-3.672c-0.159-2.082-0.324-4.234-1.124-5.652
		c-0.716-1.269-2.083-2.057-3.567-2.057c-1.511,0-3.319,0.892-3.447,3.402c-0.538,10.557-6.191,19.33-11.658,27.815
		c-4.733,7.347-9.628,14.943-11.104,23.615c-2.778,16.325,11.08,28.509,25.529,31.684c1.896,0.417,3.837,0.628,5.769,0.628
		c7.073,0,13.952-2.843,18.875-7.8c4.645-4.677,7.178-10.868,7.132-17.436c-0.051-7.298-4.883-14.393-9.146-20.652
		C70.199,45.01,69.567,44.083,68.97,43.18z M70.757,76.693c-4.151,5.578-12.36,7.558-18.128,7.558c-1.787,0-3.476-0.173-5.02-0.512
		c-8.523-1.873-15.291-8.181-17.66-16.459c-2.355-8.232,3.099-17.108,7.082-23.59l0.581-0.948c0.84-1.372,1.688-2.73,2.535-4.084
		c2.801-4.48,5.446-8.712,7.638-13.213l0.896-1.838l0.901,1.834c1.924,3.914,4.433,7.73,6.859,11.421
		c1.551,2.359,3.154,4.798,4.622,7.28c1.144,1.937,2.394,3.838,3.603,5.676c3.012,4.58,6.125,9.316,7.805,14.92
		C73.819,69.241,73.227,73.375,70.757,76.693z"/>
	<path style="fill:#1D1D1B;" d="M58.14,62.158c3.106,3.573,3.501,6.912-0.688,9.671c-4.267,2.811-0.283,9.708,4.019,6.875
		c3.665-2.415,6.735-5.7,7.15-10.263c0.42-4.617-1.93-8.551-4.853-11.912C60.395,52.647,54.788,58.303,58.14,62.158z"/>
</g>
</svg>
