<?xml version="1.0" encoding="iso-8859-1"?>
<!-- Generator: Adobe Illustrator 17.0.2, SVG Export Plug-In . SVG Version: 6.00 Build 0)  -->
<!DOCTYPE svg PUBLIC "-//W3C//DTD SVG 1.1//EN" "http://www.w3.org/Graphics/SVG/1.1/DTD/svg11.dtd">
<svg version="1.1" id="Capa_1" xmlns="http://www.w3.org/2000/svg" xmlns:xlink="http://www.w3.org/1999/xlink" x="0px" y="0px"
	 width="100px" height="100px" viewBox="0 0 100 100" style="enable-background:new 0 0 100 100;" xml:space="preserve">
<g>
	<path style="fill:#1D1D1B;" d="M67.787,34.091c-0.031-4.393-3.329-8.584-5.621-12.047c-1.855-2.803-3.925-5.468-5.547-8.419
		c-0.865-1.574-1.493-3.276-1.886-5.026c-0.319-1.42-0.12-3.542-0.841-4.821c-1.102-1.953-4.33-1.712-4.464,0.897
		c-0.496,9.736-9.812,16.275-11.429,25.78c-1.437,8.441,5.604,14.821,13.213,16.493C59.528,48.775,67.847,42.741,67.787,34.091z
		 M51.124,42.209c-4.074-0.895-7.363-3.953-8.498-7.917c-1.178-4.117,1.769-8.615,3.796-11.928c1.792-2.929,3.68-5.746,5.134-8.732
		c1.597,3.248,3.893,6.225,5.787,9.429c2.015,3.409,4.527,6.378,5.683,10.236C65.209,40.589,56.271,43.34,51.124,42.209z"/>
	<path style="fill:#1D1D1B;" d="M78.547,47.473c-0.865-1.574-1.493-3.276-1.886-5.026c-0.319-1.42-0.12-3.542-0.841-4.821
		c-1.102-1.953-4.33-1.712-4.464,0.897c-0.496,9.736-9.812,16.275-11.429,25.78c-1.437,8.441,5.604,14.821,13.213,16.493
		c8.315,1.827,16.635-4.207,16.575-12.857c-0.031-4.393-3.329-8.584-5.621-12.047C82.238,53.089,80.169,50.424,78.547,47.473z
		 M73.051,76.056c-4.074-0.895-7.364-3.953-8.498-7.917c-1.178-4.117,1.769-8.615,3.796-11.928c1.792-2.929,3.68-5.746,5.134-8.732
		c1.597,3.248,3.893,6.225,5.787,9.429c2.015,3.409,4.527,6.378,5.682,10.236C87.136,74.437,78.198,77.187,73.051,76.056z"/>
	<path style="fill:#1D1D1B;" d="M41.632,63.097c-0.865-1.574-1.493-3.276-1.886-5.026c-0.319-1.42-0.12-3.542-0.841-4.821
		c-1.102-1.953-4.33-1.712-4.464,0.897c-0.496,9.736-9.812,16.275-11.429,25.78c-1.437,8.441,5.604,14.821,13.213,16.493
		c8.315,1.827,16.635-4.207,16.575-12.857c-0.031-4.393-3.329-8.584-5.621-12.047C45.323,68.713,43.254,66.049,41.632,63.097z
		 M36.136,91.681c-4.074-0.895-7.364-3.953-8.498-7.917c-1.178-4.117,1.769-8.615,3.796-11.928c1.792-2.929,3.68-5.746,5.134-8.732
		c1.597,3.248,3.893,6.225,5.787,9.429c2.015,3.409,4.527,6.378,5.682,10.236C50.221,90.061,41.283,92.812,36.136,91.681z"/>
	<path style="fill:#1D1D1B;" d="M40.086,80.914c1.56,1.795,1.759,3.473-0.345,4.859c-2.144,1.412-0.142,4.878,2.019,3.454
		c1.842-1.213,3.384-2.864,3.593-5.156c0.211-2.32-0.97-4.296-2.438-5.985C41.219,76.136,38.402,78.977,40.086,80.914z"/>
	<path style="fill:#1D1D1B;" d="M77.229,65.704c1.561,1.795,1.759,3.473-0.345,4.859c-2.144,1.412-0.142,4.878,2.019,3.454
		c1.841-1.213,3.384-2.864,3.592-5.156c0.211-2.32-0.97-4.296-2.438-5.985C78.362,60.926,75.544,63.767,77.229,65.704z"/>
	<path style="fill:#1D1D1B;" d="M55.512,31.914c1.56,1.795,1.759,3.473-0.345,4.859c-2.144,1.412-0.142,4.878,2.019,3.454
		c1.842-1.213,3.384-2.864,3.593-5.156c0.211-2.32-0.97-4.296-2.438-5.985C56.645,27.136,53.828,29.977,55.512,31.914z"/>
</g>
</svg>
