<?xml version="1.0" encoding="utf-8"?>
<!-- Generator: Adobe Illustrator 17.0.2, SVG Export Plug-In . SVG Version: 6.00 Build 0)  -->
<!DOCTYPE svg PUBLIC "-//W3C//DTD SVG 1.1//EN" "http://www.w3.org/Graphics/SVG/1.1/DTD/svg11.dtd">
<svg version="1.1" id="Capa_1" xmlns="http://www.w3.org/2000/svg" xmlns:xlink="http://www.w3.org/1999/xlink" x="0px" y="0px"
	 width="100px" height="100px" viewBox="0 0 100 100" enable-background="new 0 0 100 100" xml:space="preserve">
<g>
	<path fill="#1D1D1B" d="M96.094,72.273c-13.352-9.024-29.82,5.944-41.91-3.807C66.827,63.839,72.6,45.93,70.687,32.897
		c-2.36-16.07-16.598-29.272-32.611-30.779C20.263,0.442,5.502,16.898,3.456,33.481c-2.137,17.312,11.149,31.633,26.775,36.43
		c0.056,2.397,0.204,11.437,0.378,13.829c-4.322,1.163-7.504,4.089-8.872,8.671c-0.151,0.511-0.131,0.966-0.003,1.361
		c-0.014,1.197,0.749,2.388,2.294,2.357c9.502-0.194,18.995,0.224,28.493,0.475c0.286,0.008,0.536-0.038,0.769-0.107
		c1.167-0.019,2.239-0.768,2.081-2.267c-0.588-5.571-3.72-10.051-8.969-11.61c-0.281-2.14-0.435-10.94-0.494-13.097
		c1.231,0.107,2.416,0.096,3.561-0.005c5.3,5.808,11.763,7.374,19.52,6.275c8.517-1.207,17.135-5.441,25.087-0.066
		C96.219,77.176,98.218,73.709,96.094,72.273z M47.95,88.823c0.911,0.753,1.633,1.702,1.953,2.898
		c-3.592,0.237-7.23-0.163-10.826-0.251c-1.443-0.035-11.013-1.128-11.67-0.132c0.91-1.378,2.198-2.387,3.812-2.922
		C36.801,87.585,42.412,87.801,47.95,88.823z M48.061,65.027c-2.07,0.338-6.955-0.699-6.938,2.609
		c0.022,3.964,0.148,7.933,0.362,11.892c0.098,1.813,0.04,3.312,0.368,4.543c-2.193-0.138-4.389-0.152-6.591-0.03
		c0.84-5.173-0.303-13.718-0.313-15.693c-0.001-0.197-0.022-0.381-0.061-0.553c-0.062-0.871-0.578-1.688-1.682-1.974
		C19.068,62.151,7.88,50.848,8.057,35.676C8.227,21.029,21.321,7.08,36.008,6.789C49.523,6.522,61.15,17.549,65.092,29.807
		c3.508,10.909,0.1,29.325-11.746,33.917C51.65,64.381,49.851,64.734,48.061,65.027z"/>
	<path fill="#1D1D1B" d="M57.16,23.423c-7.029-10.166-21.565-11.21-32.038-5.926c-0.207,0.073-0.416,0.17-0.627,0.304
		c-0.038,0.024-0.07,0.051-0.107,0.075c-1.055,0.573-2.065,1.21-3.015,1.912c-0.525,0.387-0.856,0.866-1.042,1.375
		c-7.151,7.189-8.416,17.946-3.176,27.32c6.575,11.765,22.07,14.266,32.963,7.399C61.164,48.92,64.59,34.164,57.16,23.423z
		 M48.747,49.856c-7.786,7.02-20.011,5.033-26.005-3.17c-5.757-7.878-3.605-18.508,4.332-23.778
		c7.438-3.994,17.228-4.221,23.706,1.709C58.739,31.902,55.913,43.394,48.747,49.856z"/>
	<path fill="#1D1D1B" d="M49.669,29.206c-0.088-0.138-0.162-0.282-0.257-0.418c-4.255-6.153-13.054-6.786-19.392-3.587
		c-0.125,0.044-0.252,0.103-0.379,0.184c-0.023,0.014-0.043,0.031-0.065,0.046c-0.639,0.347-1.25,0.732-1.825,1.157
		c-0.317,0.234-0.519,0.524-0.631,0.832c-4.328,4.351-5.094,10.862-1.922,16.537c3.979,7.121,13.358,8.635,19.952,4.479
		c6.016-3.792,8.279-11.398,5.401-17.622C50.534,30.114,50.17,29.56,49.669,29.206z M42.094,27.977
		c0.16-0.119,0.287-0.253,0.4-0.392c1.099,0.451,2.134,1.081,3.056,1.925c0.388,0.355,0.718,0.73,1.022,1.115
		c-0.365,1.778-1.018,3.784-2.458,4.619c-0.167,0.097-0.237,0.12-0.646,0.217c0.047-0.011-0.675,0.006-0.466,0.034
		c-0.828-0.113-0.979-0.225-1.671-0.695c-0.781-0.53-1.481-1.838-1.538-2.836C39.708,30.483,40.704,29.006,42.094,27.977z
		 M44.319,44.787c-4.713,4.249-12.112,3.047-15.74-1.919c-3.484-4.769-2.183-11.203,2.622-14.393
		c1.992-1.07,4.263-1.691,6.516-1.742c-1.143,1.404-1.884,3.059-1.929,5.013c-0.059,2.53,1.361,4.928,3.361,6.389
		c1.925,1.406,4.437,1.735,6.613,0.742c1.105-0.504,1.975-1.302,2.661-2.255C48.242,39.645,46.674,42.664,44.319,44.787z"/>
</g>
</svg>
