<?xml version="1.0" encoding="iso-8859-1"?>
<!-- Generator: Adobe Illustrator 17.0.2, SVG Export Plug-In . SVG Version: 6.00 Build 0)  -->
<!DOCTYPE svg PUBLIC "-//W3C//DTD SVG 1.1//EN" "http://www.w3.org/Graphics/SVG/1.1/DTD/svg11.dtd">
<svg version="1.1" id="Capa_1" xmlns="http://www.w3.org/2000/svg" xmlns:xlink="http://www.w3.org/1999/xlink" x="0px" y="0px"
	 width="100px" height="100px" viewBox="0 0 100 100" style="enable-background:new 0 0 100 100;" xml:space="preserve">
<g>
	<path style="fill:#1D1D1B;" d="M53.998,42.599c-1.725-0.652-3.58-0.7-5.555-0.138c-0.612-0.201-1.268-0.146-1.878,0.16
		c-3.797,1.9-7.187,6.026-5.654,10.598c1.3,3.879,5.604,5.256,8.895,5.256c0,0,0,0,0,0c1.312,0,2.593-0.204,3.707-0.589
		c2.364-0.818,4.482-2.74,5.527-5.016c0.876-1.908,0.959-3.875,0.241-5.69C58.471,45.134,56.743,43.635,53.998,42.599z
		 M45.543,51.513c-0.299-0.892,0.009-1.827,0.916-2.779c0.219-0.062,0.418-0.147,0.604-0.259c1.068-0.64,2.906-1.387,4.574-1.387
		c1.538,0,2.567,0.631,3.059,1.875c0.233,0.588,0.204,1.207-0.086,1.838c-0.557,1.213-1.903,2.144-2.919,2.495
		c-0.527,0.182-1.209,0.282-1.921,0.282C48.14,53.578,46.054,53.037,45.543,51.513z"/>
	<path style="fill:#1D1D1B;" d="M73.598,34.218c-0.505-1.29-1.634-1.794-2.687-1.724c-0.395-0.01-0.811,0.076-1.237,0.318
		c-2.411,1.367-4.847,2.685-7.232,4.107c-2.936,1.751,0.703,6.597,1.295,8.865c1.053,4.031,0.399,8.278-1.716,11.788
		c-0.157,0.261-0.25,0.519-0.314,0.773c-0.138,0.152-0.241,0.337-0.357,0.51c-0.743,0.822-1.083,2.219-0.406,3.177
		c1.644,2.326,3.725,4.137,6.114,5.542c0.415,0.244,0.821,0.338,1.207,0.337c0.644,0.091,1.331-0.105,1.93-0.748
		C78.562,58.196,77.892,45.178,73.598,34.218z M67.934,61.996c-0.615-0.437-1.209-0.915-1.744-1.452
		c0.024-0.1,0.054-0.198,0.067-0.301c0.005-0.007,0.01-0.012,0.015-0.02c3.732-6.193,3.703-13.492,0.683-19.934
		c0.984-0.562,1.972-1.117,2.959-1.672C72.457,46.508,73.048,55.278,67.934,61.996z"/>
	<path style="fill:#1D1D1B;" d="M85.136,19.353c-0.456-0.01-0.937,0.076-1.43,0.318c-2.787,1.367-5.602,2.685-8.358,4.107
		c-2.543,1.313-0.348,5.209,0.538,6.636c1.876,3.021,3.264,6.022,4.244,9.5c1.796,6.375,2.095,12.491,0.132,18.89
		c-1.17,3.813-3.163,7.383-5.399,10.593c-0.182,0.261-0.289,0.519-0.363,0.773c-0.159,0.152-0.279,0.337-0.413,0.51
		c-0.859,0.822-1.251,2.219-0.469,3.177c1.9,2.326,4.305,4.137,7.066,5.542c0.48,0.244,0.949,0.337,1.395,0.337
		c0.744,0.091,1.538-0.105,2.231-0.748c17.684-16.397,12.26-39.518,3.932-57.91C87.658,19.788,86.353,19.283,85.136,19.353z
		 M81.696,73.823c-0.711-0.437-1.397-0.915-2.015-1.452c0.027-0.1,0.062-0.198,0.077-0.301c0.005-0.007,0.012-0.012,0.017-0.02
		c10.714-15.384,9.259-29.267,0.79-44.9c1.137-0.562,2.279-1.117,3.42-1.672C90.306,42.458,95.602,58.014,81.696,73.823z"/>
	<path style="fill:#1D1D1B;" d="M38.292,58.343c-0.064-0.254-0.156-0.511-0.314-0.773c-2.115-3.51-2.768-7.757-1.716-11.788
		c0.592-2.268,4.23-7.114,1.295-8.865c-2.385-1.422-4.821-2.739-7.232-4.107c-0.427-0.242-0.843-0.328-1.237-0.318
		c-1.052-0.07-2.182,0.435-2.687,1.724c-4.294,10.96-4.964,23.978,3.403,32.944c0.6,0.643,1.286,0.838,1.93,0.748
		c0.385,0.001,0.791-0.092,1.207-0.337c2.39-1.405,4.47-3.216,6.114-5.542c0.677-0.957,0.337-2.355-0.406-3.177
		C38.534,58.68,38.43,58.495,38.292,58.343z M32.066,61.996c-5.114-6.718-4.522-15.489-1.981-23.379
		c0.987,0.556,1.975,1.11,2.959,1.672c-3.02,6.442-3.049,13.741,0.683,19.934c0.005,0.007,0.01,0.012,0.015,0.02
		c0.013,0.103,0.043,0.201,0.067,0.301C33.275,61.082,32.681,61.559,32.066,61.996z"/>
	<path style="fill:#1D1D1B;" d="M25.5,70.17c-0.074-0.254-0.181-0.511-0.363-0.773c-2.236-3.21-4.229-6.78-5.399-10.593
		c-1.964-6.398-1.664-12.515,0.132-18.89c0.98-3.478,2.368-6.479,4.244-9.5c0.886-1.427,3.081-5.323,0.538-6.636
		c-2.757-1.422-5.572-2.74-8.358-4.107c-0.493-0.242-0.974-0.328-1.43-0.318c-1.217-0.07-2.521,0.435-3.105,1.724
		C3.431,39.47-1.994,62.59,15.691,78.987c0.693,0.643,1.487,0.838,2.231,0.748c0.446,0.001,0.915-0.092,1.395-0.337
		c2.762-1.405,5.166-3.216,7.066-5.542c0.782-0.957,0.39-2.355-0.469-3.177C25.779,70.507,25.66,70.321,25.5,70.17z M18.304,73.823
		c-13.907-15.809-8.61-31.365-2.29-48.345c1.141,0.556,2.283,1.11,3.42,1.672c-8.469,15.633-9.924,29.516,0.79,44.9
		c0.005,0.008,0.012,0.012,0.017,0.02c0.015,0.103,0.05,0.201,0.077,0.301C19.701,72.908,19.015,73.386,18.304,73.823z"/>
</g>
</svg>
