<?xml version="1.0" encoding="iso-8859-1"?>
<!-- Generator: Adobe Illustrator 17.0.2, SVG Export Plug-In . SVG Version: 6.00 Build 0)  -->
<!DOCTYPE svg PUBLIC "-//W3C//DTD SVG 1.1//EN" "http://www.w3.org/Graphics/SVG/1.1/DTD/svg11.dtd">
<svg version="1.1" id="Capa_1" xmlns="http://www.w3.org/2000/svg" xmlns:xlink="http://www.w3.org/1999/xlink" x="0px" y="0px"
	 width="100px" height="100px" viewBox="0 0 100 100" style="enable-background:new 0 0 100 100;" xml:space="preserve">
<g>
	<path style="fill:#1D1D1B;" d="M49.896,72.871c-0.929,0-1.84,0.146-2.708,0.435c-2.231,0.74-3.869,2.33-5.007,4.859
		c-0.718,1.596-0.774,3.326-0.167,5.146c-0.213,0.582-0.146,1.206,0.195,1.779c1.521,2.551,4.811,5.53,9.075,5.53h0
		c0.816,0,1.635-0.114,2.435-0.339c2.154-0.605,3.819-2.009,4.816-4.059c1.141-2.346,1.249-5.262,0.28-7.609
		C57.467,75.34,53.631,72.871,49.896,72.871z M53.716,84.35c-0.404,0.83-1.005,1.362-1.787,1.582
		c-1.021,0.289-2.079-0.002-3.142-0.849c-0.07-0.202-0.165-0.386-0.288-0.558c-1.006-1.407-1.858-3.627-1.354-5.174
		c0.268-0.822,0.91-1.407,1.907-1.738c0.3-0.1,0.61-0.15,0.922-0.15c1.684,0,3.349,1.507,3.924,2.903
		C54.299,81.337,54.365,83.017,53.716,84.35z"/>
	<path style="fill:#1D1D1B;" d="M69.034,63.322c-9.822-7.689-24.083-7.073-36.091-3.127c-1.413,0.464-1.965,1.502-1.889,2.469
		c-0.011,0.363,0.083,0.745,0.349,1.137c1.498,2.216,2.941,4.454,4.499,6.646c1.918,2.698,7.227-0.646,9.712-1.19
		c4.416-0.967,9.069-0.367,12.914,1.577c0.286,0.145,0.568,0.23,0.846,0.288c0.166,0.127,0.369,0.221,0.559,0.328
		c0.901,0.683,2.431,0.995,3.48,0.373c2.548-1.511,4.532-3.423,6.071-5.619c0.268-0.382,0.37-0.755,0.369-1.109
		C69.952,64.505,69.738,63.874,69.034,63.322z M61.785,67.003c-0.11-0.022-0.217-0.05-0.33-0.062
		c-0.008-0.004-0.014-0.009-0.022-0.014c-6.785-3.43-14.78-3.403-21.838-0.628c-0.616-0.904-1.223-1.812-1.832-2.72
		c8.644-2.335,18.252-2.879,25.612,1.821C62.896,65.966,62.373,66.512,61.785,67.003z"/>
	<path style="fill:#1D1D1B;" d="M18.547,46.739c-1.413,0.536-1.965,1.736-1.889,2.854c-0.011,0.419,0.083,0.861,0.349,1.314
		c1.498,2.561,2.941,5.148,4.499,7.681c1.438,2.337,5.707,0.32,7.27-0.494c3.309-1.724,6.598-2.999,10.408-3.9
		c6.984-1.65,13.685-1.926,20.694-0.121c4.177,1.076,8.088,2.907,11.605,4.962c0.286,0.167,0.569,0.265,0.846,0.333
		c0.166,0.146,0.369,0.256,0.559,0.379c0.9,0.789,2.431,1.15,3.48,0.431c2.548-1.746,4.532-3.956,6.071-6.494
		c0.268-0.441,0.37-0.872,0.369-1.282c0.099-0.684-0.115-1.413-0.819-2.05C64.026,34.101,38.697,39.086,18.547,46.739z
		 M74.74,54.606c-0.11-0.025-0.217-0.057-0.33-0.071c-0.008-0.005-0.013-0.011-0.022-0.016c-16.854-9.846-32.063-8.509-49.189-0.726
		c-0.616-1.045-1.223-2.095-1.832-3.143c18.602-5.808,35.645-10.676,52.963,2.104C75.852,53.407,75.329,54.038,74.74,54.606z"/>
	<path style="fill:#1D1D1B;" d="M53.051,16.534c-14.09,0-29.798,3.365-48.022,10.287c-2.08,0.79-2.123,2.587-2.087,3.119
		c-0.011,0.571,0.109,1.018,0.369,1.462c0.7,1.198,1.393,2.399,2.085,3.601c1.42,2.464,2.888,5.013,4.404,7.478
		c0.457,0.742,1.247,1.102,2.417,1.102c1.694,0,4.036-0.753,6.773-2.179c5.063-2.638,9.916-4.456,15.269-5.721
		c5.672-1.341,10.909-1.993,16.011-1.993c4.904,0,9.604,0.596,14.367,1.823c5.501,1.417,11.07,3.796,17.022,7.273
		c0.281,0.164,0.585,0.283,0.956,0.374l0.24,0.059l0.185,0.164c0.134,0.118,0.292,0.209,0.447,0.306l0.357,0.24
		c1.061,0.93,2.823,1.222,3.804,0.55c3.382-2.317,6.235-5.37,8.482-9.076c0.262-0.432,0.389-0.867,0.388-1.332l0.01-0.145
		c0.11-0.759-0.181-1.458-0.865-2.077C84.43,21.687,70.093,16.534,53.051,16.534z M88.964,35.167
		c-0.808,1.102-1.596,2.019-2.411,2.804l-0.391,0.376l-0.671-0.157c-0.077-0.02-0.154-0.041-0.234-0.051l-0.203-0.025l-0.261-0.157
		c-11.433-6.669-22.628-9.911-34.225-9.911c-11.051,0-22.449,2.841-35.871,8.94l-0.818,0.372l-0.457-0.774
		c-0.772-1.31-1.535-2.624-2.297-3.938l-0.982-1.691l1.196-0.374c15.698-4.901,28.757-8.651,41.981-8.651
		c13.044,0,24.634,3.874,35.431,11.841l0.802,0.592L88.964,35.167z"/>
</g>
</svg>
