<?xml version="1.0" encoding="iso-8859-1"?>
<!-- Generator: Adobe Illustrator 17.0.2, SVG Export Plug-In . SVG Version: 6.00 Build 0)  -->
<!DOCTYPE svg PUBLIC "-//W3C//DTD SVG 1.1//EN" "http://www.w3.org/Graphics/SVG/1.1/DTD/svg11.dtd">
<svg version="1.1" id="Capa_1" xmlns="http://www.w3.org/2000/svg" xmlns:xlink="http://www.w3.org/1999/xlink" x="0px" y="0px"
	 width="100px" height="100px" viewBox="0 0 100 100" style="enable-background:new 0 0 100 100;" xml:space="preserve">
<g>
	<path style="fill:#1D1D1B;" d="M95.682,19.842c1.033-1.426,0.392-4.04-1.932-4.092c-22.92-0.508-63.881-0.96-86.75,1
		c-0.471,0.04-0.865,0.193-1.198,0.408C5.091,17.53,4.548,18.225,4.5,19.25c-0.704,15.158-0.534,51.335-1,66.5
		c-0.008,0.258,0.027,0.488,0.079,0.704c0.04,0.951,0.573,1.867,1.757,2.207c22.706,6.518,64.824,1.988,87.915,0.589
		c0.759-0.046,1.333-0.367,1.734-0.82c0.77-0.338,1.336-1.058,1.266-2.18C95.304,71.114,95.05,35.736,95.682,19.842z M9.403,21.575
		c21.043-1.65,60.16-1.349,81.248-0.891c-0.117,3.169-0.199,6.752-0.25,10.562c-27.095-0.204-54.184,0.482-81.277,0.747
		C9.195,28.226,9.285,24.69,9.403,21.575z M8.537,84.347c0.277-9.816,0.31-33.983,0.504-47.353
		c27.104-0.264,54.205-0.951,81.311-0.748c-0.083,13.629,0.201,38.075,0.792,48.14C69.818,85.85,29.519,89.779,8.537,84.347z"/>
	<path style="fill:#1D1D1B;" d="M15.5,24c-3.224,0-3.224,5,0,5S18.724,24,15.5,24z"/>
	<path style="fill:#1D1D1B;" d="M24.25,23.75c-3.224,0-3.224,5,0,5S27.474,23.75,24.25,23.75z"/>
	<path style="fill:#1D1D1B;" d="M33.5,23.25c-3.224,0-3.224,5,0,5S36.724,23.25,33.5,23.25z"/>
	<path style="fill:#1D1D1B;" d="M75.25,43.75c-18.326,0.718-36.673,0.541-55,1.25c-3.213,0.124-3.226,5.125,0,5
		c18.327-0.709,36.674-0.532,55-1.25C78.463,48.624,78.476,43.624,75.25,43.75z"/>
	<path style="fill:#1D1D1B;" d="M75.25,54.75c-18.326,0.718-36.673,0.541-55,1.25c-3.213,0.124-3.226,5.125,0,5
		c18.327-0.709,36.674-0.532,55-1.25C78.463,59.624,78.476,54.624,75.25,54.75z"/>
	<path style="fill:#1D1D1B;" d="M75.25,66.75c-18.326,0.718-36.673,0.541-55,1.25c-3.213,0.124-3.226,5.125,0,5
		c18.327-0.709,36.674-0.532,55-1.25C78.463,71.624,78.476,66.624,75.25,66.75z"/>
</g>
</svg>
