<?xml version="1.0" encoding="iso-8859-1"?>
<!-- Generator: Adobe Illustrator 17.0.2, SVG Export Plug-In . SVG Version: 6.00 Build 0)  -->
<!DOCTYPE svg PUBLIC "-//W3C//DTD SVG 1.1//EN" "http://www.w3.org/Graphics/SVG/1.1/DTD/svg11.dtd">
<svg version="1.1" id="Capa_1" xmlns="http://www.w3.org/2000/svg" xmlns:xlink="http://www.w3.org/1999/xlink" x="0px" y="0px"
	 width="100px" height="100px" viewBox="0 0 100 100" style="enable-background:new 0 0 100 100;" xml:space="preserve">
<g>
	<path style="fill:#1E1E1C;" d="M12.333,48.167c8.714,0.646,17.432,1.142,26.167,1.333c0.309,0.007,0.577-0.045,0.826-0.122
		c1.137-0.112,2.134-0.896,2.007-2.378c-0.751-8.818-0.544-17.663-0.833-26.5c-0.146-4.457-7.714-0.846-9.8-0.276
		C24.615,21.889,18.425,23.188,12.167,24c-0.686,0.089-1.214,0.402-1.604,0.822C9.944,25.211,9.5,25.877,9.5,26.833v18
		c0,0.688,0.235,1.22,0.594,1.614C10.402,47.335,11.148,48.079,12.333,48.167z M14.5,28.672c7.145-1.043,14.153-2.606,21.092-4.628
		c0.141,6.799,0.109,13.599,0.555,20.386c-7.224-0.204-14.438-0.6-21.646-1.113V28.672z"/>
	<path style="fill:#1E1E1C;" d="M47.667,49.333c8.966,0.182,18.061,0.946,27.062,1.594c2.195,0.158,4.359,0.564,6.547,0.773
		c1.568,0.15,3.092-0.579,3.058-2.367c-0.271-14.093-0.549-26.06-0.5-40.167c0.007-1.822-1.587-2.613-2.976-2.376
		c-0.359-0.008-0.735,0.055-1.119,0.217c-10.572,4.471-23.099,7.022-34.236,9.915c-1.592,0.413-2.021,1.871-1.649,3.092
		c-0.018,0.154-0.029,0.313-0.02,0.485c0.494,8.382,0.492,16.797,1.167,25.167c0.029,0.362,0.126,0.677,0.263,0.957
		C45.19,47.924,45.987,49.299,47.667,49.333z M78.89,12.754c0.265,11.857-0.115,21.634,0.338,33.483
		c-9.772-0.645-19.527-1.54-29.318-1.838c-0.562-7.728-0.608-15.49-1.041-23.226C58.492,18.488,69.699,16.646,78.89,12.754z"/>
	<path style="fill:#1E1E1C;" d="M41.667,72.5c0-0.044-0.012-0.085-0.014-0.128c0.003-0.07,0.016-0.132,0.014-0.205
		c-0.191-5.838-0.643-11.662-0.834-17.5c-0.044-1.367-0.975-2.149-2.021-2.355c-0.246-0.083-0.51-0.142-0.812-0.145
		C29.118,52.063,20.34,50.723,11.499,50c-3.317-0.271-2.032,5.162-1.948,7.13c0.056,1.33,0.095,2.66,0.105,3.991
		c0.017,1.9,0.41,3.797,0.157,5.695c-0.237,1.781-1.306,4.166,1.188,4.76c9.284,2.214,18.499,4.681,27.667,7.333
		c1.299,0.376,2.278-0.255,2.759-1.177c0.298-0.403,0.466-0.886,0.405-1.401C41.684,75.058,41.667,73.782,41.667,72.5z
		 M36.676,73.147c-7.355-2.089-14.743-4.052-22.174-5.859c0.252-4.014,0.17-8.018-0.05-12.026c7.16,0.677,14.292,1.616,21.483,1.847
		c0.219,5.021,0.566,10.035,0.731,15.058c0.002,0.052,0.015,0.095,0.02,0.145c-0.005,0.063-0.02,0.124-0.02,0.188
		C36.667,72.716,36.675,72.931,36.676,73.147z"/>
	<path style="fill:#1E1E1C;" d="M84.2,58.22c-0.175-1.094-0.965-2.116-2.367-2.22c-9.459-0.706-19.104-1.45-28.572-2.758
		c-1.963-0.271-8.077-2.621-7.928,1.258c0.323,8.386,0.499,16.776,0.667,25.167c0.036,1.811,1.635,2.606,3.014,2.38
		c10.772,2.764,21.556,5.484,32.155,8.864c1.617,0.516,2.736-0.572,3.002-1.86c0.096-0.263,0.161-0.552,0.162-0.884
		c0.042-9.614,0.596-19.221,0.167-28.833C84.48,58.903,84.37,58.536,84.2,58.22z M79.363,85.116
		c-9.389-2.876-18.904-5.296-28.414-7.735c-0.136-6.511-0.29-13.022-0.512-19.531c9.659,1.411,19.379,2.239,29.111,2.977
		C79.828,68.924,79.474,77.018,79.363,85.116z"/>
</g>
</svg>
