<?xml version="1.0" encoding="iso-8859-1"?>
<!-- Generator: Adobe Illustrator 17.0.2, SVG Export Plug-In . SVG Version: 6.00 Build 0)  -->
<!DOCTYPE svg PUBLIC "-//W3C//DTD SVG 1.1//EN" "http://www.w3.org/Graphics/SVG/1.1/DTD/svg11.dtd">
<svg version="1.1" id="Capa_1" xmlns="http://www.w3.org/2000/svg" xmlns:xlink="http://www.w3.org/1999/xlink" x="0px" y="0px"
	 width="100px" height="100px" viewBox="0 0 100 100" style="enable-background:new 0 0 100 100;" xml:space="preserve">
<g>
	<path style="fill:#1E1E1C;" d="M95.14,20.811c0.039-1.214-0.718-2.452-2.284-2.441c-28.254,0.207-56.488-0.761-84.743,0.211
		c-3.511,0.123-2.115,5.358-2.016,7.266C6.676,36.936,5.82,48.1,6.411,59.228c0.188,3.531,0.524,6.94,1.134,10.42
		c0.418,2.381-1.153,9.885,2.309,10.378c27.628,3.936,55.408-0.055,83.002-2.284c0.163-0.013,0.313-0.045,0.459-0.083
		c1.207,0.03,2.437-0.728,2.436-2.285c-0.014-14.949-0.252-40.37-0.264-53.318C95.486,21.556,95.35,21.147,95.14,20.811z
		 M10.99,23.237c26.593-0.732,53.17-0.027,79.764-0.124c0.003,1.932,0.017,1.759,0.026,3.691c-0.098-0.005-0.188-0.019-0.294-0.013
		C63.92,28.27,37.315,27.153,10.729,27.56C10.788,25.084,10.869,25.713,10.99,23.237z M10.655,32.298
		c26.611-0.41,53.24,0.711,79.831-0.769c0.113-0.006,0.213-0.031,0.318-0.049c0.015,2.211,0.035,4.421,0.054,6.632
		c-0.038,0.001-0.069-0.006-0.108-0.003c-26.631,1.818-53.318,2.595-80.008,2.109C10.668,37.579,10.639,34.939,10.655,32.298z
		 M12.635,75.647c-0.871-5.682-1.406-24.97-1.701-30.691c26.627,0.479,53.249-0.298,79.816-2.111
		c0.052-0.004,0.098-0.019,0.147-0.025c0.048,5.587,0.092,24.754,0.106,30.341C65.012,75.339,38.66,79.07,12.635,75.647z"/>
	<path style="fill:#1E1E1C;" d="M26.776,63.542c-0.211-0.129-0.466-0.211-0.776-0.209c-2.458,0.013-4.896,0.186-7.333,0.5
		c-0.905,0.117-1.378,0.865-1.42,1.587c-0.2,0.305-0.294,0.693-0.193,1.145c0.301,1.357,0.614,2.719,0.779,4.101
		c0.012,0.097,0.03,0.193,0.054,0.286c-0.024,0.768,0.456,1.552,1.446,1.548c2.391-0.011,4.777-0.155,7.167-0.167
		c0.168-0.001,0.315-0.031,0.454-0.073c0.808,0.078,1.633-0.392,1.546-1.427c-0.174-2.085-0.36-4.169-0.721-6.232
		C27.666,63.953,27.255,63.626,26.776,63.542z M20.647,69.47c-0.146-0.939-0.324-1.872-0.517-2.803
		c1.627-0.171,3.257-0.275,4.894-0.312c0.144,0.997,0.259,1.997,0.349,3.001C23.798,69.383,22.223,69.436,20.647,69.47z"/>
	<path style="fill:#1E1E1C;" d="M78.743,64.205c-6.118,3.066-13.221,2.135-19.798,1.586c-6.634-0.554-13.247-0.929-19.678,1.097
		c-1.838,0.579-1.053,3.476,0.798,2.893c13.085-4.122,27.657,3.298,40.191-2.985C81.987,65.928,80.467,63.341,78.743,64.205z"/>
</g>
</svg>
