<?xml version="1.0" encoding="utf-8"?>
<!-- Generator: Adobe Illustrator 17.0.2, SVG Export Plug-In . SVG Version: 6.00 Build 0)  -->
<!DOCTYPE svg PUBLIC "-//W3C//DTD SVG 1.1//EN" "http://www.w3.org/Graphics/SVG/1.1/DTD/svg11.dtd">
<svg version="1.1" id="Capa_1" xmlns="http://www.w3.org/2000/svg" xmlns:xlink="http://www.w3.org/1999/xlink" x="0px" y="0px"
	 width="100px" height="100px" viewBox="0 0 100 100" enable-background="new 0 0 100 100" xml:space="preserve">
<g>
	<path fill="#1D1D1B" d="M79.401,14.29c-0.332-0.92-0.822-1.849-1.543-2.779c-4.154-5.355-12.286-6.106-18.468-6.98
		C48.522,2.997,36.44,2.387,25.914,6.094c-11.245,3.96-11.484,13.727-10.313,24.038c1.147,10.095,1.484,22.361,8.251,30.556
		c3.764,4.558,10.136,8.543,15.831,10.164c0.264,0.075,0.51,0.098,0.748,0.1c1.313,0.283,2.628,0.516,3.946,0.704
		c0.123,2.035,0.256,4.069,0.415,6.101c0.113,1.436-6.802,3.139-8.071,3.911c-6.189,3.764-3.288,10.179,2.186,12.585
		c4.861,2.136,10.818,2.808,16.066,2.237c0.071-0.008,0.131-0.03,0.198-0.042c0.107,0.015,0.208,0.038,0.323,0.042
		c5.857,0.172,11.264-2.141,13.98-7.547c0.115-0.229,0.184-0.453,0.233-0.676c0.107-0.283,0.161-0.585,0.123-0.901
		c-0.365-2.99-1.364-5.72-3.696-7.74c-2.133-1.848-4.83-2.617-7.58-2.882c-0.104-1.623-0.165-3.249-0.182-4.881
		c24.576-6.908,21.622-35.654,21.622-55.916C79.995,15.245,79.76,14.699,79.401,14.29z M35.352,9.553
		c8.731-1.279,17.766-2.005,26.423,0.151c3.817,0.951,15.884,5.071,10.696,10.99c-0.014,0.016-0.028,0.031-0.042,0.047
		c-3.793,4.253-10.486,4.628-15.776,4.706c-6.636,0.098-13.286-0.214-19.89-0.864c-4.767-0.47-10.209-1.26-13.459-5.187
		C17.336,12.183,31.264,10.152,35.352,9.553z M59.311,83.285c-0.073-0.41-0.122-0.822-0.185-1.233
		c2.729,0.497,4.929,2.05,5.425,5.015c-1.966,3.217-5.154,4.303-8.963,4.211c-0.191-0.022-0.395-0.025-0.615-0.001
		c-6.173,0.672-13.039,0.573-16.462-4.944c1.62-2.016,3.921-3.169,6.557-3.396c0.072-0.006,0.134-0.027,0.203-0.038
		c0.02,0.186,0.036,0.373,0.057,0.559c0.374,3.301,5.591,3.337,5.213,0c-0.426-3.764-0.691-7.54-0.922-11.319
		c1.181,0.053,2.364,0.068,3.55,0.045c0.059,4.193,0.375,8.351,1.115,12.488C54.874,87.977,59.898,86.572,59.311,83.285z
		 M57.165,66.779c-0.121-0.005-0.237-0.016-0.368-0.004c-5.224,0.464-10.344,0.201-15.468-0.95
		c-0.148-0.033-0.287-0.042-0.427-0.053c-8.251-2.399-13.119-7.434-16.005-13.751c14.632,6.541,33.237,6.785,47.551-0.466
		C70.057,58.644,65.547,64.352,57.165,66.779z M23.422,45.69c6.936-5.069,16.282-6.771,24.651-7.122
		c8.069-0.338,18.643,0.859,24.469,7.215C58.069,54.293,37.965,53.75,23.422,45.69z M74.57,40.951
		c-6.46-5.598-15.586-7.243-24.063-7.411c-9.746-0.193-20.443,1.898-28.764,7.314c-0.827-5.272-1.024-10.828-1.094-16.17
		c4.973,2.856,12.004,3.984,16.314,4.647c10.387,1.597,21.259,0.294,31.542-1.45c2.25-0.382,4.525-1.345,6.447-2.71
		C75.063,30.29,75.093,35.726,74.57,40.951z"/>
</g>
</svg>
