<?xml version="1.0" encoding="utf-8"?>
<!-- Generator: Adobe Illustrator 17.0.2, SVG Export Plug-In . SVG Version: 6.00 Build 0)  -->
<!DOCTYPE svg PUBLIC "-//W3C//DTD SVG 1.1//EN" "http://www.w3.org/Graphics/SVG/1.1/DTD/svg11.dtd">
<svg version="1.1" id="Capa_1" xmlns="http://www.w3.org/2000/svg" xmlns:xlink="http://www.w3.org/1999/xlink" x="0px" y="0px"
	 width="100px" height="100px" viewBox="0 0 100 100" enable-background="new 0 0 100 100" xml:space="preserve">
<g>
	<path fill="#1D1D1B" d="M87.8,21.911C79.673,8.58,65.464,4.472,50.719,7.268C34.182,0.47,18.395,5.65,9.559,21.284
		c-4.098,7.251-5.968,15.66-6.501,23.904C2.191,58.598,3.802,72.776,4.938,86.143c0.038,0.447,0.194,0.814,0.414,1.113
		c0.052,0.779,0.506,1.518,1.481,1.792c11.703,3.289,23.473,4.23,35.34,1.258c0.275-0.033,0.551-0.114,0.812-0.243
		c0.256-0.127,0.517-0.243,0.776-0.362c-0.035,0.673-0.09,1.346-0.185,2.018c-0.376,2.652,3.677,3.795,4.057,1.118
		c0.454-3.201,0.412-6.306-0.065-9.456c3.985,0.578,8.057,0.71,11.885,0.658c0.498-0.007,0.902-0.156,1.217-0.392
		c0.541-0.025,1.063-0.078,1.579-0.143c0.458,3.009,1.88,5.661,3.956,7.982c1.812,2.026,4.777-0.959,2.975-2.975
		c-1.551-1.734-2.601-3.733-2.834-6.024c3.554-1.368,6.344-3.844,8.486-7.008c8.244,1.291,16.241-0.964,22.22-6.956
		c0.636-0.637,0.727-1.387,0.503-2.039c0.066-0.205,0.112-0.424,0.113-0.675C97.688,50.852,95.726,34.912,87.8,21.911z
		 M59.979,79.482c-0.469,0.006-0.85,0.143-1.157,0.355c-10.06,0.092-21.644-0.938-27.857-9.903
		c-5.322-7.678-5.774-10.434-6.26-18.366c17.329-0.519,35.669-4.699,50.369-13.765c0.013,0.112,0.024,0.225,0.056,0.343
		C78.397,50.414,77.83,79.253,59.979,79.482z M77.026,71.56c4.467-9.756,4.586-23.31,2.641-32.482
		c1.111,0.688,2.248,1.335,3.44,1.903c2.436,1.16,4.571-2.466,2.123-3.633c-2.526-1.203-4.902-2.687-7.112-4.404
		c-0.218-0.169-0.453-0.307-0.695-0.408c-0.559-0.36-1.284-0.422-2.029,0.079C60.441,42.691,41.073,47.088,22.999,47.401
		c-0.457-0.127-0.948-0.123-1.383,0.02c-1.064,0.006-2.126,0.004-3.18-0.017c-2.715-0.056-2.709,4.151,0,4.207
		c0.686,0.014,1.379,0.008,2.069,0.011c0.591,9.155,1.305,12.466,7.318,21.144c3.734,5.387,9.293,8.264,15.373,9.766
		c0.007,0.103,0.009,0.205,0.03,0.313c0.158,0.793,0.28,1.591,0.375,2.39c-0.742,0.305-1.484,0.611-2.21,0.952
		c-0.067,0.011-0.131,0.013-0.201,0.03c-10.827,2.738-21.445,1.931-32.107-0.923C8.173,74.28,7.768,63.238,7.303,52.197
		c-0.344-8.169,0.659-16.027,3.523-23.713c2.688-7.216,7.503-13.739,14.247-17.573c7.749-4.405,16.899-2.766,24.707,0.483
		c0.551,0.229,1.027,0.201,1.418,0.022c0.076-0.008,0.148-0.007,0.226-0.022C65.72,8.56,77.944,13.154,85.295,25.94
		c6.78,11.794,8.183,26.535,8.165,39.869c0,0.104,0.017,0.198,0.029,0.294C88.958,70.324,83.12,72.186,77.026,71.56z"/>
	<path fill="#1D1D1B" d="M39.996,56.169c-0.137-1.138-0.854-2.104-2.104-2.104c-1.043,0-2.24,0.962-2.104,2.104
		c0.201,1.677,0.543,3.305,0.952,4.941c0.657,2.631,4.714,1.514,4.057-1.118C40.482,58.731,40.15,57.461,39.996,56.169z"/>
	<path fill="#1D1D1B" d="M65.689,56.661c-0.305-1.262-0.482-2.535-0.626-3.823c-0.128-1.139-0.86-2.103-2.104-2.103
		c-1.05,0-2.232,0.962-2.104,2.103c0.186,1.658,0.384,3.318,0.776,4.941C62.268,60.416,66.325,59.298,65.689,56.661z"/>
	<path fill="#1D1D1B" d="M48.4,64.295c2.319,1.509,5.188,1.723,7.756,0.738c1.069-0.41,1.795-1.4,1.469-2.588
		c-0.281-1.024-1.516-1.88-2.587-1.469c-1.602,0.614-3.05,0.64-4.515-0.314C48.242,59.178,46.136,62.822,48.4,64.295z"/>
	<path fill="#1D1D1B" d="M63.225,67.477c-4.656,3.994-10.951,3.678-16.207,1.073c-2.422-1.2-4.555,2.428-2.123,3.633
		c7.066,3.501,15.13,3.566,21.305-1.731C68.262,68.683,65.272,65.721,63.225,67.477z"/>
</g>
</svg>
