<?xml version="1.0" encoding="iso-8859-1"?>
<!-- Generator: Adobe Illustrator 17.0.2, SVG Export Plug-In . SVG Version: 6.00 Build 0)  -->
<!DOCTYPE svg PUBLIC "-//W3C//DTD SVG 1.1//EN" "http://www.w3.org/Graphics/SVG/1.1/DTD/svg11.dtd">
<svg version="1.1" id="Capa_1" xmlns="http://www.w3.org/2000/svg" xmlns:xlink="http://www.w3.org/1999/xlink" x="0px" y="0px"
	 width="100px" height="100px" viewBox="0 0 100 100" style="enable-background:new 0 0 100 100;" xml:space="preserve">
<g>
	<path style="fill:#1D1D1B;" d="M70.435,13.389C61.913,8.65,51.921,7.82,42.372,7.277c-3.043-0.173-6.671,1.002-9.573,1.882
		c-3.56,1.079-6.922,2.778-9.868,5.053c-6.895,5.323-10.848,13.379-12.923,21.673C8.216,43.053,7.574,51.124,8.58,58.882
		c-0.034,0.372,0.001,0.749,0.143,1.105c1.2,7.951,4.185,15.507,9.548,21.332c17.213,18.695,52,14.13,67.514-4.317
		c9.782-11.631,9.614-27.092,3.94-40.56C85.725,26.945,79.557,18.462,70.435,13.389z M20.062,24.633
		c5.008-7.915,13.084-11.338,21.732-11.92c-5.531,3.961-9.713,9.212-12.623,15.163c-4.222,0.875-8.385,2.001-12.445,3.373
		C17.633,28.956,18.73,26.736,20.062,24.633z M13.597,56.772c-0.594-6.473-0.311-13.189,1.237-19.551
		c3.9-1.459,7.919-2.699,12.014-3.692c-3.051,9.081-3.488,19.249-1.475,28.806c-4.075-1.064-8.004-2.577-11.667-4.655
		C13.673,57.377,13.625,57.079,13.597,56.772z M37.158,86.647c-12.069-3.142-19.4-11.685-22.311-22.762
		c3.818,1.756,7.837,3.008,11.958,3.876c2.293,7.195,6.044,13.824,11.196,19.086C37.721,86.78,37.438,86.72,37.158,86.647z
		 M32.272,68.697c3.779,0.503,7.601,0.742,11.393,0.804c0.063,5.53,0.301,11.058,0.815,16.584
		C38.927,81.645,34.837,75.536,32.272,68.697z M43.654,64.56c-4.339-0.044-8.721-0.362-13.01-1.091
		c-2.593-10.291-1.985-21.616,2.033-31.176c4.045-0.738,8.142-1.233,12.249-1.466C44.41,42.074,43.724,53.32,43.654,64.56z
		 M45.138,25.829c-3.223,0.158-6.44,0.469-9.636,0.93c2.539-4.11,5.838-7.707,9.927-10.494
		C45.369,19.452,45.264,22.641,45.138,25.829z M70.86,19.481c4.478,2.905,8.074,7.127,10.873,11.868
		c-5.557-2.115-11.322-3.607-17.187-4.523c-2.801-4.832-6.236-9.312-10.018-13.288C60.274,14.516,65.834,16.22,70.86,19.481z
		 M50.424,16.486c2.87,2.958,5.478,6.161,7.735,9.572c-2.663-0.227-5.338-0.342-8.017-0.346
		C50.263,22.636,50.363,19.561,50.424,16.486z M49.93,30.677c3.795-0.015,7.583,0.202,11.334,0.668
		c3.075,5.928,5.073,12.375,5.537,19.218c0.296,4.353-0.219,8.472-1.366,12.345c-4.87,0.752-9.78,1.256-14.704,1.505
		c-0.69,0.035-1.385,0.062-2.081,0.086C48.724,53.228,49.416,41.952,49.93,30.677z M49.406,85.282
		c-0.465-5.267-0.681-10.535-0.741-15.806c4.885-0.104,9.793-0.486,14.676-1.143C60.222,74.87,55.276,80.564,49.406,85.282z
		 M74.428,80.513c-5.977,4.047-13.054,6.465-20.301,7.269c6.679-5.761,11.921-12.491,14.921-20.333
		c6.284-1.115,12.482-2.684,18.507-4.618C85.535,69.849,81.023,76.047,74.428,80.513z M88.591,57.28
		c-0.085,0.02-0.167,0.029-0.255,0.059c-5.764,1.951-11.657,3.486-17.625,4.642c0.738-3.16,1.141-6.479,1.14-9.974
		c-0.002-6.834-1.688-13.478-4.481-19.678c5.712,1.144,11.292,2.897,16.619,5.33c0.344,0.157,0.682,0.23,1.008,0.244
		c1.052,2.53,1.915,5.102,2.59,7.619C88.657,49.516,88.959,53.474,88.591,57.28z"/>
</g>
</svg>
