<?xml version="1.0" encoding="iso-8859-1"?>
<!-- Generator: Adobe Illustrator 17.0.2, SVG Export Plug-In . SVG Version: 6.00 Build 0)  -->
<!DOCTYPE svg PUBLIC "-//W3C//DTD SVG 1.1//EN" "http://www.w3.org/Graphics/SVG/1.1/DTD/svg11.dtd">
<svg version="1.1" id="Capa_1" xmlns="http://www.w3.org/2000/svg" xmlns:xlink="http://www.w3.org/1999/xlink" x="0px" y="0px"
	 width="100px" height="100px" viewBox="0 0 100 100" style="enable-background:new 0 0 100 100;" xml:space="preserve">
<g>
	<path style="fill:#1D1D1B;" d="M79.923,59.58c-2.029,0-4.181,0.383-6.296,1.113c-2.646-3-5.424-5.912-8.121-8.737
		c-2.925-3.065-5.95-6.235-8.76-9.474c-1.27-1.462-2.56-2.903-3.848-4.343c-2.987-3.335-6.075-6.785-8.79-10.415
		c-0.093-0.124-0.312-0.392-0.597-0.737c-0.386-0.467-1.409-1.705-1.917-2.429c1.82-6.425,0.445-12.3-3.826-16.215
		c-3.802-3.484-8.949-5.326-14.884-5.326c-1.054,0-2.14,0.059-3.229,0.173c-1.426,0.15-2.479,1.162-2.682,2.577
		c-0.189,1.316,0.411,2.673,1.447,3.438c0.39,0.523,0.934,0.918,1.585,1.141c2.918,0.993,5.975,2.349,6.524,4.872
		c0.389,1.787-1.677,3.577-2.319,4.083c-1.629,1.283-4.049,1.811-6.051,1.309c-3.155-0.793-4.927-4.143-5.755-6.276
		c-0.057-0.741-0.358-1.435-0.874-1.996c-0.655-0.711-1.575-1.119-2.522-1.119c-1.417,0-2.589,0.907-2.985,2.309l-0.039,0.147
		c-0.025,0.08-0.046,0.163-0.065,0.248c-2.008,7.491-0.81,14.303,3.376,19.187c2.61,3.044,6.213,4.653,10.421,4.653
		c2.014,0,4.15-0.376,6.251-1.095c2.874,3.283,5.891,6.479,8.819,9.581c2.557,2.708,5.201,5.508,7.708,8.324
		c1.006,1.131,2.019,2.252,3.031,3.372c3.394,3.758,6.904,7.643,9.989,11.745c0.093,0.123,0.31,0.387,0.594,0.729
		c0.388,0.467,1.417,1.705,1.929,2.428c-1.801,6.43-0.409,12.302,3.874,16.204c3.793,3.456,8.917,5.282,14.817,5.282
		c1.08,0,2.193-0.061,3.31-0.182c1.426-0.154,2.476-1.169,2.675-2.585c0.185-1.317-0.419-2.671-1.457-3.434
		c-0.392-0.524-0.938-0.918-1.589-1.137c-2.921-0.984-5.982-2.331-6.538-4.853c-0.395-1.786,1.666-3.582,2.307-4.09
		c1.626-1.288,4.045-1.824,6.046-1.326c3.158,0.783,4.94,4.128,5.774,6.26c0.059,0.738,0.362,1.431,0.878,1.99
		c0.654,0.709,1.573,1.115,2.519,1.115c0,0,0,0,0,0c1.421,0,2.595-0.911,2.986-2.312l0.04-0.154
		c0.024-0.079,0.046-0.161,0.064-0.245c1.987-7.498,0.769-14.308-3.432-19.179C87.702,61.179,84.11,59.58,79.923,59.58z
		 M90.36,80.099c-1.857-3.888-4.622-6.436-7.917-7.254c-3.18-0.786-6.922,0.035-9.495,2.074c-2.982,2.363-4.341,5.312-3.729,8.087
		c0.947,4.293,5.139,6.313,7.864,7.325c-5.112,0.103-9.319-1.356-12.48-4.237c-4.615-4.205-3.303-10.356-2.525-12.808
		c0.425-1.341-0.357-2.37-2.896-5.424c-0.226-0.271-0.401-0.479-0.474-0.577c-3.193-4.245-6.764-8.198-10.217-12.021
		c-1.005-1.112-2.012-2.227-3.011-3.35c-2.546-2.86-5.211-5.683-7.788-8.412C34.483,40.103,31.163,36.586,28.08,33l-0.947-1.101
		l-1.339,0.559c-2.047,0.854-4.148,1.305-6.078,1.305c-3.047,0-5.531-1.096-7.384-3.257c-3.635-4.24-3.675-9.534-3.042-13.292
		c1.847,3.893,4.603,6.449,7.896,7.275c3.177,0.8,6.922-0.014,9.501-2.045c2.989-2.355,4.356-5.3,3.751-8.077
		c-0.935-4.296-5.122-6.329-7.842-7.348c5.114-0.075,9.314,1.382,12.468,4.273c4.604,4.219,3.273,10.367,2.488,12.815
		c-0.429,1.338,0.35,2.368,2.875,5.427c0.227,0.274,0.403,0.484,0.478,0.584c2.821,3.772,5.969,7.289,9.014,10.689
		c1.275,1.424,2.551,2.85,3.808,4.297c2.872,3.309,5.93,6.513,8.887,9.612c2.978,3.121,6.058,6.349,8.913,9.649l0.95,1.098
		l1.338-0.562c2.057-0.865,4.17-1.322,6.11-1.322c3.031,0,5.506,1.089,7.357,3.235C90.928,71.044,90.983,76.339,90.36,80.099z"/>
</g>
</svg>
