<?xml version="1.0" encoding="iso-8859-1"?>
<!-- Generator: Adobe Illustrator 17.0.2, SVG Export Plug-In . SVG Version: 6.00 Build 0)  -->
<!DOCTYPE svg PUBLIC "-//W3C//DTD SVG 1.1//EN" "http://www.w3.org/Graphics/SVG/1.1/DTD/svg11.dtd">
<svg version="1.1" id="Capa_1" xmlns="http://www.w3.org/2000/svg" xmlns:xlink="http://www.w3.org/1999/xlink" x="0px" y="0px"
	 width="100px" height="100px" viewBox="0 0 100 100" style="enable-background:new 0 0 100 100;" xml:space="preserve">
<g>
	<path style="fill:#1E1E1C;" d="M80.73,28.855c-0.181-5.491-0.282-12.909-0.228-18.404c0.002-0.245-0.037-0.461-0.093-0.664
		c0.107-1.197-0.596-2.461-2.129-2.421c-19.354,0.508-38.704-0.25-58.058-0.28c-1.61-0.003-2.315,1.412-2.117,2.654
		c-0.064,0.216-0.109,0.448-0.106,0.712c0.292,23.095,1.086,56.279,1.111,79.377c0,0.518,0.147,0.939,0.382,1.272
		c0.142,0.979,0.846,1.845,2.119,1.813c8.365-0.208,16.734-0.342,25.093-0.752c7.45-0.365,16.734,0.124,23.856-2.307
		c2.521-0.861,4.776-2.134,6.71-3.977c3.534-3.369,4.741-7.892,5.045-12.658c0.292-4.577-0.247-9.379-0.354-13.597
		C81.686,48.728,81.089,39.748,80.73,28.855z M68.484,70.049c-1.362,0.008-2.678,1.071-2.069,2.705
		c1.224,3.286,1.784,7.366-0.099,10.509c-2.276,3.801-6.338,3.698-10.2,4.185c-2.362,0.298-4.873,0.14-7.253,0.207
		c-1.853,0.052-25.314,0.624-25.314,0.716c-0.055-22.233-0.79-54.553-1.087-76.784c17.868,0.077,35.733,0.691,53.601,0.309
		c-0.068,18.253,1.55,44.639,1.646,59.065c-2.772-0.875-5.637-1.244-8.595-1.046C68.883,69.929,68.678,69.982,68.484,70.049z
		 M70.23,85.245c1.794-3.058,2.242-6.81,1.309-10.877c2.161,0.084,4.292,0.501,6.31,1.356c0.008,0.025,0.015,0.052,0.023,0.077
		C77.218,80.62,74.169,83.577,70.23,85.245z"/>
	<path style="fill:#1E1E1C;" d="M36.948,49.8c1.186-1.841,2.322-3.712,3.328-5.664c1.326-2.575-2.557-4.852-3.886-2.271
		c-0.742,1.44-1.559,2.834-2.409,4.207c-0.991-1.319-1.958-2.658-2.873-4.04c-1.593-2.408-5.492-0.157-3.886,2.271
		c1.312,1.982,2.712,3.898,4.169,5.769c-1.175,1.759-2.365,3.509-3.502,5.294c-1.565,2.455,2.331,4.71,3.886,2.271
		c0.842-1.322,1.714-2.625,2.587-3.927c0.99,1.148,2.001,2.279,3.045,3.382c1.999,2.111,5.176-1.077,3.182-3.182
		C39.329,52.576,38.124,51.199,36.948,49.8z"/>
	<path style="fill:#1E1E1C;" d="M53.833,52.917c-2.019,0.108-4.03,0.05-6.038-0.117c-0.252-3.377-0.441-6.757-0.712-10.133
		c-0.231-2.872-4.732-2.895-4.5,0c0.316,3.942,0.504,7.893,0.833,11.833c0.004,0.045,0.017,0.082,0.023,0.126
		c-0.007,0.069-0.023,0.139-0.023,0.208c0,1.337,1.033,2.104,2.25,2.25c2.715,0.326,5.434,0.479,8.167,0.333
		C56.72,57.262,56.734,52.762,53.833,52.917z"/>
	<path style="fill:#1E1E1C;" d="M62.555,45.179c0.783-0.572,1.521-0.543,2.445-0.429c1.22,0.15,2.25-1.137,2.25-2.25
		c0-1.34-1.033-2.1-2.249-2.25c-4.252-0.524-10.702,5.023-5.324,8.48c0.147,0.154,0.314,0.291,0.521,0.379
		c1.68,0.717,3.383,1.131,5.207,1.17c1.103,2.334-2.384,2.288-3.781,2.489c-0.96,0.138-2.042,0.104-2.611,1.002
		c-0.705,1.112,0.067,3.002,1.389,3.233c2.863,0.499,6.978-0.036,8.829-2.583c0.379-0.522,0.645-1.125,0.801-1.767
		c0.466-1.905,0.012-4.375-1.454-5.773C66.841,45.222,64.468,46.337,62.555,45.179z"/>
</g>
</svg>
