<?xml version="1.0" encoding="iso-8859-1"?>
<!-- Generator: Adobe Illustrator 17.0.2, SVG Export Plug-In . SVG Version: 6.00 Build 0)  -->
<!DOCTYPE svg PUBLIC "-//W3C//DTD SVG 1.1//EN" "http://www.w3.org/Graphics/SVG/1.1/DTD/svg11.dtd">
<svg version="1.1" id="Capa_1" xmlns="http://www.w3.org/2000/svg" xmlns:xlink="http://www.w3.org/1999/xlink" x="0px" y="0px"
	 width="100px" height="100px" viewBox="0 0 100 100" style="enable-background:new 0 0 100 100;" xml:space="preserve">
<g>
	<path style="fill:#1E1E1C;" d="M72.758,1.892c-3.295,0-6.212,1.692-8.004,4.643c-1.757,2.892-3.524,5.979-5.233,8.964
		c-2.422,4.23-4.909,8.575-7.5,12.614C47.017,21.2,40.977,13.603,34.391,5.944c-2.312-2.688-4.892-3.252-6.648-3.252
		c-3.63,0-7.195,2.453-8.871,6.103c-1.66,3.617-1.094,7.588,1.515,10.622c7.211,8.383,15.398,18.18,21.599,28.646
		c0.003,0.526,0.005,1.059,0.008,1.596h-2.086c-6.228,0-9.485,4.891-9.485,9.722c0,3.434,1.645,6.896,4.832,8.613
		c-3.66,1.559-5.555,5.276-5.555,8.96c0,4.831,3.259,9.722,9.485,9.722h2.35c-0.009,0.651-0.018,1.225-0.028,1.404
		c-0.201,2.671,0.556,5.014,2.188,6.773c1.687,1.817,4.231,2.86,6.983,2.86c4.751,0,9.8-3.181,10.258-9.256
		c0.016-0.213,0.025-0.639,0.043-1.782h0.594c2.867,0,5.4-1.11,7.135-3.127c1.516-1.763,2.351-4.105,2.351-6.595
		c0-3.52-1.729-7.07-5.075-8.739c1.136-0.526,2.141-1.28,2.965-2.239c1.517-1.763,2.351-4.105,2.351-6.595
		c0-4.831-3.258-9.722-9.485-9.722h-0.375c-0.003-0.454-0.005-0.903-0.007-1.349c5.62-7.604,10.641-16.062,15.5-24.251
		c1.528-2.575,3.047-5.133,4.568-7.639c1.825-3.005,1.94-6.386,0.315-9.273C80.045,4.004,76.406,1.892,72.758,1.892z M77.225,13.825
		c-1.531,2.521-3.058,5.092-4.595,7.683c-4.937,8.317-10.041,16.918-15.704,24.48c-0.325,0.435-0.501,0.963-0.499,1.507
		c0.005,1.516,0.015,3.082,0.026,4.683c0.01,1.373,1.126,2.481,2.5,2.481h2.858c3.311,0,4.485,2.544,4.485,4.722
		s-1.175,4.722-4.485,4.722h-2.786c-1.379,0-2.497,1.116-2.5,2.495c-0.002,1.039-0.01,2.075-0.02,3.111
		c-0.006,0.667,0.255,1.309,0.724,1.783c0.47,0.474,1.109,0.74,1.776,0.74h2.565c3.311,0,4.485,2.544,4.485,4.722
		s-1.175,4.722-4.485,4.722h-3.048c-1.314,0-2.405,1.019-2.494,2.33c-0.015,0.207-0.03,1.138-0.044,2.092
		c-0.013,0.864-0.023,1.751-0.037,1.982c-0.275,3.658-3.442,4.634-5.271,4.634c-1.365,0-2.574-0.46-3.318-1.261
		c-0.671-0.724-0.963-1.732-0.867-2.995c0.019-0.242,0.028-0.758,0.05-2.289c0.012-0.814,0.021-1.611,0.033-1.823
		c0.047-0.691-0.194-1.37-0.667-1.877c-0.473-0.506-1.135-0.793-1.827-0.793h-4.896c-3.311,0-4.485-2.544-4.485-4.722
		c0-1.275,0.416-2.491,1.143-3.335c0.791-0.92,1.915-1.387,3.343-1.387h5.378c1.372,0,2.487-1.105,2.5-2.477
		c0.01-1.048,0.018-2.098,0.02-3.148c0.001-0.664-0.262-1.301-0.73-1.771c-0.469-0.47-1.105-0.733-1.77-0.733h-4.675
		c-3.311,0-4.485-2.544-4.485-4.722s1.175-4.722,4.485-4.722h4.603c0.666,0,1.305-0.266,1.774-0.738
		c0.469-0.473,0.73-1.113,0.726-1.779c-0.012-1.631-0.021-3.228-0.026-4.771c-0.001-0.44-0.119-0.873-0.341-1.253
		c-6.451-11.046-14.979-21.257-22.465-29.96c-1.806-2.1-1.252-4.207-0.761-5.276c0.848-1.848,2.667-3.188,4.326-3.188
		c1.033,0,1.995,0.509,2.857,1.512c7.44,8.652,14.165,17.213,19.448,24.757c0.468,0.668,1.232,1.066,2.048,1.066
		c0.004,0,0.008,0,0.013,0c0.819-0.004,1.585-0.41,2.049-1.086c3.43-5,6.618-10.571,9.703-15.958
		c1.693-2.958,3.444-6.016,5.167-8.854c0.901-1.485,2.157-2.238,3.73-2.238c1.869,0,3.802,1.113,4.698,2.706
		C78.201,10.923,78.123,12.345,77.225,13.825z"/>
</g>
</svg>
