<?xml version="1.0" encoding="utf-8"?>
<!-- Generator: Adobe Illustrator 17.0.2, SVG Export Plug-In . SVG Version: 6.00 Build 0)  -->
<!DOCTYPE svg PUBLIC "-//W3C//DTD SVG 1.1//EN" "http://www.w3.org/Graphics/SVG/1.1/DTD/svg11.dtd">
<svg version="1.1" id="Capa_1" xmlns="http://www.w3.org/2000/svg" xmlns:xlink="http://www.w3.org/1999/xlink" x="0px" y="0px"
	 width="100px" height="100px" viewBox="0 0 100 100" enable-background="new 0 0 100 100" xml:space="preserve">
<g>
	<path fill="#1D1D1B" d="M75.577,14.729c-13.1-9.202-30.617-8.247-45.665-6.213c-2.531,0.342-2.907,3.014-1.783,4.655
		C14.721,20.536,6.299,34.825,5.833,51.303c-0.666,23.57,16.47,41.892,39.442,44.722c26.793,3.3,50.043-20.618,49.556-46.699
		C94.571,35.431,86.779,22.598,75.577,14.729z M70.319,19.701c0.246-0.271,0.416-0.557,0.552-0.845
		c2.092,1.195,4.025,2.621,5.789,4.232C68.4,30.113,60.174,37.166,51.294,43.41c-0.564,0.397-0.929,0.888-1.151,1.414
		c-2.127-1.058-4.241-2.136-6.251-3.37c1.894-1.49,3.783-2.985,5.685-4.466c0.042-0.033,0.069-0.076,0.108-0.111
		c2.276,0.757,4.857,0.568,6.94-0.752c3.148-1.993,5.312-5.941,4.844-9.593c0.164-0.062,0.327-0.122,0.493-0.214
		C65.077,24.58,67.923,22.346,70.319,19.701z M49.731,24.654c2.213-0.553,4.865-0.282,6.679,1.082
		c2.132,1.604-0.521,5.568-2.091,6.562c-1.859,1.177-3.923,0.374-5.226-1.201C47.4,29.05,48.315,26.529,49.731,24.654z
		 M60.632,16.212c0.491-0.314,0.834-0.699,1.074-1.115c1.076,0.298,2.146,0.622,3.203,1.006c-1.837,1.854-3.865,3.418-6.169,4.703
		c-0.267,0.149-0.484,0.321-0.679,0.504c-1.081-0.638-2.338-1.01-3.644-1.2C56.496,18.824,58.572,17.53,60.632,16.212z
		 M52.559,13.751c-5.229,3.248-10.498,6.43-15.647,9.802C40.06,17.222,45.985,14.178,52.559,13.751z M43.973,26.592
		c-0.396,2.023-0.158,4.119,0.856,6.066c-2.066,1.612-4.12,3.241-6.183,4.858c-0.062-0.058-0.128-0.111-0.19-0.17
		c-1.674-1.604-2.653-3.334-3.064-5.164c0.169-0.079,0.338-0.164,0.508-0.281C38.551,30.069,41.252,28.315,43.973,26.592z
		 M53.648,89.753c-3.224,0.413-6.523,0.451-9.835,0.043c-19.878-2.448-32.5-20.119-31.956-39.385
		c0.446-15.783,9.816-28.636,23.586-33.962c-2.276,2.581-4.062,5.733-5.157,9.449c-2.656,9.016,3.835,15.696,10.896,20.084
		c8.34,5.184,18.729,7.821,23.282,17.272C69.73,74.184,64.157,86.52,53.648,89.753z M68.146,85.042
		c0.995-1.648,1.821-3.464,2.445-5.446c0.29-0.92,0.503-1.859,0.678-2.805c0.579-0.067,1.164-0.281,1.709-0.713
		c4.389-3.475,8.764-6.966,13.039-10.578C82.514,73.869,76.069,80.721,68.146,85.042z M88.88,50.59
		c0.03,1.619-0.064,3.204-0.236,4.764c-0.534,0.102-1.068,0.341-1.563,0.788c-5.027,4.533-10.279,8.794-15.574,13.007
		c-0.174-1.489-0.458-2.967-0.875-4.409c6.251-4.688,12.272-9.656,18.224-14.714C88.863,50.214,88.876,50.402,88.88,50.59z
		 M87.844,42.531c-6.472,5.545-12.979,11.047-19.774,16.192c-0.788-1.359-1.691-2.648-2.713-3.836
		c7.189-5.642,13.96-11.771,20.762-17.87C86.829,38.813,87.401,40.659,87.844,42.531z M82.826,31.41
		c-7.308,6.538-14.543,13.156-22.273,19.198c-1.446-1.018-2.961-1.932-4.52-2.781c8.663-6.222,16.782-13.121,24.905-20.026
		c0.813,1.068,1.563,2.186,2.26,3.337C83.073,31.224,82.947,31.302,82.826,31.41z"/>
	<path fill="#1D1D1B" d="M45.638,65.385c-0.862,0.283-1.256,0.876-1.309,1.529c-2.621,3.545-2.939,8.046-0.202,11.737
		c2.488,3.356,7.425,4.323,10.939,2.097c4.141-2.623,6.592-8.63,3.567-12.893C55.882,63.98,49.617,64.079,45.638,65.385z
		 M52.76,76.922c-1.859,1.177-3.922,0.374-5.226-1.201c-1.693-2.046-0.779-4.567,0.637-6.442c2.213-0.553,4.865-0.282,6.678,1.082
		C56.983,71.964,54.33,75.928,52.76,76.922z"/>
</g>
</svg>
