<?xml version="1.0" encoding="iso-8859-1"?>
<!-- Generator: Adobe Illustrator 17.0.2, SVG Export Plug-In . SVG Version: 6.00 Build 0)  -->
<!DOCTYPE svg PUBLIC "-//W3C//DTD SVG 1.1//EN" "http://www.w3.org/Graphics/SVG/1.1/DTD/svg11.dtd">
<svg version="1.1" id="Capa_1" xmlns="http://www.w3.org/2000/svg" xmlns:xlink="http://www.w3.org/1999/xlink" x="0px" y="0px"
	 width="100px" height="100px" viewBox="0 0 100 100" style="enable-background:new 0 0 100 100;" xml:space="preserve">
<g>
	<path style="fill:#1E1E1C;" d="M81.73,28.855c-0.181-5.491-0.282-12.909-0.228-18.404c0.002-0.245-0.037-0.461-0.093-0.664
		c0.107-1.197-0.596-2.461-2.129-2.421c-19.354,0.508-38.704-0.25-58.058-0.28c-1.61-0.003-2.315,1.412-2.117,2.654
		c-0.064,0.216-0.109,0.448-0.106,0.712c0.292,23.095,1.086,56.279,1.111,79.377c0,0.518,0.147,0.939,0.382,1.272
		c0.142,0.979,0.846,1.845,2.119,1.813c8.365-0.208,16.734-0.342,25.093-0.752c7.45-0.365,16.734,0.124,23.856-2.307
		c2.521-0.861,4.776-2.134,6.71-3.977c3.534-3.369,4.741-7.892,5.045-12.658c0.292-4.577-0.247-9.379-0.354-13.597
		C82.686,48.728,82.089,39.748,81.73,28.855z M69.484,70.049c-1.362,0.008-2.678,1.071-2.069,2.705
		c1.224,3.286,1.784,7.366-0.099,10.509c-2.276,3.801-6.338,3.698-10.2,4.185c-2.362,0.298-4.873,0.14-7.253,0.207
		c-1.853,0.052-25.314,0.624-25.314,0.716c-0.055-22.233-0.79-54.553-1.087-76.784c17.868,0.077,35.733,0.691,53.601,0.309
		c-0.068,18.253,1.55,44.639,1.646,59.065c-2.772-0.875-5.637-1.244-8.595-1.046C69.883,69.929,69.678,69.982,69.484,70.049z
		 M71.23,85.245c1.794-3.058,2.242-6.81,1.309-10.877c2.161,0.084,4.292,0.501,6.31,1.356c0.008,0.025,0.015,0.052,0.023,0.077
		C78.218,80.62,75.169,83.577,71.23,85.245z"/>
	<path style="fill:#1E1E1C;" d="M43,53.25c-1.779,0.088-3.551,0.054-5.322-0.049c2.003-3.982,3.961-7.986,6.099-11.899
		c0.978-1.791-0.652-3.438-2.19-3.377c-0.03-0.001-0.056-0.009-0.086-0.009h-8c-2.902,0-2.902,4.5,0,4.5h4.595
		c-1.919,3.701-3.74,7.452-5.645,11.162c-0.928,1.203-0.351,3.618,1.716,3.838c2.94,0.314,5.878,0.48,8.833,0.333
		C45.888,57.607,45.902,53.106,43,53.25z"/>
	<path style="fill:#1E1E1C;" d="M48.583,39.5c0.176,5.278,0.465,10.551,0.333,15.833c-0.072,2.904,4.428,2.897,4.5,0
		c0.132-5.282-0.157-10.555-0.333-15.833C52.987,36.606,48.486,36.597,48.583,39.5z"/>
	<rect x="64.434" y="43.038" style="fill:#1E1E1C;" width="0.004" height="0.008"/>
	<path style="fill:#1E1E1C;" d="M60,37.25c-1.316-0.019-2.029,0.897-2.151,1.907c-0.048,0.159-0.083,0.328-0.099,0.51
		c-0.478,5.215-0.643,10.432-0.5,15.667c0.079,2.896,4.579,2.904,4.5,0c-0.057-2.079-0.051-4.154-0.01-6.228
		c3.401-0.703,7.832-2.747,7.11-6.92C68.18,38.306,63.228,37.296,60,37.25z M64.437,43.047c-0.002,0.006-0.005,0.011-0.008,0.016
		c0,0,0,0,0,0s0,0,0,0c-0.069,0.139-0.121,0.222-0.365,0.404c-0.64,0.477-1.385,0.766-2.154,0.982
		c0.046-0.831,0.104-1.662,0.165-2.492c0.479,0.093,0.956,0.215,1.436,0.393c0.141,0.053,0.737,0.473,0.657,0.405
		c0.02,0.017,0.177,0.212,0.254,0.3c0.002-0.002,0.008-0.012,0.011-0.016c-0.01-0.016-0.018-0.028-0.035-0.054
		c0.017,0.025,0.024,0.033,0.037,0.051c0.004-0.006,0.009-0.011,0.015-0.022c0,0.002,0,0.005,0,0.007
		c-0.004,0.007-0.007,0.013-0.01,0.021c0.003,0.005,0.007,0.01,0.01,0.014c0,0.003,0.002,0.01,0.003,0.014
		C64.449,43.066,64.441,43.054,64.437,43.047z"/>
	<polygon style="fill:#1E1E1C;" points="64.428,43.063 64.421,43.056 64.419,43.059 	"/>
</g>
</svg>
