<svg xmlns="http://www.w3.org/2000/svg" viewBox="0 0 100 100" enable-background="new 0 0 100 100"><path d="m95.56 10.376c-.807-3.267-3.475-5.372-6.658-6.125-.325-.077-.653-.09-.971-.056-.09-.012-.175-.035-.271-.039-16.16-.727-57.33-.034-73.5 0-.085 0-.157.018-.237.024-.1-.008-.19-.026-.296-.024-2.253.04-4.637.654-6.115 2.479-1.516 1.872-1.893 4.234-1.613 6.581.043.359.131.703.265 1.02-.003 3.627-.04 7.25-.202 10.873-.041.197-.064.406-.062.633.002.262-.0001.524.0001.786-.0001.004-.0001.009-.0001.013 0 .005.0001.009.0001.014.16 20.522-1.258 40.02-.801 60.55.004.137.028.26.047.386-.019.281-.001.568.048.855.821 4.01 4.172 6.408 8.167 6.487.112.002.211-.016.316-.025.074.006.14.024.217.025 15.634.265 56.27.521 71.903.533.181 0 .348-.022.51-.05.097.017.19.04.289.05 2.896.29 5.635-1.351 6.832-3.985.186-.409.284-.837.305-1.259.021-.116.051-.227.06-.353 1.801-26.348 1.359-51.762 1.865-78.15.002-.136-.017-.257-.03-.382.016-.283.003-.572-.067-.859m-7.08 78.956c-.053.084-.106.169-.121.202-.06.065-.116.133-.18.195-.033.034-.046.05-.067.074-.029.017-.054.031-.103.062-.074.045-.153.082-.23.123.133-.081-.175.029-.333.079-.028.002-.046.003-.081.006-.26.015-.519-.013-.775-.039-.189-.019-.373-.008-.553.025-.083-.007-.159-.025-.246-.025-15.636-.012-56.27-.268-71.903-.533-.112-.002-.21.017-.315.026-.074-.007-.141-.024-.218-.026-.838-.016-1.335-.136-2.029-.577.059.021-.135-.152-.264-.264-.018-.048-.304-.404-.315-.424-.119-.197-.235-.535-.337-.95.003-.062.015-.117.014-.182-.035-1.599-.039-3.181-.054-4.768h4.646c2.718 4.125 10.523 5.866 13.521 1.508 3.768 3.576 11.596 4.309 13.293-1.639 10.994.44 21.995.654 32.988 1.093 2.762 4.39 11.268 6.18 13.959 1.021-.096 1.668-.184 3.335-.297 5.01m-66.63-12.629c.022-.004.043-.016.065-.021.58-.058 1.337-.061 1.714.003.642.109.897.236 1.134.446.246.22.386.547.507 1.048.118.482.081 1.218-.008 1.87-.08.147-.148.302-.194.469-.032.123-.072.243-.11.364-.027.059-.106.255-.135.308-.044.082-.1.157-.152.235-.029.026-.171.202-.221.252-.027.028-.095.082-.156.13-.11.073-.223.143-.338.208-.035.02-.131.062-.209.096-.053.018-.105.034-.157.051-1.953.148-3.743-.336-4.965-1.951-.268-2.245 1-3.114 3.225-3.508m12.434.221c.022-.004.043-.016.065-.021.58-.058 1.337-.061 1.714.003.642.109.897.236 1.133.446.247.22.387.547.508 1.048.118.482.081 1.218-.008 1.87-.08.147-.148.302-.194.469-.032.123-.072.243-.111.364-.026.059-.105.255-.134.308-.044.082-.1.157-.152.235-.029.026-.171.202-.221.252-.027.028-.095.082-.156.13-.11.073-.223.143-.338.208-.035.02-.131.062-.209.096-.053.018-.105.034-.157.051-1.953.148-3.743-.336-4.965-1.951-.267-2.245 1-3.113 3.225-3.508m47.44.859c.022-.004.043-.016.065-.021.581-.058 1.337-.061 1.714.003.642.109.898.236 1.134.446.246.22.386.547.508 1.048.118.482.08 1.218-.008 1.87-.081.147-.149.302-.194.469-.033.123-.073.243-.111.364-.027.059-.106.255-.134.308-.045.082-.101.157-.152.235-.03.026-.172.202-.222.252-.027.028-.095.082-.156.13-.11.073-.222.143-.337.208-.035.02-.132.062-.21.096-.052.018-.104.034-.157.051-1.953.148-3.742-.336-4.964-1.951-.269-2.245 1-3.114 3.224-3.508m7.39-.088c-.327-.877-.806-1.638-1.396-2.274-3.02-3.257-8.926-3.273-12.225.948-.506.648-.867 1.286-1.121 1.911-10.857-.428-21.722-.644-32.579-1.078-.325-1.03-.846-1.917-1.515-2.639-2.908-3.139-8.494-3.256-11.85.518-.181-.26-.373-.51-.585-.739-3.02-3.257-8.926-3.273-12.225.948-.542.694-.914 1.377-1.168 2.044h-4.113c.019-7.452.204-14.816.407-22.18 10.351-.114 20.671.721 31.01 1.115 2.114 4.729 10.792 7.03 13.993 2.382 3.38 3.21 10.02 4.127 12.583.0001 3.767 3.303 11.05 3.931 12.927-1.483h7.407c.422 0 .785-.089 1.097-.238-.126 6.898-.33 13.811-.646 20.766m-43.22-23.979c.304-1.301 1.443-1.903 3.169-2.209.023-.004.043-.016.066-.021.58-.058 1.336-.061 1.713.003.642.109.898.236 1.134.446.247.22.386.547.508 1.048.118.482.08 1.218-.008 1.87-.081.147-.149.302-.194.469-.032.123-.073.243-.111.364-.027.059-.105.255-.134.308-.045.082-.1.157-.152.235-.03.026-.172.202-.222.252-.027.027-.095.082-.155.13-.11.073-.223.143-.338.208-.035.02-.132.062-.21.096-.052.018-.104.034-.157.051-1.952.148-3.742-.336-4.964-1.951-.019-.157-.013-.292-.017-.436.069-.28.093-.571.072-.863m15.604-1.987c.023-.004.043-.016.066-.021.58-.058 1.336-.061 1.713.003.642.109.898.236 1.134.446.247.22.386.547.508 1.048.118.482.08 1.218-.008 1.87-.081.147-.149.302-.194.469-.032.123-.073.243-.111.364-.027.059-.106.255-.134.308-.045.082-.1.157-.152.235-.03.026-.172.202-.222.252-.027.028-.095.082-.155.13-.11.073-.223.143-.338.208-.035.02-.132.062-.21.096-.052.018-.104.034-.157.051-1.952.148-3.742-.336-4.964-1.951-.268-2.246 1-3.114 3.224-3.508m12.334-.222c.022-.004.043-.016.065-.021.58-.058 1.336-.061 1.714.003.642.109.897.236 1.133.446.247.22.386.547.508 1.048.118.482.081 1.218-.008 1.87-.08.147-.148.302-.194.469-.032.123-.072.243-.111.364-.027.059-.105.255-.134.308-.045.082-.1.157-.152.235-.029.026-.171.202-.222.252-.026.027-.094.082-.155.13-.11.073-.223.143-.338.208-.035.02-.132.062-.209.096-.053.018-.105.034-.158.051-1.952.148-3.742-.336-4.964-1.951-.267-2.245 1-3.113 3.225-3.508m16.01.944c-.329-.175-.716-.285-1.176-.285h-7.208c-.309-1.197-.876-2.211-1.627-3.02-2.943-3.176-8.629-3.258-11.969.655-.116-.149-.237-.296-.365-.433-2.908-3.139-8.494-3.255-11.849.518-.182-.26-.373-.51-.585-.739-3.02-3.257-8.926-3.273-12.225.948-.312.399-.556.793-.77 1.185-10.398-.387-20.777-1.234-31.19-1.128.168-6.286.316-12.592.335-18.983h13.236c2.797 4.865 12.639 6.736 14.584 0h12.553c1.998 4.782 10.695 7.171 13.981 2.612 3.799 3.214 10.949 3.776 12.809-1.578 3.595.118 7.191.161 10.786.3.334.013.625-.04.89-.126-.057 6.71-.113 13.392-.212 20.07m-58.34-26.585c.023-.004.043-.016.066-.021.58-.058 1.336-.061 1.713.003.642.109.898.236 1.134.446.247.22.386.547.508 1.048.118.482.08 1.218-.008 1.87-.081.147-.149.302-.194.469-.032.123-.073.243-.111.364-.027.059-.106.255-.134.308-.045.082-.1.157-.152.235-.03.026-.172.202-.222.252-.027.027-.095.082-.155.13-.11.073-.223.143-.338.208-.035.02-.132.062-.21.096-.052.018-.104.034-.157.051-1.952.148-3.742-.336-4.964-1.951-.268-2.246 1-3.114 3.224-3.508m27.456.671c.022-.004.043-.016.065-.021.58-.058 1.337-.061 1.714.003.642.109.897.236 1.133.446.247.22.387.547.508 1.048.118.482.081 1.218-.008 1.87-.08.147-.148.302-.194.469-.032.123-.072.243-.111.364-.026.059-.105.255-.134.308-.044.082-.1.157-.152.235-.029.026-.171.202-.221.252-.027.027-.095.082-.156.13-.11.073-.223.143-.338.208-.035.02-.131.062-.209.096-.053.018-.105.034-.157.051-1.953.148-3.743-.336-4.965-1.951-.267-2.246 1-3.114 3.225-3.508m12 0c.022-.004.043-.016.065-.021.58-.058 1.337-.061 1.714.003.642.109.897.236 1.133.446.247.22.387.547.508 1.048.118.482.081 1.218-.008 1.87-.08.147-.148.302-.194.469-.032.123-.072.243-.111.364-.026.059-.105.255-.134.308-.044.082-.1.157-.152.235-.029.026-.171.202-.221.252-.027.027-.095.082-.156.13-.11.073-.223.143-.338.208-.035.02-.131.062-.209.096-.053.018-.105.034-.157.051-1.953.148-3.743-.336-4.965-1.951-.267-2.246 1-3.114 3.225-3.508m19.36-14.92c-.104 5.403-.164 10.758-.216 16.09-.276-.118-.584-.199-.937-.213-3.527-.136-7.06-.182-10.583-.294-.309-1.201-.877-2.219-1.63-3.03-2.866-3.093-8.335-3.255-11.704.352-.097-.119-.192-.24-.296-.352-3.02-3.257-8.926-3.273-12.225.948-.274.351-.498.699-.696 1.044h-13.01c-.324-1.04-.848-1.935-1.522-2.663-3.02-3.257-8.926-3.273-12.224.948-.453.58-.793 1.153-1.043 1.715h-12.995c.221-4.226.25-8.453.25-12.684 0-.526-.136-.962-.348-1.327-.011-.356-.005-.712.021-1.072.016.063.123-.501.125-.51.021-.061.036-.102.049-.141.043-.081.09-.159.137-.237-.043.088.088-.077.193-.207-.019.083.653-.382.235-.211.695-.284 1.077-.281 1.719-.293.085-.002.16-.02.241-.028.098.009.188.029.292.028 16.17-.034 57.34-.727 73.5 0 .043.002.079-.007.121-.007.274.075.55.15.818.244.043.031.412.193.439.208.165.088.317.196.47.302-.07-.03.299.28.337.317.039.041.06.059.086.083.02.035.045.075.089.141.019.028.172.337.22.411.037.108.068.218.098.329-.0001.039-.011.069-.012.106" fill="#1e1e1c"/></svg>