<svg xmlns="http://www.w3.org/2000/svg" viewBox="0 0 100 100" enable-background="new 0 0 100 100"><g fill="#1d1d1b"><path d="m67.857 78.07h-8.05c-.425 0-.825-.074-1.223-.228-1.418-.341-2.356-1.537-2.356-3.095 0-.268-.002-.533-.002-.799-7.301.126-14.602.112-21.903-.083.47-16.687-1.824-33.26-2.01-49.931 8.85-.274 17.702-.457 26.556-.55.0001.088-.007.17.003.264 1.407 12.679 1.693 25.418 2.131 38.15 1.319-.096 2.638-.192 3.957-.289l.74-.054c-.432-12.62-.725-25.24-2.119-37.809-.012-.107-.041-.202-.064-.302 1.378-.009 2.756-.014 4.133-.021.28 8.398.343 16.801.679 25.18.498-.317 1.096-.49 1.763-.49h2.895c-.308-8.219-.357-16.446-.628-24.667-.013-.405 6.469.983 7.131 1.421 2.277 1.503 2.692 4.25 2.904 6.779.505 6.03.351 12.258.193 18.432.191.395.315.833.343 1.313.112 1.921.181 3.844.25 5.766.04 1.102.079 2.202.127 3.303h3.887c-.013-4.541-.056-9.08-.099-13.624-.036-3.76-.122-7.53-.045-11.29.043-2.083.203-4.299.079-6.421-.754-12.876-16.33-10.387-25.315-10.38.143 0-2.42-4.137-2.841-4.528-1.268-1.177-2.77-1.96-4.432-2.405-3.784-1.013-7.911-.411-11.764-.267-5.536.207-9.879 1.716-11.05 7.786-3.452.108-6.903.222-10.354.358-4.164-.351-8.814.614-11.609 3.975-1.94 2.333-1.511 5.725-1.58 8.591-.103 4.252-.201 8.502-.212 12.755-.013 4.808.063 9.615.224 14.419.137 4.097-.53 8.468.95 12.389 2.877 7.627 12.867 6.42 19.454 6.67 0 .029-.007.054-.007.083.099 7.915 12.948 9.145 12.12.209 5.593.079 11.185.054 16.778-.045-.017 3.36 2.456 5.906 5.73 6.158 2.033.157 3.62-.461 4.789-1.596-.023-.868-.053-1.733-.082-2.583-.03-.848-.058-1.698-.081-2.549m-29.424-61.6c2.987-.274 5.989-.395 8.989-.334 1.786.036 3.743-.328 5.5.07 1.01.228 3.44 2.513 3.822 2.509-6.691.082-13.381.199-20.07.383.371-.997.936-1.867 1.759-2.628m-21.786 56.636c-.167-.102-.343-.193-.534-.26-.232-.081-.36-.13-.779-.363-.173-.096-.335-.211-.497-.325.077.039-.33-.296-.335-.302-.427-.402-.721-.811-1.036-1.369-.0001-.028.005-.052.003-.08-.949-14.487-.964-28.983-.37-43.484 1.528-1.632 3.379-2.513 5.488-2.729.977 16.292 1.922 32.584 2.283 48.904.002.084.02.157.029.237-1.419-.075-2.836-.141-4.252-.229m12.971.615c-1.359-.049-2.718-.093-4.076-.152.024-.149.04-.303.036-.47-.36-16.305-1.305-32.582-2.28-48.859 1.439-.055 2.878-.094 4.316-.144.194 16.568 2.454 33.04 2 49.625m6.371 6.156c-.032.083-.084.223-.116.279-.003.006-.003.007-.006.012-.024.02-.054.046-.101.093-.006.006-.007.007-.012.013-.03.013-.074.037-.14.076-.031.018-.041.026-.063.04-.036.009-.084.022-.157.045-.107.034-.22.048-.331.071-.023-.0001-.043-.007-.067-.008-.028 0-.351-.027-.445-.026-.154-.032-.308-.066-.459-.111-.016-.005-.019-.005-.033-.009-.026-.016-.059-.036-.117-.068-.041-.027-.067-.044-.092-.06-.052-.048-.106-.094-.154-.146-.009-.009-.011-.001-.018-.017-.014-.027-.028-.053-.058-.1-.038-.064-.07-.131-.103-.198-.001-.032-.026-.078-.048-.14-.052-.161-.083-.328-.115-.494.029.078-.016-.371-.032-.57.898.026 1.797.026 2.696.047.038.345.048.687.031 1.033-.013.007-.037.128-.06.238m29.2-.389c-.059.174-.193.419-.364.674h-1.799c-.1-.064-.297-.191-.333-.2-.044-.04-.086-.083-.129-.124.081.066-.203-.274-.235-.33-.124-.246-.133-.266-.027-.06-.007-.019-.083-.395-.107-.441-.012-.156-.018-.311-.013-.468 1.102-.03 2.204-.078 3.307-.115-.086.358-.182.713-.3 1.064"/><path d="m93.55 62.37l-.2-.123c-.299-.256-.678-.386-1.125-.386h-5.01-4.705-.622l-.034-.715c-.063-1.344-.111-2.688-.16-4.03-.069-1.911-.137-3.822-.249-5.731-.065-1.12-.893-1.636-1.646-1.746l-.113-.025c-.21-.065-.394-.095-.58-.095h-6.06-2.944c-.938 0-1.366.538-1.561.989l-.072.167-.033.027-.108.089c-.379.312-.568.754-.563 1.315.032 3.479.389 6.938.734 9.865l.092.778-2.828.208-.685.05c-1.338.098-2.675.196-4.01.293-.486.035-.971.072-1.457.106-.308.022-.582.104-.838.253l-.181.075c-.794.213-1.371.95-1.371 1.753v.516c0 .274.073.552.217.825l.072.137.012.154c.175 2.238.205 4.498.21 6.799.0001.277.003.552.003.83 0 1.216.912 1.57 1.304 1.666.314.114.538.156.776.156h9.51l.016.733c.025 1.089.062 2.177.099 3.266.006.19.012.387.018.578.052 1.534.101 3.101.109 4.657.006 1.151.802 1.535 1.277 1.661.315.12.549.165.802.165h8.746c.495 0 .903-.157 1.212-.468l.606.459-.505-.557c.351-.353.509-.761.509-1.257 0-2.822-.02-5.859-.154-8.955 0-.005 0-.001-.0001-.015l-.034-.782h1.411 9.05c1.145 0 1.638-.823 1.718-1.595l.018-.17.09-.146c.171-.277.254-.585.254-.939v-9.26c.0001-.952-.549-1.38-1.01-1.571m-2.634 10.04h-4.487-6.295c-1.378 0-1.658 1.141-1.711 1.49l-.028.12c-.072.221-.1.442-.085.68.062.994.111 2.02.149 3.115.056 1.608.09 3.366.102 5.416l.005.755h-5.38l-.02-.729c-.024-.86-.054-1.721-.084-2.58-.03-.849-.06-1.712-.084-2.58-.023-.857-.041-1.717-.046-2.573-.0001-.159-.022-.315-.068-.494l-.027-.104.003-.106c.018-.557-.165-1.075-.5-1.422-.303-.312-.718-.472-1.23-.472h-.567-4.384-4.709-.096l-.007-.742c-.015-1.547-.073-3.062-.172-4.503l-.051-.745.058-.004 3.398-.25c.433-.032.866-.063 1.299-.095 1.251-.092 2.502-.184 3.754-.274.133-.001.265-.02.398-.029.156-.011.312-.043.493-.101l.131-.042.264.011c.521 0 .971-.173 1.237-.474.24-.271.331-.65.272-1.126-.396-3.177-.831-6.879-.973-10.61l-.03-.778h1.767 4.681l.03.719c.044 1.033.08 2.066.117 3.1.072 2.02.146 4.102.272 6.145.009.14.034.268.064.392l.022.178c.002.674.371 1.814 1.737 1.814h2.43 4.723 3.629v6.898z"/></g></svg>