<svg xmlns="http://www.w3.org/2000/svg" viewBox="0 0 100 100" enable-background="new 0 0 100 100"><g fill="#1d1d1b"><path d="m91.12 9.731c-.716-1.508-2.145-2.668-4.295-2.731-24.423-.714-48.855-.749-73.29-.75-.468-.148-.953-.25-1.464-.25-2.726 0-5 2.274-5 5v1.5c0 .758.19 1.473.503 2.122-.159.488-.252 1.028-.253 1.628-.049 23.258-1.687 46.49-1.25 69.75.009.474.077.909.186 1.314.155 2.358 1.756 4.548 4.814 4.436 26.324-.963 52.664-.756 79-.75 1.784 0 3.072-.766 3.869-1.873.672-.778 1.108-1.817 1.131-3.127.425-24.547-1.725-49.01-3-73.5-.058-1.119-.415-2.039-.955-2.769m-75.08 71.864c-.178-21.789 1.241-43.554 1.287-65.34 21.667.005 43.33.071 64.994.632 1.192 21.363 2.885 42.708 2.806 64.11-23.03-.021-46.06-.119-69.09.599"/><path d="m74.07 39.849c-.526-.449-1.224-.741-2.113-.741h-12.601c-.2-4.266-.286-8.537-.536-12.801-.111-1.917-1.504-2.983-2.993-3.201-.319-.098-.661-.168-1.049-.168h-11.79c-1.514 0-2.487.823-2.946 1.888-.661.542-1.107 1.369-1.097 2.491.041 4.367.459 8.698.969 13.03-3.579.262-7.158.529-10.737.786-.589.042-1.091.213-1.52.461-1.436.385-2.523 1.701-2.523 3.244v.674c0 .554.153 1.073.398 1.539.258 3.299.275 6.606.275 9.915 0 1.774 1.127 2.811 2.457 3.136.368.141.778.232 1.249.232h11.494c.084 3.706.278 7.409.296 11.12.009 1.743 1.102 2.774 2.402 3.119.381.154.811.25 1.303.25h11.454c.99 0 1.744-.36 2.282-.902.035-.029.065-.062.099-.092.027-.03.058-.058.083-.089.543-.539.904-1.293.904-2.286-.0001-3.933-.032-7.863-.203-11.79h12.667c2 0 3.068-1.429 3.227-2.971.292-.474.479-1.047.479-1.745v-12.13c0-1.533-.845-2.514-1.93-2.965m-4.807 13.07h-13.14c-1.922 0-2.989 1.317-3.212 2.787-.12.37-.187.782-.157 1.256.231 3.704.305 7.409.327 11.12h-5.102c-.092-3.369-.261-6.735-.278-10.11-.0001-.322-.05-.613-.12-.887.055-1.725-1.022-3.492-3.249-3.492h-11.807c-.02-1.987-.091-3.972-.228-5.955 3.562-.261 7.124-.526 10.688-.782.316-.023.604-.089.875-.177 1.759.094 3.446-.956 3.167-3.192-.573-4.596-1.091-9.188-1.268-13.811h6.483c.171 4.04.26 8.09.511 12.13.016.244.058.471.111.687.006 1.68 1.091 3.355 3.258 3.355h13.14v7.07"/></g></svg>