<svg xmlns="http://www.w3.org/2000/svg" viewBox="0 0 100 100" enable-background="new 0 0 100 100"><g fill="#1d1d1b"><path d="m5.308 45.24c.331.167.732.252 1.223.193 5.279-.632 37.791-.958 43.1-1.271 3.233-.191 2.139-4.208 2.161-6.211.025-2.204 1.235-6.06-2.494-6.06-5.404.0001-38.01.024-43.41.318-2.993.163-2.281 3.327-2.09 5.389.221 2.383-1.208 6.267 1.517 7.644m41.878-8.58c0 0-.562 1.576.096 2.878-3.746.228-34.696.491-38.428.878.039-2.24-.537-3.547-.537-3.547 3.885-.157 34.98-.201 38.869-.209"/><path d="m49.889 48.671c-5.399-.294-38.01-.317-43.41-.318-4.572-.0001-4.223 12.04-.333 12.273 5.306.313 37.817.639 43.1 1.271.49.059.892-.026 1.223-.193 1.098-.555 1.451-1.316 1.513-2.187.083-1.161-.353-2.517-.227-3.839.156-1.643 1.227-4.214.149-5.718-.35-.695-1.016-1.235-2.01-1.289m-2.975 8.209c-3.732-.387-34.683-.649-38.428-.878.658-1.302.096-2.878.096-2.878 3.889.008 34.984.052 38.869.209 0 0-.576 1.307-.537 3.547"/><path d="m50.993 65.53c-.384-.43-.948-.716-1.699-.716-5.405.0001-38.02.024-43.42.318-4.053.225-3.39 11.607-.57 13.03.331.167.733.252 1.223.193 5.279-.632 37.791-.958 43.1-1.271 3.483-.206 2.146-6.548 2.6-8.938.23-1.214-.387-2.138-1.235-2.619m-42.14 7.81c.039-2.24-.537-3.547-.537-3.547 3.885-.157 34.98-.201 38.869-.209 0 0-.562 1.576.096 2.878-3.745.228-34.696.491-38.428.878"/><path d="m94.93 46.869c-.424-.363-.987-.598-1.706-.598h-10.171c-.162-3.444-.232-6.891-.433-10.333-.09-1.548-1.214-2.408-2.417-2.584-.258-.079-.533-.135-.847-.135h-9.518c-1.221 0-2.01.664-2.378 1.524-.534.438-.894 1.105-.885 2.01.033 3.525.37 7.02.782 10.515-2.889.212-5.779.427-8.668.634-.475.034-.88.172-1.226.372-1.159.31-2.037 1.373-2.037 2.619v.544c0 .448.124.866.321 1.242.208 2.663.222 5.333.223 8 0 1.432.91 2.269 1.983 2.532.297.114.628.188 1.01.188h9.279c.067 2.992.224 5.981.238 8.974.007 1.407.89 2.239 1.939 2.518.308.124.654.202 1.052.202h9.246c.8 0 1.408-.291 1.843-.728.028-.023.053-.05.08-.075.022-.024.046-.047.067-.072.438-.435.73-1.044.73-1.845 0-3.175-.026-6.347-.164-9.517h10.225c1.615 0 2.477-1.154 2.605-2.398.235-.382.386-.845.386-1.409v-9.789c.0001-1.24-.68-2.031-1.557-2.396m-3.881 10.551h-10.605c-1.551 0-2.413 1.063-2.592 2.249-.097.299-.151.631-.127 1.014.187 2.99.246 5.981.264 8.974h-4.118c-.074-2.719-.21-5.437-.225-8.158-.0001-.26-.041-.495-.097-.716.044-1.392-.825-2.819-2.622-2.819h-9.531c-.016-1.604-.074-3.207-.184-4.807 2.875-.211 5.75-.425 8.626-.631.256-.018.488-.072.707-.143 1.42.076 2.782-.771 2.557-2.577-.462-3.71-.88-7.417-1.023-11.149h5.234c.137 3.263.209 6.529.412 9.789.012.197.046.38.09.555.004 1.356.88 2.708 2.629 2.708h10.605v5.711"/></g></svg>