<svg xmlns="http://www.w3.org/2000/svg" viewBox="0 0 100 100" enable-background="new 0 0 100 100"><g fill="#1e1e1c"><path d="m80.65 26.03c-.189-5.747-.295-11.511-.238-17.261.002-.256-.039-.482-.097-.695.113-1.253-.624-2.576-2.229-2.534-20.256.531-40.507-.262-60.764-.294-1.686-.003-2.423 1.478-2.215 2.777-.068.226-.114.469-.111.746.306 24.17 1.136 58.901 1.163 83.08 0 .542.154.983.4 1.331.149 1.025.885 1.931 2.217 1.898 8.755-.217 17.514-.358 26.26-.787 7.797-.382 17.514.13 24.967-2.415 2.638-.901 5-2.234 7.02-4.162 3.699-3.526 4.962-8.26 5.28-13.248.307-4.791-.258-9.816-.37-14.23-.289-11.403-.914-22.801-1.289-34.2m-12.817 45.11c-1.425.008-2.803 1.121-2.166 2.831 1.281 3.439 1.867 7.71-.103 10.999-2.383 3.978-6.634 3.87-10.675 4.38-2.472.311-5.099.146-7.591.217-1.938.055-26.494.653-26.494.749-.058-23.271-.827-57.1-1.139-80.36 18.702.081 37.4.723 56.1.323-.063 17.1 1.609 44.72 1.723 61.817-2.901-.915-5.899-1.302-8.996-1.095-.241.017-.456.072-.658.143m1.827 15.903c1.878-3.2 2.347-7.128 1.37-11.384 2.262.088 4.492.524 6.604 1.42.009.027.015.055.025.081-.685 5.04-3.876 8.138-7.999 9.883"/><path d="m69.1 44.753c-.166-.048-.341-.083-.534-.093-4.562-.229-9.121-.481-13.671-.87v-14.12c0-1.397-1.115-2.069-2.197-2.027-.136-.036-.279-.065-.432-.076-3.325-.255-6.657-.262-9.99-.263-3 0-1.63 4.497-1.696 6.302-.133 3.681-.199 6.278-.331 9.958-3.533-.014-8.15-.065-11.68-.257-.843-.046-1.421.329-1.739.872-.376.339-.627.835-.627 1.494v8.676c0 1.346 1.036 2.02 2.08 2.033.17.042.35.071.549.071 3.797 0 8.676.03 12.468.197.178 4.753.239 9.51.449 14.263.077 1.728 1.822 2.35 3.042 1.867 2.837.218 5.681.235 8.527.236 1.052 0 1.691-.635 1.927-1.41.124-.269.193-.585.176-.956-.216-4.674-.252-9.351-.26-14.03 4.374.398 8.756.653 13.14.884 1.168.062 1.828-.686 1.988-1.566.201-.29.343-.64.378-1.063.256-3.063.289-5.05.526-8.116.109-1.416-.992-2.079-2.096-2.01m-2.533 8.454c-4.423-.24-8.842-.51-13.25-.957-.909-.092-1.5.328-1.794.931-.343.337-.572.811-.572 1.435 0 4.732.022 9.463.196 14.191-1.76-.012-3.518-.067-5.274-.171-.165-4.673-.228-9.349-.443-14.02-.062-1.328-1.109-2-2.144-2.026-.151-.041-.312-.068-.485-.077-3.767-.207-8.621-.25-12.391-.259v-4.657c3.767.156 8.621.183 12.396.184 4.19-.007.483-16.261 2.067-16.249 1.939.015 3.878.046 5.815.152v13.502c0 .259.048.485.117.694.139.932.801 1.821 1.986 1.935 4.681.451 9.374.722 14.07.963-.1 1.839-.178 2.592-.293 4.429"/></g></svg>