<svg xmlns="http://www.w3.org/2000/svg" viewBox="0 0 100 100" enable-background="new 0 0 100 100"><g fill="#1e1e1c"><path d="m96.79 31.558c-.068-.927-.625-1.524-1.307-1.802-.281-.161-.615-.264-1.018-.264-1.071-.0001-2.142-.011-3.213-.014-.113-1.577-.385-3.14-.76-4.678-.265-1.087-1.142-1.5-1.999-1.416-.134-.029-.275-.048-.426-.051-12.653-.247-25.306-.457-37.957-.015-.373-.969-.751-1.871-1.131-2.55-.294-.526-.706-.817-1.149-.94-.304-.21-.684-.342-1.151-.342-8.771 0-22.707-.024-31.476-.203-.315-.195-.68-.314-1.071-.314h-3.616c-.992 0-1.837.729-2.026 1.672-.153.26-.264.559-.298.912-1.68 17.55.424 42.28.258 59.857-.013 1.404 1.125 2.06 2.211 1.985.119.034.24.066.372.081 25.984 3.044 57.32 3.376 83.43 4.391 1.182.046 1.835-.742 1.968-1.641.225-.31.362-.709.357-1.2-.188-16.11 1.18-37.38-.0001-53.47m-9.84-4.25c.134.713.239 1.428.3 2.151-11.667-.068-23.333-.256-34.998-.464-.223-.489-.456-1.085-.695-1.726 11.796-.366 23.595-.189 35.393.039m5.705 56.36c-24.993-.943-55.2-1.34-80.07-4.151.009-16.346-1.739-39.849-.41-56.17.05.004.095.017.148.018 9.45.232 24.07.256 33.521.258 1.062 1.868 2.156 5.725 2.974 7.714.162.393.394.74.685 1 .332.444.849.759 1.566.771 13.905.248 27.81.481 41.718.509.903 14.953-.228 35.08-.133 50.05"/><path d="m69.91 53.9c-.148-.043-.305-.075-.479-.083-4.089-.205-8.175-.431-12.253-.78v-12.652c0-1.252-.999-1.854-1.969-1.817-.122-.033-.25-.058-.388-.068-2.98-.228-5.966-.235-8.954-.236-2.69 0-1.461 4.03-1.52 5.648-.12 3.299-.178 5.626-.296 8.926-3.167-.012-7.305-.058-10.469-.23-.755-.041-1.274.295-1.559.782-.337.304-.562.748-.562 1.339v7.776c0 1.207.929 1.813 1.864 1.822.152.038.314.063.492.063 3.403 0 7.776.027 11.175.177.16 4.26.214 8.524.402 12.784.068 1.549 1.633 2.106 2.726 1.674 2.543.195 5.092.211 7.643.211.943 0 1.516-.569 1.727-1.264.111-.241.173-.524.158-.857-.193-4.19-.227-8.382-.233-12.575 3.92.356 7.848.585 11.78.792 1.047.055 1.638-.615 1.781-1.404.18-.26.308-.573.339-.953.23-2.745.259-4.528.471-7.274.1-1.269-.887-1.863-1.876-1.801m-2.269 7.577c-3.964-.215-7.925-.457-11.876-.858-.814-.082-1.345.294-1.608.834-.308.302-.513.727-.513 1.287 0 4.241.021 8.481.176 12.72-1.577-.001-3.153-.06-4.727-.154-.147-4.188-.204-8.379-.397-12.566-.055-1.19-.994-1.794-1.921-1.816-.135-.036-.28-.061-.435-.069-3.375-.185-7.726-.224-11.11-.232v-4.174c3.376.14 7.727.164 11.11.165 3.756-.006.434-14.575 1.854-14.564 1.738.013 3.476.041 5.211.137v12.1c0 .232.043.434.105.622.125.836.719 1.632 1.78 1.735 4.196.404 8.402.647 12.61.863-.091 1.646-.161 2.322-.263 3.968"/></g></svg>