<svg xmlns="http://www.w3.org/2000/svg" viewBox="0 0 100 100" enable-background="new 0 0 100 100"><g fill="#1e1e1c"><path d="m28.11 37.11c3.047 2.16 6.497 3.301 9.977 3.301 4.555 0 9.04-1.915 12.632-5.393.958-.928 1.96-2.01 2.229-2.333.117-.14.224-.301.317-.478 3.449-6.515 2.872-13.254-1.583-18.49-1.054-1.239-1.991-2.292-2.331-2.621-.173-.167-.385-.315-.631-.442-3.101-1.595-6.241-2.404-9.333-2.404-4.25 0-8.354 1.507-12.195 4.478-.174.135-.322.281-.44.432-.277.357-1.166 1.572-1.951 2.723-5.11 7.497-3.749 16.225 3.309 21.23m2.211-20.229c.08-.084.149-.17.212-.258.269-.373 1.425-1.381 2.771-2.057 2.94-1.478 6.229-1.794 9.507-.92 1.537.41 3.661 1.722 4.735 2.925 2.775 3.108 3.651 6.726 2.534 10.461-.392 1.31-1.067 2.613-1.341 2.9-2.544 3.417-6.107 5.272-10.08 5.272-4.848 0-9.448-2.82-11.186-6.859-.934-2.171-1.807-6.549 2.846-11.464"/><path d="m71.7 63.855h-1.634c-.484 0-.955-.087-1.4-.259-.507-.141-.946-.375-1.323-.67.187 4.155.325 8.311.427 12.469.066 2.673.089 5.347.102 8.02-3.157.003-6.312.036-9.466.199-.17-6.761-.514-15.238-.797-20.309-.155-2.775-4.484-2.79-4.328 0 .352 6.302.801 17.889.889 24.875-9.916-.037-19.831-.193-29.747-.227-.031-6.96-.162-18.16-.174-24.288-.005-2.791-4.333-2.791-4.328 0 .009 4.56.084 11.939.135 18.284-3.497.161-6.997.197-10.497.203-.49-9.717-.113-19.43.08-29.15.881-1.817 2.274-3.14 4.211-3.778 6.136-.647 12.306-.912 18.474-1 6.191-.09 12.383.003 18.573.068.573.006 1.146-.0001 1.719-.0001-.05-.254-.085-.516-.085-.792 0-1.158-.004-2.335-.023-3.518-2.982-.028-5.964-.066-8.947-.092-6.372-.056-12.748-.054-19.11.232-3.574.161-7.145.409-10.703.787-.273-.031-.57-.009-.891.089-3.094.945-5.72 3.069-7.06 6.04-.124.275-.204.56-.239.844-.141.274-.23.594-.237.969-.203 10.345-.633 20.677 0 31.02.054.89.54 1.492 1.165 1.813.32.304.758.506 1.329.506 4.094 0 8.186-.018 12.275-.207.009 1.373.015 2.647.017 3.746.0001.382.088.706.228.984.246.702.852 1.263 1.82 1.264 11.573.013 23.14.238 34.718.252 1.81.002 2.354-1.952 1.639-3.138-.004-.457-.001-.942-.017-1.445 3.315-.169 6.631-.196 9.951-.197.524 0 .937-.169 1.249-.431 1.19.177 2.53-.509 2.526-2.063-.014-6.773-.285-13.524-.495-20.292-.004-.268-.001-.534-.017-.801"/><path d="m95 33.407l-.226-.138c-.342-.292-.774-.44-1.284-.44h-11.76l-.038-.81c-.072-1.531-.127-3.062-.182-4.594-.077-2.139-.156-4.351-.283-6.52-.066-1.133-.607-2.292-4.113-2.292-.743 0-1.512.048-2.19.091-.608.038-1.167.073-1.632.073-.573-.004-1.042-.018-1.483-.031-.428-.013-.829-.025-1.21-.025-1.635 0-2.75.233-4.3 1.505-.432.354-.647.859-.641 1.499.037 3.952.443 7.894.835 11.227l.104.882-3.593.264c-2.208.163-4.417.325-6.625.483-.351.025-.664.12-.956.289l-.206.085c-1.422.381-1.479 1.39-1.269 3.599l.038.408c.148 1.681.206 3.354.232 5.01.018 1.185.023 2.363.023 3.521 0 .313.058.57.146.791.299.756.995 1.023 1.341 1.108l.102.032c.257.098.512.146.781.146h8.297 2.523l.019.831c.028 1.236.07 2.473.112 3.709.066 1.952.135 3.972.145 5.966.006 1.361 1.02 1.776 1.455 1.893l.095.033c.261.104.528.156.816.156h1.591 8.362c.564 0 1.029-.18 1.382-.534l.688.52-.579-.625c.407-.408.586-.873.586-1.438 0-3.218-.022-6.682-.176-10.208l-.039-.887h11.895c1.306 0 1.868-.939 1.958-1.819l.02-.193.102-.166c.195-.316.29-.667.29-1.071v-10.537c0-1.084-.627-1.573-1.153-1.791m-3 11.423h-12.266c-1.571 0-1.89 1.3-1.95 1.699l-.032.135c-.082.251-.113.505-.096.776.174 2.788.262 5.782.286 9.707l.005.854h-6.115l-.022-.826c-.027-.98-.061-1.961-.095-2.941-.067-1.918-.136-3.901-.147-5.859 0-.18-.025-.359-.078-.564l-.03-.117.004-.121c.02-.634-.188-1.225-.571-1.619-.346-.357-.818-.539-1.402-.539h-2.969-8.133l-.008-.842c-.002-.227-.012-.445-.016-.67-.026-1.531-.082-3.03-.18-4.454l-.058-.845 3.809-.279c2.107-.155 4.215-.311 6.323-.461.179-.013.357-.05.562-.116l.149-.047.298.012c.594 0 1.108-.196 1.412-.54.273-.31.377-.741.31-1.283-.559-4.481-.961-8.25-1.107-12.07l-.033-.882h7.332l.034.814c.05 1.175.091 2.351.133 3.527.082 2.295.166 4.668.31 6.994.001.158.039.305.073.445l.025.202c.003.768.423 2.068 1.98 2.068h12.266v7.847z"/></g></svg>