<svg xmlns="http://www.w3.org/2000/svg" viewBox="0 0 100 100" enable-background="new 0 0 100 100"><g fill="#1e1e1c"><path d="m83.55 6.316c-.158-1.312-1.24-1.994-2.284-2.049-.208-.065-.431-.111-.685-.111-17.458.022-38.15.508-55.609.271-.302-.004-.565.051-.802.139-1.226-.277-2.704.391-2.707 2.02-.005 2.79-.031 5.58-.067 8.37-2.01.665-3.828 1.823-5.205 3.666-3.147 4.214.291 9.535 3.476 12.436.447.407.941.571 1.421.575-.012.568-.023 1.137-.035 1.705-1.768.598-3.368 1.542-4.564 3-3.322 4.049-.602 8.96 2.369 12.266.355.395.753.586 1.152.65.238.269.484.528.763.756-.002.272-.004.543-.007.815-2.516.698-4.754 2.055-6.02 4.457-2.604 4.954 2.144 9.451 6.074 11.692.003.134.008.267.001.401-1.865.922-3.456 2.257-4.406 4.208-2.256 4.633 1.557 8.848 5.05 11.456.058.904.122 1.809.187 2.713-.074.237-.108.505-.078.813.292 2.995.829 5.906 1.918 8.721.379.981 1.234 1.405 2.076 1.413.222.08.465.134.745.133 18.715-.001 37.434-.3 56.07-2.106.143-.014.274-.044.401-.079 1.094.057 2.232-.614 2.231-2.027 0-2.462-.001-4.92-.263-7.371-.021-.206-.073-.39-.137-.565.064-26.13 2.063-52.34-1.081-78.37m-64.879 50.78c.443-.842 1.181-1.419 2.066-1.817-.007 2.172-.002 4.344.016 6.515-1.615-1.228-3.03-2.89-2.082-4.698m1.457-18.361c.247-.255.529-.469.824-.666-.041 2.069-.078 4.137-.111 6.206-1.295-1.69-2.364-3.833-.713-5.54m.242 34.589c.157-.322.36-.613.596-.878.049 1.518.106 3.036.174 4.554-.882-1.106-1.4-2.382-.77-3.676m.827-46.844c-1.439-1.63-2.526-3.649-1.277-5.678.349-.568.837-.999 1.408-1.332-.039 2.337-.083 4.673-.131 7.01m5.835 66.14c-.326-1.039-.591-2.09-.798-3.156 17.16.102 37.37 1.86 54.51-1.5.039.896.062 1.793.071 2.69-17.882 1.651-35.832 1.95-53.78 1.966m53.29-8.967c-16.658 3.443-37.05 1.607-53.933 1.494-.021-.0001-.042-.006-.063-.006h-.381c-.356-4.948-.579-9.899-.715-14.851 1.26-.297 2.528-.444 3.526-.536 2.75-.254 2.774-4.575 0-4.319-1.158.107-2.387.268-3.611.522-.066-3.822-.099-7.644-.084-11.467 1.173-.019 2.291.064 3.155.147 2.773.266 2.747-4.055 0-4.319-.99-.095-2.048-.135-3.123-.103.044-4.472.12-8.945.21-13.418 1.507-.122 3.03-.056 4.262.025 2.782.181 2.765-4.139 0-4.319-1.318-.086-2.743-.105-4.175.004.099-4.669.2-9.339.275-14.01 1.336-.024 2.639.108 3.63.237 2.756.359 2.721-3.965 0-4.319-1.178-.153-2.38-.224-3.571-.185.022-1.826.04-3.651.049-5.477 16.821.206 36.878-.235 53.697-.274 2.747 24.976.961 50.11.852 75.17"/><path d="m41.52 35.604c-.347-.671-.95-1.056-1.655-1.056-.99 0-1.924.755-2.118 1.68-1.351 4.236-2.689 8.787-4.34 14.755-.174.629-.067 1.243.301 1.726.395.519 1.067.842 1.754.842.932 0 1.667-.563 1.918-1.472.121-.437.246-.873.371-1.31l.129-.454c1.64.116 3.288.139 4.749.146.225.823.443 1.649.659 2.477.238.915.966 1.484 1.899 1.484.682 0 1.354-.321 1.753-.838.374-.482.489-1.097.325-1.728-1.612-6.202-3.206-11.341-5.745-16.252m-.097 10.723c-.835-.014-1.624-.04-2.384-.079.357-1.226.719-2.451 1.086-3.674.444 1.166.874 2.407 1.298 3.753"/><path d="m59.6 44.771c0-1.024-.69-2.061-2.01-2.061h-6.935c-1.319 0-2.01 1.037-2.01 2.061 0 1.023.69 2.06 2.01 2.06h6.935c1.318 0 2.01-1.037 2.01-2.06"/><path d="m72.31 34.32c-.214-.072-.442-.108-.68-.108h-7.976c-1.319 0-2.01 1.037-2.01 2.061s.69 2.061 2.01 2.061h5.03c-2.856 3.984-5.963 8.07-9.477 12.476-.169.213-.296.454-.366.68l-.043.14c-.186.636-.069 1.372.305 1.923.354.521.905.842 1.584.906 3.572.341 7.145.682 10.715 1.037.079.008.155.012.229.012 1.014 0 1.759-.74 1.812-1.8.051-1.029-.612-2.195-1.942-2.327-2.279-.228-4.559-.446-6.838-.664l-.152-.015c3.888-4.958 7.05-9.219 9.913-13.357.421-.609.482-1.304.166-1.906-.404-.774-1.375-1.257-2.284-1.119"/></g></svg>