<svg xmlns="http://www.w3.org/2000/svg" viewBox="0 0 100 100" enable-background="new 0 0 100 100"><path d="m83.6 21.625c.089-.596-.078-1.237-.633-1.797-2.71-2.733-3.13-5.422-.562-8.437.128-.15.228-.305.311-.463.96-1.254.39-3.658-1.713-3.75-16.23-.714-35.851-.776-52.09-1.311-.094-.003-.177.011-.266.018-.037-.004-.07-.015-.109-.018-5.354-.324-10.972 2.732-11.546 8.502-.063.638-.043 1.235.025 1.805-.176.309-.288.677-.283 1.123.216 21.257-.39 42.469-.56 63.713-.021.171-.025.353-.002.552.75 6.501 4.781 11.281 11.394 12.286.215.033.417.03.613.012.116.028.231.057.359.069 15.58 1.425 31.21 1.319 46.84 1.312h4.691c1.305.395 2.986-.288 2.991-2.061.056-23.801 1.779-47.589.562-71.39-.003-.062-.019-.113-.025-.17m-62.13-7.04c.549-3.376 4.118-4.404 7.07-4.226.103.006.194-.006.29-.011.029.002.055.001.085.011 14.94.493 33.26.607 48.2 1.174-1.104 2.504-1.15 5.05-.098 7.493-15.09-.686-33.564-.399-48.666-.049-.05.0001-.09.013-.139.017-.28-.131-.606-.208-.986-.204-2.547.024-6.302-.849-5.756-4.205m45.35 8.619c-.357 5.408-.693 10.816-.943 16.23-.985-1.01-1.984-2-3.03-2.945-.74-.666-1.617-.645-2.304-.274-.201.039-.404.1-.611.212-1.806.974-3.645 1.847-5.536 2.612.345-5.307.572-10.619.772-15.934 3.915-.002 7.823.027 11.655.099m-37.788 66.26c-.164-.015-.329-.024-.493-.039-.052-.005-.095.003-.146.0001-4.271-.769-7.205-3.367-7.724-7.87-.005-.044-.02-.081-.027-.123.009-.084.026-.162.027-.251.156-19.762.685-39.495.588-59.26 1.776.925 3.896 1.387 5.969 1.368.043 0 .08-.011.122-.013.284.133.615.209 1 .2.948-.022 1.91-.044 2.88-.065-.374 22.02-1.988 44.04-2.199 66.06m49.558 1.272h-4.709c-.004 0-.007.0001-.011.0001-13.629.001-27.26.046-40.853-.954.198-22.15 1.833-44.3 2.207-66.46 5.154-.102 10.537-.183 15.951-.213-.235 6.263-.499 12.524-.961 18.775-.081 1.086.589 1.705 1.401 1.869.378.185.84.236 1.374.054 2.793-.952 5.485-2.14 8.099-3.501 1.602 1.529 3.119 3.141 4.671 4.721.55 1.892 3.822 1.674 3.903-.65.245-7.04.678-14.06 1.142-21.09 2.871.079 5.684.184 8.404.325 1 22.374-.465 44.741-.618 67.12" fill="#1e1e1c"/></svg>