<svg xmlns="http://www.w3.org/2000/svg" viewBox="0 0 100 100" enable-background="new 0 0 100 100"><path d="m47.37 63.699c-1.264.37-2.285 1.319-3.035 2.823-.773 1.549-1.025 2.917-.77 4.181.169.838.53 1.737.965 2.405 1.151 1.765 3.06 2.776 5.239 2.777 1.18 0 2.382-.297 3.477-.859 1.746-.896 2.999-2.471 3.351-4.213.306-1.509-.093-3.02-1.123-4.246-1.902-2.27-5.557-3.613-8.104-2.868m4.802 6.162c-.021.269-.338.758-1.162 1.25-.962.577-2.197.312-2.79-.597-.334-.513-.3-1.438.075-2.02.121-.188.302-.36.809-.36.259 0 .562.046.924.141.617.162 1.199.459 1.681.861.222.186.484.463.463.725"/><path d="m55.58 25.2c-.002 0-.004 0-.006 0-.109-.028-.223-.049-.341-.064-3.843-.468-7.741-.792-11.587-.965l-.129-.003c-.432 0-.842.102-1.198.295-1.157.279-1.934 1.239-1.956 2.448-.112 6.419.961 12.777 2 18.926.752 4.453 1.529 9.06 1.839 13.611.058.854.488 1.587 1.188 2.034.461.431 1.055.657 1.728.657h4.636c1.15 0 2.08-.686 2.414-1.762.185-.323.299-.675.339-1.049.446-4.157.946-8.381 1.429-12.466.737-6.233 1.5-12.678 2.089-19.04.084-.908-.265-1.501-.573-1.839-.452-.498-1.135-.782-1.872-.782m-6.39 31.741c-.381-3.847-1.028-7.696-1.656-11.427-.882-5.244-1.792-10.656-1.95-16.04 2.33.137 4.682.33 7.02.577-.551 5.58-1.216 11.227-1.861 16.697-.4 3.396-.8 6.792-1.176 10.19h-.374"/><path d="m85.86 42.664c.554-.789 1.205-1.821 1.999-3.169 1.312-2.228 2.773-4.967 3.067-5.748.19-.503.168-1.062-.059-1.55-.227-.487-.642-.863-1.149-1.042-.379-.133-.786-.282-1.213-.438-2.311-.843-5.105-1.863-7.762-2.142 1.014-3.293 1.162-7.245.934-9.67-.051-.541-.319-1.038-.744-1.376-.424-.338-.965-.489-1.507-.419-2.822.37-6.334.895-9.72 1.769-.086-.543-.167-1.097-.251-1.665-.395-2.681-.803-5.454-1.843-8.06-.345-.865-1.242-1.376-2.162-1.236-3.178.489-5.791 2.668-8.097 4.591-.335.28-.664.554-.987.817-1.301-2.08-2.689-4.116-4.04-6.1-.492-.722-.984-1.443-1.47-2.164-.372-.551-.993-.882-1.658-.882s-1.287.331-1.659.882c-.685 1.017-1.323 2.094-1.939 3.135-1.018 1.719-1.979 3.343-3.127 4.708-.255.304-.431.498-.551.622-.34-.157-.851-.448-1.104-.593-2.352-1.339-4.821-3.27-7.05-5.01-.869-.679-2.126-.526-2.807.344-.351.449-.48 1-.403 1.524-.072.592-.411 2.138-1.01 4.604-.107.441-.18.749-.196.833-.108.563-.185 1.103-.256 1.608-.095.672-.239 1.687-.404 1.885-.002.0001-.166.094-.684.094-.163 0-.338-.009-.529-.026-1.804-.163-3.755-.645-5.642-1.111-1.02-.252-2.032-.501-3.03-.708-.66-.136-1.343.068-1.819.544-.476.476-.681 1.16-.544 1.819.05.244.149.913.285 1.811.537 3.555.942 5.992 1.311 7.675-3.42.425-7.812 1.879-9.297 2.443-.618.235-1.073.768-1.228 1.41-.154.643.026 1.329.47 1.818.603.666 4.143 5.607 5.429 7.806-1.967 1.759-5.926 4.879-7.354 5.415-.731-.147-1.515.118-1.995.752-.667.88-.495 2.135.386 2.802.782.593 1.978 1.207 3.362 1.917 1.478.759 4.817 2.472 5.497 3.472-.67 1.679-3.928 6.741-5.086 7.883-.563.229-1.015.711-1.182 1.344-.281 1.068.357 2.162 1.425 2.443.923.243 2.274.37 3.84.517 1.729.163 5.179.487 6.275 1.043.033 1.924-1.059 7.789-1.645 9.225-.418.441-.632 1.065-.523 1.711.184 1.089 1.214 1.822 2.304 1.64.002 0 .004 0 .006-.0001 1.148-.194 2.408-.644 3.742-1.119 1.713-.611 3.656-1.303 5.114-1.303.492 0 .88.077 1.185.232.943.562 1.345 5.134 1.497 6.855.108 1.225.201 2.282.368 3.094.191.93 1.01 1.598 1.959 1.598.707 0 .707 0 4.402-2.9.81-.636 1.486-1.167 1.583-1.241 1.135-.849 2.708-2.075 3.715-1.606.994.954 4.365 5.617 4.937 7.07-.038.709.304 1.417.953 1.815.326.2.687.295 1.043.295.673 0 1.33-.34 1.707-.956.0001-.002.002-.004.003-.006.471-.769.92-1.719 1.396-2.725 1.154-2.442 2.726-5.767 4.636-5.912 1.281.395 5.852 3.01 6.963 4.174.127.655.579 1.232 1.249 1.488 1.031.396 2.188-.121 2.583-1.152.081-.211.295-.771 1.388-6.302.279-1.41.492-2.488.65-3.323.389.104.789.212 1.196.323 2.513.685 5.362 1.461 7.9 1.461.395 0 .78-.019 1.155-.057 1.07-.11 1.862-1.047 1.791-2.121-.037-.556-.355-2.154-1.294-6.672-.232-1.116-.495-2.382-.693-3.364.61-.175 1.213-.356 1.806-.535 2.571-.775 5-1.507 7.485-1.58.67-.02 1.286-.374 1.64-.943s.399-1.278.121-1.888c-1.268-2.771-3.273-5.569-5.21-8.134.769-.489 1.758-1.155 3.05-2.063 4.721-3.318 5.138-4.04 5.339-4.393.458-.796.314-1.802-.348-2.438-2.288-2.197-5.112-3.865-7.872-5.462m-3.559 11.727c-.296.056-.585.18-.842.375-.879.668-1.049 1.923-.381 2.802 0 .0001.0001.0001.0001.002l.403.529c1.498 1.964 3.139 4.115 4.431 6.227-1.866.339-3.66.879-5.416 1.409-1.177.354-2.288.689-3.413.966-1.904.462-1.566 2.153-1.209 3.943.194.972.466 2.281.747 3.634.248 1.191.562 2.706.81 3.938-1.682-.21-3.562-.722-5.395-1.222-1.218-.332-2.368-.645-3.46-.872l-.421 2.033-1.974-.241c-.069.564-.824 4.511-1.433 7.493-2.656-1.868-6.366-3.75-7.69-3.768-3.995 0-6.211 3.781-7.805 7.06-1.689-2.616-3.993-5.542-4.871-6.05-.797-.458-1.663-.69-2.572-.69-2.289 0-4.225 1.448-5.64 2.505-.075.057-.791.617-1.651 1.293-.113.089-.229.18-.346.271-.346-3.825-.865-7.93-3.589-9.326-.872-.447-1.885-.674-3.01-.674-2.02 0-4.161.72-6.086 1.404.778-3.38 1.609-8.362.506-9.82-1.394-1.843-4.615-2.312-9.02-2.732 1.826-2.569 4.653-6.933 4.377-8.673-.43-2.713-3.771-4.557-7.16-6.303 3.352-2.226 6.973-5.669 7.02-5.721 1.304-1.385.459-2.898-2.495-7.221-.609-.892-1.333-1.918-1.994-2.831 2.339-.712 5.279-1.438 7.01-1.438.374 0 .559.036.621.052 1.075.27 2.158-.382 2.427-1.453.168-.671-.024-1.349-.456-1.828-.446-1.21-1.134-5.523-1.501-7.921.013.003.025.006.038.001 2.033.502 4.135 1.022 6.243 1.211.319.029.614.042.888.042 4.281 0 4.743-3.26 5.05-5.417.063-.446.129-.92.221-1.398.02-.09.078-.329.158-.659.204-.836.382-1.568.533-2.211 1.57 1.181 3.22 2.342 4.875 3.285 1.284.731 2.204 1.211 3.25 1.211 1.645 0 2.644-1.187 3.446-2.14 1.361-1.617 2.453-3.461 3.509-5.245.077-.13.154-.26.23-.389 1.65 2.42 3.34 4.915 4.809 7.42.279.477.743.816 1.281.938.54.123 1.104.017 1.562-.292 1.019-.687 2.02-1.523 2.993-2.333 1.489-1.242 3.02-2.516 4.559-3.217.474 1.703.743 3.529 1.023 5.434.194 1.321.396 2.688.673 4.02.116.553.459 1.031.947 1.317s1.074.353 1.611.182c2.93-.921 6.283-1.527 9.05-1.937-.026 3.02-.632 6.459-1.841 8.214-.477.692-.47 1.609.018 2.295.489.685 1.352.993 2.163.767.362-.1.794-.151 1.284-.151 2.055 0 4.635.854 6.87 1.659-1.247 2.326-3.373 5.979-4.309 7.03-.438.15-.826.452-1.078.883-.554.948-.24 2.165.703 2.727.626.374 1.272.747 1.926 1.125 1.99 1.151 4.03 2.331 5.782 3.669-2.118 1.628-5.837 4.208-6.991 4.797"/></svg>