<svg xmlns="http://www.w3.org/2000/svg" viewBox="0 0 100 100" enable-background="new 0 0 100 100"><path d="m47.807 69.44c-1.181.346-2.133 1.23-2.832 2.629-.716 1.437-.949 2.707-.712 3.883.157.778.492 1.612.896 2.231 1.069 1.641 2.844 2.582 4.868 2.582 1.094 0 2.208-.275 3.223-.795 1.622-.833 2.786-2.296 3.113-3.917.285-1.407-.087-2.813-1.046-3.958-1.762-2.105-5.15-3.346-7.51-2.655m4.337 5.718c-.019.244-.343.673-1.022 1.079-.844.505-1.922.276-2.442-.52-.291-.445-.259-1.251.068-1.759.098-.152.246-.292.67-.292.227 0 .504.042.824.126.554.145 1.075.412 1.507.771.155.131.412.38.395.595"/><path d="m44.29 33.23c-.406 0-.792.095-1.128.275-1.092.268-1.824 1.176-1.845 2.32-.103 5.886.881 11.713 1.833 17.348.688 4.076 1.4 8.29 1.684 12.458.055.807.461 1.5 1.121 1.923.437.406.998.62 1.634.62h4.246c1.088 0 1.969-.647 2.289-1.665.172-.305.279-.635.316-.985.408-3.804.858-7.603 1.307-11.401.676-5.713 1.375-11.622 1.916-17.455.062-.672-.131-1.294-.546-1.749-.429-.471-1.075-.741-1.772-.742-.1-.025-.204-.044-.313-.058-3.522-.429-7.094-.727-10.618-.885l-.124-.004m8.227 5.55c-.502 5.074-1.107 10.207-1.693 15.18-.365 3.094-.729 6.188-1.072 9.285h-.191c-.35-3.501-.939-7-1.51-10.396-.802-4.77-1.629-9.69-1.782-14.583 2.076.124 4.169.296 6.248.514"/><path d="m52.978 9.756c-.151-.5-.442-.942-.82-1.302-.593-.691-1.368-.964-2.14-.933-.773-.031-1.547.242-2.14.933-.379.36-.67.802-.821 1.302-.386 1.282-1.532 2.663-2.21 3.822-.763 1.305-1.541 2.601-2.315 3.9-1.546 2.594-3.118 5.173-4.698 7.746-3.159 5.147-6.391 10.249-9.553 15.394-6.321 10.285-12.527 20.619-18.04 31.365-1.547 3.02-3.109 6.05-4.469 9.158-1.063 2.426-5.625 8.998-.067 9.578 29.2 3.043 58.43-.603 87.66-.834 1.871-.015 2.801-1.428 2.833-2.878.121-.588.074-1.234-.21-1.896-11.457-26.699-28.648-50.24-43.01-75.35m-42.44 75.42c10.825-24.13 26.14-45.792 39.477-68.56 13.12 22.382 28.14 43.692 38.934 67.34-26.15.485-52.29 3.292-78.41 1.218"/></svg>