<svg xmlns="http://www.w3.org/2000/svg" viewBox="0 0 100 100" enable-background="new 0 0 100 100"><g fill="#1d1d1b"><path d="m76.02 11.727c-6.77-5.41-17.271-9.13-25.856-8.504-8.585-.626-19.09 3.094-25.856 8.504-6.364 5.086-9.844 12.786-10.738 20.782-1.019 9.114.887 18.11 4.783 26.36 5.835 12.352 19.746 27.532 29.698 36.25.667.584 1.413.774 2.113.697.7.077 1.446-.113 2.113-.697 9.952-8.721 23.863-23.901 29.698-36.25 3.896-8.247 5.802-17.245 4.783-26.36-.894-7.996-4.374-15.696-10.738-20.782m5.564 26.12c-.177 7.838-2.354 15.703-6.594 22.339-5.745 8.992-16.53 21.765-24.825 29.465-8.296-7.7-19.08-20.473-24.825-29.465-4.24-6.636-6.417-14.502-6.594-22.339-.159-7.05 1.83-14.312 6.57-19.642 9.281-10.434 27.04-12.668 39.43-7.099 3.575 1.607 7.638 4.143 10.268 7.099 4.74 5.33 6.728 12.597 6.57 19.642"/><path d="m46.08 67.83c.535-.299.992-.777 1.253-1.487 5.21-14.184-.894-26.755-9.141-38.16-.699-.967-2.185-2.452-3.802-3.456-2.201-1.367-4.643-1.844-5.669 1.09-5.691 16.272-.653 33.15 14.04 42.533 1.304.832 2.562.397 3.319-.515m-13.1-37.05c7.774 8.862 12.943 19.327 10.01 31.03-9.686-7.577-12.91-19.251-10.01-31.03"/><path d="m73.05 28.431c-.987-2.186-3.644-7.132-6.642-4.01-10.995 11.446-18.593 26.04-12.755 41.922.261.71.718 1.188 1.253 1.487.757.912 2.01 1.347 3.319.514 11.856-7.57 17.45-20.633 16.15-34.462-.176-1.874-.547-3.724-1.326-5.45m-15.06 33.378c-2.931-11.706 2.239-22.17 10.01-31.03 2.899 11.782-.325 23.456-10.01 31.03"/><path d="m53.708 73.36c-2.183 1.829-4.663 2.038-6.9.182-2.697-2.237-6.594 1.616-3.873 3.873 4.674 3.877 10.03 3.685 14.646-.183 2.711-2.27-1.185-6.124-3.873-3.872"/></g></svg>