<svg xmlns="http://www.w3.org/2000/svg" viewBox="0 0 100 100" enable-background="new 0 0 100 100"><g fill="#1d1d1b"><path d="m84.69 9.632c-.054-1.069-.7-2.024-2.124-2.239-21.842-3.288-45.07.941-59.46 19.02-13.827 17.374-13.741 41.22-6.827 61.37.092.269.216.499.354.711.263 1.11 1.085 2.092 2.519 2.281 9.577 1.261 19.619.988 29.07-1.263.152-.009.302-.006.453-.017.48-.035.879-.187 1.216-.403 10.749-2.852 20.638-8.343 28.06-17.18 14.867-17.688 14.406-41.3 6.852-62.05-.032-.087-.076-.153-.112-.232m-5.01 3.244c1.16 3.234 2.131 6.6 2.873 10.03-4.444-5.305-10.461-8.797-17.238-10.635 4.824-.254 9.674-.025 14.365.603m-58.1 72.27c-.699-2.127-1.314-4.28-1.843-6.45 2.701 2.84 5.841 5.161 9.289 6.925-2.481-.048-4.968-.207-7.446-.475m21.828-.646c-11.11-.823-20.58-6.958-25.576-17.411-.159-1.919-.226-3.838-.216-5.751 6.961 11.632 18.672 19.238 32.04 21.678-2.048.602-4.132 1.096-6.244 1.484m29.3-15.455c-3.829 4.093-8.163 7.323-12.834 9.813-18.373.233-35.2-9.689-41.4-27.362 1.266-7.217 3.969-14.178 8.485-20.515 2.499-3.507 5.442-6.445 8.702-8.885 9.749-.391 19.751.356 28.758 4.361 10.07 4.475 15.865 13.253 17.838 23.88.049.266.137.488.24.692-1.724 6.574-4.856 12.744-9.787 18.02m11.423-29.482c-3.272-7.208-8.662-13.05-16.14-16.919-7.255-3.754-15.517-5.227-23.739-5.564 1.052-.469 2.123-.897 3.207-1.295.169.033.347.053.538.053.209 0 .403-.023.585-.062.226.054.472.081.749.062 15.211-1.052 29.984 4.421 34.589 20.16.063.216.149.405.248.579.014.996-.005 1.989-.039 2.981"/><path d="m64.784 37.02c.681-.918 1.364-1.834 2.042-2.755 1.915-2.6-2.427-5.09-4.317-2.524-.601.816-1.207 1.628-1.811 2.442-.581-.35-1.164-.695-1.769-1.01-2.862-1.472-5.392 2.842-2.524 4.317.436.224.855.474 1.277.718-.9 1.194-1.806 2.384-2.716 3.57-.569-.423-1.137-.847-1.704-1.272-1.093-.82-2.791-.178-3.42.897-.748 1.277-.191 2.605.897 3.42.393.294.786.587 1.179.88-1.189 1.515-2.391 3.02-3.603 4.518-.685-.46-1.367-.925-2.053-1.382-2.691-1.794-5.192 2.538-2.524 4.317.463.309.923.624 1.386.933-1.192 1.427-2.405 2.837-3.624 4.242-.746-.497-1.493-.995-2.239-1.493-2.691-1.794-5.192 2.539-2.524 4.317.471.314.942.628 1.413.942-.641.709-1.268 1.43-1.919 2.132-2.189 2.36 1.339 5.904 3.536 3.536.875-.944 1.72-1.912 2.579-2.87 1.131.754 2.261 1.508 3.392 2.261 2.691 1.794 5.192-2.539 2.524-4.317-.861-.574-1.722-1.148-2.583-1.722 1.201-1.394 2.399-2.789 3.575-4.203 1.057.738 2.117 1.472 3.151 2.242 1.096.816 2.789.181 3.42-.897.746-1.274.194-2.609-.897-3.42-.823-.612-1.668-1.192-2.506-1.783 1.185-1.47 2.362-2.946 3.527-4.432.918.639 1.843 1.268 2.789 1.866 2.734 1.729 5.24-2.599 2.524-4.317-.763-.482-1.512-.983-2.256-1.493.937-1.223 1.87-2.45 2.797-3.681.597.465 1.184.943 1.762 1.434 2.441 2.075 5.996-1.445 3.536-3.536-.758-.642-1.532-1.268-2.317-1.881"/></g></svg>