<svg xmlns="http://www.w3.org/2000/svg" viewBox="0 0 100 100" enable-background="new 0 0 100 100"><g fill="#1d1d1b"><path d="m9.615 46.841c3.297-.116 6.364-2.375 6.935-5.294.043-.218.066-.44.08-.665 2.521-1.164 5.04-2.338 7.529-3.566 1.458 1.137 3.349 1.8 5.107 1.738.542-.019 1.075-.101 1.594-.229 4.752 5.03 9.5 10.07 14.12 15.221-.302.689-.495 1.4-.514 2.043-.116 3.802 4.03 6.675 7.612 6.549 3.297-.116 6.364-2.375 6.935-5.294.25-1.279.021-2.685-.877-4.093-.003-.006-.009-.011-.012-.017 1.549-6.342 2.952-12.719 4.49-19.06.261.021.522.032.779.023 1.131-.04 2.233-.337 3.218-.821 2.703 1.527 5.256 3.283 7.795 5.063-.105.386-.181.768-.192 1.126-.116 3.802 4.03 6.675 7.612 6.549 3.297-.116 6.364-2.375 6.935-5.294.25-1.279.021-2.685-.877-4.093-1.894-2.968-7.521-3.689-10.557-2.213-.123.06-.241.145-.362.222-2.301-1.612-4.613-3.206-7.03-4.642.174-.382.309-.779.389-1.191.25-1.279.021-2.685-.877-4.093-1.895-2.968-7.521-3.689-10.557-2.213-1.649.801-3.057 3.212-3.113 5.05-.06 1.971 1.028 3.687 2.585 4.87-1.47 6.04-2.814 12.11-4.269 18.15-2.01-.528-4.276-.473-5.967.151-4.357-4.856-8.822-9.613-13.302-14.357.686-.783 1.176-1.698 1.371-2.694.25-1.279.022-2.685-.877-4.093-1.895-2.968-7.521-3.689-10.557-2.213-1.648.801-3.057 3.212-3.113 5.05-.001.336.023.662.076.982-2.221 1.092-4.463 2.142-6.71 3.181-2.307-2.294-7.16-2.762-9.905-1.428-1.649.801-3.057 3.212-3.114 5.05-.114 3.803 4.03 6.676 7.615 6.55m68.861-7.48c.191-.187.353-.407.479-.653 1.616-1.198 6.996.429 5.328 2.447-.048.058-.102.116-.162.175-1.446 1.415-6.346-.018-5.645-1.969m-18.19-12.361c1.25-1.583 7.315.115 5.558 2.239-.048.058-.102.116-.162.175-1.554 1.521-7.107-.248-5.396-2.414m-11.315 28.446c1.25-1.583 7.315.115 5.558 2.239-.048.058-.102.116-.161.175-1.554 1.521-7.108-.249-5.397-2.414m-22.814-23.583c1.25-1.583 7.315.115 5.558 2.239-.048.058-.102.116-.161.175-1.554 1.52-7.108-.249-5.397-2.414m-19.652 7.786c1.251-1.583 7.315.115 5.559 2.239-.048.058-.102.116-.161.175-1.555 1.521-7.109-.248-5.398-2.414"/><path d="m84.19 56.34c-.133.06-.26.145-.39.222-2.483-1.612-4.978-3.206-7.583-4.642.187-.382.333-.779.42-1.191.27-1.279.023-2.685-.946-4.093-2.044-2.968-8.115-3.689-11.39-2.213-1.779.801-3.299 3.212-3.359 5.05-.065 1.971 1.109 3.687 2.79 4.87-1.586 6.04-3.036 12.11-4.606 18.15-2.17-.528-4.613-.473-6.438.151-4.702-4.856-9.519-9.613-14.352-14.357.74-.783 1.268-1.699 1.479-2.694.27-1.279.023-2.685-.946-4.093-2.044-2.968-8.114-3.689-11.391-2.213-1.779.801-3.298 3.212-3.359 5.05-.011.336.025.662.083.982-2.397 1.092-4.815 2.142-7.24 3.181-2.49-2.294-7.726-2.762-10.687-1.428-1.779.801-3.298 3.212-3.36 5.05-.125 3.802 4.344 6.675 8.213 6.549 3.558-.116 6.866-2.375 7.483-5.294.046-.218.071-.44.086-.665 2.721-1.164 5.436-2.338 8.124-3.566 1.573 1.137 3.613 1.8 5.511 1.738.584-.019 1.16-.101 1.719-.229 5.128 5.03 10.251 10.07 15.238 15.22-.326.689-.534 1.4-.555 2.043-.125 3.802 4.344 6.675 8.213 6.549 3.558-.116 6.866-2.375 7.483-5.294.27-1.279.023-2.685-.947-4.093-.004-.006-.001-.011-.014-.017 1.672-6.342 3.186-12.719 4.844-19.06.282.021.563.032.841.023 1.221-.04 2.409-.337 3.472-.821 2.916 1.527 5.671 3.283 8.411 5.063-.114.386-.195.768-.207 1.126-.125 3.802 4.344 6.675 8.213 6.549 3.558-.116 6.866-2.375 7.483-5.294.27-1.279.023-2.685-.946-4.093-2.043-2.965-8.114-3.686-11.39-2.211m-70.42 7.381c-.052.058-.11.116-.174.175-1.677 1.521-7.669-.248-5.823-2.414 1.349-1.583 7.893.114 5.997 2.239m21.2-7.787c-.052.058-.11.116-.174.175-1.677 1.521-7.668-.248-5.823-2.414 1.349-1.583 7.892.115 5.997 2.239m24.616 23.583c-.052.058-.11.116-.174.175-1.677 1.521-7.669-.248-5.823-2.414 1.349-1.583 7.892.115 5.997 2.239m12.208-28.446c-.052.058-.11.116-.174.175-1.677 1.521-7.669-.248-5.823-2.414 1.349-1.583 7.892.115 5.997 2.239m19.889 11.917c-.052.058-.11.116-.174.175-1.561 1.415-6.848-.019-6.091-1.969.206-.187.38-.407.517-.653 1.744-1.198 7.548.429 5.748 2.447"/></g></svg>