<svg xmlns="http://www.w3.org/2000/svg" viewBox="0 0 100 100" enable-background="new 0 0 100 100"><path fill="#1d1d1b" d="m85.28 44.722c-1.352-2.145-3.647-2.383-5.449-1.569-.857.349-1.625.956-2.168 1.783-.741 1.128-1.391 2.312-2.11 3.452-.242.241-.473.508-.676.834-1.873 3-3.716 6.03-5.652 8.991-2.308 2.251-1.327 7.381 2.923 7.533 1.563.056 3.126.094 4.689.125.738 5.03-.5 7.158-4.852 12.565-3.569 4.435-9.566 6.912-15.537 8.01.429-13.912.787-42.473.468-56.39 1.071-.304 2.118-.703 3.108-1.222 6.266-3.284 7.833-11.502 4.989-17.528-2.803-5.94-9.01-8.224-15.04-7.258-1.211-.593-2.686-.689-4.213.072-7.419 3.702-9.406 11.975-5.93 19.16 1.631 3.371 4.433 5.557 7.649 6.632.329 14.184-.046 43.01-.485 57.19-14.7-.911-22.709-8.515-22.89-22.03.725.0001 1.45.003 2.176.003.238 0 .461-.021.678-.052.562.043 1.126.051 1.679.052.444 0 .866-.089 1.271-.219.642-.017 1.304-.193 1.964-.58 1.824-1.068 2.968-4.01 1.538-5.865-3.632-4.718-7.111-9.537-10.288-14.575-1.353-2.145-3.648-2.383-5.449-1.569-.857.349-1.625.956-2.168 1.783-.741 1.128-1.39 2.312-2.109 3.452-.243.241-.473.508-.677.834-1.874 3-3.716 6.03-5.652 8.991-2.308 2.251-1.327 7.381 2.923 7.533 1.554.055 3.107.094 4.662.124.078 20.18 13.701 31.428 34.922 31.616 10.506.093 23.1-4.065 29.829-12.422 5.716-7.102 7.567-11.561 6.845-18.222.729.0001 1.459.003 2.189.003.238 0 .462-.021.679-.052.562.043 1.126.051 1.679.052.444 0 .866-.089 1.271-.219.642-.017 1.304-.193 1.964-.58 1.824-1.068 2.968-4.01 1.538-5.865-3.632-4.714-7.111-9.533-10.288-14.571m-67.51 11.739c.559-.9 1.117-1.801 1.676-2.701.63.911 1.265 1.818 1.911 2.718-1.196-.006-2.392-.003-3.587-.017m30.479-42.27c.367-.04.75-.122 1.15-.264 2.919-1.034 5.553-1.105 6.979 1.175 1.142 1.826.858 3.856-.625 5.293-3.982 3.857-10.145-2.125-7.504-6.204m34.37 43.17c-.588-.124-1.215-.125-1.839-.009-.284-.002-.568-.0001-.854-.004.56-.9 1.118-1.801 1.677-2.701.63.911 1.265 1.818 1.911 2.718-.298-.0001-.596-.003-.895-.004"/></svg>