<svg xmlns="http://www.w3.org/2000/svg" viewBox="0 0 100 100" enable-background="new 0 0 100 100"><g fill="#1d1d1b"><path d="m67.985 13.761c1.264-1.22 2.474-2.49 3.596-3.846.694-.839.825-2 0-2.828-.716-.716-2.133-.841-2.829 0-1.208 1.462-2.521 2.822-3.891 4.128-4.303-2.918-9.645-4.385-15.953-3.797-3.722.347-7.224 1.451-10.347 3.148-.979-1.277-1.913-2.589-2.835-3.907-.624-.891-1.738-1.303-2.736-.718-.883.517-1.344 1.842-.718 2.736.959 1.37 1.941 2.72 2.951 4.051-.455-.6-6.384 6.923-6.815 7.661-1.254 2.147-5.44 10.384-2.841 12.414 1.11.867 3.315.257 4.656.263 2.088.009 4.178.084 6.265.137 4.285.109 8.569.253 12.854.382 8.439.253 16.881.482 25.324.418 1.029-.008 1.641-.652 1.849-1.419.24-.395.356-.882.247-1.446-1.346-6.952-4.318-13.07-8.777-17.377m-38.681 15.285c1.758-9.569 9.919-16.336 19.605-17.63 12.805-1.709 20.633 7.308 23.503 18.584-14.376.024-28.737-.709-43.11-.954"/><path d="m74.67 36c-15.667-.007-31.33-.16-47-.167-1.069 0-1.688.688-1.871 1.492-.254.301-.426.692-.462 1.175-.753 9.987-.237 20-.667 30-.008.182.009.347.04.503.003.118.008.237.032.362.906 4.75 4.791 7.674 9.567 7.36-.688.045.036 11.775.111 12.508.263 2.564.893 5.45 3.542 6.525 3.05 1.238 6.665-.497 8.667-2.821 3.61-4.189 3.288-10.537 2.984-15.697.987-.041 1.977-.055 2.965-.061-.682.005-.536 11.09-.301 12.164 1.05 4.816 5.643 8.251 10.42 6.414 4.653-1.79 5.688-6.219 5.476-10.718-.12-2.543-.19-5.171-.483-7.698 1.569-.139 3.099-.581 4.393-1.527 2.181-1.595 3.02-4.048 3.253-6.647.001-.113.002-.215 0-.333.804-10.04 1.135-20.09 1.163-30.16.361-1.165-.246-2.67-1.829-2.671m-3.334 32.833c-.009.107 0 .204.006.302-.0001.011-.005.02-.006.031-.327 3.575-2.934 4.451-6.167 4.167-1.814-.159-2.331 1.784-1.585 3.02.691 5.439 2.948 14.555-3.85 16.12-6.607-2.049-3.161-12.03-3.064-17.14.029-1.501-1.312-2.121-2.449-1.875-1.86.401-4.412-.292-6.384-.125-.144.012-.284.038-.42.072-1.01-.009-1.982.631-1.913 1.928.257 4.785 2.379 15.932-4.667 16.667-.059.006-.11.024-.167.034-5.134-2.691-2.209-12.95-2.333-17.534-.034-1.231-.967-1.869-1.923-1.923-.24-.045-.497-.055-.775-.006-1.522.27-3.228.398-4.664-.29-1.463-.701-2.01-2.209-2.317-3.696.002-.03.011-.055.012-.085.411-9.552-.03-19.12.585-28.661 14.411.015 28.821.135 43.23.154-.052 9.626-.381 19.241-1.15 28.84"/><path d="m89.42 33.807c-.154-.207-.349-.39-.578-.534-1.187-.747-2.592-1.054-3.983-.955-.218-.083-.45-.139-.693-.152-2.988-.159-5.416 1.653-5.928 4.635-.029.166-.037.331-.034.494-.122.248-.198.536-.204.871-.151 7.734-.12 15.452.5 23.17.0001.02.008.036.001.056-.005.091-.016.179-.001.278.134 2.123.759 4.158 2.548 5.453 1.603 1.159 3.621 1.158 5.489.835.047-.005.095-.015.142-.023.006-.0001.012-.002.019-.003.003-.0001.006-.002.009-.003.215-.039.43-.101.636-.199 1.941-.918 3.144-2.808 3.586-4.862.03-.138.045-.277.05-.414.005-.04.018-.076.021-.118.747-9.177 1.844-18.779-1.071-27.698-.114-.347-.293-.616-.509-.828m-2.255 27.05c-.056.308-.129.677-.234 1.054-.3 1.078-.861 2.228-2.031 2.247-4.433.072-2.842-17.238-2.941-20.14-.067-1.963-.853-5.796.778-7.367 4.248-4.093 4.877 6.942 4.975 8.547.307 5.02.351 10.703-.547 15.66"/><path d="m13.48 33.714c-4.28 1.912-3.915 6.613-3.948 10.55-.051 6.03.145 12.06.591 18.07.0001.02.008.036.001.056-.005.091-.016.179-.001.277.485 7.63 10.743 9.04 12.429 1.199.03-.138.045-.277.05-.414.005-.04.018-.076.021-.118.747-9.177 1.844-18.779-1.071-27.698-1.169-3.578-5.414-3.108-8.07-1.921m5.177 29.23c-.07.301-.146.597-.249.89-.014.028-.027.057-.047.1-.087.182-.195.352-.303.522-.135.195-.152.218-.05.067-.116.138-.251.259-.385.379-.029.019-.067.046-.122.083-.049.033-.105.054-.157.083-.029.004-.057.004-.085.009-.954.175-1.729.136-2.39-.277-.412-.258-.693-1.31-.745-2.128-.0001-.012-.005-.022-.006-.035.005-.097.015-.192.006-.298-.489-5.939-.351-11.835-.536-17.777-.058-1.853-.832-5.588.85-6.997 4.411-3.695 4.81 7.152 4.922 8.882.359 5.505-.25 11.01-.703 16.497"/><path d="m39.667 19.667c-2.579 0-2.579 4 0 4 2.579 0 2.579-4 0-4"/><path d="m62.5 19.5c-2.58 0-2.58 4 0 4s2.58-4 0-4"/></g></svg>