<svg xmlns="http://www.w3.org/2000/svg" viewBox="0 0 100 100" enable-background="new 0 0 100 100"><g fill="#1d1d1b"><path d="m87.78 19.56c-6.753-6.02-15.685-5.991-23.736-4.169-.367.083-.667.235-.919.427-2.808.532-5.607 1.048-8.44 1.266 1.056-3.129 2.677-6.103 4.925-8.898 2.186-2.719-1.656-6.612-3.865-3.865-3.19 3.967-5.464 8.231-6.762 12.776-2.916-.206-5.793-.732-8.68-1.279-.252-.192-.552-.344-.919-.427-8.05-1.822-16.983-1.855-23.736 4.169-5.939 5.297-8.375 13.512-8.847 21.798-1.045 18.351 8.392 39.32 23.527 46.946.251.127.497.192.74.232.337.27.737.47 1.217.542 6.984 1.043 13.514-1.133 19.2-5.744.027-.022.049-.047.072-.071.052-.001.104-.019.154-.031.051.012.103.021.155.031.023.024.045.049.072.071 5.688 4.611 12.219 6.787 19.2 5.744.48-.072.879-.272 1.216-.542.243-.04.489-.105.74-.232 15.14-7.625 24.573-28.595 23.527-46.946-.472-8.286-2.908-16.501-8.847-21.798m3.794 25.601c-.681 15.469-8.144 31.697-21.03 38.19-.034.017-.057.04-.089.058-5.915.696-11.08-1.077-15.949-5.03-.245-.198-.485-.314-.723-.398-.153-.095-.313-.176-.483-.234-.483-.378-1.033-.535-1.581-.483-.547-.051-1.098.106-1.581.483-.17.058-.33.139-.483.234-.238.084-.479.2-.723.398-4.874 3.951-10.03 5.724-15.949 5.03-.032-.018-.056-.041-.09-.058-12.891-6.494-20.354-22.722-21.04-38.19-.301-6.842 1.016-14.12 5.181-19.317 5.199-6.481 13.619-6.528 20.664-4.993.267.215.602.375 1.013.453 3.051.577 6.104 1.18 9.186 1.465-.22 2.137-.245 4.328-.054 6.575-1.251-.294-2.496-.747-3.726-1.4-3.111-1.652-5.872 3.066-2.759 4.72 6.06 3.216 12.24 3.238 18.427.364 3.194-1.484.416-6.194-2.758-4.719-1.235.574-2.473.952-3.708 1.178-.198-2.251-.173-4.446.072-6.581 3.809-.148 7.569-.891 11.324-1.601.411-.078.746-.238 1.013-.453 7.05-1.535 15.465-1.488 20.664 4.993 4.165 5.191 5.482 12.474 5.181 19.316"/><path d="m40.803 72.1c-1.524 1.474-3.336 2.344-5.353 2.941-3.372.998-1.935 6.274 1.453 5.27 2.92-.865 5.564-2.218 7.765-4.347 2.537-2.453-1.332-6.314-3.865-3.864"/><path d="m80.18 36.13c2.203 13.464.254 28.524-12.591 35.902-3.054 1.755-.303 6.478 2.759 4.719 15.13-8.692 17.707-26.15 15.1-42.08-.568-3.471-5.834-1.993-5.27 1.454"/></g></svg>