<svg xmlns="http://www.w3.org/2000/svg" viewBox="0 0 100 100" enable-background="new 0 0 100 100"><g fill="#1e1e1c"><path d="m84.88 67.823c-4.964-2.449-8.108-7.113-8.628-12.795-.558-6.089 2.029-11.902 6.919-15.549.684-.51 1.091-1.214 1.177-2.037.091-.871-.202-1.786-.755-2.41-.105-.146-.225-.29-.371-.428-4.784-4.52-10.797-7.01-16.931-7.01l-.26.0001c-2.923.033-5.856.744-8.693 1.431-2.869.695-5.835 1.414-8.751 1.414-1.198 0-2.306-.117-3.385-.356-7.01-4.04-13.199-4.923-18.347-2.64-5.01 2.225-8.753 7.146-11.11 14.626-2.059 6.515-2.603 14.31-1.574 22.538 1.254 10.05 6.119 17.735 11.189 24.55.29.39.657.691 1.091.899.096.094.196.185.312.27 2.503 1.832 5.307 2.686 8.822 2.686 2.275 0 4.618-.356 6.885-.701 2.261-.345 4.598-.7 6.86-.7 1.314 0 2.496.117 3.612.358 1.389.299 2.665.839 3.9 1.36 1.868.79 3.801 1.606 6.142 1.606.225 0 .45-.007.682-.022 3.25-.217 6.562-1.751 9.843-4.561 5.874-5.03 9.5-12.166 12.438-18.466.16-.344.254-.703.278-1.069.365-1.241-.157-2.413-1.341-2.997m-14.09-11.25c.722 6.311 3.958 11.589 9.132 14.914-4.446 9.306-9.856 17.832-19.04 18.02-3.484-2.44-7.02-3.578-11.12-3.578-.885 0-1.812.056-2.756.165-1.468.171-2.921.453-4.326.726-2.176.422-4.231.821-6.265.821-2.606 0-4.742-.675-6.727-2.127-.026-.02-.053-.036-.084-.054-4.716-6.407-8.134-12.12-9.492-19.11-1.139-5.858-1.118-12.319.059-18.684 1.251-6.756 3.672-11.491 7.195-14.08 1.569-1.15 3.315-1.709 5.337-1.709 2.877 0 5.826 1.188 7.794 2.081 2.978 1.352 6.371 2.066 9.815 2.066 3.657 0 7.281-.795 10.48-2.3.077-.036.144-.076.243-.139 5.758-1.517 11.562-.268 16.436 3.512-5 5.164-7.496 12.4-6.687 19.472"/><path d="m49.996 26.995c.592 0 1.15-.158 1.622-.459 17.291-3.697 21.969-12.813 22.848-19.816.122-.972-.222-1.593-.53-1.944-.463-.523-1.188-.823-1.993-.823-.396 0-.803.074-1.086.182-.117 0-.235.004-.359.021-10.52 1.479-19.17 8.714-23.15 19.356-.312.834-.234 1.652.218 2.304.503.727 1.435 1.179 2.43 1.179m5.606-7.392c2.949-4.319 7.08-7.407 12.05-9.01-1.911 3.92-5.955 6.945-12.05 9.01"/></g></svg>