<svg xmlns="http://www.w3.org/2000/svg" viewBox="0 0 100 100" enable-background="new 0 0 100 100"><g fill="#1d1d1b"><path d="m65.34 47.15c-11.138-.329-22.269.186-33.408.229-.87.003-1.51.358-1.93.877-.531.419-.896 1.065-.896 1.949.0001 2.973.021 5.944.218 8.912.106 1.612 1.378 2.442 2.639 2.501.353.198.771.325 1.273.325 11.231 0 22.461.013 33.69.217.608.011 1.103-.154 1.491-.426.698-.386 1.185-1.11 1.117-2.182-.209-3.333-.43-6.666-.652-9.998-.133-2.01-2.066-2.806-3.542-2.404m-30.897 9.577c-.052-1.383-.058-2.769-.076-4.153 9.829-.093 19.653-.467 29.481-.241.1 1.526.2 3.052.299 4.579-9.901-.154-19.802-.183-29.704-.185"/><path d="m90.38 28.22c.009-.305-.039-.634-.176-.989-1.729-4.492-3.503-8.957-6.131-13.01-.597-.92-1.481-1.252-2.338-1.192-.177-.049-.366-.084-.567-.1-20.403-1.55-40.854-1-61.29-.978-1.226.002-2 .698-2.332 1.579-3.789 3.553-6.957 7.703-9.701 12.1-.091.145-.155.289-.214.433-.475.419-.794 1.036-.794 1.862-.0001 3.05-.042 6.09-.326 9.129-.023.253-.007.48.028.695-.001.094-.028.184-.028.283 0 1.31 1.191 2.756 2.608 2.608 1.521-.159 3.044-.238 4.568-.28.066 16.8.859 28.679-.33 45.599-.059.832.219 1.454.67 1.872.417.569 1.059.99 1.938 1.062 22.16 1.806 44.33.073 66.51 0 .274-.0001.518-.047.747-.112 1.228-.095 2.428-.923 2.513-2.497.87-16.17.968-27.722.977-43.37 1.208-.067 2.418-.238 3.629-.41 1.254-.178 1.982-1.597 1.89-2.779.012-.127.03-.25.025-.388-.131-3.725-.66-7.222-1.723-10.8-.036-.121-.102-.207-.15-.315m-69.1-11.06c19.68-.046 39.37-.508 59.01.928 1.545 2.596 2.796 5.32 3.922 8.116-23.01-2.576-46.17-2.742-69.28-1.761 1.892-2.609 3.973-5.063 6.346-7.283m59.36 66.54c-20.66.149-41.31 1.596-61.953.175.978-16.06.293-26.912.218-42.984 20.823-.625 41.626.579 62.44.996.047.044.092.089.142.13-.006 15.61-.088 26.06-.851 41.683m5.467-45.956c-.415-.583-1.076-.999-2-1.014-21.632-.353-43.25-1.695-64.884-1.064-.406-.344-.944-.566-1.627-.566-1.914 0-3.824.022-5.731.122.116-1.807.153-3.616.17-5.427 24.658-1.144 49.37-1.075 73.912 1.804.503 2.02.831 4.03.994 6.107-.277.022-.554.035-.83.038"/></g></svg>