<svg xmlns="http://www.w3.org/2000/svg" viewBox="0 0 100 100" enable-background="new 0 0 100 100"><path fill="#1d1d1b" d="m88.06 54.699c-1.72-10.07-8.642-16.04-17.666-18.773.649.197 4.321-4.86 5.12-5.686 1.076 1.192 2.146 2.39 3.181 3.618.361.429.769.659 1.18.738 1.162.454 2.609.099 2.95-1.465.901-4.133 1.973-8.226 2.874-12.358.08-.364.078-.702.014-1.01.928-1.467-.304-4.04-2.555-3.544-4.01.884-7.916 2.08-11.784 3.449-.181.065-.344.145-.492.236-1.363.488-2.349 2.408-1.098 3.895.863 1.025 1.75 2.028 2.645 3.02-.019.017-.04.029-.058.047-1.825 1.846-3.367 3.942-5.208 5.783-2.475-11.177-8.678-19.994-20.896-22.22-13.01-2.368-26.443 1.582-39.523 1.392-2.967-.043-2.962 4.555 0 4.598 2.034.03 4.062-.045 6.089-.154.017.018.027.038.045.056l35.31 35.31-4.455 4.455h-8.245c-2.966 0-2.966 4.598 0 4.598h7.614c.654 2.674 1.171 5.374 1.665 8.08.531 2.914 4.962 1.676 4.434-1.223-.526-2.893-1.08-5.776-1.799-8.626 1.346-1.346 2.691-2.691 4.04-4.04l31.28 31.28c.389.389.817.592 1.244.655-.03 2.215-.012 4.426.095 6.629.143 2.951 4.742 2.966 4.599 0-.621-12.848 1.581-26.01-.595-38.752m-7.247-33.16c-.467 2.047-.95 4.089-1.436 6.131-1.345-1.5-2.7-2.992-4.04-4.497 1.812-.594 3.637-1.141 5.478-1.634m-61.927-5.704c7.107-.65 14.199-1.571 21.348-1.393 14.08.35 20.843 9.08 23.01 22.13-3.937 3.936-7.873 7.873-11.809 11.809l-32.55-32.55m65.24 65.24l-29.435-29.435 11.948-11.948c10.26 2.364 16.204 8.338 17.412 19.234.811 7.319.359 14.744.075 22.15"/></svg>