<svg xmlns="http://www.w3.org/2000/svg" viewBox="0 0 100 100" enable-background="new 0 0 100 100"><g fill="#1d1d1b"><path d="m41.724 52.29c-9.19.898-18.384 1.77-27.575 2.669-1.463.143-2.278 1.247-2.444 2.399-.484.883-.492 2 .433 2.929 1.914 1.914 3.816 3.838 5.597 5.877-2.523 2.68-9.562 9.621-12.541 11.801-1.488 1.089-1.353 2.978-.476 4.09.111.373.314.742.655 1.083 4.206 4.206 8.397 8.425 12.432 12.797 1.088 1.18 2.491.938 3.409.105.146-.082.29-.173.43-.288 3.309-2.722 10.773-10.07 13.81-13.09 1.468 1.335 2.883 2.727 4.289 4.132.547.547 1.163.76 1.758.75 1.556.741 3.826.013 3.752-2.213-.336-10.237-.185-20.474 0-30.713.038-2.104-2-2.877-3.529-2.329m-1.763 27.505c-.847-.793-1.707-1.574-2.595-2.325-.73-.617-1.553-.742-2.297-.57-.641-.051-1.315.16-1.908.753-2.913 2.911-10.237 10.175-13.344 12.874-3.165-3.366-6.412-6.653-9.675-9.924 3.082-2.51 10.277-9.674 12.964-12.638 1.314-1.449.586-3.308-.689-4.094-.103-.225-.228-.446-.408-.659-1.029-1.216-2.108-2.385-3.211-3.532 7.078-.687 14.157-1.366 21.235-2.055-.123 7.39-.199 14.78-.072 22.17"/><path d="m93.62 16.571c-4.176-4.236-8.338-8.483-12.342-12.883-1.08-1.187-2.484-.956-3.409-.129-.145.081-.29.171-.431.285-3.328 2.699-10.844 9.999-13.901 12.993-1.459-1.346-2.864-2.747-4.26-4.161-.543-.55-1.158-.768-1.753-.763-1.551-.752-3.825-.039-3.768 2.187.266 10.239.042 20.475-.214 30.712-.053 2.104 1.98 2.891 3.513 2.353 9.197-.834 18.396-1.641 27.593-2.476 1.465-.133 2.287-1.231 2.461-2.382.49-.88.505-2-.413-2.932-1.9-1.928-3.79-3.865-5.556-5.916 2.541-2.663 9.628-9.554 12.623-11.713 1.496-1.079 1.374-2.968.504-4.087-.108-.374-.309-.744-.647-1.088m-17.838 15.05c-1.325 1.44-.609 3.304.661 4.099.101.225.225.448.403.662 1.02 1.224 2.092 2.399 3.187 3.554-7.083.637-14.167 1.267-21.249 1.907.174-7.39.302-14.779.227-22.17.841.799 1.696 1.586 2.579 2.343.726.622 1.548.752 2.293.586.641.056 1.316-.151 1.913-.74 2.933-2.891 10.308-10.1 13.434-12.78 3.141 3.388 6.365 6.697 9.606 9.992-3.101 2.487-10.346 9.601-13.05 12.547"/></g></svg>