<svg xmlns="http://www.w3.org/2000/svg" viewBox="0 0 100 100" enable-background="new 0 0 100 100"><path d="m90.4 29.621l-.063-.186c-.285-.828-1.079-2.216-3.199-2.216h-37.928l-.009-.991c-.03-3.425-.125-7.929-.586-12.399-.015-.142-.049-.271-.08-.401l-.058-.308c-.109-1.935-1.848-3.696-3.646-3.696-.839 0-1.606.38-2.281 1.13l-31.28 34.758-.192.086c-1.469.66-2.47 2.251-2.382 3.784l.004.058-.005.058c-.088 1.533.913 3.125 2.382 3.784l.192.086.141.157 31.14 34.603c.675.75 1.442 1.131 2.281 1.131 1.799 0 3.537-1.762 3.646-3.696l.058-.31c.031-.129.065-.259.08-.4.461-4.47.556-8.974.586-12.398l.009-.991h37.928c2.12 0 2.914-1.389 3.199-2.217l.063-.186.13-.148c.522-.597.787-1.35.787-2.239v-34.466c0-.89-.265-1.643-.787-2.24l-.13-.147m-6.224 34.5h-37.31c-.307 0-.608.039-.951.123l-.119.029-.124-.0001c-1.802 0-3.596 1.058-3.597 3.419 0 2.139-.014 4.275-.049 6.411l-.042 2.543-24.664-27.405 24.664-27.405.042 2.543c.035 2.136.049 4.273.049 6.411.0001 2.361 1.795 3.419 3.573 3.419l.269.029c.341.084.643.123.949.123h37.31v29.761" fill="#1d1d1b"/></svg>