<svg xmlns="http://www.w3.org/2000/svg" viewBox="0 0 100 100" enable-background="new 0 0 100 100"><path d="m14.328 92.38c.492.287 1.114.407 1.868.241 12.189-2.671 24.23-7.916 36.27-11.201.148.093.299.183.476.258 10.353 4.336 20.995 9.82 31.756 12.988.548.161 1.062.159 1.536.06 1.912-.032 3.788-1.723 2.726-3.929-13.32-27.676-25.307-55.946-36.24-84.65-.459-1.207-1.394-1.732-2.373-1.777-1.232-.319-2.556.114-3.056 1.707-8.863 28.25-17.947 56.936-34.906 81.55-1.417 2.056.118 4.334 1.946 4.753m66.49-5.01c-8.639-2.67-17.18-7.601-25.534-11.1-.197-.083-.389-.136-.577-.176-.088-17.08-.029-32.16-.21-49.23 8.168 20.427 16.906 40.617 26.321 60.51m-32.26-65.902c.275 18.957.205 35.916.3 54.875-9.332 2.54-18.675 7.02-28.09 9.216 12.485-19.837 20.589-41.837 27.793-64.09" fill="#1d1d1b"/></svg>