<svg xmlns="http://www.w3.org/2000/svg" viewBox="0 0 100 100" enable-background="new 0 0 100 100"><path d="m93.88 62.62c-.968 0-1.882.374-2.643 1.081-9.987 9.284-23.715 20.05-41.38 20.947-.795.04-1.599.06-2.402.06-13.12.0001-24.778-5.179-31.18-13.854-5.083-6.888-6.74-15.525-4.664-24.32 2.368-10.03 9.449-19.12 18.48-23.726 4.958-2.527 10.403-3.863 15.747-3.863 14.346 0 25.583 9.245 27.962 23.01.93 5.378-.417 18.883-5.409 24.813-1.537 1.825-3.289 2.751-5.209 2.751-.949 0-1.965-.223-3.03-.665-.511-3.729-.205-8.06.118-12.634.722-10.208 1.468-20.762-6.632-26.834-.353-.363-.754-.639-1.196-.822l-.057-.036c-.251-.16-.502-.319-.771-.468-1.012-.562-2.12-.667-3.144-.304-.303.024-.594.081-.885.171-10.664 3.313-20.903 10.213-27.39 18.459-3.212 4.082-4.69 9.597-3.856 14.392.67 3.858 2.735 6.97 5.972 8.999 1.934 1.212 4.178 1.828 6.669 1.828 7.292 0 14.746-5.195 17.612-7.429 2.442-1.904 4.565-4.209 6.272-6.794-.036.492-.072.982-.108 1.467-.351 4.724-.683 9.188-.134 12.59-.051 1.402.631 2.627 1.887 3.376 2.876 1.716 5.703 2.586 8.4 2.586 11.429 0 17.997-15.469 19.01-26.454.966-10.469-1.912-20.262-8.105-27.574-5.916-6.987-14.569-11.232-24.364-11.951-1.095-.081-2.203-.122-3.293-.122-22.758 0-41.3 17.08-43.12 39.733-.824 10.22 2.274 19.452 8.96 26.699 8.529 9.245 22.432 14.764 37.19 14.764.961 0 1.931-.024 2.884-.073 18.603-.939 33.656-12.836 44.692-23.09 1.174-1.092 1.541-2.595.98-4.02-.621-1.579-2.207-2.682-3.858-2.682m-52.71-4.159c-2.463 2.09-7.661 5.199-11.885 5.199-1.509 0-2.765-.402-3.732-1.194-1.324-1.085-1.988-2.367-2.028-3.917-.101-3.826 3.706-8.693 7.301-11.972 5.061-4.615 11.394-8.44 17.501-10.588 2.52 5.989 1.897 14.791-7.157 22.472" fill="#1d1d1b"/></svg>