<svg xmlns="http://www.w3.org/2000/svg" viewBox="0 0 100 100" enable-background="new 0 0 100 100"><path d="m77.08 31.21c-1.267-.667-2.361-1.243-3.099-1.706-5.365-3.364-11.128-6.673-17.13-9.836-5.622-2.965-11.522-5.838-17.534-8.541-1.558-.7-3.054-1.581-4.638-2.513-2.612-1.536-5.313-3.126-8.428-3.938-2.86-.745-5.182-.259-6.716 1.351-2.045 2.147-2.164 5.633-2.01 8.759.256 5.216.318 10.55.379 15.709.029 2.481.059 4.961.107 7.439.092 4.565.141 9.129.189 13.692.127 11.805.258 24.01 1.154 36.04.03.401.11.797.245 1.202.368 2.349 2.162 4.03 4.351 4.03.588 0 1.188-.12 1.782-.354 11.528-4.558 23.18-11.291 35.615-20.585 5.29-3.954 10.698-8.322 16.07-12.984.987-.856 2.304-1.779 3.696-2.758 3.721-2.61 7.938-5.57 9.298-9.527.525-1.529.755-3.926-1.135-6.664-2.594-3.755-8.145-6.677-12.199-8.811m1.875 13.306c-12.557 11.543-30.633 26.884-50.27 36.14-.658-11.961-.759-24.1-.855-35.875-.076-9.252-.155-18.789-.504-28.23 19.722 8.299 37.467 17.91 51.631 27.963" fill="#1d1d1b"/></svg>