<svg xmlns="http://www.w3.org/2000/svg" viewBox="0 0 100 100" enable-background="new 0 0 100 100"><path d="m90.24 45.4l-.192-.086-31.28-34.759c-.675-.75-1.442-1.13-2.281-1.13-1.799 0-3.536 1.762-3.646 3.696l-.056.298c-.032.132-.067.263-.082.408-.458 4.43-.554 8.755-.587 12.403l-.009.991h-37.927c-2.12 0-2.914 1.389-3.199 2.216l-.063.186-.129.147c-.524.598-.789 1.351-.789 2.24v34.465c0 .889.265 1.643.788 2.24l.129.147.063.186c.285.828 1.079 2.217 3.199 2.217h37.928l.009.991c.033 3.647.129 7.973.587 12.399.015.147.05.278.082.41l.056.3c.109 1.934 1.847 3.695 3.646 3.695.838 0 1.605-.381 2.281-1.131l31.28-34.76.192-.086c1.469-.659 2.47-2.251 2.381-3.784l-.004-.057.004-.058c.089-1.533-.912-3.124-2.381-3.784m-30.912 31.25l-.042-2.543c-.035-2.136-.049-4.272-.049-6.411-.0001-2.361-1.795-3.419-3.573-3.419v-.997l-.023.997-.124.0001-.12-.03c-.343-.084-.645-.123-.95-.123h-37.31v-29.761h37.31c.307 0 .607-.039.948-.123l.121-.029h.124c1.802 0 3.596-1.057 3.597-3.419 0-2.138.014-4.275.049-6.411l.042-2.543 24.664 27.405-24.664 27.406" fill="#1d1d1b"/></svg>