<svg xmlns="http://www.w3.org/2000/svg" viewBox="0 0 100 100" enable-background="new 0 0 100 100"><path d="m88.72 44c-.453-.197-.935-.301-1.432-.309l-.064-.009c-3.362-.951-6.937-1.781-10.929-2.536l-.421-.08.277-.328c.136-.161.262-.312.375-.45 3.321-4.04 7.452-9.07 8.54-13.982.595-2.688.603-7.247-1.241-8.964-.918-.855-2.075-1.271-3.539-1.271-2.327 0-5.099 1.089-7.324 1.965-.46.181-.874.448-1.231.793l-.052.039c-3.082 1.722-6.343 3.757-9.69 6.05l-.357.244-.033-.432c-.041-.528-.082-.995-.122-1.378-.537-5.202-1.207-11.676-4.075-15.921-1.534-2.271-4.893-5.469-7.557-5.469l-.105.002c-3.921.131-5.979 4.593-7.635 8.178-.207.452-.317.932-.326 1.426l-.011.067c-.939 3.137-1.796 6.571-2.544 10.206l-.082.399-.318-.253c-7.553-6.02-14.01-8.458-19.21-7.254-2.491.576-4.101 1.774-4.781 3.561-1.433 3.757 1.031 10.177 7.323 19.08l.243.344-.419.048c-9.52 1.099-15.771 3.938-18.581 8.438-1.354 2.169-1.645 4.154-.862 5.899 1.644 3.669 7.926 6.466 18.671 8.314l.416.071-.262.33c-5.955 7.508-8.368 13.936-7.173 19.11.806 3.481 2.733 5.174 5.894 5.174 3.597 0 8.732-2.248 15.264-6.684l.328-.223.06.393c1.299 8.552 4.229 14.227 8.708 16.866 7.109 4.192 12.156-1.826 15.07-17.69l.077-.417.327.269c4.269 3.499 8.812 6.998 13.319 7.994 1.025.227 2.238.353 3.417.353 2.583 0 4.604-.581 5.548-1.593 2.516-2.7.736-7.227-.693-10.863-.184-.466-.443-.868-.794-1.231l-.038-.052c-1.696-3.035-3.691-6.238-5.931-9.521l-.242-.354.428-.036c.208-.018.402-.035.579-.053 5.204-.508 11.682-1.142 15.925-3.849 2.322-1.479 5.552-4.696 5.462-7.216-.132-3.688-4.591-5.63-8.174-7.191m-78.45 8.342c-1.398-.68-2.104-1.554-2.093-2.597.018-1.873 2.438-3.828 4.828-4.935 3.194-1.479 7.279-2.384 12.489-2.768l.134-.001.082.105c1.801 2.308 3.831 4.766 6.03 7.307l.157.181-.174.165c-2.437 2.294-4.536 4.403-6.421 6.446l-.089.097-.131-.02c-4.431-.65-10.122-1.69-14.815-3.971m24.749 20.604c-4.5 3.222-8.195 5.275-11.629 6.464-.59.204-1.129.307-1.604.307-.854 0-1.515-.323-1.961-.963-1.089-1.56-.587-4.532.174-6.604 1.212-3.305 3.461-6.833 6.873-10.787l.088-.102.132.017c2.384.294 4.963.552 7.667.767l.237.019-.008.236c-.111 3.878-.067 7.288.134 10.428l.001.138-.113.08m.302-17.858c-.041.692-.082 1.42-.122 2.172l-.015.261-.26-.025c-1.19-.116-2.379-.247-3.564-.384l-.508-.059.357-.364c.991-1.01 1.977-1.987 2.925-2.927.1-.099.202-.195.305-.293.094-.089.188-.178.278-.268l.186-.183.51.562-.092 1.508m.652-9.283l-.008.1-.728.654-.19-.177c-1.183-1.415-2.32-2.841-3.374-4.171l-.316-.401.511-.004c1.416-.014 2.802-.007 4.136-.0001h.274l.027.273c-.119 1.245-.23 2.487-.332 3.726m2.193-18.251c-.495 2.972-.93 6.08-1.329 9.503l-.026.228-.229-.006c-3.094-.083-5.951-.073-8.571.032l-.132.005-.078-.105c-2.674-3.594-5.962-8.352-7.668-13.285-.444-1.284-.406-2.304.111-3.03.54-.759 1.596-1.16 3.051-1.16 1.222 0 2.716.291 4.098.798 3.276 1.202 6.772 3.423 10.689 6.79l.106.092-.022.138m5.304-1.723c.756-3.935 1.613-7.77 2.548-11.398.188-.728.398-1.467.646-2.26.014-.043.021-.084.028-.125s.016-.081.026-.123c.759-1.869 1.668-3.829 3-3.829.269 0 .539.082.806.243.904.546 2.547 1.672 3.386 3.072 1.17 1.951 1.644 4.522 2.062 6.791l.062.33c.536 2.896.919 6.05 1.167 9.647l.001.137-.11.082c-2.02 1.487-4.102 3.089-6.196 4.759l-.182.145-.158-.169c-2.517-2.709-4.813-5.02-7.02-7.07l-.102-.094.025-.137m-1.843 11.376c.275-2.054.523-3.753.779-5.348l.077-.478.345.339c1.02 1 2.01 1.994 2.952 2.95.235.238.468.482.7.727.181.189.36.379.542.566l.189.194-.208.173c-.519.43-1.033.863-1.547 1.296l-.076.064-1.609-.098c-.61-.034-1.251-.068-1.909-.102l-.271-.014.036-.269m-1.782 31.616c-.047-2.01-.041-3.969-.031-5.968l.009-.467.26.014c1.257.07 2.512.132 3.762.185l.099.004.068.07c.553.562 1.099 1.111 1.638 1.651l.193.193-.21.176c-1.76 1.466-3.535 2.896-5.277 4.251l-.482.375-.029-.484m15.334 4.8c-.693 4.491-1.802 10.251-4.231 14.97-.714 1.387-1.627 2.089-2.714 2.089-1.98 0-4.056-2.423-5.234-4.823-1.399-2.854-2.308-6.39-2.777-10.811l-.015-.14.112-.086c2.676-2.039 5.556-4.394 8.56-6.997l.174-.15.164.159c2.067 2.01 4.102 3.934 5.884 5.566l.099.091-.022.132m1.326-10.491c-.153 1.526-.332 3.109-.531 4.706l-.061.485-.358-.334c-1.065-.994-2.11-1.991-3.106-2.963l-.19-.186.198-.179c.645-.581 1.282-1.164 1.918-1.748l.072-.066 2.086.011-.028.274m.963-15.51c-.058 2.18-.148 4.399-.271 6.596l-.006.099-.071.068c-1.369 1.309-2.796 2.637-4.362 4.06l-.073.067-.1-.002c-2.195-.042-4.458-.118-6.724-.226l-.1-.005-.069-.072c-1.973-2.051-3.754-3.963-5.445-5.847l-.07-.077.006-.104c.077-1.286.176-2.661.312-4.327l.008-.099.073-.066c2.159-1.962 4.199-3.749 6.237-5.462l.076-.064.1.006c2.02.117 4.086.266 6.138.443l.099.008.066.074c1.405 1.578 2.791 3.18 4.119 4.762l.061.072-.004.096m-.874-9.11c-.388-.037-.775-.074-1.163-.107l-.1-.008-1.576-1.766.288-.223c1.01-.778 2.02-1.557 3.039-2.314l.388-.288.012.482c.033 1.348.054 2.694.063 4.04l.002.276-.953-.089m5.436-7.984c3.532-2.468 7.06-4.777 10.482-6.862.649-.394 1.332-.787 2.029-1.167.04-.021.074-.046.108-.07.033-.023.066-.046.103-.068 1.209-.541 2.554-1.101 3.571-1.101 1.057 0 1.413.612 1.526 1.125.217.991.517 2.884.087 4.434-.599 2.16-2.101 4.295-3.426 6.18l-.19.27c-1.55 2.207-3.308 4.444-5.374 6.84l-.091.105-.137-.021c-2.557-.393-5.302-.752-8.393-1.099l-.22-.025-.002-.222c-.024-2.797-.086-5.524-.182-8.104l-.005-.136.114-.079m5.162 13.748l-.328.348c-1.109 1.178-2.225 2.319-3.072 3.183l-.194.198-.177-.214c-.423-.511-.848-1.018-1.273-1.524l-.06-.071v-.093c.011-.755.019-1.502.023-2.239l.002-.283.506.065c1.347.175 2.738.355 4.1.56l.472.07m-5.528 14.02c.045-.78.088-1.56.125-2.337l.005-.098 1.319-1.303.429.557c.761.988 1.521 1.976 2.26 2.977l.283.385-.476.013c-1.232.036-2.463.057-3.691.07l-.268.003.014-.267m14.213 14.756c.389.641.782 1.323 1.168 2.028.021.041.045.074.068.107.024.034.048.068.07.105.722 1.618 1.434 3.398.926 4.402-.183.361-.503.595-.952.693-.633.139-1.603.305-2.632.305-.677 0-1.283-.073-1.802-.217-2.16-.599-4.295-2.101-6.178-3.426l-.272-.191c-1.826-1.282-3.722-2.753-5.793-4.493l-.104-.088.018-.137c.377-2.831.696-5.886.948-9.08l.018-.228.229-.003c2.574-.034 5.05-.096 7.345-.185l.137-.005.078.112c2.393 3.436 4.657 6.899 6.728 10.3m14.639-21.11c-.547.854-1.674 2.406-3.073 3.197-1.951 1.104-4.523 1.552-6.792 1.947l-.326.057c-2.65.463-5.474.802-8.632 1.035l-.139.011-.081-.112c-1.553-2.117-3.244-4.326-5.03-6.563l-.138-.173.154-.158c2.028-2.072 3.943-4.08 5.692-5.969l.093-.1.135.024c4.133.736 8.185 1.585 12.04 2.522.733.179 1.473.378 2.26.609.046.013.088.021.13.028.038.007.077.014.116.023 1.657.635 3.42 1.392 3.771 2.46.125.384.064.776-.183 1.162" fill="#1e1e1c"/></svg>