<svg xmlns="http://www.w3.org/2000/svg" viewBox="0 0 100 100" enable-background="new 0 0 100 100"><g fill="#1e1e1c"><path d="m56.47 3.83c-.078-.007-.146.003-.22.002-.005 0-.001-.002-.015-.002-21.994-.762-45.11 12.02-43.11 36.752.008.1.033.189.051.282-.029.256-.029.524.033.815 1.206 5.644-.645 10.606-5.278 14.07-.212.159-.375.34-.517.529-.468.308-.838.78-1.037 1.351-.869 2.494-.209 5.03 1.784 6.768.329.286.709.48 1.105.585 1.287.711 2.632 1.183 4.03 1.513-.287 1.549-.146 3.116.6 4.59-1.393 2.715-.468 5.71 2.282 7.345.155.092.31.162.462.216.467.555.512 1.448.34 2.306-.053.263-.06.525-.04.781-.012.233-.005.469.04.707.725 3.803 3.973 5.903 7.69 5.97.2.004.385-.016.559-.051.172.007.352-.003.538-.033 5.969-.967 12.765-.427 15.01 6.129.448 1.31 1.646 1.754 2.719 1.581.362.271.838.426 1.438.384 10.816-.756 21.537-2.327 32.28-3.769.38-.051.709-.174.993-.347 1.302-.406 2.354-1.864 1.513-3.434-7.176-13.379 7.371-27.974 10.132-40.827.06-.278.061-.535.037-.78 2.918-21.11-11.689-41.473-33.407-43.43m28.826 42.487c-.029.195-.033.382-.022.562-2.999 13.752-16.15 27.05-10.944 41.45-9.78 1.328-19.554 2.692-29.405 3.381-.07.005-.131.024-.198.034-3.521-7.836-11.714-9.242-19.82-8.02-.081-.009-.156-.027-.243-.029-.923-.017-1.405-.113-2.125-.553.063.02-.37-.325-.366-.32-.062-.062-.101-.099-.129-.124 0-.018-.025-.074-.116-.221-.137-.22-.238-.53-.322-.879.418-2.887-.402-5.395-2.821-7.24-.194-.148-.412-.231-.637-.286-.07-.058-.138-.115-.211-.189.013.006.0001-.023-.041-.091 0-.06-.004-.079-.011-.073.029-.125.057-.25.101-.371.0001-.005.352-.55.468-.714.325-.458.391-1.014.289-1.548.097-.528.028-1.078-.289-1.537-.891-1.291-.716-2.39 0-3.747 1.025-1.943-.821-3.716-2.457-3.535-.017-.002-.032-.007-.049-.001-1.659-.219-3.263-.704-4.701-1.563-.103-.061-.204-.099-.305-.144-.072-.104-.139-.211-.199-.322-.001-.03-.018-.056-.032-.099-.012-.055-.02-.091-.028-.126-.004-.108-.0001-.215.004-.323.008-.029.023-.097.043-.202 5.984-4.675 8.554-11.1 7.098-18.614.003-.094.013-.182.005-.282-1.796-22.23 18.886-32.717 38.4-32.04.062.002.116-.009.176-.011.021.002.039.009.06.011 18.528 1.669 31.465 19.738 28.826 37.775"/><path d="m61.5 15.25h-14.25c-1.052 0-1.667.667-1.861 1.455-.425.315-.701.824-.639 1.545 1.039 12.06 2.331 24.09 4.322 36.03.191 1.148 1.084 1.551 1.966 1.42.144.031.297.048.462.048h6c1.322 0 1.961-1.05 1.929-2.074.035-.133.061-.274.071-.426.807-11.891 2.703-23.66 4-35.5.037-.336-.003-.624-.095-.871-.141-.862-.776-1.629-1.905-1.629m-5.883 36.5h-2.923c-1.742-10.778-2.906-21.626-3.856-32.5h10.488c-1.23 10.836-2.888 21.621-3.709 32.5"/><path d="m48.44 61.31c-4.379 6.528 5.904 12.905 10.604 6.953 1.557-1.972 1.84-3.874 1.333-5.472-1.381-4.348-8.615-6.433-11.937-1.481m6.148 5.473c-.118.027-.233.046-.344.056-2.718.25-3.271-4.396-.115-4.556 2.713-.137 2.876 3.943.459 4.5"/></g></svg>