<svg xmlns="http://www.w3.org/2000/svg" viewBox="0 0 100 100" enable-background="new 0 0 100 100"><path d="m91.54 36.29c-.007-.064-.018-.125-.041-.247.041-.731-.02-1.384-.186-1.993-1.047-3.859-3.135-6.792-6.204-8.715-1.871-1.172-4.095-1.743-6.8-1.743-.46 0-.92.017-1.38.046-.504-.116-.996-.175-1.502-.179-11.977-.103-19.575.265-27.685.662-6.153.302-12.508.613-21.305.749 1.966-2.61 3.712-5.134 5.318-7.69 1.237-1.967 1.348-4.083.312-5.956-1.165-2.109-3.611-3.525-6.088-3.525-2.17 0-4.03 1.065-5.25 3-3.46 5.504-7.67 10.873-12.871 16.414-1.514 1.613-2.086 3.623-1.623 5.599.139 1.371.809 2.663 1.938 3.736 6.638 6.307 11.777 11.633 16.17 16.761 1.19 1.389 2.663 2.122 4.258 2.122 2.367 0 4.711-1.639 5.833-4.078 1.116-2.428.754-4.99-.995-7.03-1.637-1.909-3.391-3.852-5.443-6.03.502.052 1.097.077 1.792.077 2.706 0 6.376-.397 9.06-.688 1.402-.152 2.613-.283 3.188-.3 2.882-.088 4.247-.185 5.567-.279 1.305-.093 2.654-.188 5.489-.277 10.1-.315 12.985-.326 22.537-.359l1.279-.005.002.013.109-.005c.333 0 .631.138.91.421 2.262 2.29 2.143 12.235 2.085 17.02-.015 1.256-.026 2.248-.002 2.857.143 3.423.253 6.848.364 10.271.188 5.823.383 11.845.734 17.763.239 4.04 3.573 6.152 6.743 6.152 1.817 0 3.493-.671 4.597-1.842 1.05-1.114 1.55-2.625 1.446-4.369-.319-5.39-.528-11.566-.75-18.11-.356-10.573-.726-21.505-1.606-30.24" fill="#1d1d1b"/></svg>