<svg xmlns="http://www.w3.org/2000/svg" viewBox="0 0 100 100" enable-background="new 0 0 100 100"><path d="m6.186 46.17c5.459 2.918 10.747 6.6 15.861 10.161 5.457 3.799 11.1 7.728 17.01 10.782.601.31 1.187.467 1.743.467.799 0 1.534-.326 2.127-.942 1.123-1.168 1.567-3.179 1.509-4.654-.057-1.443-.116-5.779.03-7.21h.074c17.297 0 31.916 9.475 45.14 19.714.639.495 1.388.757 2.164.757 1.524 0 2.997-1.01 3.502-2.404.388-1.072.112-2.173-.735-2.991-.082-.299-.198-.575-.354-.838-10.936-18.429-24.729-38.26-50.21-40.687-.065-2.264-.243-7.338-.602-10.52-.034-.299-.108-.588-.232-.906-.367-1.584-1.656-2.727-3.087-2.727-.624 0-1.234.207-1.813.615-5.751 4.049-11.65 8.923-17.356 13.637-4.766 3.937-9.693 8.01-14.427 11.502-.303.223-.561.488-.787.808-.884.775-1.361 1.924-1.251 3.02.102 1.026.702 1.883 1.691 2.411m7.818-3.338c3.677-2.735 7.43-5.985 11.07-9.135 3.974-3.441 8.07-6.989 12.1-9.893.114 2.45.177 5.832.185 7.702.009 2.059 1.569 3.127 3.044 3.264.251.064.494.1.741.111 19.01.825 30.517 12.513 39.1 24.716-12.631-7.913-23.983-11.617-35.482-11.617-.985 0-1.986.028-2.975.083-.965.054-1.785.445-2.38 1.133-.545.442-.913 1.075-1.067 1.836-.386 1.909-.616 5.212-.695 7.593-4.099-2.404-8.13-5.257-12.04-8.02-3.764-2.664-7.645-5.411-11.6-7.769" fill="#1d1d1b"/></svg>