<svg xmlns="http://www.w3.org/2000/svg" viewBox="0 0 100 100" enable-background="new 0 0 100 100"><g fill="#1d1d1b"><path d="m95.33 67.753c-10.323-17.398-23.347-36.12-47.42-38.33-.058-2.032-.226-7.02-.572-10.1-.032-.283-.104-.556-.202-.774-.308-1.432-1.453-2.471-2.726-2.471-.546 0-1.081.182-1.593.542-5.42 3.816-10.985 8.414-16.367 12.86-4.502 3.72-9.158 7.566-13.633 10.869-.273.201-.506.442-.712.736-.784.68-1.226 1.73-1.129 2.695.091.897.619 1.647 1.488 2.112 5.164 2.761 10.161 6.24 14.993 9.604 5.146 3.583 10.469 7.288 16.04 10.165.537.277 1.059.418 1.551.418.696 0 1.338-.285 1.857-.825 1.018-1.059 1.42-2.893 1.367-4.241-.057-1.495-.115-5.859.053-7.02h.255c16.39 0 30.23 8.966 42.739 18.655.566.438 1.229.67 1.915.67 1.355 0 2.663-.896 3.11-2.132.349-.963.1-1.918-.685-2.644-.073-.288-.18-.55-.326-.795m-12.292-8.264c-12.24-7.829-23.18-11.489-34.26-11.489-.927 0-1.867.026-2.797.078-.859.048-1.589.397-2.113 1.01-.484.387-.812.948-.949 1.625-.382 1.891-.602 5.232-.662 7.483-3.982-2.31-7.895-5.079-11.686-7.762-3.634-2.572-7.384-5.227-11.203-7.482 3.544-2.615 7.171-5.755 10.685-8.798 3.858-3.341 7.842-6.79 11.748-9.577.119 2.326.184 5.731.192 7.661.007 1.854 1.387 2.783 2.654 2.865.245.067.48.104.72.115 18.478.802 29.47 12.406 37.669 24.27"/><path d="m5.098 48.542c9.139 6.346 18.19 12.827 27.598 18.768 2.152 1.359 4.723-1.712 2.543-3.087-9.211-5.815-18.07-12.145-27.01-18.361-.084-.137-.184-.272-.312-.402-1.595-1.613-1.439-2.973.125-4.547.049-.049.082-.102.125-.153.199-.082.396-.188.584-.347 8.487-7.195 16.869-14.515 25.667-21.333 2.037-1.578-.816-4.388-2.828-2.828-8.797 6.818-17.18 14.14-25.667 21.333-.02.017-.032.036-.051.053-.227.096-.449.238-.657.447-2.819 2.835-3.188 6.35-.874 9.339.074.407.303.8.761 1.118"/></g></svg>