<svg xmlns="http://www.w3.org/2000/svg" viewBox="0 0 100 100" enable-background="new 0 0 100 100"><path d="m95.96 38.01c-.0001-.372-.034-.742-.1-1.1-.038-.899-.249-1.771-.626-2.594-1.59-3.463-5.259-6.173-9.129-6.744-.509-.074-1.06-.093-1.599-.06-.392-.079-.792-.119-1.191-.119l-.172.002c-8.806.245-13.779.294-21.396.305 1.328-1.188 2.543-2.294 3.678-3.349 1.677-1.559 2.201-3.699 1.405-5.726-.897-2.281-3.185-3.875-5.562-3.875-1.383 0-2.691.538-3.785 1.554-3.912 3.637-8.142 7.338-12.575 11-2.02.424-3.698 2.183-4.234 4.469-.567 2.421.312 4.706 2.352 6.113 5.475 3.775 10.764 7.89 15.72 12.232 1.093.956 2.389 1.462 3.748 1.462 2.43 0 4.818-1.665 5.681-3.959.765-2.032.207-4.069-1.528-5.589-1.105-.967-2.269-1.957-3.567-3.03 7.433-.016 11.974-.077 20.12-.303.245-.007.479-.031.706-.064.206.045.411.096.614.157.047.025.092.051.134.077.004 1.232.001 2.465.017 3.697.038 7.649.077 15.556-.542 23.3l-.034.059c-.029.043-.1.141-.174.244l-.181.256c-.277.319-.584.628-.935.943-.271.188-.561.349-.834.502-.058.03-.117.06-.177.089-.068.019-.143.044-.229.075-4.456.005-8.719.03-12.867.055-4.314.025-8.505.051-12.66.051-9.683 0-21.395-.123-34.85-1.034-.276-.019-.591-.013-.73-.002h-2.401c-.147-.048-.298-.089-.455-.123-.266-.056-.525-.121-.814-.207-.127-.069-.249-.146-.37-.224-.104-.094-.206-.187-.307-.284-.09-.087-.186-.161-.296-.235-.057-.058-.113-.114-.172-.171-.1-.316-.23-.631-.39-.938-.067-2.629-.262-5.28-.449-7.847-.455-6.229-.886-12.13.283-18.01 4.134.092 8.262.292 13.11.561 3.703.21 5.47-2.611 5.541-5.216.079-2.872-1.76-5.885-5.43-6.089-5.682-.314-11.241-.599-16.833-.622-1.01 0-1.923.223-2.723.663-1.81.522-3.098 1.866-3.634 3.795-2.461 8.834-1.966 17.996-1.486 26.855.14 2.583.283 5.254.352 7.873.031 1.188.383 2.276 1.018 3.161.207.681.486 1.288.831 1.808.591.892 1.281 1.619 2.228 2.347.026.03.054.06.071.077 1.829 1.782 3.91 2.971 6.188 3.534.796.395 1.621.595 2.455.595h3.723c.097 0 .19-.009.325-.026.074.001.149.019.228.024 13.51.915 25.27 1.038 34.984 1.038 4.163 0 8.358-.024 12.677-.051 4.258-.025 8.634-.051 13.214-.055l.112-.005c.173.017.347.025.521.025.523 0 1.036-.078 1.526-.233 4.382-1.39 7.898-4.218 10.171-8.179.356-.621.588-1.298.689-2.01.202-.52.331-1.082.386-1.675.729-8.182.686-16.497.643-24.538-.001-1.569-.018-3.141-.021-4.714" fill="#1d1d1b"/></svg>