<svg xmlns="http://www.w3.org/2000/svg" viewBox="0 0 100 100" enable-background="new 0 0 100 100"><path fill="#1d1d1b" d="m94.94 47.09c-.039-4.171-.136-8.353-.05-12.524.047-2.31.225-4.769.087-7.123-.836-14.282-18.11-11.522-28.08-11.514.158 0-2.685-4.589-3.151-5.02-1.407-1.306-3.073-2.175-4.916-2.668-4.197-1.124-8.775-.456-13.05-.296-6.141.229-10.958 1.904-12.252 8.636-3.829.12-7.657.247-11.485.397-4.619-.389-9.777.682-12.878 4.409-2.152 2.587-1.676 6.35-1.753 9.529-.114 4.716-.223 9.431-.235 14.15-.014 5.333.07 10.665.249 15.995.152 4.544-.587 9.393 1.054 13.743 3.192 8.46 14.272 7.122 21.58 7.398 0 .032-.008.059-.008.092.11 8.78 14.362 10.144 13.441.232 6.204.087 12.407.06 18.611-.05-.019 3.727 2.725 6.551 6.356 6.831 4.399.339 6.932-2.574 7.766-6.691.038-.19.056-.38.06-.568.002-.079 8.585-.385 9.626-.539 2.952-.438 5.339-1.667 7.186-4.055 2.756-3.565 1.966-8.538 1.966-12.747-.002-5.871-.068-11.742-.123-17.614m-78.16 29.24c-.186-.113-.381-.214-.593-.289-.257-.09-.4-.144-.864-.403-.192-.107-.371-.234-.551-.36.085.043-.366-.329-.372-.334-.474-.446-.8-.9-1.149-1.518-.0001-.031.005-.057.003-.089-1.053-16.07-1.069-32.15-.411-48.23 1.695-1.811 3.748-2.787 6.087-3.03 1.083 18.07 2.132 36.14 2.532 54.25.002.093.022.174.032.263-1.571-.085-3.142-.159-4.714-.255m14.389.681c-1.507-.054-3.02-.103-4.522-.169.026-.165.044-.336.04-.521-.4-18.09-1.447-36.14-2.529-54.2 1.596-.06 3.192-.105 4.788-.16.215 18.379 2.722 36.651 2.223 55.05m9.777-63.51c3.313-.304 6.643-.438 9.971-.371 1.981.04 4.152-.364 6.102.077 1.118.253 3.816 2.788 4.24 2.783-7.422.091-14.843.221-22.262.424.41-1.104 1.037-2.069 1.949-2.913m-2.71 70.33c-.035.092-.093.248-.129.309-.004.006-.004.007-.007.013-.026.022-.06.051-.112.104-.007.007-.007.008-.014.015-.033.015-.083.041-.155.085-.034.02-.046.029-.07.044-.04.009-.093.024-.174.05-.119.038-.244.054-.367.078-.026-.0001-.048-.008-.074-.009-.031-.0001-.389-.029-.494-.028-.171-.035-.342-.074-.51-.123-.017-.005-.021-.005-.036-.001-.029-.019-.065-.042-.129-.077-.046-.03-.074-.048-.102-.066-.057-.053-.117-.105-.171-.162-.001-.001-.012-.011-.02-.019-.016-.03-.031-.058-.065-.111-.042-.071-.077-.146-.115-.219-.012-.036-.029-.086-.054-.155-.058-.178-.092-.364-.128-.548.032.087-.018-.412-.036-.632.997.029 1.994.029 2.99.052.042.383.053.762.035 1.145-.011.008-.038.142-.063.264m-1.845-6.664c.521-18.51-2.024-36.894-2.226-55.39 9.817-.304 19.636-.507 29.458-.61.0001.097-.008.188.003.292 2.053 18.497 1.951 37.11 2.917 55.675-10.05.268-20.1.297-30.15.029m34.24 6.233c-.065.193-.214.465-.403.747h-1.996c-.11-.07-.33-.212-.369-.222-.049-.045-.096-.092-.143-.138.089.073-.226-.304-.261-.366-.138-.273-.148-.295-.03-.067-.008-.021-.092-.438-.118-.49-.013-.173-.02-.345-.014-.519 1.223-.033 2.445-.087 3.668-.127-.097.398-.203.793-.334 1.182m1.133-6.409c-.958-18.516-.863-37.08-2.91-55.53-.013-.119-.046-.225-.071-.335 1.528-.001 3.057-.016 4.585-.023.62 18.615.279 37.25 3.322 55.684-1.642.07-3.284.143-4.926.202m17.343-4.292c-.963 2.366-2.997 3.908-7.163 3.742-1.543-.062-2.503-23.964-2.602-26.33-.401-9.655-.432-19.319-.751-28.977-.015-.45 7.175 1.091 7.91 1.576 2.525 1.667 2.987 4.715 3.221 7.52.839 10.03.037 20.537.037 30.609.0001 4.01.644 8.678-.652 11.86"/></svg>