<svg xmlns="http://www.w3.org/2000/svg" viewBox="0 0 100 100" enable-background="new 0 0 100 100"><path fill="#1d1d1b" d="m83.28 49.04c.099-.36.084-.777-.102-1.244-4.135-10.387-8.91-20.491-13.467-30.695-.489-1.094-1.445-1.321-2.304-1.032-.213-.052-.444-.081-.706-.061-6.554.492-13.12.771-19.683 1v-9.922c0-2.847-4.415-2.847-4.415 0v10.07c-6.194.201-12.39.388-18.58.69-.289.014-.541.082-.771.176-.725.134-1.399.586-1.726 1.445-3.979 10.487-7.962 20.973-12.05 31.416-1.017.528-1.697 1.74-.968 3.03 3.064 5.412 7.304 9.718 13.679 10.521 6.06.763 10.916-4.356 13.679-9.05.376-.638.392-1.258.192-1.787-.043-.339-.143-.671-.322-.957-.007-.021-.008-.04-.015-.061-3.534-9.983-6.621-20.08-8.854-30.433 5.244-.23 10.491-.404 15.739-.575v58.55c-5.894.901-11.571 3.609-16.185 8.181-.351.348-.539.729-.613 1.112-.915 1.162-.799 3.089 1.035 3.405 13.345 2.302 26.644.456 40.04-.197 2.352-.115 2.754-3.168 1.198-4.126-5.865-5.786-13.47-8.718-21.06-8.714v-58.36c5.653-.197 11.305-.44 16.95-.816-1.986 9.83-4.052 19.642-6.386 29.397-.001.043-.001.083-.018.126-.564.782-.667 1.877.218 2.758 3.844 3.827 8.285 6.809 13.884 6.742 5.208-.062 9.18-4.01 12.03-7.924.766-1.05.385-2.072-.409-2.665m-61.09 10.978c-3.06-.07-5.563-2.229-7.479-4.696 5.109.392 10.223.635 15.346.73-1.963 2.375-4.449 4.04-7.867 3.966m8.555-8.371c-5.525-.088-11.04-.348-16.548-.781 3.118-7.977 6.175-15.977 9.217-23.983 1.977 8.388 4.504 16.615 7.331 24.764m30.479 36.905c-9.668.67-19.354 1.619-28.991.588 8.623-6.472 20.17-6.565 28.991-.588m3.17-35.913c4.249-.133 8.499-.185 12.75-.2-3.983 3.326-8.449 3.036-12.75.2m-1.881-4.346c1.915-8.187 3.661-16.41 5.338-24.648 3.657 8.08 7.366 16.14 10.681 24.376-5.341.014-10.681.072-16.02.272"/></svg>