<svg xmlns="http://www.w3.org/2000/svg" viewBox="0 0 100 100" enable-background="new 0 0 100 100"><g fill="#1d1d1b"><path d="m91.85 18.11c-.006-.27-.056-.511-.123-.738-.138-1.198-.972-2.338-2.511-2.422-4.386-.239-8.774-.263-13.166-.263-.696 0-1.241.228-1.652.58-.848.353-1.507 1.119-1.508 2.317-.007 23.962-.256 47.923-.263 71.885 0 .301.053.566.129.814.166 1.169.999 2.262 2.504 2.346 4.737.263 9.473.507 14.219.527.09 0 .165-.022.25-.029.092.001.182.029.277.029 4.01 0 2.443-6.02 2.544-8.417.139-3.263.232-6.526.29-9.79.112-6.318.088-12.638-.001-18.957-.196-12.631-.692-25.25-.98-37.882m-4.717 69.74c-3.08-.057-6.157-.188-9.234-.35.019-22.513.231-45.02.253-67.54 2.829.001 5.657.037 8.484.141.563 22.583 1.654 45.17.497 67.748"/><path d="m67.36 35.23c-.022-.56-.195-1.019-.45-1.395-.389-.773-1.115-1.389-2.183-1.502-4.322-.457-8.596-.255-12.902.263-.494.059-.907.235-1.256.475-1.01.252-1.791 1.05-1.641 2.421 1.995 18.2 1.154 36.552 2.896 54.769.016.165.052.316.091.465-.027 1.337.817 2.695 2.542 2.695 2.854 0 15.3 1.981 14.746-3.154-2-18.29-1.112-36.69-1.843-55.04m-10.438 52.926c-1.432-16.824-.87-33.753-2.517-50.562 2.588-.226 5.171-.31 7.765-.184.561 16.92-.092 33.879 1.556 50.746h-6.804"/><path d="m44.26 49.836c-.217-1.055-1.021-1.889-2.438-1.705-3.762.486-7.54.783-11.322 1.053-.199.014-.385.049-.561.096-1.341-.032-2.67.808-2.599 2.537.526 12.9 1.039 25.799 1.317 38.707.012.548.169.998.408 1.37.21 1.101 1.036 2.061 2.488 2.053 3.25-.017 6.493-.245 9.743-.263.411-.002.769-.084 1.081-.222 1.546.458 3.475-.338 3.396-2.411-.507-13.249-.788-26.505-1.053-39.76-.013-.59-.189-1.071-.46-1.455m-10.385 38.801c-.266-11.457-.705-22.907-1.17-34.36 2.268-.173 4.535-.362 6.796-.611.234 11.59.495 23.18.914 34.765-2.181.035-4.36.14-6.54.203"/><path d="m19.04 71.54c-2.583-.217-5.173-.234-7.765-.235-.29 0-.545.05-.785.12-1.192.142-2.313.976-2.375 2.513-.24 5.967-.263 11.936-.263 17.906 0 .268.042.507.103.732.084 1.245.921 2.428 2.53 2.428h8.953c1.374 0 2.182-.864 2.444-1.89.429-.422.716-1.015.716-1.796v-17.379c-.0001-2.104-2.02-2.901-3.558-2.399m-1.709 18.2h-4.204c.008-4.386.038-8.771.17-13.154 1.346.001 2.691.032 4.03.102v13.05"/><path d="m13.313 48.758c.694 0 1.366-.24 1.996-.714 8.351-6.283 27.15-22.405 35.858-30.339-.049 1.461-.076 2.813-.081 4.09-.004.989.333 1.854.977 2.5.665.667 1.628 1.051 2.644 1.051 1.804 0 3.635-1.217 3.645-3.542.019-4.27.275-8.615.525-12.848.059-.997-.237-1.87-.856-2.526-.63-.668-1.568-1.056-2.58-1.065-.226-.053-.444-.085-.665-.099-4.219-.245-8.413-.266-12.695-.266-2.328 0-3.546 1.827-3.547 3.632s1.218 3.633 3.547 3.634c1.421 0 2.841.004 4.262.017-8.594 7.855-26.865 23.573-34.893 29.614-1.356 1.02-1.855 2.678-1.305 4.327.506 1.516 1.779 2.534 3.168 2.534"/></g></svg>