<svg xmlns="http://www.w3.org/2000/svg" viewBox="0 0 100 100" enable-background="new 0 0 100 100"><g fill="#1d1d1b"><path d="m25.07 17.05c-.39-.334-.908-.551-1.569-.551-4.169 0-8.336.023-12.5.25-1.461.08-2.252 1.162-2.384 2.299-.063.216-.11.444-.116.701-.274 11.989-.745 23.974-.931 35.965-.093 5.999-.116 11.999-.001 17.998.055 3.099.143 6.197.275 9.295.096 2.277-1.387 7.992 2.416 7.992.09 0 .175-.018.263-.027.081.006.152.027.237.027 4.506-.019 9-.251 13.5-.5 1.429-.079 2.22-1.117 2.377-2.227.072-.235.123-.487.123-.773-.007-22.75-.243-45.5-.25-68.25 0-1.137-.626-1.864-1.431-2.199m-12.09 68.915c-1.099-21.439-.063-42.882.472-64.32 2.684-.099 5.369-.125 8.05-.134.021 21.375.222 42.749.24 64.12-2.921.153-5.842.278-8.767.332"/><path d="m47.692 33.951c-.331-.228-.723-.395-1.192-.451-4.088-.492-8.147-.684-12.25-.25-1.014.107-1.703.692-2.072 1.426-.243.356-.406.792-.428 1.324-.693 17.419.151 34.889-1.75 52.25-.526 4.876 11.291 2.995 14 2.995 1.638 0 2.439-1.289 2.414-2.559.037-.141.071-.284.086-.441 1.654-17.296.856-34.721 2.75-52 .143-1.302-.603-2.06-1.558-2.299m-6.03 52.3h-6.459c1.565-16.01.945-32.12 1.478-48.18 2.463-.12 4.915-.04 7.372.175-1.565 15.959-1.031 32.03-2.391 48.01"/><path d="m67.28 49.34c-.167-.045-.343-.078-.532-.091-3.592-.257-7.178-.538-10.75-1-1.345-.174-2.109.618-2.315 1.619-.257.365-.424.821-.435 1.381-.252 12.586-.518 25.17-1 37.75-.075 1.968 1.756 2.724 3.224 2.29.296.13.636.208 1.026.21 3.085.017 6.165.234 9.25.25 1.379.007 2.163-.904 2.363-1.95.227-.352.376-.78.387-1.3.263-12.255.75-24.503 1.25-36.75.067-1.641-1.195-2.44-2.468-2.409m-3.736 37.37c-2.07-.06-4.139-.159-6.21-.193.397-11 .645-22 .867-33.01 2.147.237 4.299.415 6.453.58-.441 10.871-.858 21.742-1.11 32.62"/><path d="m85.75 70.36c-.228-.066-.47-.114-.745-.114-2.46 0-4.92.017-7.372.223-1.46-.477-3.378.28-3.378 2.277v16.5c0 .742.272 1.305.68 1.706.249.974 1.016 1.794 2.32 1.794h8.5c1.528 0 2.323-1.124 2.402-2.305.057-.214.098-.441.098-.695 0-5.669-.022-11.335-.25-17-.059-1.459-1.123-2.251-2.255-2.386m-6.495 17.386v-12.392c1.275-.067 2.552-.087 3.83-.097.126 4.162.154 8.325.162 12.489h-3.992"/></g></svg>