<svg xmlns="http://www.w3.org/2000/svg" viewBox="0 0 100 100" enable-background="new 0 0 100 100"><path d="m96.33 42.17c-.352-.761-1.065-1.341-2.159-1.341-1.901 0-3.793.032-5.684.178-.052-.559-.093-1.119-.149-1.678-.016-.16-.052-.307-.091-.451-.048-1.211-.846-2.385-2.409-2.383-22.78.037-45.566 1.263-68.33 0-.572-.032-1.036.105-1.404.343-2.535.021-5.068.09-7.596.323-1.609.149-2.409 1.5-2.395 2.763-.064.227-.108.467-.106.739.05 6.383.782 16.696 1.756 22.998.23 1.486 1.405 1.972 2.542 1.755.168.041.345.07.535.08 25.22 1.26 50.44.023 75.67-.333.846-.012 1.464-.37 1.866-.884.569-.396.971-1.04.967-1.949-.003-.725-.034-1.448-.046-2.172 1.965-.014 3.927-.071 5.879-.328 1.351-.178 2.5-1 2.5-2.5 0-.103-.019-.209-.035-.314.015-.116.035-.227.035-.352v-12.335c.0001-1.094-.579-1.807-1.34-2.159m-84 18.384c-.698-4.838-1.177-13.685-1.287-18.574 2.595-.14 5.194-.15 7.794-.15.415 0 .774-.085 1.082-.229 21.2 1.017 42.41.012 63.61-.093.44 4.889.697 13.784.773 18.691-23.992.384-47.986 1.461-71.974.355m80.34-5.501c-1.17.069-2.342.098-3.515.104-.073-1.727-.156-7.454-.272-9.179 1.26-.086 2.523-.117 3.787-.132v9.207"/><path d="m30.875 43.75c-4.416.11-8.833.137-13.249.239-1.449-.509-3.436.247-3.501 2.261-.106 3.262.02 6.506.375 9.75.016.146.052.279.086.411-.016 1.262.786 2.511 2.414 2.464 4.625-.134 9.247-.347 13.875-.25.821.017 1.43-.295 1.832-.769.846-.32 1.522-1.06 1.543-2.231.059-3.377-.513-6.703-.964-10.04-.144-1.063-1.415-1.86-2.411-1.835m-11.558 10.05c-.124-1.612-.211-3.224-.222-4.84 3.208-.063 6.417-.111 9.625-.173.216 1.606.407 3.21.489 4.826-3.299-.02-6.595.081-9.892.187"/><path d="m54.875 43.75c-4.416.11-8.833.137-13.249.239-1.449-.509-3.436.247-3.501 2.261-.106 3.262.02 6.506.375 9.75.016.146.052.279.086.411-.016 1.262.786 2.511 2.414 2.464 4.625-.134 9.247-.347 13.875-.25.821.017 1.43-.295 1.832-.769.846-.32 1.522-1.06 1.543-2.231.059-3.377-.513-6.703-.964-10.04-.144-1.063-1.415-1.86-2.411-1.835m-11.558 10.05c-.124-1.612-.211-3.224-.222-4.84 3.208-.063 6.417-.111 9.625-.173.216 1.606.407 3.21.489 4.826-3.299-.02-6.595.081-9.892.187"/></svg>