<svg xmlns="http://www.w3.org/2000/svg" viewBox="0 0 100 100" enable-background="new 0 0 100 100"><g fill="#1d1d1b"><path d="m71.27 39.24c.033-1.251.066-2.502.089-3.753.0001-.042-.009-.077-.001-.117 1.793-2.228 2.954-5.05 3.488-7.763 1.031-5.226.232-11.12-3.456-15.16-4.62-5.072-11.96-3.613-17.441-1.023-.092.043-.181.094-.271.138-8.04-13.434-26.521-7.93-32.979 5.42-.161.028-.326.066-.498.13-3.457 1.278-6.384 3.126-7.842 6.624-1.188 2.852.121 5.996 1.931 8.214 2.115 2.591 4.967 3.789 7.962 3.983.823 17.394-.329 34.771-1.62 52.12-.018.234-.003.448.03.649-.008.797.358 1.594 1.259 2.118 13.868 8.08 32.18 6.828 46.08-.52.424-.224.722-.511.933-.828 1.095-.19 2.02-1.01 1.917-2.459-.172-2.477-.275-4.954-.35-7.431 21.432 1.94 22.14-44.729.781-40.34m-5.908 46.558c-11.811 6.244-27.4 7.529-39.463 1.242.079-1.071.155-2.143.233-3.215 12.964 4.83 26.939 3.39 39.19-2.796.058 1.563.138 3.126.234 4.689-.065.029-.13.045-.195.08m-.177-10.598c-11.814 6.686-25.957 8.699-38.674 3.219.977-14.346 1.631-28.711.913-43.09 1.35-.386 2.646-.951 3.858-1.631 3.01 2.824 6.711 4.915 10.97 4.83 3.61-.072 6.219-2.251 7.922-5.09 4.21 3.997 9.63 7.391 15.478 5.815.144-.039.278-.091.418-.135-.312 12.03-1.022 24.05-.885 36.08m4.737-49.576c-.307 2.094-.88 3.78-1.903 5.481-.867 1.441-2.153 2.59-3.496 3.053-4.744 1.634-10.188-3.617-13.441-7.275-1.67-1.878-4.14-.288-4.353 1.679-2.309 7.137-8.48 4.725-12.562.674-.785-1.26-2.68-2.02-4.197-.791-3.156 2.552-7.935 3.443-11.233.615-3.398-2.914-.486-5.705 2.837-6.934.167-.062.314-.14.457-.222 1 .335 2.113.061 2.66-1.234 4.219-9.988 19.839-18.447 25.426-4.784.833 2.039 3.336 2.12 4.547 1.034 2.402-1.348 5.01-2.54 7.788-2.712 1.858-.115 3.561.4 4.674 1.354 2.643 2.266 3.3 6.634 2.796 10.06m.469 48.693c-.079-9.887.384-19.773.718-29.661 15.09-4.394 13.923 31.576-.718 29.661"/><path d="m32.33 44.857v25.24c0 3.356 5.204 3.356 5.204 0v-25.24c0-3.356-5.204-3.356-5.204 0"/><path d="m43.779 45.897v25.24c0 3.356 5.204 3.356 5.204 0v-25.24c0-3.355-5.204-3.355-5.204 0"/><path d="m54.19 45.897v25.24c0 3.356 5.204 3.356 5.204 0v-25.24c0-3.355-5.204-3.355-5.204 0"/></g></svg>