<svg xmlns="http://www.w3.org/2000/svg" viewBox="0 0 100 100" enable-background="new 0 0 100 100"><g fill="#1d1d1b"><path d="m41.16 45.985c5.142-3.885 7.391-10.945 5.896-17.874-3.03-14.04-28.409-12.779-39.37-12.162-.064.004-.121.017-.182.025-1-.099-2.165.518-2.347 1.57-.206 1.189-.06 2.359.486 3.354-.101.264-.162.56-.129.916 1.604 17.832-1.417 35.6-1.304 53.44.0001.206.032.391.077.567-.029 1.108.667 2.244 2.096 2.257 8.776.077 27.452 1.105 36.2-.078.041-.006.073-.02.112-.027.433-.031.874-.192 1.28-.532 10.572-8.825 8.673-26.421-2.81-31.452m.363 27.818c-.034.003-.065-.0001-.1.004-7.594 1.027-25.24.177-32.865-.035-.12-.003 1.769-37.35 1.765-40.807-.002-1.935-.041-3.869-.123-5.802-.068-1.595-.498-3.522-.187-5.093.502-2.539 2.766-2.201 4.786-2.133 7.42.248 14.872-.707 21.915 2.309 1.953.836 3.819 2 4.938 3.876 4.276 7.149.08 17.828-8.558 18.5-2.774.216-2.795 4.562 0 4.344.053-.004.105-.012.158-.017.091.007.178.021.276.017 14-.53 16.864 16.562 7.995 24.837"/><path d="m15.06 37.888c-.012.196.003.375.033.544-.076.907.38 1.789 1.562 1.985 5.573.926 17.23 1.196 18.393-6.649 1.263-8.517-10.948-9.296-16.512-8.696-1.022.11-1.667.779-1.935 1.561-.053.157-1.573.664-1.854 1.145-.51.87-.212 1.701-.063 2.628.397 2.477.528 4.977.376 7.482m13.247-7.714c1.481.558 2.517 1.714 2.495 2.783-.02.959-1.588 2.209-2.91 2.74-2.639 1.06-5.623 1.094-8.451.759.045-2.375-.152-4.73-.558-7.07 3.175-.322 6.398-.35 9.424.79"/><path d="m17.669 52.876c-1.022.11-1.667.779-1.935 1.561-1.212.109-2.431 1.153-2.115 2.709.576 2.834.749 5.661.574 8.546-.012.196.003.375.033.544-.077.907.379 1.789 1.562 1.985 5.573.926 22.443 1.196 23.606-6.649 1.264-8.517-16.16-9.296-21.725-8.696m14.569 10.625c-2.639 1.06-10.836 1.094-13.664.759.045-2.375-.152-4.729-.558-7.07 3.175-.322 11.612-.35 14.637.79 1.481.558 2.517 1.714 2.495 2.783-.02.96-1.588 2.209-2.91 2.74"/><path d="m72.39 33.25c-8.754.483-15.06 7.02-17.983 14.851-2.77 7.437-2.354 16.853 2.331 23.437 5.959 8.374 16.637 7.979 25.326 4.633.08-.031.145-.073.217-.109.146-.015.292-.049.435-.108 2.719-1.134 5.457-2.249 7.904-3.912.371-.252.615-.564.771-.898.447-.611.626-1.43.225-2.291-1.143-2.453-2.584-4.733-4.127-6.951-.56-.806-1.392-1.049-2.164-.935-.329.022-.674.129-1.025.373-5.223 3.625-12.248 4.705-14.64-1.339 8.552-.907 17.15-1.192 25.728-1.781 1.152-.079 1.822-.874 2.02-1.762.073-.192.13-.397.151-.627 1.239-13.866-12.17-23.298-25.17-22.581m-4.37 22.581c-.301.035-.564.125-.8.246-1.255.013-2.644 1.083-2.381 2.721 1.724 10.708 12.235 11.792 20.19 7.219.677 1.042 1.316 2.107 1.908 3.199-1.719.989-3.539 1.784-5.374 2.549-.061.026-.117.058-.176.087-.152.024-.311.067-.476.13-6.789 2.614-14.809 3.773-20.11-2.25-4.214-4.793-4.375-12.383-2.902-18.236 1.616-6.426 6-12.06 12.635-13.631 3.987-.942 8.182.134 11.894 1.596 6.645 2.617 10.781 7.643 10.85 14.55-8.428.536-16.869.846-25.26 1.82"/><path d="m70.808 43.29c-4.463.677-6.86 4.615-6.627 8.919.083 1.525 1.422 2.214 2.593 2.071.167.002.338-.012.519-.048 3.833-.782 7.7-1.249 11.586-1.66.441-.047.804-.205 1.105-.423 1.01-.51 1.751-1.739 1.133-3.063-1.83-3.917-5.953-6.456-10.309-5.796m-1.827 6.229c1.094-2.246 3.917-2.327 6.115-.866-2.045.245-4.085.523-6.115.866"/><path d="m54.913 27.738c.028.363.133.703.292 1.01-.281 1.25.386 2.701 2.026 2.613 10.327-.551 20.657-.558 30.989-.145.727.029 1.26-.245 1.609-.663.64-.462 1.036-1.241.775-2.231-.554-2.102-1-4.218-1.304-6.372-.06-.436-.304-.796-.637-1.062-.298-.689-.924-1.231-1.892-1.257-9.996-.269-19.987-.128-29.976.29-.061.003-.113.018-.172.024-.24-.018-.478-.007-.695.053-1.244.342-1.69 1.502-1.517 2.672.249 1.681.372 3.378.502 5.071m30.335-3.791c.151.951.323 1.897.526 2.837-8.864-.297-17.727-.264-26.586.149-.075-.916-.159-1.832-.257-2.745 8.77-.33 17.542-.441 26.317-.241"/></g></svg>