<svg xmlns="http://www.w3.org/2000/svg" viewBox="0 0 100 100" enable-background="new 0 0 100 100"><path d="m89.07 72.2c-.529-.593-1.113-1.131-1.732-1.63.228-.327.395-.736.479-1.234 1.836-10.977.89-29.452-6.444-38.39-3.764-4.589-9.701-8.237-15.966-10.486-.025-.144-.052-.29-.105-.443-2.048-5.942-5.592-16.835-13.537-16.72-7.133.104-10.431 10.379-12.16 16.429-7.06 2.136-13.988 6.089-18.2 11.221-7.334 8.942-8.281 27.417-6.444 38.39.058.349.17.64.303.904-.78.586-1.508 1.233-2.157 1.96-2.465 2.762-1.24 5.691.939 7.827-.326.301-.643.612-.939.944-3.543 3.971.534 8.29 4.115 10.09 10.266 5.172 21.347 4 32.471 4.556.29.083.604.129.957.105.146-.001.292-.016.437-.025.146.009.291.015.437.025.353.024.667-.022.957-.105 11.124-.555 22.2.616 32.471-4.556 3.582-1.804 7.659-6.124 4.115-10.09-.296-.332-.613-.643-.939-.944 2.179-2.137 3.404-5.066.939-7.828m-37.2-63.898c3.224-.939 6.225 6.293 7.726 10.493-2.838-.605-5.63-.901-8.203-.835-1.975-.051-4.08.116-6.234.466 1.24-4.177 3.179-9.09 6.711-10.124m-26.359 27.55c4.257-6.454 15.09-10.45 22.334-11.393.195.001.396.009.615-.02.968-.129 1.948-.183 2.932-.193.984.001 1.964.065 2.932.193.219.029.42.03.615.02 7.25.943 18.08 4.939 22.334 11.393 5 7.586 5.974 22.669 4.535 31.598-2.666-1.073-5.509-1.8-8.113-2.439-7.353-1.804-14.873-1.793-22.443-1.934-.021 0-.037-.005-.058-.005-.034.0001-.069.0001-.103.002-.034-.0001-.069-.0001-.103-.002-.021 0-.038.005-.058.005-7.569.142-15.09.131-22.443 1.934-2.42.594-5.05 1.265-7.545 2.218-1.387-8.955-.395-23.852 4.569-31.377m59.16 49.15c-1.619 1.563-4.196 2.385-6.279 3.063-9.09 2.957-17.938 1.809-27.3 2.339-9.363-.53-18.216.618-27.3-2.339-2.082-.678-4.659-1.5-6.279-3.063-.75-.723-.157-.97.945-1.797.095-.071.204-.129.301-.198 7.05 3.112 14.471 3.47 22 3.613-1.266-1.266-1.795-3.046-1.739-4.812-.014-.132-.014-.262-.011-.392-4.42-.083-8.796-.376-13.214-1.539 2.206-.633 4.455-1.104 6.496-1.556 3.2-.71 6.459-.967 9.735-1.075-.081.195-.158.391-.232.589-.438 1.174-.742 2.394-.805 3.606-.074 1.437.187 2.859.979 4.17.229.379.481.727.754 1.045 1.895 2.214 4.77 2.994 7.714 2.874 2.303-.094 4.783-1.121 6.446-2.826.449-.461.852-.961 1.16-1.517.68-1.229.982-2.485 1-3.733.021-1.45-.345-2.889-.946-4.262-.006-.014-.012-.029-.018-.043.066.013.131.028.197.045 3.908.071 7.801.281 11.612 1.126 2.04.452 4.29.923 6.496 1.556-5.29 1.392-10.521 1.534-15.837 1.568.041 1.709-.322 3.394-1.26 4.901-.071.115-.157.216-.242.317 8.347-.142 16.582-.217 24.377-3.656.097.069.206.127.301.198 1.104.828 1.696 1.074.946 1.798m-32.35-7.876c.07.097.137.194.204.289.298.428.572.855.823 1.338.384.74.494 1.073.604 1.534.07.29.108.586.14.881.004.039.007.058.011.08-.007.037-.015.113-.026.267 0 .003 0 .004-.0001.007-.005.074-.054.332-.076.469-.073.235-.156.467-.26.69.33-.712-.85.966-.297.4-.167.171-.351.323-.537.472-.088.069-.178.134-.27.198-.026.014-.046.024-.091.049-.351.198-.724.349-1.103.485-.055.007-.43.114-.524.135-.307.066-.62.106-.932.138-.076.008-.125.014-.169.019-.02-.0001-.048-.002-.098-.003-.249-.0001-.497-.02-.744-.043-.231-.021-.46-.061-.688-.102-.152-.043-.303-.092-.453-.144-.144-.05-.281-.116-.42-.179-.08-.048-.337-.186-.413-.237-.056-.038-.191-.154-.288-.236-.106-.113-.203-.233-.297-.357-.053-.096-.191-.321-.23-.406-.029-.063-.047-.102-.066-.14-.002-.02-.008-.051-.02-.103-.049-.205-.069-.414-.09-.624.017.03.021-.278.026-.531.002-.126.005-.24.001-.289.109-1.015.638-2.294 1.281-3.47.104-.19.206-.382.315-.565 1.014-.008 2.028-.018 3.04-.037.144-.003.275-.027.409-.048.133.021.265.045.409.048.273.009.547.011.821.015m21.373-3.342c-7.353-1.804-14.873-1.792-22.443-1.934-.021 0-.037-.005-.058-.005-.034.0001-.069.0001-.103.002-.034-.0001-.069-.0001-.103-.002-.021 0-.038.005-.058.005-7.569.142-15.09.131-22.443 1.934-3.214.788-6.789 1.712-9.949 3.255-.367-.248-.718-.511-1.026-.808-.75-.723-.157-.97.945-1.797 3.789-2.841 9.329-3.885 13.836-4.884 6.01-1.333 12.229-1.087 18.389-1.206.144-.003.275-.027.409-.048.133.021.265.045.409.048 6.16.118 12.376-.128 18.389 1.206 4.506.999 10.05 2.044 13.836 4.884 1.103.827 1.695 1.073.946 1.797-.308.297-.659.56-1.026.808-3.161-1.543-6.736-2.467-9.95-3.255" fill="#1d1d1b"/></svg>