<svg xmlns="http://www.w3.org/2000/svg" viewBox="0 0 100 100" enable-background="new 0 0 100 100"><path fill="#1d1d1b" d="m78.22 50.27c-.381-.143-.809-.2-1.277-.155-.064-.006-.128-.006-.193-.011-1.177-5.753-2.201-11.538-3.156-17.337 3.309-.783 6.168-2.788 7.64-6.075.627-1.4.419-3.01-1.01-3.851-1.215-.712-3.224-.391-3.851 1.01-1.109 2.475-3.035 3.618-5.732 3.673-.735.015-1.314.265-1.751.643-.859.607-1.452 1.626-1.244 2.92.482 3.01.981 6.02 1.505 9.02-8.744-.628-17.5-.515-26.26-.486-.102-.914-.114-1.841-.115-2.81 0-.164-.024-.313-.046-.462.297-.032.592-.074.89-.101 3.586-.322 3.617-5.954 0-5.63-3.583.322-7.107.932-10.6 1.789-3.525.865-2.029 6.294 1.496 5.429.877-.215 1.755-.411 2.635-.595.011 1.562.085 3.137.418 4.665-3.074 3.569-6.126 7.155-9.135 10.777-2.39-1.205-5.01-2.024-7.635-2.413-.381-.143-.809-.2-1.277-.155-1.173-.111-2.342-.141-3.487-.074-1.391.081-2.243.969-2.564 2.02-6.24 3.047-10.599 8.867-11.1 16.265-.64 9.496 8.691 17.14 17.606 17.573 9.299.448 16.668-5.599 18.432-14.384-.03.242 5.472-.725 5.796-.777 3.076-.492 4.928-.962 7.321-3.102 3.472-3.105 6.624-6.666 9.791-10.08 1.256-1.353 9.457-8.664 9.152-10.256.254 1.327.516 2.653.785 3.978-.157.241-.28.503-.364.777-6.24 3.05-10.598 8.87-11.1 16.268-.64 9.496 8.691 17.14 17.606 17.573 9.968.481 17.724-6.5 18.73-16.321 1.103-10.764-8.324-17.886-17.911-19.305m-48.717 9.939c1.521 1.541 2.656 3.476 3.222 5.813-2.651.04-5.304.048-7.957.053 1.565-1.966 3.143-3.921 4.735-5.866m-10.159 19.971c-6.589-.895-12.202-6.321-11.222-13.206.866-6.084 6.03-9.838 11.609-11.188 1.778.206 3.496.648 5.08 1.313-2.493 3.058-4.966 6.132-7.39 9.247-.388.498-.581 1.032-.63 1.559-.121.311-.195.645-.195.994 0 1.534 1.28 2.815 2.815 2.815h1.97c.342 0 .668-.072.974-.188.297.11.62.188.996.188 3.15 0 6.298-.016 9.444-.063-1.433 5.685-7.581 9.325-13.451 8.529m19.317-14.307c-.522-4.052-2.62-7.437-5.556-10.03 1.932-2.318 3.899-4.607 5.858-6.903 1.506 5.546 2.898 11.12 4.146 16.733-1.482.082-2.965.151-4.448.204m9.588-2.974c-1.342-5.922-2.844-11.802-4.464-17.653 6.945-.026 13.886-.086 20.821.226-5.257 5.995-10.655 11.855-16.357 17.427m28.517 17.281c-6.589-.894-12.202-6.321-11.222-13.206.62-4.357 3.447-7.512 7.05-9.451.809 3.588 1.68 7.164 2.652 10.718.956 3.498 6.387 2.01 5.428-1.497-.982-3.592-1.861-7.206-2.677-10.833 6.449 1.023 11.987 5.108 12.523 12.436.551 7.52-6.808 12.775-13.753 11.833"/></svg>