<svg xmlns="http://www.w3.org/2000/svg" viewBox="0 0 100 100" enable-background="new 0 0 100 100"><g fill="#1e1e1c"><path d="m87.75 11.585c-12.667-11.909-32.18-10.566-43.651 2.066-10.411 11.464-11.703 28.372-20.591 40.831-1.324 1.856-3.98 3.527-4.949 5.499-1.107 2.254.708 1.969.562 3.984-.09 1.238-2.668 3.637-3.408 4.578-.261.331-5.657.108-6.523.339-2.103.562-3.974 1.61-5.345 3.324-6.32 7.901 3.057 15.14 11.05 12.643-1.47.46 3.287 6.679 3.878 7.133 4.77 3.665 12.402 1.23 14.899-4.03 1.521-3.202.144-6.83-1.744-9.62 1.48-1.907 2.654-4.03 3.618-6.244.248-.155.475-.384.657-.717 5.437-9.964 17.15-7.536 26.75-8.85 7.837-1.073 16.12-3.066 22.749-7.571 14.995-10.192 14.816-31.368 2.053-43.37m-59.893 68.19c1.525 1.917 2.859 4.267 1.924 6.739-.889 2.349-4.083 3-6.253 3.272-3.621-1.183-4.952-3.807-4.459-7.702.084-.665-.111-1.187-.456-1.555-.483-.83-1.44-1.326-2.532-.716-3.479 1.947-7.106 2.29-10.05-.694-.735-5.859 4.797-7.285 9.859-6.362.22.04.418.038.606.018.608.029 1.238-.181 1.729-.761 1.484-1.751 2.781-3.641 4.139-5.487.109.098.235.19.381.274 2.805 1.627 5.66 3.161 8.529 4.671-.91 1.912-2.01 3.711-3.401 5.331-.274.32-.392.718-.389 1.124-.178.578-.111 1.237.375 1.848m65.11-43.602c-.879 8.702-7.03 14.64-14.636 18.09-7.38 3.342-15.966 4.534-23.99 4.911-8.507.4-16.197 1.223-20.923 8.791-2.714-1.426-5.408-2.887-8.06-4.421-.134-.194-.298-.368-.506-.502-.237-.152-.493-.275-.747-.397-.022-.028-.037-.06-.062-.086-.348-.397-.717-.776-1.098-1.143 9.545-9.654 12.553-23.318 18.16-35.34 3.103-6.66 7.529-12.536 14.14-15.993 8.434-4.41 18.396-3.202 26.25 1.814 8.277 5.286 12.455 14.635 11.482 24.278"/><path d="m79.13 23.12c8.267 9.114 1.393 20.857-8.927 24.24-3.659 1.198-2.093 6.993 1.596 5.786 14.76-4.834 22.942-21.73 11.573-34.26-2.604-2.872-6.835 1.384-4.242 4.242"/></g></svg>