<svg xmlns="http://www.w3.org/2000/svg" viewBox="0 0 100 100" enable-background="new 0 0 100 100"><g fill="#1d1d1b"><path d="m90.5 15.952h-6.486c.316-2.816.588-5.637.845-8.461.264-2.899-4.251-2.873-4.513 0-.155 1.701-.316 3.4-.486 5.098-9.202-14.853-33.365-13.196-38.31 4.878-4.263-.048-8.547.335-12.854 1.104-1.252.224-1.724 1.182-1.619 2.147-.003.007-.008.011-.011.018-.828 1.752-1.261 3.592-1.234 5.497-5.477 1.609-10.493 4.411-13.979 9.03-3.211 4.253-6.174 10.788-6.884 16.1-2.147 16.09 6.993 32.634 21.11 40.18 16.538 8.845 39.15 4.87 50.817-9.933 10.978-13.92 9.08-33.35-3.621-45.4-3.84-3.644-10.03-6.528-14.96-8.476.255-1.849.253-3.704.037-5.584-.017-.145-.044-.287-.079-.425-.028-.869-.505-1.713-1.578-2.033-3.473-1.036-6.959-1.69-10.461-2.01 4.771-13.311 24.03-14.701 30.451-1.733h-7.05c-2.91 0-2.91 4.513 0 4.513h9.303c-.2 1.41-.427 2.817-.675 4.222-.031.084-.067.165-.086.255-.268 1.319-.579 2.629-.846 3.949-.244 1.204.331 2.433 1.576 2.776 1.124.309 2.531-.37 2.776-1.576.21-1.037.443-2.069.665-3.103.077-.168.143-.351.181-.563.361-1.98.657-3.968.929-5.959h7.05c2.908.0001 2.908-4.512-.002-4.512m-19.544 24.286c6.228 5.91 9.193 14.195 8.685 22.678-1.198 19.988-21.381 30.16-39.34 28.34-17.15-1.734-29.721-16.584-30.989-33.31-.986-13.01 7.03-25.743 20.412-27.884 14.13-2.261 30.547.039 41.24 10.181m-17.01-16.595c.047.871.061 1.74-.009 2.605-4.282-1.223-8.728-1.827-13.192-1.877-3.358-.038-6.893.188-10.363.8.077-.737.255-1.461.584-2.157.042-.089.071-.181.104-.272 7.72-1.244 15.315-1.098 22.876.901"/><path d="m48.19 45.943c.09.055.175.114.281.161 10.702 4.797 12.795 15.988 7.087 25.681-.841 1.429.058 2.775 1.259 3.214 2.466 1.863 5.189 2.915 8.304 3.283.712.084 1.352-.319 1.769-.887.166-.142.325-.304.462-.513 9.619-14.639 2.959-34.02-12.655-41.16-.232-.106-.46-.16-.684-.191-.338-.246-.77-.399-1.301-.399-.491 0-.892.136-1.217.35-.326.1-.646.289-.942.593-2.155 2.213-3.366 4.746-3.764 7.8-.119.914.578 1.72 1.401 2.071m4.933-5.982c12.613 6.216 18.238 21.279 10.97 33.612-1.273-.276-2.503-.765-3.606-1.454 5.357-10.985 2.591-23.782-8.897-29.482.325-.984.868-1.873 1.533-2.676"/></g></svg>