<svg xmlns="http://www.w3.org/2000/svg" viewBox="0 0 100 100" enable-background="new 0 0 100 100"><g fill="#1e1e1c"><path d="m96.29 27.16c.009-.416-.109-.752-.305-1.01-.117-.234-.289-.453-.537-.637-13.14-9.746-31.902-14.9-44.996-2.83-13.09-12.07-31.857-6.916-44.996 2.83-.248.184-.419.403-.537.637-.196.257-.314.592-.305 1.01.335 16.265-.164 32.527-.189 48.793 0 .284.059.529.16.739-.276 1.172.578 2.567 1.992 2.02 13.871-5.407 29.559-6.603 42.21 2.112.289.685.934 1.18 1.669 1.01.735.169 1.38-.326 1.668-1.01 12.648-8.715 28.336-7.519 42.21-2.112 1.414.551 2.268-.844 1.992-2.02.1-.21.16-.455.16-.739-.026-16.266-.525-32.528-.19-48.793m-45.838 50.707c-12.657-8.722-28.527-8.191-42.621-3.215.047-15.614.493-31.23.192-46.84 12.02-8.65 29.28-13.762 41.1-1.71.413.421.888.548 1.333.489.445.06.92-.068 1.333-.489 11.815-12.05 29.07-6.941 41.1 1.71-.301 15.614.146 31.23.192 46.841-14.09-4.977-29.965-5.508-42.621 3.214"/><path d="m95.09 81.27c-14.374-5.786-34.484-7.967-45.04 4.554-10.56-12.52-30.671-10.34-45.04-4.554-2.538 1.021-.347 4.466 2.168 3.454 13.01-5.236 32.416-7.568 40.969 5.532.476.729 1.202.989 1.907.94.706.049 1.431-.211 1.907-.94 8.553-13.1 27.962-10.768 40.969-5.532 2.514 1.013 4.705-2.433 2.168-3.454"/><path d="m13.698 42.36c.329.752 1.173 1.262 2.059.685 2.282-1.485 4.715-2.567 7.392-3.099.876-.174 1.17-.884 1.053-1.561.028-.119.048-.246.048-.385v-8.5c0-.998-.798-1.477-1.571-1.445-.132-.034-.271-.057-.429-.055-3.075.053-6.02.861-8.507 2.705-.488.361-.669.87-.641 1.36-.049.133-.088.275-.102.435-.239 2.829-.25 5.663-.25 8.5 0 .725.421 1.178.948 1.36m2.282-9.557c1.618-1.025 3.368-1.58 5.27-1.747v6.249c-1.925.495-3.763 1.269-5.496 2.241.009-2.25.049-4.498.226-6.743"/><path d="m30.15 31.446c3.689-1.264 7.25-.92 10.594 1.099 1.661 1 3.167-1.592 1.514-2.59-3.984-2.405-8.498-2.911-12.906-1.401-1.819.623-1.038 3.521.798 2.892"/><path d="m29.899 37.946c3.703-.779 7.167-.229 10.344 1.849 1.624 1.062 3.125-1.536 1.514-2.59-3.852-2.519-8.192-3.091-12.656-2.151-1.893.398-1.089 3.29.798 2.892"/><path d="m43.26 46.705c-10.02-5.629-21.787-3.448-31.01 2.75-1.597 1.073-.097 3.673 1.514 2.59 8.327-5.593 18.87-7.872 27.986-2.75 1.689.949 3.2-1.643 1.514-2.59"/><path d="m43.26 53.705c-10.02-5.629-21.787-3.448-31.01 2.75-1.597 1.073-.097 3.673 1.514 2.59 8.327-5.593 18.87-7.872 27.986-2.75 1.689.949 3.2-1.643 1.514-2.59"/><path d="m43.26 60.705c-10.02-5.629-21.787-3.448-31.01 2.75-1.597 1.073-.097 3.673 1.514 2.59 8.327-5.593 18.87-7.872 27.986-2.75 1.689.949 3.2-1.643 1.514-2.59"/><path d="m56.4 50.48c8.659-5.863 19.354-4.47 28.12.411 1.695.944 2.973-1.771 1.293-2.707-9.711-5.409-21.619-6.603-31.14-.159-1.603 1.084.12 3.541 1.724 2.455"/><path d="m56.978 57.45c8.659-5.863 19.354-4.47 28.12.411 1.695.944 2.973-1.771 1.292-2.707-9.711-5.409-21.619-6.603-31.14-.159-1.601 1.084.121 3.541 1.725 2.455"/><path d="m56.4 36.477c8.659-5.863 19.354-4.47 28.12.411 1.695.944 2.973-1.771 1.293-2.707-9.711-5.409-21.619-6.603-31.14-.159-1.603 1.084.12 3.541 1.724 2.455"/><path d="m55.25 40.997c-1.602 1.085.12 3.541 1.724 2.455 8.659-5.863 19.354-4.47 28.12.411 1.695.944 2.973-1.771 1.292-2.707-9.71-5.408-21.618-6.602-31.13-.159"/><path d="m86.972 62.13c-9.711-5.409-21.62-6.603-31.14-.159-1.602 1.085.121 3.541 1.724 2.455 8.659-5.863 19.355-4.47 28.12.411 1.695.945 2.973-1.771 1.293-2.707"/></g></svg>