<svg xmlns="http://www.w3.org/2000/svg" viewBox="0 0 100 100" enable-background="new 0 0 100 100"><g fill="#1e1e1c"><path d="m55.37 3.75c-10.434.5-20.876.535-31.32.536-1.185 0-1.858.79-2.026 1.691-.07.216-.118.45-.115.719.262 23.284-.569 53.21-2.085 76.45-1.024 1.205-.516 3.587 1.55 3.587.092 0 .173-.016.259-.026.347.009.714-.063 1.089-.267 4.933-2.672 10.05-5.92 15.268-7.954 5.112 2.523 10.3 5.882 15.498 8.221.362.163.715.215 1.051.198 1.16.14 2.438-.538 2.439-2.047.016-23.916.521-54.25.535-78.17 0-.235-.04-.442-.097-.637.125-1.155-.549-2.378-2.045-2.306m-2.662 77.936c-4.323-1.957-8.631-4.946-12.885-7.05-.44-.625-1.195-.967-2.156-.598-4.56 1.752-9.05 4.664-13.42 6.83 1.384-21.874 2.146-50.39 1.954-72.3 9.01-.008 18.02-.072 27.02-.45-.033 22.383-.461 51.19-.514 73.57"/><path d="m71.22 13.594c-.16-.04-.33-.068-.518-.069-3.087-.016-6.169-.06-9.249-.297-2.574-.198-2.577 3.803-.021 4 2.573.198 5.149.259 7.727.284-.408 23.756-.702 47.51-.835 71.27-2.379-1.157-4.801-2.224-7.229-3.279-2.338-1.017-4.396 2.418-2.036 3.444 3.456 1.502 6.904 3.02 10.226 4.802 1.651.888 3.172-.692 3.01-2.089.002-.042.012-.079.013-.122.128-25.336.445-50.664.886-75.996.022-1.294-.97-1.943-1.972-1.946"/><path d="m46.741 85.02c-1.754 1.116-3.518 2.215-5.315 3.255.204-1.591.419-3.181.574-4.778.249-2.567-3.753-2.543-4 0-.276 2.84-.746 5.657-1 8.5-.165 1.841 1.838 2.345 3.074 1.549.062-.025.123-.041.186-.072 2.937-1.491 5.723-3.233 8.5-5 2.169-1.38.164-4.843-2.02-3.454"/></g></svg>