<svg xmlns="http://www.w3.org/2000/svg" viewBox="0 0 100 100" enable-background="new 0 0 100 100"><path d="m65.5 5.273c-10.435.55-20.877.588-31.32.589-1.185 0-1.858.869-2.026 1.859-.07.238-.118.495-.115.79.263 25.602-.568 58.51-2.085 84.06-1.024 1.325-.516 3.944 1.55 3.944.092 0 .173-.018.259-.028.347.001.713-.07 1.089-.293 4.933-2.938 10.05-6.509 15.268-8.745 5.112 2.774 10.299 6.467 15.498 9.04.362.179.715.237 1.051.218 1.16.154 2.438-.592 2.439-2.251.016-26.296.52-59.652.536-85.948 0-.258-.041-.486-.097-.7.124-1.274-.551-2.617-2.046-2.539m-2.662 85.69c-4.323-2.152-8.631-5.439-12.885-7.755-.44-.687-1.195-1.063-2.156-.658-4.56 1.927-9.05 5.128-13.42 7.51 1.383-24.05 2.146-55.4 1.954-79.5 9.01-.009 18.02-.079 27.02-.495-.033 24.611-.461 56.28-.514 80.893" fill="#1e1e1c"/></svg>