<svg xmlns="http://www.w3.org/2000/svg" viewBox="0 0 100 100" enable-background="new 0 0 100 100"><g fill="#1d1d1b"><path d="m94.71 36.883c.069-1.152-.541-2.318-1.841-2.527-.044-.035-.078-.075-.126-.108-7.963-5.568-15.965-11.08-23.617-17.08-.342-.268-.704-.426-1.067-.508-.315-.147-.683-.233-1.113-.223-19.279.427-38.544 1.242-57.808 2.079-.548.024-.998.193-1.359.45-1.445.017-3.03 1.245-2.711 3.125 2.42 14.234 3.16 28.584 2.822 43.01-.022.937.391 1.592.981 1.983.056.066.1.133.166.197 7.751 7.563 16.725 13.416 26.716 17.516.368.671 1.057 1.147 2.081 1.098 17.883-.85 35.75-2.042 53.65-2.495.239-.006.455-.047.658-.103 1.325.111 2.716-.679 2.669-2.392-.39-14.418-.39-28.834 0-43.25.007-.284-.036-.533-.101-.767m-59.32 42.39c-8.356-3.696-15.896-8.846-22.493-15.212.248-12.656-.373-25.25-2.151-37.759 8.129 5.212 16.18 10.542 24.21 15.897.361 12.356.66 24.713.429 37.07m1.615-42.04c-.14.012-.267.045-.396.075-7.103-4.732-14.226-9.433-21.399-14.06 17.11-.736 34.23-1.425 51.36-1.81 5.897 4.577 11.962 8.916 18.07 13.202-15.89.641-31.784 1.197-47.631 2.591m52.769 41.23c-16.482.459-32.938 1.498-49.41 2.308.29-12.932-.046-25.858-.424-38.786 16.586-1.354 33.22-1.867 49.842-2.568-.322 13.02-.326 26.03-.013 39.05"/><path d="m80.17 59.19c-.232-.083-.501-.113-.818-.054-1.701.315-3.411.576-5.118.852.066-3.488-.073-11.265.081-14.751.045-1.025-.667-1.518-1.454-1.542-.195-.053-.411-.077-.656-.049-3.094.356-4.779.439-6.866.634-2.095.068-3.777.196-6.892.231-.247.003-.458.053-.645.13-.778.122-1.422.7-1.249 1.712.588 3.439 1.425 11.172 1.927 14.625-1.729-.06-3.458-.106-5.185-.205-.322-.018-.585.045-.805.156-1.544-.298-3.01 1.754-1.512 2.931 5.404 4.248 9.247 8.6 14.856 12.375.336.566.923.939 1.564.813.651.045 1.188-.399 1.45-1 5.092-4.448 8.361-9.246 13.19-14.14 1.338-1.355-.374-3.207-1.868-2.718m-13.03 13.804c-3.782-2.669-6.187-5.673-9.979-8.64 1.134.035 2.267.069 3.4.127.994.051 1.489-.615 1.539-1.373.068-.213.09-.459.052-.737-.467-3.395-1.295-11.05-1.869-14.443.286.221.667.341 1.15.272 1.816-.256 3.01-.391 4.119-.495 1.112-.036 2.315-.051 4.149-.024.488.007.851-.159 1.107-.414-.146 3.438-.009 11.136-.048 14.563-.003.281.05.522.143.725.144.746.719 1.344 1.699 1.169 1.116-.199 2.237-.374 3.357-.551-3.391 3.419-5.401 6.7-8.819 9.821"/></g></svg>