<svg xmlns="http://www.w3.org/2000/svg" viewBox="0 0 100 100" enable-background="new 0 0 100 100"><g fill="#1d1d1b"><path d="m93.87 36.883c.069-1.152-.541-2.318-1.841-2.527-.044-.035-.079-.075-.126-.108-7.963-5.568-15.965-11.08-23.617-17.08-.342-.268-.704-.426-1.067-.508-.315-.147-.683-.233-1.113-.223-19.279.427-38.544 1.242-57.808 2.079-.548.024-.998.193-1.359.45-1.445.017-3.03 1.245-2.711 3.125 2.42 14.234 3.16 28.584 2.822 43-.022.937.391 1.592.981 1.983.056.066.1.133.166.197 7.751 7.563 16.725 13.416 26.716 17.516.368.671 1.057 1.147 2.081 1.098 17.883-.85 35.75-2.042 53.65-2.495.239-.006.455-.047.658-.103 1.325.111 2.716-.679 2.669-2.392-.389-14.418-.389-28.834 0-43.25.006-.284-.037-.533-.101-.767m-59.32 42.39c-8.357-3.696-15.896-8.846-22.493-15.212.248-12.656-.373-25.25-2.151-37.759 8.129 5.212 16.18 10.542 24.21 15.897.361 12.356.66 24.713.429 37.07m1.615-42.04c-.141.012-.267.045-.396.075-7.103-4.732-14.226-9.433-21.4-14.06 17.11-.736 34.23-1.425 51.36-1.81 5.897 4.577 11.963 8.916 18.07 13.202-15.889.641-31.783 1.197-47.63 2.591m52.768 41.23c-16.482.459-32.938 1.498-49.41 2.308.29-12.932-.046-25.858-.424-38.786 16.586-1.354 33.22-1.867 49.842-2.568-.321 13.02-.324 26.03-.013 39.05"/><path d="m82.2 56.776c-5.312-4.186-9.09-8.473-14.604-12.194-.33-.557-.907-.925-1.537-.802-.641-.045-1.169.392-1.428.985-5.02 4.371-8.238 9.09-12.996 13.896-1.319 1.333.363 3.157 1.834 2.677.228.082.493.111.805.054 1.674-.308 3.357-.563 5.04-.833-.069 3.433.058 11.09-.096 14.515-.046 1.01.654 1.495 1.429 1.519.192.053.405.076.646.049 3.045-.346 4.703-.426 6.757-.616 2.062-.065 3.718-.189 6.782-.219.243-.002.451-.052.635-.128.765-.119 1.401-.688 1.231-1.683-.575-3.385-1.389-10.995-1.879-14.393 1.701.061 3.402.108 5.102.208.316.019.576-.043.792-.152 1.517.295 2.962-1.722 1.489-2.883m-9.431-.621c-.978-.051-1.466.603-1.516 1.349-.067.21-.089.452-.052.725.456 3.341 1.262 10.875 1.823 14.214-.281-.218-.656-.336-1.131-.269-1.787.25-2.964.382-4.054.482-1.094.034-2.278.048-4.082.019-.48-.008-.837.156-1.09.406.146-3.383.021-10.958.062-14.33.004-.276-.048-.513-.14-.714-.141-.734-.706-1.323-1.67-1.153-1.099.195-2.202.366-3.304.539 3.342-3.36 5.323-6.586 8.69-9.654 3.719 2.631 6.081 5.589 9.81 8.514-1.116-.035-2.232-.07-3.346-.128"/></g></svg>