<svg xmlns="http://www.w3.org/2000/svg" viewBox="0 0 100 100" enable-background="new 0 0 100 100"><g fill="#1d1d1b"><path d="m87.81 27.79c-.058-.222-.146-.433-.269-.643-.014-.12-.035-.243-.068-.369-4.784-18.247-22.819-20.971-33.14-20.971-8.189 0-15.361 1.568-19.936 2.884-11.139 3.205-19.11 8.252-23.691 15-4.445 6.55-3.488 14.912 2.621 22.959.25 10.242 3.02 19.223 8.221 26.699 4.866 6.988 11.792 12.272 19.7 15.21.499 1.994.623 3.988.417 6.104-.249 2.568 3.753 2.543 4 0 .156-1.602.128-3.188-.079-4.751 1.436.362 2.895.651 4.373.859 1.763.248 3.554.374 5.323.374 4.844 0 9.513-.929 13.791-2.683.279 2.087.994 4.095 2.198 5.878 1.436 2.124 4.903.125 3.454-2.02-1.204-1.782-1.73-3.685-1.776-5.732 2.45-1.384 4.728-3.066 6.778-5.03 11.589-11.11 11.885-28.551 11.03-37.96-.433-4.754-1.395-9.927-2.943-15.811m-72.07 2.773c-.632.3-1.055.877-1.198 1.641-.308 1.635-.562 3.313-.76 5.01-1.466-4.457-.713-8.589 2.25-12.308 5.267-6.608 14.323-9.803 20.678-11.631 5.713-1.644 11.994-2.548 17.686-2.548 8.835 0 24.25 2.258 28.21 17.38.058.223.146.434.269.643.014.12.035.243.068.369.485 1.847.931 3.739 1.327 5.634-2.813-.562-5.173-1.988-7.193-4.347-.596-.695-1.256-.841-1.705-.841-.506 0-1.012.183-1.447.52-.309-.065-.617-.079-.952-.031-10.351 1.528-20.487 2.9-30.711 2.9-8.858 0-16.685-1.054-23.927-3.222-1.01-.303-2 .022-2.599.832m64.74 42.04c-5.136 8.465-14.65 13.519-25.453 13.519l-.554-.005c-10.197-.166-20.11-5.09-27.19-13.509-5.647-6.711-8.741-15.775-8.951-26.22.078-.384.074-.759-.013-1.114-.003-3.327.271-6.722.817-10.1 7.03 1.873 14.57 2.785 23.03 2.785 10.696 0 21.255-1.429 32.03-3.02.07-.001.141-.023.209-.039 2.9 2.917 6.626 4.66 10.815 5.062 2.028 13.364.476 24.04-4.739 32.638"/><path d="m38.04 56.08c-.0001-1.612-1.27-2.455-2.522-2.455-.649 0-1.258.216-1.716.609-.526.453-.805 1.092-.805 1.846 0 1.202.048 2.784.423 4.358.257 1.081 1.291 1.865 2.458 1.865.221 0 .438-.029.647-.086 1.315-.362 2.091-1.717 1.766-3.084-.233-.984-.251-1.847-.251-3.053"/><path d="m67.943 54.1c-.217-1.071-1.279-1.879-2.471-1.879-.22 0-.435.028-.639.084-1.312.361-2.057 1.651-1.77 3.068.367 1.811.816 3.381 1.372 4.8.438 1.113 1.359 1.806 2.406 1.806.224 0 .452-.031.68-.094.67-.185 1.293-.712 1.626-1.376.295-.588.337-1.219.118-1.775-.538-1.378-.959-2.851-1.322-4.634"/><path d="m37.4 44.516c-2.512-.312-5-.044-7.176.774-1.417.533-1.849 1.888-1.647 2.994.22 1.204 1.096 2.01 2.183 2.01.289 0 .589-.058.891-.171 1.72-.647 3.534-.833 5.627-.574.08.001.16.015.238.015.624 0 1.222-.297 1.684-.836.42-.491.661-1.108.661-1.696-.0001-1.344-.966-2.332-2.461-2.518"/><path d="m69.21 43.838c-2.746 0-5.437.027-8.144.34-1.636.189-2.44 1.642-2.367 2.914.074 1.281.941 2.142 2.158 2.142.104 0 .212-.006.324-.019 2.651-.306 5.311-.333 8.03-.333 1.612 0 2.456-1.269 2.455-2.522.0001-1.254-.842-2.522-2.454-2.522"/><path d="m61.41 69.5c-4.745 1.893-9.227 1.997-14.07.329-1.452-.497-2.836.41-3.091 1.938-.184 1.095.269 2.418 1.689 2.906 2.671.919 5.385 1.385 8.06 1.385 2.998 0 5.978-.582 8.856-1.729 1.412-.563 1.828-1.939 1.614-3.053-.286-1.508-1.645-2.334-3.058-1.776"/><path d="m49.79 64.61c2.576.708 5.206.988 7.749 0 2.284-.888 1.292-4.606-1.022-3.707-1.948.757-3.731.542-5.705 0-2.395-.657-3.41 3.051-1.022 3.707"/></g></svg>