<svg xmlns="http://www.w3.org/2000/svg" viewBox="0 0 100 100" enable-background="new 0 0 100 100"><g fill="#1d1d1b"><path d="m77.34 47.45c-3.091-17.724-20.947-26.1-37.35-21.621-1.32.36-1.932 1.356-1.996 2.406-10.1 5.541-15.846 17.09-13.889 28.947 2.464 14.93 18.617 22.23 32.19 18.954 12.438-3 23.354-15.426 21.04-28.686m-21.419 22.915c-10.979 3.667-22.83-2.255-26.09-13.435-3.396-11.659 5.641-23.406 16.74-25.935.559-.127.98-.379 1.3-.693 10.993-.458 21.02 5.684 23.806 17.454 2.479 10.478-6.639 19.562-15.761 22.609"/><path d="m52.33 14.712v-8.476c0-3.644-5.65-3.644-5.65 0v8.476c0 3.644 5.65 3.644 5.65 0"/><path d="m77.21 24.62c1.813-2.116 3.611-4.244 5.245-6.505.904-1.251.218-3.144-1.014-3.865-1.426-.835-2.965-.232-3.865 1.014-1.35 1.869-2.862 3.612-4.361 5.361-1 1.168-1.151 2.844 0 3.995 1.026 1.026 2.992 1.171 3.995 0"/><path d="m91.88 48.897h-6.781c-3.644 0-3.644 5.65 0 5.65h6.781c3.644.0001 3.644-5.65 0-5.65"/><path d="m80.03 76.28c-2.562-2.597-6.556 1.4-3.995 3.995 2.258 2.289 4.243 4.811 6.215 7.346.947 1.218 3.01.987 3.995 0 1.189-1.189.945-2.781 0-3.995-1.971-2.536-3.956-5.057-6.215-7.346"/><path d="m46.957 85.06c-.0001 2.735-.005 5.469-.282 8.193-.157 1.535 1.404 2.825 2.825 2.825 1.658 0 2.669-1.294 2.825-2.825.278-2.724.282-5.458.283-8.193 0-3.644-5.65-3.644-5.651 0"/><path d="m25.466 77.977c-1.65 1.924-3.3 3.849-5.085 5.65-2.566 2.59 1.428 6.586 3.995 3.995 1.785-1.801 3.436-3.726 5.085-5.65 1-1.168 1.151-2.845 0-3.995-1.026-1.026-2.992-1.17-3.995 0"/><path d="m16.16 49.46h-9.04c-3.644 0-3.644 5.65 0 5.65h9.04c3.643.0001 3.643-5.65-.0001-5.65"/><path d="m22.08 30.713c3.24 1.649 6.1-3.226 2.852-4.879-2.526-1.286-4.906-2.792-7.06-4.644-2.746-2.365-6.761 1.614-3.995 3.995 2.516 2.168 5.239 4.02 8.199 5.528"/></g></svg>