<svg xmlns="http://www.w3.org/2000/svg" viewBox="0 0 100 100" enable-background="new 0 0 100 100"><g fill="#1d1d1b"><path d="m77.49 47.57c-3.052-17.497-20.68-25.765-36.874-21.344-1.303.356-1.907 1.338-1.97 2.376-9.974 5.47-15.644 16.869-13.711 28.577 2.433 14.739 18.38 21.948 31.783 18.711 12.278-2.965 23.05-15.229 20.772-28.32m-30.15-9.06c-.167.435-.176.906-.059 1.358-.387 10.391-.099 20.797-.072 31.2-7.605-.984-14.302-6.21-16.611-14.14-3.352-11.509 5.568-23.11 16.526-25.603.25-.057.463-.145.66-.247-.203 2.476-.337 4.954-.444 7.432m5.399-7.688c2.453.302 4.806.959 6.983 1.949-2.474.786-4.915 1.661-7.298 2.683.087-1.545.186-3.089.315-4.632m-.557 10.149c3.837-1.863 7.873-3.202 11.974-4.389.337-.097.612-.248.846-.427 1.538 1.343 2.897 2.924 4.03 4.734-5.515 2.024-11.166 3.429-16.953 4.383.025-1.434.062-2.868.107-4.301m4.167 29.22c-1.394.466-2.802.769-4.204.93-.002-.959-.011-1.917-.017-2.876 3.961-.686 7.913-1.425 11.869-2.139-2.356 1.798-5 3.201-7.648 4.085m12.914-9.564c-.428-.19-.926-.27-1.483-.176-5.24.886-10.459 1.889-15.692 2.812-.013-1.282-.026-2.563-.038-3.845 6.668-.96 13.216-2.396 19.712-4.158-.516 1.904-1.369 3.709-2.499 5.367m-17.247-6.143c-.006-1.414-.0001-2.827.004-4.24 6.55-.998 12.929-2.542 19.13-4.895.286.813.548 1.646.756 2.523.17.719.267 1.428.33 2.133-6.656 1.874-13.377 3.476-20.222 4.479"/><path d="m52.789 15.249v-8.367c0-3.597-5.578-3.597-5.578 0v8.367c0 3.597 5.578 3.597 5.578 0"/><path d="m77.35 25.03c1.79-2.089 3.565-4.19 5.178-6.422.892-1.235.216-3.104-1-3.816-1.407-.825-2.927-.229-3.816 1-1.333 1.845-2.825 3.566-4.305 5.293-.988 1.153-1.136 2.808 0 3.944 1.012 1.012 2.954 1.155 3.944 0"/><path d="m91.84 48.997h-6.694c-3.597 0-3.597 5.578 0 5.578h6.694c3.598 0 3.598-5.578 0-5.578"/><path d="m80.14 76.03c-2.529-2.564-6.472 1.382-3.944 3.944 2.229 2.26 4.189 4.749 6.136 7.252.935 1.202 2.97.975 3.944 0 1.174-1.174.933-2.746 0-3.944-1.947-2.502-3.907-4.992-6.136-7.252"/><path d="m47.49 84.7c0 2.7-.005 5.399-.279 8.09-.155 1.515 1.385 2.789 2.789 2.789 1.637 0 2.635-1.277 2.789-2.789.274-2.689.278-5.388.279-8.09.0001-3.597-5.578-3.597-5.578 0"/><path d="m26.27 77.7c-1.629 1.9-3.258 3.8-5.02 5.578-2.534 2.557 1.41 6.502 3.944 3.944 1.762-1.778 3.392-3.678 5.02-5.578.989-1.153 1.136-2.808 0-3.944-1.013-1.013-2.954-1.155-3.944 0"/><path d="m17.09 49.555h-8.925c-3.597 0-3.597 5.578 0 5.578h8.925c3.597 0 3.597-5.578 0-5.578"/><path d="m22.933 31.05c3.198 1.628 6.02-3.185 2.815-4.817-2.494-1.269-4.844-2.756-6.966-4.584-2.71-2.335-6.674 1.593-3.944 3.944 2.484 2.14 5.172 3.97 8.095 5.457"/></g></svg>