<svg xmlns="http://www.w3.org/2000/svg" viewBox="0 0 100 100" enable-background="new 0 0 100 100"><path d="m73.21 76.77c.956-3.187 1.598-6.544 1.885-9.967 5.774-.51 11.52-1.231 17.241-2.168 2.795-.458 1.605-4.698-1.17-4.244-5.274.863-10.567 1.519-15.888 1.994 0-5.424-.82-10.848-2.478-15.778 8.688-2.266 14.331-9.811 13.816-19.06-.157-2.822-4.559-2.837-4.401 0 .424 7.63-3.964 13.199-11.06 14.933-2.983-6.427-7.59-11.599-13.806-14.198 4.333-2.514 8.432-6.477 7.752-11.8-.807-6.319-5.121-10.656-10.05-14.308-.723-.536-1.436-.516-2-.19-.941.151-1.747.846-1.676 2.09.267 4.654-.708 9.04-2.963 13.12-.093.08-.175.185-.26.283-.085-.098-.167-.203-.26-.283-2.255-4.081-3.23-8.466-2.963-13.12.071-1.243-.734-1.939-1.676-2.09-.566-.327-1.279-.346-2 .19-4.932 3.652-9.246 7.989-10.05 14.308-.698 5.462 3.635 9.487 8.089 11.988-5.975 2.649-10.424 7.709-13.336 13.958-6.803-2.076-11.02-7.727-11.952-14.88-.363-2.773-4.768-2.808-4.401 0 1.162 8.896 6.168 16.291 14.711 18.989-1.473 4.353-2.291 9.09-2.467 13.884-5.138-.321-10.24-.913-15.327-1.741-2.775-.452-3.966 3.789-1.17 4.244 5.479.892 10.978 1.552 16.515 1.897.186 4.047.837 8.05 1.951 11.81-9.743 1.772-18.759 6.295-18.86 17.669-.025 2.839 4.376 2.837 4.401 0 .082-9.223 8.07-12.3 15.922-13.517 3.888 9.399 11.04 16.501 21.472 17.442.198.06.407.105.644.11.391.008.771-.004 1.153-.012.382.008.763.02 1.153.012.237-.005.447-.049.644-.11 10.357-.934 17.478-7.951 21.383-17.254 8.06.985 17.638 3.77 18.806 13.08.348 2.777 4.754 2.811 4.401 0-1.446-11.557-11.47-15.785-21.718-17.286m-21.623-56.59c.221-.17.422-.395.587-.691 1.953-3.506 3.151-7.286 3.521-11.211 2.745 2.439 5.343 5.624 5.03 9.152-.39 4.394-4.421 6.704-8.08 8.342-.728-.302-1.771-.817-2.202-1.59.091-.587.068-1.183-.024-1.777.237-.798.689-1.531 1.168-2.225m-16.01-2.75c-.313-3.527 2.284-6.713 5.03-9.152.369 3.925 1.568 7.705 3.521 11.211.165.296.366.521.587.691.478.694.93 1.426 1.169 2.225-.092.594-.115 1.19-.024 1.777-.431.773-1.474 1.287-2.202 1.59-3.66-1.639-7.69-3.948-8.08-8.342m-9.45 45.658c.017-.185.016-.372-.008-.558-.033-7.63 1.737-15.266 5.297-21.13 1.251 11.85 5.155 23.41 11.71 33.18-2.497 4.528-5.421 8.747-8.779 12.665-5.335-5.911-8.08-14.993-8.22-24.16m22.415 30.832c-4.255-.133-7.899-1.495-10.942-3.725 3.133-3.655 5.923-7.565 8.35-11.721 3.634 4.617 7.924 8.74 12.891 12.169-2.909 1.962-6.339 3.153-10.299 3.277m13.752-6.193c-.041-.031-.073-.066-.118-.095-17.1-11.213-25.89-31.31-26.743-51.3 3.426-3.286 7.793-5.34 13.11-5.465 24.23.57 28.841 41.08 13.752 56.863" fill="#1d1d1b"/></svg>