<svg xmlns="http://www.w3.org/2000/svg" viewBox="0 0 100 100" enable-background="new 0 0 100 100"><g fill="#1d1d1b"><path d="m26.516 15.269c-.411-.352-.956-.58-1.652-.58-4.392 0-8.78.025-13.166.263-1.539.084-2.373 1.224-2.511 2.422-.067.227-.116.468-.123.738-.288 12.628-.784 25.25-.98 37.88-.098 6.318-.122 12.638-.001 18.957.058 3.264.151 6.527.29 9.79.101 2.398-1.461 8.417 2.544 8.417.095 0 .185-.019.277-.029.085.007.16.029.25.029 4.746-.02 9.482-.264 14.219-.527 1.505-.083 2.338-1.177 2.504-2.346.076-.248.129-.513.129-.814-.007-23.962-.255-47.923-.263-71.885-.002-1.196-.661-1.962-1.508-2.315m-12.735 72.59c-1.157-22.581-.066-45.17.497-67.747 2.827-.104 5.655-.131 8.484-.141.021 22.513.234 45.02.253 67.54-3.076.161-6.154.292-9.234.349"/><path d="m50.34 33.07c-.349-.24-.761-.416-1.255-.475-4.306-.518-8.581-.72-12.903-.263-1.067.113-1.793.729-2.183 1.502-.256.375-.428.834-.45 1.395-.73 18.347.159 36.747-1.844 55.04-.554 5.135 11.892 3.154 14.746 3.154 1.725 0 2.569-1.358 2.542-2.695.039-.149.075-.3.091-.465 1.742-18.217.902-36.57 2.896-54.769.151-1.372-.635-2.17-1.64-2.422m-6.353 55.08h-6.804c1.648-16.867.995-33.826 1.556-50.746 2.594-.126 5.177-.042 7.765.184-1.648 16.809-1.085 33.738-2.517 50.562"/><path d="m70.977 49.28c-.176-.047-.361-.082-.561-.096-3.783-.271-7.56-.567-11.322-1.053-1.417-.183-2.222.651-2.438 1.705-.271.385-.446.865-.458 1.454-.266 13.256-.546 26.511-1.053 39.76-.08 2.073 1.849 2.869 3.396 2.411.312.137.67.219 1.081.222 3.25.018 6.493.246 9.743.263 1.452.008 2.278-.952 2.488-2.053.239-.371.396-.821.408-1.37.277-12.908.791-25.808 1.316-38.707.07-1.727-1.259-2.568-2.6-2.536m-3.935 39.36c-2.18-.063-4.359-.167-6.541-.203.418-11.585.68-23.17.914-34.765 2.261.249 4.527.437 6.796.611-.465 11.45-.903 22.9-1.169 34.36"/><path d="m90.42 71.42c-.24-.07-.495-.12-.785-.12-2.592 0-5.182.018-7.765.235-1.538-.503-3.558.295-3.558 2.398v17.379c0 .781.287 1.375.716 1.796.262 1.026 1.071 1.89 2.444 1.89h8.953c1.609 0 2.446-1.183 2.53-2.428.061-.225.103-.464.103-.732 0-5.971-.023-11.939-.263-17.905-.062-1.537-1.183-2.371-2.375-2.513m-6.841 18.312v-13.05c1.344-.07 2.688-.092 4.03-.102.132 4.384.162 8.768.17 13.154h-4.204"/><path d="m90.97 27.935c-.278-2.136-1.985-3.093-3.553-3.093-1.11 0-2.182.465-2.866 1.244-.646.735-.926 1.716-.79 2.763.167 1.28.358 2.602.589 4.048-9.624-6.789-30.28-20.445-39.35-25.64-.56-.321-1.134-.483-1.705-.483-1.448 0-2.708 1.075-3.133 2.675-.473 1.777.223 3.499 1.773 4.387 8.718 4.995 28.803 18.316 38.31 25.04-1.407.19-2.816.37-4.226.547-2.269.285-3.193 2.167-3.091 3.795.107 1.713 1.34 3.447 3.49 3.447.163 0 .331-.001.505-.032 4.254-.534 8.416-1.077 12.567-1.844.218-.041.431-.1.646-.18.987-.134 1.856-.619 2.402-1.346.551-.733.744-1.648.55-2.691-.768-4.135-1.562-8.409-2.111-12.638"/></g></svg>