<svg xmlns="http://www.w3.org/2000/svg" viewBox="0 0 100 100" enable-background="new 0 0 100 100"><g fill="#1e1e1c"><path d="m35.708 36.622c3.365 2.385 7.176 3.646 11.02 3.646 5.03 0 9.986-2.115 13.951-5.955 1.056-1.023 2.16-2.218 2.457-2.572.133-.159.254-.341.36-.542 3.809-7.197 3.171-14.643-1.752-20.429-1.161-1.365-2.193-2.525-2.568-2.887-.197-.189-.438-.359-.718-.503-3.421-1.76-6.886-2.652-10.3-2.652-4.694 0-9.223 1.663-13.462 4.942-.197.152-.366.318-.502.493-.303.391-1.281 1.728-2.146 2.997-5.648 8.284-4.143 17.932 3.659 23.462m2.56-22.243c.09-.095.17-.194.242-.293.291-.404 1.547-1.496 3.01-2.23 3.209-1.612 6.799-1.959 10.377-1 1.673.446 3.986 1.875 5.156 3.185 3.02 3.388 3.981 7.331 2.764 11.402-.459 1.534-1.199 2.884-1.451 3.147-2.784 3.739-6.671 5.763-11 5.763-5.289 0-10.306-3.075-12.201-7.477-1.019-2.365-1.968-7.132 3.106-12.493"/><path d="m83.57 51.47c-.006-.371-.1-.762-.335-1.161-2.478-4.203-6.76-6.125-11.565-5.537-.043.005-.08.02-.122.027-.091-.009-.177-.027-.274-.027-16.644 0-33.406-.783-49.986.978-.3-.034-.626-.001-.979.098-3.401 1.038-6.286 3.373-7.762 6.641-.136.302-.224.616-.262.928-.155.301-.253.653-.261 1.065-.223 11.368-.696 22.722 0 34.08.06.978.593 1.64 1.281 1.992.352.334.833.556 1.461.556 4.498 0 8.996-.019 13.49-.227.009 1.509.016 2.909.019 4.117.0001.419.096.776.25 1.081.271.771.937 1.387 2 1.389 12.718.015 25.434.262 38.15.276 1.99.002 2.587-2.146 1.801-3.449-.004-.502-.011-1.035-.019-1.588 3.642-.186 7.287-.216 10.935-.216.576 0 1.03-.186 1.373-.474 1.307.194 2.78-.56 2.776-2.268-.025-12.304-.436-24.59-1.387-36.858-.048-.591-.268-1.065-.586-1.427m-33.433-1.166c1.027 1.198 2.035 2.409 2.946 3.696-.803 1.105-1.635 2.188-2.46 3.277-1.125-.887-2.178-1.869-3.242-2.832.962-1.352 1.898-2.721 2.756-4.141m-17.12 42.757c-.034-7.648-.178-19.958-.191-26.69-.006-3.067-4.762-3.067-4.756 0 .001 5.01.092 13.12.148 20.09-3.843.177-7.688.217-11.535.223-.537-10.68-.124-21.353.089-32.04.968-1.997 2.499-3.45 4.628-4.152 8.176-.862 16.396-1.108 24.624-1.137-.797 1.235-1.647 2.435-2.501 3.631-.239.334-.32.732-.282 1.125-.445.69-.473 1.592.345 2.299 1.582 1.368 3.099 2.801 4.737 4.098-1.781 4.884-3.98 9.553-6.716 13.978-.139.225-.217.447-.262.663-.21.494-.227 1.081.096 1.689 2.858 5.39 5.726 10.773 8.214 16.345-5.547-.053-11.09-.106-16.638-.125m12.427-17.196c2.269-3.76 4.152-7.708 5.767-11.782 1.685 3.668 3.22 7.388 4.359 11.281.005.017.014.031.019.048-.005.02-.014.035-.019.056-1.032 4.33-2.411 8.555-3.798 12.779-1.986-4.189-4.155-8.286-6.328-12.382m24.918 12.429c-.187-7.429-.565-16.745-.876-22.318-.171-3.049-4.927-3.066-4.756 0 .387 6.926.88 19.658.976 27.335-3.784-.014-7.568-.052-11.352-.088 1.781-5.539 3.722-11.03 5.073-16.693.09-.379.07-.721-.017-1.027.127-.345.15-.75.017-1.203-1.462-4.996-3.555-9.739-5.788-14.428 1.025-1.374 2.084-2.723 3.086-4.115.096-.133.159-.278.206-.427.605-.558.875-1.433.294-2.342-.802-1.256-1.709-2.437-2.652-3.59 5.504.049 11.01.126 16.495.128.185.022.381.027.597.0001 3.17-.388 5.772.322 7.458 3.182.086.146.183.271.283.387.898 11.643 1.299 23.302 1.357 34.977-3.468.005-6.936.041-10.401.221"/></g></svg>