<svg xmlns="http://www.w3.org/2000/svg" viewBox="0 0 100 100" enable-background="new 0 0 100 100"><g fill="#1d1d1b"><path d="m90.67 86.28c-2.361.0001-4.721.001-7.082.013-.066-.957-.185-1.908-.409-2.853-.358-1.507-2.043-2.385-3.497-1.985-1.532.421-2.343 1.99-1.985 3.496.069.289.131.578.185.87.005.032.007.046.011.072.014.137.024.273.033.41-4.911.001-9.821.017-14.732.028v-2.894c0-1.549-1.293-2.842-2.842-2.842-1.549 0-2.842 1.293-2.842 2.842v2.897c-4.8.006-9.601.021-14.401.007v-1.767c0-1.549-1.293-2.842-2.842-2.842s-2.842 1.293-2.842 2.842v1.734c-4.04-.022-8.09-.042-12.13-.092v-2.02c0-1.549-1.293-2.842-2.842-2.842s-2.842 1.293-2.842 2.842v1.945c-3-.049-6-.105-9.01-.176.176-4.315.299-8.632.401-12.949h3.109c1.549 0 2.842-1.293 2.842-2.842 0-1.549-1.293-2.842-2.842-2.842h-2.981c.065-3.663.098-7.326.128-10.99h1.717c1.549 0 2.842-1.293 2.842-2.842 0-1.549-1.293-2.842-2.842-2.842h-1.679c.022-4.926.014-9.853.008-14.78h3.188c3.666 0 3.666-5.684 0-5.684h-3.189c-.008-3.916-.015-7.832-.022-11.748h3.59c3.666 0 3.666-5.684 0-5.684h-3.6v-3.221c0-1.549-1.293-2.842-2.842-2.842-1.55 0-2.842 1.293-2.842 2.842v3.41c0 0 0 0 0 .0001.001 25.14.356 50.29-.758 75.41-.023.52.081.958.261 1.33.338 1.019 1.198 1.855 2.581 1.891 27.659.727 55.33.389 82.993.379 3.663-.002 3.664-5.686-.002-5.685"/><path d="m21.319 26.401h4.62c1.596 3.547 3.13 7.11 4.387 10.798.341 1 1.049 1.576 1.848 1.818 1.238.876 3.101.918 4.104-.76 1.144-1.914 2.248-3.848 3.321-5.799 2.544 7.835 4.865 15.736 7.02 23.69.023.085.06.152.088.231.516 1.94 2.969 3.323 4.662 1.402 1.914-2.171 3.918-4.256 5.95-6.314 1.791 3.689 3.368 7.467 4.773 11.331.03.441.14.87.351 1.23.844 1.441 2.476 1.655 3.889 1.02 2.23-1 4.097-2.555 5.849-4.229 2.156 3.03 4.252 6.092 6.179 9.272.201.333.442.585.7.789.524.604 1.286.998 2.133.998h3.79c1.549 0 2.842-1.293 2.842-2.842 0-1.549-1.293-2.842-2.842-2.842h-2.361c-2.285-3.676-4.77-7.216-7.312-10.719-1.129-1.556-3.04-1.483-4.271-.636-.583.044-1.176.286-1.708.819-.944.943-1.88 1.838-2.892 2.635-1.728-4.456-3.665-8.823-5.908-13.05-.964-1.817-2.93-1.71-4.169-.696-.231.129-.458.284-.674.499-1.64 1.64-3.272 3.288-4.874 4.964-2.38-8.505-4.943-16.953-7.808-25.311-.699-2.04-2.903-2.345-4.343-1.54-.05.022-.096.056-.145.082-.039.025-.079.046-.117.072-.375.233-.714.578-.969 1.086-1.096 2.178-2.255 4.319-3.446 6.443-1.179-2.938-2.461-5.833-3.772-8.717-.608-1.338-1.76-1.662-2.825-1.369-.127-.015-.25-.038-.387-.038h-5.684c-3.666-.003-3.666 5.682 0 5.682"/></g></svg>