<svg xmlns="http://www.w3.org/2000/svg" viewBox="0 0 100 100" enable-background="new 0 0 100 100"><g fill="#1e1e1c"><path d="m83.19 10.376c-.807-3.267-3.476-5.372-6.658-6.125-.325-.077-.653-.09-.971-.056-.091-.012-.175-.035-.271-.039-16.16-.727-32.33-.034-48.5 0-.085 0-.158.018-.238.024-.099-.008-.19-.026-.295-.024-2.253.04-4.637.654-6.115 2.479-1.516 1.872-1.893 4.234-1.613 6.581.043.359.131.703.265 1.02-.004 3.627-.04 7.25-.202 10.873-.041.197-.064.406-.062.633.002.262-.0001.524.0001.786-.0001.004-.0001.009-.0001.013 0 .005.0001.009.0001.014.16 20.522-1.258 41.02-.801 61.55.003.137.028.26.047.386-.019.281-.011.568.048.855.821 4.01 4.172 6.408 8.167 6.487.112.002.211-.016.316-.025.074.006.14.024.217.025 15.634.265 31.27.521 46.903.533.181 0 .348-.022.51-.05.097.017.19.04.289.05 2.896.29 5.634-1.351 6.831-3.985.187-.409.284-.837.306-1.259.021-.116.051-.227.059-.353 1.802-26.348 1.36-52.762 1.866-79.15.002-.136-.017-.257-.03-.382.016-.283.003-.572-.067-.859m-5.236 1.241c-.503 26.24-.074 52.51-1.841 78.71-.053.084-.107.169-.122.202-.059.065-.115.133-.179.195-.033.034-.046.05-.067.074-.029.017-.055.031-.103.062-.074.045-.153.082-.23.123.133-.081-.175.029-.333.079-.028.002-.046.003-.082.006-.259.015-.519-.013-.774-.039-.189-.019-.373-.008-.553.025-.083-.007-.159-.025-.246-.025-15.637-.012-31.27-.268-46.903-.533-.113-.002-.211.017-.315.026-.074-.007-.141-.024-.218-.026-.838-.016-1.335-.136-2.029-.577.059.021-.135-.152-.265-.264-.018-.048-.303-.404-.315-.424-.118-.197-.235-.535-.336-.95.002-.062.015-.117.014-.182-.457-20.532.963-41.04.801-61.57.238-4.346.266-8.693.266-13.04 0-.526-.136-.962-.349-1.327-.001-.356-.004-.712.022-1.072.016.063.123-.501.125-.51.021-.061.036-.102.049-.141.043-.081.09-.159.137-.237-.043.088.088-.077.193-.207-.019.083.653-.382.235-.211.695-.284 1.077-.281 1.719-.293.085-.002.16-.02.241-.028.098.009.188.029.292.028 16.17-.034 32.34-.727 48.5 0 .043.002.079-.007.121-.007.274.075.549.15.817.244.044.031.413.193.44.208.165.088.316.196.47.302-.07-.03.299.28.336.317.04.041.061.059.087.083.02.035.045.075.088.141.02.028.172.337.22.411.038.108.069.218.099.329-.004.036-.013.066-.014.103"/><path d="m69.813 16.455c-12.702-.471-25.411-.274-38.12-.508-1.114-.021-1.84.557-2.196 1.326-.391.406-.636.974-.6 1.724.235 4.826.255 9.654.255 14.485 0 .869.362 1.5.886 1.908.409.525 1.041.887 1.909.887h36.847c1.104 0 1.827-.581 2.188-1.345.319-.376.545-.859.608-1.451.496-4.646.743-9.304.762-13.977.0001-.282-.046-.531-.115-.765-.137-1.15-.942-2.229-2.427-2.284m-3.089 14.738h-32.49c-.008-3.378-.044-6.754-.168-10.13 11.06.161 22.12.058 33.18.394-.061 3.252-.231 6.497-.521 9.736"/><path d="m39.25 41h-7.75c-.35 0-.654.068-.928.173-.986.242-1.822 1.01-1.822 2.327 0 2.754-.02 5.504-.25 8.25-.054.639.106 1.145.391 1.528.36.762 1.06 1.375 2.109 1.472 2.496.231 4.996.25 7.5.25.378 0 .708-.074.997-.195 1-.247 1.893-1.01 2-2.305.22-2.58.25-5.162.25-7.75 0-.286-.051-.537-.122-.772.232-1.387-.56-2.978-2.378-2.978m-2.596 8.988c-1.012-.001-2.02-.029-3.03-.072.069-1.304.097-2.61.111-3.916h3.01c-.009 1.33-.029 2.66-.087 3.988"/><path d="m54.25 41h-7.75c-.35 0-.654.068-.928.173-.986.242-1.822 1.01-1.822 2.327 0 2.754-.02 5.504-.25 8.25-.054.639.106 1.145.391 1.528.36.762 1.06 1.375 2.109 1.472 2.496.231 4.996.25 7.5.25.378 0 .708-.074.997-.195 1-.247 1.893-1.01 2-2.305.22-2.58.25-5.162.25-7.75 0-.286-.051-.537-.122-.772.232-1.387-.56-2.978-2.378-2.978m-2.596 8.988c-1.012-.001-2.02-.029-3.03-.072.069-1.304.097-2.61.111-3.916h3.01c-.009 1.33-.029 2.66-.087 3.988"/><path d="m69.25 41h-7.75c-.35 0-.654.068-.928.173-.986.242-1.822 1.01-1.822 2.327 0 2.754-.02 5.504-.25 8.25-.054.639.106 1.145.391 1.528.36.762 1.06 1.375 2.109 1.472 2.496.231 4.996.25 7.5.25.378 0 .708-.074.997-.195 1-.247 1.893-1.01 2-2.305.22-2.58.25-5.162.25-7.75 0-.286-.051-.537-.122-.772.232-1.387-.56-2.978-2.378-2.978m-2.596 8.988c-1.012-.001-2.02-.029-3.03-.072.069-1.304.097-2.61.111-3.916h3.01c-.009 1.33-.029 2.66-.087 3.988"/><path d="m39.25 57h-7.75c-.35 0-.654.068-.928.173-.986.242-1.822 1.01-1.822 2.327 0 2.754-.02 5.504-.25 8.25-.054.639.106 1.145.391 1.528.36.762 1.06 1.375 2.109 1.472 2.496.231 4.996.25 7.5.25.378 0 .708-.074.997-.195 1-.247 1.893-1.01 2-2.305.22-2.58.25-5.162.25-7.75 0-.286-.051-.537-.122-.772.232-1.387-.56-2.978-2.378-2.978m-2.596 8.988c-1.012-.001-2.02-.029-3.03-.072.069-1.304.097-2.61.111-3.916h3.01c-.009 1.33-.029 2.66-.087 3.988"/><path d="m54.25 57h-7.75c-.35 0-.654.068-.928.173-.986.242-1.822 1.01-1.822 2.327 0 2.754-.02 5.504-.25 8.25-.054.639.106 1.145.391 1.528.36.762 1.06 1.375 2.109 1.472 2.496.231 4.996.25 7.5.25.378 0 .708-.074.997-.195 1-.247 1.893-1.01 2-2.305.22-2.58.25-5.162.25-7.75 0-.286-.051-.537-.122-.772.232-1.387-.56-2.978-2.378-2.978m-2.596 8.988c-1.012-.001-2.02-.029-3.03-.072.069-1.304.097-2.61.111-3.916h3.01c-.009 1.33-.029 2.66-.087 3.988"/><path d="m69.25 57h-7.75c-.35 0-.654.068-.928.173-.986.242-1.822 1.01-1.822 2.327 0 2.754-.02 5.504-.25 8.25-.054.639.106 1.145.391 1.528.36.762 1.06 1.375 2.109 1.472 2.496.231 4.996.25 7.5.25.378 0 .708-.074.997-.195 1-.247 1.893-1.01 2-2.305.22-2.58.25-5.162.25-7.75 0-.286-.051-.537-.122-.772.232-1.387-.56-2.978-2.378-2.978m-2.596 8.988c-1.012-.001-2.02-.029-3.03-.072.069-1.304.097-2.61.111-3.916h3.01c-.009 1.33-.029 2.66-.087 3.988"/><path d="m39.25 73h-7.75c-.35 0-.654.068-.928.173-.986.242-1.822 1.01-1.822 2.327 0 2.754-.02 5.504-.25 8.25-.054.639.106 1.145.391 1.528.36.762 1.06 1.375 2.109 1.472 2.496.231 4.996.25 7.5.25.378 0 .708-.074.997-.195 1-.247 1.893-1.01 2-2.305.22-2.58.25-5.162.25-7.75 0-.286-.051-.537-.122-.772.232-1.387-.56-2.978-2.378-2.978m-2.596 8.988c-1.012-.001-2.02-.029-3.03-.072.069-1.304.097-2.61.111-3.916h3.01c-.009 1.33-.029 2.66-.087 3.988"/><path d="m54.25 73h-7.75c-.35 0-.654.068-.928.173-.986.242-1.822 1.01-1.822 2.327 0 2.754-.02 5.504-.25 8.25-.054.639.106 1.145.391 1.528.36.762 1.06 1.375 2.109 1.472 2.496.231 4.996.25 7.5.25.378 0 .708-.074.997-.195 1-.247 1.893-1.01 2-2.305.22-2.58.25-5.162.25-7.75 0-.286-.051-.537-.122-.772.232-1.387-.56-2.978-2.378-2.978m-2.596 8.988c-1.012-.001-2.02-.029-3.03-.072.069-1.304.097-2.61.111-3.916h3.01c-.009 1.33-.029 2.66-.087 3.988"/><path d="m69.25 73h-7.75c-.35 0-.654.068-.928.173-.986.242-1.822 1.01-1.822 2.327 0 2.754-.02 5.504-.25 8.25-.054.639.106 1.145.391 1.528.36.762 1.06 1.375 2.109 1.472 2.496.231 4.996.25 7.5.25.378 0 .708-.074.997-.195 1-.247 1.893-1.01 2-2.305.22-2.58.25-5.162.25-7.75 0-.286-.051-.537-.122-.772.232-1.387-.56-2.978-2.378-2.978m-2.596 8.988c-1.012-.001-2.02-.029-3.03-.072.069-1.304.097-2.61.111-3.916h3.01c-.009 1.33-.029 2.66-.087 3.988"/></g></svg>