<svg xmlns="http://www.w3.org/2000/svg" viewBox="0 0 100 100" enable-background="new 0 0 100 100"><g fill="#1e1e1c"><path d="m90.48 24.09c-.19-1-.809-1.544-1.541-1.729-.292-.121-.609-.191-.94-.191h-.833c-.263 0-.514.054-.754.132-.143-.025-.283-.055-.443-.055-3.303-.002-6.607-.019-9.91-.028-.07-1.102-.118-2.207-.127-3.318-.025-3.235-5.04-3.238-5.02 0 .009 1.103.051 2.204.118 3.303-2.91-.001-5.82-.013-8.729-.025-.093-1.227-.161-2.457-.171-3.697-.025-3.235-5.04-3.238-5.02 0 .001 1.23.073 2.455.162 3.677-2.877-.012-5.754-.025-8.632-.035-.083-1.355-.175-2.709-.313-4.06-.325-3.187-5.347-3.219-5.02 0 .137 1.346.23 2.695.312 4.045-2.96-.007-5.92-.028-8.879-.027-.25-1.141-.493-2.284-.724-3.431-.639-3.171-5.476-1.826-4.84 1.334.142.705.292 1.408.441 2.111-2.759.007-5.518.004-8.276.023-.206-.884-.435-1.763-.709-2.632-.97-3.075-5.816-1.761-4.84 1.334.14.445.24.897.36 1.345-2.241.023-4.482.045-6.723.079-.626.001-1.128.208-1.511.518-1.182.081-2.289.878-2.253 2.41.4 17.16.5 38.34 2.091 55.44.021.222.069.426.132.617.156 1.122.947 2.191 2.378 2.311 27.14 2.266 55.45 5.274 82.22-1.344 1.378-.341 1.894-1.464 1.775-2.551.048-.217.079-.447.067-.705-.796-17.01-.672-38.05-3.856-54.855m-79.75 3.162c2.152-.031 4.304-.031 6.456-.052.247 1.685.438 3.381.609 5.086.32 3.189 5.342 3.22 5.02 0-.172-1.71-.347-3.423-.574-5.127 2.844-.019 5.688-.017 8.531-.023.411 1.668.847 3.33 1.334 4.98.914 3.097 5.758 1.778 4.84-1.334-.359-1.215-.687-2.436-1-3.66 2.657-.0001 5.314.016 7.971.022.064 1.018.137 2.035.232 3.051.296 3.195 5.318 3.223 5.02 0-.094-1.01-.167-2.024-.231-3.037 2.967.009 5.934.021 8.901.032.182 1.227.384 2.451.622 3.672.616 3.175 5.454 1.827 4.84-1.334-.15-.773-.28-1.546-.404-2.32 2.888.011 5.776.013 8.663.022.195 1.356.417 2.708.703 4.05.673 3.165 5.511 1.822 4.84-1.334-.191-.899-.356-1.8-.498-2.703 3.123.008 6.246.022 9.369.024.654 3.748 1.14 7.509 1.518 11.28-25.504-.328-51 .412-76.49 1.219-.094-4.172-.175-8.343-.267-12.514m1.89 51.48c-.864-9.967-1.25-23.954-1.506-33.948 25.595-.81 51.2-1.553 76.81-1.211.765 10.04.905 24.14 1.349 34.22-24.963 5.726-51.35 3.088-76.65.942"/><path d="m54.25 49.796c-3.869 0-3.869 6.367 0 6.367s3.869-6.367 0-6.367"/><path d="m66.5 49.53c-3.869 0-3.869 6.367 0 6.367s3.869-6.367 0-6.367"/><path d="m78.75 49c-3.869 0-3.869 6.367 0 6.367s3.869-6.367 0-6.367"/><path d="m54.25 59.35c-3.869 0-3.869 6.367 0 6.367s3.869-6.367 0-6.367"/><path d="m66.5 59.08c-3.869 0-3.869 6.367 0 6.367s3.869-6.367 0-6.367"/><path d="m78.75 58.55c-3.869 0-3.869 6.367 0 6.367s3.869-6.367 0-6.367"/><path d="m19.329 58.979c-3.867-.117-4.04 6.248-.17 6.365 3.868.116 4.04-6.248.17-6.365"/><path d="m31.582 59.08c-3.868-.117-4.04 6.248-.17 6.365 3.867.116 4.04-6.249.17-6.365"/><path d="m43.841 58.921c-3.868-.117-4.04 6.248-.17 6.365 3.867.117 4.04-6.248.17-6.365"/><path d="m19.329 68.53c-3.867-.117-4.04 6.248-.17 6.365s4.04-6.248.17-6.365"/><path d="m31.582 68.63c-3.868-.117-4.04 6.248-.17 6.365 3.867.116 4.04-6.249.17-6.365"/><path d="m43.841 68.47c-3.868-.117-4.04 6.248-.17 6.365 3.867.117 4.04-6.248.17-6.365"/></g></svg>