<svg xmlns="http://www.w3.org/2000/svg" viewBox="0 0 100 100" enable-background="new 0 0 100 100"><g fill="#1d1d1b"><path d="m56.665 77.98c-.259-1.211.087-2.445.948-3.387 1.348-1.473 2.488-2.904 3.695-4.419.334-.42.678-.846 1.021-1.273-.066-1.568-.128-3.136-.185-4.704-1.136-1.412-2.306-2.851-3.5-4.045-.175-.175-.331-.365-.474-.575-.665-.756-.99-1.667-.985-2.572.185 5.612.368 11.224.66 16.832-9.06.241-18.12.268-27.18.026.47-16.687-1.824-33.26-2.01-49.931 8.85-.274 17.702-.457 26.556-.55.0001.088-.008.17.003.264 1.227 11.06 1.601 22.16 1.967 33.27.028-.924.404-1.835 1.132-2.563l3.373-3.373c-.325-9.126-.753-18.244-1.762-27.332-.012-.107-.041-.202-.064-.302 1.378-.009 2.755-.014 4.133-.021.277 8.31.342 16.623.669 24.918.511-.282 1.067-.455 1.646-.473.202-.035.406-.053.609-.053.901 0 1.747.363 2.436.998-.333-8.451-.373-16.91-.651-25.363-.013-.405 6.469.983 7.131 1.421 2.277 1.503 2.692 4.25 2.904 6.779.555 6.629.314 13.491.146 20.26.188-.175.375-.348.588-.545.162-.151.458-.518.719-.843.819-1.018 1.876-2.317 3.256-2.857-.003-.275-.005-.55-.008-.826-.035-3.76-.122-7.53-.045-11.29.043-2.083.203-4.299.079-6.421-.754-12.876-16.33-10.387-25.315-10.38.143 0-2.42-4.137-2.841-4.528-1.268-1.177-2.77-1.96-4.432-2.405-3.784-1.013-7.911-.411-11.764-.267-5.536.207-9.879 1.716-11.05 7.786-3.451.108-6.903.222-10.354.358-4.164-.351-8.814.614-11.609 3.975-1.94 2.333-1.511 5.725-1.58 8.591-.103 4.252-.201 8.502-.212 12.755-.013 4.808.063 9.615.224 14.419.137 4.097-.53 8.468.95 12.389 2.877 7.627 12.867 6.42 19.454 6.67 0 .029-.007.054-.007.083.099 7.915 12.948 9.145 12.12.209 5.593.079 11.185.054 16.778-.045-.017 3.36 2.456 5.906 5.73 6.158.982.076 1.861-.029 2.639-.286-1.249-1.269-2.479-2.545-3.649-3.892-.953-.577-1.659-1.548-1.892-2.638m-21.895-61.52c2.987-.274 5.989-.395 8.989-.334 1.786.036 3.743-.328 5.5.07 1.01.228 3.44 2.513 3.822 2.509-6.691.082-13.381.199-20.07.383.372-.997.936-1.867 1.759-2.628m-21.786 56.636c-.167-.102-.343-.193-.534-.26-.232-.081-.36-.13-.779-.363-.173-.096-.335-.211-.496-.325.077.039-.33-.296-.336-.302-.427-.402-.721-.811-1.036-1.369-.0001-.028.005-.052.003-.08-.949-14.487-.964-28.983-.371-43.484 1.528-1.632 3.379-2.513 5.488-2.729.977 16.292 1.922 32.584 2.283 48.904.002.084.02.157.029.237-1.417-.075-2.834-.141-4.251-.229m12.971.615c-1.359-.049-2.718-.093-4.076-.152.024-.149.04-.303.036-.47-.36-16.305-1.305-32.582-2.28-48.859 1.439-.055 2.878-.094 4.316-.144.194 16.568 2.455 33.04 2 49.625m6.372 6.156c-.032.083-.084.223-.116.279-.003.006-.003.007-.006.012-.024.02-.054.046-.101.093-.006.006-.007.007-.012.013-.03.013-.074.037-.14.076-.031.018-.041.026-.063.04-.036.009-.084.022-.157.045-.108.034-.22.048-.331.071-.023-.0001-.043-.007-.067-.008-.028 0-.351-.027-.445-.026-.154-.032-.308-.066-.459-.111-.016-.005-.019-.005-.032-.009-.026-.017-.059-.037-.117-.069-.041-.027-.067-.044-.092-.06-.052-.048-.106-.094-.154-.146-.009-.009-.011-.001-.018-.017-.014-.027-.028-.053-.058-.1-.038-.064-.07-.131-.104-.198-.001-.032-.026-.078-.048-.14-.052-.161-.083-.328-.115-.494.029.078-.016-.371-.032-.57.898.026 1.797.026 2.696.047.038.345.048.687.031 1.033-.014.008-.038.129-.06.239"/><path d="m92.44 76.3c-2.723-3.01-5.43-6.03-8.05-9.139l7.906-7.906c.878-.878.599-2-.107-2.654-.063-.108-.135-.216-.224-.32-1.93-2.25-4.02-4.348-6.113-6.443-.373-.373-.75-.529-1.122-.529-.432 0-.858.212-1.269.529-1.028.794-1.961 2.268-2.634 2.894-.826.768-1.446 1.341-2.01 1.86-1.071.986-1.921 1.764-3.492 3.225-1.776-1.79-3.971-4.03-5.855-6.06-.462-.497-.911-.985-1.324-1.446-.378-.422-.813-.598-1.236-.598-.137 0-.273.018-.405.053-.029-.002-.059-.002-.089-.002-.422 0-.858.16-1.245.547l-.409.409-2.989 2.989-2.055 2.055c-.846.846-.62 1.922.03 2.584.08.133.176.265.301.39.674.674 1.325 1.406 1.966 2.162 1.316 1.553 2.585 3.213 3.885 4.737.309.362.619.717.933 1.06-.248.267-.482.533-.718.799-1.317 1.484-2.479 2.955-3.657 4.43-1.062 1.331-2.142 2.665-3.379 4.02-.779.851-.576 1.901.026 2.568.2.222.445.402.712.517.331.386.686.75 1.026 1.127 1.029 1.139 2.085 2.253 3.166 3.344.341.344.676.693 1.018 1.036.386.386.82.548 1.241.548.3 0 .592-.082.857-.223.247-.091.489-.246.712-.49 2.023-2.219 4.113-4.371 6.219-6.509.811-.824 1.618-1.652 2.435-2.471.469.563.955 1.111 1.431 1.669 2.056 2.412 4.152 4.789 6.273 7.146.378.42.812.596 1.234.596.355 0 .701-.124 1-.331.309-.056.618-.186.906-.43 2.086-1.764 3.357-2.993 5.431-4.77.959-.822.684-1.93-.054-2.58-.075-.134-.163-.266-.278-.393m-6.628 4.115c-1.614-1.799-3.208-3.615-4.784-5.447-.99-1.152-1.981-2.304-2.942-3.481-.177-.216-.368-.369-.566-.471-.21-.108-.427-.159-.642-.159-.171 0-.341.031-.505.087-.005 0-.001 0-.015 0-.423 0-.858.155-1.246.543-.549.549-1.092 1.105-1.64 1.655-1.639 1.648-3.26 3.312-4.866 4.99-.764.798-1.537 1.587-2.289 2.397-.065-.066-.124-.136-.189-.202-1.031-1.051-2.041-2.12-3.02-3.221 1.108-1.188 2.083-2.367 3.03-3.546.24-.299.478-.598.715-.897 1.183-1.491 2.362-2.985 3.733-4.501.044-.049.084-.097.129-.146.796-.873.561-1.955-.074-2.62-.069-.12-.154-.239-.256-.354-.036-.04-.071-.083-.107-.123-1.69-1.904-3.304-4.122-5.02-6.111-.514-.597-1.036-1.176-1.573-1.715l1.357-1.357 1.57-1.57c.951 1.034 2.038 2.173 3.153 3.323 1.545 1.593 3.144 3.205 4.522 4.583.27.269.585.389.934.389.996 0 2.269-.987 3.562-2.277 1.747-1.741 3.528-4.03 4.726-5.261.513-.526.922-.861 1.17-.861.061 0 .113.02.154.062 1.21 1.228 2.408 2.466 3.559 3.75l-4.847 4.847-2.674 2.674c-.162.162-.274.335-.362.51-.499.674-.641 1.648.032 2.464.844 1.024 1.717 2.024 2.582 3.03 1.86 2.161 3.744 4.301 5.654 6.418-1.218 1.092-1.741 1.516-2.967 2.599"/></g></svg>