<svg xmlns="http://www.w3.org/2000/svg" viewBox="0 0 100 100" enable-background="new 0 0 100 100"><g fill="#1d1d1b"><path d="m80.12 83.2c-5.891-4.76-13.239-11.391-17.348-16.248 4.231-6.877 7.347-13.77 9.271-20.51 2.892-10.138 1.914-20.251-2.755-28.479-4.053-7.137-11.5-14.789-19.919-14.14-11.92.922-17.927 13.74-16.916 36.09.41 9.07 3.148 18.15 8.141 27.01-3.987 4.905-10.375 11.656-14.926 16.233-.971.978-.969 2.557.005 3.53l9.379 9.379c.469.469 1.104.732 1.768.732.0001 0 .002 0 .003 0 .665-.0001 1.301-.267 1.77-.737 2.905-2.922 8.853-9.09 13.07-13.974 3.116 3.241 7.05 6.593 10.333 9.389l1.406 1.2c.304.256.964.867 1.67 1.52 1.237 1.142 2.082 1.917 2.538 2.279.458.364 1.01.544 1.556.544.643 0 1.283-.247 1.768-.732l9.379-9.379c.501-.501.767-1.191.729-1.899s-.374-1.366-.925-1.812m-11.05 7.885c-.209-.193-.417-.384-.606-.56-.776-.716-1.503-1.385-1.823-1.655l-1.402-1.196c-3.889-3.312-8.729-7.436-11.738-10.995-.475-.562-1.174-.887-1.909-.887-.008 0-.016 0-.024 0-.744.008-1.446.346-1.916.924-3.042 3.744-8.453 9.543-12.846 14.04l-5.843-5.844c3.46-3.54 10.462-10.854 14.624-16.23.628-.812.697-1.924.173-2.807-5.12-8.622-7.916-17.43-8.312-26.18-1.177-25.95 7.204-30.486 12.304-30.88.206-.016.41-.024.614-.024 5.499 0 11.279 5.848 14.569 11.644 4 7.05 4.817 15.801 2.295 24.639-1.932 6.774-5.174 13.745-9.634 20.719-.568.887-.518 2.035.124 2.87 3.825 4.977 11.172 11.717 17.11 16.667l-5.758 5.758"/><path d="m58.846 26.529c-1.668-3.279-3.745-6-6.178-8.089-.167-.143-.35-.268-.633-.433-.597-.348-1.312-.435-1.972-.238-.662.196-1.213.658-1.523 1.275-.069.138-.137.273-.196.39-.166.209-.301.45-.396.716-.814 2.292-1.417 4.735-1.793 7.264-.701 4.708-.743 11.192-.109 16.521.127 1.067.669 4.126 1.451 6.266.6 1.64 1.314 3.354 2.186 5.243.398.863 1.252 1.427 2.203 1.452.023.0001.045.0001.068.0001.925 0 1.776-.512 2.21-1.333 1.495-2.829 2.742-5.637 3.709-8.343 2.207-6.185 4.314-14.13.973-20.692m-5.683 19.01c-.318.89-.669 1.793-1.054 2.707-.551-1.619-.99-3.994-1.099-4.903-.576-4.849-.54-10.955.09-15.194.175-1.172.404-2.322.687-3.439.958 1.199 1.829 2.565 2.603 4.085 2.474 4.864.644 11.503-1.227 16.744"/></g></svg>