<svg xmlns="http://www.w3.org/2000/svg" viewBox="0 0 100 100" enable-background="new 0 0 100 100"><g fill="#1d1d1b"><path d="m41.628 25.367c-1.239-1.226-2.741-1.182-3.904-.507-.378.161-.75.396-1.099.745l-8.099 8.099c-.7.701-.979 1.488-.977 2.252-.004.045-.002.09-.005.135.003.04.0001.081.005.121-.003.765.275 1.554.977 2.256 2.782 2.781 5.583 5.537 8.481 8.193l-8.958 8.957c-1.414 1.414-1.158 3.18-.181 4.382.129.542.402 1.079.896 1.573l8.575 8.575c1.084 1.084 2.374 1.18 3.461.732.689-.054 1.389-.341 2.02-.97l8.911-8.91c3.158 2.875 6.239 5.834 9.431 8.672 1.435 1.277 3.173 1.046 4.38.147.295-.156.586-.349.86-.623l8.337-8.337c1.069-1.07 1.177-2.341.748-3.419.084-.851-.186-1.75-.986-2.536-3.117-3.059-6.475-5.826-9.896-8.526 2.346-2.716 4.688-5.435 7.04-8.148.387-.446.62-.921.748-1.4.743-1.287.581-2.987-.51-4.078l-.477-.476c-.393-.392-.867-.651-1.369-.806-2.515-2.151-4.866-4.477-7.206-6.816-1.254-1.254-2.784-1.191-3.955-.48-.36.161-.715.386-1.047.719l-8.128 8.128c-2.678-2.563-5.434-5.04-8.07-7.654m18.829 6.42c1.419 1.391 2.873 2.744 4.372 4.05-2.335 2.703-4.666 5.41-7 8.11-.208.24-.364.49-.494.744-1.311 1.178-1.761 3.113.018 4.497 3.654 2.844 7.268 5.725 10.662 8.87l-4.584 4.584c-2.979-2.738-5.903-5.535-8.937-8.214-.184-.162-.373-.292-.564-.407-1.192-1.184-3.144-1.601-4.676-.069l-9.29 9.29-5-5 9.29-9.29c1.358-1.358 1.182-3.045.3-4.241-.176-.347-.421-.685-.776-.999-2.782-2.456-5.454-5.02-8.092-7.629l3.607-3.607c2.447 2.317 4.946 4.578 7.343 6.949.229.227.469.398.712.542 1.182 1.258 3.192 1.746 4.767.173l8.348-8.351"/><path d="m51.03 5.211c-1.981 0-3.995.118-6.01.353-.944.121-1.886.262-2.799.417-.577.09-1.108.262-1.586.51-18.984 2.517-33.514 16.74-36.22 35.514-3.316 22.995 14.11 44.662 38.838 48.3 2.175.32 4.413.482 6.653.482.0001 0 .0001 0 .003 0 22.705 0 42.43-15.434 45.875-35.9 1.986-11.792-2.308-24.735-11.781-35.509-8.03-9.136-19.742-14.168-32.972-14.168m2.631 10.342c8.899.618 16.624 4.298 22.973 10.948 7.456 7.811 10.782 18.795 8.681 28.665-2.675 12.562-15.876 25.277-35.932 25.277-2.328 0-4.619-.204-6.811-.605-18.442-3.383-30.911-20.4-27.796-37.935 2.674-15.04 15.907-25.543 32.18-25.543 1.099 0 2.214.049 3.313.146 1.339.119 2.478-.226 3.389-.953"/></g></svg>