<svg xmlns="http://www.w3.org/2000/svg" viewBox="0 0 100 100" enable-background="new 0 0 100 100"><g fill="#1d1d1b"><path d="m91.12 9.731c-.716-1.508-2.145-2.668-4.295-2.731-24.423-.714-48.855-.749-73.29-.75-.468-.148-.953-.25-1.464-.25-2.726 0-5 2.274-5 5v1.5c0 .758.19 1.473.503 2.122-.159.488-.252 1.028-.253 1.628-.049 23.258-1.687 46.49-1.25 69.75.009.474.077.909.186 1.314.155 2.358 1.756 4.548 4.814 4.436 26.324-.963 52.664-.756 79-.75 1.784 0 3.072-.766 3.869-1.873.672-.778 1.108-1.817 1.131-3.127.425-24.547-1.725-49.01-3-73.5-.058-1.119-.415-2.039-.955-2.769m-75.08 71.864c-.178-21.789 1.241-43.554 1.287-65.34 21.667.005 43.33.071 64.994.632 1.192 21.363 2.885 42.708 2.806 64.11-23.03-.021-46.06-.119-69.09.599"/><path d="m74.03 55.904c-3.117-3.059-6.475-5.826-9.896-8.526 2.345-2.716 4.688-5.435 7.04-8.148.386-.446.62-.921.748-1.4.743-1.287.581-2.987-.511-4.078l-.476-.476c-.393-.392-.867-.651-1.37-.806-2.514-2.151-4.865-4.477-7.205-6.816-1.255-1.254-2.785-1.191-3.955-.48-.36.161-.715.386-1.047.719l-8.129 8.128c-2.679-2.561-5.435-5.04-8.07-7.652-1.238-1.226-2.74-1.182-3.903-.507-.378.161-.75.396-1.099.745l-8.099 8.099c-.7.701-.979 1.488-.977 2.252-.005.045-.003.09-.005.135.002.04.0001.081.004.121-.002.765.275 1.554.978 2.256 2.781 2.781 5.582 5.537 8.48 8.193l-8.957 8.957c-1.414 1.414-1.158 3.18-.181 4.382.128.542.401 1.079.896 1.573l8.575 8.575c1.084 1.084 2.374 1.18 3.461.732.689-.054 1.389-.341 2.02-.97l8.912-8.912c3.158 2.875 6.239 5.834 9.431 8.672 1.436 1.277 3.174 1.046 4.381.147.295-.156.585-.349.859-.623l8.338-8.337c1.069-1.07 1.176-2.341.748-3.419.084-.851-.186-1.75-.987-2.536m-11.07 7.738c-2.979-2.738-5.902-5.535-8.936-8.214-.184-.162-.373-.292-.564-.407-1.192-1.184-3.145-1.601-4.676-.069l-9.29 9.29-5-5 9.289-9.29c1.359-1.358 1.183-3.045.301-4.241-.177-.347-.421-.685-.776-.999-2.782-2.456-5.454-5.02-8.092-7.629l3.607-3.607c2.446 2.317 4.946 4.578 7.343 6.949.229.227.468.398.712.542 1.181 1.258 3.192 1.746 4.767.173l8.348-8.349c1.42 1.391 2.874 2.744 4.372 4.05-2.334 2.703-4.665 5.41-7 8.11-.209.24-.364.49-.494.744-1.311 1.178-1.762 3.113.018 4.497 3.654 2.844 7.268 5.725 10.662 8.87l-4.586 4.582"/></g></svg>