<svg xmlns="http://www.w3.org/2000/svg" viewBox="0 0 100 100" enable-background="new 0 0 100 100"><g fill="#1e1e1c"><path d="m95.44 21.806c-.007-.207-.014-.414-.021-.622-.083-2.459-.367-4.681-1.99-6.649-1.489-1.806-4-2.395-6.208-2.598-.129-.012-.253.002-.377.015-.069-.003-.131-.017-.203-.015-9.304.249-18.602.012-27.903-.267-.079-.006-.15-.023-.232-.023h-12.183c-.047 0-.086.011-.132.013-.054-.002-.102-.014-.158-.013-4.68.075-8.634 2.617-9.479 7.428-.041.235-.05.469-.043.7-.017.095-.042.183-.05.284-.464 6.093-.763 12.199-.891 18.309-.065 3.119-.085 6.239-.06 9.358.026 3.238-.373 6.619 1.38 9.535 1.552 2.582 4.15 3.434 6.958 3.947.13.024.269.033.413.036.001 0 .02.002.058 0 .088 0 .169.011.263.002 5.963-.544 11.934-.812 17.919-.857.415.246.834.483 1.257.714.036.024.062.053.1.076 6.174 3.775 12.623 7.02 19.14 10.152 1.341.643 2.606.112 3.335-.804.527-.479.805-1.178.608-2.038-.032-.224-.098-.441-.205-.648l-2.983-7.756h2.303c.134 0 .253-.021.376-.037 2.128.238 4.321.125 6.121-1.196 3.496-2.564 3.456-7.443 3.535-11.314.114-5.536-.074-11.08-.296-16.611-.12-3.04-.249-6.08-.355-9.121m-4.586 29.933c-.131 1.056-.456 2.043-1.198 2.802-1.357.984-3.512.363-5.058.325-1.332-.033-2.762 0-4.049 0-.354 0-.663.068-.943.172-1.503.135-2.844 1.34-2.155 3.132.732 1.904 1.464 3.808 2.197 5.711-4.105-2.06-8.155-4.223-12.1-6.584-.141-.129-.297-.245-.474-.335-.594-.3-1.17-.629-1.742-.966-.42-.5-1.042-.844-1.896-.841-6.299.022-12.58.298-18.853.87-.039.004-.072.016-.111.021-.061-.005-.115-.02-.179-.021-.836-.016-1.475-.164-2.114-.542-.48-.284-.934-.939-1.17-1.602-.064-.18-.145-.35-.237-.511.027-.169.045-.345.04-.535-.259-10.935.036-21.851.869-32.757.525-2.293 1.87-3.169 4.352-3.209.048-.0001.088-.013.134-.015.054.003.101.015.156.015h11.602c5.542.007 11.06.461 16.599.5 2.812.02 5.609-.182 8.416-.292 1.852-.073 4.409-.359 6.03.781 1.918 1.351 1.455 4.382 1.521 6.416.1 3.068.205 6.135.289 9.203.084 3.069.14 6.138.14 9.208 0 1.562-.013 3.125-.047 4.687-.028 1.302.164 2.9-.018 4.367"/><path d="m58.12 65.04c0 0 0 6.15.003 6.178-.127.296-.211.619-.249.956.048-.427-.101.377-.101.374-.023.089-.037.151-.045.192-.018.034-.038.07-.069.133-.001.02-.208.32-.237.387-.095.107-.195.208-.3.304.024-.045-.352.237-.383.255-.06.035-.094.056-.127.077-.04.009-.098.026-.203.061-.617.208-.676.173-1.242.184-.08.002-.148.019-.224.027-.09-.009-.173-.027-.268-.027h-17.957c-.795 0-1.39.309-1.787.772-.236.106-.469.241-.691.441-2.239 2.02-4.42 4.086-6.551 6.208.304-1.346.586-2.698.823-4.061.708-4.071-4.372-2.98-6.584-2.923-2.5.064-5.995.962-8.405.331-.766-.201-2.596-1.208-2.643-2.159-.514-10.199-1.213-20.388-1.713-30.589-.0001-.022-.008-.041-.009-.063-.005-.189-.028-.385-.079-.591-.26-1.051-.252-1.965.052-2.514 1.349-2.434 6.02-1.674 8.226-1.485 4.07.348 8.145.319 12.228.471 3.174.118 3.163-4.803-.002-4.92-4.079-.151-8.162-.212-12.244-.234-4.366-.024-9.369-.447-12.314 3.465-1.299 1.726-1.212 4.183-.761 6.201.502 10.143 1.196 20.276 1.704 30.419.009.178.038.344.075.502-.016.393.053.807.261 1.232 3.063 6.27 11.02 5.04 16.826 4.813-.731 3.393-1.669 6.731-2.806 10.02-.326.942-.082 1.715.437 2.24.794 1.18 2.453 1.757 3.675.4 4.12-4.578 8.467-8.927 13.04-13.05h17.204c.078 0 .145-.016.219-.022.091.007.176.024.273.022 2.026-.04 3.77-.64 5.337-1.92 1.447-1.181 2.045-3.036 2.268-4.817.165-.319.267-.693.267-1.135v-6.15c0-3.171-4.92-3.171-4.92.0001"/></g></svg>