<svg xmlns="http://www.w3.org/2000/svg" viewBox="0 0 100 100" enable-background="new 0 0 100 100"><path d="m91.85 24.13c-.001-.293-.02-.585-.03-.878-.117-3.473-.518-6.61-2.811-9.39-2.103-2.55-5.65-3.382-8.768-3.67-.182-.017-.357.003-.532.021-.098-.004-.185-.024-.288-.021-13.14.352-26.27.017-39.41-.377-.111-.009-.212-.033-.328-.033h-17.205c-.066 0-.122.016-.187.018-.077-.003-.144-.02-.223-.018-6.61.107-12.193 3.696-13.386 10.49-.058.332-.07.662-.061.988-.023.134-.06.259-.071.402-.656 8.606-1.078 17.229-1.258 25.857-.092 4.405-.12 8.811-.085 13.216.036 4.573-.526 9.347 1.95 13.466 2.192 3.647 5.861 4.85 9.827 5.575.184.034.38.047.584.051.015 0 .028.003.082.0001.125 0 .239.015.371.003 8.421-.768 16.854-1.147 25.307-1.21.586.347 1.178.683 1.776 1.01.051.034.087.075.141.108 8.72 5.331 17.827 9.92 27.04 14.337 1.894.908 3.68.158 4.711-1.135.744-.676 1.137-1.664.859-2.879-.046-.316-.138-.623-.29-.915l-4.215-10.952h3.252c.189 0 .357-.03.531-.053 3.01.336 6.102.176 8.645-1.689 4.937-3.621 4.88-10.512 4.992-15.978.161-7.818-.104-15.649-.417-23.46-.172-4.294-.354-8.588-.503-12.883m-6.477 42.27c-.185 1.491-.644 2.885-1.692 3.957-1.917 1.389-4.96.513-7.143.459-1.882-.047-3.901 0-5.719 0-.5 0-.936.097-1.331.243-2.123.19-4.02 1.893-3.043 4.424 1.034 2.689 2.068 5.377 3.102 8.07-5.798-2.91-11.517-5.964-17.09-9.299-.2-.182-.419-.346-.67-.473-.838-.423-1.652-.889-2.461-1.364-.593-.706-1.472-1.191-2.677-1.187-8.896.031-17.767.42-26.626 1.229-.056.005-.102.023-.157.03-.087-.007-.163-.028-.253-.03-1.18-.023-2.083-.232-2.985-.765-.678-.401-1.318-1.327-1.652-2.263-.091-.254-.205-.494-.335-.722.039-.238.063-.487.057-.755-.366-15.443.051-30.86 1.227-46.26.741-3.238 2.641-4.476 6.146-4.533.067-.0001.124-.018.189-.022.076.004.142.022.22.022h16.385c7.826.009 15.623.65 23.442.707 3.971.029 7.922-.257 11.886-.413 2.616-.103 6.227-.508 8.514 1.104 2.708 1.908 2.055 6.188 2.148 9.06.141 4.332.29 8.664.408 12.997.118 4.334.197 8.669.198 13.01 0 2.207-.018 4.413-.066 6.619-.037 1.836.234 4.094-.023 6.165" fill="#1e1e1c"/></svg>