<svg xmlns="http://www.w3.org/2000/svg" viewBox="0 0 100 100" enable-background="new 0 0 100 100"><path d="m86.53 13.239c-.628-1.108-1.631-1.719-2.823-1.719-.67 0-1.346.196-1.906.542-.394.186-.728.419-1.021.712-17.813 17.807-32.967 32.58-48.903 46.694l-8.365-10.157c-.812-.986-1.717-1.193-2.332-1.193-.74 0-1.497.3-2.073.799l-.136.072c-4.532 2.914-8.77 5.359-12.955 7.474-1.115.563-1.765 1.536-1.795 2.681-.517 1.267-.215 2.602.817 3.589 3.744 3.582 7.225 7.541 10.592 11.37 3.681 4.187 7.487 8.516 11.664 12.385.148.139.311.265.494.386.621.829 1.491 1.302 2.399 1.302.646 0 1.279-.23 1.882-.685 11.676-8.81 22.09-18.754 29.864-26.433 2.281-2.255 4.572-4.506 6.865-6.759 8.03-7.891 16.334-16.05 24.19-24.333.43-.452.722-.976.868-1.557.688-1.066.656-2.318-.094-3.45-2.713-4.087-5.079-7.921-7.231-11.72m-.034 13.371c-5.786 6.04-11.85 12.01-17.715 17.798-3.097 3.052-6.191 6.104-9.259 9.174-8.76 8.768-18.331 18.02-28.99 26.303-3.485-3.404-6.76-7.118-9.93-10.713-2.473-2.804-5.03-5.697-7.673-8.441 2.392-1.305 4.819-2.726 7.391-4.327l8.678 10.535c.813.989 1.721 1.196 2.339 1.196.79 0 1.581-.333 2.236-.939.232-.132.44-.279.632-.448 17.04-14.93 33.405-30.952 48.565-46.07 1.097 1.821 2.322 3.771 3.726 5.933" fill="#1d1d1b"/></svg>