<svg xmlns="http://www.w3.org/2000/svg" viewBox="0 0 100 100" enable-background="new 0 0 100 100"><path fill="#1d1d1b" d="m87.78 79.88c-.034-.284-.139-.583-.339-.89-8.232-12.66-16.593-25.24-24.22-38.28-.006-.032-.003-.061-.009-.094-1.362-7.07-2.235-14.166-2.339-21.376-.002-.186-.026-.36-.064-.524.833-.046 1.667-.091 2.501-.139.056-.003.104-.018.158-.025.126.031.256.055.391.062 3.974.194 6.898-3.661 6.077-7.374-1.314-5.943-8.86-4.467-13.298-4.568-4.864-.11-15.181.021-15.272.012-3.693-.367-7.369-.961-11.08-.5-8.02.997-7.854 9.315-.474 11.381-.005.043-.017.08-.02.124-.429 6.935-.306 13.84.331 20.758.019.208.066.39.126.558-2.55 16.177-11.422 30.23-18.05 44.935-.04.054-.086.101-.119.161-1.521 2.745-1.909 5.742-.303 8.556.104.183.226.334.355.469.063.101.131.201.214.292 1.257 1.365 2.918 1.928 4.733 2.071.054.004.105-.005.158-.004.04.006.075.019.116.023 21.382 2.057 42.3-2.181 63.33-5.455.252-.039.465-.119.658-.214.062-.002.122.0001.185-.005 2.326-.222 4.335-1.516 5.689-3.39.136-.188.225-.377.294-.565.104-.148.2-.305.275-.476.742-1.702.621-3.569.083-5.308-.023-.075-.056-.145-.084-.217m-58.884-67.73c-.398-.617-.406-1.324-.263-2.036 3.764-.394 7.521-.419 11.291-.112.016.002.028.008.044.009 7.994.865 15.993 1.232 24.03 1.073.062-.0001.117-.016.176-.021.063.015.125.035.19.046.037.006.051.008.079.012.031.011.081.028.175.055.128.037.25.091.373.141.009.016.255.143.308.178.03.023.046.035.066.051.053.055.107.109.157.168.024.027.035.037.051.055.011.018.014.026.028.05.056.095.095.199.139.3-.0001.027.087.294.101.354.021.1.077.879.061.396.002.061.013.119.019.178-.02.068-.038.136-.061.203-.011.035-.102.219-.145.313-.047.075-.1.147-.153.218-.005-.007-.079.065-.15.136-.068.044-.214.148-.266.174-.035.018-.05.027-.073.039-.027.006-.049.001-.094.023-.132.036-.269.05-.404.068.003-.014-.362.003-.417.0001-.17-.032-.351-.049-.553-.037-10.563.603-21.13 1.19-31.603-.665-.178-.032-.345-.042-.503-.036-.962-.22-2.111-.567-2.605-1.334m2.685 39.36h8.091c2.601 0 2.601-4.03 0-4.03h-6.846c.58-2.068 1.084-4.165 1.483-6.301h6.118c2.601 0 2.601-4.03 0-4.03h-6.02c-.229-2.605-.362-5.209-.424-7.813h6.698c2.601 0 2.601-4.03 0-4.03h-6.726c.018-2.337.077-4.675.217-7.02 7.405 1.05 14.851.99 22.305.656 0 .003 0 .005 0 .008.106 7.407.941 14.715 2.313 21.988-.081.42-.017.889.271 1.381 1.775 3.041 3.594 6.05 5.438 9.05-10.634 5.927-22.812 8.67-34.59 4.752.593-1.524 1.156-3.059 1.674-4.61m52.06 32.38c-.024.03-.051.052-.074.083-.082.118-.168.233-.257.345-.022.023-.043.045-.075.078-.106.105-.215.205-.329.302.003-.002-.342.244-.353.264-.648.394-1.062.478-1.911.559-.228.022-.434.102-.626.207-.072.005-.141 0-.217.012-20.645 3.215-41.16 7.397-62.15 5.378-.059-.006-.111.002-.168 0-.036-.005-.07-.016-.106-.019-.222-.017-.442-.046-.662-.076.026-.001-.432-.113-.511-.139-.059-.021-.114-.047-.171-.071-.025-.016-.063-.039-.118-.071-.052-.035-.1-.074-.15-.112-.02-.022-.051-.055-.099-.104-.018-.018-.038-.032-.055-.049-.673-1.315-.629-2.552.115-3.895.085-.155.151-.316.206-.479.137-.163.264-.343.363-.562 3.883-8.636 8.417-17 12.1-25.677 12.923 4.499 26.572 1.472 38.24-5.066 5.498 8.796 11.21 17.458 16.866 26.16.021.031.045.054.066.083.311 1.015.485 1.867.079 2.853"/></svg>