<svg xmlns="http://www.w3.org/2000/svg" viewBox="0 0 100 100" enable-background="new 0 0 100 100"><path d="m82.12 67.16c-.844 0-1.592.328-2.106.93-.445.52-.689 1.206-.689 1.928 0 1.385.98 2.858 2.796 2.858.845 0 1.591-.33 2.108-.931.445-.52.689-1.203.689-1.928.003-1.384-.98-2.857-2.798-2.857"/><path d="m84.931 61.54c-.448.52-.692 1.203-.692 1.929 0 1.384.98 2.857 2.798 2.857.846 0 1.592-.33 2.106-.932.445-.518.691-1.203.691-1.925 0-1.386-.98-2.858-2.798-2.858-.846-.0001-1.594.328-2.105.929"/><path d="m84.17 53.54c-.446.518-.689 1.203-.689 1.926 0 1.386.979 2.859 2.797 2.859.845 0 1.592-.329 2.107-.931.445-.52.689-1.204.689-1.929 0-1.385-.979-2.856-2.797-2.856-.843.0001-1.591.33-2.107.931"/><path d="m81.47 60.836c0-1.385-.98-2.857-2.798-2.857-.844 0-1.591.328-2.107.931-.445.519-.689 1.204-.689 1.927 0 1.386.979 2.857 2.797 2.857.844 0 1.592-.328 2.107-.93.445-.52.69-1.204.69-1.928"/><path d="m48.18 67.44c.844 0 1.591-.329 2.107-.93.447-.52.69-1.204.69-1.928 0-1.386-.98-2.857-2.798-2.857-.844 0-1.591.328-2.107.93-.446.519-.691 1.203-.691 1.927.0001 1.386.981 2.858 2.799 2.858"/><path d="m52.786 52.85c.845 0 1.593-.331 2.107-.931.445-.517.691-1.2.691-1.926 0-1.385-.98-2.858-2.799-2.858-.845 0-1.591.331-2.106.931-.447.519-.691 1.202-.691 1.927.0001 1.385.982 2.857 2.798 2.857"/><path d="m52.05 55.622c-.445.52-.691 1.203-.691 1.928 0 1.385.98 2.857 2.798 2.857.846 0 1.592-.329 2.106-.931.447-.518.692-1.203.692-1.926 0-1.385-.981-2.857-2.799-2.857-.844-.002-1.592.328-2.106.929"/><path d="m41.43 67.68c.844 0 1.591-.328 2.107-.931.447-.518.692-1.203.692-1.926 0-1.386-.981-2.859-2.798-2.859-.844 0-1.591.329-2.107.931-.446.52-.691 1.205-.691 1.929-.0001 1.384.979 2.856 2.797 2.856"/><path d="m74.936 65.6c-.846 0-1.593.328-2.107.931-.445.518-.691 1.203-.691 1.927 0 1.385.981 2.858 2.799 2.858.844 0 1.591-.329 2.106-.931.446-.518.691-1.204.691-1.927 0-1.388-.982-2.858-2.798-2.858"/><path d="m79.87 55.21c.848 0 1.593-.329 2.107-.93.446-.519.692-1.204.692-1.927 0-1.385-.981-2.857-2.8-2.857-.844 0-1.591.331-2.106.931-.444.518-.69 1.201-.69 1.927 0 1.382.981 2.856 2.797 2.856"/><path d="m91.29 41.07c-5.313-8.642-12.668-15.853-22.366-19.337-10.2-3.667-19.62-2.036-27.636 2.738-.696-.603-1.429-1.348-2.137-2.261.584-2.38.228-4.431-1.029-5.827-1.238-1.378-3.175-2.2-5.181-2.2-2.165 0-3.742.576-4.923 2.147-.797 1.062-1.489 2.877-1.669 4.549-2.608.433-5.181 1.943-5.911 4.273-.697 2.228.324 4.824 2.598 6.215 2.464 1.507 7.07.364 7.401.285.069.043.741.442 1.268.786-2.492 2.726-5 5.781-6.567 8.352-.892-.343-3.282-1.6-5.429-4.37.584-2.38.227-4.43-1.029-5.827-1.238-1.377-3.175-2.199-5.182-2.199-2.165 0-3.742.576-4.923 2.147-.796 1.061-1.489 2.877-1.669 4.548-2.608.433-5.181 1.943-5.91 4.273-.697 2.227.323 4.823 2.598 6.214 2.463 1.508 7.08.364 7.4.286.11.067.233.142.364.218.413.246 1.38.821 1.533 1.029.046.125.045.129-.02.332-.205.638-.278 1.355.569 2.272.611.661 1.471 1.09 2.301 1.504.542.27 1.056.526 1.417.807.721.563 1.404 1.174 2.063 1.816-3.993 7.396-5.786 18.979.857 25.28 4.774 4.527 13.25 5.448 19.469 6.477 8.716 1.44 18.43 1.27 27.22.488 11.06-.985 24.565-3.057 30.594-13.213 5.991-10.09-.675-23.03-6.07-31.802m-64.41-12.984c-1.137 0-2.252-.462-2.08-1.521.236-1.445 2.237-2.137 4.117-1.715 1.115.251 2.944-.91 2.371-2.619-.696-1.578-.691-2.958.641-3.523 1.352-.572 2.345-.065 2.708.413.499.657.47 1.573-.094 2.974-.257.641-.216 1.323.113 1.899.152.414 2.01 1.872 2.603 2.443-.86.846-1.796 1.784-2.731 2.76-.783-.601-1.525-1.34-2.449-1.784-1.273-.612-4.378.673-5.199.673m-11.794 15.321c-.783-.601-1.525-1.34-2.449-1.784-1.274-.612-4.377.675-5.199.675-1.137 0-2.252-.463-2.08-1.522.236-1.447 2.238-2.137 4.118-1.715 1.115.251 2.943-.91 2.37-2.62-.695-1.578-.69-2.957.641-3.521 1.353-.573 2.346-.065 2.708.413.5.656.47 1.573-.093 2.974-.258.64-.217 1.324.112 1.899.153.414 2.01 1.871 2.604 2.443-.86.846-1.797 1.781-2.732 2.758m2.705 3.738l3.292-3.513c1.857 1.381 3.981 2.054 6.463 2.054 2.193 0 4.448-.511 6.568-1.036 5.366-1.324 9.746-1.708 13.5-1.193 3.522.482 8.134 2.064 10.11 6.86 1.984 4.833 1.161 10.214-2.15 14.04-3.4 3.931-8.379 5.823-13.05 4.915-3.519-.688-6.704-2.685-9.735-6.104-1.407-1.589-2.755-3.324-4.06-5-3.15-4.057-6.399-8.237-10.937-11.02m71.17 28.531c-7.163 4.695-19.717 6.317-28.21 6.652-12.743.504-33.09-1.475-38.542-6.843-2.344-2.309-4.04-10.424.024-18.303.921 1.13 1.805 2.295 2.677 3.445 2.913 3.84 5.923 7.812 10.216 10.411 2.968 1.799 6.352 2.747 9.785 2.747.0001 0 .0001 0 .002 0 6.593 0 12.504-3.391 15.811-9.07 2.72-4.674 3.203-10.418 1.297-15.371-1.783-4.62-5.349-7.987-10.04-9.479-3.834-1.218-8.237-1.383-14.12-.476-1.315.203-2.658.539-3.959.864-1.296.324-2.617.641-3.903.834 9.02-12.957 23.832-22.17 39.699-14.494 6.839 3.309 13.935 11.231 18.287 17.296 6.328 8.816 12.383 24.306.972 31.789"/></svg>