<svg xmlns="http://www.w3.org/2000/svg" viewBox="0 0 100 100" enable-background="new 0 0 100 100"><g fill="#1e1e1c"><path d="m80.76 19.534l.009-.185c.036-.768-.216-1.513-.674-1.993-.403-.422-.94-.637-1.596-.637h-11.03l-.005-.495c-.007-.665-.012-1.329-.013-1.994 0-.222-.029-.442-.092-.694l-.018-.072.003-.074c.039-.77-.212-1.518-.671-2-.403-.424-.941-.639-1.598-.639-2.083 0-4.167-.009-6.25-.018l-.489-.002-.011-.489c-.041-2.163-.181-3.969-.44-5.684-.165-1.094-1.32-1.748-2.342-1.748h-.141l-.122-.014-9.742-.005c-.723 0-1.319.271-1.725.785-.49.619-.668 1.537-.466 2.395l.035.148-.053.143c-.111.296-.167.592-.167.879v3.368l-.515-.016c-2.121-.065-4.241-.139-6.361-.242l-.105-.003c-.2 0-.398.028-.625.088l-.066.018h-.068c-1.185 0-2.427.747-2.444 2.388-.009.841-.042 1.68-.092 2.516l-.028.469h-.469c-3.638.001-7.533.076-11.362.489-.131.014-.249.048-.368.08l-.153.022c-1.195 0-2.389.737-2.389 2.385v9.449c0 .531.133.999.395 1.39l.084.126v.152c-.003 21.23-.077 40.4-.958 60.03-.011.239.013.476.076.745l.023.102-.018.102c-.119.655-.013 1.254.297 1.686.281.392.721.635 1.307.722 19.211 2.85 38.17 3.083 59.18 3.085 1.519 0 2.02-1.156 2.159-1.653l.032-.111.079-.087c.389-.427.586-.975.586-1.627v-71.62c0-.595-.162-1.104-.48-1.513l-.118-.146m-32.842-11.772h5.593l.024.475c.032.647.051 1.296.055 1.944l.003.508-1.816-.019c-1.123-.011-2.245-.022-3.367-.042l-.491-.009v-2.857zm-10.96 18.13c.177-1.344.346-4.6.482-7.215.063-1.214.118-2.276.162-2.918l.034-.486.487.021c8.287.355 16.476.413 24.09.422h.494l.005.494c.056 5.343.162 9.07.296 10.5l.054.57-.572-.023c-4.353-.178-8.782-.302-13.06-.422-3.998-.112-7.995-.224-11.992-.379l-.548-.021.072-.543m12.552 5.916c4.953.131 10.07.267 15.11.498l.13.003c.715 0 1.18-.272 1.49-.612.429-.177.8-.492 1.018-.915.022-.042.04-.085.058-.129.042-.101.083-.203.107-.313.046-.206.075-.412.106-.618.248-.333.383-.698.398-1.066.171-.029.343-.053.516-.072.16-.018.32-.03.481-.041.149-.001.298-.023.447-.03-.948 11.468-.927 29.2-1.083 40.701-4.02.0001-8.03.019-12.04.259-1.247.074-1.886 1.095-1.921 2.105-.041.152-.069.314-.079.488-.215 3.872-.243 7.75-.248 11.627-7.589-.097-15.175-.379-22.764-.449-.159-16.274.288-38.781-1.075-55.01h1 .503.501c-.125.803.076 1.655.543 2.241.411.516 1 .806 1.709.838 5.03.23 10.144.365 15.09.496m17.234 41.558c-2.906 3.157-5.84 6.287-8.744 9.447.007-3.095.044-6.189.18-9.281 2.853-.124 5.708-.16 8.564-.166m9.858 17.954h-.5c-18.868-.013-35.896-.217-53.22-2.596l-.451-.062.02-.455c.826-19.344.894-38.64.895-60.05 0-.531-.133-1-.395-1.391l-.084-.126v-5.624l.463-.034c3.08-.227 6.129-.269 8.442-.279l.569-.002-.071.567c-.022.177-.049 1.5-.071 2.564-.002.089-.003.166-.005.251h-.5-.5-2.202c-.25 0-.488.055-.71.145-1.153-.248-2.435.387-2.29 1.93 1.637 17.425 1.036 41.14 1.25 58.62.002.186.028.357.066.517.002 1.036.646 2.072 1.934 2.077 9.419.033 18.831.485 28.25.519.069 0 .129-.014.194-.019.567.134 1.19-.006 1.72-.589 3.966-4.357 8.03-8.611 12-12.968.231-.254.38-.525.467-.8.22-.309.36-.702.369-1.186.224-13.06.068-32.365 1.25-45.39.03-.334-.006-.625-.093-.874-.131-.906-.765-1.72-1.907-1.719-.903 0-1.801.016-2.696.079-.167.012-.333.026-.499.042s-.333.029-.499.049c-.025-1.025-.05-2.024-.072-2.278l-.047-.543h8.919v69.63"/><path d="m38.25 43.533c7.082.235 14.165.259 21.25.259 2.58 0 2.58-4.15 0-4.15-7.085 0-14.168-.024-21.25-.259-2.581-.085-2.573 4.065 0 4.15"/><path d="m59.75 48.46c-6.84-.241-13.67-.224-20.5.259-2.559.181-2.576 4.332 0 4.15 6.83-.484 13.66-.501 20.5-.259 2.581.091 2.572-4.059 0-4.15"/><path d="m59.5 58.836c-6.501.019-12.999.24-19.5.259-2.579.007-2.58 4.157 0 4.15 6.501-.019 12.999-.24 19.5-.259 2.579-.008 2.58-4.158 0-4.15"/></g></svg>