<svg xmlns="http://www.w3.org/2000/svg" viewBox="0 0 100 100" enable-background="new 0 0 100 100"><g fill="#1d1d1b"><path d="m79.1 19.274l.009-.185c.035-.768-.217-1.513-.675-1.994-.403-.422-.939-.636-1.596-.636h-11.03l-.005-.495c-.007-.664-.012-1.328-.013-1.994 0-.224-.029-.444-.092-.693l-.019-.073.004-.075c.038-.77-.213-1.518-.672-2-.403-.424-.94-.639-1.598-.639-2.084 0-4.168-.009-6.251-.018l-.489-.002-.009-.489c-.04-2.159-.18-3.965-.439-5.684-.166-1.094-1.32-1.748-2.342-1.748l-.14.003-.12-.013-9.744-.005c-.723 0-1.319.271-1.726.785-.489.62-.668 1.537-.465 2.394l.035.148-.054.143c-.109.295-.166.591-.166.879v3.368l-.516-.016c-2.12-.065-4.24-.139-6.36-.242l-.104-.002c-.201 0-.401.028-.628.088l-.066.018h-.068c-1.186 0-2.428.747-2.444 2.387-.009.842-.042 1.681-.093 2.517l-.028.469h-.47c-3.643.001-7.54.077-11.361.49-.127.014-.242.046-.357.076l-.163.025c-1.195 0-2.389.737-2.389 2.385v9.45c0 .531.133.999.394 1.389l.085.126v.152c-.003 21.23-.077 40.4-.959 60.02-.001.238.014.476.077.746l.023.101-.019.102c-.118.655-.013 1.254.298 1.687.28.392.72.634 1.306.722 19.212 2.849 38.17 3.082 59.18 3.084 1.519 0 2.02-1.156 2.159-1.653l.032-.111.078-.086c.389-.428.586-.976.586-1.628v-71.62c0-.595-.161-1.104-.48-1.513l-.114-.146m-32.843-11.773h5.593l.023.475c.033.648.052 1.296.056 1.945l.003.508-1.747-.018c-1.146-.011-2.292-.022-3.437-.042l-.491-.009v-2.859m-10.961 18.13c.178-1.348.348-4.611.483-7.233.062-1.207.117-2.261.161-2.899l.034-.486.486.021c8.294.356 16.48.414 24.09.422h.494l.005.494c.056 5.343.161 9.07.297 10.5l.054.57-.572-.023c-4.354-.178-8.784-.302-13.07-.421-3.997-.112-7.993-.224-11.989-.379l-.548-.021.071-.545m-4.247 4.581c.411.516 1 .805 1.708.837 5.03.23 10.144.366 15.09.497 4.953.131 10.07.267 15.11.498l.131.003c.715 0 1.181-.272 1.491-.612.429-.177.8-.492 1.018-.915.021-.042.04-.085.059-.129.042-.101.082-.203.107-.313.045-.205.075-.412.105-.618.248-.333.384-.698.397-1.067.171-.029.343-.054.516-.072.16-.018.32-.03.481-.041.148-.001.298-.023.447-.03-.948 11.468-.928 29.2-1.083 40.701-4.02.0001-8.03.019-12.04.259-1.247.074-1.886 1.095-1.922 2.105-.04.152-.068.314-.078.488-.216 3.872-.243 7.75-.248 11.627-7.589-.097-15.175-.379-22.764-.449-.159-16.274.288-38.781-1.075-55.01h1 .503.501c-.124.805.077 1.656.544 2.242m34.03 42.892c-2.906 3.157-5.84 6.287-8.744 9.447.008-3.095.045-6.189.181-9.281 2.853-.124 5.708-.159 8.563-.166m9.86 17.955h-.5c-18.861-.012-35.885-.215-53.22-2.596l-.45-.062.019-.455c.826-19.344.895-38.64.896-60.05 0-.532-.133-1-.396-1.391l-.085-.126v-5.624l.463-.034c3.087-.228 6.134-.269 8.443-.28l.569-.002-.071.567c-.022.176-.05 1.495-.071 2.555-.002.093-.004.173-.006.261h-.5-.5-2.2c-.25 0-.488.055-.71.145-1.153-.248-2.436.387-2.29 1.93 1.637 17.425 1.035 41.14 1.25 58.62.002.186.027.357.065.517.002 1.036.646 2.072 1.935 2.077 9.419.033 18.831.485 28.25.519.069 0 .129-.014.194-.019.566.134 1.189-.006 1.72-.588 3.966-4.357 8.03-8.611 12-12.968.231-.254.38-.525.467-.8.22-.309.36-.702.369-1.186.224-13.06.068-32.365 1.25-45.39.03-.334-.007-.625-.094-.874-.131-.906-.765-1.72-1.906-1.719-.903 0-1.801.016-2.696.079-.166.012-.332.026-.499.042-.166.016-.332.029-.498.049-.026-1.062-.051-2.024-.072-2.278l-.047-.543h8.919v69.63z"/><path d="m36.581 43.27c7.082.235 14.165.259 21.25.259 2.579 0 2.579-4.15 0-4.15-7.085 0-14.168-.024-21.25-.259-2.581-.085-2.573 4.065 0 4.15"/><path d="m58.08 48.2c-6.841-.241-13.67-.224-20.5.259-2.56.181-2.576 4.332 0 4.15 6.83-.484 13.659-.501 20.5-.259 2.581.091 2.572-4.059 0-4.15"/><path d="m57.831 58.58c-6.501.019-12.999.24-19.5.259-2.579.007-2.58 4.157 0 4.15 6.501-.019 12.999-.24 19.5-.259 2.579-.008 2.579-4.158 0-4.15"/></g></svg>