<svg xmlns="http://www.w3.org/2000/svg" viewBox="0 0 100 100" enable-background="new 0 0 100 100"><g fill="#1e1e1c"><path d="m81.27 19.534l.009-.185c.036-.768-.216-1.513-.674-1.993-.403-.422-.94-.637-1.596-.637h-11.03l-.005-.495c-.007-.665-.012-1.329-.013-1.994 0-.222-.029-.442-.092-.694l-.018-.072.003-.074c.039-.77-.212-1.517-.671-2-.403-.424-.941-.639-1.598-.639-2.083 0-4.167-.009-6.25-.018l-.489-.002-.011-.489c-.041-2.167-.181-3.973-.439-5.684-.166-1.094-1.321-1.748-2.342-1.748l-.141.002-.122-.014-9.742-.005c-.723 0-1.319.271-1.725.785-.49.619-.668 1.537-.466 2.395l.035.148-.053.143c-.11.296-.167.592-.167.879v3.368l-.515-.016c-2.121-.065-4.241-.139-6.361-.242l-.105-.003c-.2 0-.398.028-.625.088l-.066.018h-.068c-1.185 0-2.427.747-2.444 2.388-.009.841-.042 1.68-.092 2.516l-.028.469h-.469c-3.638.001-7.533.076-11.362.489-.131.014-.25.048-.37.08l-.151.022c-1.195 0-2.389.737-2.389 2.385v9.449c0 .531.133.999.395 1.39l.084.126v.152c-.003 21.23-.077 40.4-.958 60.02-.011.24.013.477.076.745l.023.102-.018.102c-.119.655-.013 1.254.297 1.686.281.392.721.635 1.307.722 19.211 2.85 38.17 3.083 59.18 3.085 1.519 0 2.02-1.156 2.159-1.653l.032-.111.079-.087c.389-.427.586-.975.586-1.627v-71.62c0-.595-.162-1.104-.48-1.513l-.119-.146m-32.842-11.772h5.593l.024.475c.032.647.051 1.296.055 1.944l.003.508-1.816-.019c-1.123-.011-2.245-.022-3.367-.042l-.491-.009v-2.857zm-10.96 18.13c.178-1.347.347-4.61.483-7.232.062-1.207.117-2.262.161-2.9l.034-.486.487.021c8.287.355 16.476.413 24.09.422h.494l.005.494c.033 3.092.114 8.568.297 10.5l.054.57-.572-.023c-4.353-.178-8.782-.302-13.06-.422-3.998-.112-7.996-.224-11.992-.379l-.548-.021.071-.544m39.644 65.43h-.5c-18.868-.013-35.896-.217-53.22-2.596l-.451-.062.02-.455c.827-19.364.895-38.652.895-60.05 0-.531-.133-1-.395-1.391l-.084-.126v-5.624l.463-.034c3.08-.227 6.129-.269 8.442-.279l.569-.002-.071.567c-.022.177-.049 1.5-.071 2.564-.036 1.731-.056 2.57-.084 2.777-.063.461-.046.916.051 1.351l.021.098-.018.1c-.15.825.056 1.712.537 2.316.411.516 1 .806 1.709.838 5.03.23 10.143.366 15.09.497 4.953.131 10.07.267 15.11.498l.13.003c.715 0 1.18-.272 1.49-.612.429-.177.8-.492 1.019-.915.021-.042.04-.085.058-.129.042-.101.083-.203.107-.313.045-.203.069-.408.101-.612.311-.414.469-.88.411-1.336-.047-.37-.083-1.739-.128-3.633-.026-1.107-.054-2.252-.078-2.526l-.047-.543h8.919v69.63"/><path d="m66.47 40.462c-.225.106-.415.24-.583.407-8.892 8.888-16.466 16.273-24.413 23.322l-4.047-4.915c-.47-.57-1-.69-1.366-.69-.413 0-.831.157-1.185.443l-.062.034c-2.268 1.46-4.393 2.686-6.5 3.75-.631.319-1 .869-1.037 1.52-.278.723-.1 1.478.486 2.037 1.876 1.795 3.624 3.783 5.315 5.706 1.857 2.112 3.779 4.298 5.891 6.254.08.074.162.138.245.195.359.459.857.721 1.381.721.38 0 .749-.133 1.097-.395 5.892-4.446 11.142-9.458 15.06-13.327 1.149-1.136 2.303-2.27 3.458-3.404 4.04-3.973 8.223-8.08 12.179-12.252.236-.249.399-.536.487-.854.381-.616.357-1.33-.071-1.975-1.364-2.053-2.552-3.978-3.631-5.884-.357-.63-.954-.991-1.638-.991-.38.0001-.765.112-1.063.298m.546 4.959c.482.794 1.013 1.638 1.609 2.558-2.873 2.992-5.878 5.955-8.788 8.823-1.555 1.533-3.109 3.065-4.65 4.607-4.356 4.359-9.109 8.955-14.398 13.09-1.691-1.666-3.286-3.476-4.832-5.229-1.176-1.334-2.388-2.708-3.644-4.02 1.059-.584 2.135-1.216 3.263-1.914l4.229 5.135c.471.573 1.01.693 1.369.693.452 0 .901-.185 1.273-.52.121-.07.231-.15.334-.241 8.496-7.441 16.661-15.426 24.23-22.977"/></g></svg>