<svg xmlns="http://www.w3.org/2000/svg" viewBox="0 0 100 100" enable-background="new 0 0 100 100"><g fill="#1d1d1b"><path d="m33.578 73.4c-4.285-8.206-7.843-16.767-12.314-24.879-.011-.02-.025-.034-.037-.053 4.835-8.311 8.07-17.362 12.1-26.07.615-1.328-.728-2.527-1.771-2.263-.012-.0001-.022-.005-.034-.006-3.514-.249-7.04-.27-10.555-.503-.673-.045-1.106.292-1.311.751-.184.115-.354.275-.493.498-5.441 8.716-10.505 17.667-16.334 26.14-.234.34-.294.673-.245.975-.049.302.011.635.245.975 5.829 8.469 10.893 17.42 16.335 26.14.139.223.309.384.493.498.205.46.638.796 1.311.751 3.515-.233 7.04-.253 10.555-.503.234-.017.439-.077.616-.168 1.01.001 2.062-1.085 1.44-2.276m-11.983-.101c-5.26-8.442-10.183-17.09-15.795-25.311 5.611-8.218 10.534-16.869 15.795-25.31 2.715.161 5.436.221 8.152.365-3.72 8.32-6.893 16.876-11.589 24.724-.446.745-.175 1.456.349 1.872.032.133.078.267.153.404 4.109 7.456 7.454 15.288 11.294 22.878-2.785.153-5.574.212-8.359.378"/><path d="m96.71 47.01c-5.829-8.469-10.892-17.42-16.335-26.14-.139-.223-.309-.384-.494-.498-.205-.46-.638-.796-1.311-.751-3.515.233-7.04.253-10.555.503-.012.0001-.022.005-.034.006-1.043-.264-2.386.935-1.771 2.263 4.03 8.706 7.264 17.756 12.1 26.07-.012.019-.026.033-.037.053-4.468 8.11-8.03 16.672-12.311 24.878-.622 1.191.432 2.287 1.439 2.278.178.091.382.151.616.168 3.514.249 7.04.27 10.555.503.673.045 1.106-.292 1.311-.751.185-.115.354-.275.494-.498 5.442-8.716 10.506-17.666 16.335-26.14.234-.34.294-.673.245-.975.048-.304-.012-.637-.246-.977m-18.766 26.29c-2.785-.166-5.574-.225-8.359-.378 3.84-7.591 7.185-15.423 11.294-22.878.075-.137.121-.271.153-.404.524-.416.795-1.127.349-1.872-4.696-7.848-7.869-16.404-11.589-24.724 2.716-.144 5.436-.204 8.152-.365 5.26 8.442 10.183 17.09 15.795 25.31-5.612 8.218-10.535 16.869-15.795 25.311"/><path d="m62.997 6.808c-.061-.008-.117-.022-.183-.024l-8.755-.294c-1.069-.036-1.605.809-1.592 1.648-2.799 10.681-5.12 21.487-7.426 32.28-2.317 10.853-4.649 21.705-7.319 32.478-.746 3.01-1.533 6.01-2.366 8.999-.348 1.248-.553 2.618-1.185 3.764-.608 1.103-1.479 2.994.655 3.054 3.635.103 7.263-.027 10.896-.165.076-.003.144-.018.214-.029.684.097 1.396-.209 1.625-1.079 6.836-25.914 12.267-52.25 17.252-78.57.236-1.251-.865-2.097-1.816-2.061m-18.2 78.59c-2.386.088-4.77.162-7.157.162 7.082-24.985 11.235-50.71 17.706-75.845l6.04.203c-4.81 25.291-10.06 50.575-16.587 75.48"/></g></svg>