<svg xmlns="http://www.w3.org/2000/svg" viewBox="0 0 100 100" enable-background="new 0 0 100 100"><path d="m73.61 33.779c-4.406 0-8.567 1.414-12.08 4.097-2.708-11.357-13.417-19.519-25.782-19.519-1 0-2.01.055-3.01.164-7.08.772-12.644 4.628-15.667 10.855-3.177 6.546-2.858 14.462.789 20.885-8.07-.155-14.292 5.138-15.356 13.09-.493 3.687.418 6.883 2.709 9.5 3.837 4.384 10.54 5.946 15.534 5.946 1.149 0 2.273-.078 3.267-.223.095.013.191.024.295.024 16.86 0 35.969 0 54.808-.259.184-.003.37-.025.564-.07.266.037.543.04.845-.012 6.255-1.087 11.246-4.607 14.05-9.913 3.164-5.979 3.212-13.611.13-20.415-3.836-8.466-12.313-14.155-21.09-14.155m-50.27 22.421c1.179.188 2.432-.568 2.888-1.718.368-.925.134-1.906-.626-2.624-5.274-4.98-7.05-12.04-4.647-18.418 2.261-5.992 7.639-9.711 14.386-9.949 11.857-.41 21.688 8.754 21.712 20.07.004 1.645 1.297 2.505 2.573 2.505 1.149 0 2.091-.636 2.433-1.631 3.222-3.599 7.285-5.5 11.755-5.5 6.984 0 13.626 4.761 16.529 11.847 2.171 5.3 2.058 10.822-.309 15.15-2.117 3.87-5.758 6.388-10.533 7.283-.118-.017-.243-.027-.395-.027-.0001 0-.002 0-.003 0-18.829.26-37.936.26-54.794.26-.182 0-.36.018-.542.055-.194-.012-.395-.008-.609.025-.993.16-2.02.241-3.057.241-5.733 0-12.446-2.507-12.497-9.57-.016-2.278.773-4.286 2.282-5.806 1.853-1.865 4.684-2.936 7.767-2.936 1.16 0 2.294.153 3.371.458.187.053.38.083.587.093.518.254 1.097.335 1.729.19" fill="#1d1d1b"/></svg>