<svg xmlns="http://www.w3.org/2000/svg" viewBox="0 0 100 100" enable-background="new 0 0 100 100"><g fill="#1e1e1c"><path d="m14.852 78.936c-.204-22.18.531-44.36-.354-66.53-.103-2.577-4.312-2.433-4.208.145.886 22.17.15 44.35.354 66.53.023 2.581 4.231 2.431 4.208-.145"/><path d="m36.604 12.371c-.103-2.577-4.312-2.434-4.208.145.886 22.17.149 44.35.354 66.53.024 2.582 4.232 2.431 4.209-.145-.205-22.18.53-44.36-.355-66.53"/><path d="m53.801 78.869c-.204-22.18.531-44.36-.354-66.53-.103-2.577-4.312-2.433-4.208.145.886 22.17.149 44.35.354 66.53.023 2.581 4.231 2.431 4.208-.145"/><path d="m45.23 78.923c-.364-22.17-.057-44.34-.907-66.51-.099-2.577-3.101-2.475-3 .103.85 22.17.543 44.34.907 66.51.042 2.581 3.044 2.472 3-.103"/><path d="m88.19 12.282c-.103-2.577-4.312-2.434-4.208.145.886 22.17.149 44.35.354 66.53.024 2.582 4.232 2.431 4.209-.145-.205-22.18.53-44.36-.355-66.53"/><path d="m76.06 12.459c.85 22.17.543 44.34.907 66.51.042 2.581 3.044 2.472 3-.103-.364-22.17-.057-44.34-.907-66.51-.099-2.577-3.101-2.476-3 .103"/><path d="m28.536 78.913c-.204-22.18.532-44.36-.354-66.53-.104-2.577-9.575-2.424-9.473.154.886 22.17.15 44.35.354 66.53.026 2.581 9.498 2.421 9.473-.154"/><path d="m71.7 78.84c-.204-22.18.531-44.36-.354-66.53-.103-2.577-13.785-2.417-13.683.161.886 22.17.15 44.35.354 66.53.024 2.582 13.707 2.415 13.683-.161"/><path d="m16.15 83.65c-3.142-1.686-7.292 9.36.022 8.763 2.01-.164 2.992-1.506 3.134-3.16.024-.284.024-.578 0-.876-.183-2.236-1.153-3.651-3.156-4.727m-.085 5.736c-.034.037-.071.072-.108.106-.003 0-.004.0001-.004.0001.028-.045-.039-.021-.076.0001-.023-.006-.045-.012-.084-.021-.228-.049-.33-.099-.49-.186-.373-.897-.217-1.677.274-2.379.453.663.64 1.416.604 2.273-.055.084-.124.199-.116.205"/><path d="m29.747 83.65c-3.141-1.686-7.292 9.36.022 8.763 2.01-.164 2.993-1.506 3.135-3.16.024-.284.023-.578-.0001-.876-.183-2.236-1.152-3.651-3.156-4.727m-.085 5.736c-.035.037-.072.072-.108.106-.004 0-.005.0001-.005.0001.029-.045-.038-.021-.076.0001-.023-.006-.045-.012-.084-.021-.228-.049-.33-.099-.49-.186-.373-.897-.217-1.677.274-2.379.453.663.64 1.416.605 2.273-.055.084-.125.199-.116.205"/><path d="m43.35 83.65c-3.142-1.686-7.293 9.36.022 8.763 2.01-.164 2.992-1.506 3.134-3.16.024-.284.024-.578 0-.876-.184-2.236-1.153-3.651-3.156-4.727m-.086 5.736c-.035.037-.071.072-.108.106-.003 0-.004.0001-.004.0001.028-.045-.039-.021-.077.0001-.023-.006-.045-.012-.084-.021-.228-.049-.329-.099-.49-.186-.373-.897-.216-1.677.275-2.379.452.663.64 1.416.604 2.273-.055.084-.125.199-.116.205"/><path d="m56.947 83.65c-3.142-1.686-7.293 9.36.022 8.763 2.01-.164 2.992-1.506 3.134-3.16.024-.284.024-.578 0-.876-.183-2.236-1.153-3.651-3.156-4.727m-.086 5.736c-.034.037-.071.072-.108.106-.003 0-.004.0001-.004.0001.028-.045-.039-.021-.076.0001-.024-.006-.045-.012-.084-.021-.228-.049-.33-.099-.49-.186-.373-.897-.217-1.677.274-2.379.453.663.64 1.416.604 2.273-.054.084-.123.199-.116.205"/><path d="m70.55 83.65c-3.141-1.686-7.292 9.36.022 8.763 2.01-.164 2.993-1.506 3.135-3.16.024-.284.023-.578-.0001-.876-.183-2.236-1.152-3.651-3.156-4.727m-.086 5.736c-.034.037-.071.072-.107.106-.004 0-.005.0001-.005.0001.029-.045-.038-.021-.076.0001-.023-.006-.045-.012-.084-.021-.228-.049-.33-.099-.49-.186-.373-.897-.217-1.677.274-2.379.453.663.64 1.416.605 2.273-.056.084-.125.199-.117.205"/><path d="m84.15 83.65c-3.142-1.686-7.293 9.36.022 8.763 2.01-.164 2.992-1.506 3.134-3.16.024-.284.024-.578-.0001-.876-.183-2.236-1.152-3.651-3.155-4.727m-.085 5.736c-.035.037-.071.072-.108.106-.003 0-.004.0001-.004.0001.028-.045-.039-.021-.077.0001-.023-.006-.045-.012-.084-.021-.228-.049-.329-.099-.49-.186-.373-.897-.216-1.677.275-2.379.452.663.64 1.416.604 2.273-.055.084-.125.199-.116.205"/></g></svg>