<svg xmlns="http://www.w3.org/2000/svg" viewBox="0 0 100 100" enable-background="new 0 0 100 100"><g fill="#1d1d1b"><path d="m92.11 13.676c-.316-.76-.971-1.233-1.795-1.299-1.191-.092-2.344-.065-3.636.07-1.825-5.499-6.156-8.643-11.942-8.643-.708 0-1.443.047-2.185.14-.388.048-.741.201-1.029.443-.312.153-.568.392-.764.708-.432.705-1 1.352-1.836 2.082-.013 0-.019 0-.026 0-2.852.11-5.703.249-8.554.387-6.246.303-12.706.617-19.05.617-3.483 0-6.658-.092-9.7-.281-1.195-1.193-2.38-2.353-3.666-3.436-.622-.524-1.472-.656-2.139-.327-6.417-.637-11.1 2.261-12.964 8.01-.037.053-.071.107-.099.165-.113.236-.215.475-.304.712-1.464.054-2.916.059-4.396.059-.402 0-.767.1-1.084.297-.937.227-1.531.988-1.524 1.964.013 2.086.212 4.151.592 6.137.034.176.09.342.169.505-.012.569.183 1.109.542 1.501.371.402.88.615 1.484.615l2.898-.002c.003.013.006.025.009.038 5.822 24.666 11.291 46.841 19.257 68.39-.068.591.095 1.206.448 1.671.358.472.894.762 1.506.817 6.114.558 12.11.841 17.831.841 8.103 0 16.03-.569 23.564-1.69.021-.003.041-.007.062-.012 1.036.136 1.96-.444 2.249-1.451 4.69-16.334 6.783-33.409 8.807-49.922.763-6.218 1.55-12.643 2.466-18.943 1.241-.082 2.481-.169 3.722-.268.143-.011.273-.038.328-.054.585 0 1.138-.22 1.517-.602.365-.369.555-.863.549-1.43-.025-2.657-.407-5.154-1.134-7.42-.048-.154-.115-.304-.168-.387m-23.17-6v.002c0 0 0 0 0 0v-.002m-43.22.215c.136.019.265.023.394.014.926.826 1.918 1.771 3.103 2.956.257.256.553.425.88.503.265.164.562.257.883.278 3.216.213 6.578.316 10.278.316 6.369 0 12.836-.315 19.09-.619 2.862-.14 5.726-.279 8.59-.39.11-.004.219-.018.328-.041.553.089 1.154-.083 1.641-.476 1.094-.883 1.974-1.803 2.684-2.806 4.529-.31 7.674 1.433 9.218 5.203-11.894.649-24.361.978-37.07.978-9.421 0-19.28-.18-29.32-.537 1.317-4.149 4.605-6.04 9.299-5.379m46.68 82.28c-6.946 1.017-14.325 1.532-21.938 1.532-5.161 0-10.62-.236-16.232-.703-1.37-3.718-2.66-7.453-3.895-11.211 15.21.734 30.662 2.047 45.21-2.946-.905 4.479-1.929 8.933-3.149 13.328m8.398-48.42c-1.235 10.06-2.499 20.333-4.355 30.506-15.212 5.851-31.446 4.209-47.41 3.475-4.03-12.761-7.438-25.855-10.791-39.669 21.01 2.291 42.637 3.795 63.39-1.028-.283 2.255-.561 4.501-.833 6.716m1.375-10.944c-21.07 5.24-43.16 3.538-64.51 1.195-.145-.016-.279-.014-.407-.004-.625-2.604-1.249-5.229-1.877-7.889 6.54.039 13.178.157 19.604.271 7.86.14 15.987.284 23.98.284 9.01 0 16.91-.189 24.12-.576-.317 2.231-.617 4.475-.91 6.719m-23.2-10.305c-7.978 0-16.09-.145-23.944-.284-7.854-.14-15.977-.284-23.965-.284l-1.118.0001c-.145-.854-.245-1.743-.306-2.695 1.578-.009 3.248-.043 4.919-.172.164-.012.329-.044.491-.094 1.01-.309 2.939-.151 4.709.055.812.094 1.578.184 2.222.203 2.405.071 4.812.13 7.217.181 4.737.099 9.542.157 14.279.171l2.286.003c9.01 0 17.965-.167 26.608-.495.29-.011 1.138-.057 2.308-.121 3.65-.2 10.445-.572 13.159-.572.386 0 .623.008.77.017.259 1.026.436 2.055.535 3.124-8.949.655-18.553.962-30.17.962"/><path d="m57.31 62.21c-1.781-1.281-3.993-1.778-5.95-1.339-.086.02-.167.043-.245.069-.123-.063-.223-.22-.338-.702.002-.067.002-.136-.006-.209-.482-4.464-5.153-8.684-9.61-8.684-1.768 0-3.378.68-4.658 1.968-4.311 4.336.435 10.244 2.222 12.469 2.87 3.571 6.655 6.416 11.252 8.454 1.223.543 2.516.829 3.737.829 3.298 0 5.855-2.026 6.674-5.287.69-2.755-.517-5.725-3.078-7.568m-.955 6.124c-.007.211-.03.405-.047.534l-.064.238c-.022.069-.035.139-.039.192-.276.987-.966 1.551-2.163 1.766-.045-.017-.091-.031-.138-.043-6.707-1.701-11.805-6.05-15.15-12.915.032-.639.258-1.157.709-1.627.033-.035.061-.071.057-.077l.113-.094c1.041-.999 2.139-1.057 3.584-.215.153.151.316.271.497.368 1.742.924 2.709 2.16 2.876 3.674.004.041.012.08.022.129-.025.235-.013.472.038.706.609 2.764 2.529 4.42 5.078 4.211.35-.028.688-.13.985-.295.25-.032.499-.046.75.002.436.083.722.287.889.445.038.036.072.055.074.057l1.952 1.97c.032.152.052.303.062.462-.049.176-.076.344-.082.512"/><path d="m47.26 42.877c-.034.044-.061.088-.077.121l-.095.114c-1.974 2.81-1.717 6.229.673 8.924.1.111.21.212.333.304 1.969 2.535 4.672 3.8 7.756 3.677.062-.003.117-.011.199-.024.51.045.678.118.756.225-.014.081-.024.165-.031.252-.159 2.289.702 4.345 2.37 5.643.044.033.088.06.119.073l.092.08c1.803 1.364 3.384 2.273 5.241 2.273.784 0 1.555-.164 2.355-.502 1.789-.755 3.063-2.073 3.686-3.813.731-2.049.484-4.571-.663-6.747-2.133-4.04-5.597-7.657-9.505-9.914-2.408-1.39-5.069-2.544-7.493-3.249-.305-.089-.627-.11-.916-.067-.153-.008-.315-.002-.49.026-1.745.3-3.236 1.202-4.31 2.604m8.109 9.489v-.002.002c0 0 0 0 0 0m-5.05-6.664c.496-.608 1.396-.735 2.064-.735.862 0 1.864.213 2.75.585 1.054.443 2.049.94 2.958 1.477 2.055 1.212 3.81 2.645 5.218 4.258l.157.18c1.396 1.598 2.979 3.409 3.497 5.407.317 1.225-.167 2.562-1.152 3.179-.808.508-1.792.419-2.716-.264-.175-.129-.366-.249-.56-.37-.28-.176-.545-.342-.747-.534-.607-.578-.648-1.341-.696-2.224-.038-.707-.077-1.438-.412-2.146-.741-1.566-2.433-2.582-4.526-2.717l-.136-.004c-.19 0-.381.024-.564.074-.032-.003-.069-.008-.131-.002l-.151.003c-2.187 0-4.735-1.976-5.146-3.989-.197-.965-.098-1.698.293-2.178"/></g></svg>