<svg xmlns="http://www.w3.org/2000/svg" viewBox="0 0 100 100" enable-background="new 0 0 100 100"><g fill="#1e1e1c"><path d="m75.82 42.527c.055-1.179.103-2.357.173-3.536.04-.7-.178-1.234-.529-1.621-1.277-3.216-4.962-5.204-8.02-6.38-7.108-2.734-15.06-3.091-22.593-2.912-.329.008-.616.076-.879.171-6.366-.206-13.05.053-19.01 2.328-3.426 1.308-7.347 3.982-7.01 8.143.054.674.217 1.3.451 1.888.939 14.809-.042 29.624-.326 44.44-.154.429-.157.939.078 1.517 5.883 14.386 46.22 13.12 56.39 2.056.399-.434.603-.908.655-1.377.341-.385.561-.903.55-1.573-.074-4.599-.16-9.198-.226-13.797 7.756-1.489 14.06-7.03 13.912-15.349-.136-7.831-6.637-12.572-13.613-14m-51.949-5.258c1.081-1.133 2.802-1.681 4.246-2.147 10.469-3.375 24.43-2.811 34.988.032 2.327.627 6.672 1.998 7.466 4.361.12.363.074.501-.578 1.184-1.082 1.133-2.803 1.681-4.246 2.147-.131.042-.268.077-.399.118-11.755-6.908-25.733-7.578-38.09-1.723-.147.07-.274.151-.392.236-1.646-.739-3.141-1.733-3.575-3.02-.12-.363-.073-.501.579-1.184m34.34 7.29c-7.994 1.181-16.748.664-24.427-1.016 8.06-2.625 16.629-2.177 24.427 1.016m-35.26 40.889c0-.007.002-.013.002-.02.242-13.255 1.067-26.507.594-39.755.959.517 1.943.949 2.871 1.306 7.108 2.734 15.06 3.091 22.593 2.912.329-.008.615-.076.879-.171 6.366.206 13.05-.052 19.01-2.328.617-.235 1.249-.517 1.87-.841-.435 12.945-.124 25.897.087 38.849-7.396 7.766-43.499 10.462-47.902.048m52.51-18.572c-.061-6.492-.036-12.984.165-19.474 4.562 1.056 8.467 4.065 8.917 9.125.505 5.69-4.193 9.06-9.08 10.349"/><path d="m38.532 17.688c.039.032.079.051.118.08 1.259 1.797 1.381 3.444-.573 4.899-1.01.748-1.514 1.976-.825 3.15.581.992 2.141 1.577 3.149.826 3.902-2.906 5.112-7.363 2.054-11.439-.061-.081-.128-.152-.194-.226-.121-.189-.267-.374-.473-.547-3.121-2.614-2.832-5.04 0-7.795 2.133-2.072-1.126-5.326-3.256-3.256-4.51 4.384-5.03 10.09 0 14.308"/><path d="m55.11 17.688c.039.032.08.051.118.08 1.259 1.797 1.382 3.444-.573 4.899-1 .748-1.514 1.976-.825 3.15.581.992 2.141 1.577 3.149.826 3.902-2.906 5.112-7.363 2.055-11.439-.062-.081-.129-.152-.195-.226-.121-.189-.267-.374-.473-.547-3.12-2.614-2.832-5.04 0-7.795 2.133-2.072-1.126-5.326-3.256-3.256-4.509 4.384-5.03 10.09 0 14.308"/></g></svg>