<svg xmlns="http://www.w3.org/2000/svg" viewBox="0 0 100 100" enable-background="new 0 0 100 100"><g fill="#1d1d1b"><path d="m50.701 66.72c1.154 0 2.305-.083 3.42-.247 5.343-.784 10.325-3.941 13.328-8.445 2.562-3.844 3.383-8.283 2.31-12.501-1.896-7.453-8.799-12.268-17.587-12.268-2.034 0-4.046.264-5.981.786-.262.02-.507.069-.748.152-.539.187-1.091.403-1.664.652-.8.321-1.548.675-2.224 1.05-.179.099-.349.218-.516.36-6.315 3.844-9.37 10.125-8.383 17.248 1.266 9.127 9.975 13.213 18.05 13.213m-6.077-25.735c2.293-1.229 4.879-1.878 7.479-1.878 4.792 0 10.512 2.358 12.195 8.976.578 2.271.131 4.447-1.328 6.47-2.709 3.757-8.32 6.085-12.224 6.367-.396.028-.784.042-1.161.042-6.259 0-9.506-3.846-10.458-7.444-1.076-4.07.213-9.528 5.497-12.533"/><path d="m95.67 37.476c-.781-2.405-1.563-4.81-2.306-7.227-.093-.302-.229-.588-.412-.867l-.0001-.004c-.327-1.372-1.353-2.321-2.702-2.519-.202-.091-.41-.155-.621-.191-2.861-.507-5.655-1.142-8.723-1.858-.078-2.512-.16-5.02-.251-7.535-.008-.205-.041-.41-.1-.625-.101-.737-.515-1.372-1.174-1.795-4.55-2.92-9.33-5.173-14.206-6.695-.587-.185-1.182-.164-1.717.052-.442.096-.844.305-1.198.622-.854.77-1.7 1.548-2.536 2.335-1.518-1.822-3.088-3.744-4.563-5.714-.128-.169-.278-.324-.447-.462-.778-1.109-2.104-1.605-3.463-1.279-.002.0001-.005.0001-.008.002-.299-.036-.616-.035-.958.023-2.493.425-4.992.812-7.491 1.197-4.152.641-8.445 1.304-12.647 2.147-1.409.282-2.375 1.286-2.57 2.648-.151.286-.256.582-.321.899l-.229 1.12c-.42 2.049-.853 4.159-1.186 6.277-3.02-.144-6.152-.379-9.54-.716-1.398-.145-2.445.725-2.67 2.033-.021.043-.042.088-.061.136-1.941 4.866-4.308 9.373-6.366 13.14-.536.979-.426 2.092.277 2.939.083.161.176.308.283.443 1.27 1.606 2.581 3.327 3.993 5.24-1.848 1.311-3.631 2.723-5.362 4.095l-.971.768c-.254.201-.47.429-.657.69-1.128.788-1.589 2.104-1.207 3.488 1.143 4.133 2.486 8.266 3.785 12.263.781 2.403 1.562 4.807 2.306 7.222.093.303.228.588.411.866v.004c.326 1.373 1.353 2.323 2.703 2.519.2.09.407.154.62.192 2.668.473 5.351 1.074 8.08 1.71-.065.903-.129 1.808-.192 2.711-.144 2.049-.287 4.098-.461 6.145-.091 1.068.401 1.966 1.322 2.421.063.045.128.086.194.121 4.358 2.322 8.835 4.135 13.306 5.386.175.048.354.08.535.094.568.09 1.168-.042 1.708-.39 1.435-.93 2.864-1.868 4.292-2.806l.666-.438c1.733 2.076 3.419 4.128 5.01 6.255.128.17.279.326.45.466.617.88 1.562 1.381 2.621 1.381.277 0 .562-.034.843-.102.002-.0001.004-.0001.006-.002.301.036.617.035.96-.023 2.493-.425 4.992-.812 7.491-1.197 4.152-.642 8.445-1.305 12.647-2.147 1.409-.282 2.375-1.287 2.57-2.649.151-.286.256-.582.32-.898l.23-1.126c.399-1.948.811-3.954 1.137-5.966 2.873.355 5.616.427 8.237.22.391-.031.76-.142 1.099-.327.34-.152.643-.386.902-.694 3.03-3.622 6.756-8.538 8.731-14.463.195-.585.187-1.173-.021-1.711-.099-.461-.322-.878-.666-1.239-1.658-1.75-3.03-3.491-4.162-5.3 1.855-1.314 3.644-2.731 5.381-4.107l.961-.761c.254-.201.471-.429.658-.692 1.127-.788 1.589-2.104 1.207-3.487-1.14-4.133-2.483-8.264-3.782-12.259m-68.947 33.552c-.263-1.174-1.12-2.01-2.371-2.301-2.848-.666-5.642-1.308-8.456-1.828-.622-1.99-1.263-3.973-1.904-5.956-1.097-3.391-2.228-6.89-3.238-10.37l.444-.354c1.744-1.389 3.547-2.825 5.423-4.067 1.291-.854 1.841-2.323 1.458-3.812.145-.637-.004-1.31-.429-1.896-1.68-2.324-3.383-4.597-5.068-6.761 2.182-4.07 3.882-7.584 5.299-10.957 3.275.299 6.304.498 9.232.609.488.252 1.048.384 1.637.384 1.553 0 3.338-.975 3.591-3.112.263-2.228.731-4.479 1.184-6.655l.119-.575c3.571-.669 7.215-1.237 10.745-1.787 2.05-.32 4.099-.64 6.146-.979 1.735 2.279 3.566 4.483 5.443 6.725.637.759 1.482 1.177 2.382 1.177.86 0 1.735-.387 2.346-1.01.063-.05.125-.102.183-.161 1.302-1.33 2.693-2.616 3.942-3.75 3.601 1.228 7.169 2.915 10.624 5.02.114 3.158.227 6.315.312 9.475.023.848.409 1.588 1.068 2.066.436.568 1.062.96 1.826 1.139 2.846.666 5.638 1.307 8.456 1.829.62 1.982 1.258 3.958 1.897 5.934 1.099 3.397 2.233 6.904 3.245 10.392l-.456.362c-1.741 1.387-3.541 2.82-5.411 4.06-.967.64-1.534 1.645-1.571 2.773-.134.575-.066 1.169.198 1.726 1.355 2.847 3.197 5.56 5.624 8.277-1.325 3.42-3.393 6.756-6.624 10.688-2.583.113-5.198-.048-7.844-.476-.546-.356-1.219-.55-1.924-.55-1.547 0-3.328.972-3.579 3.106-.262 2.225-.73 4.475-1.183 6.649l-.12.581c-3.57.668-7.211 1.236-10.74 1.786-2.051.32-4.103.641-6.151.98-1.737-2.282-3.567-4.484-5.443-6.724-.251-.301-.547-.553-.88-.75-.813-.703-1.955-.777-2.9-.166-1.351.874-2.696 1.758-4.04 2.642-1.053.692-2.106 1.384-3.162 2.071-3.364-1.01-6.68-2.335-9.87-3.946.109-1.414.207-2.829.305-4.245.138-1.997.276-3.994.447-5.988.038-.456-.033-.884-.211-1.276m-12.195-51.24c0 0 0 0 0 0l-.003-.0001.003.0001"/></g></svg>