<svg xmlns="http://www.w3.org/2000/svg" viewBox="0 0 100 100" enable-background="new 0 0 100 100"><g fill="#1e1e1c"><path d="m90.61 17.561c-2.869-1.204-5.974-1.997-9-2.694-6.01-1.383-12.3-1.335-18.319.039-.892.203-1.781.449-2.665.727.677.791 1.096 1.598 1.224 2.423.117.754.161 1.531.18 2.315 8.459-2.675 17.577-1.974 25.825 1.504-7.611 4.525-17.644 4.309-25.867.869-.051.933-.12 1.868-.198 2.793-.071.835-.13 1.624-.174 2.39 9.5 3.483 20.619 2.966 29.23-2.243-.039 1.342-.062 2.684-.094 4.03-8.997 4.993-19.882 5.602-29.23 1.503-.035 1.75-.066 3.503-.092 5.259 9.406 3.511 20.06 3.041 29.21-1.199-.026 1.557-.032 3.115-.05 4.672-9.357 4.456-19.57 3.48-29.21.584-.011.912-.018 1.827-.026 2.741.302-.054.602-.111.907-.154 1.175-.168 2.368-.253 3.547-.253 5.384 0 10.463 1.762 14.693 4.781 3.392-.33 6.749-1.082 10.03-2.364-.009 1.195-.007 2.391-.014 3.586-1.768 1.177-3.605 2.12-5.484 2.862 1.112 1.255 2.118 2.617 2.995 4.075.832-.368 1.657-.76 2.468-1.203-.005 1.703-.02 3.406-.02 5.109 0 .131-.122.29-.314.463.573 1.493 1.023 3.052 1.338 4.664 1.016-.633 2.01-1.293 2.914-2 .561-.436.806-.948.841-1.458.071-.233.122-.482.122-.765 0-10.216.016-20.438.249-30.655.06-2.635.661-5.794.25-8.386-.281-1.775-3.898-3.438-5.265-4.01"/><path d="m40.29 72.25c-.057.011-.112.026-.169.037-1.955.36-3.947.581-5.946.654-.484.018-.969.026-1.454.026-2.625 0-5.249-.261-7.806-.806-2.175-.464-4.306-1.161-6.332-2.094-.855-.394-6.072-2.683-6.073-3.675 0-2.125-.02-4.25-.025-6.375 6.67 3.261 13.847 5.03 20.969 5.03 2.411 0 4.814-.214 7.192-.63.452-2.404 1.217-4.705 2.252-6.851-3.149.886-6.37 1.332-9.606 1.332-6.857 0-13.771-1.918-20.16-5.453-.227-.125-.451-.215-.673-.28-.011-2.02-.008-4.04-.024-6.05 7.646 2.633 15.562 4.341 23.406 4.341 4.273 0 8.524-.516 12.702-1.655 1.222-1.161 2.557-2.202 3.988-3.104 2.08-1.309 4.368-2.318 6.814-2.973.012-1.272.021-2.544.036-3.815.017-1.413.042-2.826.063-4.24.028-1.801.057-3.601.095-5.402.001-.445.014-.891.023-1.336.013-.576.05-1.176.093-1.784.121-1.72.313-3.535.37-5.296.009-.26.017-.519.019-.776.005-.934-.039-1.844-.173-2.704-.107-.694-.612-1.374-1.308-2-1.542-1.399-4.02-2.548-5.184-3.046-3.539-1.516-7.367-2.515-11.1-3.392-3.648-.857-7.38-1.278-11.11-1.278-3.853 0-7.708.448-11.479 1.327-4.264.994-8.5 2.735-12.329 4.893-1.232.694-1.613 1.831-1.448 2.912-.036.212-.058.435-.049.679.574 16.352.604 32.712.604 49.07 0 .357.062.671.151.964.043.642.346 1.287 1.036 1.836 7.116 5.658 16.611 8.871 25.92 8.871 2.701 0 5.384-.281 7.99-.841-.502-1.532-.88-3.126-1.115-4.77-.062-.449-.114-.896-.157-1.342m-9.04-57.45c6.358 0 12.729 1.371 18.728 3.954-4.892 2.97-10.598 4.322-16.374 4.322-6.612 0-13.317-1.77-19.01-4.909 5.359-2.283 11-3.367 16.656-3.367m-19.2 9.04c6.367 3.506 13.698 5.343 20.983 5.343 6.671 0 13.294-1.561 19.11-4.769.51-.281 1.024-.554 1.521-.861-.049 1.69-.077 3.38-.116 5.07-.417.236-.846.445-1.269.666-5.863 3.057-12.309 4.635-18.753 4.635-7.304 0-14.595-2-21.01-6.086-.129-.082-.257-.134-.385-.194-.029-1.268-.048-2.536-.083-3.804m.244 10.98c6.591 3.532 13.906 5.269 21.23 5.269 6.454 0 12.911-1.366 18.89-4.02.331-.147.666-.281.994-.437-.032 1.961-.039 3.922-.062 5.883-.282.137-.567.252-.851.381-5.357 2.441-10.931 3.461-16.547 3.461-7.943 0-15.97-2-23.591-4.775-.023-1.917-.03-3.837-.062-5.757"/><path d="m89.32 66.09c-.171-.748-.37-1.483-.599-2.206-.253-.797-.538-1.576-.855-2.337-.694-1.665-1.524-3.249-2.498-4.712-.997-1.498-2.138-2.866-3.378-4.107-2.058-2.06-4.41-3.731-6.954-4.918-2.771-1.294-5.755-2.029-8.82-2.029-1.079 0-2.171.086-3.258.254-.369.057-.737.124-1.104.2-.181.038-.357.084-.536.126-.337.079-.671.164-1 .257-.338.095-.673.196-1 .305-.644.213-1.277.449-1.895.715-1.465.631-2.85 1.409-4.145 2.308-.244.169-.484.341-.721.519-.096.072-.189.146-.283.219-.342.264-.675.538-1 .819-.177.153-.355.303-.528.461-.829.755-1.604 1.566-2.325 2.424-.453.54-.882 1.101-1.289 1.678-1.658 2.346-2.92 4.977-3.705 7.767-.104.367-.198.736-.284 1.108-.083.355-.158.712-.225 1.071-.002.008-.003.016-.005.023-.219 1.185-.351 2.392-.393 3.611-.012.347-.017.694-.013 1.042.003.343.012.687.03 1.031.037.711.102 1.425.204 2.14.196 1.372.515 2.699.916 3.986.1.321.207.636.319.951.112.316.232.629.356.939 3.659 9.133 12.332 15.486 22.11 15.486 1.079 0 2.17-.077 3.244-.231 5.41-.773 12.778-5.244 16.09-9.762 3.715-5.071 5.05-11.531 3.772-18.19-.059-.322-.147-.632-.22-.948m-40.38-3c.182-.453.377-.898.59-1.335.804-1.644 1.823-3.17 3.03-4.534 1.853-2.096 4.127-3.811 6.722-4.943.327-.142.667-.257 1-.381.331-.122.661-.246 1-.35.257-.078.521-.138.783-.205.268-.068.528-.153.801-.21 1.115-.232 2.24-.35 3.345-.35 3.477 0 6.591 1.127 9.246 2.935 1.782 1.213 3.352 2.735 4.677 4.448 1.275 1.647 2.329 3.459 3.12 5.34.619 1.474 1.086 2.983 1.374 4.477.013.066.017.131.028.197.953 5.207-.076 10.205-2.924 14.09-2.545 3.474-8.628 7.176-12.763 7.768-.84.12-1.692.181-2.535.181-7.661 0-14.474-4.987-17.419-12.185-.126-.308-.241-.621-.353-.936-.111-.315-.213-.634-.31-.956-.29-.97-.527-1.965-.675-2.994-.157-1.095-.199-2.186-.168-3.267.011-.379.035-.756.067-1.131.034-.387.062-.775.118-1.157.164-1.109.433-2.192.776-3.247.142-.426.3-.843.467-1.258"/><path d="m57.07 65.21c.428 1.211 1.158 2.292 2.075 3.106.279.247.576.462.885.655.295.184.601.344.917.472.062.025.122.059.185.082 1.116.404 2.277.657 3.385.861.075 2.239.13 4.566.168 7.08-1.22-.673-2.41-1.579-3.227-2.469-.454-.495-1.023-.757-1.646-.757-.929 0-1.847.612-2.231 1.488-.356.811-.201 1.666.425 2.349 1.69 1.842 4.182 3.469 6.721 4.399l.005.751c-.004.648.222 1.219.651 1.651.454.456 1.103.717 1.78.717 1.049 0 2.181-.67 2.189-2.144l-.0001-.143c1.948-.062 3.602-.708 4.918-1.925 2.286-2.111 3.705-5.121 3.613-7.666-.054-1.503-.627-2.833-1.658-3.896-.191-.197-.392-.387-.614-.565-1.973-1.576-4.337-2.274-6.63-2.764-.025-.654-.055-1.308-.081-1.963-.043-1.049-.085-2.097-.131-3.146.786.208 1.545.478 2.224.791 1.297.599 2.623-.15 2.934-1.56.142-.643.039-1.395-.39-1.998-.224-.314-.531-.59-.95-.783-1.207-.557-2.591-.981-4.03-1.235v-.021c-.065-1.518-1.348-2.336-2.521-2.336-.626 0-1.184.222-1.569.624-.373.391-.557.921-.53 1.531l.002.034c-.483.056-.944.144-1.392.248-.445.104-.875.228-1.281.379-.351.13-.682.282-1 .447-.352.181-.689.378-1 .599-.439.311-.839.66-1.193 1.048-.207.227-.383.473-.545.727-.836 1.309-1.086 2.955-.668 4.649.056.236.132.461.211.686m16.247 8.896c-.002 1.448-1.384 3.311-2.334 3.956-.478.324-1.037.523-1.668.596-.03-2.573-.082-4.998-.157-7.376 1.433.379 2.526.854 3.485 1.508.455.31.675.74.674 1.316m-8.987-8.517c-.312-.067-.622-.139-.928-.216-1.077-.27-1.935-1.139-2.037-2.068-.042-.377.055-.718.268-1.019.192-.272.479-.513.869-.709.474-.238 1.023-.411 1.64-.518.033.766.063 1.532.096 2.298.031.744.062 1.487.092 2.232"/></g></svg>