<svg xmlns="http://www.w3.org/2000/svg" viewBox="0 0 100 100" enable-background="new 0 0 100 100"><g fill="#1d1d1b"><path d="m79.6 19.274l.009-.185c.035-.768-.217-1.513-.675-1.994-.403-.422-.94-.636-1.596-.636h-11.03l-.005-.495c-.007-.664-.012-1.328-.013-1.994 0-.224-.029-.444-.092-.693l-.019-.073.004-.075c.038-.769-.212-1.516-.671-1.999-.403-.424-.941-.639-1.599-.639-2.084 0-4.168-.009-6.251-.018l-.489-.002-.009-.489c-.04-2.159-.18-3.965-.439-5.684-.166-1.094-1.32-1.748-2.342-1.748h-.141l-.12-.013-9.744-.005c-.723 0-1.319.271-1.726.785-.489.62-.668 1.537-.465 2.394l.035.148-.054.143c-.11.295-.167.591-.167.879v3.368l-.516-.016c-2.12-.065-4.24-.139-6.36-.242l-.104-.002c-.201 0-.401.028-.628.088l-.066.018h-.068c-1.186 0-2.428.747-2.444 2.387-.009.842-.042 1.681-.093 2.517l-.028.469h-.47c-3.643.001-7.54.077-11.361.49-.127.014-.242.046-.357.076l-.163.025c-1.195 0-2.389.737-2.389 2.385v9.45c0 .531.133.999.394 1.389l.085.126v.152c-.003 21.23-.077 40.4-.959 60.03-.011.238.014.476.077.746l.023.101-.019.102c-.118.655-.013 1.254.298 1.687.28.392.72.634 1.306.722 19.212 2.849 38.17 3.082 59.18 3.084 1.519 0 2.02-1.156 2.159-1.653l.032-.111.078-.086c.389-.428.586-.976.586-1.628v-71.62c0-.595-.161-1.104-.48-1.513l-.112-.146m-32.843-11.773h5.593l.023.475c.033.648.052 1.296.056 1.945l.003.508-1.747-.018c-1.146-.011-2.292-.022-3.437-.042l-.491-.009v-2.859m-10.961 18.13c.178-1.348.348-4.611.483-7.233.062-1.207.117-2.261.161-2.899l.034-.486.486.021c8.294.356 16.48.414 24.09.422h.494l.005.494c.057 5.344.161 9.07.297 10.5l.054.57-.572-.023c-4.354-.178-8.784-.302-13.07-.421-3.997-.112-7.993-.224-11.989-.379l-.548-.021.071-.545m39.645 65.43h-.5c-18.861-.012-35.885-.215-53.22-2.596l-.45-.062.019-.455c.826-19.344.895-38.64.896-60.05 0-.531-.133-1-.396-1.392l-.084-.126v-5.624l.463-.034c3.086-.228 6.133-.269 8.442-.28l.569-.002-.071.567c-.022.176-.05 1.495-.071 2.555-.036 1.738-.056 2.58-.085 2.787-.063.461-.046.916.052 1.349l.021.099-.018.1c-.15.825.056 1.712.537 2.316.41.516 1 .806 1.708.838 5.03.23 10.144.366 15.09.497 4.953.131 10.07.267 15.11.498l.131.003c.715 0 1.18-.272 1.491-.612.429-.177.8-.492 1.018-.915.021-.042.04-.085.059-.129.042-.101.083-.203.107-.313.045-.203.068-.408.101-.612.312-.414.47-.881.411-1.336-.047-.37-.083-1.739-.128-3.634-.028-1.158-.055-2.251-.078-2.525l-.047-.543h8.919v69.63"/><path d="m64.797 40.2c-.224.106-.414.239-.583.407-8.892 8.887-16.466 16.273-24.412 23.322l-4.047-4.913c-.471-.572-1-.692-1.366-.692-.411 0-.829.157-1.183.443l-.063.035c-2.276 1.464-4.401 2.69-6.499 3.749-.631.319-1 .869-1.038 1.52-.276.723-.099 1.478.486 2.038 1.878 1.796 3.627 3.785 5.318 5.709 1.857 2.111 3.777 4.295 5.888 6.25.08.074.162.139.245.196.358.459.856.72 1.38.72.381 0 .75-.133 1.097-.395 5.896-4.449 11.144-9.459 15.06-13.327 1.132-1.118 2.268-2.234 3.404-3.352 4.061-3.989 8.26-8.115 12.234-12.305.235-.249.398-.536.486-.854.38-.616.356-1.33-.071-1.974-1.363-2.053-2.551-3.978-3.631-5.884-.356-.63-.954-.991-1.638-.991-.383.0001-.767.112-1.065.298m-6.633 16.34c-1.556 1.533-3.109 3.065-4.65 4.607-4.357 4.361-9.113 8.958-14.398 13.09-1.688-1.664-3.283-3.472-4.827-5.224-1.178-1.335-2.391-2.711-3.648-4.03 1.062-.587 2.138-1.219 3.264-1.915l4.229 5.136c.472.572 1.01.692 1.369.692.452 0 .901-.185 1.272-.52.121-.07.23-.149.334-.241 8.491-7.438 16.657-15.424 24.23-22.977.48.792 1 1.622 1.61 2.558-2.874 2.992-5.879 5.955-8.788 8.823"/></g></svg>