<svg xmlns="http://www.w3.org/2000/svg" viewBox="0 0 100 100" enable-background="new 0 0 100 100"><g fill="#1d1d1b"><path d="m27.543 86.9c7.174 3.82 14.816 5.757 22.714 5.757.0001 0 .0001 0 .002 0 13.226 0 25.747-5.463 35.25-15.381 14.641-15.273 14.49-39.12-.344-54.3-10.291-10.527-22.563-15.263-36.544-14.1-.258-.06-.517-.089-.818-.089-.003 0-.006 0-.008 0-20.02.425-36.17 12.878-41.15 31.726-4.804 18.203 3.785 37.27 20.889 46.38m-15.409-39.08c1.199-17.458 15.404-31.01 33.81-32.3.475.141.953.182 1.469.112 1.709-.236 3.468-.355 5.226-.355 12.09 0 23.684 5.505 30.25 14.368 4.155 5.604 8.236 15.16 4.08 28.838-5.03 16.548-19.674 27.24-37.31 27.24-2.122 0-4.271-.164-6.388-.488-19.328-2.958-32.423-18.695-31.14-37.42"/><path d="m35.928 60.762c.127 1.693 1.387 2.611 2.638 2.804 10.565 4.969 22.292 6.134 32.464 6.836.075.005.149.008.221.008.298 0 .587-.042.862-.126 1.518-.223 2.474-1.429 2.335-2.969-.825-9.152-3.603-18.553-9.01-30.479-.269-.594-.682-1.052-1.199-1.332-.294-.228-.633-.4-1.01-.513-3.181-.959-6.518-1.755-9.744-2.524-6.768-1.613-13.767-3.282-19.815-6.571-.464-.252-.949-.38-1.439-.38-1.247 0-2.406.875-2.841 2.136-.284.629-.307 1.334-.067 2.043 3.69 10.915 5.849 21.08 6.601 31.07m18.989-12.787c.946 1.772.427 3.876-1.263 5.118-1.525 1.121-3.606.965-4.789-.392-1.209-1.388-.9-3.245.043-4.444.135-.113.257-.242.366-.386.735-.97 1.945-1.597 3.083-1.597 1.097 0 1.958.572 2.56 1.701m-7.436 9.587c1.16.644 2.489.998 3.894.998.817 0 1.632-.122 2.421-.362 3.941-1.203 6.53-4.813 6.442-8.985-.023-1.078-.266-2.095-.681-3.02.899-.696 1.733-1.395 2.52-2.105 2.992 7.213 4.955 13.83 5.95 20.08-7.73-.616-15.754-1.655-23.18-4.446.879-.793 1.751-1.511 2.631-2.166m7.569-15.463c-.766-.262-1.584-.415-2.441-.424h-.124c-2.664 0-4.869.972-6.557 2.89-.051.045-.101.092-.149.142-2.16 2.253-2.86 5.353-2.01 8.171-.845.639-1.661 1.3-2.446 1.98-.851-6.839-2.302-13.812-4.343-20.808 4.69 1.839 9.74 3.02 14.645 4.156 2.083.485 4.211.983 6.299 1.529-.931.841-1.885 1.643-2.875 2.364"/></g></svg>