<svg xmlns="http://www.w3.org/2000/svg" viewBox="0 0 100 100" enable-background="new 0 0 100 100"><path d="m90.26 61.34c-6.936-5.01-14.253-9.26-22.03-12.765-1.627-4.701-3.142-9.448-4.807-14.04-3.427-9.461-6.752-18.957-9.852-28.531-.573-1.772-2.436-2.069-3.708-1.411-.586.256-1.072.761-1.28 1.578-3.574 13.996-9.457 27.01-15.466 40-.191.074-.373.166-.539.282-.353.031-.722.15-1.096.388-7.569 4.814-15.534 8.895-23.5 13-.471.242-.783.565-.985.922-.667.691-.907 1.706-.162 2.748 10.04 14.04 25.59 23.57 41.994 28.399.197.058.386.092.567.106.43.143.938.133 1.512-.106 14.86-6.203 31.407-12.539 40.24-26.899.542-.88.464-1.733.059-2.4-.158-.471-.465-.914-.955-1.269m-38.988-46.39c1.248 3.701 2.527 7.392 3.825 11.08-.088.022-.172.032-.264.064-2.545.894-5.109 1.021-7.579.147 1.455-3.714 2.812-7.469 4.02-11.287m-9.888 25.12c6.212 1.576 12.422 1.554 18.339-1.095.65 1.832 1.282 3.68 1.913 5.534-.241.068-.485.165-.733.33-6.529 4.344-15.02 3.686-21.976.626.825-1.796 1.647-3.593 2.457-5.395m-8.372 18.257c1.059.319 2.133.613 3.212.891 9.843 3.865 20.306 3.625 30.04-1.394.04-.021.068-.047.105-.068.756 1.932 1.544 3.848 2.404 5.723-10.615 4.833-28.487 6.817-37.602-1.074.608-1.364 1.228-2.72 1.846-4.078m16.82 28.657c-14.14-4.225-27.913-12.239-37.13-23.959 5.69-2.936 11.36-5.898 16.869-9.156-1.148 2.502-2.285 5.01-3.395 7.533-.081.183-.139.364-.178.543-.438.851-.438 1.921.402 2.82 10.81 11.577 34.21 8.868 46.863 2.058 1.324-.713 1.473-2.028.977-3.078-.036-.275-.106-.555-.246-.842-1.223-2.495-2.312-5.076-3.332-7.698 5.219 2.627 10.217 5.66 15.02 9-8.285 11.825-22.969 17.408-35.848 22.776" fill="#1d1d1b"/></svg>