<svg xmlns="http://www.w3.org/2000/svg" viewBox="0 0 100 100" enable-background="new 0 0 100 100"><g fill="#1d1d1b"><path d="m62.919 49.833c-.675.861-1.355 1.717-2.033 2.576 5.255 4.496 9.39 8.093 10.824 9.482 1.521 1.473 3.625-1.044 2.115-2.507-1.434-1.389-5.608-5.02-10.906-9.551"/><path d="m76.79 70.28c-2.769-2.42-9.721-8.498-17.776-15.513-.683.854-1.375 1.701-2.066 2.548 8.03 6.996 14.959 13.05 17.728 15.472 1.593 1.393 3.705-1.117 2.114-2.507"/><path d="m52.759 62.32c5.846 4.917 10.554 8.894 12.306 10.413 1.599 1.387 3.711-1.122 2.115-2.507-1.75-1.517-6.458-5.494-12.303-10.411-.702.838-1.403 1.677-2.118 2.505"/><path d="m10.795 33.574c-.102.121-.177.246-.237.371-.503.628-.615 1.575.169 2.254 3.17 2.743 9.69 8.187 17.375 14.571.785-.776 1.57-1.551 2.348-2.332-7.294-6.06-13.429-11.176-16.359-13.682.798-.945 1.601-1.884 2.404-2.824 2.19 1.828 8.836 7.386 16.567 13.863.767-.784 1.522-1.577 2.282-2.367-7.792-6.528-14.509-12.145-16.71-13.982.836-.967 1.671-1.935 2.517-2.893 2.729 2.19 9.184 7.708 16.74 14.233.75-.796 1.479-1.61 2.221-2.413-7.575-6.542-14.05-12.08-16.775-14.269.577-.639 1.151-1.28 1.735-1.913 2.063 1.724 8.969 7.507 16.881 14.173.736-.809 1.486-1.607 2.214-2.424-7.903-6.659-14.802-12.437-16.85-14.15.656-.688 1.316-1.37 1.983-2.048 3.122 2.422 9.454 7.635 16.909 13.838.719-.824 1.439-1.649 2.15-2.481-7.541-6.275-13.962-11.557-17.226-14.08-.254-1.083-1.854-1.878-2.927-.815-.179.177-.353.359-.531.536-.021-.016-.036-.034-.058-.05-2.174-1.514-4.211-3.195-6.235-4.902-.128-.108-.259-.184-.391-.245-.629-.513-1.611-.654-2.338.089-4.731 4.835-9.08 9.968-13.04 15.459-.1.139-.167.281-.221.424-.354.62-.386 1.452.241 2.096 1.816 1.868 3.656 3.71 5.615 5.428-.151.179-.302.356-.453.535m-1.943-7.345c3.439-4.68 7.162-9.106 11.174-13.302 1.734 1.45 3.488 2.869 5.34 4.169-4.165 4.331-8.106 8.863-11.997 13.442-1.566-1.374-3.057-2.826-4.517-4.309"/><path d="m92.5 66.07c-.078-.101-.171-.2-.283-.292-4.3-3.524-14.366-11.99-25.24-21.11-.677.86-1.355 1.719-2.03 2.581 10.413 8.734 19.957 16.76 23.957 20.05-4.51 6.247-9.703 11.887-15.599 16.85-3.767-3.243-12.861-10.814-22.911-19.16-.732.815-1.468 1.626-2.218 2.425 10.28 8.526 19.597 16.275 23.596 19.736.128.111.259.188.391.252.261.328.623.552 1.023.591.195.154.437.272.741.324 6.498 1.111 13.01 2.046 19.601 2.409 1.05.058 1.72-.734 1.856-1.549.027-.125.043-.257.042-.398-.057-7.398-.934-14.703-2.497-21.93-.078-.349-.234-.601-.432-.78m-15.703 19.394c5.04-4.42 9.589-9.308 13.611-14.673.543 2.908.943 5.837 1.227 8.778-.124.068-.245.149-.36.255-2.298 2.128-4.416 4.418-6.447 6.8-2.683-.331-5.359-.723-8.03-1.16m11.998 1.596c1.022-1.148 2.072-2.268 3.158-3.355.069 1.213.127 2.427.156 3.642-1.107-.08-2.211-.18-3.314-.287"/><path d="m49.823 59.854c.66-.876 1.322-1.748 1.982-2.619.668-.881 1.347-1.753 2.033-2.619.678-.856 1.375-1.698 2.086-2.53.4-.467.79-.94 1.205-1.397.253-.28.508-.557.761-.837.736-.809 1.472-1.618 2.209-2.426.73-.802 1.455-1.608 2.182-2.412.734-.812 1.464-1.628 2.19-2.447 1.665-1.877 3.297-3.784 4.888-5.731.313-.383.637-.755.946-1.142 6.131 2.046 13.73 2.132 18.14-3.403 4.42-5.55 4.02-12.66 1.505-18.946-.018-.054-.036-.108-.061-.157-.025-.061-.046-.123-.072-.183-.678-1.637-3.112-.763-2.809.799-1.127 3.898-3.499 7.653-7.618 8.795-3.04.842-6.625.239-9.279-1.463-2.085-1.337-4.591-3.666-4.229-6.432.527-4.02 5.123-5.986 8.453-7.201.447-.163.71-.457.827-.796 1.243-.541 1.344-2.682-.274-2.776-6.71-.393-13.854.919-18.836 5.753-4.263 4.136-4.386 9.812-2.425 14.949.165.432.339.861.532 1.284.224.491-2.705 4.105-3.097 4.678-.109.16-.227.314-.336.473-.623.904-1.268 1.792-1.908 2.683-.421.585-.825 1.182-1.253 1.762-.195.264-.404.518-.6.781-.656.876-1.326 1.742-2 2.603-.57.729-1.145 1.453-1.729 2.171-.689.848-1.39 1.687-2.099 2.519-.292.343-.569.698-.865 1.038-.491.565-.993 1.12-1.492 1.678-.73.815-1.468 1.624-2.213 2.425-.347.373-.689.75-1.039 1.119-.496.524-1.01 1.031-1.512 1.549-.761.785-1.515 1.577-2.291 2.347-.004.004-.012.013-.017.017-.498.504-3.323 3.813-3.829 3.686-.032-.008-.064-.014-.097-.022-5.788-1.433-11.973-.514-15.53 4.81-3.855 5.772-3.858 13.03-2.263 19.565.385 1.574 2.472 1.089 2.78-.231.312-.175.554-.487.633-.957.597-3.492 1.701-8.367 5.561-9.611 2.655-.855 5.398 1.189 7.089 2.999 2.153 2.304 3.393 5.722 3.112 8.863-.38 4.258-3.646 7.268-7.277 9.08-1.59-.016-2.01 2.536-.279 2.907.064.014.129.024.193.037.053.016.108.024.165.032 6.637 1.34 13.703.451 18.365-4.897 4.02-4.611 3.473-10.809 1.238-16.06-.351-.823-.739-1.626-1.161-2.393-.156-.283 3.918-4.662 4.328-5.169.296-.366.578-.745.872-1.113.683-.857 1.355-1.721 2.025-2.588.439-.567.893-1.123 1.326-1.694.292-.382.579-.765.867-1.148m-6.472 3.561c-1.162 1.459-2.346 2.899-3.549 4.324-.689.816-1.365 1.644-2.069 2.447-.409.466-.444.987-.267 1.429-.058.316-.016.662.187 1.01.043.074.082.149.124.223.312.548.606 1.105.873 1.674 2.071 4.414 2.637 9.37-.516 13.556-2.748 3.648-7.336 4.667-11.729 4.456 2.936-2.212 5.136-5.176 5.629-9.07.544-4.3-1.233-8.49-4.04-11.665-2.474-2.8-6.265-4.553-9.984-3.578-3.093.811-4.954 3.52-6.095 6.501-.086-3.315.488-6.609 2.01-9.654 2.776-5.541 8.698-6.109 14.07-4.566.47.135.852.036 1.137-.183.115-.088.217-.19.298-.313.954-1.448 2.88-2.716 4.123-3.947.141-.14.275-.286.416-.426.78-.778 1.542-1.572 2.307-2.364.478-.495.969-.976 1.441-1.476.37-.391.723-.797 1.089-1.191.744-.802 1.487-1.607 2.215-2.424.787-.883 1.553-1.785 2.32-2.686.612-.719 1.238-1.427 1.836-2.159.094-.115.183-.233.276-.348.592-.727 1.168-1.467 1.747-2.204.676-.861 1.344-1.727 2-2.602.634-.842 1.268-1.684 1.886-2.538.644-.89 1.268-1.793 1.893-2.695.67-.966 1.332-1.936 1.982-2.915.673-1.014 1.347-2.026 1.997-3.053.37-.354.534-.887.229-1.501-2.486-5-2.995-10.929 1.955-14.659 2.72-2.05 5.857-3.208 9.133-3.722-2.726 1.66-5.05 3.979-5.295 7.167-.289 3.834 2.119 7.246 5.319 9.175 3.63 2.188 8.07 3.181 12.202 1.87 3.737-1.186 6.256-3.884 7.902-7.171 1 4.283.825 8.98-2.268 12.34-4.067 4.419-10.01 4.217-15.286 2.314-.378-.137-.726-.116-1.026-.002-.466-.094-.972.034-1.357.52-.55.694-1.129 1.357-1.693 2.037-1.496 1.801-3.02 3.568-4.588 5.301-.733.813-1.464 1.628-2.204 2.435-.728.793-1.455 1.587-2.185 2.38-.74.804-1.472 1.618-2.208 2.427-.66.725-1.325 1.445-1.979 2.179-.004.005-.009.001-.014.015-.726.814-1.415 1.653-2.083 2.506-.694.885-1.366 1.785-2.028 2.693-.646.885-1.284 1.776-1.929 2.663-.649.893-1.304 1.783-1.98 2.66-.06.078-.123.153-.183.231-.673.868-1.363 1.719-2.045 2.576"/></g></svg>