<svg xmlns="http://www.w3.org/2000/svg" viewBox="0 0 100 100" enable-background="new 0 0 100 100"><g fill="#1d1d1b"><path d="m76.64 64.989c-.122-7.872-7.587-12.04-14.368-11.854-.18-.027-.378-.035-.579-.015-.432.043-.855.104-1.245.175-.606.09-1.183.212-1.707.359-.153.042-.3.099-.446.173-4.994 1.625-8.137 5.47-8.627 10.562-.264 2.746.536 5.327 2.312 7.466 2.34 2.816 6.224 4.718 10.387 5.086.382.034.765.051 1.148.051 3.653 0 7.336-1.527 9.855-4.084 2.184-2.219 3.315-4.957 3.27-7.919m-4.714.861c.021 1.366-.469 2.568-1.456 3.57-1.643 1.668-4.683 2.746-7.747 2.746-.592 0-1.154-.043-1.669-.127-4.475-.729-6.238-3.748-6.396-6.33-.171-2.808 1.482-6.365 5.494-7.534.886-.233 1.805-.352 2.732-.352 4.433 0 8.962 2.757 9.04 8.03"/><path d="m94.78 57.44c-.015-.23-.061-.456-.139-.685-.018-1.073-.613-1.957-1.575-2.355-.13-.096-.27-.177-.417-.24-1.785-.774-3.503-1.616-5.373-2.55.335-1.634.668-3.268.996-4.904.031-.157.044-.318.039-.49.053-.598-.154-1.17-.59-1.622-2.626-2.727-5.516-5.04-8.589-6.864-.421-.25-.881-.346-1.347-.284h-.009c-.355 0-.7.089-1.025.266-.608.332-1.212.669-1.814 1.013-.687-1.391-1.385-2.841-2.01-4.29-.063-.146-.145-.287-.241-.418-.399-.963-1.284-1.558-2.358-1.575-.227-.077-.452-.122-.682-.138-1.751-.113-3.5-.255-5.248-.396-2.914-.235-5.928-.478-8.913-.585l-.107-.002c-1.062 0-1.936.577-2.33 1.523-.152.18-.275.374-.374.588l-.328.705c-.58 1.245-1.176 2.524-1.72 3.827-1.929-.562-3.919-1.199-6.06-1.938-1.017-.352-2.062.118-2.494 1.071-.018.021-.035.044-.051.068-2.088 2.967-4.404 5.622-6.395 7.828-.599.665-.726 1.549-.347 2.342.034.129.077.25.132.369.558 1.199 1.127 2.479 1.73 3.89-1.372.563-2.715 1.189-4.02 1.8l-.768.357c-.215.1-.409.223-.587.373-.984.41-1.562 1.324-1.521 2.438.107 2.982.35 5.994.585 8.907.141 1.75.282 3.5.396 5.253.015.231.061.458.139.685.018 1.074.614 1.958 1.576 2.356.132.097.271.177.417.24 1.651.717 3.285 1.511 4.941 2.334-.167.527-.332 1.054-.497 1.581-.423 1.352-.847 2.703-1.29 4.047-.27.815-.045 1.636.584 2.168l.119.12c2.588 2.284 5.34 4.242 8.178 5.817.124.069.256.127.393.172.445.178.945.183 1.423.011 1.109-.393 2.215-.793 3.322-1.193l.298-.107c.793 1.598 1.559 3.176 2.253 4.776.063.146.145.286.241.418.398.962 1.282 1.557 2.355 1.575.228.077.453.122.685.138 1.75.113 3.498.255 5.246.396 2.915.235 5.929.479 8.914.585l.11.002c1.062 0 1.934-.577 2.328-1.522.151-.179.274-.374.375-.589l.338-.727c.544-1.168 1.104-2.369 1.619-3.588 1.811.659 3.559 1.115 5.321 1.39.117.018.23.025.34.025.191 0 .382-.025.567-.074.297-.059.578-.186.835-.378 2.65-1.977 5.989-4.724 8.306-8.454.26-.419.366-.88.308-1.341.003-.371-.097-.741-.292-1.079-.775-1.339-1.381-2.631-1.841-3.926 1.377-.564 2.727-1.193 4.04-1.805l.777-.361c.214-.1.408-.223.587-.374.985-.409 1.562-1.324 1.522-2.439-.107-2.981-.35-5.992-.584-8.904-.141-1.752-.282-3.503-.396-5.257m-25.791 33.964c-2.456-.123-4.941-.32-7.351-.512-1.373-.108-2.745-.217-4.118-.313-.789-1.768-1.647-3.501-2.528-5.264-.132-.266-.305-.505-.515-.713-.517-.701-1.407-.974-2.269-.667-1.047.371-2.092.75-3.137 1.128-.785.285-1.571.569-2.357.851-1.996-1.167-3.914-2.518-5.714-4.02.279-.872.552-1.745.824-2.618.416-1.329.831-2.658 1.268-3.981.113-.343.139-.686.079-1.02-.0001-.931-.516-1.738-1.401-2.182-1.77-.884-3.508-1.744-5.266-2.528-.097-1.381-.206-2.761-.315-4.141-.19-2.403-.387-4.881-.51-7.329l.181-.084c1.394-.654 2.835-1.331 4.288-1.862.766-.281 1.334-.79 1.642-1.472.442-.978.347-2.248-.29-3.884-.087-.223-.283-.584-.652-1.255-.334-.609-1.051-1.913-1.302-2.551 2.106-2.374 3.807-4.455 5.292-6.478.854.253 2.52.834 3.323 1.114.581.202 1.026.356 1.164.396.237.069.509.178.798.291.777.305 1.658.649 2.529.649 1.148 0 2.01-.615 2.415-1.732.529-1.444 1.202-2.879 1.853-4.267l.094-.201c2.446.123 4.921.319 7.322.51 1.382.109 2.764.219 4.147.315.789 1.769 1.646 3.502 2.528 5.267.446.893 1.242 1.404 2.183 1.404.504 0 1.01-.15 1.384-.389l.187-.1c1.038-.653 2.117-1.264 3.095-1.804 2.118 1.351 4.15 2.979 6.05 4.851-.42 2.1-.842 4.197-1.281 6.292-.137.656.019 1.299.428 1.795.234.501.637.903 1.174 1.172 1.765.882 3.499 1.74 5.267 2.528.097 1.383.206 2.764.315 4.145.19 2.401.386 4.878.51 7.325l-.181.084c-1.394.654-2.835 1.331-4.288 1.863-.842.309-1.451.961-1.689 1.8-.204.424-.257.895-.155 1.371.453 2.117 1.243 4.222 2.41 6.416-1.396 1.984-3.253 3.82-5.916 5.854-1.664-.33-3.334-.839-4.975-1.516-.506-.507-1.237-.803-2.01-.803-1.188 0-2.178.688-2.584 1.797-.532 1.452-1.209 2.895-1.864 4.289l-.085.181m1.641 4.439v-.001c0 0 0 0 0 0v.001"/><path d="m23.574 17.23c-1.507 0-3.02.352-4.396 1.017-.133.04-.256.095-.376.164-.234.136-.459.281-.652.415-.318.205-.617.425-.883.648-.084.07-.163.148-.237.238-2.435 2.244-3.229 5.276-2.178 8.334.979 2.848 3.631 4.547 7.093 4.548 1.178 0 2.385-.207 3.491-.597 2.28-.805 4.197-2.619 5.129-4.856.806-1.936.782-3.99-.067-5.784-1.241-2.623-3.766-4.127-6.924-4.127m-5.138 9.518c-.593-1.598-.1-3.384 1.237-4.534 1.054-.861 2.415-1.355 3.734-1.355 1.798 0 3.259.905 4.01 2.483.347.731.337 1.473-.028 2.267-.735 1.598-2.673 2.879-4.124 3.273-2.23.606-4.132-.265-4.826-2.134"/><path d="m36.13 38.746c.037-.15.057-.305.058-.46l.004-.479c.006-.658.012-1.33 0-2.01 1.039-.102 2.01-.281 2.958-.546.229-.064.437-.172.619-.32.193-.141.351-.322.469-.538.975-1.773 2.139-4.152 2.486-6.837.049-.377-.023-.736-.208-1.047-.12-.259-.308-.483-.55-.656-.623-.443-1.172-.897-1.664-1.375.526-.573 1.028-1.161 1.519-1.734l.327-.383c.101-.118.187-.246.257-.383.511-.584.612-1.392.249-2.117-.805-1.613-1.689-3.204-2.545-4.742-.512-.921-1.025-1.843-1.523-2.773-.073-.135-.16-.26-.265-.378-.342-.672-.981-1.069-1.727-1.069-.007 0-.015 0-.022 0-.102-.018-.229-.001-.328-.026-1.073.021-2.137-.009-3.247-.045-.201-.879-.403-1.757-.608-2.634-.027-.116-.067-.23-.122-.345-.161-.435-.502-.78-.948-.956-2.148-.852-4.339-1.403-6.513-1.643l-.192-.011c-.304 0-.594.081-.847.235-.246.115-.461.292-.63.516-.167.222-.332.445-.496.669-.614-.505-1.236-1.03-1.831-1.567-.081-.072-.168-.137-.264-.193-.547-.488-1.32-.621-2.02-.343-.156.021-.305.058-.451.113-.987.374-1.979.732-2.972 1.091-1.655.598-3.366 1.216-5.03 1.902-.75.309-1.204.983-1.204 1.759-.034.15-.053.303-.054.461l-.004.471c-.006.713-.013 1.443.002 2.177-1.084.151-2.213.281-3.425.396-.441.042-.831.242-1.097.565-.229.277-.354.623-.362.993l-.004.021c-.399 2.118-1 4.137-1.538 5.83-.206.649-.015 1.326.488 1.769.059.069.121.133.189.192.543.465 1.079.939 1.609 1.419-.511.559-1 1.131-1.479 1.69l-.34.397c-.104.12-.189.247-.26.386-.51.585-.611 1.393-.249 2.116.807 1.616 1.693 3.209 2.55 4.75.511.919 1.022 1.838 1.518 2.763.073.137.161.263.265.381.346.677.965 1.049 1.748 1.069.104.018.214-.0001.331.027.973-.019 1.949.002 2.924.035l.08.655c.104.841.209 1.682.301 2.524.072.67.497 1.187 1.119 1.373l.116.042c2.01.614 4.04 1.01 6 1.162l.142.006c.062 0 .123-.003.182-.009.382-.021.736-.179 1.028-.459.47-.453.937-.91 1.404-1.366.729.596 1.442 1.192 2.129 1.812.082.074.171.141.268.198.356.317.801.49 1.271.49.252 0 .504-.05.75-.149.154-.02.302-.057.448-.111.987-.374 1.98-.732 2.973-1.091 1.654-.598 3.365-1.216 5.03-1.903.748-.309 1.201-.984 1.201-1.76m-3.466-5.637c-.382.413-.569.958-.525 1.536.066.862.06 1.722.049 2.627-1.293.507-2.616.986-3.9 1.452-.701.254-1.402.509-2.102.768-.823-.72-1.667-1.408-2.532-2.107-.165-.132-.346-.236-.54-.312-.599-.318-1.346-.21-1.85.276-.497.479-.99.962-1.482 1.444l-.899.878c-1.211-.133-2.424-.36-3.62-.677-.055-.462-.113-.925-.171-1.387-.103-.824-.206-1.647-.295-2.474-.029-.266-.118-.515-.258-.729-.301-.633-.906-1.021-1.646-1.048-1.096-.039-2.194-.071-3.289-.073-.358-.658-.721-1.313-1.084-1.969-.661-1.191-1.341-2.419-1.982-3.647.587-.689 1.146-1.342 1.762-1.948.427-.422.652-.939.651-1.498-.002-.758-.41-1.522-1.247-2.339-.093-.091-.366-.303-.707-.557-.269-.201-.804-.6-1.132-.88.493-1.618.867-3.035 1.158-4.377.558-.066 1.396-.143 1.827-.183.364-.033.642-.06.731-.072.137-.02.301-.026.475-.036.735-.04 1.743-.095 2.364-.803.234-.266.5-.733.446-1.449-.065-.863-.059-1.723-.049-2.627 1.284-.503 2.596-.979 3.871-1.442.71-.258 1.421-.516 2.13-.778.817.715 1.664 1.404 2.528 2.104.873.707 2.139.499 2.783-.412l.084-.112c.351-.534.73-1.062 1.089-1.548 1.324.203 2.666.546 4 1.021.276 1.181.55 2.362.816 3.546.112.499.417.898.851 1.126.315.254.705.396 1.139.41 1.097.041 2.195.075 3.29.074.362.666.73 1.329 1.098 1.992.656 1.184 1.332 2.402 1.969 3.623-.586.689-1.146 1.341-1.763 1.95-.468.462-.681 1.08-.595 1.715-.0001.358.113.701.334 1 .753 1.017 1.672 1.948 2.798 2.836-.269 1.276-.779 2.596-1.606 4.166-.892.198-1.823.317-2.774.355-.751-.24-1.654-.002-2.197.585"/></g></svg>