<svg xmlns="http://www.w3.org/2000/svg" viewBox="0 0 100 100" enable-background="new 0 0 100 100"><path d="m71.952 73.11c-4.443.487-8.34 3.914-9.528 8.147-9.131.519-18.276.952-27.423 1.038-1.797-7.691-2.127-15.522-1.905-23.397 8.745-.009 17.486-.08 26.22-.605 1.3 4.119 5.752 6.213 10.328 6.178 2.888-.022 6.397-.643 8.763-2.398 3.01-2.235 4.061-4.875 3.803-7.408-.557-5.466-7.203-10.435-13.376-9.757-4.215.462-7.929 3.571-9.315 7.501-8.716.532-17.443.625-26.17.635.522-9.297 1.504-18.621 1.501-27.818 1.93-.343 3.841-.995 5.311-2.085 3.01-2.235 4.06-4.875 3.802-7.408-.556-5.466-7.202-10.435-13.376-9.757-5.072.556-9.432 4.943-9.864 9.987-.468 5.464 3.534 8.627 8.282 9.389-.0001 20.21-4.514 40.813.881 60.678.371 1.371 1.405 2 2.496 2.069.222.05.459.081.717.08 9.861-.038 19.722-.516 29.566-1.079 1.528 3.718 5.761 5.607 10.11 5.574 2.888-.022 6.397-.643 8.763-2.398 3.01-2.235 4.061-4.875 3.803-7.408-.559-5.467-7.204-10.436-13.378-9.758m-2.175-22.306c6.06-.628 9.224 6.499 2.042 7.912-.095-.0001-.181-.015-.28-.008-6.148.404-9.681-7.083-1.762-7.904m-38.25-38.933c6.06-.628 9.223 6.499 2.041 7.912-.094-.0001-.18-.015-.279-.008-6.148.404-9.681-7.083-1.762-7.904m43.42 75.05c-.094-.0001-.18-.015-.279-.008-6.148.405-9.681-7.083-1.762-7.904 6.06-.629 9.223 6.499 2.041 7.912" fill="#1d1d1b"/></svg>