<svg xmlns="http://www.w3.org/2000/svg" viewBox="0 0 100 100" enable-background="new 0 0 100 100"><g fill="#1e1e1c"><path d="m83.55 6.316c-.158-1.312-1.24-1.994-2.284-2.049-.208-.065-.431-.111-.685-.111-17.457.022-38.15.508-55.608.271-.302-.004-.565.051-.802.139-1.226-.277-2.704.391-2.707 2.02-.005 2.79-.031 5.58-.067 8.37-2.01.665-3.828 1.823-5.205 3.666-3.147 4.214.291 9.535 3.476 12.436.447.407.941.571 1.421.575-.012.568-.023 1.137-.035 1.705-1.768.598-3.368 1.542-4.564 3-3.322 4.049-.602 8.96 2.369 12.266.355.395.753.586 1.152.65.238.269.484.528.763.756-.002.272-.004.543-.007.815-2.516.698-4.754 2.055-6.02 4.457-2.604 4.954 2.144 9.451 6.074 11.692.003.134.008.267.001.401-1.865.922-3.456 2.257-4.406 4.208-2.256 4.633 1.557 8.848 5.05 11.456.058.904.122 1.809.187 2.713-.074.237-.108.505-.078.813.292 2.995.829 5.906 1.918 8.721.379.981 1.234 1.405 2.076 1.413.222.08.465.134.745.133 18.715-.001 37.434-.3 56.07-2.106.143-.014.274-.044.401-.079 1.094.057 2.232-.614 2.231-2.027 0-2.462-.001-4.92-.263-7.371-.021-.206-.073-.39-.137-.565.063-26.13 2.062-52.34-1.082-78.37m-64.879 50.78c.443-.842 1.181-1.419 2.066-1.817-.007 2.172-.002 4.344.016 6.515-1.614-1.228-3.03-2.89-2.082-4.698m1.458-18.361c.247-.255.529-.469.824-.666-.041 2.069-.078 4.137-.111 6.206-1.296-1.69-2.364-3.833-.713-5.54m.242 34.589c.157-.322.36-.613.596-.878.049 1.518.106 3.036.174 4.554-.882-1.106-1.401-2.382-.77-3.676m.826-46.844c-1.439-1.63-2.526-3.649-1.277-5.678.349-.568.837-.999 1.408-1.332-.039 2.337-.083 4.673-.131 7.01m5.835 66.14c-.326-1.039-.591-2.09-.798-3.156 17.16.102 37.37 1.86 54.51-1.5.039.896.062 1.793.071 2.69-17.882 1.651-35.832 1.95-53.78 1.966m53.29-8.967c-16.658 3.443-37.05 1.607-53.933 1.494-.021-.0001-.042-.006-.063-.006h-.381c-.356-4.948-.579-9.899-.715-14.851 1.26-.297 2.528-.444 3.526-.536 2.75-.254 2.774-4.575 0-4.319-1.158.107-2.387.268-3.611.522-.066-3.822-.099-7.644-.084-11.467 1.173-.019 2.291.064 3.155.147 2.773.266 2.747-4.055 0-4.319-.99-.095-2.048-.135-3.123-.103.044-4.472.12-8.945.21-13.418 1.507-.122 3.03-.056 4.262.025 2.782.181 2.765-4.139 0-4.319-1.318-.086-2.743-.105-4.175.004.099-4.669.2-9.339.275-14.01 1.336-.024 2.639.108 3.63.237 2.756.359 2.721-3.965 0-4.319-1.178-.153-2.38-.224-3.571-.185.022-1.826.04-3.651.049-5.477 16.82.206 36.877-.235 53.696-.274 2.748 24.976.961 50.11.853 75.17"/><path d="m42.44 33.587c-.189.13-.341.277-.477.431-.066.046-.135.081-.199.136-11.364 9.47-6.486 28.545 8.03 30.95 5.095.844 12.164.877 17.14-.573 2.924-.852 1.679-5.419-1.258-4.563-7.25 2.112-14.527 1.896-21.1-2.044-.078-.103-.157-.206-.259-.305-6.178-5.965-5.771-14.643.789-20.12.009-.008.015-.016.024-.024 8.175-5.347 23.25-3.911 23.937 8.01.002.039.013.072.018.111-.007.094-.021.183-.018.283.081 2.16-.823 3.629-2.793 4.289-2.052-.479-3.237-1.716-3.798-3.932-.063-.247-.16-.455-.27-.644-.4-1.718-1.157-3.302-2.482-4.602-1.637-1.605-3.881-2.291-6.124-2.513-.215-.057-.443-.096-.701-.091-.087.002-.167.019-.252.022-.179-.008-.359-.02-.536-.022-.382-.006-.717.064-1 .19-3.472.623-6.14 2.816-7.633 6.101-2.727 6 4.799 11.123 9.819 11.653.11.012.216-.0001.322-.001.025.0001.047.009.072.001 2.308.078 4.342-.48 6.158-1.913.556-.439.991-.979 1.346-1.571 1.238 1.039 2.739 1.768 4.486 2.02.109.016.218.02.327.026.34.076.715.081 1.128-.026 4.225-1.095 6.83-4.629 6.667-8.986-.0001-.033-.001-.06-.012-.092.006-.1.019-.195.012-.302-.893-15.53-19.997-19.737-31.363-11.903m15.391 14.662c-.299 2.593-1.616 3.437-4.141 3.352-.103-.003-.193.012-.288.019-.035-.005-.069-.015-.104-.019-5.462-.604-7.36-7.961-.749-8.449 3.065.166 5.091 1.577 5.283 4.899.002.038.013.069.017.106-.006.032-.014.061-.018.092"/></g></svg>