<svg xmlns="http://www.w3.org/2000/svg" viewBox="0 0 100 100" enable-background="new 0 0 100 100"><g fill="#1d1d1b"><path d="m80.78 40.696c-.036-.149-.088-.284-.145-.413.058-.157.103-.326.129-.509 1.636-11.468-1.729-22.17-11.396-28.999-10.447-7.383-30.706-10.942-40.72-1.071-2.656 2.618-5.83 7.25-6.663 10.932-.015.066-.014.128-.023.193-.06.105-.121.209-.168.331-.99 2.543-2.639 4.379-4.855 5.881-.229.085-.458.203-.68.387-2.475 2.053-3.562 4.82-3.455 7.938-.116.428-.105.911.098 1.424 1.919 4.858 1.541 9.716-.375 14.506-.025.063-.033.122-.054.184-.243.4-.356.901-.239 1.501 1.402 7.157 4.095 13.832 9.411 18.831 1.092 1.027 3.048 1.079 3.518-.749.463-1.807.924-3.613 1.467-5.396 3.812 2.712 6.643 6.311 8.187 10.91.224.665.634 1.051 1.112 1.22.397.271.889.431 1.47.394 8.124-.518 16.259-.719 24.396-.907.275-.006.52-.064.747-.144 1.067.03 2.152-.592 2.278-1.964.237-2.582.564-5.257 1.876-7.546.009-.014.012-.029.02-.044.672-.417 1.484-.802 2.256-.57 1.828.552 2.526 6.883 5.439 4.01 4.829-4.761 7.844-10.446 8.998-17.09.244-.401.348-.909.199-1.521l-2.828-11.718m-1.686 12.192c-.717 4.689-2.608 8.897-5.542 12.495-.751-1.089-1.731-1.98-3.049-2.551-2.832-1.226-6.562.439-7.847 2.975-1.133 2.237-1.72 4.609-2.059 7.07-7.381.175-14.76.39-22.13.821-2.201-5.709-6.388-10.286-11.749-13.26-1.457-.808-2.949.1-3.438 1.269-.051.097-.103.19-.143.301-.385 1.076-.718 2.167-1.03 3.264-2.554-3.836-4.407-8.02-5.364-12.536 2.227-5.621 2.488-11.383.467-17.05.014-.163.017-.329.002-.496-.146-1.74.532-3.183 1.84-4.29.136-.056.271-.121.403-.207 3.02-1.95 5.207-4.638 6.514-7.982.082-.162.154-.339.201-.547 1.087-4.812 3.844-8.581 8.113-11.07.343-.2.593-.453.779-.733 9.874-2.808 21.709-1.815 30.633 3.349 9.335 5.401 12.07 15.572 10.625 25.695-.055.379-.018.71.08.999-.088.316-.106.673-.009 1.078l2.727 11.307c-.005.034-.017.062-.023.097"/><path d="m43.39 43.817c-.056-.109-.118-.217-.186-.323-1.264-1.975-4.486-3.295-6.54-3.824-.044-.011-.086-.014-.13-.023-.408-.267-.927-.394-1.555-.27-4.182.832-7.68 3.224-9.836 6.915-.858.619-1.091 1.737-.712 2.74.936 2.481 2.099 4.873 3.903 6.847.299.592.855 1.059 1.702 1.161 6.825.82 9.94-.61 12.273-6.843.772-2.06 2.193-4.204 1.081-6.38m-6.473 8.114c-.042.115-.062.226-.086.337-1.774.401-3.549.53-5.353.41-1.066-1.263-1.828-2.675-2.463-4.179 1.485-2.35 3.525-3.931 6.239-4.603 1.446.392 2.72 1.063 3.912 1.898l-2.249 6.137"/><path d="m73.32 46.29c-2.157-3.691-5.654-6.083-9.836-6.915-.628-.124-1.146.003-1.556.27-.043.009-.086.012-.129.023-2.501.644-4.728 2.074-6.687 3.724-1.049.885-1.191 2.205-.907 3.602.426 2.089 1.804 4.349 2.53 5.587 2.671 4.543 6.473 5.082 11.69 4.455.847-.101 1.403-.568 1.702-1.161 1.805-1.973 2.968-4.366 3.903-6.847.381-1 .149-2.118-.71-2.738m-6.335 6.385c-.404.479-3.962.038-4.602-.339-1.867-1.102-2.387-4.634-3.087-6.543 1.192-.836 2.466-1.506 3.912-1.898 2.714.672 4.754 2.252 6.239 4.603-.634 1.502-1.395 2.914-2.462 4.177"/><path d="m72.12 74.951c-.701-.849-2.305-1.183-3.139-.299-1.432 1.516-2.878 3.01-4.454 4.377-.017.008-.034.011-.052.02-.276.145-.537.319-.797.495-.03.0001-.058-.006-.09-.004-8.171.429-16.332.692-24.501.125-.276-.144-.608-.23-1.01-.221-2.867.061-5.266-.569-7.263-2.72-.257-.276-.539-.462-.831-.581-.949-2.087-4.622-1.222-4.198 1.392.346 2.138.485 4.292.602 6.453.019.34.151.641.348.901.043.118.088.236.155.357 1.86 3.325 4.443 5.965 7.563 8.131.257.178.516.284.771.347 1.726 1.16 3.636 1.946 5.582 2.66.026.001.052.011.078.02.28.168.618.282 1.028.301 6.851.311 13.632-.372 20.293-1.999.052-.013.093-.035.143-.05.32.016.662-.037 1.02-.192 4.127-1.786 6.976-5.03 8.01-9.426.007-.03.006-.058.011-.088.079-.133.143-.277.181-.435.612-2.505 1.201-5.01 1.219-7.603.003-.384-.079-.719-.217-1.01-.063-.325-.202-.647-.451-.95m-4.736 8.03l-.0001.003c-.077.155-.145.324-.19.521-.757 3.217-2.424 5.379-5.378 6.757-.128.001-.258.022-.396.056-6.229 1.522-12.526 2.22-18.938 1.949-.048-.021-.087-.049-.14-.068-1.672-.614-3.305-1.23-4.773-2.259-.239-.168-.482-.27-.723-.336-2.382-1.682-4.473-3.663-5.91-6.234-.049-.088-.108-.158-.163-.235-.017-.304-.036-.608-.054-.911 2 1.129 4.256 1.671 6.741 1.656.228.101.479.176.773.198 8.475.622 16.939.323 25.413-.114.502.153 1.05.142 1.536-.113.301-.157.585-.346.865-.537.091-.064.181-.129.27-.195.019-.014.022-.018.037-.029.005-.002.009-.006.014-.009.277-.082.555-.229.823-.458.118-.101.23-.208.348-.31-.053.223-.099.445-.154.668"/><path d="m46.34 54.953c-1.103 0-2.378 1.02-2.229 2.229.212 1.727.048 3.326-.478 4.98-.872 2.748 3.433 3.915 4.299 1.185.63-1.986.892-4.092.637-6.165-.148-1.206-.903-2.229-2.229-2.229"/><path d="m54.42 56.35c-.04-2.872-4.497-2.876-4.458 0 .035 2.702.799 5.313 2.882 7.149 2.147 1.893 5.312-1.248 3.151-3.152-1.227-1.083-1.554-2.401-1.575-3.997"/></g></svg>