<svg xmlns="http://www.w3.org/2000/svg" viewBox="0 0 100 100" enable-background="new 0 0 100 100"><g fill="#1d1d1b"><path d="m95.92 46.819c.001-.242 0-.488-.054-.734-.337-1.526-1.11-2.999-2.318-4.01-1.134-.953-2.398-1.434-3.794-1.694-.381-.239-.824-.383-1.299-.377-2.751.034-5.05.951-6.659 3.238-.371.526-.429 1.172-.28 1.776-.492.925-.819 1.934-.936 3.079-.173 1.701.699 3.331 1.816 4.619-3.729 5-9.552 9.398-16.1 7.766-3.984-.993-6.222-5.371-7.572-8.862-3.115-8.05-3.514-16.953-4.318-25.494.956-.221 1.888-.605 2.763-1.214.261-.182.486-.4.672-.64.17-.153.332-.318.475-.507 1.239-1.638 1.596-3.758 1.341-5.762-.008-.062-.024-.12-.035-.181.001-.242 0-.488-.054-.734-.337-1.526-1.11-2.999-2.318-4.01-1.134-.953-2.398-1.434-3.794-1.694-.381-.239-.824-.383-1.299-.377-2.751.034-5.05.951-6.659 3.238-.371.526-.429 1.172-.28 1.776-.492.925-.819 1.934-.936 3.079-.225 2.208 1.308 4.302 2.857 5.674.392.347.814.531 1.235.608.258.12.521.217.784.316-1.25 9.821-2.662 20.61-8.06 29.09-5.738 9.01-15.538 5.42-23.07.836 1.157-1.619 1.495-3.673 1.248-5.622-.008-.062-.024-.12-.035-.181.001-.242 0-.488-.054-.734-.337-1.526-1.11-2.999-2.318-4.01-1.134-.953-2.398-1.434-3.794-1.694-.381-.239-.824-.383-1.299-.377-2.751.034-5.05.951-6.659 3.238-.371.526-.429 1.172-.28 1.776-.492.925-.819 1.934-.936 3.079-.225 2.208 1.308 4.302 2.857 5.674.392.347.814.531 1.235.608 1.392.646 2.867.989 4.324.966 2.615 6.454 5.196 12.919 8.275 19.17.111.226.245.409.388.571.094.626.474 1.208 1.259 1.576 17.498 8.204 37.11 6.732 55.18 1.252.778-.236 1.273-.722 1.532-1.299.53-.27.978-.735 1.214-1.447 2.524-7.621 4.896-15.29 7.341-22.936 2.048.314 4.127-.041 5.964-1.32.261-.182.486-.4.672-.64.17-.153.332-.318.475-.507 1.239-1.638 1.596-3.758 1.341-5.762-.004-.06-.021-.118-.032-.179m-81.915 4.676c-.314 1.286-1.572 2.256-3.24 1.597-3.959-1.562-.368-7 2.495-4.165.752.746.95 1.725.745 2.568m39.639-34.568c.753.746.952 1.725.746 2.568-.314 1.286-1.572 2.256-3.24 1.597-3.96-1.563-.369-7 2.494-4.165m21.887 59.32c-16.415 4.896-34.465 6.583-50.44-.765-.045-.164-.104-.329-.187-.496-2.101-4.265-3.953-8.634-5.753-13.03 8.08 4.046 17.214 5.605 24.19-1.934 4.101-4.435 6.466-10.349 7.987-16.574.935 5.24 2.421 10.317 5.113 14.872 2.557 4.328 6.585 6.979 11.566 7.47 4.488.443 8.592-1.187 12.09-3.774-1.502 4.75-3.01 9.498-4.57 14.228m15.15-27.755c-.314 1.286-1.572 2.256-3.241 1.597-3.959-1.562-.368-7 2.495-4.165.753.746.952 1.725.746 2.568"/><path d="m60.12 67.976c.012-.29 0-.583-.065-.877-.403-1.825-1.327-3.585-2.771-4.798-1.356-1.139-2.867-1.715-4.535-2.025-.456-.285-.985-.458-1.552-.451-3.289.04-6.03 1.137-7.96 3.871-.443.629-.513 1.401-.335 2.124-.588 1.105-.979 2.312-1.119 3.681-.269 2.639 1.563 5.143 3.416 6.783.468.414.973.634 1.477.727 3.435 1.592 7.287 1.687 10.513-.558.312-.217.581-.478.804-.765.203-.183.397-.38.567-.606 1.481-1.958 1.908-4.493 1.604-6.888-.011-.075-.031-.145-.044-.218m-6.26 2c-.376 1.538-1.879 2.697-3.874 1.909-4.733-1.868-.44-8.371 2.982-4.979.901.892 1.139 2.063.892 3.07"/><path d="m28.75 68.75c-3.224 0-3.224 5 0 5s3.224-5 0-5"/><path d="m70.25 74.5c3.224 0 3.224-5 0-5s-3.224 5 0 5"/></g></svg>