<svg xmlns="http://www.w3.org/2000/svg" viewBox="0 0 100 100" enable-background="new 0 0 100 100"><g fill="#1e1e1c"><path d="m82.73 28.855c-.181-5.491-.282-12.909-.228-18.404.002-.245-.037-.461-.093-.664.107-1.197-.596-2.461-2.129-2.421-19.354.508-38.704-.25-58.06-.28-1.61-.003-2.315 1.412-2.117 2.654-.064.216-.109.448-.106.712.292 23.09 1.086 56.28 1.111 79.38 0 .518.147.939.382 1.272.142.979.846 1.845 2.119 1.813 8.365-.208 16.734-.342 25.09-.752 7.45-.365 16.734.124 23.856-2.307 2.521-.861 4.776-2.134 6.71-3.977 3.534-3.369 4.741-7.892 5.05-12.658.292-4.577-.247-9.379-.354-13.597-.275-10.895-.872-19.875-1.231-30.768m-12.246 41.19c-1.362.008-2.678 1.071-2.069 2.705 1.224 3.286 1.784 7.366-.099 10.509-2.276 3.801-6.338 3.698-10.2 4.185-2.362.298-4.873.14-7.253.207-1.853.052-25.314.624-25.314.716-.055-22.23-.79-54.55-1.087-76.78 17.868.077 35.733.691 53.601.309-.068 18.253 1.55 44.639 1.646 59.06-2.772-.875-5.637-1.244-8.595-1.046-.231.014-.436.067-.63.134m1.746 15.196c1.794-3.058 2.242-6.81 1.309-10.877 2.161.084 4.292.501 6.31 1.356.008.025.015.052.023.077-.654 4.819-3.703 7.776-7.642 9.444"/><path d="m42.17 53.58c-6.85.395-9.326-12.763-2.333-13.667 2.836-.366 2.872-4.871 0-4.5-12.881 1.664-10.3 23.395 2.333 22.667 2.884-.166 2.9-4.667 0-4.5"/><path d="m53.03 42.81c-1.246-2.18-.889-2.932 1.563-3.641 2.782-.805 1.598-5.147-1.196-4.339-5.31 1.535-6.825 5.47-4.252 10.251 1.049 1.95 2.45 3.688 3.512 5.632 1.266 2.319-.614 2.28-2.995 2.536-2.854.307-2.883 4.811 0 4.5 5.335-.575 9.744-3.13 7.07-8.928-.982-2.131-2.543-3.977-3.704-6.01"/><path d="m65.03 42.81c-1.246-2.18-.889-2.932 1.563-3.641 2.782-.805 1.598-5.147-1.196-4.339-5.31 1.535-6.825 5.47-4.252 10.251 1.049 1.95 2.45 3.688 3.512 5.632 1.266 2.319-.614 2.28-2.995 2.536-2.854.307-2.883 4.811 0 4.5 5.335-.575 9.744-3.13 7.07-8.928-.982-2.131-2.543-3.977-3.704-6.01"/></g></svg>