<svg xmlns="http://www.w3.org/2000/svg" viewBox="0 0 100 100" enable-background="new 0 0 100 100"><g fill="#1d1d1b"><path d="m52.582 7.605c-23.874-2.585-44.589 15.796-42.92 40.32.108 1.586 1.278 2.461 2.516 2.63.32.355.762.637 1.361.778.869.205 1.744.403 2.621.597 2.222 12.55 5.203 24.882 9.78 36.798-.083 1.141.499 2.235 1.993 2.465 14.394 2.214 28.75 3.272 43.18.738 1.107-.194 1.714-.858 1.921-1.655.472-.303.871-.756 1.119-1.385 4.776-12.11 7.312-24.786 8.196-37.746 1.184-.403 2.361-.828 3.526-1.288.505-.199.886-.502 1.178-.855 1.055-.293 1.941-1.138 1.961-2.553.302-20.69-16.348-36.672-36.429-38.847m16.504 79.08c-12.724 2.146-25.546 1.266-38.24-.613-4.01-10.699-6.761-21.725-8.853-32.938 1.686.32 3.387.61 5.095.884.011.062.001.12.024.184 1.457 6.19 2.932 12.372 4.798 18.454 1.044 3.403 6.388 1.951 5.338-1.472-1.652-5.385-2.995-10.85-4.293-16.328 2.957.367 5.934.65 8.917.843.372 5.914.689 12.543 2.587 18.06 1.153 3.355 6.502 1.914 5.338-1.472-1.726-5.02-2.038-10.951-2.373-16.344 3.552.086 7.103.023 10.632-.2.61 5.897.295 11.77-.409 17.648-.424 3.54 5.117 3.499 5.536 0 .722-6.02 1.042-12.04.369-18.09-.002-.02-.001-.037-.012-.057 4.444-.509 8.838-1.289 13.14-2.416-.942 11.625-3.373 22.952-7.584 33.848m-53.965-40.662c-.323-20.717 17.362-35.603 37.833-32.829 16.449 2.229 29.932 14.911 30.506 31.669-21.516 8.165-46.34 6.33-68.34 1.16"/><path d="m26.648 29.554c-1.06 1.805-1.892 3.731-2.952 5.536-1.812 3.085 2.974 5.87 4.78 2.794 1.06-1.805 1.893-3.731 2.953-5.536 1.812-3.085-2.974-5.87-4.781-2.794"/><path d="m47.668 27.919c.828-1.414.212-2.884-.993-3.787-1.422-1.066-2.845-2.136-4.429-2.953-1.341-.691-2.995-.359-3.787.993-.732 1.249-.347 3.097.993 3.787 1.584.816 3.01 1.887 4.429 2.953 1.21.907 3.09.197 3.787-.993"/><path d="m64.39 24.87c-1.405-.823-2.896-.22-3.787.993-1.052 1.431-1.901 2.997-2.953 4.429-.896 1.218-.206 3.085.993 3.787 1.405.823 2.896.22 3.787-.993 1.052-1.431 1.9-2.997 2.952-4.429.896-1.218.207-3.084-.992-3.787"/><path d="m73.5 36.555c-.246-.111-.49-.227-.732-.347-.597-.299-1.173-.638-1.731-1-1.264-.827-3.054-.259-3.787.993-.792 1.351-.267 2.963.993 3.787 1.351.883 2.827 1.597 4.352 2.124 1.426.494 3.02-.55 3.405-1.933.42-1.526-.509-2.912-1.933-3.405-.073-.025-.47-.182-.567-.215"/><path d="m47.75 38.22c-.369.369-.738.738-1.107 1.107-1.066 1.066-1.066 2.848 0 3.915 1.066 1.066 2.848 1.066 3.915 0 .369-.369.738-.738 1.107-1.107 1.066-1.066 1.066-2.848 0-3.915-1.067-1.066-2.849-1.066-3.915 0"/></g></svg>