<svg xmlns="http://www.w3.org/2000/svg" viewBox="0 0 100 100" enable-background="new 0 0 100 100"><g fill="#1d1d1b"><path d="m45.616 12.198c-.669-3.591-6.132-2.066-5.466 1.507.688 3.692-.17 6.541-2.336 8.71-.001-3.438-.026-6.875-.033-10.314-.006-3.655-5.675-3.656-5.669 0 .006 3.297.025 6.594.039 9.89-1.512-2.953-1.967-6.303-1.456-10.173.477-3.616-5.198-3.57-5.669 0-.994 7.531 1.458 14.252 7.107 19.18-.03 3.709-.089 8.552-.246 12.26-.258.316-.45.724-.524 1.258-1.889 13.557-5.365 30.565-3.401 44.31.142.992.664 1.583 1.327 1.861.329.338.735.594 1.22.685 1.571.296 3.128.384 4.722.385.049 0 .094-.012.142-.015.048.002.093.015.142.015 1.583-.0001 3.17-.03 4.722-.385.289-.066.545-.194.782-.348.839-.415 1.498-1.206 1.582-2.385 1.01-14.12-1.947-31.531-4.92-45.26-.03-.137-.071-.261-.113-.383.161-3.888.217-8.91.242-12.799.087-.272.101-.553.079-.835 6.512-3.558 9.106-9.76 7.727-17.16m-8.547 73.865c-.519.015-1.038.018-1.556.018-.048 0-.094.012-.142.015-.048-.003-.093-.015-.142-.015-.57 0-1.14-.003-1.711-.022-.08-.003-.16-.011-.24-.016-.947-8.205.225-19.883 1.603-28.08 1.486 8.162 2.499 19.793 2.188 28.1"/><path d="m66.745 11.228c.023-.19.022-.381-.003-.573-.026-1.352-.949-2.117-2-2.286-.536-.135-1.135-.098-1.753.222-13.849 7.159-13.08 28.43-2.256 37.926.241.212.496.353.753.459-.044 2.243-.096 4.485-.17 6.725-.366.293-.636.743-.725 1.384-1.666 11.958-4.732 23.958-3 36.08.125.875.585 1.396 1.17 1.642.29.298.648.524 1.076.604 1.386.261 2.759.339 4.165.339.043 0 .083-.011.125-.013.042.002.082.013.125.013 1.396 0 2.796-.026 4.165-.339.255-.058.481-.171.69-.307.74-.366 1.322-1.064 1.396-2.103.873-12.256-1.636-24.421-4.216-36.34.508-14.454.275-28.968.458-43.43m-5.16 28.765c-5.02-7-5.725-17.941.114-24.2-.061 8.06-.035 16.13-.114 24.2m4.04 48.741c-.457.014-.916.016-1.373.016-.043 0-.083.011-.125.013-.042-.002-.082-.013-.125-.013-.503 0-1.01-.003-1.509-.02-.071-.002-.141-.001-.212-.014-.835-7.237.198-14.537 1.414-21.765 1.311 7.198 2.204 14.457 1.93 21.783"/></g></svg>