<svg xmlns="http://www.w3.org/2000/svg" viewBox="0 0 100 100" enable-background="new 0 0 100 100"><g fill="#1d1d1b"><path d="m36.06 7.592c-35.21 5.279-40.06 55.654-15.463 75.65-2.095 1.01-4.198 1.997-6.319 2.948-2.824 1.266-3.472 5.313-2.036 7.764 1.687 2.879 4.94 3.301 7.764 2.036 5.175-2.32 10.251-4.842 15.321-7.377 1.299-.649 2.088-1.56 2.508-2.569 1.154-1.382 1.551-3.316 1.234-5.258-.743-4.581-1.223-9.18-1.499-13.812-.435-7.271-11.787-7.314-11.349 0 .125 2.093.308 4.179.519 6.262-16.548-15.707-13.513-50.822 12.337-54.698 7.219-1.082 4.14-12.02-3.02-10.943"/><path d="m74.38 17.537c2.095-1.01 4.198-1.997 6.32-2.948 2.823-1.266 3.471-5.313 2.035-7.764-1.687-2.879-4.94-3.301-7.764-2.036-5.174 2.32-10.25 4.842-15.32 7.377-1.299.649-2.088 1.56-2.509 2.569-1.154 1.382-1.55 3.316-1.234 5.258.744 4.581 1.223 9.18 1.5 13.812.435 7.271 11.786 7.314 11.349 0-.125-2.093-.308-4.179-.519-6.262 16.547 15.707 13.511 50.822-12.339 54.697-7.218 1.082-4.14 12.02 3.02 10.943 35.21-5.278 40.06-55.653 15.464-75.65"/></g></svg>