<svg xmlns="http://www.w3.org/2000/svg" viewBox="0 0 100 100" enable-background="new 0 0 100 100"><g fill="#1d1d1b"><path d="m74.75 11.985c-8.08-6.03-17.276-9.162-26.91-8.323-42.543-7.199-55.6 51.34-29.379 78.46 17.655 18.26 47.16 15.825 64.19-1.653 19.451-19.958 13.461-52.53-7.904-68.49m-47.548 70.68c-6.104-3.992-10.549-9.719-13.421-16.248 10.252.12 20.491.749 30.745.794.625.003 1.102-.223 1.446-.565 3.131 1.834 6.752 2.719 10.163 1.034.755-.373 1.34-.848 1.807-1.384.178.052.367.09.577.096 9.08.273 18.15.869 27.23.847-10.181 21.901-38.867 28.3-58.55 15.426m12.02-42.628c4.523 5.7 8.946 11.483 14.01 16.718.11.115.226.208.343.291 1.096 2.029 2.829 5.914.227 6.949-2.775 1.105-6.02-1.023-8.156-2.898.0001-.231-.027-.474-.117-.737-2.293-6.715-4.284-13.523-6.306-20.323m49.723 5.641c.2 1.617.133 17.17-1.48 17.18-9.385.107-18.75-.502-28.13-.805-.042-6.257-5.05-10.344-8.739-14.741-5.02-5.98-9.642-12.301-14.775-18.19-.142-.163-.293-.286-.447-.389-1.449-1.124-4.117.036-3.42 2.239 3.212 10.152 5.973 20.445 9.412 30.524-.137.412-.15.86.021 1.294-9.758-.147-19.504-.701-29.26-.76-.993-.006-2.248-13.436-2.296-14.818-.173-4.923.511-9.817 1.953-14.518 1.861-6.068 4.651-11.846 9.09-16.407 4.985-5.126 11.9-6.389 18.688-6.737.819-.042 1.636-.071 2.447-.091 8.28-.211 17.05-.847 24.604 3.238 7.548 4.083 14.12 10.88 17.889 18.664 2.092 4.314 3.856 9.522 4.447 14.312"/><path d="m21.384 44.969c-1.244 0-2.5.002-3.733-.192-1.158-.182-2.311.278-2.648 1.504-.284 1.034.343 2.465 1.504 2.648 1.626.256 3.234.346 4.877.346 2.777 0 2.777-4.305 0-4.306"/><path d="m26.24 24.543c-1.318-.659-2.646-1.278-4.01-1.832-1.09-.441-2.364.471-2.648 1.504-.338 1.231.417 2.208 1.503 2.648.901.365 2.01.911 2.984 1.398 1.049.525 2.324.289 2.945-.772.564-.963.277-2.422-.772-2.946"/><path d="m41.489 15.07c-.762-2.665-4.917-1.531-4.152 1.145.547 1.913 1.115 3.813 1.884 5.651.453 1.082 1.407 1.845 2.648 1.504 1.022-.281 1.958-1.563 1.503-2.648-.768-1.839-1.336-3.739-1.883-5.652"/><path d="m62.03 15.663c-.952-.558-2.434-.284-2.945.772-.915 1.891-1.525 3.882-2.101 5.896-.765 2.675 3.39 3.809 4.152 1.145.471-1.646.918-3.321 1.667-4.868.511-1.056.298-2.318-.773-2.945"/><path d="m73.68 28.11c-.475.474-.95.948-1.436 1.411-.235.225-.476.444-.717.661-.119.105-.238.209-.359.312.025-.022-.568.457-.282.239-.931.711-1.421 1.839-.772 2.945.538.919 2.01 1.486 2.945.772 1.316-1.01 2.496-2.128 3.665-3.297.83-.829.83-2.215 0-3.044-.829-.828-2.215-.828-3.044.0001"/><path d="m73.856 47.929c0 1.056.987 2.308 2.153 2.153 1.966-.261 3.941-.269 5.92-.269 2.777-.0001 2.777-4.306 0-4.305-1.979 0-3.954.008-5.92.269-1.163.154-2.153.861-2.153 2.152"/><path d="m50.53 62.11c2.673 0 2.673-4.145 0-4.145s-2.673 4.145 0 4.145"/></g></svg>