<svg xmlns="http://www.w3.org/2000/svg" viewBox="0 0 100 100" enable-background="new 0 0 100 100"><path d="m73.57 12.736c-4.578-1.92-9.569-3.188-14.281-4.272-4.633-1.066-9.433-1.606-14.267-1.606-4.931 0-9.891.562-14.743 1.668-5.218 1.19-10.69 3.317-15.825 6.151-1.696.935-1.744 2.391-1.621 3.175l.013.082-.015.082c-.046.265-.065.512-.056.755.722 20.12.782 40.07.783 62.2 0 .349.055.69.174 1.074l.021.113c.051.751.438 1.412 1.148 1.966 9.09 7.08 21.2 11.136 33.23 11.136 6.282 0 12.191-1.093 17.564-3.249 4.913-1.972 9.823-4.772 13.825-7.887.711-.554 1.098-1.215 1.149-1.966l.021-.112c.118-.386.173-.727.173-1.075 0-16.614.03-32.858.396-48.93.033-1.445.164-2.949.302-4.542.259-2.989.527-6.081.104-8.75-.277-1.757-3.305-4.01-8.099-6.02m-50.18 5.216c6.851-2.856 14.167-4.305 21.747-4.305 8.262 0 16.48 1.699 24.427 5.05l.912.385-.851.506c-6.103 3.629-13.519 5.547-21.444 5.547-8.516 0-17.336-2.23-24.836-6.281l-.922-.498.967-.404m50.679 56.71c-.008 1.623-.017 3.245-.017 4.868 0 .898-1.323 2.081-7.776 4.936l-.379.169c-2.938 1.325-6.03 2.287-9.196 2.857-2.574.463-5.187.744-7.765.836-.633.022-1.268.034-1.901.034-3.492 0-6.924-.348-10.201-1.032-2.891-.604-5.682-1.508-8.297-2.687l-.319-.143c-6.885-3.057-7.834-4.195-7.834-4.971 0-1.565-.009-3.13-.018-4.694l-.017-4.18.717.345c8.645 4.14 17.953 6.327 26.918 6.327 9.08 0 17.607-2.149 25.36-6.389l.742-.406-.017 4.13m.072-18.15c-.008 1.059-.001 2.117-.013 3.175l-.001 2.812-.222.147c-7.872 5.237-16.66 7.894-26.12 7.894-8.807 0-17.911-2.41-26.327-6.971-.247-.134-.499-.236-.77-.314l-.36-.103-.014-3.652c-.004-1.465-.008-2.931-.02-4.396l-.005-.702.665.225c10.772 3.633 20.909 5.475 30.13 5.475 7.956 0 15.488-1.365 22.387-4.059l.687-.269-.005.738m.172-15.965c-.025 1.528-.039 3.057-.052 4.585l-.032 3.18-.281.134c-6.852 3.263-14.499 4.918-22.729 4.918-9.167 0-19.21-1.989-30.695-6.079l-.328-.117-.033-3.151c-.013-1.498-.026-2.996-.053-4.493l-.015-.844.747.392c8.252 4.331 17.671 6.62 27.24 6.62 8.78 0 17.605-1.939 25.521-5.607l.724-.335-.013.797m.338-15.294c-.041 1.417-.071 2.833-.102 4.25l-.054 2.458-.25.139c-7.992 4.435-17.03 6.779-26.15 6.78-.0001 0-.002 0-.002 0-9.79 0-19.282-2.693-27.453-7.788-.109-.068-.218-.115-.326-.164l-.4-.184-.05-2.241c-.02-.962-.04-1.925-.068-2.888l-.024-.865.762.411c8.141 4.39 17.448 6.71 26.916 6.711 9.657 0 18.802-2.442 26.444-7.06l.785-.475-.027.918" fill="#1d1d1b"/></svg>