<svg xmlns="http://www.w3.org/2000/svg" viewBox="0 0 100 100" enable-background="new 0 0 100 100"><g fill="#1e1e1c"><path d="m95.05 31.558c-.068-.927-.625-1.524-1.307-1.802-.281-.161-.615-.264-1.018-.264-1.071-.0001-2.142-.011-3.213-.014-.114-1.577-.385-3.14-.76-4.678-.265-1.087-1.142-1.5-2-1.416-.133-.029-.274-.048-.426-.051-12.653-.247-25.306-.457-37.957-.015-.373-.969-.75-1.871-1.13-2.55-.294-.526-.706-.817-1.149-.94-.304-.21-.684-.342-1.151-.342-8.771 0-22.707-.024-31.475-.203-.315-.195-.68-.314-1.071-.314h-3.617c-.992 0-1.838.729-2.026 1.672-.153.26-.265.559-.298.912-1.68 17.55.423 42.28.258 59.857-.013 1.404 1.125 2.06 2.211 1.985.119.034.239.066.372.081 25.984 3.044 57.32 3.376 83.43 4.391 1.182.046 1.835-.742 1.967-1.641.226-.31.362-.709.357-1.2-.187-16.11 1.18-37.38 0-53.47m-9.84-4.25c.135.713.239 1.428.3 2.151-11.667-.068-23.333-.256-34.998-.464-.223-.489-.456-1.085-.695-1.726 11.795-.366 23.594-.189 35.393.039m5.705 56.36c-24.992-.943-55.2-1.34-80.07-4.151.009-16.346-1.739-39.849-.41-56.17.05.004.095.017.148.018 9.45.232 24.07.256 33.52.258 1.062 1.868 2.157 5.725 2.974 7.714.162.393.394.74.685 1 .332.444.849.759 1.566.771 13.905.248 27.81.481 41.718.509.903 14.953-.229 35.08-.133 50.05"/><path d="m73.58 50.586c-.178-.05-.368-.086-.581-.086h-43.25c-1.654 0-2.242 1.642-1.774 2.822-.049.288-.031.607.096.959.666 1.856-.041 3.767.179 5.718.122 1.083.818 2 2 2 .086 0 .173-.015.259-.028.08.001.155.027.241.028 13.833.262 28.663.728 42.5.75 1.282.002 1.926-.985 1.933-1.979.04-.161.067-.332.067-.521 0-2.588.03-5.17.25-7.75.111-1.32-.89-1.952-1.92-1.913m-2.32 8.147c-12.754-.058-26.502-.454-39.25-.706-.161-1.19.634-2.37.32-3.527h39.04c-.073 1.41-.095 2.821-.105 4.233"/></g></svg>