<svg xmlns="http://www.w3.org/2000/svg" viewBox="0 0 100 100" enable-background="new 0 0 100 100"><g fill="#1e1e1c"><path d="m28.13 37.11c3.047 2.16 6.497 3.301 9.977 3.301 4.555 0 9.04-1.915 12.633-5.393.958-.928 1.96-2.01 2.229-2.333.117-.14.224-.301.316-.476 3.45-6.516 2.873-13.256-1.582-18.491-1.057-1.242-1.994-2.295-2.331-2.621-.173-.167-.386-.316-.631-.442-3.101-1.595-6.241-2.404-9.333-2.404-4.25 0-8.354 1.507-12.196 4.478-.173.134-.321.28-.439.432-.274.353-1.16 1.563-1.951 2.723-5.11 7.496-3.749 16.224 3.308 21.23m2.212-20.229c.078-.083.148-.17.212-.258.27-.374 1.428-1.382 2.772-2.057 2.94-1.477 6.229-1.794 9.507-.92 1.537.41 3.662 1.722 4.735 2.925 2.775 3.108 3.651 6.726 2.534 10.461-.42 1.405-1.105 2.651-1.339 2.898-2.546 3.419-6.11 5.274-10.08 5.274-4.848 0-9.448-2.82-11.186-6.859-.933-2.171-1.807-6.549 2.846-11.464"/><path d="m71.32 54.6c-.074-.765-.182-1.552-.321-2.334-1.444.008-2.91.014-4.406.018.158.61.237 1.257.274 1.953.126 2.336.312 4.669.427 7.01.23 4.716.38 9.433.496 14.15.065 2.673.089 5.347.102 8.02-3.157.003-6.312.036-9.466.199-.17-6.761-.514-15.238-.798-20.309-.155-2.775-4.484-2.79-4.328 0 .353 6.302.801 17.889.889 24.875-9.916-.037-19.831-.193-29.747-.227-.031-6.96-.162-18.16-.174-24.288-.005-2.791-4.333-2.791-4.328 0 .009 4.56.084 11.939.135 18.284-3.497.161-6.997.197-10.497.203-.489-9.718-.113-19.432.081-29.16.881-1.817 2.274-3.14 4.211-3.778 6.137-.647 12.306-.912 18.474-1 6.191-.09 12.383.003 18.573.068.599.006 1.198-.0001 1.797-.0001-.005-.05-.02-.096-.023-.147l-.298-4.165c-2.937-.028-5.874-.065-8.811-.091-6.372-.056-12.748-.054-19.11.232-3.574.161-7.145.409-10.703.787-.273-.031-.57-.009-.891.089-3.094.945-5.72 3.069-7.06 6.04-.124.275-.204.56-.239.844-.141.274-.23.594-.237.969-.203 10.345-.633 20.677 0 31.02.055.89.54 1.492 1.165 1.813.32.304.758.506 1.329.506 4.094 0 8.186-.018 12.275-.207.009 1.373.015 2.647.017 3.746.0001.382.088.706.228.984.246.702.852 1.263 1.82 1.264 11.573.013 23.14.238 34.718.252 1.811.002 2.354-1.952 1.639-3.138-.004-.457-.001-.942-.017-1.445 3.314-.169 6.631-.196 9.951-.197.524 0 .937-.169 1.25-.431 1.189.177 2.529-.509 2.526-2.063-.014-6.773-.285-13.524-.495-20.292-.102-3.349-.098-6.717-.419-10.05"/><path d="m94.15 35.21c-.198-.06-.414-.097-.654-.097-.066 0-.134.003-.203.009-9.753.824-17.819.933-26.758.933-2.909 0-5.91-.012-9.09-.014 0 0-.0001 0-.002 0-.298 0-.559.057-.797.141-.171-.033-.345-.05-.518-.05-1.146 0-2.237.731-2.132 2.208l.402 5.63.288 4.03c.007.102.031.193.048.288.225 1.221 1.25 1.862 2.278 1.914.204.057.419.097.663.097 2.764 0 5.391-.0001 7.946-.007 1.662-.004 3.294-.001 4.906-.018 7.732-.042 15.07-.15 23.687-.434 1.197-.039 1.903-.819 2.132-1.724.126-.292.194-.634.167-1.035-.213-3.216-.23-6.434-.23-9.655.0001-1.412-1.039-2.143-2.13-2.212m-27.17 10.472c-2.51.008-5.102.012-7.859.012-.043-.599-.086-1.198-.128-1.797-.078-1.086-.155-2.171-.233-3.256 2.57.003 5 .001 7.356.001 8.622 0 16.183-.095 25.578-.815.012 1.822.059 3.642.142 5.462-9.147.268-16.527.356-24.856.384"/></g></svg>