<svg xmlns="http://www.w3.org/2000/svg" viewBox="0 0 100 100" enable-background="new 0 0 100 100"><g fill="#1e1e1c"><path d="m93.95 31.558c-.068-.927-.625-1.524-1.307-1.802-.281-.161-.615-.264-1.018-.264-1.071-.0001-2.142-.011-3.213-.014-.114-1.577-.385-3.14-.76-4.678-.265-1.087-1.142-1.5-2-1.416-.133-.029-.274-.048-.426-.051-12.653-.247-25.306-.457-37.958-.015-.373-.969-.75-1.871-1.13-2.55-.294-.526-.706-.817-1.149-.94-.304-.21-.684-.342-1.151-.342-8.771 0-22.707-.024-31.475-.203-.315-.195-.68-.314-1.071-.314h-3.615c-.992 0-1.838.729-2.026 1.672-.154.258-.265.557-.299.911-1.68 17.55.424 42.28.258 59.857-.013 1.404 1.125 2.06 2.211 1.985.119.034.24.066.372.081 25.984 3.044 57.32 3.376 83.43 4.391 1.182.046 1.835-.742 1.967-1.641.226-.31.362-.709.357-1.2-.187-16.11 1.181-37.38 0-53.47m-9.84-4.25c.134.713.239 1.428.3 2.151-11.667-.068-23.333-.256-34.998-.464-.223-.489-.456-1.085-.695-1.726 11.796-.366 23.595-.189 35.393.039m5.705 56.36c-24.993-.943-55.2-1.34-80.07-4.151.009-16.346-1.739-39.849-.41-56.17.05.004.095.017.148.018 9.45.232 24.07.256 33.521.258 1.062 1.868 2.156 5.725 2.974 7.714.162.393.394.74.685 1 .332.444.849.759 1.566.771 13.905.248 27.81.481 41.718.509.903 14.953-.228 35.08-.133 50.05"/><path d="m68.31 67.49c-2.935-3.244-5.851-6.502-8.669-9.847l8.519-8.519c.946-.946.646-2.156-.115-2.86-.067-.117-.145-.233-.241-.344-2.079-2.424-4.33-4.685-6.587-6.943-2.032-2.033-4.149 1.941-5.416 3.119-2.583 2.402-3.346 3.077-5.928 5.479-2.384-2.402-5.476-5.563-7.735-8.08-.54-.602-1.186-.739-1.768-.587-.484-.025-.99.14-1.437.587l-5.875 5.875c-.912.912-.668 2.071.032 2.785.086.144.189.285.324.42 2.571 2.571 4.855 5.896 7.31 8.577-3.098 3.339-5.278 6.602-8.354 9.962-1.119 1.222-.357 2.825.795 3.324 1.774 2.069 3.688 4.01 5.614 5.934.713.713 1.576.715 2.26.35.266-.099.526-.265.767-.528 3.02-3.312 6.161-6.504 9.324-9.676 2.693 3.231 5.488 6.371 8.301 9.498.75.833 1.702.774 2.407.285.333-.061.666-.201.976-.463 2.248-1.9 3.617-3.225 5.852-5.14 1.034-.885.736-2.079-.058-2.78-.079-.146-.174-.288-.298-.425m-7.141 4.434c-2.833-3.157-5.643-6.333-8.325-9.621-.553-.677-1.238-.794-1.845-.585-.46-.004-.937.162-1.359.585-3.204 3.205-6.393 6.423-9.477 9.743-1.184-1.199-2.337-2.428-3.456-3.688 3.053-3.276 5.177-6.485 8.194-9.794.857-.941.604-2.107-.08-2.824-.074-.13-.165-.257-.276-.381-2.411-2.691-4.668-6.01-7.216-8.566l3.154-3.154c2.444 2.657 5.713 5.962 8.27 8.519 2.842 2.833 10.299-9.645 11.364-8.564 1.304 1.323 2.595 2.657 3.834 4.04l-8.104 8.103c-.175.175-.295.361-.39.549-.538.726-.691 1.776.034 2.656 2.865 3.475 5.859 6.837 8.875 10.18-1.312 1.177-1.876 1.634-3.197 2.801"/></g></svg>