<svg xmlns="http://www.w3.org/2000/svg" viewBox="0 0 100 100" enable-background="new 0 0 100 100"><g fill="#1d1d1b"><path d="m73.74 33.779c-4.406 0-8.567 1.414-12.08 4.097-2.709-11.358-13.417-19.519-25.782-19.519-1 0-2.02.055-3.01.164-7.08.772-12.644 4.628-15.667 10.855-3.178 6.546-2.859 14.462.788 20.885-.124-.002-.248-.004-.372-.004-7.915 0-13.937 5.264-14.984 13.1-.493 3.687.418 6.882 2.709 9.5 3.837 4.384 10.54 5.946 15.534 5.946 1.149 0 2.273-.078 3.268-.223.095.013.19.024.294.024 16.86 0 35.97 0 54.809-.259.184-.003.37-.025.564-.07.266.037.543.04.845-.012 6.255-1.087 11.246-4.607 14.05-9.913 3.164-5.979 3.212-13.61.13-20.415-3.835-8.466-12.313-14.155-21.09-14.155m-50.28 22.421c1.18.188 2.432-.568 2.889-1.718.368-.925.133-1.906-.627-2.624-5.274-4.98-7.05-12.04-4.647-18.418 2.261-5.992 7.638-9.711 14.386-9.949 11.867-.41 21.688 8.754 21.713 20.07.003 1.645 1.297 2.505 2.573 2.505 1.148 0 2.09-.636 2.433-1.631 3.222-3.599 7.285-5.5 11.755-5.5 6.984 0 13.626 4.761 16.528 11.847 2.171 5.299 2.059 10.822-.308 15.15-2.117 3.871-5.758 6.389-10.534 7.284-.118-.017-.222-.03-.398-.027-18.829.26-37.937.26-54.794.26-.182 0-.36.018-.542.055-.194-.013-.396-.008-.609.025-.993.16-2.02.241-3.057.241-5.733 0-12.446-2.507-12.497-9.57-.016-2.278.772-4.286 2.281-5.805 1.853-1.866 4.684-2.937 7.767-2.937 1.16 0 2.293.153 3.371.458.187.053.38.083.586.093.52.254 1.099.335 1.731.19"/><path d="m31.736 71.859c1.547 0 3.053-.619 4.24-1.744 1.962-1.859 4.01-3.807 6.083-5.81 2.147 1.997 4.051 3.727 5.853 5.321 1.16 1.026 2.542 1.569 3.995 1.569 2.549 0 4.829-1.671 5.809-4.257 1.01-2.655.308-5.562-1.777-7.406-1.504-1.33-3.052-2.733-4.809-4.36 1.023-1.077 1.941-2.067 2.822-3.042 1.806-1.999 2.241-4.786 1.136-7.274-1.057-2.38-3.296-3.918-5.704-3.918-1.668 0-3.246.729-4.443 2.054-.96 1.063-1.974 2.152-3.128 3.358-.659-.632-1.317-1.263-1.975-1.895l-1.534-1.473c-1.219-1.169-2.8-1.814-4.45-1.814-2.71 0-5.206 1.681-6.212 4.183-.934 2.322-.36 4.871 1.498 6.653l2.05 1.967c.512.492 1.025.984 1.537 1.476-1.825 1.761-3.618 3.465-5.327 5.085-1.982 1.878-2.586 4.618-1.577 7.15.995 2.499 3.372 4.177 5.913 4.177m-1.586-8.423c2.797-2.65 5.585-5.309 8.335-8.01-2.195-2.099-4.384-4.205-6.576-6.307-1.73-1.66.028-3.949 1.945-3.949.576 0 1.167.207 1.681.7 2.126 2.04 4.25 4.082 6.38 6.117 2.033-2.065 4.045-4.154 5.995-6.312.468-.518.981-.735 1.474-.735 1.739 0 3.231 2.704 1.6 4.51-1.81 2-3.673 3.946-5.557 5.869 2.59 2.439 5.199 4.856 7.861 7.211 1.869 1.653.462 4.666-1.382 4.666-.437 0-.898-.169-1.345-.565-2.9-2.565-5.741-5.2-8.559-7.86-2.891 2.851-5.832 5.65-8.778 8.441-.481.455-.996.648-1.489.648-1.85-.0001-3.385-2.718-1.585-4.424"/></g></svg>