<svg xmlns="http://www.w3.org/2000/svg" viewBox="0 0 100 100" enable-background="new 0 0 100 100"><path d="m90.52 18.366c-4.611-3.764-8.866-7.862-13.225-11.866-1.185-1.088-2.629-1.063-3.745-.468-.974.52-2.02 2.037-2.757 2.859-6.51 7.235-13.204 14.301-20.68 20.693-.839.718-2.126.62-2.849-.215-6.317-7.297-11.852-15.11-17.23-23.01-.726-1.067-1.818-1.456-2.879-1.384-1.103.075-2.223.699-2.616.878-.229.103-.453.235-.671.4-4.685 3.55-9.564 6.863-14.457 10.166-.073.049-.14.102-.203.155-.108.092-1.068.571-1.635 1.519-.614 1.026-.669 2.35.372 3.479 7.998 8.672 15.53 17.693 23.496 26.389.746.814.661 2.037-.178 2.755-9.162 7.841-16.675 17.193-26.52 24.391-.578.423-.911.904-1.05 1.396-.267.946.243 2.219.533 2.733.158.28.384.553.689.811 4.535 3.84 8.709 8.01 12.986 12.08 1.164 1.109 2.61 1.107 3.738.529.982-.504 2.054-2 2.808-2.808 6.654-7.128 13.488-14.08 21.09-20.352.852-.703 2.135-.583 2.843.266 6.171 7.401 11.549 15.299 16.771 23.291.705 1.079 1.79 1.486 2.853 1.431 1.103-.057 2.234-.662 2.632-.834.23-.1.457-.227.678-.389 4.755-3.472 9.699-6.703 14.657-9.924.074-.049.142-.1.207-.153.109-.09 1.076-.552 1.662-1.488.635-1.016.717-2.34-.303-3.487-7.91-8.899-15.338-18.15-23.22-27.06-.732-.827-.643-2.071.186-2.801 9.123-8.04 16.498-17.618 26.289-25.05.57-.433.894-.919 1.022-1.413.248-.95-.288-2.214-.588-2.724-.163-.277-.393-.546-.704-.8m-8.094 3.814c-9.03 7.769-16.269 17.13-25.632 24.614-.407.326-.683.678-.848 1.041-.31.681-.349 1.96-.14 2.699.115.407.336.811.686 1.196 7.841 8.611 15.12 17.627 22.725 26.412.723.835.562 1.999-.36 2.605-2.761 1.814-5.504 3.65-8.207 5.535-.906.632-2.13.403-2.744-.515-4.855-7.263-9.944-14.377-15.667-21.1-.716-.841-1.646-2.415-2.558-3.038-1.143-.781-2.785-.996-4.183.06-8.886 6.713-16.647 14.425-24.14 22.392-.757.805-2.01.837-2.809.073-1.823-1.749-3.656-3.489-5.532-5.191-.817-.742-.785-1.889.065-2.594 9.18-7.619 16.606-16.859 26.12-24.19.38-.292.648-.609.824-.938.328-.612.416-1.842.189-2.558-.126-.394-.352-.784-.7-1.153-8.01-8.48-15.469-17.375-23.24-26.03-.738-.822-.599-1.988.313-2.611 2.723-1.859 5.428-3.738 8.091-5.667.895-.648 2.123-.442 2.754.465 4.999 7.183 10.229 14.213 16.09 20.839.731.828 1.69 2.383 2.612 2.991 1.158.763 2.806.952 4.183-.127 8.751-6.858 16.357-14.697 23.689-22.786.742-.818 1.997-.874 2.808-.124 1.858 1.72 3.728 3.43 5.637 5.101.833.728.823 1.875-.015 2.596" fill="#1d1d1b"/></svg>