<svg xmlns="http://www.w3.org/2000/svg" viewBox="0 0 100 100" enable-background="new 0 0 100 100"><path fill="#1d1d1b" d="m97.61 11.427c.031-1.626-.992-3.385-3.063-3.592-28.501-2.842-57.14-1.12-85.72-1.602-.642-.011-1.172.147-1.614.401-1.483.137-2.887 1.154-2.926 3.07-.523 26.08-.534 52.16-.534 78.25 0 .994.376 1.743.939 2.259.502.801 1.339 1.404 2.533 1.48 28.453 1.82 56.964 1.343 85.45 1.068 1.103-.011 1.902-.482 2.416-1.156.788-.498 1.345-1.352 1.323-2.583-.469-25.56 1.285-51.09 1.335-76.64-.0001-.349-.059-.658-.143-.948m-46.37 40.512c.965-.014 1.93-.032 2.895-.047-.983.846-1.982 1.674-2.994 2.485.033-.813.064-1.625.099-2.438m-.376 10.664c3.834-2.771 7.471-5.786 10.966-8.974.636-.58.928-1.235.989-1.883 1.443-.026 2.885-.049 4.328-.075-5.349 4.613-10.595 9.336-16.335 13.434.018-.834.029-1.668.052-2.502m-6.604-50.01c-.095.098-.194.187-.282.301-8.281 10.794-14.665 22.986-24.868 32.2-.09.081-.152.169-.229.253-1.598-.051-3.196-.095-4.793-.163 10.533-9.136 18.88-19.828 24.923-32.556 1.75-.012 3.499-.022 5.249-.033m-33.612.071c.968.013 1.936.012 2.904.021-1 1.162-1.982 2.342-2.956 3.528.019-1.183.03-2.366.052-3.549m-.177 11.992c.847.024 1.687-.256 2.222-.936 2.896-3.672 5.915-7.238 9.08-10.682.094-.103.16-.211.238-.316.233 0 .466-.003.699-.003-3.706 5.442-7.608 10.664-12.273 15.263.014-1.109.019-2.218.034-3.326m-.119 11.929c.159-.093.318-.188.472-.313 7.717-6.295 13.436-14.327 18.927-22.546.236-.354.372-.702.455-1.044.546-.003 1.093-.007 1.639-.001-5.499 10.523-12.666 19.469-21.527 27.312.013-1.134.023-2.267.034-3.399m34.17 49.947c-11.459-.121-22.915-.425-34.36-1.094 0-11.335.012-22.671.066-34.01 11.53.596 23.06.686 34.6.583-.495 11.499-.762 23-.305 34.517m.602-40.929c-1.68.016-3.359.013-5.04.018 1.884-2.189 3.672-4.454 5.389-6.774-.118 2.252-.239 4.504-.35 6.756m.926-18.11c-.476.239-.918.604-1.271 1.153-3.646 5.67-7.709 10.985-12.317 15.908-.309.33-.516.68-.661 1.035-1.349-.012-2.699-.015-4.048-.036 7.144-7.661 12.563-16.686 18.652-25.22-.106 2.387-.234 4.773-.355 7.158m4.66 45.4c8.555-5.476 15.915-12.476 23.671-19 .85-.715 1.131-1.562 1.044-2.369 1.358-.021 2.716-.037 4.074-.055-9.353 8.503-19.483 16.12-28.771 24.69-.005-1.09-.022-2.178-.018-3.265m29.918 13.565c3.056-2.74 6.147-5.441 9.328-8.03-.008 2.647-.005 5.294.028 7.942-3.118.031-6.237.061-9.356.09m9.402-16.16c-.102.063-.204.112-.306.19-5.979 4.602-11.6 9.609-17.206 14.655-.478.43-.754.904-.898 1.385-2.125.015-4.25.034-6.375.044 8.744-7.29 16.93-15.209 24.915-23.329-.052 2.351-.094 4.703-.13 7.05m.335-15.209c-.374.154-.723.378-1.022.678-.043.043-.079.093-.121.137-.6.085-1.203.373-1.748.931-10.254 10.499-20.787 20.731-32.383 29.753-1.386-.002-2.772.002-4.157-.004-.024-.607-.03-1.214-.05-1.821.181-.12.359-.259.531-.429 11.477-11.308 24.719-20.604 36.32-31.778.385-.371.64-.77.794-1.177.647-.004 1.293-.012 1.94-.014-.037 1.241-.069 2.483-.102 3.724m.293-10.135c-13.04.038-26.08.38-39.12.566.542-10.986 1.213-21.97 1.591-32.96 12.748.009 25.487.271 38.2 1.389-.047 10.338-.356 20.671-.669 31"/></svg>