<svg xmlns="http://www.w3.org/2000/svg" viewBox="0 0 100 100" enable-background="new 0 0 100 100"><g fill="#1d1d1b"><path d="m94.29 87.4c-22.697.025-57.889.853-81.29.71-1.104-.007-1.981-.91-1.965-2.01.338-22.448-1.166-52.993-2.444-74.891-.19-3.263-5.282-3.281-5.091 0 1.359 23.284 2.994 55.742 2.376 79.08-.005.198.009.384.04.558.054.305.321 1.309 1.019 1.843.381.292.876.476 1.487.483 24.21.301 61.66-.652 85.87-.679 3.282-.003 3.282-5.094-.0001-5.09"/><path d="m12.806 26.1c.753 18.685 2.233 37.33 2.903 56.02.004.106.013.208.028.306.025.168-.039 1.323.692 2.152.409.463 1.017.769 1.824.767 20.369-.058 50.91-1.933 71.27-.657.665.042 1.193-.135 1.587-.443.732-.575 1.246-1.959 1.282-2.728.02-.423-.078-.875-.33-1.336-2.976-5.436-5.581-11.05-8.03-16.732-.438-1.014-.743-2.185-.839-2.594-.055-.235-.148-.47-.284-.702-.653-1.115-2.351-1.722-3.482-.914-1.435 1.024-2.88 2.033-4.341 3.02-.916.617-2.124.337-2.672-.622-2.352-4.11-4.463-8.344-6.214-12.757-.075-.188-.165-.359-.267-.513-.176-.267-.511-.696-.751-.951-.148-.157-.312-.293-.491-.397-1.305-.765-2.647-.192-3.483.912-1.021 1.348-2.109 2.642-3.259 3.88-.752.809-1.89.695-2.509-.22-3.736-5.522-7.511-11.02-11.215-16.562-.021-.031-.044-.059-.067-.085-.04-.045-.146-.345-.31-.632-.1-.175-.219-.336-.36-.477-1.037-1.037-2.547-.903-3.6-.0001-1.195 1.024-2.36 2.057-3.468 3.146-.788.774-1.932.722-2.6-.158-5.01-6.601-10.07-13.164-15.05-19.789-.155-.206-.326-.379-.508-.521-.317-.248-.764-.512-.935-.692-.103-.108-.208-.216-.313-.321-.979-.981-2.619-.981-3.6-.0001-.135.135-.25.283-.346.44-.162.264-.483.796-.62 1.228-.077.243-.12.512-.12.81v4.752c0 .261.034.5.095.718.111.385.335 1.552.38 2.655m6.224-.38c4.559 5.992 9.145 11.963 13.668 17.982 1.233 1.641 3.457 1.224 4.422.031.111-.115.217-.237.313-.369.66-.898 1.413-1.725 2.213-2.51.789-.774 1.965-.618 2.583.297 3.941 5.836 7.934 11.636 11.846 17.491.83 1.242 2.201 1.381 3.269.905 1.01-.45 2.054-1.974 2.833-2.756.456-.457.903-.922 1.341-1.395.75-.811 1.689-.673 2.153.329 1.974 4.27 4.208 8.404 6.693 12.425.376.61.881.962 1.422 1.112.984.272 2.031-.207 2.29-.309.148-.058.298-.133.448-.228 1.092-.687 2.165-1.4 3.228-2.126.912-.623 1.998-.316 2.441.696 1.525 3.483 3.116 6.934 4.818 10.332.495.988.001 1.743-1.094 1.705-18.578-.639-43.518.632-61.2.88-1.104.016-2.035-.87-2.081-1.974-.721-17.38-2.044-34.73-2.744-52.11-.044-1.103.464-1.285 1.133-.406"/></g></svg>