<svg xmlns="http://www.w3.org/2000/svg" viewBox="0 0 100 100" enable-background="new 0 0 100 100"><path fill="#1d1d1b" d="m88.91 22.287c-.809-.641-1.573-1.246-2.166-1.836-1.69-1.685-3.213-3.557-4.685-5.367-1.907-2.344-3.878-4.768-6.211-6.772-.612-.525-1.311-.792-2.077-.792l-.203-.021c-.378-.117-.741-.161-1.145-.132-10.314.71-20.415.806-28.936.806-3.611 0-7.223-.02-10.834-.04-3.083-.017-6.167-.034-9.251-.039-.513 0-.981.104-1.399.307-.656.247-1.167.668-1.566 1.271-3.681 5.56-7.982 11.122-13.537 17.504-.908 1.043-.89 2.115-.716 2.83l.017.071-.004.073c-.02.389.016.729.113 1.071 7.01 24.696 24.26 48.28 47.32 64.714.365.26.758.386 1.204.386 10.01.0001 35.53-57.858 38.539-66.821.224-.667.258-1.312.103-1.968-.474-2.01-2.646-3.727-4.562-5.245m-11.922-2.731l.351-.697.486.61c.475.596.95 1.202 1.427 1.81 1.361 1.736 2.769 3.531 4.155 5.075l.694.773-1.038.06c-3.063.176-6.365.312-10.39.426l-1.051.03.641-.834c1.45-1.89 3.297-4.421 4.725-7.253m-18.259-5.291c4.902-.13 9.264-.328 13.335-.605l.904-.061-.509.934c-.029.048-.06.097-.084.154-1.457 3.394-3.517 6.29-5.339 8.675l-.36.47-.403-.433c-1.186-1.272-2.394-2.522-3.603-3.773-1.42-1.47-2.889-2.989-4.296-4.523l-.743-.809 1.098-.029m-4.832 5.243l.363.393c1.327 1.433 2.686 2.835 4.04 4.237.904.934 1.809 1.868 2.704 2.811l.799.841-2.659.005c-3.848 0-7.877-.036-11.976-.107l-1.178-.021.833-.833c1.966-1.966 4.03-4.105 6.702-6.937l.368-.389m-21.618-5.098c5.542.03 11.08.059 16.623.021l1.169-.008-.802.851c-2.594 2.753-5.674 5.981-8.848 9.05l-.335.325-.347-.312c-3.782-3.404-7.439-6.361-11.179-9.04l-1.276-.914 4.995.024m-16.308 11.685c1.806-2.209 3.689-4.652 5.757-7.467l.351-.478.412.426c.168.174.36.334.569.475 3.067 2.071 6.213 4.497 9.617 7.417l1.07.918-6.315-.176c-3.695-.104-7.39-.208-11.08-.299l-1.021-.025.644-.791m31.803 57.29c-15.839-13.743-27.935-31.356-34.06-49.594l-.227-.676.712.017c4.454.104 8.909.229 13.364.354 3.443.096 6.887.192 10.33.279l.459.012.027.458c1.05 17.599 4.478 33.946 10.188 48.59l.735 1.886-1.527-1.326m16.84-48.823c-.289 14.742-2.911 30.12-8.252 48.39l-.397 1.358-.544-1.307c-6.05-14.544-9.673-30.879-10.756-48.55l-.033-.542.542.011c5.125.1 9.747.149 14.13.149 1.602 0 3.204-.006 4.806-.021l.514-.004-.001.515m20.49-.515c-5.389 14.358-12.03 26.12-17.809 35.736l-1.607 2.673.691-3.042c2.836-12.475 4.313-23.926 4.514-35.01l.009-.479.479-.012c5.183-.129 9.385-.3 13.224-.54l.771-.048-.272.723"/></svg>