<svg xmlns="http://www.w3.org/2000/svg" viewBox="0 0 100 100" enable-background="new 0 0 100 100"><g fill="#1d1d1b"><path d="m45.583 13.03c.499-.011.998-.024 1.497-.031.332-.005.664-.011.996-.015.501-.006 1-.009 1.504-.013.5-.004.999-.011 1.498-.013-.098-2.339-.206-4.622-.331-6.796-.126-2.194-1.913-3.342-3.612-3.342-.981 0-1.903.38-2.528 1.042-.605.642-.909 1.52-.854 2.472.123 2.151.23 4.412.327 6.728.501-.015 1-.021 1.503-.032"/><path d="m51.38 21.719c-.053.039-.104.079-.162.114.069.069.118.146.172.221-.003-.112-.007-.223-.001-.335"/><path d="m47.728 40.733c.333.004.667.006 1 .001.501.007 1 .02 1.502.029.5.009.999.017 1.499.029-.026-2.607-.058-5.199-.099-7.759-.5-.002-1-.007-1.499-.012-.501-.004-1-.009-1.502-.016-.333-.005-.667-.011-1-.017-.5-.009-1-.024-1.499-.037-.501-.014-1-.028-1.502-.046.042 2.571.074 5.175.1 7.795.501.002 1 .008 1.502.012.499.003.999.006 1.498.012"/><path d="m48.82 61.24c-.333.006-.667.016-1 .021-.5.007-1 .001-1.5.015s-1 .012-1.5.015c0 6.447-.02 12.757-.038 18.699-.015 4.945-.03 9.656-.032 14.01 0 1.033.407 1.953 1.146 2.589.634.546 1.47.846 2.353.846 1.995 0 3.5-1.476 3.5-3.434.002-4.352.017-9.06.032-14 .019-5.984.038-12.341.038-18.835-.5.017-1 .03-1.5.043s-.999.024-1.499.033"/><path d="m55.5 39.873c0 .003-.0001.006-.002.009-.046.347-.108.691-.162 1.036-.166 1.052-.353 2.101-.53 3.152-.8-.041-1.852-.082-3.051-.126-.478-.017-.976-.035-1.498-.052-.486-.016-.987-.033-1.503-.05-.327-.011-.664-.022-1-.033-.493-.016-.992-.033-1.498-.05-.498-.017-.998-.034-1.502-.051-2.309-.079-4.647-.165-6.721-.261-2.038-.094-3.819-.198-5.03-.315-1.264-.122-1.896.787-1.913 1.769-.044.149-.075.308-.087.481-.226 3.414-.258 6.837-.5 10.25-.116 1.631 1.446 2.219 2.654 1.783 1.446.129 3.676.239 6.199.332 1.736.064 3.61.119 5.465.166.504.013 1 .025 1.501.037.507.012 1.01.023 1.499.034.336.007.673.015 1 .021.514.001 1.015.02 1.501.029.522.001 1.02.018 1.499.027 1.269.021 2.376.038 3.216.048.135.95.182 1.907.201 2.868.011.551.015 1.103.015 1.656.0001 2 2.412 2.444 3.488 1.332 5.094-3.146 9.676-6.959 13.927-11.168.739-.732.715-1.623.31-2.314-.103-.267-.278-.528-.56-.765-4.577-3.828-9.04-7.786-13.5-11.75-1.604-1.423-3.834.298-3.415 1.905m3.627 19.05c-.082-1.031-.213-2.058-.45-3.076-.006-.024-.016-.043-.023-.067-.1-.644-.476-1.237-1.126-1.503-.227-.093-.486-.148-.78-.149-1.21-.004-2.949-.021-4.94-.05-.486-.007-.986-.015-1.499-.023-.492-.008-.992-.017-1.501-.026-.33-.006-.665-.013-1-.019-.497-.001-.996-.02-1.499-.031-.501-.011-1-.023-1.501-.035-1.799-.044-3.571-.096-5.181-.155-2.02-.075-3.786-.161-5.01-.26.105-2.078.172-4.158.274-6.236 1.833.158 5.084.292 8.558.411.441.015.884.03 1.33.044.501.016 1 .033 1.501.048.504.016 1 .032 1.499.047.336.001.67.021 1 .031.511.016 1.012.031 1.501.047.517.016 1.015.032 1.499.048 1.706.055 3.186.108 4.215.16.123.006.235-.005.346-.017.051.005.103.017.154.017.107 0 .205-.016.304-.03.012-.003.023-.005.035-.008.0001 0 .002-.0001.003-.0001.236-.039.449-.115.637-.226.584-.347.934-.999 1.022-1.734.03-.252.07-.502.106-.753.06-.419.123-.838.194-1.256.045-.269.089-.539.136-.808.048.042.097.084.144.127 3.049 2.699 6.115 5.379 9.224 8.01-2.876 2.725-5.912 5.237-9.176 7.473"/><path d="m37.01 35.964c1.076 1.112 3.487.673 3.488-1.332 0-.776.002-1.55.032-2.321.028-.737.081-1.472.185-2.203.977-.012 2.322-.032 3.86-.06.483-.009.984-.018 1.503-.028.487-.009.985-.02 1.496-.03.331-.007.661-.014.999-.021.496-.011.997-.023 1.503-.035.496-.012.996-.025 1.496-.038 1.521-.04 3.037-.086 4.473-.137 2.665-.095 5.04-.209 6.549-.344 1.208.436 2.769-.151 2.654-1.783-.242-3.413-.274-6.836-.5-10.25-.011-.173-.043-.331-.087-.481-.017-.983-.649-1.891-1.913-1.769-1.334.128-3.353.241-5.646.343-1.859.082-3.893.157-5.916.227-.502.017-1 .034-1.496.051-.507.017-1.01.034-1.502.05-.335.011-.671.022-.997.033-.512.017-1.012.034-1.496.05-.522.018-1.023.035-1.502.052-1.286.046-2.406.09-3.252.133-.161-.955-.329-1.909-.485-2.865-.072-.44-.148-.88-.207-1.323 0-.003-.0001-.006-.002-.009.418-1.607-1.811-3.329-3.412-1.905-4.459 3.964-8.923 7.922-13.5 11.75-.283.237-.458.497-.56.765-.404.69-.428 1.582.31 2.314 4.249 4.207 8.831 8.02 13.925 11.166m-.199-20.649c.164.936.324 1.873.436 2.817.129 1.082.812 2 2 2 .051 0 .103-.012.154-.017.111.012.223.023.346.017.076-.004.173-.008.254-.012 1.091-.052 2.592-.105 4.327-.16.484-.016.987-.031 1.501-.047.49-.015.989-.031 1.497-.047.329-.001.663-.021.998-.031.498-.016.998-.031 1.501-.047.5-.016.999-.032 1.497-.049.446-.015.887-.03 1.326-.045 3.338-.116 6.432-.246 8.202-.398.102 2.078.169 4.158.274 6.236-1.299.105-3.22.196-5.404.274-1.337.048-2.768.09-4.233.128-.498.013-.997.025-1.497.036-.502.011-1 .023-1.502.033-.336.007-.667.013-.999.02-.507.001-1.01.019-1.497.027-.513.009-1.013.017-1.502.024-1.983.03-3.734.049-5.03.056-.154.0001-.324.002-.465.003-1.136.004-1.771.783-1.906 1.651-.006.024-.017.042-.023.067-.237 1.019-.368 2.045-.45 3.076-3.264-2.236-6.3-4.748-9.176-7.475 3.16-2.672 6.274-5.394 9.37-8.137"/></g></svg>