<svg xmlns="http://www.w3.org/2000/svg" viewBox="0 0 100 100" enable-background="new 0 0 100 100"><g fill="#1d1d1b"><path d="m29.27 60.34c-4.524 6.758-8.791 13.663-12.793 20.718-.018.032-.026.062-.043.093-1.555 1.699-.683 4.701 1.71 3.56 7.687-3.666 15.388-7.303 22.943-11.281-.289-1.427-.567-2.851-.835-4.274-5.595 2.972-11.274 5.749-16.975 8.477 3.215-5.45 6.588-10.819 10.13-16.09-1.383-.389-2.763-.788-4.137-1.201"/><path d="m27.779 39.09c1.433-.285 2.863-.559 4.291-.822-2.786-5.285-5.404-10.642-7.978-16.02 5.73 3.38 11.366 6.941 16.898 10.684.426-1.358.846-2.735 1.261-4.127-7.03-4.739-14.229-9.186-21.584-13.357-.032-.018-.062-.026-.093-.043-1.699-1.555-4.701-.683-3.56 1.711 3.509 7.358 6.985 14.731 10.765 21.974"/><path d="m47.551 35.855c-.021.068-.043.134-.064.202.013-.009.023-.019.037-.028.009-.058.018-.116.027-.174"/><path d="m64.64 56.48c-.104-.005-.209-.013-.314-.02l.039.075c.092-.018.182-.037.275-.055"/><path d="m80.33 24.734c-2.291 4.988-5.441 10.469-8.846 15.867 1.349.4 2.708.793 4.068 1.181 4.105-6.637 7.884-13.459 10.593-19.739.229-.529.257-.981.156-1.354.098-.49.063-.983-.136-1.377-.542-1.07-1.847-1.206-3-.579-.105.059-.211.113-.318.167.015-.001-.05.018-.218.095-.305.133-.613.255-.92.381-.716.293-1.427.615-2.116.989-4.687 2.667-10.03 5.76-15.433 8.76.318 1.435.617 2.842.898 4.211 5.351-2.954 10.627-5.988 15.274-8.602"/><path d="m70.24 47.649c-.72-.211-1.438-.424-2.154-.638.515.209 1.033.407 1.561.581.198.019.395.038.593.057"/><path d="m60.762 75.03c6.38 3.911 12.9 7.496 18.923 10.09.529.228.981.256 1.354.156.489.098.983.063 1.376-.136 1.07-.542 1.206-1.847.579-3-.059-.105-.113-.211-.167-.318.001.015-.018-.05-.094-.218-.133-.305-.255-.613-.381-.92-.293-.716-.615-1.427-.989-2.116-2.828-4.97-6.137-10.673-9.305-16.413-1.369.309-2.768.612-4.196.911 3.12 5.68 6.362 11.313 9.132 16.241-4.718-2.167-9.876-5.106-14.99-8.298-.404 1.343-.818 2.682-1.242 4.02"/><path d="m33.99 60.676c2.15.602 4.308 1.185 6.486 1.718.334 2.029.695 4.051 1.068 6.07.265 1.435.541 2.867.825 4.297 1.562 7.839 3.41 15.601 5.532 23.287.001.035.025.062.036.096.102 2.301 2.842 3.807 3.727 1.307 2.722-7.684 5.469-15.359 7.919-23.15.421-1.34.832-2.684 1.234-4.03.71-2.384 1.395-4.777 2.027-7.191 1.494-.288 3.01-.592 4.525-.909 1.393-.291 2.792-.594 4.193-.909 8.428-1.897 16.869-4.238 23.912-7.03.536-.213.875-.512 1.067-.847.416-.277.74-.65.877-1.069.095-.29.111-.571.063-.836-.139-.779-.837-1.417-1.776-1.696-.116-.032-.229-.07-.343-.107.018.004-.048-.023-.221-.087-.31-.122-.614-.253-.919-.381-.714-.299-1.444-.574-2.196-.797-5.335-1.465-11.476-3.097-17.575-4.849-1.368-.393-2.729-.793-4.084-1.198-1.868-.558-3.719-1.125-5.517-1.703-.39-2.131-.811-4.309-1.262-6.507-.286-1.394-.585-2.796-.896-4.201-1.935-8.753-4.347-17.579-7.254-24.896-.213-.536-.512-.875-.847-1.067-.277-.416-.65-.74-1.07-.877-1.139-.374-2.159.454-2.532 1.713-.032.116-.07.229-.107.343.003-.018-.023.049-.087.221-.121.31-.253.614-.381.92-.299.713-.574 1.444-.797 2.195-1.764 6.422-3.77 14-5.936 21.277-.415 1.393-.835 2.77-1.262 4.13-.526 1.675-1.056 3.329-1.598 4.919-2.595.403-5.178.846-7.755 1.314-1.436.261-2.869.532-4.299.813-8.183 1.605-16.28 3.524-24.296 5.737-.035.001-.062.025-.096.036-1.343.059-2.407 1.017-2.571 1.98-.117.688.222 1.378 1.263 1.747 8.868 3.141 17.723 6.32 26.767 9.03 1.382.411 2.767.81 4.156 1.199m-21.41-11.821c6.03-1.539 12.12-2.91 18.25-4.102 1.44-.28 2.884-.543 4.33-.802 1.361-.244 2.72-.498 4.086-.723l4.718-.739 1.452-4.338c.187-.581.371-1.177.556-1.766.43-1.366.855-2.747 1.274-4.145 2.173-7.252 4.193-14.789 5.983-21.18 2.257 6.094 4.155 13.524 5.72 20.915.299 1.41.582 2.815.857 4.213.195.992.388 1.984.571 2.962l.844 4.672 4.436 1.411c.781.241 1.572.479 2.362.716 1.365.41 2.738.815 4.115 1.214 5.709 1.653 11.426 3.202 16.493 4.616.275.077.562.156.833.232-5.821 2.156-12.862 3.98-19.923 5.504-1.405.303-2.807.594-4.204.873-.466.093-.935.191-1.399.281l-4.479.843-1.144 4.403c-.366 1.339-.765 2.664-1.155 3.994-.4 1.363-.805 2.723-1.226 4.078-1.759 5.658-3.674 11.254-5.64 16.83-1.545-5.989-2.924-12.03-4.129-18.12-.285-1.44-.551-2.885-.815-4.33-.18-.987-.373-1.97-.543-2.959l-.725-4.442-4.312-1.05c-1.094-.281-2.184-.573-3.271-.871-1.391-.381-2.777-.775-4.158-1.181-6.964-2.048-13.811-4.388-20.634-6.793.291-.075.585-.142.877-.216"/><path d="m52.13 57.58c0 0 0 0 0 0 3.331 0 6.592-2.256 7.93-5.486 1.263-3.049.582-6.304-1.822-8.707-1.598-1.599-3.55-2.443-5.643-2.443-3.331 0-6.591 2.256-7.93 5.487-1.263 3.048-.582 6.303 1.822 8.707 1.599 1.597 3.55 2.442 5.643 2.442m-2.845-9.237c.567-1.368 1.99-2.4 3.31-2.4.749 0 1.458.329 2.107.979.979.979 1.228 2.075.738 3.258-.567 1.368-1.99 2.4-3.31 2.4-.749 0-1.458-.329-2.108-.979-.979-.979-1.227-2.076-.737-3.258"/></g></svg>