<svg xmlns="http://www.w3.org/2000/svg" viewBox="0 0 100 100" enable-background="new 0 0 100 100"><g fill="#1d1d1b"><path d="m74.74 48.42c-1.331-11.27-9.822-16.452-19.516-19.827 10.134-3.735 17.609-9.855 17.555-21.519-.012-2.675-4.161-2.676-4.149 0 .057 12.461-10.158 16.246-20.18 19.364-10.02-3.118-20.234-6.903-20.18-19.364.012-2.676-4.137-2.675-4.149 0-.054 11.664 7.421 17.784 17.555 21.519-9.693 3.376-18.18 8.557-19.516 19.827-1.441 12.205 9.287 16.205 19.17 18.681-4.088 1.919-7.752 4.565-11.453 7.284-5.878 4.319-8.07 11.915-7.832 19.13.087 2.669 4.236 2.677 4.149 0-.328-10.05 5.753-15.442 13.148-20.683 2.705-1.917 5.867-3.064 9.103-3.96 3.236.897 6.398 2.044 9.103 3.96 7.396 5.241 13.476 10.629 13.148 20.683-.087 2.677 4.062 2.669 4.149 0 .235-7.213-1.955-14.809-7.833-19.13-3.7-2.719-7.365-5.365-11.453-7.284 9.887-2.475 20.615-6.475 19.17-18.681m-26.29 16.26c-9.525-2.295-24.795-4.408-22.02-16.803 2.498-11.168 12.363-14.158 22.02-17.08 9.66 2.925 19.524 5.916 22.02 17.08 2.773 12.395-12.497 14.508-22.02 16.803"/><path d="m34.15 12.258c9.222-.317 18.439-.328 27.66 0 2.677.095 2.668-4.054 0-4.149-9.221-.328-18.439-.317-27.66 0-2.668.092-2.677 4.241 0 4.149"/><path d="m36.573 15.02c-2.676 0-2.676 4.149 0 4.149h23.17c2.676 0 2.676-4.149 0-4.149h-23.17"/><path d="m43.14 38.536h10.03c2.676 0 2.676-4.149 0-4.149h-10.03c-2.676 0-2.676 4.149 0 4.149"/><path d="m33.461 45.45c9.683-.0001 19.365-.023 29.04-.346 2.668-.089 2.677-4.238 0-4.149-9.679.323-19.36.345-29.04.346-2.675 0-2.675 4.149 0 4.149"/><path d="m65.62 49.25c-11.641-.333-23.281-.323-34.921 0-2.67.074-2.677 4.223 0 4.149 11.641-.323 23.281-.333 34.921 0 2.677.077 2.669-4.072 0-4.149"/><path d="m55.936 56.17h-16.943c-2.676 0-2.676 4.149 0 4.149h16.942c2.676 0 2.676-4.149.0001-4.149"/><path d="m51.09 76.57c2.676 0 2.676-4.149 0-4.149h-6.224c-2.676 0-2.676 4.149 0 4.149h6.224"/><path d="m34.844 83.48c9.113.628 18.202.651 27.315 0 2.653-.189 2.671-4.34 0-4.149-9.113.651-18.202.628-27.315 0-2.671-.184-2.654 3.966 0 4.149"/><path d="m65.62 86.94c-11.411-.02-22.819-.326-34.23-.346-2.676-.005-2.675 4.145 0 4.149 11.411.02 22.819.326 34.23.346 2.675.005 2.675-4.145 0-4.149"/></g></svg>