<svg xmlns="http://www.w3.org/2000/svg" viewBox="0 0 100 100" enable-background="new 0 0 100 100"><g fill="#1d1d1b"><path d="m75.928 8.06c-.191-.051-.394-.086-.611-.099-17.707-1.114-35.429-1.779-53.16-.744-1.666.097-2.549 1.362-2.665 2.662-.306.417-.495.953-.495 1.613.019 27.312.711 49.04 1.095 76.35-.703 1.613.108 4.01 2.436 4.132 14.12.725 24.911 1.133 39.03 1.859.356.018.667-.033.952-.117.595-.018 1.205-.221 1.763-.699 5.266-4.514 10.488-9.06 15.241-14.13.584-.622.799-1.318.767-1.984.042-.226.066-.465.05-.73-1.444-23.641-1.139-41.754-1.487-65.42-.027-1.839-1.497-2.732-2.921-2.691m-12.627 78.44c-.252-2.953-.545-5.901-.923-8.841 3.671-.637 7.386-.777 11.12-.607-3.263 3.294-6.695 6.406-10.194 9.448m-4.71-13.758c-1.606.376-2.153 1.71-1.947 2.967-.033.265-.043.54 0 .835.566 3.824.907 7.672 1.211 11.524-11.286-.565-20.391-.955-32.21-1.526-.381-26.479-1.032-47.38-1.069-73.861 16.249-.809 32.493-.249 48.724.737.272 21.23.113 36.898 1.214 58.11-5.346-.322-10.704-.006-15.927 1.217"/><path d="m32.25 26.25c3.419 0 6.837.009 10.25.25 3.219.228 3.197-4.774 0-5-3.413-.241-6.831-.25-10.25-.25-3.225 0-3.224 5 0 5"/><path d="m42.5 35c3.217.247 3.193-4.755 0-5-3.247-.249-6.492-.481-9.75-.5-3.225-.019-3.223 4.981 0 5 3.258.019 6.503.251 9.75.5"/><path d="m43.25 43.25c3.197-.228 3.219-5.23 0-5-3.09.22-6.169.004-9.25-.25-3.215-.266-3.189 4.737 0 5 3.081.254 6.16.47 9.25.25"/><path d="m65.75 47.75c-10.251 0-20.501.015-30.75.25-3.219.074-3.226 5.074 0 5 10.249-.235 20.499-.25 30.75-.25 3.225 0 3.225-5 0-5"/><path d="m65.75 57.25c-9.906.699-19.828.514-29.75.5-3.225-.005-3.224 4.995 0 5 9.922.014 19.844.199 29.75-.5 3.197-.226 3.219-5.227 0-5"/><path d="m67.25 24c-.005-1.48-1.062-2.272-2.203-2.393-.352-.217-.778-.357-1.297-.357h-12c-1.769 0-2.561 1.504-2.389 2.862-.058.198-.1.407-.111.638-.243 4.997-.25 9.998-.25 15 0 .66.216 1.178.55 1.567.334.806 1.062 1.433 2.2 1.433 4.669-.0001 9.335-.023 14-.25 1.702-.083 2.497-1.528 2.395-2.844.041-.259.058-.529.016-.82-.698-4.916-.892-9.876-.911-14.836m-13.247 13.745c.007-3.833.039-7.665.19-11.495h8.096c.073 3.8.301 7.58.734 11.355-3.01.099-6.01.132-9.02.14"/><path d="m50 67.75h-13.75c-3.225 0-3.225 5 0 5h13.75c3.225 0 3.225-5 0-5"/></g></svg>