<svg xmlns="http://www.w3.org/2000/svg" viewBox="0 0 100 100" enable-background="new 0 0 100 100"><g fill="#1e1e1c"><path d="m80.53 28.855c-.181-5.491-.282-12.909-.227-18.404.002-.245-.037-.461-.093-.664.107-1.197-.596-2.461-2.13-2.421-19.354.508-38.704-.25-58.06-.28-1.61-.003-2.315 1.412-2.117 2.654-.064.216-.109.448-.106.712.292 23.09 1.086 56.28 1.111 79.38 0 .518.147.939.382 1.272.143.979.846 1.845 2.119 1.813 8.366-.208 16.734-.342 25.09-.752 7.45-.365 16.734.124 23.856-2.307 2.521-.861 4.776-2.134 6.71-3.977 3.534-3.369 4.741-7.892 5.05-12.658.292-4.577-.247-9.379-.354-13.597-.275-10.895-.872-19.875-1.231-30.768m-12.246 41.19c-1.362.008-2.678 1.071-2.069 2.705 1.224 3.286 1.784 7.366-.099 10.509-2.276 3.801-6.338 3.698-10.2 4.185-2.362.298-4.873.14-7.253.207-1.852.052-25.314.624-25.314.716-.055-22.23-.79-54.55-1.087-76.78 17.869.077 35.733.691 53.601.309-.068 18.253 1.55 44.639 1.646 59.06-2.772-.875-5.637-1.244-8.595-1.046-.231.014-.436.067-.63.134m1.746 15.196c1.794-3.058 2.242-6.81 1.309-10.877 2.161.084 4.292.501 6.31 1.356.008.025.015.052.023.077-.654 4.819-3.703 7.776-7.642 9.444"/><path d="m29.458 37.32c-2.545.301-2.768 2.869-2.652 4.947.167 2.989.24 5.994.468 8.981.039.502.206.916.443 1.258.237.965.993 1.772 2.288 1.746 3.27-.065 6.59-1.41 8.524-4.115 2.109-2.95 1.75-7.681-.548-10.524-1.964-2.43-5.693-2.628-8.523-2.293m2.597 11.674c-.109-2.293-.127-4.589-.132-6.886 4.5.215 3.644 5.718.132 6.886"/><path d="m56.07 39.694c-4.787-5.058-14.319-1.055-14.734 5.715-.396 6.439 9.292 10.339 13.73 5.99 1.416-1.387 2.956-4.47 3.045-6.458.001-.053.008-.109.013-.163 0-.03.006-.057.006-.087 0-.019-.004-.034-.004-.052 0-.074.013-.146.004-.221-.22-1.82-.78-3.372-2.06-4.724m-9.818 5.715c-.178-2.904 6.608-4.404 7.01-.722.003.028.005.057.008.086.337 4.256-6.766 4.69-7.01.636"/><path d="m72.33 50.15c0-1.266-1.12-2.555-2.458-2.458-2.01.146-4.23-.665-4.359-2.913-.143-2.489 2.319-3.842 4.526-3.456 1.318.231 2.643-.334 3.02-1.717.33-1.197-.395-2.792-1.716-3.02-3.62-.634-7.666.508-9.667 3.715-3.702 5.932 1.706 12.781 8.194 12.31 1.335-.098 2.457-1.045 2.457-2.458"/></g></svg>