<svg xmlns="http://www.w3.org/2000/svg" viewBox="0 0 100 100" enable-background="new 0 0 100 100"><path d="m84.14 12.856c-7.07-.81-13.854-3.224-20.786-4.763-7.33-1.627-14.735-2.888-22.14-4.121-.148-.025-.288-.025-.429-.029-.234-.051-.481-.082-.758-.069-5.698.274-11.34 1-16.967 1.927-.364.06-.661.18-.92.331-3.257.684-6.57 2.217-8.352 5.161-1.556 2.571-1.815 5.431-1.439 8.297-4.377 3.842-6.218 8.95-4.933 14.635-5.817 6.1-6.143 14.196-.574 20.374-3.518 5.951-3.409 12.585 1.057 18.222.291.367.612.611.944.762.265.177.574.32.953.401 8.808 1.89 17.808 1.084 25.21-4.393.782-.579 1.133-1.364 1.173-2.151.104-.286.174-.587.187-.904.014-.195.015-.266.006-.239.017-.106.035-.212.052-.318.07-.495.149-.986.169-1.486.484.018.968.037 1.451.073-3.379 11.55-1.974 35.2 15.517 29.08 1.351-.472 1.905-1.631 1.873-2.76.077-.246.134-.507.142-.801.192-7.102 1.61-13.846 5.568-19.872 4.855-7.392 12.902-6.773 20.862-5.917 2.568.276 5.187.914 7.783.748 3.205-.205 3.415-1.165 4.282-3.781.091-.274.154-.57.154-.908 0-14.408-.014-28.816-.229-43.22-.066-4.374-6.883-3.942-9.858-4.282m-9.06 45.503c-17.06-.757-24.19 14.772-24.945 30.502-10.47 1.698-8.773-16.748-6.587-23.535.335.067.671.122 1.01.197 3.448.769 4.913-4.522 1.459-5.292-7.266-1.621-14.51-1.625-21.812-.229-3.474.664-1.999 5.954 1.459 5.292 1.814-.347 3.626-.576 5.438-.706-.006.105-.006.148 0 .128-.017.106-.035.212-.052.318-.033.234-.068.469-.098.703-5.834 3.759-12.469 4.419-19.294 3.03-3.122-4.105-1.985-8.77.78-12.741.479-.688.57-1.364.417-1.961.069-.692-.16-1.422-.846-2.051-4.917-4.51-4.859-9.893-.171-14.468 1.08-.495 1.821-1.599 1.334-3.074-1.424-4.315-.659-8.249 3.084-11.08.118-.089.212-.189.311-.287 1-.541 1.724-1.618 1.407-3.041-.435-1.96-.673-4.26.552-6 1.258-1.79 3.505-2.363 5.535-2.741.304-.057.557-.159.787-.279 5.04-.816 10.08-1.435 15.178-1.681.059-.003.109-.019.166-.024 12.269 2.047 24.497 4.178 36.38 7.93.118.037.229.049.342.072-1.64 13.651-2.884 27.29-1.831 41.02m5.506.284c-1.052-13.327.073-26.562 1.637-39.807 2.1.139 4.2.276 6.301.411.181 13.332.206 26.664.207 39.997-2.725-.029-5.438-.256-8.145-.601" fill="#1d1d1b"/></svg>