<svg xmlns="http://www.w3.org/2000/svg" viewBox="0 0 100 100" enable-background="new 0 0 100 100"><g fill="#1d1d1b"><path d="m67.843 49.06c-2.45-.017-4.898-.048-7.341-.23-.078-3.33.048-12.276.582-15.574.267-1.648-1.021-2.778-2.293-2.938-.309-.17-.674-.279-1.111-.282-5.383-.038-10.765-.093-16.14-.347-1.451-.068-2.201.978-2.263 2.099-.042.145-.077.295-.094.458-.403 3.857-.541 13.338-.581 17.211-1.795.073-4.496.075-6.294.063-.7-.005-1.232.25-1.61.634-1.474.511-2.473 2.423-1.01 3.81 6.722 6.383 12.225 13.08 18.612 19.791 1.312 1.38 3.118.583 3.754-.742 5.352-6.419 12.532-12.823 17.883-19.243.852-1.022.676-2.251.05-3.099-.25-.876-.956-1.603-2.14-1.611m-18.09 19.442c-4.617-4.841-8.36-9.651-13.14-14.333 1.05-.027 3.01-.07 4.054-.151.863-.067 1.472-.509 1.843-1.092.445-.374.746-.939.751-1.698.027-3.727.131-13.06.418-16.776 4.179.158 8.359.212 12.542.247-.391 3.576-.475 12.765-.323 16.383.074 1.769 1.725 2.504 3.046 2.2.208.08.43.143.682.166 1.436.13 2.874.197 4.313.235-4.125 4.941-10.07 9.877-14.188 14.819"/><path d="m83 5.02c-3.239-.77-6.844-1.144-11.02-1.144-3.418 0-6.834.242-10.137.476l-2.01.14c-4.866.33-9.708.372-13.384.372-.0001 0-.002 0-.002 0-1.971 0-3.941-.014-5.913-.027-1.986-.014-3.974-.027-5.963-.027l-.923.0001c-1.245 0-2.718-.07-4.276-.144-1.812-.086-3.866-.184-5.906-.184-4.629 0-18.718 0-18.718 13.722 0 1.662.009 3.325.019 4.988.012 2.181.023 4.362.015 6.542-.015 3.595-.001 7.188-.004 10.782.015 9.724.029 19.778-.38 29.635l-.015.352c-.27 6.496-.678 16.313 4.463 21.674 2.315 2.413 5.434 3.638 9.271 3.638 7.283.0001 14.694.076 21.862.149 6.665.068 13.558.138 20.343.148l1.131.0001c6.01 0 11.04-.086 15.824-.27l.72-.026c4.241-.153 9.519-.344 13.491-3.711 4.395-3.725 4.322-9.03 4.264-13.288-.007-.498-.014-.994-.014-1.486-.002-6.687.076-13.506.152-20.1.145-12.56.294-25.547-.104-38.31-.156-4.993-2.502-11.459-12.789-13.903m7.392 52.15c-.076 6.611-.154 13.448-.152 20.17 0 .516.007 1.037.015 1.561.06 4.336-.067 7.106-2.321 9.02-2.519 2.135-6.39 2.274-10.133 2.409l-.732.027c-4.712.182-9.673.266-15.613.266l-1.122-.0001c-6.762-.011-13.643-.08-20.296-.148-7.181-.073-14.606-.148-21.918-.149-2.312 0-4.046-.637-5.301-1.944-3.518-3.668-3.168-12.08-2.936-17.64l.015-.353c.414-9.974.398-20.09.384-29.871-.006-3.583-.011-7.167.004-10.751.009-2.198-.003-4.396-.015-6.594-.001-1.653-.019-3.306-.019-4.958 0-4.935 2.248-8.222 13.218-8.222 1.909 0 3.809.09 5.645.178 1.626.078 3.162.15 4.617.15h.844c1.977 0 3.951.014 5.925.027 1.984.014 3.968.027 5.951.027.0001 0 .0001 0 .002 0 3.762 0 8.725-.043 13.755-.384l2.023-.141c3.208-.227 6.524-.462 9.748-.462 3.743 0 6.932.326 9.749.995 7.403 1.758 8.465 5.586 8.562 8.724.394 12.642.246 25.569.101 38.07"/><path d="m75.8 14.41c-1.209-.194-2.521-.293-3.899-.293h-.243c-5.91.048-11.82-.008-17.731-.066-6.519-.062-13.04-.125-19.554-.049l-.562.003c-.549 0-1.125-.007-1.721-.015-.662-.008-1.348-.017-2.045-.017-4.395 0-16.07 0-16.07 11.204 0 1.296.007 2.593.014 3.891.001 1.715.019 3.43.012 5.145-.012 2.813-.007 5.625-.003 8.437.012 7.622.024 15.503-.297 23.22l-.011.274c-.217 5.193-.544 13.04 3.662 17.427 1.931 2.01 4.521 3.035 7.696 3.035 5.724.0001 11.55.06 17.18.117 5.209.053 10.595.107 15.898.116l.896.0001c4.645 0 8.707-.069 12.419-.212l.565-.021c3.415-.124 7.665-.277 10.936-3.05 3.658-3.101 3.6-7.414 3.552-10.879-.005-.388-.011-.773-.011-1.156-.002-5.232.06-10.572.119-15.735.114-9.856.232-20.05-.081-30.07-.195-6.216-4-10.234-10.726-11.313m5.307 41.32c-.06 5.18-.122 10.535-.12 15.801 0 .406.006.817.012 1.229.044 3.215-.011 5.253-1.609 6.608-1.817 1.54-4.745 1.646-7.578 1.748l-.577.021c-3.641.14-7.634.208-12.208.208l-.888-.0001c-5.28-.009-10.654-.063-15.852-.116-5.647-.058-11.487-.116-17.239-.117-2.188 0-3.175-.766-3.728-1.342-2.582-2.692-2.313-9.131-2.136-13.392l.012-.275c.325-7.838.312-15.779.301-23.459-.004-2.802-.009-5.604.003-8.406.007-1.732-.002-3.465-.012-5.197-.007-1.287-.014-2.574-.014-3.861 0-3.699 1.685-5.704 10.569-5.704.674 0 1.336.008 1.976.016.62.008 1.22.016 1.79.016l.627-.003c6.478-.076 12.958-.013 19.436.049 5.945.058 11.889.115 17.83.066l.198-.0001c1.086 0 2.104.075 3.03.224 5.266.845 6.03 3.68 6.1 6.05.31 9.902.194 20.03.08 29.833"/></g></svg>