<svg xmlns="http://www.w3.org/2000/svg" viewBox="0 0 100 100" enable-background="new 0 0 100 100"><path d="m86.12 50.767l-.304-.057c-.131-.032-.261-.067-.404-.082-4.431-.458-8.755-.553-12.4-.586l-.991-.009v-37.928c0-2.119-1.389-2.914-2.217-3.198l-.186-.064-.147-.129c-.598-.522-1.352-.788-2.24-.788h-34.465c-.889 0-1.643.265-2.24.788l-.148.129-.186.064c-.828.285-2.217 1.079-2.217 3.198v37.928l-.991.009c-3.646.033-7.97.128-12.399.586-.145.015-.274.05-.405.082l-.304.057c-1.529.086-3.01 1.204-3.521 2.657-.294.835-.366 2.079.956 3.27l34.76 31.28.086.192c.658 1.467 2.211 2.481 3.784 2.382l.057-.004.058.004c1.567.099 3.126-.915 3.784-2.382l.086-.192.157-.141 34.603-31.14c1.322-1.19 1.25-2.435.956-3.27-.512-1.452-1.993-2.57-3.522-2.656m-36.12 31.15l-27.405-24.664 2.543-.042c2.136-.035 4.272-.049 6.411-.049.991 0 1.8-.309 2.404-.917.65-.654 1.021-1.631 1.015-2.68v-.124l.029-.119c.084-.343.123-.645.123-.95v-37.31h29.762v37.31c0 .306.039.607.123.95l.029.119-.0001.124c-.006 1.049.364 2.025 1.015 2.68.604.608 1.413.917 2.404.917 2.139 0 4.275.014 6.411.049l2.543.042-27.405 24.664" fill="#1d1d1b"/></svg>