<svg xmlns="http://www.w3.org/2000/svg" viewBox="0 0 100 100" enable-background="new 0 0 100 100"><g fill="#1d1d1b"><path d="m96.78 58.744c-3.728-11.247-6.311-22.843-9.623-34.21-.603-2.07-.839-4.258-1.743-6.236-.723-1.581-2.542-4.073-4.425-4.077-4.806-.001-9.612-.08-14.417-.173-.521-.246-1.121-.307-1.688-.191-.167.034-.329.084-.486.146-1 .398-1.746 1.359-1.436 2.725.26 1.145.414 2.412.521 3.731.12 1.492.178 3.05.238 4.596.086 2.217.185 4.398.511 6.276.122.699.459 1.183.897 1.497.374.413.907.706 1.627.751 1.359.086 2.716.179 4.07.3-4.379 5.466-9.984 9.466-16.265 12.622-5.873-3.896-11.484-8.109-16.323-13.19 1.241.06 2.481.132 3.722.21 1.534.096 2.4-.989 2.546-2.172.068-.204.12-.421.138-.665.19-2.676.519-5.333.902-7.982.127-.876.256-1.752.394-2.627.199-1.267.405-2.533.613-3.799.296-1.804-1.181-2.674-2.611-2.516.027-.07.055-.14.082-.211-5.119-.103-10.239-.181-15.36-.192-2.396-.004-3.788 2.847-4.624 4.628-1.165 2.482-2.536 4.84-3.807 7.268-3.332 6.361-6.35 12.878-9.509 19.325-.852 1.739-1.702 3.48-2.573 5.21-.437.868-1.574 4.281-2.438 4.664-1.184.526-1.748 1.841-1.688 3.136-.093.343-.144.721-.113 1.155.39 5.474.362 10.939 0 16.414-.038.575.052 1.062.222 1.477-.425 1.883.49 3.95 2.797 3.922 28.16-.344 56.46 2.041 85.73 1.728 1.951-.021 2.924-1.66 2.919-3.285 1.247-6.14 1.631-12.338 1.322-18.604.094-.489.078-1.037-.125-1.648m-66.39-38.891c3.512.017 7.02.065 10.534.125-.431 2.793-.821 5.59-1.087 8.405-2.167-.122-4.334-.204-6.506-.183-1.959-.575-4.218 2.042-2.585 4.13 3.143 4.02 6.812 7.588 10.746 10.824 3.282 2.7 7.739 7.07 11.792 8.484 3.408 1.186 9.482-3.941 12.06-5.806 4.353-3.145 8.225-6.945 11.282-11.371.339-.491.471-.985.455-1.448.537-1.387-.098-3.385-2.044-3.673-2.062-.306-4.132-.489-6.208-.635-.436-2.354-.378-5.332-.473-8.154 3.759.065 7.518.116 11.278.132 3.397 10.28 6.674 25.605 10.05 35.893-25.591-1.741-51.23-1.947-76.867-2.29 5.544-10.02 11.42-24.822 17.571-34.433m59.62 55.954c-27.22.045-54.25-2.067-79.997-1.91.246-4.392.272-8.779.039-13.17 26.979.376 53.97.524 80.904 2.411.075 4.258-.209 8.47-.946 12.669"/><path d="m57.13 20.259c-.006.021-.018.038-.024.059.021 0 .041.0001.061.0001-.012-.02-.025-.04-.037-.06"/></g></svg>