<svg xmlns="http://www.w3.org/2000/svg" viewBox="0 0 100 100" enable-background="new 0 0 100 100"><g fill="#1e1e1c"><path d="m79.27 22.356c-.159-4.814-.247-9.642-.2-14.458.002-.215-.032-.404-.081-.582.094-1.049-.522-2.158-1.867-2.122-16.966.444-33.929-.22-50.895-.247-1.412-.002-2.03 1.238-1.855 2.326-.057.189-.096.393-.093.624.256 20.246.952 49.34.974 69.58 0 .454.129.823.334 1.115.125.858.742 1.617 1.857 1.59 3.02-.075 6.05-.142 9.07-.216.186-.06.374-.11.567-.137.092-.023.213-.048.352-.064.775-.09 1.547-.144 2.272-.177v-3.717c-5.374.142-10.567.289-10.567.329-.049-19.49-.693-47.823-.953-67.31 15.665.067 31.33.605 46.989.27-.053 14.326 1.348 37.457 1.443 51.778-2.43-.767-4.941-1.091-7.535-.917-.202.014-.382.059-.552.118-1.194.007-2.348.939-1.814 2.371 1.073 2.881 1.564 6.458-.086 9.212-1.817 3.034-4.932 3.231-8.03 3.564v3.972c4.101-.167 8.229-.554 11.751-1.757 2.21-.754 4.188-1.871 5.882-3.486 3.099-2.953 4.156-6.919 4.423-11.1.256-4.01-.216-8.222-.311-11.919-.24-9.55-.764-19.1-1.078-28.646m-9.205 51.11c1.573-2.681 1.966-5.97 1.147-9.535 1.895.074 3.763.439 5.531 1.189.008.022.013.046.021.068-.573 4.224-3.246 6.816-6.699 8.278"/><path d="m60.855 81.8c-.07-.018-.139-.04-.215-.049-1.344-.156-2.692-.201-4.04-.215v-2.213-3.843-11.02c0-.804-.416-1.307-.935-1.508-.231-.228-.541-.377-.938-.377h-5.04-1.074-5.04c-.396 0-.706.149-.938.377-.52.201-.935.704-.935 1.508v11.358 4 1.716c-1.349.014-2.697.059-4.04.215-.076.009-.145.031-.215.049-1.146.073-2.112 1.693-1.028 2.791 3.731 3.778 7.462 7.555 11.193 11.333.245.613.829 1.083 1.457 1.083.027 0 .054-.0001.081-.003.027.002.054.003.081.003.627 0 1.212-.47 1.457-1.083 3.731-3.778 7.462-7.555 11.193-11.333 1.085-1.097.119-2.718-1.027-2.791m-11.703 11.212c-2.679-2.713-5.358-5.425-8.04-8.137.689-.013 1.378-.018 2.068-.018.958 0 1.434-.839 1.429-1.675.029-.134.049-.276.049-.432v-1.884c-.006-.084-.03-.149-.03-.24 0-.302.007-.602.001-.904.004-.416.007-.831.02-1.246v-2.735-9.84h3.953 1.074 3.953v8.898c0 .003.0001.006.0001.009.017.25.017.498.024.748.017.616.013 1.232-.025 1.844v1.992 3.357c0 .157.02.299.049.432-.004.836.472 1.674 1.429 1.675.69 0 1.379.005 2.068.018-2.677 2.713-5.356 5.425-8.04 8.138"/></g></svg>