<svg xmlns="http://www.w3.org/2000/svg" viewBox="0 0 100 100" enable-background="new 0 0 100 100"><path d="m93.61 34.06c-3.387-4.04-6.947-7.928-10.667-11.667-1.601-1.609-3.711-.812-4.642.671-9.301 7.818-18.511 16.744-27.821 24.551-8.897-8.856-18.976-17.392-28.2-25.889-1.035-.953-2.256-.991-3.254-.534-.949.073-1.819.647-2.458 1.474-3 3.888-6.169 7.644-9.468 11.284-1.503.916-2.332 3.055-.729 4.685 12.788 13.01 27.2 24.394 38.667 38.667.314.391.659.655 1.015.819 1.074.817 2.625 1.023 3.895-.153 14.376-13.311 29.599-25.683 43.666-39.33.954-.925 1.069-2.028.712-2.974-.069-.544-.285-1.093-.712-1.602m-45.557 37.519c-10.602-12.792-23.494-23.339-35.27-35.01 2.517-2.852 4.941-5.777 7.298-8.762 9.05 8.107 18.765 16.465 27.28 25.16.444.453.93.703 1.418.817 1.073.728 2.567.899 3.824-.15 9.448-7.888 18.775-16.919 28.18-24.851 2.308 2.394 4.534 4.864 6.712 7.378-12.778 12.215-26.408 23.49-39.454 35.415" fill="#1e1e1c"/></svg>