<svg xmlns="http://www.w3.org/2000/svg" viewBox="0 0 100 100" enable-background="new 0 0 100 100"><g fill="#1e1e1c"><path d="m78.875 59.19l-.08-.141c-.055-.147-.162-.33-.307-.507-.099-.288-.204-.577-.33-.866-.09-.206-.193-.413-.295-.619-.422-.855-.926-1.711-1.468-2.571.074-.171.125-.362.133-.582.505-12.741.716-25.492-.774-38.18-.012-.104-.041-.196-.068-.289.042-.196.052-.409.012-.639-.602-3.498-2.02-6.774-3.878-9.779-.007-.771-.503-1.585-1.483-1.676-12.96-1.205-25.958-.796-38.953-.772-.297 0-.545.076-.753.193-.3.039-.599.194-.857.518-2.268 2.852-4.405 5.799-6.434 8.826-.326.488-.321.963-.131 1.353-.208.242-.347.56-.338.976.26 12.726.519 25.453.774 38.18.008.422.159.75.382.993-.379.523-.748 1.045-1.108 1.566-.173.25-.332.501-.498.751-.182.274-.36.549-.531.823-.15.136-.274.326-.345.576-.202.429-.184.839-.023 1.185.617 8.659.721 17.453.815 25.965.032 2.917.064 5.834.117 8.751.003.173.034.343.097.532.127.771.606 1.542 1.625 1.638 12.996 1.226 28.765 1.299 42.678 1.364 4.124.019 8.132.037 11.932.084l.029.496c0 0 0 0 0 0v-.496c.344 0 .648-.088.902-.262l.202-.081c.309-.051 1.313-.312 1.262-1.554-.492-11.76-1.01-23.271-1.933-34.791-.029-.371-.155-.697-.373-.965m-4.284-1.879c.093.172.181.345.267.517-1.898-.099-3.838-.192-5.821-.278-.046-.17-.095-.339-.146-.507-.051-.169-.103-.338-.158-.506-.247-.76-.519-1.512-.774-2.269-.258-.765-.904-1.079-1.538-1.063-.144-.043-.296-.073-.47-.073h-15.828c-.09-.137-.168-.283-.248-.427-.21-.38-.41-.763-.645-1.129-.353-.548-.979-.84-1.592-.741-.084-.013-.168-.026-.261-.026h-13.93c-.455 0-.801.165-1.049.414-.212.127-.404.321-.545.611-.547 1.117-.993 2.269-1.387 3.441-.056.166-.116.33-.169.496-.053.163-.1.329-.15.493-1.396-.05-2.764-.102-4.12-.156.114-.161.232-.323.348-.484.117-.163.233-.326.352-.49 1.513-2.089 3.093-4.197 4.241-6.352 13.06 1.169 26.17.941 39.27 1.092 1 2.318 2.769 4.628 4.077 6.922.097.172.188.343.28.515m-41.07-1.429c.058-.167.134-.328.195-.495.184-.498.365-.997.584-1.482h12.712c.317.564.626 1.126 1.079 1.61.053.057.114.103.174.149.046.062.103.117.16.172.245.235.579.391 1.018.391h11.272 4.654c.02.057.038.116.058.173.059.168.113.338.17.507.057.169.115.337.169.506-6.615-.261-13.543-.465-20.328-.666-4.16-.123-8.182-.243-12.07-.372.054-.163.099-.33.156-.493m-2.322-36.03c12.284.504 24.577.766 36.854 1.433.643 8.353 1.039 16.719 1.392 25.09-12.541-.131-25.09.046-37.591-1.013-.134-8.508-.103-17.02-.655-25.509m.618-14.19c12.403-.03 24.807-.377 37.18.67 1.426 2.263 2.553 4.651 3.25 7.209-14.986-1.237-29.985-2.645-45.02-1.621 1.47-2.129 2.983-4.227 4.588-6.258m40.94 11.02c1.22 11.02 1.195 22.09.824 33.15-.237-.474-.446-.949-.621-1.424.031-.144.051-.297.043-.467-.389-9.321-.807-18.639-1.552-27.939-.032-.407-.177-.738-.388-.997-.224-.599-.74-1.091-1.552-1.137-13.184-.754-26.389-.991-39.581-1.552-.429-.018-.775.095-1.04.288-.739.124-1.361.673-1.289 1.652.699 9.431.607 18.878.776 28.327.002.136.038.249.066.367-.506.984-1.108 1.957-1.758 2.923-.233-11.586-.469-23.17-.705-34.759 15.621-1.207 31.21.287 46.777 1.568m4.485 76.8c-3.215-.033-6.605-.051-10.1-.068-13.362-.068-28.508-.146-40.902-1.196l-.45-.038-.007-.452c-.037-2.337-.063-4.673-.09-7.01-.093-8.117-.189-16.51-.725-24.748l-.036-.555.556.022c6.167.254 12.876.453 19.979.665 10.293.308 20.937.625 30.07 1.122l.438.023.034.438c.763 9.906 1.245 19.667 1.735 31.27l.022.527-.529-.005"/><path d="m62.751 72.45c-.749-.206-1.765.248-1.904 1.081-.11.655-.219 1.327-.416 1.967-6.488.139-12.977.16-19.466.162-.214-.641-1.435-1.288-1.554-1.956-.148-.831-1.148-1.289-1.904-1.081-.869.239-1.229 1.074-1.082 1.904.179 1.01.486 1.974.86 2.924.005.013.012.024.018.037.105.671.596 1.271 1.475 1.271 7.05 0 15.13-.013 22.19-.172.093-.002.177-.017.262-.032.617.096 1.312-.151 1.591-.735.533-1.118 1.845-2.25 2.048-3.465.139-.832-1.237-1.664-2.113-1.905"/><path d="m39.678 33.794c.192.26.434.469.703.603.217.169.482.294.805.335 6.175.793 12.358.846 18.574.688.052-.0001.098-.013.148-.018.78.106 1.402-.401 1.688-1.118.316-.791.643-1.582.86-2.408.214-.815-.262-1.678-1.082-1.904-.806-.222-1.69.265-1.904 1.081-.115.437-.262.863-.42 1.286-5.706.129-11.385.059-17.06-.611-.528-.744-1.038-1.5-1.605-2.218-.523-.664-1.646-.544-2.189 0-.648.649-.522 1.527 0 2.189.502.636.975 1.414 1.479 2.095"/></g></svg>