<svg xmlns="http://www.w3.org/2000/svg" viewBox="0 0 100 100" enable-background="new 0 0 100 100"><path fill="#1d1d1b" d="m59.63 8.838c-.462-.653-1.168-1.112-2.03-1.31-3.469-.797-6.978-1.201-10.428-1.201-9.574 0-18.66 3.072-26.294 8.887-1.202.188-2.148.969-2.566 2.116-2.546 2.251-4.877 4.812-6.93 7.616-10.296 14.06-11.439 33.16-2.845 47.54 8.103 13.555 24.381 21.976 42.484 21.977.0001 0 .0001 0 .002 0 3.918 0 7.775-.415 11.461-1.232 19.923-4.422 34.28-21.233 34.14-39.975-.076-10.196-4.03-19.936-11.423-28.17-6.601-7.346-15.67-13.11-25.57-16.25m-11.11 4.651c.346.156.696.256 1.065.304 9.465 1.224 17.773 4.849 24.71 10.782-4.35 4.745-9.175 8.926-14.364 12.449-7.732-9.79-17.821-16.99-28.12-20.12 5.23-2.423 10.958-3.6 16.705-3.418m-36.3 25.09c2.173-6.266 5.97-11.84 10.994-16.14 10.668 1 22 7.807 30.587 18.339-10.08 5.538-21.03 8.459-31.739 8.459-3.973 0-7.961-.397-11.868-1.181.261-3.164.942-6.346 2.026-9.472m-1.883 16.768c3.842.665 7.752 1 11.643 1 12.251 0 24.692-3.358 36.04-9.722 1.936 3.047 3.56 6.201 4.838 9.4-12.193 5.306-23.62 14.342-33.14 26.21-10.958-5.703-17.95-15.416-19.383-26.889m53.11 30.12c-4.086 1.158-8.377 1.745-12.761 1.745-4.814 0-9.664-.737-14.12-2.141 8.22-9.915 18.02-17.557 28.468-22.2 1.959 8.207 1.414 15.987-1.591 22.598m23.481-19.504c-2.948 6.744-8.03 12.223-14.769 15.952 1.601-6.697 1.444-14.09-.468-21.579 5.703-1.812 11.58-2.778 17.5-2.879-.325 2.953-1.084 5.81-2.263 8.506m-17.448-12.429c-1.437-3.646-3.254-7.219-5.416-10.648 5.538-3.763 10.677-8.214 15.298-13.251 1.522 1.763 2.935 3.653 4.209 5.63 3 4.66 4.911 9.833 5.55 15.03-6.651.105-13.249 1.193-19.641 3.242"/></svg>