<svg xmlns="http://www.w3.org/2000/svg" viewBox="0 0 100 100" enable-background="new 0 0 100 100"><path d="m89.8 7.143l-3.585-3.083c-1.175-1.01-2.611-1.622-4.151-1.766-2.398-.225-4.767.73-6.336 2.555l-15.244 17.721-.504-.402c-.917-.73-1.835-1.46-2.747-2.198-.771-.623-1.702-.716-2.515-.261-.454.059-.893.231-1.275.504-1.819 1.295-3.122 3.184-3.668 5.318-.259 1.01-.03 1.989.576 2.58l.084.113c.491.559.992 1.106 1.497 1.65-10.964 14.879-24.819 27.543-38.22 39.793l-3.604 3.297c-.124.113-.237.241-.344.386-.582.386-.947.969-1.062 1.694-.564 3.609-.93 7.256-1.252 10.691-.177.2-.329.423-.453.665-.181.352-.384.713-.59 1.082-1.266 2.263-2.841 5.08-.259 7.485.121.112.237.234.354.356.494.515 1.055 1.098 1.957 1.147.197.011.403.019.615.019.638 0 1.332-.07 2.02-.339.748-.293 1.301-.77 1.836-1.23.299-.258.584-.504.938-.744 3.948.064 8.098-.208 12.689-.823.514-.069.962-.272 1.306-.591.494-.12.938-.381 1.293-.763 8.07-8.678 15.498-18.13 22.684-27.27 5.435-6.914 11.05-14.06 16.906-20.819 1.027.636 1.916 1.16 2.773 1.635.216.12.45.207.715.265.704.309 1.438.286 2.023-.063 2.446-1.459 4.146-3.251 5.351-5.642.51-1.013.038-2.115-.634-2.744-.16-.274-.38-.519-.653-.731l-2.428-1.912 14.698-17.09c2.674-3.11 2.32-7.815-.789-10.489m-34.992 45.839l-3.396-3.396c-1.825-1.825-4.654 1-2.828 2.828 1.167 1.167 2.333 2.333 3.5 3.5.076.076.155.131.233.191-1.508 1.905-3.01 3.805-4.485 5.687-1.514 1.925-3.041 3.864-4.58 5.807-1.36-.915-2.664-1.858-3.84-3.01-1.841-1.808-4.671 1.019-2.828 2.828 1.275 1.252 2.704 2.311 4.175 3.315-2.392 2.988-4.823 5.967-7.304 8.908-.016-.017-.026-.035-.043-.051-1.434-1.408-3.066-2.592-4.5-4-1.841-1.808-4.671 1.019-2.828 2.828 1.434 1.408 3.066 2.592 4.5 4 .096.094.195.168.295.237-1.701 1.963-3.423 3.905-5.178 5.806-4.61.617-8.462.863-12.13.765-.357-.006-.717.054-1.043.187-.289.037-.549.125-.773.266-.481.3-1.098.703-1.705 1.215.21-.471.505-.926.816-1.406.254-.393.517-.798.733-1.22.072-.14.124-.289.159-.459.355-.379.57-.869.624-1.429.342-3.638.663-6.703 1.113-9.785l3.347-3.062c13.496-12.34 27.446-25.09 38.594-40.04 2.918 2.834 5.991 5.41 9.148 7.667-3.335 3.86-6.584 7.84-9.774 11.828m19.268-13.365c-.325.379-.692.73-1.097 1.05-6.527-3.813-12.584-8.8-18.01-14.828.165-.31.359-.593.586-.855 5.806 4.683 11.874 9.477 18.521 14.633m12.755-25.22l-14.389 16.727-7.344-6.317 14.388-16.727c.858-.997 2.489-1.129 3.496-.263l3.585 3.084c1.036.891 1.154 2.46.264 3.496" fill="#1d1d1b"/></svg>