<svg xmlns="http://www.w3.org/2000/svg" viewBox="0 0 100 100" enable-background="new 0 0 100 100"><g fill="#1e1e1c"><path d="m71.62 50.35c-1.472 1.629-2.988 3.185-4.541 4.686.215 6.232.38 12.09.414 17.06-2.901-.915-5.899-1.302-8.996-1.095-.242.016-.457.071-.659.141-1.425.008-2.803 1.121-2.166 2.831 1.281 3.439 1.867 7.71-.103 10.999-2.383 3.978-6.634 3.87-10.675 4.38-2.472.311-5.099.146-7.591.217-1.938.055-26.494.653-26.494.749-.058-23.27-.827-57.1-1.139-80.36 18.702.081 37.4.723 56.1.323-.005 1.522.003 3.131.023 4.804 1.531-1.648 3.069-3.284 4.62-4.899.002-.472 0-.945.004-1.417.002-.256-.039-.482-.097-.695.113-1.253-.624-2.576-2.229-2.534-20.255.533-40.506-.26-60.763-.292-1.685-.003-2.423 1.478-2.215 2.777-.068.226-.114.469-.111.746.306 24.17 1.136 58.901 1.163 83.08 0 .542.154.983.4 1.331.149 1.025.885 1.931 2.217 1.898 8.755-.217 17.514-.358 26.26-.787 7.797-.382 17.514.13 24.967-2.415 2.638-.901 5-2.234 7.02-4.162 3.699-3.526 4.962-8.26 5.28-13.248.307-4.791-.258-9.816-.37-14.23-.083-3.296-.198-6.591-.324-9.885m-11.955 36.7c1.878-3.2 2.347-7.128 1.37-11.384 2.262.088 4.492.524 6.604 1.42.009.027.015.055.025.081-.685 5.04-3.876 8.138-7.999 9.883"/><path d="m85.66 6.799c-.113-.13-.239-.243-.342-.312-.681-.654-1.591-.793-2.269-.331-1.378.944-2.838 1.971-4.25 3.121l-.064-.085c-.097-.127-.209-.245-.276-.291-.209-.262-.458-.455-.721-.589-.588-.301-1.253-.276-1.75.147-1.259 1.072-3.21 2.785-5.584 4.89-1.396 1.238-2.936 2.608-4.58 4.076-2.387 2.13-4.979 4.452-7.628 6.826-1.37 1.228-2.752 2.467-4.129 3.702-9.04 8.105-18.385 16.486-22.02 19.582-.091.078-.174.168-.249.273-.309.197-.534.494-.637.843-.155.183-.268.405-.335.661-1.106 4.239-2.485 9.864-3.331 15.785-.163 1.139.579 2.052 1.318 2.407.136.073.269.128.404.166 5.567 1.596 11.372 2.587 17.252 2.947l.113.004c.318 0 .596-.087.827-.259.112-.062.217-.136.312-.222 2.485-2.259 7.801-6.956 13.958-12.396.356-.315.723-.638 1.084-.958 1.389-1.227 2.808-2.482 4.245-3.752 1.515-1.34 3.04-2.689 4.558-4.03 1.562-1.384 3.107-2.755 4.616-4.097 6.65-5.914 12.525-11.196 15.209-13.79.498-.061.953-.38 1.215-.865.352-.651.292-1.453-.161-2.144l-.156-.235c1.291-1.384 2.676-2.623 3.989-3.777.104-.092.196-.199.279-.326.543-.542.807-1.552.128-2.56-3.444-5.116-7.154-9.964-11.02-14.407m7.297 14.994c-.914.817-1.927 1.753-2.898 2.769-2.98-4.33-6.132-8.544-8.876-12.156.837-.684 1.774-1.388 2.894-2.178 3.116 3.66 6.101 7.547 8.88 11.565m-35.603 8.493c.048-.043.096-.086.144-.129 2.927-2.622 5.795-5.19 8.438-7.553 1.606-1.436 3.13-2.797 4.529-4.04 2.268-2.02 4.202-3.736 5.655-5.01.354-.311.691-.605.984-.86.469.615.936 1.231 1.402 1.848-.252.224-.566.503-.913.811-1.584 1.406-4.094 3.632-7.07 6.267-1.417 1.255-2.936 2.6-4.507 3.991-2.491 2.205-5.107 4.519-7.65 6.765-6.668 5.891-12.805 11.293-14.675 12.881-.551.468-.715 1.198-.438 1.952.275.749 1.014 1.507 1.895 1.507.353 0 .689-.127.972-.368 2.222-1.887 10.406-9.103 18.373-16.15.564-.499 1.125-.995 1.685-1.49 1.541-1.363 3.053-2.702 4.498-3.982 2.489-2.204 4.767-4.223 6.603-5.852 1.567-1.39 2.816-2.499 3.593-3.189.487.65.973 1.3 1.457 1.952-.954.874-2.638 2.364-5.485 4.827-1.617 1.398-3.606 3.108-6.06 5.201-1.356 1.158-2.86 2.44-4.51 3.842-1.975 1.679-4.171 3.542-6.611 5.606-4.515 3.821-9.854 8.325-16.19 13.655l-.539.453c-.553.465-.719 1.192-.444 1.944.274.752 1.015 1.513 1.901 1.513.351 0 .686-.126.969-.363l.458-.386c6.166-5.187 11.39-9.594 15.83-13.351 1.719-1.454 3.321-2.811 4.81-4.075 1.635-1.388 3.136-2.663 4.514-3.837.821-.699 1.6-1.364 2.335-1.992 6.554-5.598 9.814-8.454 11.344-9.849.253.35.507.701.759 1.053-2.271 2.02-5.686 5.04-9.494 8.391-1.572 1.385-3.211 2.826-4.865 4.277-1.508 1.323-3.03 2.652-4.518 3.956-1.869 1.632-3.69 3.218-5.392 4.692-4.558 3.948-8.241 7.08-9.531 8.03-.572.424-.769 1.115-.527 1.849.255.772 1.036 1.594 1.98 1.594.33 0 .649-.107.923-.31 1.261-.934 4.77-3.913 9.11-7.668 1.159-1 2.376-2.06 3.628-3.15 1.481-1.291 3.01-2.623 4.536-3.962 3.544-3.103 7.095-6.229 10.1-8.882 2.657-2.344 4.888-4.32 6.311-5.583.294.431.587.862.879 1.295-1.447 1.386-3.786 3.527-6.656 6.114-3.053 2.752-6.71 6.01-10.539 9.409-1.498 1.329-3.02 2.676-4.542 4.02-1.699 1.504-3.395 3-5.06 4.474-.979.866-1.952 1.725-2.9 2.563-5.329 4.709-9.969 8.81-12.363 10.966-4.278-4.97-8.07-10.34-11.279-15.976 3.771-3.251 13.09-11.594 22.14-19.699m-14.882 36.22c-1.731-.194-3.527-.464-5.357-.804-.029-.059-.062-.118-.098-.178-1.31-2.125-2.838-4.339-4.669-6.763.345-1.618.723-3.261 1.147-4.985 2.703 4.495 5.716 8.767 8.977 12.73m-10.06-1.823c-.378-.093-.756-.188-1.134-.286.06-.359.121-.717.185-1.074.326.459.641.91.949 1.36m14.17 5.441v-.011c0 0 0 0 .0001 0v.011"/></g></svg>