<svg xmlns="http://www.w3.org/2000/svg" viewBox="0 0 100 100" enable-background="new 0 0 100 100"><g fill="#1d1d1b"><path d="m83.82 88.67c.557-.037 1.021-.21 1.409-.46 1.381-.097 2.716-1.026 2.768-2.805.407-14.02 1.432-25.08 2.191-39.08.062-1.138-.433-1.925-1.154-2.373-1.616 1.628-3.223 3.266-4.832 4.902-.692 11.978-1.533 21.725-1.953 34.05-23.652 1.453-47.32-.205-70.994-.093-.439-21.392-.444-42.786-.032-64.18 14.157.311 27.11.593 41.06.655 1.97-1.681 3.919-3.385 5.845-5.117-.462-.428-1.09-.711-1.904-.712-16.438-.021-31.41-.366-47.843-.73-1.718-.038-2.643 1.156-2.794 2.473-.088.278-.155.575-.162.913-.467 22.399-.467 44.8 0 67.2.013.626.196 1.139.474 1.557-.481 1.696.409 3.824 2.691 3.8 25.09-.269 50.17 1.689 75.23 0"/><path d="m96.18 21.14c-4.548-5.303-9.638-10.392-15.13-15.13-.896-.773-2.227-.707-3.093.092-.169.102-.31.211-.439.341-1.776 1.776-3.679 3.65-5.812 5.459l-.287-.244c-.427-.356-.931-.544-1.456-.544-1.077 0-2.08.786-2.325 1.788-6.734 6.2-13.35 12.734-19.747 19.05-3.117 3.08-6.234 6.16-9.376 9.213-.132.127-.244.264-.288.348-.282.3-.455.683-.515 1.138-1.026 7.95-1.252 15.808-.669 23.357.014.176.046.346.093.499.229.895 1.044 1.857 2.294 1.857.113 0 .229-.008.348-.025 7.559-1.063 14.887-2.851 20.426-4.29.324-.083.612-.228.858-.43.444-.119.841-.398 1.138-.801.152-.098.28-.202.396-.321 4.754-4.878 9.761-9.667 14.604-14.299 4.83-4.621 9.826-9.399 14.577-14.271.949-.974.729-2.252.019-3.034-.099-.159-.207-.296-.328-.418l-.178-.177c1.844-1.947 3.537-3.97 5.099-5.876.672-.82.708-1.928.131-2.755-.102-.21-.211-.379-.342-.535m-54.58 26.674c4.24 4.649 8.965 8.943 14.07 12.786-2.439.604-4.75 1.136-7.03 1.619-2.551-2.513-4.918-4.613-7.23-6.416-.063-.05-.131-.097-.203-.141.038-2.685.17-5.318.393-7.848m33.507-32.977c1.626-1.391 3.16-2.864 4.489-4.177 4.336 3.852 8.451 7.985 12.245 12.297-1.37 1.64-2.565 2.994-3.712 4.205-3.84-3.807-8.34-8.19-13.02-12.325m-5.445 5.126c-4.181 4.117-8.504 8.374-12.436 12.887-.603.691-.736 1.599-.359 2.427.384.844 1.205 1.411 2.042 1.411.399 0 .986-.128 1.516-.736 3.906-4.485 8.217-8.729 12.385-12.833.77-.758 1.539-1.516 2.307-2.275.42.387.836.777 1.252 1.167-4.509 4.334-8.778 9.02-12.911 13.547-2.71 2.972-5.513 6.05-8.352 8.986-.634.656-.805 1.535-.457 2.352.365.862 1.233 1.464 2.109 1.464.562 0 1.084-.234 1.511-.677 2.848-2.949 5.653-6.03 8.367-9 4.155-4.556 8.448-9.264 12.975-13.605.726.697 1.445 1.399 2.165 2.101l.023.023c-1.795 1.773-3.601 3.537-5.406 5.3-3.702 3.614-7.53 7.352-11.203 11.126-.635.653-.809 1.53-.464 2.346.365.864 1.235 1.468 2.115 1.468.561 0 1.083-.232 1.511-.672 3.667-3.769 7.494-7.505 11.195-11.12 1.814-1.772 3.629-3.544 5.434-5.327.691.683 1.383 1.365 2.071 2.051-4.255 4.301-8.692 8.55-12.988 12.663-4.555 4.361-9.261 8.868-13.763 13.449-6.245-4.456-12.01-9.708-17.14-15.622 2.619-2.558 5.224-5.13 7.828-7.703 6.255-6.178 12.719-12.562 19.288-18.629.51.439 1.017.881 1.521 1.325-.71.703-1.423 1.405-2.136 2.107m-26.375 43.3c-.64.114-1.279.225-1.921.33-.038-.713-.068-1.427-.094-2.141.665.578 1.339 1.184 2.02 1.811"/></g></svg>