<svg xmlns="http://www.w3.org/2000/svg" viewBox="0 0 100 100" enable-background="new 0 0 100 100"><g fill="#1d1d1b"><path d="m90.32 74.914c-.276-.069-.567-.116-.888-.122-26.295-.462-52.593-.475-78.891-.475-.188 0-.354.029-.527.052-.473-.063-.945-.042-1.371.075-2.053.565-2.758 2.462-2.49 4.385.486 3.466.725 6.971.349 10.459-.131 1.22.61 2.315 1.622 2.96.551.903 1.509 1.554 2.893 1.555 26.14.016 52.28.425 78.42-.475 1.313-.045 2.238-.671 2.8-1.524.988-.531 1.715-1.524 1.715-2.991v-10.456c0-2.326-1.825-3.47-3.628-3.443m-3.501 11.359c-24.337.759-48.685.445-73.03.406.041-1.748-.046-3.492-.212-5.232 24.414.002 48.829.036 73.24.438v4.388z"/><path d="m10.544 68.14c25.672.082 51.38 2.234 76.99-.475.437-.046.819-.17 1.172-.327 2.571.057 4.995-3.538 2.774-6.233-13.572-16.464-26.23-33.646-39.516-50.34-.142-.994-.65-1.923-1.523-2.472-.56-.852-1.494-1.461-2.828-1.461-1.718 0-2.793.996-3.227 2.243-.081.079-.166.135-.244.226-13.932 16.209-23.33 35.546-36.2 52.52-.402.53-.598 1.055-.662 1.559-.633 2.071.45 4.746 3.265 4.755m36.883-51.688c11.729 14.768 22.998 29.896 34.843 44.57-21.63 1.752-43.33.386-65 .057 10.397-14.65 18.737-30.725 30.16-44.627"/></g></svg>