<svg xmlns="http://www.w3.org/2000/svg" viewBox="0 0 100 100" enable-background="new 0 0 100 100"><path d="m94.33 42.17c-.352-.761-1.065-1.341-2.159-1.341-1.901 0-3.793.032-5.684.178-.052-.559-.093-1.119-.149-1.678-.016-.16-.052-.307-.091-.451-.048-1.211-.846-2.385-2.409-2.383-22.78.037-45.566 1.263-68.33 0-.572-.032-1.036.105-1.404.343-2.535.021-5.068.09-7.596.323-1.609.149-2.409 1.5-2.395 2.763-.064.227-.108.467-.106.739.05 6.383.782 16.696 1.756 22.998.23 1.486 1.405 1.972 2.542 1.755.168.041.345.07.535.08 25.22 1.26 50.44.023 75.67-.333.846-.012 1.464-.37 1.866-.884.569-.396.971-1.04.967-1.949-.003-.725-.034-1.448-.046-2.172 1.965-.014 3.927-.071 5.879-.328 1.351-.178 2.5-1 2.5-2.5 0-.103-.019-.209-.035-.314.015-.116.035-.227.035-.352v-12.335c.0001-1.094-.579-1.807-1.34-2.159m-84 18.384c-.698-4.838-1.177-13.686-1.287-18.574 2.595-.14 5.194-.15 7.794-.15.415 0 .774-.085 1.082-.229 21.2 1.017 42.41.012 63.61-.093.44 4.889.697 13.784.773 18.691-23.992.384-47.986 1.461-71.974.355m80.34-5.501c-1.17.069-2.342.098-3.515.104-.073-1.727-.156-7.454-.272-9.179 1.26-.086 2.523-.117 3.787-.132v9.207"/></svg>