<svg xmlns="http://www.w3.org/2000/svg" viewBox="0 0 100 100" enable-background="new 0 0 100 100"><g fill="#1e1e1c"><path d="m83.932 28.855c-.181-5.491-.282-12.909-.228-18.404.002-.245-.037-.461-.093-.664.107-1.197-.596-2.461-2.129-2.421-19.354.508-38.704-.25-58.06-.28-1.61-.003-2.315 1.412-2.117 2.654-.064.216-.109.448-.106.712.292 23.09 1.086 56.28 1.111 79.38 0 .518.147.939.382 1.272.142.979.846 1.845 2.119 1.813 8.365-.208 16.734-.342 25.09-.752 7.45-.365 16.734.124 23.855-2.307 2.521-.861 4.777-2.134 6.71-3.977 3.535-3.369 4.741-7.892 5.05-12.658.292-4.577-.247-9.379-.354-13.597-.276-10.895-.873-19.875-1.231-30.768m-12.246 41.19c-1.362.008-2.678 1.071-2.07 2.705 1.225 3.286 1.784 7.366-.098 10.509-2.276 3.801-6.338 3.698-10.2 4.185-2.361.298-4.872.14-7.253.207-1.853.052-25.314.624-25.314.716-.055-22.23-.79-54.55-1.087-76.78 17.869.077 35.733.691 53.602.309-.068 18.253 1.55 44.639 1.646 59.06-2.772-.875-5.637-1.244-8.595-1.046-.233.014-.439.067-.631.134m1.745 15.196c1.795-3.058 2.243-6.81 1.31-10.877 2.161.084 4.292.501 6.309 1.356.009.025.015.052.024.077-.655 4.819-3.703 7.776-7.643 9.444"/><path d="m42.667 34.583c-2.226-.182-4.44-.485-6.667-.667-.221-.018-.419 0-.607.033-1.282-.401-3.02.283-3.143 2.051-.47 6.94-.643 13.879-.5 20.833.006.302.07.564.162.803.215.905.907 1.707 2.088 1.78 2.387.149 4.775.166 7.167.167 2.902 0 2.902-4.5 0-4.5-1.646 0-3.29-.026-4.934-.08-.026-2.086-.016-4.17.012-6.253h2.921c1.227 0 2.25-1.023 2.25-2.25 0-1.227-1.023-2.25-2.25-2.25h-2.819c.062-1.925.153-3.849.26-5.773 2.02.184 4.04.441 6.06.606 2.894.237 2.871-4.265 0-4.5"/><path d="m51.802 34.391c-1.992-.899-3.785 1.119-3.379 2.665-.093.233-.16.487-.173.778-.3 6.721-.223 13.451-.667 20.17-.192 2.898 4.31 2.88 4.5 0 .118-1.784.197-3.569.258-5.354 4.02-1.162 7.196-3.96 7.07-8.407-.126-4.439-3.794-8.128-7.608-9.849m.672 13.407c.053-2.442.109-4.884.188-7.325 2.348 2.383 3.245 5.639-.188 7.325"/><path d="m71.5 34.25c-3.294-.426-7.168-.651-9.34 2.32-1.645 2.25-.206 5.592.785 7.765 1.321 2.898 3.22 5.52 4.437 8.466 1.286 3.115-.572 2.64-3.617 2.196-2.837-.413-4.059 3.922-1.196 4.339 2.874.419 7.339 1.069 9.166-1.934 1.544-2.537.19-5.557-.968-7.951-1.382-2.855-3.271-5.492-4.385-8.473-1.332-3.563 2.481-2.57 5.119-2.229 2.871.372 2.835-4.132-.0001-4.499"/></g></svg>