<svg xmlns="http://www.w3.org/2000/svg" viewBox="0 0 100 100" enable-background="new 0 0 100 100"><path d="m85.14 71.49c-.777 0-1.575.094-2.373.278-6.316 1.46-11.822 2.17-16.833 2.17-6.222 0-11.643-1.083-16.458-3.301 4.442-1.099 6.785-5.152 6.825-9.163.048-4.852-3.17-9.828-9.413-9.952-3.45-.067-6.9-.076-10.35-.046-.069-1.364-.046-2.758.071-4.166l.557-.011c2.283-.044 4.565-.087 6.849-.14 6.247-.144 9.459-5.136 9.403-9.992-.047-4.062-2.465-8.169-7.04-9.178 1.196-.968 2.469-1.794 3.812-2.47 3.385-1.706 7.622-2.534 12.954-2.534 4.803 0 9.771.684 14.05 1.325.658.099 1.318.149 1.965.149 4.782 0 8.49-2.678 9.676-6.988.72-2.615.184-5.749-1.397-8.179-1.379-2.119-3.394-3.473-5.673-3.814-7.189-1.077-12.667-1.557-17.765-1.557-8.812 0-16.416 1.523-23.25 4.658-7.855 3.604-14.211 10.397-18.453 19.697-3.217.122-6.096.269-8.761.448-6.23.419-9.421 5.746-9.26 10.545.176 5.224 3.815 8.872 8.851 8.872.243 0 .49-.008.744-.025 1.024-.069 2.083-.132 3.224-.193-.12 1.384-.166 2.774-.136 4.162-.978.049-1.954.102-2.932.163-6.227.392-9.427 5.697-9.275 10.491.165 5.254 3.821 8.925 8.892 8.925.229 0 .46-.008.697-.022 2.513-.158 5.201-.296 8.179-.42 2.861 4.812 6.795 9.207 11.45 12.781 8.07 6.193 18.562 9.335 31.19 9.335.002 0 .002 0 .004 0 6.902 0 14.492-.945 22.557-2.81 4.762-1.1 7.589-5.106 7.03-9.969-.503-4.397-4.04-9.07-9.618-9.07m1.457 14.166c-7.696 1.779-14.906 2.681-21.431 2.681-.0001 0-.003 0-.003 0-11.498 0-20.966-2.793-28.14-8.302-4.542-3.486-8.304-7.832-10.879-12.567-.438-.807-1.282-1.306-2.196-1.306-.032 0-.064.0001-.097.002-3.632.141-6.843.3-9.815.486-.13.008-.258.013-.384.013-3.585 0-3.873-3.4-3.895-4.082-.076-2.43 1.328-5.139 4.593-5.344 1.501-.095 3-.168 4.505-.24l.87-.043c.68-.033 1.316-.343 1.764-.856.446-.514.664-1.187.604-1.865-.221-2.444-.169-4.922.154-7.361.035-.263.077-.528.119-.793l.066-.421c.112-.74-.111-1.492-.612-2.049-.5-.556-1.227-.852-1.972-.827-2.406.108-4.409.218-6.304.345-.14.009-.275.014-.409.014-3.538 0-3.831-3.365-3.854-4.04-.082-2.44 1.322-5.168 4.599-5.389 3.036-.204 6.362-.366 10.169-.496.975-.033 1.842-.63 2.22-1.529 2.605-6.194 7.596-14.443 16.575-18.563 6.163-2.828 13.09-4.203 21.16-4.203 4.84 0 10.09.463 17.02 1.502 1.083.162 1.807.958 2.222 1.597.801 1.229 1.109 2.888.769 4.126-.794 2.883-3.383 3.314-4.855 3.314-.398 0-.811-.032-1.224-.093-4.458-.668-9.645-1.381-14.791-1.381-6.132 0-11.11 1-15.204 3.069-3.539 1.783-6.666 4.384-9.294 7.73-.596.76-.701 1.795-.271 2.66.432.864 1.281 1.389 2.288 1.384l3.493-.073c3.104 0 4.233 2.408 4.257 4.47.021 1.794-.907 4.853-4.519 4.936-2.276.052-4.553.096-6.829.14l-2.734.053c-1.214.024-2.235.917-2.421 2.118-.094.606-.173 1.213-.234 1.824-.271 2.735-.238 5.436.097 8.03.162 1.247 1.225 2.179 2.479 2.179.012 0 .022 0 .033 0 4.164-.053 8.331-.061 12.499.021 3.6.071 4.53 3.116 4.513 4.903-.021 2.077-1.156 4.503-4.288 4.503l-.125-.0001c-1.518-.03-3.035-.038-4.551-.047l-.957-.005c-.005 0-.001 0-.015 0-1.027 0-1.951.629-2.327 1.586-.378.962-.125 2.057.637 2.756 1.227 1.126 2.486 2.078 3.854 2.91 6.427 3.911 13.756 5.812 22.406 5.812 5.394 0 11.269-.752 17.959-2.299.428-.099.848-.149 1.246-.149 2.705 0 4.387 2.332 4.649 4.635.126 1.108.069 3.774-3.192 4.528" fill="#1e1e1c"/></svg>