<svg xmlns="http://www.w3.org/2000/svg" viewBox="0 0 100 100" enable-background="new 0 0 100 100"><g fill="#1d1d1b"><path d="m56.22 72.34c-1.098 0-2.12.415-2.804 1.14-.661.701-.979 1.637-.916 2.704.21 3.62.264 7.195.278 10.559-4.75.072-9.377.108-13.769.108-8.104 0-15.628-.118-22.969-.36-.061-14.483-.41-29.18-.748-43.4-.24-10.142-.489-20.619-.632-30.943 5.619-.316 11.659-.458 19.411-.458 3.585 0 7.17.029 10.755.058 1.914.016 3.829.031 5.743.042.105 2.243.283 4.47.485 6.901.007.081.019.157.037.25-.026.18-.04.36-.04.538v2.312c0 2.145 1.745 3.89 3.891 3.89 2.145 0 3.89-1.745 3.89-3.89v-2.312c0-.061-.004-.12-.012-.179.027-.258.03-.511.008-.771-.271-3.268-.551-6.646-.574-10.04-.006-.87-.27-1.664-.765-2.306-.612-1.35-1.877-2.152-3.412-2.156-3.185-.006-6.369-.033-9.554-.061-3.632-.031-7.265-.062-10.896-.062-6.265 0-14.537.08-22.98.704-1.306.096-2.392.747-3.064 1.836-.502.65-.762 1.461-.752 2.352.132 11.476.412 23.14.683 34.417.366 15.241.745 31 .763 46.5.002 1.578.826 2.851 2.218 3.449.668.63 1.528.98 2.502 1.018 8.255.313 16.739.467 25.938.467 0 0 .0001 0 .002 0 5.671 0 11.48-.058 17.761-.177 1.675-.032 3.03-1.021 3.552-2.588.212-.484.319-1.02.319-1.592 0-5.05-.021-9.599-.291-14.221-.144-2.447-2.15-3.727-4.058-3.727"/><path d="m92.66 45.34c-7.954-8.838-15.908-17.676-23.863-26.514-2.311-2.567-5.723-.28-5.876 2.435-.039.166-.085.328-.103.508-.329 3.185-.424 6.377-.453 9.573h-22.662c-1.693 0-2.752.984-3.175 2.215-.48.549-.793 1.281-.793 2.221v11.932 2.543 11.933c0 .94.313 1.672.793 2.221.423 1.231 1.482 2.215 3.175 2.215h22.662c.029 3.196.124 6.388.453 9.573.018.181.064.342.103.508.153 2.715 3.565 5 5.876 2.435 7.954-8.838 15.909-17.676 23.863-26.514 1.346-.605 2.365-2.085 2.275-3.643.091-1.556-.929-3.036-2.275-3.641m-23.266 22.681c-.026-1.632-.037-3.265-.037-4.9-.0001-2.268-1.767-3.396-3.526-3.386-.282-.069-.58-.116-.911-.116h-22.18v-9.364-2.543-9.364h22.18c.331 0 .629-.047.911-.116 1.759.001 3.525-1.118 3.526-3.386 0-1.634.011-3.267.037-4.9 5.711 6.346 11.422 12.692 17.13 19.04-5.712 6.345-11.423 12.691-17.13 19.04"/></g></svg>