<svg xmlns="http://www.w3.org/2000/svg" viewBox="0 0 100 100" enable-background="new 0 0 100 100"><g fill="#1d1d1b"><path d="m65.29 72.05c-1.098 0-2.12.415-2.804 1.14-.661.701-.979 1.637-.916 2.704.209 3.607.263 7.188.277 10.559-4.793.07-10.347.107-16.14.107-10.849.0001-20.735-.128-27.998-.361-.061-14.499-.41-29.21-.748-43.45-.24-10.126-.489-20.587-.632-30.895 5.704-.312 13.229-.458 23.546-.458 5.098 0 10.139.035 14.67.067 1.785.013 3.492.024 5.092.034.105 2.242.283 4.469.485 6.9.007.081.019.157.037.25-.026.18-.04.36-.04.538v2.312c0 2.145 1.745 3.89 3.891 3.89 2.145 0 3.89-1.745 3.89-3.89v-2.312c0-.061-.004-.121-.012-.179.027-.258.03-.511.008-.771-.271-3.261-.552-6.633-.574-10.04-.006-.87-.27-1.664-.765-2.306-.612-1.35-1.877-2.152-3.412-2.156-2.949-.006-6.207-.029-9.646-.055-4.51-.033-9.333-.068-14.185-.068-11.92 0-20.498.224-26.996.704-1.309.097-2.395.748-3.066 1.837-.502.651-.762 1.463-.751 2.351.132 11.48.412 23.15.683 34.429.366 15.237.744 30.993.763 46.49.002 1.576.826 2.85 2.218 3.449.667.63 1.527.98 2.501 1.017 7.918.301 18.811.467 30.671.467 7.161 0 14.416-.062 20.427-.177 1.675-.031 3.03-1.021 3.553-2.587.212-.484.319-1.02.319-1.592-.0001-5.064-.023-9.629-.291-14.221-.144-2.447-2.15-3.727-4.058-3.727"/><path d="m78.03 31.05h-22.662c-.029-3.196-.124-6.388-.453-9.573-.018-.181-.064-.342-.103-.508-.153-2.715-3.565-5-5.876-2.435-7.954 8.838-15.909 17.676-23.863 26.514-1.346.605-2.365 2.084-2.275 3.643-.09 1.558.929 3.038 2.275 3.643 7.954 8.838 15.909 17.676 23.863 26.514 2.311 2.567 5.723.279 5.876-2.435.039-.166.085-.328.103-.508.329-3.185.424-6.377.453-9.573h22.662c1.693 0 2.752-.984 3.175-2.215.481-.55.794-1.283.794-2.222v-11.933-2.544-11.932c0-.94-.313-1.672-.793-2.221-.424-1.231-1.483-2.215-3.176-2.215m-3.035 16.369v2.544 9.364h-22.18c-.331 0-.628.047-.911.116-1.759-.001-3.525 1.118-3.526 3.386 0 1.634-.011 3.267-.038 4.9-5.711-6.346-11.422-12.692-17.13-19.04 5.711-6.346 11.422-12.692 17.13-19.04.026 1.632.038 3.265.038 4.9 0 2.268 1.767 3.396 3.526 3.386.282.069.58.116.911.116h22.18v9.364"/></g></svg>