<svg xmlns="http://www.w3.org/2000/svg" viewBox="0 0 100 100" enable-background="new 0 0 100 100"><g fill="#1d1d1b"><path d="m53.34 60.03c-4.206-4.206-8.397-8.425-12.432-12.797-1.088-1.18-2.491-.938-3.409-.105-.146.082-.29.173-.43.288-3.309 2.722-10.773 10.07-13.81 13.09-1.468-1.335-2.883-2.727-4.289-4.132-.547-.547-1.163-.759-1.758-.75-1.556-.741-3.826-.013-3.752 2.213.337 10.237.185 20.474 0 30.713-.038 2.104 2 2.877 3.529 2.329 9.191-.898 18.384-1.77 27.575-2.669 1.464-.143 2.278-1.247 2.444-2.399.484-.883.492-2-.433-2.929-1.914-1.915-3.816-3.838-5.597-5.877 2.523-2.681 9.562-9.621 12.541-11.801 1.488-1.089 1.353-2.978.476-4.09-.111-.373-.314-.742-.655-1.083m-17.733 15.173c-1.314 1.449-.586 3.308.689 4.094.103.225.228.446.408.659 1.029 1.216 2.109 2.385 3.211 3.532-7.078.687-14.157 1.366-21.234 2.055.123-7.391.199-14.781.072-22.17.847.793 1.707 1.574 2.595 2.325.73.617 1.553.742 2.297.57.641.051 1.315-.16 1.908-.753 2.913-2.911 10.238-10.175 13.344-12.874 3.165 3.366 6.412 6.653 9.675 9.924-3.082 2.511-10.277 9.675-12.965 12.639"/><path d="m85.94 8.768c-9.197.834-18.396 1.641-27.593 2.476-1.464.133-2.287 1.231-2.46 2.382-.49.88-.506 2 .412 2.931 1.901 1.928 3.79 3.865 5.556 5.916-2.542 2.663-9.629 9.554-12.623 11.713-1.496 1.079-1.373 2.968-.504 4.087.109.374.309.745.648 1.088 4.176 4.236 8.338 8.483 12.342 12.883 1.08 1.187 2.484.956 3.408.129.146-.081.291-.171.432-.285 3.328-2.699 10.844-9.999 13.901-12.993 1.458 1.346 2.864 2.747 4.259 4.161.543.55 1.158.768 1.753.763 1.551.752 3.826.039 3.768-2.187-.265-10.239-.042-20.475.214-30.712.053-2.102-1.98-2.889-3.513-2.352m-1.954 27.493c-.842-.799-1.696-1.586-2.579-2.343-.726-.622-1.547-.752-2.293-.586-.64-.056-1.316.151-1.913.74-2.933 2.891-10.309 10.1-13.434 12.78-3.142-3.388-6.366-6.697-9.606-9.991 3.099-2.488 10.344-9.602 13.05-12.548 1.325-1.44.609-3.304-.661-4.099-.101-.225-.224-.448-.403-.662-1.021-1.223-2.092-2.399-3.187-3.554 7.083-.637 14.166-1.267 21.248-1.907-.172 7.389-.3 14.779-.224 22.17"/></g></svg>