<svg xmlns="http://www.w3.org/2000/svg" viewBox="0 0 100 100" enable-background="new 0 0 100 100"><path d="m88.58 56.89c-.133-1.465-1.23-2.287-2.382-2.461-.88-.49-2-.506-2.932.412-1.928 1.901-3.865 3.789-5.916 5.556-2.208-2.108-7.317-7.336-10.231-10.769 3.677-3.339 8.561-8.09 10.881-10.359 1.459 1.346 2.864 2.747 4.26 4.161.543.55 1.157.768 1.753.763 1.551.752 3.825.039 3.767-2.187-.265-10.239-.042-20.475.214-30.712.053-2.104-1.98-2.891-3.513-2.353-9.197.834-18.396 1.641-27.593 2.476-1.465.133-2.287 1.231-2.461 2.382-.49.88-.506 2 .413 2.931 1.9 1.928 3.79 3.865 5.556 5.916-2.064 2.163-7.126 7.114-10.559 10.05-3.369-3.663-8.21-8.575-10.518-10.899 1.335-1.468 2.727-2.883 4.132-4.289.546-.547.759-1.163.75-1.758.741-1.556.013-3.826-2.213-3.752-10.236.337-20.474.185-30.712 0-2.104-.038-2.877 2-2.329 3.529.897 9.191 1.77 18.384 2.668 27.575.143 1.464 1.247 2.278 2.399 2.444.883.484 2 .492 2.929-.433 1.914-1.914 3.838-3.816 5.876-5.597 2.168 2.041 7.122 7.03 10.09 10.446-3.683 3.374-8.74 8.357-11.11 10.71-1.468-1.335-2.883-2.727-4.289-4.132-.547-.547-1.163-.759-1.758-.75-1.557-.741-3.826-.013-3.752 2.213.336 10.237.185 20.474 0 30.713-.039 2.104 2 2.877 3.529 2.329 9.191-.898 18.384-1.77 27.575-2.669 1.463-.143 2.278-1.247 2.444-2.399.484-.883.492-2-.433-2.929-1.914-1.915-3.816-3.838-5.597-5.877 2.083-2.214 7.242-7.327 10.655-10.27 3.347 3.699 8.235 8.728 10.552 11.09-1.346 1.459-2.747 2.864-4.162 4.26-.55.543-.768 1.158-.763 1.753-.752 1.551-.04 3.825 2.187 3.767 10.239-.265 20.475-.042 30.712.214 2.104.053 2.891-1.98 2.354-3.513-.833-9.195-1.64-18.394-2.475-27.591m-22.825-32.404c1.324-1.44.609-3.304-.661-4.099-.101-.225-.225-.448-.403-.662-1.02-1.223-2.092-2.399-3.187-3.554 7.083-.637 14.166-1.267 21.249-1.907-.175 7.39-.302 14.779-.227 22.17-.842-.799-1.696-1.586-2.579-2.343-.726-.622-1.548-.752-2.293-.586-.641-.056-1.316.151-1.913.74-2.84 2.8-9.836 9.641-13.11 12.501-.15.041-.294.095-.435.157-2.88-3.103-5.831-6.139-8.798-9.16 0-.369-.099-.728-.266-1.061 3.29-2.743 10.03-9.375 12.627-12.196m-15.908 33.676c-2.716-2.727-5.413-5.471-8.06-8.265 2.748-2.737 5.514-5.456 8.33-8.122 2.717 2.768 5.413 5.555 8.06 8.393-2.746 2.696-5.512 5.37-8.328 7.994m-25.23-24.01c-1.449-1.314-3.308-.586-4.094.689-.225.102-.446.228-.659.408-1.216 1.029-2.385 2.109-3.532 3.211-.687-7.078-1.366-14.157-2.055-21.235 7.391.123 14.781.199 22.17.072-.793.847-1.574 1.707-2.324 2.595-.617.73-.742 1.553-.57 2.297-.051.641.16 1.315.753 1.908 2.736 2.738 9.316 9.372 12.338 12.739.028.314.107.617.226.903-3.082 2.906-6.099 5.878-9.1 8.868-.281-.004-.557.048-.82.145-2.736-3.247-9.479-10.01-12.335-12.6m9.528 41.23c-1.314 1.449-.586 3.308.689 4.094.103.225.228.446.408.659 1.029 1.216 2.108 2.385 3.211 3.532-7.078.687-14.157 1.366-21.235 2.055.123-7.391.199-14.781.072-22.17.847.793 1.707 1.574 2.595 2.325.73.617 1.553.742 2.297.57.641.051 1.315-.16 1.908-.753 2.795-2.794 9.643-9.584 12.938-12.514.22-.016.436-.05.645-.112 2.991 3.174 6.05 6.28 9.133 9.369.032.152.078.302.138.446-3.163 2.618-10.156 9.585-12.799 12.5m29.414 7.152c.799-.842 1.586-1.696 2.343-2.579.622-.726.752-1.548.586-2.293.056-.64-.151-1.316-.739-1.913-2.854-2.895-9.908-10.11-12.665-13.302-.017-.066-.024-.134-.045-.198 3.197-2.966 6.323-6.01 9.434-9.06.23-.053.451-.149.661-.266 2.622 3.201 9.49 10.191 12.374 12.842 1.44 1.324 3.304.609 4.099-.661.226-.101.448-.225.662-.403 1.224-1.02 2.399-2.092 3.554-3.187.637 7.083 1.267 14.166 1.907 21.248-7.39-.172-14.779-.3-22.17-.224" fill="#1d1d1b"/></svg>