<svg xmlns="http://www.w3.org/2000/svg" viewBox="0 0 100 100" enable-background="new 0 0 100 100"><g fill="#1d1d1b"><path d="m7.978 71.968c-.152.991-.07 1.981.462 2.874.016.028.039.05.056.076.427.824 1.236 1.435 2.458 1.422 25.09-.269 50.17 1.689 75.23 0 .557-.037 1.021-.21 1.41-.46 1.381-.097 2.716-1.026 2.768-2.805.406-14.02 1.432-11.08 2.191-25.08.049-.903-.255-1.583-.741-2.051-1.786.711-3.487 1.591-5.134 2.595-.71 12.507-1.621 9.04-2.063 22.03-21.535 1.323-43.09.071-64.64-.08.296-.069.591-.145.883-.234 2.46-.75 1.41-4.612-1.063-3.857-2.02.616-4.149.602-6.247.596-.042-2.125-.079-4.122-.111-6h5.889c2.58 0 2.58-4 0-4h-5.951c-.036-2.587-.062-4.999-.077-7.333h7.362c2.579 0 2.579-4 0-4h-7.378c-.002-2.082.004-4.16.02-6.319 2.394.133 4.79.153 7.19.153 2.58.0001 2.58-3.999 0-4-2.388 0-4.771-.021-7.152-.151.027-2.361.063-4.858.109-7.593 2.736-.062 5.472-.089 8.209-.089 2.579 0 2.579-4 0-4-2.714 0-5.427.027-8.139.088.021-1.112.042-2.256.065-3.45 15.485.341 31.509.649 46.999.669.067 0 .124-.015.188-.018.206-1.929.277-3.859.118-5.794-.103-.001-.197-.031-.306-.031-16.438-.021-33.41-.366-49.843-.73-1.718-.038-2.643 1.155-2.794 2.473-.092.278-.159.575-.166.913-.467 22.399-.467 30.8 0 53.2.008.366.08.689.19.982"/><path d="m95.61 32.565c-8.531-6.296-17.425-12.07-26.09-18.17-1.422-1-2.793.075-3.08 1.413-.079.193-.143.399-.169.631-.281 2.492-.441 4.989-.506 7.493-20.24 1.674-31.492 16.623-41.31 33.16-.142.239-.22.474-.267.704-2.056 1.713.971 4.656 3.118 2.993 11.263-8.722 23.359-16.506 37.969-16.317.355.005.204 4.344.182 4.917-.074 1.881.986 4.949 3.52 3.641 9.373-4.84 17.695-11.404 26.992-16.375 1.556-.832 1.249-2.63.191-3.505-.141-.212-.317-.412-.551-.585m-25.778 15.09c-.018-1.85-.212-3.693-.582-5.523-.111-.547-.37-.931-.704-1.185-.347-.424-.867-.722-1.559-.76-12.738-.709-23.682 4.273-33.79 11.05 8.159-12.26 18.08-22.398 34.33-23.1.19-.008.365-.04.53-.085 1.017-.073 1.984-.759 1.989-2.074.008-1.946.083-3.888.214-5.826 6.902 4.786 13.888 9.45 20.698 14.367-7.186 4.147-13.901 9.06-21.13 13.14"/></g></svg>