<svg xmlns="http://www.w3.org/2000/svg" viewBox="0 0 100 100" enable-background="new 0 0 100 100"><g fill="#1d1d1b"><path d="m45.785 23.18c-18.562.899-35.906 11.488-41.924 29.528-.166.495-.186.944-.115 1.35-.141.609-.054 1.293.403 1.992 20.385 31.23 68.891 23.837 90.98-1.706.155-.181.282-.367.386-.556.698-.812.985-1.974.346-3.189-9.758-18.54-29.506-28.415-50.08-27.419m-36.26 30.623c4.572-13.13 16.04-21.03 29.04-23.855-8.13 3.241-14.625 10.213-15.562 19.433-.793 7.811 2.683 15.08 8.35 19.868-8.602-2.39-16.304-7.334-21.824-15.446m37.05 15.855c-10.271.598-18.768-9.32-18.38-19.12.32-8.09 6.735-14.01 14.05-16.261 2.408-.18 4.809-.17 7.218.052.23.021.441.013.641-.014 8.688 2.385 15.563 9.984 14.207 19.732-1.2 8.622-9.304 15.12-17.738 15.608m15.735-1.39c3.854-3.745 6.556-8.693 7.283-13.919 1.777-12.773-7.832-22.816-19.413-25.457-.024-.033-.045-.068-.07-.099 16.25.275 31.45 8.702 39.758 22.847-7.06 7.583-16.942 13.428-27.558 16.628"/><path d="m57.658 49.639c-.983-2.849-2.479-5.348-5.115-6.934-.619-.372-1.279-.637-1.96-.825-.84-.348-1.712-.563-2.594-.669.073.117.15.229.214.355.709 1.408.851 2.832.621 4.373-.172 1.149-.8 2.447-1.703 3.201-1.345 1.123-3.01 1.582-4.735 1.092-1.786-.509-3.284-1.764-4.496-3.127-.269-.302-.463-.646-.589-1.01-2.411 2.884-2.887 6.768-.059 10.307 3.416 4.273 9.873 5.703 14.886 3.752.075-.029.134-.071.206-.104.498-.091.96-.306 1.328-.657.246-.149.488-.325.717-.565 1.933-2.02 3.575-4.493 3.42-7.404-.002-.049-.016-.093-.02-.142.103-.491.089-1.038-.121-1.646"/></g></svg>