<svg xmlns="http://www.w3.org/2000/svg" viewBox="0 0 100 100" enable-background="new 0 0 100 100"><g fill="#1d1d1b"><path d="m94.16 32.667c-.0001-.228-.049-.429-.115-.617-.244-1.262-1.715-2.34-3.267-1.443-7.519 4.345-14.509 9.347-21.85 13.914.181-4.498.043-8.994-.229-13.497.511-1.585-2.01-3.325-3.847-1.938-7.173 5.42-14.978 10.09-22.56 15.03-.235-5.204-.54-10.405-.572-15.615-.0001-.223-.046-.42-.109-.605-.3-1.44-2.332-2.538-3.728-1.143-2.393 2.392-4.978 4.579-7.668 6.654.277-7.356.524-14.711.544-22.07 0-.201-.031-.381-.075-.551.052-1.037-.586-2.116-1.925-2.116h-10.332c-.205 0-.387.033-.56.079-1.051-.071-2.141.564-2.107 1.921.274 11.157-.328 22.278-1.31 33.389-1.966 1.236-3.935 2.47-5.89 3.717-.317.203-.543.444-.703.702-.26.304-.417.7-.411 1.191.154 10.557-.166 27.11-.187 37.667 0 .282.061.527.155.747.21.81.903 1.527 2.092 1.586 27.26 1.354 54.56.835 81.84.835 1.744 0 2.431-1.445 2.076-2.599.145-1.758.082-3.483-.201-5.223-.048-14.676 1.054-35.33.934-50.01m-67.41-20c-.011 1.667-.037 3.334-.066 5h-6.874c.001-1.666.009-3.333-.016-5h6.956m-6.997 9h6.841c-.124 4.923-.299 9.844-.489 14.766-2.421 1.704-4.914 3.333-7.425 4.941.542-6.563.929-13.13 1.073-19.707m68.979 62.33c.003.376.109.69.274.956.027.516.033 1.032.015 1.548-25.756.025-51.52.437-77.25-.744.044-9.747.298-25.492.18-35.24 8.726-5.528 17.711-10.807 25.374-17.467.162 5.15.489 10.295.654 15.446.077 2.4 3.989 2.566 4.449.484 7.291-4.845 14.842-9.371 21.961-14.412.198 4.644.212 9.283-.19 13.928-.126 1.461 1.267 2.084 2.537 1.885.332-.022.679-.116 1.033-.325 7.492-4.419 14.496-9.446 21.895-13.979-.054 13.978-1.045 33.94-.931 47.92"/><path d="m78.24 56.833h-6.555c-1.1 0-1.78.577-2.045 1.293-.166.281-.253.622-.202 1.04.358 2.948.34 9.884 0 12.833-.144 1.254.858 1.885 1.954 1.909.204.054.422.092.668.092h6.367c1.331 0 2.043-.844 2.152-1.756.056-.177.096-.365.096-.578v-12.5c0-.524-.191-.936-.487-1.247-.313-.614-.957-1.086-1.948-1.086m-2.06 13.167h-2.072c.112-1.723.111-7.444-.015-9.167h2.087v9.167"/><path d="m59.13 56.833h-6.555c-1.1 0-1.78.577-2.045 1.293-.166.281-.253.622-.202 1.04.358 2.948.34 9.884 0 12.833-.145 1.254.858 1.885 1.954 1.909.204.054.421.092.668.092h6.367c1.331 0 2.043-.844 2.152-1.756.056-.177.095-.365.095-.578v-12.5c0-.524-.191-.936-.487-1.247-.312-.614-.956-1.086-1.947-1.086m-2.06 13.167h-2.072c.112-1.723.111-7.444-.015-9.167h2.087v9.167"/><path d="m40.03 56.833h-6.555c-1.101 0-1.781.577-2.046 1.293-.166.281-.253.622-.202 1.04.358 2.948.34 9.884 0 12.833-.145 1.254.858 1.885 1.954 1.909.205.054.422.092.669.092h6.368c1.331 0 2.042-.844 2.152-1.756.056-.177.095-.365.095-.578v-12.5c0-.524-.191-.936-.486-1.247-.314-.614-.958-1.086-1.949-1.086m-2.06 13.167h-2.072c.112-1.723.111-7.444-.015-9.167h2.086v9.167z"/></g></svg>