<svg xmlns="http://www.w3.org/2000/svg" viewBox="0 0 100 100" enable-background="new 0 0 100 100"><g fill="#1e1e1c"><path d="m28.13 37.11c3.047 2.16 6.497 3.301 9.977 3.301 4.555 0 9.04-1.915 12.633-5.393.958-.928 1.96-2.01 2.229-2.333.117-.14.224-.301.316-.476 3.45-6.516 2.873-13.256-1.582-18.491-1.057-1.242-1.994-2.295-2.331-2.621-.173-.167-.386-.316-.631-.442-3.101-1.595-6.241-2.404-9.333-2.404-4.25 0-8.354 1.507-12.196 4.478-.173.134-.321.28-.439.432-.274.353-1.16 1.563-1.951 2.723-5.11 7.496-3.749 16.224 3.308 21.23m2.212-20.229c.078-.083.148-.17.212-.258.27-.374 1.428-1.382 2.772-2.057 2.94-1.477 6.229-1.794 9.507-.92 1.537.41 3.662 1.722 4.735 2.925 2.775 3.108 3.651 6.726 2.534 10.461-.42 1.405-1.105 2.651-1.339 2.898-2.546 3.419-6.11 5.274-10.08 5.274-4.848 0-9.448-2.82-11.186-6.859-.933-2.171-1.807-6.549 2.846-11.464"/><path d="m71.63 60.48c-.108.059-.212.115-.321.174-1.298.707-2.617 1.421-3.957 2.079.191 4.219.331 8.439.435 12.661.065 2.673.089 5.347.102 8.02-3.157.003-6.312.036-9.466.199-.17-6.761-.514-15.238-.798-20.309-.155-2.775-4.484-2.79-4.328 0 .353 6.302.801 17.889.889 24.875-9.916-.037-19.831-.193-29.747-.227-.031-6.96-.162-18.16-.174-24.288-.005-2.791-4.333-2.791-4.328 0 .009 4.56.084 11.939.135 18.284-3.497.161-6.997.197-10.497.203-.489-9.718-.113-19.432.081-29.16.881-1.817 2.274-3.14 4.211-3.778 6.137-.647 12.306-.912 18.474-1 6.191-.09 12.383.003 18.573.068 2.648.028 5.297-.027 7.945-.024.459 0 .933-.004 1.409.002-.529-.843-1.367-1.686-2.191-2.511-.475-.475-.966-.967-1.396-1.462-.098-.112-.216-.234-.327-.352-1.078.026-2.155.052-3.221.042-3.185-.029-6.369-.071-9.553-.099-6.372-.056-12.748-.054-19.11.232-3.574.161-7.145.409-10.703.787-.273-.031-.57-.009-.891.089-3.094.945-5.72 3.069-7.06 6.04-.124.275-.204.56-.239.844-.141.274-.23.594-.237.969-.203 10.345-.633 20.677 0 31.02.055.89.54 1.492 1.165 1.813.32.304.758.506 1.329.506 4.094 0 8.186-.018 12.275-.207.009 1.373.015 2.647.017 3.746.0001.382.088.706.228.984.246.702.852 1.263 1.82 1.264 11.573.013 23.14.238 34.718.252 1.811.002 2.354-1.952 1.639-3.138-.004-.457-.001-.942-.017-1.445 3.314-.169 6.631-.196 9.951-.197.524 0 .937-.169 1.25-.431 1.189.177 2.529-.509 2.526-2.063-.014-6.773-.285-13.524-.495-20.292-.044-1.389-.071-2.781-.108-4.173"/><path d="m95.02 34.957c-.768-.146-1.577-.352-2.435-.57-.884-.225-1.799-.458-2.722-.636-1.638-.315-3.296-.573-4.899-.823-.449-.07-.898-.14-1.347-.21-.437-.841-.87-1.741-1.322-2.678-1.465-3.04-2.979-6.182-5.161-8.554-.335-.365-.78-.598-1.261-.684-.116-.021-.232-.04-.351-.043-.61-.009-1.206.228-1.639.662-2.254 2.265-3.881 5.692-5.316 8.715-.47.99-.919 1.938-1.365 2.793-.375.059-.866.115-1.34.162-.574.057-1.124.103-1.417.126-.437.036-.772.066-.922.087l-.97.134c-2.253.309-4.583.629-6.886 1.278-.307.087-.587.239-.827.439-.222.185-.41.41-.549.669-.261.49-.32 1.055-.189 1.591.014.056.019.114.037.169.574 1.745 2.14 3.245 3.521 4.568.418.401.816.779 1.132 1.125.185.203.387.408.596.616.235.233.48.469.732.709 1.09 1.039 2.326 2.216 2.412 3.191.018.203.022.418.033.628.0001.016.002.033.002.049.134 2.897-.404 6.415-.891 9.553l-.176 1.141c-.095.625.09 1.245.477 1.73.079.1.155.202.252.288.417.371.951.569 1.496.569.199 0 .398-.026.595-.08.656-.18 1.304-.396 1.947-.632.333-.122.664-.251.994-.386 1.466-.597 2.901-1.299 4.311-2.02.439-.225.877-.451 1.311-.676.604-.313 1.175-.6 1.752-.892.279-.141.571-.296.846-.43l2.17 1c1.66.766 3.321 1.532 4.979 2.308.286.134.574.294.866.454.948.52 2.123 1.148 3.502 1.271.06.005.114.023.174.027.746.03 1.429-.301 1.871-.846.223-.276.389-.603.46-.973.591-3.054-.058-6.639-.631-9.803-.148-.82-.284-1.598-.4-2.345-.034-.218-.074-.446-.103-.656.535-.619 1.646-1.656 2.114-2.094.421-.394.75-.708.89-.862.486-.536.981-1.068 1.476-1.601 1.17-1.257 2.379-2.558 3.498-3.938.115-.142.206-.298.282-.459.253-.537.292-1.159.082-1.731-.27-.739-.914-1.284-1.691-1.432m-24.283.899c.646-1.161 1.252-2.438 1.895-3.79.828-1.744 1.676-3.512 2.603-5.02.07-.114.137-.238.208-.349 1.016 1.601 1.917 3.472 2.798 5.3.628 1.302 1.277 2.649 1.955 3.864.334.599.922 1.012 1.598 1.124.825.136 1.651.265 2.478.394 1.564.243 3.182.495 4.739.795.471.091.949.201 1.44.321-.086.094-.176.189-.263.283-.21.226-.419.452-.633.682-.508.546-1.016 1.092-1.51 1.637-.111.118-.344.332-.633.602-2.688 2.51-3.766 3.684-3.6 5.2.001.088.028.183.038.272.142 1.181.358 2.41.593 3.712.328 1.81.663 3.658.765 5.332-.182-.097-.363-.187-.543-.274-.043-.021-.087-.045-.13-.066-1.664-.778-3.332-1.548-5-2.317l-3.124-1.444c-.3-.14-.624-.209-.947-.209s-.646.069-.947.209c-1.097.509-2.208 1.08-3.296 1.643-.136.071-.276.141-.411.211-1.267.657-2.556 1.315-3.841 1.905-.151.069-.302.148-.452.215.113-.799.215-1.62.306-2.445.233-2.13.36-4.295.189-6.238-.064-.733-.268-1.401-.55-2.024-.746-1.643-2.09-2.937-3.239-4.03-.397-.378-.782-.743-1.109-1.101-.375-.411-.845-.864-1.343-1.341-.182-.173-.383-.366-.589-.568.971-.162 1.962-.298 2.98-.438l.37-.051.606-.084c.119-.015.36-.033.67-.059.176-.014.321-.028.486-.042 3.421-.291 4.748-.554 5.443-1.805"/></g></svg>