<svg xmlns="http://www.w3.org/2000/svg" viewBox="0 0 100 100" enable-background="new 0 0 100 100"><path fill="#1d1d1b" d="m90.36 5c-.424-.483-1.079-.729-1.896-.433-11.279 4.092-23.594 3.723-34.75 8.25-.734.298-1.139.878-1.277 1.506-.092.203-.164.422-.191.673-.478 4.466-.669 8.908-.278 13.385-1.474-3.53-1.795-7.266-1.472-11.135.138-1.655-1.467-2.23-2.688-1.755-.265.027-.542.115-.821.278-5.534 3.218-10.618 7.07-15.405 11.313-.903.8-.76 1.837-.161 2.546 1.188 4.206 2.5 8.374 3.931 12.504-2.191-2.209-3.598-4.904-3.856-8.136-.18-2.255-3.318-2.53-3.908-.792-.105.151-.2.315-.271.51-3.928 10.928-4.21 22.56-.422 33.546-6.331 7.581-12.13 15.648-17.376 24.23-1.349 2.207 2.111 4.215 3.454 2.02 5.519-9.03 11.675-17.479 18.423-25.394.183.067.378.12.6.135 17.03 1.173 30.751-7.05 44.01-16.773 1.912-1.402.326-4.495-1.581-3.699-.147-.0001-.301.012-.46.044-3.184.631-6.4.609-9.549-.16-.053-.046-.103-.095-.16-.138-.423-.32-.647-.619-.637-.951 4.752.398 9.459.273 14.159-.644.336-.065.604-.193.818-.359.194-.097.385-.222.564-.405 10.166-10.382 12.504-24.392 12.337-38.42-.011-.895-.503-1.472-1.136-1.746m-13.812 37.1c-4.574.87-9.179.85-13.802.4-.188-.018-.359-.008-.52.017-.441.039-.859.213-1.145.569-1.024 1.28-1.627 2.597-1.393 4.263.2 1.419 1.118 2.475 2.184 3.341.23.334.584.605 1.091.739 1.692.447 3.398.693 5.11.779-10.144 6.891-20.764 12.238-33.381 12.137 9.169-10.226 19.371-19.51 30.562-27.867.227-.169.396-.365.528-.572.128-.065.254-.144.376-.241 5.481-4.311 10.1-9.428 14.06-15.16 1.472-2.127-1.997-4.124-3.454-2.02-3.769 5.448-8.229 10.248-13.437 14.345-.166.13-.288.271-.392.415-12.139 9.09-23.16 19.211-32.976 30.429-2.144-7.572-2.267-15.292-.544-22.881 1.06 2.024 2.534 3.831 4.412 5.366.026.022.055.034.082.054.483.617 1.309.895 2.114.71 1.817-.416 2.946-1.914 3.397-3.647.041-.156.056-.313.06-.468.085-.321.083-.686-.06-1.095-1.463-4.181-2.789-8.405-4-12.665 3.472-3 7.113-5.759 10.979-8.217.116 3.887.993 7.643 2.867 11.172.37.696.95.988 1.542.996.589.303 1.314.299 1.945-.029 1.194-.621 2.133-1.551 2.702-2.748.373-.318.603-.808.539-1.479-.397-4.21-.266-8.387.135-12.582 10.124-3.734 21.11-3.818 31.369-7.05-.108 12.05-2.29 23.974-10.952 32.986"/></svg>