<svg xmlns="http://www.w3.org/2000/svg" viewBox="0 0 100 100" enable-background="new 0 0 100 100"><g fill="#1e1e1c"><path d="m50.34 2.76c-.789-.051-1.579-.081-2.369-.106-.177-.04-.365-.064-.579-.045-.068.006-.136.016-.204.022-.252-.007-.504-.015-.756-.022-.367-.001-.673.078-.931.223-14.764 2.098-27.27 13.508-29.11 29.698-1.979 17.434 9.748 32.08 25.868 34.988.491.088.984.164 1.477.234v7.887h-4.595c-.21 0-.396.036-.57.086-.999-.04-1.966.57-1.848 1.849.223 2.414.241 4.832.242 7.255 0 .045.001.083.012.127-.003.038-.012.077-.012.115 0 1.137.886 1.826 1.935 1.935 1.608.166 3.219.219 4.832.235-.009 2.826-.05 3.649-.238 6.471-.017.261.018.488.08.694.084.892.698 1.724 1.854 1.724 2.503 0 5 .001 7.496.242.766.071 1.292-.248 1.583-.73.608-.265 1.077-.823 1.077-1.688 0-2.903.011-3.807.162-6.705h5.157c.217 0 .407-.038.586-.091.84-.131 1.591-.745 1.59-1.843 0-2.583-.006-5.164-.242-7.738-.006-.062-.023-.116-.033-.175.019-.103.033-.206.033-.308 0-1.137-.886-1.826-1.935-1.935-1.569-.162-3.14-.217-4.713-.234.155-2.476.313-4.952.474-7.427 12.634-2.27 24-10.415 27.711-23.42 2.668-9.355-.399-22.891-6.078-30.22-6.586-8.507-18.22-10.465-27.959-11.1m30.605 39.13c-2.433 12.286-13.03 19.06-24.482 21.23-.213.032-.426.062-.64.091-.24.033-.479.068-.719.098-.193.024-.377.071-.554.13-.466.158-.864.435-1.11.834-.281.301-.478.701-.512 1.212-.056.84-.106 1.68-.161 2.52-.051.791-.101 1.582-.152 2.372-.138 2.158-.278 4.315-.413 6.473-.08 1.273.891 1.888 1.88 1.859.166.044.341.076.538.076 1.48 0 2.958.017 4.434.1.096 1.497.146 2.995.156 4.495h-5.315c-1.281 0-1.899 1.019-1.865 2.01-.034.128-.059.262-.07.407-.203 2.872-.234 3.75-.239 6.628-1.425-.094-2.852-.146-4.28-.157.149-2.983.167-3.968.167-6.955 0-1.239-.954-1.861-1.914-1.87-.156-.039-.322-.065-.505-.065-1.457 0-2.911-.017-4.363-.096-.009-1.259-.028-2.516-.094-3.773h4.941c1.238 0 1.86-.953 1.87-1.913.038-.156.065-.322.065-.505v-6.7-2.285-2.139c0-.53-.181-.94-.456-1.245-.291-.469-.776-.796-1.335-.89-.101-.017-.2-.042-.305-.042h-.08-.322c-.399-.028-.798-.058-1.193-.097-14.602-1.431-25.06-15.11-23.79-30.22 1.254-14.873 13.502-25.499 27.04-26.78 8.693.277 17.556 1.344 24.92 6.628 7.342 5.268 10.621 19.652 8.855 28.572"/><path d="m50.53 11.634c-.533-.034-1.066-.056-1.6-.073-.206-.039-.413-.048-.602-.031l-.099.001-.528-.014c-.32 0-.625.063-.91.189-11.289 1.673-19.716 10.32-20.992 21.563-1.401 12.345 6.705 23.306 18.856 25.496 1.68.303 3.411.456 5.144.456 14.07 0 22.879-8.797 25.366-17.515 1.871-6.558-.107-16.409-4.41-21.96-4.924-6.352-13.395-7.677-20.225-8.121m20.296 28.09c-2.192 11.07-14.586 15.401-24.742 14.405-9.502-.932-16.541-9.902-15.691-19.997.789-9.364 8.309-16.824 17.893-17.759 5.767.187 11.783.86 16.763 4.433 4.696 3.37 6.961 12.936 5.777 18.918"/></g></svg>