<svg xmlns="http://www.w3.org/2000/svg" viewBox="0 0 100 100" enable-background="new 0 0 100 100"><path d="m85.89 37.06c-4.687.085-9.112 1.055-13.11 3.03 2.427-8.647-.005-17.416-7.102-24.17-.18-.24-.386-.42-.61-.547-2.095-1.506-4.929 1.432-2.947 3.319 1.367 2.711 3.089 9.228-.782 10.833-1.8.747-3.782-2.498-4.487-3.637-3.31-5.344-3.714-12.537-.862-18.12.049-.036.094-.077.143-.113 2.164-1.568.352-5.068-1.808-4.125-.643.032-1.273.344-1.702 1.062-.052.088-.094.184-.145.273-9.811 7.937-13.783 20.479-9.03 32.564.103.261.244.475.402.665.892 2.291 1.994 6.502-.993 7.578-4.882 1.757-6.641-5.766-8.143-8.781-2.912-5.843-9.08-9.648-14.924-12.06-2.295-.949-3.461 2.122-2.069 3.691 3.411 10.07-.783 18.579-3.146 28.313-1.677 6.909-1.444 14.246 1.186 20.877 4.806 12.12 17.07 18.487 29.507 19.59 13.25 1.175 30.802-4.03 36.902-16.824 5.845-12.259 1.24-26.871 5.366-39.69 1.057-1.284.515-3.764-1.64-3.725m-48.45 25.817c1.454 1.084 2.583 2.416 3.347 3.921l.037.14c.789 2.271 2.686 4.924 5.436 4.924.41 0 .831-.061 1.25-.179 1.112-.316 1.959-1.021 2.45-2.041.854-1.778.463-4.061-.132-5.475-.049-.117-.111-.226-.192-.338-1.083-2.914-1.028-5.976.115-8.66.244 3.06 1.544 5.817 3.6 7.484 1.622 1.314 3.716 1.246 5.123-.187.39-.396.708-.841.956-1.331.499 2.344.004 4.812-1.464 7.223-.034.056-.06.109-.089.175-.313.46-.349 1.03-.093 1.54.481.955 1.824 1.263 2.619.506 1.602-1.528 3.554-2.51 5.81-2.925-.566 2.61-.621 5.278-.674 7.866-.056 2.73-.113 5.554-.783 8.244-1.485 5.971-8.775 8.644-15.34 8.644-.476 0-.941-.014-1.394-.042-6.458-.397-11.704-4.546-13.05-10.323-.863-3.692.285-7.387 1.396-10.959.987-3.18 1.332-5.766 1.077-8.207m41.929 12.193c-1.806 7.258-7.46 11.954-14.246 14.698.789-.876 1.466-1.849 1.983-2.933 1.658-3.478 1.701-7.335 1.743-11.06.034-3.02.068-6.133.97-8.99.356-.495.419-1.186.153-1.751-.256-.544-.782-.868-1.439-.868 0 0 0 0-.0001 0-2.126.039-4.106.429-5.9 1.16.84-4.263-.572-8.479-3.915-11.654-.129-.172-.284-.311-.417-.383-.848-.606-2.13-.166-2.512.789-.223.557-.104 1.145.317 1.591.487 1 .968 2.837.562 3.93-.144.388-.385.647-.825.811-.246 0-.714-.284-1.566-1.659-1.569-2.532-1.751-5.962-.465-8.573.583-.442.811-1.181.58-1.893-.281-.868-1.151-1.36-1.934-1.069-.493.052-.907.324-1.174.773l-.038.069c-5.202 4.261-7.02 10.914-4.641 16.98.057.143.132.275.229.402.433 1.14.542 2.099.296 2.638-.105.231-.273.382-.529.474-.19.068-.373.104-.542.104-1.202 0-1.952-1.863-2.5-3.224-.164-.408-.315-.781-.461-1.073-1.298-2.604-3.924-4.737-7.805-6.341-.771-.318-1.548-.0001-1.881.738-.273.607-.191 1.33.199 1.837 1.263 3.824.27 7.238-.781 10.852-.292 1-.594 2.042-.852 3.104-.916 3.772-.701 7.528.621 10.862.872 2.198 2.252 4.111 4.03 5.676-8.788-3.068-15.853-9.916-18.08-19.432-1.756-7.511.561-15.06 2.778-22.19 1.914-6.158 2.893-11.947 1.78-18.01 3.75 2.328 6.807 5.46 8.864 9.55.019.078.028.152.056.232 1.739 5.01 6.03 10.45 12.01 8.754 5.913-1.677 5.875-8.928 3.942-13.525-.092-.218-.212-.401-.344-.568-2.844-7.53-1.984-15.274 2.075-21.522-.482 6.714 1.673 13.817 6.769 17.948 2.781 2.255 6.248 2.303 8.8-.294 1.469-1.495 2.287-3.281 2.637-5.174 2.269 5.666 1.619 11.934-2.093 18.03-.066.108-.108.214-.154.32-1.474 1.99 1.467 4.725 3.446 2.84 3.836-3.656 8.414-5.623 13.469-6.268-2.803 10.926-.496 22.348-3.219 33.29" fill="#1d1d1b"/></svg>