<svg xmlns="http://www.w3.org/2000/svg" viewBox="0 0 100 100" enable-background="new 0 0 100 100"><path d="m89.39 9.96c-.666 1.01-1.294 2.034-1.905 3.065-7.02-2.636-13.491-4.764-21.11-3.727-6.077.828-11.424 4.412-15.549 8.778-2.392 2.532-4.395 5.36-6.16 8.359-7.664.375-15.14-.326-22.617-2.113-.452-.108-.868-.105-1.245-.026-.888-.053-1.796.307-2.398 1.285-7.118 11.564-12.859 24.12-14.802 37.652-.047.326-.028.629.019.918-.425 1.098-.168 2.362 1.24 3 12.675 5.736 26.803 6.722 40.2 3.02.04-.011.07-.03.109-.042.908-.152 1.737-.735 2.079-1.872 1.523-5.059 3.092-10.117 5.205-14.966.101-.232.162-.46.202-.685.542.051 1.051.105 1.508.158 6.672.776 13.199 2.473 19.71 4.084-1.532 10.493-2.508 21.1-3.957 31.33-.489 3.456 4.791 4.945 5.285 1.457 3.659-25.832 4.061-54.41 18.908-76.903 1.955-2.961-2.794-5.703-4.732-2.767m-80.23 53.1c1.983-11.861 6.861-22.826 13.01-33.1 6.453 1.424 12.958 2.135 19.548 2.05-3.312 6.894-5.861 14.284-9.06 20.978-.107.223-.175.444-.223.661-1.36 3.933.692 7.426 3.329 10.649.132.377.333.737.611 1.054.273.311.559.608.851.898-9.448 1.464-19.18.485-28.07-3.186m33.755.715c-.69-.419-1.317-.929-1.902-1.513-.114-.27-.261-.536-.48-.79-6.405-7.421-.059-9.07 6.462-9.139-1.544 3.752-2.868 7.574-4.08 11.442m31.829-12.367c-9.701-2.396-19.596-4.903-29.636-4.61-1.236.036-2.579.146-3.917.385 3.192-7.559 6.271-15.182 10.918-21.981 3.251-4.757 7.715-8.416 13.256-10.09 6.688-2.02 13.236.349 19.488 2.737-5.253 10.479-8.146 21.891-10.11 33.555" fill="#1d1d1b"/></svg>