<svg xmlns="http://www.w3.org/2000/svg" viewBox="0 0 100 100" enable-background="new 0 0 100 100"><g fill="#1e1e1c"><path d="m60.5 75.947c-5.458-19.576-12.45-38.551-18.491-57.902-.146-.468-.395-.804-.693-1.026-.559-.414-1.297-.371-1.437-.401-.082-.017-.167-.029-.257-.033-4.915-.211-9.807.02-14.704.497-.141.014-.273.042-.396.084-.213.071-.761.207-1.105.498-.184.155-.349.369-.482.651-8.811 18.588-14.915 38.612-19.787 58.875-.122.509-.074.957.084 1.327.294.687 1.12 1.179 1.45 1.316.186.077.396.121.631.123 3.937.019 9.871.231 13.808.249.507.002.902-.19 1.184-.49.499-.531.588-1.299.655-1.444.039-.084.073-.173.102-.27l2.428-8.125c.316-1.058 1.466-1.967 2.569-2.038 3.11-.2 6.219-.439 9.329-.638 1.103-.07 2.332.71 2.764 1.727.922 2.172 1.908 4.306 2.99 6.384.51.98.92 2.312 1.298 2.791.209.265.517.462.936.542 3.751.716 6.073 1.078 9.388.907 1.103-.057 2.095-.125 2.222-.107.074.011.15.017.231.017 1.36-.0001 2.75-.031 4.04-.568.4-.167.743-.445.977-.8.39-.59.368-1.423.35-1.681-.012-.15-.039-.304-.083-.465m-4.06-.721c-.036 0-.071.002-.109.007-3.726.531-6.01.507-9.253.03-1.093-.161-2.411-1.102-2.92-2.082-1.533-2.952-2.878-6.01-4.116-9.139-.166-.419-.4-.696-.668-.857-.523-.315-1.122-.12-1.191-.125-.041-.003-.082-.005-.126-.003-5.05.274-10.1.731-15.15.994-.277.014-.521.086-.73.199-.371.201-.788.671-.966.956-.099.159-.182.343-.245.553-.85 2.843-1.699 5.686-2.548 8.528-.316 1.058-1.468 1.904-2.572 1.885-2.1-.037-4.612-.088-6.712-.128-1.104-.021-1.788-.907-1.52-1.979 4.393-17.607 9.789-34.963 17.246-51.26.46-1 1.733-1.899 2.834-1.984 3.11-.239 6.221-.363 9.339-.324 1.104.014 2.268.902 2.603 1.955 5.398 16.973 11.405 33.705 16.362 50.849.306 1.061.501 1.922.441 1.922"/><path d="m33.793 38.92c-.131-.385-.332-.679-.572-.892-.443-.393-1.098-.493-1.272-.532-.104-.023-.21-.036-.32-.036-.832.0001-1.678.046-2.479.319-.1.034-.194.078-.284.13-.149.086-.687.289-1.01.682-.174.211-.312.484-.396.825-1.384 5.612-2.914 11.171-4.679 16.65-.289.898.003 1.604.525 2.01.869.683 1.934.249 1.987.253.031.002.063.003.097.0001 3.417-.239 6.833-.492 10.248-.745.142-.011.272-.04.393-.082.21-.074.459-.179.577-.199s1.181.023 1.793-.765c.326-.42.478-1.01.293-1.718-1.406-5.389-3.115-10.661-4.9-15.905m-1.135 14.912c-1.183.087-2.365.173-3.547.258-1.102.079-1.731-.712-1.417-1.771.875-2.953 1.691-5.925 2.461-8.915.275-1.07.538-1.942.595-1.945.057-.003.389.843.736 1.892.921 2.785 1.804 5.585 2.622 8.409.305 1.061-.349 1.991-1.45 2.072"/><path d="m58.32 33.34c-.321.047-.582.151-.788.296-.384.27-.89.997-1.045 1.562-.091.331-.104.691-.031 1.05.233 1.149.504 2.29.737 3.439.021.103.054.201.095.293.07.155.104.47.103.724 0 .151.015.304.047.457.126.595.299 1.177.504 1.748.34.947.786 2.55 1.526 3.144.416.333.966.515 1.616.41 5.677-.923 11.716-1.674 16.749.517 1.013.441.874.921-.228 1.01-8.262.643-16.963 5.04-17.689 13.811-.459 5.548 2.795 9.606 6.977 12.834 4.61 3.56 10.82 3.904 16.415 2.661 1.079-.24 1.965-.179 2.02.212.052.392.052 1.491.629 2.113.316.341.776.565 1.381.565h5.895c.104 0 .201-.009.295-.023.162-.025 1.016-.085 1.59-.644.318-.31.537-.742.571-1.297.715-11.472 2.726-24.701-3.142-35.22-6.712-12.03-22.57-11.367-34.22-9.663m33.73 40.92c-.09 1.101-.78 1.994-1.548 1.994s-1.431-.494-1.441-1.105c-.007-.369-.006-.738-.006-1.106 0-.868-.461-1.439-1.068-1.712-1.01-.453-2.771.385-3.833.692-3.938 1.138-7.916 1.317-11.952.084-4.715-1.441-9.184-6.625-8.26-11.697 1.573-8.633 13.461-10.817 20.415-9.05 1.137.289 1.969-.366 2.293-1.215.395-1.032-.241-2.133-.36-2.383-.068-.144-.156-.286-.267-.423-5.632-6.933-13.957-7.241-22.08-6.231-1.096.136-2.198-.219-2.403-.843-.121-.369-.227-.748-.312-1.147-.021-.103-.055-.2-.097-.293-.071-.155-.105-.472-.104-.725.0001-.151-.013-.303-.044-.456-.057-.282-.117-.563-.177-.845-.101-.466.703-.964 1.801-1.085 10.948-1.203 23.53-.294 28.04 11.43 3.074 8 2.108 17.483 1.405 26.12"/><path d="m81.29 57.58c-2.448-1.369-5.418-.932-7.639.639-2.684 1.899-3.261 5.714-1.383 8.313 1.66 2.298 5.146 3.282 7.896 2.843 3.662-.584 5.105-3.502 4.733-6.394-.273-2.127-1.529-4.24-3.607-5.401m-.383 6.62c-.023.087-.049.17-.079.248-.803 2.119-3.962.807-5.366-.108-.689-.449.053-2.027.386-2.422.566-.67 1.65-1.206 2.534-1.165 1.681.078 2.94 1.866 2.525 3.447"/></g></svg>