<svg xmlns="http://www.w3.org/2000/svg" viewBox="0 0 100 100" enable-background="new 0 0 100 100"><g fill="#1d1d1b"><path d="m8.677 72.65c12.513-9.689 26.35-18.655 42.739-18.655l.256.002c.167 1.161.109 5.525.051 7.02-.052 1.349.351 3.184 1.368 4.241.52.54 1.162.825 1.857.825.491 0 1.014-.141 1.551-.418 5.569-2.876 10.891-6.581 16.04-10.164 4.833-3.365 9.831-6.844 14.995-9.605.87-.465 1.398-1.215 1.488-2.113.097-.965-.345-2.02-1.129-2.694-.203-.291-.436-.532-.711-.736-4.476-3.303-9.132-7.149-13.635-10.87-5.381-4.446-10.946-9.04-16.366-12.859-.512-.36-1.047-.542-1.593-.542-1.272 0-2.418 1.039-2.7 2.388-.122.304-.194.576-.227.856-.348 3.08-.516 8.06-.573 10.1-24.07 2.205-37.1 20.926-47.42 38.33-.146.246-.255.508-.328.795-.783.726-1.033 1.68-.685 2.643.447 1.235 1.756 2.132 3.11 2.132.687 0 1.349-.232 1.916-.671m8.279-13.164c8.199-11.864 19.19-23.468 37.669-24.27.238-.011.474-.048.623-.099 1.363-.098 2.742-1.026 2.751-2.881.007-1.862.073-5.322.192-7.661 3.905 2.786 7.886 6.233 11.743 9.573 3.516 3.044 7.144 6.185 10.688 8.801-3.819 2.257-7.571 4.913-11.206 7.485-3.79 2.682-7.701 5.45-11.682 7.76-.062-2.255-.282-5.6-.663-7.483-.137-.677-.465-1.237-.949-1.624-.523-.614-1.252-.964-2.113-1.012-12.03-.669-23.789 2.926-37.05 11.411"/><path d="m94.12 37.638c-.019-.017-.031-.036-.051-.053-8.487-7.195-16.87-14.515-25.667-21.333-2.01-1.559-4.865 1.25-2.828 2.828 8.797 6.818 17.18 14.14 25.667 21.333.188.159.385.266.584.347.042.051.075.103.125.153 1.564 1.573 1.72 2.934.125 4.547-.128.129-.228.264-.312.402-8.94 6.216-17.803 12.547-27.01 18.361-2.179 1.375.391 4.446 2.543 3.087 9.412-5.941 18.459-12.422 27.598-18.768.458-.318.688-.712.761-1.117 2.314-2.989 1.946-6.505-.874-9.339-.209-.21-.431-.352-.657-.448"/></g></svg>