<svg xmlns="http://www.w3.org/2000/svg" viewBox="0 0 100 100" enable-background="new 0 0 100 100"><path d="m86.51 8.837c-4.537.744-9.333 1.102-15.09 1.128-.32.002-.63.036-.966.108-2.177.176-3.776 1.638-3.909 3.596-.126 1.84-.252 11.1-.394 22.512-1.757-1.083-3.567-2.039-5.139-2.866-1.185-.623-2.207-1.162-2.894-1.592-5.03-3.151-10.427-6.253-16.05-9.218-5.269-2.778-10.797-5.47-16.432-8-1.453-.653-2.853-1.477-4.334-2.349-2.454-1.444-4.991-2.937-7.924-3.701-2.731-.712-4.944-.242-6.414 1.301-1.948 2.046-2.062 5.343-1.918 8.298.24 4.886.299 9.884.355 14.717.027 2.321.055 4.642.101 6.961.086 4.274.132 8.548.177 12.821.119 11.06.241 22.496 1.081 33.77.029.383.106.759.233 1.145.358 2.256 2.088 3.867 4.197 3.867.567 0 1.145-.115 1.717-.341 10.805-4.272 21.726-10.586 33.388-19.299 4.952-3.701 10.02-7.794 15.06-12.167.92-.798 2.15-1.661 3.452-2.575.36-.253.726-.51 1.092-.771-.209 15.731-.459 30.52-.772 32.766-.097.7.013 1.379.316 1.978.5 1.459 1.824 2.357 3.498 2.357.158 0 .322-.008.491-.024 6.596-.645 12.276-.841 17.611-.608l.228.005c.789 0 1.5-.18 2.114-.535 1.344-.619 2.162-1.772 2.251-3.18.343-5.434.359-75.08.359-75.78 0-1.05-.421-1.988-1.191-2.669-.951-1.279-2.51-1.939-4.29-1.65m-12.144 35.33c.109-11.643.212-22.733.307-26.667 3.114-.092 6.071-.295 8.966-.618l-.004 2.902c-.018 14.503-.067 56.41-.194 65.18-3.119-.022-6.255.081-9.611.314.19-5.299.347-20.714.536-41.11m-11.861 1.732c-11.715 10.761-28.519 25-46.773 33.647-.606-11.138-.699-22.441-.79-33.402-.07-8.605-.144-17.472-.464-26.25 18.331 7.727 34.832 16.663 48.03 26.01" fill="#1d1d1b"/></svg>