<svg xmlns="http://www.w3.org/2000/svg" viewBox="0 0 100 100" enable-background="new 0 0 100 100"><path fill="#1d1d1b" d="m97.02 17.636c-2.527-3.329-5.28-6.369-8.183-9.04-1.207-1.11-3.056-1.015-4.208.127-.184.118-.348.248-.498.396-4.288 4.212-8.594 8.546-12.757 12.738-2.376 2.392-4.752 4.784-7.138 7.166-4.047-3.461-11.268-11.07-15.18-15.525-.081-.6-.368-1.175-.833-1.655-1.14-1.176-3.03-1.331-4.284-.277-3.599 3.02-7.129 5.858-10.603 8.61-2.213-1.168-4.709-1.779-7.156-1.779-6.784 0-11.999 4.188-13.285 10.67-.559 2.814-.359 5.158.202 7.07-2.752 2.224-5.538 4.519-8.357 6.924-.858.452-1.492 1.293-1.67 2.23-.177.929.103 1.838.786 2.559 12.456 13.149 26.575 28.05 41.29 41.794.575.537 1.27.821 2.01.821.36 0 .718-.067 1.063-.2.637-.094 1.216-.414 1.683-.934 11.998-13.351 23.06-27.06 32.881-40.74.541-.754.691-1.606.429-2.412-.106-.576-.399-1.113-.853-1.558-1.387-1.362-2.896-2.596-4.354-3.788-.646-.529-1.294-1.058-1.933-1.599 6.287-5.643 13.07-11.523 20.266-16.696.975-.701 1.435-1.803 1.254-2.978.056-.506-.023-1.199-.575-1.925m-51.762.614c4.04 4.552 10.73 11.571 14.716 15.01-3.848 3.796-7.119 6.952-10.187 9.827-2.429-1.746-5.03-3.48-7.755-5.163-.812-.502-1.739-.561-2.543-.245.633-1.595 1.01-3.425 1.01-5.528 0-3.227-.973-5.909-2.53-8.03 2.402-1.901 4.832-3.848 7.291-5.87m-27.457 11.794c.972-4.898 4.967-6.644 8.381-6.644.891 0 1.783.114 2.645.335.391.1.771.229 1.146.374.352.136.695.289 1.027.464.606.32 1.174.705 1.69 1.154.253.22.49.459.716.71.222.247.427.509.619.785.912 1.315 1.473 2.955 1.473 4.927 0 6.3-4.629 8.536-8.593 8.536-2.645 0-5.123-.926-6.847-2.513-.248-.228-.48-.47-.695-.725-.021-.025-.047-.047-.068-.073-.193-.235-.369-.479-.529-.73-.36-.564-.634-1.171-.832-1.815-.107-.35-.187-.713-.246-1.085-.062-.385-.097-.781-.107-1.19-.021-.794.045-1.628.22-2.51m58.55 17.222c-8.729 12.02-18.526 24.15-29.14 36.08-12.555-11.86-24.572-24.399-36.778-37.27 1.921-1.631 3.826-3.207 5.717-4.749 2.665 2.739 6.595 4.362 10.753 4.362 2.476 0 5.02-.609 7.233-1.865-.707 1.081-1.371 2.151-1.973 3.154-.188.312-.315.64-.382.979-.829.612-1.349 1.588-1.334 2.578.016 1.036.608 1.896 1.626 2.357l1.432.647c4.989 2.259 10.148 4.593 14.992 7.313 1.27.711 2.773.42 3.699-.665.116-.071.23-.151.342-.241 6.243-5.04 12.278-10.515 18.11-15.809l.939-.852c.757.652 1.527 1.286 2.299 1.919.815.673 1.653 1.362 2.463 2.067m-9.599-7.654c-5.55 5.02-11.284 10.202-17.17 15.02-3.854-2.062-7.831-3.915-11.633-5.641.979-1.605 1.974-3.159 3.092-4.591 2.594 1.662 4.922 3.264 7.104 4.889.055.04.119.076.102.061 1.172.859 2.766.792 3.837-.2 8.08-7.476 15.959-15.41 23.576-23.08 3.63-3.656 7.376-7.43 11.11-11.12 1.406 1.41 2.722 2.86 3.927 4.327-8.419 6.299-16.308 13.432-23.945 20.337"/></svg>