<svg xmlns="http://www.w3.org/2000/svg" viewBox="0 0 100 100" enable-background="new 0 0 100 100"><path d="m89.5 13.07c-.142-.142-.303-.251-.471-.345-.182-.25-.44-.472-.8-.641-11.977-5.613-25.476-7.302-38.587-7.39-12.819-.086-26.465 1.718-37.967 7.665-1.339.692-1.33 2.081-.659 3.043.034.419.182.845.489 1.242 8.198 10.599 17.259 20.588 24.14 32.14 3.307 5.556 5.72 11.523 7.335 17.774 2.107 8.158 1.483 16.463 1.746 24.786.014.442.142.807.333 1.112.351 1.48 2.294 2.588 3.703 1.18 3.276-3.276 6.562-6.541 10.09-9.544.052-.045.087-.093.134-.139.029-.024.051-.056.079-.082.045-.049.1-.097.139-.148.289-.342.476-.796.477-1.372.003-11.644 2.564-21.998 8.182-32.2 6.506-11.818 15.1-22.393 22.16-33.865.468-.76.41-1.494.07-2.074-.078-.423-.278-.825-.598-1.146m-71.68 1.283c9.966-4.115 21.15-5.183 31.818-5.254 10.536-.07 21.632 1.144 31.645 4.83-20.658 5.45-42.26 4.357-63.19.515-.092-.03-.182-.06-.272-.091m37.463 67.02c-2.152 1.856-4.221 3.8-6.252 5.786-.075-4.863-.097-9.676-.601-14.495 2.528-.779 5.096-1.381 7.688-1.905-.523 3.476-.793 7.02-.835 10.614m8-32.05c-2.966 5.385-5.01 10.989-6.298 16.782-3.093.593-6.162 1.245-9.176 2.139-.069-.393-.128-.785-.206-1.179-1.339-6.716-4.097-13.11-7.356-19.09-5.714-10.494-13.688-19.637-21.232-28.922 21.512 3.761 43.681 4.67 64.827-1.245-6.82 10.529-14.499 20.517-20.559 31.519" fill="#1d1d1b"/></svg>