<svg xmlns="http://www.w3.org/2000/svg" viewBox="0 0 100 100" enable-background="new 0 0 100 100"><g fill="#1d1d1b"><path d="m68.31 73.82c2.054-.228 3.207-1.789 3.452-3.415.126-.37.215-.771.216-1.231.072-19.09 1.42-38.14 1.956-57.22.0001-.043-.008-.079-.008-.121.986-2.126-.067-5.355-3.17-5.503-19.55-.931-39.12-.977-58.684-.978-2.574 0-3.736 2.172-3.508 4.153-.087.303-.149.624-.16.982-.56 19.625-2.449 39.16-4.401 58.682-.245 2.455 1.635 3.604 3.555 3.493.334.1.689.172 1.091.175 19.912.155 39.772 3.185 59.661.978m-56.61-8.265c1.746-17.589 3.369-35.19 3.962-52.857 16.967.008 33.933.115 50.887.816-.539 17.777-1.718 35.53-1.878 53.32-17.656 1.418-35.3-.897-52.971-1.276"/><path d="m90.59 25.27l-.104-.014c-.122-.017-.243-.032-.375-.032h-10.38c-2.389 0-3.638 1.884-3.638 3.744 0 1.861 1.25 3.744 3.638 3.744h6.917c-2.881 19.312-4.333 35.553-4.561 51.02-8.846.281-18.328.407-30.652.407-5.276 0-10.553-.022-15.83-.044-3.542-.016-7.083-.03-10.624-.038-.086-1.249-.235-2.306-.461-3.293-.366-1.602-1.904-2.765-3.656-2.765-.327 0-.647.043-.955.127-1.967.542-3.094 2.513-2.62 4.585.312 1.364.309 2.986.305 4.555l-.0001.527c0 1.01.353 1.895.99 2.523l.205.207c.662.662 1.543 1.013 2.549 1.013 4.883.004 9.767.025 14.649.047 5.377.023 10.753.048 16.13.048 13.633 0 24.02-.163 33.688-.527 2.368-.089 3.521-1.952 3.603-3.666.083-.33.122-.63.123-.939.084-17.11 1.694-35.09 5.069-56.59.181-1.155-.123-2.267-.855-3.131-.781-.92-2.01-1.499-3.154-1.507"/></g></svg>