<svg xmlns="http://www.w3.org/2000/svg" viewBox="0 0 100 100" enable-background="new 0 0 100 100"><g fill="#1d1d1b"><path d="m81 34.33c-.234-.009-.439.024-.63.076-8.675-.877-17.461-1.212-26.26-1.222 2.605-3.458 6.842-3.917 11.07-5.392 4.829-1.683 6.863-5.543 6.315-10.543-.347-3.169-5.351-3.203-5 0 .601 5.489-2.969 5.85-7.417 7.111-4.648 1.317-8.529 3.817-10.492 8.378-.071.164-.118.326-.155.487-9.554.131-19.1.589-28.516 1.105-.101.006-.192.027-.285.044-.16-.032-.329-.052-.516-.044-15.253.617-20.876 18.646-15.364 31.54 2.537 5.936 8.01 10.712 14.505 11.537 9.866 1.253 17.696-5.05 22.08-13.361 6.503.399 13.01.185 19.52.138 4.394 8.24 12.194 14.47 22.01 13.223 6.497-.825 11.968-5.601 14.505-11.537 5.512-12.894-.11-30.923-15.365-31.54m11.644 30.09c-2.212 4.46-6.174 8.625-11.43 9.07-8.556.718-14.671-4.822-18.314-12.12-.176-.352-.408-.593-.666-.758-.312-.265-.726-.436-1.255-.435-7.283.026-14.56.335-21.832-.2-1.016-.075-1.623.505-1.836 1.243-.031.051-.066.093-.094.15-3.643 7.3-9.758 12.84-18.314 12.12-5.256-.441-9.218-4.606-11.43-9.07-4.998-10.08-.388-25.593 11.644-26.08.099-.004.187-.024.278-.039.162.031.333.049.523.039 20.97-1.15 42.587-2.035 63.49.401.198.023.375.013.542-.012 9.801 2.219 13.255 16.487 8.69 25.691"/><path d="m26.761 51.26h-3.556v-2.52c0-3.942-6.142-3.943-6.142 0v2.52h-2.935c-.906 0-1.709.354-2.261.995-.479.558-.742 1.295-.742 2.076 0 1.526 1.031 3.071 3 3.071h2.935v3.142c0 1.972 1.545 3 3.071 3 1.526 0 3.071-1.031 3.071-3v-3.142h3.556c1.972 0 3-1.545 3-3.071s-1.031-3.071-3-3.071"/><path d="m80.19 44.637c-.906 0-1.709.354-2.261.995-.479.557-.742 1.294-.742 2.076 0 1.526 1.031 3.071 3 3.071.906 0 1.709-.354 2.261-.995.479-.557.742-1.294.742-2.076 0-1.526-1.031-3.071-3-3.071"/><path d="m72.941 53.34c-.906 0-1.709.354-2.26.995-.479.557-.743 1.294-.743 2.075 0 1.526 1.031 3.071 3 3.071.906 0 1.709-.354 2.26-.995.479-.557.743-1.294.743-2.076.0001-1.525-1.031-3.07-3-3.07"/><path d="m86.4 52.51c-.906 0-1.709.354-2.26.995-.479.557-.743 1.294-.743 2.075 0 1.526 1.031 3.071 3 3.071.906 0 1.709-.354 2.26-.995.479-.557.743-1.294.743-2.076 0-1.525-1.031-3.07-3-3.07"/><path d="m79.982 59.34c-.906 0-1.709.354-2.26.995-.479.557-.743 1.294-.743 2.075 0 1.526 1.031 3.071 3 3.071.906 0 1.709-.354 2.26-.995.479-.557.743-1.294.743-2.076 0-1.525-1.031-3.07-3-3.07"/><path d="m46.44 47.744h-4.763c-1.971 0-3 1.545-3 3.071 0 1.526 1.031 3.071 3 3.071h4.763c1.971 0 3-1.545 3-3.071 0-1.526-1.032-3.071-3-3.071"/><path d="m60.52 47.744h-5.177c-1.972 0-3 1.545-3 3.071 0 1.526 1.031 3.071 3 3.071h5.177c1.972 0 3-1.545 3-3.071 0-1.526-1.031-3.071-3-3.071"/></g></svg>