<svg xmlns="http://www.w3.org/2000/svg" viewBox="0 0 100 100" enable-background="new 0 0 100 100"><g fill="#1e1e1c"><path d="m81.932 28.855c-.181-5.491-.282-12.909-.228-18.404.002-.245-.037-.461-.093-.664.107-1.197-.596-2.461-2.129-2.421-19.354.508-38.704-.25-58.06-.28-1.61-.003-2.315 1.412-2.117 2.654-.064.216-.109.448-.106.712.292 23.09 1.086 56.28 1.111 79.38 0 .518.147.939.382 1.272.142.979.846 1.845 2.119 1.813 8.365-.208 16.735-.342 25.09-.752 7.45-.365 16.734.124 23.855-2.307 2.521-.861 4.777-2.134 6.71-3.977 3.535-3.369 4.741-7.892 5.05-12.658.292-4.577-.247-9.379-.354-13.597-.275-10.895-.872-19.875-1.23-30.768m-12.246 41.19c-1.362.008-2.679 1.071-2.069 2.705 1.224 3.286 1.784 7.366-.099 10.509-2.276 3.801-6.339 3.698-10.2 4.185-2.361.298-4.872.14-7.253.207-1.853.052-25.314.624-25.314.716-.055-22.23-.79-54.55-1.087-76.78 17.869.077 35.733.691 53.601.309-.067 18.253 1.551 44.639 1.646 59.06-2.772-.875-5.637-1.244-8.596-1.046-.231.014-.436.067-.629.134m1.745 15.196c1.795-3.058 2.242-6.81 1.31-10.877 2.161.084 4.291.501 6.31 1.356.009.025.015.052.023.077-.655 4.819-3.704 7.776-7.643 9.444"/><path d="m35.29 46.23c.019-.098.029-.196.05-.294.083-.39.067-.78-.021-1.144.476-3.628 2.428-6.795 6.686-7.04 2.885-.164 2.9-4.665 0-4.5-7.43.424-11.377 6.511-11.313 13.394-.138 1.121-.184 2.249-.115 3.382-.176 2.885.374 5.654 2.317 8.02 2.408 2.937 6.625 3.101 10.04 2.454.235-.045.433-.123.614-.214.413-.162.79-.473 1.063-.987 1.761-3.301 2.098-6.702-.27-9.762-2.01-2.598-5.847-3.326-9.05-3.315m5.803 10.04c-1.844.25-3.677.039-5.02-1.398-.884-.947-1.129-2.367-1.112-3.744.05-.13.087-.264.106-.404 1.896-.026 3.747.245 5.384 1.304 1.543.999 1.263 2.779.641 4.242"/><path d="m54.75 35.5c.107-2.903-4.393-2.893-4.5 0-.272 7.333.118 14.665 0 22-.047 2.903 4.453 2.899 4.5 0 .118-7.335-.272-14.667 0-22"/><path d="m70.77 32.33c-2.483-.351-4.93-.412-7.432-.247-1.265.083-1.977.999-2.133 1.983-.06.186-.104.382-.117.601-.456 7.606-.344 15.218-.333 22.833.004 2.902 4.504 2.902 4.5 0-.004-3.03-.017-6.06-.006-9.08h2.423c2.901 0 2.901-4.5 0-4.5h-2.378c.038-2.477.096-4.954.216-7.431 1.359-.035 2.722-.006 4.063.184 1.214.172 2.412-.277 2.768-1.571.294-1.067-.355-2.597-1.571-2.769"/></g></svg>