<svg xmlns="http://www.w3.org/2000/svg" viewBox="0 0 100 100" enable-background="new 0 0 100 100"><path d="m92.42 43.661c1.203-.172 1.755-.969 1.808-1.869.025-.17.037-.349.027-.542-.312-6.402-1.321-12.691-2.839-18.915-.008-.032-.022-.057-.031-.088-.129-1.119-.915-2.1-2.38-1.997-7.274.509-15.251.956-23.513 1.367 2.815-1.683 5.382-3.805 7.581-6.669 2.344-3.053 5.984-9.666.263-11.59-4.717-1.586-10.645 1.68-14.51 4.048-4.262 2.612-8.07 6.087-10.759 10.287-2.529-3.735-5.984-6.704-10.337-8.5-4.496-1.855-10.235-2.753-14.709-.348-4.293 2.308-3.193 7.078-.48 10.11 1.54 1.721 3.598 3.187 5.733 4.321-7.457.321-14.656.64-21.269.976-1.186.06-1.932.782-2.243 1.658-.33.392-.535.917-.507 1.592.244 5.834.496 11.667.75 17.5.06 1.367 1 2.149 2.051 2.354.333.212.728.36 1.199.396.85.065 1.724.115 2.591.17 3.02 15.302 7.25 30.396 7.659 46.08.032 1.223.774 1.98 1.678 2.274.306.142.662.225 1.072.226 23.706.058 46.617-2.663 69.915-6.089.338-.05.614-.157.853-.293 1.391.206 2.877-.577 2.732-2.367-1.074-13.314-3.398-30.469-5.398-43.664 1.033-.141 2.056-.282 3.063-.426m-21.984-35.638c.337-.032.662-.025.987.018-.146 1.814-2.461 4.127-3.491 5.342-4.219 4.972-10.603 6.877-16.699 8.722 3.47-6.822 11.754-13.372 19.2-14.08m-45.35 5.936c-.16-.451.02-.673.863-1.01 7.05-2.805 15.06 2.644 18.793 8.758-5.612-1.134-11.146-.816-16.16-4.172-1.256-.839-2.963-2.079-3.493-3.577m-15.174 28.9c-.199-4.575-.396-9.15-.588-13.725 11.618-.583 25.24-1.124 38.859-1.718.516.355 1.189.495 1.985.244.411-.129.82-.258 1.229-.386 12.52-.555 24.902-1.159 35.582-1.89 1.033 4.535 1.79 9.09 2.14 13.729-23.566 3.302-55.42 5.386-79.21 3.746m40.23 4.933c4.447-.243 8.887-.555 13.274-.914.093.133.195.263.323.389 2.711 2.676 5.604 5.139 8.594 7.482h-3.826c-.581 0-1.053.166-1.425.432-.754.188-1.428.712-1.736 1.653-.636 1.942-1.162 3.905-1.6 5.892-5.228-3.51-9.829-7.729-13.792-12.659.071-.468.147-.934.214-1.403.043-.31.024-.598-.026-.872m-4.902.239c-.822 5.607-2.028 11.12-3.524 16.567-1.451-1.895-2.918-3.778-4.441-5.616-.904-1.092-2.089-1.016-2.962-.381-1.75.724-3.513 1.409-5.294 2.043.965-4.01 1.543-8.09 1.693-12.226 4.77-.036 9.638-.173 14.528-.387m44.32 37.602c-22.06 3.27-43.757 5.503-66.16 5.835-.744-14.686-4.505-28.908-7.413-43.28 3.164.128 6.409.205 9.721.229-.198 5.062-1.103 9.968-2.591 14.831-.895 1.692.425 4.354 2.801 3.661 3-.876 5.931-1.952 8.826-3.128 1.916 2.371 3.771 4.789 5.601 7.229.063.085.136.16.205.238.986 1.555 3.905 1.734 4.614-.586 1.437-4.706 2.673-9.448 3.654-14.25 4.34 4.791 9.354 8.874 14.923 12.244.378.229.749.337 1.104.364 1.27.492 2.794.104 3.068-1.608.416-2.6 1.013-5.149 1.764-7.665h9.825c1.875 0 2.652-1.688 2.347-3.104-.073-.669-.4-1.323-1.085-1.805-3.758-2.648-7.363-5.467-10.761-8.544 4.948-.469 9.786-.998 14.424-1.572 1.85 12.287 4.01 28.531 5.13 40.91" fill="#1e1e1c"/></svg>