<svg xmlns="http://www.w3.org/2000/svg" viewBox="0 0 100 100" enable-background="new 0 0 100 100"><path d="m70.74 5.868c-6.951-1.262-14.466-1.901-22.336-1.901-3.791 0-7.668.151-11.525.448l-.133.001c-7.351.565-26.877 2.065-26.887 13.442-.0001.952.106 1.967.362 3 .762 20.389 6.497 49.859 13.407 68.39.022.06.056.107.081.165.215 1.134.952 2.167 2.364 2.613 16.616 5.245 34.683 3.551 51.53.333.828-.158 1.434-.523 1.846-1 .549-.395 1-.978 1.265-1.773 6.495-19.544 9.04-50.836 9.455-71.42.0001-.078.012-.155.011-.233-.1-7.081-10.625-10.473-19.438-12.07m-33.382 6.533l.134-.001c3.654-.282 7.325-.424 10.911-.424 7.392 0 14.427.597 20.908 1.772 6.633 1.204 11.245 3.162 12.621 4.369-.113.125-.266.278-.471.458-5.27 4.618-16.733 7.266-31.456 7.266-.553 0-1.213.007-1.964.014-.954.001-2.058.021-3.271.021-.014 0-.028 0-.043 0-2.97 0-11.821-.008-18.555-1.718-5.519-1.401-8.315-3.513-8.313-6.275 0-.041.534-4.02 19.499-5.473m37.21 73.44c-14.658 2.719-30.27 4.061-44.768-.011-5.52-14.962-10.288-37.921-11.993-56.28 1.752.902 3.847 1.708 6.397 2.355 6.934 1.761 15.06 1.964 20.567 1.964 1.244 0 2.375-.011 3.352-.021.72-.007 1.353-.014 1.887-.014 8.536 0 23.17-.918 32.854-6.512-.851 18.748-3.3 42.829-8.296 58.52" fill="#1d1d1b"/></svg>