<svg xmlns="http://www.w3.org/2000/svg" viewBox="0 0 100 100" enable-background="new 0 0 100 100"><g fill="#1d1d1b"><path d="m6.811 20.492c.218.072.455.122.725.122 27.768.029 55.53 1.06 83.3.278.362-.001.678-.091.949-.224.629-.187 1.191-.632 1.471-1.407.001-.029.017-.06.028-.089.162-.307.271-.652.321-1.018.705-2.273 1.117-4.614 1.396-6.98.04-.341-.04-.662-.189-.954-.247-.824-.924-1.512-2.032-1.545-28.405-.859-56.849-1.623-85.24 0-.089.004-.167.025-.25.038-.853.014-1.657.491-1.892 1.592-.569 2.668-.892 5.362-.635 8.09.118 1.257 1.063 1.957 2.052 2.1m2.586-7.463c26.767-1.433 53.58-.801 80.36-.0001-.129 1.151-.263 2.301-.398 3.451-26.742.693-53.48-.237-80.23-.3.017-1.055.105-2.103.268-3.15"/><path d="m74.72 51.751c.647-.638.901-1.598.219-2.589-.099-.144-.21-.276-.311-.419-.003-.003-.004-.007-.007-.001-6.659-9.499-15.572-16.625-24.912-23.364-.327-.236-.651-.359-.963-.404-.609-.425-1.406-.5-2.216.116-9.312 7.086-16.81 15.885-21.497 26.665-.525 1.207-.013 2.34.814 2.981.503.496 1.21.802 2.067.68l9.351-1.336c-.208 6.227-.417 12.05-.629 20.811-.07.188-.124.389-.138.618-.107 1.715-.22 3.429-.328 5.144-.436 1.385.225 3.054 2.044 2.854 7.358-.808 14.709-1.103 22.11-.861.27.009.506-.032.727-.094 1.216.095 2.482-.632 2.432-2.203-.265-8.186-.537-19.11-.81-27.3 3.425-.219 6.85-.404 10.285-.421.815-.005 1.398-.362 1.764-.868m-14.397-3.153c-1.309.088-2.036 1.048-2.181 2.068-.078.24-.126.502-.116.803.265 7.936.527 18.615.785 26.551-4.897-.112-9.776.029-14.652.38.094-.217.159-.457.173-.734.632-12.659.349-15.331.333-28-.0001-1.269-.971-1.911-1.955-1.931-.212-.06-.444-.092-.712-.069-2.433.205-4.872.299-7.309.427 3.802-6.566 8.615-12.337 14.39-17.346.038-.033.063-.07.098-.104 7.06 5.17 13.852 10.663 19.309 17.493-2.722.11-5.442.28-8.163.462"/></g></svg>