<svg xmlns="http://www.w3.org/2000/svg" viewBox="0 0 100 100" enable-background="new 0 0 100 100"><path fill="#1d1d1b" d="m53.682 13.151c-.242-.054-.471-.069-.692-.065-.445-.192-.954-.282-1.523-.202-16.53 2.334-31.862 8.802-45.654 18.12-1.986 1.341-1.263 4.01.33 4.817.198.42.515.809 1 1.115 4.778 3.01 9.827 5.273 15.05 7.01-.07.342-.116.696-.117 1.082 0 .037.001.071.011.107-.137.284-.241.598-.277.958-.511 5.05-.76 10.1-.533 15.183.074 1.667 1.379 2.519 2.678 2.563 3.077 1.528 6.257 2.74 9.493 3.66.283 3.828.557 7.656.814 11.485-3.809 2.02-5.751 5.52-4.979 9.738.015.903.493 1.772 1.304 2.29 1.967 1.257 4.33 1.968 6.672 1.695.022-.003.043-.009.065-.012.3.025.607.008.909-.083 2.481-.743 4.755-2.268 5.854-4.687.199-.437.299-.896.308-1.345.205-.366.333-.803.322-1.331-.043-2.058-.688-4.066-2.245-5.48-.853-.775-1.863-1.275-2.938-1.582-.214-3.152-.436-6.304-.667-9.455 13.12 2.343 26.836-.054 38.627-7.02.572-.338.928-.784 1.117-1.27.441-.427.735-1.031.735-1.829 0-4.531.02-9.06.267-13.585.015-.282-.001-.539-.063-.774.04-.181.063-.367.063-.558v-1.332c0-.069-.016-.135-.021-.203 4.249-1.706 8.431-3.629 12.553-5.755.764-.394 1.168-.977 1.297-1.605.783-.944.965-2.315-.225-3.378-11.134-9.931-25.15-15.08-39.534-18.263m-27.13 46.04c-.086-4.355.136-8.693.573-13.03.105-.216.183-.446.225-.689 1.51.398 3.034.746 4.564 1.073.354 5.098.728 10.194 1.109 15.29-2.197-.724-4.362-1.592-6.471-2.64m12.452 24.639c.057.088.111.177.161.269-.019.007.147.411.163.469.015.082.027.142.036.185.012.162.021.325.021.488.0001.047.013.086.016.132-.141.288-.292.566-.469.834-.023.026-.044.05-.079.091-.136.152-.291.286-.444.42-.026.018-.045.031-.08.056-.192.132-.398.243-.603.354-.035.019-.247.109-.36.158-.098.035-.198.067-.298.098-.985.088-1.834-.042-2.677-.395-.076-1.643.999-2.6 2.608-3.442.209-.109.38-.237.536-.372.146.028.395.067.411.071.033.008.336.118.444.149.157.096.379.237.428.254.07.069.146.147.186.181m35.28-38.811c-.227 4.17-.26 8.342-.264 12.516-10.888 6.186-23.552 8.237-35.557 5.76-.392-5.245-.778-10.49-1.146-15.736 4.909.805 9.886 1.33 14.868 1.702.241.04.497.058.789.021 7.375-.953 14.467-2.734 21.356-5.144.016.091.042.179.067.267-.057.19-.101.391-.113.614m-21.31-1.065c-.081.011-.151.037-.229.053-.101-.018-.196-.045-.304-.053-4.59-.338-9.171-.806-13.69-1.523 3.964-3.652 7.991-7.232 12.11-10.711 2.628-2.22-1.16-5.969-3.767-3.767-4.874 4.117-9.647 8.347-14.301 12.71-.236.131-.44.307-.615.515-7.111-1.591-13.994-3.978-20.419-7.697 12.302-7.758 25.696-13.12 40.16-15.309.114.04.221.086.349.115 12.383 2.744 24.643 6.88 34.654 14.788-10.743 5.302-21.996 9.334-33.946 10.879"/></svg>