<svg xmlns="http://www.w3.org/2000/svg" viewBox="0 0 100 100" enable-background="new 0 0 100 100"><g fill="#1d1d1b"><path d="m6.662 37.01c.004 1.844.033 3.687.055 5.53h-1.839c-1.751 0-3.211 1.461-3.211 3.211s1.46 3.211 3.211 3.211h1.902c.025 2.02.056 4.04.06 6.06.009 4.141 6.431 4.142 6.422 0-.013-6.01-.165-12.01-.178-18.02-.009-4.14-6.431-4.14-6.422.0001"/><path d="m77.3 30.23c.13 4.082.245 8.165.392 12.245-18.733-.418-37.418 2.114-56.15 1.084-.109-4.146-.245-8.292-.44-12.437-.194-4.123-6.617-4.142-6.422 0 .515 10.935.702 21.877.714 32.824.004 4.141 6.426 4.142 6.422 0-.005-4.653-.051-9.306-.131-13.957 18.77 1.014 37.497-1.532 56.27-1.085.219 4.603.508 9.201.943 13.793.388 4.086 6.813 4.123 6.422 0-1.024-10.797-1.26-21.633-1.605-32.467-.131-4.13-6.554-4.143-6.422 0"/><path d="m93.93 42.12c.851-.131.023-.009-.134.005-.246.022-.494.031-.741.042-.185.008-.37.004-.555.007-.143-2.192-.239-4.387-.214-6.59.047-4.143-6.375-4.139-6.422 0-.079 6.988.997 13.899 1.249 20.872.149 4.129 6.572 4.143 6.422 0-.095-2.639-.309-5.268-.533-7.897.878-.041 1.751-.109 2.635-.245 1.733-.267 2.666-2.412 2.243-3.95-.504-1.833-2.221-2.51-3.95-2.244"/></g></svg>