<svg xmlns="http://www.w3.org/2000/svg" viewBox="0 0 100 100" enable-background="new 0 0 100 100"><g fill="#1d1d1b"><path d="m58.03 29.1c-1.522-10.824-10.559-14.68-18.508-14.68-.942 0-1.904.052-2.824.151-5.284.185-10.39 2.587-13.658 6.426-2.761 3.244-3.943 7.156-3.42 11.315 1.127 8.945 8.806 15.192 18.673 15.192 1.08 0 2.171-.08 3.242-.236 8.829-1.289 17.774-9.07 16.495-18.17m-15.422 14.05c-1.545.447-3.121.673-4.686.673-5.967 0-11.229-3.323-13.731-8.672-1.278-2.731-1.387-5.58-.312-8.239 1.317-3.259 4.351-6.069 8.121-7.53.147-.001.285-.035.422-.076 1.463-.44 2.951-.755 4.379-.933.176-.006.353-.012.528-.012h.087c.226 0 .444-.037.651-.109.555-.04 1.108-.061 1.656-.061 7.692 0 12.962 3.925 14.457 10.769.897 4.1-1.447 11.261-11.572 14.19"/><path d="m51.998 50.31c8.503-4.314 12.831-10.2 13.603-18.473.674-7.238-2.665-14.789-8.942-20.269.84-2.049 1.424-3.92 1.782-5.709.123-.615-.023-1.214-.412-1.688-.405-.495-1.045-.802-1.669-.802-.601 0-1.107.275-1.408.759-1.824 1.477-3.948 2.75-6.664 3.996-2.409-.524-4.921-.791-7.47-.791-11.271 0-21.689 5.108-27.19 13.33-3.466 5.177-4.01 12.25-1.419 18.46 3.835 9.197 11.535 12.755 18.562 15.02.34.109.684.129 1.01.058 3.304.687 6.354.846 9.369.49 6.365 5.102 14.599 15.29 13.257 22.302-.613 3.203-3.178 5.503-7.622 6.837-4.812 1.444-10.726.727-15.13-1.821-2.688-1.554-4.193-3.53-4.472-5.875-.623-5.249 4.891-11.364 8.232-14.542.812-.772.722-1.785.267-2.473-.273-.7-.857-1.149-1.614-1.237-2.364-.275-4.712-.833-7.176-1.703-.226-.079-.452-.12-.672-.12-.982 0-1.629.769-1.801 1.575-5.952 6.997-14.285 20.21-4.105 30.846 6.431 6.72 16.359 7.724 21.705 7.725 1.487 0 2.997-.074 4.487-.219 8.113-.79 17.843-4.985 20.818-14.389 3.696-11.681-6.795-23.361-15.32-31.29m12.03 27.773c-.247 7.759-8.203 12.148-15.567 13.67-2.103.434-4.287.654-6.494.654-5.792 0-11.45-1.528-15.932-4.304-3.156-1.955-5.448-4.91-6.454-8.32-2.036-6.907 2.936-13.975 7.599-19.412 1.028.315 2.07.587 3.109.811-5.03 5.255-10.47 12.9-4.486 20.875 3.02 4.03 8.675 6.334 15.514 6.334 1.515 0 3.02-.114 4.49-.342 6.394-.99 12.878-5.511 12.951-13.38.09-9.707-9.87-18.905-15.815-23.523-.487-.378-1.063-.493-1.59-.325-.17-.023-.347-.028-.54-.0001-2.766.376-5.667.194-8.867-.559-.207-.049-.423-.064-.628-.048-5.921-1.975-11.838-4.766-15.12-11.65-2.604-5.458-2.142-11.511 1.27-16.609 4.371-6.53 13.538-10.749 23.355-10.749 2.416 0 4.739.259 6.904.77.412.096.82.068 1.194-.081.308.012.612-.047.902-.179 1.116-.505 2.205-1.059 3.252-1.652-.133.334-.266.656-.4.969-.097.224-.15.453-.159.684-.188.79.08 1.553.721 2.052 5.702 4.439 8.712 10.789 8.474 17.877-.237 7.09-4.628 12.268-13.815 16.293-.43.188-.749.49-.928.876-.591.769-.503 1.714.229 2.372 6.01 5.411 17.2 15.486 16.835 26.897"/><path d="m90.67 48.891c-.344-1.055-.587-3.15-.605-4.262-.017-1.041-.905-1.51-1.705-1.415-.133-.038-.274-.065-.434-.065-1.735 0-3.464-.029-5.189-.182-.299-3.284-.597-3.506-.896-6.79-.089-.98-.932-1.451-1.697-1.413-.135-.039-.278-.067-.44-.067-2.311.0001-3.577.026-5.871.329-1.076.142-1.535 1.188-1.372 2-.095.25-.127.538-.056.861.566 2.57.053 2.087.571 4.667-2.029.145-3.988.569-5.862 1.455-.675.32-.852.905-.717 1.451-.005.052-.016.101-.016.156.0001 1.905.043 3.85.711 5.657.253.686.835.989 1.417 1 .22.064.463.084.732.031 1.238-.244 2.474-.435 3.723-.534.009 2.338.056 4.725.325 7.05.11.956.934 1.426 1.687 1.41.137.041.284.071.451.071h6.908c.792 0 1.25-.511 1.385-1.107.085-.195.127-.426.095-.702-.275-2.386-.318-3.796-.326-6.195 2.023-.178 4.048-.219 6.082-.22 1.386 0 1.76-1.555 1.135-2.411.058-.231.058-.49-.036-.779m-8.336.558c-.089.001-.17.033-.25.055-.766-.035-1.559.437-1.559 1.426 0 2.47.015 3.954.227 6.415h-4.636c-.177-2.243-.196-4.543-.196-6.794 0-.144-.021-.273-.053-.395-.021-.723-.494-1.425-1.428-1.414-1.628.019-3.24.221-4.842.501-.2-.98-.243-1.977-.252-2.988 1.624-.611 3.357-.786 5.094-.803.083-.0001.159-.014.234-.025.85-.035 1.741-.755 1.522-1.848-.588-2.944-.146-2.825-.784-5.758 1.543-.126 2.053-.153 3.604-.158.284 3.124.568 3.186.852 6.31.014.149.05.282.096.408.101.656.563 1.292 1.385 1.401 1.955.26 3.916.315 5.882.324.094.674.249 2.375.435 3.03-1.781.026-3.557.105-5.331.313"/></g></svg>