<svg xmlns="http://www.w3.org/2000/svg" viewBox="0 0 100 100" enable-background="new 0 0 100 100"><path d="m96.37 58.744c-3.953-11.927-7.719-28.924-11.672-40.852-.297-.896-.837-1.485-1.47-1.833-.408-1.035-1.283-1.838-2.648-1.841-17.446-.037-34.88-.828-52.33-.864-1.507-.003-2.424.968-2.764 2.157-.082.102-.169.193-.245.311-7.03 10.949-13.714 27.14-19.945 38.628-1.184.526-1.748 1.841-1.689 3.136-.093.343-.144.721-.113 1.155.39 5.474.362 10.939 0 16.414-.038.575.052 1.062.222 1.477-.425 1.883.49 3.95 2.796 3.922 28.16-.344 56.46 2.041 85.73 1.728 1.951-.021 2.924-1.66 2.919-3.285 1.247-6.14 1.631-12.338 1.322-18.604.096-.49.081-1.038-.122-1.649m-66.39-38.891c16.418.079 32.827.759 49.25.83 3.397 10.28 6.674 25.605 10.05 35.893-25.591-1.741-51.23-1.947-76.867-2.29 5.545-10.02 11.421-24.822 17.572-34.433m59.62 55.954c-27.22.045-54.25-2.067-79.997-1.91.246-4.392.272-8.779.04-13.17 26.979.376 53.97.524 80.903 2.411.075 4.258-.209 8.47-.946 12.669" fill="#1d1d1b"/></svg>