<svg xmlns="http://www.w3.org/2000/svg" viewBox="0 0 100 100" enable-background="new 0 0 100 100"><path d="m49.71 4.774c-16.681-.377-31.826 5.774-39.841 21.517-7.225 14.189-6.445 31.607-5.54 47.03.218 3.72 6.02 3.741 5.805 0-.053-.899-.103-1.8-.152-2.702.227.054.468.089.732.089 2.226 0 4.446.034 6.663.218 2.851 7.686 9.228 13.472 18.881 12.264 1.354-.169 2.21-1.071 2.569-2.116.204-.382.333-.832.334-1.369.011-7.52.1-15.04.203-22.561.085-6.161 2.988-16.625-6.473-17.02-9.167-.38-15.32 7.881-16.792 16.07h-4.844c-.086-.009-.169-.026-.256-.026h-1.335c.168-7.696 1.047-15.343 3.473-22.699 2.144-6.502 6.17-12.24 11.762-16.206 6.746-4.784 14.751-6.583 22.746-6.693.221.041.457.063.714.052.45-.02.901-.03 1.352-.04.451.001.902.02 1.352.04.257.011.492-.011.714-.052 7.995.11 16 1.908 22.746 6.693 5.592 3.966 9.617 9.703 11.762 16.206 2.426 7.356 3.305 15 3.473 22.699h-.424c-.191 0-.376.027-.556.07-.121-.014-.232-.043-.362-.043 0 0-5.084 0-5.094 0 .128 0-2.267-6.824-2.593-7.412-1.311-2.366-3.092-4.361-5.37-5.83-2.963-1.911-15.399-6.249-15.389.761.018 11.998.273 23.995.29 35.993.0001.535.13.985.334 1.367.359 1.045 1.215 1.947 2.569 2.116 9.653 1.208 16.03-4.577 18.881-12.264 2.217-.184 4.437-.217 6.663-.218.264 0 .505-.036.732-.089-.048.902-.099 1.803-.152 2.702-.22 3.741 5.587 3.72 5.805 0 .905-15.421 1.685-32.839-5.539-47.03-8.02-15.744-23.16-21.895-39.843-21.518m-16.08 41.26c-.04 10.466-.225 20.932-.265 31.398-15.685-1.341-16.629-31.05.265-31.398m-22.634 15.967c.005 0 .001-.0001.015-.002h4.661c.029 1.01.113 2.02.246 3.02-1.504-.082-3.01-.103-4.519-.109-.184-.044-.373-.074-.569-.074h-1.104c-.031-.943-.055-1.887-.072-2.832h1.342m55.05 15.431c-.04-10.467-.224-20.932-.265-31.398 16.894.343 15.95 30.06.265 31.398m23.638-12.583c-.185.011-.363.043-.536.094-.143-.023-.29-.041-.448-.041-1.738 0-3.473.02-5.206.114.133-.999.217-2.01.246-3.02h4.67c.04 0 .071-.012.11-.013.047.003.092.015.141.015h1.096c-.018.95-.042 1.899-.073 2.848" fill="#1d1d1b"/></svg>