<svg xmlns="http://www.w3.org/2000/svg" viewBox="0 0 100 100" enable-background="new 0 0 100 100"><path fill="#1d1d1b" d="m91.99 14.841c-2.71 1.792-5.396 3.619-8.08 5.453-4.081-5.323-10.268-8.367-17.15-8.02-8.542.426-14.771 7.03-18.656 14.186-4.626-6.675-11.506-12.529-20.02-12.04-7.74.443-14.159 5.05-17.4 12.06-4.214 9.111-1.545 20.12 3.992 28.06 1.709 2.452 3.61 4.709 5.642 6.831-2.861 1.907-5.766 3.743-8.74 5.465.09-1.358.152-2.718.161-4.081.022-3.225-4.978-3.223-5 0-.019 2.759-.251 5.504-.5 8.25-.123 1.351.695 2.114 1.702 2.322.188.131.392.251.634.339 2.506.912 5.01 1.823 7.403 2.998 2.883 1.414 5.418-2.898 2.523-4.317-1.202-.59-2.43-1.119-3.669-1.623 3.112-1.828 6.152-3.771 9.145-5.793 7.851 7.159 17.07 12.924 25.15 19.817.777.662 1.665.763 2.441.525.62-.021 1.249-.262 1.78-.824 10.49-11.09 23.558-20.1 31.03-33.714 4.274-7.791 5.854-17.884 2.096-26.15 2.667-1.823 5.339-3.641 8.03-5.423 2.676-1.771.174-6.103-2.524-4.319m-16.08 39.816c-6.908 9.482-16.72 16.689-24.968 25.02-9.07-7.377-19.559-13.483-27.416-22.15-6.04-6.665-11.772-16.14-9.37-25.559 1.554-6.09 6.331-12.06 13.09-12.447 8.706-.499 14.744 5.961 18.709 13.02.661 1.176 1.792 1.422 2.783 1.115.881.024 1.754-.393 2.209-1.455 3.189-7.44 8.502-14.508 17.211-14.942 4.718-.235 8.763 2.341 11.525 5.92-3.713 2.539-7.437 5.061-11.215 7.502-.157-1.218-1.21-2.187-2.466-2.187-1.363 0-2.5 1.137-2.5 2.5v3.75c0 .495.153.958.41 1.35.283.7.908 1.241 1.676 1.561-.454-.189.368.2.447.241.26.137.514.288.768.437.476.28.946.567 1.438.82 1.212.623 2.705.325 3.42-.897.613-1.047.348-2.551-.661-3.261 3.773-2.438 7.492-4.956 11.2-7.492.103.244.208.488.3.734 3.395 9.105-1.288 19.14-6.586 26.414"/></svg>