<svg xmlns="http://www.w3.org/2000/svg" viewBox="0 0 100 100" enable-background="new 0 0 100 100"><path d="m74.821 18.19c-.946-.119-1.903-.18-2.847-.18-8.261 0-14.648 4.417-18.908 8.715-4.097-8.355-10.501-13.721-18.214-15.202-1.199-.23-2.438-.347-3.685-.347-9.276 0-19.322 6.649-23.887 15.811-4.605 9.244-3.104 19.331 4.466 29.979 7.621 10.721 17.13 20.05 26.33 29.07l1.896 1.861c.721 1.367 2.092 2.234 3.572 2.235.614 0 1.221-.147 1.803-.438l3.325-1.652c11.541-5.729 23.475-11.652 34.04-19.487 10.495-7.78 15.05-16.905 13.531-27.12-1.526-10.291-9.958-21.799-21.425-23.24m13.94 28.967c-.374 8.739-10.183 15.01-16.672 19.16-8.846 5.655-18.35 10.427-27.582 15.03-7.488-7.361-15.202-14.974-21.963-23.21-4.886-5.954-12.27-14.952-9.919-23.379 2.124-7.611 9.974-15.759 18.273-15.759.533 0 1.069.035 1.593.103 9.6 1.253 13.782 10.795 15.211 15.181-.062.883.22 1.747.815 2.47.789.96 2.01 1.534 3.276 1.534 1.311 0 2.498-.634 3.26-1.74 2.211-3.209 8.284-10.675 16.924-10.675.911 0 1.834.086 2.743.257 8.483 1.587 14.409 12.416 14.04 21.04" fill="#1d1d1b"/></svg>