<svg xmlns="http://www.w3.org/2000/svg" viewBox="0 0 100 100" enable-background="new 0 0 100 100"><g fill="#1d1d1b"><path d="m83.89 75.953c5.126-14.445 7.275-31.815 1.896-46.41-5.711-15.491-19.283-23.09-36.31-22.05-17.02-1.047-30.597 6.555-36.31 22.05-5.378 14.592-3.229 31.962 1.898 46.41-2.338 2.195-4.747 4.319-6.957 6.633-1.138 1.19-.405 2.745.75 3.276.014.017.024.035.037.052 1.796 2.199 3.595 4.396 5.514 6.5.479.525 1.041.695 1.575.637.728.8 2 1.119 2.969.113 5.435-5.654 10.982-11.206 16.539-16.75.119-.118.218-.24.299-.365.587-.565.845-1.417.292-2.309-8.696-14.04-6.554-36.798 13.393-39.36 19.947 2.56 22.09 25.314 13.394 39.36-.553.892-.295 1.744.292 2.309.081.125.18.247.299.365 5.557 5.544 11.1 11.1 16.539 16.75.966 1.01 2.241.687 2.969-.113.534.058 1.097-.112 1.576-.637 1.918-2.104 3.717-4.301 5.513-6.5.013-.017.023-.035.037-.052 1.155-.531 1.888-2.086.75-3.276-2.211-2.314-4.621-4.438-6.957-6.633m-2 13.275c-4.814-4.985-9.707-9.899-14.616-14.799-.329-.329 3.535-9.481 3.804-10.637.85-3.665 1.085-7.435.618-11.164-.901-7.209-4.282-14.41-11-18.282-4.193-2.416-9.156-4.523-13.852-3.536-20.294 4.262-24.26 27.368-15.16 43.62-4.909 4.901-9.802 9.815-14.616 14.799-1.556-1.726-3.038-3.509-4.507-5.302 1.914-1.878 3.922-3.666 5.87-5.512.112-.107.206-.218.286-.331.703-.397 1.138-1.142.779-2.115-4.851-13.15-6.79-27.906-3.422-41.593 1.737-7.06 5.791-13.967 12.271-18.03 13.523-8.473 38.475-7.405 48.576 5.583 2.738 3.521 4.911 8.176 5.961 12.444 3.368 13.688 1.429 28.443-3.422 41.594-.358.973.076 1.718.779 2.115.08.113.174.224.286.331 1.948 1.846 3.956 3.634 5.87 5.512-1.468 1.792-2.951 3.574-4.506 5.3"/><path d="m49.736 14.616c-.456 0-.911.037-1.357.108-.684-.531-1.645-.509-2.288.099-2.611 2.464-3.321 5.78-1.807 8.447.961 1.693 2.787 2.664 5.01 2.664 1.138 0 2.298-.249 3.355-.718 1.843-.819 3.178-2.183 3.661-3.743.391-1.262.196-2.582-.564-3.817-1.17-1.904-3.417-3.04-6.01-3.04m3.27 5.736c-.166.734-1.209 1.441-2.108 1.787-.516.199-1.047.304-1.536.304-.683 0-1.611-.204-2.164-1.177-.537-.946-.124-1.994.389-2.774.181 0 .364-.031.546-.09 1.714-.564 3.39-.225 4.496.94.328.346.452.676.377 1.01"/><path d="m29.736 22.616c-.456 0-.911.037-1.357.108-.684-.531-1.646-.509-2.288.099-2.611 2.464-3.321 5.78-1.807 8.447.961 1.693 2.787 2.664 5.01 2.664 1.138 0 2.298-.249 3.355-.718 1.843-.819 3.178-2.183 3.661-3.743.391-1.262.196-2.582-.564-3.817-1.17-1.904-3.417-3.04-6.01-3.04m3.27 5.736c-.166.734-1.209 1.441-2.108 1.787-.516.199-1.047.304-1.536.304-.683 0-1.611-.204-2.164-1.177-.537-.946-.124-1.994.389-2.774.181 0 .364-.031.546-.09 1.715-.564 3.389-.225 4.496.94.328.346.452.676.377 1.01"/><path d="m21.819 39.21c-.296 0-.593.022-.884.065-.522-.367-1.234-.332-1.71.119-1.837 1.733-2.332 4.07-1.262 5.955.685 1.206 1.979 1.897 3.555 1.897.798 0 1.611-.174 2.353-.503 1.299-.578 2.241-1.543 2.584-2.651.28-.905.142-1.851-.401-2.733-.827-1.346-2.41-2.149-4.235-2.149m2.076 4.03c-.095.419-.761.883-1.34 1.105-.333.128-.676.196-.99.196-.615 0-1.065-.243-1.338-.721-.312-.551-.086-1.174.217-1.659.11-.008.222-.03.333-.066 1.113-.366 2.188-.149 2.9.599.246.261.242.437.218.546"/><path d="m81.44 44.09c.279-.902.142-1.843-.399-2.722-.823-1.34-2.399-2.14-4.216-2.14-.295 0-.589.022-.879.065-.523-.367-1.23-.327-1.704.119-1.828 1.726-2.321 4.052-1.256 5.928.682 1.2 1.972 1.889 3.539 1.889.795 0 1.604-.173 2.343-.501 1.292-.574 2.23-1.535 2.572-2.638m-2.553-.843c-.094.416-.756.876-1.331 1.098-.331.128-.672.195-.984.195-.612 0-1.06-.241-1.33-.717-.31-.547-.086-1.165.215-1.646.11-.008.221-.03.331-.066 1.106-.365 2.176-.148 2.884.596.243.257.239.431.215.54"/><path d="m75.31 29.473c.391-1.262.196-2.582-.564-3.817-1.17-1.904-3.417-3.041-6.01-3.041-.456 0-.911.037-1.357.108-.684-.531-1.646-.509-2.288.099-2.611 2.464-3.321 5.78-1.807 8.447.961 1.693 2.787 2.664 5.01 2.664 1.138 0 2.298-.249 3.355-.718 1.842-.818 3.177-2.182 3.661-3.742m-3.305-1.121c-.166.734-1.209 1.441-2.108 1.787-.516.199-1.047.304-1.536.304-.683 0-1.611-.204-2.164-1.177-.537-.946-.124-1.994.389-2.774.181 0 .364-.031.546-.09 1.715-.564 3.39-.225 4.496.94.328.346.452.676.377 1.01"/></g></svg>