<svg xmlns="http://www.w3.org/2000/svg" viewBox="0 0 100 100" enable-background="new 0 0 100 100"><g fill="#1d1d1b"><path d="m94.49 45.04c-3.473-2.181-7.766-.26-11.07 1.265-3.34-6.159-9.794-7.633-16.13-5.208-.187.011-.38.039-.586.106-8.409 2.714-17.282 3.137-26.06 2.989-4.43-.074-8.857-.293-13.286-.399-6.332-.153-15.185-.367-14.344 8.659-1.716-.298-3.419-.617-5.106-.959-5.111-1.035-6.325 3.661-6.247 7.613.125 6.366 4.93 7.753 9.773 10.697.689.394-.131 5.254.131 6.254 1.995 7.617 13.758 8.01 19.922 8.985 8.86 1.406 17.922 1.695 26.864 1.054 7.407-.531 14.771-1.886 21.602-4.889 6.628-2.914 16.335-9.209 12.445-17.737-.044-.097 3.843-5.942 4.223-6.996 1.084-3 1.522-7.03-.362-9.742-.452-.651-1.038-1.226-1.781-1.692m-74.878 3.132c.003-.002.006-.004.001-.006 16.05-.329 32.08 2.311 47.712-2.551.26.006.541-.039.844-.161 4.496-1.808 8.618-1.536 11.17 2.6-19.303 7.683-41.4 8.144-61.963 5.097.06-.322.067-.661.007-1-.337-1.916.532-3.174 2.22-3.977m68.779 20.534c-.842 2.541-3.723 4.917-5.453 6.129-7.793 5.462-18.689 6.602-27.952 7.05-10.297.502-20.441-.569-30.531-2.627-3.02-.616-7.807-1.463-8.867-4.97-2.463-8.15 13.798-4.566 17.325-4.419 9.148.381 18.28.321 27.361-1.025 6.913-1.025 13.226-2.977 19.84-5.104 2.374-.764 7.191-.439 8.259 2.238.358.899.317 1.822.018 2.724m4.453-15.963c-.379 2.69-2.054 5.838-3.26 7.26-2.01-1.366-4.647-1.794-6.999-1.829-.667-.001-1.172.231-1.526.597-.079.023-.154.036-.236.07-19.991 8.12-40.626 7.479-61.736 5.801-.219-.017-.415.0001-.6.035-.19-.003-.381.006-.573.044-1.156.227-2.274.625-3.268 1.232-.172-.062-.354-.112-.555-.135-3.117-.362-6.427-2.148-7.72-5.089-3.216-7.317 7.07-3.724 10.588-3.211.053.156.123.308.225.447.902 1.225 1.634 2.578 2.697 3.68.834.865 2.28.838 3.118 0 .861-.861.833-2.254 0-3.118-.023-.024-.129-.146-.226-.256 2.435.273 4.885.491 7.341.656.493 1.372 1.334 2.505 2.56 3.356.989.686 2.445.185 3.02-.791.455-.777.356-1.619-.085-2.289 4.193.133 8.392.079 12.572-.166.161.494.48.933.959 1.188.121.064.236.133.35.207.011.008.014.001.024.016.025.021.051.042.076.064.2.171.387.358.574.544.85.849 2.268.85 3.118 0 .656-.656.8-1.651.442-2.462 2.674-.276 5.333-.646 7.971-1.105.178.257.403.489.676.679.055.048.11.095.163.145.186.172.351.365.514.558.048.066.096.132.143.199.153.216.299.437.446.657.666.998 1.933 1.426 3.02.791.99-.58 1.459-2.02.791-3.02-.233-.35-.472-.686-.718-1.012 2.825-.633 5.618-1.388 8.37-2.264.021.022.035.047.056.068.843.828 1.803 1.524 2.646 2.352.857.842 2.263.855 3.118 0 .844-.844.857-2.276 0-3.118-.345-.338-.713-.649-1.081-.961 3.313-1.258 6.557-2.702 9.708-4.375 2.953.131 3.642 2.16 3.305 4.552"/><path d="m30.26 73.64c-2.844 0-2.844 4.41 0 4.41s2.844-4.41 0-4.41"/><path d="m46.13 75.81c-2.844 0-2.844 4.41 0 4.41 2.844-.0001 2.844-4.41 0-4.41"/><path d="m62.6 74.64c-2.844 0-2.844 4.41 0 4.41 2.843-.0001 2.843-4.41 0-4.41"/><path d="m77.882 69.932c-2.844 0-2.844 4.41 0 4.41 2.844 0 2.844-4.41 0-4.41"/><path d="m31.07 26.724c1.297 3.173-.599 5.644-2.837 7.785-1.809 1.731.936 4.467 2.74 2.74 3.942-3.771 5.537-7.996 3.171-13.09-2.495-5.372-7.131-9.163-3.901-15.464 1.138-2.218-2.206-4.18-3.346-1.955-2.484 4.846-2.038 9.351.64 13.99 1.155 2 2.654 3.842 3.533 5.994"/><path d="m58.07 26.724c1.297 3.173-.599 5.644-2.837 7.785-1.809 1.731.936 4.467 2.74 2.74 3.942-3.771 5.537-7.996 3.171-13.09-2.495-5.372-7.131-9.163-3.901-15.464 1.138-2.218-2.206-4.18-3.346-1.955-2.484 4.846-2.038 9.351.64 13.99 1.155 2 2.654 3.842 3.533 5.994"/></g></svg>