<svg xmlns="http://www.w3.org/2000/svg" viewBox="0 0 100 100" enable-background="new 0 0 100 100"><path d="m94.54 87.4c-2.058.005-4.115.026-6.172.056-1.377-16.264-2.298-32.559-3.173-48.857.212-.508.275-1.092.167-1.677-.159-.861-.202-1.774-.214-2.687 1.762.051 3.525.126 5.29.234 1.473.09 2.258-.911 2.378-2.038.36-.803.273-1.759-.615-2.53-2.935-2.546-6.01-4.876-9.192-7.05.001-.085.025-.167.025-.259-.018-4.967-.223-9.931-.24-14.898-.004-1.256-.993-1.873-1.967-1.856-.136-.035-.281-.058-.436-.066-4.402-.225-8.808-.24-13.216-.24-1.23 0-1.849.947-1.858 1.901-.038.155-.065.32-.065.502 0 1.555-.018 3.107-.077 4.658-4.898-2.41-9.9-4.632-14.924-6.766-.935-.397-1.828-.225-2.518.229-.398.008-.817.119-1.245.394-13.836 8.909-26.684 19.19-39.89 28.98-2.339 1.734-.447 5.503 1.876 4.645.002 0 .003 0 .006 0 1.041-.065 2.081-.146 3.121-.221 1.09 16.553.211 33.16 1.424 49.708-1.28-.015-2.561-.029-3.841-.057-3.4-.074-3.393 5.195 0 5.269 12.923.281 25.831-.115 38.738-.635 12.16-.252 24.316-.711 36.465-1.346 3.384-.071 6.769-.118 10.155-.126 3.396-.008 3.396-5.277-.002-5.269m-25.46-78.02c3.297.006 6.594.042 9.888.178.042 3.593.146 7.184.193 10.776-3.33-2.09-6.752-4.03-10.245-5.85.116-1.7.15-3.401.164-5.104m-20.08 79.45c-4.094.167-8.188.323-12.284.45-.287-3.01-.435-6.01-.508-9.02.343.201.753.33 1.25.33 3.216 0 3.216-4.986 0-4.986-.514 0-.938.138-1.287.352.02-2.922.103-5.845.288-8.772 3.633-2.395 7.652-2.977 11.729-1.284.742 7.63 1.019 15.263.812 22.929m4.988-.207c.21-8.104-.098-16.17-.948-24.24-.042-.403-.162-.754-.335-1.055-.137-.557-.513-1.068-1.211-1.409-6.185-3.02-12.849-2.608-18.41 1.558-.257.192-.449.414-.608.647-.511.4-.881 1-.938 1.818-.553 7.822-.552 15.613.199 23.414-4.581.022-9.163.018-13.744-.027-1.189-16.498-.319-33.06-1.413-49.563-.007-.107-.032-.202-.05-.302 21.22-1.836 42.35-5.335 63.65-5.304.022.788.059 1.575.138 2.359-.123.304-.186.659-.164 1.066.116 2.165.237 4.329.356 6.494-.59-1.718-1.661-3.312-3.15-4.556-6.836-5.709-18.795-2.144-18.335 7.628.117 2.481 1.195 6.43 2.935 8.297 4.732 5.075 12.666 2.056 16.677-2.259 1.117-1.202 1.814-2.577 2.152-4.01.718 12.798 1.519 25.591 2.602 38.37-9.805.219-19.602.656-29.401 1.071m21.652-39.819c-.054.117-.108.233-.173.349-.732 1.303-2.02 2.407-3.49 3.103v-3.376c1.22-.038 2.441-.063 3.663-.076m-3.663-3.77v-2.847c.477.15.955.35 1.428.613.948.528 1.682 1.288 2.134 2.16-1.188.014-2.375.039-3.562.074m-7.262.297c.049-.097.097-.195.149-.289.79-1.421 1.943-2.382 3.268-2.847v2.979c-1.139.05-2.278.102-3.417.157m3.417 3.688v3.982c-.805-.074-1.58-.303-2.27-.737-1.187-.745-1.758-1.851-1.91-3.052 1.394-.068 2.786-.132 4.18-.193m-52.05-14.5c10.806-8.157 21.531-16.423 32.924-23.761.025-.016.042-.036.066-.052 11.965 5.117 23.903 10.73 34.36 18.517-22.554-.428-44.894 3.379-67.34 5.296" fill="#1d1d1b"/></svg>