<svg xmlns="http://www.w3.org/2000/svg" viewBox="0 0 100 100" enable-background="new 0 0 100 100"><g fill="#1e1e1c"><path d="m84.13 28.855c-.181-5.491-.282-12.909-.228-18.404.002-.245-.037-.461-.093-.664.107-1.197-.596-2.461-2.129-2.421-19.354.508-38.704-.25-58.06-.28-1.61-.003-2.315 1.412-2.116 2.654-.065.216-.109.448-.106.712.292 23.09 1.086 56.28 1.111 79.38 0 .518.147.939.382 1.272.142.979.846 1.845 2.118 1.813 8.366-.208 16.735-.342 25.09-.752 7.45-.365 16.734.124 23.855-2.307 2.521-.861 4.777-2.134 6.71-3.977 3.535-3.369 4.741-7.892 5.05-12.658.292-4.577-.247-9.379-.354-13.597-.275-10.895-.872-19.875-1.23-30.768m-12.246 41.19c-1.362.008-2.678 1.071-2.07 2.705 1.224 3.286 1.784 7.366-.098 10.509-2.276 3.801-6.338 3.698-10.2 4.185-2.361.298-4.872.14-7.253.207-1.853.052-25.314.624-25.314.716-.055-22.23-.79-54.55-1.087-76.78 17.869.077 35.733.691 53.601.309-.067 18.253 1.551 44.639 1.646 59.06-2.772-.875-5.637-1.244-8.595-1.046-.232.014-.437.067-.63.134m1.745 15.196c1.795-3.058 2.243-6.81 1.31-10.877 2.161.084 4.292.501 6.309 1.356.009.025.015.052.024.077-.655 4.819-3.704 7.776-7.643 9.444"/><path d="m37.6 39.14c-.068 2.266-.125 4.531-.151 6.795-.92-.008-1.838-.041-2.755-.115-.157-2.207-.393-4.41-.695-6.615-.377-2.752-4.544-1.576-4.169 1.15.586 4.274.842 8.566.724 12.879-.077 2.79 4.248 2.783 4.324 0 .028-1.029.024-2.054.007-3.078.855.063 1.712.095 2.569.103.023 1.472.065 2.944.146 4.416.154 2.773 4.479 2.788 4.325 0-.287-5.179-.156-10.355 0-15.536.084-2.789-4.241-2.781-4.325.0001"/><path d="m51.13 36.98c-2.14.142-4.271-.007-6.406-.16-2.785-.199-2.765 4.127 0 4.325.175.013.35.024.525.036.31 4.226.354 8.458.355 12.697 0 2.789 4.325 2.789 4.325 0-.0001-4.18-.044-8.352-.342-12.519.514-.004 1.028-.02 1.543-.054 2.768-.184 2.786-4.509 0-4.325"/><path d="m65.52 36.757c-.726-.065-1.482.201-1.993.974-.817 1.238-1.581 2.509-2.33 3.788-1.103-1.284-2.205-2.568-3.244-3.906-.724-.933-2.303-.755-3.058 0-.357.357-.54.76-.594 1.175-.03.16-.045.33-.04.514.15 4.697.174 9.397.32 14.09.086 2.782 4.411 2.79 4.324 0-.084-2.712-.133-5.425-.183-8.138.38.445.761.89 1.137 1.338.217.26.501.425.809.524.917.452 2.094.343 2.748-.801.234-.41.473-.816.708-1.225.183 2.767.363 5.535.547 8.302.185 2.767 4.51 2.785 4.325 0-.324-4.858-.647-9.716-.961-14.575-.093-1.479-1.372-2.165-2.515-2.065"/><path d="m79.08 52.44c0-1.076-.989-2.298-2.162-2.162-.72.083-1.444.131-2.167.181-.281-3.886-.604-7.767-1.117-11.632-.361-2.723-4.69-2.758-4.325 0 .615 4.628.959 9.278 1.282 13.934.072 1.039.727 1.69 1.507 1.951.296.161.625.252.976.211 1.278-.148 2.566-.172 3.844-.32 1.171-.136 2.162-.882 2.162-2.163"/></g></svg>