<svg xmlns="http://www.w3.org/2000/svg" viewBox="0 0 100 100" enable-background="new 0 0 100 100"><path fill="#1d1d1b" d="m68.934 27.27c1.29-4.664 1.05-9.69-1.174-14.542-2.865-6.248-9.684-9.21-16.17-9.677-12.642-.909-23.04 7.904-23.77 19.277-10.143 1.685-17.843 9.742-13.31 20.565 2.594 6.192 7.578 9.456 13.153 10.226.03.171.079.349.154.534 5.622 13.899 11.196 27.835 18.366 41.03.306.562.726.898 1.186 1.067 1.049 1.079 2.884 1.311 3.653-.42 5.916-13.319 9.813-27.322 13.893-41.27 6.663.29 13.329-2.285 14.504-9.825 1.181-7.592-4.133-13.737-10.484-16.958m-30.11 38.526c-.316-.165-.626-.249-.926-.28-1.721-4.112-3.412-8.238-5.084-12.372.601-.073 1.201-.179 1.802-.303.118.316.315.625.621.911 3.185 2.978 6.49 5.813 9.886 8.533-1.199 1.624-2.404 3.244-3.608 4.864-.9-.446-1.801-.887-2.691-1.353m5.115 13.532c-.708-1.525-1.407-3.054-2.091-4.59.036-.042.077-.074.112-.12.351-.461.695-.928 1.044-1.391 1.122.518 2.249 1.029 3.383 1.52-.828 1.52-1.649 3.045-2.448 4.581m4.618 9.451c-.729-1.406-1.437-2.823-2.135-4.244.275-.198.522-.474.714-.857 1.198-2.381 2.469-4.723 3.755-7.06.623.248 1.249.489 1.875.731-1.295 3.848-2.672 7.666-4.209 11.428m5.715-16.03c-.937-.36-1.876-.717-2.804-1.095-.442-.389-1.01-.633-1.582-.672-1.315-.554-2.623-1.125-3.922-1.716.99-1.337 1.978-2.677 2.966-4.02 1.832 1.391 3.683 2.758 5.565 4.086.252.178.5.282.745.352-.316 1.023-.643 2.042-.968 3.061m9.587-23.604c-.238-.068-.484-.099-.732-.103-.295-.047-.572-.043-.831-.002-1.499-.584-2.939-1.296-4.381-2.02-1.183-.591-2.62-.325-3.32.871-.635 1.084-.312 2.729.871 3.32 1.512.756 3.03 1.499 4.594 2.142-1.125 3.863-2.239 7.732-3.386 11.59-1.645-1.165-3.263-2.363-4.864-3.582.812-1.088 1.623-2.175 2.445-3.255 1.897-2.492-2.322-4.905-4.191-2.45-.691.908-1.372 1.823-2.055 2.736-2.865-2.309-5.657-4.709-8.37-7.206.823-.376 1.633-.797 2.42-1.271 2.679-1.61.24-5.808-2.45-4.191-7.29 4.383-16.09 4.03-20.378-4.103-3.981-7.561 1.823-13.212 8.856-14.479.22 1.268.552 2.553 1.023 3.849 1.061 2.918 5.752 1.658 4.68-1.29-4.234-11.651 3.671-21.11 15.573-21.816 4.867-.29 10.09 1.326 13.07 5.364 5.649 7.638 1.239 17.688-5.198 23.15-2.39 2.028 1.061 5.444 3.432 3.432 2.737-2.321 4.94-5.088 6.497-8.107 4.289 2.186 7.632 6.094 7.542 11.143-.103 5.756-6.279 6.861-10.851 6.276"/></svg>