<svg xmlns="http://www.w3.org/2000/svg" viewBox="0 0 100 100" enable-background="new 0 0 100 100"><g fill="#1e1e1c"><path d="m97.35 16.632c.0001-2.147-2.098-2.935-3.648-2.37-26.04.045-57.15 1.025-83.09 1.052-.095 0-.178.019-.267.027-.087-.009-.171-.027-.26-.027-1.3.0001-2.592.064-3.865.358-.146.034-.281.088-.413.147-.025.008-.05.018-.075.027-.004.002-.008.003-.012.005-.913.332-1.655 1.117-1.7 2.363-.633 17.657-.527 35.33-.527 52.993 0 2.398 2.616 3.097 4.162 2.113 28.98.043 58.12 1.904 87.06-.004.227-.015.436-.056.632-.113 1.244-.078 2.377-.91 2.268-2.523-1.214-17.92-.277-36.1-.263-54.05m-88.59 51.42c-.009-15.818-.054-31.638.455-47.45.288-.005.577-.015.865-.015.088 0 .171-.018.256-.027.091.008.175.027.271.027 25.406-.026 55.745-.965 81.45-1.047-.094 16.17-.774 32.504.146 48.648-27.742 1.624-55.663-.053-83.44-.137"/><path d="m87.31 27.346c-.085-.776-.625-1.5-1.63-1.517-6.676-.11-17.889.132-24.562.284-.828.019-1.325.522-1.527 1.13-.224.283-.357.628-.319 1 .107 1.039.128 2.081.134 3.124-.125 7.762-.161 22.34-.418 30.1-.045 1.351 1.224 1.866 2.226 1.556.016.0001.029.005.045.006 6.911.234 18.361-.112 25.27-.142.651-.003 1.104-.307 1.369-.729.319-.272.52-.689.477-1.259-.663-8.744-.849-24.316-.994-33.08-.002-.172-.032-.326-.073-.471m-8.099 32.23c-3.525.05-7.479.105-11.01.112.035-4.542.933-9.731 4.822-12.222.155-.036.311-.068.457-.145.573-.302 1.276-.276 1.943-.14 4.04 2.428 4.224 7.953 3.79 12.395m-9.366-21.05c1.177-1.835 4.776-2.997 6.695-1.86 1.366.809 1.357 2.811.941 4.212-.082.083-.159.175-.23.282-2.12 3.201-9.585.764-7.406-2.634m12.773 21.01c.501-5.439-.29-11.283-4.479-14.563 2.512-1.736 3.698-5.257 2.603-8.07-.008-.022-.017-.043-.026-.065-1.427-3.532-6-4.704-9.465-3.645-4.579 1.402-5.949 6.981-3.332 10.654.542.761 1.241 1.337 2.029 1.748-3.859 3.35-5.094 8.807-5.152 14.09-.839-.008-1.629-.02-2.351-.038.197-6.844.251-20.505.356-27.351.008-.07.021-.137.021-.212 0-.235-.007-.469-.008-.704.003-.191.005-.382.008-.573.0001-.064-.012-.117-.017-.177-.007-.381-.029-.761-.048-1.141 5.567-.136 15.676-.297 21.246-.251.136 7.826.331 22.461.879 30.27-.693.006-1.464.016-2.264.026"/><path d="m18.518 32.714c10.37-.433 20.741.306 31.11-.132 2.71-.115 2.721-4.333 0-4.218-10.37.438-20.74-.301-31.11.132-2.71.113-2.721 4.332 0 4.218"/><path d="m51.47 38.646c-12.02.637-23.972-1.178-35.988-.791-2.713.087-2.722 4.306 0 4.218 12.02-.387 23.972 1.427 35.988.791 2.705-.143 2.719-4.362 0-4.218"/><path d="m50.29 55.26c-11.169-.066-22.31-1.096-33.483-.791-2.715.074-2.722 4.293 0 4.218 11.173-.305 22.314.724 33.483.791 2.721.017 2.72-4.202 0-4.218"/></g></svg>