<svg xmlns="http://www.w3.org/2000/svg" viewBox="0 0 100 100" enable-background="new 0 0 100 100"><path d="m58.813.536c-23.558-.816-48.32 12.876-46.18 39.37.056 1.846 2.181 10.1-6.117 16.808-2.952 2.397-2.171 7.04 1.984 9.325 1.378.761 2.819 1.267 4.315 1.62-.308 1.659-.156 3.338.643 4.916-1.954 3.809.656 7.279 2.939 8.1 1.073.53.245 2.452.364 4.063.333 4.623 5.846 6.865 9.413 6.306 6.394-1.036 13.585-.707 15.987 6.316.48 1.403 1.692 1.786 3 1.942 2.902.355 36.18-3.393 37.18-3.998 1.395-.435 2.521-1.997 1.62-3.679-7.687-14.332 7.699-29.548 10.656-43.32 4.985-22.654-14.334-47.771-35.801-47.771m31.11 46.11c-3.211 14.731-17.3 28.972-11.722 44.4-10.477 1.422-31.638 3.647-31.71 3.658-3.771-8.394-12.547-9.9-21.23-8.586-1.147.227-3.601-.039-3.536-2.276.714-4.933-2.453-7.759-3.704-8.06-.47-.153-.274-.385-.281-.378 2.358-2.65-1.192-5.065.609-8.48 1.098-2.082-.313-3.467-2.632-3.787-2.889-.313-4.414-1.396-5.415-1.839-.485-.231-.673-.653-.227-1.148 9.179-8.333 7.617-20.13 7.608-20.241-2.074-25.669 24.15-35.82 41.39-34.32 20.39 1.837 34.3 21.842 30.853 41.07"/><path d="m45.748 27.15c-6.688 4.03-8.09 12.12-5.323 19.01.66 1.646 1.721 3.081 2.535 4.647 2.373 4.569.781 4.162.802 5.901.023 2.037.534 5.748.749 6.748.173 1.09.972 2.064 2.398 2.064 16.433 0 16.706 1.017 17.6-.933.527-.89.339-1.506.339-6.934 0-2.598-2.667-.329 2.24-7.01 1.25-1.7 2.488-3.34 3.301-5.303 1.729-4.183 1.444-8.941-.811-12.88-4.766-8.344-16.16-9.938-23.83-5.319m14.06 33.539c-3.561-.146-7.124-.178-10.689-.188-.075-.55-.138-1.1-.193-1.651 3.639-.068 7.261.106 10.882.47v1.369m4.515-14.52c-1.456 1.522-3.643 3.853-4.909 8.07-.868-.083-1.736-.154-2.604-.215.007-1-.557-3.01.413-6.774.03-.116.042-.225.052-.333l2.608-2.609c1.761-1.758-.907-4.434-2.669-2.67l-1.282 1.281c-.39-.656-.813-1.294-1.293-1.911-1.199-1.542-4.527.277-2.67 2.671.64.821 1.115 1.791 1.579 2.731-.617 2.475-.751 4.928-.46 7.44-1.321-.037-2.644-.057-3.968-.033-.236-2.702-1.306-4.551-2.341-6.109-.626-1.018-7.218-10.95 2.239-16.651 5.286-3.185 11.572-1.359 15.714 2.641 4.97 6.663.405 11.569-.409 12.471"/><path d="m34.441 36.18c-2.182-.015-4.352-.198-6.524-.395-2.287-.208-2.267 3.354 0 3.56 2.172.197 4.342.38 6.524.395 2.295.015 2.294-3.545 0-3.56"/><path d="m44.677 21.639c-1.263-1.894-2.546-3.774-4.04-5.501-1.501-1.742-4.01.787-2.517 2.517 1.29 1.497 2.384 3.138 3.478 4.78 1.268 1.899 4.352.118 3.074-1.796"/><path d="m67.22 22.446c.94-1.505 1.883-3.01 2.768-4.547 1.146-1.994-1.929-3.785-3.073-1.797-.885 1.539-1.827 3.044-2.768 4.547-1.22 1.954 1.86 3.738 3.073 1.797"/><path d="m76.04 37.5c2.269-.636 4.445-1.512 6.555-2.552 2.059-1.016.254-4.084-1.795-3.073-1.841.907-3.729 1.639-5.705 2.193-2.207.618-1.268 4.052.945 3.432"/></svg>