<svg xmlns="http://www.w3.org/2000/svg" viewBox="0 0 100 100" enable-background="new 0 0 100 100"><g fill="#1e1e1c"><path d="m82.932 28.855c-.181-5.491-.282-12.909-.228-18.404.002-.245-.037-.461-.093-.664.107-1.197-.596-2.461-2.129-2.421-19.354.508-38.704-.25-58.06-.28-1.61-.003-2.315 1.412-2.117 2.654-.064.216-.109.448-.106.712.292 23.09 1.086 56.28 1.111 79.38 0 .518.147.939.382 1.272.142.979.846 1.845 2.119 1.813 8.365-.208 16.734-.342 25.09-.752 7.45-.365 16.734.124 23.855-2.307 2.521-.861 4.777-2.134 6.71-3.977 3.535-3.369 4.741-7.892 5.05-12.658.292-4.577-.247-9.379-.354-13.597-.276-10.895-.873-19.875-1.231-30.768m-12.246 41.19c-1.362.008-2.678 1.071-2.07 2.705 1.225 3.286 1.784 7.366-.098 10.509-2.276 3.801-6.338 3.698-10.2 4.185-2.361.298-4.872.14-7.253.207-1.853.052-25.314.624-25.314.716-.055-22.23-.79-54.55-1.087-76.78 17.869.077 35.733.691 53.602.309-.068 18.253 1.55 44.639 1.646 59.06-2.772-.875-5.637-1.244-8.595-1.046-.233.014-.439.067-.631.134m1.745 15.196c1.795-3.058 2.243-6.81 1.31-10.877 2.161.084 4.292.501 6.309 1.356.009.025.015.052.024.077-.655 4.819-3.703 7.776-7.643 9.444"/><path d="m45 30.07c-.722-2.249-3.754-1.872-4.353-.146-.054.101-.111.198-.153.313-2.948 7.906-5.729 15.87-9.44 23.463-1.269 2.596 2.611 4.878 3.886 2.271 1.228-2.512 2.345-5.069 3.417-7.644 2.471.18 4.928.448 7.375.845.324.053.624.036.902-.023.62 1.817 1.24 3.634 1.86 5.452.931 2.73 5.278 1.558 4.339-1.196-2.647-7.768-5.324-15.523-7.833-23.335m-4.879 13.889c.859-2.2 1.701-4.407 2.524-6.623.799 2.408 1.613 4.812 2.428 7.215-1.646-.238-3.297-.438-4.952-.592"/><path d="m58.08 40c.177 4.28.489 8.553.667 12.833.12 2.891 4.62 2.903 4.5 0-.177-4.28-.49-8.553-.667-12.833-.119-2.891-4.62-2.903-4.5 0"/><path d="m59.5 31.08c-2.902 0-2.902 4.5 0 4.5s2.902-4.5 0-4.5"/></g></svg>