<svg xmlns="http://www.w3.org/2000/svg" viewBox="0 0 100 100" enable-background="new 0 0 100 100"><g fill="#1d1d1b"><path d="m87.12 42.29c-.245-.465-.572-.769-.933-.956-.357-.29-.822-.481-1.396-.505-3.801-.162-7.59-.003-11.386.196-3.02.158-3.038 4.871 0 4.712 3.365-.176 6.724-.308 10.09-.226 2.259 4.292 4.518 8.585 6.778 12.877-7.464.19-14.921.452-22.364 1.091-.386.033-.721.142-1.01.303-.55.174-1.046.553-1.417 1.06-1.228 1.68-2.548 3.269-4.03 4.724-8.615.002-17.227.039-25.836.364-1.259-1.668-2.358-3.456-3.366-5.284-.493-.895-1.28-1.211-2.053-1.147-.121-.012-.241-.026-.374-.02-6.536.297-13.06.206-19.593-.05 3.267-4.03 6.587-8.02 10.01-11.925h7.227c3.038 0 3.038-4.712 0-4.712h-8.05c-.59 0-1.062.181-1.423.467-.29.122-.572.32-.832.615-4.558 5.184-8.966 10.491-13.251 15.902-.133.168-.233.341-.316.517-.221.348-.339.79-.276 1.345.831 7.328 1.864 14.616 3.421 21.828.305 1.413 1.492 1.86 2.585 1.63.206.057.423.098.668.099 26.642.125 53.26-2.052 79.9-.785.835.04 1.432-.294 1.806-.793.027-.032.05-.07.075-.104.034-.051.069-.101.098-.155.12-.198.226-.415.292-.678 1.825-7.188 3.286-14.42 3.969-21.809.174-.54.154-1.159-.182-1.798l-8.833-16.783m.942 37.34c-25.711-1.073-51.41.927-77.12.858-1.111-5.438-1.944-10.914-2.613-16.422 6.849.301 13.692.43 20.544.156 1.142 1.94 2.401 3.79 3.8 5.564.18.228.411.388.663.5.357.259.821.409 1.396.386 9.09-.365 18.19-.392 27.29-.393.199 0 .384-.023.557-.06.508-.016 1.029-.197 1.501-.63 1.8-1.647 3.339-3.521 4.798-5.466 7.43-.606 14.873-.859 22.322-1.045-.652 5.591-1.793 11.08-3.136 16.552"/><path d="m48.56 56.02c.415.783 1.177 1.325 2.051 1.209.873.116 1.635-.426 2.05-1.209 7.367-5.651 12.23-11.949 19.266-18.232 1.947-1.739-.234-4.418-2.319-3.878-.31-.133-.676-.197-1.114-.144-2.353.284-4.713.495-7.07.726.39-4.764.869-15.408 1.377-20.16.15-1.397-.781-2.133-1.855-2.233-.262-.09-.556-.14-.893-.123-4.261.22-6.571.19-9.442.276-2.871-.087-5.181-.056-9.442-.276-.338-.018-.631.033-.893.123-1.074.1-2.01.835-1.855 2.233.509 4.753.988 15.397 1.377 20.16-2.358-.231-4.718-.442-7.07-.726-.438-.053-.804.011-1.114.144-2.085-.54-4.266 2.139-2.319 3.878 7.04 6.283 11.901 12.58 19.267 18.232m-6.214-16.56c1.355.155 2.089-.713 2.222-1.745.111-.286.162-.62.134-1-.347-4.682-.821-15.218-1.314-19.906.372.327.882.523 1.549.471 2.505-.194 4.151-.276 5.674-.323 1.523.047 3.169.129 5.674.323.667.052 1.177-.145 1.549-.471-.493 4.688-.968 15.225-1.314 19.906-.028.384.023.718.134 1 .133 1.032.867 1.899 2.222 1.745 1.543-.176 3.09-.32 4.637-.466-4.938 4.388-7.948 8.71-12.901 12.689-4.953-3.979-7.964-8.3-12.902-12.689 1.546.146 3.093.289 4.636.466"/></g></svg>