<svg xmlns="http://www.w3.org/2000/svg" viewBox="0 0 100 100" enable-background="new 0 0 100 100"><g fill="#1d1d1b"><path d="m23.787 47.15c.003.003.004.007.007.001 6.659 9.499 15.572 16.625 24.912 23.364.327.236.651.359.963.404.609.425 1.406.5 2.216-.116 9.312-7.086 16.81-15.885 21.497-26.665.525-1.207.013-2.34-.814-2.981-.503-.496-1.21-.802-2.067-.68l-9.351 1.336c.208-6.227.417-12.05.629-20.811.07-.188.124-.389.138-.618.107-1.715.22-3.429.328-5.144.436-1.385-.225-3.054-2.044-2.854-7.358.808-14.709 1.103-22.11.861-.27-.009-.506.032-.727.094-1.216-.095-2.482.632-2.432 2.203.265 8.186.537 19.11.81 27.3-3.425.219-6.85.404-10.285.421-.815.004-1.398.361-1.764.867-.647.638-.901 1.598-.219 2.589.099.145.21.277.311.42m14.306.144c1.309-.088 2.036-1.048 2.181-2.068.078-.24.126-.502.116-.803-.265-7.936-.527-18.615-.785-26.551 4.897.112 9.776-.029 14.652-.38-.094.217-.159.457-.173.734-.632 12.659-.349 15.331-.333 28 .0001 1.269.971 1.911 1.955 1.931.212.06.444.092.712.069 2.433-.205 4.872-.299 7.309-.427-3.802 6.566-8.615 12.337-14.39 17.346-.038.033-.063.07-.098.104-7.06-5.17-13.852-10.663-19.309-17.493 2.722-.11 5.442-.28 8.163-.462"/><path d="m96.33 67.33c0-.169-.02-.326-.053-.473.432-1.188-.151-2.752-1.781-2.694-.039.0001-.078.004-.117.005-.017 0-.033-.005-.049-.005-.042 0-.082.001-.124.013-4.92.181-9.827.507-14.71 1.154-1.492.198-2.104 1.681-1.831 2.789.0001.016-.003.028-.002.044.107 1.895.276 3.784.458 5.671-18.399.027-36.792.476-55.18 1.085.248-3.037-.23-6.03-.445-9.09-.081-1.149-.852-1.918-2-2-4.498-.32-8.992-.475-13.5-.333-1.068.034-1.688.745-1.87 1.557-.194.292-.311.658-.297 1.109.173 5.772.459 11.571-.429 17.302-.109.707.121 1.295.508 1.728.316.476.84.812 1.589.805 29.17-.284 58.37 1.593 87.5-.667.25-.019.468-.082.669-.167h.331c1.09 0 2-.91 2-2 0-.046-.018-.088-.021-.133.027-.165.04-.339.021-.533-.479-5.05-.654-10.1-.667-15.167m-87.74 14.655c.488-4.559.434-9.117.307-13.703 2.751.199 5.505.346 8.261.469.011 3.053.307 6.08.748 9.111.003.022.011.039.015.061.104.905.737 1.739 1.914 1.741 20.11.031 40.23.941 60.33 0 .185-.009.354-.042.512-.088 1.01.013 1.957-.62 1.821-1.912-.278-2.647-.53-5.296-.716-7.951 3.096-.201 6.194-.346 9.294-.474-.125 4.107.089 8.18.685 12.245-27.691 1.951-55.45.325-83.17.501"/></g></svg>