<svg xmlns="http://www.w3.org/2000/svg" viewBox="0 0 100 100" enable-background="new 0 0 100 100"><g fill="#1d1d1b"><path d="m81.27 19.227l.009-.185c.036-.768-.216-1.513-.674-1.993-.403-.422-.94-.637-1.596-.637h-11.03l-.006-.494c-.008-.665-.013-1.329-.013-1.995 0-.221-.029-.441-.093-.692l-.019-.073.004-.075c.038-.769-.212-1.516-.671-1.999-.403-.424-.941-.639-1.599-.639-2.084 0-4.168-.009-6.25-.018l-.488-.002-.001-.488c-.042-2.169-.182-3.975-.44-5.684-.166-1.095-1.32-1.749-2.342-1.749h-.14l-.119-.013-9.744-.005c-.723 0-1.32.271-1.727.786-.489.619-.668 1.536-.465 2.394l.035.147-.053.143c-.111.298-.168.594-.168.88v3.368l-.516-.016c-2.12-.065-4.24-.139-6.36-.242l-.103-.003c-.202 0-.4.028-.626.088l-.066.018h-.069c-1.187 0-2.428.747-2.445 2.388-.009.841-.041 1.68-.092 2.516l-.028.469h-.47c-3.643.001-7.541.077-11.361.49-.13.014-.245.046-.361.077l-.159.024c-1.195 0-2.39.737-2.39 2.385v9.45c0 .53.133.998.395 1.389l.085.126v.152c-.004 21.253-.079 40.44-.96 60.02-.011.239.015.476.077.745l.024.101-.019.103c-.119.655-.014 1.253.297 1.686.28.392.721.635 1.307.723 19.211 2.849 38.17 3.082 59.18 3.084l.002.5v-.5c1.516 0 2.01-1.156 2.156-1.653l.032-.111.078-.086c.39-.429.587-.977.587-1.628v-71.62c0-.595-.162-1.104-.481-1.513l-.114-.146m-32.843-11.772h5.595l.022.476c.032.647.051 1.295.055 1.943l.003.508-1.746-.018c-1.146-.011-2.292-.022-3.438-.042l-.491-.009v-2.858m-10.961 18.13c.178-1.348.348-4.611.483-7.233.062-1.207.117-2.261.161-2.899l.034-.486.486.021c8.295.356 16.48.414 24.09.422h.494l.005.494c.056 5.343.161 9.07.297 10.5l.054.57-.572-.023c-4.354-.178-8.784-.302-13.07-.421-3.997-.112-7.993-.224-11.989-.379l-.548-.021.071-.545m39.645 65.43h-.5c-18.861-.012-35.885-.215-53.22-2.596l-.45-.062.019-.455c.826-19.344.895-38.64.896-60.05 0-.531-.133-1-.396-1.392l-.084-.126v-5.624l.463-.034c3.075-.227 6.128-.269 8.442-.28l.57-.003-.071.567c-.022.176-.05 1.495-.072 2.555-.036 1.738-.056 2.58-.085 2.787-.062.461-.045.916.052 1.351l.021.098-.018.1c-.15.825.056 1.712.537 2.315.41.516 1 .806 1.708.838 5.03.23 10.144.366 15.09.497 4.953.131 10.07.267 15.11.498l.131.003c1.518 0 1.938-1.213 2.049-1.735l.039-.184.15-.113c.68-.508 1.033-1.212.947-1.884-.047-.37-.083-1.739-.128-3.633-.026-1.107-.054-2.252-.077-2.526l-.047-.543h8.918v69.63"/><path d="m67.73 70.72c-2.935-3.244-5.851-6.502-8.669-9.847l8.52-8.519c.945-.946.646-2.156-.115-2.86-.067-.117-.146-.233-.241-.344-2.079-2.424-4.33-4.685-6.587-6.943-2.032-2.033-4.149 1.941-5.415 3.119-2.583 2.402-3.346 3.076-5.928 5.479-2.384-2.402-5.476-5.563-7.736-8.08-.539-.602-1.186-.739-1.768-.587-.484-.025-.99.14-1.437.587l-5.875 5.875c-.912.912-.668 2.071.031 2.785.087.144.189.285.324.42 2.571 2.571 4.855 5.895 7.31 8.577-3.098 3.339-5.278 6.602-8.354 9.962-1.118 1.222-.357 2.825.795 3.324 1.774 2.069 3.688 4.01 5.614 5.934.713.713 1.576.716 2.26.35.267-.099.527-.265.768-.528 3.02-3.312 6.161-6.504 9.324-9.676 2.692 3.231 5.487 6.371 8.301 9.498.75.833 1.702.774 2.407.285.333-.061.665-.201.976-.463 2.248-1.9 3.617-3.225 5.853-5.14 1.033-.885.736-2.079-.058-2.78-.081-.145-.176-.288-.3-.425m-7.141 4.435c-2.832-3.157-5.642-6.334-8.324-9.621-.553-.677-1.238-.794-1.846-.585-.46-.004-.937.162-1.359.585-3.204 3.205-6.393 6.423-9.477 9.743-1.185-1.199-2.337-2.428-3.456-3.688 3.054-3.276 5.177-6.485 8.194-9.794.857-.941.604-2.107-.08-2.824-.075-.13-.165-.257-.276-.381-2.41-2.691-4.668-6.01-7.216-8.566l3.154-3.154c2.444 2.657 5.713 5.962 8.27 8.519 2.842 2.833 10.3-9.645 11.364-8.564 1.303 1.323 2.595 2.657 3.834 4.04l-8.104 8.103c-.175.175-.295.361-.391.549-.537.726-.69 1.776.035 2.656 2.864 3.475 5.858 6.837 8.875 10.18-1.312 1.177-1.876 1.634-3.197 2.801"/></g></svg>