<svg xmlns="http://www.w3.org/2000/svg" viewBox="0 0 100 100" enable-background="new 0 0 100 100"><path d="m80.95 69.828c4.838-1.108 9.265-4.729 11.554-9.447 1.961-4.04 2.069-8.325.303-12.05-4.134-8.728-14.05-12.634-22.03-12.634-.405 0-.808.001-1.208.029-9.761.473-17.526 7.227-24.377 13.185l-1.499 1.301c-4.382 3.782-16.83 12.07-25.276 12.07-4.169 0-6.544-2-7.474-6.297-.818-3.78 1.605-7.579 4.422-9.377 4.411-2.818 10.866-1.993 18.899 2.344.54.292 1.106.439 1.684.439 1.583 0 3.03-1.17 3.435-2.782.385-1.521-.273-2.994-1.674-3.75-3.217-1.737-9.64-4.652-16.501-4.652-6.763 0-12.04 2.897-15.249 8.377-2.487 4.242-2.813 9.203-.894 13.61 1.872 4.3 5.609 7.361 10.252 8.396 1.757.392 3.541.59 5.301.59 11.02 0 20-7.475 28.683-14.703 4.235-3.526 8.235-6.855 12.28-9.15 2.53-1.435 6.104-2.257 9.805-2.257 7.664 0 15.473 3.474 15.645 11.234.049 2.207-.649 4.064-2.076 5.523-1.832 1.873-4.85 2.991-8.07 2.992-1.194 0-2.348-.151-3.43-.45-5.172-1.428-10.07-5.067-14.599-8.787-.66-.542-1.444-.83-2.267-.83-1.546 0-2.988 1.01-3.504 2.449-.456 1.273-.059 2.625 1.038 3.526 7.268 5.973 15.11 11.5 23.22 11.501 1.232.0001 2.449-.134 3.613-.401" fill="#1d1d1b"/></svg>