<svg xmlns="http://www.w3.org/2000/svg" viewBox="0 0 100 100" enable-background="new 0 0 100 100"><path d="m59.11 37.566c-.08-.999-.756-1.877-2.053-1.745-5.18.529-10.384.74-15.563 1.271-1.023-.246-2.182.151-2.512 1.468-.85 3.393-1.709 6.78-2.305 10.229-.119.69.06 1.279.4 1.731.226.85.88 1.608 1.972 1.725 1.995.213 3.993.346 5.996.402-.289 9.742-.668 19.482-.947 29.22-.295 1.246.367 2.717 2.01 2.645 3.03-.133 6.05-.133 9.08 0 .537.024.968-.12 1.297-.365.735-.271 1.311-.915 1.296-1.941-.217-14.667 1.241-29.28 1.441-43.94.003-.262-.043-.491-.109-.704m-5.658 42.58c-1.659-.045-3.317-.063-4.976-.028.29-9.724.668-19.445.945-29.17.025-.865-.375-1.46-.939-1.787-.345-.471-.891-.802-1.654-.806-1.884-.008-3.761-.088-5.636-.236.454-2.288.999-4.555 1.561-6.82 4.03-.375 8.07-.609 12.1-.96-.28 13.276-1.457 26.522-1.397 39.806"/><path d="m50.3 15.171c-.193-.034-.375-.038-.554-.026-.266-.112-.554-.169-.856-.169l-.145.004c-3.085.18-6.088 1.726-8.03 4.134-1.764 2.184-2.506 4.861-2.091 7.541.732 4.727 5.2 8.292 10.392 8.292.832 0 1.654-.097 2.444-.29 4.01-.977 7.188-4.92 7.728-9.59.623-5.393-3.999-9.06-8.886-9.896m4.311 9.05c.104 2.123-1.23 4.364-3.319 5.578-.699.406-1.483.611-2.33.611-2.135 0-4.375-1.325-5.448-3.222-.922-1.628-.475-3.146.063-4.134 1.031-1.893 3.229-3.352 5.228-3.469.039-.002.076-.007.112-.013.08.025.164.046.256.062 3.489.596 5.318 2.139 5.438 4.587"/><path d="m49.865 3.452c-8.896 0-17.535 2.26-24.981 6.535-6.581 3.779-13.156 11.918-16.753 18.308-6.809 12.1-6.592 28.981.555 43.01 3.639 7.147 9.221 12.912 16.14 16.672 6.379 3.467 16.683 7.515 24.729 7.515 24.773 0 45.12-19.754 46.32-44.971.021-.439.035-.876.043-1.312.139-8.129-3.534-17.454-4.664-20.12-6.702-15.817-22.563-25.643-41.39-25.643m40.02 46.786c-1.048 22.01-18.762 39.26-40.33 39.26-6.478 0-15.648-3.408-21.865-6.787-5.85-3.178-10.573-8.06-13.659-14.12-6.26-12.292-6.524-26.953-.673-37.35 3.09-5.49 8.95-12.854 14.513-16.05 6.538-3.754 14.14-5.738 21.993-5.738 16.377 0 30.12 8.424 35.866 21.983 2.087 4.924 4.283 12.153 4.188 17.675-.006.376-.018.751-.036 1.129"/></svg>