<svg xmlns="http://www.w3.org/2000/svg" viewBox="0 0 100 100" enable-background="new 0 0 100 100"><g fill="#1d1d1b"><path d="m97.41 45.42c-.996-19.16-17.292-34.06-32.875-38.868-5.074-1.566-10.386-2.36-15.787-2.36-17.345 0-32.41 7.997-40.3 21.392-2.843 4.824-4.93 10.887-5.727 16.631-2.929 21.11 8.04 42.51 25.52 49.773 4.629 1.923 9.787 2.898 15.331 2.899.002 0 .003 0 .005 0 14.849 0 30.72-7 41.42-18.27 8.707-9.17 13-19.959 12.416-31.2m-8.467 11.847c-5.298 16.07-22.437 26.395-37.07 29.501-2.714.576-5.436.869-8.089.869-14.917 0-26.86-8.883-31.947-23.761-5.03-14.703-2.607-29.686 6.473-40.08 7.217-8.263 18.216-12.812 30.973-12.812 1.266 0 2.548.048 3.816.142.299.128.592.21.891.251 12.735 1.719 25.18 9.568 31.705 19.999 5.05 8.07 6.173 17.02 3.249 25.89"/><path d="m57.843 38.25c-.026-.611-.238-1.164-.612-1.605-.416-.941-1.247-1.516-2.293-1.578-3.431-.21-7.04-.034-11.483.558-.244.003-.443.028-.562.065-.676.093-1.219.391-1.57.862-.357.48-.498 1.116-.399 1.697-.008.221-.002.444.03.67l.732 5.103c.146 4.315.351 8.699.549 12.938.189 4.04.385 8.217.535 12.389-.683 1.292-1.471 2.051-2.696 2.604-.362.163-.668.43-.85.719-.618.637-.881 1.588-.703 2.545.121.653.194 1.335.266 1.993.072.677.148 1.377.275 2.066l.021.084c.138 1.101.934 2.19 2.428 2.19l.156-.004c5.05-.253 10.415-.546 15.728-1.085.426-.043.823-.178 1.185-.401 1.068-.206 2.068-1.063 1.972-2.564-.325-5.04-.721-10.149-1.103-15.09-.612-7.911-1.244-16.09-1.606-24.15m-10.08 32.993c.18-.409.277-.838.279-1.19.046-.229.064-.446.058-.664-.145-4.168-.343-8.403-.534-12.498-.198-4.244-.404-8.633-.549-12.948-.007-.21-.035-.411-.082-.631l-.39-2.725c2.071-.2 4.102-.287 6.08-.258.373 7.457.952 15.01 1.512 22.324.324 4.228.647 8.455.935 12.686-4.02.357-7.981.59-11.1.754l-.023-.208c1.61-1.078 2.955-2.715 3.811-4.642"/><path d="m49.52 33.623c.0001 0 .0001 0 0 0 3.586 0 6.225-1.7 7.431-4.788.85-2.177 1.01-6.277-.057-8.506-1.739-3.651-7.06-5.833-11.2-5.833-.595 0-1.16.045-1.68.134-2.83.486-5.157 2.226-6.382 4.772-1.206 2.506-1.114 5.362.251 7.837 1.974 3.58 7.087 6.384 11.637 6.384m-6.777-11.31c.843-2.142 3.06-2.373 3.974-2.373 1.624 0 3.326.638 4.337 1.625 1.086 1.061 1.478 2.61 1.024 4.04-.43 1.357-1.505 2.271-2.949 2.505-2.113.342-5.356-.733-6.383-3.037-.384-.863-.385-1.794-.003-2.764"/></g></svg>