<svg xmlns="http://www.w3.org/2000/svg" viewBox="0 0 100 100" enable-background="new 0 0 100 100"><g fill="#1d1d1b"><path d="m93.4 10.206c-.111-1.15-.903-2.216-2.396-2.206-26.27.182-52.48-1.189-78.75-1.25-.099 0-.188.014-.28.023-.074-.007-.145-.023-.22-.023-1.363 0-2.5 1.137-2.5 2.5v3.5c0 .131.02.258.04.384-.033.192-.053.393-.04.616 1.384 23.256-1.162 51.49-.75 74.75.004.257.05.486.112.702.125 1.143.917 2.23 2.388 2.298 26.24 1.205 52.5.262 78.75-.25 1.274-.025 2.037-.826 2.304-1.777.281-.378.452-.868.446-1.473-.157-16.281.021-36.98.391-54.14.667-.877.69-2.204.071-3.115.154-6.72.336-13.343.538-19.743.009-.295-.036-.553-.104-.794m-56.666 1.922c1.755.038 3.511.07 5.266.11-.188 5.624.011 11.232.409 16.841-2.048-.069-4.095-.148-6.142-.231.216-5.572.264-11.148.467-16.72m-10.982-.21c1.995.034 3.99.066 5.985.105-.203 5.532-.253 11.07-.463 16.601-2-.094-4.01-.204-6.01-.313.431-5.457.483-10.922.487-16.393m-11.498.832v-.978c2.167.014 4.332.044 6.498.072-.003 5.399-.057 10.791-.468 16.18-1.878-.116-3.756-.227-5.634-.36-.002-.552.007-1.109.0001-1.659.018-.205.017-.411-.009-.616-.046-3.921-.161-7.808-.389-11.636-.009-.153-.046-.286-.076-.424.047-.185.077-.377.077-.575m73.24 73.55c-24.667.501-49.35 1.3-74.01.292-.181-16.442 1.01-36.921 1.163-53.93 24.374 1.723 48.804 2.055 73.23 2.084-.344 16.302-.512 36.13-.385 51.55m.495-56.55c-13.526-.016-27.05-.134-40.57-.519-.402-5.619-.604-11.237-.421-16.87 13.811.326 27.62.659 41.45.648-.169 5.432-.321 11.04-.455 16.741"/><path d="m64.905 25.607c.221 1.017.997 1.893 2.345 1.893h7.5c.613 0 1.108-.182 1.488-.475.891-.396 1.615-1.275 1.512-2.275-.231-2.245-.25-4.495-.25-6.75 0-.254-.041-.48-.098-.694-.079-1.182-.874-2.306-2.402-2.306h-7.25c-.919 0-1.567.412-1.962.993-.865.308-1.549 1.058-1.538 2.257.018 2 .232 3.997.25 6 .005.548.162.995.405 1.357m7.61-5.607c.012.834.033 1.667.074 2.5h-3.146c-.042-.833-.09-1.667-.131-2.5h3.203"/><path d="m85.25 24.5v-7c0-3.224-5-3.224-5 0v7c0 3.224 5 3.224 5 0"/><path d="m51.25 36.5c-.502-.05-.915.041-1.259.213-15.411-.594-27.543 14.299-24.652 29.702 2.251 11.989 14.273 18.422 25.628 17.885 10.619-.502 21.18-6.993 23.966-17.638 1.647-6.285-.217-13.08-3.332-18.576-4.218-7.446-12.206-10.771-20.351-11.586m18.652 29.633c-2.066 7.885-10.554 12.291-18.1 13.1-8.338.897-16.424-2.595-20.294-10.209-6.72-13.22 6.329-29.76 20.575-27.11.484.09.92.041 1.309-.09 11.129 2.199 19.597 12.521 16.508 24.311"/><path d="m50.944 45.63c-.402-.042-.758-.002-1.104.104-4.432-.084-8.615 1.916-11.535 5.436-3 3.619-4.236 8.304-3.383 12.853 1.012 5.385 6.131 11.179 14.983 11.18.269 0 .536-.007.803-.02 7.06-.333 13.1-4.822 14.698-10.919 1.233-4.709-.722-9.189-1.998-11.441-2.301-4.065-6.727-6.619-12.464-7.193m8.765 17.58c-.973 3.716-5.104 5.775-8.767 6.169-.419.045-.843.068-1.258.068-3.767 0-6.952-1.843-8.521-4.93-1.308-2.572-1.1-5.609.57-8.332 1.782-2.906 4.783-4.712 7.831-4.712.474 0 .952.044 1.422.131.357.067.688.068 1.017.012 2.801.635 5.215 2.302 6.66 4.608 1.327 2.118 1.689 4.534 1.046 6.986"/><path d="m52.762 53.591c-1.233-.58-2.687-.356-3.42.897-.642 1.096-.336 2.84.897 3.421.822.387 1.342.741 1.942 1.419.367.415.556 1.179.57 1.672.093 3.217 5.093 3.226 5 0-.095-3.246-2.07-6.03-4.989-7.409"/></g></svg>