<svg xmlns="http://www.w3.org/2000/svg" viewBox="0 0 100 100" enable-background="new 0 0 100 100"><g fill="#1e1e1c"><path d="m82.932 28.855c-.181-5.491-.282-12.909-.228-18.404.002-.245-.037-.461-.093-.664.107-1.197-.596-2.461-2.129-2.421-19.354.508-38.704-.25-58.06-.28-1.61-.003-2.315 1.412-2.117 2.654-.064.216-.109.448-.106.712.292 23.09 1.086 56.28 1.111 79.38 0 .518.147.939.382 1.272.142.979.846 1.845 2.119 1.813 8.365-.208 16.734-.342 25.09-.752 7.45-.365 16.734.124 23.855-2.307 2.521-.861 4.777-2.134 6.71-3.977 3.535-3.369 4.741-7.892 5.05-12.658.292-4.577-.247-9.379-.354-13.597-.276-10.895-.873-19.875-1.231-30.768m-12.246 41.19c-1.362.008-2.678 1.071-2.07 2.705 1.225 3.286 1.784 7.366-.098 10.509-2.276 3.801-6.338 3.698-10.2 4.185-2.361.298-4.872.14-7.253.207-1.853.052-25.314.624-25.314.716-.055-22.23-.79-54.55-1.087-76.78 17.869.077 35.733.691 53.602.309-.068 18.253 1.55 44.639 1.646 59.06-2.772-.875-5.637-1.244-8.595-1.046-.233.014-.439.067-.631.134m1.745 15.196c1.795-3.058 2.243-6.81 1.31-10.877 2.161.084 4.292.501 6.309 1.356.009.025.015.052.024.077-.655 4.819-3.703 7.776-7.643 9.444"/><path d="m50.667 33.75c-4.61.165-9.219.321-13.833.333-2.902.008-2.902 4.508 0 4.5 1.949-.005 3.896-.046 5.844-.093.826 3.307 1.377 6.676 1.307 10.09-.026 1.249-.135 2.927-.98 3.934-.969 1.154-3.239-.137-4.202-.627-2.581-1.312-4.858 2.57-2.271 3.886 4.673 2.376 9.692 2.258 11.438-3.408 1.335-4.332.378-9.583-.689-14.01 1.129-.037 2.258-.069 3.387-.11 2.892-.102 2.902-4.603-.0001-4.499"/><path d="m60.46 39.25c-.435-.901-.235-1.574-.539-1.362 1.311-.916 3.985-.306 5.412-.134 2.877.346 2.844-4.158 0-4.5-3.01-.361-7.591-.772-9.296 2.444-1.37 2.583.326 5.647 1.651 7.867 1.633 2.736 3.675 5.236 5.059 8.118.113.236.271.821.326 1.032-1.399.735-4.396-.119-5.809-.381-2.836-.525-4.047 3.812-1.196 4.339 3.052.565 8.093 1.746 10.51-1.021 2.068-2.368.512-5.583-.822-7.885-1.678-2.892-3.838-5.495-5.296-8.517"/></g></svg>