<svg xmlns="http://www.w3.org/2000/svg" viewBox="0 0 100 100" enable-background="new 0 0 100 100"><g fill="#1d1d1b"><path d="m44.04 50.24c-9.191.898-18.384 1.77-27.575 2.669-1.463.143-2.278 1.247-2.444 2.399-.484.883-.492 2 .433 2.929 1.914 1.914 3.816 3.838 5.597 5.877-2.522 2.681-9.562 9.621-12.541 11.801-1.488 1.088-1.352 2.977-.476 4.089.112.373.315.742.656 1.083 4.206 4.207 8.397 8.425 12.431 12.797 1.088 1.18 2.491.938 3.409.105.146-.082.29-.173.43-.288 3.309-2.722 10.773-10.07 13.81-13.09 1.468 1.335 2.883 2.727 4.288 4.132.547.547 1.163.759 1.758.75 1.557.741 3.826.013 3.752-2.213-.337-10.237-.186-20.474 0-30.713.039-2.104-1.999-2.877-3.528-2.328m-1.763 27.505c-.847-.793-1.707-1.574-2.595-2.325-.73-.617-1.553-.742-2.297-.57-.641-.051-1.315.16-1.908.753-2.913 2.911-10.238 10.175-13.344 12.873-3.165-3.366-6.412-6.653-9.675-9.924 3.082-2.51 10.277-9.674 12.965-12.638 1.314-1.449.586-3.308-.689-4.094-.103-.225-.228-.446-.407-.659-1.029-1.216-2.109-2.385-3.212-3.532 7.078-.687 14.157-1.366 21.235-2.055-.124 7.391-.2 14.781-.073 22.17"/><path d="m59.37 45.11c9.196-.834 18.396-1.641 27.593-2.476 1.464-.133 2.287-1.231 2.46-2.382.49-.88.506-2-.413-2.932-1.9-1.928-3.789-3.865-5.556-5.916 2.542-2.663 9.629-9.554 12.623-11.713 1.496-1.079 1.373-2.968.504-4.087-.109-.374-.309-.745-.648-1.088-4.176-4.236-8.338-8.483-12.342-12.883-1.08-1.187-2.484-.956-3.408-.129-.146.081-.291.171-.432.285-3.328 2.699-10.843 9.999-13.901 12.993-1.458-1.346-2.864-2.747-4.259-4.161-.543-.55-1.158-.768-1.753-.763-1.551-.752-3.826-.039-3.768 2.187.265 10.239.042 20.475-.214 30.712-.052 2.104 1.981 2.891 3.514 2.353m1.954-27.492c.842.799 1.696 1.586 2.579 2.343.726.622 1.547.752 2.293.586.64.056 1.316-.151 1.913-.74 2.933-2.891 10.309-10.1 13.434-12.78 3.141 3.388 6.366 6.697 9.606 9.991-3.099 2.488-10.344 9.602-13.05 12.548-1.324 1.44-.609 3.304.661 4.099.101.225.224.448.403.662 1.021 1.224 2.092 2.399 3.187 3.554-7.083.637-14.166 1.267-21.249 1.907.174-7.39.301-14.779.226-22.17"/><path d="m46.647 12.411c-.144-1.464-1.247-2.278-2.399-2.444-.883-.484-2-.492-2.928.433-1.915 1.914-3.838 3.816-5.877 5.597-2.68-2.523-9.621-9.562-11.801-12.541-1.089-1.488-2.978-1.352-4.09-.476-.373.112-.742.315-1.083.655-4.207 4.206-8.425 8.397-12.797 12.431-1.18 1.088-.938 2.491-.104 3.409.082.145.172.29.288.43 2.722 3.309 10.07 10.774 13.09 13.81-1.335 1.468-2.727 2.883-4.132 4.289-.546.547-.759 1.163-.75 1.758-.741 1.556-.013 3.826 2.213 3.752 10.236-.337 20.474-.185 30.713 0 2.104.038 2.877-2 2.329-3.529-.9-9.189-1.772-18.383-2.671-27.574m-24.836 25.813c.793-.847 1.574-1.707 2.325-2.595.617-.73.742-1.553.57-2.297.051-.641-.161-1.315-.753-1.908-2.912-2.913-10.175-10.238-12.874-13.344 3.366-3.165 6.653-6.412 9.924-9.675 2.51 3.082 9.674 10.277 12.638 12.965 1.449 1.314 3.308.586 4.094-.689.225-.102.447-.228.659-.408 1.217-1.029 2.385-2.109 3.532-3.211.687 7.078 1.366 14.157 2.055 21.235-7.39-.125-14.78-.2-22.17-.073"/><path d="m97.77 75.7c-2.699-3.328-9.999-10.844-12.993-13.901 1.346-1.459 2.747-2.864 4.162-4.26.55-.543.767-1.158.762-1.753.752-1.551.04-3.825-2.187-3.767-10.239.265-20.475.042-30.712-.214-2.104-.053-2.891 1.98-2.354 3.513.833 9.197 1.642 18.396 2.477 27.593.133 1.465 1.23 2.287 2.382 2.461.88.49 2 .506 2.931-.412 1.928-1.9 3.865-3.789 5.916-5.556 2.663 2.541 9.554 9.629 11.713 12.623 1.079 1.496 2.968 1.373 4.087.504.374-.109.745-.309 1.088-.648 4.236-4.176 8.483-8.338 12.883-12.342 1.187-1.08.956-2.484.128-3.409-.079-.146-.169-.291-.283-.432m-15.229 11.397c-2.488-3.099-9.602-10.344-12.548-13.05-1.44-1.325-3.304-.609-4.099.661-.225.101-.448.225-.662.403-1.224 1.02-2.399 2.092-3.555 3.187-.637-7.083-1.267-14.166-1.907-21.248 7.39.175 14.779.302 22.17.226-.799.842-1.586 1.696-2.342 2.579-.622.726-.752 1.548-.586 2.293-.056.64.151 1.316.74 1.913 2.891 2.933 10.1 10.308 12.78 13.434-3.388 3.139-6.697 6.363-9.991 9.604"/></g></svg>