<svg xmlns="http://www.w3.org/2000/svg" viewBox="0 0 100 100" enable-background="new 0 0 100 100"><g fill="#1e1e1c"><path d="m84.13 28.855c-.181-5.491-.282-12.909-.228-18.404.002-.245-.037-.461-.093-.664.107-1.197-.596-2.461-2.129-2.421-19.354.508-38.704-.25-58.06-.28-1.61-.003-2.315 1.412-2.116 2.654-.065.216-.109.448-.106.712.292 23.09 1.086 56.28 1.111 79.38 0 .518.147.939.382 1.272.142.979.846 1.845 2.118 1.813 8.366-.208 16.735-.342 25.09-.752 7.45-.365 16.734.124 23.855-2.307 2.521-.861 4.777-2.134 6.71-3.977 3.535-3.369 4.741-7.892 5.05-12.658.292-4.577-.247-9.379-.354-13.597-.275-10.895-.872-19.875-1.23-30.768m-12.246 41.19c-1.362.008-2.678 1.071-2.07 2.705 1.224 3.286 1.784 7.366-.098 10.509-2.276 3.801-6.338 3.698-10.2 4.185-2.361.298-4.872.14-7.253.207-1.853.052-25.314.624-25.314.716-.055-22.23-.79-54.55-1.087-76.78 17.869.077 35.733.691 53.601.309-.067 18.253 1.551 44.639 1.646 59.06-2.772-.875-5.637-1.244-8.595-1.046-.232.014-.437.067-.63.134m1.745 15.196c1.795-3.058 2.243-6.81 1.31-10.877 2.161.084 4.292.501 6.309 1.356.009.025.015.052.024.077-.655 4.819-3.704 7.776-7.643 9.444"/><path d="m41.01 34.855c-.207-.061-.428-.105-.679-.105h-7c-2.902 0-2.902 4.5 0 4.5h5.585c.184 2.737.263 5.481.084 8.222-.1 1.535-.3 3.217-1.021 4.598-.669 1.282-2.451-.629-3.059-1.161-2.173-1.903-5.369 1.267-3.182 3.182 3.961 3.469 8.738 4.193 10.862-1.435 1.793-4.746 1.065-10.718.647-15.656-.115-1.352-1.174-2.063-2.237-2.145"/><path d="m49.5 35.08c-.971.094-1.607.677-1.922 1.392-.202.321-.331.713-.328 1.191.033 5.359.439 10.751-.419 16.07-.458 2.838 3.877 4.055 4.339 1.196.431-2.664.589-5.323.637-7.987 3.715-.563 8.05-2.464 7.411-6.898-.629-4.327-6.215-5.301-9.718-4.963m5.27 5.9c-.025-.002-.116.177-.083.174-.131.146-.273.284-.42.412-.523.458-1.521.722-2.457.873-.012-.963-.026-1.927-.039-2.893.599.049 1.193.149 1.791.342.449.146.084.017.474.225-.021-.011.627.443.347.211.355.294.374.357.414.497-.008.031-.017.092-.027.159"/><path d="m75.65 53.32c.173-.529.276-1.079.329-1.643.167-1.049.262-2.11.271-3.174.005-.64-.217-1.13-.555-1.487-.188-.361-.474-.674-.824-.895-.358-.352-.866-.571-1.538-.534-2.832.154-5.665.166-8.5.167-.07 0-.13.014-.196.019-.364-3.069.845-6.084 4.196-6.519 2.835-.369 2.872-4.873 0-4.5-13 1.69-10.402 22.805 2.333 22.5.115-.003.218-.024.325-.04.67.085 1.37-.146 1.933-.619.976-.82 1.649-1.802 2.073-2.875.064-.125.115-.259.153-.4m-4.32-1.247c0 .002 0 .004-.0001.006-.107.231-.237.455-.412.667-1.879-.041-3.426-1.05-4.521-2.501 1.696-.005 3.391-.037 5.086-.096.007.04.006.08.015.12.044.213.058.409.065.601-.062.397-.134.795-.232 1.203"/></g></svg>