<svg xmlns="http://www.w3.org/2000/svg" viewBox="0 0 100 100" enable-background="new 0 0 100 100"><path d="m91.78 62.1c-6.636-6.306-11.775-11.632-16.17-16.762-1.19-1.388-2.663-2.122-4.258-2.122-2.367 0-4.712 1.64-5.834 4.079-1.116 2.428-.753 4.99.996 7.03 1.617 1.887 3.408 3.87 5.443 6.03-.503-.053-1.098-.077-1.793-.077-2.705 0-6.374.397-9.05.687-1.403.152-2.615.283-3.19.301-2.881.088-4.245.185-5.565.279-1.305.093-2.654.188-5.491.276-10.124.316-13.02.326-22.597.36l-1.206.004-.0001-.015c-.0001 0-.0001 0-.0001 0l-.031.003c-.371.021-.697-.108-1-.417-2.262-2.289-2.143-12.235-2.085-17.02.015-1.256.026-2.248.002-2.857-.143-3.425-.253-6.851-.364-10.277-.188-5.821-.384-11.841-.734-17.758-.239-4.04-3.573-6.152-6.743-6.152-1.818 0-3.493.671-4.597 1.842-1.05 1.114-1.551 2.625-1.447 4.369.319 5.392.529 11.572.751 18.11.357 10.569.729 21.499 1.608 30.24.007.063.018.124.041.246-.042.728.019 1.38.185 1.993 1.049 3.861 3.136 6.793 6.204 8.715 1.872 1.173 4.096 1.742 6.8 1.742.46 0 .92-.016 1.38-.046.502.116.994.175 1.503.18 11.979.106 19.573-.264 27.682-.661 6.154-.302 12.51-.613 21.308-.749-1.967 2.61-3.712 5.134-5.318 7.689-1.237 1.967-1.348 4.082-.312 5.956 1.165 2.108 3.611 3.525 6.088 3.525 2.17 0 4.03-1.065 5.249-2.999 3.46-5.504 7.671-10.873 12.872-16.415 1.514-1.612 2.086-3.623 1.623-5.599-.141-1.37-.811-2.662-1.94-3.734" fill="#1d1d1b"/></svg>