<svg xmlns="http://www.w3.org/2000/svg" viewBox="0 0 100 100" enable-background="new 0 0 100 100"><g fill="#1d1d1b"><path d="m61.756 6.797c-11.439 1.433-17.84 10.946-19.68 21.631-.066.386-.05.742.027 1.065-.563 2.813-.271 5.625.59 8.365-10.311 9.605-21.383 18.243-32.874 26.362-1.685.968-3.397 1.888-5.162 2.719-.917.432-1.153 1.227-.968 1.967-.033.178-.051.365-.046.568l.5 19.479c.031 1.198.744 1.929 1.621 2.21.147.111.313.212.506.299 3.744 1.692 7.571 2.572 11.689 2.528.653-.007 1.161-.225 1.54-.557.49-.053.983-.257 1.433-.662 2.835-2.56 5.648-5.138 8.09-8.09.405-.49.58-1.018.596-1.532.186-.651.132-1.359-.295-1.906-.922-1.183-1.78-2.412-2.654-3.631 10.08-8.337 19.916-16.958 29.989-25.3 13.838 3.358 28.796 1.779 36.872-11.186 5.211-8.366 1.676-18.09-4.674-24.595-6.792-6.958-17.431-10.947-27.1-9.736m28.27 30.28c-5.34 12.679-20.91 13.183-32.372 10.361-.166-.041-.322-.058-.477-.069-.849-.365-1.883-.349-2.766.377-4.344 3.577-8.638 7.214-12.923 10.861-1.068-.606-2.108-1.263-3.073-2.024-.855-.674-1.99-.838-2.828 0-.703.703-.858 2.152 0 2.828.876.691 1.776 1.327 2.704 1.919-2.212 1.886-4.425 3.772-6.643 5.653-.869-.936-1.829-1.78-2.971-2.38-.966-.507-2.167-.254-2.737.717-.531.908-.247 2.23.718 2.736.723.379 1.369.901 1.953 1.487-2.217 1.868-4.437 3.734-6.675 5.578-.221.182-.376.376-.505.575-.64.806-.867 2.03-.209 2.874 1.033 1.324 1.984 2.708 2.972 4.065-.973 1.083-1.991 2.121-3.034 3.135-1.616-1.406-3.362-2.642-5.149-3.834-2.153-1.436-4.153 2.03-2.02 3.454 1.473.983 2.903 1.985 4.241 3.121-.181.165-.36.332-.542.496-3.01.014-5.853-.566-8.613-1.749l-.414-16.16c13.438-9.295 26.376-19.228 38.3-30.42.094-.089.164-.182.239-.274.758-.527 1.186-1.44.742-2.588-3.997-10.358 2.83-23.722 13.719-26 7.515-1.575 15.957 1.873 21.735 6.499 5.587 4.474 9.619 11.663 6.624 18.77"/><path d="m77.82 23.822c-5.542-4.254-13.674-6.177-18.973-1.336-5.595 5.112-2.991 12.453 2.407 16.299 5.081 3.62 13.422 4.871 18.79 1.288 6.678-4.459 3.714-11.693-2.224-16.251m-2.567 13.06c-3.799 1.205-8.402-.44-11.6-2.454-3.336-2.101-4.383-7.175-.181-9.04 3.413-1.518 7.712-.486 10.847 1.385 3.602 2.979 6.901 8.22.934 10.113"/></g></svg>