<svg xmlns="http://www.w3.org/2000/svg" viewBox="0 0 100 100" enable-background="new 0 0 100 100"><g fill="#1d1d1b"><path d="m5.199 76.76c.001.091.035.17.053.255-.099.909.334 1.843 1.489 2.121 28.396 6.83 57.754 4.671 86.69 5.327.34.008.637-.052.892-.162.815-.217 1.516-.859 1.559-1.939.534-13.185 1.167-29.521.525-42.714-.011-.215-.055-.407-.113-.589-.149-.917-.813-1.772-1.988-1.862-13.651-1.044-27.302-3.347-40.963-5.01.873-2.383 2.488-4.25 4.853-5.425.114-.016.228-.04.339-.085 3.668-1.48 6.218-4.169 6.897-8.147.431-2.522-3.424-3.602-3.857-1.063-.43 2.518-1.68 4.375-4.103 5.353-.164.066-.316.15-.461.242-.249.02-.505.082-.767.21-3.457 1.687-5.886 4.792-6.95 8.44-14.979-1.667-29.973-2.34-44.999.485-1.529.288-1.801 1.743-1.256 2.838.089.62.177 1.239.266 1.859-.024.149-.036.308-.027.48.646 12.08.613 27.347 1.925 39.39m2.451-35.887c.001-1.684.115-3.361.236-5.04 28.12-4.558 56.35 2.991 84.38 5.395.491 11.955-.008 27.06-.498 39-27.528-.522-55.46 1.372-82.49-4.837-1.048-10.397-1.168-23.995-1.63-34.428.002-.033.001-.061.001-.094"/><path d="m12.344 48.15c2.898.916 3.835 1.273 6.86.95.502-.054.91-.247 1.225-.523.809-.224 1.51-.863 1.576-1.928.175-2.799.337-3.497.35-6.302.002-.471-.129-.855-.337-1.162-.221-.799-.863-1.464-1.939-1.464h-7.177c-.93 0-1.533.499-1.824 1.149-.152.268-.255.582-.276.952-.157 2.683-.175 3.266-.175 5.952 0 .553.18.987.459 1.314.221.468.628.863 1.258 1.062m2.578-6.227h3.193c-.042 1.721-.117 1.339-.218 3.058-1.751.064-1.359-.11-3.06-.52.005-1.547.034-.993.085-2.538"/><path d="m25.998 49.2c2.898.916 3.835 1.273 6.86.95.502-.054.91-.247 1.225-.523.809-.224 1.51-.863 1.576-1.928.175-2.799.337-3.497.35-6.302.002-.471-.129-.855-.337-1.162-.221-.799-.863-1.464-1.939-1.464h-7.177c-.93 0-1.533.499-1.824 1.149-.152.268-.255.582-.276.952-.157 2.683-.175 3.266-.175 5.952 0 .553.18.987.459 1.314.221.469.628.863 1.258 1.062m2.578-6.227h3.193c-.042 1.721-.117 1.339-.218 3.058-1.751.064-1.359-.11-3.06-.52.006-1.547.034-.992.085-2.538"/><path d="m39.652 50.25c2.898.916 3.835 1.273 6.86.95.502-.054.91-.247 1.225-.523.809-.224 1.51-.863 1.576-1.928.175-2.799.337-3.497.35-6.302.002-.471-.129-.855-.337-1.162-.221-.799-.863-1.464-1.939-1.464h-7.177c-.93 0-1.533.499-1.824 1.149-.152.268-.255.582-.276.952-.157 2.683-.175 3.266-.175 5.952 0 .553.18.987.459 1.314.222.469.629.863 1.258 1.062m2.579-6.227h3.193c-.042 1.721-.117 1.339-.218 3.058-1.751.064-1.359-.11-3.06-.52.005-1.547.034-.992.085-2.538"/><path d="m53.31 51.3c2.898.916 3.835 1.273 6.86.95.502-.054.91-.247 1.225-.523.809-.224 1.51-.863 1.576-1.928.175-2.799.337-3.497.35-6.302.002-.471-.129-.855-.337-1.162-.221-.799-.863-1.464-1.939-1.464h-7.177c-.93 0-1.533.499-1.824 1.149-.152.268-.255.583-.276.952-.157 2.683-.175 3.266-.175 5.952 0 .553.18.987.459 1.314.221.468.628.863 1.258 1.062m2.578-6.227h3.193c-.042 1.721-.117 1.339-.218 3.058-1.751.064-1.359-.11-3.06-.52.005-1.547.034-.993.085-2.538"/><path d="m66.961 52.35c2.898.916 3.835 1.273 6.86.95.502-.054.91-.247 1.225-.523.809-.224 1.51-.863 1.576-1.928.175-2.799.337-3.497.35-6.302.002-.471-.129-.855-.337-1.162-.221-.799-.863-1.464-1.939-1.464h-7.177c-.93 0-1.533.499-1.824 1.149-.152.268-.255.582-.276.952-.157 2.683-.175 3.266-.175 5.952 0 .553.18.987.459 1.314.222.469.628.863 1.258 1.062m2.579-6.227h3.193c-.042 1.721-.117 1.339-.218 3.058-1.751.064-1.359-.11-3.06-.52.005-1.547.033-.992.085-2.538"/><path d="m12.344 60.758c2.898.916 3.835 1.273 6.86.95.502-.054.91-.247 1.225-.523.809-.224 1.51-.863 1.576-1.928.175-2.799.337-3.497.35-6.302.002-.471-.129-.855-.337-1.162-.221-.799-.863-1.464-1.939-1.464h-7.177c-.93 0-1.533.499-1.824 1.149-.152.268-.255.582-.276.952-.157 2.683-.175 3.266-.175 5.952 0 .553.18.987.459 1.314.221.468.628.863 1.258 1.062m2.578-6.227h3.193c-.042 1.721-.117 1.339-.218 3.058-1.751.064-1.359-.11-3.06-.52.005-1.547.034-.993.085-2.538"/><path d="m14.229 65.13c-.152.268-.255.583-.276.952-.157 2.683-.175 3.266-.175 5.952 0 .553.18.987.459 1.314.222.468.629.863 1.258 1.062 2.898.916 3.835 1.273 6.86.95.502-.054.91-.247 1.225-.523.809-.224 1.51-.863 1.576-1.928.175-2.799.337-3.497.35-6.302.002-.471-.129-.855-.337-1.162-.221-.799-.863-1.464-1.939-1.464h-7.177c-.93 0-1.533.498-1.824 1.149m3.844 3.052h3.193c-.042 1.721-.117 1.339-.218 3.058-1.751.064-1.359-.11-3.06-.52.005-1.547.034-.992.085-2.538"/><path d="m25.998 61.808c2.898.916 3.835 1.273 6.86.95.502-.054.91-.247 1.225-.523.809-.224 1.51-.863 1.576-1.928.175-2.799.337-3.497.35-6.302.002-.471-.129-.855-.337-1.162-.221-.799-.863-1.464-1.939-1.464h-7.177c-.93 0-1.533.499-1.824 1.149-.152.268-.255.583-.276.952-.157 2.683-.175 3.266-.175 5.952 0 .553.18.987.459 1.314.221.469.628.863 1.258 1.062m2.578-6.227h3.193c-.042 1.721-.117 1.339-.218 3.058-1.751.064-1.359-.11-3.06-.52.006-1.547.034-.992.085-2.538"/><path d="m39.652 62.858c2.898.916 3.835 1.273 6.86.95.502-.054.91-.247 1.225-.523.809-.224 1.51-.863 1.576-1.928.175-2.799.337-3.497.35-6.302.002-.471-.129-.855-.337-1.162-.221-.799-.863-1.464-1.939-1.464h-7.177c-.93 0-1.533.499-1.824 1.149-.152.268-.255.583-.276.952-.157 2.683-.175 3.266-.175 5.952 0 .553.18.987.459 1.314.222.469.629.863 1.258 1.062m2.579-6.227h3.193c-.042 1.721-.117 1.339-.218 3.058-1.751.064-1.359-.11-3.06-.52.005-1.547.034-.992.085-2.538"/><path d="m53.31 63.909c2.898.916 3.835 1.273 6.86.95.502-.054.91-.247 1.225-.523.809-.224 1.51-.863 1.576-1.928.175-2.799.337-3.497.35-6.302.002-.471-.129-.855-.337-1.162-.221-.799-.863-1.464-1.939-1.464h-7.177c-.93 0-1.533.499-1.824 1.149-.152.268-.255.582-.276.952-.157 2.683-.175 3.266-.175 5.952 0 .553.18.987.459 1.314.221.468.628.863 1.258 1.062m2.578-6.227h3.193c-.042 1.721-.117 1.339-.218 3.058-1.751.064-1.359-.11-3.06-.52.005-1.547.034-.993.085-2.538"/><path d="m66.961 64.959c2.898.916 3.835 1.273 6.86.95.502-.054.91-.247 1.225-.523.809-.224 1.51-.863 1.576-1.928.175-2.799.337-3.497.35-6.302.002-.471-.129-.855-.337-1.162-.221-.799-.863-1.464-1.939-1.464h-7.177c-.93 0-1.533.499-1.824 1.149-.152.268-.255.582-.276.952-.157 2.683-.175 3.266-.175 5.952 0 .553.18.987.459 1.314.222.469.628.863 1.258 1.062m2.579-6.227h3.193c-.042 1.721-.117 1.339-.218 3.058-1.751.064-1.359-.11-3.06-.52.005-1.547.033-.992.085-2.538"/><path d="m83.1 67.14h-7.177c-.93 0-1.533.499-1.824 1.149-.152.268-.255.583-.276.952-.157 2.683-.175 3.266-.175 5.952 0 .553.18.987.459 1.314.222.468.629.863 1.258 1.062 2.898.916 3.835 1.273 6.86.95.502-.054.91-.247 1.225-.523.809-.224 1.51-.863 1.576-1.928.175-2.799.337-3.497.35-6.302.002-.471-.129-.855-.337-1.162-.221-.8-.863-1.464-1.939-1.464m-2.182 7.259c-1.751.064-1.359-.11-3.06-.52.005-1.547.034-.992.085-2.538h3.193c-.042 1.721-.117 1.339-.218 3.058"/><path d="m80.61 64.959c2.898.916 3.835 1.273 6.86.95.502-.054.91-.247 1.225-.523.809-.224 1.51-.863 1.576-1.928.175-2.799.337-15.05.35-17.856.002-.471-.129-.855-.337-1.162-.221-.799-.863-1.464-1.939-1.464h-7.177c-.93 0-1.533.499-1.824 1.149-.152.268-.255.582-.276.952-.157 2.683-.175 14.819-.175 17.506 0 .553.18.987.459 1.314.222.469.629.863 1.258 1.062m2.579-17.781h3.193c-.042 1.721-.117 12.893-.218 14.612-1.751.064-1.359-.11-3.06-.52.005-1.547.034-12.546.085-14.09"/><path d="m69.44 67.14h-37.637c-.93 0-1.533.499-1.824 1.149-.152.268-.255.583-.276.952-.157 2.683-.175 2.215-.175 4.902 0 .553.18.987.459 1.314.222.468.629.863 1.258 1.062 2.898.916 34.3 1.273 37.32.95.502-.054.91-.247 1.225-.523.809-.224 1.51-.863 1.576-1.928.175-2.799.337-2.446.35-5.252.002-.471-.129-.855-.337-1.162-.222-.8-.863-1.464-1.939-1.464m-2.182 6.209c-1.751.064-31.819-.11-33.52-.52.005-1.547.034.058.085-1.488h33.653c-.042 1.721-.117.289-.218 2.01"/></g></svg>