<svg xmlns="http://www.w3.org/2000/svg" viewBox="0 0 100 100" enable-background="new 0 0 100 100"><g fill="#1d1d1b"><path d="m49.881 96.32c1.606.416 3.255.649 4.913.723.759.39 1.687.451 2.653-.121 24.27-14.378 36.991-49.734 37.824-77.46.894-1.717.058-4.284-2.159-4.4-.676-.14-1.397-.066-2.026.217-14.667 1.978-29.997.399-39.681-12.12-.475-.613-1.05-.943-1.644-1.07-.487-.299-1.096-.451-1.823-.367-1.022.118-1.707.64-2.103 1.321-.307.152-.605.349-.878.633-10.07 10.491-23.423 14.732-37.7 14.647-1.573-.147-3.239.784-3.185 2.82.739 28.08 16.262 69.17 45.809 75.17m-39.773-72.16c14.501-.371 27.747-5.347 38.19-15.56 10.443 11.844 25.794 14.434 41.01 12.832-.068 1.281-.179 2.551-.302 3.818-26.12 1.522-52.18 4.417-78.38 4.03-.228-1.717-.403-3.427-.516-5.118m78.11 7.03c-3.448 20.468-14.34 48.59-32.723 60-.312-.005-.616-.013-.905-.03-.151-.037-.303-.071-.47-.085-.652-.055-1.293-.142-1.931-.241-.349-.076-.706-.162-1.089-.267-.294-.081-.569-.106-.834-.107-21.474-4.904-34.27-34.495-38.628-55.28 25.594.297 51.05-2.482 76.58-3.995"/><path d="m35.05 64.19v-8.426c3.374 1.802 6.555 3.924 9.454 6.449 2.412 2.101 5.953-1.41 3.525-3.525-3.035-2.644-6.312-4.943-9.813-6.882 1.971-2.242 4.04-4.424 6.401-6.235 1.076-.825 1.646-2.127.894-3.41-.622-1.062-2.329-1.723-3.41-.894-2.592 1.986-4.877 4.246-7.05 6.64v-6.15c0-3.215-4.985-3.215-4.985 0v22.433c0 3.214 4.985 3.214 4.985 0"/><path d="m55.826 60.45c-.019-4.02-.203-8.02-.447-12.03 1.519 1.671 3.01 3.366 4.5 5.067.215.245.445.414.68.545 1.082.734 2.717.769 3.65-.634 1.351-2.032 2.691-4.068 4.071-6.077.237 3.744-.0001 7.502-.733 11.218-.619 3.14 4.186 4.478 4.807 1.325 1.287-6.532 1.287-13.07 0-19.604-.446-2.266-3.046-2.204-4.248-.829-.261.162-.509.37-.723.649-1.994 2.589-3.82 5.29-5.626 8.01-2.433-2.758-4.898-5.486-7.492-8.097-1.804-1.817-4.395.046-4.239 2.032-.024.175-.03.362-.016.561.424 5.95.803 11.896.831 17.863.015 3.215 5 3.216 4.985.0001"/></g></svg>