<svg xmlns="http://www.w3.org/2000/svg" viewBox="0 0 100 100" enable-background="new 0 0 100 100"><g fill="#1d1d1b"><path d="m76.63 2.374c-.947-.033-1.587.413-1.93 1.038-.104.074-.208.149-.307.246-11.656 11.382-22.06 23.904-32.709 36.2-2.567-1.751-5.252-3.263-8.04-4.458-.872-.374-1.701-.204-2.334.231-.245.022-.495.07-.751.176-4.979 2.076-9 5.489-12.1 9.845-.587.253-1.012.76-1.238 1.341-.552.488-.85 1.236-.56 2.173 4.63 14.961 17.462 35.634 34.754 37.09.821.069 1.404-.241 1.767-.722.322-.038.654-.137.995-.391 4.858-3.612 8.567-8.093 10.645-13.819.12-.33.158-.635.139-.916.044-.32.013-.673-.139-1.064-.98-2.519-2.166-5.03-3.521-7.491 11.229-11.729 21.783-24.09 33.418-35.433.416-.405.621-.856.673-1.302.537-.365.943-.943 1.017-1.747 1.133-12.259-7.932-20.594-19.784-21m-54.49 48.609c3.731 1.258 7.18 3.138 10.281 5.475-.743 3.702-.919 7.923 1.439 11.08 2.436 3.263 6.452 3.619 10.165 2.928 1.637 3.285 2.844 6.795 3.515 10.435-11.912-3.623-21.18-18.54-25.4-29.92m13.834 8.505c2.26 2.177 4.271 4.617 5.964 7.271-1.822.192-3.729-.039-4.88-1.58-1.175-1.576-1.3-3.686-1.084-5.691m16.197 21.458c-2.711-15.594-13.534-29.368-28.635-34.37 2.439-2.895 5.465-5.097 9.01-6.623 12.303 5.737 22.853 17.903 27.765 30.394-1.593 4.265-4.531 7.857-8.137 10.602m39.671-58.06c-.124.083-.247.177-.366.292-11.359 11.07-21.691 23.11-32.623 34.593-3.668-5.668-8.254-10.91-13.479-15.15 7.554-8.733 15-17.562 22.861-26.01l3.724 3.724c2.098 2.098 5.351-1.155 3.253-3.253l-3.815-3.815c2.01-2.101 4.04-4.184 6.125-6.221 8.88.674 14.93 6.703 14.32 15.844"/><path d="m8.5 67.891c2.316-.78 4.596-1.66 6.912-2.44 2.801-.944 1.645-5.398-1.167-4.451-2.316.78-4.596 1.66-6.912 2.44-2.802.944-1.645 5.398 1.167 4.451"/><path d="m21.944 83.35l4.879-4.879c2.098-2.098-1.155-5.351-3.253-3.253l-4.879 4.879c-2.097 2.098 1.155 5.35 3.253 3.253"/><path d="m37.459 92.91c.207-2.035.808-4.02 1.552-5.922.457-1.168-.537-2.52-1.642-2.809-1.317-.344-2.351.474-2.809 1.642-.899 2.295-1.453 4.638-1.701 7.089-.127 1.249 1.142 2.3 2.3 2.3 1.348 0 2.174-1.054 2.3-2.3"/><path d="m60.55 46.02c3.48 3.48 8.875-1.916 5.396-5.396-3.48-3.479-8.876 1.917-5.396 5.396"/></g></svg>