<svg xmlns="http://www.w3.org/2000/svg" viewBox="0 0 100 100" enable-background="new 0 0 100 100"><path d="m90.55 6.999c-.008-.077-.015-.156-.023-.233-.147-1.391-1.545-2.563-2.958-2.389-.869.107-2.505 2.654-3.034 3.314-1.077 1.341-2.076 2.737-3.324 3.929-2.597 2.479-6 4.052-9.274 5.445-6.912 2.945-14.64 4-22.02 5.102-3.927.586-7.878 1.24-11.735 2.201-17.15 4.273-25.21 15.979-23.357 33.602.331 3.144 5.29 3.177 4.955 0-.985-9.362.036-18.612 8.384-24.25 6.46-4.366 14.995-5.536 22.503-6.857 12.487-2.198 26.446-4.123 35.522-13.274 1.022 14.23.228 29.12-6.53 41.819-10.428 19.603-35.893 19.256-53.56 10.529 5.991-7.078 13.166-13.298 20.811-19.04 2.522-1.893.057-6.199-2.501-4.279-17.332 13.01-32.49 28.26-37.752 49.932-.754 3.105 4.03 4.422 4.778 1.317 2.203-9.07 6.256-16.95 11.505-23.982 18.584 9.524 43.868 10.511 57.848-7.211 11.873-15.05 11.704-37.38 9.787-55.48-.005-.065-.011-.129-.021-.192" fill="#1d1d1b"/></svg>