<svg xmlns="http://www.w3.org/2000/svg" viewBox="0 0 100 100" enable-background="new 0 0 100 100"><g fill="#1d1d1b"><path d="m69.3 39.12c-.145-.042-.295-.077-.458-.094-3.856-.403-13.338-.54-17.21-.581-.073-1.795-.075-4.496-.063-6.294.005-.7-.25-1.232-.634-1.61-.511-1.474-2.423-2.473-3.81-1.01-6.383 6.722-13.08 12.225-19.792 18.612-1.38 1.313-.583 3.117.742 3.754 6.419 5.352 12.823 12.532 19.243 17.883 1.022.852 2.251.676 3.099.05.876-.249 1.604-.956 1.612-2.14.018-2.45.048-4.898.23-7.341 3.331-.078 12.276.048 15.574.582 1.648.267 2.778-1.021 2.938-2.293.169-.309.278-.674.281-1.111.038-5.383.093-10.765.347-16.14.069-1.451-.978-2.201-2.099-2.263m-2.911 16.944c-3.576-.391-12.765-.475-16.383-.323-1.769.074-2.504 1.725-2.2 3.046-.08.209-.143.43-.166.682-.13 1.436-.197 2.874-.235 4.314-4.94-4.125-9.876-10.06-14.818-14.188 4.841-4.617 9.651-8.36 14.333-13.14.027 1.05.07 3.01.151 4.054.066.862.509 1.472 1.092 1.843.374.445.939.745 1.697.751 3.727.027 13.06.131 16.775.418-.157 4.179-.212 8.36-.246 12.541"/><path d="m96.59 59.69c-.435-6.409-.389-12.97-.345-19.315.017-2.266.032-4.533.027-6.803-.003-1.26.068-2.758.144-4.345.337-7.089.757-15.912-4.081-20.985-2.302-2.414-5.483-3.638-9.457-3.638-1.662 0-3.326.009-4.989.018-1.653.009-3.308.018-4.961.018l-1.58-.003c-1.736-.007-3.472-.001-5.207-.001l-11.152.013c-7.681 0-15.911-.046-24.06-.384l-.351-.015c-1.588-.066-3.389-.141-5.273-.141-13.297 0-20.04 4.668-20.04 13.873-.0001 7.297-.078 14.722-.151 21.902-.067 6.652-.138 13.531-.148 20.304-.001 6.519.075 11.906.27 16.955l.026.72c.153 4.24.344 9.518 3.711 13.491 3.592 4.236 8.576 4.334 13.287 4.263.498-.007.995-.014 1.487-.014h.299c6.587 0 13.306.077 19.804.152 6.521.075 13.267.152 19.903.152 6.849 0 12.868-.083 18.403-.256 4.994-.156 11.459-2.502 13.903-12.789 1.669-7.02 1.16-14.211.668-21.16l-.139-2m-5.88 21.892c-1.758 7.403-5.586 8.465-8.724 8.562-5.477.171-11.44.254-18.231.254-6.605 0-13.334-.077-19.841-.152-6.513-.075-13.248-.152-19.866-.152h-.301c-.516 0-1.037.007-1.561.015-.507.007-1.015.014-1.521.014-3.494 0-5.841-.382-7.495-2.333-2.135-2.521-2.274-6.391-2.409-10.134l-.027-.732c-.191-4.975-.275-10.292-.266-16.736.011-6.748.081-13.615.148-20.255.073-7.194.149-14.633.15-21.958 0-4.141 1.729-8.374 14.54-8.374 1.77 0 3.51.073 5.05.137l.352.015c8.247.342 16.547.389 24.286.389l11.151-.011c1.728 0 3.456.002 5.185.001l1.603.003c1.663 0 3.327-.009 4.991-.018 1.653-.009 3.307-.018 4.959-.018 2.444 0 4.235.632 5.477 1.934 3.213 3.369 2.84 11.206 2.568 16.928-.079 1.656-.153 3.221-.15 4.617.005 2.253-.011 4.504-.027 6.753-.045 6.446-.091 13.11.356 19.725l.142 2.02c.462 6.534.941 13.293-.534 19.498"/><path d="m87.1 31.937c.064-5.097.144-11.441-3.619-15.251-1.877-1.9-4.423-2.864-7.568-2.864-1.299 0-2.599.007-3.898.014-1.289.007-2.58.014-3.869.014l-1.267-.002c-1.356-.005-2.711-.007-4.066-.007l-8.77.009c-6.01 0-12.45-.037-18.824-.301l-.274-.012c-1.251-.052-2.67-.111-4.16-.111-10.817 0-16.303 3.859-16.303 11.47-.0001 5.723-.06 11.548-.117 17.18-.054 5.21-.108 10.597-.117 15.902-.008 5.11.06 9.342.212 13.314l.021.565c.124 3.415.277 7.664 3.05 10.937 2.981 3.519 7.04 3.606 10.881 3.551.387-.005.772-.011 1.153-.011h.213c5.162 0 10.43.061 15.523.119 5.116.06 10.407.121 15.616.121 5.378 0 10.11-.066 14.453-.202 6.215-.194 10.232-4 11.312-10.727.206-1.281.305-2.675.293-4.142-.049-5.907.001-11.925.065-17.744.062-6.4.125-13.02.049-19.54-.001-.711.0001-1.479.011-2.283m-5.561 21.77c-.056 5.844-.114 11.886-.065 17.841.009 1.161-.065 2.246-.223 3.226-.847 5.267-3.68 6.03-6.05 6.101-4.29.135-8.961.2-14.281.2-5.177 0-10.452-.062-15.553-.12-5.109-.06-10.393-.12-15.587-.12h-.216c-.405 0-.815.006-1.227.012-.397.006-.797.011-1.195.011-2.56 0-4.266-.265-5.413-1.618-1.541-1.818-1.646-4.747-1.749-7.58l-.021-.577c-.149-3.898-.216-8.06-.208-13.1.009-5.28.063-10.656.116-15.854.058-5.646.117-11.486.118-17.237 0-3.101 1.309-5.97 10.803-5.97 1.375 0 2.733.057 3.931.107l.275.011c6.475.269 12.983.306 19.05.306l8.77-.009c1.348 0 2.695.002 4.04.007l1.29.002c1.3 0 2.6-.007 3.899-.014 1.29-.007 2.579-.014 3.868-.014 1.643 0 2.839.402 3.655 1.229 2.147 2.175 2.081 7.459 2.032 11.317-.011.851-.021 1.664-.012 2.416.077 6.465.014 13.05-.048 19.423"/></g></svg>