<svg xmlns="http://www.w3.org/2000/svg" viewBox="0 0 100 100" enable-background="new 0 0 100 100"><path d="m82.4 17.405c-.011-3.211-.677-6.245-3.898-6.245-.093 0-.181.021-.271.028-.365-.023-.746-.009-1.159.097-22.777 5.834-43.45 18.21-61.794 32.65-1.031.812-1.325 1.802-1.159 2.733-.071.495-.115.99-.116 1.492-.0001 1.127.563 2.135 1.412 2.778.111.151.22.302.363.447 16.455 16.595 35.619 31.422 57.794 39.4.72.259 1.362.266 1.926.116 1.322-.021 2.627-.122 3.936-.366 1.65-.307 2.652-2.074 2.548-3.665.002-.072.02-.135.02-.21 0-20.998 1.117-41.982.12-62.974-.067-1.408.286-3.893.278-6.281m-7.383 66.47c-20.31-7.408-37.917-21.14-53.12-36.28 15.86-12.259 33.668-22.755 52.967-28.437 1.412 21.555.283 43.14.152 64.72" fill="#1e1e1c"/></svg>