<svg xmlns="http://www.w3.org/2000/svg" viewBox="0 0 100 100" enable-background="new 0 0 100 100"><path d="m44.913 67.14c4.138 0 8.098-.771 11.752-2.164 4.966 10.512 10.517 20.731 15.649 31.16.731 1.485 2.229 1.514 3.305.805 5.28-.782 9.974-2.755 14.13-6.225.016-.013.026-.029.042-.042 1.382-.452 2.392-1.916 1.331-3.44-7.183-10.318-15.291-19.961-22.17-30.488 5.598-5.929 9.04-13.913 9.04-22.691 0-5.474-2.281-11.564-3.263-13.929-4.82-11.618-15.855-18.554-29.518-18.554-4.98 0-10.162.951-14.984 2.749-13.04 4.862-18.543 19.28-18.218 31.414.456 17.02 15.522 31.404 32.899 31.404m40.593 20.674c-2.872 2.183-6.207 3.576-9.759 4.173-1.719-3.457-3.478-6.893-5.241-10.327 2.197-1.739 4.48-3.349 6.884-4.792 2.741 3.621 5.481 7.245 8.116 10.946m-11.137-14.952c-2.139 1.315-4.189 2.755-6.174 4.288-2.419-4.726-4.807-9.467-7.082-14.265 1.455-.821 2.842-1.75 4.15-2.774 2.888 4.357 5.968 8.574 9.106 12.751m-42.04-62.918c4.159-1.551 8.616-2.371 12.889-2.371 11.321 0 20.06 5.414 23.978 14.853 1.756 4.232 2.804 8.58 2.804 11.629 0 14.935-12.149 27.08-27.08 27.08-14.211 0-26.53-11.707-26.901-25.564-.269-10 4.054-21.804 14.314-25.631"/><path d="m44.918 55.57c11.855 0 21.5-9.645 21.5-21.5s-9.645-21.5-21.5-21.5c-11.854 0-21.499 9.645-21.499 21.5s9.644 21.5 21.499 21.5m0-37c8.547 0 15.5 6.953 15.5 15.5 0 8.547-6.953 15.5-15.5 15.5-8.546 0-15.499-6.953-15.499-15.5 0-8.547 6.953-15.5 15.499-15.5"/><path d="m55 35.667c3.224 0 3.224-5 0-5-6.617.0001-13.229.031-19.833.5-3.197.227-3.219 5.229 0 5 6.604-.469 13.216-.499 19.833-.5"/></svg>