<svg xmlns="http://www.w3.org/2000/svg" viewBox="0 0 100 100" enable-background="new 0 0 100 100"><path d="m34.35 7.02c-4.985 2.333-10.737 5.771-14.648 9.686-4.815 4.819-10.5 11.482-13.218 17.793-7.469 17.346-2.96 37.28 11.375 49.621 23.361 20.12 65.54 9.536 76.19-19.462 5.086-13.852.029-29.447-8.293-40.893-11.353-15.615-33.1-25.313-51.41-16.745m-4.04 46.15c-6.962 3.419-13.828 7.03-20.713 10.599-3.427-10.968-1.716-23.52 4.628-33.884.85-1.388 1.895-2.775 3.063-4.131 4.996 4.714 9.96 9.461 15.11 14.01.008.007.017.011.025.018-2.154 4.04-2.836 8.756-2.111 13.388m16.877-43.98c8.818-.517 17.382 2.161 24.402 7.157-.184.174-.356.375-.5.636-3.02 5.488-6.451 10.7-10.183 15.719-4.14-2.809-9.374-4.152-14.934-2.933-1.486-6.584-3.086-13.14-4.52-19.738 1.879-.43 3.791-.727 5.735-.841m-11.927 78.77c.051-.1.107-.193.149-.304 2.287-6.147 4.683-12.252 7.136-18.334 1.912.748 4.03 1.22 6.359 1.329 1.555.073 3.02-.017 4.401-.234 1.836 6 3.857 11.947 5.91 17.881-7.87 1.922-16.218 1.878-23.955-.338m14.606-21.926c-7.696.466-12.272-5.653-13.933-11.412-1.745-6.05-.316-13.166 4.956-17.557 10.873-9.06 24.354 2.287 23.621 12.724-.022.312.028.583.114.829-.62 7.553-4.968 14.823-14.758 15.416m38.05.5c-.136-.024-.273-.043-.415-.043h-.25c-.026 0-.05.007-.076.008-.214-.169-.465-.312-.759-.419-6.261-2.261-12.442-4.734-18.684-7.05 1.551-3.409 2.299-7.195 2.234-10.823 6.842-.98 13.64-2.226 20.454-3.385 1.869 7.815.717 15.235-2.504 21.711" fill="#1d1d1b"/></svg>