<svg xmlns="http://www.w3.org/2000/svg" viewBox="0 0 100 100" enable-background="new 0 0 100 100"><path d="m95.83 49.903c-.018-.402-.037-.801-.078-1.053-.045-.275-.135-.547-.266-.809-1.45-2.884-4.085-4.538-7.231-4.538-1.232 0-2.479.255-3.708.759-.295.121-.567.276-.809.461-.15.116-.341.276-.543.449-.268.227-.56.475-.805.652-1.026.739-1.79 1.576-2.343 2.596-.012-.0001-.025-.002-.038-.003-1.931-.148-4.214-.309-6.499-.382-.377-.011-.897-.301-1.092-.608-1.195-1.886-2.158-3.7-2.946-5.545-.232-.543-.7-.961-1.317-1.176-.492-.172-.969-.174-1.204-.169-.067-.008-.136-.014-.208-.014h-10.455c-.376 0-.729.068-1.047.202-.516.216-.952.673-1.166.926-.099.117-.192.247-.276.394-.92 1.604-1.929 3.305-3.084 5.198-.016.026-.031.046-.039.062-.012-.016-.024-.037-.038-.064-2.852-5.608-5.132-10.677-6.973-15.496-.416-1.087-1.406-1.762-2.585-1.762-1.138 0-2.143.62-2.499 1.542-.12.309-.18.697-.238 1.073-.047.3-.095.61-.166.811-3.075 8.729-5.44 17.617-7.03 26.424-1.12-1.854-2.247-3.705-3.374-5.555-2.308-3.789-4.694-7.707-6.975-11.597-.482-.822-1.243-1.275-2.143-1.275-.691 0-1.393.279-1.904.747-.406.33-.737.783-.958 1.311-.548 1.307-1.11 2.608-1.671 3.909l-.473 1.096c-.132.309-.559.589-.894.589h-7.67c-1.683 0-2.563 1.325-2.563 2.634 0 1.308.88 2.633 2.563 2.633h9.601c.056 0 .107-.004.138-.006.053.003.128.007.221.007.354 0 .681-.059.971-.173.698-.277 1.272-.881 1.615-1.701.393-.936.792-1.867 1.196-2.798 1.424 2.373 2.863 4.736 4.302 7.101 2.138 3.513 4.349 7.144 6.472 10.746.073.122.148.272.229.433.244.482.521 1.029.907 1.336.421.336.988.521 1.597.521 1.28 0 2.688-.845 2.902-2.459 1.167-8.763 3.262-17.902 6.229-27.17 1.886 4.295 4.03 8.709 6.565 13.484.165.312.372.574.616.781.445.379 1.333.687 1.981.687.893-.0001 1.661-.435 2.164-1.219 1.48-2.313 2.977-4.77 4.574-7.509.181-.31.67-.591 1.027-.591h6.451c.339 0 .788.285.942.597.903 1.824 1.974 3.636 3.183 5.383.072.104.148.198.28.346.172.206.529.635 1.028.881.345.171.735.259 1.157.261 2.618.014 5.264.185 7.507.351.316.023.681.329.796.668.313.92.778 1.866 1.382 2.813.16.251.35.468.563.645.255.212.525.344.708.431l.042.034c1.615 1.215 3.493 1.857 5.428 1.857 1.199 0 2.39-.245 3.537-.728.096-.04.188-.085.279-.133.04-.021.104-.048.179-.08.166-.072.374-.163.549-.264.183-.106.354-.235.51-.382 2.169-2.043 3.189-4.78 2.951-7.914-.014-.201-.024-.429-.034-.655m-10.952 3.148c-.354-.762-.444-1.398-.282-2 .304-1.129 2.255-1.79 3.354-2.161.069-.023.133-.051.148-.062.023-.006.147-.028.339-.028.17 0 .339.018.489.052.476.109.884.346 1.249.723.278.288.423.711.431.82.003.148.016.298.04.448.169 1.076-.058 2.082-.674 2.989-.227.334-.827.734-1.233.821-1.01.218-1.868.083-2.798-.44-.372-.207-.878-.76-1.063-1.16" fill="#1d1d1b"/></svg>