<svg xmlns="http://www.w3.org/2000/svg" viewBox="0 0 100 100" enable-background="new 0 0 100 100"><path d="m52.4 6.75c-.23-.016-.436.006-.63.043-.161-.031-.332-.046-.514-.043-14.992.22-28.04 7.262-30.26 23.09-2.02 14.345 4.414 29.32 13.15 40.509-1.341.995-2.42 2.315-2.523 4.063-.105 1.775.821 3.183 2.032 4.33-1.105.945-1.941 2.148-2.032 3.677-.148 2.504 1.742 4.286 3.612 5.622.072.052.144.084.216.124-.538.656-.913 1.422-.967 2.33-.125 2.105 1.465 3.604 3.037 4.727.107.077.214.133.321.184.307.317.732.536 1.291.559 7.991.327 15.954.501 23.756-1.511.505-.131.852-.403 1.073-.738.184-.2.335-.451.431-.766.579-1.902.353-3.824-.628-5.427.548-.123 1.095-.254 1.642-.395.602-.155 1.013-.479 1.276-.878.219-.238.398-.536.512-.911.715-2.351.387-4.723-.899-6.674.151-.128.284-.267.387-.423.219-.238.398-.536.512-.911.779-2.56.332-5.149-1.256-7.187 17.17-20.08 20.916-60.956-13.535-63.39m-14.532 77.62c-.099-.1-.204-.198-.328-.287-.441-.315-.819-.668-1.186-1.068-.103-.113-.129-.318-.15-.363.149-.407.712-.777 1.261-1.066.196.052.403.088.635.088 8.118-.014 16.229-.201 24.339-.547.396.57.549 1.179.523 1.854-8.26 1.913-16.659 1.727-25.09 1.389m0-8.01c-.099-.1-.204-.198-.328-.287-.441-.315-.819-.668-1.186-1.068-.103-.113-.129-.318-.15-.363.149-.407.712-.777 1.261-1.066.196.052.403.088.635.088 8.118-.014 16.229-.201 24.339-.547.396.57.549 1.179.523 1.854-8.26 1.912-16.659 1.727-25.09 1.389m1.865 15.771c-.083-.084-.171-.167-.276-.241-.371-.265-.689-.562-.997-.898-.087-.095-.108-.267-.126-.305.126-.342.599-.653 1.061-.897.165.044.339.074.535.074 6.826-.012 13.645-.169 20.464-.46.333.479.461.991.44 1.559-6.946 1.608-14.01 1.452-21.1 1.168m22.489-24.662c-.307.347-.473.72-.548 1.093-3.063.127-6.126.216-9.19.297.412-6.071.479-12.148.485-18.231 4.2-3.744 7.03-8.615 8.31-14.11.667-2.871-3.744-4.09-4.412-1.216-1.044 4.489-3.18 8.303-6.432 11.447-3.446-2.742-5.912-6.373-7.078-10.684-.77-2.845-5.184-1.636-4.412 1.216 1.515 5.602 4.869 10.184 9.447 13.622-.009 6.02-.079 12.04-.491 18.06-3.01.057-6.01.11-9.02.119-.082-.159-.18-.316-.306-.468-8.01-9.719-13.513-22.274-13.326-35.01.221-15.11 12.08-22.08 26.01-22.283.225-.003.427-.04.617-.093.165.047.339.079.527.093 30.465 2.154 24.553 39.501 9.822 56.15" fill="#1d1d1b"/></svg>