<svg xmlns="http://www.w3.org/2000/svg" viewBox="0 0 100 100" enable-background="new 0 0 100 100"><path d="m90.79 33.8c-2.596-.166-5.215.472-7.783.748-7.959.855-16.01 1.474-20.862-5.917-3.958-6.03-5.376-12.77-5.568-19.872-.008-.295-.065-.556-.142-.801.031-1.129-.522-2.287-1.873-2.76-17.49-6.116-18.894 17.535-15.516 29.09-.484.036-.967.056-1.451.074-.02-.499-.099-.991-.169-1.486-.017-.106-.035-.212-.052-.318.009.027.007-.043-.006-.239-.012-.317-.083-.619-.186-.904-.04-.787-.39-1.573-1.173-2.151-7.404-5.477-16.404-6.283-25.21-4.393-.379.081-.689.225-.953.401-.332.151-.652.394-.944.762-4.467 5.636-4.576 12.27-1.058 18.221-5.569 6.178-5.243 14.274.573 20.374-1.285 5.686.556 10.794 4.933 14.635-.376 2.866-.117 5.725 1.439 8.297 1.782 2.945 5.096 4.478 8.352 5.161.259.15.557.271.92.331 5.627.922 11.268 1.653 16.966 1.927.277.013.525-.018.758-.069.141-.004.28-.004.429-.029 7.405-1.233 14.81-2.494 22.14-4.121 6.932-1.539 13.711-3.953 20.786-4.763 2.976-.341 9.793.091 9.858-4.283.215-14.407.228-28.814.229-43.22 0-.338-.063-.633-.154-.908-.866-2.614-1.076-3.575-4.281-3.78m-13.217 47.781c-11.884 3.752-24.11 5.883-36.38 7.93-.057-.006-.107-.022-.166-.024-5.099-.245-10.141-.864-15.178-1.681-.23-.12-.483-.223-.787-.279-2.03-.377-4.277-.951-5.535-2.741-1.225-1.744-.988-4.04-.552-6 .316-1.423-.404-2.499-1.408-3.041-.099-.098-.193-.198-.311-.287-3.743-2.83-4.508-6.764-3.084-11.08.487-1.475-.254-2.579-1.335-3.074-4.687-4.575-4.746-9.958.171-14.468.686-.629.916-1.359.846-2.051.153-.597.062-1.273-.417-1.961-2.765-3.972-3.903-8.636-.78-12.741 6.825-1.386 13.46-.726 19.294 3.03.03.234.065.468.098.703.017.106.035.212.052.318-.006-.02-.007.023 0 .128-1.812-.13-3.625-.359-5.438-.706-3.458-.661-4.933 4.628-1.459 5.292 7.303 1.396 14.547 1.393 21.812-.229 3.454-.771 1.989-6.06-1.459-5.292-.335.075-.671.13-1.01.197-2.185-6.788-3.882-25.23 6.587-23.535.755 15.73 7.881 31.26 24.945 30.502-1.052 13.733.192 27.367 1.832 41.02-.112.023-.222.035-.341.073m11.955-1.979c-2.1.135-4.2.272-6.301.411-1.564-13.245-2.689-26.48-1.637-39.807 2.707-.344 5.42-.572 8.145-.602-.0001 13.333-.026 26.666-.207 39.998" fill="#1d1d1b"/></svg>