<svg xmlns="http://www.w3.org/2000/svg" viewBox="0 0 100 100" enable-background="new 0 0 100 100"><g fill="#1d1d1b"><path d="m48.47 33.05c-.504 0-1 .016-1.486.047-.086.005-.167.017-.27.035-.323-.022-.652-.002-.97.069-7.613 1.679-14.813 8.419-13.163 17.604 1.448 8.06 8.882 13.909 17.677 13.909.582 0 1.17-.026 1.749-.078 8.08-.727 16.407-6.969 16.358-16.16-.054-10.02-10.29-15.428-19.895-15.428m-9.292 16.983c-.503-1.941-.251-3.773.749-5.446 1.348-2.254 3.984-4.057 7.07-4.842l.042.002.068-.004c.446-.028.9-.043 1.358-.043 5.676 0 12.554 2.328 13.256 8.89.189 1.768-.335 3.42-1.559 4.91-2.292 2.793-6.375 4.317-9.406 4.59-5.383.484-10.259-2.976-11.578-8.06"/><path d="m44.641 25.19c7.551-.744 16.1 1.91 23.708 7.323.678.483 1.396.729 2.132.729 1.558 0 2.967-1.136 3.507-2.826.57-1.782-.007-3.552-1.505-4.618-9.878-7.04-22-9.931-32.871-7.789-10.696 2.107-18.987 11.586-20.434 23.22-1.43-.033-2.86-.062-4.29-.092-2.887-.059-5.775-.117-8.662-.216l-.157-.003c-2.402 0-3.691 1.897-3.723 3.771-.034 1.982 1.265 4.03 3.812 4.122 2.804.096 5.609.149 8.414.202 2.695.051 5.39.102 8.09.19l.148.003c1.18 0 2.201-.479 2.887-1.351.756-.71 1.15-1.677 1.14-2.804-.102-10.647 7.221-18.815 17.809-19.862"/><path d="m93.95 49.14c-2.804-.096-5.609-.149-8.414-.202-2.695-.051-5.39-.102-8.09-.19l-.148-.003c-1.18 0-2.201.479-2.887 1.351-.757.71-1.151 1.677-1.14 2.804.102 10.649-7.221 18.817-17.809 19.864-7.551.748-16.11-1.91-23.707-7.323-.678-.483-1.396-.729-2.132-.729-1.558 0-2.967 1.136-3.508 2.826-.57 1.782.007 3.552 1.505 4.618 7.697 5.482 16.759 8.501 25.517 8.501 2.481 0 4.956-.239 7.354-.712 10.696-2.107 18.986-11.586 20.434-23.22 1.43.034 2.86.062 4.291.092 2.887.059 5.774.117 8.661.216l.157.003c2.401 0 3.69-1.897 3.723-3.771.034-1.984-1.265-4.04-3.812-4.123"/></g></svg>