<svg xmlns="http://www.w3.org/2000/svg" viewBox="0 0 100 100" enable-background="new 0 0 100 100"><g fill="#1d1d1b"><path d="m29.431 41.959c-.122-1.025-.866-1.968-2.25-1.968-4.493 0-8.985-.008-13.476-.151-1.558-.049-2.307 1.12-2.264 2.283-.261.342-.416.788-.4 1.338.378 13.651 2.122 27.23 2.351 40.886.019 1.104.705 1.789 1.547 2.057.312.189.679.323 1.118.357 3.813.295 7.626.599 11.439.905.493.04.896-.057 1.228-.232 1.201.033 2.411-.69 2.376-2.182-.33-14.238-1.083-28.463-1.567-42.696-.008-.217-.048-.412-.102-.597m-11.396 40.43c-.341-12.683-1.849-25.304-2.256-37.985 3.042.07 6.083.099 9.125.104.457 12.847 1.093 25.687 1.429 38.538-2.766-.221-5.531-.441-8.298-.657"/><path d="m18.839 10.27c-.161.017-.309.052-.453.092-6.99.317-12.03 5.915-12.367 12.941-.337 7.01 5.986 12.646 12.977 12.626 6.601-.019 12.342-5.159 13.253-11.325 1.181-7.987-4.887-15.243-13.41-14.334m1.744 20.92c-11.451 3.01-12.967-16.07-2.428-16.421.209.036.432.054.685.027.077-.008.147-.008.223-.014.286.019.574.039.876.084.408.061.781.025 1.118-.074 8.819.94 8.442 14.05-.474 16.398"/><path d="m88.69 44.33c-7.74-11.659-20.526-15.24-33.874-12.544-.13-1.646-.361-3.285-.603-4.921-.151-1.024-1.292-1.639-2.314-1.642-.18-.026-.371-.036-.579-.019-3.599.29-7.202.441-10.812.453-1.408.005-2.153.984-2.254 2.029-.049.167-.084.344-.097.535-1.226 18.435-1.543 36.902-1.098 55.37.042 1.699 1.654 2.402 2.98 2.12 4.754.28 9.5.413 14.258.143.801-.045 1.383-.403 1.76-.895.433-.357.69-.91.59-1.67-1.161-8.862-8.154-36.23 7.415-35.948.179.032.369.05.577.041 19.245-.789 10.04 24.962 10.849 37.17.111 1.665 1.709 2.374 3.01 2.127.184.063.377.113.591.136 4.064.44 8.137.742 12.224.905 1.555.062 2.304-1.098 2.262-2.259.066-.228.105-.475.088-.758-.88-14.12 3.087-28.23-4.976-40.37m.166 38.744c-2.934-.157-5.861-.394-8.785-.694-.712-15.284 7.02-38.05-14.976-39.526-20.07-.19-15.3 25.709-13.412 38.568-3.324.092-6.645.014-9.967-.151-.353-17.05-.048-34.1 1.024-51.12 2.395-.046 4.786-.165 7.176-.333.169 1.372.292 2.748.306 4.133.006.626.235 1.109.579 1.466.402.952 1.378 1.666 2.71 1.319 13.77-3.584 25.45.268 32.645 12.298 6.22 10.399 1.875 22.18 2.7 34.04"/></g></svg>