<svg xmlns="http://www.w3.org/2000/svg" viewBox="0 0 100 100" enable-background="new 0 0 100 100"><g fill="#1d1d1b"><path d="m50.568 63.04c3.767 0 7.544-.468 11.226-1.39 1.909-.478 2.989-2.029 2.751-3.955-.228-1.849-1.75-3.813-4.124-3.813-.348 0-.704.045-1.057.134-2.879.721-5.84 1.086-8.802 1.086-7.57 0-15.15-2.371-21.917-6.858-5.279-3.502-14.384-10.794-16.04-20.3-.578-3.308.078-6.113 1.949-8.338 2.399-2.854 6.717-4.558 11.551-4.558 1.665 0 3.277.205 4.794.609 9.13 2.431 17.74 10.121 20.472 18.287.556 1.663 1.912 2.655 3.625 2.655 1.379 0 2.719-.671 3.497-1.751.721-1 .888-2.237.471-3.483-4.226-12.629-21.42-24.568-35.38-24.568-9.737 0-16.415 5.645-18.804 15.896-3.087 13.247 10.578 25.511 16.596 30.17 8.602 6.658 18.697 10.178 29.19 10.178.0001 0 .0001 0 .002 0"/><path d="m79.68 50.02c-8.603-6.659-18.699-10.179-29.2-10.179-3.768 0-7.544.468-11.227 1.39-1.908.478-2.988 2.03-2.751 3.955.228 1.849 1.751 3.813 4.125 3.814.347 0 .703-.045 1.056-.134 10.242-2.562 21.306-.469 30.72 5.772 5.279 3.502 14.384 10.795 16.04 20.299.577 3.308-.079 6.113-1.949 8.339-2.399 2.854-6.717 4.558-11.551 4.558-1.664 0-3.277-.205-4.794-.608-9.131-2.433-17.741-10.124-20.472-18.288-.556-1.663-1.912-2.655-3.625-2.655-1.379 0-2.719.67-3.496 1.75-.721 1-.888 2.238-.471 3.484 4.225 12.629 21.418 24.568 35.38 24.568 9.737 0 16.415-5.645 18.804-15.896 3.087-13.247-10.577-25.511-16.595-30.17"/></g></svg>