<svg xmlns="http://www.w3.org/2000/svg" viewBox="0 0 100 100" enable-background="new 0 0 100 100"><g fill="#1d1d1b"><path d="m25.03 15.523c.036-.706-.134-1.356-.493-1.888-.536-1.01-1.51-1.625-2.682-1.688-5.05-.275-10.08-.298-15.221-.299-.88 0-1.643.304-2.219.882-1.194.746-1.77 2.044-1.507 3.425.72 3.793 1.067 7.798 1.092 12.608.0001.259.036.519.104.791.154 1.689 1.402 2.928 3.068 3.02 5.3.312 10.07.617 14.808 1.185.139.017.273.024.402.024.429 0 .835-.086 1.208-.256 1.406-.399 2.2-1.606 2.03-3.104-.62-5.455-.812-10.265-.59-14.705m-6.209 11.238c-2.977-.287-5.867-.488-8.421-.648-.086-2.785-.297-5.419-.64-7.997 3.407.015 6.179.063 8.743.154-.032 2.72.073 5.517.318 8.491"/><path d="m28.518 28.562c.0001.262.034.517.104.793.155 1.689 1.402 2.927 3.067 3.03 1.995.118 11.421.236 22.335.374 16.306.205 36.6.46 39.524.811.139.017.273.024.402.024.429 0 .835-.086 1.208-.256 1.406-.399 2.2-1.606 2.029-3.104-.619-5.456-.812-10.266-.589-14.705.036-.706-.134-1.356-.493-1.888-.536-1.01-1.51-1.625-2.682-1.688-5.32-.29-61.704-.299-62.27-.299-.88 0-1.644.304-2.219.882-1.194.746-1.77 2.044-1.507 3.425.722 3.789 1.068 7.794 1.094 12.606m61.877-1.749c-4.641-.182-19.987-.33-33.704-.462-9.585-.092-18.704-.181-21.774-.261-.087-2.777-.298-5.404-.64-7.975l2.226.003c30.991.038 48.975.094 53.57.167-.031 2.728.075 5.537.323 8.528"/><path d="m96.6 42.02c.036-.706-.134-1.356-.493-1.888-.536-1.01-1.509-1.625-2.682-1.689-5.229-.285-59.944-.298-62.27-.299-.881 0-1.646.305-2.221.882-1.194.746-1.77 2.044-1.507 3.425.72 3.79 1.066 7.795 1.092 12.605.0001.264.034.518.104.794.155 1.689 1.402 2.928 3.067 3.02 1.997.118 11.432.236 22.357.374 16.297.205 36.579.46 39.503.811.139.017.273.024.402.024.429 0 .835-.086 1.208-.256 1.406-.399 2.2-1.606 2.029-3.104-.618-5.455-.811-10.265-.588-14.704m-6.205 11.29c-4.643-.182-20-.33-33.73-.463-9.572-.093-18.679-.181-21.748-.261-.087-2.778-.298-5.405-.64-7.976l2.238.003c30.984.038 48.964.094 53.56.167-.031 2.73.075 5.538.323 8.53"/><path d="m96.6 68.53c.036-.706-.134-1.356-.493-1.888-.536-1.01-1.509-1.625-2.682-1.688-5.324-.291-61.703-.299-62.27-.299-.879 0-1.643.305-2.217.882-1.194.745-1.77 2.044-1.507 3.425.72 3.789 1.066 7.795 1.092 12.605.0001.259.035.52.104.794.155 1.689 1.402 2.928 3.067 3.03 1.994.117 11.411.236 22.314.373 16.315.205 36.619.461 39.545.812.139.017.273.024.402.024.429 0 .835-.086 1.208-.256 1.406-.399 2.2-1.606 2.029-3.104-.617-5.457-.81-10.267-.587-14.705m-6.205 11.29c-4.643-.182-20-.33-33.73-.463-9.572-.093-18.679-.181-21.748-.261-.087-2.777-.298-5.405-.64-7.976l2.552.003c11.851.015 46.41.058 53.24.167-.031 2.73.075 5.539.323 8.53"/><path d="m25.03 42.02c.036-.706-.134-1.356-.493-1.888-.536-1.01-1.509-1.625-2.682-1.689-5.04-.274-10.07-.298-15.219-.299-.881 0-1.645.305-2.221.882-1.193.746-1.77 2.044-1.507 3.425.72 3.794 1.067 7.799 1.092 12.609.0001.259.036.519.104.791.155 1.689 1.403 2.928 3.067 3.02 5.498.324 10.08.618 14.808 1.185.139.017.273.024.402.024.429 0 .835-.086 1.208-.256 1.406-.399 2.2-1.606 2.03-3.104-.619-5.455-.811-10.265-.589-14.705m-6.209 11.238c-3.01-.289-5.974-.495-8.421-.647-.086-2.786-.297-5.42-.64-7.997 2.534.001 5.596.043 8.743.154-.032 2.719.073 5.515.318 8.49"/><path d="m25.03 67.46c.036-.706-.134-1.356-.493-1.888-.536-1.01-1.509-1.625-2.682-1.688-5.04-.275-10.07-.299-15.219-.3-.881 0-1.645.305-2.221.883-1.194.745-1.77 2.043-1.507 3.425.72 3.792 1.067 7.798 1.092 12.608.0001.259.036.519.104.791.155 1.689 1.403 2.928 3.068 3.03 5.292.312 10.06.615 14.808 1.185.139.017.273.024.402.024.429 0 .835-.086 1.208-.256 1.406-.399 2.2-1.606 2.03-3.104-.62-5.456-.812-10.266-.59-14.705m-6.209 11.237c-3.01-.289-5.974-.495-8.421-.647-.086-2.786-.297-5.42-.64-7.997 2.536.011 5.6.043 8.743.153-.032 2.721.073 5.517.318 8.491"/></g></svg>