<svg xmlns="http://www.w3.org/2000/svg" viewBox="0 0 100 100" enable-background="new 0 0 100 100"><g fill="#1e1e1c"><path d="m81.17 9.773c.002-.256-.039-.482-.097-.695.112-1.253-.624-2.576-2.229-2.534-20.256.531-40.507-.262-60.764-.294-1.686-.003-2.423 1.478-2.215 2.777-.068.226-.114.469-.111.745.306 24.17 1.136 58.901 1.163 83.08 0 .542.154.983.399 1.331.149 1.025.886 1.931 2.217 1.898 12.11-.301 28.565-.829 40.95-1.144.156.016.322.011.494-.013.236-.006.48-.012.713-.018.479-.012.869-.154 1.193-.365 10.192-.893 19.893-6.121 20.321-17.836.018-.501-.098-.915-.298-1.248.044-18.389-1.919-47.28-1.736-65.68m-12.579 62.37c-1.426.008-2.803 1.121-2.166 2.831 1.281 3.439 1.867 7.71-.103 10.999-2.383 3.978-6.634 3.87-10.676 4.38-2.471.311-5.099.146-7.591.217-1.939.055-26.494.653-26.494.749-.057-23.271-.827-57.1-1.138-80.36 18.702.081 37.4.723 56.1.323-.063 17.1 1.609 44.72 1.723 61.817-2.901-.915-5.899-1.302-8.996-1.095-.241.017-.456.072-.658.143m1.827 15.903c1.878-3.2 2.347-7.128 1.371-11.384 2.262.088 4.491.524 6.604 1.42.009.027.015.055.025.081-.686 5.04-3.877 8.138-8 9.883"/><path d="m32.09 37c-3.571 0-3.571 5.591 0 5.591s3.571-5.591 0-5.591"/><path d="m65.866 37h-23.259c-3.571 0-3.571 5.591 0 5.591h23.258c3.572.0001 3.572-5.591.0001-5.591"/><path d="m32.09 24.701c-3.571 0-3.571 5.591 0 5.591s3.571-5.591 0-5.591"/><path d="m65.866 24.701h-23.259c-3.571 0-3.571 5.591 0 5.591h23.258c3.572.0001 3.572-5.591.0001-5.591"/><path d="m31.532 53.776c3.571 0 3.571-5.591 0-5.591s-3.571 5.591 0 5.591"/><path d="m65.866 48.19h-24.643c-3.571 0-3.571 5.591 0 5.591h24.643c3.571 0 3.571-5.591 0-5.591"/><path d="m32.09 61.33c-3.571 0-3.571 5.591 0 5.591s3.571-5.591 0-5.591"/><path d="m65.59 61.33c-6.371-.0001-18.276-.021-24.643-.28-3.572-.145-3.558 5.447 0 5.591 6.366.258 18.272.279 24.643.28 3.571 0 3.571-5.591 0-5.591"/></g></svg>