<svg xmlns="http://www.w3.org/2000/svg" viewBox="0 0 100 100" enable-background="new 0 0 100 100"><g fill="#1d1d1b"><path d="m92.8 31.871c-.396-.444-.979-.74-1.754-.74-5.583.0001-75.23.025-80.81.328-1.023.056-1.711.613-2.072 1.332-.267.372-.419.858-.389 1.458.276 5.498.964 2.944.344 8.409-.146 1.282.587 2.027 1.526 2.262.342.173.757.26 1.263.199 5.452-.653 74.997-.99 80.48-1.313 1.501-.088 2.283-1.25 2.358-2.422.059-.214.102-.441.104-.696.025-4.748-.662-1.443.225-6.114.237-1.252-.4-2.206-1.277-2.703m-79.49 8.07c.041-2.313-.555-3.663-.555-3.663 4.01-.162 72.09-.208 76.11-.216 0 0-.58 1.628.1 2.972-3.868.236-71.801.507-75.65.907"/><path d="m93.73 49.791c-.361-.719-1.049-1.276-2.072-1.332-5.576-.303-75.22-.327-80.81-.328-.775 0-1.358.296-1.755.74-.876.497-1.513 1.452-1.275 2.704.887 4.671.2 1.365.225 6.114.0001.255.044.482.104.696.075 1.173.857 2.334 2.358 2.422 5.479.323 75.03.66 80.48 1.313.506.061.921-.027 1.263-.199.94-.235 1.673-.98 1.527-2.262-.62-5.465.068-2.911.344-8.409.028-.601-.124-1.086-.391-1.459m-5.146 7.146c-3.854-.4-71.787-.671-75.66-.906.68-1.344.1-2.972.1-2.972 4.02.008 72.1.054 76.11.216.0001-.0001-.595 1.349-.555 3.662"/><path d="m92.8 65.871c-.396-.444-.979-.74-1.754-.74-5.583.0001-75.23.025-80.81.328-1.023.056-1.711.613-2.072 1.332-.267.372-.419.858-.389 1.458.276 5.498.964 2.944.344 8.409-.146 1.282.587 2.027 1.526 2.262.342.173.757.26 1.263.199 5.452-.653 74.997-.99 80.48-1.313 1.501-.088 2.283-1.25 2.358-2.422.059-.214.102-.441.104-.696.025-4.748-.662-1.443.225-6.114.237-1.252-.4-2.206-1.277-2.703m-79.49 8.07c.041-2.313-.555-3.663-.555-3.663 4.01-.162 72.09-.208 76.11-.216 0 0-.58 1.628.1 2.972-3.868.236-71.801.507-75.65.907"/></g></svg>