<svg xmlns="http://www.w3.org/2000/svg" viewBox="0 0 100 100" enable-background="new 0 0 100 100"><g fill="#1d1d1b"><path d="m53.49 6.02c-1.26 0-2.574.042-3.845.122h-1.55c-.42 0-.832.09-1.227.27-9.717.194-18.02 5.496-21.715 13.877-3.621 8.221-1.884 17.559-.263 23.868 3.727 14.506 12.203 30.09 23.494 43.39-1.458-.037-2.913-.075-4.353-.114-2.379-.063-4.758-.126-7.138-.182l-.11-.0001c-2.135 0-3.27 1.463-3.287 2.909-.018 1.497 1.127 3.04 3.35 3.091 2.377.056 4.753.119 7.13.183 6.787.18 13.804.367 20.715.367 1.987 0 3.973-.015 5.961-.05 2.221-.039 3.37-1.573 3.356-3.068-.013-1.457-1.153-2.932-3.39-2.932 0 0-.0001 0-.002 0-1.975.035-3.951.05-5.926.05-1.602 0-3.211-.012-4.822-.03 12.05-12.837 20.664-31.28 22.72-48.964.77-6.617.434-16.11-5.534-23.76-4.672-5.99-12.601-9.03-23.564-9.03m22.693 34.714c-2.387 15.962-10.797 32.772-22.03 44.12-8.896-10.215-16.207-22.488-21.17-35.556-3.315-8.727-4.449-16-3.466-22.253 1.346-8.548 8.75-14.519 18.01-14.519.183 0 .366.002.634.008.434 0 .846-.087 1.227-.26h1.04c.197 0 .398-.022.61-.067.823-.035 1.651-.054 2.479-.054 8.801 0 15.04 2.315 19.07 7.079 3.845 4.543 5.058 11.777 3.603 21.502"/><path d="m53.01 15.693c-.19 0-.379.002-.504.008-9.06-.363-15.668 5.408-16.26 14.09-.679 9.941 8.3 17.315 17.11 17.964.389.029.781.043 1.172.043 8.695 0 16.966-6.737 18.06-14.712.55-4-.534-7.693-3.135-10.677-3.557-4.08-10.01-6.716-16.447-6.716m13.04 16.826c-.734 5.34-7.093 8.646-12.618 8.646-6.424-.028-10.25-5.435-10.239-10.647.008-3.979 2.298-8.231 8.7-8.231.121 0 .242.0001.385.005.034.002.068.003.1.002.179-.005.36-.008.542-.008 3.564 0 8.7 1.116 11.443 4.262 1.437 1.648 2 3.658 1.687 5.971"/></g></svg>