<svg xmlns="http://www.w3.org/2000/svg" viewBox="0 0 100 100" enable-background="new 0 0 100 100"><g fill="#1d1d1b"><path d="m77.79 41.45c-.213-.064-.438-.111-.688-.125-.902-.052-1.804-.107-2.706-.16.659.039.932-11.798.864-12.905-.25-4.073-1.059-8.285-2.896-11.959-3.637-7.275-11.227-8.761-18.565-9.201-7.909-.475-16.05.578-21.244 7.373-5.424 7.092-6.578 16.312-6.01 25.01-1.554.042-3.106.076-4.661.151-1.691.081-2.557 1.403-2.606 2.722-.056.207-.095.426-.104.666-.605 15.579-.092 31.18-1.016 46.748-.12 2.01 1.63 2.853 3.174 2.543.269.094.559.161.891.167 18.863.352 37.718 1.01 56.57 1.694 1.707.062 2.571-1.199 2.61-2.519.281-.403.451-.915.438-1.546-.306-15.365-.086-30.741-1.355-46.07-.132-1.635-1.414-2.493-2.698-2.587m-45.22-12.898c.719-3.394 2.073-6.712 4.03-9.584 3.24-4.757 10.08-6.789 16.17-6.785 2.123.0001 4.154.25 5.909.718 7.33 1.952 10.923 7.215 11.294 14.611.208 4.141-.089 8.684-.897 12.754-.04.2-.055.391-.056.577-1.133-.069-2.266-.136-3.399-.205.859-3.997.916-8.01-.822-11.902-2.062-4.614-7.411-6.624-12.04-7.301-.24-.035-.467-.036-.686-.018-.22-.051-.454-.083-.713-.078-4.481.089-8.902 1.285-11.89 4.824-3.085 3.655-3.551 8.653-3.068 13.242-1.479-.014-2.958-.02-4.437-.012-.542.003.415-9.94.606-10.841m27.589 11.766c-6.11-.351-12.22-.659-18.334-.815-.347-3.086-.364-6.247 1.192-9.03 1.655-2.958 5.245-3.654 8.343-3.715.113-.002.21-.025.316-.038 3.422.532 6.686 1.521 8.438 4.75 1.394 2.568.827 5.958.045 8.847m-36.447 46.771c.692-14.03.358-28.09.825-42.12 16.937-.604 33.818.679 50.72 1.67 1.01 13.989.896 28.01 1.146 42.03-17.56-.635-35.12-1.233-52.691-1.576"/><path d="m49.998 52.998c-3.729 0-6.752 3.02-6.752 6.752 0 3.02 1.986 5.58 4.724 6.441-.193 3.934-.22 7.87-.22 11.809 0 2.579 4 2.579 4 0 0-3.933.027-7.864.22-11.792 2.767-.844 4.78-3.415 4.78-6.458 0-3.729-3.02-6.752-6.752-6.752"/></g></svg>