<svg xmlns="http://www.w3.org/2000/svg" viewBox="0 0 100 100" enable-background="new 0 0 100 100"><g fill="#1d1d1b"><path d="m74.22 22.315c-.946-.119-1.904-.18-2.847-.18-8.262 0-14.648 4.417-18.907 8.715-4.098-8.356-10.501-13.722-18.215-15.203-1.199-.23-2.438-.347-3.685-.347-9.277 0-19.323 6.649-23.888 15.811-4.605 9.244-3.104 19.33 4.466 29.979 7.624 10.726 17.14 20.06 26.341 29.08l1.887 1.851c.72 1.367 2.091 2.235 3.571 2.235.614 0 1.221-.147 1.803-.437l3.321-1.651c11.542-5.728 23.478-11.652 34.05-19.488 10.495-7.781 15.05-16.906 13.531-27.12-1.527-10.291-9.959-21.799-21.425-23.24m13.939 28.967c-.374 8.742-10.182 15.01-16.672 19.16-8.846 5.655-18.349 10.428-27.581 15.03-7.488-7.361-15.204-14.975-21.964-23.21-4.886-5.955-12.269-14.954-9.918-23.379 2.124-7.61 9.973-15.759 18.271-15.759.533 0 1.07.035 1.594.103 9.601 1.252 13.783 10.794 15.211 15.18-.062.883.22 1.747.815 2.471.789.96 2.01 1.534 3.276 1.534 1.311 0 2.498-.634 3.26-1.739 2.211-3.21 8.286-10.676 16.925-10.676.91 0 1.833.086 2.742.257 8.484 1.588 14.41 12.417 14.04 21.04"/><path d="m59.22 45.35c-4.1-.516-7.665 1.579-10.271 4.532-1.552-3.684-4.313-6.862-8.432-7.652-4.837-.928-10 2.611-12.11 6.844-2.324 4.664-.853 9.223 2.029 13.277 3.786 5.326 8.54 9.868 13.183 14.43.246.561.908.982 1.62.628 5.936-2.958 11.99-5.839 17.34-9.804 3.996-2.962 6.806-6.842 6.04-11.996-.695-4.678-4.511-9.643-9.398-10.259"/></g></svg>