<svg xmlns="http://www.w3.org/2000/svg" viewBox="0 0 100 100" enable-background="new 0 0 100 100"><path d="m76.3 6.843c-.802 0-1.614.036-2.413.108-8.248.746-15.768 5.755-21.247 14.13-6.355-9.374-16.86-15.393-26.965-15.393-2.221 0-4.421.287-6.539.854-6.544 1.752-11.88 6.624-14.638 13.369-3.056 7.473-2.53 16.226 1.373 22.844 5.361 9.09 14.552 14.637 23.439 20 4.565 2.756 9.286 5.604 13.335 8.868 1.206.971 2.721 2.237 4.02 3.615-1.64 1.617-4.883 6.989-4.914 7.05-1.019 2.144-2.419 6.676-1.202 10.07.52 1.446 1.454 2.494 2.779 3.114.68.318 1.395.479 2.125.479 3.139 0 6.05-2.974 7.933-5.468 3.453-4.567 3.969-9.36 1.535-14.253 4.176-3.778 8.72-7.29 13.12-10.689 7.563-5.846 15.384-11.891 21.606-19.49 3.04-3.713 12.44-16.772 5.796-28.938-3.512-6.433-10.668-10.273-19.14-10.273m-27.19 78.56c-.632 1.207-1.27 2.078-1.934 2.635.134-1.794.817-3.543 1.256-4.506.123-.271.93-1.519 1.511-2.354.182 1.42-.093 2.81-.833 4.225m-7.558-67.22c1.947 1.604 3.668 3.416 5.116 5.382.172.234.437.676.745 1.188 1.777 2.96 3.686 5.85 5.753 5.85 1.025 0 1.893-.721 2.58-2.144 4.384-9.08 11.379-14.491 19.696-15.242.483-.044.974-.065 1.458-.065 6.363 0 11.959 3.725 13.926 9.268 2.591 7.307-1.51 15.966-12.536 26.471-4.735 4.512-9.986 8.568-15.06 12.492-3.985 3.079-8.102 6.26-11.957 9.649-3.467-3.843-8.01-7.06-11.623-9.458-2.141-1.421-4.455-2.812-6.905-4.284-12.04-7.239-25.693-15.443-23.541-30.719 1.23-8.734 7.731-14.378 16.562-14.378.649 0 1.313.031 1.975.095 4.856.462 9.762 2.556 13.814 5.895" fill="#1d1d1b"/></svg>