<svg xmlns="http://www.w3.org/2000/svg" viewBox="0 0 100 100" enable-background="new 0 0 100 100"><g fill="#1d1d1b"><path d="m29.98 20.02c-.135-.124-.275-.219-.417-.299-.697-.762-1.938-1.102-2.942-.232-2.677 2.322-5.091 4.839-7.22 7.674-.031.041-.048.082-.075.124-.593.704-.715 1.708.224 2.455 19.912 15.844 43.562 39.36 60.681 58.18.044.053.079.108.131.159l3.536 3.536c.134.134.274.236.417.322.708.695 1.86.937 2.765.032l5.48-5.48c.149-.149.257-.306.347-.465.827-.684 1.183-1.935.184-2.893-19.726-18.911-42.997-44.615-63.11-63.11m10.78 22.553c-5.548-5.02-11.212-9.888-16.996-14.54 1.294-1.571 2.723-3.03 4.224-4.405 5.31 4.911 10.484 9.967 15.592 15.09-.764 1.461-1.694 2.717-2.82 3.852"/><path d="m12.735 30.859l-6.453.783c-2.561.311-2.079 4.282.482 3.971l6.453-.783c2.561-.311 2.079-4.281-.482-3.971"/><path d="m17.01 18.759c-2.283-1.537-4.467-3.213-6.75-4.75-2.146-1.445-4.146 2.02-2.02 3.454 2.283 1.537 4.467 3.213 6.75 4.75 2.146 1.446 4.145-2.02 2.02-3.454"/><path d="m20.99 5.259c-1.021.598-1.155 1.738-.717 2.736.794 1.813 1.769 3.533 2.75 5.25 1.279 2.239 4.735.225 3.454-2.02-.981-1.717-1.956-3.437-2.75-5.25-.438-.998-1.879-1.219-2.737-.717"/><path d="m33.816 11.07l-1.016 4.126c-.617 2.505 3.267 3.461 3.884.957l1.016-4.127c.617-2.504-3.267-3.461-3.884-.956"/></g></svg>