<svg xmlns="http://www.w3.org/2000/svg" viewBox="0 0 100 100" enable-background="new 0 0 100 100"><g fill="#1d1d1b"><path d="m39.18 12.825c-11.5 0-20.855 9.356-20.855 20.855s9.356 20.855 20.855 20.855 20.855-9.356 20.855-20.855-9.355-20.855-20.855-20.855m0 35.711c-8.191 0-14.855-6.664-14.855-14.855s6.664-14.855 14.855-14.855 14.855 6.664 14.855 14.855-6.663 14.855-14.855 14.855"/><path d="m62.44 55.653c5.431-5.742 8.772-13.481 8.772-21.99 0-5.303-2.208-11.196-3.157-13.484-4.669-11.253-15.356-17.972-28.587-17.972-4.819 0-9.833.92-14.5 2.66-12.629 4.71-17.965 18.672-17.651 30.42.441 16.486 15.03 30.413 31.857 30.413 4.01 0 7.848-.747 11.389-2.099 3.095 6.58 6.383 13.08 9.777 19.51 1.666 3.154 2.949 6.935 5.01 9.841 3.352 4.725 14.12-2.114 17.1-4.601.016-.013.025-.028.04-.041 1.334-.437 2.309-1.849 1.285-3.32-6.912-9.931-14.712-19.212-21.339-29.337m-49.12-20.527c-.257-9.615 3.894-20.962 13.749-24.637 4-1.493 8.292-2.282 12.404-2.282 10.883 0 19.282 5.202 23.05 14.271 1.69 4.073 2.699 8.253 2.699 11.184 0 14.356-11.68 26.04-26.04 26.04-13.661 0-25.503-11.253-25.86-24.573m41.541 26.457c1.409-.795 2.751-1.693 4.02-2.684 2.77 4.174 5.723 8.215 8.731 12.219-2.064 1.269-4.04 2.659-5.959 4.139-2.318-4.531-4.608-9.07-6.79-13.674m14.08 27.993c-1.659-3.336-3.357-6.653-5.059-9.968 2.12-1.678 4.324-3.232 6.645-4.625 2.645 3.496 5.289 6.994 7.833 10.565-2.773 2.108-5.992 3.452-9.419 4.03"/></g></svg>