<svg xmlns="http://www.w3.org/2000/svg" viewBox="0 0 100 100" enable-background="new 0 0 100 100"><path d="m90.13 29.956c-7.532-15.814-24.2-26.745-40.483-25.822-16.283-.923-32.95 10.01-40.482 25.822-3.846 8.07-4.462 17.566-4.764 26.361-.383 11.157-.127 22.419.491 33.56.113 2.038 2 2.892 3.531 2.57 7.655.362 15.304.676 22.969.537 1.202-.022 1.986-.676 2.37-1.521.229-.382.375-.843.372-1.403-.052-9.127-.774-18.211-.108-27.336.356-4.884 1.237-9.903 3.377-14.343 2.468-5.119 6.947-6.905 12.157-6.996.029 0 .058-.0001.086 0 .029 0 .058.0001.086 0 5.211.091 9.69 1.877 12.157 6.996 2.14 4.44 3.02 9.459 3.377 14.343.666 9.125-.056 18.209-.108 27.336-.003.56.142 1.02.372 1.403.385.845 1.168 1.5 2.37 1.521 7.665.138 15.314-.175 22.969-.537 1.531.323 3.418-.532 3.531-2.57.618-11.141.874-22.403.491-33.56-.299-8.795-.916-18.286-4.761-26.361m-79.915 57.09c-.193-3.395-.39-6.855-.546-10.345 6.203.204 12.412.081 18.61.41.094 3.724.253 7.27.329 10.404-6.135.029-12.263-.19-18.393-.469m78.864 0c-6.13.279-12.257.497-18.393.469.073-3.01.222-6.398.317-9.959h18.584c-.149 3.201-.33 6.373-.508 9.49m.727-14.972h-18.717c.027-16.306-2.335-34.08-18.594-35.999-.197-.056-.407-.094-.632-.109-.512-.035-.991-.032-1.482-.041-.243-.008-.483-.019-.733-.02-.249.0001-.49.013-.733.02-.49.001-.97.007-1.481.041-.226.015-.436.054-.633.109-16.11 1.898-18.575 19.368-18.593 35.55-6.243-.328-12.496-.2-18.743-.413-.32-11.198.035-22.552 2.603-33.04 4.261-17.401 20.12-28.8 36.14-28.6.264.065.548.103.872.079.19-.014.38-.018.57-.028.19.011.38.014.57.028.324.024.608-.014.872-.079 16.02-.2 31.876 11.199 36.14 28.6 2.635 10.759 2.942 22.428 2.58 33.904" fill="#1d1d1b"/></svg>