<svg xmlns="http://www.w3.org/2000/svg" viewBox="0 0 100 100" enable-background="new 0 0 100 100"><path d="m94.82 21.17c-.054-1.536-1.063-2.999-3.049-2.933-27.581.907-55.22-2.086-82.63 2.224-2.326.366-2.719 2.551-1.879 4.215.008.03.017.06.025.09-.162.394-.245.851-.207 1.386 1.363 19.03 3.418 38 5.277 56.988.02.204.065.391.114.575-.033 1.608.979 3.199 3.052 3.118 25.682-.999 51.43-.116 77.04-2.638.22-.022.423-.068.62-.123 1.517-.083 3.01-1.092 3.074-3.043.681-19.721-.496-39.4-1.319-59.1-.012-.272-.055-.524-.118-.76m-4.815 37.771c-4.288-6.169-9.135-11.92-14.226-17.48 4.594-3.106 9.02-6.455 13.239-10.11.408 9.195.806 18.388.987 27.585m-3.02-34.27c-10.03 9.105-21.319 16.346-33.462 22.349-12.215-6.083-23.294-14.01-34.673-21.478 22.602-2.416 45.43-.487 68.14-.871m-73.29 5.05c6.084 3.945 12.06 8.06 18.14 12-5.088 8.433-10.648 16.603-14.727 25.51-1.243-12.494-2.459-24.99-3.41-37.511m76.3 48.36c-23.683 2.128-47.48 1.539-71.22 2.325.255-.315.462-.7.595-1.17 3.533-12.55 11.135-23.11 17.817-34.13 4.526 2.793 9.141 5.44 13.941 7.788.056.027.111.038.166.062.906.776 2.2 1.118 3.557.466 5.348-2.57 10.529-5.397 15.535-8.483 7.307 7.908 14.11 16.15 19.445 25.551.081.143.176.257.267.378-.014 2.403-.042 4.806-.103 7.209" fill="#1d1d1b"/></svg>