<svg xmlns="http://www.w3.org/2000/svg" viewBox="0 0 100 100" enable-background="new 0 0 100 100"><g fill="#1e1e1c"><path d="m41.939 27.63c-4.53 0-8.815 1.105-12.734 3.285-6.908 3.842-13.362 13.54-14.386 21.618-.959 7.573 2.074 15.61 8.774 23.24.412.469.836.928 1.263 1.384.13.191.278.356.45.501l.472.477c.265.279.573.486.92.617 5.01 3.714 11.351 5.758 17.882 5.758 6.696 0 13.155-2.206 18.19-6.213 11.264-8.968 13.604-24.593 5.442-36.34-6.138-8.836-16.204-14.326-26.27-14.326m17.954 46.44c-4.03 3.403-9.378 5.277-15.06 5.277-5.825 0-11.55-1.965-15.72-5.394-5.099-5.449-7.976-11.03-9.05-17.57-1.104-6.709 4.957-16.543 10.906-20.526 3.134-2.098 6.633-3.161 10.402-3.161 9.195 0 17.443 6.05 22.1 11.717 7.125 8.673 5.523 21.977-3.571 29.657"/><path d="m93.46 8.07c-.09-.616-.358-1.043-.717-1.322-.37-.38-.877-.65-1.54-.693-6.885-.448-12.09.958-21.754 1.45-1.668.085-1.958 2.029-1.458 3.217.001.514.204 1.042.675 1.513 1.408 1.408 2.819 2.813 4.282 4.162-2.466 2.788-5.01 5.502-7.606 8.169-12.25-8.385-28.2-10.937-41.869-3.333-9.913 5.514-18.544 19.2-19.903 29.928-2.511 19.81 15.293 34.875 15.625 34.969 13.903 10.443 35.955 12.512 50.818.679 16.01-12.743 18.415-34.491 7.519-50.18-.281-.405-.575-.801-.869-1.197 2.673-2.882 5.334-5.774 7.931-8.724 1.613 1.536 3.241 3.057 4.823 4.626.983.975 2.207.796 3.04.119.931-.208 1.637-.926 1.628-2.18-.07-10.03.477-13.62-.625-21.21m-4.348 16.512c-1.052-.992-2.104-1.984-3.13-3-1.341-1.33-3.139-.523-3.764.785-2.206 2.533-4.467 5.02-6.743 7.487-.601.652-1.202 1.303-1.805 1.953-.661.713-1.317 1.431-1.98 2.142-.717.77-.769 1.673-.458 2.43.121.295.295.567.513.801.187.2.403.368.638.499.211.247.426.493.631.743 10.86 13.22 9 34.13-5.304 44.534-12.673 9.216-31.621 8.633-45.545-.215-10.71-11.413-11.54-11.564-13.917-26.01-1.71-10.396 7.446-24.961 16.257-30.859 12.361-8.275 26.994-4.857 38.31 3.109.006-.006.001-.013.017-.019.036.034.071.069.107.103.167.163.338.323.503.488.259.259.57.434.9.542.275.09.563.135.851.122.608.079 1.256-.096 1.822-.665.699-.703 1.37-1.431 2.059-2.143.477-.492.952-.986 1.424-1.482 2.465-2.59 4.892-5.215 7.236-7.919.319-.368.487-.764.557-1.159.361-.761.291-1.678-.556-2.414-1.242-1.078-2.434-2.208-3.609-3.357 7.222-.639 10.458-.416 15.01-.413.713 5.175.152 6.295-.027 13.921"/></g></svg>