<svg xmlns="http://www.w3.org/2000/svg" viewBox="0 0 100 100" enable-background="new 0 0 100 100"><g fill="#1d1d1b"><path d="m8.902 69.64c.005.249.038.491.101.749-.071.941.22 1.899.797 2.6.588.714 1.448 1.139 2.42 1.195 11.457.664 22.709 3.695 33.592 6.626 12.423 3.346 25.27 6.806 38.564 6.807.0001 0 .003 0 .005 0 1.033 0 2.065-.021 3.105-.063 1.01-.041 1.876-.473 2.475-1.222.927-.592 1.454-1.58 1.456-2.747.008-5.225.066-10.54.122-15.68.121-11.131.247-22.641-.123-33.97-.039-1.207-.637-2.217-1.646-2.79-.784-.665-1.741-.945-2.833-.752-2.544.45-5.171.679-7.808.679-.746 0-1.49-.022-2.232-.057.088.242.13.504.103.777-.008.076-.022.148-.03.223-.037.338-.086.669-.135 1-.137.925-.315 1.83-.536 2.719-.083.333-.169.665-.263.995-.094.333-.197.666-.302.997 3.044.154 6.03.075 9.02-.244.246 10.198.137 20.554.032 30.58-.045 4.265-.089 8.529-.108 12.794-.095 0-.189 0-.283 0-13 0-25.722-3.422-38.03-6.731-9.962-2.679-20.253-5.447-30.755-6.441-.069-3.01-.155-6.03-.241-9.04-.341-11.956-.694-24.31.088-36.449 7.961.115 15.344 2.12 22.751 4.772-.016-.357-.038-.713-.034-1.068.004-.348.027-.694.049-1.041.056-.888.159-1.772.31-2.65.057-.333.119-.665.187-.997.025-.121.043-.244.069-.365.048-.224.118-.422.206-.594-8.178-2.811-16.632-5.04-25.554-4.815-.598.016-1.146.168-1.632.455-1.376.244-2.753 1.277-2.903 3.138-1.061 13.14-.672 26.48-.296 39.38.106 3.743.215 7.485.29 11.227"/><path d="m60 34.968c.021.006.042.011.063.017-.004-.069-.005-.138-.009-.207-.013.063-.039.127-.054.19"/><path d="m47.793 30.514c-.054.026-.109.039-.164.059.053.021.105.042.158.062.002-.04.004-.081.006-.121"/><path d="m41.44 28.16c.159 1.375.424 2.667.701 3.808.051.21.102.416.154.615 2.173 8.454 7.357 17.592 14.224 25.07.395.43.913.667 1.458.667.538 0 1.062-.227 1.463-.628.029-.019.057-.039.085-.059.292-.097.562-.261.792-.483 4.278-4.141 7.836-9.606 10.251-15.493.57-1.39 1.082-2.801 1.518-4.227.1-.326.189-.653.281-.98.092-.327.189-.653.274-.981.237-.914.435-1.83.611-2.747.063-.329.13-.658.185-.986.056-.331.099-.661.146-.992.05-.351.107-.702.148-1.052.04-.341.053-.671.078-1.01.355-4.717-.696-8.82-3.101-11.903-2.566-3.289-6.884-4.956-12.833-4.956-.711 0-1.412.024-2.033.064h-.82c-.256 0-.507.049-.75.145-4.599.12-8.612 2.336-10.904 5.924-.342.535-.648 1.099-.909 1.693-.234.531-.424 1.07-.581 1.614-.094.323-.177.647-.246.973-.071.333-.126.667-.174 1-.13.917-.176 1.833-.162 2.732.006.364.021.726.045 1.083.026.371.057.74.099 1.102m4.082-3.422c.024-.349.066-.688.114-1.025.001-.073.013-.15.025-.222.042-.264.095-.522.159-.776.164-.648.407-1.257.707-1.829 1.49-2.843 4.552-4.675 8.191-4.675l.335.004c.26 0 .509-.046.743-.137h.455c.124 0 .249-.012.378-.037.417-.018.838-.027 1.258-.027 4.505 0 7.686 1.17 9.723 3.577 1.795 2.121 2.433 5.457 1.93 9.899-.024.212-.047.423-.077.639-.021.155-.031.3-.055.457-.027.178-.062.357-.092.535-.054.328-.106.656-.169.985-.179.924-.4 1.85-.65 2.775-.088.325-.183.65-.279.975-.096.323-.19.646-.294.968-1 3.099-2.382 6.145-4.051 8.974-1.627 2.757-3.527 5.307-5.627 7.492-4.518-5.282-8.233-11.578-10.777-18.273-.631-1.661-1.106-3.216-1.436-4.682-.033-.145-.058-.286-.088-.429-.081-.391-.159-.781-.218-1.16-.06-.384-.101-.757-.139-1.128-.102-1-.128-1.965-.066-2.88"/><path d="m49.86 30.378c.422.601.918 1.146 1.463 1.642 1.78 1.62 4.12 2.647 6.446 2.819.218.016.437.024.655.024.342 0 .682-.024 1.021-.06.702-.076 1.391-.233 2.06-.453.53-.174 1.045-.389 1.541-.642 1.128-.576 2.148-1.343 2.995-2.247.258-.275.503-.559.727-.857.217-.289.414-.589.594-.897.451-.77.78-1.595.966-2.451.042-.192.086-.385.113-.58.31-2.255-.302-4.336-1.77-6.02-1.998-2.291-5.466-3.713-9.05-3.713l-.248.004c-4.332-.178-7.663 2.18-8.737 5.917-.077.269-.142.545-.196.828-.062.33-.111.667-.139 1.015-.004.044-.012.085-.015.129-.021.315-.021.624-.009.93.046 1.156.332 2.236.792 3.224.227.485.488.952.794 1.388m3.181-3.927c-.084-.367-.131-.739-.136-1.112 0-.028-.004-.057-.004-.085.0001-.303.042-.607.102-.907.315-1.562 1.479-2.975 4.03-2.975l.141-.0001.067.006.335-.006c1.786 0 4.349.548 5.696 2.092.677.776.932 1.687.781 2.784-.091.659-.366 1.253-.767 1.773-.149.192-.317.373-.498.544-.299.283-.635.538-1 .76-.423.256-.882.471-1.362.639-.833.292-1.724.448-2.574.448-2.088-.009-3.604-1.2-4.373-2.746-.193-.386-.337-.795-.433-1.214"/></g></svg>