<svg xmlns="http://www.w3.org/2000/svg" viewBox="0 0 100 100" enable-background="new 0 0 100 100"><g fill="#1d1d1b"><path d="m93.25 10.835c-.483-.309-1.035-.474-1.645-.489-13.569-.341-26.24 4.378-38.468 8.949-11.571 4.324-23.537 8.796-36.08 8.797-.0001 0-.002 0-.004 0-3.03 0-6.04-.263-8.968-.78-1.058-.189-1.986.09-2.739.75-.98.535-1.562 1.502-1.6 2.664-.418 12.84-.276 25.89-.139 38.51.064 5.842.129 11.883.139 17.825.002 1.137.528 2.092 1.449 2.638.564.755 1.414 1.192 2.403 1.232 1.152.047 2.332.071 3.505.071 15.01 0 29.549-3.917 43.609-7.705 12.382-3.335 25.19-6.785 38.25-7.542.939-.054 1.732-.444 2.294-1.126.574-.696.852-1.662.753-2.602.078-.285.117-.544.122-.808.085-4.25.209-8.5.333-12.749.426-14.626.866-29.75-.334-44.63-.148-1.82-1.536-2.809-2.888-3m-3.183 47.936c-.103 3.607-.206 7.214-.287 10.821-12.06 1.076-23.906 4.262-35.37 7.344-14.306 3.847-29.14 7.819-44.28 7.656-.02-5.05-.072-10.1-.125-15.16-.121-11.608-.247-23.607.054-35.414 2.456.29 4.958.437 7.447.437 9.762 0 19.851-2.176 31.75-6.85l3.01-1.186c12.519-4.952 24.349-9.631 37.662-9.684.941 14 .534 28.25.14 42.03"/><path d="m19.49 70.773c-.298.142-.822.298-1.298.423-.569.15-1.148.26-1.725.375-1.069.214-1.67 1.466-1.397 2.46.304 1.106 1.392 1.611 2.46 1.397 1.379-.276 2.701-.594 3.978-1.202.984-.468 1.233-1.856.718-2.736-.584-.998-1.751-1.185-2.736-.717"/><path d="m29.99 66.27c-.942.682-1.987 1.134-3.02 1.548-1.01.405-1.71 1.32-1.397 2.46.265.962 1.447 1.803 2.46 1.397 1.37-.549 2.774-1.08 3.978-1.952.881-.638 1.309-1.727.718-2.736-.511-.871-1.852-1.357-2.737-.717"/><path d="m40.26 58.773c-.992-.581-2.12-.179-2.737.717-.016.024-.135.181-.183.248-.133.161-.271.318-.41.473-.351.388-.724.755-1.094 1.125-.771.771-.771 2.058 0 2.828.77.77 2.058.771 2.828 0 .834-.834 1.643-1.679 2.313-2.655.618-.9.171-2.215-.717-2.736"/><path d="m39.75 49.25c-1.09 0-2 .91-2 2v2c0 1.09.91 2 2 2s2-.91 2-2v-2c0-1.09-.91-2-2-2"/><path d="m39.718 36.07c-1.89.716-3.864 1.807-4.512 3.87-.623 1.982.157 3.956 1.317 5.568.635.883 1.729 1.308 2.737.718.873-.512 1.355-1.85.718-2.736-.429-.596-1.14-1.531-.99-2.243.139-.66 1.2-1.094 1.795-1.319 2.387-.905 1.352-4.773-1.065-3.858"/><path d="m47.47 33.32l-2.25.75c-1.033.344-1.698 1.367-1.397 2.46.277 1.01 1.426 1.742 2.46 1.397l2.25-.75c1.033-.344 1.698-1.367 1.397-2.46-.277-1.01-1.425-1.741-2.46-1.397"/><path d="m59.782 32.571c-1.437-.549-2.996-.801-4.532-.821-2.581-.034-2.577 3.966 0 4 1.205.016 2.341.248 3.468.679 1.02.389 2.192-.422 2.46-1.397.311-1.128-.379-2.072-1.396-2.461"/><path d="m66.51 43.727c.896-.525 1.327-1.831.718-2.736-.633-.941-1.32-1.843-2-2.75-.653-.87-1.715-1.316-2.737-.717-.86.504-1.373 1.862-.718 2.736.68.907 1.367 1.81 2 2.75.607.902 1.751 1.294 2.737.717"/><path d="m69 48.5c-.131-1.082-.811-2-2-2-.991 0-2.131.915-2 2 .355 2.934 1.608 5.445 3.836 7.414 1.924 1.702 4.764-1.116 2.828-2.828-1.372-1.213-2.438-2.722-2.664-4.586"/><path d="m86.01 62.773c-1.014-.672-2.043-1.321-3.068-1.974.715-1.391 1.388-2.806 1.987-4.267.979-2.387-2.892-3.416-3.857-1.063-.448 1.094-.957 2.157-1.493 3.207-1.022-.635-2.044-1.271-3.069-1.902-2.203-1.356-4.211 2.105-2.02 3.454 1.039.64 2.075 1.285 3.112 1.928-.658 1.05-1.342 2.085-2.079 3.085-1.533 2.08 1.941 4.071 3.454 2.02.713-.967 1.37-1.962 1.999-2.972 1.01.643 2.02 1.279 3.01 1.94 2.156 1.429 4.157-2.037 2.02-3.455"/></g></svg>