<svg xmlns="http://www.w3.org/2000/svg" viewBox="0 0 100 100" enable-background="new 0 0 100 100"><g fill="#1d1d1b"><path d="m71.04 13.608c-.561-.782-1.47-1.143-2.408-.978-.502-.107-1.01-.059-1.491.146-8.723 3.721-17.383 7.938-25.758 12.02-8.937 4.352-18.17 8.85-27.498 12.75-.187-.288-.44-.529-.759-.723-1.235-.748-2.76-1.16-4.292-1.16-2.222 0-4.255.843-5.579 2.312-.673.745-.806 1.74-.362 2.629 0 5.645.024 10.747.317 15.986-.027.798.389 1.587 1.112 2.11 1 .724 2.398 1.122 3.937 1.122 1.537 0 3.037-.404 4.113-1.109.201-.132.374-.289.477-.427.039-.032.077-.066.115-.103.881.294 1.764.586 2.647.874-2.336 7.05-1.68 14.358-.725 20.523-.012 1.073.62 1.93 1.647 2.236 2.792.832 5.08 1.422 7.199 1.856.173.036.346.055.515.055.542 0 1.049-.185 1.469-.534.789-.413 1.54-1.298 1.346-2.586-.45-2.993-.638-5.708-.573-8.288 3.525-1.829 6.301-4.496 8.05-7.73 12.699 3.238 24.23 5.102 35.24 5.692l.142.004c.647 0 1.195-.24 1.593-.695.532-.269.93-.712 1.155-1.291 6.087-15.666 9.311-39.39-1.631-54.688m-43.84 52.628c.253-1.18.563-2.29.939-3.359.493.137.987.271 1.481.403l.183.05c-.726 1.092-1.585 2.053-2.603 2.906m-5.107 12.232c-.983-.245-1.896-.486-2.765-.733-.707-4.869-1.209-11.132.759-17.249 1.18.368 2.362.728 3.546 1.081-1.739 4.903-2.232 10.306-1.54 16.901m44.01-35.814c.116 2.645-1.1 5.064-3.213 6.479-.285-2.491-.394-5.245-.332-8.387.025-1.281.086-2.545.181-3.764 2.01 1.117 3.255 3.188 3.364 5.672m4.544-1.226c-.365-4.549-3.085-8.02-7.31-9.359.949-5.629 2.722-10.18 5.274-13.542 9.294 16.07 3.203 37.935.681 45.34-2.604-2.283-4.469-5.616-5.553-9.923 4.568-2.289 7.33-7.265 6.908-12.521m-6.587 23.725c-14.927-1.392-30.524-5.01-50.31-11.651.091-3.066.219-6.998.404-11.02 9.912-4.091 19.7-8.846 29.17-13.444 6.161-2.993 12.52-6.081 18.871-8.967-2.751 5.573-4.179 12.745-4.357 21.859-.138 7.06.858 16.67 6.219 23.22m-56.48-24.617c0-.006 0-.012 0-.017.479-.154 1.371-.211 1.969-.126-.261 5.05-.416 10.186-.541 14.666-.22.026-.527.047-.872.047-.121 0-.225-.003-.312-.007-.225-4.913-.244-9.884-.244-14.563"/><path d="m83.29 19.971c-.794 0-1.614.468-2.092 1.191-.466.707-.541 1.56-.206 2.341 5.058 11.784 4.194 24.298-2.431 35.23-.438.725-.467 1.538-.076 2.231.429.761 1.311 1.272 2.194 1.272.805 0 1.489-.398 1.927-1.122 7.4-12.216 8.287-26.378 2.495-39.876-.346-.808-1.01-1.272-1.811-1.272"/><path d="m92.94 27.477c-.796 0-1.565.37-2.01.967-.407.549-.512 1.243-.296 1.955 2.116 6.958 1.771 13.821-1.026 20.399-.333.781-.255 1.635.212 2.342.479.724 1.299 1.19 2.091 1.19.804 0 1.463-.465 1.808-1.276 3.37-7.927 3.853-15.978 1.436-23.929-.31-1.017-1.16-1.648-2.218-1.648"/></g></svg>