<svg xmlns="http://www.w3.org/2000/svg" viewBox="0 0 100 100" enable-background="new 0 0 100 100"><g fill="#1d1d1b"><path d="m93.62 14.446c.039-.758-.145-1.456-.529-2.024-.574-1.085-1.618-1.745-2.876-1.813-5.754-.313-77.8-.33-80.86-.33-.948 0-1.769.329-2.386.952-1.288.799-1.909 2.194-1.626 3.678.795 4.191 1.179 8.618 1.207 13.933.0001.283.038.558.113.857.163 1.816 1.502 3.148 3.29 3.253 2.217.131 14.716.263 29.19.416 21.39.226 48.01.507 51.23.892.15.018.295.027.435.027.46 0 .896-.093 1.296-.277 1.504-.424 2.354-1.714 2.172-3.316-.685-6.03-.898-11.343-.652-16.248m-6.631 12.578c-5.458-.204-26.12-.37-44.566-.518-13.01-.104-25.375-.204-29.02-.294-.096-3.139-.334-6.104-.724-9l3.529.004c15.885.016 62.46.064 70.41.187-.038 3.079.083 6.247.366 9.625"/><path d="m93.62 43.695c.039-.758-.145-1.456-.529-2.025-.574-1.085-1.618-1.745-2.876-1.813-5.781-.314-80.11-.33-80.86-.33-.948 0-1.77.329-2.386.952-1.288.799-1.909 2.194-1.626 3.678.795 4.191 1.179 8.618 1.207 13.933.0001.282.038.558.113.857.163 1.815 1.501 3.147 3.289 3.253 2.218.131 14.724.263 29.2.416 21.384.226 47.997.506 51.21.892.15.018.294.026.433.026.462 0 .897-.093 1.298-.276 1.504-.425 2.354-1.716 2.171-3.316-.685-6.03-.898-11.342-.652-16.247m-6.631 12.577c-5.458-.204-26.13-.37-44.582-.518-13-.104-25.361-.204-29-.294-.096-3.14-.334-6.104-.724-9.01l3.897.004c15.801.017 62.12.064 70.04.187-.038 3.08.083 6.248.366 9.626"/><path d="m93.62 72.943c.039-.759-.145-1.457-.529-2.025-.574-1.085-1.618-1.744-2.876-1.812-5.745-.313-77.8-.329-80.86-.33-.948 0-1.77.328-2.386.951-1.288.8-1.909 2.195-1.626 3.679.795 4.191 1.179 8.618 1.207 13.934.0001.283.038.558.113.857.163 1.816 1.502 3.147 3.289 3.252 2.219.131 14.733.264 29.23.416 21.375.226 47.978.507 51.19.892.15.018.294.026.433.026.461 0 .897-.093 1.297-.276 1.504-.424 2.354-1.714 2.172-3.316-.685-6.03-.898-11.343-.652-16.248m-6.631 12.578c-5.456-.203-26.11-.369-44.549-.518-13.02-.104-25.392-.204-29.03-.294-.096-3.14-.334-6.104-.724-9.01l4.256.006c15.719.016 61.788.064 69.69.187-.039 3.079.082 6.247.365 9.625"/></g></svg>