<svg xmlns="http://www.w3.org/2000/svg" viewBox="0 0 100 100" enable-background="new 0 0 100 100"><g fill="#1e1e1c"><path d="m94.97 26.347c-1.615-2.806-3.669-5.634-6.086-8.37-.752-.853-1.81-1.021-2.774-.497l-.126.047c-.397.091-.747.287-1.07.598-5.14 4.958-10.887 7.369-17.568 7.369-6.95 0-13.984-2.498-21.432-5.143l-2.181-.772c-6.338-2.23-11.947-3.314-17.15-3.314-8.401 0-15.661 2.843-22.19 8.692-.367.328-.609.714-.722 1.147l-.037.098c-.316.635-.312 1.335.001 2.026 1.069 2.29 2.235 4.745 3.518 7.182l.038.096c.253.886 1.027 1.84 2.133 1.84.37 0 .752-.108 1.134-.323l.279-.148c5.743-3.156 11.948-4.685 18.99-4.685 7.745 0 15.693 1.849 23.38 3.637 1.728.402 3.457.804 5.19 1.188 4.084.905 8 1.363 11.638 1.363 9.193 0 17.334-2.862 24.887-8.751.515-.4.802-.877.854-1.416.056-.572-.168-1.194-.613-1.707l-.098-.157m-5.446 1.236c-5.792 3.938-11.863 5.773-19.11 5.773-7.06 0-14.345-1.768-21.394-3.478-7.081-1.718-13.243-2.553-18.838-2.553-7.106 0-13.375 1.318-19.16 4.03l-.441.207-.218-.437c-.522-1.046-1.036-2.097-1.537-3.154l-.168-.356.307-.247c5.173-4.173 10.814-6.202 17.248-6.202 7.556 0 15.21 2.716 23.314 5.593l.807.286c6.296 2.232 11.788 3.317 16.789 3.317 7.333 0 13.634-2.328 19.264-7.118l.393-.334.322.402c.85 1.062 1.688 2.235 2.564 3.585l.266.41-.405.278"/><path d="m94.97 48.37c-1.614-2.804-3.668-5.632-6.085-8.368-.752-.852-1.806-1.019-2.775-.497l-.125.047c-.397.092-.748.288-1.07.598-5.14 4.958-10.887 7.369-17.568 7.369-6.95 0-13.984-2.498-21.432-5.143l-2.181-.772c-6.337-2.229-11.947-3.313-17.15-3.313-8.401 0-15.661 2.843-22.19 8.692-.367.328-.609.713-.722 1.147l-.038.098c-.316.635-.312 1.335.001 2.027 1.068 2.287 2.234 4.741 3.518 7.182l.038.096c.253.887 1.027 1.84 2.133 1.84.37 0 .752-.108 1.134-.323l.279-.147c5.743-3.156 11.948-4.686 18.99-4.686 7.745 0 15.692 1.85 23.379 3.637 1.728.402 3.458.805 5.191 1.188 4.084.904 8 1.363 11.638 1.363 9.193 0 17.334-2.862 24.887-8.752.515-.4.802-.877.854-1.416.056-.571-.168-1.193-.613-1.706l-.098-.161m-5.445 1.238c-5.792 3.939-11.863 5.773-19.11 5.773-7.06 0-14.345-1.768-21.394-3.478-7.081-1.718-13.243-2.553-18.838-2.553-7.106 0-13.375 1.317-19.16 4.03l-.441.206-.218-.437c-.522-1.047-1.036-2.097-1.537-3.154l-.168-.356.307-.247c5.173-4.173 10.814-6.202 17.248-6.202 7.557 0 15.211 2.717 23.315 5.594l.806.286c6.296 2.232 11.788 3.317 16.789 3.317 7.333 0 13.634-2.329 19.264-7.118l.393-.334.322.402c.85 1.062 1.688 2.235 2.564 3.585l.266.41-.405.278"/><path d="m94.97 70.4c-1.613-2.803-3.667-5.631-6.085-8.367-.752-.853-1.808-1.019-2.775-.497l-.125.048c-.397.092-.748.287-1.07.598-5.14 4.958-10.887 7.369-17.568 7.369-6.949 0-13.983-2.498-21.431-5.143l-2.182-.772c-6.337-2.229-11.947-3.313-17.15-3.313-8.401 0-15.661 2.843-22.2 8.691-.366.328-.608.715-.721 1.148l-.037.097c-.316.635-.312 1.336.001 2.026 1.067 2.286 2.232 4.739 3.518 7.183l.038.096c.253.886 1.028 1.84 2.134 1.84.37 0 .751-.108 1.133-.323l.259-.138c5.765-3.167 11.969-4.695 19.01-4.695 7.746 0 15.694 1.849 23.381 3.637 1.727.401 3.457.804 5.189 1.188 4.084.904 8 1.363 11.639 1.363 9.192.0001 17.333-2.862 24.886-8.751.515-.4.802-.877.854-1.416.056-.571-.168-1.193-.613-1.706l-.1-.163m-5.445 1.239c-5.791 3.938-11.863 5.773-19.11 5.773-7.05 0-14.345-1.769-21.395-3.478-7.081-1.718-13.243-2.553-18.838-2.553-7.106 0-13.375 1.317-19.16 4.03l-.441.206-.218-.437c-.522-1.047-1.036-2.097-1.537-3.154l-.168-.355.307-.248c5.173-4.172 10.814-6.2 17.248-6.2 7.557 0 15.211 2.717 23.315 5.593l.806.285c6.297 2.232 11.788 3.318 16.789 3.318 7.333 0 13.635-2.328 19.264-7.118l.393-.334.322.402c.85 1.062 1.688 2.235 2.564 3.585l.266.411-.405.276"/></g></svg>