<svg xmlns="http://www.w3.org/2000/svg" viewBox="0 0 100 100" enable-background="new 0 0 100 100"><g fill="#1d1d1b"><path d="m82.03 2.216c-.138-.248-.313-.422-.505-.544-.48-.409-1.167-.477-1.756-.174-.994.512-1.893 1.186-2.886 1.698-.477.245-.73.756-.746 1.272-.271.411-.329.946.027 1.498.1.154.2.307.301.461-3.237 3.223-6.522 6.396-9.766 9.612-1.137-1.09-2.276-2.177-3.414-3.266-.655-.628-1.464-.504-2.01-.06-.109.061-.217.134-.329.238-3.79 3.494-7.596 6.974-11.277 10.585-1.95 1.913-4.248 3.496-6.03 5.582-.748.876-1.983 2.101-2.222 3.284-.046.227.132 3.676.663 3.148-1.665 1.655-3.398 3.24-5.064 4.896-.068.068-.121.139-.173.21-.501.419-.726 1.106-.235 1.811 2.01 2.89 4.222 5.625 6.521 8.288.686.794 1.61.549 2.139-.075.017-.001.035-.015.053-.026.563-.351 1.103-.738 1.65-1.111-.509 2.93-1.169 5.828-1.861 8.742-.355.774-.149 1.858.9 2.2 1.516.494 3.067.864 4.584 1.358.318.104.603.099.852.027.611.017 1.201-.307 1.367-1.094.869-4.113 1.891-8.185 3.056-12.224.091-.314.079-.594.006-.841 2.587-2.269 5.194-4.517 7.748-6.816 5.667 6.119 5.056 13.621 1.407 20.523-1.762 3.335-3.652 7.289-6.233 10.07-3.123 3.362-7.442 2.66-11.588 2.7-6.04.058-12.07.347-18.11.273-1.415-.017-1.809 1.55-1.19 2.446-.015 2.095-.149 4.187-.165 6.282-3.202 3.415-6.18 7.02-9.05 10.717-1 .733-.705 2.761.896 2.795 16.697.359 35.443 1.12 52.12-.17.064-.005.121-.021.182-.032 1.074.054 2.197-1.063 1.478-2.267-.491-.822-1.029-1.604-1.588-2.369 2.547-2.255 2.856-5.469.278-7.923-.333-.317-.707-.435-1.065-.418-2.062-.5-4.133-.15-5.679 1.304-.636-.584-1.276-1.163-1.925-1.733v-.356c.099-.256.131-.552.055-.884-.025-.111-.032-.223-.055-.335v-.821c14.234-9.805 23.583-35.507 8.889-48.29 1.351-1.474 2.668-2.983 3.906-4.571.568-.729.379-1.599-.103-2.149-.062-.12-.136-.238-.237-.351-.6-.671-1.229-1.314-1.844-1.969 2.748-2.9 5.447-5.844 7.837-9.05.032.044.063.09.096.134.077.104.161.192.25.269.368.507 1.047.85 1.646.603 1.138-.469 3.18-1.474 4.069-2.338.168-.163.275-.361.348-.571.343-.424.451-1.012.062-1.62-1.879-2.93-4.596-5.544-6.285-8.582m-37.592 45.35c-1.564-1.85-3.087-3.732-4.504-5.697 1.361-1.326 2.746-2.625 4.099-3.96 1.701 2.089 3.386 4.192 5.096 6.274-1.508 1.206-3.068 2.336-4.691 3.383m5.76 10.955c-.626-.186-1.254-.366-1.882-.546.762-3.235 1.48-6.475 1.951-9.768.051-.361-.011-.683-.146-.956.317-.246.644-.479.957-.729.546.646 1.094 1.292 1.651 1.929-.946 3.332-1.786 6.689-2.531 10.07m-19.248 18.997c.015.308 26.361-.677 29.13-.815.062 1.488.255 3.148.255 4.67 0 0 0 .458 0 .458-9.148.628-20.349.332-29.512.274.034-1.529.097-3.057.124-4.587m39.32 8.909c.941 1.127.646 2.107-.362 3.086-.774-.898-1.575-1.774-2.416-2.615.797-.641 1.71-.735 2.778-.471m-.978 7.196c-14.837.976-31.733.445-46.587.09 2.351-2.942 4.783-5.813 7.367-8.557 9.566.046 21.17.389 30.717-.298 3.081 2.692 6.099 5.466 8.503 8.765m-6.174-16.507c.029-.625.072-1.25.13-1.871.103-1.109-.848-1.571-1.707-1.401-.161-.06-.339-.099-.543-.099h-.416c8.369-10.838 15.544-23.82 5.289-34.917 1.471-1.368 2.905-2.773 4.309-4.208 12.55 11.1 4.958 33.1-7.06 42.496m-9.1-31.843c-3.312-3.861-6.44-7.876-9.695-11.785 5.585-6.22 11.723-11.879 17.864-17.539 3.71 3.545 7.426 7.084 10.881 10.881-5.614 6.885-12.384 12.602-19.05 18.443m17.871-24.13c-.99-1-1.988-2-2.999-2.988 2.979-2.954 5.99-5.875 8.97-8.828.621.911 1.241 1.823 1.857 2.737-2.348 3.243-5.074 6.178-7.828 9.08m12.08-9.301c-.038.025-.08.045-.118.069-1.562-2.164-3.03-4.391-4.487-6.629.218-.134.438-.268.654-.404 1.301 2.329 3.638 4.23 5.05 6.494-.025.017-1.065.448-1.098.47"/><path d="m61.44 21.06l5.686 5.685c-.596.921-1.311 1.727-2.186 2.443-.634.518-.535 1.587 0 2.121.621.621 1.489.517 2.121 0 1.353-1.107 2.438-2.501 3.234-4.054.396-.773.089-1.502-.448-1.917-.07-.137-.158-.273-.286-.4l-6-6c-1.369-1.369-3.49.753-2.121 2.122"/></g></svg>