<svg xmlns="http://www.w3.org/2000/svg" viewBox="0 0 100 100" enable-background="new 0 0 100 100"><g fill="#1d1d1b"><path d="m51.19 67.917c6.587.109 12.304-2.831 14.413-9.5.146-.461.166-.882.102-1.264.024-11.245 1.612-22.706.684-33.91-.825-9.959-5.437-18.251-16.1-19.233-.093-.009-.174.003-.263.002-.005 0-.008-.002-.013-.002-8.581-.455-15.03 4.482-16.417 13.03-.038.234-.045.458-.033.673-.04.19-.064.393-.065.609-.126 15.07-6.833 51.723 17.694 49.594m-13.657-28.13c.032.0001.059.009.092.009 2.098 0 4.16-.055 6.237-.374 1.485-.228 2.285-2.069 1.923-3.386-.432-1.571-1.904-2.15-3.386-1.922-1.483.227-3.088.181-4.615.178.075-1.048.162-2.081.254-3.092 1.877-.178 3.757-.211 5.643-.212 3.55-.0001 3.55-5.506 0-5.505-1.709 0-3.414.026-5.115.163.11-1.209.212-2.418.288-3.629 1.601-.214 3.21-.371 4.826-.387 3.548-.035 3.551-5.54 0-5.505-1.437.014-2.866.147-4.29.32 1.461-4.857 5.02-7.223 10.621-6.926.079.004.147-.009.222-.001.019.002.034.008.053.001 4.471.412 7.093 2.817 8.642 6.06h-3.412c-3.55 0-3.55 5.505 0 5.505h5.05c.196 1.18.318 2.384.402 3.578h-5.178c-3.55 0-3.55 5.505 0 5.505h5.332c-.002 1.101-.018 2.202-.043 3.303h-5.289c-3.55 0-3.55 5.505 0 5.505h5.093c-.271 6.077-.678 12.155-.687 18.246-1.089 3.12-6.375 5.286-10.149 5.611-.809.07-1.548.055-2.162-.054-3.845-.678-6.722-3.415-8.093-6.979-1.866-4.858-2.349-10.484-2.26-16.01"/><path d="m71.856 56.13c-2.909 20.711-39.11 18.938-43.41 0-.787-3.461-6.095-1.993-5.309 1.464 2.546 11.197 13.692 17.655 25.23 18.691v14.576c-2.293.071-4.586.125-6.881.133-3.549.013-3.551 5.518 0 5.505 5.694-.021 11.38-.28 17.07-.55 3.534-.168 3.55-5.674 0-5.505-1.56.074-3.12.146-4.679.214v-14.307c11.246-.698 21.608-6.721 23.299-18.758.487-3.471-4.817-4.967-5.309-1.463"/></g></svg>