<svg xmlns="http://www.w3.org/2000/svg" viewBox="0 0 100 100" enable-background="new 0 0 100 100"><g fill="#1d1d1b"><path d="m90.55 9.731c-.716-1.508-2.146-2.668-4.295-2.731-24.423-.714-48.855-.749-73.29-.75-.468-.148-.953-.25-1.464-.25-2.726 0-5 2.274-5 5v1.5c0 .758.19 1.473.503 2.122-.159.488-.252 1.028-.253 1.628-.049 23.258-1.688 46.49-1.25 69.75.009.474.077.909.186 1.314.155 2.358 1.756 4.548 4.814 4.436 26.324-.963 52.664-.756 79-.75 1.784 0 3.072-.766 3.869-1.873.672-.778 1.109-1.817 1.131-3.127.425-24.547-1.725-49.01-3-73.5-.059-1.119-.415-2.039-.955-2.769m-75.08 71.864c-.178-21.789 1.241-43.554 1.287-65.34 21.667.005 43.33.071 64.994.632 1.192 21.363 2.885 42.708 2.806 64.11-23.03-.021-46.07-.119-69.09.599"/><path d="m74.32 39.796c-.417-.113-.829-.153-1.285-.113-12.15 1.027-24.414 1.113-34.955 1.113-2.112 0-4.225-.004-6.337-.008l-5.083-.008c-.347 0-.686.047-1.028.144-1.236-.163-2.475.247-3.236 1.066-.631.678-.926 1.58-.853 2.61l.825 11.545c.161 2.271 1.965 3.422 3.614 3.552.329.084.643.125.956.125 16.754 0 31.879-.041 47.31-.551 1.698-.056 3.02-1.102 3.465-2.738.204-.503.287-1.049.249-1.625-.253-3.807-.273-7.602-.273-11.479 0-1.977-1.38-3.456-3.372-3.633m-45.01 8.485l2.075.003c2.024.003 4.05.007 6.074.007 9.885 0 21.337-.071 32.755-.898.02 1.492.059 2.993.117 4.483-13.964.393-27.752.438-40.733.445l-.288-4.04"/></g></svg>