<svg xmlns="http://www.w3.org/2000/svg" viewBox="0 0 100 100" enable-background="new 0 0 100 100"><g fill="#1d1d1b"><path d="m32.21 39.787l-5.083-.008c-.347 0-.686.047-1.028.144-1.234-.163-2.474.248-3.236 1.066-.631.678-.926 1.581-.852 2.61l.824 11.545c.161 2.271 1.965 3.422 3.614 3.552.329.084.643.125.956.125 16.755 0 31.88-.041 47.31-.551 1.698-.056 3.02-1.103 3.465-2.738.204-.503.287-1.049.249-1.625-.253-3.806-.273-7.602-.273-11.479 0-1.977-1.381-3.456-3.372-3.632-.417-.113-.828-.152-1.285-.113-12.15 1.027-24.414 1.113-34.955 1.113-2.112-.0001-4.225-.005-6.337-.009m-2.435 7.494l2.075.003c2.024.003 4.05.007 6.074.007 9.884 0 21.337-.071 32.755-.898.02 1.488.059 2.989.117 4.483-13.964.393-27.752.438-40.732.445l-.289-4.04"/><path d="m51.15 5.211c-1.981 0-3.995.118-6.01.353-.944.121-1.887.262-2.799.417-.577.09-1.108.262-1.586.51-18.984 2.517-33.515 16.74-36.22 35.514-3.316 22.995 14.11 44.662 38.838 48.3 2.175.32 4.413.482 6.653.482.0001 0 .0001 0 .003 0 22.705 0 42.43-15.434 45.875-35.9 1.985-11.792-2.309-24.734-11.781-35.509-8.03-9.136-19.742-14.168-32.971-14.168m2.63 10.342c8.899.618 16.624 4.298 22.972 10.948 7.457 7.811 10.783 18.795 8.681 28.665-2.675 12.562-15.876 25.277-35.931 25.277-2.328 0-4.62-.204-6.812-.605-18.441-3.383-30.91-20.4-27.795-37.935 2.673-15.04 15.906-25.543 32.18-25.543 1.099 0 2.214.049 3.313.146 1.341.119 2.479-.226 3.39-.953"/></g></svg>