<svg xmlns="http://www.w3.org/2000/svg" viewBox="0 0 100 100" enable-background="new 0 0 100 100"><g fill="#1e1e1c"><path d="m93.14 26.18c-26.12.403-60.36 1.359-86.47.491-1.069-.036-1.682.633-1.862 1.431-.023.068-.053.132-.066.204-.17.897-.239 1.788-.239 2.698-.674 9.572-.529 28.16-.75 37.75-.008.351.063.649.186.904.213.78.815 1.478 1.814 1.596 26.61 3.154 61.37.793 88-.75.475-.028.861-.188 1.16-.429.886-.113 1.66-.743 1.59-1.904-.628-10.38-.666-29.772-.667-40.17 0-1.594-1.525-2.2-2.692-1.824m-85.37 41.29c.182-9.159.082-27.32.726-36.464 0-.096.004-.192.005-.288 25.07.752 58.26-.11 83.33-.514.001 9.132.087 27.26.587 36.38-25.522 1.503-59.15 3.644-84.65.886"/><path d="m58.53 49.1c-2.02-1.614-4.518-2.329-7.07-2.851-.085-2.134-.171-4.268-.266-6.402 1.11.244 2.173.601 3.077 1.019 2.21 1.02 3.401-2.56 1.22-3.567-1.293-.597-2.843-1.062-4.467-1.312-.007-.148-.014-.296-.019-.443-.104-2.403-3.868-2.656-3.763-.228.007.174.015.348.022.522-2.414.194-4.694.999-6.254 2.71-2.874 3.151-.744 8.593 2.974 9.939 1.231.446 2.531.714 3.846.946.1 2.881.162 5.763.2 8.646-1.724-.81-3.292-2.01-4.267-3.07-1.644-1.79-4.468.705-2.822 2.499 1.649 1.797 4.296 3.589 7.118 4.554-.002.384.009.767.007 1.151-.013 2.421 3.749 2.662 3.763.228.0001-.221-.006-.442-.004-.663 1.937.04 3.786-.484 5.28-1.865 3.193-2.947 5.468-8.579 1.422-11.813m-12.485-3.934c-2.397-.6-3.713-3.573-1.043-4.914.739-.371 1.568-.575 2.432-.666.087 1.981.168 3.962.248 5.943-.555-.11-1.103-.229-1.637-.363m8.295 13.11c-.76.515-1.629.731-2.538.74-.031-2.962-.093-5.924-.192-8.884 1.575.363 3.095.877 4.457 1.807 2.27 1.549-.152 5.266-1.727 6.337"/><path d="m93.67 71.5c-28.99 2.486-58.13 3.765-87.17 1.333-2.572-.215-2.551 3.786 0 4 29.04 2.431 58.18 1.152 87.17-1.333 2.55-.219 2.571-4.221 0-4"/><path d="m93.67 77.5c-28.99 2.486-58.13 3.765-87.17 1.333-2.572-.215-2.551 3.786 0 4 29.04 2.431 58.18 1.152 87.17-1.333 2.55-.219 2.571-4.221 0-4"/><path d="m93.67 83.5c-28.99 2.486-58.13 3.765-87.17 1.333-2.572-.215-2.551 3.786 0 4 29.04 2.431 58.18 1.152 87.17-1.333 2.55-.219 2.571-4.221 0-4"/><path d="m20.62 38.22c0-.033.008-.064.005-.097-.1-1.301-.487-2.577-1.516-3.449-1.074-.911-2.484-1.181-3.859-1.051-.109.001-.216.031-.319.058-1.265.133-2.423.606-3.366 1.507-.128.122-.218.253-.29.385-.085.124-.162.257-.221.402-.415 1.016-.513 2.095-.294 3.163-.025.296.034.599.195.868.632 1.06 1.524 1.853 2.538 2.538.071.048.148.084.226.115.113.065.237.122.383.161 1.606.429 3.226.192 4.655-.651.162-.096.286-.21.391-.331.013-.001.026-.018.038-.028 1.01-.883 1.573-2.219 1.439-3.561-.0001-.011-.004-.019-.005-.029m-3.07.889c-.002-.046-.175.291-.208.339.115-.168-.131.092-.233.195-.677.364-1.359.478-2.114.299-.454-.309-.926-.723-1.277-1.208-.007-.045-.009-.09-.021-.135-.123-.483-.072-.898.076-1.358.481-.421 1.054-.606 1.728-.618.084-.002.158-.016.235-.028.495-.009.946.054 1.289.249.166.094.259.221.364.392.129.211.211.555.236.887.0001.008.003.015.004.022 0 .035-.008.068-.004.103.019.182.02.36.012.542-.011-.029-.059.197-.087.319"/><path d="m89.62 37.22c0-.033.008-.064.005-.097-.1-1.301-.487-2.577-1.516-3.449-1.074-.911-2.484-1.181-3.859-1.051-.109.001-.216.031-.319.058-1.265.133-2.423.606-3.366 1.507-.128.122-.218.253-.29.385-.085.124-.162.257-.221.402-.415 1.016-.513 2.095-.294 3.163-.025.296.034.599.195.868.632 1.06 1.524 1.853 2.538 2.538.071.048.148.084.226.115.113.065.237.122.383.161 1.606.429 3.226.192 4.655-.651.162-.096.286-.21.391-.331.013-.001.026-.018.038-.028 1.01-.883 1.573-2.219 1.439-3.561-.0001-.011-.004-.019-.005-.029m-3.07.889c-.002-.046-.175.291-.208.339.115-.168-.131.092-.233.195-.677.364-1.359.478-2.114.299-.454-.309-.926-.723-1.277-1.208-.007-.045-.009-.09-.021-.135-.123-.483-.072-.898.076-1.358.481-.421 1.054-.606 1.728-.618.084-.002.158-.016.235-.028.495-.009.946.054 1.289.249.166.094.259.221.364.392.129.211.211.555.236.887.0001.008.003.015.004.022 0 .035-.008.068-.004.103.019.182.02.36.012.542-.011-.029-.059.197-.087.319"/></g></svg>