<svg xmlns="http://www.w3.org/2000/svg" viewBox="0 0 100 100" enable-background="new 0 0 100 100"><g fill="#1e1e1c"><path d="m53.09 21.613c-.918-.031-1.844-.052-2.77-.052-1.208 0-2.297.035-3.329.106-1.879.129-3.343 1.714-3.333 3.609.03 5.36-.132 11.171-.512 18.286-.104 1.906 1.356 3.581 3.252 3.733 2.02.163 4 .218 5.917.253 1.912 0 3.464-1.496 3.533-3.404.232-6.3.448-12.6.642-18.905.057-1.934-1.468-3.561-3.4-3.626m-2.185 20.904c-.882-.023-1.784-.057-2.692-.108.304-6.01.448-11.1.449-15.82.863-.03 1.827-.034 2.784-.017-.166 5.315-.346 10.63-.541 15.945"/><path d="m69.16 62.56c-.095-.479-.389-1.325-.808-2.047-1.242-2.139-3.156-3.741-5.688-4.763-.404-.163-.825-.246-1.249-.246-1.742 0-3.11 1.35-3.183 3.14-.22 5.474-.447 10.946-.679 16.42-.038.929.282 1.797.902 2.444.607.633 1.432.981 2.32.981.279 0 .561-.036.84-.106 2.696-.685 4.75-1.766 6.102-3.212.946-1.012 1.88-2.322 2.293-5.04.28-1.827-.299-5.396-.8-7.344-.018-.073-.034-.148-.05-.229m-4.091 6.818c-.237 1.562-.626 1.977-1 2.379-.327.35-.807.68-1.41.976.153-3.628.304-7.256.451-10.884.363.354.671.747.921 1.178.107.185.213.467.225.498.033.167.071.336.115.508.504 1.96.812 4.621.7 5.345"/><path d="m36.15 24.45c-6.721 3.575-7.655 8.836-7.258 12.595l.008.117c.015.448.096 1.329.477 2.188 1.107 2.495 3.837 4.083 6.36 5.306.469.228.96.344 1.459.344 1.679 0 3.01-1.308 3.099-3.044.283-5.667.422-10.347.437-14.727.003-.888-.32-1.703-.91-2.295-.932-.937-2.435-1.142-3.672-.484m-.711 14.325c-.802-.538-1.3-1.022-1.488-1.447-.021-.055-.048-.207-.052-.328-.005-.143-.015-.286-.031-.456-.244-2.307.328-4.137 1.823-5.665-.046 2.452-.129 5.05-.252 7.896"/><path d="m52.01 54.32c-2.267-.147-4.107-.306-5.793-.498-2.02-.222-3.74 1.284-3.844 3.249-.213 4.07-.394 8.143-.573 12.215l-.233 5.209c-.083 1.818 1.197 3.445 2.976 3.785 2.113.405 4.24.681 6.323.819.055.004.177.008.231.008 1.875 0 3.408-1.472 3.49-3.354.25-5.919.496-11.838.732-17.757.076-1.9-1.407-3.55-3.309-3.676m-2.353 19.661c-1.01-.103-2.026-.239-3.045-.409l.183-4.064c.155-3.516.312-7.03.488-10.546.927.089 1.91.172 2.983.25-.198 4.925-.402 9.848-.609 14.769"/><path d="m81.07 60.954c-.043-.293-.083-.564-.118-.761-.072-.413-.185-.823-.333-1.222-2.905-7.734-8.852-13.13-16.809-15.287.195-5.336.379-10.672.547-16.01.678.155 1.42.335 2.02.48 1.388.337 2.196.531 2.671.595.542.074 1.085.111 1.614.111 4.251 0 7.414-2.275 8.462-6.086.634-2.305.153-5.062-1.256-7.195-1.215-1.84-2.982-3-4.979-3.275-.878-.12-2.508-.468-4.085-.804-1.446-.309-2.836-.605-3.963-.803.022-.877.045-1.754.065-2.632.041-1.771-.545-3.329-1.694-4.505-1.175-1.202-2.882-1.892-4.684-1.892-3.659 0-6.481 2.701-6.563 6.281l-.045 1.758c-1.325-.013-2.653.008-3.888.062-.005-.084-.011-.159-.016-.221-.359-3.997-3.701-6.088-6.817-6.088-1.833 0-3.532.709-4.662 1.944-.771.844-1.647 2.326-1.444 4.588.041.458.073 1.156.105 1.854-11.5 3.763-18.826 13.262-18.321 23.897.015.308.035.621.051.872.011.163.02.294.022.356.002.134.008.27.019.415.833 11.212 9.772 16.559 17.497 19.09-.23 4.353-.428 8.757-.618 13.03-1.45-.689-2.937-1.438-3.797-1.923-1.344-.756-2.746-1.14-4.17-1.14-3.74 0-7.193 2.814-8.21 6.69-.971 3.706.528 7.191 3.913 9.1 3.152 1.774 7.785 3.896 11.358 5.216-.074 1.198-.152 2.396-.237 3.595-.125 1.788.4 3.367 1.52 4.568 1.143 1.227 2.845 1.93 4.668 1.93 3.137 0 6.461-2.111 6.745-6.149.02-.284.039-.569.058-.854 1.098.146 2.202.264 3.309.351-.006.401-.011.732-.018.867-.075 1.779.485 3.347 1.622 4.533 1.162 1.213 2.867 1.908 4.678 1.908 3.167 0 6.465-2.14 6.641-6.226.001-.233.021-.854.03-1.53 6.823-1.133 12.362-4.271 16.04-9.1 3.736-4.897 4.824-11.43 3.231-19.414-.057-.285-.109-.65-.157-.981m-7.05 17.364c-3.749 4.915-9.312 6.664-13.316 7.265-.24.036-.481.068-.726.098-1.686.208-2.979 1.734-3.01 3.551l-.013.869c-.011.714-.021 1.414-.031 1.66-.057 1.339-1.272 1.442-1.645 1.442-.441 0-.85-.141-1.067-.367-.064-.067-.262-.273-.237-.855.011-.23.021-1.016.031-1.789l.008-.6c.026-1.91-1.448-3.489-3.355-3.596-1.97-.11-3.95-.326-5.89-.642-.19-.031-.379-.046-.563-.046-1.821 0-3.281 1.376-3.396 3.199-.054.848-.107 1.695-.167 2.541-.1 1.427-1.481 1.499-1.757 1.499-.429 0-.815-.13-1.01-.339-.151-.163-.215-.435-.188-.809.105-1.507.202-3.01.293-4.52.103-1.674-.979-3.293-2.572-3.85-3.361-1.177-8.252-3.39-11.377-5.149-1.757-.988-1.801-2.434-1.529-3.471.376-1.435 1.686-2.959 3.373-2.959.554 0 1.132.167 1.717.496 1.513.854 4.622 2.369 6.652 3.245.432.187.88.28 1.333.28 1.711 0 3.062-1.327 3.141-3.088l.102-2.272c.209-4.69.426-9.541.684-14.3.096-1.716-1.033-3.327-2.688-3.832-9.47-2.882-14.332-7.776-14.866-14.955l-.006-.151c-.002-.092-.014-.304-.031-.576-.015-.229-.033-.515-.047-.793-.47-9.891 7.522-16.742 15.652-19.14 1.652-.489 2.793-2.087 2.712-3.801l-.029-.65c-.04-.869-.082-1.784-.133-2.361-.033-.362.02-.621.154-.77.177-.193.559-.318.972-.318.174 0 1.703.043 1.837 1.535.022.251.038.743.056 1.229l.001.274c.065 1.881 1.597 3.354 3.487 3.354.057 0 .184-.004.239-.008 1.375-.093 2.827-.14 4.316-.14.708 0 1.417.001 2.223.031 1.92 0 3.463-1.502 3.513-3.418l.083-3.25c.029-1.262 1.104-1.397 1.565-1.397.457 0 .872.145 1.108.387.07.072.286.292.272.894-.03 1.283-.064 2.566-.099 3.85-.049 1.854 1.358 3.469 3.202 3.677.994.113 2.988.539 4.748.915 1.744.372 3.392.724 4.455.868.699.095 1.19.638 1.48 1.076.608.921.857 2.202.607 3.114-.44 1.601-1.666 2.413-3.642 2.413-.305 0-.621-.022-.938-.065-.27-.04-1.366-.306-2.168-.5-1.981-.481-3.45-.829-4.318-.926-2.038-.222-3.755 1.314-3.817 3.313-.194 6.289-.409 12.576-.642 18.863-.064 1.744 1.179 3.357 2.89 3.752 6.784 1.572 11.853 5.986 14.271 12.426.041.109.071.222.093.339.028.16.059.375.093.607.061.417.129.877.2 1.24 1.302 6.517.528 11.7-2.301 15.406"/></g></svg>