<svg xmlns="http://www.w3.org/2000/svg" viewBox="0 0 100 100" enable-background="new 0 0 100 100"><g fill="#1e1e1c"><path d="m59.975 35.911c-.347-.204-.732-.746-.826-1.159-.443-1.965-1.203-3.741-2.259-5.278-.18-.262-.396-.483-.643-.658-.396-.279-.896-.423-1.1-.474-.073-.09-.206-.333-.298-.671-2.387-8.874-6.87-16.752-13.326-23.417-.474-.49-1.053-.75-1.685-.754-.504 0-.947.174-1.186.268l-.062.028c-.084.015-.17.035-.259.06-11.736 3.355-18.268 14.414-16.254 27.518.189 1.229 1.126 1.97 2.343 1.859.479-.042.943-.217 1.221-.321.072-.027.13-.05.168-.061.139-.038.277-.089.419-.158 4.317-2.089 8.508-1.747 12.206.998.25.186.452.357.568.464.017 1.022.104 2.133.271 3.48.034.281.064.535.082.71-13.13 10.406-21.07 25.36-22.353 42.13-.012.141-.009.272.002.399l.001.175c.011.221.026.521.076.772.047.231.127.46.238.679 4.229 8.328 13.327 12.825 27.813 13.749 1.704.108 3.463.164 5.228.164 9.339 0 19.558-1.554 29.555-4.491.079-.023.154-.051.244-.07.241-.027.742-.085 1.188-.375.35-.229.627-.563.824-.994 4.176-9.08 3.751-20.04-1.195-30.872-4.427-9.693-12.281-18.553-21.01-23.702m-17 5.911c.113-.089.21-.182.261-.244.069-.047.429-.178.906-.227 3.259-.332 7.551-.788 11.854-1.373.465-.063 1.175.084 1.531.298 18.804 11.238 25.995 32.99 20.914 46.26-.139.362-.618.791-1.01.9-9.265 2.608-18.871 3.931-28.551 3.931h-.169c-13.305-.02-22.16-3.414-26.313-10.09-.2-.323-.342-.598-.401-.729 1.172-15.252 8.621-29 20.975-38.725m6.861-13c-.038.061-.112.139-.34.171-.276 0-.585-.204-.703-.465-1.832-4.047-4.375-7.438-7.559-10.08-.479-.398-1.045-.608-1.636-.608-1.109 0-2.184.749-2.556 1.781-.317.879-.046 1.786.725 2.424 2.569 2.13 4.63 4.75 6.123 7.784.049.098.055.191.019.27-.038.085-.124.149-.243.18l-.416.111c-.353.097-.99-.038-1.294-.277-3.149-2.471-6.584-3.724-10.21-3.724-1.553 0-3.146.235-4.735.698-.149.042-.342.098-.346-.22-.094-8.301 4.392-15.11 11.706-17.761.307-.109.849.032 1.074.287 4.912 5.528 8.421 11.95 10.429 19.09.035.123.022.243-.038.338m4.127 6.294c-.054.086-.154.145-.276.16-3.264.42-6.549.767-9.103 1.024-.252 0-.463-.175-.481-.398-.021-.288.232-.625.533-.708 2.597-.711 5.327-1.284 8.115-1.704.031-.005.062-.007.095-.007.321 0 .686.215.796.469.126.292.24.59.343.893.034.1.026.194-.022.271"/><path d="m43.31 78.55c1.533.907 3.457 1.771 5.42 2.431.312.105.565.475.543.791-.063.889-.129 1.778-.206 2.667-.068.8.172 1.523.694 2.094.553.602 1.376.961 2.202.961 1.303 0 2.218-.849 2.331-2.162.073-.861.138-1.722.199-2.583.018-.255.224-.439.529-.439.0001 0 .002 0 .003 0 .408.028.814.043 1.215.043 3.834 0 6.67-1.395 8.2-4.03 2.257-3.895-1.766-8.07-4.17-10.567l-.238-.248c-1.325-1.38-2.714-2.657-4.138-3.952-.3-.273-.565-.891-.558-1.295.045-2.317.083-4.635.119-6.953.004-.227.155-.387.431-.387.003 0 .007 0 .011 0l1.242.174c.648.092 1.269.18 1.845.248 1.852.22 2.981-1.267 3.064-2.656.067-1.143-.568-2.38-2.141-2.567-.513-.061-1.097-.143-1.733-.232-.646-.09-1.345-.188-2.076-.28-.297-.037-.542-.317-.537-.611l.037-1.95c.015-.695-.203-1.292-.628-1.726-.437-.446-1.063-.691-1.766-.691-1.377 0-2.86.961-2.898 2.743l-.025 1.389c-.005.286-.253.536-.552.558-3.276.24-5.448 1.263-6.64 3.128-2.252 3.528 1.524 7.437 3.781 9.771l.251.26c.671.697 1.426 1.439 2.308 2.269.304.285.562.896.552 1.307-.082 3.417-.189 6.484-.328 9.377-.008.139-.097.282-.295.201-1.59-.647-2.875-1.346-3.673-1.818-1.469-.868-3.161-.054-3.615 1.607-.343 1.252.144 2.482 1.24 3.131m6.866-23.456l-.044 2.884c-.443-.485-.834-.937-1.19-1.377-.343-.424-.719-.92-.993-1.466.534-.203 1.13-.348 1.813-.442l.057-.004c.12 0 .199.056.245.102.074.075.114.183.112.303m4.699 21.43c.109-2.156.197-4.313.267-6.471 1.266 1.241 2.273 2.332 3.165 3.427l.1.122c.684.836 1.329 1.626 1.211 2.083-.078.302-.525.624-1.294.933-.84.338-1.858.495-2.985.454-.118-.004-.231-.059-.318-.153-.101-.108-.153-.251-.146-.395"/></g></svg>