<svg xmlns="http://www.w3.org/2000/svg" viewBox="0 0 100 100" enable-background="new 0 0 100 100"><g fill="#1d1d1b"><path d="m93.33 18.639c-.427-.84-1.233-1.492-2.427-1.565-27.848-1.716-55.738-2.575-83.64-2.315-2.02.019-2.938 1.725-2.77 3.28-.067.239-.116.491-.124.772-.538 19.725-.276 39.45.562 59.16-.586 1.478-.144 3.246 1.853 3.533 28.36 4.071 57.02 2.744 85.57 2.708.712-.0001 1.286-.214 1.727-.556 1.015-.342 1.806-1.216 1.746-2.628-.849-20.06-1.426-40.12-1.447-60.2-.0001-1.01-.43-1.733-1.047-2.196m-82.68 57.59c-.757-18.559-.995-37.13-.531-55.699 26.18-.172 52.35.629 78.48 2.195.052 18.578.569 37.15 1.333 55.709-26.42.104-53.03 1.28-79.28-2.205"/><path d="m15.656 22.862c-3.733 0-3.733 5.788 0 5.788s3.732-5.788 0-5.788"/><path d="m83.57 29.807c3.733 0 3.733-5.788 0-5.788s-3.732 5.788 0 5.788"/><path d="m16.813 68.39c-3.733 0-3.733 5.788 0 5.788s3.733-5.788 0-5.788"/><path d="m84.73 70.32c-3.733 0-3.733 5.788 0 5.788 3.732.0001 3.732-5.788 0-5.788"/><path d="m82.22 41.33c-.349-1.199-1.467-1.626-2.398-1.626-.2 0-.403.019-.606.057-1.79.338-3.412.62-5.127.644-1.438.02-2.119.966-2.277 1.845l-.044.146c-.24 1.444-.382 2.974-.443 4.789l-.012.358-.344.104c-1.191.357-2.424.657-3.768.915-1.029.197-1.635 1.173-1.702 2.035l-.028.129c-.599 1.678-1.172 3.189-1.752 4.622l-.333.823-.531-.712c-1.678-2.25-3.274-5.221-4.818-8.095-1.104-2.054-2.147-3.995-3.188-5.629-.569-.895-1.365-1.082-1.932-1.082-1.108 0-2.213.733-2.515 1.67l-.064.13c-.137.199-.231.38-.298.57-.934 2.66-1.872 5.9-2.779 9.03-.869 3-1.767 6.103-2.656 8.676l-.24.693-.558-.477c-.307-.262-.554-.748-.815-1.264-.175-.345-.392-.773-.536-.908-.454-.423-1.065-.655-1.722-.655l-.18-.02c-.582-.171-1.197-.065-1.792.305-.631.392-1.279.952-1.964 1.546-.883.765-1.795 1.556-2.74 2.023l-.321.158-.805-.802c-1.271-1.271-2.585-2.585-4.02-3.73-.544-.437-1.195-.677-1.832-.677-.613 0-1.175.225-1.624.649l-.284.282c-.034.025-.068.05-.101.081-.865.841-1.64 2.119-2.39 3.355-.614 1.012-1.193 1.968-1.837 2.739-.731.876-1.126 2.179-.04 3.206.437.413 1.142.67 1.841.67.381 0 1.088-.082 1.544-.627.447-.535.901-1.369 1.34-2.175.46-.844.937-1.718 1.443-2.327l.343-.412.387.37c.633.604 1.255 1.22 1.877 1.835l1.098 1.083.039.109c.048.138.109.267.182.383.43.695 1.177 1.094 2.048 1.094.436 0 .882-.103 1.291-.296 1.013-.479 2.058-1.287 3.069-2.069.831-.643 1.69-1.308 2.534-1.79l.305-.174.267.228c.471.4.917 1.054 1.348 1.686.378.554.768 1.126 1.118 1.437l.098.087.043.124c.289.835 1.269 1.418 2.384 1.418 1.107 0 1.973-.587 2.318-1.569.909-2.59 1.823-5.76 2.707-8.826.846-2.932 1.72-5.964 2.585-8.468l.328-.95.56.834c.994 1.48 1.981 3.249 3.03 5.12 1.467 2.626 2.984 5.34 4.561 7.299.116.146.245.274.393.395l.101.112c.199.302.458.538.79.723.342.19.785.295 1.246.295.713 0 1.674-.276 2.037-1.055 1.291-2.773 2.497-5.694 3.687-8.932l.093-.254.264-.061c1.398-.321 2.642-.686 3.802-1.116l.168-.053c.98-.124 2.027-.749 2.028-2.131v-.229c0-1.263-.0001-2.57.109-3.859l.034-.406.405-.048c1.41-.168 2.777-.414 3.927-.631.559-.105 1.043-.452 1.365-.976.338-.549.442-1.213.279-1.775"/></g></svg>