<svg xmlns="http://www.w3.org/2000/svg" viewBox="0 0 100 100" enable-background="new 0 0 100 100"><path d="m51.595 11.473c-1.874 0-3.778.112-5.683.334-.894.114-1.783.247-2.64.394-.552.085-1.06.248-1.518.483-17.947 2.389-31.686 15.841-34.25 33.596-3.138 21.753 13.341 42.25 36.733 45.693 2.057.303 4.174.456 6.292.456.0001 0 0 0 .002 0 21.474 0 40.13-14.601 43.39-33.962 1.88-11.157-2.181-23.4-11.141-33.591-7.6-8.643-18.677-13.403-31.19-13.403m2.517 9.985c8.348.589 15.595 4.048 21.553 10.29 7.01 7.343 10.136 17.666 8.16 26.94-2.513 11.805-14.926 23.755-33.785 23.755-2.189 0-4.344-.191-6.404-.569-17.336-3.181-29.06-19.17-26.13-35.655 2.512-14.13 14.949-24 30.25-24 1.032 0 2.081.046 3.116.138 1.274.112 2.366-.211 3.242-.896" fill="#1d1d1b"/></svg>