<svg xmlns="http://www.w3.org/2000/svg" viewBox="0 0 100 100" enable-background="new 0 0 100 100"><path d="m26.592 8.374c-3.207 1.028-2.522 5.466.082 6.05.347.496.861.906 1.566 1.15 16.378 5.667 27.53 20.07 22.21 37.672-5.423 17.962-24.967 24.808-41.998 21.472-.477-.093-.919-.083-1.323.003-2.635-.6-5.346 2.84-2.92 5.162 12.738 12.192 29.345 17.221 46.611 13.298 15.623-3.549 29.623-14.517 37.544-28.313 7.451-12.976 7.847-28.807-.864-41.25-14.03-20.04-39.21-22.2-60.913-15.242m55.33 55.26c-6.919 11.449-18.819 19.772-31.605 23.296-11.904 3.281-23.815 1-33.818-5.269 17.199.144 33.14-8.462 39.582-25.773 6.935-18.646-3.913-35.429-19.962-43.62 17.468-3.555 35.674-.361 46.719 15.414 7.784 11.12 5.763 24.898-.916 35.952"/></svg>