<svg xmlns="http://www.w3.org/2000/svg" viewBox="0 0 100 100" enable-background="new 0 0 100 100"><g fill="#1d1d1b"><path d="m42.863 13.509c.041-.803-.14-1.491-.537-2.045-.615-1.208-1.658-1.877-2.978-1.95-8.97-.488-17.931-.529-27.09-.531-1.012 0-1.866.357-2.47 1.032l-.126.102c-1.443.818-2.125 2.259-1.822 3.852 1.314 6.918 1.947 14.212 1.993 22.955.002.317.049.634.149.997l.017.101c.105 1.628 1.182 3.329 3.35 3.457 9.515.561 18.09 1.107 26.612 2.129.669.08 1.247-.013 1.76-.273l.104-.039c.717-.179 2.357-.841 2.098-3.122-1.119-9.879-1.468-18.6-1.064-26.665m-6.897 22.697c-6.698-.694-13.237-1.131-18.75-1.466l-.46-.028-.001-.46c-.132-6.246-.607-12.04-1.453-17.712l-.085-.575h.581c7.895.016 13.917.123 19.527.35l.492.02-.012.492c-.143 5.972.092 12.133.719 18.835l.057.606-.606-.063"/><path d="m42.863 60.891c.041-.803-.14-1.491-.537-2.045-.615-1.209-1.658-1.878-2.978-1.949-8.977-.489-17.935-.53-27.09-.531-1.012 0-1.866.356-2.47 1.031l-.126.102c-1.443.819-2.125 2.26-1.822 3.854 1.314 6.917 1.947 14.211 1.993 22.954.002.316.049.633.149.996l.017.101c.105 1.629 1.182 3.33 3.35 3.457 9.515.561 18.09 1.108 26.612 2.13.67.08 1.248-.014 1.76-.273l.104-.039c.717-.179 2.357-.841 2.098-3.122-1.118-9.88-1.467-18.602-1.063-26.666m-6.897 22.697c-6.688-.693-13.231-1.131-18.75-1.467l-.46-.028-.001-.46c-.132-6.246-.607-12.04-1.453-17.711l-.085-.575h.581c7.896.016 13.919.123 19.527.35l.492.021-.012.491c-.143 5.973.092 12.134.719 18.835l.057.607-.606-.064"/><path d="m91.14 13.509c.041-.803-.14-1.491-.537-2.045-.615-1.208-1.658-1.877-2.978-1.95-8.97-.488-17.931-.529-27.09-.531-1.012 0-1.866.357-2.47 1.032l-.126.102c-1.443.818-2.124 2.259-1.821 3.852 1.313 6.918 1.947 14.212 1.993 22.955.002.317.049.634.149.997l.017.101c.105 1.628 1.182 3.329 3.35 3.457 9.515.561 18.09 1.107 26.612 2.129.67.079 1.247-.013 1.761-.273l.104-.039c.717-.179 2.356-.841 2.098-3.122-1.121-9.882-1.47-18.603-1.066-26.665m-6.898 22.697c-6.698-.694-13.237-1.131-18.75-1.466l-.46-.028-.001-.46c-.132-6.246-.607-12.04-1.453-17.712l-.085-.575h.581c7.895.016 13.917.123 19.527.35l.492.02-.012.492c-.143 5.972.092 12.133.719 18.835l.057.606-.606-.063"/><path d="m91.14 60.891c.041-.803-.14-1.491-.537-2.045-.615-1.209-1.658-1.878-2.978-1.949-8.977-.489-17.935-.53-27.09-.531-1.012 0-1.866.356-2.47 1.031l-.126.102c-1.443.819-2.124 2.259-1.821 3.853 1.313 6.918 1.947 14.213 1.993 22.955.002.316.049.633.149.996l.017.101c.105 1.629 1.182 3.33 3.35 3.457 9.515.561 18.09 1.108 26.612 2.13.671.08 1.248-.014 1.761-.273l.104-.039c.717-.179 2.356-.841 2.098-3.122-1.12-9.883-1.469-18.605-1.065-26.666m-6.898 22.697c-6.688-.693-13.231-1.131-18.75-1.467l-.46-.028-.001-.46c-.132-6.246-.607-12.04-1.453-17.711l-.085-.575h.581c7.897.016 13.919.123 19.527.35l.492.021-.012.491c-.143 5.973.092 12.134.719 18.835l.057.607-.606-.064"/></g></svg>