<svg xmlns="http://www.w3.org/2000/svg" viewBox="0 0 100 100" enable-background="new 0 0 100 100"><g fill="#1d1d1b"><path d="m30.338 12.272c.039-.763-.145-1.466-.533-2.039-.578-1.093-1.63-1.758-2.897-1.827-5.614-.305-11.223-.331-16.953-.332-.955 0-1.783.331-2.403.959-1.296.804-1.923 2.209-1.639 3.705.803 4.231 1.191 8.701 1.219 14.07.0001.286.038.563.114.864.164 1.83 1.513 3.17 3.312 3.276 5.907.349 11.227.688 16.508 1.321.151.018.296.026.435.026.465 0 .904-.094 1.307-.279 1.515-.426 2.37-1.725 2.187-3.338-.69-6.085-.905-11.45-.657-16.405m-6.679 12.655c-3.409-.331-6.713-.56-9.621-.741-.096-3.184-.337-6.19-.733-9.133 2.878.011 6.385.047 9.988.176-.039 3.101.081 6.293.366 9.698"/><path d="m30.338 41.805c.039-.763-.145-1.466-.533-2.039-.578-1.093-1.629-1.758-2.897-1.827-5.631-.306-11.232-.332-16.954-.333-.955 0-1.782.331-2.403.959-1.296.804-1.923 2.209-1.639 3.705.803 4.231 1.191 8.702 1.219 14.07.0001.282.039.565.114.863.164 1.83 1.513 3.171 3.312 3.276 4.814.284 10.805.637 16.507 1.32.152.018.297.026.438.026.464 0 .903-.094 1.306-.278 1.514-.428 2.37-1.727 2.187-3.34-.69-6.083-.905-11.449-.657-16.402m-6.679 12.654c-3.397-.33-6.706-.56-9.621-.741-.096-3.184-.337-6.19-.733-9.133 3.904.016 7.06.071 9.988.176-.039 3.101.081 6.294.366 9.698"/><path d="m30.338 70.14c.039-.763-.145-1.466-.533-2.039-.578-1.093-1.629-1.757-2.897-1.826-5.624-.306-11.229-.332-16.954-.333-.955 0-1.782.331-2.403.959-1.297.805-1.923 2.21-1.639 3.705.803 4.23 1.191 8.701 1.219 14.07.0001.286.038.563.114.864.164 1.828 1.512 3.17 3.312 3.276 4.814.284 10.805.637 16.509 1.32.15.018.294.026.433.026.465 0 .904-.094 1.308-.278 1.515-.427 2.371-1.726 2.188-3.34-.69-6.083-.905-11.449-.657-16.403m-6.679 12.655c-3.445-.334-6.84-.568-9.621-.741-.096-3.184-.337-6.191-.733-9.134 2.88.011 6.388.048 9.988.176-.039 3.101.081 6.295.366 9.699"/><path d="m60.42 12.272c.039-.764-.145-1.467-.533-2.04-.578-1.093-1.629-1.757-2.896-1.826-5.615-.306-11.223-.332-16.954-.333-.955 0-1.782.331-2.403.959-1.297.804-1.923 2.209-1.639 3.705.804 4.234 1.191 8.704 1.219 14.07.0001.285.038.562.114.864.164 1.83 1.512 3.17 3.312 3.276 5.908.349 11.228.688 16.508 1.321.15.018.295.026.435.026.465 0 .904-.094 1.307-.279 1.515-.426 2.37-1.725 2.187-3.338-.69-6.084-.905-11.45-.657-16.404m-6.679 12.655c-3.408-.331-6.713-.56-9.621-.741-.096-3.184-.337-6.19-.733-9.133 2.878.011 6.384.047 9.989.176-.04 3.1.08 6.292.365 9.698"/><path d="m60.42 41.805c.039-.764-.145-1.467-.533-2.039-.577-1.093-1.628-1.758-2.896-1.827-5.631-.306-11.233-.332-16.954-.333-.955 0-1.782.331-2.403.959-1.297.804-1.923 2.209-1.639 3.705.804 4.234 1.191 8.705 1.219 14.07.0001.285.038.562.114.864.164 1.829 1.512 3.17 3.312 3.275 4.814.284 10.806.638 16.507 1.32.151.018.297.026.438.026.464 0 .903-.094 1.306-.278 1.514-.427 2.37-1.727 2.187-3.339-.691-6.084-.906-11.45-.658-16.403m-6.679 12.654c-3.396-.33-6.706-.56-9.621-.741-.096-3.184-.337-6.19-.733-9.133 3.904.016 7.06.071 9.989.176-.04 3.1.08 6.293.365 9.698"/><path d="m60.42 70.14c.039-.764-.145-1.467-.533-2.039-.578-1.093-1.629-1.757-2.896-1.826-5.625-.306-11.229-.332-16.954-.333-.955 0-1.782.331-2.403.959-1.297.804-1.923 2.209-1.639 3.705.804 4.233 1.191 8.704 1.219 14.07.0001.285.038.562.114.864.164 1.828 1.512 3.17 3.312 3.276 4.814.284 10.806.638 16.509 1.32.15.018.294.026.433.026.465 0 .904-.094 1.308-.278 1.515-.427 2.371-1.726 2.188-3.339-.691-6.084-.906-11.451-.658-16.404m-6.679 12.655c-3.444-.334-6.839-.568-9.621-.741-.096-3.184-.337-6.191-.733-9.134 2.88.011 6.388.048 9.989.176-.04 3.1.08 6.294.365 9.699"/><path d="m91.63 12.272c.039-.764-.145-1.467-.533-2.04-.579-1.093-1.63-1.757-2.897-1.826-5.614-.306-11.223-.332-16.953-.333-.956 0-1.783.331-2.403.959-1.296.804-1.923 2.209-1.639 3.705.803 4.231 1.191 8.701 1.219 14.07.0001.287.038.564.115.865.164 1.829 1.512 3.169 3.312 3.275 5.908.349 11.228.688 16.508 1.321.151.018.296.026.435.026.465 0 .904-.094 1.308-.279 1.514-.426 2.37-1.725 2.187-3.338-.692-6.087-.907-11.453-.659-16.404m-6.679 12.655c-3.409-.331-6.713-.56-9.621-.741-.096-3.184-.337-6.19-.733-9.133 2.878.011 6.384.047 9.989.176-.039 3.104.081 6.296.365 9.698"/><path d="m91.63 41.805c.039-.764-.145-1.467-.533-2.04-.578-1.093-1.629-1.757-2.897-1.827-5.631-.306-11.232-.332-16.953-.333-.956 0-1.783.331-2.403.959-1.296.804-1.923 2.209-1.639 3.705.803 4.231 1.191 8.702 1.219 14.07.0001.282.039.566.115.864.164 1.829 1.512 3.17 3.312 3.275 4.814.284 10.806.638 16.507 1.32.152.018.297.026.438.026.464 0 .903-.094 1.306-.278 1.514-.428 2.37-1.727 2.187-3.339-.691-6.086-.907-11.452-.659-16.402m-6.679 12.654c-3.397-.33-6.706-.56-9.621-.741-.096-3.184-.337-6.19-.733-9.133 3.904.016 7.06.071 9.989.176-.04 3.104.081 6.297.365 9.698"/><path d="m91.63 70.14c.039-.764-.145-1.467-.533-2.04-.578-1.092-1.629-1.756-2.897-1.825-5.624-.306-11.229-.332-16.953-.333-.956 0-1.783.331-2.403.959-1.297.805-1.923 2.21-1.639 3.705.803 4.23 1.191 8.701 1.219 14.07.0001.287.038.564.115.865.164 1.828 1.512 3.169 3.312 3.275 4.814.284 10.806.638 16.509 1.32.15.018.294.026.433.026.465 0 .905-.094 1.308-.278 1.515-.427 2.371-1.726 2.188-3.339-.692-6.087-.907-11.453-.659-16.404m-6.679 12.655c-3.445-.334-6.84-.568-9.621-.741-.096-3.184-.337-6.191-.733-9.134 2.88.011 6.389.048 9.989.176-.04 3.104.081 6.296.365 9.699"/></g></svg>