<svg xmlns="http://www.w3.org/2000/svg" viewBox="0 0 100 100" enable-background="new 0 0 100 100"><path d="m91.27 3.928c-.605 0-1.214.217-1.759.628-3.408 2.566-5.186 5.473-5.594 9.149-.147 1.318-.171 2.63-.195 3.899-.076 4.02-.141 7.489-3.942 9.788-2.36 1.427-5.491 1.634-8.519 1.834-1.345.089-2.736.181-4.03.381-4.02.626-7.636 2.625-11.03 6.101-3.603-2.476-7.923-3.78-12.554-3.78-6.188 0-12.457 2.286-17.663 6.439-.12.064-.24.133-.362.222-1.229.894-2.499 1.773-3.777 2.658-7.896 5.467-16.06 11.12-17.372 21.578-.026.207-.033.413-.021.613-.636 6.598 1.531 13.11 2.884 16.41 3.426 8.365 10.205 14.14 18.13 15.463 1 .167 2.041.251 3.086.251 0 0 0 0 .0001 0 7.829 0 15.15-4.634 19.919-8.521 16.883-13.772 22.23-28.994 15.05-42.862-.762-1.471-1.649-2.843-2.645-4.089 2.969-2.834 6.283-4.239 10.907-4.656 3.972-.358 7.552-.794 11.144-2.511 3.527-1.686 5.939-4.979 6.792-9.272.33-1.661.329-3.371.328-5.02-.002-3.509-.004-6.539 2.866-8.7 1.167-.878 1.615-2.362 1.141-3.78-.444-1.327-1.565-2.219-2.79-2.219m-35.589 66.38c-2.51 3.626-5.991 7.363-10.363 11.125-4.074 3.505-10.348 7.683-17.1 7.683-.888 0-1.775-.073-2.637-.216-8.567-1.424-12.414-11.05-13.669-15.12-1.619-5.249-2.265-12.802 3.852-18.978 2.461-2.485 5.377-4.604 8.197-6.652 1-.729 2.034-1.478 3.047-2.245 6.741 11.145 16.616 19.55 28.671 24.408m-15.606-17.856c-3.066-3.15-5.774-6.721-8.07-10.636 3.487-2.328 7.285-3.554 11.03-3.554 3.046 0 5.979.829 8.55 2.407-4.049 4.306-7.831 8.176-11.513 11.783m18.449-4.088c2.657 5.131 2.755 10.634.295 16.369-5.111-1.94-9.821-4.625-14.02-7.991 3.695-3.625 7.478-7.502 11.518-11.804.845 1.07 1.586 2.219 2.211 3.426" fill="#1d1d1b"/></svg>