<svg xmlns="http://www.w3.org/2000/svg" viewBox="0 0 100 100" enable-background="new 0 0 100 100"><g fill="#1d1d1b"><path d="m93.84 72.917c-.274-.12-.573-.189-.887-.189h-2.44c-.238 0-.464.049-.68.119-.244-.081-.51-.133-.821-.119-5.751.256-11.503.515-17.256.753 1.811-.99 3.541-2.13 5.158-3.452 1.136-.929 2.125-1.96 2.99-3.068 17.449 3.3 19.2-24.59 4.04-25.906-.421-2.127-.959-4.179-1.579-6.087-.36-1.108-1.281-1.57-2.194-1.556-.22-.064-.457-.106-.728-.098-23.14.735-46.29.927-69.44.751-.754-.006-1.308.296-1.67.743-.511.359-.892.92-.957 1.697-.978 11.718-.87 24.646 8 33.501 1.768 1.764 3.854 3.172 6.129 4.319-2.722-.058-5.444-.145-8.166-.251-.11-.015-.217-.033-.337-.033h-5.069c-.347 0-.65.068-.914.181-1.196.214-2.187 1.215-1.633 2.67 2.344 6.161 9.11 8.631 14.991 10.221 9.805 2.649 20.344 2.993 30.439 2.921 9.522-.068 19.18-.772 28.524-2.694 6.887-1.418 14.431-4.197 15.741-11.67.073-.219.122-.449.122-.69.137-1.162-.517-1.843-1.365-2.063m-9.189-27.11c7.55 2.225 7.206 16.974-2.18 16.898 2.297-5.081 2.763-11.1 2.18-16.898m-66.09 21.02c-7.714-6.73-7.572-18.659-6.85-28.25 22.275.152 44.55-.04 66.815-.733 2.972 10.308 3.22 23.1-6.103 30.02-5.384 3.997-12.276 5.658-19.06 6.265-3.619.101-7.239.182-10.858.236-8.368-.349-17.688-2.086-23.942-7.543m56.13 16.825c-7.86 1.356-15.911 1.774-23.876 1.883-8.432.116-16.947-.313-25.25-1.861-3.922-.731-10.34-1.916-13.83-5.123h.511c10.235.424 20.468.471 30.7.315 1.496.056 2.957.08 4.353.081 2.197.0001 4.422-.106 6.645-.325 11.69-.332 23.378-.862 35.06-1.383.265-.012.495-.073.71-.154.075.029.152.052.231.073-2.543 4.465-10.806 5.726-15.259 6.494"/><path d="m66.954 66.44c6.64-5.694 9.11-13.547 7.711-22.09-.469-2.861-4.809-1.643-4.343 1.197 1.145 6.991-1.206 13.12-6.553 17.703-2.209 1.894.993 5.065 3.185 3.185"/><path d="m28.382 18.426c.856 1.488 1.665 2.893 1.985 4.419.3 1.431-.455 2.858-2.309 4.365-.697.566-.958 1.464-.665 2.288.312.877 1.184 1.49 2.121 1.49.506 0 .986-.172 1.387-.498 2.297-1.867 3.541-3.831 3.802-6 .285-2.368-.561-4.454-1.426-6.181-.351-.701-.758-1.408-1.151-2.092-1.89-3.285-2.921-5.442-1.298-7.69.472-.654.542-1.458.187-2.152-.373-.729-1.158-1.199-2-1.199-.712 0-1.361.334-1.781.916-3.29 4.559-.591 9.291.86 11.833l.288.503"/><path d="m39.643 18.426c.856 1.488 1.665 2.893 1.985 4.419.3 1.431-.455 2.858-2.309 4.365-.697.566-.958 1.464-.665 2.288.312.877 1.184 1.49 2.121 1.49.507 0 .986-.172 1.387-.498 2.297-1.867 3.541-3.831 3.802-6 .285-2.368-.561-4.454-1.426-6.181-.351-.701-.758-1.408-1.151-2.092-1.89-3.285-2.921-5.442-1.298-7.69.472-.654.542-1.458.187-2.152-.373-.729-1.158-1.199-2-1.199-.712 0-1.361.334-1.781.916-3.29 4.559-.591 9.291.86 11.833l.289.503"/><path d="m50.903 18.425c.856 1.488 1.665 2.894 1.985 4.42.3 1.431-.455 2.858-2.309 4.365-.697.566-.958 1.464-.665 2.288.312.877 1.184 1.49 2.122 1.49.507 0 .986-.172 1.387-.498 2.297-1.867 3.541-3.831 3.802-6 .285-2.368-.561-4.453-1.426-6.181-.351-.701-.758-1.408-1.151-2.092-1.89-3.286-2.921-5.442-1.298-7.691.472-.654.541-1.458.186-2.152-.373-.729-1.158-1.199-2-1.199-.712 0-1.361.334-1.781.916-3.29 4.559-.591 9.291.86 11.833l.288.503"/></g></svg>