<svg xmlns="http://www.w3.org/2000/svg" viewBox="0 0 100 100" enable-background="new 0 0 100 100"><path d="m81.31 7.3c-.079-1.225-1.104-2.435-2.648-2.037-7.817 2.01-14.651 6.437-20.813 11.529-5.334 4.409-10.284 7.822-16.568 10.75-2.506 1.168-5.171 1.68-7.873 2.167-1.723.31-5.314.399-5.356 2.842-.245 14.329.214 28.655.275 42.984-.133-.033-.266-.067-.417-.075-5.409-.293-10.704 1.236-13.974 5.768-2.426 3.363-2.601 8.235-.456 11.758 2.447 4.02 7.307 4.764 11.541 3.638 7.989-2.125 12.713-9.375 15.855-16.52.153-.347.206-.686.193-1.01.057-.196.098-.404.098-.641v-21.383c0-4.543-1.097-7.375 3.606-9.279 2.46-.996 4.907-2.024 7.348-3.067 4.89-2.088 9.915-4.978 15.03-6.411.994 6.299.583 13.186.793 19.582.212 6.454.92 13.188.476 19.619.056-.805-8.04-.64-11.229 2.212-3.599 3.222-4.694 7.263-2.244 11.398 1.901 3.207 5.419 5.586 9.11 6.106 4.925.694 9.349-1.636 12.499-5.336 1.771-2.081 3.124-4.459 4.238-6.944.118-.263.172-.52.192-.771.054-.183.094-.377.1-.593.724-26.07.682-49.05.57-75.12-.0001-.472-.134-.857-.342-1.167m-4.499 76.12c-1.947 4.161-4.838 8.506-9.41 9.551-2.77.633-5.763-.585-7.801-2.727-.831-.873-1.441-1.94-1.743-3.119-.179-.697-.067-.096-.104-.629-.009-.134.027-.736.011-.775.05-.274.123-.544.213-.807.0001-.003.0001-.003.002-.006.014-.025.029-.053.055-.105.078-.156.171-.303.264-.449.075-.119-.0001-.043.353-.412.42-.439.236-.264.649-.544.829-.561 1.405-.754 2.356-1.024 2.718-.772 5.672-.614 8.45-.351.331.031.619-.006.87-.092.974-.102 1.863-.779 1.839-2.047-.292-14.926-.852-29.845-1.426-44.762-.058-1.52-1.393-2.199-2.556-2.038-.304-.004-.622.052-.947.192-9.885 4.25-19.691 8.685-29.711 12.614-.636.249-1.043.696-1.256 1.21-.194.306-.317.68-.314 1.137.018 2.949.265 5.89.285 8.838v21.383c0 .041.001.076.012.116-2.471 5.494-5.731 10.993-11.499 13.407-2.686 1.125-6.367 1.612-8.23-1.15-1.461-2.166-1.042-4.997.245-7.122 2.14-3.532 6.746-4.172 10.492-3.969.239.013.449-.017.646-.065.16.039.324.065.494.065h1.141c.203 0 .397-.039.584-.094.961-.116 1.841-.794 1.839-2.044-.019-14.235-.481-28.467-.311-42.702 9.153-1.832 16.21-4.139 23.23-10.38 6.836-6.08 13.163-11.401 21.854-14.391.106 25.457.132 47.832-.572 73.29" fill="#1d1d1b"/></svg>