<svg xmlns="http://www.w3.org/2000/svg" viewBox="0 0 100 100" enable-background="new 0 0 100 100"><path d="m91.96 54.19c-11.367-3.944-17.02-14.15-22.425-24.15-3.725-6.895-7.686-13.955-13.543-19.289-2.93-2.668-6.06-4.453-9.877-5.502-1.807-.496-10.458-2.244-10.23 2.086.567 10.732.502 21.484.289 32.22-.106 5.344-.252 10.687-.375 16.03-.109 4.725.439 9.904-.319 14.57.106-.651-8.407-1.568-9.118-1.584-3.375-.079-6.799.408-9.918 1.741-7.859 3.359-9.672 12.145-4.113 19.03 10.416 12.91 28.19 6.214 37.979-3.576.143-.143.261-.291.361-.441.422-.413.714-.985.742-1.734.587-15.856.406-31.717.357-47.578 10.121 9.13 18.651 20.287 32.735 22.919.346.196.755.323 1.246.33 1.422.02 2.728.311 4.143.598 1.034.209 2.083-.107 2.711-.879 1.535-1.017 1.688-3.994-.645-4.804m-40.959-25.561c-2.223-1.727-5.227.673-4.418 2.686.014 17.06.281 34.12-.311 51.17-7.634 7.42-20.346 13.302-29.24 4.406-2.171-2.171-3.693-5.636-2.187-8.573 1.971-3.845 7.369-4.655 11.583-4.841 3.723.018 7.181 1.262 10.393 3.388 1.901 1.258 3.704-.419 3.79-2.196.061-.224.104-.462.104-.729 0-16.71.855-33.408.778-50.12-.021-4.577-.653-9.431-.25-13.966.052-.586 6.822 1.802 7.319 2.059 2.447 1.265 4.656 3.046 6.539 5.05 6.661 7.07 10.443 16.362 15.503 24.539 2.2 3.555 4.73 7.02 7.712 9.967-10.61-5.102-17.888-15.514-27.315-22.84" fill="#1d1d1b"/></svg>