<svg xmlns="http://www.w3.org/2000/svg" viewBox="0 0 100 100" enable-background="new 0 0 100 100"><g fill="#1d1d1b"><path d="m87.38 13.663c.707 4.245 3.246 11.99 1.232 16.733-3.18-6.962-12.611-10.659-19.864-10.66-.366 0-.68.078-.949.207-7.722.969-14.07 6.301-15.52 13.5h-5.092c-1.484-8.927-12.547-13.707-20.795-13.708-.366 0-.68.078-.949.207-6.601.828-12.199 4.846-14.595 10.489-1.601-5.04.23-11.181.796-16.263.308-2.769-4.02-2.739-4.324 0-.878 7.885-3.238 16.12 2.301 22.754.019.884.084 1.78.251 2.699 1.794 9.832 12.527 13.564 21.22 12.31 7.559-1.09 14.765-6.438 16.05-14.165h4.844c.044.61.121 1.229.236 1.855 1.794 9.832 12.527 13.564 21.22 12.31 7.73-1.115 15.11-6.676 16.15-14.688.056-.429.084-.849.1-1.263 6.381-5.715 3.075-16.1 1.848-23.468-.456-2.744-4.622-1.575-4.169 1.151m-55.759 33.774c-6.071 1.617-12.553-.157-16.14-5.449-5.369-7.918 2.352-16.992 10.482-17.8.214-.021.405-.075.587-.141 7.455.053 16.282 3.867 16.431 12.443.102 5.949-6.423 9.633-11.359 10.947m42.36 0c-6.071 1.617-12.553-.157-16.14-5.449-5.369-7.918 2.353-16.992 10.482-17.8.214-.021.405-.075.587-.141 7.455.053 16.282 3.867 16.431 12.443.103 5.949-6.423 9.633-11.359 10.947"/><path d="m89.82 62.66c-.24.092-.478.223-.703.42-7.375 6.473-15.358.5-22.712-2.789-5.667-2.534-11.397-3.177-16.697.201-5.3-3.378-11.03-2.735-16.697-.201-7.354 3.289-15.338 9.262-22.712 2.789-.225-.198-.463-.329-.703-.42-1.345-.728-3.348-.147-3.168 1.768 1.969 20.857 29.534 25.318 43.28 12.728 13.746 12.59 41.31 8.129 43.28-12.728.18-1.915-1.823-2.496-3.168-1.768m-38.05 10.469c-.271-.734-.912-1.315-1.933-1.315-.048 0-.088.011-.134.014-.046-.003-.086-.014-.134-.014-1.021 0-1.662.581-1.933 1.315-9.582 9.703-30.612 9.274-35.803-4.03 4.271 1.853 8.813 1.474 13.72-.529 7.313-2.986 14.959-9.354 22.653-3.901.524.371 1.039.45 1.498.346.459.104.974.026 1.498-.346 7.693-5.453 15.339.916 22.652 3.901 4.907 2 9.449 2.381 13.72.529-5.193 13.299-26.22 13.728-35.804 4.03"/></g></svg>