<svg xmlns="http://www.w3.org/2000/svg" viewBox="0 0 100 100" enable-background="new 0 0 100 100"><g fill="#1e1e1c"><path d="m79.8 44.3c2-2.717 3.758-6.705 3.78-6.766.19-.503.169-1.062-.059-1.55-.227-.488-.642-.863-1.149-1.042-.297-.104-.616-.221-.952-.344-1.704-.622-3.735-1.363-5.728-1.652.736-2.698.759-5.708.606-7.324-.051-.541-.319-1.038-.744-1.376-.424-.339-.971-.492-1.507-.419-2.118.278-4.725.665-7.279 1.293-.042-.282-.084-.567-.127-.857-.315-2.142-.642-4.356-1.481-6.461-.345-.864-1.231-1.381-2.162-1.236-2.626.404-4.738 2.166-6.602 3.72-.138.115-.273.228-.408.34-.957-1.51-1.966-2.989-2.95-4.432-.388-.569-.774-1.136-1.157-1.703-.372-.551-.993-.882-1.658-.882s-1.287.331-1.658.882c-.548.812-1.054 1.667-1.544 2.495-.795 1.344-1.547 2.613-2.433 3.665-.081.096-.15.177-.209.244-.215-.113-.448-.246-.569-.315-1.824-1.04-3.757-2.549-5.521-3.928-.871-.679-2.127-.526-2.808.345-.337.431-.469.958-.41 1.461-.066.485-.328 1.67-.78 3.53-.089.365-.148.62-.161.686-.087.452-.149.885-.207 1.291-.057.399-.13.919-.212 1.19-.121.012-.358.015-.61-.008-1.394-.125-2.92-.502-4.396-.867-.81-.2-1.614-.398-2.404-.562-.656-.135-1.342.068-1.819.544-.476.476-.681 1.159-.545 1.819.039.189.115.708.221 1.405.376 2.489.669 4.311.943 5.651-2.669.405-5.863 1.463-6.985 1.889-.615.233-1.065.768-1.222 1.406-.157.639.022 1.327.46 1.819.502.564 3 4.058 4.086 5.84-1.711 1.609-3.818 3.1-6.05 4.268-.589.309-.986.89-1.06 1.551-.074.661.187 1.316.693 1.746.806.684 1.905 1.197 3.069 1.741 1.037.484 2.872 1.342 3.338 2.046-.594 1.363-2.917 4.97-3.821 5.911-.521.241-.936.706-1.094 1.306-.28 1.068.357 2.162 1.426 2.443.0001 0 .003 0 .004.0001.762.199 1.844.301 3.096.418 1.209.114 3.552.334 4.573.701-.064 1.663-.81 5.636-1.24 6.77-.377.436-.564 1.031-.462 1.644.184 1.09 1.214 1.819 2.305 1.641.944-.159 1.958-.521 3.03-.903 1.321-.472 2.819-1.01 3.898-1.01.316 0 .567.047.676.093.626.598.905 3.77 1.024 5.124.086.979.16 1.825.297 2.491.19.93 1.01 1.598 1.959 1.598.702 0 .702 0 3.617-2.287.681-.535 1.271-.998 1.363-1.068.685-.512 1.877-1.421 2.444-1.247.81.831 3.211 4.145 3.716 5.31-.0001.674.339 1.332.955 1.71.326.2.687.295 1.043.295.673 0 1.33-.339 1.707-.955.0001-.0001.002-.003.003-.004.384-.627.744-1.389 1.125-2.194.803-1.698 2-4.231 3.232-4.422 1.053.373 4.242 2.2 5.168 3.087.16.598.595 1.113 1.217 1.352 1.026.393 2.188-.12 2.583-1.152l.0001-.0001c0-.0001 0-.0001 0-.002.074-.193.25-.66 1.116-5.04.173-.873.314-1.591.429-2.184.166.045.334.091.504.137 2.01.549 4.293 1.17 6.355 1.17.0001 0 .0001 0 .0001 0 .326 0 .645-.015.953-.047 1.071-.109 1.863-1.049 1.791-2.123-.031-.466-.271-1.673-1.026-5.31-.155-.749-.329-1.585-.474-2.294.358-.105.713-.212 1.063-.317 2-.604 3.895-1.174 5.8-1.229.67-.02 1.286-.374 1.64-.943.354-.569.399-1.277.12-1.888-.959-2.097-2.433-4.197-3.891-6.142.553-.361 1.224-.818 2.043-1.395 3.806-2.674 4.153-3.279 4.34-3.604.458-.796.314-1.802-.347-2.438-1.728-1.666-3.822-2.942-5.893-4.146m-3.57 8.995c-.273.061-.539.181-.776.361-.879.67-1.048 1.925-.379 2.803l.312.41c1.058 1.386 2.207 2.891 3.162 4.379-1.275.269-2.507.64-3.715 1-.925.278-1.799.542-2.682.759-1.893.463-1.544 2.208-1.264 3.611.154.771.37 1.812.594 2.885.156.753.347 1.672.517 2.506-1.147-.194-2.399-.535-3.623-.868-.967-.264-1.881-.513-2.756-.694-1.083-.227-2.138.47-2.364 1.55-.02.096-.032.191-.038.287-.086.569-.563 3.075-.993 5.211-2.107-1.397-4.747-2.685-5.788-2.698-3.134 0-4.933 2.641-6.219 5.158-1.314-1.946-2.909-3.915-3.586-4.304-.694-.399-1.448-.602-2.241-.602-1.948 0-3.607 1.241-4.7 2.058-.05.038-.455.354-.986.771-.293-2.896-.83-5.829-2.989-6.936-.749-.384-1.613-.578-2.57-.578-1.42 0-2.887.423-4.252.89.581-2.663 1.099-6.156.179-7.372-1.127-1.488-3.396-1.915-6.697-2.252 1.448-2.079 3.339-5.126 3.11-6.568-.414-2.61-2.91-3.971-5.128-5.02 1.838-1.242 3.521-2.651 4.907-4.121 1.351-1.432.187-3.137-1.928-6.231-.379-.554-.812-1.174-1.236-1.766 1.702-.494 3.66-.95 4.854-.95.272 0 .384.027.388.028 1.069.265 2.158-.38 2.427-1.453.161-.639-.006-1.284-.395-1.757-.306-.905-.754-3.613-1.047-5.488 1.439.353 2.918.69 4.413.824.266.024.511.035.739.035 3.745 0 4.173-3.02 4.403-4.639.049-.346.101-.714.17-1.078.017-.075.062-.262.124-.517.098-.401.188-.773.271-1.12 1.096.808 2.235 1.589 3.382 2.242 1.073.611 1.847 1.012 2.776 1.012 1.494 0 2.39-1.063 3.043-1.84 1.03-1.225 1.862-2.597 2.657-3.938 1.18 1.734 2.369 3.512 3.412 5.291.28.477.744.816 1.282.938.537.121 1.103.017 1.562-.292.822-.555 1.623-1.222 2.397-1.868 1.01-.84 2.037-1.699 3.058-2.256.29 1.181.476 2.439.667 3.744.155 1.051.315 2.137.537 3.201.116.553.46 1.031.946 1.316.487.286 1.071.352 1.611.182 2.116-.665 4.522-1.121 6.588-1.44-.079 2.176-.533 4.552-1.366 5.759-.478.692-.471 1.61.017 2.295.488.686 1.354.992 2.163.768.25-.069.554-.104.902-.104 1.409 0 3.242.565 4.826 1.123-.955 1.753-2.362 4.147-3.053 4.968-.391.161-.733.447-.963.84-.554.948-.24 2.165.702 2.727.497.296 1.01.593 1.528.893 1.393.805 2.817 1.629 4.077 2.538-1.647 1.236-4.095 2.924-4.969 3.386"/><path d="m88.75 42.593c.596-.84 1.302-1.958 2.175-3.44 1.382-2.348 2.922-5.232 3.231-6.05.19-.503.169-1.062-.058-1.55-.228-.488-.642-.864-1.149-1.042-.4-.141-.829-.297-1.28-.462-2.476-.903-5.477-1.999-8.311-2.271 1.103-3.485 1.265-7.715 1.022-10.301-.051-.541-.319-1.038-.744-1.376-.426-.339-.971-.495-1.507-.419-3.01.395-6.768.956-10.373 1.896-.099-.614-.19-1.24-.285-1.882-.415-2.825-.846-5.747-1.939-8.489-.345-.865-1.237-1.378-2.162-1.236-3.324.512-6.072 2.803-8.496 4.824-.389.324-.77.641-1.143.944-1.388-2.226-2.873-4.404-4.32-6.526-.524-.77-1.049-1.538-1.566-2.306-.371-.552-.993-.882-1.658-.882s-1.287.331-1.658.882c-.722 1.07-1.395 2.206-2.045 3.304-1.077 1.82-2.096 3.54-3.315 4.989-.311.369-.512.589-.643.719-.364-.16-.959-.499-1.247-.663-2.489-1.417-5.1-3.458-7.464-5.305 0 0 0 0-.0001-.0001-.868-.679-2.097-.501-2.776.37-.664.85-.503 2.091.316 2.782h-.0001c-.608-.475-.745-1.134-.732-1.416-.021.467-.385 2.16-1.083 5.03-.113.466-.19.792-.207.879-.114.593-.195 1.161-.271 1.693-.31 2.186-.31 2.186-1.26 2.186-.176 0-.364-.001-.568-.028-1.915-.172-3.979-.683-5.977-1.176-1.075-.266-2.144-.529-3.192-.747-.657-.134-1.343.068-1.819.544-.476.476-.681 1.159-.545 1.818.054.258.158.965.301 1.914.582 3.854 1.015 6.455 1.408 8.226-3.612.427-8.329 1.987-9.914 2.589-.618.235-1.075.767-1.229 1.411-.154.644.026 1.329.472 1.818.772.848 4.528 6.148 5.812 8.379-2.398 2.337-5.42 4.507-8.627 6.185-.59.309-.987.89-1.062 1.552-.073.661.188 1.316.695 1.747 1.01.854 2.438 1.521 3.951 2.229 1.891.884 4.437 2.073 4.919 3.325-.612 1.687-4.198 7.272-5.455 8.489-.573.226-1.035.712-1.204 1.354-.28 1.068.357 2.162 1.426 2.443.966.254 2.389.387 4.04.542 1.864.175 5.596.525 6.731 1.149.064 2-1.116 8.347-1.753 9.868-.428.441-.647 1.074-.537 1.728.183 1.088 1.199 1.818 2.304 1.64 1.204-.203 2.533-.677 3.94-1.179 1.818-.648 3.88-1.383 5.438-1.383.538 0 .964.085 1.304.259 1.041.533 1.491 5.647 1.64 7.328.113 1.291.212 2.405.387 3.257.191.93 1.01 1.598 1.959 1.598.708 0 .708 0 4.544-3.01.87-.684 1.603-1.259 1.711-1.341 1.228-.919 2.938-2.241 4.056-1.699 1.056.996 4.676 6 5.263 7.543-.048.718.295 1.438.951 1.84.326.2.687.295 1.043.295.673 0 1.33-.339 1.707-.955.002-.003.003-.005.005-.008.493-.807.967-1.808 1.467-2.866 1.235-2.613 2.918-6.174 5.01-6.31 1.357.402 6.286 3.217 7.442 4.467.118.669.574 1.262 1.255 1.522 1.028.393 2.188-.12 2.583-1.152.085-.22.309-.805 1.462-6.639.308-1.56.54-2.732.708-3.627.449.118.911.244 1.383.373 2.647.722 5.648 1.539 8.314 1.539.0001 0 .0001 0 .0001 0 .413 0 .815-.02 1.206-.06 1.071-.109 1.863-1.048 1.791-2.123-.04-.612-.445-2.606-1.36-7.01-.255-1.226-.545-2.621-.757-3.677.679-.194 1.35-.396 2.01-.595 2.723-.82 5.293-1.595 7.932-1.672.67-.02 1.285-.373 1.64-.942s.399-1.278.121-1.888c-1.35-2.952-3.499-5.938-5.564-8.667.821-.521 1.896-1.241 3.319-2.242 4.966-3.49 5.415-4.271 5.606-4.603.458-.796.315-1.803-.348-2.44-2.433-2.341-5.454-4.113-8.395-5.815m-3.562 12.458c-.303.054-.598.179-.859.378-.879.669-1.049 1.924-.38 2.803.0001 0 .0001 0 .0001 0l.422.553c1.619 2.122 3.396 4.452 4.777 6.735-2.02.354-3.965.939-5.864 1.512-1.246.375-2.422.729-3.631 1.026-1.888.476-1.558 2.126-1.176 4.04.206 1.03.494 2.418.792 3.851.282 1.361.622 2.997.882 4.291-1.823-.21-3.871-.768-5.866-1.312-1.285-.351-2.499-.681-3.65-.919-1.079-.225-2.14.471-2.363 1.552-.021.104-.035.208-.04.312-.115.809-.912 4.963-1.543 8.04-2.799-1.985-6.825-4.055-8.195-4.072-4.225 0-6.551 4.095-8.228 7.565-1.779-2.785-4.276-5.973-5.217-6.515-.824-.474-1.72-.714-2.66-.714-2.382 0-4.409 1.517-5.887 2.622-.081.061-.855.668-1.781 1.395-.16.126-.325.255-.492.386-.363-4.068-.876-8.494-3.749-9.967-.905-.463-1.957-.698-3.128-.698-2.18 0-4.507.806-6.581 1.544.831-3.546 1.765-8.936.597-10.479-1.465-1.936-4.918-2.413-9.639-2.859 1.912-2.672 5.01-7.391 4.715-9.236-.546-3.44-4.26-5.176-7.244-6.57-.108-.051-.217-.102-.325-.152 2.805-1.783 5.38-3.875 7.448-6.069 1.324-1.402.439-2.979-2.643-7.489-.669-.979-1.474-2.119-2.197-3.114 2.504-.769 5.714-1.571 7.592-1.571.407 0 .613.041.683.058.0001 0 .0001 0 .0001 0 1.068.269 2.157-.382 2.426-1.453.171-.679-.028-1.364-.47-1.844-.484-1.288-1.24-6.06-1.624-8.575.068.017.136.034.204.05 2.144.53 4.359 1.078 6.577 1.277.333.03.642.044.928.044 4.423 0 4.902-3.385 5.22-5.625.067-.472.138-.976.235-1.485.021-.095.083-.35.169-.703.232-.957.433-1.782.6-2.498 1.696 1.28 3.483 2.545 5.275 3.565 1.341.764 2.3 1.264 3.377 1.264 1.686 0 2.721-1.231 3.553-2.22 1.433-1.702 2.584-3.646 3.697-5.526.111-.189.223-.375.332-.561 1.775 2.603 3.601 5.29 5.183 7.988.279.477.743.816 1.282.938.536.122 1.102.017 1.561-.292 1.071-.722 2.129-1.604 3.152-2.457 1.617-1.349 3.277-2.733 4.96-3.467.525 1.841.815 3.815 1.119 5.877.205 1.395.417 2.836.71 4.239.115.553.459 1.031.946 1.317.487.285 1.071.353 1.611.182 3.146-.989 6.754-1.634 9.704-2.068-.012 3.246-.658 6.974-1.965 8.869-.478.692-.471 1.61.017 2.295.489.686 1.354.992 2.163.768.393-.109.859-.164 1.387-.164 2.228 0 5.02.938 7.418 1.804-1.318 2.472-3.642 6.472-4.647 7.584-.449.147-.849.453-1.105.893-.554.948-.24 2.165.702 2.727.661.394 1.342.788 2.031 1.187 2.15 1.243 4.356 2.519 6.238 3.974-2.234 1.725-6.298 4.546-7.538 5.172"/><path d="m39.1 40.921c-.413-2.428-4.099-1.395-3.689 1.017.371 2.179.782 4.348 1.228 6.509-1.851-1.938-3.738-3.842-5.681-5.693-1.512-1.441-3.676.276-3.219 1.872-.002.121.0001.243.021.372.556 3.52 1.094 7.04 1.462 10.585.253 2.428 4.08 2.453 3.825 0-.213-2.052-.479-4.096-.77-6.136 2.072 2.115 4.096 4.278 6.08 6.48.762 2.097 4.182 1.081 3.611-1.235-1.124-4.557-2.082-9.144-2.868-13.771"/><path d="m50.07 45.45h-3.654c-.189-1.082-.371-2.165-.537-3.252h1.514c2.467 0 2.467-3.825 0-3.825h-3.635c-1.395 0-1.999 1.222-1.816 2.285-.046.221-.063.456-.028.71.584 4.179 1.335 8.323 2.296 12.432.071.307.194.556.354.755.324.607.957 1.031 1.682 1.031h2.678c1.043 0 1.913-.87 1.913-1.913s-.87-1.913-1.913-1.913h-1.25c-.186-.827-.362-1.656-.533-2.486h2.932c2.464.0001 2.464-3.824-.003-3.824"/><path d="m67.54 39.39c-.626 3.055-1.165 6.122-1.64 9.2-.646-.887-1.318-1.757-2.049-2.585-.842-.953-1.959-.693-2.629.03-.207.134-.401.312-.566.548-.574.822-1.142 1.65-1.708 2.477-1.043-2.871-1.98-5.777-2.829-8.715-.685-2.365-4.376-1.358-3.689 1.017 1.161 4.01 2.481 7.971 4.02 11.858.019.046.045.082.064.126.214 1.435 2.515 2.302 3.623.714.824-1.18 1.637-2.368 2.452-3.555.938 1.26 1.794 2.578 2.642 3.907.479 1.656 3.501 1.389 3.774-.744.571-4.45 1.325-8.868 2.228-13.263.494-2.406-3.194-3.431-3.69-1.015"/></g></svg>