<svg xmlns="http://www.w3.org/2000/svg" viewBox="0 0 100 100" enable-background="new 0 0 100 100"><g fill="#1e1e1c"><path d="m67.51 67.1c-.033-.131-.072-.303-.093-.504-.21-1.898-.302-3.75-.345-5.442h-3.821c.116 3.694.197 7.07.216 9.969-2.772-.875-5.637-1.244-8.595-1.046-.23.015-.436.068-.629.135-1.362.008-2.678 1.071-2.069 2.705 1.224 3.286 1.784 7.366-.099 10.509-2.276 3.801-6.338 3.698-10.2 4.185-2.362.298-4.873.14-7.253.207-1.853.052-25.314.624-25.314.716-.055-22.23-.79-54.55-1.087-76.78 17.869.077 35.733.691 53.601.309-.021 5.589.117 11.942.32 18.479h4.403c-.018-.508-.038-1-.055-1.519-.181-5.491-.282-12.909-.228-18.404.002-.245-.037-.461-.093-.664.107-1.197-.596-2.461-2.129-2.421-19.354.507-38.704-.251-58.06-.281-1.61-.003-2.315 1.412-2.117 2.654-.064.216-.109.448-.106.712.292 23.09 1.086 56.28 1.111 79.38 0 .518.147.939.382 1.272.143.979.846 1.845 2.119 1.813 8.365-.208 16.734-.342 25.09-.752 7.45-.365 16.734.124 23.856-2.307 2.521-.861 4.776-2.134 6.71-3.977 3.534-3.369 4.741-7.892 5.04-12.658.094-1.471.097-2.965.061-4.455-.326-.558-.553-1.174-.626-1.827m-11.521 18.308c1.794-3.058 2.242-6.81 1.309-10.877 2.161.084 4.292.501 6.31 1.356.008.025.015.052.023.077-.654 4.82-3.703 7.776-7.642 9.444"/><path d="m93.49 43.1c-6.42-6.668-12.84-13.335-19.261-20-.573-.596-1.231-.845-1.87-.845-1.44 0-2.787 1.264-2.873 2.682-.031.125-.068.247-.083.383-.266 2.403-.342 4.811-.366 7.222h-2.423-4.411-22.19c-1.366 0-2.221.743-2.562 1.671-.388.414-.641.967-.641 1.676v9 1.919 9c0 .709.253 1.262.641 1.676.341.929 1.196 1.671 2.562 1.671h23.17 4.516 1.336c.023 2.411.1 4.819.366 7.222.015.136.052.258.083.383.086 1.418 1.433 2.682 2.873 2.682.639 0 1.296-.249 1.87-.845 6.42-6.668 12.841-13.335 19.261-20 1.087-.456 1.909-1.573 1.836-2.748.073-1.175-.749-2.291-1.836-2.747m-18.779 17.11c-.021-1.231-.03-2.463-.03-3.696 0-1.704-1.414-2.554-2.828-2.554-.006 0-.012 0-.019 0-.228-.052-.468-.088-.735-.088h-1.788c-.174.033-.359.053-.559.053-.406 0-.812-.002-1.218-.007-.508-.007-1.015-.023-1.521-.045h-3.02-20.53v-7.06-1.919-7.06h19.03c.003 0 .006-.0001.009-.002.295-.029.589-.028.884-.04.782-.033 1.563-.026 2.34.042h2.108 4.265c.267 0 .507-.035.735-.088.006 0 .012 0 .019 0 1.414 0 2.827-.851 2.828-2.554 0-1.233.009-2.465.03-3.696 4.61 4.788 9.22 9.575 13.83 14.363-4.611 4.786-9.221 9.574-13.831 14.361"/></g></svg>