<svg xmlns="http://www.w3.org/2000/svg" viewBox="0 0 100 100" enable-background="new 0 0 100 100"><path d="m93.47 46.14c-4.733-3.494-9.661-7.565-14.427-11.502-5.706-4.713-11.605-9.588-17.356-13.637-.579-.408-1.189-.615-1.813-.615-1.431 0-2.72 1.143-3.087 2.727-.124.317-.198.607-.232.907-.358 3.182-.536 8.255-.602 10.519-25.479 2.43-39.27 22.257-50.21 40.688-.155.262-.271.538-.354.837-.848.818-1.123 1.919-.735 2.991.505 1.393 1.978 2.404 3.502 2.404.776 0 1.525-.262 2.164-.757 13.221-10.24 27.84-19.715 45.14-19.715h.075c.146 1.432.087 5.767.03 7.21-.059 1.475.386 3.485 1.509 4.653.593.617 1.328.942 2.127.942.557 0 1.143-.157 1.743-.467 5.914-3.054 11.557-6.983 17.01-10.782 5.114-3.561 10.402-7.242 15.861-10.161.988-.528 1.589-1.384 1.691-2.411.11-1.101-.367-2.25-1.251-3.02-.225-.319-.483-.584-.786-.807m-7.472 2.905c-3.955 2.358-7.836 5.105-11.6 7.768-3.908 2.767-7.939 5.62-12.04 8.02-.079-2.38-.31-5.685-.695-7.593-.154-.762-.522-1.395-1.067-1.836-.595-.688-1.415-1.079-2.38-1.133-12.518-.695-24.744 2.944-38.457 11.535 8.588-12.204 20.09-23.892 39.1-24.717.246-.011.488-.047.739-.11 1.475-.137 3.036-1.206 3.045-3.265.008-1.869.07-5.251.185-7.701 4.02 2.903 8.122 6.452 12.1 9.894 3.637 3.15 7.39 6.4 11.07 9.134" fill="#1d1d1b"/></svg>