<svg xmlns="http://www.w3.org/2000/svg" viewBox="0 0 100 100" enable-background="new 0 0 100 100"><g fill="#1e1e1c"><path d="m27.13 37.11c3.047 2.16 6.497 3.301 9.977 3.301 4.555 0 9.04-1.915 12.633-5.393.958-.928 1.96-2.01 2.229-2.333.117-.14.224-.301.316-.476 3.45-6.516 2.873-13.256-1.582-18.491-1.057-1.242-1.994-2.295-2.331-2.621-.173-.167-.386-.316-.631-.442-3.101-1.595-6.241-2.404-9.333-2.404-4.25 0-8.354 1.507-12.196 4.478-.173.134-.321.28-.439.432-.274.353-1.16 1.563-1.951 2.723-5.11 7.496-3.749 16.224 3.308 21.23m2.212-20.229c.078-.083.148-.17.212-.258.27-.374 1.428-1.382 2.772-2.057 2.94-1.477 6.229-1.794 9.507-.92 1.537.41 3.662 1.722 4.735 2.925 2.775 3.108 3.651 6.726 2.534 10.461-.42 1.405-1.105 2.651-1.339 2.898-2.546 3.419-6.11 5.274-10.08 5.274-4.848 0-9.448-2.82-11.186-6.859-.933-2.171-1.807-6.549 2.846-11.464"/><path d="m70.48 56.833c-1.485 0-2.968.03-4.449.121.094 1.429.188 2.858.258 4.288.23 4.716.38 9.433.496 14.15.065 2.673.089 5.347.102 8.02-3.157.003-6.312.036-9.466.199-.17-6.761-.514-15.238-.798-20.309-.155-2.775-4.484-2.79-4.328 0 .353 6.302.801 17.889.889 24.875-9.916-.037-19.831-.193-29.747-.227-.031-6.96-.162-18.16-.174-24.288-.005-2.791-4.333-2.791-4.328 0 .009 4.56.084 11.939.135 18.284-3.497.161-6.997.197-10.497.203-.489-9.718-.113-19.432.081-29.16.881-1.817 2.274-3.14 4.211-3.778 6.137-.647 12.306-.912 18.474-1 6.191-.09 12.383.003 18.573.068 1.035.011 2.071.004 3.106-.002.115-1.435.14-2.872.142-4.312-.343.003-.688.012-1.03.009-3.185-.029-6.369-.071-9.553-.099-6.372-.056-12.748-.054-19.11.232-3.574.161-7.145.409-10.703.787-.273-.031-.57-.009-.891.089-3.094.945-5.72 3.069-7.06 6.04-.124.275-.204.56-.239.844-.141.274-.23.594-.237.969-.203 10.345-.633 20.677 0 31.02.055.89.54 1.492 1.165 1.813.32.304.758.506 1.329.506 4.094 0 8.186-.018 12.275-.207.009 1.373.015 2.647.017 3.746.0001.382.088.706.228.984.246.702.852 1.263 1.82 1.264 11.573.013 23.14.238 34.718.252 1.811.002 2.354-1.952 1.639-3.138-.004-.457-.001-.942-.017-1.445 3.314-.169 6.631-.196 9.951-.197.524 0 .937-.169 1.25-.431 1.189.177 2.529-.509 2.526-2.063-.014-6.773-.285-13.524-.495-20.292-.081-2.603-.101-5.218-.255-7.821"/><path d="m94.89 41.473l-.167-.122-16.256-18.06c-.357-.396-.763-.598-1.208-.598-.95 0-1.867.929-1.925 1.95l-.029.157c-.017.069-.036.137-.043.212-.239 2.312-.289 4.57-.306 6.475l-.004.496h-17.761c-1.162 0-1.569.819-1.69 1.171l-.096.167c-.277.316-.417.715-.417 1.184v9.444 4.33 4.217c0 .469.14.867.417 1.184l.096.167c.121.352.528 1.171 1.69 1.171h8.727 4.435 4.601l.004.495c.017 1.905.067 4.164.306 6.475.008.076.026.146.043.215l.029.155c.058 1.021.975 1.95 1.925 1.95.444 0 .85-.201 1.207-.598l16.423-18.19c.774-.348 1.303-1.187 1.256-1.997.046-.865-.482-1.704-1.257-2.052m-16.12 16.275l-.021-1.272c-.018-1.114-.026-2.229-.026-3.346 0-1.248-.947-1.807-1.886-1.807v-.499l-.013.499-.123-.015c-.179-.044-.338-.064-.501-.064h-6.398-4.576-6.464v-2.984-4.369-8.138h17.438c.162 0 .321-.021.501-.065l.061-.015h.062c.511 0 .99-.166 1.328-.456.374-.321.571-.789.571-1.351 0-1.116.008-2.231.026-3.346l.021-1.271 12.825 14.25-12.825 14.249"/></g></svg>