<svg xmlns="http://www.w3.org/2000/svg" viewBox="0 0 100 100" enable-background="new 0 0 100 100"><g fill="#1d1d1b"><path d="m64.747 58.836c1.4 1.365 2.8 2.729 4.201 4.094 6.775-5.796 6.654-15.394 1.11-22.21-1.345 1.3-2.686 2.604-4.02 3.914 3.437 4.485 3.329 10.585-1.29 14.201"/><path d="m12.33 68.26c4.372.462 8.737.614 13.11.525 1.992-2.036 3.984-4.072 5.974-6.11-5.763.397-11.499.423-17.244-.075-.401-7.448-.537-14.891-.209-22.344.052-.225.085-.464.085-.725 0-.37-.007-.742-.014-1.113.006-.116.007-.232.014-.348.016-.276-.007-.527-.054-.76-.009-.194-.019-.388-.032-.582 3.865-.21 7.732-.309 11.601-.359-1.805-1.903-3.598-3.817-5.378-5.744-3.118.085-6.235.211-9.351.433-.045.003-.084.014-.128.019-.308-.019-.623-.002-.941.085-1.5.412-2.51 2.073-2.041 3.595.358 1.16.448 2.312.471 3.51-.508 9.1-.26 18.18.301 27.27.134 2.193 2.197 3.098 3.836 2.721"/><path d="m83.2 28.392c6.078 13.844 3.623 30.587-3.847 44.71 1.46 1.434 2.916 2.871 4.37 4.31 9.278-16.611 11.897-36.719 3.945-53.02-1.498 1.324-2.988 2.657-4.468 4"/><path d="m58.19 52.43c1.058 1.037 2.117 2.073 3.176 3.108-.036-2.124-.011-4.243.054-6.335-1.078 1.074-2.157 2.148-3.23 3.227"/><path d="m66.25 15.583c-5.344 4.497-8.06 13.346-9.427 21.414 2.439-2.399 4.89-4.787 7.361-7.154 2.075-6.753 5.689-12.195 11.989-11.17 1.583-1.434 3.177-2.857 4.78-4.27-2.406-2.706-5.206-5.226-8.457-7.496-.351-.245-.699-.387-1.037-.461-.771-.521-1.771-.604-2.789.169-10.751 8.163-22.303 15.13-33.621 22.459 1.365 1.435 2.737 2.864 4.115 4.287 9.08-5.855 18.284-11.517 27.09-17.778"/><path d="m71.42 83.53c-3.461.322-4.465-.907-5.591-5.05-.251-.924-.548-1.832-.856-2.734-2.814-2.751-5.63-5.5-8.445-8.251.392 2.161.906 4.284 1.57 6.339.86 2.665 1.563 5.703 2.598 8.493-6.081-4.636-12.08-9.382-18.339-13.764-1.378 1.414-2.755 2.828-4.133 4.242 9.913 6.833 19.12 14.653 28.992 21.561.922.645 1.825.639 2.562.269.437-.118.87-.341 1.272-.726 1.745-1.673 3.393-3.458 4.958-5.318.484-.221.822-.556 1.053-.946-1.569-1.559-3.142-3.115-4.718-4.667-.36.126-.672.312-.923.555"/><path d="m82 80.32c-1.409-1.46-2.832-2.906-4.25-4.358-3.71-3.798-7.444-7.57-11.201-11.318-1.44-1.437-2.873-2.881-4.318-4.312-.233-.23-.467-.459-.7-.689-1.767-1.748-3.542-3.489-5.315-5.23-.253-.249-.506-.498-.759-.747-.583-.572-1.164-1.148-1.747-1.719.608-.62 1.218-1.238 1.827-1.857.046-.047.092-.094.138-.14 2.01-2.048 4.03-4.095 6.05-6.134.575-.579 1.155-1.154 1.73-1.732 1.333-1.339 2.669-2.677 4.01-4.01 4.557-4.543 9.149-9.05 13.789-13.519 1.411-1.358 2.834-2.703 4.254-4.052 1.31-1.244 2.606-2.502 3.925-3.739 2.357-2.209-1.186-5.738-3.536-3.536-1.107 1.038-2.194 2.095-3.295 3.138-1.4 1.327-2.798 2.654-4.188 3.989-5.129 4.926-10.2 9.906-15.228 14.926-2.375 2.371-4.749 4.744-7.109 7.13-1.323 1.338-2.64 2.683-3.96 4.02-.661.672-1.324 1.343-1.984 2.02-.81-.791-1.621-1.581-2.431-2.372-3.749-3.655-7.499-7.309-11.252-10.961-1.59-1.548-3.179-3.098-4.768-4.648-5.813-5.664-11.615-11.344-17.373-17.07-2.287-2.276-5.823 1.259-3.536 3.536 4.581 4.558 9.191 9.08 13.81 13.595 1.976 1.932 3.951 3.865 5.93 5.793 4.558 4.439 9.117 8.875 13.671 13.315.815.795 1.631 1.59 2.446 2.386-.952.973-1.901 1.949-2.851 2.923-2.875 2.946-5.75 5.894-8.621 8.845-1.551 1.594-3.102 3.188-4.654 4.781-6.838 7.02-13.688 14.04-20.607 20.992-.766.77-.864 1.678-.583 2.461.37 1.031 1.404 1.83 2.507 1.802.548-.014 1.111-.223 1.612-.727 7.342-7.379 14.606-14.826 21.86-22.28 1.382-1.42 2.764-2.84 4.146-4.26 2.628-2.701 5.26-5.399 7.892-8.096.958-.982 1.914-1.965 2.873-2.946.834.817 1.663 1.638 2.496 2.456.998.98 1.995 1.962 2.992 2.944 2.301 2.268 4.593 4.546 6.881 6.827 4.159 4.146 8.293 8.32 12.395 12.527 1.396 1.432 2.791 2.864 4.178 4.304 2.668 2.77 5.328 5.549 7.961 8.358 1.103 1.177 2.536.882 3.419 0 .004-.004.008-.009.012-.013.065-.066.121-.14.179-.211.052-.064.102-.131.152-.197.604-.887.715-2.108-.227-3.113-2.858-3.052-5.744-6.072-8.644-9.08"/></g></svg>