<svg xmlns="http://www.w3.org/2000/svg" viewBox="0 0 100 100" enable-background="new 0 0 100 100"><g fill="#1d1d1b"><path d="m80.983 3.472c-.298-.918-1.128-1.467-2.095-1.406-.216-.036-.443-.044-.688-.006-4.769.741-9.387 2.568-13.729 5.431-8.329-2.333-17.227-2.194-26.07.399-4.163-3.2-9.169-5.071-15.295-5.717-.938-.099-1.664.389-1.923 1.233-.122.189-.209.389-.267.608-1.417 5.523-1.419 10.884-.008 15.937-7.289 9.3-8.688 18.866-4.155 28.436 3.492 7.375 11.08 13.01 20.39 15.172-.771 1.062-1.355 2.216-1.744 3.444-.302.028-.602.043-.895.043-3.793 0-6.523-2.375-9.415-4.889-.814-.709-1.656-1.44-2.527-2.121-2.76-2.153-5.759-3.2-9.168-3.2-.612 0-1.248.034-1.854.099-.129 0-.257.013-.334.032l-.157.015c-.081.007-.163.014-.249.025-.932.131-1.537.802-1.544 1.708-.007.955.685 2.052 1.808 2.227 4.639 1.436 6.649 5.087 8.777 8.952.819 1.49 1.668 3.03 2.685 4.469 2.313 3.271 5.714 4.929 10.11 4.929 1.082 0 2.251-.101 3.48-.299.207 2.881-.224 7.554-4.536 10.147-.803.482-1.147 1.338-.899 2.233.281 1.014 1.198 1.686 2.188 1.553.033.003.078.005.159.005 3.167 0 6.06-.88 8.47-2.562-.619 1.309-1.388 2.479-2.326 3.546-.553.628-.68 1.452-.339 2.206.348.771 1.1 1.287 1.87 1.287.152 0 .304-.02.373-.042 5.127 0 9.146-2.62 11.432-7.413 1.88 4.802 5.193 7.878 10.1 9.385.211.065.421.099.626.099.802 0 1.502-.527 1.783-1.343.287-.835.063-1.733-.556-2.265-.783-1.158-1.395-2.388-1.85-3.723 1.513 1.091 3.408 1.643 5.659 1.643 1.293 0 2.735-.184 4.286-.545.919-.215 1.488-.922 1.487-1.848-.002-.941-.59-1.774-1.422-2.048-.235-.251-.531-.433-.881-.542-5.321-1.674-4.964-7.6-4.647-12.829.054-.893.105-1.752.125-2.552.076-3.145-.084-7.147-1.926-10.692 11.636-1.709 18.75-6.902 22.359-16.3 3.546-9.228 1.272-20.792-5.653-28.856.822-4.751.483-9.482-1.01-14.06m3.45 39.507c-2.161 9.473-9.679 14.863-22.345 16.02-.776.07-1.399.515-1.718 1.221-.571.822-.521 1.824.131 2.569 2.969 3.396 2.786 8.523 2.609 13.483-.154 4.337-.313 8.796 1.67 12.11-1.037-.944-1.752-2.435-2.196-4.541-.566-2.679-.786-5.486-.999-8.201-.174-2.214-.354-4.504-.72-6.73-.153-.931-.844-1.532-1.76-1.532-.654 0-1.301.301-1.728.805-.401.472-.564 1.078-.461 1.706.327 1.992.455 4.101.591 6.333.074 1.229.149 2.47.261 3.7-.03.122-.05.24-.059.359-.289 3.631-.418 7.783.611 11.747-3.837-4.403-3.904-11.604-3.964-18.03-.014-1.504-.026-2.924-.086-4.279-.058-1.287-1.102-1.96-2.104-1.96-.573 0-1.109.216-1.471.594-.35.365-.521.854-.496 1.41.056 1.262.087 2.566.119 3.896.044 1.852.09 3.766.204 5.663-.11.263-.162.546-.153.843.133 4.708-1.25 10.174-5.396 12.255 2.857-5.841 2.617-12.576 2.385-19.1-.03-.858-.061-1.715-.084-2.565-.036-1.294-1.072-1.971-2.078-1.971-.572 0-1.11.216-1.477.592-.354.363-.532.85-.518 1.406.028 1.028.074 2.075.121 3.133.098 2.232.198 4.538.137 6.796-.08.143-.139.282-.183.432-.813 2.802-2.474 4.995-4.747 6.314 1.934-3.745 1.841-7.895 1.371-10.813-.02-1.034-.776-2.103-2.01-2.103-.169 0-.343.021-.517.062-1.59.385-2.974.571-4.23.571-4.299 0-6.997-2.096-9.957-7.733-.581-1.109-1.169-2.114-1.77-3.02.607.495 1.213 1.017 1.833 1.551.812.7 1.653 1.424 2.523 2.105 3.396 2.659 7.06 3.561 11.428 2.792.264-.047.503-.137.712-.268.577-.227.968-.709 1.104-1.367.461-2.221 1.592-3.991 3.362-5.262.771-.553 1.066-1.467.771-2.384-.322-1-1.255-1.61-2.168-1.411-8.08-1.01-14.963-5.106-19.4-11.554-5.351-7.771-4.376-17.596 2.605-26.28.231-.287.382-.616.442-.962.454-.493.594-1.155.383-1.845-1.285-4.199-1.439-8.479-.472-13.07 4.941.753 9.07 2.556 12.285 5.361.799.696 1.976.663 2.768-.026 8.425-2.45 16.673-2.505 24.588-.159.567.235 1.188.158 1.739-.222 3.714-2.555 7.527-4.222 11.643-5.088.968 3.752 1.081 7.366.346 11.03-.047.235-.055.475-.022.714-.058.566.133 1.117.539 1.56 5.775 6.267 7.965 14.779 6.01 23.355"/><path d="m63.13 27.689c-.816 0-1.634.046-2.43.137-.295-.046-.613-.019-.926.087-1.715.583-4.342 1.01-7.811 1.254-.041.003-.079.009-.128.018-.042-.008-.084-.014-.13-.018-3.468-.249-6.095-.671-7.811-1.255-.312-.106-.631-.132-.925-.087-.796-.091-1.613-.137-2.43-.137-5.545 0-10.63 2.02-13.602 5.394-2.279 2.591-3.234 5.91-2.762 9.597 1.146 8.929 7.774 13.27 20.264 13.27 2.361 0 4.646-.137 6.765-.283.221-.017.432-.064.63-.143.198.078.409.126.631.143 2.117.146 4.401.283 6.763.283 12.488 0 19.12-4.341 20.264-13.27.473-3.687-.482-7.01-2.763-9.596-2.97-3.377-8.05-5.394-13.599-5.394m12.06 15.929c-2.823 7.465-9.05 8.472-14.772 8.472-2.122 0-4.3-.16-6.406-.315l-1.473-.106c-.054-.004-.105-.006-.157-.006-.188 0-.371.026-.544.077-.222-.065-.46-.09-.7-.071l-1.474.106c-2.106.155-4.285.315-6.407.315-5.721 0-11.949-1.01-14.772-8.472-.993-2.627-.812-4.95.538-6.904 2.74-3.968 9.422-5.42 13.923-4.884.028.003.057.005.106.005 2.551.823 6.116 1.153 8.659 1.333l.149-.004h.179c2.493-.178 6.104-.513 8.581-1.329l.108-.006c4.507-.536 11.183.916 13.924 4.884 1.35 1.954 1.531 4.277.538 6.904"/><path d="m43.705 38.588c.0001-.12.013-.239-.009-.362-.483-2.754-4.474-4.675-6.315-2.11-1.296 1.805-1.023 5.02-.394 7.01.57 1.802 2.208 3.178 4.196 2.758 2.84-.6 2.695-4.77 2.566-7.01-.005-.102-.022-.196-.044-.287m-3.32 4.281c-.024-.0001-.05.0001-.074-.0001.028-.006-.13-.035-.24-.055-.344-1.429-.73-3.42-.201-4.818.279-.742.89 1.349.896 1.43.097 1.124-.134 2.351-.381 3.444"/><path d="m63.705 38.588c.0001-.12.013-.24-.009-.362-.38-2.165-2.276-3.517-4.446-3.226-.036.005-.07.015-.105.021-.422-.029-.854.121-1.205.418-.864.734-1.456 1.91-1.314 3.061.018.143.053.28.095.412-.125 1.771.111 3.52.584 5.237.05.182.128.331.218.464.187.37.532.661.955.834 1.042.427 2.205.575 3.297.25.146-.044.278-.113.401-.193.403-.134.749-.444.896-.979.508-1.843.786-3.736.679-5.649-.007-.103-.024-.197-.046-.288m-3.32 4.281c-.024-.0001-.05.0001-.074-.0001.028-.006-.13-.035-.243-.055-1.034-.194-.4-4.141-.155-4.801.282.095.829.435.841.785.0001.027-.005.05-.003.078.076 1.369-.069 2.68-.366 3.994"/></g></svg>