<svg xmlns="http://www.w3.org/2000/svg" viewBox="0 0 100 100" enable-background="new 0 0 100 100"><g fill="#1d1d1b"><path d="m80.05 25.17c-.327.023-.611.111-.854.242-7.11-10.01-21.22-12.536-33.36-11.55-10.776.876-22.405 5.41-26.8 15.287-4.734.033-8.544 1.965-9.833 6.632-4.579 1.775-7.938 5.854-5.777 11.01 1.45 3.46 4.543 5.335 7.939 5.77-1.305 1.536-2.175 3.337-1.685 5.367.89 3.679 6.296 4.276 9.279 4.644.175.021.335.019.485.003-.128.014 5.659 13.368 6.459 14.591 2.84 4.341 6.719 7.94 11.493 10.05 10.867 4.794 22.781.878 31.02-7.02 4.975-4.77 10.455-11.54 13.248-17.887 2.683-.088 5.709-.546 7.359-2.834 1.291-1.79.995-3.949.218-5.909 2.61-.248 5.108-1.346 6.991-3.348 3.422-3.637 2.175-8.499-1.01-11.701 1.392-8.429-7.289-13.9-15.176-13.339m-72.69 20.626c-2.125-3.325 1.18-5.727 4.071-6.568.626-.182 1.268-.72 1.393-1.393.588-3.167 2.33-4.346 4.895-4.627-.08.374-.153.753-.215 1.14-.094.173-.173.366-.216.598-.683 3.727-.865 8.08-.549 12.666-.229.129-.415.3-.561.502-.105.017-.21.03-.323.067-3.196 1.048-6.567.63-8.495-2.385m6.171 11.07c-.453-1.207 2.488-3.401 3.73-4.326.283 1.983.655 3.984 1.118 5.976-1.486-.161-4.421-.514-4.848-1.65m36.902 28.881c-.079.026-.145.063-.216.095-.083-.0001-.162-.009-.25 0-22.935 2.264-32.05-32.29-28.829-49.838.009-.048.006-.092.011-.139.11-.214.193-.452.226-.724 1.495-12.218 15.01-16.523 25.545-17.38 12.441-1.01 27.938 2.231 31.876 15.915.056.194.137.359.228.51 8.091 21.609-7.887 44.814-28.591 51.56m35.29-28.491c-.379.636-1.434.891-2.511.997.552-1.691 1-3.41 1.332-5.153.006.002.013.003.02.004.657 1.109 1.835 3.02 1.159 4.152m7.354-9.509c-2.061 2.192-5.325 2.228-7.998 1.341.437-5.318-.229-10.773-2.272-16.14-.047-.123-.106-.231-.167-.336-.354-1.231-.794-2.383-1.294-3.474 5.343.154 11.483 3.464 9.749 9.629-.291 1.035.212 1.815.945 2.201 2.101 1.941 3.25 4.426 1.037 6.778"/><path d="m38.989 44.783v-.665c0-1.087-.907-1.995-1.995-1.995-1.088 0-1.995.907-1.995 1.995v.665c0 1.087.907 1.995 1.995 1.995 1.088 0 1.995-.907 1.995-1.995"/><path d="m62.759 42.12c-1.087 0-1.995.907-1.995 1.995v.831c0 1.087.907 1.995 1.995 1.995s1.995-.907 1.995-1.995v-.831c0-1.088-.907-1.995-1.995-1.995"/><path d="m60.705 59.4c-4.301 7.604-14.13 6.775-19.308.594-1.653-1.975-4.46.863-2.821 2.821 6.851 8.186 20.09 8.292 25.575-1.401 1.267-2.243-2.18-4.252-3.446-2.01"/><path d="m49.718 58.679c.291.067.56.07.809.03.074.015.147.033.223.042 4.276.509 7.987-1.49 8.679-5.968.022-.143.032-.285.033-.426.101-.467.049-.96-.235-1.365-.596-.85-1.33-1.443-2.063-2.155-.781-.759-2.049-.779-2.828 0-.762.762-.782 2.069 0 2.828.243.236.502.454.758.677.104.091.203.188.303.283-.17.687-.454 1.336-1.062 1.742-1.02.681-2.436.52-3.584.383-.084-.001-.166 0-.248.005-.696-.171-1.555-.435-1.879-.907-.367-.534-.014-1.57.354-2.339 1.107-2.315-2.341-4.345-3.454-2.02-.904 1.891-1.491 3.963-.566 5.964.862 1.867 2.861 2.786 4.76 3.225"/></g></svg>