<svg xmlns="http://www.w3.org/2000/svg" viewBox="0 0 100 100" enable-background="new 0 0 100 100"><g fill="#1e1e1c"><path d="m92.83 44.663c-.051-.465-.195-.864-.401-1.207-.02-1.041-.618-1.987-1.996-2.196-3.656-.555-7.317-1.01-10.983-1.389-.713-4.355-.846-8.708-.455-13.12.022-.251.008-.479-.032-.688.013-.104.032-.205.032-.312 0 0 0-.25-.003-.276 3.752.001 7.502.025 11.253.026 3.225.0001 3.225-4.999 0-5-26.751-.006-53.5-.25-80.25-.5-3.226-.03-3.223 4.97 0 5 3.771.035 7.541.069 11.311.103-.025.129-.053.256-.061.397-.229 4.277-.654 8.5-1.582 12.674-4.708.028-12.449-2.477-13.05 4-.009.095-.035.177-.035.277v31.699c0 .289.048.545.113.787.081 1.32.96 2.625 2.651 2.715 27.629 1.463 55.33 2.514 82.935 0 .66-.06 1.197-.303 1.611-.657.926-.341 1.62-1.162 1.522-2.476-.737-9.963-1.501-19.923-2.58-29.857m-66.6-19.515c15.923.142 31.847.259 47.77.314 0 .013-.004.025-.004.038v.25c0 .212.036.415.088.613-.031.128-.075.246-.088.387-.376 4.25-.229 8.446.352 12.636-16.473-1.397-33.02-1.347-49.574-1.243.833-4.165 1.244-8.394 1.473-12.642.006-.126-.009-.238-.017-.353m11.04 48.19c.009-3.22-.108-6.436-.247-9.651.189.073.375.12.558.141.166.043.337.074.513.092 3.259.328 6.385-1.023 8.435-3.566.226-.28.401-.588.523-.906.204-.333.346-.725.375-1.195.149-2.378-.336-4.696-1.83-6.589-4.04-5.112-12.706-1.913-13.58 4.23-.169.332-.271.724-.256 1.192.17 5.365.506 10.72.498 16.09-6.718-.241-13.434-.556-20.15-.904v-28.53c25.13-.066 50.42-.954 75.37 2.648.907 8.637 1.595 17.293 2.24 25.953-17.459 1.452-34.959 1.519-52.45.997m-.143-17.15c.283-3.69 5.258-1.979 5.317 1.242.017.921-1.905 1.317-3.444.904-1.075-.288-1.963-.972-1.873-2.146"/><path d="m14.988 57.02c-.403 3.322 2.272 6.531 5.257 7.57 3.318 1.155 7.142-.585 9.282-3.24.226-.28.401-.588.523-.906.204-.333.346-.725.375-1.195.149-2.378-.336-4.696-1.83-6.589-4.072-5.158-12.849-1.874-13.607 4.36m6.832 2.932c-.876-.602-2.101-1.518-1.826-2.667.907-3.753 5.388-2.291 5.45 1.136-1.023 1.033-2.158 1.532-3.624 1.531"/><path d="m78.36 50.651c-1.64-1.107-3.557-1.443-5.351-1.096-1.455.281-2.83 1.01-3.913 2.143-2.914 3.047-3.146 8.124-2.25 12.05.35 1.534 2.089 2.213 3.425 1.55 1.616-.802 1.421-2.369 1.332-3.881-.142-2.387-.473-7.663 3.442-6.847 4.04.842 2.428 5.995 2.847 8.556.48 2.94 4.655 2.788 5.03-.209.559-4.463-.69-9.651-4.563-12.266"/><path d="m61.09 60.46c-1.206.316-2.454.347-3.614.049 1.701-1.522 3.342-3.104 4.797-4.87.479-.58.732-1.282.699-1.969.12-.879-.163-1.82-1.08-2.457-2.328-1.619-5.287-2.615-8.08-1.635-2.44.857-4.198 3.035-4.699 5.552-1.511 7.586 6.887 11.833 13.304 10.152 3.116-.817 1.793-5.64-1.33-4.822m-7.149-3.487c-.019-.188-.025-.368-.004-.515.169-1.153.554-1.702 1.543-2.201.345-.174.812-.148 1.318-.013-.917.945-1.875 1.85-2.857 2.729"/></g></svg>