<svg xmlns="http://www.w3.org/2000/svg" viewBox="0 0 100 100" enable-background="new 0 0 100 100"><g fill="#1d1d1b"><path d="m9.02 85.1c.205.057.423.098.668.099 26.642.125 53.26-2.052 79.9-.785.836.04 1.432-.294 1.806-.793.027-.032.05-.07.075-.104.033-.051.068-.101.098-.155.121-.198.226-.415.292-.678 1.825-7.188 3.286-14.42 3.969-21.809.174-.54.154-1.159-.181-1.798l-8.834-16.783c-.245-.465-.572-.769-.933-.956-.357-.29-.822-.481-1.396-.505-1.228-.052-2.454-.063-3.679-.057-4.602-.093-9.206-.143-13.808-.272-3.226-.09-3.218 4.91 0 5 1.721.048 3.442.072 5.164.102.272.1.582.153.938.134.569-.03 1.137-.056 1.706-.082 2.849.045 5.698.094 8.547.166 2.205 4.189 4.41 8.378 6.614 12.567-7.464.19-14.921.452-22.364 1.091-.386.033-.722.142-1.01.303-.55.174-1.047.553-1.417 1.06-1.228 1.68-2.548 3.269-4.03 4.724-8.615.002-17.227.039-25.836.364-1.259-1.668-2.358-3.456-3.366-5.284-.493-.895-1.28-1.211-2.053-1.147-.121-.012-.241-.026-.374-.02-6.536.297-13.06.206-19.593-.05 3.267-4.03 6.587-8.02 10.01-11.925h.13c4.201.002 8.401.019 12.6.163 3.226.111 3.215-4.89 0-5-4.499-.154-8.999-.166-13.5-.167-1.01 0-1.705.492-2.082 1.167-.075.068-.153.125-.225.207-4.558 5.183-8.966 10.491-13.251 15.901-.133.168-.233.341-.316.517-.221.348-.339.79-.276 1.345.831 7.328 1.864 14.616 3.422 21.828.304 1.415 1.492 1.862 2.584 1.632m19.546-20.878c1.142 1.94 2.401 3.79 3.8 5.564.18.228.411.388.663.5.356.259.821.409 1.396.386 9.09-.365 18.19-.392 27.29-.393.199 0 .384-.023.557-.06.508-.016 1.029-.197 1.501-.63 1.8-1.647 3.339-3.521 4.798-5.466 7.429-.606 14.872-.859 22.322-1.045-.652 5.59-1.793 11.08-3.136 16.551-25.711-1.073-51.41.927-77.12.858-1.111-5.437-1.944-10.913-2.613-16.421 6.848.301 13.692.43 20.544.156"/><path d="m31.31 34.31c.31.133.676.197 1.114.144 2.353-.284 4.713-.495 7.07-.726-.39 4.764-.869 15.408-1.377 20.16-.15 1.397.781 2.133 1.855 2.233.262.09.556.14.893.123 4.261-.22 6.571-.19 9.442-.276 2.871.087 5.181.056 9.442.276.338.017.631-.033.893-.123 1.074-.1 2.01-.836 1.855-2.233-.509-4.753-.988-15.397-1.377-20.16 2.358.231 4.718.442 7.07.726.438.053.804-.011 1.114-.144 2.085.54 4.266-2.139 2.319-3.878-7.04-6.283-11.899-12.58-19.266-18.232-.415-.783-1.177-1.325-2.051-1.21-.873-.116-1.635.427-2.05 1.209-7.367 5.651-12.23 11.949-19.266 18.232-1.948 1.74.233 4.419 2.318 3.879m18.998-17.772c4.953 3.979 7.964 8.301 12.902 12.689-1.547-.146-3.094-.289-4.637-.466-1.355-.155-2.089.713-2.222 1.745-.111.286-.162.62-.134 1 .347 4.682.821 15.218 1.314 19.906-.372-.327-.882-.523-1.549-.471-2.505.194-4.151.276-5.674.323-1.523-.047-3.169-.129-5.674-.323-.667-.052-1.177.145-1.549.471.493-4.688.968-15.225 1.315-19.906.028-.384-.023-.718-.134-1-.133-1.032-.867-1.899-2.222-1.745-1.543.176-3.09.32-4.637.466 4.936-4.389 7.947-8.71 12.901-12.689"/></g></svg>