<svg xmlns="http://www.w3.org/2000/svg" viewBox="0 0 100 100" enable-background="new 0 0 100 100"><g fill="#1e1e1c"><path d="m85.92 24.337c-.168-5.106-.262-12.01-.211-17.11.002-.228-.035-.429-.086-.618.1-1.113-.554-2.289-1.98-2.251-17.998.472-35.992-.233-53.99-.261-1.497-.002-2.153 1.313-1.968 2.468-.06.201-.101.416-.098.662.272 21.476 1.01 52.34 1.033 73.815 0 .482.137.873.355 1.183.132.911.786 1.716 1.97 1.686 7.779-.193 15.562-.318 23.335-.699 6.928-.339 15.562.115 22.18-2.146 2.344-.8 4.442-1.985 6.24-3.698 3.287-3.133 4.409-7.339 4.692-11.771.272-4.257-.229-8.722-.329-12.644-.259-10.132-.814-18.482-1.147-28.612m-11.388 38.31c-1.267.007-2.491.996-1.924 2.515 1.138 3.056 1.659 6.85-.092 9.773-2.117 3.534-5.894 3.439-9.485 3.891-2.196.277-4.531.13-6.745.192-1.723.049-23.541.58-23.541.666-.052-20.675-.735-50.731-1.01-71.4 16.616.072 33.23.642 49.845.287-.063 16.974 1.442 41.511 1.531 54.926-2.578-.813-5.242-1.157-7.993-.973-.215.015-.406.063-.585.126m1.623 14.13c1.669-2.844 2.085-6.333 1.217-10.115 2.01.078 3.991.466 5.868 1.261.008.024.014.049.022.072-.609 4.482-3.444 7.231-7.107 8.782"/><path d="m67 85.17c-1.363 0-2.5 1.137-2.5 2.5v1.769c-14.526 1.459-29.12.844-43.7.744-.36-21.339-1.198-42.669-1.286-64.01h4.152c3.225 0 3.225-5 0-5h-6c-.236 0-.449.034-.651.083-1.256-.008-2.518.796-2.516 2.417.029 22.785.98 45.553 1.334 68.33.003.225.036.431.084.624-.016 1.262.788 2.538 2.416 2.542 16.235.038 32.497.901 48.667-1 1-.118 1.688-.702 2.059-1.432.277-.402.441-.885.441-1.401v-3.667c0-1.362-1.137-2.499-2.5-2.499"/><path d="m71.67 31.833c3.18-.304 3.21-5.307 0-5-10.09.965-20.2 1.312-30.333 1.333-3.224.007-3.225 5.01 0 5 10.131-.021 20.245-.367 30.333-1.333"/><path d="m70.67 36.5c-8.87.972-17.749 1.283-26.667 1-3.226-.102-3.216 4.898 0 5 8.917.283 17.797-.028 26.667-1 3.169-.347 3.203-5.351 0-5"/><path d="m73 45.923c-9.827 1.577-19.73 2.235-29.669 2.577-3.215.111-3.226 5.111 0 5 10.39-.358 20.727-1.108 30.998-2.756 3.177-.51 1.824-5.327-1.329-4.821"/></g></svg>