<svg xmlns="http://www.w3.org/2000/svg" viewBox="0 0 100 100" enable-background="new 0 0 100 100"><g fill="#1d1d1b"><path d="m80.67 5.827c-.325-.226-.72-.401-1.202-.495-25.11-4.932-53.26 8.504-66.57 30.1-6.331 10.277-7.781 22.832-3.088 34.02 2.656 6.333 7.158 12.325 12.49 16.652 7.7 6.248 17.761 8.258 27.393 8.739 9.626.481 20.385-.224 28.22-6.604 4.339-3.534 7.01-8.205 8.464-13.572 1.719-6.351-1.023-13.149-3.281-18.97-2.201-5.671-4.6-11.467-1.49-17.219 2.479-4.585 6.147-8.443 8.818-12.917 5.882-9.853-.436-16.485-9.753-19.74m5.504 13.723c-.999 3.716-4.16 7.125-6.391 10.157-5.644 7.668-7.507 14.13-4.458 23.452 3.473 10.618 8.872 20.675-1 29.778-7.254 6.686-19.781 5.865-28.854 5.419-.32-.016-.605.02-.875.077-6.323-1.963-13.534-3.437-18.778-7.692-4.743-3.849-8.567-9.565-10.714-15.242-3.743-9.899-.985-20.232 4.59-28.799 11.679-17.944 36.857-29.28 57.955-25.2.198.112.415.21.653.288 3.722 1.218 9.183 2.901 7.876 7.764"/><path d="m58.54 61.62c-3.836.776-6.792 4.02-8.826 7.147-.261.401-.409.798-.466 1.18-.134.229-.252.479-.331.773-.744 2.759-.809 6.177 1.605 8.177 6.086 5.04 15.09-.832 17.595-6.926 1.147-2.794.388-6.02-1.585-8.215-2-2.227-5.197-2.702-7.992-2.136m3.892 8.551c-.051.098-.182.396-.209.448-.134.248-.293.482-.452.716-.039.057-.056.084-.08.122-.031.026-.088.085-.217.233-.219.251-.459.483-.699.715-.785.761-1.707 1.361-2.662 1.895-.135.014-.267.019-.409.051-.933.212-1.234.273-2.231.276-.151-.002-.301-.012-.451-.023-.037-.007-.067-.013-.121-.023-.064-.015-.126-.037-.189-.054-.024-.014-.146-.062-.257-.112-.012-.041-.022-.081-.033-.122.074.214-.029-.593-.023-.757.012-.292.105-.636.265-1.231.034-.124.042-.24.061-.36.044-.059.094-.106.136-.17.729-1.12 1.548-2.104 2.543-3 .265-.239.661-.512 1.19-.824.178-.105.366-.192.553-.282-.016.022.432-.157.49-.175.162-.051.329-.083.494-.118.113-.018.303-.049.378-.052.165-.009.33.002.494.011.086.009.179.02.234.033.12.026.234.069.35.107.088.036.201.084.261.117.048.027.133.084.208.135.088.081.178.16.262.245.002.002.002.002.003.004.072.11.145.22.21.335.008.015.001.016.017.028.034.097.054.198.078.298-.039-.08.008.369.025.703-.035.03-.139.518-.219.832"/><path d="m28.331 60.994c-1.01.04-1.893.605-2.329 1.449-.79.131-1.57.347-2.298.61-1.342.485-2.232 1.764-1.83 3.223.309 1.121 1.491 2.032 2.675 1.943.271.912.603 1.806 1.054 2.641.609 1.129 1.591 2.164 2.865 2.507 1.79.482 3.368-.505 4.249-1.955.718-.141 1.379-.575 1.808-1.235 1.458-2.246 2.24-4.96.422-7.233-1.503-1.876-4.421-2.036-6.616-1.95"/><path d="m25.789 54.38c.315.661.899 1.194 1.644 1.446 2.538.857 5.361.942 7.112-1.382 1.447-1.92.879-4.787.252-6.892-.289-.968-1.054-1.684-1.98-1.897-.322-.732-.725-1.436-1.16-2.076-.803-1.18-2.262-1.725-3.576-.975-1.01.576-1.6 1.947-1.22 3.072-.817.488-1.6 1.032-2.298 1.675-.943.87-1.703 2.078-1.719 3.396-.025 1.853 1.322 3.138 2.945 3.633"/><path d="m44.975 33.824c.199-.931.334-1.874.338-2.824.005-1.283-.362-2.662-1.316-3.572-1.341-1.279-3.199-1.168-4.667-.316-.698-.22-1.486-.155-2.178.22-2.355 1.275-4.34 3.284-3.831 6.15.42 2.367 2.907 3.904 4.876 4.877.905.448 1.951.375 2.738-.158.756.263 1.545.447 2.31.564 1.411.216 2.804-.482 3.149-1.955.266-1.133-.336-2.498-1.419-2.986"/><path d="m56.16 26.443c.242 1.407 1.344 2.508 2.851 2.369 1.158-.106 2.263-1.11 2.383-2.291.946-.106 1.884-.276 2.786-.573 1.219-.401 2.411-1.186 2.972-2.379.789-1.677.096-3.404-1.176-4.527-.013-.732-.324-1.459-.898-1.997-1.954-1.831-4.488-3.078-7.05-1.689-2.112 1.148-2.783 3.993-3.084 6.169-.138 1 .262 1.97 1.017 2.547-.012.801.063 1.608.194 2.371"/></g></svg>