<svg xmlns="http://www.w3.org/2000/svg" viewBox="0 0 100 100" enable-background="new 0 0 100 100"><g fill="#1d1d1b"><path d="m60.849 39.462c18.881 2.458 35.14-14.15 31.06-33.32-.423-1.981-2.697-1.944-3.756-.758-.654.312-1.143.938-1.122 1.894.005.213-.002.425-.002.637-.308.235-.573.553-.746.98-1.238 3.068-3.818 3.533-6.677 2.263-.356-.158-.704-.214-1.036-.203-.015-.005-.026-.014-.041-.019-6.478-2.301-13.04-1.547-18.229 3.127-4.88 4.399-6.115 11.361-5.387 17.632-23.22 14.05-45.873 32.384-49.667 60.948-.005.039.004.069.0001.107-1.124 1.501.832 4.153 3.039 3.172 25.24-11.214 40.08-32.817 52.56-56.46m16.506-24.273c.312.111.599.145.866.128 2.3.909 4.733 1.369 7.149.482.233-.086.448-.194.664-.299-3.168 11.892-13.594 20.883-26.664 16.527-1.866-11.366 6.232-21.01 17.985-16.838m-23.633 22.409c-1.632 5.111-3.895 9.88-6.621 14.368-2.42-1.497-4.436-3.436-6.01-5.785 4.096-3.061 8.355-5.909 12.631-8.583m-17.505 12.416c.083.328.241.653.513.958 2.051 2.297 4.506 4.142 7.05 5.852.023.016.046.023.069.037-8.926 12.511-21.37 22.779-33.577 32.13 3.277-16.17 13.491-28.725 25.94-38.974"/><path d="m66.35 24.09c1.187-2.687 3.117-4.01 6.083-3.866 2.841.137 2.828-4.269 0-4.406-4.359-.211-8.118 2.041-9.888 6.05-1.137 2.574 2.658 4.818 3.805 2.224"/></g></svg>