<svg xmlns="http://www.w3.org/2000/svg" viewBox="0 0 100 100" enable-background="new 0 0 100 100"><path fill="#1d1d1b" d="m72.65 15.904c1.804-1.182 3.758-2.108 5.87-2.795 2.611-.849 2.01-4.509-.151-4.89-.112-.055-.22-.113-.347-.155-10.981-3.665-22.783-2.456-32.02 4.468-9.779-6.978-21.69-6.968-33.22-4.468-1.883.408-2.147 2.297-1.386 3.597.261.954 1.021 1.76 2.296 1.785 4.428.088 8.517 1.156 12.398 2.968-10.253 5.773-18.644 13.3-23 24.721-.817 2.141 1.393 3.399 3.14 2.874.516-.034 1.041-.241 1.514-.703 8.21-8.02 17.826-12.952 29.23-12.596-.803 20.18-.462 40.39-1.146 60.58-.032.954.389 1.616.993 2 .272.278.622.509 1.081.645 4.954 1.471 9.928 1.714 14.914.394 1.448.393 3.219-.364 3.155-2.294-.624-18.835-.169-37.679-.393-56.52 4.142 5.312 7.472 11.168 9.683 17.638.845 2.473 4.222 2.046 4.84.135.073-.121.146-.243.205-.384 2.579-6.245 2.866-12.776.822-18.984 8.02.318 15.851 1.598 23.475 4.307 2.656.944 3.976-2.633 2.239-4.248-6.105-8.609-14.228-15.13-24.19-18.07m-29.08 29.544c2.312-2.077 4.673-4.095 7.07-6.068.031 4.106.035 8.213.032 12.319-2.455-1.98-4.791-4.106-7.105-6.251m7.143 31.542c-2.491-2.172-4.922-4.41-7.339-6.665 2.446-2.917 4.885-5.839 7.289-8.791-.006 5.152.002 10.305.05 15.456m-2.177-20.684c-2.385 2.962-4.805 5.895-7.249 8.809.052-4.954.1-9.909.171-14.862 2.297 2.092 4.634 4.132 7.078 6.05m-.151 25.2c-2.517 1.818-5.02 3.66-7.471 5.562.107-4 .186-8.01.244-12.01 2.367 2.196 4.774 4.348 7.227 6.448m-3.414 8.676c1.937-1.484 3.901-2.933 5.882-4.359.027 1.286.05 2.571.086 3.857-2.01.467-3.991.616-5.968.502m23.02-61.31c-1.727-.285-3.781 1.631-2.729 3.74 2.028 4.062 2.609 8.275 2.035 12.472-3.317-6.992-7.832-13.294-13.268-18.918-.383-.889-1.272-1.524-2.288-1.524h-3.481c-1.356 0-2.487 1.131-2.487 2.487 0 1.356 1.131 2.487 2.487 2.487h2.187c.021.023.042.046.064.069.021 1.141.037 2.282.054 3.423-.112.068-.225.133-.334.221-2.898 2.355-5.787 4.719-8.598 7.176.1-4.128.224-8.255.409-12.38.088-1.972-1.755-2.721-3.224-2.268-9.08-.734-17.321 1.65-24.642 6.121 4.786-5.563 11.09-9.673 17.93-13.145.018-.009.031-.022.049-.031 1.64-.67 2.438-3.287.448-4.512-1.762-1.085-3.577-2.02-5.434-2.817 6.03.169 11.889 1.718 16.844 5.728.163.132.332.237.502.323.894.669 2.188.852 3.264-.075 6.466-5.57 14.667-7.261 22.742-6.06-1.736 1.072-3.367 2.322-4.873 3.786-.364.354-.569.741-.67 1.131-.613 1.295-.274 2.97 1.519 3.274 8.576 1.455 15.837 5.554 21.639 11.588-6.582-1.55-13.324-2.234-20.14-2.297"/></svg>