<svg xmlns="http://www.w3.org/2000/svg" viewBox="0 0 100 100" enable-background="new 0 0 100 100"><path d="m12.52 58.51c1.101-.064 2.201-.141 3.301-.223.04.002.073.014.115.013 18.15-.698 36.29-1.86 54.47-1.89 1.12-.002 1.531-1.099 1.235-1.907.389-2.487.587-4.98.635-7.495 8.163-1.556 16.339-3.039 24.545-4.353 1.525.113 2.094-2.282.467-2.69-7.777-1.951-15.643-3.569-23.2-6.284-.392-.427-1.017-.656-1.679-.336-1.971.953-3.968 1.835-5.974 2.686.135-1.143.255-2.287.407-3.428.37-.789-.024-2-1.184-2.08-7.979-.525-15.778-2.324-23.688-3.387-.065-.009-.126-.006-.189-.007-.347-.188-.778-.187-1.214.145-12.522 9.566-24.523 19.807-37.34 28.98-.129.092-.228.198-.313.309-.171.186-.256.404-.274.632-.0001.006-.0001.012-.002.018-.002.033-.006.066-.005.099-.006.093.004.186.016.278-.207.795.213 1.765 1.273 1.74 2.864-.068 5.74-.384 8.61-.82m56.48-4.837c-12.251.059-24.488.606-36.723 1.167 5.861-1.112 11.713-2.271 17.565-3.433 6.556-1.302 13.11-2.606 19.673-3.87-.053 2.056-.208 4.099-.515 6.136m-5.332-16.492c-9.485 3.807-19.295 6.679-29.15 9.443 9.939-3.748 19.848-7.566 29.368-12.312-.079.716-.157 1.432-.255 2.146-.034.249-.022.495.033.723m-21.987-7.329c6.382.879 12.698 2.184 19.09 2.95-15.13 7.334-31.19 12.478-46.75 18.822 9.306-7.145 18.341-14.641 27.66-21.772m31.25 6.263c.108.079.227.15.37.201 5.448 1.959 11.05 3.346 16.671 4.698-13.23 2.247-26.393 4.866-39.554 7.483-7.399 1.471-14.801 2.931-22.22 4.32-4.267.799-8.629 1.757-13.01 2.515-.393.028-.786.058-1.18.084 19.738-6.197 40.13-10.392 58.915-19.301" fill="#1d1d1b"/></svg>