<svg xmlns="http://www.w3.org/2000/svg" viewBox="0 0 100 100" enable-background="new 0 0 100 100"><path d="m79.65 27.03c-.189-5.747-.295-11.511-.238-17.261.002-.256-.039-.482-.097-.695.113-1.253-.624-2.576-2.229-2.534-20.256.531-40.507-.262-60.764-.294-1.686-.003-2.423 1.478-2.215 2.777-.068.226-.114.469-.111.746.306 24.17 1.136 58.901 1.163 83.08 0 .542.154.983.4 1.331.149 1.025.885 1.931 2.217 1.898 8.755-.217 17.514-.358 26.26-.787 7.797-.382 17.514.13 24.967-2.415 2.638-.901 5-2.234 7.02-4.162 3.699-3.526 4.962-8.26 5.28-13.248.307-4.791-.258-9.816-.37-14.23-.289-11.403-.914-22.801-1.289-34.2m-12.817 45.11c-1.425.008-2.803 1.121-2.166 2.831 1.281 3.439 1.867 7.71-.103 10.999-2.383 3.978-6.634 3.87-10.675 4.38-2.472.311-5.099.146-7.591.217-1.938.055-26.494.653-26.494.749-.058-23.269-.827-57.1-1.138-80.36 18.702.081 37.4.723 56.1.323-.063 17.1 1.609 44.72 1.723 61.817-2.901-.915-5.899-1.302-8.996-1.095-.242.015-.457.07-.659.141m1.827 15.903c1.878-3.2 2.347-7.128 1.37-11.384 2.262.088 4.492.524 6.604 1.42.009.027.015.055.025.081-.685 5.04-3.876 8.138-7.999 9.883" fill="#1e1e1c"/></svg>