<svg xmlns="http://www.w3.org/2000/svg" viewBox="0 0 100 100" enable-background="new 0 0 100 100"><path d="m87.35 36.12c-.245-.465-.571-.769-.933-.956-.357-.29-.822-.481-1.396-.506-.174-.007-.347-.006-.52-.012-.343-.185-.752-.296-1.248-.275-21.12.897-42.22 2.437-63.37 2.125-.68-.001-1.207.212-1.6.557-.017.013-.037.022-.053.035-.289.122-.571.32-.832.615-4.558 5.183-8.966 10.491-13.251 15.901-.133.168-.233.341-.316.517-.221.348-.339.79-.276 1.345.831 7.328 1.864 14.616 3.422 21.828.305 1.413 1.492 1.86 2.585 1.63.205.057.423.098.668.099 26.642.125 53.26-2.052 79.9-.785.836.04 1.432-.294 1.807-.793.027-.032.05-.07.075-.104.034-.051.068-.101.098-.155.12-.198.226-.415.292-.678 1.825-7.188 3.286-14.42 3.969-21.809.174-.54.155-1.159-.181-1.798l-8.835-16.781m-2.418 8.909c.165-.824.321-1.65.484-2.475 1.695 3.221 3.391 6.442 5.086 9.663-1.048.027-2.096.06-3.145.09-.716-2.309-1.579-4.565-2.616-6.749.082-.155.151-.326.191-.529m-2.969-5.598c-.247 1.266-.493 2.533-.743 3.798-18.964.831-37.915 2.01-56.9 2.246-.491-1.322-.984-2.643-1.467-3.968 19.727.135 39.41-1.217 59.11-2.076m-57.42 10.04c18.875-.245 37.718-1.411 56.57-2.237.812 1.694 1.509 3.43 2.097 5.21-5.03.182-10.06.434-15.08.865-.386.033-.721.142-1.01.303-.55.174-1.047.553-1.417 1.06-1.228 1.68-2.548 3.269-4.03 4.724-8.614.002-17.227.039-25.836.364-1.259-1.668-2.358-3.456-3.366-5.284-.493-.895-1.28-1.211-2.052-1.147-.121-.012-.241-.026-.374-.02-2.819.128-5.636.173-8.453.174 1.065-1.275 2.048-2.614 2.946-4.01m-5.426-6.559c.589 1.611 1.186 3.22 1.787 4.826-1.267 1.918-2.693 3.699-4.316 5.345-.111.113-.204.229-.281.348-1.949-.041-3.898-.096-5.848-.172 2.83-3.496 5.714-6.946 8.658-10.347m69.17 30.544c-25.711-1.073-51.41.927-77.12.858-1.111-5.438-1.943-10.913-2.613-16.422 6.849.301 13.692.43 20.544.156 1.142 1.94 2.4 3.79 3.8 5.564.18.228.411.388.663.5.357.259.821.409 1.396.386 9.09-.365 18.19-.392 27.29-.393.199 0 .384-.022.557-.06.508-.016 1.029-.198 1.501-.63 1.8-1.647 3.339-3.521 4.798-5.466 7.43-.606 14.873-.859 22.322-1.045-.651 5.591-1.792 11.08-3.135 16.552" fill="#1d1d1b"/></svg>