<svg xmlns="http://www.w3.org/2000/svg" viewBox="0 0 100 100" enable-background="new 0 0 100 100"><path d="m76.928 8.06c-.191-.051-.394-.086-.611-.099-17.707-1.114-35.429-1.779-53.16-.744-1.666.097-2.549 1.362-2.665 2.662-.306.417-.495.953-.495 1.613.019 27.312.711 49.04 1.095 76.35-.703 1.613.108 4.01 2.436 4.132 14.12.725 24.911 1.133 39.03 1.859.356.018.667-.033.952-.117.595-.018 1.205-.221 1.763-.699 5.266-4.514 10.488-9.06 15.241-14.13.584-.622.799-1.318.767-1.984.042-.226.066-.465.05-.73-1.444-23.641-1.139-41.754-1.487-65.42-.027-1.839-1.497-2.732-2.921-2.691m-12.627 78.44c-.252-2.953-.545-5.901-.923-8.841 3.671-.637 7.386-.777 11.12-.607-3.263 3.294-6.695 6.406-10.194 9.448m-4.71-13.758c-1.606.376-2.153 1.71-1.947 2.967-.033.265-.043.54 0 .835.566 3.824.907 7.672 1.211 11.524-11.286-.565-20.391-.955-32.21-1.526-.381-26.479-1.032-47.38-1.069-73.861 16.249-.809 32.493-.249 48.724.737.272 21.23.113 36.898 1.214 58.11-5.346-.322-10.704-.006-15.927 1.217" fill="#1d1d1b"/></svg>