<svg xmlns="http://www.w3.org/2000/svg" viewBox="0 0 100 100" enable-background="new 0 0 100 100"><path fill="#1d1d1b" d="m82.05 5.603c-.179-.04-.352-.061-.524-.065-2.788-.069-5.869-.164-9.139-.266-8.394-.259-17.907-.553-27-.553-8.683 0-15.517.269-20.892.821-1.066.109-1.897.763-2.264 1.766-.838.422-1.331 1.238-1.331 2.227-.005 12.238-.091 25.489-.175 38.3-.082 12.575-.166 25.576-.174 37.603-.228.278-.373.599-.479.931-.034.104-.08.205-.103.312-.006.028-.011.056-.016.084-.047.265-.068.533-.033.797.098.74.526 1.378 1.208 1.796 6.205 3.812 15.279 5.589 28.558 5.589.002 0 .002 0 .003 0 6.416 0 13.05-.415 18.894-.78 4.73-.296 9.199-.576 12.936-.604.727-.006 1.353-.265 1.811-.749.468-.495.723-1.194.706-1.93.05-.21.075-.411.077-.615.043-8.86.611-17.877 1.213-27.424 1.168-18.537 2.377-37.706-.597-55.35-.226-1.342-1.338-2.118-2.677-1.892m-1.884 57.41c-.573 8.851-1.115 17.218-1.223 25.419-2.821.103-6.118.322-9.598.555-6.076.406-12.962.866-19.654.866-10.519 0-18.17-1.177-23.345-3.586 1.801-1.502 3.6-3 5.272-4.651 1.929-1.9-1.038-4.864-2.967-2.966-.934.92-1.913 1.788-2.903 2.643.006-2.944.016-5.935.027-8.952 1.83-1.923 3.825-3.674 5.843-5.404 2.056-1.763-.925-4.716-2.967-2.966-.96.823-1.911 1.655-2.849 2.502.019-3.479.039-6.975.061-10.465 2.205-2.01 4.344-4.087 6.454-6.197 1.914-1.914-1.052-4.88-2.967-2.966-1.142 1.142-2.29 2.277-3.45 3.4.005-.82.011-1.642.016-2.459.017-2.623.034-5.266.051-7.913 2.047-1.761 4.081-3.539 6-5.441 1.923-1.906-1.043-4.87-2.965-2.966-.975.966-1.981 1.896-3 2.812.019-3.196.035-6.386.05-9.55 2.144-1.94 4.241-3.944 6.542-5.696 2.12-1.616.035-5.261-2.117-3.621-1.526 1.162-2.976 2.409-4.403 3.68.009-2.872.016-5.714.018-8.499 5-.453 11.33-.674 19.317-.674 9.372 0 19.12.301 27.714.567 2.431.075 4.733.146 6.857.205 2.501 16.589 1.326 34.753.188 52.32"/></svg>