<svg xmlns="http://www.w3.org/2000/svg" viewBox="0 0 100 100" enable-background="new 0 0 100 100"><g fill="#1d1d1b"><path d="m75.48 5.059c-4.852.794-9.977 1.177-16.13 1.205-.336.0001-.662.039-1.017.115-2.275.181-3.948 1.705-4.087 3.744-.153 2.236-.307 14.751-.483 29.24-.262 21.365-.587 47.954-1.028 51.13-.104.741.008 1.434.331 2.061.518 1.519 1.896 2.454 3.641 2.454.165 0 .337-.008.515-.025 7.04-.689 13.1-.898 18.815-.65.938.032 1.746-.148 2.449-.555 1.402-.645 2.256-1.847 2.349-3.312.366-5.811.383-80.15.383-80.899 0-1.095-.44-2.074-1.246-2.781-.998-1.347-2.714-2.02-4.49-1.73m-2.979 8.379l-.005 3.419c-.019 15.493-.073 60.35-.209 69.48-3.393-.022-6.807.087-10.467.343.206-5.542.373-22.08.578-44.01.116-12.517.228-24.437.328-28.554 3.397-.098 6.62-.321 9.775-.676"/><path d="m41.565 5.059c-4.852.794-9.977 1.177-16.13 1.205-.336.0001-.662.039-1.017.115-2.275.181-3.948 1.705-4.087 3.745-.153 2.233-.306 14.73-.483 29.2-.262 21.382-.587 47.994-1.028 51.17-.104.741.008 1.434.331 2.061.519 1.519 1.896 2.454 3.641 2.454.165 0 .337-.008.515-.025 7.04-.689 13.11-.9 18.816-.65.937.034 1.746-.148 2.448-.555 1.402-.645 2.256-1.847 2.349-3.312.366-5.81.384-80.15.384-80.899 0-1.095-.44-2.073-1.246-2.781-.999-1.348-2.72-2.02-4.491-1.73m-2.979 8.379l-.005 3.45c-.019 15.485-.073 60.32-.208 69.45-3.396-.022-6.806.087-10.467.343.205-5.539.373-22.06.577-43.98.116-12.531.228-24.465.328-28.584 3.397-.098 6.62-.321 9.775-.676"/></g></svg>