<svg xmlns="http://www.w3.org/2000/svg" viewBox="0 0 100 100" enable-background="new 0 0 100 100"><g fill="#1e1e1c"><path d="m81.932 28.855c-.181-5.491-.282-12.909-.228-18.404.002-.245-.037-.461-.093-.664.107-1.197-.596-2.461-2.129-2.421-19.354.508-38.704-.25-58.06-.28-1.61-.003-2.315 1.412-2.117 2.654-.064.216-.109.448-.106.712.292 23.09 1.086 56.28 1.111 79.38 0 .518.147.939.382 1.272.142.979.846 1.845 2.119 1.813 8.365-.208 16.734-.342 25.09-.752 7.45-.365 16.734.124 23.855-2.307 2.521-.861 4.777-2.134 6.71-3.977 3.535-3.369 4.741-7.892 5.05-12.658.292-4.577-.247-9.379-.354-13.597-.276-10.895-.873-19.875-1.231-30.768m-12.246 41.19c-1.362.008-2.678 1.071-2.07 2.705 1.225 3.286 1.784 7.366-.098 10.509-2.276 3.801-6.338 3.698-10.2 4.185-2.361.298-4.872.14-7.253.207-1.853.052-25.314.624-25.314.716-.055-22.23-.79-54.55-1.087-76.78 17.869.077 35.733.691 53.602.309-.068 18.253 1.55 44.639 1.646 59.06-2.772-.875-5.637-1.244-8.595-1.046-.233.014-.439.067-.631.134m1.745 15.196c1.795-3.058 2.243-6.81 1.31-10.877 2.161.084 4.292.501 6.309 1.356.009.025.015.052.024.077-.655 4.819-3.703 7.776-7.643 9.444"/><path d="m33.5 34.917c-1.139-.12-1.816.512-2.052 1.335-.225.33-.366.742-.365 1.248.022 6.792.24 13.568-.5 20.333-.316 2.883 4.188 2.852 4.5 0 .322-2.939.457-5.88.512-8.823 3.605-.11 7.181-1.682 6.979-6.03-.22-4.741-4.792-7.613-9.07-8.06m4.334 9.151c-.609.468-1.409.595-2.206.582-.004-1.533-.017-3.067-.029-4.601 1.218.626 2.181 1.664 2.485 3.02.064.284-.076.869-.25 1"/><path d="m48.1 34.664c-1.384-.371-2.372.498-2.685 1.563-.403.362-.67.896-.663 1.607.061 6.126.781 12.214 1 18.333.029.817.415 1.396.942 1.752.488.608 1.263.982 2.239.751 12.54-2.968 10.636-20.932-.833-24.01m2.02 18.674c-.25-4.412-.665-8.814-.814-13.231 4.471 3.046 5.396 10.296.814 13.231"/><path d="m67.833 34.917c-1.774.163-3.554.166-5.333.167-1.115 0-1.797.666-2.055 1.484-.148.304-.23.665-.195 1.1.501 6.227.918 12.43.333 18.667-.271 2.89 4.231 2.864 4.5 0 .221-2.362.293-4.718.277-7.07.12-.028.236-.069.357-.093.069-.014.108-.023.145-.031.034-.003.06-.005.114-.011.285-.031.571-.037.857-.041 1.226-.015 2.25-1.012 2.25-2.25 0-1.215-1.023-2.265-2.25-2.25-.537.006-1.073.054-1.606.13-.085-1.715-.198-3.431-.329-5.148.979-.019 1.958-.058 2.935-.148 1.221-.112 2.25-.939 2.25-2.25 0-1.144-1.026-2.365-2.25-2.252"/></g></svg>