<svg xmlns="http://www.w3.org/2000/svg" viewBox="0 0 100 100" enable-background="new 0 0 100 100"><path d="m10.896 94.89c10.881-1.769 21.323-4.528 29.08-12.817.146-.156.249-.314.334-.473 15.562-15.15 30.81-30.635 44.627-47.41 1.01.915 1.907 1.882 2.693 3.01-7.121 9.04-14.592 17.78-22.474 26.17-1.892 2.01 1.598 4.511 3.467 2.523 8.209-8.735 15.984-17.846 23.37-27.29.434-.555.579-1.516.22-2.146-1.471-2.583-3.303-4.49-5.509-6.399-.092-.172-.206-.34-.354-.496 3.961-5.976 3.756-12.904-1.838-17.922-5.547-4.976-13.909-4.115-19.606-.05-.002 0-.004-.0001-.006-.002-.663-.42-1.516-.447-2.266.292-15.972 15.734-30.628 32.723-44.608 50.24-.059.073-.1.148-.145.222-.107.112-.208.241-.301.391-5.528 8.965-7.973 18.905-9.237 29.27-.056.459.024.848.185 1.175.194 1.029 1.03 1.93 2.364 1.713m72.22-68.23c-4.732-4.226-9.408-8.511-14.386-12.444 8.804-4.886 20.14 2.838 14.386 12.444m-18.795-10.427c6.135 4.652 11.762 9.895 17.517 15-13.432 16.352-28.25 31.448-43.39 46.21-5.382-4.623-10.914-9.08-15.843-14.186 13.11-16.358 26.824-32.25 41.713-47.02m-44.21 50.601c4.834 4.894 10.173 9.234 15.394 13.712-4.897 4.706-11.09 7.095-17.566 8.618-1.354-.985-2.719-1.973-3.869-3.198-.124-.131-.261-.242-.404-.343 1.22-6.564 3.131-12.912 6.445-18.789" fill="#1d1d1b"/></svg>