<svg xmlns="http://www.w3.org/2000/svg" viewBox="0 0 100 100" enable-background="new 0 0 100 100"><path d="m8.327 94.48c.321 1.255 1.472 2.403 3.105 2.174 10.242-1.44 20.298-3.765 30.3-6.364.468-.122.83-.338 1.115-.604.619-.115 1.155-.512 1.52-1.06.198-.117.393-.255.577-.445 14.14-14.504 29.27-27.997 43.41-42.499 1.135-1.164.835-2.629-.035-3.543-.112-.187-.244-.372-.42-.548-.259-.259-.52-.516-.779-.775 2.832-2.944 5.462-6.07 8.05-9.225.894-1.09.734-2.385.098-3.307-.102-.215-.226-.428-.401-.632-6.907-8.05-14.39-15.495-22.424-22.424-1.234-1.064-2.749-.715-3.664.171-.198.114-.393.25-.578.435-2.936 2.934-5.896 5.831-9.09 8.485-.033.027-.054.058-.085.086-.302-.255-.597-.515-.9-.768-1.818-1.518-4.212-.065-4.465 1.661-14.87 13.678-29 28.12-43.487 42.2-.164.159-.295.325-.404.494-.286.304-.497.719-.569 1.278-1.484 11.498-1.884 23.03-.992 34.591.017.221.06.425.118.617m4.876-3.299c-.116-1.903-.187-3.807-.239-5.711 1.841 1.554 3.629 3.165 5.378 4.823-1.71.313-3.421.617-5.139.888m57.54-80.62c6.824 6.02 13.228 12.444 19.221 19.299-2.085 2.511-4.222 4.977-6.486 7.33-6.686-6.638-13.444-13.195-20.524-19.408 2.72-2.276 5.273-4.726 7.789-7.221m-13.852 8.755c1.132.97 2.255 1.949 3.37 2.936-7.546 7.474-15.224 14.808-22.21 22.825-2.166 2.486 1.456 6.139 3.636 3.636 7.04-8.08 14.789-15.474 22.396-23.01.996.911 1.978 1.837 2.964 2.758-11.309 10.787-21.329 22.805-32.18 34.04-2.301 2.383 1.332 6.02 3.636 3.636 10.883-11.272 20.93-23.33 32.28-34.14 1.448 1.385 2.881 2.787 4.316 4.186-8.41 8.322-16.983 16.476-25.23 24.957-2.311 2.375 1.323 6.02 3.636 3.636 8.263-8.492 16.849-16.658 25.27-24.992 1.379 1.362 2.759 2.723 4.13 4.093-13.339 13.525-27.458 26.25-40.755 39.82-9.869-6.973-18.73-15.09-26.604-24.25 13.745-13.411 27.21-27.11 41.34-40.12m-43.22 45.775c6.995 7.847 14.754 14.881 23.21 21.12-4.115 1.037-8.245 2-12.393 2.877-3.488-3.452-7.1-6.748-10.973-9.768-.193-.151-.393-.261-.595-.351.053-4.631.29-9.26.752-13.875" fill="#1d1d1b"/></svg>