<svg xmlns="http://www.w3.org/2000/svg" viewBox="0 0 100 100" enable-background="new 0 0 100 100"><g fill="#1d1d1b"><path d="m22.02 88.31c-.328 1.458.484 3.33 2.434 3.524 18.407 1.826 36.994 3.692 55.14-.968 1.239-.318 1.808-1.24 1.862-2.217 5.265-26.302 2.785-52.883.064-79.25-.008-.079-.032-.147-.045-.222.019-1.04-.539-2.034-1.881-2.308-18.02-3.687-38.31-3.487-56.28.437-1.428.312-1.974 1.433-1.872 2.548-3.944 25.974-2.596 52.47.573 78.45m4.38-76.29c15.941-3.252 34.12-3.444 50.11-.415 2.614 24.76 4.785 49.874.084 74.57-16.294 3.819-32.989 2.306-49.5.667-2.954-24.739-4.34-50.1-.695-74.826"/><path d="m30.531 75.838c.489.686 1.25 1.107 2.144 1.188l.123.011c6.8.617 13.831 1.255 20.756 1.255 6.817 0 12.796-.626 18.276-1.913 1.183-.278 1.971-1.138 2.075-2.255 3.65-16.753 2.073-37.36.047-55.31-.006-.052-.016-.103-.026-.151-.039-1.195-.865-2.108-2.14-2.347-6.093-1.14-12.543-1.718-19.17-1.718-7.183 0-14.196.673-20.846 2-1.547.31-2.174 1.49-2.127 2.573-3.413 20.696-.882 44.91.396 54.55-.119.729.059 1.504.493 2.112m4.483-54.36c5.557-.989 11.635-1.511 17.628-1.511 5.501 0 10.839.42 15.878 1.248 1.613 14.161 3.285 34.37.118 50.33-4.591.932-9.577 1.385-15.216 1.385-5.778 0-11.551-.462-17.907-1.035-1.206-9.513-3.384-31.662-.501-50.42"/><path d="m52.02 80.53c-3.824 0-3.824 5.93 0 5.93 3.824 0 3.824-5.93 0-5.93"/></g></svg>