<svg xmlns="http://www.w3.org/2000/svg" viewBox="0 0 100 100" enable-background="new 0 0 100 100"><g fill="#1e1e1c"><path d="m83.932 28.855c-.181-5.491-.282-12.909-.228-18.404.002-.245-.037-.461-.093-.664.107-1.197-.596-2.461-2.129-2.421-19.354.508-38.704-.25-58.06-.28-1.61-.003-2.315 1.412-2.117 2.654-.064.216-.109.448-.106.712.292 23.09 1.086 56.28 1.111 79.38 0 .518.147.939.382 1.272.142.979.846 1.845 2.119 1.813 8.365-.208 16.734-.342 25.09-.752 7.45-.365 16.734.124 23.855-2.307 2.521-.861 4.777-2.134 6.71-3.977 3.535-3.369 4.741-7.892 5.05-12.658.292-4.577-.247-9.379-.354-13.597-.276-10.895-.873-19.875-1.231-30.768m-12.246 41.19c-1.362.008-2.678 1.071-2.07 2.705 1.225 3.286 1.784 7.366-.098 10.509-2.276 3.801-6.338 3.698-10.2 4.185-2.361.298-4.872.14-7.253.207-1.853.052-25.314.624-25.314.716-.055-22.23-.79-54.55-1.087-76.78 17.869.077 35.733.691 53.602.309-.068 18.253 1.55 44.639 1.646 59.06-2.772-.875-5.637-1.244-8.595-1.046-.233.014-.439.067-.631.134m1.745 15.196c1.795-3.058 2.243-6.81 1.31-10.877 2.161.084 4.292.501 6.309 1.356.009.025.015.052.024.077-.655 4.819-3.703 7.776-7.643 9.444"/><path d="m33.5 33.375c-.829.085-1.413.529-1.763 1.102-.436.363-.732.91-.737 1.648-.042 6.02.908 11.933 1.956 17.848.505 2.854 4.841 1.641 4.339-1.196-.365-2.062-.713-4.12-1-6.183 3.55-.155 6.887-1.953 6.879-6.146-.011-5.01-5.298-7.521-9.671-7.07m5.122 7.597c-.071.297-.12.389-.488.741-.414.396-1.425.512-2.36.467-.131-1.434-.218-2.873-.253-4.32.635.08 1.251.262 1.845.607.768.447 1.083 1.023 1.27 1.769-.021-.016.034.409.034.44 0 .054.002.081.003.115-.012.033-.028.084-.051.181"/><path d="m60.875 33.12c.176-2.9-4.325-2.883-4.5 0-.158 2.6-.078 5.181.11 7.756-1.994.209-3.989.419-5.985.619-.029.003-.056.011-.085.015-.4-2.678-.876-5.343-1.496-7.988-.661-2.825-5-1.627-4.339 1.196 1.275 5.447 1.939 10.973 2.544 16.527.311 2.853 4.814 2.883 4.5 0-.193-1.77-.392-3.538-.609-5.303 1.961-.198 3.922-.403 5.883-.609.233 2.135.496 4.27.727 6.412.307 2.854 4.81 2.884 4.5 0-.667-6.209-1.63-12.363-1.25-18.625"/><path d="m75.36 37.871c-.698-4.356-5.094-6.845-9.23-6.621-1.078.058-1.754.723-2.029 1.524-.134.278-.216.602-.221.976-.078 5.652.387 11.261 1 16.875.312 2.852 4.815 2.883 4.5 0-.19-1.743-.356-3.485-.506-5.229 3.877-.521 7.191-3.128 6.486-7.525m-6.801 3.048c-.09-1.632-.142-3.267-.159-4.905 1.168.375 2.134 1.157 2.514 2.491.43 1.511-.901 2.197-2.355 2.414"/></g></svg>