<svg xmlns="http://www.w3.org/2000/svg" viewBox="0 0 100 100" enable-background="new 0 0 100 100"><path d="m82.25 11.25c-13.919.033-27.83.705-41.75.5-.301-.004-.588.014-.86.052-.472.066-1.736.151-2.841.166-13.632.185-27.841 7.839-27.28 23.24.505 13.765 13.502 22.761 26.478 22.05.048-.003.094-.008.14-.013.077-.009.131.879.118 1.983-.109 9.262-.398 18.55-.008 27.78.271 6.424 10.272 6.45 10 0-.469-11.1.1-22.285.053-33.397-.042-9.939-.138-19.878-.097-29.817.005-1.105.906-2 2.01-2.01 4.667-.023 9.334-.112 14-.211 1.104-.023 1.992.853 1.984 1.958-.147 20.821.299 41.652.299 62.47 0 6.449 10 6.449 10 0 0-20.885-.449-41.78-.297-62.66.008-1.104.912-2.02 2.02-2.031 2.01-.028 4.02-.05 6.03-.055 6.448-.014 6.449-10.01 0-9.999m-46.12 35.998c-.043 0-.086 0-.131.002-7.948.439-14.831-3.475-16.448-11.606-1.753-8.813 7.155-12.553 14.67-13.447 1.097-.131 1.986.721 1.981 1.826-.03 7.07.005 14.15.049 21.23.007 1.105-.047 2-.121 2" fill="#1e1e1c"/></svg>