<svg xmlns="http://www.w3.org/2000/svg" viewBox="0 0 100 100" enable-background="new 0 0 100 100"><g fill="#1d1d1b"><path d="m94.49 31.483c-.172-1.781-1.402-2.799-2.715-3.054-.289-.109-.599-.192-.952-.208-5.611-.262-11.223-.492-16.836-.687-7.496-6.995-15.482-13.402-23.633-19.619-.387-.629-1.058-1.082-2.024-1.082s-1.637.453-2.024 1.082c-8.237 6.297-16.24 12.89-24.477 19.19-4.709.111-9.418.253-14.13.467-1.852.084-2.823 1.581-2.929 3.12-.066.247-.112.509-.127.794-.903 17.93-1.483 35.866-1.222 53.824.005.353.066.665.149.958-.188 1.748.779 3.763 2.907 3.935 29.26 2.367 58.785 3.515 87.91-1.095 1.712-.271 2.346-1.642 2.193-3.039.04-.236.059-.488.05-.759-.57-17.953-.41-35.933-2.139-53.823m-46.16-18.865c6.15 4.703 12.183 9.542 17.971 14.674-12.06-.342-24.12-.492-36.19-.346 6.075-4.772 12.09-9.627 18.217-14.328m-38.808 71.3c-.201-16.658.307-33.3 1.115-49.931 26-1.057 52.02-.512 78.01.667 1.365 16.13 1.346 32.32 1.813 48.5-26.783 3.944-54.03 2.868-80.934.765"/><path d="m85.02 38.861c-.135-1.314-1.104-2.064-2.137-2.252-.228-.081-.472-.141-.749-.154-21.797-.954-43.619-1.408-65.42-.481-1.458.062-2.222 1.166-2.306 2.301-.052.182-.088.375-.1.586-.71 13.221-1.167 26.446-.962 39.688.004.26.052.49.117.706-.148 1.289.613 2.775 2.288 2.902 23.03 1.745 46.27 2.592 69.19-.808 1.348-.2 1.847-1.211 1.726-2.241.031-.174.046-.36.04-.559-.449-13.239-.322-26.497-1.684-39.688m-66.878 38.662c-.158-12.283.241-24.553.878-36.818 20.466-.78 40.943-.378 61.4.492 1.074 11.892 1.06 23.833 1.427 35.762-21.08 2.907-42.532 2.114-63.705.564"/><path d="m78.68 70.841c-2.783-4.939-6.378-9.344-10.719-12.995-1.032-.868-2.268-.707-3.132-.084-.175.094-.348.199-.51.325-2.295 1.774-4.536 3.615-6.762 5.473-1.948-3.584-4.113-7.04-6.673-10.283-.792-1.01-2.586-.879-3.402 0-5.198 5.599-9.432 11.909-13.605 18.286-.468.715-.483 1.411-.239 1.997-.022 1.22.75 2.5 2.316 2.584 8.02.43 16.03.241 24.05 0 .007 0 .013-.002.02-.002 5.527-.004 11.05-.034 16.577-.238 1.806-.067 2.553-1.733 2.25-3.087.229-.583.225-1.269-.174-1.976m-39 .645c2.915-4.404 5.913-8.728 9.355-12.734 2.818 3.967 5.083 8.283 7.152 12.688-5.504.145-11.01.219-16.507.046m21.719-.157c-.522-1.142-1.05-2.279-1.597-3.403 2.108-1.772 4.237-3.517 6.396-5.226 2.72 2.525 5.056 5.364 7.05 8.49-3.949.101-7.899.132-11.85.139"/><path d="m37.944 52.825c.476-2.221-.258-4.352-1.635-5.9-1.537-1.728-3.876-2.729-6.225-2.317-4.413.775-7.03 5.594-5.04 9.8 1.389 2.941 6.666 4.176 9.412 2.961 1.788-.79 3.085-2.66 3.49-4.544m-4.808-.785c-.801 1.331-2.371 1.096-3.12.08-.262-.356-.423-.807-.416-1.32.047-3.241 4.896-1.022 3.536 1.24"/></g></svg>