<svg xmlns="http://www.w3.org/2000/svg" viewBox="0 0 100 100" enable-background="new 0 0 100 100"><g fill="#1d1d1b"><path d="m93.5 27.11c-.168-1.628-1.368-2.558-2.648-2.79-.282-.1-.584-.175-.928-.19-27.01-1.182-54.05-1.745-81.07-.596-1.807.077-2.753 1.445-2.857 2.851-.064.225-.109.465-.124.726-.88 16.383-1.446 32.771-1.192 49.18.005.322.064.607.145.875-.184 1.597.76 3.438 2.835 3.595 28.535 2.163 57.34 3.212 85.74-1 1.67-.248 2.289-1.5 2.139-2.777.039-.216.057-.446.049-.693-.556-16.405-.4-32.833-2.086-49.18m-82.87 47.907c-.196-15.22.299-30.424 1.087-45.622 25.36-.966 50.734-.468 76.08.609 1.332 14.736 1.313 29.532 1.768 44.31-26.12 3.604-52.702 2.621-78.938.7"/><path d="m85.64 66.739c-3.449-6.12-7.904-11.578-13.282-16.1-1.279-1.076-2.81-.876-3.881-.104-.217.117-.431.247-.632.403-2.844 2.198-5.621 4.479-8.379 6.781-2.413-4.441-5.097-8.719-8.269-12.743-.982-1.246-3.205-1.089-4.215 0-6.441 6.938-11.688 14.757-16.859 22.659-.58.886-.599 1.749-.296 2.475-.027 1.511.929 3.098 2.869 3.202 9.936.533 19.866.299 29.805 0 .009 0 .016-.002.025-.003 6.849-.005 13.696-.042 20.541-.295 2.238-.083 3.163-2.147 2.788-3.825.285-.722.279-1.571-.215-2.448m-48.33.8c3.612-5.456 7.327-10.815 11.592-15.779 3.492 4.915 6.299 10.263 8.863 15.722-6.821.179-13.637.271-20.455.057m26.913-.195c-.647-1.415-1.301-2.824-1.979-4.216 2.612-2.196 5.25-4.358 7.926-6.475 3.371 3.129 6.265 6.646 8.737 10.52-4.893.123-9.788.162-14.684.171"/><path d="m35.16 44.42c.59-2.752-.32-5.393-2.026-7.311-1.905-2.141-4.803-3.382-7.713-2.871-5.469.96-8.708 6.932-6.248 12.143 1.721 3.644 8.26 5.174 11.662 3.669 2.216-.979 3.824-3.296 4.325-5.63m-5.958-.973c-.992 1.649-2.938 1.358-3.866.099-.325-.441-.525-1-.515-1.636.059-4.02 6.067-1.267 4.381 1.537"/></g></svg>