<svg xmlns="http://www.w3.org/2000/svg" viewBox="0 0 100 100" enable-background="new 0 0 100 100"><g fill="#1d1d1b"><path d="m56.847 76.2c-.326-2.187-.61-4.378-.87-6.571-.023-.196-.049-.391-.072-.587-.021-.183-.043-.366-.064-.549-.715-6.278-1.205-12.58-1.661-18.888 5.837 2.149 11.691 4.249 17.584 6.231.165.055.33.111.495.167.175.059.351.119.526.177 1.841.614 3.69 1.208 5.542 1.791 1.229.387 2.453.787 3.687 1.159.191.057.372.086.551.108.369.046.708.017 1.021-.065.224-.059.435-.142.627-.254.204.098.405.19.608.286 1.076-2.219 1.982-4.521 2.675-6.89 7-23.929-11.291-43.765-33.36-47.579-.485-.352-1.096-.58-1.846-.599-1-.025-1.997-.009-2.988.028-1.776-.113-3.564-.131-5.357-.028-.907.052-1.608.407-2.127.914-16.711 3.362-30.567 15.679-35.02 32.859-5.62 21.699 9.646 40.684 30.28 45.871 6.356 1.598 12.697 1.419 18.657-.133-.013-.057-.023-.114-.035-.17.157-.077.31-.164.455-.265.155-.107.302-.227.438-.36.672-.655 1.078-1.601.88-2.753-.222-1.299-.428-2.599-.623-3.9m-19.591.834c-17.631-4.434-28.351-20.971-23.788-38.59 4.236-16.353 19.449-26.848 35.718-27.675 21.05 1.474 38.04 19.02 31.559 41.16-.051.176-.113.346-.167.521-9.832-3.073-19.502-6.615-29.16-10.192-2.718-1.01-4.263 2.01-3.341 4.124-.037.228-.053.471-.034.737.729 10.201 1.514 20.387 3.03 30.497-4.532.718-9.222.573-13.817-.582"/><path d="m93.63 67.742c-.256-.182-.542-.342-.889-.45-.624-.194-1.243-.402-1.865-.599-.175-.055-.35-.113-.525-.169-.19-.06-.379-.122-.568-.182-2.525-.806-5.05-1.628-7.558-2.47-1.508-.505-3.02-1.01-4.521-1.521-.546-.186-1.091-.375-1.637-.563-.501-.172-1-.346-1.502-.519-.825-.285-1.651-.569-2.476-.855-3.314-1.149-6.627-2.303-9.941-3.453-1.935-.671-3.268.643-3.562 2.207-.131.333-.21.69-.21 1.064v.795c0 .634.211 1.224.56 1.711-.125.44-.163.927-.056 1.465.29 1.451.575 2.903.863 4.354.049.248.098.495.147.743.095.481.191.962.286 1.442.253 1.282.508 2.563.762 3.844.444 2.248.897 4.493 1.344 6.74.187.941.381 1.881.57 2.823.033.167.068.334.101.501.204 1.017.41 2.033.616 3.05.407 2.01.802 4.02 1.218 6.03.015 1.744 1.476 3.612 3.72 3.145 13.596-2.829 23.426-12.363 27.51-25.524.616-1.992-.789-3.354-2.387-3.612m-23.477 22.536c-.42-2.047-.826-4.097-1.238-6.146-.28-1.39-.563-2.779-.84-4.17-.035-.176-.071-.351-.106-.526-.033-.166-.068-.333-.101-.499-.038-.189-.076-.377-.114-.566-.313-1.573-.627-3.145-.939-4.717-.144-.728-.289-1.456-.433-2.184-.196-.99-.393-1.979-.589-2.968-.033-.166-.066-.332-.099-.498s-.066-.332-.099-.498c-.216-1.091-.432-2.181-.649-3.272 1.648.574 3.297 1.146 4.946 1.718.264.091.528.184.792.275.265.092.529.182.794.274.193.067.386.132.579.198 2.156.744 4.315 1.48 6.476 2.209.477.161.955.32 1.432.48.343.115.686.23 1.029.345.342.114.683.23 1.025.343 2.425.805 4.853 1.599 7.289 2.37-3.513 8.777-10.168 15.03-19.15 17.832"/></g></svg>