<svg xmlns="http://www.w3.org/2000/svg" viewBox="0 0 100 100" enable-background="new 0 0 100 100"><path d="m15.903 43.579c.492.259.992.391 1.487.391.884 0 1.549-.409 1.951-.753l.134-.082.226.451c0 0 0 0 0 0l-.127-.484c1.198-.528 2.508-1.134 4.086-1.894l.323-.155.251.256c3.941 4.03 6.926 7.523 9.391 11 .207.292.455.538.781.774l.351.254-.202.384c-1.477 2.806-2.473 5.836-2.963 9.01l-.04.133c-.361.784-.235 1.785.335 2.675.927 1.447 2.686 2.046 4.239 1.347 5.516-2.491 10.855-5.04 15.87-7.57l.39-.197.248.359c2.228 3.232 3.841 5.525 5.223 7.487 2.91 4.134 4.833 6.865 9.335 13.925 1.523 2.389 12.838 14.625 14.983 15.25.046-2.05-7.05-14.284-9.631-18.334-4.369-6.851-6.222-9.483-9.03-13.467-1.394-1.979-3.02-4.292-5.307-7.617l-.317-.461.494-.264c5.547-2.958 10.568-5.841 15.353-8.813.979-.608 1.494-1.539 1.451-2.621-.048-1.207-.773-2.376-1.804-2.909l-.123-.064-.073-.118c-.367-.593-.897-1.032-1.575-1.302-4.796-1.914-9.985-2.531-15.09-1.799l-.334.048-.169-.292c-1.42-2.454-2.821-4.918-4.223-7.382-.952-1.674-1.904-3.349-2.862-5.02l-.212-.369.331-.268c1.307-1.059 3.02-2.468 4.714-3.975.898-.802 1.189-1.821.818-2.87l-.024-.105c-.052-.418-.171-.836-.355-1.242-2.211-4.87-4.933-8.99-8.09-12.244-1.068-1.102-2.521-1.209-3.74-.364l-.166.075c-.277.067-.523.157-.754.274-9.604 4.881-18.966 10.565-28.02 16.06-2.01 1.22-4.02 2.44-6.03 3.652-.831.5-1.328 1.233-1.438 2.119l-.022.177-.129.123c-.773.74-1.033 1.758-.733 2.868 1.654 6.106 5.596 11.187 10.817 13.941m44.733.74c1.221 0 2.459.094 3.682.279l1.402.212-1.226.714c-7.381 4.3-15.275 8.43-24.13 12.626l-1.272.603.607-1.271c3.882-8.119 11.907-13.163 20.941-13.163m-10.903-4.746l.285.496-.53.216c-4.125 1.682-7.863 4.289-10.809 7.538l-.409.451-.363-.489c-2.294-3.091-4.905-6.195-7.759-9.226l-.441-.468.563-.312c4.388-2.429 8.779-5.224 13.05-8.308l.451-.326 2.242 3.927c1.237 2.169 2.473 4.337 3.716 6.501m-33.775-13.179c8.703-5.274 17.702-10.728 26.899-15.507l.363-.188.257.318c1.556 1.928 2.95 4.103 4.262 6.648l.181.351-.3.257c-8.793 7.549-18.847 13.911-29.88 18.908l-.261.119-.234-.167c-2.63-1.872-4.551-4.426-5.708-7.589l-.142-.387 4.563-2.763" fill="#1d1d1b"/></svg>