<svg xmlns="http://www.w3.org/2000/svg" viewBox="0 0 100 100" enable-background="new 0 0 100 100"><g fill="#1e1e1c"><path d="m87.963 71.25c-4.03-5.362-7.931-10.814-11.625-16.411h6.908c1.187 0 1.973-.614 2.374-1.429.782-.785 1.128-1.973.397-3.217-9.145-15.567-19.427-30.418-28.91-45.775-1.109-1.794-3.228-1.554-4.399-.433-.49.18-.952.494-1.328.989-10.996 14.462-19.903 30.346-30.578 45.03-1.606 2.211.804 4.336 2.967 3.965.06.009.113.027.175.033 1.53.134 3.062.236 4.595.321-5.482 4.464-10.324 9.654-15.271 14.762-3.312 3.421 2.938 5.653 5.316 5.878 1.45.137 18.796-1.476 18.796-.647.002 5.276.031 10.55.277 15.822.015.335.091.629.193.901-.393 1.589.463 3.539 2.586 3.547 5.839.02 11.675.258 17.513.278.808.003 1.423-.285 1.866-.72.802-.41 1.418-1.186 1.47-2.338.25-5.539.471-11.08.532-16.62-.005.452 22.533 1.75 24.749 1.222.725-.173 2.153-.287 2.604-.971.614-.929-.226-3.712-1.207-4.19m-32.13 18.03c-4.22-.047-8.438-.161-12.659-.217-.2-4.856-.233-9.714-.237-14.574 4.442.132 8.883.276 13.322.453-.049 4.781-.218 9.56-.426 14.338m-33.468-20.819c-.342-.005-.641.055-.918.143 5.065-5.248 10.245-10.356 16.498-14.236 2.168-1.346 1.363-4.17-.383-4.995-.382-.224-.839-.369-1.391-.371-2.572-.009-5.141-.094-7.705-.239 8.829-12.645 16.658-25.966 25.805-38.39 8.157 13.02 16.782 25.745 24.713 38.906h-7.417c-1.644 0-2.524 1.17-2.661 2.436-.276.677-.262 1.478.262 2.303 3.599 5.672 7.435 11.175 11.412 16.582-19.387-1.144-38.794-1.87-58.22-2.139"/><path d="m45.996 37.882c-3.585 0-3.585 5.56 0 5.56 3.586 0 3.586-5.56 0-5.56"/><path d="m61.01 53.45c-3.586 0-3.586 5.56 0 5.56 3.585 0 3.585-5.56 0-5.56"/><path d="m58.41 30.84c-3.585 0-3.585 5.56 0 5.56s3.585-5.56 0-5.56"/><path d="m43.4 60.12c-3.586 0-3.586 5.56 0 5.56 3.584-.0001 3.584-5.56 0-5.56"/></g></svg>