<svg xmlns="http://www.w3.org/2000/svg" viewBox="0 0 100 100" enable-background="new 0 0 100 100"><path fill="#1d1d1b" d="m40.15 5.09c-14.442 6.247-21.872 21.233-18.288 36.496.238 1.015.872 1.591 1.619 1.824 1.52.987 4.256.255 4.451-2.184.661-8.257 3.784-15.984 11.438-19.934 5.708-2.945 12.774-2.436 18.658-.386 4.618 1.609 10.08 5.375 10.546 10.69.238 2.741-1.142 5.285-2.831 7.335-4.196 5.091-9.868 6.59-15.784 5.824 1.866-2.9 3.477-6.428 1.807-9.68-1.874-3.648-7.146-3.218-10.651-2.736-.742-.134-1.542.063-2.228.794-10.872 11.582-16.802 26.782-19.704 42.25-.983.315-1.779 1.139-1.772 2.483.027 5.826.394 11.631 1.088 17.416.216 1.797 1.804 2.657 3.214 2.581.006 0 .013-.0001.019-.0001.163-.001.321-.032.477-.067.02-.004.039-.001.059-.015.132-.033.258-.073.381-.124.065-.026.128-.057.192-.089.054-.028.107-.056.158-.088.519-.3.959-.774 1.208-1.473 4.583-12.844 10.301-25.21 15.859-37.653 13.662 3.715 30.13 4.881 39.808-7.183 8.495-10.585 6.313-26.18-1.919-36.22-8.999-10.98-24.513-15.61-37.805-9.86m35.05 43.27c-8.477 10.562-24.973 7.407-36.2 4.03-1.983-.596-3.284.979-3.344 2.581-4.176 9.358-8.445 18.678-12.306 28.17.059-.169.106-.35.134-.551 2.274-16.16 7.502-32.663 18.661-44.933 1.32-.177 2.653-.239 3.981-.121.141.013.853.279.874.268.025.015.052.03.071.045-.005.056-.015.155-.022.359.002-.055-.264.933-.377 1.247-.516 1.441-1.529 2.79-2.4 4.03-.018.025-.026.05-.042.075-2.647.083-3.507 4.421-.508 5.374 11.723 3.724 27.343-.659 30.07-14.224 1.583-7.887-4.462-14.345-10.992-17.643-7.511-3.794-16.979-4.437-24.759-1.103-3.939 1.688-7.01 4.231-9.351 7.316 2.516-5.458 6.979-10.02 12.938-12.933 11.428-5.599 25.447-.856 32.825 8.92 6.398 8.477 7.607 20.55.75 29.09"/></svg>