<svg xmlns="http://www.w3.org/2000/svg" viewBox="0 0 100 100" enable-background="new 0 0 100 100"><g fill="#1d1d1b"><path d="m90.66 2.904c-.379-.198-.836-.282-1.36-.166-1.423.314-2.852.607-4.302.762-.36.039-.697.148-.993.312-.012.005-.023.013-.034.018-.034.02-.07.038-.103.059-.292.158-.558.401-.763.768-5.757 10.296-10.348 21.2-15.963 31.575-5.796 10.709-12.939 22.246-24.09 27.995-5.25-1.387-4.232-8.49-3.881-12.894.092-1.149-.656-1.777-1.53-1.897-.132-.077-.276-.145-.438-.198-7.676-2.491-15.59-1.859-23.396-.333-.192.037-.356.099-.507.172-2.202.482-4.312 1.264-6.304 2.363-.644.356-.919.891-.959 1.446-.162.314-.238.664-.205 1.018-1.6 12.85 1.068 23.398 12.241 30.86 10.212 6.82 22.686 3.529 31.692-3.612 10.763-8.534 18.01-20.32 24.592-32.18 7.648-13.781 13.71-28.468 18.08-43.607.401-1.4-.649-2.345-1.77-2.461m-74.46 49.691c.171-.023.324-.086.468-.163 5.02-.87 10.04-1.218 15.01-.394-5.944 2.956-14.497 5.04-20.278 1.779 1.54-.593 3.141-.993 4.804-1.222m38.515 18.467c-7.391 8.304-17.862 15.855-29.476 12.666-12.639-3.47-16.3-14.98-15.711-26.375 7.535 4.104 18.266 1.49 25.45-2.528-.144 5.918.889 12.5 7.825 13.436.426.058.807-.012 1.141-.157.238-.025.483-.086.733-.211 10.815-5.393 17.992-15.9 23.912-26.06 6.51-11.172 11.368-23.2 17.619-34.504.512-.071 1.022-.155 1.533-.24-6.788 22.575-17.323 46.33-33.03 63.972"/><path d="m23.553 32.358c-1.341 3.388-.85 7.159 2.366 9.749 4.134 3.33 10.01 1.864 13-2.22 2.503-3.42 1.573-8.679-1.409-11.45-3.382-3.142-7.722-1.919-11.185.313-.377.057-.751.259-1.075.669-.045.057-.084.117-.128.175-.359.27-.709.545-1.039.825-.689.587-.78 1.313-.532 1.939m4.413.049c1.866-1.392 4.212-2.549 6.371-1.372 1.991 1.085 2.439 4.067 1.609 5.993-1.073 2.489-4.322 3.629-6.732 2.485-2.906-1.379-2.959-4.787-1.248-7.106"/><path d="m9.919 27.11c4.134 3.33 10.01 1.864 13-2.22 2.503-3.42 1.573-8.679-1.409-11.45-3.382-3.142-7.722-1.919-11.185.313-.377.057-.751.259-1.075.669-.045.057-.084.117-.128.175-.359.27-.709.545-1.039.825-.69.587-.781 1.313-.533 1.939-1.34 3.388-.848 7.158 2.367 9.749m2.047-9.7c1.866-1.392 4.212-2.549 6.371-1.372 1.991 1.085 2.439 4.067 1.609 5.993-1.073 2.489-4.322 3.629-6.732 2.485-2.906-1.379-2.959-4.787-1.248-7.106"/><path d="m15.333 18.667c1.156 0 1.79.805 1.91 1.692 1.424-.931 1.069-3.692-1.076-3.692-1.423 0-2.057 1.217-1.91 2.308.288-.188.642-.308 1.076-.308"/><path d="m32.17 33.5c1.156 0 1.79.805 1.909 1.692 1.424-.931 1.07-3.692-1.076-3.692-1.423 0-2.057 1.217-1.91 2.308.288-.188.643-.308 1.077-.308"/></g></svg>