<svg xmlns="http://www.w3.org/2000/svg" viewBox="0 0 100 100" enable-background="new 0 0 100 100"><g fill="#1d1d1b"><path d="m80.19 5.156c-.171-.95-.871-1.813-2.101-1.876-19.49-1-38.923.795-58.38 1.668-1.384.062-2.095 1.14-2.139 2.219-.268.345-.42.805-.363 1.395 2.642 27.363.931 54.899 3.058 82.29.014.18.046.348.091.505.042 1.082.751 2.18 2.133 2.275 18.821 1.3 37.641.034 56.44-1.112.191-.012.368-.045.533-.093 1.073-.053 2.153-.761 2.247-2.131 1.9-27.848.391-56.11-1.112-83.957-.025-.475-.178-.864-.401-1.182m-2.805 83.01c-17.579 1.074-35.18 2.169-52.78 1.13-1.93-26.631-.393-53.39-2.887-79.995 18.16-.87 36.31-2.424 54.5-1.652 1.44 26.71 2.828 53.795 1.171 80.52"/><path d="m46.02 31.459c-.09.0001-.176-.005-.273.007-11.614 1.442-19.09 12.502-14.632 23.74 3.853 9.711 14.468 13.05 24.02 11.303 8.679-1.59 16.957-8.403 17.196-17.657.364-13.991-15.16-18.378-26.306-17.393m10.996 29.917c-6.336 2.348-13.688 1.512-18.667-3.221-8.07-7.677-3.448-20.895 7.398-22.24 0 0 .004-.0001.006-.0001.061-.0001.115.007.179.0001 9.252-.842 19.586 1.09 21.84 11.568 1.446 6.718-5.311 11.877-10.756 13.895"/><path d="m47.788 42.849c-.016-2.868-4.464-2.869-4.448 0 .014 2.415.186 4.821.371 7.228.218 2.841 4.667 2.862 4.448 0-.185-2.407-.357-4.813-.371-7.228"/><path d="m52.606 42.664c.177 2.283.186 4.569.186 6.857 0 2.868 4.448 2.868 4.448 0 0-2.288-.008-4.575-.185-6.857-.221-2.841-4.67-2.862-4.449 0"/><path d="m50.864 53.51c-1.488-.054-3.196 1.58-3.065 3.166.239 2.875 3.053 3.476 5.096 1.996 1.356-.983 1.491-2.374.88-3.464-.524-.936-1.594-1.651-2.911-1.698"/><path d="m45.747 23.907c2.154 1.023 4.976 1.388 7.02-.034 2.171-1.507 4.101-4.498 3.555-7.25-1.049-5.287-8.626-5.941-12.171-2.903-3.745 3.211-2.605 8.194 1.591 10.187m5.593-7.53c1.724 1.11-.14 3.365-1.528 3.721-1.188.305-2.613-.311-2.762-1.542-.017-.136-.018-.28 0-.431.194-1.728 2.897-2.645 4.29-1.748"/><path d="m45.961 75.994c-3.745 3.21-2.605 8.193 1.591 10.187 2.155 1.024 4.976 1.388 7.02-.034 2.17-1.507 4.1-4.498 3.555-7.25-1.048-5.287-8.626-5.941-12.171-2.903m5.657 6.377c-1.188.305-2.613-.311-2.762-1.542-.017-.136-.017-.28 0-.431.194-1.728 2.897-2.645 4.291-1.748 1.724 1.11-.141 3.365-1.529 3.721"/></g></svg>