<svg xmlns="http://www.w3.org/2000/svg" viewBox="0 0 100 100" enable-background="new 0 0 100 100"><g fill="#1d1d1b"><path d="m40.511 23.827c-.661.542-1.106 1.369-1.096 2.491.04 4.367.458 8.698.968 13.03-3.579.262-7.158.529-10.737.786-.589.042-1.09.213-1.52.461-1.436.385-2.522 1.701-2.522 3.244v.674c0 .554.152 1.073.397 1.539.258 3.299.275 6.606.276 9.915 0 1.774 1.127 2.811 2.456 3.136.369.141.778.232 1.249.232h11.495c.083 3.706.277 7.409.295 11.12.009 1.743 1.103 2.774 2.402 3.119.381.154.811.25 1.304.25h11.453c.99 0 1.744-.36 2.283-.902.034-.029.064-.062.099-.092.026-.03.057-.058.083-.089.542-.539.903-1.293.903-2.286 0-3.933-.032-7.863-.203-11.79h12.667c2 0 3.068-1.429 3.227-2.971.292-.474.479-1.047.479-1.745v-12.13c0-1.533-.845-2.513-1.93-2.965-.526-.449-1.224-.741-2.113-.741h-12.6c-.201-4.266-.287-8.537-.537-12.801-.111-1.917-1.504-2.983-2.993-3.201-.319-.098-.66-.168-1.049-.168h-11.79c-1.514.0001-2.487.824-2.946 1.889m6.988 18.66c-.573-4.596-1.091-9.188-1.267-13.811h6.483c.17 4.04.26 8.09.51 12.13.016.244.058.471.111.687.006 1.68 1.091 3.355 3.258 3.355h13.14v7.07h-13.14c-1.921 0-2.989 1.317-3.212 2.787-.12.37-.187.782-.157 1.256.231 3.704.305 7.409.327 11.12h-5.102c-.092-3.369-.261-6.735-.278-10.11-.0001-.322-.05-.613-.12-.887.055-1.725-1.022-3.492-3.248-3.492h-11.807c-.02-1.987-.092-3.972-.228-5.955 3.562-.261 7.124-.526 10.687-.782.317-.023.604-.089.875-.177 1.76.094 3.446-.955 3.167-3.192"/><path d="m51.03 5.211c-1.981 0-3.995.118-6.01.353-.944.121-1.886.262-2.799.417-.577.09-1.108.262-1.586.51-18.984 2.517-33.514 16.74-36.22 35.514-3.316 22.995 14.11 44.662 38.838 48.3 2.175.32 4.413.482 6.653.482.0001 0 .0001 0 .003 0 22.705 0 42.43-15.434 45.875-35.9 1.986-11.792-2.308-24.735-11.781-35.509-8.03-9.136-19.742-14.168-32.972-14.168m2.631 10.342c8.899.618 16.624 4.298 22.973 10.948 7.456 7.811 10.782 18.795 8.681 28.665-2.675 12.562-15.876 25.277-35.932 25.277-2.328 0-4.619-.204-6.811-.605-18.442-3.383-30.911-20.4-27.796-37.935 2.674-15.04 15.907-25.543 32.18-25.543 1.099 0 2.214.049 3.313.146 1.336.119 2.479-.226 3.389-.953"/></g></svg>