<svg xmlns="http://www.w3.org/2000/svg" viewBox="0 0 100 100" enable-background="new 0 0 100 100"><path d="m88.29 36.997l-.218-.091-.181-.154c-.638-.545-1.442-.821-2.393-.821h-21.513l-.067-1.429c-.133-2.815-.234-5.631-.335-8.447-.142-3.917-.287-7.966-.519-11.938-.14-2.376-1.895-3.472-3.491-3.705l-.224-.05c-.446-.137-.838-.201-1.23-.201h-18.791c-1.993 0-2.904 1.144-3.317 2.103l-.145.334-.282.231c-.806.662-1.209 1.603-1.198 2.797.067 7.254.812 14.483 1.532 20.598l.184 1.557-7.141.524c-3.846.283-7.691.566-11.537.842-.652.047-1.234.223-1.778.537l-.171.099-.191.051c-1.686.452-2.909 2.02-2.909 3.722v1.074c0 .583.155 1.172.461 1.752l.145.274.022.31c.408 5.234.443 10.516.444 15.918 0 2.585 1.938 3.338 2.772 3.542l.18.056c.477.183.952.271 1.454.271h19.786l.033 1.466c.051 2.274.128 4.547.205 6.82.122 3.575.248 7.272.266 10.924.013 2.537 1.901 3.312 2.713 3.527l.177.06c.482.194.979.289 1.517.289h18.253c1.052 0 1.918-.335 2.575-.996l.296-.293c.662-.659.998-1.526.998-2.58-.0001-5.612-.04-12.227-.323-18.726l-.067-1.565h21.755c2.435 0 3.481-1.75 3.65-3.388l.035-.342.181-.293c.363-.589.54-1.241.54-1.993v-19.327c-.0001-2.02-1.17-2.932-2.153-3.339m-5.586 20.945h-22.437c-2.929 0-3.522 2.423-3.635 3.166l-.058.241c-.152.466-.211.938-.18 1.442.408 6.547.495 12.952.524 17.801l.009 1.509h-11.1l-.04-1.459c-.05-1.79-.112-3.58-.175-5.37-.123-3.525-.251-7.17-.27-10.769-.002-.337-.048-.67-.146-1.049l-.053-.207.007-.214c.037-1.179-.351-2.276-1.063-3.01-.646-.667-1.525-1.01-2.614-1.01h-20.3l-.016-1.484c-.033-3.24-.154-6.404-.359-9.405l-.103-1.49 7-.514c3.841-.283 7.681-.565 11.521-.841.333-.024.665-.092 1.043-.213l.263-.084.277.016c1.202.072 2.285-.31 2.896-1 .513-.581.709-1.389.583-2.401-1.025-8.222-1.763-15.13-2.03-22.14l-.06-1.557h13.33l.061 1.437c.091 2.156.167 4.313.243 6.47.149 4.209.304 8.562.568 12.828.017.257.06.52.136.826l.044.357c.007 1.917 1.151 3.853 3.692 3.853h22.438v14.273" fill="#1d1d1b"/></svg>