<svg xmlns="http://www.w3.org/2000/svg" viewBox="0 0 100 100" enable-background="new 0 0 100 100"><g fill="#1e1e1c"><path d="m81.73 28.855c-.181-5.491-.282-12.909-.228-18.404.002-.245-.037-.461-.093-.664.107-1.197-.596-2.461-2.129-2.421-19.354.508-38.704-.25-58.06-.28-1.61-.003-2.315 1.412-2.117 2.654-.064.216-.109.448-.106.712.292 23.09 1.086 56.28 1.111 79.38 0 .518.147.939.382 1.272.142.979.846 1.845 2.119 1.813 8.365-.208 16.734-.342 25.09-.752 7.45-.365 16.734.124 23.856-2.307 2.521-.861 4.776-2.134 6.71-3.977 3.534-3.369 4.741-7.892 5.05-12.658.292-4.577-.247-9.379-.354-13.597-.275-10.895-.872-19.875-1.231-30.768m-12.246 41.19c-1.362.008-2.678 1.071-2.069 2.705 1.224 3.286 1.784 7.366-.099 10.509-2.276 3.801-6.338 3.698-10.2 4.185-2.362.298-4.873.14-7.253.207-1.853.052-25.314.624-25.314.716-.055-22.23-.79-54.55-1.087-76.78 17.868.077 35.733.691 53.601.309-.068 18.253 1.55 44.639 1.646 59.06-2.772-.875-5.637-1.244-8.595-1.046-.231.014-.436.067-.63.134m1.746 15.196c1.794-3.058 2.242-6.81 1.309-10.877 2.161.084 4.292.501 6.31 1.356.008.025.015.052.023.077-.654 4.819-3.703 7.776-7.642 9.444"/><path d="m31.765 31.664c-2.094-.363-3.298 1.901-2.64 3.313-.031.163-.046.337-.041.524.145 5.506-.278 10.998-.333 16.5-.029 2.903 4.471 2.9 4.5 0 .019-1.841.08-3.681.145-5.521 3.524-.452 6.793-2.398 6.754-6.467-.043-4.446-4.373-7.654-8.385-8.349m1.774 10.283c.046-1.613.063-3.226.051-4.84.934.596 1.676 1.432 2 2.587.405 1.426-.759 2.02-2.054 2.253"/><path d="m52.42 33.667c.101 3.445.183 6.889.209 10.334-2.153-3.262-4.184-6.603-6.183-9.969-1.311-2.207-4.506-.683-4.188 1.431-.0001.013-.004.024-.005.038-.131 5.399.174 10.78.5 16.17.175 2.883 4.676 2.9 4.5 0-.169-2.786-.329-5.571-.428-8.358 1.859 2.957 3.791 5.866 5.902 8.66.032.042.069.072.103.111.917 1.752 4.197 1.393 4.257-1.08.14-5.78.002-11.555-.167-17.333-.085-2.897-4.585-2.905-4.5-.0001"/><path d="m74.67 43.902c-.004-.021-.015-.038-.019-.059-.126-1.01-.839-1.927-2.15-1.927h-6.667c-.271 0-.509.05-.73.122-.364-2.774.854-5.718 3.995-6.869 2.701-.99 1.535-5.34-1.196-4.339-9.975 3.655-9.74 19.15 1.167 21.339.097.019.187.02.28.028.594.346 1.347.397 2.121-.088 2.916-1.828 3.825-4.935 3.199-8.207m-4.865 3.793c-.923-.257-1.707-.711-2.374-1.279h2.934c-.074.473-.248.911-.56 1.279"/></g></svg>