<svg xmlns="http://www.w3.org/2000/svg" viewBox="0 0 100 100" enable-background="new 0 0 100 100"><g fill="#1d1d1b"><path d="m93.33 43.833c-7.726-.282-15.454-.324-23.18-.33-.095-8.293.122-13.579.023-21.872.663-1.48-.055-3.631-2.172-3.631-10.296 0-23.621.76-33.911.368-.447-.122-.934-.128-1.402-.018-1.598.104-2.284 1.556-2.052 2.874-.352 4.928-.351 9.865-.426 14.802-7.01.118-16.03.14-23.04.141-1.06 0-1.765.544-2.128 1.27-.422.401-.704.973-.706 1.73-.019 9.896-.283 20.79-.005 30.684-.324 1.419.451 3.136 2.338 3.149 28.799.203 57.71 1.151 86.5.333 1.516-.043 2.31-1.176 2.399-2.353.165-.323.268-.701.268-1.147v-23c0-.272-.046-.513-.112-.739-.13-1.136-.922-2.207-2.389-2.261m-2.5 24.55c-27.14.682-54.39-.125-81.54-.357-.187-8.621-.018-18.242.025-26.864 7-.003 16.01-.021 23.01-.162.263-.005.496-.054.716-.119 1.092-.168 2.083-.961 2.117-2.381.12-5.03.087-10.06.345-15.09 8.879.249 20.781-.285 29.667-.391.065 8.549-.173 14.09-.012 22.644.005.254.05.481.111.695.141 1.118.933 2.138 2.389 2.138 7.724 0 15.446.029 23.17.262v19.622"/><path d="m51.03 25.848c-.159.032-.314.088-.451.19-1.502 1.119-3.05 2.176-4.47 3.401-1.467 1.266.664 3.378 2.121 2.121.613-.529 1.254-1.019 1.904-1.499-.044 3.535-.121 7.07-.131 10.605-.005 1.935 2.995 1.934 3 0 .012-4.501.155-8.999.167-13.5.003-1.253-1.252-1.689-2.14-1.318"/><path d="m25.833 55c-.924 0-1.846.001-2.768.03 1.57-1.593 2.741-3.548 2.911-5.741.383-4.953-6.162-4.084-9.04-3.235-1.851.546-1.063 3.441.798 2.893 1.025-.302 5.692-1.797 5.197.657-.521 2.581-3.182 4.615-5.353 5.768-.475.252-.694.634-.736 1.035-.323.92.112 2.069 1.326 1.927 2.549-.298 5.103-.333 7.667-.333 1.935-.0001 1.935-3 0-3"/><path d="m75.996 55.53c1.038-.219 2.075-.404 3.13-.496.518-.045 1.117-.055 1.595-.014-.356.475-.822.898-1.273 1.286-.294.035-.58.168-.826.431-.52.558-.613 1.665 0 2.207.887.784 1.773 1.621 2.365 2.69.05.094.096.19.141.288.008.024.013.041.033.099.009.032.016.065.024.097-.016.004-.023.006-.029.008-.055.004-.11.001-.166.011-.444.021-.659-.039-1.143-.171-1.267-.344-2.419-1.071-3.503-1.832-1.575-1.107-3.03 1.597-1.469 2.695 2.116 1.487 6.02 3.763 8.394 1.577 2.01-1.854.349-4.558-1.285-6.373 1.553-1.569 3.113-3.87.917-5.548-.846-.646-2.148-.635-3.134-.609-1.523.041-3.053.331-4.544.645-1.841.387-1.06 3.395.773 3.01"/></g></svg>