<svg xmlns="http://www.w3.org/2000/svg" viewBox="0 0 100 100" enable-background="new 0 0 100 100"><path d="m84.51 75.938c.567-17.636-12.286-31.991-30.543-31.12v-23.945c1.24-.356 2.418-.862 3.388-1.581 2.828-2.1 3.814-4.58 3.572-6.96-.522-5.136-6.768-9.804-12.567-9.168-4.767.523-8.862 4.644-9.269 9.384-.474 5.522 3.912 8.545 8.803 8.945v23.446c-18.467-.054-33.492 11.86-32.574 30.654-4.077 1.138-7.362 4.859-7.725 9.08-.512 5.981 4.675 9.04 10.03 8.997 2.713-.021 6.01-.604 8.232-2.253 2.829-2.1 3.815-4.58 3.573-6.96-.389-3.818-3.94-7.373-8.12-8.687-1.412-15.895 11.883-24.689 26.582-24.746v24.338c-4.563.731-8.41 4.727-8.803 9.31-.513 5.981 4.674 9.04 10.03 8.997 2.713-.021 6.01-.604 8.233-2.253 2.828-2.1 3.814-4.58 3.572-6.96-.352-3.458-3.302-6.697-6.96-8.255v-25.863c14.695-.546 25.738 10.353 25.17 25.02-4.577.719-8.439 4.721-8.833 9.315-.513 5.981 4.674 9.04 10.03 8.997 2.713-.021 6.01-.604 8.233-2.253 2.828-2.1 3.814-4.58 3.572-6.96-.371-3.668-3.666-7.086-7.63-8.515m-64.837 12.321c-.089-.0001-.17-.014-.263-.008-5.654.372-8.947-6.355-2.109-7.365.549.154 1.164.12 1.754-.066 4.803.45 6.829 6.217.618 7.439m29.577-79.56c5.695-.59 8.666 6.106 1.918 7.434-.089-.0001-.169-.014-.263-.008-5.777.38-9.1-6.654-1.655-7.426m1.918 79.56c-.089-.0001-.169-.014-.263-.008-5.763.379-9.08-6.619-1.708-7.419.822.511 1.894.618 2.817.31 3.683 1.33 4.688 6.03-.846 7.117m31.22 0c-.089-.0001-.169-.014-.263-.008-5.649.372-8.941-6.344-2.127-7.362 1.01.809 2.448 1 3.367.3 3.576 1.392 4.492 5.994-.977 7.07" fill="#1d1d1b"/></svg>