<svg xmlns="http://www.w3.org/2000/svg" viewBox="0 0 100 100" enable-background="new 0 0 100 100"><path d="m85.52 71.4c-.25 0-.502.011-.758.032-1.692.146-3.23.591-4.718 1.021-1.306.377-2.538.733-3.749.846-2.491.23-5.241.055-8.529-.553-.412-.076-.824-.156-1.233-.24-3.493-.721-7.02-1.755-10.44-2.755-3.475-1.018-7.06-2.065-10.715-2.828.417-2.597.686-5.434.836-8.844 4.135-.22 7.731-3.66 8.286-8.01.363-2.866-.771-5.753-3.034-7.725-1.028-.896-2.284-1.587-3.73-2.054-.416-.135-.848-.198-1.305-.266-.065-.001-.142-.021-.222-.033.026-.346.084-.753.123-1.024.056-.388.106-.756.132-1.085.051-.676.093-1.353.134-2.029.078-1.26.151-2.451.285-3.644.677-6.03 3.278-9.179 7.732-9.363.636-.026 1.316-.044 2.024-.044 6.161 0 8.899 1.409 10.111 2.591.637.62.945 1.622 1.303 2.782.395 1.282.842 2.735 1.854 4.056 1.749 2.284 4.528 3.647 7.434 3.647.798 0 1.585-.105 2.34-.313 4.712-1.296 7.514-6.165 6.379-11.08-1.218-5.283-4.256-10.244-8.334-13.609-4.681-3.862-10.304-5.05-14.679-5.66-2.253-.312-5.227-.671-8.261-.671-3.01 0-5.63.343-8.02 1.05-5.253 1.555-10.604 5.857-13.313 10.707-2.248 4.02-3.809 9.108-4.64 15.12-.393 2.834-.506 5.605-.583 8.422-.826.019-1.652.042-2.479.066-5.866.181-8.864 4.892-8.794 9.453.066 4.342 3.05 8.739 8.623 8.739l.324-.005c.722-.022 1.442-.042 2.158-.059-.007.184-.014.37-.021.558-.087 2.424-.187 5.171-.948 7.141-.258.666-.772.879-2.537 1.316-.562.14-1.128.282-1.675.463-1.944.643-4.471 1.59-6.774 3.226-3.297 2.344-7.693 6.237-9.919 11.478-1.315 3.1-1.346 6.568-.08 9.279 1.033 2.216 2.844 3.772 5.234 4.502 1.355.414 2.803.624 4.304.624 4.905 0 9.651-2.249 12.77-4.137 2.261-1.367 4.373-3.091 6.28-5.122.245-.262.499-.548.762-.845.9-1.018 2.133-2.41 3.02-2.41.05 0 .1.004.151.012 3.109.467 6.267 1.29 9.319 2.086l.583.152c1.243.323 2.495.659 3.756.998 7.445 1.999 15.14 4.067 22.899 4.067 5.577 0 10.503-1.067 15.06-3.264 3.666-1.768 5.396-5.266 4.514-9.13-.993-4.345-4.967-7.622-9.244-7.622m2.56 12.248c-3.864 1.862-8.08 2.768-12.889 2.768-7.097 0-14.471-1.981-21.603-3.896-1.273-.342-2.538-.682-3.793-1.01l-.581-.151c-3.18-.829-6.468-1.687-9.839-2.193-.304-.045-.602-.066-.894-.066-3.143 0-5.238 2.368-6.768 4.097-.229.259-.449.509-.664.736-1.595 1.699-3.352 3.135-5.222 4.267-2.574 1.558-6.43 3.414-10.182 3.414-1.01 0-1.962-.137-2.844-.405-1.026-.313-1.733-.914-2.164-1.835-.654-1.404-.595-3.45.152-5.212 1.769-4.163 5.442-7.386 8.212-9.354 1.761-1.25 3.836-2.02 5.447-2.554.428-.142.87-.249 1.31-.357 1.896-.471 4.764-1.182 5.997-4.364 1.065-2.755 1.181-5.948 1.282-8.766.016-.423.03-.838.048-1.24.054-1.194-.368-2.323-1.188-3.181-.81-.847-1.952-1.332-3.23-1.332-.002 0-.003 0-.005 0-.97.021-1.94.046-2.913.075l-.171.003c-3.394 0-3.614-3.178-3.624-3.815-.024-1.58.78-4.281 3.948-4.378.965-.03 1.928-.055 2.891-.076 2.416-.052 4.358-1.988 4.422-4.409.074-2.825.172-5.586.55-8.316.745-5.39 2.108-9.886 4.052-13.362 2.083-3.727 6.346-7.161 10.366-8.351 1.922-.568 4.081-.845 6.601-.845 2.729 0 5.48.333 7.574.624 5.604.776 9.247 2.142 12.184 4.563 3.246 2.679 5.667 6.643 6.644 10.876.539 2.337-.679 4.546-2.833 5.139-1.562.429-3.473-.241-4.479-1.554-.467-.609-.734-1.48-1.045-2.488-.464-1.506-1.042-3.381-2.591-4.891-2.769-2.699-7.217-4.01-13.602-4.01-.78 0-1.531.02-2.231.048-6.987.29-11.542 5.32-12.494 13.801-.148 1.318-.229 2.628-.307 3.896-.04.653-.08 1.305-.13 1.957-.017.228-.056.484-.095.754-.202 1.41-.479 3.341.636 4.972.912 1.332 2.513 1.568 3.683 1.741.202.03.391.052.498.078.8.258 1.467.617 1.983 1.066 1.018.887 1.513 2.098 1.357 3.323-.225 1.758-1.721 3.657-3.747 3.657l-1.093-.025c-1.933 0-3.356 1.774-3.461 4.317-.147 3.64-.425 6.565-.874 9.208-.416 2.46.847 4.616 2.939 5.02 3.818.728 7.664 1.854 11.383 2.942 3.512 1.028 7.143 2.091 10.838 2.854.444.091.89.179 1.335.26 3.748.694 6.95.891 9.897.614 1.682-.156 3.203-.596 4.675-1.021 1.314-.38 2.556-.738 3.759-.842 2.383-.211 4.26 1.794 4.699 3.722.364 1.573-.245 2.755-1.806 3.508" fill="#1e1e1c"/></svg>