<svg xmlns="http://www.w3.org/2000/svg" viewBox="0 0 100 100" enable-background="new 0 0 100 100"><path d="m72.04 25.15c-4.301-3.128-9.479-5.359-15.11-6.574-.053-3.26-.109-6.52-.166-9.78-.004-.232-.033-.449-.082-.652.066-.927-.323-1.879-1.399-2.508-4.208-2.458-11.173-3.801-15.804-1.84-4.546 1.924-4.124 6.725-3.852 10.946.088 1.357.179 2.711.27 4.064-8.16 1.959-15.309 6.073-20.15 11.813-3.438 4.078-6.167 9.484-7.124 14.11-3.01 14.537 1.736 30.584 12.388 41.88 7.136 7.57 16.601 11.571 27.37 11.571 6.659 0 13.579-1.602 20.01-4.631 17.416-8.203 25.736-30.31 18.546-49.29-2.869-7.573-7.882-14-14.902-19.11m-34.465 24.04c-.251.831-.053 1.758.877 2.524 4.468 3.683 10.271 4.749 15.869 2.858.244-.082.46-.187.658-.305 1.226-.244 2.285-1.128 2.284-2.667-.003-4.627-.036-9.253-.08-13.88 3.534 1.406 6.685 3.475 9.04 6.05 4.065 4.446 6.01 11.128 5.331 18.335-1.075 11.457-12.534 18.304-22.992 18.304-2.373 0-4.652-.346-6.773-1.028-7.584-2.438-15.551-11.812-16.11-25.02-.223-5.297 2.191-10.299 6.796-14.09 1.384-1.138 2.935-2.073 4.624-2.798.209 3.888.38 7.784.469 11.705m4.195-40.13c1.68-.297 3.368-.397 5.02-.238 1.371.132 2.718.438 4.01.985.046 2.628.09 5.256.133 7.883.033 2.02.062 4.03.093 6.05.031 2.083.063 4.165.09 6.248.025 2.023.044 4.046.064 6.069.022 2.167.04 4.334.054 6.501.016 2.314.032 4.629.038 6.943-2.705.603-5.406.331-7.736-1.19-.041-1.889-.08-3.777-.121-5.666-.049-2.256-.104-4.512-.176-6.766-.062-2-.14-4.01-.238-6.01-.102-2.047-.232-4.093-.39-6.138-.153-1.985-.327-3.969-.551-5.951-.0001-.008-.004-.015-.005-.023-.04-.33-.138-.621-.262-.89-.218-1.842-.267-3.688-.186-5.531.034-.761.082-1.521.161-2.279m24.07 79.06c-5.637 2.655-11.672 4.059-17.453 4.059-9.08 0-17.03-3.35-23-9.687-9.329-9.896-13.497-23.899-10.878-36.548.756-3.65 3.047-8.147 5.837-11.458 3.829-4.543 9.468-7.864 15.975-9.6.144 2.109.285 4.216.42 6.324-2.98 1.01-5.696 2.495-8.06 4.441-6.094 5.01-9.283 11.748-8.979 18.972.506 12.07 7.629 26.414 20.264 30.475 2.715.874 5.612 1.316 8.609 1.316 13.14 0 27.571-8.881 28.967-23.744.835-8.889-1.672-17.251-6.878-22.944-3.457-3.781-8.244-6.682-13.537-8.377-.026-2.189-.059-4.378-.091-6.567 4.278 1.084 8.203 2.835 11.485 5.223 6.06 4.407 10.372 9.917 12.82 16.38 6.105 16.11-.846 34.835-15.493 41.735" fill="#1d1d1b"/></svg>