<svg xmlns="http://www.w3.org/2000/svg" viewBox="0 0 100 100" enable-background="new 0 0 100 100"><path d="m85.8 8.452c-2.935.764-5.472 2.258-7.926 3.702-1.481.872-2.88 1.695-4.333 2.348-5.633 2.532-11.161 5.225-16.432 8-5.623 2.965-11.02 6.067-16.05 9.218-.688.431-1.71.969-2.896 1.593-1.571.827-3.38 1.782-5.136 2.865-.141-11.417-.267-20.673-.394-22.513-.133-1.958-1.732-3.42-3.909-3.596-.336-.072-.646-.106-.966-.108-5.761-.026-10.558-.384-15.1-1.128-1.777-.289-3.337.371-4.29 1.649-.771.681-1.192 1.619-1.192 2.67.0001 2.87.017 70.36.359 75.78.089 1.407.907 2.561 2.25 3.18.614.354 1.324.535 2.114.535l.227-.005c5.339-.234 11.02-.037 17.612.608.17.017.334.024.492.024 1.674 0 2.998-.898 3.498-2.357.304-.6.413-1.28.314-1.979-.311-2.245-.561-17.04-.771-32.765.366.26.732.517 1.092.77 1.303.915 2.533 1.778 3.453 2.576 5.04 4.372 10.11 8.466 15.06 12.167 11.659 8.712 22.58 15.02 33.387 19.299.572.226 1.149.341 1.717.341 2.11 0 3.84-1.611 4.198-3.868.128-.388.204-.766.232-1.148.84-11.272.963-22.712 1.082-33.775.045-4.27.091-8.54.177-12.811.046-2.323.073-4.648.101-6.974.057-4.829.115-9.823.354-14.705.145-2.955.03-6.251-1.919-8.298-1.467-1.543-3.688-2.01-6.411-1.299m-1.105 11.44c-.32 8.778-.394 17.64-.464 26.24-.091 10.967-.185 22.276-.791 33.419-18.256-8.646-35.06-22.887-46.771-33.646 13.193-9.347 29.694-18.283 48.03-26.01m-59.35 65.39c-3.07-.213-5.971-.317-8.818-.317-.265 0-.528.0001-.793.003-.126-8.771-.177-50.69-.194-65.2l-.004-2.879c2.895.323 5.853.526 8.967.618.094 3.932.197 15.01.306 26.639.188 20.406.344 35.832.536 41.13" fill="#1d1d1b"/></svg>