<svg xmlns="http://www.w3.org/2000/svg" viewBox="0 0 100 100" enable-background="new 0 0 100 100"><path d="m29.959 67.24c1.386 2.685 3.161 5.146 5.288 7.404.068.072.14.121.21.182.15.282.371.554.686.801 8.448 6.621 16.639 13.558 24.997 20.29.097.078.198.133.298.195.935 1.01 2.464 1.343 3.527-.065 9.03-11.957 16.627-24.804 23.942-37.856.228-.406.326-.802.34-1.178.32-1.03.025-2.167-1.289-2.723-10.119-4.279-19.89-9.291-29.779-14.06-.352-.17-.695-.25-1.025-.271-.192-.065-.397-.114-.618-.138-4.396-.478-8.694-.424-13.07.245-.024.004-.043.013-.067.017-.581.018-1.175.233-1.704.744-1.043 1.01-2.027 2.06-2.983 3.135-2.683-2.258-3.636-5.348-3.18-8.729.476-3.534 1.901-6.381 3.507-9.502 1.632-3.174 2.433-7.412 1.506-10.887-.72-2.698-2.208-5.801-4.973-6.871-1.615-.625-3.859-.781-5.565-.506-7.81 1.261-14.14 9.515-16.01 16.698-.044.168-.062.327-.076.484-.033.079-.074.148-.102.232-3.68 11.294.349 27.2 7.569 36.31 2.227 2.815 5.207 5.096 8.572 6.05m14.862-22.15c.019-.003.035 0 .054-.003 3.701-.565 7.446-.483 11.159-.109 8.998 4.349 17.908 8.878 27.07 12.871-6.303 11.184-12.845 22.23-20.449 32.586-7.638-6.199-15.171-12.527-22.915-18.596-.135-.105-.273-.186-.412-.262-.118-.248-.268-.492-.484-.722-1.03-1.093-1.946-2.244-2.757-3.453 2.361-.534 4.629-1.573 6.663-2.931 1.042.534 2.204.839 3.404.839 1.354 0 2.686-.371 3.851-1.071 1.712-1.03 2.921-2.665 3.403-4.604s.181-3.95-.849-5.662c-1.345-2.236-3.803-3.625-6.415-3.625-1.354 0-2.686.371-3.851 1.071-1.712 1.03-2.921 2.665-3.403 4.604-.377 1.518-.268 3.077.289 4.505-.067.043-.128.085-.197.13-1.633 1.052-3.518 1.749-5.45 1.814-.132-.345-.263-.692-.382-1.046 3.16-5.988 6.876-11.538 11.67-16.336m3.428 9.96c.348.264.649.595.884.985.479.797.62 1.732.395 2.635-.224.902-.787 1.663-1.583 2.142-.484.291-1.029.452-1.586.485 1.298-1.814 1.633-3.922 1.89-6.247m-29.367-28.915c.065-.2.106-.392.126-.575.015-.049.039-.09.052-.141 1.378-5.284 5.08-9.687 9.926-12.155 1.362-.693 3.081-1.335 4.489-.436 2.098 1.34 2.37 4.535 2.171 6.785-.085.961-.6 1.809-.965 2.682-.407.974-.786 1.959-1.201 2.931-.819 1.923-1.666 3.84-2.249 5.851-1.035 3.574-1.413 7.785.066 11.292.866 2.052 2.466 4.124 4.153 5.576-2.656 3.532-4.97 7.318-7.03 11.26-.333.307-.581.701-.695 1.161-2.054-1.707-3.618-4.176-4.83-6.363-4.264-7.702-6.804-19.288-4.01-27.868"/></svg>