<svg xmlns="http://www.w3.org/2000/svg" viewBox="0 0 100 100" enable-background="new 0 0 100 100"><g fill="#1e1e1c"><path d="m94.25 31.558c-.068-.927-.625-1.524-1.306-1.802-.281-.161-.616-.264-1.019-.264-1.071-.0001-2.142-.011-3.212-.014-.114-1.577-.385-3.14-.76-4.678-.266-1.087-1.142-1.5-2-1.416-.134-.029-.274-.048-.426-.051-12.653-.247-25.306-.457-37.957-.015-.373-.969-.75-1.871-1.13-2.55-.294-.526-.706-.817-1.149-.94-.304-.21-.684-.342-1.151-.342-8.771 0-22.707-.024-31.475-.203-.315-.195-.68-.314-1.071-.314h-3.617c-.992 0-1.837.729-2.026 1.672-.153.26-.265.559-.299.912-1.679 17.55.424 42.28.258 59.857-.013 1.404 1.126 2.06 2.212 1.985.119.034.239.066.372.081 25.983 3.044 57.32 3.376 83.43 4.391 1.182.046 1.835-.742 1.968-1.641.225-.31.362-.709.357-1.2-.188-16.11 1.18-37.38-.0001-53.47m-9.839-4.25c.135.713.239 1.428.3 2.151-11.667-.068-23.333-.256-34.998-.464-.223-.489-.456-1.085-.695-1.726 11.795-.366 23.594-.189 35.393.039m5.705 56.36c-24.992-.943-55.2-1.34-80.07-4.151.009-16.346-1.739-39.849-.41-56.17.05.004.095.017.147.018 9.45.232 24.07.256 33.521.258 1.062 1.868 2.156 5.725 2.974 7.714.162.393.394.74.685 1 .332.444.849.759 1.566.771 13.905.248 27.81.481 41.719.509.901 14.953-.23 35.08-.134 50.05"/><path d="m65.74 53.793c-.329-.254-.736-.392-1.209-.409l-.318-.011c-.513-.018-.513-.018-.63-3.8-.039-1.244-.087-2.792-.121-3.02-.358-2.453-1.394-5.74-4.289-7.471-1.406-.841-3.174-1.25-5.403-1.25-1.213 0-2.414.11-3.844.275-3.087.356-5.26.777-7.258 3.273-2.089 2.609-3.26 5.729-3.386 9.02-.069 1.791-.222 2.644-.91 2.652l-.471.008c-.582.018-1.062.218-1.422.595-.55.576-.628 1.426-.658 1.745 0 .008-.012.113-.013.121-.014.094-.021.189-.021.291v18.858c0 .319.057.61.168.866 1.083 2.47 2.967 2.591 5.576 2.757l.534.035c2.595.178 5.192.327 7.79.461 2.593.134 5.188.252 7.782.364.655.029 1.274.083 1.862.135 2.692.233 4.576.462 6.231-2.454.151-.267.243-.572.272-.906.597-6.749.647-13.639.648-20.12 0-.165-.015-.32-.043-.466-.057-.289-.323-1.131-.867-1.552m-20.237-9.176c.802-1.148 2.634-2.046 3.871-2.22 1.859-.262 3.791-.402 5.741-.417.024-.003.092-.001.116-.001.194 0 1 .158 1.747.64.689.445 1.264 1.142 1.314 1.395 1.158 2.765 1.487 5.489.989 8.276-.011.065-.019.131-.023.196-.036.507-.516.654-2.139.654-.175 0-.358-.003-.546-.008-3.852-.106-7.245-.162-10.373-.169-.77-.0001-1.51-.324-2.031-.886-.47-.507-.701-1.15-.652-1.811.156-2.077.824-3.975 1.986-5.64m16.543 27.861c-.09 1.425-1.285 2.541-2.72 2.541-.007 0-.108-.002-.115-.002-6.718-.281-11.836-.548-16.596-.864-1.449-.098-2.627-1.36-2.627-2.814v-11.455c0-1.472 1.193-2.682 2.66-2.697 1.04-.011 2.08-.017 3.119-.017 4.112 0 8.568.081 14.03.256 1.465.048 2.647 1.278 2.637 2.742-.037 4.822-.159 8.734-.384 12.31"/><path d="m51.75 60.37c-3.948 0-4.443 5.355-1.484 6.697-.018.098-.024.199-.016.303.092 1.174.026 2.321-.196 3.476-.155.802.214 1.616 1.047 1.845.741.204 1.69-.244 1.845-1.048.273-1.416.417-2.834.304-4.274-.008-.1-.023-.197-.046-.292 2.99-1.319 2.507-6.707-1.454-6.707"/></g></svg>