<svg xmlns="http://www.w3.org/2000/svg" viewBox="0 0 100 100" enable-background="new 0 0 100 100"><g fill="#1d1d1b"><path d="m53.77 6.107c-.209-.063-.43-.108-.668-.124-.262-.018-.523-.021-.784-.034-3.851-.413-7.698-.589-11.441-.574-1.437.005-2.302.945-2.614 2.082-17.881 4.744-33.499 19.86-35.496 40.33-2.237 22.916 11.693 42.21 32.2 47.26 17.504 4.31 37.471-1.132 50.692-14.14 14.454-14.215 16.472-40.54 3.808-56.857-8.834-11.383-22.2-16.267-35.699-17.941m4.639 82.925c-18.749 4.518-39.966-2.184-47.669-22.319-11.03-28.839 14.182-55.07 40.25-54.721 19.802 2.201 39.22 11.692 41 35.919 1.616 22.04-15.01 36.645-33.584 41.12"/><path d="m70.42 71.812c-14.628-11.05-30.29-20.854-43.484-33.631-.347-.335-.719-.545-1.096-.666-1.164-1.185-3.319-1.461-4.362.4-7.119 12.698-3.841 27.28 6.685 37.08 11.479 10.691 29.563 10.973 41.98 1.797.045-.034.078-.074.121-.109 1.419-.948 1.999-3.476.156-4.869m-38.34-.672c-8.124-6.92-10.98-17.804-7.25-27.395 12.134 11.33 26.11 20.441 39.472 30.3-10.321 5.888-22.914 5.03-32.22-2.901"/><path d="m67.52 26.366c-12.276-7.582-27.446-7.07-38.17 2.875-1.572 1.458-.764 3.442.693 4.255.213.328.512.631.929.877 15.87 9.386 29.424 21.857 43.953 33.04 1.831 1.408 4.176.226 4.755-1.362.024-.05.056-.091.077-.143 5.94-14.11 1.154-31.27-12.233-39.538m8.07 34.66c-13.03-10.267-25.489-21.311-39.67-30.04 8.515-5.945 19.942-5.937 28.781.076 10.126 6.889 14.11 18.671 10.889 29.968"/></g></svg>