<svg xmlns="http://www.w3.org/2000/svg" viewBox="0 0 100 100" enable-background="new 0 0 100 100"><g fill="#1e1e1c"><path d="m82.73 28.855c-.181-5.491-.282-12.909-.228-18.404.002-.245-.037-.461-.093-.664.107-1.197-.596-2.461-2.129-2.421-19.354.508-38.704-.25-58.06-.28-1.61-.003-2.315 1.412-2.117 2.654-.064.216-.109.448-.106.712.292 23.09 1.086 56.28 1.111 79.38 0 .518.147.939.382 1.272.142.979.846 1.845 2.119 1.813 8.365-.208 16.734-.342 25.09-.752 7.45-.365 16.734.124 23.856-2.307 2.521-.861 4.776-2.134 6.71-3.977 3.534-3.369 4.741-7.892 5.05-12.658.292-4.577-.247-9.379-.354-13.597-.275-10.895-.872-19.875-1.231-30.768m-12.246 41.19c-1.362.008-2.678 1.071-2.069 2.705 1.224 3.286 1.784 7.366-.099 10.509-2.276 3.801-6.338 3.698-10.2 4.185-2.362.298-4.873.14-7.253.207-1.853.052-25.314.624-25.314.716-.055-22.23-.79-54.55-1.087-76.78 17.868.077 35.733.691 53.601.309-.068 18.253 1.55 44.639 1.646 59.06-2.772-.875-5.637-1.244-8.595-1.046-.231.014-.436.067-.63.134m1.746 15.196c1.794-3.058 2.242-6.81 1.309-10.877 2.161.084 4.292.501 6.31 1.356.008.025.015.052.023.077-.654 4.819-3.703 7.776-7.642 9.444"/><path d="m34.833 34.25c-1.42-.171-2.128.84-2.142 1.949-.059.195-.102.402-.108.635-.167 6.297-.392 12.577-1.167 18.833-.356 2.875 4.148 2.841 4.5 0 .311-2.508.517-5.02.682-7.536.258.001.534-.023.833-.127 3.562-1.252 6.607-3.806 5.859-7.908-.695-3.817-5.141-5.446-8.457-5.846m2.02 9.177c.058-1.368.11-2.738.152-4.108.832.356 1.57.888 1.861 1.67.446 1.198-.945 1.996-2.01 2.438"/><path d="m51.04 42.17c-.117-.177-.422-.754-.482-.855.128-.079.291-.178.451-.226.861-.258 1.768-.294 2.659-.338 2.888-.141 2.902-4.642 0-4.5-2.727.133-6.381.47-7.491 3.45-.879 2.361.876 4.697 2.236 6.45 1.387 1.788 3.11 3.346 4.285 5.291-1.221.34-3.342.054-4.53-.024-2.898-.19-2.88 4.311 0 4.5 2.755.181 6.864.557 8.691-2.052 1.405-2.01.041-4.42-1.23-6.076-1.472-1.915-3.253-3.604-4.589-5.62"/><path d="m62.6 36.16c-2.041-.37-3.23 1.765-2.682 3.188v14.815c0 2.148 2.462 2.701 3.743 1.67 4.602-1.404 8.06-4.984 8.153-10 .101-5.235-4.48-8.811-9.214-9.67m1.819 14.463v-9.121c1.599.858 2.779 2.228 2.896 4.327.122 2.184-1.185 3.778-2.896 4.794"/></g></svg>