<svg xmlns="http://www.w3.org/2000/svg" viewBox="0 0 100 100" enable-background="new 0 0 100 100"><path d="m46.03 68.984c-1.675.49-2.76 1.844-3.511 3.35-.782 1.569-1.348 3.371-.993 5.131.201.996.637 2.129 1.193 2.982 2.411 3.698 7.07 4.18 10.764 2.284 3.808-1.955 5.732-6.526 2.782-10.05-2.222-2.654-6.755-4.719-10.235-3.701m5.616 10.604c-2.084 1.245-4.683.711-6.01-1.318-.844-1.294-.705-3.253.103-4.508.929-1.442 2.64-1.318 4.1-.936 1.093.286 2.131.814 2.999 1.537 2.278 1.9.982 3.923-1.196 5.225"/><path d="m37.553 37.39c1.08 1.609 3.218 1.073 3.933-.187 2.943-2.411 9.05-5.504 11.03-.516 2.181 5.484-4.896 8.119-9.03 8.682-1.236.168-1.69 1.089-1.576 2.031-.03.164-.045.338-.038.527.212 5.272.219 10.547.22 15.822 0 .231.038.437.092.63-.116 1.176.581 2.447 2.105 2.446 3.307-.0001 6.603-.034 9.889-.439.355-.044.664-.155.929-.313 1-.107 1.928-.803 1.928-2.104v-9.718c8.919-5.356 17.741-16.517 12.906-27.3-6.435-14.355-27.613-8.857-37.967-3.115-.607.336-.929.818-1.038 1.333-.633.795-.854 1.99-.066 2.997 2.341 2.993 4.572 6.068 6.689 9.224m28.315-8.829c4.631 8.914-5.206 18.726-12.145 22.523-.887.485-1.167 1.279-1.059 2.04-.012.098-.029.192-.029.297v8.72c-2.048.185-4.099.26-6.155.279-.004-4.367-.027-8.734-.174-13.1 3.673-.764 7.05-2.423 9.323-5.552 1.878-2.592 2.083-6.165.799-9.04-1.291-2.889-4.109-4.761-7.227-5.061-3.469-.334-6.675 1.201-9.395 3.255-1.41-2.02-2.879-3.995-4.373-5.953 8.576-4.362 24.928-9.01 30.435 1.589"/><path d="m50 95.67c25.18 0 45.667-20.486 45.667-45.666 0-5.682-1.719-12.956-4.599-19.458-7.109-16.05-22.23-25.63-40.44-25.63-8.216 0-16.496 2.048-23.946 5.922-14.252 7.412-23.14 23.01-22.636 39.736.238 7.956 2.812 15.744 7.445 22.522 10.382 15.19 22.979 22.574 38.509 22.574m-20.55-79.51c6.598-3.432 13.921-5.245 21.18-5.245 15.768 0 28.835 8.247 34.954 22.06 2.52 5.689 4.085 12.214 4.085 17.03 0 21.872-17.794 39.666-39.667 39.666-13.4 0-24.375-6.529-33.555-19.959-3.984-5.83-6.197-12.509-6.401-19.316-.425-14.218 7.374-27.975 19.407-34.23"/></svg>