<svg xmlns="http://www.w3.org/2000/svg" viewBox="0 0 100 100" enable-background="new 0 0 100 100"><g fill="#1e1e1c"><path d="m56.99 3.83c-.078-.007-.146.003-.22.002-.005 0-.001-.002-.015-.002-21.995-.761-45.11 12.02-43.11 36.753.008.1.033.189.051.282-.029.256-.029.524.033.815 1.206 5.644-.645 10.606-5.278 14.07-.213.159-.376.34-.517.529-.468.308-.838.78-1.037 1.351-.868 2.494-.209 5.03 1.784 6.768.329.286.71.48 1.105.585 1.287.711 2.632 1.183 4.03 1.513-.287 1.549-.146 3.116.6 4.59-1.393 2.715-.468 5.71 2.282 7.345.155.092.31.162.462.216.467.555.512 1.448.34 2.306-.053.263-.06.525-.04.781-.012.233-.005.469.04.707.726 3.803 3.973 5.903 7.69 5.97.2.004.385-.016.559-.051.172.007.352-.003.538-.033 5.969-.967 12.765-.427 15.01 6.129.448 1.31 1.646 1.754 2.719 1.581.361.271.837.426 1.438.384 10.816-.756 21.537-2.327 32.28-3.769.38-.051.709-.174.993-.347 1.302-.406 2.354-1.864 1.512-3.434-7.176-13.379 7.372-27.974 10.132-40.827.06-.278.061-.535.037-.78 2.919-21.11-11.688-41.474-33.406-43.43m28.826 42.487c-.029.195-.033.382-.021.562-2.999 13.752-16.15 27.05-10.944 41.45-9.78 1.328-19.554 2.692-29.405 3.381-.071.005-.131.024-.198.034-3.521-7.836-11.714-9.242-19.82-8.02-.081-.009-.156-.027-.243-.029-.923-.017-1.404-.113-2.125-.553.063.02-.37-.325-.365-.32-.062-.062-.101-.099-.129-.124 0-.018-.025-.074-.116-.221-.137-.22-.238-.53-.322-.879.418-2.887-.402-5.395-2.821-7.24-.194-.148-.412-.231-.637-.286-.07-.058-.138-.115-.211-.189.013.006.0001-.023-.041-.091 0-.06-.004-.079-.011-.073.029-.125.057-.25.101-.371.0001-.005.352-.55.468-.714.326-.458.392-1.014.289-1.548.097-.528.028-1.078-.289-1.537-.891-1.291-.715-2.39 0-3.747 1.025-1.943-.82-3.716-2.457-3.535-.017-.002-.032-.007-.049-.001-1.659-.219-3.263-.704-4.701-1.563-.103-.061-.204-.099-.305-.144-.072-.104-.139-.211-.199-.322-.001-.03-.018-.056-.032-.099-.012-.055-.02-.091-.028-.126-.004-.108-.002-.215.004-.323.008-.029.023-.097.043-.202 5.984-4.675 8.554-11.1 7.098-18.614.002-.094.013-.182.005-.282-1.799-22.23 18.884-32.717 38.4-32.04.062.002.116-.009.176-.011.021.002.038.009.06.011 18.527 1.669 31.465 19.738 28.826 37.775"/><path d="m52.01 56.873c-5.321 0-5.321 8.251 0 8.251 5.321 0 5.321-8.251 0-8.251"/><path d="m34.802 20.767c-1.781 1.365-2.724 3.521-1.48 5.644 1.03 1.758 3.855 2.852 5.645 1.48 5.448-4.176 13.514-5.629 19.276-1.136 1.177.918 1.763 1.605 2.39 2.757.223.41.237.987.171 1.391-.025-.118-.479.955-.246.66-.465.589-1.021 1.033-1.642 1.438-2.11 1.379-4.655 1.96-7.085 2.477-.576.122-1.047.34-1.448.609-1.605.413-2.956 1.678-2.956 3.828v6.876c0 5.321 8.251 5.321 8.251 0v-3.74c4.83-1.21 9.996-3.404 12.335-8 2.28-4.479.652-9.217-2.483-12.77-7.644-8.667-22.11-8.117-30.728-1.514"/></g></svg>