<svg xmlns="http://www.w3.org/2000/svg" viewBox="0 0 100 100" enable-background="new 0 0 100 100"><path d="m42.696 71.853c-2.619.766-4.316 2.883-5.49 5.238-1.223 2.453-2.107 5.271-1.553 8.02.314 1.558.996 3.329 1.866 4.664 3.77 5.782 11.06 6.536 16.833 3.572 5.956-3.057 8.963-10.205 4.351-15.71-3.476-4.149-10.564-7.379-16.01-5.787m8.783 16.582c-3.258 1.948-7.323 1.112-9.392-2.06-1.32-2.024-1.102-5.087.161-7.05 1.453-2.255 4.129-2.061 6.411-1.464 1.709.447 3.332 1.273 4.689 2.404 3.564 2.969 1.536 6.134-1.869 8.169"/><path d="m33 29.839c1.398 2.084 4.167 1.389 5.094-.243 3.812-3.122 11.714-7.127 14.283-.668 2.824 7.101-6.341 10.514-11.7 11.243-1.601.218-2.189 1.41-2.041 2.631-.039.212-.058.438-.049.682.274 6.827.284 13.658.285 20.489 0 .299.05.565.119.816-.15 1.522.752 3.169 2.727 3.168 4.282-.0001 8.55-.044 12.806-.569.46-.057.859-.201 1.203-.406 1.297-.138 2.497-1.04 2.497-2.724v-12.584c11.55-6.936 22.974-21.39 16.714-35.35-8.336-18.591-35.761-11.47-49.17-4.03-.786.436-1.203 1.06-1.344 1.727-.82 1.029-1.105 2.577-.086 3.881 3.03 3.876 5.92 7.859 8.662 11.945m36.669-11.433c5.997 11.544-6.741 24.25-15.728 29.17-1.148.628-1.512 1.657-1.371 2.641-.015.127-.038.248-.038.385v11.292c-2.652.24-5.308.336-7.971.362-.005-5.656-.035-11.31-.226-16.963 4.756-.989 9.137-3.138 12.07-7.19 2.433-3.357 2.697-7.983 1.035-11.704-1.672-3.741-5.321-6.165-9.359-6.554-4.493-.432-8.645 1.556-12.167 4.215-1.826-2.615-3.728-5.174-5.664-7.71 11.11-5.649 32.28-11.672 39.42 2.058"/></svg>