<svg xmlns="http://www.w3.org/2000/svg" viewBox="0 0 100 100" enable-background="new 0 0 100 100"><g fill="#1d1d1b"><path d="m32.568 12.575c-11.922-5.411-29.873 4.807-26.885 19.03 1.678 7.984 8.98 13.761 16.781 15.197 6.751 1.243 12.963-1.716 17.508-6.379-.94 6.664-3.722 13.344-6.442 18.85-4.559 9.227-11.1 19.03-19.788 24.843-3.248 2.171-.202 7.45 3.074 5.26 19.11-12.772 47.31-62.48 15.752-76.8m6.275 19.331c-3.841 6.612-10.203 10.505-17.872 8.286-6.553-1.896-11.4-9.09-8.388-15.557 5.716-12.267 22.15-7.874 26.299 2.995.084 1.355.107 2.712.114 4.071-.05.071-.107.126-.153.205"/><path d="m77.65 12.575c-11.922-5.411-29.873 4.807-26.885 19.03 1.677 7.984 8.98 13.761 16.781 15.197 6.751 1.243 12.963-1.716 17.508-6.379-.94 6.664-3.721 13.344-6.442 18.85-4.559 9.227-11.1 19.03-19.788 24.843-3.248 2.171-.202 7.45 3.074 5.26 19.11-12.772 47.31-62.48 15.752-76.8m6.276 19.331c-3.841 6.612-10.203 10.505-17.872 8.286-6.553-1.896-11.4-9.09-8.388-15.557 5.463-11.725 20.712-8.225 25.672 1.596.48 1.818.641 3.661.663 5.575-.024.036-.053.061-.075.1"/></g></svg>