<svg xmlns="http://www.w3.org/2000/svg" viewBox="0 0 100 100" enable-background="new 0 0 100 100"><g fill="#1d1d1b"><path d="m90.2 72.45v-20.67c0-1.427-1.022-2.186-2.122-2.296-.258-.079-.544-.123-.874-.101-3.912.271-7.826.469-11.74.634-.277-7.201-.555-14.403-.842-21.604-.009-.225-.049-.429-.104-.621 1-.506 1.794-1.278 2.247-2.221.576-1.2.572-2.586-.011-3.904-.8-1.808-2.609-2.987-4.891-3.213-.478-.444-1.187-.571-1.849-.294-.361.152-.72.333-1.066.538-.375.116-.694.337-.923.635-1.77 1.419-2.559 3.4-2.167 5.457.362 1.896 1.846 3.184 3.975 3.576 0 .017-.003.031-.002.048.29 7.26.569 14.52.848 21.781-19.654.626-39.33.05-58.966-1.11-.586-.035-1.058.111-1.421.369-.7.351-1.238 1.023-1.275 2.028-.258 7.01.018 13.987.599 20.97.014.169.047.326.087.477.008 1.194.779 2.429 2.309 2.519 25.14 1.477 50.31 2.363 75.49 2.097.092-.0001.166-.027.252-.036.114.017.229.036.347.036 1.306 0 2.397-1.09 2.396-2.397 0-.915-.059-1.795-.307-2.614.0001-.03.007-.055.007-.084m-20.634-48.45c-.26-.742.43-1.423.819-1.735 1.165-.218 2.146.067 2.829.84.294.333.242.547.225.617-.073.3-.419.616-.86.787-.433.167-.958.263-1.44.263-.595 0-1.349-.134-1.573-.772m-55.28 46.784c-.422-5.592-.632-11.186-.525-16.792 3.799.216 7.598.401 11.399.568-3.996 2.722-6.861 7.03-5.222 12.06.63 1.935 1.873 3.51 3.44 4.652-3.03-.154-6.06-.318-9.09-.492m9.636-5.739c-1.07-3.288 1.787-5.872 4.362-7.405 3.323.158 7.15 1.503 8.947 4.381 2.182 3.495-4.423 6.859-7.131 7.07-2.714.21-5.333-1.45-6.178-4.04m61.48 6.273c-.243.451-.323.954-.251 1.447-16.554.128-33.1-.239-49.637-.931 3.98-2.059 7.256-6.01 6.06-10.486-.799-2.995-3.406-5.111-6.423-6.417 16.751.514 33.513.441 50.25-.646v17.03"/><path d="m50.956 64.36c7.591.0001 15.181.019 22.768.3 3.093.114 3.082-4.679 0-4.793-7.587-.281-15.176-.299-22.768-.3-3.091-.0001-3.091 4.792 0 4.793"/><path d="m80.61 64.66c3.091 0 3.091-4.793 0-4.793-3.091 0-3.091 4.793 0 4.793"/><path d="m56.34 19.777c1.112.74 2.238 1.38 3.603 1.444.979.045 1.798-.852 1.798-1.797 0-1.014-.819-1.752-1.798-1.797.301.014-.27-.062-.292-.069-.408-.119.053.045-.341-.161-.402-.21-.778-.472-1.155-.723-.816-.544-1.986-.163-2.459.645-.518.882-.17 1.917.644 2.458"/><path d="m68.34 14.984c.901-.528 1.062-1.572.646-2.459-.43-.915-.354-1.991-.354-2.987-.0001-2.318-3.596-2.318-3.595 0 .0001 1.686.12 3.256.844 4.802.416.886 1.672 1.105 2.459.644"/><path d="m77.31 14.984c.883.517 1.917.169 2.459-.645l1.798-2.696c.544-.816.162-1.986-.646-2.459-.883-.517-1.917-.169-2.459.645l-1.798 2.696c-.544.816-.162 1.986.646 2.459"/><path d="m81.81 23.917c1.256-.0001 2.561.006 3.773-.364.936-.286 1.521-1.247 1.255-2.211-.254-.925-1.274-1.541-2.211-1.255-.488.149-.736.176-1.17.205-.548.037-1.098.03-1.647.03-2.318.0001-2.318 3.596 0 3.595"/></g></svg>