<svg xmlns="http://www.w3.org/2000/svg" viewBox="0 0 100 100" enable-background="new 0 0 100 100"><g fill="#1e1e1c"><path d="m36.729 37.11c0-.037.006-.076.006-.113-.014.033-.033.067-.047.099.014.004.027.011.041.014"/><path d="m84.9 31.944c5.24-8.391 1.367-20.623-9.629-21.823-9.116-.995-17.738 4.819-19.513 13.556-4.516-3.726-10.321-3.88-15.12-1.474 1.856.794 3.591 1.805 5.172 3 3.515-.912 7.388-.053 10.335 3.219.373 1.26 2.56 1.135 2.563-.386.017-7.407 6.571-13.02 14.03-12.764 9.771.338 13.424 11.57 6.351 18.14-1.031.958.104 2.383 1.221 2.151.112.029.23.049.362.049.252 0 .462-.062.638-.159.116-.0001.237-.012.366-.048.112-.031.228-.051.341-.077.051.006.095.021.149.021.263 0 .48-.066.668-.166 3.656-.458 7.741 1.478 7.711 5.663-.031 4.241-3.869 6.074-7.657 6.233.508 1.222.907 2.469 1.198 3.727 5.869-.184 12.558-3.339 11.64-10.203-.77-5.756-5.488-9.07-10.824-8.66"/><path d="m80.77 47.21c-.035-.078-.077-.151-.113-.229-3.373-7.207-10.438-11.621-17.527-11.621-3.702 0-7.408 1.201-10.599 3.834-1.125-5.535-4.464-10.119-8.962-13.13-1.569-1.051-3.276-1.912-5.085-2.551-2.434-.861-5.04-1.332-7.72-1.332-.837 0-1.681.045-2.528.138-13.69 1.494-18.512 16.723-11.987 27.17-.367-.028-.732-.042-1.094-.042-6.185 0-11.478 4.052-12.384 10.825-1.178 8.811 7.711 12.718 15.17 12.718.964 0 1.902-.065 2.794-.193.082.001.161.025.25.025 2.361 0 4.722-.002 7.083-.003-.17.344-.246.682-.236 1 .012.363.125.7.313 1 .851 1.358 3.212 1.916 4.446.153.036-.051.069-.104.105-.156.229-.331.453-.665.674-1 .218-.331.429-.666.638-1 4.811-.006 9.62-.022 14.43-.046-.207.337-.413.675-.628 1.01-.219.338-.447.67-.675 1-.099.146-.193.294-.295.439-1.854 2.648 2.482 5.143 4.316 2.524.685-.977 1.325-1.978 1.934-2.996.199-.332.393-.668.584-1 .19-.333.377-.669.562-1.01 1.873-.013 3.747-.033 5.62-.051-.152.337-.304.674-.458 1.01-.155.336-.313.67-.471 1-1.547 3.28-3.244 6.476-5.331 9.458-1.854 2.648 2.482 5.143 4.316 2.524 2.625-3.748 4.636-7.833 6.5-12 .006-.013.008-.026.013-.039.147-.342.22-.679.228-1 .008-.354-.058-.692-.183-1 1.118-.013 2.236-.021 3.354-.036.172-.002.326-.03.471-.068.113.02.23.032.353.032.102 0 .207-.008.315-.027 10.844-1.884 15.569-12.04 13.05-21.782-.307-1.193-.717-2.379-1.245-3.543m-14.663 20.718c-.094-.015-.191-.027-.296-.027-.006 0-.013 0-.019 0-3.057.041-6.114.07-9.171.096.155-.334.312-.667.465-1 .153-.334.305-.669.456-1 .038-.084.076-.168.114-.253 1.306-2.917-3-5.462-4.316-2.524-.423.945-.855 1.885-1.299 2.819-.159.336-.322.669-.485 1-.163.334-.326.668-.494 1-4.8.029-9.601.047-14.401.054.169-.332.336-.664.501-.998.164-.333.329-.665.489-1 .494-1.033.973-2.074 1.44-3.121 1.306-2.917-3-5.462-4.316-2.524-.854 1.91-1.744 3.801-2.705 5.652-.174.335-.351.668-.53 1-.18.334-.358.669-.545.999-2.752.002-5.505.003-8.257.003-.143 0-.274.017-.398.045-.06-.005-.119-.008-.181-.008-.085 0-.173.006-.264.02-.793.125-1.624.19-2.463.19-4.924 0-10.17-2.243-10.211-7.776-.034-4.712 4.12-7.133 8.281-7.133.441 0 .883.027 1.319.082.233.124.505.206.832.206.068 0 .123-.019.186-.026.142.033.285.057.424.096.161.045.312.059.456.06.22.121.481.198.794.198.165 0 .312-.025.451-.062.103.021.204.031.306.031 1.279 0 2.404-1.605 1.214-2.71-8.806-8.177-4.258-22.16 7.907-22.582.205-.007.411-.011.615-.011.586 0 1.166.032 1.74.089 1.827.181 3.576.654 5.205 1.355 5.737 2.469 9.89 7.89 9.904 14.459.003 1.033.815 1.549 1.629 1.549.676 0 1.352-.357 1.562-1.069 2.768-3.072 6.191-4.44 9.585-4.44 4.418 0 8.78 2.324 11.58 6.226.691.964 1.292 2.02 1.77 3.167.087.209.15.418.229.628 2.863 7.709-.487 15.691-9.103 17.243"/><path d="m16.342 78.24c-1.865 4.167-3.876 8.252-6.5 12-1.854 2.648 2.482 5.143 4.316 2.524 2.625-3.748 4.636-7.833 6.5-12 1.306-2.917-3-5.462-4.316-2.524"/><path d="m36.34 78.21c-1.865 4.167-3.876 8.252-6.5 12-1.854 2.648 2.482 5.143 4.316 2.524 2.625-3.748 4.636-7.833 6.5-12 1.306-2.918-3-5.463-4.316-2.524"/></g></svg>