<svg xmlns="http://www.w3.org/2000/svg" viewBox="0 0 100 100" enable-background="new 0 0 100 100"><path d="m80.935 39.654c-.542-.514-1.278-.861-2.233-.88-1.034-.021-2.05.041-3.052.149-3.02-.131-6.05.207-8.823 1-1.827.524-2.527 2.05-2.396 3.52-3.474 2.761-6.06 6.639-7.182 11.398-1.296 5.489.222 10.574 3.394 14.432h-21c2.934-3.572 4.756-8.126 4.865-12.863.217-9.449-6.291-14.867-14.1-16.751-.542-.514-1.278-.861-2.233-.88-1.034-.021-2.05.041-3.052.149-3.02-.131-6.05.207-8.823 1-1.827.524-2.527 2.05-2.396 3.52-3.474 2.761-6.06 6.639-7.182 11.398-2.536 10.738 5.683 19.94 16.02 21.399 1.901.268 3.742.193 5.509-.12h44.32c.231.041.461.082.694.115 11.703 1.65 21.5-8.614 21.757-19.836.217-9.45-6.291-14.868-14.1-16.752m-55.02 29.619h-1.168c-.235 0-.451.029-.662.066-1.494-.057-2.972-.365-4.351-.955-5.723-2.448-7.578-8.146-5.841-13.795 1.66-5.399 6.743-8.294 12-8.857 6.399.505 11.907 4.139 11.725 12.09-.15 6.508-5.783 10.878-11.703 11.453m50.55 0h-2.689c-1.207-.124-2.393-.416-3.514-.895-5.723-2.448-7.578-8.146-5.841-13.795 1.66-5.399 6.743-8.294 12-8.857 6.399.505 11.907 4.139 11.725 12.09-.15 6.501-5.769 10.876-11.681 11.459" fill="#1d1d1b"/></svg>