<svg xmlns="http://www.w3.org/2000/svg" viewBox="0 0 100 100" enable-background="new 0 0 100 100"><path d="m75.93 11.493c-16.893-11.342-40.05-5.363-52.878 9.516-4.747 5.504-7.356 11.674-8.552 18.13-.696-.714-1.404-1.418-2.137-2.103-4.723-4.407-12.661 2.172-7.89 6.625 2.485 2.319 4.744 4.818 6.883 7.415.658.8 1.31 1.606 1.944 2.426.584.755 1.17 1.508 1.737 2.277.83 1.125 2.214 1.631 3.633 1.642 1.765.37 3.654-.2 4.852-2.255.247-.424.513-.83.772-1.241 1.184-1.875 2.497-3.619 3.944-5.24 2.396-2.683 5.147-5.05 8.307-7.12 2.36-1.548 2.231-5.189.55-7.02-2.02-2.201-4.98-1.945-7.339-.398-1.507.988-2.946 2.06-4.318 3.203.291-.99.628-1.975 1.021-2.955 3.764-9.396 14.04-16.443 24.06-18.552 16.799-3.534 30.21 10.658 34.24 24.719 4.669 16.289-2.331 38.817-21.91 42.44-11.846 2.194-23.25-3.473-30.799-12.12-.024.013-.051.025-.075.039-.055-.126-.135-.236-.199-.356-.291-.534-.674-1-1.137-1.396-1.168-.987-2.781-1.481-4.419-1.165-2.79.538-4.69 3.204-4.178 5.861l.094.487c.112.582.349 1.112.653 1.594.136.216.292.415.46.606.138.156.275.309.432.447 7.633 8.676 18.547 14.664 30.685 16.09 22.282 2.621 38.27-15.423 41.716-34.926 3.095-17.536-5.154-36.598-20.16-46.672" fill="#1d1d1b"/></svg>