<svg xmlns="http://www.w3.org/2000/svg" viewBox="0 0 100 100" enable-background="new 0 0 100 100"><path d="m88.997 30.01c-2.95-2.135-6.784-2.603-10.372-2.358-.472-.131-.988-.203-1.557-.194-16.206.258-35.402-.779-51.604-.426 1.175-1.035 2.341-2.082 3.495-3.142 4.9-4.503-2.402-11.767-7.283-7.283-4.427 4.068-9.01 7.949-13.732 11.673-2.208 1.742-1.81 5.473 0 7.283 2.951 2.949 7.216 4.659 10.468 7.29 2.539 2.055 5.237 5.747 8.962 4.958 3.811-.807 5.729-5.698 2.615-8.546-.744-.68-1.511-1.331-2.272-1.99 7.612-.108 15.225.064 22.835.236 5.269.119 13.543-.156 18.808.158 2.353.14 4.702.336 7.06.206 2.078-.114 5.302-.811 6.997.812.012.013.016.018.029.033 1.221 2.369 1.017 6.454 1.082 9.09.063 2.536.295 5.104.171 7.639-.168 3.46-1.991 11.12-6.923 10.821-.121-.007-.238-.018-.363-.018-17.396-.013-37.794-.3-55.18.343-.238.009-.465.034-.687.068-.115-.02-.226-.052-.343-.068-5.802-.778-5.395-6.02-4.304-10.647 1.523-6.46-8.407-9.201-9.931-2.738-1.276 5.41-1.536 10.622.776 15.77 3.87 8.613 14.619 7.858 22.358 7.686 3.928-.087 7.858-.137 11.787-.163 7.796-.052 18.593-.001 26.389.022 7.06.029 16.738.756 21.676-5.441 3.957-4.965 4.422-11.855 4.681-17.941.128-3.02.374-6.496.18-9.909-.293-5.155-1.59-10.167-5.813-13.223" fill="#1d1d1b"/></svg>