<svg xmlns="http://www.w3.org/2000/svg" viewBox="0 0 100 100" enable-background="new 0 0 100 100"><path d="m88.17 37.03c-.733.684-1.44 1.389-2.138 2.103-1.194-6.453-3.804-12.623-8.551-18.13-12.832-14.879-35.985-20.858-52.877-9.516-15.01 10.07-23.254 29.14-20.16 46.672 3.441 19.503 19.433 37.548 41.716 34.926 12.137-1.427 23.05-7.415 30.685-16.09.156-.138.294-.291.432-.447.168-.191.323-.39.46-.606.305-.482.54-1.01.652-1.594l.095-.487c.512-2.657-1.389-5.323-4.179-5.861-1.638-.316-3.251.178-4.418 1.165-.464.392-.846.862-1.137 1.396-.065.12-.145.23-.199.356-.024-.013-.051-.025-.075-.039-7.547 8.645-18.954 14.311-30.799 12.12-19.58-3.627-26.58-26.16-21.91-42.44 4.03-14.06 17.442-28.25 34.24-24.719 10.03 2.11 20.302 9.157 24.06 18.552.393.98.729 1.965 1.02 2.955-1.371-1.143-2.811-2.215-4.317-3.203-2.358-1.547-5.322-1.803-7.34.398-1.681 1.834-1.81 5.475.55 7.02 3.16 2.073 5.912 4.437 8.307 7.12 1.448 1.622 2.762 3.365 3.945 5.24.259.411.524.817.771 1.241 1.198 2.055 3.088 2.625 4.852 2.255 1.419-.011 2.803-.517 3.633-1.642.568-.769 1.154-1.522 1.738-2.277.635-.82 1.286-1.626 1.944-2.426 2.139-2.597 4.397-5.096 6.883-7.415 4.771-4.453-3.167-11.03-7.89-6.626" fill="#1d1d1b"/></svg>