<svg xmlns="http://www.w3.org/2000/svg" viewBox="0 0 100 100" enable-background="new 0 0 100 100"><path d="m90.25 40.35c0-2.464-1.854-3.455-3.441-3.555l-.114-.021c-.45-.138-.894-.185-1.385-.144-18.717 1.582-37.583 1.714-53.796 1.714-3.239 0-6.478-.006-9.717-.013-2.599-.005-5.196-.001-7.795-.012-.438 0-.861.075-1.3.23l-.128.045-.133-.026c-.281-.054-.568-.082-.854-.082-1.063 0-2.027.379-2.645 1.042-.581.625-.84 1.457-.767 2.472l1.265 17.711c.167 2.345 2.025 3.484 3.793 3.575l.108.018c.393.108.737.159 1.082.159 25.693 0 48.884-.063 72.52-.843 1.729-.057 3.02-1.098 3.442-2.785.242-.576.332-1.137.292-1.742-.39-5.898-.422-11.759-.422-17.743m-7.647 14.95c-22.574.661-45.661.723-65.53.728h-.466l-.733-10.271 5.361.008c3.107.006 6.214.012 9.32.012 15.599 0 33.746-.116 51.732-1.494l.534-.041.004.536c.021 3.294.108 6.659.26 10l.023.508-.507.014" fill="#1d1d1b"/></svg>