<svg xmlns="http://www.w3.org/2000/svg" viewBox="0 0 100 100" enable-background="new 0 0 100 100"><g fill="#1d1d1b"><path d="m11.432 37.3c17.347.033 42.31.8 59.655.469-1.868 1.885-3.715 3.792-5.505 5.755-4.722 5.177 2.959 12.902 7.701 7.702 5.24-5.746 10.854-11.12 16.61-16.338 2.716-2.463 1.917-5.724-.202-7.621-.365-.538-.837-1.04-1.444-1.477-5.351-3.847-10.48-7.961-15.509-12.219-5.324-4.51-13.07 3.156-7.701 7.702 2.236 1.894 4.502 3.751 6.786 5.584-17.588.367-42.801-.415-60.39-.449-7.02-.014-7.02 10.878.0001 10.892"/><path d="m86.36 59.08c-17.592.034-42.804.816-60.39.449 2.284-1.833 4.55-3.69 6.786-5.584 5.367-4.546-2.378-12.212-7.701-7.702-5.03 4.258-10.158 8.372-15.509 12.219-.607.437-1.08.939-1.444 1.477-2.119 1.897-2.918 5.158-.202 7.621 5.757 5.223 11.37 10.592 16.61 16.338 4.742 5.2 12.423-2.525 7.701-7.702-1.79-1.964-3.637-3.87-5.506-5.755 17.343.331 42.31-.436 59.656-.469 7.03-.013 7.03-10.905.0001-10.892"/></g></svg>