<svg xmlns="http://www.w3.org/2000/svg" viewBox="0 0 100 100" enable-background="new 0 0 100 100"><g fill="#1d1d1b"><path d="m54.34 29.533c-1.388-1.462-3.299-.462-3.811 1.01-.384.378-.638.91-.634 1.61.012 1.798.001 4.499-.062 6.294-3.873.041-13.354.179-17.211.581-.163.017-.313.052-.458.094-1.121.062-2.167.813-2.099 2.264.254 5.378.309 10.76.347 16.14.003.436.112.802.282 1.111.16 1.272 1.291 2.56 2.938 2.293 3.298-.534 12.244-.66 15.574-.582.182 2.443.212 4.891.23 7.341.009 1.184.735 1.891 1.612 2.14.848.626 2.077.802 3.099-.05 6.42-5.351 12.824-12.531 19.243-17.883 1.325-.637 2.122-2.441.742-3.754-6.716-6.388-13.41-11.891-19.792-18.613m-.281 34.25c-.039-1.44-.105-2.878-.235-4.314-.023-.251-.086-.473-.166-.682.304-1.321-.431-2.972-2.2-3.046-3.619-.152-12.808-.068-16.383.323-.034-4.182-.088-8.363-.247-12.541 3.713-.287 13.05-.391 16.775-.418.759-.005 1.324-.305 1.698-.751.583-.371 1.026-.98 1.092-1.843.081-1.049.124-3.01.151-4.054 4.682 4.778 9.492 8.52 14.333 13.14-4.941 4.123-9.877 10.06-14.818 14.188"/><path d="m96.19 17.973c0-9.206-6.742-13.874-20.04-13.874-1.885 0-3.686.075-5.274.142l-.351.015c-8.146.338-16.377.384-24.06.384l-11.152-.011c-1.735 0-3.471.002-5.206.001l-1.581.003c-1.653 0-3.308-.009-4.961-.018-1.663-.009-3.327-.018-4.989-.018-3.974 0-7.155 1.224-9.457 3.638-4.838 5.073-4.418 13.897-4.081 20.986.076 1.585.147 3.083.145 4.343-.005 2.275.011 4.547.026 6.818.044 6.34.089 12.895-.345 19.298l-.14 2c-.492 6.95-1 14.14.668 21.16 2.444 10.287 8.909 12.633 13.903 12.789 5.535.173 11.555.256 18.403.256 6.638 0 13.382-.077 19.904-.152 6.497-.075 13.216-.152 19.803-.152h.299c.492 0 .988.007 1.487.014 4.701.069 9.695-.025 13.287-4.264 3.367-3.973 3.558-9.25 3.711-13.49l.026-.72c.194-5.05.279-10.437.27-16.955-.011-6.772-.081-13.651-.148-20.303-.072-7.181-.149-14.606-.15-21.903m-5.466 58.95l-.027.732c-.135 3.743-.274 7.613-2.409 10.134-1.654 1.951-4 2.333-7.494 2.333-.508 0-1.016-.007-1.522-.014-.523-.008-1.045-.015-1.561-.015h-.301c-6.618 0-13.354.077-19.866.152-6.507.075-13.235.152-19.841.152-6.79 0-12.754-.083-18.231-.254-3.138-.098-6.966-1.159-8.724-8.562-1.475-6.205-.996-12.964-.533-19.501l.142-2.02c.447-6.608.401-13.268.356-19.708-.016-2.254-.031-4.51-.026-6.769.003-1.396-.071-2.96-.15-4.615-.272-5.723-.646-13.561 2.567-16.93 1.24-1.301 3.03-1.934 5.477-1.934 1.652 0 3.306.009 4.959.018 1.664.009 3.328.018 4.991.018l1.604-.003c1.728-.007 3.456-.001 5.184-.001l11.151.011c7.74 0 16.04-.047 24.286-.389l.352-.015c1.533-.062 3.273-.134 5.04-.134 12.812 0 14.54 4.233 14.54 8.374.0001 7.325.077 14.764.15 21.958.067 6.641.138 13.507.148 20.255.011 6.443-.073 11.761-.264 16.736"/><path d="m86.979 24.895c0-7.611-5.485-11.47-16.303-11.47-1.49 0-2.908.059-4.16.111l-.274.012c-6.374.264-12.813.301-18.823.301l-8.77-.009c-1.355 0-2.71.002-4.066.007l-1.267.002c-1.29 0-2.581-.007-3.871-.014-1.3-.007-2.599-.014-3.897-.014-3.146 0-5.691.964-7.568 2.864-3.763 3.811-3.684 10.154-3.619 15.251.001.804.021 1.572.012 2.282-.076 6.525-.012 13.14.05 19.543.056 5.818.113 11.836.065 17.74-.013 1.464.086 2.858.292 4.144 1.079 6.723 5.098 10.531 11.313 10.726 4.348.136 9.07.202 14.453.202 5.208 0 10.499-.062 15.615-.121 5.094-.059 10.361-.119 15.523-.119h.212c.382 0 .768.006 1.154.011 3.836.055 7.899-.032 10.882-3.552 2.773-3.273 2.926-7.526 3.049-10.944l.021-.556c.152-3.951.22-8.183.212-13.315-.009-5.316-.063-10.715-.117-15.936-.057-5.622-.117-11.435-.118-17.15m-5.473 46.19l-.021.57c-.103 2.835-.208 5.767-1.75 7.587-1.146 1.354-2.854 1.618-5.413 1.618-.398 0-.798-.005-1.195-.011-.411-.006-.821-.012-1.228-.012h-.215c-5.194 0-10.478.061-15.587.12-5.101.059-10.375.12-15.552.12-5.32 0-9.991-.065-14.281-.2-2.375-.073-5.209-.834-6.06-6.1-.157-.981-.231-2.066-.222-3.226.048-5.955-.001-11.996-.066-17.839-.061-6.372-.124-12.96-.049-19.427.009-.751-.0001-1.564-.012-2.416-.049-3.858-.115-9.142 2.032-11.317.816-.827 2.01-1.229 3.655-1.229 1.289 0 2.578.007 3.867.014 1.301.007 2.601.014 3.901.014l1.29-.002c1.348-.005 2.695-.007 4.04-.007l8.77.009c6.068 0 12.577-.037 19.05-.306l.275-.011c1.197-.05 2.556-.107 3.931-.107 9.494 0 10.803 2.869 10.803 5.97.0001 5.739.061 11.567.118 17.203.053 5.209.107 10.596.116 15.888.001 5.06-.057 9.22-.206 13.1"/></g></svg>