<svg xmlns="http://www.w3.org/2000/svg" viewBox="0 0 100 100" enable-background="new 0 0 100 100"><path d="m42.727 6.24c-.925-.954-2.028-1.069-2.974-.712-.544.07-1.093.286-1.602.712-4.04 3.387-7.928 6.947-11.667 10.667-1.609 1.601-.812 3.711.671 4.642 7.818 9.301 16.744 18.511 24.551 27.821-8.856 8.897-17.392 18.976-25.889 28.2-.953 1.035-.991 2.256-.534 3.254.073.949.647 1.819 1.474 2.458 3.888 3 7.644 6.169 11.284 9.468.916 1.503 3.055 2.332 4.685.729 13.01-12.788 24.394-27.2 38.667-38.667.391-.314.655-.659.819-1.015.817-1.074 1.023-2.625-.153-3.895-13.311-14.376-25.683-29.599-39.33-43.666m-2.063 80.83c-2.852-2.517-5.777-4.941-8.762-7.298 8.107-9.05 16.465-18.765 25.16-27.28.453-.444.703-.93.817-1.418.728-1.073.899-2.567-.15-3.824-7.888-9.448-16.919-18.775-24.851-28.18 2.394-2.308 4.864-4.534 7.378-6.712 12.215 12.778 23.49 26.407 35.415 39.453-12.791 10.602-23.339 23.495-35.01 35.27" fill="#1e1e1c"/></svg>