<svg xmlns="http://www.w3.org/2000/svg" viewBox="0 0 100 100" enable-background="new 0 0 100 100"><g fill="#1d1d1b"><path d="m42.807 33.13c-3.095 0-3.095 4.8 0 4.8s3.095-4.8 0-4.8"/><path d="m58.707 37.33c3.095 0 3.095-4.8 0-4.8s-3.096 4.8 0 4.8"/><path d="m61.41 40.931c-5.959-.265-11.841.102-17.737.986-3.053.457-1.75 5.082 1.276 4.628 5.462-.818 10.945-1.06 16.461-.814 3.096.138 3.083-4.662 0-4.8"/><path d="m92.67 60.61c-.157-1.07-.909-2.109-2.249-2.283-3.913-.505-7.833-.807-11.774-.875-.048-1.608-.102-3.216-.142-4.825-.051-2.01-2.09-2.705-3.495-2.104-.053-.0001-.107-.003-.161-.004-.855-8.884-1.468-17.785-2.045-26.691-.094-1.446-1.208-2.207-2.339-2.294-.204-.058-.419-.101-.661-.106-2.279-.047-4.557-.067-6.834-.073v-2.571c.107-.245.168-.513.168-.794 0-.778-.057-1.541-.164-2.307.718-.275 1.379-.701 1.93-1.318 3.462-3.872-1.66-10.212-6.128-9.03-2.75.73-5.236 4.16-4.389 7.01.56 1.883 2.734 3.147 4.579 3.52.007.1.014.199.032.299.006.031.036.243.051.335.011.131.022.262.029.394.008.15.005.301.007.452-.099.235-.158.502-.158.809v3.224c-6.523.059-13.04.287-19.542.783 0 0 0-6.443.009-6.473.258-.847 2.1-1.938 2.607-2.869.653-1.196.933-2.505.707-3.856-.443-2.655-2.586-4.735-5.345-4.792-.058-.0001-.109.018-.165.022-1.252-.118-2.418.109-3.551.759-.316.182-.557.448-.726.751-1.235.968-2.276 2.172-2.54 3.784-.317 1.943.496 3.561 1.678 5.04.104.13.229.23.364.316.203.16.438.288.697.372.722.235 1.467.438 2.222.581v6.699c-1.412.131-2.824.269-4.236.426-1.201.133-1.925.964-2.182 1.898-.147.31-.234.673-.219 1.102.299 8.454.497 16.895.052 25.346-1.33.161-2.661.335-3.99.539-1.39.213-1.869 1.288-1.701 2.352-.038.175-.06.361-.06.562-.0001.922-.005 1.844-.009 2.766-.184-.041-.379-.067-.591-.066-4.322.022-8.614.346-12.899.9-1.341.173-2.092 1.213-2.25 2.283-.077.219-.136.453-.151.717-.584 10.596-.93 21.2-1.5 31.799-.166 3.094 4.635 3.078 4.8 0 .542-10.09.888-20.18 1.423-30.27 3.514-.384 7.04-.614 10.577-.632.205-.0001.394-.026.572-.066-.051 9.924-.111 19.846.328 29.764.136 3.083 4.937 3.096 4.8 0-.527-11.906-.336-23.817-.305-35.73 15.247-2.098 30.64-1.249 45.981-.901.322 11.512.824 23.02 1.121 34.531.08 3.089 4.88 3.097 4.8 0-.238-9.193-.609-18.383-.914-27.574 3.114.06 6.214.269 9.308.607.536 10.09.881 20.18 1.423 30.27.165 3.078 4.966 3.094 4.8 0-.569-10.596-.915-21.2-1.5-31.799-.013-.26-.072-.494-.15-.713m-33.995-49.664c-.821-1.347 1.839-1.954 3.085-.398 1.313 1.653-1.528 1.775-2.458 1.055-.3-.233-.503-.454-.627-.657m-23.869.563c-.774-1.094-.396-1.94.715-2.723.213-.15.37-.325.5-.509.121-.04.241-.081.364-.112.014-.003.017-.005.028-.008.027.0001.056.0001.108-.0001.099-.004.62.074.137-.009.163.028.325.037.486.036.074.001.144.035.22.036.036 0 .072.004.108.005.026.007.24.03.312.048.033.008.094.032.151.056.072.039.139.084.208.128-.182-.087.234.348.222.269.039.064.077.129.112.195.002.015.033.088.066.168v1.827c0 .071.015.139.022.208-.026.041-.059.076-.083.12-.034.064-.073.123-.108.185-.043.051-.198.262-.257.323-.042.041-.088.079-.132.118-.02.013-.036.024-.065.045-.011.007-.024.011-.035.018-1.069.076-2.07-.124-3.079-.423m-1.223 39.26c.385-7.764.232-15.521-.029-23.288 11.508-1.154 23.04-1.468 34.607-1.278.53 8.07 1.104 16.15 1.877 24.2-12.179-.304-24.333-.694-36.455.363"/><path d="m44.75 72.5c-.001-.152-.036-.294-.071-.428.032-1.023-.608-2.072-1.929-2.072h-8.25c-.859 0-1.425.447-1.712 1.038-.591.287-1.038.853-1.038 1.712 0 3.419-.009 6.838-.25 10.25-.036.502.091.902.314 1.207.129.601.566 1.101 1.404 1.221 3.339.478 6.663.57 10.03.571.233 0 .438-.042.63-.102 1.038.048 2.03-.577 1.87-1.898-.463-3.822-.744-7.658-1-11.499m-9.179 9.214c.14-2.569.165-5.141.171-7.714h5.116c.186 2.668.39 5.334.671 7.993-1.989-.016-3.979-.072-5.958-.279"/><path d="m65.75 69.75c-4.581.234-9.165.25-13.75.25-2.58 0-2.58 4 0 4 4.585 0 9.169-.016 13.75-.25 2.566-.131 2.579-4.132 0-4"/><path d="m65.75 78.25c-4.748.249-9.495.481-14.25.5-2.579.001-2.58 4.01 0 4 4.755-.019 9.502-.251 14.25-.5 2.566-.135 2.579-4.135 0-4"/><path d="m36.75 59.75c-2.58 0-2.58 4 0 4s2.58-4 0-4"/><path d="m46.25 59.5c-2.58 0-2.58 4 0 4s2.58-4 0-4"/><path d="m57.5 59.5c-2.58 0-2.58 4 0 4s2.58-4 0-4"/></g></svg>