<svg xmlns="http://www.w3.org/2000/svg" viewBox="0 0 100 100" enable-background="new 0 0 100 100"><g fill="#1d1d1b"><path d="m68.28 51.07c-.068-.037-.139-.07-.212-.1.262-7.419-.027-14.04-.881-20.235-1.186-8.595-3.82-20.904-12.969-28.528-.36-.3-.776-.452-1.234-.452-5.01 0-14.1 20.13-14.18 20.338-3.661 8.89-5.76 17.454-6.417 26.18-.05.659-.086 1.319-.115 1.98-.122.035-.239.079-.353.133-9.953 4.696-15.851 15.445-16.188 29.503l-.142.326c-.272.673-.225 1.337.135 1.87.4.594 1.156.963 1.971.963.931 0 1.733-.47 2.157-1.26.188-.245.318-.528.389-.845 2.63-6.01 7.816-10.88 14.617-13.719.105.018.222.031.352.031.851-.0001 1.702-.011 2.552-.02l.609-.006v5.324c0 .172.019.342.058.519-.074 1.119.566 2.031 1.65 2.339.3.085.601.158.901.231l.03.008c-.45 6.92 3.241 11.791 7.145 16.941.875 1.154 1.778 2.348 2.687 3.629.358.729 1.181 1.198 2.111 1.198 1.022 0 1.884-.584 2.25-1.525.765-1.971 1.678-3.82 2.561-5.61 2.138-4.328 4.16-8.424 3.917-13.678.973-.147 1.982-.855 2.104-2.175.229-2.479.291-4.921.302-7.773l.436-.013c.057-.002.11-.001.179-.022 7.871 1.199 11.495 8.06 12.262 14.09.179 1.407 1.396 2.143 2.507 2.143 1.035 0 1.843-.599 2.04-1.5.139-.268.227-.562.26-.876 1.389-13.144-3.654-24.14-13.491-29.413m-46.797 19.913c1.341-5.304 4.292-11.667 10.747-15.541.068 2.506.262 5.094.577 7.709-4.495 1.969-8.295 4.598-11.324 7.832m31.873 18.09c-.293.584-.587 1.17-.877 1.764-.193-.244-.387-.488-.582-.733-3.24-4.071-6.586-8.276-6.404-13.483.558.092 1.143.177 1.771.257.528 2.588 1.638 5.02 3.383 7.414.353.927 1.268 1.592 2.208 1.592.575 0 1.112-.239 1.553-.69.517-.529 1.01-1.086 1.488-1.678-.689 1.869-1.597 3.678-2.54 5.557m-1.251-11.812c.825.019 1.65.015 2.478-.009-.472.857-.967 1.644-1.497 2.379-.396-.76-.724-1.553-.981-2.37m7.166-4.993c-5.299.729-10.784.418-16.239-.912v-4.163c5.519-.083 11.12-.236 16.39-.394-.008 1.566-.037 3.496-.151 5.469m3.379-10.05c-.663.155-3.485.468-15.41.468-4.532 0-8.565-.05-9.817-.081-2.228-19.597 2.955-38.21 15.41-55.33 7.094 7.237 9.1 17.923 10.05 26.474.915 8.246.841 17.303-.23 28.469m4.633.344c.209-2.172.384-4.319.521-6.399 4.258 2.834 7.129 6.898 8.559 12.11-2.399-2.781-5.496-4.734-9.08-5.712"/><path d="m58.53 30.672c-1.515-2-3.648-3.103-6.01-3.103-3.525 0-7.02 2.456-8.908 6.255-.964 1.942-1.49 4.23-1.565 6.801-.084 2.929 1.136 6.06 3.184 8.166 1.587 1.634 3.489 2.497 5.502 2.497.798 0 1.611-.14 2.414-.414 2.475-.847 4.613-2.94 6.02-5.895 1.75-3.672 2.107-8.147.912-11.399-.407-1.104-.93-2.083-1.554-2.908m-2.974 10.467c-.463 2.113-2.25 4.132-4.155 4.695-1.663.49-3.106-.243-4.01-2.075-1.04-2.106-.602-5.463.338-7.553.603-1.342 2.768-3.806 4.496-3.806.203 0 .397.035.578.104 2.762 1.055 3.382 5.775 2.755 8.635"/></g></svg>