<svg xmlns="http://www.w3.org/2000/svg" viewBox="0 0 100 100" enable-background="new 0 0 100 100"><g fill="#1d1d1b"><path d="m25.389 68.67c-4.543-2.02-9.302-2.651-13.234.974-3.439 3.17-4.512 8.566-3.261 13.03 1.645 5.869 7.395 9.919 13.444 9.301 6.966-.711 13.631-7.12 11.672-14.393-1.167-4.332-4.706-7.175-8.621-8.912m-3.812 18.632c-3.818.39-6.924-2.484-8.102-5.891-.882-2.551-.327-5.116 1.173-7.296 3.616-5.255 11.298-.76 14.01 3.18 3.346 4.86-2.474 9.537-7.083 10.01"/><path d="m44.941 53.47c-9.45-7.702-22.328-9.448-34.11-9.828-.922-.03-1.518.446-1.806 1.081-.222.316-.338.732-.274 1.258.499 4.066.495 8.133.26 12.217-.08 1.38.984 2.04 2.056 1.997.168.046.346.078.544.082 7.88.172 16.276 1.321 22.557 6.5 6.755 5.571 7.553 14.752 6.817 22.874-.057.625.134 1.097.453 1.428.328.501.865.872 1.627.911 4.59.236 9.182.259 13.777.26 1.395 0 2.058-1.124 2-2.203.053-.199.089-.413.078-.656-.6-13.852-2.622-26.664-13.98-35.921m.332 34.453c.506-8.586-1.1-17.11-7.424-23.413-6.327-6.31-15.947-7.995-24.594-8.339.102-2.763.073-5.52-.159-8.275 9.986.499 19.959 2.267 28.329 8.09 10.814 7.524 12.668 19.96 13.272 32.1-3.143-.011-6.284-.041-9.424-.159"/><path d="m68.26 27.16c-16.644-13.565-39.582-15.976-57.706-16.562-.002 0-.005 0-.007 0-.965 0-1.573.377-1.909 1.118l-.117.205c-.23.328-.314.76-.25 1.285.775 6.325.919 13.05.453 21.16-.036.625.117 1.122.454 1.479.375.397.978.625 1.653.625l.309-.001.186.051c.229.062.43.093.63.097 12.231.269 27.765 1.809 39.43 11.425 9.883 8.15 13.851 21.325 12.13 40.28-.057.627.084 1.106.432 1.467l.145.182c.408.622 1.017.958 1.808.999 7.932.407 15.98.442 23.545.443.658 0 1.185-.203 1.564-.603.424-.446.655-1.142.618-1.858l-.011-.197.052-.191c.073-.274.102-.505.091-.745-.902-20.812-3.535-44.37-23.498-60.65m18.822 59.6l-1.318-.005c-5.099-.018-10.589-.062-16.193-.273l-1.276-.048.075-1.274c.992-16.82-3.165-29.997-12.356-39.16-8.63-8.608-22.14-13.164-41.31-13.927l-1.245-.05.046-1.245c.188-5.078.099-9.667-.27-14.03l-.121-1.425 1.429.071c21.571 1.077 36.744 5.421 49.2 14.09 18.655 12.979 22.21 34.569 23.279 55.967l.065 1.317"/></g></svg>