<svg xmlns="http://www.w3.org/2000/svg" viewBox="0 0 100 100" enable-background="new 0 0 100 100"><g fill="#1d1d1b"><path d="m20.274 71.3c-.122-.13-.259-.253-.431-.36-.591-.369-1.549-.89-1.833-1.582-.222-.54.554-1 .999-1.298 2.133-1.425.133-4.891-2.02-3.454-1.655 1.105-3.141 2.627-3.03 4.764.113 2.16 1.839 3.702 3.542 4.813.204.236.463.439.799.579 2.035.845 3.965 2.04 5.471 3.656 1.551 1.664.149 2.251-1.638 2.82-2.448.779-1.402 4.642 1.063 3.857 3.331-1.06 6.596-3.601 4.809-7.439-1.422-3.059-4.698-5.01-7.732-6.356"/><path d="m27.914 59.752c-1.683-1.506-4.075.486-3.327 2.161 1.816 5.765 3.669 11.519 5.485 17.285.772 2.451 4.634 1.404 3.857-1.063-.248-.789-.501-1.576-.75-2.365.957-.549 1.911-1.102 2.831-1.71.201-.133.372-.297.517-.477.631.665 1.278 1.315 1.893 1.997 1.731 1.92 4.55-.918 2.828-2.828-4.165-4.619-8.702-8.855-13.334-13m4.02 12.11c-.446-1.403-.889-2.807-1.336-4.209 1.071 1.013 2.122 2.048 3.168 3.087-.601.389-1.213.761-1.832 1.122"/><path d="m46.586 68.09c-.461.376-1.064.776-1.685 1.12-3.361-4.25-6.334-8.768-9.174-13.382-1.349-2.192-4.81-.184-3.454 2.02 3.215 5.225 6.611 10.304 10.479 15.07.231.285.487.462.75.568.423.215.907.291 1.362.113 1.682-.655 3.153-1.54 4.549-2.681.845-.691.713-2.116 0-2.828-.827-.828-1.984-.689-2.827 0"/><path d="m54.09 60.919c-.269.219-.704.505-1.118.753-.169.101-.349.192-.527.284-.794-.956-1.542-1.94-2.268-2.939.398-.251.791-.511 1.17-.791.875-.646 1.313-1.72.718-2.736-.507-.865-1.857-1.366-2.736-.717-.446.329-.912.629-1.383.92-.738-1.188-1.447-2.396-2.091-3.646.683-.345 1.347-.727 1.993-1.153.908-.599 1.291-1.757.718-2.736-.528-.902-1.825-1.318-2.736-.718-.955.63-1.953 1.219-3.02 1.632-.676.261-1.2.766-1.389 1.405-.219.497-.255 1.087.027 1.7 2.297 4.981 5.403 9.429 8.979 13.571.518.601 1.143.746 1.711.607.135-.013.269-.041.401-.092 1.619-.624 3.037-1.417 4.383-2.514.846-.69.712-2.116 0-2.828-.831-.831-1.986-.69-2.83-.002"/><path d="m94.26 7.601c-3.44-4.915-9.917-3.878-14.762-2.02-2.791 1.07-5.635 2.386-8.218 3.894-8.291 4.839-24.275 15.645-22.533 27.02-14.681 9.02-31.393 18.775-44.755 26.448-.316.181-.539.409-.696.657-.544.558-.757 1.387-.188 2.246 1.463 2.208 2.827 4.475 4.144 6.772.009.02.013.04.023.061 3.304 6.74 6.78 13.389 10.333 20 .107.2.237.356.374.492.366.771 1.159 1.289 2.218.927 20.405-6.978 43.709-23.442 60.55-36.514.574-.445.749-.987.675-1.502.068-.39.019-.817-.196-1.255-1.307-2.662-2.796-5.2-4.378-7.675 1.769-1.309 3.405-2.773 4.824-4.164 4.517-4.428 8.459-9.482 11.131-15.24 1.898-4.09 3.898-10.01 3.288-15.08-.223-1.844-.79-3.575-1.833-5.065m-17.225 47.838c-15.59 12.1-37.742 27.534-56.48 34.28-3.121-5.822-6.175-11.677-9.104-17.598-.041-.206-.107-.416-.228-.63-1.154-2.043-2.368-4.047-3.627-6.03 16.33-9.417 38.39-22.289 54.26-32.461 3.283 4.523 6.695 8.943 9.814 13.557-.982.515-1.977.914-2.966 1.15-.211-1.259-.706-2.437-1.497-3.333-.109-.124-.223-.241-.34-.353-3.492-3.311-10.275-.977-12.04 3.232-.897 2.134.062 5.948 1.998 7.372 2.287 1.682 5.984 2.086 8.542.825 1.692-.834 2.761-2.469 3.213-4.298 1.659-.317 3.308-.973 4.9-1.839 1.264 1.989 2.462 4.02 3.557 6.122m-14.884-9.296c.659-.065 1.353.12 2.02.704.289.253.493.529.634.818-.92-.277-1.81-.77-2.656-1.522m1.798 4.898c-.839.86-2.032 1.407-3.12 1.191-.679-.135-1.155-.425-1.463-.808-.647-.808-.543-2.031-.005-3.1.025.026.041.054.068.08 1.445 1.384 2.966 2.219 4.52 2.637m28.635-38.37c.128 9.866-4.148 17.212-10.31 24.514-1.691 2-4.302 4.902-7.252 7.189-3.44-5.05-7.227-9.882-10.794-14.879-.13-.182-.279-.322-.435-.445-.545-.71-1.487-1.07-2.468-.439-2.903 1.865-5.998 3.813-9.208 5.805.293-8.222 12.644-16.52 18.295-20.271 5.338-3.542 19.773-12.238 22.18-1.561-.0001.03-.008.056-.008.087"/></g></svg>