<svg xmlns="http://www.w3.org/2000/svg" viewBox="0 0 100 100" enable-background="new 0 0 100 100"><g fill="#1e1e1c"><path d="m78.944 44.3c2-2.717 3.758-6.705 3.78-6.766.19-.503.169-1.062-.059-1.55-.227-.488-.642-.863-1.149-1.042-.297-.104-.616-.221-.952-.344-1.704-.622-3.735-1.363-5.728-1.652.736-2.698.759-5.708.606-7.324-.051-.541-.319-1.038-.744-1.376-.424-.339-.972-.492-1.507-.419-2.118.278-4.726.665-7.279 1.293-.043-.28-.084-.564-.127-.854-.315-2.143-.641-4.358-1.481-6.465-.346-.864-1.238-1.381-2.162-1.236-2.625.404-4.737 2.165-6.601 3.719-.138.115-.274.229-.41.341-.954-1.505-1.959-2.979-2.939-4.418-.392-.573-.781-1.145-1.167-1.717-.371-.552-.993-.882-1.658-.882s-1.287.331-1.658.882c-.548.812-1.054 1.667-1.544 2.495-.795 1.344-1.547 2.613-2.433 3.665-.081.096-.15.177-.209.244-.215-.114-.448-.247-.569-.316-1.83-1.042-3.767-2.556-5.516-3.923-.002-.0001-.004-.003-.006-.004-.869-.68-2.127-.526-2.808.344-.337.431-.469.958-.41 1.461-.052.374-.24 1.308-.786 3.551-.085.351-.143.596-.156.667-.087.452-.148.884-.206 1.29-.057.398-.13.919-.212 1.19-.124.012-.359.015-.61-.008-1.395-.125-2.92-.502-4.396-.867-.811-.2-1.615-.399-2.406-.562-.66-.137-1.344.068-1.819.544-.477.477-.681 1.161-.544 1.82.039.19.116.715.223 1.417.375 2.482.668 4.299.941 5.637-2.669.405-5.864 1.464-6.986 1.89-.615.233-1.064.767-1.221 1.406-.157.639.021 1.326.459 1.818.502.565 3.01 4.06 4.087 5.841-1.712 1.611-3.82 3.101-6.05 4.269-.59.308-.987.89-1.062 1.551-.073.662.188 1.316.695 1.747.806.683 1.904 1.196 3.068 1.74 1.038.484 2.873 1.342 3.339 2.046-.594 1.363-2.917 4.97-3.821 5.911-.521.241-.936.706-1.094 1.306-.28 1.068.357 2.162 1.426 2.443.0001 0 .002 0 .004.0001.762.199 1.843.301 3.096.418 1.209.114 3.552.334 4.573.701-.064 1.663-.81 5.635-1.24 6.77-.378.436-.565 1.03-.463 1.644.184 1.088 1.204 1.818 2.305 1.641.002-.0001.004-.0001.007-.002.942-.159 1.955-.521 3.03-.902 1.321-.471 2.819-1 3.897-1 .316 0 .567.047.677.093.625.598.904 3.768 1.023 5.121.086.981.161 1.828.298 2.494.191.931 1.01 1.598 1.959 1.598.702 0 .702 0 3.66-2.322.666-.522 1.234-.969 1.318-1.033.729-.545 1.882-1.421 2.446-1.247.81.832 3.211 4.146 3.715 5.31-.0001.674.339 1.332.955 1.71.326.2.687.295 1.043.295.673 0 1.33-.339 1.707-.955.0001-.0001.002-.003.003-.004.384-.627.743-1.389 1.125-2.194.803-1.698 2-4.232 3.232-4.422 1.053.372 4.243 2.199 5.169 3.087.16.598.595 1.113 1.217 1.352 1.03.393 2.188-.12 2.583-1.152l.0001-.0001c0-.0001 0-.0001 0-.002.074-.193.25-.66 1.116-5.04.172-.873.313-1.591.428-2.184.167.045.335.091.506.138 2.01.548 4.292 1.169 6.354 1.169.326 0 .645-.015.953-.047 1.07-.109 1.862-1.047 1.792-2.12-.031-.469-.272-1.68-1.03-5.328-.154-.743-.327-1.573-.471-2.278.359-.105.715-.212 1.065-.318 2-.603 3.893-1.173 5.799-1.229.67-.02 1.286-.374 1.64-.943.354-.569.399-1.278.12-1.888-.959-2.097-2.434-4.198-3.891-6.142.553-.361 1.224-.818 2.043-1.395 3.806-2.674 4.153-3.279 4.34-3.604.458-.796.314-1.802-.347-2.438-1.726-1.666-3.819-2.942-5.891-4.146m-3.57 8.995c-.273.061-.539.18-.776.361-.879.669-1.048 1.924-.379 2.803l.319.419c1.055 1.383 2.201 2.885 3.154 4.37-1.275.269-2.505.64-3.713 1-.926.279-1.801.543-2.684.76-1.893.463-1.529 2.279-1.265 3.605.154.77.369 1.805.592 2.875.157.758.35 1.684.521 2.521-1.148-.194-2.399-.535-3.622-.868-.968-.264-1.882-.513-2.757-.694-1.079-.223-2.137.468-2.363 1.547-.021.096-.033.192-.039.287-.086.57-.563 3.077-.994 5.213-2.107-1.396-4.747-2.684-5.788-2.697-3.133 0-4.932 2.641-6.219 5.158-1.313-1.945-2.907-3.914-3.585-4.304-.694-.399-1.448-.602-2.241-.602-1.947 0-3.607 1.241-4.705 2.062-.051.037-.453.353-.982.768-.292-2.896-.829-5.83-2.989-6.936-.749-.384-1.613-.578-2.57-.578-1.42 0-2.887.423-4.251.89.581-2.663 1.099-6.156.179-7.372-1.127-1.488-3.396-1.915-6.697-2.252 1.448-2.079 3.339-5.126 3.11-6.569-.415-2.609-2.91-3.97-5.129-5.02 1.838-1.241 3.521-2.65 4.908-4.121 1.351-1.432.187-3.137-1.928-6.231-.379-.554-.813-1.174-1.237-1.766 1.702-.494 3.66-.949 4.855-.949.272 0 .384.027.388.028 1.067.265 2.158-.38 2.427-1.453.161-.639-.006-1.284-.395-1.757-.306-.905-.755-3.616-1.047-5.488 1.439.353 2.918.69 4.413.824.266.024.511.035.739.035 3.746 0 4.173-3.02 4.402-4.641.049-.346.101-.714.169-1.072.016-.073.06-.252.12-.5.1-.409.192-.789.276-1.141 1.096.807 2.235 1.588 3.382 2.242 1.072.611 1.846 1.012 2.775 1.012 1.495 0 2.391-1.063 3.044-1.84 1.03-1.225 1.862-2.597 2.657-3.938 1.18 1.734 2.368 3.511 3.411 5.291.28.477.743.816 1.282.938.537.121 1.102.017 1.561-.292.823-.555 1.625-1.223 2.399-1.869 1.01-.84 2.037-1.698 3.058-2.256.29 1.182.476 2.441.668 3.748.154 1.049.313 2.134.535 3.197.115.553.459 1.031.946 1.317.488.286 1.07.353 1.611.183 2.116-.665 4.522-1.121 6.589-1.44-.079 2.176-.533 4.552-1.366 5.759-.478.692-.471 1.61.017 2.295.488.686 1.354.992 2.163.768.25-.069.554-.104.902-.104 1.409 0 3.242.565 4.826 1.123-.956 1.753-2.363 4.147-3.053 4.968-.391.161-.733.447-.963.839-.554.948-.24 2.165.702 2.727.497.296 1.01.593 1.528.893 1.393.805 2.817 1.629 4.077 2.538-1.646 1.235-4.094 2.923-4.968 3.385"/><path d="m87.9 42.593c.597-.839 1.303-1.958 2.176-3.44 1.382-2.347 2.922-5.232 3.231-6.05.19-.503.169-1.062-.058-1.55-.228-.488-.642-.864-1.149-1.042-.4-.141-.829-.297-1.28-.462-2.476-.903-5.477-1.999-8.311-2.271 1.104-3.485 1.265-7.716 1.021-10.301-.051-.541-.319-1.038-.744-1.376-.425-.339-.971-.491-1.507-.419-3.01.395-6.767.956-10.372 1.896-.099-.614-.19-1.24-.285-1.882-.416-2.825-.846-5.746-1.939-8.488-.345-.865-1.235-1.378-2.162-1.236-3.325.512-6.072 2.803-8.496 4.824-.39.324-.77.642-1.143.944-1.392-2.235-2.882-4.421-4.334-6.55-.521-.763-1.039-1.524-1.553-2.286-.372-.551-.993-.882-1.658-.882-.666 0-1.287.331-1.659.882-.72 1.07-1.392 2.204-2.041 3.301-1.079 1.822-2.098 3.542-3.317 4.992-.311.369-.513.589-.643.719-.364-.16-.959-.499-1.247-.663-2.489-1.417-5.1-3.458-7.464-5.305 0 0 0 0-.0001-.0001-.869-.679-2.096-.501-2.776.37-.664.85-.503 2.091.316 2.782h-.0001c-.608-.475-.745-1.134-.732-1.417-.021.467-.386 2.16-1.084 5.03-.113.467-.19.792-.208.88-.113.593-.194 1.16-.27 1.692-.309 2.187-.309 2.187-1.259 2.187-.176 0-.364-.001-.568-.028-1.914-.172-3.979-.682-5.976-1.176-1.076-.266-2.145-.529-3.194-.747-.663-.137-1.344.068-1.819.544-.477.476-.681 1.16-.544 1.819.053.259.158.971.303 1.926.581 3.846 1.013 6.443 1.406 8.212-3.612.427-8.329 1.987-9.914 2.589-.618.235-1.075.767-1.229 1.411-.154.644.026 1.329.472 1.818.772.848 4.527 6.148 5.812 8.38-2.398 2.336-5.42 4.506-8.628 6.185-.589.309-.986.89-1.061 1.551-.073.662.188 1.316.695 1.746 1.01.854 2.438 1.522 3.951 2.23 1.891.883 4.437 2.072 4.919 3.324-.612 1.687-4.198 7.272-5.455 8.489-.573.226-1.035.712-1.204 1.354-.28 1.068.357 2.162 1.426 2.443.966.254 2.389.387 4.04.542 1.864.175 5.596.525 6.731 1.149.063 2-1.117 8.347-1.754 9.868-.428.441-.647 1.074-.537 1.728.183 1.088 1.204 1.818 2.304 1.64 1.205-.203 2.534-.677 3.941-1.179 1.818-.648 3.88-1.383 5.438-1.383.538 0 .964.085 1.304.259 1.041.533 1.491 5.647 1.64 7.328.113 1.291.212 2.405.387 3.257.191.93 1.01 1.598 1.959 1.598.707 0 .707 0 4.515-2.988.883-.693 1.631-1.28 1.74-1.363 1.228-.92 2.93-2.241 4.056-1.699 1.055.995 4.676 6 5.262 7.542-.048.718.294 1.438.95 1.841.326.2.688.295 1.044.295.673 0 1.329-.339 1.707-.954 0 0 0 0 0-.0001.496-.809.971-1.812 1.473-2.875 1.235-2.613 2.918-6.173 5.01-6.309 1.357.402 6.286 3.217 7.442 4.467.118.669.575 1.262 1.256 1.522 1.03.394 2.188-.121 2.583-1.153 0-.002.0001-.003.0001-.004.078-.203.314-.838 1.459-6.633.309-1.561.54-2.733.709-3.628.449.118.911.244 1.384.373 2.647.722 5.647 1.539 8.313 1.539.413 0 .815-.02 1.206-.06 1.07-.109 1.862-1.047 1.792-2.121-.039-.581-.375-2.268-1.367-7.04-.252-1.215-.539-2.598-.75-3.647.679-.193 1.351-.396 2.01-.594 2.722-.82 5.293-1.595 7.931-1.672.67-.02 1.285-.373 1.64-.942s.399-1.278.121-1.888c-1.35-2.952-3.499-5.938-5.564-8.667.821-.521 1.896-1.241 3.319-2.242 4.966-3.491 5.415-4.271 5.606-4.604.457-.796.313-1.801-.348-2.438-2.433-2.337-5.453-4.11-8.396-5.812m-3.56 12.458c-.303.054-.598.179-.859.378-.879.669-1.049 1.924-.38 2.803.0001 0 .0001 0 .0001 0l.422.553c1.619 2.122 3.396 4.452 4.777 6.735-2.02.354-3.964.939-5.864 1.512-1.245.375-2.422.729-3.636 1.027-1.883.478-1.554 2.122-1.174 4.03.205 1.024.491 2.403.788 3.831.272 1.31.621 2.989.888 4.321-1.822-.21-3.87-.768-5.864-1.312-1.286-.35-2.5-.681-3.652-.919l-.421 2.034-1.974-.237c-.073.608-.899 4.93-1.551 8.105-2.799-1.985-6.825-4.055-8.195-4.072-4.225 0-6.551 4.095-8.229 7.565-1.779-2.786-4.276-5.973-5.217-6.514-.824-.475-1.719-.715-2.66-.715-2.381 0-4.408 1.517-5.886 2.622-.082.061-.872.681-1.811 1.417-.15.118-.306.24-.463.363-.363-4.068-.876-8.494-3.749-9.967-.905-.463-1.957-.698-3.128-.698-2.181 0-4.508.806-6.582 1.544.832-3.545 1.767-8.934.598-10.479-1.466-1.936-4.918-2.413-9.639-2.859 1.912-2.672 5.01-7.391 4.715-9.236-.546-3.44-4.26-5.175-7.244-6.57-.108-.05-.217-.102-.326-.152 2.807-1.784 5.382-3.876 7.451-6.071 1.32-1.402.436-2.978-2.645-7.487-.669-.979-1.474-2.119-2.197-3.114 2.504-.769 5.714-1.571 7.592-1.571.403 0 .609.04.681.058.0001 0 .002 0 .003 0 1.068.27 2.157-.382 2.427-1.454.17-.679-.029-1.364-.471-1.844-.485-1.289-1.241-6.067-1.624-8.574.068.017.137.034.205.051 2.143.529 4.358 1.077 6.576 1.276.333.03.642.044.928.044 4.424 0 4.902-3.386 5.22-5.626.066-.472.138-.975.234-1.484.021-.095.083-.35.169-.704.232-.957.434-1.782.601-2.498 1.696 1.28 3.483 2.545 5.274 3.565 1.341.764 2.3 1.264 3.378 1.264 1.686 0 2.721-1.231 3.553-2.22 1.433-1.702 2.585-3.647 3.698-5.529.111-.188.222-.374.331-.558 1.775 2.603 3.6 5.29 5.184 7.989.279.476.743.815 1.281.938.536.122 1.103.017 1.561-.292 1.071-.722 2.129-1.604 3.152-2.457 1.617-1.349 3.276-2.732 4.96-3.466.524 1.841.815 3.815 1.119 5.877.205 1.395.417 2.837.71 4.239.115.553.459 1.031.946 1.317.487.285 1.07.353 1.611.182 3.146-.989 6.753-1.634 9.704-2.068-.012 3.245-.658 6.973-1.965 8.869-.478.692-.471 1.61.017 2.295.488.686 1.352.992 2.163.768.393-.109.859-.164 1.387-.164 2.228 0 5.02.938 7.418 1.804-1.318 2.472-3.643 6.472-4.647 7.584-.45.146-.85.453-1.107.893-.553.948-.239 2.164.703 2.726.661.394 1.343.788 2.033 1.188 2.149 1.243 4.355 2.518 6.236 3.973-2.231 1.728-6.296 4.549-7.535 5.175"/><path d="m32.409 44.543c-1.271-2.14-1.201-2.542 1.341-2.668 2.246-.111 2.257-3.612 0-3.5-4.885.242-6.913 3.183-4.563 7.581 1.112 2.083 2.624 3.933 3.816 5.971 1.177 2.01 1.3 2.917-1.253 3.199-2.218.245-2.242 3.748 0 3.5 4.963-.549 6.814-3.639 4.477-8.102-1.097-2.095-2.612-3.951-3.818-5.981"/><path d="m44.36 37.513c-.872-1.043-2.589-.406-2.925.772-1.752 6.144-2.185 12.51-2.812 18.84-.223 2.246 3.279 2.224 3.5 0 .135-1.36.265-2.719.398-4.078 1.238.154 2.477.263 3.724.304.181 1.407.352 2.795.565 4.114.361 2.224 3.733 1.277 3.375-.93-1.067-6.577-1.365-13.689-5.825-19.02m-1.466 12.08c.252-2.148.55-4.288.973-6.409.942 2.055 1.48 4.332 1.869 6.641-.951-.041-1.899-.111-2.842-.232"/><path d="m57.875 54.75c-1.019.095-1.928.074-2.885-.031-.466-5.331-.954-10.658-1.615-15.969-.275-2.209-3.778-2.236-3.5 0 .725 5.819 1.242 11.658 1.75 17.5.062.719.481 1.555 1.285 1.688 1.671.276 3.268.471 4.965.312 2.228-.208 2.248-3.709 0-3.5"/><path d="m66.66 40.3c2.226-.214 2.247-3.676 0-3.46-1.506.145-2.977.29-4.465.556-.757.135-1.285.952-1.285 1.668v17.13c0 .389.111.706.287.959.168.684.707 1.265 1.63 1.265h3.5c2.257 0 2.257-3.46 0-3.46h-1.917v-5.436h1.75c.954 0 1.75-.787 1.75-1.73 0-.943-.796-1.73-1.75-1.73h-1.75v-5.518c.748-.1 1.498-.187 2.25-.248"/></g></svg>