<svg xmlns="http://www.w3.org/2000/svg" viewBox="0 0 100 100" enable-background="new 0 0 100 100"><g fill="#1d1d1b"><path d="m88.12 7.216c-.204-.859-.874-1.578-2.024-1.549-14.11.344-23.878.361-37.99.362-.16 0-.308.018-.45.045-.142-.027-.29-.045-.45-.045-14.11 0-17.368-.018-31.476-.362-1.151-.028-1.82.691-2.024 1.549-.066.199-.12.405-.147.621-.339 2.738.09 5.375 1.185 7.878.129.968.816 1.86 2.071 1.891.417.001.822.02 1.22.03.756 6.686 3.787 11.912 8.971 16.346 5.358 4.582 8.738 8.808 13.396 14.156-9.387 6.348-16.973 22.1-18.986 34.15-1.172.029-2.344.047-3.516.085-.204.007-.388.042-.562.09-1.363-.08-2.797.989-2.254 2.658.655 2.02 1.095 4.064 1.447 6.151.002.017.011.031.015.047.104.991.792 1.908 2.079 1.908 10.259.0001 20.512.04 30.752.724.053.004.101-.032.145-.084.225.065.472.103.755.084 10.24-.684 22.665-.723 32.923-.724 1.287 0 1.974-.917 2.079-1.908.004-.017.012-.031.015-.047.352-2.087.792-4.136 1.447-6.151.542-1.669-.892-2.738-2.254-2.658-.174-.049-.359-.084-.563-.09-1.172-.038-2.344-.056-3.516-.085-2.01-12.05-9.599-27.797-18.986-34.15 4.658-5.349 8.04-9.574 13.396-14.156 5.184-4.434 8.214-9.66 8.971-16.346.397-.001.804-.019 1.22-.03 1.254-.031 1.942-.923 2.071-1.891 1.095-2.503 1.524-5.14 1.186-7.878-.027-.216-.08-.422-.146-.621m-6.314 79.44c-.176.737-.329 1.48-.472 2.226-9.636.007-21.438.077-31.06.719-.266.018-.499.083-.714.17-.055-.1-.116-.165-.185-.17-9.619-.642-19.25-.712-28.886-.719-.143-.746-.295-1.489-.472-2.226 9.787-.273 19.571-.264 29.357.051.058.002.108-.043.155-.106.223.07.465.115.744.106 9.788-.315 21.743-.324 31.53-.051m-25.21-39.4c-.598.788-.506 1.563-.074 2.145.129.442.396.859.854 1.187 8.148 5.854 16.511 20.879 18.663 31.583-7.863-.126-17.896-.063-25.761.19-.27.009-.506.067-.725.148-.052-.087-.109-.146-.175-.148-7.864-.253-15.727-.316-23.59-.19 2.152-10.704 10.515-25.729 18.663-31.583.457-.328.724-.745.854-1.187.433-.581.524-1.356-.074-2.145-7.837-10.329-20.958-15.5-22.856-29.524 9.45.223 13.4.294 25.2.59.031.0001.057-.006.087-.006.031 0 .057.007.088.006 11.795-.295 22.257-.367 31.707-.59-1.898 14.02-15.02 19.2-22.856 29.524m26.815-33.967c-13.335.304-22.332.358-35.666.692-.031.0001-.057.009-.088.011-.03-.002-.056-.001-.087-.011-13.334-.334-15.819-.387-29.15-.692-.395-1.053-.589-2.141-.623-3.249 13.421.298 15.991.322 29.415.323.16 0 .308-.018.45-.045.142.027.29.045.45.045 13.424 0 22.506-.025 35.928-.323-.036 1.108-.23 2.196-.625 3.249"/><path d="m32.915 28.12c-.678.728-.914 1.889-.039 2.823 4.997 5.333 10.176 7.422 15.66 12.256.291.256.601.401.913.475.577.485 1.393.668 2.243.185 7.222-4.103 13.02-6.89 17.754-13.669 1.037-1.485-.304-2.91-1.731-2.968-.213-.069-.446-.113-.714-.105-10.78.327-21.561.317-32.34 0-.874-.027-1.452.41-1.745 1m30.631 3.159c-3.611 4.519-7.852 5.371-12.824 8.393-4.105-3.657-8.04-4.424-11.862-8.376 8.229.178 16.457.178 24.686-.017"/><path d="m49.703 53.32c-.347-.014-.716.065-1.094.288-8.422 4.978-13.974 12.85-16.258 22.327-.171.71.015 1.3.376 1.737.127.884.768 1.633 1.934 1.529 10.767-.96 21.551-.676 32.34-.34 1.42.044 2.065-1.12 1.955-2.217.088-.313.109-.661.015-1.049-2.342-9.701-8.321-17.794-17.279-22.327-.733-.37-1.437-.281-1.99.052m14.781 21.382c-9.214-.274-18.424-.43-27.623.25 2.271-7.467 6.801-13.602 13.619-17.696 6.989 3.815 11.708 9.92 14 17.446"/></g></svg>