<svg xmlns="http://www.w3.org/2000/svg" viewBox="0 0 100 100" enable-background="new 0 0 100 100"><g fill="#1d1d1b"><path d="m90.22 30.332c-.097-.486-.302-.969-.671-1.419-5.04-6.141-10.715-12.08-15.225-18.708-2.544-3.737-5.087-2.995-9.144-3.254-4.342-.277-8.706-.27-13.05-.387-8.749-.236-17.5-.319-26.25-.531-4.979-.122-9.958-.319-14.932-.603-.059-.003-.109.009-.167.009-1.577-.431-3.51.508-3.51 2.84 0 26.25.589 52.614-2.02 78.76-.191 1.918 1.04 2.879 2.389 2.91.228.075.469.13.736.142 26.398 1.18 52.816 1.016 79.23.814 1.611-.012 2.485-1.274 2.636-2.647.065-.251.113-.517.122-.812.55-18.584.875-37.17.184-55.76-.02-.521-.138-.968-.321-1.35m-36.987-17.63c1.158.028 2.316.064 3.474.096-.133 5.615-.161 11.231-.167 16.848h-3.604c.171-5.647.359-11.292.297-16.944m-26.841-.56c7.107.191 14.217.292 21.326.433.077 6.577-.189 13.144-.376 19.717-.014.498.062.931.206 1.303.284 1.174 1.127 2.157 2.552 2.157h9.01c1.177 0 1.956-.673 2.354-1.568.357-.474.587-1.099.587-1.892 0-6.44.021-12.878.171-19.315 1.411.051 2.822.098 4.233.163-.12 9.346.011 18.686.286 28.03-13.502-.447-27.03.485-40.487-.998.231-9.341.164-18.683.141-28.03m39.717 72.78c-.038-1.038-.041-2.076.0001-3.114 2.357-.346 4.897-.109 7.218.447.139.875.255 1.754.377 2.633-2.532.014-5.064.027-7.596.034m18.806-.107c-2.062.015-4.123.029-6.184.042-.3-1.753-.45-3.529-.824-5.272-.184-.857-.944-1.498-1.746-1.746-4.049-1.249-8.971-1.698-13.08-.5-1.149.335-1.726 1.274-1.835 2.411-.167 1.729-.201 3.453-.138 5.179-16.695.016-33.389-.154-50.08-.843 2.186-24.06 1.793-48.3 1.754-72.46 2.696.141 5.393.251 8.09.346.025 10.167.12 20.334-.19 30.498-.029.951.274 1.666.747 2.156.438.671 1.105 1.179 2.01 1.303 15.204 2.082 30.51.709 45.772 1.425.37.017.691-.046.984-.151 1.177-.216 2.197-1.182 2.141-2.902-.306-9.301-.461-18.6-.398-27.904 4.342 5.395 8.717 10.757 13.11 16.1.621 17.437.359 34.879-.136 52.32"/><path d="m16.75 71.25c0 2.588-.03 5.17-.25 7.75-.273 3.214 4.729 3.188 5 0 .22-2.58.25-5.162.25-7.75 0-3.224-5-3.224-5 0"/></g></svg>