<svg xmlns="http://www.w3.org/2000/svg" viewBox="0 0 100 100" enable-background="new 0 0 100 100"><path d="m92.98 70.54c-.589-.76-1.314-1.465-2.01-2.123-4.998-4.715-12.516-7.611-19.269-5.23-1.841.649-3.77 1.683-5.307 2.892-2.655 2.087-4.335 5.154-4.986 8.446-2.965-4.5-5.814-9.07-8.594-13.681.118-.199.238-.396.356-.595 6.708-11.294 13.03-22.81 19.572-34.2 3.646-6.352 7.358-12.668 11.236-18.882 1.688-2.704-2.432-5.437-4.118-2.734-10.528 16.868-19.834 34.465-29.926 51.581-10.09-17.12-19.399-34.713-29.926-51.582-1.687-2.703-5.806.03-4.118 2.734 7.01 11.222 13.447 22.774 19.961 34.28 3.677 6.496 7.347 13.02 11.166 19.458-2.769 4.59-5.606 9.139-8.557 13.618-.651-3.292-2.331-6.359-4.986-8.446-6.102-4.796-14.585-4.758-20.956-.489-1.839 1.232-3.711 2.784-5.184 4.441-2.092 2.354-3.279 6.331-3.353 9.415-.09 3.727 1.733 7.123 4.38 9.685 5.877 5.69 15.892 6.05 22.619 1.685 5.319-3.45 8.362-8.663 11.796-13.846 2.456-3.707 4.813-7.481 7.123-11.282 2.055 3.357 4.158 6.683 6.344 9.949 3.324 4.965 6.09 10.06 10.899 13.819 4.5 3.516 10.192 5.411 15.84 3.879 1.512-.41 2.957-1.03 4.346-1.751 1.3-.674 3.123-1.431 4.178-2.453 2.545-2.464 4.321-5.683 4.385-9.267.042-2.374-.651-5.359-1.869-7.683-.313-.596-.661-1.151-1.04-1.639m-64.711 13.525c-.029.033-.047.067-.073.1-3.208 2-7.644 4.228-11.38 2.331-2.696-1.368-3.677-4.578-3.667-7.4.001-3.087 1.437-6.218 4.082-7.895 3.202-2.029 7.202-1.181 10.59.25.753.727 1.456 1.493 2.096 2.305.346.607.676 1.222.967 1.857.718 2.88-.184 5.709-2.615 8.452m54.775 1.177c-.368.184-.736.368-1.104.552-.063.032-.116.075-.173.115-4.7.986-9.581-.187-12.08-4.564-2.638-4.62.979-8.725 4.984-10.717.858-.262 1.701-.418 2.571-.463 3 .268 5.842 1.426 8.07 3.703 3.837 3.918 1.238 8.519-2.268 11.374" fill="#1d1d1b"/></svg>