<svg xmlns="http://www.w3.org/2000/svg" viewBox="0 0 100 100" enable-background="new 0 0 100 100"><path d="m94.56 8.119c-.196-.277-.453-.51-.765-.689-2.371-1.369-4.914-2.063-7.559-2.063-5.208 0-10.709 2.523-17.312 7.94-5.643 4.631-10.39 10.263-14.98 15.709-2.124 2.52-4.32 5.126-6.572 7.592-.224.244-.391.519-.499.814l-.063.076c-1.403 1.931-2.884 3.98-4.283 6.06l-.231-.202c-.186-.164-.392-.296-.63-.402-.394-.331-.895-.506-1.502-.506-.0001 0-.002 0-.003 0-1.672.035-3.091.611-4.103 1.668-1.194 1.248-1.495 2.897-1.532 4.088-.182.604-.062 1.25.343 1.827 1.474 2.105 3.179 4.102 5.07 5.937-4.748 4.729-9.611 9.485-14.318 14.09-5 4.894-10.176 9.953-15.214 14.982-.729.729-5.339 6.63-4.861 8.169.088.282.305.476.596.529l.107.009c.973 0 7.459-5.298 7.513-5.352 5.04-5.03 10.217-10.09 15.224-14.99 4.782-4.677 9.723-9.51 14.546-14.314 1.79 1.37 3.726 2.615 5.759 3.705.357.191.737.288 1.127.288h.062c.066.012.133.022.205.025.265.001.532.016.801.016 1.799 0 4.362-.244 5.866-2.353 1.114-1.564.79-3.625-.963-6.131 9.06-5.066 20.584-11.903 30.412-20.237 6.114-5.185 15.291-15.446 8.06-25.922-.094-.135-.196-.256-.303-.365m-48.19 38.22c1.458-2.188 3.01-4.34 4.483-6.363.096-.133.178-.273.248-.427 2.151-2.373 4.254-4.847 6.287-7.239 3.384-3.98 6.883-8.098 10.682-11.832 4.925-4.843 11.414-10.4 17.939-10.4 1.105 0 2.177.186 3.214.515-4.961 13.182-16.1 22.437-28.564 28.348-2.33 1.105-.298 4.553 2.02 3.454 12.778-6.06 23.917-15.54 29.558-28.611 2.521 7.569-5.318 14.813-12.745 20.431-7.419 5.611-16.06 11.1-27.16 17.263-2.2-1.487-4.203-3.212-5.96-5.139m-7.084 1.627c.025-.087.042-.177.057-.262l.197-.355c.024-.015.048-.028.072-.042.0001-.0001.0001-.0001.002-.0001 4.715 4.146 8.818 7.427 12.899 10.311.102.072.209.135.323.191.11.177.197.33.243.428-.064.017-.13.032-.194.048-.449.106-1.094.122-1.765.099-4.819-2.672-8.802-6.145-11.84-10.324l.006-.093m7.945-10.192c0 0 0 0 0 0" fill="#1d1d1b"/></svg>