<svg xmlns="http://www.w3.org/2000/svg" viewBox="0 0 100 100" enable-background="new 0 0 100 100"><g fill="#1d1d1b"><path d="m95.92 20.779c.11-1.28-.651-2.618-2.304-2.561-28.9.995-58.16-3.757-86.974-1-1.857.178-2.59 2.02-2.194 3.374 1.173 17.495 1.974 35.01 2.394 52.54.005.23.044.437.098.632.095 1.119.858 2.172 2.307 2.173 10.355.012 20.709.173 31.06.353v9.467c0 .071.015.132.02.2h-3.327c-3.102 0-3.102 4.81 0 4.81h33.07c3.102 0 3.102-4.81 0-4.81h-2.18c-.242-3.076-.306-6.156-.319-9.24 8.681.097 17.363.132 26.05.022.241-.003.457-.043.66-.1 1.11-.104 2.145-.866 2.145-2.305 0-17.636-.017-35.27-.401-52.906-.003-.234-.043-.445-.099-.645m-50.821 65.17c.005-.068.02-.129.02-.2v-9.384c5.88.104 11.761.199 17.641.279.012 3.106.076 6.207.319 9.304h-17.98m-30.12-17.98c-.338-14.272-.944-28.531-1.814-42.777 21.799-1.879 53.616 1.665 75.47 1.102.268 14.12.296 28.25.298 42.37-21.415.237-52.54-.621-73.957-.696"/><path d="m86.25 32.5c0-.871-.394-1.607-1.086-2.041-.444-.599-1.114-.938-1.901-.959-19.29-.511-39.05-1.52-58.726-2.999-.907-.065-1.628.281-2.067.959-.443.688-.511 1.64-.18 2.456.016.373.112.733.288 1.073 5.301 10.26 13.96 15.832 28.08 18.06l2.257.352c11.335 1.753 22.04 3.408 28.406 14.194.112.491.367.916.744 1.235.443.586 1.078.909 1.796.909.898 0 1.79-.507 2.27-1.292.423-.692.466-1.513.121-2.27v-29.681m-4.999 1.938v20.821c-5.04-5.218-11.895-8.378-21.452-9.908l-2.184-.345c-11.779-1.85-21.996-3.455-28.72-13.198 17.622 1.261 35.23 2.145 52.36 2.63"/></g></svg>