<svg xmlns="http://www.w3.org/2000/svg" viewBox="0 0 100 100" enable-background="new 0 0 100 100"><g fill="#1d1d1b"><path d="m94.52 34.74c-.048-.599-.083-1.198-.127-1.797-.049-1.445-.106-2.89-.151-4.335-.007-.212-.043-.404-.094-.584-.015-.158-.05-.311-.094-.461-.226-4.292-.357-8.586-.37-12.889-.004-1.435-1.117-2.154-2.231-2.156-.173-.043-.356-.071-.556-.073-28.06-.336-56.14-2.672-84.17-.279-.772.066-1.328.447-1.683.957-.361.357-.587.87-.547 1.551l.836 14.214c.004.075.023.139.033.21.667 4.678.161 9.707.271 14.432.252 10.745.805 21.454.608 32.21-.058 3.151-.168 6.301-.355 9.447-.025.422.058.774.205 1.072.267.791.941 1.429 2.024 1.437 28.544.2 57.02-2.432 85.56-2.23.254.002.478-.042.687-.104 1.208.132 2.473-.569 2.378-2.126-.971-15.941-1.715-31.894-2.272-47.855.042-.196.064-.404.045-.639m-85.46-18.29c26.706-2.035 53.45.036 80.19.428.035 3.094.124 6.186.27 9.274-26.635.644-53.27-.262-79.906-.322-.184-3.127-.368-6.254-.552-9.38m1.375 66.786c.611-12.311.138-24.638-.046-36.953-.049-3.311-.078-6.622-.059-9.933.002-.37-.596-6.06-.467-6.06 26.635.065 53.27.969 79.901.316.051.797.111 1.594.169 2.39.539 16.01 1.272 32.02 2.226 48.01-27.26-.099-54.46 2.275-81.72 2.226"/><path d="m82.25 67c-13.561-1.38-27.15-1.312-40.75-.947v-1.803c0-2.757-2.243-5-5-5h-3.625c-2.757 0-5 2.243-5 5v2.225c-3.125.101-6.251.197-9.375.275-2.575.064-2.581 4.064 0 4 3.124-.078 6.25-.174 9.375-.275v1.525c0 2.757 2.243 5 5 5h3.625c2.757 0 5-2.243 5-5v-1.947c13.596-.365 27.19-.433 40.75.947 2.566.261 2.541-3.742 0-4m-44.75 3.168v1.832c0 .552-.449 1-1 1h-3.625c-.551 0-1-.448-1-1v-1.654-4-2.096c0-.552.449-1 1-1h3.625c.551 0 1 .448 1 1v1.918 4"/><path d="m82.23 43.75c-3.124-.078-6.25-.174-9.375-.275v-2.225c0-2.757-2.243-5-5-5h-3.625c-2.757 0-5 2.243-5 5v1.803c-13.596-.365-27.19-.433-40.75.947-2.541.258-2.566 4.261 0 4 13.561-1.38 27.15-1.312 40.75-.947v1.947c0 2.757 2.243 5 5 5h3.625c2.757 0 5-2.243 5-5v-1.525c3.125.101 6.251.197 9.375.275 2.581.064 2.575-3.936 0-4m-13.375 3.596v1.654c0 .552-.449 1-1 1h-3.625c-.551 0-1-.448-1-1v-1.832-4-1.918c0-.552.449-1 1-1h3.625c.551 0 1 .448 1 1v2.096 4"/><path d="m14.667 18.333c-2.58 0-2.58 4 0 4 2.579 0 2.579-4 0-4"/><path d="m21.333 18.333c-2.579 0-2.579 4 0 4 2.58 0 2.58-4 0-4"/><path d="m28.5 18.333c-2.58 0-2.58 4 0 4s2.58-4 0-4"/></g></svg>