<svg xmlns="http://www.w3.org/2000/svg" viewBox="0 0 100 100" enable-background="new 0 0 100 100"><g fill="#1d1d1b"><path d="m15.837 35.393c.27 17.819.936 36.625 2.496 52.607.372 3.815 6.375 3.851 6 0-1.541-15.787-2.209-34.33-2.486-51.955-1.988.301-4.074.028-6.01-.652"/><path d="m16 14.658c.368-.136.756-.237 1.164-.281 1.594-.172 3.102-.066 4.503.275-.002-1.114-.004-2.229-.005-3.319-.0001-3.869-6-3.869-6 0 0 1.104.002 2.234.005 3.363.114-.021.222-.024.333-.038"/><path d="m47.544 78.68c.234 3.189.496 6.305.79 9.318.372 3.815 6.375 3.851 6 0-.29-2.966-.548-6.03-.779-9.168-1.951.497-4.03.392-6.01-.15"/><path d="m46.731 57.658c.368-.136.757-.237 1.164-.281 1.599-.172 3.11-.065 4.515.278-.601-15.861-.738-32.17-.744-46.32-.0001-3.869-6-3.869-6 0 .006 14.162.144 30.488.746 46.36.109-.018.213-.023.319-.036"/><path d="m77.33 55.609c.398 11.28 1.023 22.39 1.999 32.391.372 3.815 6.375 3.851 6 0-.956-9.797-1.574-20.66-1.973-31.702-1.996.292-4.087.003-6.03-.689"/><path d="m77.2 34.941c.125-.027.24-.026.361-.041.368-.136.756-.237 1.164-.281 1.442-.155 2.812-.081 4.098.185-.12-8.164-.158-16.11-.161-23.471-.0001-3.869-6-3.869-6 0 .003 7.428.042 15.454.165 23.696.124-.028.248-.061.373-.088"/><path d="m13.625 32.13c.667.494 1.404.93 2.184 1.291 1.873.867 3.995 1.291 6.01 1.039.465-.058.926-.144 1.375-.277 4.346-1.293 5.915-5.732 6.189-9.842.085-.43.074-.874-.094-1.301-1.414-3.597-4.133-6.091-7.619-6.856-1.128-.248-2.336-.317-3.607-.18-.347.037-.677.123-.99.239-.103.013-.201.012-.307.035-.368.079-.732.173-1.094.276-3.575 1.01-6.757 3.197-7.083 7.226-.28 3.459 2.477 6.456 5.03 8.35m.965-7.994c-.002-.041.004-.082.004-.123.009-.04.023-.108.039-.186.022-.044.049-.098.078-.158.06-.064.166-.19.259-.295.093-.077.217-.18.27-.214.15-.098.307-.186.466-.268.161-.083.324-.161.487-.238-.442.208.643-.205.756-.24.464-.145.941-.249 1.416-.351.113-.024.206-.066.309-.099 1.112-.053 2.159.111 3.03.592.694.383 1.278.963 1.677 1.827-.091 1.229-.327 2.279-.781 3.09-.028.05-.135.201-.207.306-.09.101-.187.196-.286.289-.067.043-.232.166-.356.25-.043.029-.082.054-.108.069-.007.004-.007.004-.013.008-.05.012-.121.031-.221.061-.076.023-.156.033-.233.05-.051-.007-.475.04-.61.04-.088 0-.336-.027-.495-.043-.214-.042-.429-.086-.641-.142-.218-.057-.432-.13-.645-.203-.096-.033-.164-.055-.216-.072-.009-.008-.037-.025-.125-.066-.561-.262-1.09-.587-1.602-.936-.035-.024-.122-.091-.204-.154-.208-.172-.41-.353-.606-.539-.106-.1-.204-.208-.304-.314-.053-.057-.109-.11-.162-.167-.09-.097-.143-.151-.181-.189-.011-.016-.016-.023-.033-.047-.213-.29-.391-.603-.556-.922-.028-.087-.149-.39-.182-.507-.011-.042-.017-.057-.026-.089.0001-.001.002-.001.002-.02"/><path d="m43.35 75.13c1.189.881 2.601 1.563 4.083 1.976 1.809.505 3.724.602 5.49.076.175-.052.337-.117.503-.179 3.96-1.478 5.423-5.718 5.686-9.664.085-.43.074-.874-.094-1.301-1.265-3.217-3.575-5.549-6.541-6.554-1.425-.483-2.999-.664-4.685-.482-.347.037-.677.123-.99.239-.103.013-.201.012-.307.035-.008.002-.017.004-.025.006-3.987.861-7.793 3.068-8.152 7.495-.281 3.462 2.475 6.459 5.03 8.353m.964-7.994c-.002-.041.004-.082.004-.123.009-.04.023-.108.039-.186.022-.044.049-.098.078-.158.06-.064.166-.19.259-.295.093-.077.217-.18.27-.214.302-.197.628-.353.953-.507-.442.208.643-.205.756-.24.022-.007.046-.012.068-.019.443-.134.896-.235 1.348-.332.113-.024.206-.066.309-.099 1.808-.086 3.455.379 4.42 1.911.101.161.202.322.288.507-.036.491-.104.945-.191 1.375-.131.646-.318 1.228-.59 1.715-.028.05-.135.201-.207.306-.09.101-.187.196-.286.289-.09.057-.359.261-.465.319-.007.004-.007.004-.013.008-.05.012-.121.031-.221.061-.076.023-.156.033-.233.05-.051-.007-.475.04-.61.04-.088 0-.336-.027-.495-.043-.214-.042-.429-.086-.641-.142-.218-.057-.432-.13-.645-.203-.096-.033-.164-.055-.216-.072-.009-.008-.037-.025-.125-.066-.404-.189-.788-.417-1.165-.656-.146-.093-.294-.182-.437-.279-.035-.024-.122-.091-.204-.154-.208-.172-.41-.353-.606-.539-.162-.154-.314-.317-.466-.481-.09-.097-.143-.151-.181-.189-.011-.016-.016-.023-.033-.047-.213-.29-.391-.603-.556-.922-.028-.087-.149-.39-.182-.507-.011-.042-.017-.057-.026-.089.0001-.009.002-.009.002-.019"/><path d="m74.19 52.37c.921.682 1.977 1.245 3.093 1.66 1.933.719 4.048.957 6.02.493.154-.036.312-.056.464-.101 4.346-1.293 5.915-5.732 6.189-9.842.085-.43.074-.874-.094-1.301-1.329-3.379-3.812-5.78-6.997-6.693-1.303-.374-2.721-.505-4.229-.343-.347.037-.677.123-.99.239-.103.013-.201.012-.307.035-.158.034-.315.074-.473.112-3.82.927-7.359 3.128-7.704 7.389-.281 3.461 2.476 6.458 5.03 8.352m.964-7.994c-.002-.041.004-.082.004-.123.009-.04.023-.108.039-.186.022-.044.049-.098.078-.158.06-.064.166-.19.259-.295.093-.077.217-.18.27-.214.302-.197.628-.353.953-.507-.237.112-.034.044.222-.047.221-.079.481-.176.534-.192.464-.145.941-.249 1.416-.351.113-.024.206-.066.309-.099 1.44-.068 2.777.215 3.751 1.104.377.344.705.77.956 1.314-.091 1.229-.327 2.279-.781 3.09-.001.019-.039.059-.065.098-.044.066-.097.141-.142.207-.09.101-.187.196-.286.289-.09.057-.359.261-.465.319-.007.004-.007.004-.013.008-.05.012-.121.031-.221.061-.076.023-.156.033-.233.05-.051-.007-.475.04-.61.04-.088 0-.336-.027-.495-.043-.214-.042-.429-.086-.641-.142-.218-.057-.432-.13-.645-.203-.096-.033-.164-.055-.216-.072-.009-.008-.037-.025-.125-.066-.561-.262-1.09-.587-1.602-.936-.035-.024-.122-.091-.204-.154-.042-.035-.082-.074-.124-.11-.164-.14-.326-.281-.482-.429-.162-.154-.314-.317-.466-.481-.09-.097-.143-.151-.181-.189-.011-.016-.016-.023-.033-.047-.213-.29-.391-.603-.556-.922-.028-.087-.149-.39-.182-.507-.011-.042-.017-.057-.026-.089.003-.008.004-.008.003-.018"/></g></svg>