<svg xmlns="http://www.w3.org/2000/svg" viewBox="0 0 100 100" enable-background="new 0 0 100 100"><path fill="#020202" stroke="#231f20" stroke-width="3" stroke-miterlimit="10" d="m88.21 13.3c-3.174-3.39-8.092-5.05-12.548-5.03-2.292.011-4.563.717-6.457 2.071-1.438 1.029-2.624 2.535-3.676 3.969-2.274 3.099-4.852 7.645-4.448 11.819-.301.171-.498.502-.416.984.069.411.154.814.252 1.211-1.883-.162-3.836.476-5.623 1.013-2.158.649-4.289 1.431-6.376 2.302-.038.016-.075.034-.109.052-.318-2.556-1.031-5.063-2.082-7.359-2.48-5.425-6.793-9.621-12.152-11.764-7.314-2.926-16.342-1.562-22.36 3.768-.113.1-.198.212-.26.33-.141.086-.269.212-.372.385-2.396 4.02-3.344 8.825-3.585 13.504-.229 4.439.282 9.249 2.26 13.237 3.708 7.475 13.02 10.723 20.579 10.36 2.752-.133 5.46-.851 7.908-2.089-.258.4-.27.933.22 1.301 1.644 1.233 3.288 2.467 4.873 3.784.62.514 1.241 1.023 1.821 1.589.295.286.606.589.955.808-2.378 3.559-3.723 7.996-2.612 12.209.555 5.362 3.311 10.111 6.72 14.03 3.14 3.608 7.087 6.663 11.8 7.343 9.05 1.307 16.725-6.404 19.532-14.809 1.423-4.26 1.755-8.906.462-13.251-1.344-4.513-4.553-7.8-8.379-10.1-.098-.059-.199-.115-.298-.173 1.26-4.325 3.495-8.449 3.86-13.01.004-.048.004-.094.004-.139 4.377.083 8.754-1.547 11.684-5.117 5.359-6.534 4.426-17.227-1.177-23.22zm-71.04 35c-.274-.18-.542-.37-.806-.567.016-.098.02-.203.008-.318-.272-2.595 2.504-3.172 4.278-4.04 1.149-.563 2.112-1.292 2.776-2.453.941-1.645.886-3.45.864-5.29.02-.114.021-.241-.003-.381-.0001-.153-.027-.288-.073-.404-.436-2.314-1.208-4.559-1.143-6.944.047-1.709.495-3.453 1.328-4.921.788-1.386 2.143-2.135 3.671-1.93 1.853.25 3.182 1.467 3.905 3.236.713 1.745.844 3.76.619 5.626-.253 2.11-1.183 3.928-1.925 5.876-.752 1.974-1.146 4.055-.076 5.982.77 1.389 2.241 2.214 3.566 2.887 1.116.566 2.252 1.092 3.305 1.785.717.472 1.458 1.09 1.166 2.034-.149.483.024.843.325 1.043-6.644 3.992-15.454 2.939-21.785-1.219zm17.743-5.678c-1.246-.632-2.722-1.475-2.919-3.072-.25-2.023 1.152-4.2 1.834-6 1.361-3.594 1.348-8.08-.607-11.438-1.86-3.195-6.461-4.459-9.266-1.885-1.663 1.526-2.469 3.824-2.804 6.06-.167 1.121-.199 2.278-.104 3.407.161 1.938.85 3.812 1.172 5.723.011 1.844.184 3.598-1.068 5.076-.653.771-1.812 1.122-2.689 1.507-1.905.836-3.634 1.98-4.078 3.962-.84-.892-1.578-1.887-2.186-2.969-1.284-2.287-1.771-5.075-2.027-7.68-.566-5.768.262-12.168 3.195-17.17.002-.002.005-.003.007-.005 6.773-5.998 17.277-6.522 24.612-1.322 5.251 3.723 8.508 10.04 8.903 16.645.344 5.759-1.815 11.283-6.086 14.767.305-2.981-3.86-4.572-5.889-5.603zm33.533 47.801c-4.199 1.445-8.653.375-12.177-2.305-1.697-1.291-3.288-2.823-4.696-4.527.249-.062.472-.248.594-.598.535-1.512 2.342-1.43 3.639-1.479 1.646-.063 3.455.016 4.943-.852 1.676-.975 2.386-3.08 2.246-4.997-.152-2.093-1.197-4.03-1.851-5.976-.597-1.781-.72-3.706.383-5.309.92-1.337 2.417-2.086 3.958-2.219s3.01.551 3.895 1.882c1.067 1.603 1.181 3.388.404 5.126-1.354 3.03-4.201 6.201-2.328 9.74.813 1.535 2.675 1.322 4.03 1.814 1.645.596 2.477 2.333 2.998 4.03-.327.482-.279 1.293.284 1.655-1.825 1.801-3.961 3.205-6.319 4.02zm5.924-32.786c3.729 2.468 6.197 6.333 6.771 10.933.686 5.502-1.159 11.43-4.599 15.84-.557-1.904-1.404-3.707-2.972-4.932-.804-.627-1.698-.938-2.673-1.128-.602-.118-1.496-.103-1.781-.785-.698-1.668.438-3.687 1.23-5.069.861-1.501 1.787-2.984 2.01-4.762.488-3.943-2.551-7.588-6.266-7.744-3.479-.148-6.743 2.361-7.387 5.994-.424 2.395.551 4.668 1.381 6.84.669 1.754 1.645 4.464-.201 5.855-.652.492-1.588.535-2.355.592-.969.072-1.939.057-2.908.129-1.74.131-3.603.723-4.287 2.578-1.42-1.992-2.588-4.169-3.389-6.453-.301-.857-.528-1.736-.688-2.63.116-.228.145-.513.028-.833-1.649-4.511.324-9.258 3.129-12.74 2.933-3.637 6.912-5.874 11.473-6 4.722-.133 9.533 1.701 13.486 4.316zm-2.191-4.474c-.182.119-.33.294-.414.521-3.539-1.687-7.461-2.634-11.322-2.527-4.524.127-8.522 2.358-11.669 5.676-.28.295-.554.604-.82.922-.06-.021-.123-.039-.192-.05-.385-.063-.862-.732-1.143-1-.613-.586-1.3-1.106-1.953-1.642-1.412-1.157-2.876-2.245-4.333-3.337-.188-.143-.386-.208-.578-.218 3.187-1.859 5.849-4.643 7.459-8.204 1.349-2.983 1.893-6.282 1.763-9.565.184.054.395.046.625-.05 1.85-.772 3.734-1.459 5.636-2.071 1.639-.527 3.673-1.336 5.413-1.151.345.037.628-.083.833-.282 1.92 5.214 6.211 9.01 11.42 10.661.896.284 1.816.492 2.748.624-.354 4.087-2.201 7.838-3.473 11.694zm5.262-13.708c-3.113-.097-6.217-1.206-8.778-3.086.318-1.997 2.408-2.837 3.836-3.872 1.59-1.153 2.791-2.909 2.502-5.01-.252-1.823-1.424-3.319-1.77-5.111-.323-1.668.389-3.612 1.9-4.375 1.374-.693 2.926-.304 4.04.72.762.701 1.214 1.724 1.473 2.73.355 1.38-.097 2.646-.836 3.759-1.226 1.848-2.182 3.613-1.099 5.791.705 1.421 2.156 2.355 3.258 3.403.977.93 1.566 1.979 1.328 3.395-.04.246-.009.46.07.641-1.864.783-3.909 1.079-5.922 1.017zm8.105-2.231c-.044.031-.089.059-.132.089.032-1.515-.534-2.816-1.552-3.999-1-1.164-2.395-1.938-3.262-3.232-1.181-1.766 1.167-3.705 1.814-5.244.969-2.303.204-5.217-1.267-7.08-2.245-2.837-6.46-3.094-8.751-.177-1.258 1.604-1.536 3.709-1.084 5.681.389 1.698 1.605 3.194 1.67 4.967.062 1.688-2.06 2.753-3.191 3.504-1.217.808-2.33 1.788-2.874 3.147-1.491-1.47-2.695-3.247-3.46-5.266-.029-.079-.057-.159-.084-.238.395-.317.625-.9.314-1.481-1.821-3.405.74-8.129 2.553-10.933 1.01-1.558 2.166-3.035 3.49-4.309 1.646-1.584 3.914-2.167 6.09-2.223 4.469-.117 9.279 2.024 12.05 5.728 2.746 3.668 3.51 8.565 2.615 13.06-.639 3.224-2.339 6.13-4.938 7.997z"/></svg>