<svg xmlns="http://www.w3.org/2000/svg" viewBox="0 0 100 100" enable-background="new 0 0 100 100"><path d="m75.27 72.821c-3.293 0-6.31.937-8.585 2.651-2.752-1.804-5.491-3.626-8.23-5.448-8.276-5.507-16.828-11.195-25.615-16.255.361-1.635.285-3.367-.228-5.163-.177-.623-.408-1.24-.689-1.844 9.713-5.343 18.675-12.07 27.349-18.576 2.309-1.732 4.617-3.465 6.941-5.174 2.585 2.249 6.144 3.524 9.903 3.524l.194-.0001c4.659-.055 9.217-2.169 11.614-5.385 1.894-2.541 2.405-5.603 1.477-8.853-1.958-6.856-8.669-9.926-14.452-9.926-4.146 0-7.852 1.498-10.169 4.109-2.09 2.356-2.966 5.505-2.534 9.106.007.059.015.118.024.176-2.479 1.819-4.939 3.667-7.399 5.514-9.129 6.855-18.564 13.94-28.835 19.349-2.342-1.256-5.118-1.942-7.882-1.942-4.144 0-7.848 1.497-10.163 4.106-2.089 2.354-2.965 5.503-2.533 9.104.862 7.188 7.632 10.95 13.873 10.95h.192c2.96-.035 5.976-.922 8.378-2.448 9.02 5.144 17.804 10.99 26.305 16.646 2.78 1.85 5.561 3.7 8.354 5.531-.146 1.098-.148 2.257-.004 3.456.862 7.188 7.632 10.95 13.873 10.95l.191-.0001c4.659-.056 9.217-2.17 11.614-5.386 1.894-2.541 2.404-5.603 1.476-8.852-1.957-6.849-8.662-9.917-14.44-9.917m-3.807 9.257c.861-1.113 2.148-1.778 3.442-1.778.183 0 .368.014.553.042l.113.017.114-.009c2.514-.199 4.581 2.14 5.845 4.087.742 1.143.431 1.762.329 1.965-.692 1.375-3.53 2.261-5.312 2.372-.154.001-.309.015-.463.015-2.065 0-4.715-.916-5.385-3.496-.276-1.06.003-2.231.764-3.215m-57.1-34.14c.861-1.113 2.148-1.778 3.442-1.778.183 0 .368.014.553.042l.113.017.114-.009c2.513-.193 4.58 2.14 5.844 4.086.743 1.144.431 1.763.329 1.966-.692 1.375-3.53 2.261-5.313 2.372-.153.001-.308.015-.462.015-2.065 0-4.714-.916-5.385-3.496-.275-1.059.004-2.231.765-3.215m67.18-31.983c-.692 1.375-3.53 2.261-5.312 2.372-.153.001-.307.015-.461.015-2.066 0-4.717-.916-5.387-3.496-.275-1.06.004-2.23.765-3.215.861-1.113 2.148-1.778 3.443-1.778.183 0 .368.014.553.042l.113.017.114-.009c2.513-.188 4.58 2.14 5.844 4.087.742 1.143.431 1.762.328 1.965" fill="#1d1d1b"/></svg>