<svg xmlns="http://www.w3.org/2000/svg" viewBox="0 0 100 100" enable-background="new 0 0 100 100"><path d="m80.06 18.759c-.223-.993-.924-1.463-1.689-1.531-.326-.251-.751-.406-1.278-.405-3.297.006-6.832.04-10.495.089-3.443-18.688-26.656-13.88-32.575.544-3.526.046-6.93.078-10.113.084-.08 0-.146.023-.223.031-1.15-.129-2.232-.006-3.393.225-.616.123-1.08.57-1.34 1.12-.145.207-.27.441-.34.739-4.762 20.05-6.204 38.761-12.175 58.55-.121.399-.121.759-.047 1.08-.454.678-.6 1.609-.094 2.277 1.761 2.328 3.649 4.539 5.707 6.613.138.138.28.246.426.337.252.241.596.419 1.06.484 23.333 3.237 46.94 3.575 70.41 1.688.244-.02.459-.081.661-.16.483.0001.978-.212 1.396-.738 2.103-2.647 4.051-5.385 5.719-8.325.584-.398.894-1.071.919-1.755.067-.292.075-.615.003-.964-4.293-20.689-7.911-39.37-12.535-59.986m-17.841-1.783c-7.695.122-15.785.29-23.478.411 5.138-9.599 20.32-12.782 23.478-.411m-29.967 27.501l2.079-2.911c.983 1.242 2.073 2.395 3.19 3.524.159 2.038.213 4.078.225 6.121-1.834-.049-3.665-.153-5.494-.297v-6.437m50.896 41.968c-22.754 1.784-45.727 1.556-68.35-1.57-1.152-1.174-2.268-2.387-3.322-3.651 23.23 1.044 51.44 1.241 74.896.702-1 1.555-2.077 3.061-3.22 4.519m-71.875-9.531c5.215-18.741 6.907-36.21 11.267-55.14.062-.003.124-.001.186-.012.053-.002.697.072.255-.003.213.036.424.041.632.031.102.013.188.046.298.046 1.857-.004 3.795-.016 5.785-.034.128 5.345.84 10.586 2.378 15.729.023.079.06.145.089.217l-3.387 4.742c-.092.128-.154.267-.201.41-.198.291-.323.654-.323 1.099v8.25c0 .235.043.441.103.633.115.904.746 1.772 1.897 1.867 2.913.242 5.825.48 8.75.5.211.0001.397-.032.573-.08 1.056.081 2.177-.554 2.177-1.92 0-2.837-.011-5.671-.25-8.5-.007-.078-.027-.147-.041-.221.112-.558-.019-1.167-.545-1.693-1.595-1.596-3.212-3.188-4.438-5.095-.137-.213-.298-.375-.469-.511.021-.236.003-.488-.079-.761-1.444-4.827-2.114-9.699-2.236-14.71 13.919-.176 29.932-.586 42.489-.629 4.324 19.454 7.793 36.934 11.797 56.45-23.424.587-53.3.404-76.71-.67" fill="#1e1e1c"/></svg>