<svg xmlns="http://www.w3.org/2000/svg" viewBox="0 0 100 100" enable-background="new 0 0 100 100"><path d="m91.36 66.39c-19.453 2.074-39.1 5.233-58.668 2.789-.116-.059-.232-.119-.356-.165-1.788-.671-2.388-1.785-2.373-3.437 1.664-2.378 5.219-2.224 7.71-2.031 3.485.269 6.944.236 10.439.199 9.07-.096 18.18-.71 27.17-1.871 4.986-.643 9.951-1.36 14.898-2.258 1.536-.279 2.086-1.479 1.926-2.664.029-.156.057-.315.061-.488.273-10.576.597-21.14 1.625-31.677.16-1.646-.972-2.495-2.242-2.578-.297-.097-.627-.152-1.01-.13-22.833 1.326-45.702 1.62-68.57 1.889-.133-.155-.285-.302-.46-.437-4.03-3.103-8.485-5.352-13.371-6.771-3.362-.976-4.787 4.25-1.441 5.221 12.578 3.653 18.228 14.525 20.636 26.66.724 3.641 1.082 7.34 1.368 11.04.018.23-3.156 2.708-3.506 3.341-.776 1.406-.909 3.03-.54 4.58 1.108 4.651 4.907 6.571 9.282 7.338-.768 1.016-1.388 2.201-1.831 3.546-.162.491-.173.935-.092 1.333-.006 2.507.718 4.923 2.548 6.716 1.902 1.864 4.628 2.46 7.194 2.598.296.016.558-.021.804-.079.092-.007.181-.002.277-.017 4.727-.768 8.169-4.26 8.598-9.04.157-1.743-.297-3.318-1.145-4.656 7.408-.121 14.691-.744 22.07-1.474-.713.928-1.272 1.95-1.608 3.038-1.866 6.05 4.01 10.304 9.632 10.606.296.016.558-.021.804-.079.092-.007.181-.002.277-.017 4.727-.768 8.169-4.26 8.598-9.04.22-2.45-.767-4.565-2.357-6.16 1.215-.136 2.429-.276 3.645-.406 3.433-.366 3.469-5.785-.002-5.415m-4.554-11.673c-4.349.754-8.711 1.388-13.08 1.909-.022-2.034-.051-4.068-.111-6.1 4.44-.06 8.881-.076 13.321-.026-.043 1.405-.09 2.811-.127 4.217m.314-9.63c-4.577-.053-9.15-.029-13.721.042-.073-1.606-.164-3.211-.262-4.815 4.727-.077 9.452-.13 14.18-.1-.077 1.624-.135 3.248-.197 4.873m1.01-17.466c-.205 2.391-.374 4.785-.522 7.179-4.94-.034-9.882.022-14.822.106-.168-2.191-.361-4.38-.572-6.569 5.307-.198 10.612-.425 15.916-.716m-19.812 29.585c-5.075.493-10.162.839-15.259 1.021-.313-2.289-.634-4.577-.952-6.866 5.357-.371 10.725-.6 16.1-.738.064 2.192.095 4.387.115 6.583m-.328-11.97c-5.543.155-11.08.407-16.608.804-.235-1.744-.457-3.49-.677-5.237 5.675-.126 11.35-.276 17.03-.396.096 1.609.186 3.219.259 4.829m-1.175-16.709c.207 2.157.399 4.315.564 6.474-5.773.124-11.547.279-17.32.406-.237-2.14-.462-4.282-.648-6.429 5.802-.115 11.604-.264 17.404-.451m-19.16 29.838c-4.546.063-9.1.005-13.65-.184-.144-1.652-.32-3.303-.529-4.948 4.412-.598 8.834-1.08 13.262-1.464.306 2.198.614 4.396.917 6.596m-1.646-11.907c-4.462.393-8.918.879-13.367 1.474-.44-2.335-.98-4.642-1.66-6.894 4.768.016 9.534-.037 14.301-.123.232 1.849.476 3.696.726 5.543m-20.313-17.12c6.102-.074 12.204-.157 18.304-.262.188 2.15.407 4.295.646 6.439-5.209.091-10.418.143-15.629.104-.933-2.172-2.025-4.275-3.321-6.281m16.14 54.39c-.023-.002-.042-.009-.064-.001-2.987-.16-4.35-1.175-4.327-4.03.869-2.344 2.633-3.349 4.881-3.526 2.045.459 3.751 1.481 3.711 3.838-.04 2.251-2.294 3.334-4.201 3.733m38.626-1.624c-.023-.002-.042-.009-.064-.001-2.987-.16-4.35-1.175-4.327-4.03.869-2.344 2.633-3.349 4.88-3.526 2.046.459 3.752 1.481 3.712 3.838-.04 2.25-2.294 3.333-4.201 3.733" fill="#1e1e1c"/></svg>