<svg xmlns="http://www.w3.org/2000/svg" viewBox="0 0 100 100" enable-background="new 0 0 100 100"><g fill="#1d1d1b"><path d="m39.31 50c-1.958 2.979-4.03 5.872-6.505 8.475-5.828 6.131-13.433 7.759-21.639 7.342-7.367-.375-7.331 11.05 0 11.425 15.417.784 26.314-5.878 34.99-17.217-1.429-1.863-2.749-3.739-3.957-5.546-.994-1.486-1.956-3-2.889-4.479"/><path d="m54.2 40.91c.792 1.245 1.574 2.47 2.363 3.67 1.447-1.997 2.99-3.925 4.726-5.717 4.383-4.524 9.376-6.383 14.858-6.909-.347.419-.685.846-1.036 1.263-2 2.38-2.341 5.737 0 8.08 2.06 2.06 6.072 2.385 8.08 0 3.091-3.672 6.04-7.46 9.134-11.132 2.01-2.023 2.783-5.387.292-8.09l-10.282-11.14c-5.01-5.424-13.07 2.675-8.08 8.08l1.335 1.446c-5.609.401-11.01 1.828-15.995 5.069-3.726 2.422-6.859 5.535-9.654 8.945.562.787 1.122 1.587 1.674 2.422.882 1.335 1.747 2.696 2.585 4.01"/><path d="m83.19 53.15c-.967-1.149-2.399-1.669-3.855-1.669-1.565 0-3.157.602-4.224 1.669-2.341 2.342-2 5.699 0 8.08.351.417.689.844 1.036 1.263-5.482-.525-10.476-2.385-14.858-6.909-2.493-2.573-4.597-5.419-6.571-8.361-1.914-2.851-3.705-5.794-5.606-8.672-.363-.55-.736-1.078-1.107-1.61-8.524-12.227-19.18-19.801-34.407-19.801-.795 0-1.605.021-2.426.062-7.212.367-7.364 11.434-.351 11.434.115 0 .232-.003.351-.009.792-.04 1.576-.061 2.355-.061 7.3 0 14.02 1.864 19.283 7.404 3.238 3.407 5.792 7.309 8.294 11.253 1.187 1.87 2.363 3.748 3.594 5.59 1.059 1.584 2.156 3.157 3.304 4.691 3.271 4.371 6.982 8.415 11.591 11.411 4.986 3.241 10.386 4.668 15.995 5.069l-1.335 1.446c-3.825 4.144.022 9.873 4.283 9.873 1.295 0 2.629-.53 3.796-1.794l10.283-11.14c2.491-2.699 1.721-6.06-.292-8.09-3.09-3.673-6.04-7.46-9.133-11.132"/></g></svg>