<svg xmlns="http://www.w3.org/2000/svg" viewBox="0 0 100 100" enable-background="new 0 0 100 100"><g fill="#1d1d1b"><path d="m55.38 48.739c-.531-.63-1.343-1.016-2.244-1.119-2.571-.294-5.161-.286-7.746-.287-1.754 0-2.666 1.289-2.757 2.646-.066.246-.112.506-.112.797v42.591c0 .649.184 1.178.475 1.599.266 1.149 1.153 2.13 2.681 2.13h7.746c1.76 0 2.672-1.299 2.758-2.661.064-.241.109-.497.111-.782.043-9.284.559-33.03.861-42.3.046-1.405-.756-2.273-1.773-2.609m-4.791 42.62h-2.33v-38.27c1.03.015 2.059.059 3.087.125-.278 7.89-.659 30.25-.757 38.15"/><path d="m53.935 29.1c-1.641-.62-3.405-.666-5.282-.134-.585-.188-1.213-.136-1.795.156-3.615 1.809-6.84 5.738-5.38 10.09 1.239 3.695 5.336 5.01 8.469 5.01 1.248 0 2.467-.194 3.527-.56 2.251-.779 4.267-2.608 5.262-4.775.834-1.817.914-3.692.229-5.421-.772-1.949-2.417-3.377-5.03-4.364m-8.01 8.478c-.28-.835.009-1.712.86-2.607.208-.06.397-.141.573-.247 1.01-.606 2.752-1.313 4.33-1.313 1.448 0 2.417.593 2.881 1.764.219.552.191 1.133-.081 1.726-.526 1.145-1.797 2.02-2.756 2.354-.497.172-1.142.267-1.816.267-1.541 0-3.51-.509-3.991-1.944"/><path d="m74.05 21.17c-.512-1.224-1.656-1.703-2.723-1.637-.4-.001-.822.072-1.254.302-2.444 1.298-4.912 2.549-7.329 3.898-2.975 1.662.712 6.263 1.312 8.415 1.067 3.827.405 7.859-1.739 11.191-.16.248-.253.493-.318.733-.14.144-.244.32-.362.484-.753.78-1.097 2.107-.411 3.02 1.666 2.208 3.775 3.927 6.197 5.261.421.232.832.32 1.223.32.652.086 1.349-.099 1.956-.71 8.479-8.51 7.8-20.868 3.448-31.27m-5.74 26.37c-.623-.415-1.225-.868-1.767-1.378.024-.095.055-.188.068-.286.005-.007.001-.012.015-.019 3.782-5.879 3.753-12.808.693-18.924.997-.534 1.999-1.06 2.999-1.587 2.575 7.491 3.175 15.817-2.01 22.19"/><path d="m85.74 7.06c-.462-.001-.949.072-1.449.302-2.824 1.298-5.677 2.549-8.471 3.899-2.577 1.246-.353 4.945.545 6.3 1.901 2.868 3.308 5.717 4.301 9.02 1.82 6.05 2.124 11.858.133 17.932-1.186 3.62-3.206 7.01-5.472 10.06-.185.248-.293.493-.368.733-.162.144-.282.32-.418.484-.87.78-1.268 2.107-.475 3.02 1.926 2.208 4.362 3.927 7.161 5.261.487.232.962.32 1.413.32.754.086 1.559-.099 2.261-.71 17.922-15.566 12.424-37.515 3.985-54.975-.591-1.224-1.914-1.703-3.146-1.637m-3.487 51.709c-.72-.415-1.416-.868-2.042-1.378.028-.095.063-.188.078-.286.005-.007.012-.012.017-.019 10.858-14.604 9.384-27.784.801-42.625 1.152-.534 2.31-1.06 3.466-1.587 6.406 16.12 11.773 30.888-2.32 45.895"/><path d="m38.27 44.08c-.065-.241-.158-.485-.318-.733-2.144-3.332-2.806-7.364-1.739-11.191.6-2.153 4.287-6.753 1.312-8.415-2.417-1.35-4.885-2.6-7.329-3.898-.432-.23-.854-.312-1.254-.302-1.067-.066-2.211.413-2.723 1.637-4.352 10.405-5.03 22.763 3.448 31.27.608.61 1.304.796 1.956.71.391.0001.802-.088 1.223-.32 2.422-1.334 4.53-3.053 6.196-5.261.686-.909.342-2.235-.411-3.02-.117-.165-.222-.341-.361-.485m-6.311 3.467c-5.183-6.378-4.583-14.704-2.01-22.19 1 .527 2 1.054 2.999 1.587-3.061 6.116-3.09 13.04.693 18.924.005.007.001.012.015.019.013.098.044.191.068.286-.542.51-1.144.964-1.767 1.378"/><path d="m25.301 55.3c-.075-.241-.183-.485-.368-.733-2.266-3.048-4.285-6.436-5.472-10.06-1.99-6.074-1.687-11.881.133-17.932.993-3.302 2.399-6.151 4.301-9.02.898-1.354 3.122-5.05.545-6.3-2.794-1.35-5.646-2.601-8.471-3.899-.5-.23-.987-.312-1.449-.302-1.233-.066-2.555.413-3.147 1.637-8.438 17.459-13.936 39.41 3.987 54.975.703.61 1.507.796 2.261.71.452.0001.927-.088 1.413-.32 2.799-1.334 5.236-3.053 7.161-5.261.793-.909.395-2.235-.475-3.02-.136-.164-.257-.341-.419-.484m-7.293 3.467c-14.09-15.01-8.726-29.775-2.32-45.895 1.156.527 2.314 1.054 3.466 1.587-8.583 14.841-10.06 28.02.801 42.625.005.007.012.012.017.019.015.097.051.191.078.286-.626.51-1.321.964-2.042 1.378"/></g></svg>