<svg xmlns="http://www.w3.org/2000/svg" viewBox="0 0 100 100" enable-background="new 0 0 100 100"><g fill="#1d1d1b"><path d="m85.12 62.996c.247-1.344.985-3.712 1.338-4.844.38-1.221.601-1.938.711-2.476 1.568-7.643.708-14.555-2.707-21.751-5.079-10.701-12.94-17.694-22.733-20.221-4.04-1.043-8.04-1.583-11.911-1.603-1.11 0-2.34.209-3.643.431-1.216.207-2.473.42-3.438.42-.241 0-.416-.014-.537-.029-.187-.267-.434-.672-.6-.943-.456-.746-.927-1.516-1.521-2.106-3.446-3.42-8.191-5.382-13.02-5.383-8.091 0-15.241 5.482-17.386 13.333-.661 2.42-1.519 7.147.167 11.616.668 1.772 1.827 3.155 2.85 4.375.929 1.108 1.806 2.155 1.916 3.061.139 1.147-.458 2.692-1.09 4.327-.606 1.568-1.232 3.19-1.436 4.958-.477 4.155-.178 8.486.89 12.873 2.286 9.386 7.196 17.14 13.824 21.836 4.418 3.129 9.485 5.512 13.554 6.375 2.269.482 4.748.716 7.578.716.607 0 1.213-.001 1.819-.028 1.357-.043 2.722-.363 4.04-.673 1.685-.397 3.533-.761 4.322-.418.574.247 1.34 1.207 2.02 2.055.755.948 1.612 2.02 2.709 2.848 2.378 1.787 4.865 2.927 7.39 3.385.912.166 1.85.25 2.788.25 4.049 0 8.127-1.542 11.481-4.342 4.386-3.66 6.815-9.09 6.663-14.893-.132-5.135-2.314-9.85-6.04-13.149m-4.468 23.437c-2.278 1.9-4.99 2.947-7.637 2.947-.579 0-1.156-.051-1.715-.153-1.621-.294-3.21-1.039-4.857-2.277-.487-.366-1.039-1.059-1.623-1.791-1.115-1.399-2.379-2.985-4.334-3.827-1-.43-2.086-.64-3.322-.64-1.649 0-3.294.387-4.745.728-1.08.254-2.099.493-2.855.517-.544.018-1.089.026-1.634.026-2.406 0-4.477-.191-6.332-.585-3.899-.827-8.411-3.333-11.333-5.402-5.448-3.858-9.519-10.379-11.462-18.359-.9-3.695-1.156-7.319-.759-10.769.115-1.01.58-2.208 1.071-3.479.829-2.146 1.769-4.578 1.449-7.212-.324-2.673-1.958-4.625-3.272-6.192-.785-.937-1.526-1.822-1.835-2.64-.795-2.106-.792-4.992.007-7.917 1.457-5.332 6.118-8.914 11.597-8.914 3.256 0 6.461 1.328 8.768 3.616.133.151.446.664.653 1 .757 1.238 1.54 2.52 2.864 3.164.939.457 2.049.679 3.393.679 1.472 0 3.05-.269 4.443-.505 1-.17 2.033-.346 2.651-.346 3.335.018 6.833.493 10.397 1.412 10.125 2.613 15.818 10.679 18.811 16.984 2.867 6.04 3.562 11.584 2.25 17.973-.056.271-.336 1.173-.562 1.896-1.652 5.302-2.255 7.82-1.093 9.688l.297.479.451.337c2.937 2.201 4.678 5.639 4.777 9.433.104 3.956-1.539 7.648-4.509 10.127"/><path d="m58.887 49.567c-3.34-1.119-13.1-2.512-15.577-6.04 4.698-6.368 14.262-2 20.502 1.04.713.348 1.401.319 1.982.072.682-.107 1.318-.476 1.635-1.114.846-1.705 1.637-3.436 2.554-5.107 2.887-5.267-10.982-8.717-13.732-9.507-6.129-1.76-13.347-2.202-19.12 1-3.09 1.716-5.571 4.903-6.878 8.173-2.316 5.791 1.336 12.14 5.933 15.428 5.247 3.754 12.164 4.354 17.473 7.908-3.406 1.148-13.588-.0001-16.672-2.564-1.01-.839-2.215-.684-3.062-.081-.228.113-.452.26-.664.474-1.57 1.591-2.95 3.344-4.321 5.106-.788 1.013-.992 2.341 0 3.333.117.116.254.216.401.306.132.162.282.317.469.455 7.517 5.545 24.967 8.709 33.805 4.653 4.836-2.22 11.11-9.605 8.456-15.279-2.255-4.827-8.547-6.711-13.183-8.265m6.623 15.927c-1.145 1.225-2.554 2.212-3.703 2.745-2.883 1.336-6.161 1.903-9.318 1.982-3.459.086-6.947-.397-10.295-1.25-.621-.158-8.455-3.128-8.252-3.377.539-.662 1.097-1.307 1.668-1.941 3.895 2.587 9.435 3.156 13.984 2.941 2.817-.133 11.02-1.267 10.329-5.42-.915-5.506-13.08-6.9-17.08-8.936-2.696-1.371-6.637-4.35-7.831-7.255-2.542-6.183 3.417-10.127 8.411-11.913 3.956-1.415 8.208-1.037 12.175.123.807.236 9.934 3.566 9.538 4.348-.342.675-.675 1.354-1 2.035.439-.908-13.957-3.655-15.398-3.565-2.455.154-4.849 1-6.905 2.353-10.28 6.761 5.185 13.02 10.629 14.544 4.01 1.123 14.361 2.347 15.14 7.587.26 1.754-.728 3.544-2.088 4.999"/></g></svg>