<svg xmlns="http://www.w3.org/2000/svg" viewBox="0 0 100 100" enable-background="new 0 0 100 100"><g fill="#1e1e1c"><path d="m78.04 15.07c-5.967-5.163-13.407-7.247-21.1-8.168-20.483-6.533-38.754 6.979-46.732 25.714-8.599 20.19-4.508 42.736 14.14 55.33 19.04 12.856 45.2 7.572 59.8-9.351 15.958-18.496 12.02-47.835-6.108-63.52m-35.09 73.38c-10.799-1.537-21.277-8.181-26.749-17.655-4.892-8.471-4.851-19.08-2.658-28.33 3.371-14.224 13.571-27.06 26.902-30.13.02.0001.037.007.057.007 4.798.142 9.864.15 14.817.686.469.147.938.293 1.41.465.781.285 1.464.248 2.036.014 5.343.899 10.446 2.611 14.799 6.04 9.631 7.578 14.708 21.243 14.43 33.21-.522 22.56-23.674 38.738-45.04 35.697"/><path d="m37.655 45.992c4.477 0 4.477-6.943 0-6.943s-4.477 6.943 0 6.943"/><path d="m61.61 46.34c4.477 0 4.477-6.943 0-6.943s-4.477 6.943 0 6.943"/><path d="m63.32 58.12c-8.317 8.265-19.05 7.441-27.376-.347-3.266-3.054-8.186 1.845-4.91 4.91 11.08 10.364 26.17 11.306 37.19.347 3.18-3.16-1.731-8.07-4.909-4.91"/></g></svg>