<svg xmlns="http://www.w3.org/2000/svg" viewBox="0 0 100 100" enable-background="new 0 0 100 100"><g fill="#1d1d1b"><path d="m76.59 27.908l-2.473 1.75c-2.892 2.046-5.06 3.514-6.731 4.556 0 .005 0 .009 0 .013 1.241.296 2.31.821 3.185 1.507.84-.552 1.767-1.178 2.813-1.901-.043 1.446-.076 2.831-.082 4.02-.211.222-.418.432-.627.648.478 1.187.602 2.53.323 3.932.943-.923 1.896-1.891 2.872-2.929l.433-.433-.002-.624c-.006-2.02.087-4.815.182-7.51l.107-3.03"/><path d="m94.14 24.268c.354.128.727.193 1.106.193 1.603 0 3.136-1.182 3.567-2.75.526-1.914-.518-3.818-2.48-4.526-.069-.025-.139-.05-.208-.075.492-.891.586-1.95.225-2.987-.539-1.548-1.912-2.591-3.424-2.604.119-1.927-.92-3.501-2.67-3.982-1.75-.48-4.284.511-4.603 2.781-.292 2.083-.678 4.213-1.179 6.496-.979.671-2.12 1.483-3.28 2.32.022-2.349.002-4.212-.064-5.704 1.112-1.034 2.29-2.108 3.52-3.141 1.611-1.354 1.969-3.434.868-5.057-.677-1-1.919-1.649-3.164-1.649-.798 0-1.528.259-2.111.749-.062.052-.123.104-.184.155-.753-.973-1.959-1.483-3.104-1.483-1.013 0-1.969.386-2.622 1.06-.121.125-.231.259-.331.399-.592-.432-1.264-.657-1.969-.657-1.438 0-2.803.975-3.397 2.425-.592 1.442-.269 3.02.844 4.117 1.36 1.341 2.807 2.757 4.303 4.134.054 1.202.071 2.728.052 4.612-2.139-1.486-3.834-2.61-5.201-3.45-.226-1.459-.463-3.082-.628-4.674-.217-2.093-1.739-3.555-3.702-3.555-1.037 0-2.092.483-2.821 1.292-.663.736-.976 1.65-.88 2.57.009.081.017.162.025.243-1.584.095-3.03 1.259-3.488 2.838-.219.754-.185 1.499.072 2.165-1.48.545-2.368 1.945-2.206 3.583.17 1.715 1.545 3.538 3.76 3.538.259 0 .522-.026.785-.079 1.866-.373 3.843-.775 5.835-1.246 1.751 1.074 3.978 2.616 5.915 3.992-1.589 1.129-3.358 2.355-4.916 3.358.458.943.76 1.941.905 2.983 1.787-1.113 4.143-2.731 7.464-5.124l1.688-1.217-1.688-1.217c-3.904-2.813-6.482-4.562-8.357-5.668l-.524-.31-.593.144c-2.141.52-4.294.959-6.316 1.364-.594.119-.933-.421-.972-.813-.039-.391.144-.459.386-.507.699-.14 1.399-.282 2.099-.426l3.666-.756-3.88-2.423c-.274-.174-.296-.312-.24-.504.126-.436.683-.886 1.219-.547l3.055 1.914-.416-3.16c-.106-.809-.209-1.618-.292-2.432-.001-.096.093-.218.124-.253.177-.195.438-.301.593-.301.567 0 .691.604.718.865.2 1.92.495 3.855.757 5.519l.109.696.605.36c1.82 1.082 4.338 2.77 7.923 5.313l2.3 1.632.068-2.819c.09-3.759.078-6.392-.039-8.285l-.037-.608-.451-.41c-1.616-1.468-3.193-3.01-4.67-4.467-.102-.1-.371-.365-.175-.843.139-.337.434-.563.622-.563.11 0 .233.098.317.181.509.501 1.019 1 1.529 1.499l2.677 2.61-.164-4.568c-.005-.179.026-.305.094-.375.089-.091.269-.148.469-.148.14 0 .835.036.857.745l.107 3.618 2.403-2.132c.61-.542 1.224-1.08 1.85-1.605.045-.038.124-.046.182-.046.273 0 .571.17.68.331.318.469-.113.91-.313 1.078-1.474 1.238-2.856 2.516-4.147 3.719l-.516.481.042.704c.121 2.059.137 4.978.048 9.184l-.063 3.03 2.447-1.786c2.078-1.516 4.436-3.228 6.118-4.36l.663-.446v-.639c.562-2.518.992-4.856 1.312-7.144.013-.093.328-.321.7-.321.07 0 .115.009.136.015.386.106.539.464.455 1.065-.103.734-.221 1.467-.345 2.198l-.643 3.801 3.629-2.819c.089-.071.221-.155.341-.155.2 0 .496.237.619.591.166.477-.127.709-.236.796-.208.165-.418.326-.629.486l-2.602 2 2.832.829c.94.275 1.713.524 2.432.784.131.047.771.312.607.91-.074.27-.427.532-.763.531-1.89-.683-3.923-1.258-6.215-1.761l-.629-.138-.532.36c-2 1.354-4.819 3.391-7.304 5.187l-1.681 1.215 1.681 1.215c2.998 2.168 5.439 3.927 7.304 5.188l.532.36.629-.138c2.296-.504 4.329-1.08 6.303-1.775.26 0 .601.275.675.545.164.598-.477.863-.606.91-.716.258-1.512.515-2.433.785l-2.832.829 2.602 2c.211.161.421.322.628.486.11.087.403.32.237.797-.123.353-.419.59-.619.59-.12 0-.252-.084-.343-.156l-3.627-2.818.643 3.801c.124.731.242 1.463.345 2.199.084.6-.069.958-.456 1.064-.02.006-.064.015-.135.015-.372 0-.688-.228-.7-.32-.32-2.288-.75-4.626-1.312-7.144v-.639l-.663-.446c-1.696-1.142-4.066-2.863-6.35-4.528l-2.296-1.675-.087 2.841c-.104 3.384-.19 6.364-.189 8.56v.644l.467.443c1.701 1.618 3.317 2.979 4.94 4.16.106.078.137.248.146.317.025.222-.039.474-.156.612-.271.318-.705.291-1.094.007-.618-.45-1.258-.95-2.01-1.574l-2.272-1.879-.202 3.3c-.015.256-.029.512-.049.766-.044.59-.52.679-.8.679-.223 0-.433-.071-.535-.182-.027-.03-.112-.121-.092-.402l.312-4.597-2.798 2.673c-.115.11-.233.216-.349.325 1.861 1.343 3.131 3.152 3.665 5.171 1.266-.066 2.552-.734 3.189-1.983.059.043.118.087.177.129.705.514 1.551.797 2.38.797 1.073 0 2.053-.455 2.76-1.28.659-.772.979-1.86.855-2.912-.017-.14-.041-.276-.071-.41.916 1.298 2.721 1.797 4.067 1.426 1.752-.482 2.79-2.057 2.671-3.982 1.511-.013 2.885-1.056 3.424-2.604.361-1.037.269-2.096-.225-2.987.069-.025.139-.05.208-.075 1.963-.709 3.01-2.612 2.48-4.527-.432-1.567-1.965-2.75-3.567-2.75-.38 0-.752.065-1.107.193-1.589.574-3.299 1.07-5.21 1.51-1.377-.945-3.052-2.142-5.01-3.554 1.763-1.272 3.561-2.558 5.01-3.553 1.905.439 3.615.935 5.208 1.511m-9.24 17.409c-1.368-.996-2.737-2.134-4.171-3.469.001-1.406.048-3.098.102-4.983 1.314.951 2.577 1.852 3.645 2.583.501 2.282.887 4.413 1.179 6.496.009.064.02.126.032.188-.213-.314-.477-.59-.787-.815"/><path d="m69.75 62.998c-.638 0-1.263.108-1.858.323-2.694.973-5.587 1.811-8.812 2.554-2.449-1.681-5.44-3.822-8.503-6.03 3.062-2.209 6.05-4.351 8.503-6.03 3.225.743 6.117 1.581 8.812 2.554.596.215 1.221.323 1.858.323 1.899 0 3.728-1 4.901-2.51.803-1.938.699-3.839-.09-5.482-.598-1.244-1.586-2.336-2.871-3.182-.266-.174-.538-.341-.827-.493-.128-.068-.225-.15-.3-.241-.209-.251-.231-.571-.132-.862.019-.088.027-.175.073-.265.649-1.292.811-2.501.601-3.568-.263-1.332-1.111-2.437-2.37-3.178-.749-.441-1.64-.754-2.633-.91-.135-.021-.247-.062-.341-.117-.281-.165-.388-.462-.368-.769-.008-.068-.031-.126-.025-.203.04-.519.035-1.027-.006-1.526-.089-1.076-.37-2.1-.862-3.054-.044-.086-.093-.17-.14-.254-.026-.006-.052-.011-.078-.017-.754-.874-1.75-1.535-2.965-1.87-.496-.136-1.021-.205-1.563-.205-2.657 0-5.721 1.708-6.163 4.874-.491 3.505-1.144 7.104-1.991 10.976-1.669 1.143-3.618 2.53-5.599 3.959.04-4 .005-7.171-.107-9.703 1.825-1.696 3.872-3.565 5.949-5.31 2.708-2.273 3.309-5.767 1.462-8.496-1.139-1.681-3.225-2.767-5.314-2.767-1.339 0-2.563.435-3.542 1.256-.112.095-.225.189-.337.284-1.262-1.652-3.3-2.519-5.233-2.519-1.701 0-3.306.648-4.401 1.778-.213.219-.404.452-.574.697-1-.737-2.137-1.123-3.331-1.123-2.413 0-4.706 1.637-5.705 4.074-.994 2.423-.45 5.072 1.418 6.914 2.29 2.258 4.727 4.645 7.27 6.985.093 2.043.122 4.643.088 7.858-3.64-2.529-6.52-4.44-8.838-5.863-.382-2.468-.783-5.214-1.062-7.905-.365-3.516-2.921-5.971-6.216-5.971-1.741 0-3.513.811-4.737 2.169-1.114 1.236-1.64 2.769-1.479 4.317.015.146.03.293.046.439-2.673.146-5.118 2.106-5.891 4.769-.37 1.275-.31 2.537.131 3.662-2.536.901-4.01 3.219-3.731 6.03.286 2.88 2.595 5.942 6.312 5.942.436 0 .879-.044 1.321-.133 3.167-.634 6.52-1.316 9.859-2.105 2.969 1.82 6.749 4.439 10.03 6.771-3.282 2.333-7.06 4.951-10.03 6.771-3.342-.789-6.693-1.471-9.86-2.104-.441-.089-.885-.133-1.32-.133-3.718 0-6.03 3.062-6.312 5.942-.278 2.808 1.195 5.126 3.731 6.03-.44 1.125-.5 2.387-.131 3.662.772 2.662 3.218 4.623 5.891 4.769-.016.146-.031.293-.046.439-.161 1.549.364 3.082 1.479 4.317 1.226 1.358 2.996 2.17 4.737 2.17 3.295 0 5.851-2.455 6.216-5.972.281-2.702.67-5.368 1.062-7.903 2.158-1.325 4.801-3.071 8.096-5.35-.074 2.474-.131 4.84-.142 6.855-2.728 2.869-5.343 5.428-7.973 7.801-1.141 1.029-1.757 2.508-1.735 4.163.024 1.854.868 3.714 2.2 4.853 2.278 1.948 5.554 1.904 8.08-.058.154.229.327.446.517.651 1.13 1.218 2.804 1.916 4.593 1.916 2.243 0 4.593-1.153 5.715-3.384.11.081.219.161.328.241 1.186.862 2.605 1.338 3.998 1.338 1.802 0 3.447-.763 4.633-2.148 1.107-1.296 1.645-3.125 1.438-4.892-.035-.293-.089-.578-.16-.854 1.501 2.283 4.615 3.174 6.928 2.536 2.949-.811 4.694-3.47 4.481-6.722 2.551-.007 4.874-1.763 5.783-4.374.61-1.754.447-3.545-.396-5.05.13-.046.258-.092.386-.138 3.298-1.189 5.05-4.387 4.167-7.603-.728-2.627-3.303-4.611-5.992-4.611m-17.48 22.805c-2.314-1.685-4.63-3.609-7.05-5.865.016-2.389.082-5.27.173-8.484 2.237 1.618 4.389 3.154 6.211 4.401.848 3.871 1.5 7.471 1.991 10.976.022.165.053.325.09.482-.37-.586-.845-1.097-1.411-1.51m17.604-15.289c-1.21.437-2.553.87-4.106 1.324l-4.729 1.384 4.284 3.286c.378.289.756.577 1.127.87.191.151.698.554.411 1.38-.192.553-.686 1.019-1.076 1.019-.212 0-.44-.146-.595-.268-.198-.158-.4-.312-.602-.466l-5.459-4.249 1.073 6.342c.209 1.235.406 2.471.581 3.71.144 1.031-.123 1.647-.791 1.831-.036.011-.115.027-.237.027-.643 0-1.189-.403-1.213-.567-.546-3.904-1.285-7.915-2.259-12.257l-.305-1.101-.759-.51c-2.875-1.935-6.87-4.836-10.715-7.643l-3.826-2.793-.146 4.735c-.182 5.92-.321 10.742-.319 14.446v1.072l.776.738c2.869 2.729 5.596 5.02 8.336 7.02.189.138.243.434.258.555.045.383-.067.818-.271 1.058-.473.549-1.222.504-1.889.018-1.046-.761-2.126-1.605-3.397-2.658l-3.791-3.135-.331 5.469c-.026.445-.052.892-.085 1.336-.079 1.06-.992 1.174-1.381 1.174-.385 0-.748-.125-.927-.316-.05-.054-.199-.215-.162-.703.02-.256.034-.512.049-.768l.461-6.895-4.652 4.439c-.905.865-1.818 1.722-2.749 2.562-.446.403-.94.644-1.32.644-.148 0-.355-.031-.64-.273-.211-.181-.442-.659-.448-1.118-.003-.199.04-.344.085-.384 2.944-2.658 5.865-5.533 8.89-8.749l.735-.735-.003-1.04c-.001-3.38.146-8.115.306-12.676l.178-5.05-4.12 2.917c-5.804 4.108-9.897 6.848-12.884 8.622l-1.01.601-.183 1.161c-.441 2.81-.94 6.078-1.275 9.312-.047.447-.261 1.487-1.243 1.487-.27 0-.721-.182-1.023-.518-.057-.062-.237-.278-.22-.454.143-1.37.313-2.736.494-4.102l.697-5.275-5.097 3.197c-.248.157-.479.233-.703.233-.639 0-1.242-.605-1.406-1.17-.099-.341-.062-.583.418-.887l6.49-4.048-6.119-1.26c-1.18-.243-2.36-.483-3.542-.72-.409-.082-.742-.206-.675-.891.067-.673.638-1.604 1.676-1.399 3.434.688 7.085 1.432 10.664 2.302l.987.239.875-.517c3.164-1.869 7.513-4.818 14.1-9.564l2.816-2.028-2.816-2.028c-6.587-4.745-10.936-7.695-14.1-9.565l-.875-.517-.987.24c-3.578.87-7.229 1.614-10.663 2.301-1.04.21-1.608-.726-1.677-1.399-.067-.685.266-.808.675-.89 1.182-.236 2.362-.477 3.542-.72l6.112-1.259-6.482-4.049c-.48-.304-.519-.546-.419-.887.163-.565.768-1.17 1.406-1.17.225 0 .455.077.702.233l5.098 3.198-.697-5.275c-.181-1.365-.352-2.732-.494-4.102-.018-.175.163-.391.219-.453.304-.336.754-.518 1.024-.518.982 0 1.196 1.04 1.243 1.487.336 3.235.834 6.503 1.275 9.312l.183 1.161 1.01.6c3.07 1.825 7.32 4.675 13.374 8.97l3.833 2.72.112-4.699c.152-6.347.132-10.789-.064-13.979l-.062-1.014-.752-.683c-2.749-2.497-5.401-5.094-7.883-7.541-.158-.156-.64-.631-.302-1.457.238-.58.75-.97 1.079-.97.197 0 .412.171.557.313.858.847 1.72 1.69 2.582 2.531l4.463 4.348-.245-6.853c-.011-.258-.021-.515-.029-.777-.001-.311.047-.532.167-.656.155-.16.467-.259.812-.259.24 0 1.44.062 1.478 1.292l.209 6.02 3.978-3.535c1.029-.915 2.065-1.821 3.122-2.708.083-.07.224-.085.326-.085.472 0 .987.295 1.174.57.551.813-.191 1.573-.536 1.863-2.499 2.099-4.922 4.34-6.997 6.276l-.858.802.068 1.173c.205 3.47.23 8.396.081 15.502l-.106 5.05 4.079-2.977c3.508-2.56 7.488-5.45 10.326-7.359l.734-.494.26-.846.069-.274c.504-2.249.942-4.406 1.327-6.508.357-1.955.668-3.863.931-5.745.006-.044.055-.105.128-.171.199-.18.614-.396 1.084-.396.123 0 .201.016.237.026.395.109.631.385.744.79.079.282.106.617.048 1.039-.092.65-.202 1.297-.305 1.945-.058.365-.11.731-.171 1.096-.037.224-.067.449-.105.672l-.405 2.391-.669 3.951 1.949-1.517 2.531-1.969.975-.758c.188-.144.376-.288.561-.434.016-.012.031-.023.046-.035.154-.123.383-.268.595-.268.391 0 .884.466 1.076 1.019.287.826-.22 1.228-.41 1.378-.366.29-.735.572-1.104.854l-2.326 1.786-1.979 1.52 4.729 1.381c1.577.461 2.882.882 4.105 1.324.225.081 1.328.537 1.044 1.573-.146.528-.896 1.072-1.329.917-3.189-1.151-6.619-2.123-10.484-2.969l-1.047-.229-.889.6c-3.362 2.273-7.919 5.567-12.325 8.753l-2.802 2.026 2.802 2.026c4.406 3.186 8.962 6.479 12.325 8.753l.889.601 1.047-.229c3.865-.847 7.295-1.818 10.484-2.97.438-.158 1.184.388 1.328.915.28 1.039-.823 1.495-1.048 1.576"/></g></svg>