<svg xmlns="http://www.w3.org/2000/svg" viewBox="0 0 100 100" enable-background="new 0 0 100 100"><g fill="#1d1d1b"><path d="m67.864 9.505c-23.481-8.758-50.921 3.644-60.12 26.559-2.223 5.541-3.796 12.181-3.926 18.18-.491 22.538 19.13 38 40.27 38.926 19.475.852 40.467-10.11 49-27.932 10.596-22.13-3.43-47.599-25.22-55.729m-2.02 6.07c3.498 1.208 6.84 2.91 9.936 5.157-.173.157-.345.315-.521.468-.084.072-.169.143-.253.214-3.247-.271-6.495-.541-9.742-.812.192-1.675.385-3.351.58-5.03m-26.762-.251c-.536 1.411-1.023 2.837-1.436 4.29-2.442-.086-4.848-.33-7.234-.739 2.725-1.579 5.636-2.785 8.67-3.551m-26.761 50.53c-.681-1.699-1.246-3.482-1.649-5.37-1.385-6.49-.659-13.293 1.635-19.623 2.754 2.251 5.621 4.36 8.497 6.455.211 3.266.247 6.536.25 9.809-2.788 3.03-5.7 5.943-8.733 8.729m37.643 20.852c-3.326.315-6.656.24-9.899-.227-.606-4.267-1.151-8.532-1.242-12.844 3.247-2.545 6.709-4.763 10.399-6.605 2.461 2.165 4.964 4.276 7.591 6.237-1.899 4.497-4.109 8.841-6.646 13.02-.086.142-.145.282-.203.423m40.26-34.581c-.295 4.696-1.704 8.979-3.9 12.817-1.243-1.639-2.559-3.215-3.964-4.718 1.019-3.194 1.667-6.454 2.06-9.78 1.904-1.054 3.816-2.1 5.779-3.041.106 1.572.124 3.149.025 4.722m-9.292-5.84c-.599.333-.964.784-1.152 1.278-.272.373-.467.825-.521 1.376-.368 3.77-1.135 7.428-2.389 11.01-.218.62-.203 1.171-.034 1.637.093.45.312.898.719 1.308 1.917 1.934 3.672 3.995 5.263 6.205.11.153.232.295.362.426-6.509 8.01-16.598 13.51-26.422 15.99 2.155-3.905 4.04-7.937 5.726-12.08.472-1.164.079-2.081-.667-2.629-.189-.402-.476-.779-.911-1.087-3.319-2.354-6.361-5.05-9.399-7.747-1.033-.918-2.26-.844-3.192-.29-.244.043-.491.109-.743.228-4.818 2.277-9.179 5.235-13.316 8.58-.911.736-1.059 1.654-.768 2.463-.0001.045-.012.083-.011.129.047 4.097.527 8.157 1.085 12.209-8.15-2.373-15.304-7.328-19.787-14.56.181-.102.359-.225.53-.381 3.601-3.26 7.03-6.692 10.293-10.293.554-.611.75-1.294.705-1.944.046-.201.074-.415.074-.649-.0001-3.91-.027-7.814-.355-11.713-.096-1.142-.767-1.894-1.598-2.271-.126-.135-.267-.264-.43-.383-3.225-2.346-6.422-4.718-9.459-7.299 2.505-4.833 5.945-9.203 10.02-12.727 4.725 1.205 9.535 1.866 14.422 1.916.223.002.43-.021.625-.061 3.654-.755 3.98-6.846 5.223-9.776.098-.231.165-.467.218-.703.225-.001.448-.034.674-.039 1.015-.023 1.777-.435 2.286-1.037 4.277-.293 8.547-.044 12.678.804-.31 2.717-.636 5.432-.94 8.15-.038.34.022.666.144.968.18 1.173 1.021 2.279 2.518 2.404 4.259.355 8.518.71 12.777 1.065.152.013.289.002.428-.007.57.089 1.152.003 1.625-.357.912-.693 1.766-1.437 2.6-2.204 4.855 4.837 8.13 11.1 9.591 17.767-2.901 1.305-5.704 2.783-8.492 4.331"/><path d="m65.34 37.06c-1.198-1.862-2.184-3.797-3.246-5.734-2.467-4.501-5.455-4.224-10.166-4.223-1.949 0-3.902-.358-5.852-.23-4.374.286-5.263 3.617-5.55 7.28-.21 2.681-.617 5.378-1.127 8.02-.032.167-.038.324-.045.481-.297.872-.146 1.864.78 2.683 3.454 3.052 7.04 5.94 10.679 8.772.162.127.332.239.506.339 1.026.896 2.617 1.202 3.921.042 2.713-2.414 5.578-4.649 8.438-6.884 1.776-1.388 4.374-2.73 4.334-5.217-.003-.16-.016-.326-.042-.496-.263-1.752-1.704-3.392-2.63-4.831m-12.148 11.674c-2.713-2.144-5.396-4.325-8.01-6.593.53-3.088.891-6.199 1.192-9.318h10.05c1.614 3.127 3.381 6.168 5.185 9.189-2.825 2.222-5.674 4.409-8.423 6.722"/></g></svg>