<svg xmlns="http://www.w3.org/2000/svg" viewBox="0 0 100 100" enable-background="new 0 0 100 100"><path fill="#1d1d1b" d="m81.4 20.11c-.176-.047-.362-.081-.571-.08-8.67.007-17.339.107-26.01.214v-15.514c0-.097-.017-.183-.027-.274-.035-1.166-1.035-2.44-2.555-2.203-3.73.583-7.324 1.859-10.431 4.03-2.14 1.495-.104 5.03 2.059 3.523 2.123-1.483 4.426-2.464 6.875-3.091v13.575c-9.689.121-19.378.241-29.07.249-1.136.0001-1.778.762-1.934 1.626-.121.116-.236.246-.338.404-1.052 1.631-1.869 3.65-1.221 5.593.69 2.07 2.737 3.086 4.735 3.523.321.07.619.07.89.015.094.021.196.031.297.041 2.058 16.15 4.563 43.46 7.588 59.46.16.848.693 1.293 1.317 1.426.179.107.376.199.617.254 12.368 2.818 25.09 3.348 37.547.765 1.039-.215 1.473-.984 1.462-1.79.157-.265.265-.575.291-.942 1.119-16.289 4.526-43.493 6.812-59.63.018-.13.019-.253.016-.375.613-.059 1.228-.104 1.841-.167 1.159-.12 1.8-1 1.925-1.919 1.085-2.566 1.18-5.364-.418-7.78-.44-.664-1.073-.933-1.701-.929m-12.471 69.825c-11.11 2.116-22.461 1.596-33.487-.829-.879-4.686-1.708-20.599-2.498-25.299 5.815 1.804 11.316 1.172 17.213-1.266 7.134-2.949 13.467-7.02 21.479-6.074-1.146 7.384-2.154 26.01-2.707 33.468m3.335-37.439c-.115-.034-.231-.067-.359-.084-14.14-1.869-25.585 12.882-39.513 6.908-.068-.029-.135-.042-.202-.064-.372-2.291-.736-4.583-1.089-6.877 12.63 9.575 27.04-9.384 41.28-5.394.274.077.528.091.766.069-.298 1.813-.593 3.628-.885 5.442m1.521-9.321c-.101-.045-.202-.091-.318-.124-7.215-2.02-13.923.634-20.44 3.643-7.871 3.634-15.659 7.664-22.262-.314-.2-.241-.417-.408-.641-.52-.677-4.648-1.326-9.3-1.921-13.96 15.82.556 31.658.656 47.44-.62-.574 3.971-1.209 7.934-1.856 11.895m6.179-16.369c-18.532 1.806-37.15 1.608-55.741.873-.147-.006-.283.006-.413.024-.494-.113-.969-.241-1.416-.489-.321-.179-.112-.054-.348-.296.133.137.024-.099-.011-.133-.066-.48.434-1.452.889-2.157.003-.006.005-.011.008-.017 19.05-.034 38.09-.471 57.14-.499.292.873.236 1.781-.111 2.694"/></svg>