<svg xmlns="http://www.w3.org/2000/svg" viewBox="0 0 100 100" enable-background="new 0 0 100 100"><path d="m57.784 11.397c-.296-.207-.589-.326-.874-.389-.65-.439-1.493-.509-2.35.142-9.637 7.316-20.04 13.49-30.16 20.11-6.205.003-12.403.05-18.595.491-.038.003-.071.012-.108.016-.26-.016-.525-.002-.793.072-1.264.348-2.116 1.747-1.72 3.03.301.978.377 1.948.397 2.958-.428 7.669-.219 15.322.254 22.985.114 1.85 1.852 2.613 3.234 2.295 5.435.575 10.857.591 16.307.205 10.551 6.467 19.825 14.708 29.948 21.791.777.544 1.538.539 2.159.227.368-.099.733-.288 1.072-.612 1.471-1.41 2.859-2.914 4.179-4.482.628-.286.989-.787 1.125-1.36 15.986-20.19 19.2-51.21-4.08-67.47m-31.912 47.662c-.332-.402-.824-.669-1.473-.705-.287-.05-.561-.04-.822.019-4.999.364-9.972.392-14.954-.04-.338-6.278-.453-12.551-.177-18.833.044-.19.072-.391.072-.611 0-.312-.006-.625-.011-.938.005-.098.006-.195.011-.293.013-.233-.006-.444-.046-.641-.008-.164-.016-.327-.027-.491 5.52-.3 11.04-.346 16.573-.346.485 0 .887-.125 1.223-.319.169-.065.34-.151.512-.263 8.594-5.627 17.395-10.937 25.765-16.889-6.761 5.688-8.535 19.642-8.953 27.23-.395 7.17-.147 14.968 2.077 21.859.725 2.246 1.318 4.806 2.19 7.158-7.19-5.483-14.236-11.16-21.96-15.894m22.576-12.12c.052-1.63.178-4.02.478-6.698 6.911 3.946 7.696 13.266-.34 16.425-.248-3.246-.24-6.523-.138-9.727m9.86 28.423c-.606.044-1.085.271-1.437.612-2.917.271-3.763-.764-4.712-4.259-.712-2.621-1.825-5.09-2.467-7.73-.187-.768-.344-1.545-.485-2.325 13.937-4.538 12.449-20.768.477-26.471 1.509-7.802 4.815-15.606 12.08-13.688 13.05 15.15 8.664 38.18-3.454 53.861"/><path d="m83.42 21.633c7.957 17.633 5.741 37.37-5.4 53.08-2.02 2.848 2.666 5.541 4.663 2.726 12.325-17.377 14.13-39.19 5.4-58.53-1.431-3.169-6.084-.421-4.663 2.726"/><path d="m78.42 23.992c-1.181-2.617-5.02-.348-3.85 2.25 6.569 14.557 4.74 30.852-4.458 43.82-1.667 2.351 2.201 4.574 3.85 2.25 10.176-14.346 11.663-32.354 4.458-48.32"/></svg>