<svg xmlns="http://www.w3.org/2000/svg" viewBox="0 0 100 100" enable-background="new 0 0 100 100"><path d="m63.53 9.126c-.315-.22-.626-.346-.928-.413-.69-.466-1.585-.54-2.496.151-10.234 7.769-21.281 14.325-32.02 21.35-6.588.004-13.17.053-19.745.521-.04.003-.075.013-.114.017-.276-.017-.558-.002-.842.076-1.342.369-2.246 1.855-1.826 3.217.32 1.038.401 2.069.421 3.141-.455 8.144-.233 16.27.27 24.407.121 1.964 1.967 2.774 3.434 2.437 5.771.61 11.528.628 17.316.218 11.202 6.867 21.05 15.619 31.799 23.14.825.577 1.633.572 2.292.241.391-.105.779-.305 1.138-.65 1.562-1.497 3.036-3.094 4.437-4.759.667-.304 1.05-.836 1.195-1.444 16.977-21.442 20.393-54.38-4.33-71.65m-33.887 50.61c-.352-.427-.875-.71-1.564-.749-.304-.053-.596-.042-.873.02-5.308.386-10.589.416-15.879-.042-.359-6.665-.481-13.326-.187-19.997.047-.201.076-.415.076-.648 0-.331-.006-.664-.012-.996.006-.104.006-.208.012-.311.014-.247-.007-.471-.049-.68-.008-.174-.017-.347-.029-.521 5.861-.319 11.727-.367 17.599-.368.515 0 .941-.133 1.299-.339.18-.069.361-.16.544-.279 9.126-5.975 18.471-11.613 27.359-17.934-7.179 6.04-9.06 20.857-9.507 28.912-.42 7.614-.156 15.894 2.206 23.21.77 2.385 1.399 5.103 2.325 7.6-7.636-5.823-15.12-11.851-23.32-16.879m23.973-12.874c.055-1.731.189-4.272.507-7.113 7.339 4.19 8.173 14.09-.361 17.441-.263-3.445-.255-6.925-.146-10.328m10.47 30.18c-.644.046-1.152.288-1.526.65-3.097.288-3.995-.812-5-4.522-.756-2.783-1.938-5.405-2.62-8.209-.198-.816-.365-1.64-.515-2.469 14.8-4.819 13.219-22.05.507-28.11 1.603-8.285 5.113-16.571 12.826-14.535 13.862 16.08 9.198 40.546-3.669 57.19"/><path d="m82.17 23.595c7.367 16.326 5.315 34.599-5 49.14-1.87 2.636 2.469 5.13 4.317 2.524 11.412-16.09 13.08-36.28 5-54.19-1.325-2.935-5.632-.391-4.317 2.523"/></svg>