<svg xmlns="http://www.w3.org/2000/svg" viewBox="0 0 100 100" enable-background="new 0 0 100 100"><path d="m72.64 4.55c-.351-.245-.699-.387-1.037-.461-.771-.521-1.771-.604-2.789.169-11.435 8.681-23.78 16.01-35.78 23.856-7.362.004-14.716.06-22.06.582-.045.003-.084.014-.128.019-.308-.019-.623-.002-.941.085-1.5.412-2.51 2.073-2.041 3.595.358 1.16.448 2.312.471 3.51-.508 9.1-.26 18.18.301 27.27.136 2.195 2.198 3.1 3.837 2.723 6.449.682 12.882.702 19.349.243 12.519 7.673 23.523 17.452 35.535 25.856.922.645 1.825.64 2.562.269.437-.118.87-.341 1.272-.726 1.745-1.673 3.393-3.458 4.958-5.318.745-.339 1.174-.934 1.335-1.614 18.967-23.958 22.785-60.765-4.841-80.06m-37.865 56.55c-.394-.477-.977-.793-1.747-.837-.34-.059-.666-.047-.976.022-5.931.431-11.833.465-17.744-.047-.401-7.448-.537-14.891-.209-22.344.052-.225.086-.464.085-.725 0-.37-.007-.742-.014-1.113.006-.116.007-.232.014-.348.016-.276-.007-.527-.054-.76-.009-.194-.019-.388-.032-.582 6.549-.356 13.1-.41 19.665-.411.575 0 1.052-.148 1.452-.379.201-.077.403-.179.608-.312 10.197-6.676 20.64-12.977 30.571-20.04-8.02 6.749-10.127 23.306-10.623 32.31-.469 8.508-.174 17.76 2.465 25.936.86 2.665 1.563 5.703 2.598 8.493-8.534-6.507-16.894-13.242-26.06-18.86m26.787-14.385c.062-1.934.211-4.774.567-7.948 8.201 4.682 9.132 15.741-.403 19.489-.295-3.851-.285-7.74-.164-11.541m11.7 33.724c-.719.052-1.287.321-1.705.726-3.461.322-4.465-.907-5.591-5.05-.845-3.11-2.165-6.04-2.927-9.172-.222-.912-.408-1.833-.575-2.759 16.537-5.385 14.771-24.642.566-31.409 1.791-9.257 5.713-18.517 14.331-16.241 15.489 17.972 10.278 45.31-4.099 63.908"/></svg>