<svg xmlns="http://www.w3.org/2000/svg" viewBox="0 0 100 100" enable-background="new 0 0 100 100"><path d="m52.942 14.586c-.27-.189-.538-.298-.798-.355-.593-.401-1.363-.465-2.146.13-8.8 6.681-18.3 12.318-27.535 18.359-5.666.003-11.325.046-16.979.448-.034.002-.065.011-.098.015-.237-.015-.479-.002-.724.066-1.154.317-1.932 1.595-1.571 2.766.275.893.344 1.779.362 2.701-.391 7-.2 13.991.232 20.988.104 1.689 1.691 2.386 2.953 2.095 4.963.525 9.913.54 14.89.187 9.634 5.905 18.1 13.431 27.346 19.898.71.497 1.404.492 1.971.207.336-.091.669-.263.979-.559 1.343-1.288 2.611-2.661 3.816-4.093.573-.261.903-.719 1.027-1.242 14.597-18.437 17.535-46.762-3.725-61.61m-29.14 43.521c-.303-.367-.752-.611-1.345-.644-.262-.046-.513-.036-.751.017-4.564.332-9.106.358-13.655-.037-.309-5.732-.413-11.459-.161-17.195.04-.173.066-.357.066-.558 0-.285-.006-.571-.001-.857.005-.089.005-.178.001-.268.012-.213-.006-.405-.042-.585-.007-.149-.014-.299-.025-.448 5.04-.274 10.08-.315 15.13-.316.443 0 .81-.114 1.117-.292.154-.059.31-.137.468-.24 7.847-5.138 15.884-9.987 23.527-15.422-6.173 5.194-7.793 17.936-8.175 24.862-.361 6.548-.134 13.668 1.897 19.96.662 2.051 1.203 4.389 1.999 6.536-6.566-5.01-13-10.19-20.05-14.513m20.615-11.07c.048-1.489.162-3.674.436-6.116 6.311 3.603 7.03 12.11-.31 14.998-.227-2.963-.219-5.956-.126-8.882m9 25.954c-.554.04-.991.247-1.312.559-2.664.248-3.436-.698-4.302-3.889-.65-2.393-1.666-4.648-2.253-7.06-.171-.702-.314-1.41-.443-2.123 12.727-4.144 11.367-18.964.436-24.17 1.378-7.124 4.397-14.25 11.03-12.499 11.92 13.831 7.91 34.866-3.155 49.18"/><path d="m80.61 21.444c-1.306-2.895-5.555-.385-4.258 2.489 7.266 16.1 5.242 34.12-4.931 48.46-1.844 2.6 2.435 5.059 4.258 2.489 11.254-15.867 12.9-35.784 4.931-53.44"/><path d="m84.932 18.677c8.848 19.607 6.384 41.553-6 59.02-2.246 3.166 2.965 6.161 5.185 3.03 13.705-19.323 15.709-43.577 6-65.08-1.591-3.524-6.764-.469-5.185 3.03"/><path d="m71.784 26.09c-1.078-2.39-4.586-.318-3.515 2.055 5.999 13.293 4.328 28.17-4.071 40.01-1.523 2.147 2.01 4.177 3.515 2.055 9.292-13.1 10.65-29.544 4.071-44.12"/></svg>