<svg xmlns="http://www.w3.org/2000/svg" viewBox="0 0 100 100" enable-background="new 0 0 100 100"><path d="m49.22 75.12c1.688.6 3.216.543 4.705-.497 3.054-2.133 5.285-6.582 6.921-9.813 4.768-9.418 6.598-21.07 8.436-31.391.633-3.556.545-8.565 2.198-11.848.438-.869.204-1.69-.354-2.265-.967-1.104-3.037-1.23-3.838.28-3.502 6.6-8.777 12.539-12.728 18.916-4.056 6.545-7.623 13.455-9.803 20.863-.86 2.921-3.138 8.481-2.083 11.547.504 1.467 5.097 3.693 6.546 4.208m-.228-14.205c1.019-3.569 2.429-7.05 4.04-10.386 1.632-3.383 3.501-6.667 5.487-9.853.997-1.6 2.02-3.187 3.068-4.754.777-1.161 2.848-3.164 3.079-4.516-1.018 5.963-1.839 11.991-3.288 17.83-1.57 6.328-3.053 15.698-8.434 20.06-1.378 1.117-4.351 1.443-5.446-.185-.04-.06-.078-.122-.113-.187-1.147-2.135 1.013-5.927 1.607-8.01"/><path d="m7.485 75.75c4.576.011 9.148.156 13.721.308 2.984.1 2.975-4.526 0-4.625-4.573-.152-9.145-.297-13.721-.308-2.983-.007-2.982 4.618 0 4.625"/><path d="m8.01 52.31c4.241 2.106 8.555 4.061 12.796 6.167 2.662 1.322 5.01-2.667 2.334-3.994-4.241-2.106-8.555-4.061-12.796-6.167-2.662-1.321-5.01 2.668-2.334 3.994"/><path d="m27.28 39.457c2 2.219 5.263-1.063 3.271-3.271-2.729-3.02-5.524-5.985-8.325-8.942-2.055-2.169-5.32 1.107-3.271 3.271 2.801 2.956 5.597 5.918 8.325 8.942"/><path d="m51.12 32.888c-.311-5.137-.608-10.273-.771-15.417-.094-2.975-4.72-2.984-4.625 0 .163 5.144.46 10.281.771 15.417.179 2.963 4.805 2.98 4.625 0"/><path d="m76.5 42.23c2.337-2.492 4.68-4.98 7.092-7.4 2.107-2.114-1.163-5.385-3.271-3.271-2.412 2.42-4.755 4.908-7.092 7.4-2.037 2.173 1.227 5.451 3.271 3.271"/><path d="m79.33 59.56c4.727.141 9.455.154 14.184.154 2.983 0 2.983-4.625 0-4.625-4.729 0-9.457-.013-14.184-.154-2.985-.089-2.976 4.536 0 4.625"/><path d="m92.28 76.06c-4.873-.18-9.628-.803-14.34-2.076-2.884-.779-4.106 3.683-1.229 4.46 5.099 1.378 10.297 2.046 15.57 2.241 2.983.11 2.972-4.515-.0001-4.625"/><path d="m51.667 67.17c3.224 0 3.224-5 0-5-3.225 0-3.225 5 0 5"/></svg>