<svg xmlns="http://www.w3.org/2000/svg" viewBox="0 0 100 100" enable-background="new 0 0 100 100"><path d="m89.81 17.293l-.003-.595c-.003-.332-.042-.66-.117-.996-.267-2.291-2.06-4.02-4.352-4.157-1.945-.115-12.188-.223-25.16-.359-17.383-.184-41.19-.435-43.869-.756-.833-.102-1.557.001-2.244.3-2.01.62-3.178 2.428-2.934 4.58.495 4.363.803 62.888.552 67.909-.05.98.187 1.899.686 2.671.77 1.388 2.173 2.263 3.791 2.351 4.955.27 66.956.285 69.59.286h.0001c1.179 0 2.255-.412 3.074-1.168 1.567-1.058 2.342-2.885 1.986-4.758-.422-2.268-.818-27.903-1.01-65.31m-69.14 2.675c5.746.139 19.22.256 36.645.396 9.732.079 19.04.153 23.324.221.015 1.859.033 4.64.056 7.975.173 25.809.335 43.869.561 50.729l-1.483-.002c-32.395-.033-52.1-.081-58.788-.142.029-10.438-.086-48.22-.315-59.18" fill="#1d1d1b"/></svg>