<svg xmlns="http://www.w3.org/2000/svg" viewBox="0 0 100 100" enable-background="new 0 0 100 100"><g fill="#1d1d1b"><path d="m87.81 83.24c-3.597-23.453-6.854-46.955-8.919-70.6.144-.527.067-1.034-.164-1.477-.347-1.831-2.277-2.1-3.662-1.28-.379.166-.739.419-1.047.802-20.98 26.1-46 48.5-68.31 73.41-.883.986-.866 2.192-.391 3.139-.112 1.34.651 2.693 2.382 2.659 26.07-.512 52.27 2.125 78.07-2.875 1.489-.289 2.079-1.478 1.984-2.644.091-.344.115-.725.052-1.141m-75.5 1.362c20.322-22.277 42.539-42.786 61.906-65.923.353 3.745.744 7.486 1.15 11.225-1 .015-2 .091-2.995.3-3.31.699-2.19 5.83 1.127 5.129.826-.174 1.616-.207 2.446-.192.371 3.225.769 6.446 1.171 9.667-.899.207-1.8.413-2.7.62-3.294.756-2.18 5.888 1.127 5.129.748-.172 1.495-.343 2.242-.515.339 2.608.712 5.212 1.067 7.819-.996.186-1.976.443-2.944.789-1.346.482-2.337 1.595-2 3.128.277 1.263 1.778 2.485 3.128 2 .833-.298 1.674-.534 2.528-.713.398 2.837.83 5.67 1.241 8.506-1.01.174-2 .412-2.99.761-1.348.477-2.335 1.599-2 3.128.277 1.267 1.776 2.479 3.128 2 .846-.299 1.726-.544 2.616-.724.274 1.852.528 3.706.811 5.557-23.17 4.08-46.657 2.141-70.06 2.307"/><path d="m68.14 39.4c.065-.383.018-.768-.14-1.129-.237-.924-1.025-1.536-2-1.536-.428 0-.855.114-1.24.331-.332.155-.617.379-.848.667-6.247 7.772-13.348 15.02-20.21 22.04-4.656 4.755-9.471 9.673-13.992 14.723-.608.68-.773 1.592-.455 2.437.015.559.217 1.083.573 1.469.396.43.961.667 1.643.667.0001 0 .0001 0 .002 0 3.805-.076 7.616-.016 11.426.044 2.546.04 5.092.08 7.635.08.0001 0 .002 0 .002 0 5.972 0 13.05-.188 20.244-1.583 1.101-.213 1.825-1.115 1.81-2.222.048-.263.052-.535.009-.808-1.485-9.682-3.331-22.418-4.451-35.18m-.404 34.03c-6.228 1-12.455 1.138-17.251 1.138-2.527 0-5.058-.041-7.588-.082-2.287-.037-4.575-.074-6.861-.081 3.605-3.888 7.351-7.72 10.987-11.441 5.697-5.828 11.57-11.838 16.996-18.15.836 8.313 2 17.29 3.717 28.618"/></g></svg>