<svg xmlns="http://www.w3.org/2000/svg" viewBox="0 0 100 100" enable-background="new 0 0 100 100"><path d="m73.24 64.856c-.443-.487-1.062-.753-1.762-.753h-14.806l-.196-.493c-1.685-4.231-3.424-8.598-4.879-12.992 6.307-2.472 12.09-6.337 17.646-11.792.281-.275.493-.592.63-.943.25-.41.376-.876.376-1.387-.0001-10.362-.082-19.715-1.061-29.24-.009-.088-.025-.17-.049-.273-.11-1.088-.843-1.936-1.933-2.222-4.02-1.058-8.483-1.571-13.634-1.571-4.614 0-9.303.402-13.837.792-3.163.271-6.433.553-9.598.687-1.416.061-2.459 1.089-2.573 2.517-.045.193-.069.383-.073.575-.171 8.895.203 17.793.635 26.886.009.195.041.389.095.589.026.59.241 1.146.625 1.614 4.805 5.877 11.243 9.867 17.05 13.355-1.955 4.229-4.03 9.142-5.326 14.323-2.373-.022-4.772-.079-7.101-.133-2.83-.065-5.755-.134-8.647-.143-1.197 0-2.142.793-2.352 1.972-.201 1.129.335 2.22 1.29 2.682 4.236 3.872 8.276 7.03 12.323 9.626-1.43 4.808-3.03 9.746-4.758 14.692-.231.662-.182 1.335.14 1.895.313.543.857.94 1.51 1.109.723.359 1.585.282 2.292-.224 2.825-2.02 5.751-4 8.581-5.92 1.486-1.01 2.973-2.02 4.453-3.03.9.665 1.797 1.334 2.694 2 3.431 2.559 6.978 5.205 10.668 7.558.406.259.838.391 1.283.391 1.202 0 2.25-1.022 2.376-2.298.077-.362.069-.732-.022-1.101-1.075-4.372-2.476-9.471-4.75-14.447 2.789-1.879 5.304-4.115 7.743-6.284 1.651-1.468 3.358-2.985 5.118-4.36.605-.474.92-1.12.886-1.82-.036-.706-.426-1.379-1.056-1.834m-32 13.517c.262-.9.018-1.791-.638-2.392-.199-.387-.505-.714-.897-.955-2.683-1.654-5.34-3.556-8.07-5.776.586.014 1.172.027 1.758.041 2.84.067 5.777.136 8.686.145.13 0 .257-.001.386-.03 1.187.099 2.168-.652 2.413-1.829.717-3.442 1.843-6.939 3.585-11.1 1.053 2.853 2.182 5.687 3.281 8.447l.882 2.219c.25 1.12 1.172 1.862 2.335 1.862h10.334c-.063.057-.126.112-.189.169-2.743 2.443-5.579 4.971-8.777 6.86-.445.264-.784.634-.983 1.074-.438.732-.463 1.591-.062 2.372 1.388 2.704 2.548 5.662 3.657 9.357-1.804-1.294-3.59-2.625-5.333-3.925-1.23-.916-2.46-1.834-3.703-2.742-.134-.098-.277-.181-.428-.25-.752-.475-1.704-.445-2.481.094-1.923 1.334-3.86 2.648-5.798 3.962-.978.662-1.955 1.325-2.931 1.99 1.064-3.254 2.059-6.469 2.969-9.589m7.847-32.532c-5.266-3.16-11.149-6.75-15.608-11.863-.367-7.76-.71-15.979-.631-24.08 2.326-.15 4.693-.36 6.99-.563 4.428-.393 9.01-.799 13.464-.799 4 0 7.514.33 10.711 1.01.775 8.674.854 17.266.859 26.02-5.071 4.856-10.243 8.222-15.785 10.274" fill="#1d1d1b"/></svg>