<svg xmlns="http://www.w3.org/2000/svg" viewBox="0 0 100 100" enable-background="new 0 0 100 100"><path d="m4.327 41.27c7.518 6.89 15.458 13.263 24.1 18.685-2.85 9.677-5.957 19.269-9.286 28.792-.61 1.745.57 2.95 1.98 3.22.706.43 1.604.481 2.522-.174 8.355-5.967 16.936-11.607 25.386-17.438 8.544 6.278 16.896 12.811 25.844 18.517 1.983 1.265 3.85-.445 3.967-2.265.099-.397.115-.836-.005-1.321-2.363-9.612-5.14-19.08-9.405-28.02 9.179-5.866 16.604-13.922 25.17-20.615 1.606-1.255.943-3.07-.422-3.936-.434-.556-1.104-.939-2.024-.939h-28.833c-3.855-9.693-7.789-19.353-10.92-29.31-.932-2.965-5.202-2.13-5.324.472-4.491 9.584-8.613 19.308-11.01 29.634-10.26-.065-20.515-.493-30.776-.524-3.118-.009-3.432 4.312-.962 5.219m33.06.716c.238.0001.456-.028.661-.074 1.194.173 2.43-.369 2.75-1.906 1.84-8.829 5.01-17.17 8.656-25.349 2.869 8.18 6.147 16.208 9.341 24.27.001.026.025.045.037.07.195 1.156 1.049 2.18 2.565 2.18h24.16c-6.679 5.802-13 12.02-20.669 16.554-.569.336-.929.778-1.123 1.259-.481.74-.629 1.7-.115 2.702 3.73 7.269 6.265 14.973 8.38 22.82-7.192-4.947-14.1-10.295-21.14-15.45-.201-.147-.4-.251-.598-.333-.727-.507-1.683-.619-2.665.063-6.907 4.793-13.913 9.44-20.825 14.222 2.57-7.633 4.998-15.311 7.253-23.05.36-1.235-.124-2.205-.923-2.773-.183-.514-.538-.99-1.126-1.353-6.853-4.224-13.219-9.07-19.286-14.31 8.223.146 16.444.428 24.668.453" fill="#1d1d1b"/></svg>