<svg xmlns="http://www.w3.org/2000/svg" viewBox="0 0 100 100" enable-background="new 0 0 100 100"><g fill="#1d1d1b"><path d="m83.55 37.861c1.546 1.155 3.563 1.793 5.462 1.793 0 0 0 0 .0001 0 .16 0 .317-.005.473-.014 3.88-.228 7.02-3.397 6.994-7.06-.029-4.386-4.285-7.01-8.383-7.01-.283 0-.563.013-.835.039-.169.015-.337.048-.501.098-.217.022-.435.076-.647.16-3.162 1.238-5.01 3.584-5.174 6.427-10.35-1.329-20.1-6.618-24.699-16.376 2.583-1.135 4.403-3.636 4.385-6.429-.029-4.387-4.285-7.01-8.383-7.01-.283 0-.562.013-.837.039-.169.016-.336.049-.499.098-.217.022-.435.076-.647.16-3.693 1.446-5.609 4.398-5.126 7.896.33 2.386 2.11 4.145 4.284 5.094-6.381 8.68-16.556 15.15-27.41 14.08-.099-.036-.197-.075-.306-.092-.259-.04-.516-.057-.774-.085.073-.395.116-.798.113-1.209-.029-4.387-4.285-7.01-8.383-7.01-.283 0-.562.013-.837.039-.168.016-.335.049-.498.097-.216.022-.433.076-.648.16-3.693 1.447-5.609 4.399-5.126 7.896.509 3.688 4.481 5.893 8.03 5.893.159 0 .316-.005.473-.014 1.303-.077 2.518-.491 3.562-1.138 8.908 7.217 10.415 27.702.325 34.27-1.517-1-3.411-1.554-5.276-1.554-.283 0-.562.013-.837.039-.169.016-.335.049-.498.098-.215.021-.432.075-.648.16-3.693 1.446-5.609 4.398-5.126 7.896.509 3.688 4.48 5.892 8.02 5.892.16 0 .318-.004.475-.014 3.88-.228 7.02-3.396 6.994-7.06-.0001-.131-.018-.255-.026-.383 8.527-.15 19.01 2.051 24.01 9.18-2.938 1.571-4.423 4.247-3.993 7.363.509 3.688 4.481 5.893 8.03 5.893.159 0 .316-.004.473-.014 3.88-.229 7.02-3.397 6.993-7.06-.018-2.807-1.771-4.886-4.103-6.02 6.547-7.928 18.882-10.156 28.545-8.08.011.105.002.205.017.31.509 3.688 4.48 5.892 8.03 5.892.16 0 .318-.004.475-.014 3.88-.228 7.02-3.396 6.994-7.06-.029-4.386-4.285-7.01-8.384-7.01-.283 0-.562.013-.838.039-.168.016-.335.049-.497.098-.215.021-.432.075-.648.16-1.291.506-2.351 1.205-3.181 2.037-8.181-8.871-10.08-24.307.613-31.573m4.048-7.392c.036-.014.07-.028.104-.043.102-.005.205-.008.309-.008.351 0 3.431.063 3.63 2.255.038.411-.086.777-.379 1.117-.487.566-1.396.98-2.26 1.031-1.271.066-2.887-.614-3.263-1.957-.308-1.093.977-2.049 1.859-2.395m-71.78-.797c-.487.566-1.396.98-2.26 1.031-1.278.066-2.886-.615-3.263-1.957-.307-1.094.979-2.05 1.857-2.395.037-.014.072-.029.106-.044.102-.005.205-.008.309-.008.351 0 3.431.063 3.63 2.255.038.412-.086.778-.379 1.118m0 45.646c-.487.565-1.396.98-2.26 1.031-1.278.075-2.886-.615-3.263-1.958-.307-1.094.979-2.05 1.863-2.396.034-.014.068-.028.101-.043.102-.005.205-.008.309-.008.351 0 3.43.063 3.63 2.256.037.412-.087.778-.38 1.118m69.983-1.77c.296-.72 1.15-1.3 1.794-1.552.036-.014.07-.028.104-.043.102-.005.205-.008.309-.008.351 0 3.43.063 3.63 2.256.038.411-.086.776-.379 1.117-.487.565-1.396.98-2.26 1.031-1.271.075-2.887-.615-3.263-1.958-.035-.123-.043-.244-.04-.363.05-.155.084-.316.105-.48m-34.06-66.17c.034-.014.068-.028.101-.042.102-.005.205-.008.309-.008.351 0 3.431.063 3.63 2.255.038.411-.086.777-.379 1.117-.487.566-1.396.98-2.26 1.031-1.278.072-2.886-.615-3.263-1.957-.308-1.094.977-2.049 1.862-2.396m-.437 82.915c-.487.565-1.396.98-2.26 1.031-1.27.083-2.887-.614-3.264-1.958-.307-1.094.979-2.05 1.863-2.396.034-.014.068-.028.101-.043.102-.005.205-.008.309-.008.351 0 3.43.063 3.63 2.256.038.412-.086.777-.379 1.118m25.926-20.569c-10.352-1.092-21.813 2.593-28.425 10.545-5.111-7.355-15.258-10.908-24.398-11.157 7.36-8.76 6.255-25.12-.559-34.562 11.367.419 22.01-6.718 28.884-15.61 5.162 9.611 14.625 15.741 25.26 17.539-8.796 8.598-7.943 23.25-.762 33.24"/><path d="m41.708 38.732c-1.291.482-1.842 1.597-1.843 2.695-5.02 5.825-3.65 13.961 3.229 18.766 5.778 4.04 15.203 3.211 19.395-2.695 3.321-4.679 2.868-11.282-.726-15.672-4.957-6.06-13.374-5.59-20.05-3.094m17.253 13.755c-3.191 11.486-25.294-.372-13.694-8.766.255-.185.451-.397.62-.619 3.604-1 7.64-1.318 10.643 1.14 2.444 2 3.258 5.269 2.431 8.245"/></g></svg>