<svg xmlns="http://www.w3.org/2000/svg" viewBox="0 0 100 100" enable-background="new 0 0 100 100"><g fill="#1d1d1b"><path d="m94.49 36.724c-.434-.556-1.104-.939-2.024-.939h-28.832c-3.855-9.693-7.788-19.353-10.919-29.31-.932-2.965-5.202-2.13-5.324.472-4.491 9.584-8.613 19.308-11.01 29.634-10.261-.065-20.515-.493-30.776-.524-3.118-.009-3.432 4.312-.962 5.219 7.518 6.89 15.458 13.263 24.1 18.685-2.85 9.677-5.957 19.269-9.286 28.792-.61 1.745.569 2.95 1.98 3.22.706.43 1.604.481 2.521-.174 8.355-5.967 16.936-11.607 25.386-17.438 8.544 6.278 16.896 12.811 25.844 18.517 1.983 1.265 3.851-.445 3.967-2.265.099-.397.115-.836-.004-1.321-2.363-9.612-5.14-19.08-9.406-28.02 9.179-5.867 16.604-13.922 25.17-20.615 1.606-1.255.942-3.07-.423-3.936m-29.28 21.01c-.569.336-.929.778-1.123 1.259-.48.74-.629 1.7-.114 2.702 3.73 7.269 6.265 14.973 8.379 22.82-7.192-4.947-14.1-10.295-21.14-15.45-.201-.147-.4-.251-.597-.333-.727-.507-1.683-.619-2.665.063-6.906 4.793-13.913 9.44-20.825 14.222 2.571-7.633 4.998-15.311 7.253-23.05.36-1.235-.124-2.205-.923-2.773-.183-.514-.538-.99-1.126-1.353-6.853-4.224-13.219-9.07-19.286-14.31 8.223.146 16.444.428 24.669.453.237.0001.455-.028.661-.074 1.194.173 2.429-.369 2.75-1.906 1.84-8.829 5.01-17.17 8.656-25.349 2.869 8.18 6.147 16.208 9.342 24.27.001.026.025.045.036.07.195 1.156 1.049 2.18 2.565 2.18h24.16c-6.68 5.802-13 12.02-20.671 16.554"/><path d="m51.18 28.387c-.497-1.578-2.77-1.134-2.834.251-2.391 5.102-4.585 10.278-5.862 15.775-5.461-.034-10.92-.263-16.382-.279-1.66-.005-1.827 2.295-.512 2.778 4 3.667 8.228 7.06 12.83 9.947-1.517 5.151-3.171 10.257-4.943 15.326-.325.929.303 1.57 1.055 1.714.375.229.854.256 1.342-.092 4.447-3.177 9.02-6.179 13.513-9.283 4.548 3.342 8.994 6.82 13.757 9.857 1.056.673 2.05-.237 2.112-1.206.053-.211.062-.445-.002-.703-1.258-5.116-2.736-10.158-5.01-14.913 4.886-3.123 8.838-7.411 13.396-10.974.855-.668.502-1.634-.225-2.095-.231-.296-.587-.5-1.078-.5h-15.348c-2.053-5.159-4.146-10.301-5.813-15.603"/></g></svg>