<svg xmlns="http://www.w3.org/2000/svg" viewBox="0 0 100 100" enable-background="new 0 0 100 100"><g fill="#1d1d1b"><path d="m94.12 30.444c-.1 0-.194.02-.291.03-.097-.008-.183-.031-.285-.03-3.841.04-7.68.127-11.52.23-.038-5.358-.409-10.665-1.247-15.961-.252-1.597-1.452-2.199-2.675-2.069-.21-.037-.434-.054-.676-.043-19.848.841-39.71 1.14-59.58 1.151-1.816.0001-2.737 1.38-2.776 2.788-.054.207-.09.428-.102.666-.25 5.272-.494 10.544-.742 15.815-3.206.031-6.412.042-9.619.014-2.348-.02-3.205 2.27-2.585 3.968-.002.116-.016.225-.005.349 1.089 13.03 1.423 32.981 1.439 46.05.0001.826.296 1.457.74 1.916.423.837 1.228 1.483 2.426 1.538 28.707 1.324 57.36-1.373 86.05-1.727.271-.003.517-.045.749-.105 1.395-.052 2.736-.97 2.705-2.773-.222-13.03.501-32.946.569-45.97.183-.376.294-.79.294-1.23v-1.727c.0001-1.57-1.308-2.879-2.877-2.879m-73.5-10.949c18.303-.035 36.604-.328 54.894-1.07.526 4.12.734 8.261.757 12.419-18.763.623-37.513 1.741-56.28 2.095.211-4.482.419-8.963.63-13.444m69.73 59.915c-27.06.448-54.08 2.811-81.15 1.785-.048-11.847-.39-30.583-1.327-42.39 27.709.054 55.37-2.154 83.07-2.561-.061 12.09-.679 31.08-.594 43.17"/><path d="m31.19 45.855c-3.877-1.576-9.103-.791-12.684 1.148-3.859 2.09-5.593 6.661-6.618 10.649-.259 1-.003 1.839.506 2.455-.011 4.02 1.722 7.909 5.611 10.625 6.881 4.807 17.09-.13 20.03-7.191 2.907-6.976.255-14.799-6.847-17.686m-3.117 5.141c.006.0001.011.002.017.003-.505.796-1.01 1.593-1.51 2.391-1.045-.704-2.092-1.405-3.129-2.119 1.291-.412 2.812-.527 4.622-.275m-8.433 13.864c-.467-.513-.822-1.104-1.067-1.752.546.258 1.087.523 1.625.795-.185.319-.374.637-.558.957m-.337-6.473c-.314-.137-.622-.198-.92-.208.338-1.485.983-2.886 1.805-3.985.164.362.424.701.821.974 1.041.717 2.093 1.417 3.141 2.123-.54.877-1.071 1.76-1.604 2.641-1.065-.543-2.142-1.064-3.243-1.545m3.945 8.228c.15-.261.304-.521.456-.781.463.276.924.557 1.379.848-.609.043-1.224.02-1.835-.067m6.953-1.965c-.081-.074-.155-.151-.25-.219-1.27-.912-2.58-1.749-3.91-2.549.474-.784.947-1.569 1.427-2.35 1.532 1.025 3.065 2.049 4.585 3.091-.507.769-1.135 1.451-1.852 2.027m-.305-9.02c.585-.931 1.172-1.861 1.761-2.79 1.214 1.338 1.788 3.223 1.761 5.16-1.17-.796-2.347-1.582-3.522-2.37"/><path d="m79.54 45.855c-3.878-1.576-9.103-.791-12.684 1.148-3.86 2.09-5.593 6.661-6.618 10.649-.258 1-.002 1.839.507 2.455-.011 4.02 1.722 7.909 5.611 10.625 6.881 4.807 17.09-.13 20.03-7.191 2.906-6.976.254-14.799-6.848-17.686m.295 6.81c.75.759 1.285 1.709 1.596 2.763-.778-.347-1.551-.704-2.325-1.058.244-.568.487-1.136.729-1.705m-3.592-1.686c-.247.584-.499 1.166-.75 1.749-1.13-.518-2.26-1.038-3.396-1.542 1.182-.327 2.552-.409 4.146-.207m-6.757 14.995c-1.997-.997-2.894-2.907-3.01-5.01 1.499.617 2.998 1.234 4.497 1.852-.491 1.055-.989 2.108-1.487 3.16m-2.175-9.613c.28-.679.635-1.292 1.021-1.86.056.029.102.064.163.091 1.732.751 3.447 1.538 5.161 2.328-.258.578-.512 1.158-.773 1.735-1.858-.764-3.715-1.529-5.572-2.294m6.254 10.302c.364-.777.729-1.554 1.09-2.333.91.375 1.819.749 2.729 1.124-1.164.672-2.474 1.089-3.819 1.209m7.182-4.617c-.196-.172-.42-.325-.693-.438-1.166-.48-2.332-.96-3.498-1.44.238-.529.47-1.06.706-1.59 1.103.503 2.208 1 3.32 1.483.296.128.586.185.868.2-.169.628-.399 1.228-.703 1.785"/><path d="m58.911 64.37c-.454-.403-1.085-.635-1.916-.545-4.708.512-9.428.569-14.158.573-1.69-.608-3.974.254-3.973 2.592 0 2.788.029 5.568.288 8.346.146 1.561 1.199 2.878 2.878 2.878.049 0 .098-.013.147-.016.14.001.276.025.429.016 4.89-.304 9.778-.557 14.678-.576 1.495-.006 2.376-.946 2.668-2.062.128-.323.21-.686.21-1.104v-7.771c-.0001-1.113-.525-1.886-1.251-2.331m-4.506 7.556c-3.233.068-6.461.229-9.69.415-.031-.731-.054-1.463-.067-2.195 3.257-.021 6.51-.096 9.757-.344v2.124"/><path d="m41.454 46.56c5.178-.266 10.358-.287 15.541-.288 3.712 0 3.712-5.756 0-5.756-5.183.0001-10.363.022-15.541.288-3.693.19-3.711 5.947 0 5.756"/></g></svg>