<svg xmlns="http://www.w3.org/2000/svg" viewBox="0 0 100 100" enable-background="new 0 0 100 100"><path d="m95.79 27.309c-.702-1.063-1.715-2.318-3.343-2.833-.302-.095-.624-.117-.952-.065-7.718-1.375-15.316-2.483-22.592-3.297-.178-3.833-1.769-7.373-4.615-10.257-.516-.523-1.174-.761-1.827-.674-.125-.034-.25-.057-.376-.069-6.339-.629-12.806-.682-18.887-.684-.082 0-.157.008-.258.023-.102-.014-.213-.029-.364-.023-1.943.056-3.87.95-5.284 2.453-.368.39-.591.843-.665 1.347-1.116 1.808-1.682 3.934-1.684 6.327-9.63.282-18.901 1.246-27.565 2.865-.747.14-1.3.595-1.562 1.284-.262.396-.443.759-.618 1.241-.051.141-.112.396-.157.593-.019.083-.034.153-.036.163-.193.48-.275.993-.238 1.487-1.907 15.313-1.699 29.21.632 42.483.259 1.474 1.309 1.941 2.2 1.873-.026.078-.048.158-.067.239-1.416 5.983.208 11.05 4.64 14.338.407.681 1.057 1.065 1.843 1.089 21.56.625 45.996 1.334 69.896 1.358.044 0 .086-.004.141-.011.13.026.262.04.394.04.24 0 .484-.044.727-.131 4.02-1.44 6.229-4.904 5.922-9.266-.004-.063-.014-.124-.03-.214.02-.137.031-.279.031-.432 0-1.076-.0001-2.388-.28-3.644l.797.021c.671.018 1.342.036 2.051.047.724 0 1.343-.323 1.752-.913.372-.321.629-.759.765-1.303.645-2.59.969-5.03.991-7.455 0-.066-.005-.127-.015-.186l.109-3.528c.301-10.604.612-21.568-.4-32.35-.077-.817-.457-1.501-1.076-1.938m-3.253 37.86l-.011.134c-.014 1.469-.173 2.967-.488 4.566-13.457-.244-27.13-.961-40.35-1.654-13.789-.723-28.04-1.47-42.08-1.683-1.897-11.968-2-24.862-.312-38.33.028-.219.029-.437.002-.676l.017-.044c.037-.097.074-.194.111-.301 9.905-1.791 20.552-2.698 31.649-2.698 14.935 0 31.15 1.6 49.556 4.893.222.04.43.041.63.018.038.014.072.025.103.034.03.019.061.037.091.057.065.065.129.132.189.201.07.083.138.167.216.276.106.162.205.329.305.496l.075.125c.028.046.058.089.093.139.865 10.348.568 20.899.281 31.1l-.087 3.13c-.002.067.002.129.001.214m-52.996-45.71c.009-1.625.461-2.947 1.377-4.03.121-.142.224-.296.318-.478.448-.27.951-.435 1.369-.447.081-.003.157-.013.255-.03.108.018.219.03.338.03 5.928.0001 12.231.052 18.454.647 1.479 1.705 2.316 3.497 2.545 5.458-8.06-.769-15.854-1.159-23.18-1.159-.493.0001-.986.003-1.479.006m15.14 55.59c-3.354.134-6.683-.015-10.381-.448l-.004-1.689 10.511.545c-.019.483-.054 1.033-.126 1.592m-42.672-1.938c.191-.371.288-.785.289-1.234 0-.071 0-.14.0001-.205 8.07.158 16.792.478 27.356 1v3.847c0 .533.13 1.01.35 1.348.364.849 1.058 1.404 1.902 1.525 5.169.738 9.742.958 14.08.684.157-.001.312-.036.47-.08 1.116.071 2.023-.633 2.347-1.78.37-1.313.58-2.76.654-4.518 10.71.55 19 .892 26.709 1.102-.052.352-.032.706.061 1.036.051.182.094.36.132.538l.035.191c.0001.027.006.092.017.205.04.506.038 1.015.037 1.521v.266c0 .054.004.104.013.181-.019.167-.025.343-.012.534.152 2.168-.601 3.517-2.369 4.233-.055-.007-.111-.012-.17-.012-23.768-.024-47.738-.718-68.909-1.332-.116-.129-.235-.237-.366-.333-2.671-1.947-3.532-4.781-2.624-8.718" fill="#1e1e1c"/></svg>