<svg xmlns="http://www.w3.org/2000/svg" viewBox="0 0 100 100" enable-background="new 0 0 100 100"><path d="m68.26 37.14c-3.869-4.986-9.202-7.638-15.06-7.835-.198-.095-.417-.174-.68-.211-14.354-2.024-27.541 10.842-25.603 25.363 1.565 11.728 12.94 18.59 24.11 16.788 9.879-1.593 20.08-8.664 21.864-19.06.958-5.595-1.265-10.704-4.634-15.05m-.154 15.31c-1.634 7.271-9.122 12.05-15.851 13.824-8.04 2.122-15.716-.982-19.53-8.399-5.268-10.246 3.667-22.529 14.13-24.23.51.529 1.261.833 2.176.637 10.207-2.186 21.491 7.416 19.08 18.16"/><path d="m22.584 15.726c-2.025-2.225-5.309 1.078-3.293 3.293 2.593 2.849 4.851 5.945 7.087 9.08 1.729 2.421 5.771.099 4.02-2.351-2.465-3.449-4.958-6.878-7.815-10.02"/><path d="m53.77 19.701c.209-4.203-.087-8.347-.782-12.495-.495-2.957-4.982-1.699-4.491 1.238.625 3.733.803 7.478.615 11.256-.149 3 4.509 2.99 4.658.0001"/><path d="m77.5 19.918c-2.873 2.406-5.654 4.919-8.616 7.218-1 .78-.813 2.48 0 3.293.981.981 2.292.778 3.293 0 2.961-2.3 5.743-4.812 8.616-7.218 2.305-1.931-1.01-5.208-3.293-3.293"/><path d="m18.609 47.18c-4.432-.484-8.841-1.146-13.273-1.63-2.984-.326-2.952 4.335 0 4.657 4.432.483 8.841 1.146 13.273 1.63 2.983.326 2.952-4.335 0-4.657"/><path d="m25.583 72.64c-4.444 3.264-8.957 6.43-13.505 9.547-2.46 1.686-.134 5.724 2.35 4.02 4.548-3.117 9.06-6.283 13.505-9.547 2.394-1.757.075-5.802-2.35-4.02"/><path d="m46.09 77.45c.017 4.658.216 9.313.233 13.971.011 3 4.668 3 4.657 0-.017-4.658-.216-9.313-.233-13.971-.011-3-4.668-3-4.657 0"/><path d="m72.65 67.42c-2.237-1.987-5.543 1.295-3.293 3.293 3.903 3.466 7.601 7.143 11.177 10.944 2.062 2.191 5.349-1.108 3.293-3.293-3.576-3.801-7.274-7.478-11.177-10.944"/><path d="m95.92 46.48c-5.358 0-10.713.018-16.07.233-2.993.12-3 4.778 0 4.657 5.354-.215 10.709-.232 16.07-.233 3 0 3-4.657 0-4.657"/></svg>