<svg xmlns="http://www.w3.org/2000/svg" viewBox="0 0 100 100" enable-background="new 0 0 100 100"><g fill="#1e1e1c"><path d="m73.18 38.848c-4.463-7.516-11.997-10.412-20.326-8.553-3.07.685-1.769 5.391 1.298 4.706 7.98-1.781 14.217 2.848 16.728 10.418 1.909 5.755-.967 11.634-4.88 15.743-7.659 8.04-20.556 8.731-28.701 1.196-5.689-5.264-7.6-13.891-5.698-21.24 2.193-8.476 9.857-11.731 17.998-10.667 3.114.407 3.075-4.479 0-4.881-25.863-3.38-30.579 30.95-11.824 43.31 12.149 8 28.419 2.318 35.681-9.436 3.983-6.45 3.502-14.229-.276-20.595"/><path d="m22.83 57.16c-.182-1.285-1.187-2.586-2.755-2.586-.282 0-.574.043-.867.128-3.9 1.127-7.349 2.33-10.542 3.678-1.644.693-2.111 2.326-1.846 3.637.269 1.332 1.242 2.228 2.422 2.228.359 0 .732-.081 1.109-.239 3.15-1.33 6.562-2.52 10.432-3.639 1.66-.481 2.225-1.957 2.047-3.207"/><path d="m11.172 18.11c4.601 3.048 9.571 6.136 16.12 10.01.48.284.979.428 1.482.429 1.277 0 2.428-.945 2.798-2.297.353-1.289-.148-2.517-1.31-3.204-6.537-3.871-11.495-6.951-16.07-9.986-.497-.329-1.017-.497-1.544-.497-1.186 0-2.284.898-2.672 2.185-.396 1.317.064 2.604 1.202 3.358"/><path d="m52.757 76.39c-.833 0-1.603.312-2.111.855-.487.521-.718 1.222-.664 2.026.238 3.578.478 7.156.732 10.732.132 1.847 1.664 2.812 3.11 2.812.834 0 1.603-.312 2.108-.855.486-.522.713-1.224.656-2.027-.254-3.576-.493-7.152-.731-10.729-.123-1.848-1.653-2.814-3.1-2.814"/><path d="m31.351 70.03c-1 0-1.861.488-2.421 1.375-4.063 6.439-8.2 12.785-12.433 19.26-.586.896-.65 1.867-.181 2.735.525.971 1.648 1.623 2.796 1.623.0001 0 .0001 0 .0001 0 .999 0 1.862-.479 2.432-1.35 4.224-6.459 8.354-12.793 12.441-19.273.572-.906.623-1.887.143-2.759-.531-.963-1.649-1.611-2.778-1.611"/><path d="m70.808 27.456c.998 0 1.863-.474 2.437-1.335 1.503-2.255 2.953-4.478 4.176-6.879.491-.964.46-1.986-.086-2.877-.576-.939-1.629-1.546-2.683-1.546-.995 0-1.846.549-2.333 1.507-1.196 2.347-2.63 4.546-4.117 6.778-.593.89-.664 1.856-.2 2.722.52.974 1.648 1.629 2.806 1.63"/><path d="m90.07 77.856c-4.312-3.432-8.05-6.12-11.757-8.46-.49-.31-1-.467-1.519-.467-1.226 0-2.348.919-2.728 2.234-.377 1.305.103 2.564 1.251 3.289 3.531 2.229 7.03 4.726 10.681 7.636.562.446 1.22.683 1.903.683.0001 0 0 0 .0001 0 1.34 0 2.626-.896 3.057-2.129.362-1.033.037-2.047-.889-2.786"/><path d="m49.753 22.08c.837 0 1.6-.313 2.092-.858.473-.523.679-1.224.597-2.027-.463-4.537-.735-9.103-.974-13.391-.104-1.854-1.625-2.824-3.074-2.824-.832 0-1.604.311-2.117.854-.492.521-.729 1.221-.685 2.025.24 4.308.514 8.894.978 13.437.186 1.827 1.742 2.784 3.183 2.784"/><path d="m89.68 42.41c-1.706.227-6.746.239-7.739.24-1.877 0-2.859 1.479-2.859 2.94.0001 1.459.982 2.938 2.858 2.938h.0001c1 0 6.106-.014 7.871-.248 1.744-.232 2.872-1.384 2.872-2.935 0-1.452-1.367-3.161-3-2.935"/></g></svg>