<svg xmlns="http://www.w3.org/2000/svg" viewBox="0 0 100 100" enable-background="new 0 0 100 100"><g fill="#1d1d1b"><path d="m73.74 33.779c-4.406 0-8.567 1.414-12.08 4.097-2.709-11.358-13.417-19.519-25.782-19.519-1 0-2.02.055-3.01.164-7.08.772-12.644 4.628-15.667 10.855-3.178 6.546-2.859 14.462.788 20.885-.124-.002-.248-.004-.372-.004-7.915 0-13.937 5.264-14.984 13.1-.493 3.687.418 6.882 2.709 9.5 3.837 4.384 10.54 5.946 15.534 5.946 1.149 0 2.273-.078 3.268-.223.095.013.19.024.294.024 16.86 0 35.97 0 54.809-.259.184-.003.37-.025.564-.07.266.037.543.04.845-.012 6.255-1.087 11.246-4.607 14.05-9.913 3.164-5.979 3.212-13.61.13-20.415-3.835-8.466-12.313-14.155-21.09-14.155m-50.28 22.421c1.178.188 2.432-.568 2.889-1.718.368-.925.133-1.906-.627-2.624-5.274-4.98-7.05-12.04-4.647-18.418 2.261-5.992 7.638-9.711 14.386-9.949 11.862-.41 21.688 8.754 21.713 20.07.003 1.645 1.297 2.505 2.573 2.505 1.148 0 2.09-.636 2.433-1.631 3.222-3.599 7.285-5.5 11.755-5.5 6.984 0 13.626 4.761 16.528 11.847 2.171 5.299 2.059 10.822-.308 15.15-2.117 3.871-5.758 6.389-10.534 7.284-.118-.017-.249-.03-.398-.027-18.829.26-37.937.26-54.794.26-.182 0-.36.018-.542.055-.194-.013-.396-.008-.609.025-.993.16-2.02.241-3.057.241-5.733 0-12.446-2.507-12.497-9.57-.016-2.278.772-4.286 2.281-5.805 1.853-1.866 4.684-2.937 7.767-2.937 1.16 0 2.293.153 3.371.458.187.053.38.083.586.093.52.254 1.099.335 1.731.19"/><path d="m34.773 56.02c2.914-5.05 8.927-7.455 12.654-3.898-.357-.056-.715-.104-1.071-.167-.013-.002-.027-.002-.041-.004-.286-.141-.619-.227-1.01-.227-2.692 0-2.887 3.857-.596 4.433.14.068.288.12.448.148 1.599.283 3.213.469 4.812.752 1.708.302 3.31.206 4.081-1.484.014-.031.032-.06.046-.092.738-1.76 1.518-3.502 2.255-5.263.476-1.136-.504-2.48-1.575-2.774-1.301-.358-2.3.442-2.774 1.575-.152.362-.309.72-.463 1.081-5.536-6.781-15.796-4.789-20.66 3.643-1.456 2.524 2.442 4.795 3.894 2.277"/><path d="m52.26 61.03c-2.914 5.05-8.927 7.455-12.654 3.898.357.056.715.104 1.071.167.014.002.027.002.041.004.286.141.619.227 1.01.227 2.692 0 2.888-3.857.596-4.433-.14-.068-.288-.12-.448-.148-1.909-.337-3.857-.493-5.78-.737-1.479-.188-2.466.049-3.114 1.469-.014.031-.032.06-.046.092-.737 1.76-1.518 3.502-2.255 5.263-.476 1.136.504 2.48 1.575 2.774 1.301.358 2.3-.442 2.775-1.575.151-.362.309-.72.463-1.081 5.536 6.781 15.796 4.789 20.66-3.643 1.457-2.525-2.441-4.795-3.894-2.277"/></g></svg>