<svg xmlns="http://www.w3.org/2000/svg" viewBox="0 0 100 100" enable-background="new 0 0 100 100"><path fill="#1d1d1b" d="m94.56 23.02c-8.05-6.446-15.238-13.873-23.376-20.21-2.446-1.905-5.919 1.516-3.444 3.444 3.605 2.807 7.02 5.83 10.412 8.885-1.514 2.056-3.164 4-4.811 5.951-3.213-2.864-6.435-5.718-9.793-8.412-.758-1.161-2.483-1.812-3.843-.615-15.06 13.258-27.29 29.49-40.42 44.56-.291.333-.461.689-.552 1.047-.267.761-.173 1.643.552 2.397.634.659 1.27 1.317 1.906 1.973-.068.06-.141.113-.202.184-1.38 1.624-2.644 3.347-4.139 4.87-.351.357-.545.746-.637 1.136-.271.6-.258 1.321.257 2.058 1.079 1.547 2.222 3.046 3.427 4.491-.041.038-.084.065-.125.107-5.311 5.566-10.515 11.234-15.827 16.801-2.167 2.271 1.272 5.719 3.444 3.444 5.295-5.55 10.484-11.2 15.779-16.75 1.219 1.236 2.492 2.421 3.833 3.535.621 1.034 1.909 1.688 3.271.934 2.689-1.488 5.229-3.249 7.44-5.391.518.415 1.021.845 1.547 1.251.962.742 1.91.559 2.574-.049.123-.056.246-.113.371-.195 17.323-11.416 32.693-25.605 44.46-42.755.387-.564.479-1.117.386-1.616.04-.79-.249-1.612-1.016-2.203-3.123-2.407-6.11-4.974-9.06-7.582 1.636-1.942 3.268-3.886 4.798-5.912 3.057 2.757 6.135 5.49 9.35 8.07 2.425 1.943 5.894-1.48 3.443-3.444m-65.05 54.63c-2.936-2.564-5.582-5.435-7.902-8.567.96-1.121 1.865-2.291 2.821-3.416.051-.06.09-.125.135-.187 3.03 3.046 6.136 6 9.373 8.828-1.366 1.27-2.848 2.368-4.427 3.342m52.06-43.14c-10.956 15.579-25.11 28.593-40.922 39.15-5.868-4.669-11.151-10.01-16.352-15.401 1.16-1.346 2.313-2.701 3.464-4.059 1.42 1.032 2.773 2.108 3.942 3.439.876.998 2.551.892 3.444 0 .984-.984.875-2.447 0-3.444-1.25-1.424-2.726-2.598-4.248-3.712 1.563-1.86 3.127-3.723 4.694-5.584 2.965 3.309 6.03 6.523 9.26 9.574 2.282 2.153 5.732-1.284 3.444-3.444-3.333-3.145-6.483-6.463-9.533-9.88 2.086-2.453 4.192-4.889 6.326-7.298 1.389 1.743 2.822 3.449 4.389 5.04 2.208 2.238 5.65-1.207 3.444-3.444-1.628-1.65-3.111-3.428-4.55-5.241 1.596-1.746 3.222-3.463 4.865-5.16 3.456 4.499 7.098 8.835 11.09 12.871 2.212 2.234 5.655-1.211 3.444-3.444-3.998-4.04-7.674-8.359-11.11-12.885 1.534-1.507 3.084-2.997 4.675-4.444 6.878 5.636 13.289 11.81 20.226 17.373"/></svg>