<svg xmlns="http://www.w3.org/2000/svg" viewBox="0 0 100 100" enable-background="new 0 0 100 100"><g fill="#1d1d1b"><path d="m23.06 86.6c.282 1.225 1.312 1.953 2.545 1.833 12.13 1.765 21.405 2.552 30.07 2.552.0001 0 .0001 0 .002 0 10.41 0 19.504-1.182 27.801-3.614 1.377-.404 1.877-1.607 1.773-2.659.045-.178.072-.35.081-.523.655-12.688 1.446-26.24 2.418-41.43.676-10.561-.573-32.784-4.131-36.655-.342-.373-.712-.596-1.102-.666-.059-.059-.129-.12-.238-.213-.556-.466-1.244-.643-1.912-.494-9.326-.006-18.807-.067-27.977-.126-9.311-.061-18.939-.123-28.41-.127-.314 0-.614.051-.894.152-1.241-.136-2.355.517-2.809 1.659-4.839 12.174-3.914 26.568-3.099 39.27.919 14.277 2.897 28.08 5.879 41.04m1.426-77.05c9.304.006 18.757.067 27.902.126 8.874.057 18.04.116 27.07.125 2.896 8.788 3.789 25.824 2.947 36.766-.611 7.94-1.013 15.969-1.402 23.733-.211 4.21-.422 8.426-.667 12.657-7.475 1.992-15.629 2.961-24.913 2.961-8.04 0-16.893-.73-27.829-2.297-2.625-11.836-4.374-24.314-5.344-38.13-.764-10.901-1.714-24.44 2.232-35.938"/><path d="m29.708 74.07c.275 1.195 1.289 1.945 2.501 1.866 9.11 1.323 16.09 1.914 22.618 1.914 7.883 0 14.774-.896 21.07-2.741 1.167-.342 1.866-1.353 1.788-2.552.029-.136.047-.27.054-.405.493-9.536 1.087-19.716 1.817-31.12.502-7.849-.379-24.864-3.268-28.01-.34-.37-.688-.558-.99-.647l-.076-.07c-.547-.457-1.226-.642-1.9-.516-6.979-.005-13.96-.05-20.939-.095-7.122-.046-14.244-.092-21.367-.096-.26 0-.51.036-.748.107-1.162-.07-2.19.583-2.614 1.648-3.688 9.278-2.989 20.17-2.372 29.777.69 10.761 2.181 21.17 4.43 30.939m2.129-57.41c6.829.006 13.659.05 20.488.094 6.639.042 13.278.085 19.917.093 2.043 6.64 2.663 18.967 2.049 26.955-.46 5.979-.763 12.02-1.056 17.861-.151 3.01-.302 6.02-.474 9.04-5.445 1.406-11.382 2.09-18.12 2.09-5.907 0-12.403-.528-20.395-1.659-1.914-8.738-3.194-17.952-3.909-28.14-.562-8-1.257-17.904 1.503-26.336"/><path d="m53.75 79c-2.579 0-2.579 4 0 4s2.579-4 0-4"/></g></svg>