<svg xmlns="http://www.w3.org/2000/svg" viewBox="0 0 100 100" enable-background="new 0 0 100 100"><g fill="#1d1d1b"><path d="m28.576 48.615c-.014-.025-.031-.042-.045-.065 5.917-10.171 9.871-21.247 14.807-31.901.753-1.626-.891-3.093-2.167-2.77-.015-.0001-.027-.006-.041-.007-4.301-.305-8.615-.33-12.917-.615-.824-.055-1.353.357-1.604.919-.226.14-.434.337-.604.61-6.66 10.666-12.857 21.619-19.99 31.984-.286.416-.36.823-.3 1.193-.06.37.014.778.3 1.193 7.133 10.365 13.33 21.318 19.99 31.984.17.273.378.47.604.61.251.562.781.974 1.604.919 4.302-.285 8.616-.31 12.917-.615.286-.02.537-.094.754-.205 1.232.011 2.523-1.33 1.762-2.788-5.245-10.04-9.598-20.519-15.07-30.446m.405 30.32c-6.438-10.331-12.462-20.918-19.329-30.975 6.867-10.06 12.892-20.644 19.329-30.975 3.323.198 6.652.271 9.976.447-4.552 10.181-8.435 20.653-14.183 30.26-.545.911-.214 1.782.428 2.291.04.163.095.327.187.495 5.03 9.124 9.122 18.709 13.822 27.998-3.408.186-6.822.259-10.23.462"/><path d="m94.91 46.77c-7.133-10.365-13.33-21.318-19.99-31.984-.17-.273-.378-.47-.604-.61-.251-.562-.781-.974-1.604-.919-4.302.285-8.616.31-12.917.615-.015.0001-.027.006-.041.007-1.276-.323-2.92 1.144-2.167 2.77 4.936 10.654 8.89 21.73 14.807 31.901-.014.024-.031.041-.045.065-5.471 9.927-9.825 20.404-15.07 30.446-.761 1.458.529 2.798 1.762 2.788.217.111.468.185.754.205 4.301.305 8.615.33 12.917.615.824.055 1.353-.357 1.604-.919.226-.14.434-.337.604-.61 6.66-10.666 12.857-21.619 19.99-31.984.286-.416.36-.823.3-1.193.059-.37-.015-.778-.301-1.193m-22.966 32.17c-3.408-.203-6.822-.275-10.23-.462 4.7-9.289 8.792-18.874 13.822-27.998.092-.167.148-.332.188-.495.641-.509.973-1.379.428-2.291-5.747-9.604-9.63-20.07-14.182-30.26 3.324-.176 6.653-.25 9.976-.447 6.438 10.331 12.462 20.917 19.329 30.975-6.869 10.06-12.894 20.644-19.331 30.975"/></g></svg>