<svg xmlns="http://www.w3.org/2000/svg" viewBox="0 0 100 100" enable-background="new 0 0 100 100"><path d="m94.95 46.636l-.193.005c-1.948.099-3.896.179-5.845.25-3.356-18.54-17.817-32.26-36.37-34.33-.019-.002-.037-.004-.056-.005-.09-.037-.182-.069-.275-.099l.002-1.719c0-1.913-1.469-3.355-3.418-3.355-1.948 0-3.418 1.442-3.418 3.355v1.472c-16.784 1.454-31.826 16.67-35.08 29.965-.7 2.862-1.1 5.788-1.195 8.719-1.537-.055-2.904-.137-4.218-.251-1.951-.167-3.386 1.181-3.468 3.086-.072 1.672 1.028 3.55 3.209 3.74 1.5.13 3.059.218 4.829.272 1.505 10.484 7.302 19.272 16.428 24.847 5.908 3.609 13.571 5.655 21.668 5.799.151 1.298.311 2.598.473 3.898.258 2.062 2.028 3.141 3.644 3.141.978 0 1.876-.383 2.465-1.051.572-.647.822-1.521.704-2.463-.161-1.283-.318-2.565-.468-3.847 17.463-1.966 35.548-12.996 35.3-33.23-.004-.363-.014-.735-.03-1.127 1.756-.067 3.513-.141 5.269-.229 1.916-.097 3.323-1.648 3.273-3.607-.047-1.871-1.406-3.23-3.232-3.23m-41.26 34.68c-.365-4.482-.453-8.278-.28-11.844.045-.929-.257-1.785-.853-2.41-.614-.645-1.514-1.014-2.469-1.014-1.665 0-3.405 1.126-3.51 3.278-.181 3.715-.089 7.658.29 12.297-17.16-.606-27.513-11.02-30.22-21.348-.209-.797-.367-1.644-.472-2.53 5.615-.165 11.715-.742 19.03-1.796 1.692-.244 2.79-1.592 2.669-3.279-.131-1.825-1.722-3.729-4.117-3.39-6.56.945-12.14 1.47-17.394 1.632 2.318-14.495 15.591-29.407 28.722-31.868.088-.016.177-.032.268-.046-.027 6.301-.097 11.263-.224 15.913-.025.924.292 1.773.894 2.391.621.638 1.521 1 2.471 1 1.927 0 3.418-1.424 3.47-3.313.125-4.595.195-9.478.223-15.639.004 0 .009.0001.013.0001 15.207 1.698 27.746 13.246 30.424 27.755-4.857.167-9.84.358-14.77.732-2.182.165-3.292 2.029-3.229 3.7.072 1.915 1.498 3.275 3.455 3.128 4.998-.378 10.09-.569 15.06-.739-.073 2.416-.409 4.831-1 7.201-2.992 11.961-16.191 18.651-28.452 20.18" fill="#1d1d1b"/></svg>