<svg xmlns="http://www.w3.org/2000/svg" viewBox="0 0 100 100" enable-background="new 0 0 100 100"><g fill="#1d1d1b"><path d="m16.292 36.578c5.336 7.5 12.521 13.951 20.03 20.445 8.07 6.978 15.201 11.421 22.442 13.984.443.157.887.195 1.315.112 8.865.405 16.308-2.106 21.954-7.444 2.524 1.783 4.809 5.102 4.338 7.479-.286 1.447-1.547 2.388-3.75 2.799-1.304.243-2.069 1.248-1.948 2.559.117 1.267 1.114 2.614 2.731 2.614.174 0 .354-.016.541-.051 5.175-.965 8.25-4.708 7.834-9.535-.324-3.758-2.625-7.431-6.189-9.918.292-.403.579-.817.858-1.242.643-.98.572-2.094-.175-2.938-.125-.454-.388-.859-.785-1.207-3.923-3.442-8.08-5.992-12.719-7.795-.645-.251-1.282-.246-1.837.001-4.267.686-8.55.508-12.808-.543-.041-.034-.083-.067-.13-.098-8.166-5.326-15.426-11.874-21.581-19.469 1.704-3.26 2.932-6.729 3.652-10.317.128-.64.036-1.27-.237-1.754-.131-.352-.343-.676-.631-.964-3.722-3.722-7.737-7.645-12.288-11.11-.357-.271-.742-.437-1.146-.493-1.021-.628-2.283-.515-3.174.327-8.996 8.5-13.945 23.415-6.701 33.712.081.294.215.575.402.836m14.993-11.822c-.288.51-.403 1.062-.335 1.602-.167.809.02 1.61.533 2.267 6.544 8.387 14.552 15.697 23.802 21.727.17.111.352.201.554.276.257.17.528.29.826.364 4.814 1.211 9.818 1.434 14.974.67 3.197 1.291 6.281 3.15 9.176 5.532-4.421 5.758-10.811 8.678-18.998 8.678-.605 0-1.216-.016-1.834-.046-8.162-2.951-15.06-8.348-21.299-13.744-6.04-5.222-12.335-10.853-17.1-17.232-.104-.42-.306-.802-.599-1.135-6.465-7.343-2.849-19 3.886-26.439 3.421 2.691 6.558 5.749 9.725 8.91-.766 3.173-1.849 5.98-3.307 8.57"/><path d="m89.88 77.33c-.476 0-1.17.163-1.778.94-2.4 3.068-4.713 3.519-7.632 1.526-.451-.307-.923-.463-1.404-.463-1.049 0-2.028.797-2.38 1.938-.367 1.191.037 2.362 1.055 3.057 1.918 1.308 3.928 1.971 5.974 1.972 0 0 0 0 .0001 0 3.084 0 6-1.556 8.209-4.379.675-.864.788-1.976.301-2.975-.472-.966-1.414-1.616-2.346-1.616"/><path d="m80.11 93.07c1.141 0 2.302-.166 3.45-.491 1.495-.424 2.01-1.748 1.85-2.871-.162-1.163-1.071-2.341-2.496-2.341-.25 0-.509.038-.769.111-2.524.717-4.76.16-6.54-1.643-.509-.516-1.128-.789-1.789-.789-1.055 0-2.094.722-2.526 1.756-.403.965-.191 2 .568 2.77 2.261 2.289 5.114 3.498 8.252 3.498"/><path d="m67.68 91.46c-2.782-.803-5.409-1.562-8.09-1.562-3.122 0-5.769 1.032-8.329 3.247-.804.696-1.076 1.67-.728 2.607.401 1.077 1.523 1.858 2.667 1.858.634 0 1.239-.233 1.749-.675 1.481-1.281 3.243-1.904 5.386-1.904 2.547 0 5.336.872 8.03 1.716 2.368.741 4.816 1.506 7.06 1.654.068.004.135.006.201.006 1.592 0 2.359-1.25 2.397-2.412.044-1.348-.812-2.771-2.533-2.885-2.704-.176-5.3-.925-7.81-1.65"/></g></svg>