<svg xmlns="http://www.w3.org/2000/svg" viewBox="0 0 100 100" enable-background="new 0 0 100 100"><path fill="#1d1d1b" d="m92.53 68.28c.923-8.404-.786-16.354-8.01-21.645-5.436-3.983-12.805-4.573-19.301-4.838-6.511-.265-13.301-.723-19.578-2.789-8.5-2.797-8.66-12.593-7.972-20.04.055-.593-.124-1.041-.425-1.357-.312-.482-.828-.84-1.559-.875-9.375-.459-18.737-.449-28.1.221-1.198-.443-2.762.138-2.652 1.763 1.106 16.353-.06 32.783 1.586 49.1h-.347c-.184 0-.358.034-.528.083-.946.059-1.883.69-1.952 1.901-.2 3.518.626 6.821 2.255 9.929.296.565.732.865 1.2.961.275.165.607.27 1.01.27 28.613-.033 57.2-1.462 85.81-1.736.606-.006 1.064-.238 1.383-.581.575-.294 1.028-.843 1.097-1.651.221-2.604-.225-5.03-1.853-7.107-.552-.707-1.268-1.229-2.063-1.615m-3.849-.971c-3.377-.043-6.754-.047-10.132-.029-.316-6.789-1.164-13.505-2.546-20.15 9.697 2.594 13.692 10.318 12.678 20.18m-55.11-46.692c-.392 5.658-.047 11.664 3.116 16.384-.086.095-.166.199-.234.312-.679 1.12-1.446 2.176-2.232 3.224-.65.867-.141 2.215.712 2.714 1.014.594 2.067.152 2.714-.712.607-.81 1.191-1.635 1.745-2.482.695.583 1.446 1.082 2.234 1.517-.611 1.19-1.211 2.382-1.654 3.652-.355 1.022.395 2.168 1.386 2.44 1.095.301 2.086-.365 2.441-1.386.388-1.115.956-2.152 1.501-3.197.917.273 1.858.476 2.805.652-.24 1.18-.505 2.347-.941 3.475-.39 1.01.421 2.175 1.386 2.44 1.122.309 2.051-.378 2.441-1.386.465-1.206.738-2.456.992-3.72.018-.09.023-.179.032-.269.718.067 1.429.122 2.124.168 5.873.392 11.792.789 17.622 1.795 1.556 6.95 2.491 13.961 2.822 21.07-1.967.021-3.934.054-5.901.088-.158-.04-.324-.067-.508-.069-14.966-.161-29.938.315-44.898.004-.476-8.41-5.05-15.747-12.875-19.573-.294-.144-.583-.211-.86-.219-.109-8.896-.014-17.804-.513-26.692 8.178-.525 16.356-.57 24.543-.231m-14.276 46.614c-2.964-.092-5.929-.208-8.892-.384-.47-4.995-.677-10-.787-15.01 5.863 3.335 9.194 8.844 9.679 15.393m-10.263 9.765c-.775-1.678-1.237-3.394-1.359-5.202h.292c.281.156.598.253.938.248.888-.012 1.746-.146 2.587-.365.191.068.403.109.637.117 2.701.095 5.402.155 8.104.197.559.286 1.273.294 1.875.03 21.91.25 43.816-.981 65.729-.744.061.006.115.02.178.021 1.455.025 2.777.28 3.774 1.403.581.655.748 1.63.768 2.585-27.846.303-55.672 1.65-83.52 1.71"/></svg>