<svg xmlns="http://www.w3.org/2000/svg" viewBox="0 0 100 100" enable-background="new 0 0 100 100"><g fill="#1d1d1b"><path d="m94.98 15.478c-.056-1.024-.736-2.038-2.05-2.099-29.16-1.354-58.35-2.883-87.53-1.601-1.302.057-1.981 1.05-2.048 2.064-.051.186-.087.383-.087.605v4c0 .101.017.19.028.283-.001.083-.027.161-.028.251-.26 20.225-.219 40.489 2.402 60.58.016.124.049.237.081.35-.041 1.097.642 2.258 2.054 2.319 29.09 1.251 58.17-1.247 87.27-.267.248.008.465-.029.668-.085 1.01-.072 1.974-.751 2-2.05.428-21.306-2.319-42.495-2.669-63.782-.003-.209-.037-.395-.085-.571m-1.492 62.17c-27.913-.822-55.821 1.421-83.73.378-2.428-19.589-2.479-39.34-2.226-59.05.0001-.101-.015-.191-.025-.285.008-.083.025-.16.025-.248v-2.483c27.775-1.091 55.55.29 83.3 1.585.432 20.06 2.864 40.03 2.658 60.1"/><path d="m88.64 21.588c-.048-.826-.631-1.643-1.758-1.692-25-1.091-50.04-2.323-75.07-1.29-1.116.046-1.699.846-1.756 1.663-.044.15-.075.309-.075.487v3.226c0 .081.015.153.024.228-.008.067-.023.13-.024.202-.222 16.297-.188 32.627 2.06 48.816.014.1.042.191.07.282-.035.884.55 1.819 1.761 1.868 24.945 1.01 49.889-1 74.838-.215.212.007.399-.023.573-.068.863-.058 1.693-.605 1.715-1.652.367-17.17-1.989-34.24-2.289-51.4-.003-.167-.033-.318-.073-.459m-73.08 50.4c-2.082-15.785-2.126-31.698-1.909-47.581.0001-.082-.013-.154-.021-.23.007-.067.021-.129.021-.2v-2c23.819-.879 47.64.233 71.43 1.277.371 16.16 2.456 32.26 2.28 48.43-23.937-.663-47.871 1.144-71.805.304"/><path d="m29.5 31c1.935 0 1.935-3 0-3s-1.935 3 0 3"/><path d="m29.833 33.5c-1.935 0-1.935 3 0 3 1.935 0 1.935-3 0-3"/><path d="m38.04 26.41c-1.87 4.02-4.04 7.876-6.333 11.667-1 1.659 1.59 3.166 2.59 1.514 2.296-3.791 4.463-7.646 6.333-11.667.811-1.743-1.775-3.267-2.59-1.514"/><path d="m24.1 35.387c-1.941.263-3.607-.227-3.768-2.387-.002-.031-.011-.058-.015-.088.004-.027.012-.052.015-.079.273-2.106 1.72-2.684 3.667-2.5 1.926.182 1.909-2.82 0-3-1.53-.144-3.17.065-4.424 1.021-1.356 1.033-1.927 2.494-2.185 4.109-.031.104-.048.217-.053.339-.0001.011-.004.021-.005.032-.005.038.002.073.0001.11.0001.02-.003.036-.0001.057.0001.008.002.015.002.022.003.057.007.112.019.167.167 1.778.798 3.247 2.274 4.336 1.481 1.093 3.556.987 5.27.755.812-.11 1.242-1.138 1.048-1.845-.238-.868-1.035-1.159-1.845-1.049"/></g></svg>