<svg xmlns="http://www.w3.org/2000/svg" viewBox="0 0 100 100" enable-background="new 0 0 100 100"><g fill="#1d1d1b"><path d="m57.988 76.73c1.072-11.978 4.123-42.43 3.983-54.54-.077-6.624-2.917-20.515-12.492-19.1-7.365 1.087-7.748 13.676-8.116 19.12-.789 11.679.609 42.522 4.171 53.661-4.156 2.421-7.645 6.224-6.502 11.4.991 4.49 5.412 7.609 9.441 9.145 4.08 1.556 9.293 1.298 12.264-2.244 4.571-5.451 2.36-13.319-2.749-17.44m-12.847-50.21c.064-4.128-.391-18.01 4.919-19.555 3.348-.974 6.368 5.28 7.02 7.519 1.378 4.717 1.041 9.993.725 14.832-.08 1.223-.186 2.731-.313 4.45-4.123-.451-8.199-.336-12.279.248-.079-2.998-.103-5.583-.074-7.494m11.87 65.806c-2.094 1.834-5.781 1.043-8.04.054-2.662-1.163-5.342-3.251-6.126-6.164-1-3.725 3.302-6.305 6.03-7.667 1.164-.582 1.208-1.753.674-2.611.019-.238-.005-.495-.095-.773-2.282-7.04-3.612-24.381-4.101-37.15 3.942-.609 7.875-.696 11.849-.283-.973 12.674-2.593 31.994-3.231 39.769-.05.608.142 1.065.46 1.38.135.179.3.347.518.49 4.091 2.691 6.226 9.313 2.068 12.955"/><path d="m52.843 80.27c-2.21-1.344-4.219 2.116-2.02 3.454 2.182 1.328 3.03 2.969 2.081 5.408-.935 2.408 2.934 3.441 3.857 1.063 1.592-4.101-.338-7.746-3.919-9.925"/><path d="m29.5 27.14c2.114 0 4.224.019 6.333.193 2.575.213 2.558-4.43 0-4.641-2.109-.174-4.22-.193-6.333-.193-2.58 0-2.58 4.641 0 4.641"/><path d="m29.5 39.33h6.333c2.58 0 2.58-4.641 0-4.641h-6.333c-2.58 0-2.58 4.641 0 4.641"/><path d="m36.5 51.51c2.58 0 2.58-4.642 0-4.642h-6.333c-2.58 0-2.58 4.642 0 4.642h6.333"/><path d="m37.667 58.858h-6.333c-2.579 0-2.579 4.642 0 4.642h6.333c2.579 0 2.579-4.642 0-4.642"/></g></svg>