<svg xmlns="http://www.w3.org/2000/svg" viewBox="0 0 100 100" enable-background="new 0 0 100 100"><path d="m78.47 43.2l-.114.002c-2.562.092-5.74.185-8.945.278-2.994.088-6.01.177-8.576.266 1.475-6.493 4.337-12.945 7.109-19.2 2.51-5.658 5.104-11.509 6.637-17.327l.031-.114c.015-.051.028-.102.042-.15.562-.732.684-1.651.316-2.514-.454-1.067-1.572-1.813-2.72-1.813-.672 0-1.311.245-1.845.71-5.49 4.766-9.429 8.717-12.746 12.782-9.554 10.884-20.591 21.982-33.739 33.926-.061.055-.11.109-.099.109-.854.762-1.152 2.079-.724 3.204.409 1.076 1.358 1.718 2.538 1.718 5.184 0 10.68.011 16.231.129-7.238 14.575-14.346 25.763-22.303 35.12-.596.701-.814 1.564-.62 2.44.16 1.464 1.292 2.6 2.608 2.6.533 0 1.068-.188 1.547-.545 18.965-14.12 38.973-29.334 56.803-46.38.128-.122.243-.253.349-.398.812-.778 1.099-2.052.691-3.149-.392-1.061-1.316-1.694-2.471-1.694m-29.729 10.647c.436-.908.383-1.909-.144-2.746-.544-.864-1.523-1.422-2.495-1.422-.131 0-.261.001-.388.029-4.539-.142-8.984-.189-12.949-.208 10.47-9.735 19.522-18.927 27.621-28.04.205-.151.379-.32.532-.514.172-.221.35-.437.527-.651l.555-.649c.098-.109.177-.222.251-.336.967-1.157 1.993-2.312 3.094-3.479-.846 2.103-1.733 4.211-2.604 6.277-3.17 7.531-6.449 15.318-7.943 23.23-.02.107-.032.212-.04.313-.329.869-.243 1.882.237 2.639.475.748 1.281 1.177 2.213 1.177l.118-.003c2.325-.086 5.35-.171 8.36-.256 1.844-.053 3.683-.104 5.354-.156-12.302 11.297-25.303 21.618-36.19 29.939 4.739-7.303 9.312-15.586 13.889-25.15" fill="#1d1d1b"/></svg>