<svg xmlns="http://www.w3.org/2000/svg" viewBox="0 0 100 100" enable-background="new 0 0 100 100"><path d="m80 6.75c-14.166.238-22.333.25-36.5.25-2.58 0-2.58 4 0 4 2.476 0-1.048-.002 1.428-.005-3.41 8.107-6.68 16.263-10.905 23.995-.892 1.633.655 3.129 2.052 2.992.059.005.113.018.175.018h8.672c-3.347 7.594-6.448 15.291-9.601 22.968-.45 1.097.128 1.901.975 2.228.321.362.805.589 1.454.554 3.548-.194 7.099-.236 10.65-.246-3.056 10.345-7.3 20.275-10.829 30.464-.54 1.56.839 2.544 2.126 2.424.706.534 1.694.629 2.467-.228 12.79-14.178 23.497-30 35.06-45.16.999-1.309-.056-2.587-1.35-2.82-.249-.118-.54-.189-.877-.189h-8.282c4.927-6.826 9.968-13.568 14.759-20.491 1.072-1.549-.476-3.02-1.959-2.898-.247-.058-.513-.079-.8-.04-2.226.305-4.451.452-6.679.401 2.982-4.859 5.994-9.701 9.02-14.536 1.446-.942 1.102-3.722-1.055-3.686m-12.977 18.741c-.48.787-.343 1.544.083 2.099.296.587.844 1.059 1.644 1.16 2.311.293 4.596.292 6.883.127-4.655 6.573-9.477 13.03-14.157 19.582-1.185 1.047-.766 3.541 1.274 3.541h8.755c-9.09 12.08-17.773 24.484-27.542 36.03 3.173-8.52 6.546-16.966 8.966-25.745.236-.857-.071-1.538-.597-1.969-.315-.474-.837-.812-1.582-.812-3.534 0-7.07.016-10.596.147 3.03-7.412 6.03-14.835 9.323-22.14.175-.389.216-.767.173-1.121.19-1.111-.442-2.389-1.9-2.389h-8.688c3.812-7.471 6.882-15.269 10.165-22.991.003-.007.003-.014.006-.021 8.961-.017 17.921-.062 26.881-.188-3.049 4.885-6.093 9.774-9.09 14.691" fill="#1d1d1b"/></svg>