<svg xmlns="http://www.w3.org/2000/svg" viewBox="0 0 100 100" enable-background="new 0 0 100 100"><g fill="#1d1d1b"><path d="m73.931 33.779c-4.406 0-8.567 1.414-12.08 4.097-2.708-11.358-13.417-19.519-25.782-19.519-1 0-2.02.055-3.01.164-7.08.772-12.644 4.628-15.667 10.855-3.177 6.546-2.859 14.462.788 20.885-.124-.002-.248-.004-.372-.004-7.915 0-13.937 5.264-14.984 13.1-.493 3.687.418 6.882 2.709 9.5 3.837 4.384 10.54 5.946 15.534 5.946 1.149 0 2.273-.078 3.268-.223.095.013.19.024.295.024 16.86 0 35.969 0 54.808-.259.184-.003.37-.025.564-.07.266.037.543.04.845-.012 6.255-1.087 11.246-4.607 14.05-9.913 3.164-5.979 3.212-13.61.13-20.415-3.835-8.466-12.312-14.155-21.09-14.155m-50.28 22.421c1.179.188 2.432-.568 2.889-1.718.368-.925.133-1.906-.627-2.624-5.274-4.98-7.05-12.04-4.647-18.418 2.261-5.992 7.638-9.711 14.386-9.949 11.864-.41 21.688 8.754 21.713 20.07.003 1.645 1.297 2.505 2.573 2.505 1.148 0 2.09-.636 2.433-1.631 3.222-3.599 7.285-5.5 11.755-5.5 6.984 0 13.626 4.761 16.528 11.847 2.171 5.299 2.059 10.822-.308 15.15-2.117 3.871-5.758 6.389-10.533 7.284-.119-.017-.233-.03-.398-.027-18.829.26-37.936.26-54.794.26-.182 0-.36.018-.542.055-.193-.013-.396-.008-.609.025-.993.16-2.02.241-3.057.241-5.733 0-12.446-2.507-12.497-9.57-.016-2.278.772-4.286 2.281-5.805 1.853-1.866 4.684-2.937 7.767-2.937 1.16 0 2.293.153 3.371.458.187.053.38.083.586.093.519.254 1.099.335 1.73.19"/><path d="m29.465 70.12l-.063.089.087-.065c.285.273.659.439 1.062.439.333 0 .661-.112.947-.326 7.02-5.226 14.423-10.856 21.03-17.18.061-.058.117-.12.169-.187.447-.461.601-1.18.371-1.798-.236-.639-.811-1.037-1.565-1.037-.0001 0-.002 0-.003 0l-4.647.17h-.008c.547-2.302 1.317-4.589 2.066-6.813.639-1.896 1.299-3.856 1.825-5.843.275-.431.323-.959.117-1.444-.427-1-1.835-1.369-2.68-.637-2.055 1.785-3.533 3.267-4.767 4.78-3.512 4-7.572 8.08-12.408 12.476l-.09.091c-.471.463-.624 1.187-.38 1.826.245.642.83 1.04 1.526 1.04 1.612 0 2.68.003 4.01.026-.283.601-.56 1.198-.835 1.793-1.687 3.641-3.28 7.08-5.895 10.155-.34.398-.474.909-.373 1.413.053.405.237.763.502 1.028m15.783-26.911c-.864 2.797-1.537 5.492-2.039 8.148-.007.034-.012.067-.016.101-.157.486-.095 1.024.175 1.45.293.461.783.726 1.412.726.0001 0 .003 0 .004 0l2.333-.085c-3.369 3.01-6.824 5.812-9.95 8.246.491-1.059.931-2.12 1.365-3.167.506-1.223 1.03-2.486 1.628-3.734.256-.535.224-1.126-.088-1.623-.318-.506-.876-.819-1.455-.819-.059 0-.117.003-.174.001-.861-.027-1.524-.045-2.176-.057 3.351-3.168 6.305-6.193 8.981-9.196"/></g></svg>