<svg xmlns="http://www.w3.org/2000/svg" viewBox="0 0 100 100" enable-background="new 0 0 100 100"><g fill="#1d1d1b"><path d="m98.5 61.67c.009-.134 0-.257-.013-.377.003-.041.013-.081.013-.123v-2c0-.36-.106-.696-.279-.99-.202-.475-.587-.884-1.19-1.105-2.053-.753-3.799-2.032-4.372-4.222-.585-2.234 1.447-3.955 3.181-4.939.896-.108 1.698-.74 1.659-1.91-.164-4.867-.45-12.727-.758-17.587.77-1.219.256-3.198-1.572-3.079-.494-.138-1.026-.111-1.476.081-27.652 1.661-59.53-1.519-87.19-1.583-.67-.002-1.162.27-1.484.669-.309.319-.515.758-.516 1.331-.013 4.729-.176 12.449-.5 17.17-.027.399.054.728.197 1 .125.395.375.767.793 1.057 4.557 3.17 5.193 8.706 0 11.546-.039.021-.067.048-.103.071-.715.228-1.274.832-1.22 1.823.311 5.719.355 12.448.667 18.17.02.365.124.672.277.934.16.836.787 1.567 1.889 1.566 28.67-.02 61.33-.886 90-1 .216-.0001.408-.038.588-.091.98-.019 1.878-.65 1.745-1.909-.473-4.498-.629-9.985-.333-14.5m-90.23 13.492c-.229-4.845-.312-10.695-.548-15.54 6.784-4.273 6.078-12.41.319-17.216.253-3.847.381-10.697.427-14.552 26.726.2 57.634 3.118 84.34 1.613.252 4.071.482 11.142.636 15.218-2.92 1.771-5.073 4.596-4.795 8.193.272 3.523 2.86 5.977 5.854 7.428v.863c0 .105.016.207.032.308-.001.065-.027.124-.032.192-.252 3.85-.161 8.68.16 12.513-27.465.139-58.927.929-86.39.98"/><path d="m87.5 61.5c.044-.669-.196-1.159-.574-1.479-.116-.148-.248-.289-.416-.414-4.676-3.47-4.119-8.973.071-12.526.06-.051.101-.105.152-.157.033-.03.061-.064.093-.096.026-.03.057-.059.081-.09.301-.344.487-.773.427-1.238-.32-2.492-.499-7.994-.667-10.5-.011-.161-.037-.313-.076-.454.009-1.01-.629-1.971-1.924-1.88-21.307 1.512-46.822-1.333-68.17-1.333-1.455 0-2.089 1.273-1.902 2.383-.057.188-.098.389-.098.617 0 2.058-.008 7.114-.167 9.167-.007.095.002.18.006.268-.054.387.016.809.267 1.242 2.516 4.322 1.799 8.955-1.354 12.743-.021.025-.033.052-.053.078-.414.321-.7.818-.7 1.503 0 3.057-.001 7.113-.167 10.167-.012.241.021.452.074.648.039.966.676 1.887 1.926 1.852 22.441-.617 48.898.28 71.33-.667.527-.022.94-.213 1.251-.493.72-.398 1.236-1.178 1.01-2.205-.442-2.029-.563-5.065-.427-7.136m-71.12 6.459c.083-2.302.112-5.605.114-7.909 3.84-4.934 4.848-10.929 1.837-16.548 0-.0001 0-.002 0-.003.133-1.715.159-6.432.164-8.151 20.07.16 44.27 2.614 64.3 1.427.123 1.651.26 6.3.453 7.944-5.484 5.104-5.211 12.672.22 17.502-.047 1.399.027 3.793.209 5.176-21.09.793-46.2.066-67.3.562"/><path d="m51 43.33v18c0 2.579 4 2.579 4 0v-18c0-2.579-4-2.579-4 0"/></g></svg>