<svg xmlns="http://www.w3.org/2000/svg" viewBox="0 0 100 100" enable-background="new 0 0 100 100"><g fill="#1d1d1b"><path d="m75.54 12.677c-16.803-10.989-39.832-5.196-52.597 9.219-4.722 5.333-7.316 11.31-8.506 17.562-.692-.691-1.396-1.374-2.126-2.037-4.696-4.269-12.593 2.104-7.847 6.418 2.472 2.247 4.719 4.668 6.846 7.184.655.775 1.303 1.556 1.934 2.35.582.731 1.165 1.461 1.729 2.206.825 1.09 2.201 1.58 3.613 1.59 1.755.358 3.635-.194 4.825-2.185.246-.411.51-.804.769-1.203 1.177-1.817 2.483-3.506 3.923-5.077 2.383-2.6 5.12-4.889 8.263-6.898 2.347-1.5 2.219-5.03.547-6.804-2.01-2.132-4.955-1.885-7.301-.386-1.514.967-2.936 2.039-4.312 3.159.293-.978.635-1.951 1.033-2.919 3.743-9.103 13.963-15.93 23.937-17.974 16.709-3.422 30.05 10.328 34.06 23.951 4.645 15.781-2.318 37.607-21.793 41.12-11.782 2.125-23.13-3.364-30.635-11.74-.024.013-.05.024-.074.038-.055-.122-.134-.229-.198-.345-.29-.517-.67-.973-1.131-1.352-1.161-.956-2.766-1.435-4.396-1.129-2.774.521-4.665 3.104-4.155 5.679l.094.472c.111.564.346 1.077.648 1.544.136.209.291.402.458.587.137.151.274.299.43.433 7.592 8.405 18.448 14.207 30.521 15.59 22.16 2.54 38.07-14.942 41.494-33.838 3.078-16.988-5.127-35.456-20.05-45.22"/><path d="m50.964 56.83c5.875 2.884 11.596 6.02 17.16 9.446 5.439 3.347 10.427-5.04 5.02-8.366-4.741-2.917-9.604-5.618-14.574-8.141.369-7.05 1.137-14.06 1.62-21.1.43-6.24-9.52-6.199-9.946 0-.533 7.755-1.437 15.482-1.74 23.25-.006.151-.0001.295.005.438-.283 1.689.371 3.448 2.457 4.472"/></g></svg>