<svg xmlns="http://www.w3.org/2000/svg" viewBox="0 0 100 100" enable-background="new 0 0 100 100"><g fill="#1d1d1b"><path d="m97.21 37.936c-1.289-.987-2.893-1.023-4.437-.772-.093.015-.183.039-.271.065-.685-.487-1.358-.992-2.039-1.485.138-1.437.276-2.874.414-4.31.023-.241.007-.478-.041-.702 0-.421-.155-.852-.536-1.222-2.148-2.091-4.392-4.076-6.65-6.05-.085-.225-.221-.444-.423-.645l-12.936-12.859c-.353-.689-1.104-1.186-2.055-.906-4.638 1.364-8.186 4.49-10.48 8.704-.015.027-.021.053-.034.081-.396.52-.534 1.241-.112 1.957 1.587 2.693 3.251 5.497 5.083 8.162-4.847 3.99-9.904 7.758-15.01 11.481.906.769 1.739 1.574 2.54 2.395 4.925-3.6 9.804-7.245 14.483-11.1.931 1.196 1.906 2.342 2.943 3.405-3.999 4.322-7.941 8.72-11.908 13.1.866.702 1.8 1.368 2.853 1.97 3.862-4.265 7.703-8.546 11.598-12.755 3.451 2.804 7.513 4.68 12.518 4.818.688.938 1.403 1.857 2.089 2.796-.422.787-.716 1.638-.647 2.542.098 1.298.731 2.305 1.668 3.175.196.182.4.301.606.373.378.245.856.355 1.399.218 3.215-.808 6.209-2.671 8.451-5.104 1.683-1.827 3.557-5.323.929-7.336m-9.436 8.864c-.318-.569-.016-1.119.444-1.779.535-.769.595-1.762-.169-2.426-.038-.033-.083-.057-.125-.087-.889-1.243-1.858-2.426-2.74-3.675-.482-.682-1.458-.88-2.418-.973-.602-.058-1.198-.074-1.66-.142-1.574-.23-3.149-.536-4.616-1.174-3.508-1.525-6.603-4.505-8.906-7.5-1.249-1.623-2.367-3.35-3.471-5.074-.543-.848-1.076-1.703-1.594-2.567-.17-.284-1.581-2.279-1.452-2.5 1.675-2.89 4.056-5 7.125-6.192.703.698 1.405 1.397 2.108 2.095 2.691 2.676 5.374 5.36 8.09 8.01 1.542 1.508 3.094 3.01 4.649 4.502.805.774 1.612 1.547 2.418 2.32.223.214 2.02 1.626 1.976 1.892l-.425 4.424c-.011.113.011.219.016.33-.133.74.28 1.413.927 1.839 1.246.821 2.382 1.798 3.63 2.62 1.087.716 2.258-.787 3.4-.129.205 1.835-6.782 6.938-7.204 6.183"/><path d="m41.22 65.785c-.431-.577-.96-1.112-1.518-1.538-1.114 1.107-2.23 2.212-3.365 3.296-.005-.009-.007-.019-.011-.028-1.866-3.536-4.349-6.603-7.294-9.266-.093-.119-.178-.241-.271-.359-.008-.001-.016-.016-.024-.026 1.455-1.167 2.926-2.316 4.408-3.452-.648-.936-1.273-1.899-1.867-2.897-8.682 6.63-16.983 13.684-24.05 22.08-.141.168-.233.342-.301.516-.225.366-.276.836-.011 1.374 2.287 4.637 5.796 8.457 10.535 10.64.336.155.655.19.949.151.367.054.767-.02 1.163-.298 8.04-5.635 15.33-12.11 22.255-18.982-.036-.056-.075-.112-.104-.17-.168-.345-.328-.695-.493-1.042m-22.959 16.89c-3.3-1.705-5.947-4.372-7.724-7.634 4.694-5.454 9.917-10.335 15.419-14.913.231.198.436.414.661.617 2.393 3.112 4.62 6.349 6.391 9.862.004.009.001.015.015.023-4.682 4.283-9.558 8.349-14.762 12.05"/><path d="m71.77 65.862c-4.6-4.718-9.667-9.03-14.623-13.434-.272-.242-.543-.484-.813-.726-.855-.765-1.7-1.538-2.543-2.313-2.046-1.883-4.04-3.809-5.958-5.809-.784-.819-1.568-1.637-2.319-2.485-.014-.016-.03-.026-.044-.041-.083-.087-.17-.161-.261-.224-1.16-1.156-2.275-2.308-3.312-3.422-.173-.186-.344-.389-.516-.578-1.673-1.827-3.334-3.752-4.94-5.757-.89-1.11-1.784-2.268-2.659-3.438-.073-.098-.244-.306-.467-.576-.311-.376-1.14-1.38-1.537-1.95 1.441-5.05.368-9.664-2.983-12.736-3.511-3.219-8.548-4.638-14.215-4.04-1.088.114-1.892.886-2.047 1.965-.146 1.015.319 2.061 1.12 2.646.299.406.718.711 1.219.881 2.32.79 4.752 1.871 5.192 3.896.316 1.452-1.34 2.89-1.855 3.295-1.302 1.025-3.234 1.45-4.834 1.045-2.525-.634-3.937-3.308-4.593-5-.042-.571-.272-1.106-.67-1.539-.501-.545-1.206-.857-1.932-.857-1.082 0-1.977.693-2.28 1.767l-.03.114c-.022.072-.038.134-.04.154-1.591 5.893-.656 11.253 2.634 15.09 2.042 2.382 4.862 3.641 8.155 3.641 1.595 0 3.288-.301 4.951-.875 2.456 2.798 5.05 5.47 7.569 8.06l1.683 1.735c.502.519.986 1.049 1.463 1.586 1.104 1.241 2.164 2.531 3.253 3.868.09.111.179.218.27.33l1.135 1.391c.103.125.222.229.35.321.161.196.32.394.48.591 2.33 2.884 4.543 5.915 6.737 8.977.679.947 1.356 1.897 2.034 2.847 1.08 1.512 2.164 3.02 3.262 4.517 7.01 9.535 14.629 18.434 25.994 23.03.474.192.914.139 1.275-.049.235-.029.479-.129.717-.34 3.913-3.462 7.552-8.722 4.898-14.06-2.164-4.357-5.548-8.03-8.92-11.492m-42.479-25.341c-2.724-2.804-5.541-5.702-8.138-8.723l-.71-.825-1 .419c-1.622.677-3.289 1.034-4.819 1.034-2.425 0-4.402-.872-5.878-2.594-2.962-3.455-2.916-7.789-2.372-10.777 1.445 3.171 3.642 5.252 6.274 5.913 2.482.623 5.408-.012 7.422-1.599 2.332-1.837 3.399-4.13 2.93-6.289-.773-3.552-4.413-5.125-6.512-5.874 4.234-.133 7.702 1.01 10.284 3.378 3.66 3.355 2.605 8.236 1.981 10.181-.31.967.151 1.66 2.254 4.206.18.218.319.384.377.462.895 1.196 1.81 2.379 2.72 3.516 1.44 1.799 2.927 3.521 4.424 5.186.393.437.782.891 1.176 1.316.955 1.027 1.972 2.084 3.03 3.146-.142.25-.348.551-.592.879-1.352 1.817-4.03 4.577-5.374 5.469-.074-.083-.151-.158-.232-.22l-.397-.486c-.062-.076-.125-.153-.187-.229-.92-1.131-1.864-2.277-2.842-3.406-.689-.795-1.392-1.583-2.126-2.343l-1.689-1.74m45 48.24c-10.07-4.346-17.08-12.263-23.448-20.845-1.422-1.916-2.813-3.864-4.199-5.814-.676-.951-1.351-1.902-2.028-2.85-1.951-2.733-3.92-5.434-5.979-8.02 1.435-.995 3.075-2.614 4.426-4.181.705-.818 1.321-1.612 1.794-2.297.186.196.363.399.551.594 2.061 2.133 4.235 4.167 6.448 6.164.85.767 1.703 1.531 2.561 2.29 1 .887 2.01 1.773 3.01 2.657 2.202 1.94 4.392 3.887 6.503 5.894 3.871 3.681 7.842 7.422 11.09 11.68 4.02 5.268 4.84 9.677-.731 14.727"/></g></svg>