<svg xmlns="http://www.w3.org/2000/svg" viewBox="0 0 100 100" enable-background="new 0 0 100 100"><path d="m23.2 29.04c.747.515 1.57.833 2.427 1.018-1.024 19.05-3.039 38.931 3.926 57.11.335.874.95 1.421 1.655 1.701.242.339.587.64 1.084.861 12.448 5.529 25.678 5.286 38.442.858 1.668-.579 2.176-2.162 1.872-3.511 2.424-18.448 4.724-37.442 2.821-56.05 1.506-.332 2.914-.967 3.959-2.13 2.067-2.3 1.669-5.259.652-7.898.002-.734-.344-1.436-1.129-1.918-.312-.241-.682-.409-1.076-.498-5.717-2.443-11.802-3.72-18.03-4.313.11-.556.062-1.165-.208-1.79-1.943-4.482-5.813-9.766-11.379-9.05-5.358.693-7.955 5.922-9.04 10.717-3.579.188-7.123.424-10.584.624-.024.0001-.045.009-.069.011-.164-.021-.331-.031-.502-.011-3.71.436-6.833 2.21-8.457 5.694-.216.463-.323.952-.334 1.431-.144.472-.154 1.015.046 1.624.752 2.282 1.93 4.135 3.921 5.509m43.866 56.75c-10.556 3.251-21.57 3.599-31.894-.986-.157-.07-.312-.112-.466-.155-6.34-17.453-4.353-36.433-3.368-54.651 12.603-.893 25.298-1.088 37.85.494.149.156.319.292.509.411 1.882 18.21-.266 36.806-2.631 54.887m-18.355-76.7c2.488-.322 4.232 2.563 5.306 4.829-2.971-.103-5.956-.086-8.932 0 .604-2.189 1.661-4.575 3.626-4.829m-22.658 12.12c-.351.304.946-.482.534-.311.288-.12.591-.201.892-.284-.069.019.943-.169.545-.123.035-.004.068-.014.103-.019.151.014.301.029.467.019 14.875-.862 32.18-2.957 46.31 3.01.045.133.103.261.144.396.056.196.103.395.143.595.003.044.006.091.011.16.004.103-.004.207-.008.31-.002.009-.007.029-.001.039-.06-.001-.474.288-.305.256-.314.116-.64.198-.965.271-.155.035-.361.06-.593.078-.303-.219-.679-.383-1.161-.449-14.48-1.988-29.02-1.812-43.565-.673-.262.021-.499.078-.723.15-1.418-.02-2.322-.708-2.915-2.166.274-.46.561-.796 1.097-1.26"/><path d="m40.583 39.32c-.034-3.679-5.741-3.682-5.708 0 .084 9.194 1.144 18.284 2.283 27.396.45 3.602 6.163 3.646 5.708 0-1.14-9.113-2.199-18.202-2.283-27.396"/><path d="m52.57 38.749c-.197-3.66-5.906-3.68-5.708 0 .544 10.09.908 20.2 1.998 30.25.392 3.619 6.104 3.657 5.708 0-1.09-10.05-1.455-20.16-1.998-30.25"/><path d="m59.52 39.22c1.537 11.291.802 22.705.754 34.06-.015 3.681 5.692 3.68 5.708 0 .05-11.903.653-23.74-.958-35.575-.495-3.632-5.994-2.079-5.504 1.518"/></svg>