<svg xmlns="http://www.w3.org/2000/svg" viewBox="0 0 100 100" enable-background="new 0 0 100 100"><path d="m21.811 88.12c.146.435.377.77.652 1.031.279.407.702.741 1.299.921 15.904 4.789 34.47 6.598 50.03-.246.288-.127.509-.289.695-.467.786-.132 1.464-.665 1.651-1.727 1.774-10.09 2.937-20.261 3.697-30.464 2.097-.691 4.11-1.627 5.976-2.843 11.608-7.562 3.925-19.435-4.443-25.692-.1-.075-.2-.123-.299-.18.115-3.586.23-7.01-.682-10.01-.897-2.946-2.79-5.476-6.656-7.333-6.436-3.093-14.852-3.073-21.854-3.46-3.064-.169-6.06-.086-9.114.134-8.707-.118-36.06 1.784-33.01 14.811.158 22.361 4.989 44.38 12.05 65.52m59.1-53.3c2.942 2.449 5.731 5.542 5.815 9.425.075 3.519-3.578 5.94-6.498 7.226.332-5.544.546-11.1.683-16.651m-5.493 15.245c-.091 1.012-.191 1.994-.292 2.949-6.864 1.264-14.206-.449-20-4.264.217-.368.415-.739.568-1.114.847-2.063.287-4.446-1.17-6.06-1.478-1.643-3.836-1.994-5.899-1.577-2.832.573-5.01 2.97-6.515 5.276-.193.296-.303.589-.344.871-.099.169-.186.353-.244.571-.549 2.037-.597 4.56 1.185 6.04 2.655 2.199 6.06 1.575 8.782-.224 6.426 4.667 14.994 6.857 23.03 5.831-1.206 9.27-3.353 18.43-5.61 27.485-.067.268-.079.517-.068.757-13.413 4.883-29.26 2.97-42.688-.929-6.06-18.381-10.414-37.36-11.331-56.694 9.383 5.337 22.863 4.734 32.957 3.961 7.401-.567 16.644-1.593 24.23-4.895 2.853 3.955 3.722 9.258 3.766 14.604-.097 2.475-.213 4.949-.351 7.421m-29.854-1.273c.009-.216.077-.47.196-.909.025-.092.03-.177.044-.266.033-.044.07-.078.101-.126.539-.827 1.143-1.553 1.877-2.215.195-.176.487-.378.878-.609.132-.078.271-.142.409-.208-.012.016.319-.116.361-.129.119-.038.242-.061.364-.087.084-.013.224-.036.279-.039.122-.006.244.002.365.008.064.007.132.015.173.024.088.02.172.051.258.079.065.027.148.062.192.086.036.02.099.062.154.1.065.06.131.118.193.181.0001.0001.0001.002.002.003.053.082.107.163.155.247.006.011.008.012.013.021.025.072.04.146.058.22-.029-.059.006.273.018.519-.026.023-.104.383-.162.615-.038.073-.134.292-.155.33-.099.183-.216.356-.333.529-.028.042-.041.062-.059.09-.023.019-.065.063-.161.172-.161.186-.338.357-.515.528-.58.562-1.26 1.01-1.965 1.399-.1.001-.197.014-.302.038-.689.156-.911.201-1.646.204-.112-.0001-.223-.009-.334-.017-.027-.005-.049-.001-.089-.017-.047-.011-.093-.027-.14-.04-.018-.001-.108-.046-.189-.082-.008-.03-.017-.06-.024-.09.056.158-.02-.438-.016-.559m-21.922-21.624c.568-1 1.727-2.081 2.686-2.429.399-.145.749-.369 1.04-.643.098-.007.192-.005.294-.024 12.291-2.214 24.542-1.81 36.47 1.581-5.951 1.556-12.382 2.088-17.541 2.483-6.86.526-15.509.943-22.949-.968m19.02-14.496c.027-.0001.05.004.077.002.005 0 .014-.0001.02-.0001.045.0001.101 0 .143.0001.147.002.281-.016.414-.034 6.377-.319 35.735-.144 31.18 8.54-1.212.85-2.544 1.579-3.945 2.224-.236-.647-.732-1.209-1.558-1.487-13.897-4.673-28.28-5.256-42.663-2.667-.56.101-.972.339-1.265.651-.023.007-.046.007-.069.015-2.728.987-4.89 3.01-6.078 5.624-1.248-.564-2.436-1.219-3.537-1.992-5.217-9.814 21.283-10.935 27.28-10.876" fill="#1d1d1b"/></svg>