<svg xmlns="http://www.w3.org/2000/svg" viewBox="0 0 100 100" enable-background="new 0 0 100 100"><g fill="#1d1d1b"><path d="m81.08 31.544c.909-3.01.934-6.068-.492-9.03-1.358-2.82-4.296-4.494-7.224-5.451-.183-4.423-2.333-8.09-6.731-9.753-4.129-1.563-8.726.088-12.174 2.675-7.143-7.592-17.69-3.435-22.585 5.061-9.674-1.836-16.872 6.31-15.312 15.708-4.159 2.305-6.828 6.133-5.838 11.161.911 4.623 5.334 7.668 9.641 9.126-.423 3.467.34 6.991 3.366 9.204 3.081 2.253 7.04 2.238 10.633 1.327.164 2.025.324 4.05.461 6.074-1.326-.397-2.641-.83-3.982-1.176-1.044-.27-1.867.139-2.366.803-.43.307-.773.754-.968 1.291-.698 1.919-1.167 3.91-1.865 5.829-.115.318-.131.646-.077.963-.062.593.121 1.222.677 1.772 2.701 2.674 5.631 5.083 8.739 7.267-.212 2.889-.578 5.773-1.178 8.65-.612 2.934 3.882 4.182 4.496 1.24 2.419-11.591 1.496-23.19.55-34.893-.067-.828-.481-1.419-1.032-1.788-.401-.955-1.343-1.616-2.619-1.16-2.62.937-5.699 1.689-8.309.319-2.415-1.268-2.213-4.298-1.647-6.544.096-.383.099-.734.036-1.053-.002-.911-.5-1.782-1.664-2.048-3.328-.761-6.892-2.402-8.21-5.807-1.332-3.439 1.722-5.73 4.473-7.03 1.135-.3 2.064-1.332 1.635-2.788-2.138-7.249 2.829-13.743 10.475-11.628 1.017.656 2.398.613 3.046-.797 2.937-6.398 11.195-12.68 16.718-5.137.413 1.539 2.438 2.658 3.901 1.179 4.835-4.887 13.533-5.215 13.04 3.481-.015.267.019.501.074.72.105.795.61 1.514 1.638 1.761 2.471.595 4.822 1.507 6.155 3.796 1.259 2.162.301 4.991-.555 7.092-.392.961-.104 1.727.478 2.214.193.253.46.479.827.653 6.209 2.943 10.03 8.703 8.315 15.659-1.814 7.344-9.09 8.929-15.426 6.795-1.01-.927-2.708-1.087-3.518.469-1.209 2.323-2.893 4.822-5.733 5.141-2.709.304-4.881-1.855-6.459-3.748-1.928-2.312-5.208 1.01-3.297 3.297 1.754 2.104 3.944 3.859 6.474 4.648-.902 8.843-1.716 17.678-1.562 26.578.052 3 4.715 3.01 4.663 0-.152-8.811.644-17.559 1.534-26.313 3.146-.595 5.561-2.76 7.299-5.373 8.05 2.459 16.882-.222 20.01-8.736 3.179-8.654-.879-17.337-8.531-21.7m-45.872 47.25c-1.658-1.281-3.237-2.654-4.758-4.102.349-1.062.666-2.135.997-3.203 1.216.367 2.425.757 3.654 1.079.088 2.077.125 4.152.107 6.226"/><path d="m41.647 19.757c-3.01 0-3.01 4.663 0 4.663s3.01-4.663 0-4.663"/><path d="m66.36 31.414c3.01 0 3.01-4.663 0-4.663-3.01 0-3.01 4.663 0 4.663"/><path d="m32.788 46.1c3.01 0 3.01-4.663 0-4.663s-3.01 4.663 0 4.663"/><path d="m51.44 35.844c-3.01 0-3.01 4.663 0 4.663s3.01-4.663 0-4.663"/><path d="m73.12 46.1c-3.01 0-3.01 4.663 0 4.663s3.01-4.663 0-4.663"/><path d="m57.968 55.2c3.01 0 3.01-4.663 0-4.663-3.01 0-3.01 4.663 0 4.663"/><path d="m29.99 26.984c-3.01 0-3.01 4.663 0 4.663s3.01-4.663 0-4.663"/></g></svg>