<svg xmlns="http://www.w3.org/2000/svg" viewBox="0 0 100 100" enable-background="new 0 0 100 100"><path d="m92.71 20.889c-.595-.04-1.2.146-1.759.546-12.11 8.679-27.429 16.729-42.24 24.513-15.47 8.128-31.466 16.532-44.01 25.74-.278.203-.515.444-.718.733-1.091.663-1.63 2.085-1.287 3.437.335 1.322 1.4 2.142 2.818 2.142 3.648-.041 7.562-.059 11.659-.059 15.852 0 34.707.271 51.34.509 8.159.116 15.909.228 22.736.3h.039c1.666 0 2.524-1.114 2.784-2.189.285-.458.431-.981.433-1.56.028-9.82.466-18.938.888-27.754.358-7.481.729-15.216.862-23.489.014-.818-.254-1.528-.772-2.055-.667-.678-1.745-.994-2.772-.814m-78.2 51.06c10.83-7.67 24.664-14.678 38.06-21.463 13.199-6.686 26.837-13.594 37.546-21.12-.177 6.414-.463 12.404-.74 18.206-.397 8.317-.772 16.181-.853 25.14-5.38-.064-11.494-.148-17.972-.238-17.985-.248-38.37-.529-53.912-.529-.722 0-1.431.0001-2.129.002" fill="#1d1d1b"/></svg>