<svg xmlns="http://www.w3.org/2000/svg" viewBox="0 0 100 100" enable-background="new 0 0 100 100"><g fill="#1e1e1c"><path d="m95.57 44.01c-3.263-3.249-6.643-6.371-10.115-9.393-.433-.376-.901-.564-1.365-.611-.246-.07-.513-.113-.819-.095-3.809.223-7.609.391-11.421.269-.048-1.695-.1-3.391-.14-5.086-.041-1.746-1.586-2.511-2.915-2.291-.235-.072-.488-.121-.777-.117-20.02.304-40.04-.006-60.05-.641-.97-.031-1.636.418-2 1.052-.625.359-1.049 1.023-.97 1.999 1.106 13.715.282 27.448.24 41.18-.0001.339.064.634.166.899.141.651.515 1.257 1.112 1.628.388.465.977.775 1.772.764 2.092-.028 4.182-.031 6.272-.031.585.033 1.171.067 1.756.112.151.012.29.004.426-.009-2.083 2.434-3.114 5.548-1.802 8.933 2.325 5.992 10.854 7.667 16.315 5.484 4.704-1.88 7.493-6.615 6.547-11.618-.183-.969-.53-1.812-.981-2.562 10.771.272 21.541.613 32.32.649.199.051.41.086.646.086h1.266c-2.09 3.081-2.937 7.326-1.291 10.581 2.596 5.134 10.917 6.04 15.194 3.107 4.133-2.834 5.604-7.406 4.536-11.32-.226-.827-.572-1.622-1.024-2.368h5.205c1.416.512 3.33-.209 3.33-2.167v-25.289c0-.764-.293-1.337-.732-1.725-.043-.486-.25-.979-.696-1.423m-65.3 39.21c-2.896 1.742-8.378 1.194-10.44-1.621-2.31-3.151 1.405-6.245 4.224-7.471.145.001.291.016.452-.0001 2.765-.279 7.178-.363 8.433 2.822.978 2.485-.555 5-2.669 6.271m-15.82-14.502c-1.459-.081-2.919-.146-4.379-.22.095-12.534.72-25.07-.139-37.583 19 .582 38.02.863 57.03.596.327 12.731.832 25.456 1.152 38.19-17.889-.09-35.768-.985-53.66-.98m65.27 16.486c-.024.0001-.046-.005-.07-.004-2.588.119-4.622-.737-6.106-2.811-.575-3.622 1.113-6.199 4.249-7.555 2.91-.455 6.4.143 7.393 3.329 1.1 3.538-2.628 6.03-5.466 7.04m12.462-15.412h-19.251c-.258-10.267-.64-20.53-.95-30.795 3.631.109 7.252-.042 10.879-.251 3.186 2.798 6.3 5.673 9.305 8.665.006.006.012.009.018.014v22.367z"/><path d="m88.85 47.778c-2.142-1.314-4.131-3.058-6.079-5.331-.044-.051-.09-.094-.125-.119-.357-.427-.883-.662-1.481-.662h-4.5c-.167 0-.329.021-.503.065h-.047c-.976 0-2.02.652-2.115 1.896-.312 3.897-.312 7.849 0 11.747.001.12.029.232.057.341.049.939.714 1.897 1.919 1.952l10.541.479.549.023c.178 0 .353-.024.533-.074.866-.081 1.813-.699 1.898-1.893.077-1.087.122-2.176.167-3.265.045-1.079.089-2.158.166-3.235.022-.326-.026-.631-.129-.864-.142-.437-.436-.803-.851-1.059m-3.071 2.746c-.054.903-.096 1.808-.138 2.712l-.041.866-7.698-.351c-.156-2.668-.165-5.383-.024-8.09h2.415c1.682 1.891 3.524 3.523 5.486 4.858m1.285 7.145l-.0001-.011h.0001v.011"/><path d="m55.91 40.852c-1.654-1.045-3.402-1.83-4.881-2.296-5.781-1.824-12.16-1.088-18.1-.672-5.932.415-14.975 1.968-17.365 8.445-2.02 5.473 3.421 10.668 7.884 12.5 9.605 3.942 32.31 6.085 37.652-5.934 1.84-4.139-1.646-9.801-5.193-12.04m-.473 10.312c-4.157 4.673-12.944 5.31-18.705 5.182-4.067-.09-10.891-.837-14.02-3.668-1.685-1.523-1.875-4.17-.463-6.087 3.908-5.309 12.857-5.05 18.639-4.419 3.15.342 19.978 2.889 14.55 8.992"/></g></svg>