<svg xmlns="http://www.w3.org/2000/svg" viewBox="0 0 100 100" enable-background="new 0 0 100 100"><path fill="#1d1d1b" d="m84.29 11.788c-.125-.104-.26-.198-.402-.279-1.114-.735-2.539-.587-3.457.331-.589.509-.924 1.228-.947 2.036-.246 8.454-5.546 15.352-16.679 21.706-3.885 1.792-7.847 3.813-11.799 6.02-.063-.128-.126-.256-.188-.385-.466-.966-1.36-1.542-2.393-1.542-1 0-2 .564-2.551 1.437-.531.846-.584 1.853-.146 2.762.097.202.196.403.296.604-.846.504-1.688 1.014-2.522 1.525l-.292-.462c-.536-.849-1.408-1.335-2.394-1.335-1.091 0-2.129.604-2.644 1.537-.475.86-.432 1.891.114 2.755l.358.568c-1.033.666-2.01 1.301-2.94 1.918-.079-.105-.158-.21-.236-.315-.562-.759-1.424-1.195-2.364-1.195-1.14 0-2.229.645-2.713 1.605-.441.876-.336 1.896.279 2.728.096.129.191.258.288.386-6.768 4.664-13.386 9.563-20.12 14.587h-5.405c-.83 0-1.562.313-2.087.89-1.127.85-1.512 2.273-.932 3.548 1.077 2.371 2.582 4.453 4.473 6.191.536.681 1.417 1.096 2.357 1.096 1.265 0 2.324-.721 2.764-1.883.663-1.754 1.631-3.476 2.879-5.119.234-.31.397-.648.485-.999.487-.363.974-.726 1.462-1.088 2.403 3.43 6.229 5.238 11.11 5.238 6.516 0 13.291-3.097 16.427-4.741.09.121.179.243.267.366.559.777 1.423 1.223 2.373 1.223 1.126 0 2.211-.64 2.699-1.591.448-.873.355-1.896-.248-2.737-.032-.045-.065-.09-.098-.135.645-.392 1.316-.804 2.02-1.244.017.021.033.042.05.063.569.724 1.425 1.14 2.348 1.14 1.165 0 2.268-.656 2.741-1.632.421-.865.305-1.858-.309-2.67.669-.439 1.334-.881 1.993-1.324.383.464.77.924 1.162 1.38.54.628 1.265.974 2.042.974 1.088 0 2.143-.705 2.625-1.754.473-1.031.306-2.209-.438-3.073-.219-.255-.436-.512-.65-.77 7.595-5.401 15.238-12.43 12.314-20.323-.054-.396-.193-.774-.417-1.126-.405-.637-.861-1.209-1.366-1.714 6.293-2.123 12.837-2.079 19.738.106.301.095.604.143.901.143 1.379 0 2.521-1.049 2.716-2.464.061-.244.089-.481.086-.72-.105-8.747-4.707-16.849-12.626-22.243m-50.716 56.831c-2.415.241-4.912.491-7.483 1.353-.107.035-.212.076-.315.125-1.834.217-3.291-.496-4.327-2.1 3.719-2.736 8.232-6.01 12.955-9.259.67.875 1.341 1.749 2.01 2.623 1.486 1.936 2.972 3.871 4.44 5.818-2.325.943-4.746 1.186-7.282 1.44m12.34-4.234c-1.548-2.056-3.115-4.099-4.684-6.142-.691-.901-1.384-1.803-2.074-2.706.846-.557 1.693-1.108 2.545-1.656 1.843 2.878 3.946 6.085 6.228 9.279-.667.41-1.338.819-2.02 1.225m6.876-4.276c-2.266-3.17-4.378-6.394-6.232-9.291.704-.432 1.419-.864 2.139-1.293 1.833 3.243 3.846 6.372 6.01 9.334-.604.401-1.24.816-1.914 1.25m11.5-8.549c-1.453 1.335-3.062 2.658-4.894 4.02-2.054-2.814-3.976-5.81-5.733-8.934 3.699-2.071 7.43-3.988 11.11-5.709.214-.064.411-.148.602-.255l.68-.343c.235-.111.47-.222.694-.323.179-.024.352-.037.517-.037.632 0 1.562.147 2.458 1.381.03.084.064.169.104.254 1.578 3.404-2.677 7.313-5.539 9.943m18.707-21.842c-1.337 0-2.675.076-4 .228 2.739-3.295 4.588-6.864 5.524-10.667 3.297 3.183 5.464 7.07 6.274 11.271-2.62-.553-5.233-.832-7.793-.832"/></svg>