<svg xmlns="http://www.w3.org/2000/svg" viewBox="0 0 100 100" enable-background="new 0 0 100 100"><g fill="#1d1d1b"><path d="m12.399 88.75c1.83.299 3.887.591 6.274.889.098.353.2.704.302 1.055.222.762.452 1.549.619 2.33.271 1.27 1.534 2.227 2.938 2.227.261 0 .518-.034.762-.101 1.554-.428 2.458-2 2.104-3.665-.083-.39-.181-.774-.28-1.137 8.974.845 19.07 1.273 30.02 1.273 5.591 0 11.341-.113 17.1-.337-.077.46-.198.896-.382 1.379-.253.667-.198 1.419.157 2.118.402.793 1.123 1.399 1.925 1.62.269.074.541.112.807.112 1.264 0 2.364-.829 2.871-2.164.367-.964.579-2.01.675-3.343 3.076-.161 6.03-.344 8.785-.546 1.825-.133 2.812-1.623 2.867-3.057 6.201-17.956 6.05-38.837-.428-60.39-.39-1.297-1.47-2.103-2.82-2.103-.16 0-.32.012-.479.034-.291-.084-.562-.124-.843-.124-6.302-.016-13.12-.141-20.343-.274-7.533-.138-15.306-.281-23-.307 5.064-3.306 10.02-6.839 14.765-10.518.951-.738 1.291-1.762.932-2.81-.429-1.252-1.785-2.196-3.154-2.196-.692 0-1.359.234-1.93.677-6.863 5.323-14.294 10.341-22.09 14.912l-.79.012c-1.347-7.176-3.191-13.779-5.633-20.17-.474-1.241-1.606-2.01-2.955-2.01-1.064 0-2.058.481-2.591 1.257-.476.691-.551 1.559-.214 2.442 2.272 5.947 4.02 12.05 5.327 18.639-5.02.167-9.42.419-13.438.768-1.147.099-2.067.749-2.541 1.789-.335.343-.579.758-.725 1.235-6.265 20.551-5.45 40.951 2.357 58.992.552 1.277 1.768 1.86 3.054 1.501m.029-57.677c7.293-.563 16.17-.837 27.13-.837 8.512 0 17.18.158 25.561.311 6.823.124 13.275.242 19.233.268 5.459 19.434 5.519 37.534.178 53.814-9.728.669-20.02 1.023-29.796 1.023-15.804 0-29.867-.93-40.697-2.691-6.376-15.659-6.93-33.585-1.605-51.888"/><path d="m20.558 80.51c8.385 1.368 17.258 2.033 27.12 2.033 6.282 0 13.05-.272 20.69-.832 1.635-.12 2.54-1.416 2.631-2.693 4.425-12.884 4.313-27.846-.327-43.28-.391-1.3-1.571-2.07-2.917-1.941-.216-.052-.428-.078-.644-.078-4.685-.012-9.453-.112-14.06-.209-4.929-.104-10.03-.21-15.04-.21-7.338 0-13.392.229-19.05.72-1 .087-1.844.66-2.29 1.546-.272.302-.471.657-.594 1.059-4.502 14.769-3.914 29.436 1.702 42.41.496 1.145 1.621 1.728 2.791 1.467m.489-41.08c5.091-.381 10.531-.56 17.04-.56 4.982 0 10.05.105 14.959.208 4.207.087 8.548.178 12.837.202 3.674 13.359 3.72 25.81.138 37.03-6.899.468-13 .696-18.633.696-9.218 0-17.481-.605-25.24-1.849-4.303-10.802-4.686-23.13-1.107-35.728"/><path d="m80.68 46.771c.898 0 1.657-.331 2.195-.956.468-.544.726-1.271.726-2.046 0-1.492-1-3-2.921-3-.898 0-1.657.331-2.195.956-.468.544-.726 1.271-.726 2.046 0 1.492 1 3 2.921 3"/><path d="m80.989 50.15c-.898 0-1.657.331-2.195.956-.468.544-.726 1.271-.726 2.046 0 1.492 1 3 2.92 3 .898 0 1.657-.331 2.194-.956.468-.544.726-1.271.726-2.046.0001-1.491-1-3-2.919-3"/></g></svg>