<svg xmlns="http://www.w3.org/2000/svg" viewBox="0 0 100 100" enable-background="new 0 0 100 100"><g fill="#1d1d1b"><path d="m95.47 31.725c-1.645-.814-3.299-1.609-4.921-2.466 1.222-1.946 2.301-3.972 3.265-6.07.546-1.187.348-2.573-.86-3.281-.815-.477-2.02-.401-2.767.216-2.746.856-5.409 1.934-8.03 3.102-.676-.955-1.456-1.865-2.366-2.711-12.345-11.483-32.412-.947-37.844 11.567-10.635-.475-19.61-5.889-26.963-12.538-.316-.286-.658-.457-1-.552-1.261-.57-2.947-.293-3.275 1.291-1.484 7.16.541 13.911 5.6 19.14-1.01-.032-2.02-.073-3.03-.137-.438-.028-.807.041-1.122.169-1.646-.335-3.622.763-2.899 2.575 1.976 4.953 5.483 8.789 10.121 11.148-.5.005-1 0-1.509-.02-.311-.012-.582.031-.831.099-1.508.245-2.793 1.662-1.738 3.162 3.274 4.654 7.794 8.099 13.297 10.26-3.237 3.237-7.825 4.403-12.902 4.03-.199-.014-.384-.009-.558.012-.381.005-.77.087-1.145.284-1.07.562-1.619 1.993-.867 2.965.097.125.204.239.304.359-2.076-.206-4.142-.511-6.209-.931-2.243-1.108-5.03 1.64-2.898 3.395 4.179 3.439 8.877 5.998 14.11 7.927.506.186.957.204 1.349.112 29.08 7.101 55.2-13.149 63.63-37.23.781-2.231 1.402-4.635 1.788-7.093 3.558-1.212 7.05-2.594 10.541-3.989 2.475-.991 1.846-4.654-.267-4.801m-18.357 18.886c-8.941 20.493-32.34 36.551-57.4 29.717-.281-.077-.541-.097-.79-.092-1.068-.417-2.112-.872-3.13-1.365 2.048.118 4.106.146 6.176.079 2.814-.091 3.079-3.646.788-4.242-.057-.031-.107-.067-.167-.092 4.873-1.027 9.07-3.624 11.856-7.793.858-1.286.058-2.499-1.112-2.991-.226-.168-.491-.311-.816-.409-4.072-1.231-7.574-3.273-10.376-6.04 2.854-.234 5.662-.771 8.444-1.487 2.804-.721 1.859-4.445-.745-4.268-.257-.105-.54-.182-.864-.206-5.956-.437-10.761-3.283-13.594-7.697 2.435.098 4.872.11 7.312.111 2.767 0 3.071-3.411.923-4.177-5.2-3.633-8.383-8.512-8.606-14.12 7.907 6.28 17.366 10.862 28.22 10.932.64.004 1.141-.181 1.518-.469.575-.22 1.062-.651 1.295-1.339 2.873-8.447 12.544-15.838 22.816-14.344 4.04.588 7.421 2.506 9.537 5.655 4.861 7.233 1.877 17.393-1.285 24.638m7.839-21.11c-.169-.684-.365-1.361-.605-2.023.752-.333 1.509-.653 2.269-.965-.403.654-.821 1.299-1.259 1.934-.249.36-.369.714-.405 1.054m.652 5.798c-.007-1.217-.079-2.429-.252-3.622.167.194.365.377.625.53 1.06.626 2.146 1.2 3.242 1.757-1.2.46-2.405.903-3.615 1.335"/><path d="m63.25 27.5c-3.225 0-3.225 5 0 5s3.225-5 0-5"/></g></svg>