<svg xmlns="http://www.w3.org/2000/svg" viewBox="0 0 100 100" enable-background="new 0 0 100 100"><path fill="#1d1d1b" d="m89.7 48.12c-3.039-21.261-18.07-37.09-40.12-35.639-.098-1.74-.362-3.468-.698-5.177-.275-1.398-1.919-2.181-3.214-1.825-1.448.398-2.1 1.818-1.824 3.213.238 1.209.423 2.408.508 3.626-20.906-.833-36.519 14.408-33.488 36.21.227 1.634 1.557 2.117 2.798 1.8.667.367 1.5.379 2.346-.239 6.921-5.061 13.951-5.061 20.873 0 .064.047.128.073.192.113.654 1.135 2.01 1.805 3.424.866 2.777-1.849 5.572-3.086 8.39-3.641 1.062 9.484 3.527 18.761 3.612 28.366.056 6.255-2.649 11.11-8.817 13.236-6.971 2.396-10.692-5.03-11.78-10.544-.65-3.304-5.686-1.901-5.04 1.389 2.989 15.168 17.792 19.221 27.876 7.357 3.912-4.603 3.139-12.314 2.658-17.826-.648-7.462-2.478-14.769-3.314-22.2 2.622.303 5.268 1.233 7.939 2.882.199.122.396.209.59.274.738.738 1.855 1.065 3.03.379 6.629-3.883 13.242-4.02 19.365.898 2.048 1.645 4.78-.286 4.566-2.212.136-.393.195-.828.126-1.31m-53.643-4.669c-6.651-3.412-13.843-3.194-20.424.662-.746-16.263 11.507-26.292 26.891-26.576-5.203 7.661-7.313 16.514-6.467 25.914m5.335 1.076c-1.046-9.232.746-17.936 6.312-25.317 8.551 5.619 12.826 14.568 13.312 24.501-6.531-2.755-13.256-2.327-19.624.816m24.895.062c-.228-10.471-4.238-20.11-11.98-26.891 15.569.965 25.826 11.953 29.454 27.11-5.604-2.709-11.533-2.747-17.474-.216"/></svg>