<svg xmlns="http://www.w3.org/2000/svg" viewBox="0 0 100 100" enable-background="new 0 0 100 100"><g fill="#1d1d1b"><path d="m78.26 57.96c-2.736-2.686-5.685-5.115-8.688-7.486 2.06-2.385 4.116-4.772 6.179-7.154.34-.392.545-.809.657-1.229.652-1.13.51-2.623-.448-3.581l-.418-.418c-.345-.344-.762-.572-1.202-.708-2.208-1.888-4.272-3.931-6.327-5.984-1.102-1.101-2.445-1.045-3.473-.422-.316.141-.627.339-.919.631l-7.137 7.137c-2.353-2.249-4.772-4.427-7.085-6.718-1.088-1.077-2.407-1.038-3.428-.445-.332.141-.658.348-.965.654l-7.11 7.111c-.615.615-.859 1.307-.857 1.977-.004.04-.002.079-.004.119.002.035 0 .071.003.107-.002.672.242 1.364.858 1.98 2.442 2.441 4.901 4.861 7.446 7.194l-7.864 7.864c-1.242 1.242-1.018 2.792-.159 3.848.112.476.353.948.786 1.381l7.529 7.529c.951.952 2.084 1.036 3.038.642.605-.047 1.22-.299 1.771-.852l7.824-7.824c2.773 2.524 5.479 5.122 8.28 7.614 1.26 1.121 2.786.918 3.846.129.259-.137.515-.306.755-.547l7.32-7.32c.939-.94 1.033-2.055.657-3 .074-.747-.162-1.537-.865-2.227m-9.722 6.794c-2.616-2.404-5.183-4.86-7.847-7.212-.16-.142-.327-.257-.495-.358-1.047-1.039-2.761-1.406-4.105-.061l-8.156 8.156-4.393-4.392 8.157-8.156c1.192-1.193 1.037-2.674.264-3.724-.155-.304-.37-.602-.683-.877-2.442-2.156-4.789-4.411-7.104-6.699l3.167-3.167c2.149 2.034 4.344 4.02 6.447 6.101.201.199.411.349.626.476 1.036 1.105 2.803 1.533 4.185.151l7.33-7.33c1.246 1.221 2.522 2.409 3.839 3.556-2.05 2.373-4.097 4.75-6.149 7.12-.183.211-.319.43-.434.653-1.151 1.034-1.547 2.733.015 3.948 3.209 2.497 6.382 5.03 9.362 7.788l-4.03 4.03"/><path d="m92.73 20.1c-.284-.086-.588-.147-.933-.147h-53.929c-.332 0-.625.057-.901.136-.402.001-.819.093-1.246.28-12.796 5.597-22.697 15.285-31.995 25.459-3.789 4.15 5.234 12.334 7.657 14.957 6.274 6.791 12.217 13.684 19.457 19.51.753.606 1.589.795 2.37.701.476.443 1.107.751 1.916.8 19.483 1.169 38.987 1.194 58.49.609 1.767-.053 2.731-1.32 2.907-2.685.086-.294.146-.61.139-.97-.38-18.625-.248-37.16-1.212-55.75-.091-1.751-1.363-2.715-2.722-2.9m-57.6 55.6c-.106-.006-.2.009-.301.012-9.657-7.829-17.714-17.17-25.1-27.14-.039-.054-.087-.092-.128-.142 8.292-8.943 17.09-17.255 28.3-22.388h51.639c.965 16.788.501 33.533.964 50.35-18.467.491-36.931.417-55.38-.69"/></g></svg>