<svg xmlns="http://www.w3.org/2000/svg" viewBox="0 0 100 100" enable-background="new 0 0 100 100"><path d="m54.35 77.5c-.074-18.471-.926-36.933-.721-55.41 1.514-.38 2.962-.969 4.13-1.836 3.03-2.246 4.081-4.899 3.822-7.445-.56-5.494-7.239-10.487-13.443-9.807-5.099.559-9.48 4.968-9.915 10.04-.526 6.146 4.572 9.396 10.05 9.605-.182 18.378.661 36.745.728 55.12-4.199 1.328-7.538 5.218-7.914 9.609-.549 6.398 5 9.668 10.729 9.624 2.902-.022 6.43-.646 8.807-2.41 3.03-2.246 4.081-4.899 3.822-7.445-.459-4.509-5.04-8.674-10.1-9.649m-5.259-68.57c6.093-.632 9.27 6.532 2.052 7.952-.095-.0001-.181-.015-.281-.008-6.18.406-9.73-7.119-1.771-7.944m4.918 82.29c-.095-.0001-.181-.015-.281-.009-6.18.407-9.729-7.118-1.771-7.943 6.093-.632 9.269 6.531 2.052 7.952" fill="#1d1d1b"/></svg>