<svg xmlns="http://www.w3.org/2000/svg" viewBox="0 0 100 100" enable-background="new 0 0 100 100"><g fill="#1d1d1b"><path d="m36.97 67.941c-.193 3.934-.22 7.87-.22 11.809 0 2.579 4 2.579 4 0 0-3.933.027-7.864.22-11.792 2.767-.844 4.78-3.415 4.78-6.458 0-3.729-3.02-6.752-6.752-6.752s-6.752 3.02-6.752 6.752c0 3.02 1.986 5.58 4.724 6.441"/><path d="m69 8.25c-.08.003-.149.021-.224.032-.091-.013-.178-.03-.276-.032-8.588-.134-16.09 2.675-20.932 10.01-4.311 6.528-5.02 15.16-4.875 22.89-10.387-.538-20.778-.84-31.19-.342-1.624.078-2.455 1.347-2.502 2.613-.053.198-.091.409-.1.639-.581 14.958-.087 29.935-.975 44.883-.115 1.933 1.565 2.739 3.047 2.441.258.09.537.155.855.161 18.11.338 36.21.969 54.31 1.626 1.639.06 2.469-1.151 2.506-2.419.27-.387.433-.879.421-1.484-.293-14.752-.083-29.514-1.301-44.23-.13-1.568-1.359-2.391-2.592-2.482-.205-.061-.421-.106-.66-.12-2.612-.149-5.223-.308-7.833-.469.132-6.896 3.829-14.241 11.1-15.727.16-.0001.326-.016.5-.057 3.676-.87 7.229 1.454 9.929 4.298 2.648 2.79 2.767 7.21 2.289 10.773-.045.336-.011.624.076.87-.059 1.042.578 2.13 1.924 2.13 3.201-.0001 6.363-.083 9.532-.571.011-.002.02-.006.031-.008.955-.058 1.89-.694 1.937-1.92.637-16.476-5.692-34.32-25-33.5m-6.26 39.28c.97 13.43.86 26.894 1.1 40.35-16.859-.609-33.72-1.184-50.588-1.512.664-13.472.344-26.964.792-40.443 16.26-.58 32.468.652 48.696 1.603m27.299-7.591c-1.806.219-3.625.288-5.444.305.41-4.555-.553-9.01-3.555-12.595-4.374-5.224-11.899-6.951-18.03-4.04-6.582 3.13-10.182 11.04-10.33 18.11-1.994-.121-3.987-.238-5.98-.352-.125-6.552.432-13.228 3.273-19.216 1.491-3.144 6.371-6.577 9.357-8.153 3.689-1.947 7.899-2.609 12.02-2.07 8.156 1.065 14.542 6.428 16.87 14.296.347 1.179 2.467 13.636 1.815 13.715"/></g></svg>