<svg xmlns="http://www.w3.org/2000/svg" viewBox="0 0 100 100" enable-background="new 0 0 100 100"><g fill="#1d1d1b"><path d="m51.27 26.982c-.637-1.325-2.441-2.122-3.754-.742-6.387 6.715-11.89 13.409-18.612 19.791-1.462 1.388-.462 3.299 1.012 3.81.378.384.91.638 1.61.634 1.798-.012 4.499-.001 6.294.063.041 3.872.179 13.354.581 17.211.017.163.052.313.094.458.062 1.121.812 2.167 2.264 2.099 5.378-.254 10.759-.309 16.14-.347.437-.003.802-.112 1.111-.282 1.272-.16 2.56-1.29 2.293-2.938-.534-3.298-.66-12.244-.582-15.574 2.443-.182 4.891-.213 7.341-.23 1.184-.008 1.891-.735 2.14-1.612.626-.848.802-2.077-.05-3.099-5.353-6.419-12.533-12.823-17.885-19.242m7.573 19.566c-.251.023-.473.086-.682.166-1.321-.304-2.972.431-3.046 2.2-.151 3.618-.068 12.807.323 16.383-4.182.034-8.363.089-12.542.247-.287-3.713-.391-13.05-.418-16.776-.005-.758-.306-1.323-.751-1.698-.371-.583-.98-1.026-1.842-1.092-1.049-.081-3-.124-4.055-.151 4.778-4.682 8.521-9.492 13.14-14.333 4.123 4.942 10.06 9.878 14.188 14.818-1.439.039-2.877.106-4.313.236"/><path d="m94.96 22.662c0-.49.007-.985.014-1.482.06-4.263.133-9.567-4.263-13.293-3.974-3.367-9.252-3.557-13.492-3.71l-.719-.027c-4.791-.184-9.836-.27-15.874-.27h-1.081c-6.767.011-13.639.081-20.284.149-7.187.073-14.618.149-21.921.15-3.837 0-6.956 1.224-9.271 3.638-5.142 5.361-4.732 15.181-4.461 21.678l.014.348c.409 9.853.394 19.904.379 29.625-.006 3.597-.011 7.194.004 10.791.009 2.182-.003 4.362-.015 6.543-.001 1.663-.019 3.326-.019 4.988 0 13.722 14.09 13.722 18.72 13.722 2.039 0 4.092-.097 5.903-.184 1.558-.073 3.03-.144 4.343-.144.0001 0 .002 0 .002 0l.812.0001c1.998 0 3.995-.014 5.991-.028 1.981-.014 3.961-.027 5.941-.027 3.671 0 8.508.042 13.372.372l2 .14c3.305.233 6.722.476 10.141.476.0001 0 .0001 0 .0001 0 4.176 0 7.78-.374 11.02-1.144 10.287-2.444 12.633-8.909 12.789-13.903.398-12.771.249-25.768.104-38.34-.077-6.587-.155-13.397-.153-20.07m-5.449 58.24c-.098 3.138-1.159 6.966-8.562 8.724-2.817.67-6.01.995-9.748.995 0 0 0 0-.0001 0-3.225 0-6.543-.234-9.752-.462l-2.02-.142c-5.03-.34-9.986-.384-13.744-.384-1.993 0-3.986.014-5.979.027-1.983.015-3.968.028-5.953.028l-.881-.0001c-1.376 0-2.911.073-4.537.15-1.835.087-3.733.177-5.642.177-10.972 0-13.22-3.286-13.22-8.222 0-1.652.009-3.305.019-4.958.012-2.198.023-4.396.015-6.596-.015-3.587-.001-7.174-.004-10.761.015-9.778.03-19.89-.383-29.86l-.015-.35c-.232-5.564-.584-13.974 2.935-17.642 1.255-1.309 2.989-1.945 5.302-1.945 7.331-.0001 14.776-.077 21.977-.15 6.635-.068 13.495-.138 20.237-.148h1.072c5.967 0 10.943.084 15.663.266l.73.027c3.744.135 7.616.275 10.135 2.41 2.254 1.91 2.38 4.682 2.32 9.02-.008.521-.015 1.041-.015 1.556-.002 6.709.077 13.536.153 20.14.144 12.514.293 25.45-.102 38.1"/><path d="m85.7 28.471c0-.383.006-.769.011-1.156.048-3.465.106-7.777-3.552-10.879-3.271-2.772-7.523-2.926-10.939-3.049l-.562-.021c-3.771-.145-7.732-.212-12.466-.212h-.849c-5.311.008-10.703.063-15.918.117-5.628.057-11.448.116-17.17.117-3.176 0-5.765 1.021-7.696 3.034-4.205 4.384-3.878 12.233-3.661 17.426l.011.276c.319 7.707.308 15.576.297 23.19-.005 2.824-.009 5.649.003 8.475.007 1.709-.002 3.419-.012 5.129-.008 1.303-.015 2.604-.015 3.906 0 11.203 11.673 11.203 16.07 11.203.699 0 1.386-.008 2.05-.017.597-.008 1.175-.015 1.724-.015l.559.003c2.149.025 4.299.035 6.448.035 4.371 0 8.742-.042 13.11-.084 5.909-.058 11.813-.114 17.724-.065l.231.0001c1.38 0 2.695-.099 3.911-.294 6.723-1.08 10.531-5.098 10.726-11.312.312-10.02.195-20.21.081-30.07-.059-5.163-.121-10.502-.119-15.736m-5.46 45.633c-.073 2.375-.834 5.208-6.1 6.05-.927.149-1.949.225-3.039.225l-.188-.0001c-5.938-.046-11.879.009-17.82.065-6.481.062-12.964.126-19.444.049l-.623-.003c-.571 0-1.172.007-1.793.015-.642.009-1.305.017-1.98.017-8.883 0-10.566-2-10.566-5.703 0-1.291.007-2.584.015-3.876.001-1.728.019-3.455.012-5.183-.012-2.814-.008-5.629-.003-8.443.011-7.667.023-15.597-.301-23.421l-.012-.278c-.178-4.26-.446-10.698 2.136-13.39.552-.576 1.539-1.341 3.727-1.341 5.746-.0001 11.58-.06 17.222-.118 5.203-.053 10.584-.108 15.871-.116h.84c4.662 0 8.556.066 12.255.208l.574.021c2.833.102 5.764.208 7.581 1.749 1.599 1.355 1.653 3.394 1.609 6.608-.006.412-.012.823-.012 1.229-.002 5.266.06 10.623.12 15.803.112 9.796.229 19.928-.081 29.83"/></g></svg>