<svg xmlns="http://www.w3.org/2000/svg" viewBox="0 0 100 100" enable-background="new 0 0 100 100"><g fill="#1d1d1b"><path d="m50.29 33.924c1.357-.076 2.622-1.029 3.075-2.317.398-1.132.081-2.274-.872-3.131l-20.581-18.523c-.572-1.167-1.83-1.973-3.097-1.973-.06 0-.119.002-.121.005-1.349-.08-2.678.746-3.276 1.967l-20.582 18.524c-.952.857-1.27 1.999-.871 3.131.453 1.288 1.718 2.241 3.062 2.323.124.03.249.059.386.074 2.5.258 5.01.327 7.01.35v54.55c0 1.366.734 2.449 1.972 2.913.549.45 1.216.679 1.984.679h20.574c.757 0 1.441-.234 1.984-.679 1.236-.464 1.972-1.547 1.972-2.913v-54.55c1.999-.023 4.51-.092 7.01-.35.135-.015.258-.044.372-.08m-29.502-2.825c-.011-.893-.345-1.734-.924-2.316-.566-.569-1.332-.871-2.214-.871-.845 0-1.689-.003-2.533-.012l13.548-12.192 13.548 12.192c-.844.009-1.688.012-2.533.012-.882 0-1.647.301-2.214.871-.579.583-.913 1.424-.924 2.316-.061.264-.091.516-.091.77v54.17h-15.572v-54.17c0-.254-.03-.506-.091-.77"/><path d="m93.32 66.55c-.129-.031-.257-.062-.398-.076-2.496-.258-5.01-.326-7.01-.351v-54.56c0-1.367-.735-2.449-1.972-2.914-.542-.443-1.227-.678-1.984-.678h-20.574c-.769 0-1.436.228-1.984.678-1.237.465-1.972 1.547-1.972 2.914v54.55c-2 .024-4.513.093-7.01.351-.143.015-.272.045-.372.079-1.357.076-2.622 1.029-3.075 2.317-.398 1.133-.081 2.273.872 3.131l20.581 18.522c.571 1.167 1.829 1.973 3.097 1.973.06 0 .119-.0001.121-.005.061.004.12.005.18.005 1.267 0 2.524-.806 3.097-1.972l20.581-18.523c.953-.857 1.271-1.998.872-3.131-.454-1.288-1.719-2.241-3.051-2.32m-13.773 2.827c.011.893.345 1.733.924 2.316.566.569 1.331.871 2.214.871.845 0 1.688.004 2.533.013l-13.548 12.191-13.548-12.191c.845-.009 1.688-.013 2.533-.013.883 0 1.647-.302 2.214-.871.579-.583.913-1.424.924-2.316.061-.263.091-.516.091-.769v-54.17h15.572v54.17c0 .252.03.505.091.768"/></g></svg>