<svg xmlns="http://www.w3.org/2000/svg" viewBox="0 0 100 100" enable-background="new 0 0 100 100"><path d="m54.11 10.504l-.086-.192c-.658-1.466-2.232-2.472-3.784-2.38l-.058.003-.058-.003c-.064-.004-.129-.006-.193-.006-1.482 0-2.959.981-3.591 2.387l-.087.192-34.758 31.28c-1.321 1.189-1.249 2.434-.956 3.269.512 1.454 1.993 2.572 3.522 2.658l.306.057c.131.032.261.067.403.082 4.43.458 8.754.553 12.399.585l.991.009v37.928c0 2.12 1.389 2.914 2.216 3.199l.186.063.148.13c.597.522 1.35.787 2.239.787h34.465c.89 0 1.643-.265 2.239-.787l.148-.13.186-.063c.828-.285 2.217-1.079 2.217-3.199v-37.929l.991-.009c3.646-.033 7.97-.128 12.399-.585.141-.015.271-.049.4-.081l.309-.058c1.529-.086 3.01-1.204 3.521-2.658.294-.834.366-2.079-.956-3.269l-34.758-31.28m20.935 30.762c-2.136.035-4.272.049-6.411.049-.991 0-1.801.309-2.405.917-.649.654-1.019 1.631-1.013 2.679l.0001.125-.03.121c-.084.34-.123.642-.123.948v37.31h-29.761v-37.31c0-.307-.039-.608-.123-.948l-.03-.121v-.125c.006-1.049-.364-2.026-1.014-2.68-.604-.608-1.414-.916-2.405-.917-2.139 0-4.274-.014-6.411-.049l-2.543-.042 27.405-24.663 27.405 24.664-2.543.042" fill="#1d1d1b"/></svg>