<svg xmlns="http://www.w3.org/2000/svg" viewBox="0 0 100 100" enable-background="new 0 0 100 100"><g fill="#1e1e1c"><path d="m80.73 26.02c-.181-5.491-.282-12.909-.228-18.404.002-.245-.037-.461-.093-.664.107-1.197-.596-2.461-2.129-2.421-19.353.507-38.703-.251-58.06-.281-1.61-.003-2.315 1.412-2.117 2.654-.064.216-.109.447-.106.712.292 23.09 1.086 56.28 1.111 79.38 0 .518.147.939.382 1.272.142.979.846 1.845 2.119 1.813 5.147-.128 10.296-.235 15.443-.388v-4.569c-6.61.173-13.506.363-13.506.413-.055-22.23-.79-54.55-1.087-76.78 17.868.078 35.733.692 53.601.309-.068 18.253 1.55 44.639 1.646 59.06-2.772-.875-5.637-1.244-8.595-1.046-.23.015-.436.068-.629.135-1.362.008-2.678 1.071-2.069 2.705 1.224 3.286 1.784 7.366-.099 10.509-1.743 2.911-4.535 3.531-7.48 3.881v4.634c4.115-.229 8.187-.716 11.725-1.923 2.521-.861 4.776-2.134 6.71-3.977 3.534-3.369 4.741-7.892 5.05-12.658.292-4.577-.247-9.379-.354-13.597-.277-10.895-.874-19.874-1.233-30.767m-10.5 56.39c1.794-3.058 2.242-6.81 1.309-10.877 2.161.084 4.292.501 6.31 1.356.008.025.015.052.023.077-.654 4.82-3.703 7.776-7.642 9.444"/><path d="m61.917 73.8c1.368-.087 2.521-2.02 1.228-3.332-4.455-4.51-8.909-9.02-13.363-13.53-.292-.732-.989-1.293-1.739-1.293-.032 0-.065.0001-.097.003-.032-.002-.065-.003-.097-.003-.749 0-1.446.561-1.738 1.293-4.455 4.51-8.909 9.02-13.363 13.53-1.294 1.31-.141 3.245 1.228 3.332.083.022.165.048.256.059 1.605.187 3.214.24 4.825.257v10.956 4.56 4.871c0 .96.496 1.56 1.117 1.8.276.272.646.45 1.119.45h6.01 1.282 6.01c.474 0 .843-.178 1.12-.45.62-.24 1.116-.84 1.116-1.8v-5.465-4.508-10.415c1.611-.016 3.22-.07 4.825-.257.091-.001.172-.036.256-.058m-6.846-3.649c-1.144 0-1.712 1-1.707 1.999-.035.16-.059.329-.059.516v10c.022.167.035.344.035.534 0 .529-.001 1.057-.018 1.584-.004.325-.008.651-.018.975v3.379 3.642h-4.72-1.282-4.72v-2.626c0-.003-.0001-.005-.0001-.008-.015-.216-.012-.431-.021-.646-.031-.816-.028-1.63.021-2.44v-2.08-12.313c0-.187-.023-.356-.059-.516.005-.998-.563-1.999-1.707-1.999-.824 0-1.646-.006-2.469-.021 3.198-3.238 6.396-6.476 9.595-9.715 3.199 3.239 6.397 6.477 9.595 9.715-.818.014-1.641.02-2.465.02"/></g></svg>