<svg xmlns="http://www.w3.org/2000/svg" viewBox="0 0 100 100" enable-background="new 0 0 100 100"><g fill="#1e1e1c"><path d="m76.48 42.45c-3.146-12.286-9.606-24.519-19.747-37.4-.626-.796-1.52-1.188-2.427-1.085-.314-.04-.606-.06-.894-.06-.9 0-1.772.417-2.362 1.121-.092.07-.182.145-.271.233-11.77 11.671-19.57 23.12-23.844 35-.197.548-.24 1.092-.126 1.619.019.88.096 1.671.234 2.415.255 1.37 1.632 2.396 3.148 2.346l.157.001c4.341 0 8.758.081 13.03.16 4.279.079 8.704.16 13.06.16.0001 0 .0001 0 .002 0 4.335 0 8.16-.082 11.691-.249l.185-.004c.365 0 .82.034 1.323.07.661.047 1.41.102 2.209.102.0001 0 .0001 0 .002 0 3.916-.014 4.738-1.822 4.738-3.336 0-.066-.005-.131-.014-.198.012-.321-.019-.619-.093-.907m-7.01-1.994c-4 .232-8.26.342-13.282.342-4.405 0-8.89-.086-13.228-.169-3.115-.06-6.322-.121-9.503-.15 3.817-9.752 10.442-19.367 20.2-29.32 7.487 9.856 12.8 19.701 15.811 29.3"/><path d="m76.29 55.61c-.256-1.369-1.638-2.39-3.148-2.346l-.157-.001c-4.342 0-8.759-.081-13.03-.16-4.28-.079-8.706-.16-13.06-.16-4.334 0-8.157.081-11.686.249l-.185.004c-.365 0-.821-.034-1.323-.07-.661-.048-1.41-.102-2.209-.102-.0001 0-.0001 0-.002 0-3.916.014-4.738 1.822-4.738 3.336 0 .066.005.131.014.198-.012.321.018.619.092.907 3.146 12.285 9.605 24.518 19.747 37.4.627.797 1.52 1.189 2.427 1.087.313.039.605.059.888.06h.004c.899 0 1.771-.416 2.362-1.121.092-.07.182-.145.271-.232 11.771-11.673 19.571-23.12 23.845-35 .198-.549.24-1.094.126-1.62-.018-.88-.095-1.671-.233-2.415m-6.416 3.82c-3.817 9.752-10.443 19.366-20.2 29.32-7.486-9.856-12.799-19.702-15.81-29.3 3.998-.232 8.256-.342 13.276-.342 4.406 0 8.892.086 13.229.169 3.116.06 6.325.121 9.507.152"/></g></svg>