<svg xmlns="http://www.w3.org/2000/svg" viewBox="0 0 100 100" enable-background="new 0 0 100 100"><path d="m89.8 78.8c-5.834-22.777-18.21-43.45-32.65-61.794-.812-1.031-1.802-1.325-2.733-1.159-.495-.071-.99-.115-1.492-.116-1.127-.0001-2.135.563-2.778 1.412-.151.111-.302.22-.447.363-16.595 16.455-31.422 35.62-39.4 57.794-.259.72-.266 1.362-.116 1.926.021 1.322.122 2.627.366 3.936.307 1.65 2.074 2.652 3.665 2.548.072.004.135.021.21.021 20.998 0 41.982 1.117 62.974.12 1.408-.067 3.893.287 6.281.278 3.211-.011 6.245-.677 6.245-3.898 0-.093-.021-.181-.028-.271.023-.366.009-.747-.097-1.16m-72.59-2.054c7.408-20.31 21.15-37.917 36.28-53.12 12.259 15.86 22.755 33.668 28.437 52.967-21.555 1.412-43.14.283-64.72.152" fill="#1e1e1c"/></svg>