<svg xmlns="http://www.w3.org/2000/svg" viewBox="0 0 100 100" enable-background="new 0 0 100 100"><g fill="#1d1d1b"><path d="m96.18 12.842c1.033-1.426.392-4.04-1.932-4.092-22.92-.508-63.881-.96-86.75 1-.471.04-.865.193-1.198.408-.711.372-1.254 1.068-1.302 2.092-.704 15.16-.534 49.34-1 64.5-.008.258.027.488.079.704.04.951.573 1.867 1.756 2.207 8.706 2.499 20.269 3.371 32.516 3.421-.092-1.649-.101-3.3-.102-4.953-11.09-.049-21.467-.776-29.21-2.781.277-9.816.31-31.983.504-45.35 27.1-.264 54.2-.951 81.31-.748-.083 13.629.201 36.08.792 46.14-7.085.486-16.267 1.243-26.14 1.84.034 1.657.211 3.294.445 4.927 10.419-.635 20.15-1.44 27.796-1.903.759-.046 1.333-.367 1.734-.82.77-.338 1.336-1.058 1.266-2.18-.946-15.14-1.2-48.51-.568-64.41m-5.282 11.404c-27.09-.204-54.18.482-81.28.747.071-3.767.161-7.303.279-10.418 21.04-1.65 60.16-1.349 81.25-.891-.117 3.169-.199 6.752-.251 10.562"/><path d="m16 17c-3.224 0-3.224 5 0 5 3.225 0 3.225-5 0-5"/><path d="m24.751 16.75c-3.224 0-3.224 5 0 5 3.225 0 3.225-5 0-5"/><path d="m34 16.25c-3.224 0-3.224 5 0 5 3.225 0 3.225-5 0-5"/><path d="m74.964 65.5c.648-.697.887-1.714.194-2.766-5.686-8.631-12.504-16.305-20.14-23.256-1.499-1.364-3.458-.468-4.107.925-6.731 7.865-12.795 16.284-20.18 23.575-1.838 1.814.059 4.431 2.067 4.248.068.005.13.02.201.02h8.127c-.119 2.142-.195 4.689-.234 7.343-.012.838-.021 1.684-.026 2.534-.001 1.671-.006 3.344.011 4.955.016 1.515.042 2.974.08 4.314-.018.031-.031.064-.047.095-.79 1.522-.104 3.794 2.089 3.675.137-.007.275-.009.412-.016.216.013.432.011.643-.024 5.549-.258 11.08-.195 16.611.373 1.466.151 2.247-.815 2.368-1.937.162-.303.269-.657.298-1.063.007-.097.013-.202.02-.301.121-1.774.213-3.789.286-5.909.055-1.619.1-3.293.137-4.961.02-.875.037-1.745.054-2.605.05-2.617.088-5.128.133-7.259 2.961-.064 5.917-.218 8.871-.465 1.072-.09 1.778-.717 2.132-1.495m-13.631-3c-1.898.006-2.67 1.739-2.333 3.164 0 .0001 0 .002 0 .003-.063 2.73-.109 5.975-.173 9.304-.017.875-.035 1.75-.055 2.63-.038 1.681-.085 3.344-.143 4.96-.025.71-.053 1.405-.083 2.088-.025.565-.049 1.136-.078 1.676-2.92-.232-5.84-.331-8.763-.327-.568.0001-1.137.008-1.706.017-.691.011-1.383.019-2.075.041-.005-.231-.008-.479-.013-.714-.015-.758-.028-1.531-.037-2.325-.018-1.611-.024-3.275-.014-4.955.008-1.343.026-2.684.054-4.01.06-2.887.167-5.67.336-8.05.044-.618-.108-1.114-.379-1.494-.365-.719-1.068-1.256-2.121-1.256h-5.423c5.333-5.875 10.123-12.216 15.246-18.282 5.609 5.307 10.742 11.02 15.217 17.306-2.483.139-4.967.219-7.457.227"/></g></svg>