<svg xmlns="http://www.w3.org/2000/svg" viewBox="0 0 100 100" enable-background="new 0 0 100 100"><g fill="#1d1d1b"><path d="m73.74 33.779c-4.406 0-8.567 1.414-12.08 4.097-2.709-11.358-13.417-19.519-25.782-19.519-1 0-2.02.055-3.01.164-7.08.772-12.644 4.628-15.667 10.855-3.178 6.546-2.859 14.462.788 20.885-.124-.002-.248-.004-.372-.004-7.915 0-13.937 5.264-14.984 13.1-.493 3.687.418 6.882 2.709 9.5 3.837 4.384 10.54 5.946 15.534 5.946 1.149 0 2.273-.078 3.268-.223.095.013.19.024.294.024 4.068 0 8.272 0 12.566-.004v-.227c.606.105 1.251.012 1.788-.276.237-.127.447-.297.628-.501.352-.39.583-.917.585-1.595.002-.52.024-1.039.031-1.559.002-.167.007-.334.001-.502.003-.166.007-.332.001-.498.024-1.17.045-2.341.09-3.51.056-1.477.119-2.954.192-4.431.004-.081-.009-.151-.011-.228.002-.035.011-.07.011-.106 0-1.436-1.141-2.403-2.5-2.5-.385-.027-.77-.039-1.155-.059 3.912-3.827 7.855-7.622 11.789-11.427 3.655 3.66 7.176 7.447 10.696 11.235-.832.024-1.665.039-2.496.084-.533.029-.97.2-1.327.451-1.101.149-2.07.938-2.01 2.383.104 2.343.158 4.686.223 7.03.001.347.022.695.033 1.042.005.166.001.332.016.498.006.167.001.335.016.502.017.476.024.952.045 1.428.03.675.281 1.2.648 1.592.03.048.072.086.105.132.136.189.303.354.497.494.37.27.833.448 1.417.448h4.833v.021c6-.038 12.05-.093 18.08-.175.184-.003.37-.025.564-.07.266.037.543.04.845-.012 6.255-1.087 11.246-4.607 14.05-9.913 3.164-5.979 3.212-13.61.13-20.415-3.834-8.467-12.312-14.156-21.09-14.156m-15.267 36.07c-.024-.803-.048-1.606-.074-2.409 1.984-.07 3.968-.1 5.953-.103.3.055.598.041.886-.028 2.529-.214 2.847-3.651.955-4.68-5.209-5.565-10.31-11.23-15.76-16.564-.608-.595-1.3-.779-1.95-.699-.64-.07-1.32.118-1.919.699-5.727 5.55-11.518 11.04-17.17 16.667-1.098 1.094-.846 2.473-.042 3.364.439.715 1.239 1.167 2.143 1.237 1.247.096 2.496.148 3.745.201-.09 1.97-.155 3.941-.198 5.913-3.611.002-7.169.003-10.614.003-.182 0-.36.018-.542.055-.193-.013-.396-.008-.609.025-.993.16-2.02.241-3.057.241-5.733 0-12.446-2.507-12.497-9.57-.016-2.278.772-4.286 2.281-5.805 1.853-1.866 4.684-2.937 7.767-2.937 1.16 0 2.293.153 3.371.458.187.053.38.083.586.093.519.254 1.098.335 1.729.19 1.178.188 2.432-.568 2.889-1.718.368-.925.133-1.906-.627-2.624-5.274-4.98-7.05-12.04-4.647-18.418 2.261-5.992 7.638-9.711 14.386-9.949 11.878-.41 21.688 8.754 21.713 20.07.003 1.645 1.297 2.505 2.573 2.505 1.148 0 2.09-.636 2.433-1.631 3.222-3.599 7.285-5.5 11.755-5.5 6.984 0 13.626 4.761 16.528 11.847 2.171 5.299 2.059 10.822-.308 15.15-2.117 3.871-5.758 6.389-10.534 7.284-.118-.017-.245-.03-.398-.027-6.02.083-12.06.138-18.06.176v.134h-2.581c-.0001-.039-.002-.078-.004-.118-.035-1.177-.069-2.355-.104-3.533"/><path d="m50.01 73.48c.013-.021.027-.041.041-.062-.033 0-.065 0-.098 0 .018.022.039.041.057.062"/></g></svg>