<svg xmlns="http://www.w3.org/2000/svg" viewBox="0 0 100 100" enable-background="new 0 0 100 100"><path d="m64.39 6.304c-4.783.525-8.894 4.66-9.301 9.416-.458 5.348 3.626 8.359 8.322 8.924 1.457 14.615-10.688 22.708-24.13 22.759v-22.899c1.934-.306 3.875-.925 5.348-2.02 2.838-2.107 3.828-4.596 3.585-6.984-.524-5.154-6.791-9.838-12.611-9.199-4.782.525-8.893 4.66-9.301 9.416-.43 5.02 3.139 7.975 7.46 8.789v48.613c-3.956 1.235-7.105 4.895-7.46 9.03-.514 6 4.69 9.07 10.06 9.03 2.723-.021 6.03-.606 8.262-2.261 2.838-2.107 3.828-4.596 3.585-6.984-.414-4.068-4.407-7.831-8.933-8.928v-20.07c17.02.049 30.818-11.08 29.565-28.571 1.668-.341 3.296-.929 4.57-1.874 2.838-2.107 3.828-4.596 3.585-6.984-.524-5.154-6.79-9.838-12.61-9.199m-27.895 5.559c5.716-.592 8.696 6.127 1.925 7.459-.089-.0001-.17-.014-.264-.008-5.797.382-9.127-6.677-1.661-7.451m1.925 73.888c-.089-.0001-.17-.014-.264-.008-5.554.365-8.836-6.095-2.537-7.318.706.213 1.495.164 2.164-.139 4.832.438 6.877 6.237.637 7.465m28.788-66.43c-.089-.0001-.17-.014-.264-.008-5.797.381-9.127-6.678-1.661-7.451 5.716-.593 8.696 6.127 1.925 7.459" fill="#1d1d1b"/></svg>