<svg xmlns="http://www.w3.org/2000/svg" viewBox="0 0 100 100" enable-background="new 0 0 100 100"><g fill="#1e1e1c"><path d="m27.13 37.11c3.047 2.16 6.497 3.301 9.977 3.301 4.555 0 9.04-1.915 12.633-5.393.958-.928 1.96-2.01 2.229-2.333.117-.14.224-.301.316-.476 3.45-6.516 2.873-13.256-1.582-18.491-1.057-1.242-1.994-2.295-2.331-2.621-.173-.167-.386-.316-.631-.442-3.101-1.595-6.241-2.404-9.333-2.404-4.25 0-8.354 1.507-12.196 4.478-.173.134-.321.28-.439.432-.274.353-1.16 1.563-1.951 2.723-5.11 7.496-3.749 16.224 3.308 21.23m2.212-20.229c.078-.083.148-.17.212-.258.27-.374 1.428-1.382 2.772-2.057 2.939-1.477 6.229-1.794 9.507-.92 1.537.41 3.662 1.722 4.735 2.925 2.775 3.108 3.651 6.726 2.534 10.461-.42 1.405-1.105 2.651-1.339 2.898-2.546 3.419-6.11 5.274-10.08 5.274-4.848 0-9.448-2.82-11.186-6.859-.933-2.171-1.807-6.549 2.846-11.464"/><path d="m70.61 59.678c-1.574.04-3.065.082-4.405.126.028.479.062.959.086 1.438.23 4.716.38 9.433.496 14.15.065 2.673.089 5.347.102 8.02-3.157.003-6.312.036-9.466.199-.17-6.761-.514-15.238-.798-20.309-.155-2.775-4.484-2.79-4.328 0 .353 6.302.801 17.889.889 24.875-9.916-.037-19.831-.193-29.747-.227-.031-6.96-.162-18.16-.174-24.288-.005-2.791-4.333-2.791-4.328 0 .009 4.56.084 11.939.135 18.284-3.497.161-6.997.197-10.497.203-.489-9.718-.113-19.432.081-29.16.881-1.817 2.274-3.14 4.211-3.778 6.137-.647 12.306-.912 18.474-1 6.191-.09 12.383.003 18.573.068 2.2.023 4.399-.006 6.599-.017.605-1.165 1.416-1.732 2.116-2-.943-.44-1.642-1.293-2.117-2.357-1.465.031-2.931.082-4.379.069-3.185-.029-6.369-.071-9.553-.099-6.372-.056-12.748-.054-19.11.232-3.574.161-7.145.409-10.703.787-.273-.031-.57-.009-.891.089-3.094.945-5.72 3.069-7.06 6.04-.124.275-.204.56-.239.844-.141.274-.23.594-.237.969-.203 10.345-.633 20.677 0 31.02.055.89.54 1.492 1.165 1.813.32.304.758.506 1.329.506 4.094 0 8.186-.018 12.275-.207.009 1.373.015 2.647.017 3.746.0001.382.088.706.228.984.246.702.852 1.263 1.82 1.264 11.573.013 23.14.238 34.718.252 1.811.002 2.354-1.952 1.639-3.138-.004-.457-.001-.942-.017-1.445 3.314-.169 6.631-.196 9.951-.197.524 0 .937-.169 1.25-.431 1.189.177 2.529-.509 2.526-2.063-.014-6.773-.285-13.524-.495-20.292-.051-1.655-.077-3.315-.128-4.975"/><path d="m59.38 32.871c.198.1.429.161.701.161.074 0 .151-.005.231-.014 4.02-.482 28.808-.731 32.853-.969 2.464-.145 1.63-3.207 1.647-4.734.019-1.68.941-4.621-1.901-4.621-4.12 0-28.973.018-33.09.242-2.281.124-1.739 2.536-1.593 4.108.169 1.816-.92 4.777 1.156 5.827m31.924-6.541c0 0-.428 1.201.073 2.194-2.855.174-26.449.374-29.29.669.03-1.707-.41-2.704-.41-2.704 2.962-.119 26.666-.153 29.63-.159"/><path d="m93.36 35.483c-4.116-.224-28.974-.242-33.09-.242-2.933 0-3.201 6.485-1.447 8.649.33.407.724.679 1.193.706.744.044 2.195.088 4.085.134 8.382.204 25.484.442 28.768.835.08.001.157.014.231.014.271 0 .502-.061.7-.161.837-.423 1.106-1 1.153-1.667.063-.885-.269-1.919-.173-2.926.119-1.253.935-3.212.114-4.359-.266-.53-.774-.942-1.529-.983m-2.268 6.258c-2.845-.295-26.438-.495-29.29-.669.502-.992.073-2.194.073-2.194 2.964.006 26.668.04 29.63.159.0001 0-.439.996-.409 2.704"/><path d="m94.2 48.34c-.293-.327-.723-.546-1.295-.546-2.847 0-15.59.009-24.556.088-4.01.035-7.268.085-8.541.154-.259.014-.483.107-.693.231-2.292 1.359-1.712 8.708.258 9.704.198.1.429.161.701.161.074 0 .151-.005.231-.014.949-.114 3.062-.214 5.777-.305 1.353-.045 2.853-.088 4.441-.128 8.738-.223 20.02-.381 22.635-.536 2.656-.157 1.636-4.992 1.982-6.814.177-.924-.293-1.628-.94-1.995m-23.954 5.689c-1.627.032-3.124.066-4.393.101-1.847.051-3.216.105-3.775.163.03-1.707-.41-2.704-.41-2.704.564-.023 1.883-.042 3.664-.059 1.296-.012 2.841-.023 4.52-.033 8.133-.047 19.457-.063 21.446-.067 0 0-.428 1.201.073 2.194-1.907.117-13.07.245-21.12.405"/></g></svg>