<svg xmlns="http://www.w3.org/2000/svg" viewBox="0 0 100 100" enable-background="new 0 0 100 100"><g fill="#1e1e1c"><path d="m87.21 10.1c-.015-.087.118-.997-.428-1.741-.294-.4-.752-.708-1.399-.842-11.245-2.335-22.855-2.739-34.31-2.728-5.816.005-11.627.193-17.439.414-8.893.337-19.267-1.956-18.815 10.434.21 5.754.107 11.501.216 17.257.241 12.831.381 25.672.376 38.505-.003 7.084.073 14.168.075 21.252 0 .41.082.766.224 1.071.257.552.986 1.279 1.537 1.536.304.142.66.223 1.069.224 20.235.018 46.79.629 67.02.629.579 0 1.054-.16 1.426-.424.682-.483 1.114-1.493 1.262-1.919.083-.24.134-.507.142-.802.825-27.705.59-55.04-.944-82.71-.003-.054-.001-.106-.019-.157m-16.647 78.83c-.036 1.138-.974 2.052-2.112 2.041-.749-.008-1.502-.015-2.258-.024-1.138-.012-2.05-.1-2.039-.195.007-.056.012-.113.012-.174 0-4.575-.027-19.14-.351-23.709-.24-3.371-5.514-3.395-5.273 0 .325 4.565.351 19.14.351 23.709 0 .05.005.097.001.143.001.079-.905.132-2.043.118-4.083-.05-8.198-.103-12.267-.153-1.138-.014-2.091-.947-2.118-2.086-.09-3.851-.103-17.703-.104-21.556 0-3.4-5.273-3.4-5.273 0 0 3.832.015 17.664.103 21.494.026 1.138-.868 2.051-2.01 2.039-.865-.009-1.725-.018-2.578-.026-1.138-.011-2-.94-1.947-2.077.338-6.68.39-23.37.698-30.05.052-1.137.566-2.713 1.424-3.06.499-.202 1.051-.282 1.644-.272 11.34-.132 22.641.343 33.947.705.039.0001.076-.002.112-.005.062-.006.141-.007.176-.002.021.003.041.006.064.007.673.013 1.092.111 1.592.409.012.008.022.015.031.021.017.011.094.087.174.17.08.082.221.25.305.385.05.081.099.163.145.246.001.017.017.031.024.043.014.024.087.965.127 2.103.237 6.594-.359 23.17-.569 29.758m12.682.078c-.03 1.138-.979 2.06-2.117 2.056-1.076-.004-2.172-.001-3.282-.016-1.138-.007-2.047-.937-2.01-2.075.212-6.691.828-23.363.568-30.06-.044-1.138-.087-2.26-.112-2.506-.015-.146-.044-.292-.092-.436-1.125-3.397-3.893-5.381-7.464-5.451-.038-.0001-.074.003-.109.007-.06.007-.139.008-.176.0001-.022-.004-.043-.007-.067-.008-11.248-.361-22.49-.83-33.746-.703-.061.0001-.118-.0001-.176 0-3.207-.083-5.965 1.507-7.725 4.118-.156.232-.259.483-.316.744-.096.438-.109.987-.161 1.218-.03.134-.051.274-.059.424-.406 7.366-.43 24.745-.802 32.11-.057 1.137-1.037 2.052-2.175 2.046-.217-.0001-.433-.002-.648-.003-1.138-.005-2.061-.932-2.063-2.07 0-13.454-.534-26.901-.804-40.35-.135-6.751-.211-13.506-.106-20.256.053-3.383.165-6.766.297-10.147.067-1.71-.393-4.957.455-6.544.053-.099.073-.196.109-.218s.988-.084 2.125-.142c17.536-.9 40.3-1.973 57.668.925 1.123.187 2.08 1.283 2.138 2.42 1.28 25.04 1.506 49.841.851 74.912"/><path d="m59.794 23.759c-.166-.16-.368-.305-.61-.43-5.488-2.823-11.03-2.226-15.878 1.527-.176.136-.319.28-.434.428-.207.267-.838 1.13-1.396 1.949-3.542 5.195-3.167 11.868 2.499 15.884 5.597 3.967 12.228 2.873 16.782-1.539.712-.689 1.421-1.46 1.616-1.693.111-.133.213-.284.305-.457 2.538-4.795 2.116-9.881-1.198-13.776-.643-.756-1.388-1.606-1.686-1.893m-.648 11.502c-.284.949-.726 1.7-.778 1.754-.03.032-.06.064-.087.101-6.12 8.247-19.549-.157-11.837-8.304.078-.083.147-.167.208-.252.106-.147.808-.785 1.694-1.229 1.962-.985 4.085-1.155 6.184-.596.958.255 2.324 1.105 2.984 1.844 1.737 1.945 2.377 4.193 1.632 6.682"/></g></svg>