<svg xmlns="http://www.w3.org/2000/svg" viewBox="0 0 100 100" enable-background="new 0 0 100 100"><g fill="#1e1e1c"><path d="m83.55 6.316c-.158-1.312-1.24-1.994-2.284-2.049-.208-.065-.431-.111-.685-.111-17.458.022-38.15.508-55.609.271-.302-.004-.565.051-.802.139-1.226-.277-2.704.391-2.707 2.02-.005 2.79-.031 5.58-.067 8.37-2.01.665-3.828 1.823-5.205 3.666-3.147 4.214.291 9.535 3.476 12.436.447.407.941.571 1.421.575-.012.568-.023 1.137-.035 1.705-1.768.598-3.368 1.542-4.564 3-3.322 4.049-.602 8.96 2.369 12.266.355.395.753.586 1.152.65.238.269.484.528.763.756-.002.272-.004.543-.007.815-2.516.698-4.754 2.055-6.02 4.457-2.604 4.954 2.144 9.451 6.074 11.692.003.134.008.267.001.401-1.865.922-3.456 2.257-4.406 4.208-2.256 4.633 1.557 8.848 5.05 11.456.058.904.122 1.809.187 2.713-.074.237-.108.505-.078.813.292 2.995.829 5.906 1.918 8.721.379.981 1.234 1.405 2.076 1.413.222.08.465.134.745.133 18.715-.001 37.434-.3 56.07-2.106.143-.014.274-.044.401-.079 1.094.057 2.232-.614 2.231-2.027 0-2.462-.001-4.92-.263-7.371-.021-.206-.073-.39-.137-.565.064-26.13 2.063-52.34-1.081-78.37m-64.879 50.78c.443-.842 1.181-1.419 2.066-1.817-.007 2.172-.002 4.344.016 6.515-1.615-1.228-3.03-2.89-2.082-4.698m1.457-18.361c.247-.255.529-.469.824-.666-.041 2.069-.078 4.137-.111 6.206-1.295-1.69-2.364-3.833-.713-5.54m.242 34.589c.157-.322.36-.613.596-.878.049 1.518.106 3.036.174 4.554-.882-1.106-1.4-2.382-.77-3.676m.827-46.844c-1.439-1.63-2.526-3.649-1.277-5.678.349-.568.837-.999 1.408-1.332-.039 2.337-.083 4.673-.131 7.01m5.835 66.14c-.326-1.039-.591-2.09-.798-3.156 17.16.102 37.37 1.86 54.51-1.5.039.896.062 1.793.071 2.69-17.882 1.651-35.832 1.95-53.78 1.966m53.29-8.967c-16.658 3.443-37.05 1.607-53.933 1.494-.021-.0001-.042-.006-.063-.006h-.381c-.356-4.948-.579-9.899-.715-14.851 1.26-.297 2.528-.444 3.526-.536 2.75-.254 2.774-4.575 0-4.319-1.158.107-2.387.268-3.611.522-.066-3.822-.099-7.644-.084-11.467 1.173-.019 2.291.064 3.155.147 2.773.266 2.747-4.055 0-4.319-.99-.095-2.048-.135-3.123-.103.044-4.472.12-8.945.21-13.418 1.507-.122 3.03-.056 4.262.025 2.782.181 2.765-4.139 0-4.319-1.318-.086-2.743-.105-4.175.004.099-4.669.2-9.339.275-14.01 1.336-.024 2.639.108 3.63.237 2.756.359 2.721-3.965 0-4.319-1.178-.153-2.38-.224-3.571-.185.022-1.826.04-3.651.049-5.477 16.821.206 36.878-.235 53.697-.274 2.747 24.976.961 50.11.852 75.17"/><path d="m48.09 42.667c1.82 1.29 3.882 1.972 5.961 1.972 2.722 0 5.402-1.144 7.546-3.22.614-.594 1.19-1.226 1.327-1.389.073-.087.14-.188.198-.298 2.062-3.894 1.716-7.923-.949-11.05-.625-.736-1.183-1.362-1.387-1.559-.109-.105-.243-.199-.396-.278-1.849-.951-3.723-1.433-5.569-1.433-2.539 0-4.988.899-7.28 2.671-.109.084-.202.176-.276.272-.173.222-.696.938-1.159 1.618-3.054 4.483-2.239 9.704 1.984 12.698m1.43-11.993c.051-.053.094-.107.133-.161.156-.216.827-.797 1.608-1.19 1.722-.864 3.648-1.05 5.565-.538.895.239 2.133 1 2.76 1.705 1.621 1.815 2.133 3.928 1.481 6.107-.235.788-.634 1.536-.773 1.681-1.496 2.01-3.58 3.094-5.901 3.094-2.835 0-5.525-1.647-6.54-4.01-.544-1.267-1.052-3.819 1.667-6.692"/><path d="m74.47 58.889c-.016-.493-.027-.987-.038-1.481-.034-1.477-.069-3-.214-4.506-.052-.54-.132-1.248-.289-1.937-.25-1.103-.652-1.97-1.228-2.65-.95-1.122-2.859-2.049-4.442-2.159-1.1-.075-2.221-.05-3.338-.021-.562.014-1.124.028-1.681.028l-5.942-.06c-1.148-.001-2.296-.017-3.444-.017-3.042 0-5.553.049-7.903.155-2.27.102-4.338.254-6.319.463-.217-.018-.447.009-.671.077-2.03.62-3.667 2.023-4.493 3.851-.082.18-.139.368-.17.558-.099.22-.152.459-.157.712-.021 1.078-.046 2.156-.072 3.234-.117 4.97-.237 10.11.073 15.176.039.629.365 1.155.899 1.453.292.255.664.389 1.078.389 2.177 0 4.483-.008 6.772-.101l.008 1.697c0 .288.064.56.163.748.238.676.817 1.081 1.549 1.082 3.438.004 6.877.039 10.316.075 3.415.035 6.831.07 10.246.074h.0001c.616 0 1.134-.293 1.423-.804.29-.513.304-1.159.045-1.685l-.003-.25c1.84-.081 3.672-.093 5.387-.093.324 0 .624-.083.88-.241.026.0001.052.0001.078.0001.498 0 .97-.188 1.297-.514.315-.316.482-.74.481-1.225-.007-3.251-.115-6.545-.22-9.73l-.072-2.299m-11.402 13.447c-2.726-.012-5.451-.038-8.177-.064-2.812-.027-5.624-.055-8.436-.065-.001-1.801-.028-4-.047-6.203-.025-2.858-.049-5.714-.053-7.684-.003-1.784-2.175-2.133-3.081-1.224-.316.316-.483.74-.482 1.226.004 1.958.028 4.794.053 7.639l.023 2.71c-1.832.074-3.643.093-5.236.098-.208-4.575-.1-9.224.004-13.726.022-.973.045-1.945.064-2.919.473-.922 1.18-1.55 2.104-1.868 3.228-.339 6.674-.524 10.841-.584 3.186-.046 6.373-.011 9.559.024l2.379.02c.61 0 1.221-.005 1.831-.009.608-.005 1.216-.001 1.824-.001h.685c1.071 0 2.09.057 2.788.74.657.643.821 1.368.874 2.329.034.628.076 1.257.117 1.885.05.753.099 1.507.136 2.261.12 2.45.213 5.109.293 8.369.035 1.413.049 2.826.058 4.239-1.418.004-3.02.022-4.616.093-.099-3.703-.289-8.464-.46-11.531-.098-1.767-2.276-2.093-3.137-1.185-.305.322-.451.751-.424 1.241.201 3.631.451 10.05.516 14.199"/></g></svg>