<svg xmlns="http://www.w3.org/2000/svg" viewBox="0 0 100 100" enable-background="new 0 0 100 100"><g fill="#1e1e1c"><path d="m25.642 44.36c2.719 1.927 5.795 2.945 8.897 2.945 4.063 0 8.07-1.709 11.27-4.813.858-.831 1.754-1.8 1.994-2.087.099-.119.191-.258.273-.411 3.075-5.81 2.562-11.819-1.408-16.486-.946-1.112-1.784-2.054-2.086-2.345-.149-.143-.331-.271-.542-.379-2.769-1.424-5.573-2.146-8.332-2.146-3.793 0-7.456 1.345-10.886 3.999-.149.115-.276.239-.377.369-.246.317-1.041 1.403-1.747 2.44-4.555 6.679-3.344 14.457 2.944 18.914m1.852-18.15c.067-.071.127-.145.181-.22.283-.392 1.345-1.286 2.526-1.879 2.662-1.338 5.641-1.625 8.607-.834 1.396.372 3.326 1.564 4.301 2.657 2.516 2.818 3.311 6.099 2.297 9.489-.357 1.192-.977 2.383-1.23 2.647-2.293 3.083-5.521 4.763-9.12 4.763-4.392 0-8.56-2.558-10.136-6.22-.848-1.972-1.643-5.948 2.574-10.403"/><path d="m66.15 28.762c2.036 1.442 4.342 2.205 6.668 2.205 3.044 0 6.04-1.278 8.438-3.6.646-.625 1.297-1.331 1.48-1.55.084-.101.161-.216.228-.342 2.305-4.355 1.918-8.862-1.063-12.366-.698-.821-1.32-1.52-1.547-1.739-.125-.121-.278-.228-.454-.318-2.066-1.063-4.161-1.602-6.225-1.602-2.838 0-5.576 1-8.137 2.985-.125.097-.232.202-.318.313-.182.234-.769 1.036-1.292 1.803-3.418 5.02-2.505 10.86 2.222 14.211m1.666-13.356c.058-.061.108-.123.153-.186.17-.235.907-.875 1.77-1.307 1.904-.956 4.03-1.161 6.154-.595.987.263 2.352 1.106 3.044 1.88 1.816 2.034 2.367 4.303 1.637 6.744-.277.925-.72 1.715-.848 1.849-1.658 2.225-3.961 3.425-6.527 3.425-3.134 0-6.106-1.82-7.227-4.425-.601-1.395-1.161-4.21 1.844-7.385"/><path d="m94.62 37.637c-.03-.265-.116-.521-.259-.762-1.556-2.64-4.223-3.956-7.434-3.563-.011.0001-.022.003-.032.005-.045-.005-.091-.009-.14-.009-2.346 0-4.697-.026-7.05-.052-2.359-.026-4.72-.052-7.079-.052-4.354 0-10.09.078-15.858.688-.234-.019-.485.008-.731.083-2.244.685-4.054 2.236-4.966 4.256-.09.199-.152.406-.186.615-.109.239-.167.5-.172.776-.023 1.198-.052 2.396-.08 3.593-.041 1.74-.076 3.503-.103 5.272.165.0001.331.003.496.004.168.0001.336.003.504.005.619.006 1.237.016 1.855.029.166.004.332.013.497.017.167.004.335.012.502.017.026-1.831.063-3.655.104-5.455.025-1.083.05-2.167.072-3.25.534-1.049 1.336-1.762 2.385-2.121 5.707-.599 11.388-.676 15.704-.676 2.353 0 4.707.026 7.06.052 2.311.026 4.621.048 6.866.048.148.018.308.022.478 0 .291-.035.573-.055.845-.055 1.448 0 2.445.547 3.138 1.722.036.061.074.117.113.17.491 6.414.752 13.06.798 20.29-1.609.004-3.429.023-5.25.105-.11-4.138-.322-9.469-.513-12.891-.068-1.213-1.06-1.848-2.01-1.848-.543 0-1.05.206-1.389.564-.328.347-.486.81-.457 1.339.228 4.068.507 11.263.578 15.867-3.057-.014-6.114-.043-9.171-.072-2.133-.021-4.266-.035-6.4-.05.018.167.035.334.052.502.016.166.029.333.043.5.047.551.085 1.103.113 1.657.008.167.02.333.027.5.007.167.001.333.016.5 2.052.016 4.105.023 6.158.044 3.816.039 7.631.078 11.447.083h.003c.664 0 1.223-.315 1.533-.865.31-.549.323-1.268.043-1.833l-.004-.346c2.068-.093 4.126-.106 6.05-.106.356 0 .685-.093.964-.269.034.0001.068.002.102.002.539 0 1.051-.202 1.403-.556.341-.342.521-.799.52-1.323-.016-7.88-.289-15.12-.833-22.15-.028-.371-.152-.716-.36-1m-7.855-3.829"/><path d="m61.37 50.15c.695.477 1.315 1.01 1.865 1.592.169.179.348.353.504.541.181.218.341.45.506.679-.02-2.346-.036-4.553-.039-6.201-.004-1.928-2.353-2.303-3.333-1.322-.341.342-.521.8-.52 1.324.002.803.006 1.742.013 2.762.172.095.338.193.502.294.172.106.337.218.502.331"/><path d="m64.66 67.19c-.001-.419-.021-.838-.032-1.256-.005-.167-.009-.334-.014-.5-.005-.167-.015-.333-.021-.5-.02-.553-.039-1.106-.069-1.658-.009-.167-.026-.333-.036-.5-.001-.168-.026-.335-.037-.502-.03-.425-.054-.851-.095-1.275-.015-.16-.039-.324-.056-.486-.084-.78-.189-1.575-.367-2.356-.044-.195-.103-.386-.156-.578-.138-.498-.301-.986-.512-1.452-.27-.596-.604-1.159-1.032-1.665-.238-.282-.53-.547-.842-.802-.162-.133-.326-.265-.503-.389-.162-.113-.331-.221-.503-.326-.359-.219-.735-.42-1.124-.598-.62-.285-1.261-.507-1.89-.662-.462-.114-.917-.199-1.344-.229-.551-.038-1.106-.051-1.663-.06-.164-.003-.328-.001-.492-.001-.17-.0001-.34.004-.51.004-.62.003-1.239.009-1.86.024-.166.004-.333.008-.499.012-.167.004-.334.008-.501.012-.827.019-1.652.035-2.47.028-1.436-.013-2.872-.029-4.309-.044-1.423-.016-2.845-.031-4.268-.044-5.72-.05-11.445-.049-17.16.208-3.209.144-6.414.368-9.609.707-.245-.028-.512-.008-.8.08-2.778.848-5.136 2.756-6.342 5.426-.111.247-.183.503-.214.758-.126.246-.207.534-.213.87-.182 9.288-.568 18.564 0 27.846.049.799.485 1.34 1.046 1.627.287.273.681.454 1.194.454 3.675 0 7.349-.016 11.02-.186.008 1.232.013 2.376.015 3.363.0001.343.079.634.205.883.221.63.765 1.133 1.634 1.134 10.39.012 20.779.214 31.17.226 1.625.002 2.114-1.753 1.472-2.817-.003-.41-.009-.846-.015-1.297 2.976-.152 5.953-.176 8.934-.177.47 0 .841-.152 1.122-.387 1.068.158 2.271-.457 2.268-1.853-.013-6.081-.256-12.142-.444-18.218-.034-.944-.055-1.889-.077-2.835m-11.881 19.859c-.152-6.07-.461-13.68-.716-18.233-.139-2.491-4.03-2.505-3.885 0 .316 5.658.719 16.06.798 22.332-8.902-.034-17.804-.173-26.706-.204-.028-6.248-.146-16.305-.156-21.805-.005-2.505-3.891-2.506-3.886 0 .008 4.094.075 10.718.121 16.415-3.14.144-6.281.177-9.424.182-.44-8.724-.102-17.445.071-26.17.791-1.631 2.041-2.819 3.781-3.392 5.509-.581 11.05-.819 16.586-.899 3.496-.051 6.993-.035 10.489-.003 2.062.019 4.124.042 6.185.063 1.499.016 2.998.004 4.497-.008.165-.0001.33-.002.496-.003.168-.0001.336-.002.504-.003.546-.003 1.091-.009 1.637-.009.073 0 .147 0 .22-.0001.17 0 .339-.0001.511-.002.163 0 .328.002.493.003.733.007 1.471.052 2.175.204.822.178 1.595.503 2.236 1.13.342.335.602.686.811 1.052.122.213.225.431.311.656.061.159.114.322.159.487.045.164.083.331.116.501.08.423.129.865.154 1.333.006.103.013.206.019.309.001.166.021.333.031.499.001.169.021.338.032.507.005.089.011.178.017.266.05.795.095 1.589.146 2.384.048.753.097 1.506.135 2.26.0001.021.003.042.004.064.207 4.234.342 8.469.445 12.706.059 2.4.08 4.801.092 7.201-2.835.006-5.668.036-8.499.183"/></g></svg>