<svg xmlns="http://www.w3.org/2000/svg" viewBox="0 0 100 100" enable-background="new 0 0 100 100"><path d="m87.33 11.667c-1.236 0-2.328.573-3.061 1.454-.235-.071-.486-.122-.772-.121-7.27.017-18.53.235-25.788.633 0-.459.007-.919.038-1.383.041-.617-.112-1.113-.384-1.492-.366-.716-1.068-1.252-2.116-1.258-2.879-.016-5.741-.204-8.585-.661-1.479-.238-2.554.699-2.958 1.81-.322.391-.512.918-.456 1.6.021.259.015.518.024.778-.093-.008-.178-.027-.275-.027-8.09-.019-20.17-.255-28.25-.5-.283-.009-.533.034-.766.097-.719-1.064-1.936-1.764-3.317-1.764-2.209 0-4 1.791-4 4 0 2.209 1.791 4 4 4 1.278 0 2.402-.61 3.134-1.542.279.119.591.198.949.209 8.08.245 20.16.481 28.25.5.075 0 .139-.015.211-.02.004.423.004.847.039 1.27.085 1.035.661 2.098 1.739 2.38-12.376 11.08-27.801 25.725-25.346 43.25 1.353 9.66 10.725 17.249 19.307 20.42 10.36 3.828 22.23 2.545 33.05 2.954.043.002.078-.007.12-.007-.028.585-.066 1.171-.12 1.757-.066.711.278 1.357.799 1.816.335.807 1.062 1.434 2.201 1.434h8.25c.256 0 .484-.041.7-.099 1.251.005 2.436-.792 2.3-2.401-.225-2.664-.25-5.329-.25-8 0-.66-.216-1.177-.549-1.567-.335-.806-1.062-1.433-2.201-1.433h-7.25c-.091 0-.171.017-.257.025-.081-.008-.16-.025-.243-.025h-1c-.369 0-.719.089-1.037.238-.888.278-1.569 1.023-1.463 2.262.029.337.044.673.066 1.01-.023-.0001-.042-.008-.066-.009-16.442-.621-43.16 1.851-47.536-19.703-1.664-8.201 4.182-16.78 8.969-22.824 5.323-6.722 11.739-12.548 18.11-18.252 1.393.029 2.779-.056 4.122-.309.82-.155 1.551-.96 1.746-1.746.148-.596.231-1.189.285-1.781 7.263-.399 18.53-.618 25.805-.635.196 0 .378-.021.55-.056.722 1.039 1.921 1.722 3.283 1.722 2.209 0 4-1.791 4-4 0-2.208-1.791-3.999-4-3.999m-10.2 73.08h3.88c.012 1.167.032 2.334.084 3.5h-3.978c.057-1.167.051-2.333.014-3.5m-24.316-67.24c-1.51.082-3.1-.077-4.61-.329.021-1.038.081-2.076.092-3.115 1.484.173 2.971.303 4.464.371.047 1.028.116 2.056.054 3.073" fill="#1d1d1b"/></svg>