<svg xmlns="http://www.w3.org/2000/svg" viewBox="0 0 100 100" enable-background="new 0 0 100 100"><g fill="#1d1d1b"><path d="m96.74 13.333c-.003-.227-.036-.434-.085-.629.017-1.263-.787-2.538-2.415-2.538h-6.333c-.122 0-.231.02-.344.034-.691-.133-1.442.036-2.09.698-1.459 1.49-2.7 3.176-3.819 4.934h-3.274c-.906-1.208-1.691-2.508-2.468-3.801-.229-1.01-1-1.866-2.338-1.866h-41.33c-.137 0-.259.021-.384.038-.763-.109-1.565.079-2.05.694-1.229 1.56-2.25 3.16-3.039 4.934h-4.298c-.655-1.383-1.294-2.774-2.071-4.095-.067-.113-.144-.204-.219-.301-.297-.889-1.054-1.604-2.275-1.604-2.833 0-7.319-.935-9.953-.096-4.765 1.517-2.361 8.485-2.204 12 .239 5.352.044 10.757.073 16.11.066 12.188.19 24.377.349 36.564.072 5.529.136 11.06.238 16.583.014.787.326 1.379.785 1.781.17 1.084.963 2.052 2.382 2.052 2.45-.0001 4.9-.013 7.333-.333.19-.025.373-.066.552-.116 1.039.044 2.107-.463 2.525-1.719.494-1.484.936-2.971 1.193-4.498h4.849c.425 1 .69 2.046.714 3.167.009.409.099.765.246 1.07.301.906 1.053 1.671 2.254 1.763 12.09.931 30.21.999 42.33 1 .238 0 .452-.034.655-.085 1.025.037 2.056-.48 2.423-1.751.468-1.622.983-3.228 1.509-4.831h3.563c.655 1.248 1.309 2.498 1.773 3.831.062.177.142.344.232.502.332.845 1.053 1.551 2.178 1.666 2.994.308 5.993.333 9 .333.244 0 .463-.036.67-.089 1.273.031 2.545-.769 2.497-2.411-.584-20.01.938-58.991.667-78.999m-5.71 76.48c-1.749-.015-3.497-.048-5.241-.164-.705-1.681-1.567-3.284-2.391-4.914-.459-.909-1.517-1.326-2.49-1.205-.11-.013-.216-.033-.335-.033h-6.333c-1.446 0-2.238 1.01-2.387 2.116-.007.019-.017.033-.024.053-.498 1.494-.978 2.992-1.44 4.497-10.959-.006-27.912-.096-38.847-.841-.297-1.728-.917-3.377-1.809-4.919-.561-.969-1.447-1.287-2.299-1.186-.166-.032-.339-.052-.527-.052h-8c-1.461 0-2.252 1.027-2.39 2.149-.06.211-.104.434-.11.684-.029 1.246-.329 2.446-.694 3.63-1.438.134-2.882.181-4.327.196-.329-18.16-.635-55.33-.646-73.49 0-.502-.128-.921-.333-1.266v-.234h5.989c.857 1.55 1.567 3.175 2.353 4.762.413.835 1.339 1.241 2.24 1.213.085.008.163.025.252.025h7c.891 0 1.527-.388 1.926-.941.364-.317.649-.739.818-1.227.431-1.244 1.065-2.417 1.823-3.498h39.16c.98 1.588 2.01 3.129 3.169 4.601.263.334.625.532 1.018.638.37.263.839.427 1.416.427h5.667c1.33 0 2.102-.853 2.335-1.853.83-1.349 1.726-2.632 2.77-3.813h3.402c.153 18.553-1.102 56.09-.718 74.65"/><path d="m27.57 26.5h-8.667c-1.84 0-2.625 1.627-2.366 3.02-.079.245-.134.508-.134.809v4.525c-.671 1.481.044 3.642 2.167 3.642 2.894-.0001 5.788-.002 8.667-.333.174-.02.344-.053.509-.096 1.188-.073 2.324-.868 2.324-2.404v-5.668c0-.263-.043-.497-.105-.717.132-1.337-.66-2.783-2.395-2.783m-2.5 6.852c-1.221.078-2.443.116-3.667.131v-1.983h3.667v1.852"/><path d="m27.57 46.5h-8.667c-1.84 0-2.625 1.627-2.366 3.02-.079.245-.134.508-.134.809v4.525c-.671 1.481.044 3.642 2.167 3.642 2.894-.0001 5.788-.002 8.667-.333.174-.02.344-.053.509-.096 1.188-.073 2.324-.868 2.324-2.404v-5.668c0-.263-.043-.497-.105-.717.132-1.337-.66-2.783-2.395-2.783m-2.5 6.852c-1.221.078-2.443.116-3.667.131v-1.983h3.667v1.852"/><path d="m27.57 66.5h-8.667c-1.84 0-2.625 1.627-2.366 3.03-.079.245-.134.508-.134.809v4.525c-.671 1.481.044 3.642 2.167 3.642 2.894-.0001 5.788-.002 8.667-.333.174-.02.344-.053.509-.096 1.188-.073 2.324-.868 2.324-2.404v-5.668c0-.263-.043-.497-.105-.717.132-1.337-.66-2.783-2.395-2.783m-2.5 6.852c-1.221.078-2.443.116-3.667.131v-1.983h3.667v1.852"/><path d="m81.57 26.5h-8.667c-1.84 0-2.625 1.627-2.366 3.02-.079.245-.134.508-.134.809v4.525c-.671 1.481.044 3.642 2.167 3.642 2.894-.0001 5.788-.002 8.667-.333.174-.02.344-.053.509-.096 1.188-.073 2.324-.868 2.324-2.404v-5.668c0-.263-.043-.497-.105-.717.132-1.337-.66-2.783-2.395-2.783m-2.5 6.852c-1.221.078-2.443.116-3.667.131v-1.983h3.667v1.852"/><path d="m81.57 46.5h-8.667c-1.84 0-2.625 1.627-2.366 3.02-.079.245-.134.508-.134.809v4.525c-.671 1.481.044 3.642 2.167 3.642 2.894-.0001 5.788-.002 8.667-.333.174-.02.344-.053.509-.096 1.188-.073 2.324-.868 2.324-2.404v-5.668c0-.263-.043-.497-.105-.717.132-1.337-.66-2.783-2.395-2.783m-2.5 6.852c-1.221.078-2.443.116-3.667.131v-1.983h3.667v1.852"/><path d="m81.57 66.5h-8.667c-1.84 0-2.625 1.627-2.366 3.03-.079.245-.134.508-.134.809v4.525c-.671 1.481.044 3.642 2.167 3.642 2.894-.0001 5.788-.002 8.667-.333.174-.02.344-.053.509-.096 1.188-.073 2.324-.868 2.324-2.404v-5.668c0-.263-.043-.497-.105-.717.132-1.337-.66-2.783-2.395-2.783m-2.5 6.852c-1.221.078-2.443.116-3.667.131v-1.983h3.667v1.852"/></g></svg>