<svg xmlns="http://www.w3.org/2000/svg" viewBox="0 0 100 100" enable-background="new 0 0 100 100"><path fill="#1d1d1b" d="m92.73 29.566c-3.337 2.579-6.909 4.828-10.492 7.05-.019-4.457-.074-8.913-.24-13.368-.009-.249-.056-.471-.119-.681-.173-1.082-.967-2.054-2.381-2.069-20.336-.218-54.75.475-75.08.499-3.169.004-3.216 4.824-.154 4.985-.265 3.257-.614 6.506-.846 9.765-.036.51.069.929.256 1.277-.392 11.935.348 23.867.244 35.806-.008.902.384 1.542.943 1.939.401.425.971.714 1.723.728 19.778.345 53.648.951 73.42 0 .219-.011.42-.048.609-.1 1.189-.066 2.295-.859 2.224-2.4-.086-1.866-.124-3.733-.144-5.6 3.354 2.277 6.726 4.523 10.215 6.592.188.112.375.191.559.251 1.438 1.286 4.312.715 4.203-1.743-.595-13.454-.073-26.925-.65-40.38.728-1.931-2.148-4.206-4.284-2.556m-11.303 30.942c-1.551-1.054-3.035-.038-3.498 1.351-.163.321-.264.698-.264 1.141 0 2.53.028 5.059.099 7.587-18.249.772-50.595.291-68.85-.044.002-11.962-.72-23.917-.167-35.877.019-.397-.043-.744-.162-1.043.216-2.55.468-5.096.675-7.646 17.907-.105 49.896-.62 67.805-.491.151 5.138.181 10.277.183 15.418-.007.117-.008.232 0 .348 0 .082 0 .164 0 .247 0 2.765 3.67 3.151 4.717 1.173 3.431-2.155 6.866-4.286 10.193-6.587.302 10.594.057 21.2.347 31.791-3.756-2.359-7.409-4.873-11.08-7.368"/></svg>