<svg xmlns="http://www.w3.org/2000/svg" viewBox="0 0 100 100" enable-background="new 0 0 100 100"><path fill="#1d1d1b" d="m86.38 12.459c-5.15-4.432-12.155-3.315-17.964-.959-2.857 1.159-5.424 2.809-8.167 4.188-2.574 1.293-5.595 2.136-6.06 5.358-.5 3.451.771 7.619 3.338 9.984 2.264 2.087 5.316 2.759 8.343 2.778-2.026 13.12-4.297 26.602-10.489 38.4-4.688-9.2-4.977-20.651-6.432-30.6-1.491-10.193-4.108-21.943-14.02-27.11-2.851-1.488-6.04 1.513-8.468 3.057-3.256 2.072-6.42 4.286-9.672 6.365-2.918 1.865-6.094 3.305-8.847 5.43-1.244.961-2.792 2.142-3.521 3.579-1.157 2.28.223 2.704 1.04 4.602.408.947 1.275 1.674 2.625 1.662 5.855-.052 11.659-.672 17.381-1.843.327-.067 5.748 23.09 6.295 25.22 2.218 8.635 5.114 16.787 9.1 24.786 1.71 3.435 7.275 6.332 10.954 6.317 4.993-.02 9.693-3.236 13.451-6.21 8.679-6.869 15.14-16.05 19.454-26.19 2.419-5.679 4.324-11.695 5.713-17.711 2.177-9.436 4.343-23.88-4.048-31.1m-1.352 27.431c-1.743 9.179-5.086 18.16-9.69 26.28-2.556 4.508-5.906 8.422-9.207 12.393-2.521 3.03-5.443 5.626-9.06 7.254-6.306 2.838-9.957 1.556-12.877-4.99-3.119-6.99-5.605-14.555-7.337-22.01-1-4.3-1.988-8.601-3-12.898-.992-4.2-2.035-8.392-3.289-12.523-.009-.031-.024-.054-.034-.084-.328-1.528-1.691-2.882-3.654-2.411-4.232 1.016-8.489 1.679-12.792 2.02 6.236-4.414 12.908-8.151 19.269-12.379 8.414 5.669 9.275 18.375 10.498 27.588 1 7.565 1.767 15.296 4.272 22.555 1.051 3.045 2.685 7.681 5.709 9.357 8.326 4.613 14.34-26.17 15.315-30.668.878-4.055 1.565-8.142 2.224-12.24.345-2.15 2.72-10.17-2.118-9.539-2.466.322-5.197.59-7.411-.761-1.28-.781-1.627-2.373-1.674-3.919 5.78-3.907 16.882-11.286 22.892-5.369 5.157 5.076 3.136 16.186 1.968 22.343"/></svg>