<svg xmlns="http://www.w3.org/2000/svg" viewBox="0 0 100 100" enable-background="new 0 0 100 100"><g fill="#1d1d1b"><path d="m68.97 43.18c-1.192-1.802-2.453-3.609-3.673-5.356-2.559-3.667-5.204-7.457-7.409-11.472-1.737-3.161-3.03-6.615-3.854-10.268-.25-1.108-.345-2.354-.446-3.672-.159-2.082-.324-4.234-1.124-5.652-.716-1.269-2.083-2.057-3.567-2.057-1.511 0-3.319.892-3.447 3.402-.538 10.557-6.191 19.33-11.658 27.815-4.733 7.347-9.628 14.943-11.1 23.615-2.778 16.325 11.08 28.509 25.529 31.684 1.896.417 3.837.628 5.769.628 7.07 0 13.952-2.843 18.875-7.8 4.645-4.677 7.178-10.868 7.132-17.436-.051-7.298-4.883-14.393-9.146-20.652-.648-.949-1.28-1.876-1.877-2.779m1.787 33.513c-4.151 5.578-12.36 7.558-18.13 7.558-1.787 0-3.476-.173-5.02-.512-8.523-1.873-15.291-8.181-17.66-16.459-2.355-8.232 3.099-17.11 7.082-23.59l.581-.948c.84-1.372 1.688-2.73 2.535-4.084 2.801-4.48 5.446-8.712 7.638-13.213l.896-1.838.901 1.834c1.924 3.914 4.433 7.73 6.859 11.421 1.551 2.359 3.154 4.798 4.622 7.28 1.144 1.937 2.394 3.838 3.603 5.676 3.01 4.58 6.125 9.316 7.805 14.92 1.348 4.503.756 8.637-1.714 11.955"/><path d="m58.14 62.16c3.106 3.573 3.501 6.912-.688 9.671-4.267 2.811-.283 9.708 4.02 6.875 3.665-2.415 6.735-5.7 7.15-10.263.42-4.617-1.93-8.551-4.853-11.912-3.373-3.882-8.98 1.774-5.628 5.629"/></g></svg>