<svg xmlns="http://www.w3.org/2000/svg" viewBox="0 0 100 100" enable-background="new 0 0 100 100"><g fill="#1d1d1b"><path d="m67.787 34.09c-.031-4.393-3.329-8.584-5.621-12.05-1.855-2.803-3.925-5.468-5.547-8.419-.865-1.574-1.493-3.276-1.886-5.03-.319-1.42-.12-3.542-.841-4.821-1.102-1.953-4.33-1.712-4.464.897-.496 9.736-9.812 16.275-11.429 25.78-1.437 8.441 5.604 14.821 13.213 16.493 8.316 1.827 16.635-4.207 16.575-12.857m-16.663 8.118c-4.074-.895-7.363-3.953-8.498-7.917-1.178-4.117 1.769-8.615 3.796-11.928 1.792-2.929 3.68-5.746 5.134-8.732 1.597 3.248 3.893 6.225 5.787 9.429 2.02 3.409 4.527 6.378 5.683 10.236 2.183 7.292-6.755 10.04-11.902 8.912"/><path d="m78.55 47.47c-.865-1.574-1.493-3.276-1.886-5.03-.319-1.42-.12-3.542-.841-4.821-1.102-1.953-4.33-1.712-4.464.897-.496 9.736-9.812 16.275-11.429 25.78-1.437 8.441 5.604 14.821 13.213 16.493 8.315 1.827 16.635-4.207 16.575-12.857-.031-4.393-3.329-8.584-5.621-12.05-1.856-2.803-3.925-5.468-5.547-8.419m-5.496 28.583c-4.074-.895-7.364-3.953-8.498-7.917-1.178-4.117 1.769-8.615 3.796-11.928 1.792-2.929 3.68-5.746 5.134-8.732 1.597 3.248 3.893 6.225 5.787 9.429 2.02 3.409 4.527 6.378 5.682 10.236 2.184 7.293-6.754 10.04-11.901 8.912"/><path d="m41.632 63.1c-.865-1.574-1.493-3.276-1.886-5.03-.319-1.42-.12-3.542-.841-4.821-1.102-1.953-4.33-1.712-4.464.897-.496 9.736-9.812 16.275-11.429 25.78-1.437 8.441 5.604 14.821 13.213 16.493 8.315 1.827 16.635-4.207 16.575-12.857-.031-4.393-3.329-8.584-5.621-12.05-1.856-2.803-3.925-5.467-5.547-8.419m-5.496 28.584c-4.074-.895-7.364-3.953-8.498-7.917-1.178-4.117 1.769-8.615 3.796-11.928 1.792-2.929 3.68-5.746 5.134-8.732 1.597 3.248 3.893 6.225 5.787 9.429 2.02 3.409 4.527 6.378 5.682 10.236 2.184 7.292-6.754 10.04-11.901 8.912"/><path d="m40.09 80.914c1.56 1.795 1.759 3.473-.345 4.859-2.144 1.412-.142 4.878 2.02 3.454 1.842-1.213 3.384-2.864 3.593-5.156.211-2.32-.97-4.296-2.438-5.985-1.696-1.95-4.513.891-2.829 2.828"/><path d="m77.23 65.7c1.561 1.795 1.759 3.473-.345 4.859-2.144 1.412-.142 4.878 2.02 3.454 1.841-1.213 3.384-2.864 3.592-5.156.211-2.32-.97-4.296-2.438-5.985-1.695-1.95-4.513.891-2.828 2.828"/><path d="m55.51 31.914c1.56 1.795 1.759 3.473-.345 4.859-2.144 1.412-.142 4.878 2.02 3.454 1.842-1.213 3.384-2.864 3.593-5.156.211-2.32-.97-4.296-2.438-5.985-1.696-1.95-4.513.891-2.829 2.828"/></g></svg>