<svg xmlns="http://www.w3.org/2000/svg" viewBox="0 0 100 100" enable-background="new 0 0 100 100"><g fill="#1d1d1b"><path d="m96.09 72.27c-13.352-9.02-29.82 5.944-41.91-3.807 12.643-4.627 18.416-22.536 16.503-35.569-2.36-16.07-16.598-29.27-32.611-30.779-17.813-1.676-32.574 14.78-34.62 31.363-2.137 17.312 11.149 31.633 26.775 36.43.056 2.397.204 11.437.378 13.829-4.322 1.163-7.504 4.089-8.872 8.671-.151.511-.131.966-.003 1.361-.014 1.197.749 2.388 2.294 2.357 9.502-.194 18.995.224 28.493.475.286.008.536-.038.769-.107 1.167-.019 2.239-.768 2.081-2.267-.588-5.571-3.72-10.05-8.969-11.61-.281-2.14-.435-10.94-.494-13.1 1.231.107 2.416.096 3.561-.005 5.3 5.808 11.763 7.374 19.52 6.275 8.517-1.207 17.14-5.441 25.09-.066 2.143 1.449 4.142-2.02 2.02-3.454m-48.14 16.55c.911.753 1.633 1.702 1.953 2.898-3.592.237-7.23-.163-10.826-.251-1.443-.035-11.01-1.128-11.67-.132.91-1.378 2.198-2.387 3.812-2.922 5.582-.831 11.193-.615 16.731.407m.111-23.796c-2.07.338-6.955-.699-6.938 2.609.022 3.964.148 7.933.362 11.892.098 1.813.04 3.312.368 4.543-2.193-.138-4.389-.152-6.591-.03.84-5.173-.303-13.718-.313-15.693-.0001-.197-.022-.381-.061-.553-.062-.871-.578-1.688-1.682-1.974-14.14-3.67-25.326-14.973-25.15-30.14.17-14.647 13.264-28.596 27.951-28.887 13.515-.267 25.14 10.76 29.08 23.02 3.508 10.909.1 29.325-11.746 33.917-1.696.657-3.495 1.01-5.285 1.303"/><path d="m57.16 23.423c-7.03-10.166-21.565-11.21-32.04-5.926-.207.073-.416.17-.627.304-.038.024-.07.051-.107.075-1.055.573-2.065 1.21-3.02 1.912-.525.387-.856.866-1.042 1.375-7.151 7.189-8.416 17.946-3.176 27.32 6.575 11.765 22.07 14.266 32.963 7.399 11.05-6.962 14.472-21.718 7.04-32.459m-8.413 26.433c-7.786 7.02-20.01 5.03-26-3.17-5.757-7.878-3.605-18.508 4.332-23.778 7.438-3.994 17.228-4.221 23.706 1.709 7.959 7.285 5.133 18.777-2.033 25.24"/><path d="m49.669 29.21c-.088-.138-.162-.282-.257-.418-4.255-6.153-13.05-6.786-19.392-3.587-.125.044-.252.103-.379.184-.023.014-.043.031-.065.046-.639.347-1.25.732-1.825 1.157-.317.234-.519.524-.631.832-4.328 4.351-5.094 10.862-1.922 16.537 3.979 7.121 13.358 8.635 19.952 4.479 6.02-3.792 8.279-11.398 5.401-17.622-.017-.7-.381-1.254-.882-1.608m-7.575-1.229c.16-.119.287-.253.4-.392 1.099.451 2.134 1.081 3.056 1.925.388.355.718.73 1.022 1.115-.365 1.778-1.018 3.784-2.458 4.619-.167.097-.237.12-.646.217.047-.011-.675.006-.466.034-.828-.113-.979-.225-1.671-.695-.781-.53-1.481-1.838-1.538-2.836-.085-1.481.911-2.958 2.301-3.987m2.225 16.81c-4.713 4.249-12.11 3.047-15.74-1.919-3.484-4.769-2.183-11.203 2.622-14.393 1.992-1.07 4.263-1.691 6.516-1.742-1.143 1.404-1.884 3.059-1.929 5.01-.059 2.53 1.361 4.928 3.361 6.389 1.925 1.406 4.437 1.735 6.613.742 1.105-.504 1.975-1.302 2.661-2.255-.181 3.02-1.749 6.04-4.104 8.165"/></g></svg>