<svg xmlns="http://www.w3.org/2000/svg" viewBox="0 0 100 100" enable-background="new 0 0 100 100"><g fill="#1d1d1b"><path d="m53.998 42.599c-1.725-.652-3.58-.7-5.555-.138-.612-.201-1.268-.146-1.878.16-3.797 1.9-7.187 6.03-5.654 10.598 1.3 3.879 5.604 5.256 8.895 5.256 1.312 0 2.593-.204 3.707-.589 2.364-.818 4.482-2.74 5.527-5.02.876-1.908.959-3.875.241-5.69-.81-2.046-2.538-3.545-5.283-4.581m-8.455 8.914c-.299-.892.009-1.827.916-2.779.219-.062.418-.147.604-.259 1.068-.64 2.906-1.387 4.574-1.387 1.538 0 2.567.631 3.059 1.875.233.588.204 1.207-.086 1.838-.557 1.213-1.903 2.144-2.919 2.495-.527.182-1.209.282-1.921.282-1.63 0-3.716-.541-4.227-2.065"/><path d="m73.6 34.22c-.505-1.29-1.634-1.794-2.687-1.724-.395-.001-.811.076-1.237.318-2.411 1.367-4.847 2.685-7.232 4.107-2.936 1.751.703 6.597 1.295 8.865 1.053 4.03.399 8.278-1.716 11.788-.157.261-.25.519-.314.773-.138.152-.241.337-.357.51-.743.822-1.083 2.219-.406 3.177 1.644 2.326 3.725 4.137 6.114 5.542.415.244.821.338 1.207.337.644.091 1.331-.105 1.93-.748 8.367-8.967 7.697-21.985 3.403-32.945m-5.664 27.778c-.615-.437-1.209-.915-1.744-1.452.024-.1.054-.198.067-.301.005-.007.001-.012.015-.02 3.732-6.193 3.703-13.492.683-19.934.984-.562 1.972-1.117 2.959-1.672 2.543 7.891 3.134 16.661-1.98 23.379"/><path d="m85.14 19.353c-.456-.001-.937.076-1.43.318-2.787 1.367-5.602 2.685-8.358 4.107-2.543 1.313-.348 5.209.538 6.636 1.876 3.02 3.264 6.02 4.244 9.5 1.796 6.375 2.095 12.491.132 18.89-1.17 3.813-3.163 7.383-5.399 10.593-.182.261-.289.519-.363.773-.159.152-.279.337-.413.51-.859.822-1.251 2.219-.469 3.177 1.9 2.326 4.305 4.137 7.07 5.542.48.244.949.337 1.395.337.744.091 1.538-.105 2.231-.748 17.684-16.397 12.26-39.518 3.932-57.91-.584-1.29-1.889-1.795-3.106-1.725m-3.44 54.47c-.711-.437-1.397-.915-2.02-1.452.027-.1.062-.198.077-.301.005-.007.012-.012.017-.02 10.714-15.384 9.259-29.27.79-44.9 1.137-.562 2.279-1.117 3.42-1.672 6.321 16.98 11.617 32.536-2.289 48.34"/><path d="m38.29 58.34c-.064-.254-.156-.511-.314-.773-2.115-3.51-2.768-7.757-1.716-11.788.592-2.268 4.23-7.114 1.295-8.865-2.385-1.422-4.821-2.739-7.232-4.107-.427-.242-.843-.328-1.237-.318-1.052-.07-2.182.435-2.687 1.724-4.294 10.96-4.964 23.978 3.403 32.944.6.643 1.286.838 1.93.748.385.0001.791-.092 1.207-.337 2.39-1.405 4.47-3.216 6.114-5.542.677-.957.337-2.355-.406-3.177-.115-.172-.219-.357-.357-.509m-6.226 3.653c-5.114-6.718-4.522-15.489-1.981-23.379.987.556 1.975 1.11 2.959 1.672-3.02 6.442-3.049 13.741.683 19.934.005.007.001.012.015.02.013.103.043.201.067.301-.534.538-1.128 1.015-1.743 1.452"/><path d="m25.5 70.17c-.074-.254-.181-.511-.363-.773-2.236-3.21-4.229-6.78-5.399-10.593-1.964-6.398-1.664-12.515.132-18.89.98-3.478 2.368-6.479 4.244-9.5.886-1.427 3.081-5.323.538-6.636-2.757-1.422-5.572-2.74-8.358-4.107-.493-.242-.974-.328-1.43-.318-1.217-.07-2.521.435-3.105 1.724-8.328 18.393-13.753 41.513 3.932 57.91.693.643 1.487.838 2.231.748.446.0001.915-.092 1.395-.337 2.762-1.405 5.166-3.216 7.07-5.542.782-.957.39-2.355-.469-3.177-.135-.172-.254-.358-.414-.509m-7.196 3.653c-13.907-15.809-8.61-31.365-2.29-48.34 1.141.556 2.283 1.11 3.42 1.672-8.469 15.633-9.924 29.516.79 44.9.005.008.012.012.017.02.015.103.05.201.077.301-.617.537-1.303 1.015-2.01 1.452"/></g></svg>