<svg xmlns="http://www.w3.org/2000/svg" viewBox="0 0 100 100" enable-background="new 0 0 100 100"><g fill="#1d1d1b"><path d="m49.896 72.871c-.929 0-1.84.146-2.708.435-2.231.74-3.869 2.33-5.01 4.859-.718 1.596-.774 3.326-.167 5.146-.213.582-.146 1.206.195 1.779 1.521 2.551 4.811 5.53 9.08 5.53.816 0 1.635-.114 2.435-.339 2.154-.605 3.819-2.01 4.816-4.059 1.141-2.346 1.249-5.262.28-7.609-1.348-3.273-5.184-5.742-8.919-5.742m3.82 11.479c-.404.83-1.01 1.362-1.787 1.582-1.021.289-2.079-.002-3.142-.849-.07-.202-.165-.386-.288-.558-1.01-1.407-1.858-3.627-1.354-5.174.268-.822.91-1.407 1.907-1.738.3-.1.61-.15.922-.15 1.684 0 3.349 1.507 3.924 2.903.401.971.467 2.651-.182 3.984"/><path d="m69.03 63.32c-9.822-7.689-24.08-7.07-36.09-3.127-1.413.464-1.965 1.502-1.889 2.469-.011.363.083.745.349 1.137 1.498 2.216 2.941 4.454 4.499 6.646 1.918 2.698 7.227-.646 9.712-1.19 4.416-.967 9.07-.367 12.914 1.577.286.145.568.23.846.288.166.127.369.221.559.328.901.683 2.431.995 3.48.373 2.548-1.511 4.532-3.423 6.071-5.619.268-.382.37-.755.369-1.109.099-.59-.115-1.221-.819-1.773m-7.249 3.681c-.11-.022-.217-.05-.33-.062-.008-.004-.014-.009-.022-.014-6.785-3.43-14.78-3.403-21.838-.628-.616-.904-1.223-1.812-1.832-2.72 8.644-2.335 18.252-2.879 25.612 1.821-.479.566-1 1.112-1.59 1.603"/><path d="m18.547 46.739c-1.413.536-1.965 1.736-1.889 2.854-.011.419.083.861.349 1.314 1.498 2.561 2.941 5.148 4.499 7.681 1.438 2.337 5.707.32 7.27-.494 3.309-1.724 6.598-2.999 10.408-3.9 6.984-1.65 13.685-1.926 20.694-.121 4.177 1.076 8.09 2.907 11.605 4.962.286.167.569.265.846.333.166.146.369.256.559.379.9.789 2.431 1.15 3.48.431 2.548-1.746 4.532-3.956 6.071-6.494.268-.441.37-.872.369-1.282.099-.684-.115-1.413-.819-2.05-17.963-16.251-43.29-11.266-63.44-3.613m56.19 7.867c-.11-.025-.217-.057-.33-.071-.008-.005-.013-.011-.022-.016-16.854-9.846-32.06-8.509-49.19-.726-.616-1.045-1.223-2.095-1.832-3.143 18.602-5.808 35.645-10.676 52.963 2.104-.478.653-1 1.284-1.59 1.852"/><path d="m53.05 16.534c-14.09 0-29.798 3.365-48.02 10.287-2.08.79-2.123 2.587-2.087 3.119-.011.571.109 1.018.369 1.462.7 1.198 1.393 2.399 2.085 3.601 1.42 2.464 2.888 5.01 4.404 7.478.457.742 1.247 1.102 2.417 1.102 1.694 0 4.04-.753 6.773-2.179 5.063-2.638 9.916-4.456 15.269-5.721 5.672-1.341 10.909-1.993 16.01-1.993 4.904 0 9.604.596 14.367 1.823 5.501 1.417 11.07 3.796 17.02 7.273.281.164.585.283.956.374l.24.059.185.164c.134.118.292.209.447.306l.357.24c1.061.93 2.823 1.222 3.804.55 3.382-2.317 6.235-5.37 8.482-9.08.262-.432.389-.867.388-1.332l.001-.145c.11-.759-.181-1.458-.865-2.077-11.233-10.162-25.57-15.315-42.612-15.315m35.913 18.633c-.808 1.102-1.596 2.02-2.411 2.804l-.391.376-.671-.157c-.077-.02-.154-.041-.234-.051l-.203-.025-.261-.157c-11.433-6.669-22.628-9.911-34.23-9.911-11.05 0-22.449 2.841-35.871 8.94l-.818.372-.457-.774c-.772-1.31-1.535-2.624-2.297-3.938l-.982-1.691 1.196-.374c15.698-4.901 28.757-8.651 41.981-8.651 13.04 0 24.634 3.874 35.431 11.841l.802.592-.589.804"/></g></svg>