<svg xmlns="http://www.w3.org/2000/svg" viewBox="0 0 100 100" enable-background="new 0 0 100 100"><g fill="#1e1e1c"><path d="m12.333 48.17c8.714.646 17.432 1.142 26.17 1.333.309.007.577-.045.826-.122 1.137-.112 2.134-.896 2.01-2.378-.751-8.818-.544-17.663-.833-26.5-.146-4.457-7.714-.846-9.8-.276-6.085 1.665-12.275 2.964-18.533 3.776-.686.089-1.214.402-1.604.822-.619.389-1.063 1.055-1.063 2.01v18c0 .688.235 1.22.594 1.614.308.888 1.054 1.632 2.239 1.72m2.167-19.495c7.145-1.043 14.15-2.606 21.09-4.628.141 6.799.109 13.599.555 20.386-7.224-.204-14.438-.6-21.646-1.113v-14.645"/><path d="m47.667 49.33c8.966.182 18.06.946 27.06 1.594 2.195.158 4.359.564 6.547.773 1.568.15 3.092-.579 3.058-2.367-.271-14.09-.549-26.06-.5-40.17.007-1.822-1.587-2.613-2.976-2.376-.359-.008-.735.055-1.119.217-10.572 4.471-23.1 7.02-34.24 9.915-1.592.413-2.02 1.871-1.649 3.092-.018.154-.029.313-.02.485.494 8.382.492 16.797 1.167 25.17.029.362.126.677.263.957-.074 1.301.723 2.676 2.403 2.71m31.22-36.579c.265 11.857-.115 21.634.338 33.483-9.772-.645-19.527-1.54-29.32-1.838-.562-7.728-.608-15.49-1.041-23.23 9.623-2.685 20.83-4.527 30.02-8.419"/><path d="m41.667 72.5c0-.044-.012-.085-.014-.128.003-.07.016-.132.014-.205-.191-5.838-.643-11.662-.834-17.5-.044-1.367-.975-2.149-2.02-2.355-.246-.083-.51-.142-.812-.145-8.882-.104-17.66-1.444-26.501-2.167-3.317-.271-2.032 5.162-1.948 7.13.056 1.33.095 2.66.105 3.991.017 1.9.41 3.797.157 5.695-.237 1.781-1.306 4.166 1.188 4.76 9.284 2.214 18.499 4.681 27.667 7.333 1.299.376 2.278-.255 2.759-1.177.298-.403.466-.886.405-1.401-.148-1.273-.165-2.549-.165-3.831m-4.991.647c-7.355-2.089-14.743-4.052-22.17-5.859.252-4.01.17-8.02-.05-12.03 7.16.677 14.292 1.616 21.483 1.847.219 5.02.566 10.04.731 15.06.002.052.015.095.02.145-.005.063-.02.124-.02.188.0001.216.009.431.001.647"/><path d="m84.2 58.22c-.175-1.094-.965-2.116-2.367-2.22-9.459-.706-19.1-1.45-28.572-2.758-1.963-.271-8.08-2.621-7.928 1.258.323 8.386.499 16.776.667 25.17.036 1.811 1.635 2.606 3.01 2.38 10.772 2.764 21.556 5.484 32.16 8.864 1.617.516 2.736-.572 3-1.86.096-.263.161-.552.162-.884.042-9.614.596-19.221.167-28.833-.02-.431-.13-.798-.3-1.114m-4.837 26.896c-9.389-2.876-18.904-5.296-28.414-7.735-.136-6.511-.29-13.02-.512-19.531 9.659 1.411 19.379 2.239 29.11 2.977.28 8.097-.074 16.191-.185 24.289"/></g></svg>