<svg xmlns="http://www.w3.org/2000/svg" viewBox="0 0 100 100" enable-background="new 0 0 100 100"><g fill="#1e1e1c"><path d="m95.14 20.811c.039-1.214-.718-2.452-2.284-2.441-28.25.207-56.49-.761-84.74.211-3.511.123-2.115 5.358-2.02 7.266.579 11.09-.277 22.253.314 33.381.188 3.531.524 6.94 1.134 10.42.418 2.381-1.153 9.885 2.309 10.378 27.628 3.936 55.41-.055 83-2.284.163-.013.313-.045.459-.083 1.207.03 2.437-.728 2.436-2.285-.014-14.949-.252-40.37-.264-53.32-.0001-.5-.137-.909-.347-1.245m-84.15 2.426c26.593-.732 53.17-.027 79.76-.124.003 1.932.017 1.759.026 3.691-.098-.005-.188-.019-.294-.013-26.566 1.479-53.17.362-79.76.769.059-2.476.14-1.847.261-4.323m-.335 9.06c26.611-.41 53.24.711 79.83-.769.113-.006.213-.031.318-.049.015 2.211.035 4.421.054 6.632-.038.0001-.069-.006-.108-.003-26.631 1.818-53.32 2.595-80.01 2.109-.074-2.639-.103-5.279-.087-7.92m1.98 43.35c-.871-5.682-1.406-24.97-1.701-30.691 26.627.479 53.25-.298 79.82-2.111.052-.004.098-.019.147-.025.048 5.587.092 24.754.106 30.341-25.991 2.178-52.34 5.909-78.37 2.486"/><path d="m26.776 63.54c-.211-.129-.466-.211-.776-.209-2.458.013-4.896.186-7.333.5-.905.117-1.378.865-1.42 1.587-.2.305-.294.693-.193 1.145.301 1.357.614 2.719.779 4.101.012.097.03.193.054.286-.024.768.456 1.552 1.446 1.548 2.391-.011 4.777-.155 7.167-.167.168-.0001.315-.031.454-.073.808.078 1.633-.392 1.546-1.427-.174-2.085-.36-4.169-.721-6.232-.113-.648-.524-.975-1-1.059m-6.129 5.928c-.146-.939-.324-1.872-.517-2.803 1.627-.171 3.257-.275 4.894-.312.144.997.259 1.997.349 3-1.575.027-3.15.08-4.726.114"/><path d="m78.74 64.2c-6.118 3.066-13.221 2.135-19.798 1.586-6.634-.554-13.247-.929-19.678 1.097-1.838.579-1.053 3.476.798 2.893 13.09-4.122 27.657 3.298 40.19-2.985 1.731-.868.211-3.455-1.513-2.591"/></g></svg>