<svg xmlns="http://www.w3.org/2000/svg" viewBox="0 0 100 100" enable-background="new 0 0 100 100"><g fill="#1d1d1b"><path d="m95.68 19.842c1.033-1.426.392-4.04-1.932-4.092-22.92-.508-63.881-.96-86.75 1-.471.04-.865.193-1.198.408-.711.372-1.254 1.067-1.302 2.092-.704 15.16-.534 51.34-1 66.5-.008.258.027.488.079.704.04.951.573 1.867 1.757 2.207 22.706 6.518 64.824 1.988 87.92.589.759-.046 1.333-.367 1.734-.82.77-.338 1.336-1.058 1.266-2.18-.947-15.14-1.201-50.51-.569-66.41m-86.28 1.733c21.04-1.65 60.16-1.349 81.25-.891-.117 3.169-.199 6.752-.25 10.562-27.09-.204-54.18.482-81.28.747.071-3.767.161-7.303.279-10.418m-.866 62.772c.277-9.816.31-33.983.504-47.35 27.1-.264 54.2-.951 81.31-.748-.083 13.629.201 38.08.792 48.14-21.326 1.464-61.63 5.393-82.61-.039"/><path d="m15.5 24c-3.224 0-3.224 5 0 5s3.224-5 0-5"/><path d="m24.25 23.75c-3.224 0-3.224 5 0 5s3.224-5 0-5"/><path d="m33.5 23.25c-3.224 0-3.224 5 0 5s3.224-5 0-5"/><path d="m75.25 43.75c-18.326.718-36.673.541-55 1.25-3.213.124-3.226 5.125 0 5 18.327-.709 36.674-.532 55-1.25 3.213-.126 3.226-5.126 0-5"/><path d="m75.25 54.75c-18.326.718-36.673.541-55 1.25-3.213.124-3.226 5.125 0 5 18.327-.709 36.674-.532 55-1.25 3.213-.126 3.226-5.126 0-5"/><path d="m75.25 66.75c-18.326.718-36.673.541-55 1.25-3.213.124-3.226 5.125 0 5 18.327-.709 36.674-.532 55-1.25 3.213-.126 3.226-5.126 0-5"/></g></svg>