<svg xmlns="http://www.w3.org/2000/svg" viewBox="0 0 100 100" enable-background="new 0 0 100 100"><path fill="#1d1d1b" d="m79.4 14.29c-.332-.92-.822-1.849-1.543-2.779-4.154-5.355-12.286-6.106-18.468-6.98-10.868-1.534-22.95-2.144-33.476 1.563-11.245 3.96-11.484 13.727-10.313 24.04 1.147 10.1 1.484 22.361 8.251 30.556 3.764 4.558 10.136 8.543 15.831 10.164.264.075.51.098.748.1 1.313.283 2.628.516 3.946.704.123 2.035.256 4.069.415 6.101.113 1.436-6.802 3.139-8.07 3.911-6.189 3.764-3.288 10.179 2.186 12.585 4.861 2.136 10.818 2.808 16.07 2.237.071-.008.131-.03.198-.042.107.015.208.038.323.042 5.857.172 11.264-2.141 13.98-7.547.115-.229.184-.453.233-.676.107-.283.161-.585.123-.901-.365-2.99-1.364-5.72-3.696-7.74-2.133-1.848-4.83-2.617-7.58-2.882-.104-1.623-.165-3.249-.182-4.881 24.576-6.908 21.622-35.654 21.622-55.916.0001-.702-.234-1.248-.593-1.657m-44.05-4.737c8.731-1.279 17.766-2 26.423.151 3.817.951 15.884 5.071 10.696 10.99-.014.016-.028.031-.042.047-3.793 4.253-10.486 4.628-15.776 4.706-6.636.098-13.286-.214-19.89-.864-4.767-.47-10.209-1.26-13.459-5.187-5.968-7.213 7.96-9.244 12.05-9.843m23.959 73.73c-.073-.41-.122-.822-.185-1.233 2.729.497 4.929 2.05 5.425 5.02-1.966 3.217-5.154 4.303-8.963 4.211-.191-.022-.395-.025-.615-.0001-6.173.672-13.04.573-16.462-4.944 1.62-2.02 3.921-3.169 6.557-3.396.072-.006.134-.027.203-.038.02.186.036.373.057.559.374 3.301 5.591 3.337 5.213 0-.426-3.764-.691-7.54-.922-11.319 1.181.053 2.364.068 3.55.045.059 4.193.375 8.351 1.115 12.488.59 3.305 5.614 1.9 5.03-1.387m-2.146-16.506c-.121-.005-.237-.016-.368-.004-5.224.464-10.344.201-15.468-.95-.148-.033-.287-.042-.427-.053-8.251-2.399-13.12-7.434-16-13.751 14.632 6.541 33.24 6.785 47.551-.466-2.391 7.089-6.901 12.797-15.283 15.224m-33.743-21.09c6.936-5.069 16.282-6.771 24.651-7.122 8.07-.338 18.643.859 24.469 7.215-14.473 8.51-34.577 7.967-49.12-.093m51.15-4.739c-6.46-5.598-15.586-7.243-24.06-7.411-9.746-.193-20.443 1.898-28.764 7.314-.827-5.272-1.024-10.828-1.094-16.17 4.973 2.856 12 3.984 16.314 4.647 10.387 1.597 21.259.294 31.542-1.45 2.25-.382 4.525-1.345 6.447-2.71.111 5.119.141 10.555-.382 15.78"/></svg>