<svg xmlns="http://www.w3.org/2000/svg" viewBox="0 0 100 100" enable-background="new 0 0 100 100"><g fill="#1d1d1b"><path d="m87.8 21.911c-8.127-13.331-22.336-17.439-37.08-14.643-16.537-6.798-32.32-1.618-41.16 14.02-4.098 7.251-5.968 15.66-6.501 23.904-.867 13.41.744 27.588 1.88 40.955.038.447.194.814.414 1.113.052.779.506 1.518 1.481 1.792 11.703 3.289 23.473 4.23 35.34 1.258.275-.033.551-.114.812-.243.256-.127.517-.243.776-.362-.035.673-.09 1.346-.185 2.02-.376 2.652 3.677 3.795 4.057 1.118.454-3.201.412-6.306-.065-9.456 3.985.578 8.06.71 11.885.658.498-.007.902-.156 1.217-.392.541-.025 1.063-.078 1.579-.143.458 3.01 1.88 5.661 3.956 7.982 1.812 2.026 4.777-.959 2.975-2.975-1.551-1.734-2.601-3.733-2.834-6.02 3.554-1.368 6.344-3.844 8.486-7.01 8.244 1.291 16.241-.964 22.22-6.956.636-.637.727-1.387.503-2.039.066-.205.112-.424.113-.675.02-14.957-1.942-30.897-9.868-43.898m-27.821 57.57c-.469.006-.85.143-1.157.355-10.06.092-21.644-.938-27.857-9.903-5.322-7.678-5.774-10.434-6.26-18.366 17.329-.519 35.669-4.699 50.37-13.765.013.112.024.225.056.343 3.267 12.268 2.7 41.11-15.15 41.34m17.05-7.922c4.467-9.756 4.586-23.31 2.641-32.482 1.111.688 2.248 1.335 3.44 1.903 2.436 1.16 4.571-2.466 2.123-3.633-2.526-1.203-4.902-2.687-7.112-4.404-.218-.169-.453-.307-.695-.408-.559-.36-1.284-.422-2.029.079-14.953 10.08-34.32 14.473-52.4 14.786-.457-.127-.948-.123-1.383.02-1.064.006-2.126.004-3.18-.017-2.715-.056-2.709 4.151 0 4.207.686.014 1.379.008 2.069.011.591 9.155 1.305 12.466 7.318 21.14 3.734 5.387 9.293 8.264 15.373 9.766.007.103.009.205.03.313.158.793.28 1.591.375 2.39-.742.305-1.484.611-2.21.952-.067.011-.131.013-.201.03-10.827 2.738-21.445 1.931-32.11-.923-.91-11.01-1.315-22.06-1.78-33.1-.344-8.169.659-16.03 3.523-23.713 2.688-7.216 7.503-13.739 14.247-17.573 7.749-4.405 16.899-2.766 24.707.483.551.229 1.027.201 1.418.022.076-.008.148-.007.226-.022 14.296-2.834 26.52 1.76 33.871 14.546 6.78 11.794 8.183 26.535 8.165 39.869 0 .104.017.198.029.294-4.531 4.221-10.369 6.083-16.463 5.457"/><path d="m39.996 56.17c-.137-1.138-.854-2.104-2.104-2.104-1.043 0-2.24.962-2.104 2.104.201 1.677.543 3.305.952 4.941.657 2.631 4.714 1.514 4.057-1.118-.315-1.261-.647-2.531-.801-3.823"/><path d="m65.69 56.661c-.305-1.262-.482-2.535-.626-3.823-.128-1.139-.86-2.103-2.104-2.103-1.05 0-2.232.962-2.104 2.103.186 1.658.384 3.318.776 4.941.637 2.637 4.694 1.519 4.058-1.118"/><path d="m48.4 64.3c2.319 1.509 5.188 1.723 7.756.738 1.069-.41 1.795-1.4 1.469-2.588-.281-1.024-1.516-1.88-2.587-1.469-1.602.614-3.05.64-4.515-.314-2.281-1.484-4.387 2.16-2.123 3.633"/><path d="m63.23 67.48c-4.656 3.994-10.951 3.678-16.207 1.073-2.422-1.2-4.555 2.428-2.123 3.633 7.07 3.501 15.13 3.566 21.305-1.731 2.062-1.769-.928-4.731-2.975-2.975"/></g></svg>