<svg xmlns="http://www.w3.org/2000/svg" viewBox="0 0 100 100" enable-background="new 0 0 100 100"><path d="m70.44 13.389c-8.522-4.739-18.514-5.569-28.06-6.112-3.043-.173-6.671 1-9.573 1.882-3.56 1.079-6.922 2.778-9.868 5.05-6.895 5.323-10.848 13.379-12.923 21.673-1.792 7.168-2.434 15.239-1.428 22.997-.034.372.0001.749.143 1.105 1.2 7.951 4.185 15.507 9.548 21.332 17.213 18.695 52 14.13 67.51-4.317 9.782-11.631 9.614-27.09 3.94-40.56-4-9.497-10.168-17.98-19.29-23.05m-50.37 11.244c5.01-7.915 13.08-11.338 21.732-11.92-5.531 3.961-9.713 9.212-12.623 15.16-4.222.875-8.385 2-12.445 3.373.907-2.293 2-4.513 3.336-6.616m-6.465 32.14c-.594-6.473-.311-13.189 1.237-19.551 3.9-1.459 7.919-2.699 12.01-3.692-3.051 9.08-3.488 19.249-1.475 28.806-4.075-1.064-8-2.577-11.667-4.655-.033-.303-.081-.601-.109-.908m23.561 29.875c-12.07-3.142-19.4-11.685-22.311-22.762 3.818 1.756 7.837 3.01 11.958 3.876 2.293 7.195 6.04 13.824 11.196 19.09-.28-.067-.563-.127-.843-.2m-4.886-17.95c3.779.503 7.601.742 11.393.804.063 5.53.301 11.06.815 16.584-5.553-4.44-9.643-10.549-12.208-17.388m11.382-4.137c-4.339-.044-8.721-.362-13.01-1.091-2.593-10.291-1.985-21.616 2.033-31.18 4.045-.738 8.142-1.233 12.249-1.466-.516 11.247-1.202 22.493-1.272 33.733m1.484-38.731c-3.223.158-6.44.469-9.636.93 2.539-4.11 5.838-7.707 9.927-10.494-.06 3.187-.165 6.376-.291 9.564m25.722-6.348c4.478 2.905 8.07 7.127 10.873 11.868-5.557-2.115-11.322-3.607-17.19-4.523-2.801-4.832-6.236-9.312-10.02-13.288 5.746.978 11.306 2.682 16.332 5.943m-20.436-2.995c2.87 2.958 5.478 6.161 7.735 9.572-2.663-.227-5.338-.342-8.02-.346.121-3.076.221-6.151.282-9.226m-.494 14.191c3.795-.015 7.583.202 11.334.668 3.075 5.928 5.073 12.375 5.537 19.218.296 4.353-.219 8.472-1.366 12.345-4.87.752-9.78 1.256-14.704 1.505-.69.035-1.385.062-2.081.086.074-11.271.766-22.547 1.28-33.822m-.524 54.605c-.465-5.267-.681-10.535-.741-15.806 4.885-.104 9.793-.486 14.676-1.143-3.119 6.537-8.06 12.231-13.935 16.949m25.02-4.769c-5.977 4.047-13.05 6.465-20.301 7.269 6.679-5.761 11.921-12.491 14.921-20.333 6.284-1.115 12.482-2.684 18.507-4.618-2.02 7.02-6.532 13.216-13.13 17.682m14.163-23.23c-.085.02-.167.029-.255.059-5.764 1.951-11.657 3.486-17.625 4.642.738-3.16 1.141-6.479 1.14-9.974-.002-6.834-1.688-13.478-4.481-19.678 5.712 1.144 11.292 2.897 16.619 5.33.344.157.682.23 1.01.244 1.052 2.53 1.915 5.102 2.59 7.619 1.07 3.994 1.372 7.952 1 11.758" fill="#1d1d1b"/></svg>