<svg xmlns="http://www.w3.org/2000/svg" viewBox="0 0 100 100" enable-background="new 0 0 100 100"><path d="m79.923 59.58c-2.029 0-4.181.383-6.296 1.113-2.646-3-5.424-5.912-8.121-8.737-2.925-3.065-5.95-6.235-8.76-9.474-1.27-1.462-2.56-2.903-3.848-4.343-2.987-3.335-6.075-6.785-8.79-10.415-.093-.124-.312-.392-.597-.737-.386-.467-1.409-1.705-1.917-2.429 1.82-6.425.445-12.3-3.826-16.215-3.802-3.484-8.949-5.326-14.884-5.326-1.054 0-2.14.059-3.229.173-1.426.15-2.479 1.162-2.682 2.577-.189 1.316.411 2.673 1.447 3.438.39.523.934.918 1.585 1.141 2.918.993 5.975 2.349 6.524 4.872.389 1.787-1.677 3.577-2.319 4.083-1.629 1.283-4.049 1.811-6.05 1.309-3.155-.793-4.927-4.143-5.755-6.276-.057-.741-.358-1.435-.874-1.996-.655-.711-1.575-1.119-2.522-1.119-1.417 0-2.589.907-2.985 2.309l-.039.147c-.025.08-.046.163-.065.248-2.01 7.491-.81 14.303 3.376 19.19 2.61 3.044 6.213 4.653 10.421 4.653 2.01 0 4.15-.376 6.251-1.095 2.874 3.283 5.891 6.479 8.819 9.581 2.557 2.708 5.201 5.508 7.708 8.324 1.01 1.131 2.02 2.252 3.03 3.372 3.394 3.758 6.904 7.643 9.989 11.745.093.123.31.387.594.729.388.467 1.417 1.705 1.929 2.428-1.801 6.43-.409 12.302 3.874 16.204 3.793 3.456 8.917 5.282 14.817 5.282 1.08 0 2.193-.061 3.31-.182 1.426-.154 2.476-1.169 2.675-2.585.185-1.317-.419-2.671-1.457-3.434-.392-.524-.938-.918-1.589-1.137-2.921-.984-5.982-2.331-6.538-4.853-.395-1.786 1.666-3.582 2.307-4.09 1.626-1.288 4.045-1.824 6.05-1.326 3.158.783 4.94 4.128 5.774 6.26.059.738.362 1.431.878 1.99.654.709 1.573 1.115 2.519 1.115 1.421 0 2.595-.911 2.986-2.312l.04-.154c.024-.079.046-.161.064-.245 1.987-7.498.769-14.308-3.432-19.18-2.609-3.02-6.201-4.621-10.388-4.621m10.437 20.519c-1.857-3.888-4.622-6.436-7.917-7.254-3.18-.786-6.922.035-9.495 2.074-2.982 2.363-4.341 5.312-3.729 8.09.947 4.293 5.139 6.313 7.864 7.325-5.112.103-9.319-1.356-12.48-4.237-4.615-4.205-3.303-10.356-2.525-12.808.425-1.341-.357-2.37-2.896-5.424-.226-.271-.401-.479-.474-.577-3.193-4.245-6.764-8.198-10.217-12.02-1.01-1.112-2.01-2.227-3.01-3.35-2.546-2.86-5.211-5.683-7.788-8.412-3.209-3.399-6.529-6.916-9.612-10.502l-.947-1.101-1.339.559c-2.047.854-4.148 1.305-6.078 1.305-3.047 0-5.531-1.096-7.384-3.257-3.635-4.24-3.675-9.534-3.042-13.292 1.847 3.893 4.603 6.449 7.896 7.275 3.177.8 6.922-.014 9.501-2.045 2.989-2.355 4.356-5.3 3.751-8.08-.935-4.296-5.122-6.329-7.842-7.348 5.114-.075 9.314 1.382 12.468 4.273 4.604 4.219 3.273 10.367 2.488 12.815-.429 1.338.35 2.368 2.875 5.427.227.274.403.484.478.584 2.821 3.772 5.969 7.289 9.01 10.689 1.275 1.424 2.551 2.85 3.808 4.297 2.872 3.309 5.93 6.513 8.887 9.612 2.978 3.121 6.06 6.349 8.913 9.649l.95 1.098 1.338-.562c2.057-.865 4.17-1.322 6.11-1.322 3.03 0 5.506 1.089 7.357 3.235 3.646 4.23 3.701 9.525 3.078 13.285" fill="#1d1d1b"/></svg>