<svg xmlns="http://www.w3.org/2000/svg" viewBox="0 0 100 100" enable-background="new 0 0 100 100"><g fill="#1e1e1c"><path d="m80.73 28.855c-.181-5.491-.282-12.909-.228-18.404.002-.245-.037-.461-.093-.664.107-1.197-.596-2.461-2.129-2.421-19.354.508-38.704-.25-58.06-.28-1.61-.003-2.315 1.412-2.117 2.654-.064.216-.109.448-.106.712.292 23.09 1.086 56.28 1.111 79.38 0 .518.147.939.382 1.272.142.979.846 1.845 2.119 1.813 8.365-.208 16.734-.342 25.09-.752 7.45-.365 16.734.124 23.856-2.307 2.521-.861 4.776-2.134 6.71-3.977 3.534-3.369 4.741-7.892 5.05-12.658.292-4.577-.247-9.379-.354-13.597-.275-10.895-.872-19.875-1.231-30.768m-12.246 41.19c-1.362.008-2.678 1.071-2.069 2.705 1.224 3.286 1.784 7.366-.099 10.509-2.276 3.801-6.338 3.698-10.2 4.185-2.362.298-4.873.14-7.253.207-1.853.052-25.314.624-25.314.716-.055-22.23-.79-54.55-1.087-76.78 17.868.077 35.733.691 53.601.309-.068 18.253 1.55 44.639 1.646 59.06-2.772-.875-5.637-1.244-8.595-1.046-.231.014-.436.067-.63.134m1.746 15.196c1.794-3.058 2.242-6.81 1.309-10.877 2.161.084 4.292.501 6.31 1.356.008.025.015.052.023.077-.654 4.819-3.703 7.776-7.642 9.444"/><path d="m36.948 49.8c1.186-1.841 2.322-3.712 3.328-5.664 1.326-2.575-2.557-4.852-3.886-2.271-.742 1.44-1.559 2.834-2.409 4.207-.991-1.319-1.958-2.658-2.873-4.04-1.593-2.408-5.492-.157-3.886 2.271 1.312 1.982 2.712 3.898 4.169 5.769-1.175 1.759-2.365 3.509-3.502 5.294-1.565 2.455 2.331 4.71 3.886 2.271.842-1.322 1.714-2.625 2.587-3.927.99 1.148 2 2.279 3.045 3.382 1.999 2.111 5.176-1.077 3.182-3.182-1.26-1.334-2.465-2.711-3.641-4.11"/><path d="m53.833 52.917c-2.02.108-4.03.05-6.04-.117-.252-3.377-.441-6.757-.712-10.133-.231-2.872-4.732-2.895-4.5 0 .316 3.942.504 7.893.833 11.833.004.045.017.082.023.126-.007.069-.023.139-.023.208 0 1.337 1.033 2.104 2.25 2.25 2.715.326 5.434.479 8.167.333 2.887-.155 2.901-4.655 0-4.5"/><path d="m62.55 45.18c.783-.572 1.521-.543 2.445-.429 1.22.15 2.25-1.137 2.25-2.25 0-1.34-1.033-2.1-2.249-2.25-4.252-.524-10.702 5.02-5.324 8.48.147.154.314.291.521.379 1.68.717 3.383 1.131 5.207 1.17 1.103 2.334-2.384 2.288-3.781 2.489-.96.138-2.042.104-2.611 1-.705 1.112.067 3 1.389 3.233 2.863.499 6.978-.036 8.829-2.583.379-.522.645-1.125.801-1.767.466-1.905.012-4.375-1.454-5.773-1.737-1.658-4.11-.543-6.02-1.701"/></g></svg>