<svg xmlns="http://www.w3.org/2000/svg" viewBox="0 0 100 100" enable-background="new 0 0 100 100"><path d="m72.76 1.892c-3.295 0-6.212 1.692-8 4.643-1.757 2.892-3.524 5.979-5.233 8.964-2.422 4.23-4.909 8.575-7.5 12.614-5-6.913-11.04-14.51-17.63-22.17-2.312-2.688-4.892-3.252-6.648-3.252-3.63 0-7.195 2.453-8.871 6.103-1.66 3.617-1.094 7.588 1.515 10.622 7.211 8.383 15.398 18.18 21.599 28.646.003.526.005 1.059.008 1.596h-2.086c-6.228 0-9.485 4.891-9.485 9.722 0 3.434 1.645 6.896 4.832 8.613-3.66 1.559-5.555 5.276-5.555 8.96 0 4.831 3.259 9.722 9.485 9.722h2.35c-.009.651-.018 1.225-.028 1.404-.201 2.671.556 5.01 2.188 6.773 1.687 1.817 4.231 2.86 6.983 2.86 4.751 0 9.8-3.181 10.258-9.256.016-.213.025-.639.043-1.782h.594c2.867 0 5.4-1.11 7.135-3.127 1.516-1.763 2.351-4.105 2.351-6.595 0-3.52-1.729-7.07-5.075-8.739 1.136-.526 2.141-1.28 2.965-2.239 1.517-1.763 2.351-4.105 2.351-6.595 0-4.831-3.258-9.722-9.485-9.722h-.375c-.003-.454-.005-.903-.007-1.349 5.62-7.604 10.641-16.06 15.5-24.25 1.528-2.575 3.047-5.133 4.568-7.639 1.825-3 1.94-6.386.315-9.273-1.771-3.142-5.41-5.254-9.06-5.254m4.467 11.933c-1.531 2.521-3.058 5.092-4.595 7.683-4.937 8.317-10.04 16.918-15.704 24.48-.325.435-.501.963-.499 1.507.005 1.516.015 3.082.026 4.683.001 1.373 1.126 2.481 2.5 2.481h2.858c3.311 0 4.485 2.544 4.485 4.722s-1.175 4.722-4.485 4.722h-2.786c-1.379 0-2.497 1.116-2.5 2.495-.002 1.039-.001 2.075-.02 3.111-.006.667.255 1.309.724 1.783.47.474 1.109.74 1.776.74h2.565c3.311 0 4.485 2.544 4.485 4.722s-1.175 4.722-4.485 4.722h-3.048c-1.314 0-2.405 1.019-2.494 2.33-.015.207-.03 1.138-.044 2.092-.013.864-.023 1.751-.037 1.982-.275 3.658-3.442 4.634-5.271 4.634-1.365 0-2.574-.46-3.318-1.261-.671-.724-.963-1.732-.867-2.995.019-.242.028-.758.05-2.289.012-.814.021-1.611.033-1.823.047-.691-.194-1.37-.667-1.877-.473-.506-1.135-.793-1.827-.793h-4.896c-3.311 0-4.485-2.544-4.485-4.722 0-1.275.416-2.491 1.143-3.335.791-.92 1.915-1.387 3.343-1.387h5.378c1.372 0 2.487-1.105 2.5-2.477.001-1.048.018-2.098.02-3.148.0001-.664-.262-1.301-.73-1.771-.469-.47-1.105-.733-1.77-.733h-4.675c-3.311 0-4.485-2.544-4.485-4.722s1.175-4.722 4.485-4.722h4.603c.666 0 1.305-.266 1.774-.738.469-.473.73-1.113.726-1.779-.012-1.631-.021-3.228-.026-4.771-.0001-.44-.119-.873-.341-1.253-6.451-11.05-14.979-21.257-22.465-29.96-1.806-2.1-1.252-4.207-.761-5.276.848-1.848 2.667-3.188 4.326-3.188 1.033 0 1.995.509 2.857 1.512 7.44 8.652 14.165 17.213 19.448 24.757.468.668 1.232 1.066 2.048 1.066.004 0 .008 0 .013 0 .819-.004 1.585-.41 2.049-1.086 3.43-5 6.618-10.571 9.703-15.958 1.693-2.958 3.444-6.02 5.167-8.854.901-1.485 2.157-2.238 3.73-2.238 1.869 0 3.802 1.113 4.698 2.706.744 1.324.666 2.746-.232 4.226" fill="#1e1e1c"/></svg>