<svg xmlns="http://www.w3.org/2000/svg" viewBox="0 0 100 100" enable-background="new 0 0 100 100"><g fill="#1d1d1b"><path d="m75.58 14.729c-13.1-9.202-30.617-8.247-45.665-6.213-2.531.342-2.907 3.01-1.783 4.655-13.408 7.365-21.83 21.654-22.296 38.13-.666 23.57 16.47 41.892 39.442 44.722 26.793 3.3 50.04-20.618 49.556-46.699-.26-13.895-8.05-26.728-19.254-34.597m-5.258 4.972c.246-.271.416-.557.552-.845 2.092 1.195 4.03 2.621 5.789 4.232-8.26 7.02-16.486 14.08-25.366 20.322-.564.397-.929.888-1.151 1.414-2.127-1.058-4.241-2.136-6.251-3.37 1.894-1.49 3.783-2.985 5.685-4.466.042-.033.069-.076.108-.111 2.276.757 4.857.568 6.94-.752 3.148-1.993 5.312-5.941 4.844-9.593.164-.062.327-.122.493-.214 3.115-1.738 5.961-3.972 8.357-6.617m-20.588 4.953c2.213-.553 4.865-.282 6.679 1.082 2.132 1.604-.521 5.568-2.091 6.562-1.859 1.177-3.923.374-5.226-1.201-1.693-2.047-.778-4.568.638-6.443m10.901-8.442c.491-.314.834-.699 1.074-1.115 1.076.298 2.146.622 3.203 1.01-1.837 1.854-3.865 3.418-6.169 4.703-.267.149-.484.321-.679.504-1.081-.638-2.338-1.01-3.644-1.2 2.079-1.286 4.155-2.58 6.215-3.898m-8.07-2.461c-5.229 3.248-10.498 6.43-15.647 9.802 3.148-6.331 9.07-9.375 15.647-9.802m-8.586 12.841c-.396 2.023-.158 4.119.856 6.07-2.066 1.612-4.12 3.241-6.183 4.858-.062-.058-.128-.111-.19-.17-1.674-1.604-2.653-3.334-3.064-5.164.169-.079.338-.164.508-.281 2.651-1.832 5.352-3.586 8.07-5.309m9.675 63.16c-3.224.413-6.523.451-9.835.043-19.878-2.448-32.5-20.12-31.956-39.38.446-15.783 9.816-28.636 23.586-33.962-2.276 2.581-4.062 5.733-5.157 9.449-2.656 9.02 3.835 15.696 10.896 20.08 8.34 5.184 18.729 7.821 23.282 17.272 5.266 10.93-.307 23.266-10.816 26.499m14.498-4.711c.995-1.648 1.821-3.464 2.445-5.446.29-.92.503-1.859.678-2.805.579-.067 1.164-.281 1.709-.713 4.389-3.475 8.764-6.966 13.04-10.578-3.503 8.369-9.948 15.221-17.871 19.542m20.734-34.452c.03 1.619-.064 3.204-.236 4.764-.534.102-1.068.341-1.563.788-5.03 4.533-10.279 8.794-15.574 13.01-.174-1.489-.458-2.967-.875-4.409 6.251-4.688 12.272-9.656 18.224-14.714.007.188.02.376.024.564m-1.036-8.06c-6.472 5.545-12.979 11.05-19.774 16.192-.788-1.359-1.691-2.648-2.713-3.836 7.189-5.642 13.96-11.771 20.762-17.87.71 1.796 1.282 3.642 1.725 5.514m-5.02-11.12c-7.308 6.538-14.543 13.156-22.273 19.2-1.446-1.018-2.961-1.932-4.52-2.781 8.663-6.222 16.782-13.12 24.905-20.03.813 1.068 1.563 2.186 2.26 3.337-.125.086-.251.164-.372.272"/><path d="m45.638 65.39c-.862.283-1.256.876-1.309 1.529-2.621 3.545-2.939 8.05-.202 11.737 2.488 3.356 7.425 4.323 10.939 2.097 4.141-2.623 6.592-8.63 3.567-12.893-2.751-3.875-9.02-3.776-12.995-2.47m7.122 11.537c-1.859 1.177-3.922.374-5.226-1.201-1.693-2.046-.779-4.567.637-6.442 2.213-.553 4.865-.282 6.678 1.082 2.134 1.603-.519 5.567-2.089 6.561"/></g></svg>