<svg xmlns="http://www.w3.org/2000/svg" viewBox="0 0 100 100" enable-background="new 0 0 100 100"><g fill="#1e1e1c"><path d="m81.73 28.855c-.181-5.491-.282-12.909-.228-18.404.002-.245-.037-.461-.093-.664.107-1.197-.596-2.461-2.129-2.421-19.354.508-38.704-.25-58.06-.28-1.61-.003-2.315 1.412-2.117 2.654-.064.216-.109.448-.106.712.292 23.09 1.086 56.28 1.111 79.38 0 .518.147.939.382 1.272.142.979.846 1.845 2.119 1.813 8.365-.208 16.734-.342 25.09-.752 7.45-.365 16.734.124 23.856-2.307 2.521-.861 4.776-2.134 6.71-3.977 3.534-3.369 4.741-7.892 5.05-12.658.292-4.577-.247-9.379-.354-13.597-.275-10.895-.872-19.875-1.231-30.768m-12.246 41.19c-1.362.008-2.678 1.071-2.069 2.705 1.224 3.286 1.784 7.366-.099 10.509-2.276 3.801-6.338 3.698-10.2 4.185-2.362.298-4.873.14-7.253.207-1.853.052-25.314.624-25.314.716-.055-22.23-.79-54.55-1.087-76.78 17.868.077 35.733.691 53.601.309-.068 18.253 1.55 44.639 1.646 59.06-2.772-.875-5.637-1.244-8.595-1.046-.231.014-.436.067-.63.134m1.746 15.196c1.794-3.058 2.242-6.81 1.309-10.877 2.161.084 4.292.501 6.31 1.356.008.025.015.052.023.077-.654 4.819-3.703 7.776-7.642 9.444"/><path d="m43 53.25c-1.779.088-3.551.054-5.322-.049 2-3.982 3.961-7.986 6.099-11.899.978-1.791-.652-3.438-2.19-3.377-.03-.0001-.056-.009-.086-.009h-8c-2.902 0-2.902 4.5 0 4.5h4.595c-1.919 3.701-3.74 7.452-5.645 11.162-.928 1.203-.351 3.618 1.716 3.838 2.94.314 5.878.48 8.833.333 2.888-.142 2.902-4.643 0-4.499"/><path d="m48.583 39.5c.176 5.278.465 10.551.333 15.833-.072 2.904 4.428 2.897 4.5 0 .132-5.282-.157-10.555-.333-15.833-.096-2.894-4.597-2.903-4.5 0"/><path d="m64.43 43.04h.004v.008h-.004z"/><path d="m60 37.25c-1.316-.019-2.029.897-2.151 1.907-.048.159-.083.328-.099.51-.478 5.215-.643 10.432-.5 15.667.079 2.896 4.579 2.904 4.5 0-.057-2.079-.051-4.154-.001-6.228 3.401-.703 7.832-2.747 7.11-6.92-.67-3.88-5.622-4.89-8.85-4.936m4.437 5.797c-.002.006-.005.011-.008.016s0 0 0 0c-.069.139-.121.222-.365.404-.64.477-1.385.766-2.154.982.046-.831.104-1.662.165-2.492.479.093.956.215 1.436.393.141.053.737.473.657.405.02.017.177.212.254.3.002-.002.008-.012.011-.016-.001-.016-.018-.028-.035-.054.017.025.024.033.037.051.004-.006.009-.011.015-.022 0 .002 0 .005 0 .007-.004.007-.007.013-.001.021.003.005.007.001.001.014 0 .003.002.001.003.014-.004-.004-.012-.016-.016-.023"/><path d="m64.43 43.06h-.001z"/></g></svg>