<?xml version="1.0" encoding="UTF-8" standalone="no"?>
<!-- Generator: Adobe Illustrator 17.0.2, SVG Export Plug-In . SVG Version: 6.00 Build 0)  -->

<svg
   xmlns:dc="http://purl.org/dc/elements/1.1/"
   xmlns:cc="http://creativecommons.org/ns#"
   xmlns:rdf="http://www.w3.org/1999/02/22-rdf-syntax-ns#"
   xmlns:svg="http://www.w3.org/2000/svg"
   xmlns="http://www.w3.org/2000/svg"
   xmlns:sodipodi="http://sodipodi.sourceforge.net/DTD/sodipodi-0.dtd"
   xmlns:inkscape="http://www.inkscape.org/namespaces/inkscape"
   version="1.1"
   id="Capa_1"
   x="0px"
   y="0px"
   width="100px"
   height="100px"
   viewBox="0 0 100 100"
   enable-background="new 0 0 100 100"
   xml:space="preserve"
   inkscape:version="0.91 r13725"
   sodipodi:docname="android5.svg"><metadata
     id="metadata21"><rdf:RDF><cc:Work
         rdf:about=""><dc:format>image/svg+xml</dc:format><dc:type
           rdf:resource="http://purl.org/dc/dcmitype/StillImage" /><dc:title></dc:title></cc:Work></rdf:RDF></metadata><defs
     id="defs19" /><sodipodi:namedview
     pagecolor="#ffffff"
     bordercolor="#666666"
     borderopacity="1"
     objecttolerance="10"
     gridtolerance="10"
     guidetolerance="10"
     inkscape:pageopacity="0"
     inkscape:pageshadow="2"
     inkscape:window-width="1356"
     inkscape:window-height="988"
     id="namedview17"
     showgrid="false"
     inkscape:zoom="7.7345312"
     inkscape:cx="50"
     inkscape:cy="50"
     inkscape:window-x="1220"
     inkscape:window-y="94"
     inkscape:window-maximized="0"
     inkscape:current-layer="Capa_1" /><g
     id="g3"><path
       fill="#1D1D1B"
       d="M67.985,13.761c1.264-1.22,2.474-2.49,3.596-3.846c0.694-0.839,0.825-2.003,0-2.828   c-0.716-0.716-2.133-0.841-2.829,0c-1.208,1.462-2.521,2.822-3.891,4.128c-4.303-2.918-9.645-4.385-15.953-3.797   c-3.722,0.347-7.224,1.451-10.347,3.148c-0.979-1.277-1.913-2.589-2.835-3.907c-0.624-0.891-1.738-1.303-2.736-0.718   c-0.883,0.517-1.344,1.842-0.718,2.736c0.959,1.37,1.941,2.72,2.951,4.051c-0.455-0.6-6.384,6.923-6.815,7.661   c-1.254,2.147-5.44,10.384-2.841,12.414c1.11,0.867,3.315,0.257,4.656,0.263c2.088,0.009,4.178,0.084,6.265,0.137   c4.285,0.109,8.569,0.253,12.854,0.382c8.439,0.253,16.881,0.482,25.324,0.418c1.029-0.008,1.641-0.652,1.849-1.419   c0.24-0.395,0.356-0.882,0.247-1.446C75.416,24.186,72.444,18.064,67.985,13.761z M29.304,29.046   c1.758-9.569,9.919-16.336,19.605-17.63C61.714,9.707,69.542,18.724,72.412,30C58.036,30.024,43.675,29.291,29.304,29.046z"
       id="path5" /><path
       fill="#1D1D1B"
       d="M74.667,36c-15.667-0.007-31.333-0.16-47-0.167c-1.069,0-1.688,0.688-1.871,1.492   c-0.254,0.301-0.426,0.692-0.462,1.175c-0.753,9.987-0.237,20.002-0.667,30c-0.008,0.182,0.009,0.347,0.04,0.503   c0.003,0.118,0.008,0.237,0.032,0.362c0.906,4.75,4.791,7.674,9.567,7.36c-0.688,0.045,0.036,11.775,0.111,12.508   c0.263,2.564,0.893,5.45,3.542,6.525c3.05,1.238,6.665-0.497,8.667-2.821c3.61-4.189,3.288-10.537,2.984-15.697   c0.987-0.041,1.977-0.055,2.965-0.061c-0.682,0.005-0.536,11.087-0.301,12.164c1.05,4.816,5.643,8.251,10.42,6.414   c4.653-1.79,5.688-6.219,5.476-10.718c-0.12-2.543-0.19-5.171-0.483-7.698c1.569-0.139,3.099-0.581,4.393-1.527   c2.181-1.595,3.016-4.048,3.253-6.647c0.01-0.113,0.002-0.215,0-0.333c0.804-10.039,1.135-20.094,1.163-30.163   C76.857,37.506,76.25,36.001,74.667,36z M71.333,68.833c-0.009,0.107,0,0.204,0.006,0.302c-0.001,0.011-0.005,0.02-0.006,0.031   c-0.327,3.575-2.934,4.451-6.167,4.167c-1.814-0.159-2.331,1.784-1.585,3.022c0.691,5.439,2.948,14.555-3.85,16.122   c-6.607-2.049-3.161-12.029-3.064-17.144c0.029-1.501-1.312-2.121-2.449-1.875c-1.86,0.401-4.412-0.292-6.384-0.125   c-0.144,0.012-0.284,0.038-0.42,0.072c-1.006-0.009-1.982,0.631-1.913,1.928c0.257,4.785,2.379,15.932-4.667,16.667   c-0.059,0.006-0.11,0.024-0.167,0.034c-5.134-2.691-2.209-12.95-2.333-17.534c-0.034-1.231-0.967-1.869-1.923-1.923   c-0.24-0.045-0.497-0.055-0.775-0.006c-1.522,0.27-3.228,0.398-4.664-0.29c-1.463-0.701-2.008-2.209-2.317-3.696   c0.002-0.03,0.011-0.055,0.012-0.085c0.411-9.552-0.03-19.119,0.585-28.661c14.411,0.015,28.821,0.135,43.231,0.154   C72.431,49.619,72.102,59.234,71.333,68.833z"
       id="path7" /><path
       fill="#1D1D1B"
       d="M89.42,33.807c-0.154-0.207-0.349-0.39-0.578-0.534c-1.187-0.747-2.592-1.054-3.983-0.955   c-0.218-0.083-0.45-0.139-0.693-0.152c-2.988-0.159-5.416,1.653-5.928,4.635c-0.029,0.166-0.037,0.331-0.034,0.494   c-0.122,0.248-0.198,0.536-0.204,0.871c-0.151,7.734-0.12,15.452,0.5,23.167c0.001,0.02,0.008,0.036,0.01,0.056   c-0.005,0.091-0.016,0.179-0.01,0.278c0.134,2.123,0.759,4.158,2.548,5.453c1.603,1.159,3.621,1.158,5.489,0.835   c0.047-0.005,0.095-0.015,0.142-0.023c0.006-0.001,0.012-0.002,0.019-0.003c0.003-0.001,0.006-0.002,0.009-0.003   c0.215-0.039,0.43-0.101,0.636-0.199c1.941-0.918,3.144-2.808,3.586-4.862c0.03-0.138,0.045-0.277,0.05-0.414   c0.005-0.04,0.018-0.076,0.021-0.118c0.747-9.177,1.844-18.779-1.071-27.698C89.815,34.288,89.636,34.019,89.42,33.807z    M87.165,60.857c-0.056,0.308-0.129,0.677-0.234,1.054c-0.3,1.078-0.861,2.228-2.031,2.247c-4.433,0.072-2.842-17.238-2.941-20.141   c-0.067-1.963-0.853-5.796,0.778-7.367c4.248-4.093,4.877,6.942,4.975,8.547C88.019,50.214,88.063,55.9,87.165,60.857z"
       id="path9" /><path
       fill="#1D1D1B"
       d="M13.48,33.714c-4.28,1.912-3.915,6.613-3.948,10.55c-0.051,6.026,0.145,12.06,0.591,18.069   c0.001,0.02,0.008,0.036,0.01,0.056c-0.005,0.091-0.016,0.179-0.01,0.277c0.485,7.63,10.743,9.036,12.429,1.199   c0.03-0.138,0.045-0.277,0.05-0.414c0.005-0.04,0.018-0.076,0.021-0.118c0.747-9.177,1.844-18.779-1.071-27.698   C20.383,32.057,16.138,32.527,13.48,33.714z M18.657,62.939c-0.07,0.301-0.146,0.597-0.249,0.89   c-0.014,0.028-0.027,0.057-0.047,0.1c-0.087,0.182-0.195,0.352-0.303,0.522c-0.135,0.195-0.152,0.218-0.05,0.067   c-0.116,0.138-0.251,0.259-0.385,0.379c-0.029,0.019-0.067,0.046-0.122,0.083c-0.049,0.033-0.105,0.054-0.157,0.083   c-0.029,0.004-0.057,0.004-0.085,0.009c-0.954,0.175-1.729,0.136-2.39-0.277c-0.412-0.258-0.693-1.31-0.745-2.128   c-0.001-0.012-0.005-0.022-0.006-0.035c0.005-0.097,0.015-0.192,0.006-0.298c-0.489-5.939-0.351-11.835-0.536-17.777   c-0.058-1.853-0.832-5.588,0.85-6.997c4.411-3.695,4.81,7.152,4.922,8.882C19.719,51.947,19.11,57.456,18.657,62.939z"
       id="path11" /><path
       fill="#1D1D1B"
       d="M39.667,19.667c-2.579,0-2.579,4,0,4C42.246,23.667,42.246,19.667,39.667,19.667z"
       id="path13" /><path
       fill="#1D1D1B"
       d="M62.5,19.5c-2.58,0-2.58,4,0,4S65.08,19.5,62.5,19.5z"
       id="path15" /></g><path
     style="color:#000000;clip-rule:nonzero;display:inline;overflow:visible;visibility:visible;opacity:1;isolation:auto;mix-blend-mode:normal;color-interpolation:sRGB;color-interpolation-filters:linearRGB;solid-color:#000000;solid-opacity:1;fill:#a4c639;fill-opacity:1;fill-rule:nonzero;stroke:#000000;stroke-width:0.12929031;stroke-linecap:butt;stroke-linejoin:miter;stroke-miterlimit:4;stroke-dasharray:none;stroke-dashoffset:0;stroke-opacity:1;color-rendering:auto;image-rendering:auto;shape-rendering:auto;text-rendering:auto;enable-background:accumulate"
     d="m 58.815169,92.000319 c -1.338347,-0.691393 -2.340853,-2.058361 -2.754747,-3.756243 -0.465019,-1.907601 -0.409243,-4.010323 0.231771,-8.737755 0.476432,-3.513651 0.525058,-4.547764 0.239203,-5.087119 -0.495696,-0.935291 -0.629879,-0.971299 -3.831129,-1.028061 -6.255179,-0.110911 -6.285934,-0.107757 -6.929573,0.710498 -0.335322,0.426293 -0.351403,1.366193 -0.07606,4.445663 0.388692,4.347194 0.202445,7.851814 -0.519604,9.777372 -0.737847,1.967689 -2.087908,3.192642 -3.889704,3.529255 -0.541629,0.101186 -0.667088,0.07791 -1.090635,-0.202385 -0.626048,-0.414299 -1.225528,-1.171559 -1.634307,-2.064451 -0.606558,-1.324896 -0.711161,-1.929976 -0.78055,-4.515111 -0.05542,-2.064698 -0.0096,-3.032757 0.284706,-6.011594 0.394688,-3.995204 0.391642,-5.101973 -0.01554,-5.648243 -0.636976,-0.854556 -1.369453,-1.000177 -3.812181,-0.757883 -2.712849,0.269087 -4.389065,-0.660309 -5.188833,-2.877 -0.31867,-0.883247 -0.307909,0.433611 -0.116398,-14.243636 0.144153,-11.047828 0.2682,-15.418312 0.442564,-15.592676 0.0358,-0.0358 9.729701,-0.02359 21.54201,0.02712 l 21.476925,0.09221 -0.0013,2.726671 c -0.0031,6.593121 -0.526358,18.820522 -1.089215,25.450338 -0.201816,2.377159 -0.466768,3.099301 -1.456894,3.970844 -0.874511,0.769776 -1.896239,1.051024 -3.922901,1.079843 -1.326683,0.01887 -1.687518,0.06608 -1.982477,0.259378 -0.67945,0.445282 -0.923451,1.635849 -0.540599,2.637779 0.102445,0.2681 0.349712,1.651068 0.549484,3.073262 0.308263,2.194556 0.362716,3.0064 0.35989,5.365548 -0.0032,2.69954 -0.01364,2.809179 -0.360772,3.800022 -0.655925,1.872279 -1.728889,3.074159 -3.293135,3.688804 -0.867043,0.340689 -0.975727,0.334048 -1.840032,-0.112454 l 3e-5,0 z"
     id="path4157"
     inkscape:connector-curvature="0" /><path
     style="color:#000000;clip-rule:nonzero;display:inline;overflow:visible;visibility:visible;opacity:1;isolation:auto;mix-blend-mode:normal;color-interpolation:sRGB;color-interpolation-filters:linearRGB;solid-color:#000000;solid-opacity:1;fill:#a4c639;fill-opacity:1;fill-rule:nonzero;stroke:#000000;stroke-width:0.12929031;stroke-linecap:butt;stroke-linejoin:miter;stroke-miterlimit:4;stroke-dasharray:none;stroke-dashoffset:0;stroke-opacity:1;color-rendering:auto;image-rendering:auto;shape-rendering:auto;text-rendering:auto;enable-background:accumulate"
     d="M 59.464051,29.789497 C 56.939658,29.732575 50.976142,29.568077 46.211794,29.423945 41.447446,29.279813 35.709945,29.122894 33.461793,29.075236 l -4.087549,-0.08665 0.19332,-0.852445 c 1.362888,-6.009648 5.620106,-11.269388 11.508038,-14.218037 2.44817,-1.226032 4.944798,-2.000664 7.786643,-2.415969 1.830858,-0.267561 5.466069,-0.194425 6.979205,0.140412 6.276948,1.389006 10.985324,5.400417 14.225833,12.120031 0.797709,1.654151 2.19651,5.455711 2.19651,5.969512 0,0.179402 -0.460212,0.199748 -4.104968,0.181478 -2.257732,-0.01131 -6.17038,-0.06715 -8.694774,-0.124069 z M 40.823554,23.381522 c 1.053283,-0.771888 1.053283,-2.672031 0,-3.443919 -0.489465,-0.3587 -1.47997,-0.420747 -2.036763,-0.127587 -1.48286,0.780749 -1.449293,3.046277 0.05546,3.742838 0.515093,0.238441 1.543502,0.14951 1.981308,-0.171332 z m 22.769799,-0.149738 c 0.892068,-0.652702 1.14276,-1.740375 0.630569,-2.735834 -0.730221,-1.419209 -2.821082,-1.398133 -3.471645,0.03499 -0.726746,1.600949 0.343564,3.196429 2.008677,2.994277 0.284439,-0.03453 0.659019,-0.166578 0.832399,-0.293436 z"
     id="path4159"
     inkscape:connector-curvature="0" /><path
     style="color:#000000;clip-rule:nonzero;display:inline;overflow:visible;visibility:visible;opacity:1;isolation:auto;mix-blend-mode:normal;color-interpolation:sRGB;color-interpolation-filters:linearRGB;solid-color:#000000;solid-opacity:1;fill:#a4c639;fill-opacity:1;fill-rule:nonzero;stroke:#000000;stroke-width:0.12929031;stroke-linecap:butt;stroke-linejoin:miter;stroke-miterlimit:4;stroke-dasharray:none;stroke-dashoffset:0;stroke-opacity:1;color-rendering:auto;image-rendering:auto;shape-rendering:auto;text-rendering:auto;enable-background:accumulate"
     d="m 84.071733,63.823394 c -0.877829,-0.551464 -1.55511,-2.330006 -1.94516,-5.107998 -0.190196,-1.354603 -0.220461,-2.837844 -0.224525,-11.003835 l -0.0047,-9.438193 0.358027,-0.730509 c 0.518283,-1.057493 1.680671,-1.84675 2.491535,-1.691743 0.470816,0.09 1.281196,1.057779 1.604043,1.915588 1.011466,2.687484 1.43507,6.59275 1.436332,13.24176 0.0014,7.188814 -0.636262,11.498858 -1.873025,12.660737 -0.446163,0.419149 -1.306202,0.491121 -1.842529,0.154193 z"
     id="path4161"
     inkscape:connector-curvature="0" /><path
     style="color:#000000;clip-rule:nonzero;display:inline;overflow:visible;visibility:visible;opacity:1;isolation:auto;mix-blend-mode:normal;color-interpolation:sRGB;color-interpolation-filters:linearRGB;solid-color:#000000;solid-opacity:1;fill:#a4c639;fill-opacity:1;fill-rule:nonzero;stroke:#000000;stroke-width:0.12929031;stroke-linecap:butt;stroke-linejoin:miter;stroke-miterlimit:4;stroke-dasharray:none;stroke-dashoffset:0;stroke-opacity:1;color-rendering:auto;image-rendering:auto;shape-rendering:auto;text-rendering:auto;enable-background:accumulate"
     d="M 15.246763,64.874651 C 14.518536,64.51086 14.33081,63.951606 14.135079,61.56283 c -0.094,-1.147218 -0.230517,-5.111243 -0.30337,-8.808946 -0.07285,-3.697703 -0.200598,-7.893828 -0.283878,-9.324722 -0.179134,-3.077815 -0.110231,-3.99126 0.374282,-4.961858 0.681735,-1.365682 2.21784,-1.979917 3.098425,-1.238953 1.485845,1.250256 2.361532,5.998419 2.362989,12.812643 7.41e-4,3.465875 -0.615488,12.368137 -0.92614,13.379341 -0.230381,0.749915 -0.639682,1.312308 -1.092894,1.501672 -0.589284,0.246219 -1.574143,0.224196 -2.11773,-0.04736 z"
     id="path4163"
     inkscape:connector-curvature="0" /></svg>