<?xml version="1.0" encoding="utf-8"?>
<!-- Generated by IcoMoon.io -->
<!DOCTYPE svg PUBLIC "-//W3C//DTD SVG 1.1//EN" "http://www.w3.org/Graphics/SVG/1.1/DTD/svg11.dtd">
<svg version="1.1" xmlns="http://www.w3.org/2000/svg" xmlns:xlink="http://www.w3.org/1999/xlink" width="64" height="64" viewBox="0 0 64 64">
<path fill="rgb(29, 29, 27)" d="M48.371 9.427c-8.384-5.889-19.595-5.278-29.226-3.976-1.62 0.219-1.861 1.926-1.141 2.979-8.581 4.714-13.971 13.859-14.269 24.403-0.426 15.085 10.541 26.811 25.243 28.622 17.148 2.112 32.026-13.196 31.716-29.887-0.166-8.893-5.152-17.106-12.323-22.142zM45.006 12.607c0.157-0.173 0.266-0.357 0.353-0.541 1.339 0.765 2.579 1.677 3.705 2.709-5.286 4.493-10.551 9.011-16.234 13.006-0.361 0.254-0.595 0.568-0.737 0.905-1.361-0.677-2.714-1.367-4.001-2.157 1.212-0.954 2.421-1.91 3.638-2.858 0.027-0.021 0.044-0.049 0.069-0.071 1.457 0.485 3.109 0.363 4.442-0.481 2.015-1.276 3.4-3.802 3.1-6.139 0.105-0.040 0.209-0.078 0.316-0.137 1.994-1.112 3.815-2.542 5.349-4.235zM31.83 15.777c1.416-0.354 3.114-0.181 4.275 0.693 1.364 1.027-0.333 3.564-1.338 4.2-1.19 0.753-2.511 0.239-3.345-0.769-1.084-1.31-0.498-2.924 0.408-4.123zM38.806 10.374c0.314-0.201 0.534-0.447 0.687-0.714 0.689 0.191 1.373 0.398 2.050 0.646-1.176 1.187-2.474 2.188-3.948 3.010-0.171 0.095-0.31 0.205-0.435 0.323-0.692-0.408-1.496-0.646-2.332-0.768 1.331-0.823 2.659-1.651 3.978-2.495zM33.642 8.802c-3.347 2.079-6.719 4.115-10.014 6.273 2.015-4.052 5.805-6 10.014-6.273zM28.147 17.020c-0.253 1.295-0.101 2.636 0.548 3.885-1.322 1.032-2.637 2.074-3.957 3.109-0.040-0.037-0.082-0.071-0.122-0.109-1.071-1.027-1.698-2.134-1.961-3.305 0.108-0.051 0.216-0.105 0.325-0.18 1.697-1.172 3.425-2.295 5.165-3.398zM34.337 57.445c-2.063 0.264-4.175 0.289-6.294 0.028-12.722-1.567-20.8-12.877-20.452-25.203 0.285-10.101 6.282-18.327 15.095-21.736-1.457 1.652-2.6 3.669-3.3 6.047-1.7 5.773 2.454 10.045 6.973 12.851 5.338 3.318 11.987 5.005 14.9 11.054 3.37 6.995-0.197 14.89-6.922 16.959zM43.615 54.431c0.637-1.055 1.165-2.217 1.565-3.485 0.186-0.589 0.322-1.19 0.434-1.795 0.371-0.043 0.745-0.18 1.094-0.456 2.809-2.224 5.609-4.458 8.346-6.77-2.242 5.356-6.367 9.741-11.437 12.507zM56.886 32.381c0.019 1.036-0.041 2.051-0.151 3.049-0.342 0.065-0.684 0.218-1 0.504-3.219 2.901-6.579 5.628-9.967 8.326-0.111-0.953-0.293-1.899-0.56-2.822 4.001-3 7.854-6.18 11.663-9.417 0.005 0.12 0.013 0.241 0.015 0.361zM56.223 27.225c-4.142 3.549-8.307 7.072-12.655 10.363-0.504-0.87-1.082-1.695-1.736-2.455 4.601-3.611 8.934-7.533 13.288-11.437 0.454 1.149 0.821 2.331 1.104 3.529zM53.010 20.108c-4.677 4.184-9.307 8.42-14.255 12.288-0.925-0.651-1.895-1.236-2.893-1.78 5.544-3.982 10.74-8.397 15.939-12.819 0.52 0.683 1 1.399 1.446 2.136-0.080 0.055-0.161 0.105-0.238 0.174z"></path>
<path fill="rgb(29, 29, 27)" d="M29.208 41.85c-0.552 0.181-0.804 0.561-0.838 0.979-1.677 2.269-1.881 5.152-0.129 7.512 1.592 2.148 4.752 2.767 7.001 1.342 2.65-1.679 4.219-5.523 2.283-8.252-1.761-2.48-5.773-2.417-8.317-1.581zM33.766 49.233c-1.19 0.753-2.51 0.239-3.345-0.769-1.084-1.309-0.499-2.923 0.408-4.123 1.416-0.354 3.114-0.181 4.274 0.693 1.366 1.026-0.332 3.563-1.337 4.199z"></path>
<path fill="rgb(244, 215, 215)" d="M23.872 14.771c0-0.116 0.587-1.050 0.976-1.555 0.534-0.693 1.789-1.869 2.478-2.323 0.736-0.485 1.767-1.004 2.56-1.286 0.682-0.245 2.304-0.616 3.067-0.701l0.512-0.057-3.323 2.062c-1.827 1.134-3.939 2.454-4.691 2.934-1.666 1.062-1.581 1.013-1.581 0.929z"></path>
<path fill="rgb(211, 95, 95)" d="M36.621 13.334c-0.234-0.112-0.702-0.269-1.038-0.349l-0.612-0.145 1.926-1.201c1.061-0.661 2.095-1.364 2.298-1.563l0.369-0.362 1.915 0.62-0.511 0.464c-0.853 0.774-1.846 1.525-2.848 2.155-0.523 0.33-0.98 0.596-1.014 0.592s-0.253-0.099-0.488-0.211z"></path>
<path fill="rgb(255, 85, 85)" d="M24.24 23.416c-0.717-0.774-1.482-2.153-1.473-2.657 0.003-0.166 1.078-0.915 4.291-2.985l1.014-0.653-0.057 0.583c-0.072 0.733 0.070 1.765 0.34 2.494 0.115 0.309 0.218 0.596 0.228 0.637s-0.619 0.579-1.4 1.194c-0.781 0.615-1.65 1.3-1.933 1.522l-0.513 0.404-0.499-0.539z"></path>
<path fill="rgb(255, 0, 102)" d="M30.696 27.918c-1.389-0.721-2.476-1.339-2.472-1.402 0.002-0.024 0.789-0.657 1.749-1.407 1.34-1.047 1.8-1.363 1.979-1.354 0.128 0.006 0.54 0.054 0.915 0.108 0.494 0.070 0.865 0.072 1.345 0.007 1.305-0.178 2.122-0.605 3.176-1.661 1.28-1.286 1.91-2.65 1.985-4.31l0.040-0.901 0.479-0.251c1.419-0.743 3.2-2.126 4.603-3.574 1.103-1.139 0.854-1.115 2.189-0.21 0.833 0.566 2.193 1.645 2.243 1.78 0.026 0.071-3.866 3.39-7.104 6.059-2.447 2.017-5.596 4.467-7.686 5.981-0.964 0.698-1.748 1.331-1.854 1.494-0.101 0.156-0.222 0.284-0.269 0.283s-0.64-0.289-1.318-0.64z"></path>
<path fill="rgb(205, 135, 222)" d="M38.413 32.115c-0.141-0.109-0.659-0.44-1.151-0.737s-0.984-0.593-1.091-0.658c-0.191-0.116-0.17-0.138 0.812-0.861 3.621-2.669 7.48-5.766 12.589-10.108 1.859-1.579 2.221-1.853 2.317-1.754 0.063 0.065 0.38 0.517 0.706 1.006l0.591 0.888-2.525 2.26c-5.064 4.531-8.154 7.193-10.744 9.256-0.627 0.499-1.164 0.907-1.194 0.907s-0.17-0.090-0.31-0.199z"></path>
<path fill="rgb(135, 135, 222)" d="M43.309 37.069c-0.151-0.246-0.505-0.755-0.788-1.13s-0.517-0.724-0.522-0.776c-0.005-0.051 0.625-0.604 1.398-1.228 2.691-2.169 5.002-4.163 9.613-8.293 1.087-0.975 2.015-1.771 2.061-1.771 0.085 0 0.636 1.583 0.942 2.708l0.168 0.618-2.191 1.861c-3.952 3.356-6.828 5.706-9.497 7.757l-0.909 0.7-0.275-0.448z"></path>
<path fill="rgb(0, 212, 170)" d="M45.741 43.77c-0.054-0.39-0.3-1.601-0.423-2.084-0.053-0.21 0.037-0.296 1.378-1.32 2.493-1.904 5.939-4.698 9.264-7.514 0.459-0.389 0.858-0.707 0.886-0.707 0.054 0-0.033 2.166-0.113 2.819-0.045 0.363-0.074 0.401-0.444 0.574-0.218 0.102-1.011 0.728-1.761 1.391-2.047 1.809-4.36 3.733-8.371 6.965l-0.356 0.287-0.057-0.41z"></path>
<path fill="rgb(68, 170, 0)" d="M43.834 54.182c0.019-0.044 0.232-0.482 0.474-0.975 0.515-1.049 0.978-2.343 1.187-3.317 0.147-0.685 0.152-0.694 0.463-0.778 0.173-0.047 0.447-0.175 0.61-0.285 0.438-0.298 3.415-2.671 5.729-4.57 1.119-0.918 2.15-1.762 2.292-1.875l0.257-0.206-0.061 0.206c-0.106 0.355-1.097 2.213-1.67 3.133-0.884 1.418-1.987 2.777-3.448 4.248-1.428 1.439-2.554 2.382-4.001 3.352-0.98 0.657-1.883 1.183-1.832 1.066z"></path>
</svg>
