<?xml version="1.0" encoding="UTF-8" standalone="no"?>
<!-- Generator: Adobe Illustrator 17.0.2, SVG Export Plug-In . SVG Version: 6.00 Build 0)  -->

<svg
   xmlns:dc="http://purl.org/dc/elements/1.1/"
   xmlns:cc="http://creativecommons.org/ns#"
   xmlns:rdf="http://www.w3.org/1999/02/22-rdf-syntax-ns#"
   xmlns:svg="http://www.w3.org/2000/svg"
   xmlns="http://www.w3.org/2000/svg"
   xmlns:sodipodi="http://sodipodi.sourceforge.net/DTD/sodipodi-0.dtd"
   xmlns:inkscape="http://www.inkscape.org/namespaces/inkscape"
   version="1.1"
   id="Capa_1"
   x="0px"
   y="0px"
   width="100px"
   height="100px"
   viewBox="0 0 100 100"
   style="enable-background:new 0 0 100 100;"
   xml:space="preserve"
   inkscape:version="0.91 r13725"
   sodipodi:docname="apple43.svg"><metadata
     id="metadata13"><rdf:RDF><cc:Work
         rdf:about=""><dc:format>image/svg+xml</dc:format><dc:type
           rdf:resource="http://purl.org/dc/dcmitype/StillImage" /><dc:title></dc:title></cc:Work></rdf:RDF></metadata><defs
     id="defs11" /><sodipodi:namedview
     pagecolor="#ffffff"
     bordercolor="#666666"
     borderopacity="1"
     objecttolerance="10"
     gridtolerance="10"
     guidetolerance="10"
     inkscape:pageopacity="0"
     inkscape:pageshadow="2"
     inkscape:window-width="1362"
     inkscape:window-height="946"
     id="namedview9"
     showgrid="false"
     inkscape:zoom="7.3473437"
     inkscape:cx="50"
     inkscape:cy="50"
     inkscape:window-x="229"
     inkscape:window-y="28"
     inkscape:window-maximized="0"
     inkscape:current-layer="Capa_1" /><g
     id="g3"><path
       style="fill:#1E1E1C;"
       d="M84.883,67.823c-4.964-2.449-8.108-7.113-8.628-12.795c-0.558-6.089,2.029-11.902,6.919-15.549   c0.684-0.51,1.091-1.214,1.177-2.037c0.091-0.871-0.202-1.786-0.755-2.41c-0.105-0.146-0.225-0.29-0.371-0.428   c-4.784-4.52-10.797-7.008-16.931-7.008l-0.26,0.001c-2.923,0.033-5.856,0.744-8.693,1.431c-2.869,0.695-5.835,1.414-8.751,1.414   h-0.001c-1.197,0-2.305-0.117-3.384-0.356c-7.007-4.038-13.199-4.923-18.347-2.64c-5.014,2.225-8.753,7.146-11.114,14.626   c-2.059,6.515-2.603,14.31-1.574,22.538c1.254,10.045,6.119,17.735,11.189,24.55c0.29,0.39,0.657,0.691,1.091,0.899   c0.096,0.094,0.196,0.185,0.312,0.27c2.503,1.832,5.307,2.686,8.822,2.686c2.275,0,4.618-0.356,6.885-0.701   c2.261-0.345,4.598-0.7,6.86-0.7c1.314,0,2.496,0.117,3.612,0.358c1.389,0.299,2.665,0.839,3.9,1.36   c1.868,0.79,3.801,1.606,6.142,1.606c0.001,0,0.001,0,0.001,0c0.224,0,0.449-0.007,0.681-0.022c3.25-0.217,6.562-1.751,9.843-4.561   c5.874-5.026,9.5-12.166,12.438-18.466c0.16-0.344,0.254-0.703,0.278-1.069C86.589,69.579,86.067,68.407,84.883,67.823z    M70.788,56.573c0.722,6.311,3.958,11.589,9.132,14.914c-4.446,9.306-9.856,17.832-19.038,18.017   c-3.484-2.44-7.021-3.578-11.116-3.578c-0.885,0-1.812,0.056-2.756,0.165c-1.468,0.171-2.921,0.453-4.326,0.726   c-2.176,0.422-4.231,0.821-6.265,0.821c-2.606,0-4.742-0.675-6.727-2.127c-0.026-0.02-0.053-0.036-0.084-0.054   c-4.716-6.407-8.134-12.116-9.492-19.108c-1.139-5.858-1.118-12.319,0.059-18.684c1.251-6.756,3.672-11.491,7.195-14.075   c1.569-1.15,3.315-1.709,5.337-1.709c2.877,0,5.826,1.188,7.794,2.081c2.978,1.352,6.371,2.066,9.815,2.066   c3.657,0,7.281-0.795,10.48-2.3c0.077-0.036,0.144-0.076,0.243-0.139c5.758-1.517,11.562-0.268,16.436,3.512   C72.474,42.265,69.979,49.501,70.788,56.573z"
       id="path5" /><path
       style="fill:#1E1E1C;"
       d="M49.996,26.995c0.592,0,1.15-0.158,1.622-0.459C68.909,22.839,73.587,13.723,74.466,6.72   c0.122-0.972-0.222-1.593-0.53-1.944c-0.463-0.523-1.188-0.823-1.993-0.823c-0.396,0-0.803,0.074-1.086,0.182   c-0.117,0-0.235,0.004-0.359,0.021c-10.52,1.479-19.174,8.714-23.15,19.356c-0.312,0.834-0.234,1.652,0.218,2.304   C48.069,26.543,49.001,26.995,49.996,26.995z M55.602,19.603c2.949-4.319,7.076-7.407,12.046-9.01   C65.737,14.513,61.693,17.538,55.602,19.603z"
       id="path7" /></g><path
     style="color:#000000;clip-rule:nonzero;display:inline;overflow:visible;visibility:visible;opacity:1;isolation:auto;mix-blend-mode:normal;color-interpolation:sRGB;color-interpolation-filters:linearRGB;solid-color:#000000;solid-opacity:1;fill:#979797;fill-opacity:1;fill-rule:nonzero;stroke:#000000;stroke-width:0.13610362;stroke-linecap:butt;stroke-linejoin:miter;stroke-miterlimit:4;stroke-dasharray:none;stroke-dashoffset:0;stroke-opacity:1;color-rendering:auto;image-rendering:auto;shape-rendering:auto;text-rendering:auto;enable-background:accumulate"
     d="m 59.536359,88.584136 c -3.313522,-2.008531 -6.863249,-2.891799 -10.774902,-2.68109 -1.837928,0.099 -2.951447,0.257323 -6.675558,0.94912 -1.425847,0.264867 -3.273655,0.549679 -4.10624,0.632913 -2.71236,0.27116 -5.119784,-0.191113 -7.203211,-1.383158 -0.954769,-0.546277 -1.11785,-0.709684 -2.15266,-2.156964 -3.815741,-5.336671 -5.899841,-9.173126 -7.355039,-13.539313 -2.162437,-6.488194 -2.508393,-15.033761 -0.936243,-23.126431 1.425886,-7.339771 4.376638,-12.379508 8.421721,-14.383879 2.850491,-1.412441 6.013052,-1.218364 10.528741,0.646118 4.817661,1.989162 7.07008,2.496581 11.061148,2.491824 3.411826,-0.0041 6.580664,-0.606496 9.333334,-1.774366 2.182893,-0.926132 3.264751,-1.130842 6.028906,-1.140793 1.80905,-0.0065 2.660013,0.05072 3.538694,0.237996 1.538562,0.32792 3.36097,0.957537 4.695575,1.622255 1.052934,0.524428 3.334538,1.957662 3.334538,2.094654 0,0.03698 -0.372658,0.507757 -0.828129,1.046161 -2.67187,3.158374 -4.509412,6.941092 -5.397273,11.110694 -0.331825,1.558328 -0.363925,1.973607 -0.363569,4.703517 4.08e-4,3.233208 0.157639,4.365268 0.959711,6.910449 1.177733,3.737252 3.775792,7.410236 6.882666,9.730313 0.658052,0.491404 1.196459,0.94817 1.196459,1.015034 0,0.265674 -2.365917,4.775515 -3.429392,6.537006 -1.476751,2.446021 -2.873188,4.323351 -4.448776,5.98081 -2.973585,3.128095 -6.556564,5.021406 -9.883353,5.222538 l -1.088829,0.06583 -1.338319,-0.811237 z"
     id="path4141"
     inkscape:connector-curvature="0" /><path
     style="color:#000000;clip-rule:nonzero;display:inline;overflow:visible;visibility:visible;opacity:1;isolation:auto;mix-blend-mode:normal;color-interpolation:sRGB;color-interpolation-filters:linearRGB;solid-color:#000000;solid-opacity:1;fill:#979797;fill-opacity:1;fill-rule:nonzero;stroke:#000000;stroke-width:0.13610362;stroke-linecap:butt;stroke-linejoin:miter;stroke-miterlimit:4;stroke-dasharray:none;stroke-dashoffset:0;stroke-opacity:1;color-rendering:auto;image-rendering:auto;shape-rendering:auto;text-rendering:auto;enable-background:accumulate"
     d="m 55.928692,19.307076 c 0.141912,-0.396946 1.971478,-2.512087 3.01596,-3.486718 1.413851,-1.319299 2.807349,-2.343992 4.503461,-3.311571 1.302272,-0.742906 3.701263,-1.751673 3.838753,-1.614183 0.04608,0.04608 -0.05725,0.31668 -0.229618,0.601331 -1.564152,2.583018 -4.294699,4.848315 -7.91321,6.564901 -1.897277,0.900049 -3.283692,1.437411 -3.215346,1.24624 z"
     id="path4143"
     inkscape:connector-curvature="0" /></svg>