<?xml version="1.0" encoding="utf-8"?>
<!-- Generator: Adobe Illustrator 16.0.3, SVG Export Plug-In . SVG Version: 6.00 Build 0)  -->
<!DOCTYPE svg PUBLIC "-//W3C//DTD SVG 1.1//EN" "http://www.w3.org/Graphics/SVG/1.1/DTD/svg11.dtd">
<svg version="1.1" id="Capa_1" xmlns="http://www.w3.org/2000/svg" xmlns:xlink="http://www.w3.org/1999/xlink" x="0px" y="0px"
	 width="100px" height="100px" viewBox="0 0 100 100" enable-background="new 0 0 100 100" xml:space="preserve">
<g>
	<g id="XMLID_1_">
		<g>
			<path fill="#CE875F" d="M45.37,35.22c18.479,0.8,29.47,12.4,37.67,24.27C70.8,51.66,59.86,48,48.78,48
				c-0.93,0-1.87,0.03-2.8,0.08c-0.86,0.05-1.59,0.4-2.11,1.01c-0.49,0.39-0.81,0.95-0.95,1.62c-0.38,1.9-0.6,5.24-0.66,7.49
				c-3.99-2.311-7.9-5.08-11.69-7.76c-3.63-2.58-7.38-5.23-11.2-7.49c3.54-2.61,7.17-5.75,10.68-8.8c3.86-3.34,7.85-6.78,11.75-9.57
				c0.12,2.32,0.18,5.73,0.19,7.66c0.01,1.85,1.39,2.78,2.66,2.86C44.89,35.17,45.13,35.21,45.37,35.22z"/>
			<path fill="#19100B" d="M95.65,68.55c0.79,0.72,1.04,1.681,0.689,2.641c-0.45,1.239-1.76,2.13-3.109,2.13
				c-0.69,0-1.351-0.23-1.921-0.67C78.8,62.96,64.96,54,48.58,54h-0.26c-0.17,1.16-0.11,5.53-0.05,7.02
				c0.05,1.351-0.35,3.181-1.37,4.24c-0.52,0.54-1.16,0.83-1.86,0.83c-0.49,0-1.01-0.14-1.55-0.42
				c-5.57-2.88-10.89-6.58-16.04-10.17c-4.83-3.36-9.83-6.84-14.99-9.6c-0.87-0.47-1.4-1.22-1.49-2.11
				c-0.09-0.97,0.35-2.02,1.13-2.7c0.21-0.29,0.44-0.53,0.71-0.73c4.48-3.31,9.13-7.15,13.64-10.87
				c5.38-4.45,10.94-9.05,16.36-12.86c0.52-0.36,1.05-0.55,1.6-0.55c1.27,0,2.41,1.04,2.72,2.48c0.1,0.21,0.17,0.49,0.2,0.77
				c0.35,3.08,0.52,8.07,0.58,10.1C71.98,31.63,85,50.35,95.33,67.75C95.47,68,95.58,68.26,95.65,68.55z M83.04,59.49
				c-8.2-11.87-19.19-23.47-37.67-24.27c-0.24-0.01-0.48-0.05-0.72-0.12c-1.27-0.08-2.65-1.01-2.66-2.86
				c-0.01-1.93-0.07-5.34-0.19-7.66c-3.9,2.79-7.89,6.23-11.75,9.57c-3.51,3.05-7.14,6.19-10.68,8.8c3.82,2.26,7.57,4.91,11.2,7.49
				c3.79,2.68,7.7,5.45,11.69,7.76c0.06-2.25,0.28-5.59,0.66-7.49c0.14-0.67,0.46-1.23,0.95-1.62c0.52-0.61,1.25-0.96,2.11-1.01
				c0.93-0.05,1.87-0.08,2.8-0.08C59.86,48,70.8,51.66,83.04,59.49z"/>
			<path fill="#19100B" d="M35.24,64.22c2.18,1.38-0.39,4.45-2.54,3.09C23.29,61.37,14.24,54.89,5.1,48.54
				c-0.46-0.32-0.69-0.71-0.76-1.12c-2.32-2.98-1.95-6.5,0.87-9.34c0.21-0.2,0.43-0.35,0.66-0.44c0.02-0.02,0.03-0.04,0.05-0.06
				c8.49-7.19,16.87-14.51,25.67-21.33c2.01-1.56,4.86,1.25,2.82,2.83C25.62,25.9,17.23,33.22,8.75,40.41
				c-0.19,0.16-0.39,0.27-0.59,0.35c-0.04,0.05-0.07,0.1-0.12,0.15c-1.57,1.58-1.72,2.94-0.13,4.55c0.13,0.13,0.23,0.27,0.32,0.4
				C17.17,52.08,26.03,58.41,35.24,64.22z"/>
		</g>
		<g>
		</g>
	</g>
</g>
</svg>
