<?xml version="1.0" encoding="UTF-8" standalone="no"?>
<!-- Generator: Adobe Illustrator 17.0.2, SVG Export Plug-In . SVG Version: 6.00 Build 0)  -->

<svg
   xmlns:dc="http://purl.org/dc/elements/1.1/"
   xmlns:cc="http://creativecommons.org/ns#"
   xmlns:rdf="http://www.w3.org/1999/02/22-rdf-syntax-ns#"
   xmlns:svg="http://www.w3.org/2000/svg"
   xmlns="http://www.w3.org/2000/svg"
   xmlns:sodipodi="http://sodipodi.sourceforge.net/DTD/sodipodi-0.dtd"
   xmlns:inkscape="http://www.inkscape.org/namespaces/inkscape"
   version="1.1"
   id="Capa_1"
   x="0px"
   y="0px"
   width="100px"
   height="100px"
   viewBox="0 0 100 100"
   style="enable-background:new 0 0 100 100;"
   xml:space="preserve"
   inkscape:version="0.91 r13725"
   sodipodi:docname="balloon4.svg"><metadata
     id="metadata13"><rdf:RDF><cc:Work
         rdf:about=""><dc:format>image/svg+xml</dc:format><dc:type
           rdf:resource="http://purl.org/dc/dcmitype/StillImage" /><dc:title></dc:title></cc:Work></rdf:RDF></metadata><defs
     id="defs11" /><sodipodi:namedview
     pagecolor="#ffffff"
     bordercolor="#666666"
     borderopacity="1"
     objecttolerance="10"
     gridtolerance="10"
     guidetolerance="10"
     inkscape:pageopacity="0"
     inkscape:pageshadow="2"
     inkscape:window-width="1659"
     inkscape:window-height="948"
     id="namedview9"
     showgrid="false"
     inkscape:zoom="7.3657812"
     inkscape:cx="50"
     inkscape:cy="50"
     inkscape:window-x="524"
     inkscape:window-y="54"
     inkscape:window-maximized="0"
     inkscape:current-layer="Capa_1" /><g
     id="g3"><path
       style="fill:#1E1E1C;"
       d="M51.222,2.085c-0.375-0.074-0.723-0.067-1.038,0c-7.752-1.367-15.481-0.495-22,4.306   c-6.427,4.734-10.15,12.828-10.594,20.668c-0.92,16.288,15.761,28.264,26.911,37.244c0.08,0.065,0.166,0.109,0.248,0.163   c0.154,0.245,0.365,0.451,0.61,0.622c-0.409,1.453-0.891,2.887-1.479,4.276c-0.331,0.782-0.388,1.626-0.057,2.324   c0.313,0.826,1.026,1.502,2.149,1.565c1.539,0.087,3.075,0.194,4.613,0.307c0.959,4.233,4.053,7.008,7.648,9.336   c4.57,2.958,7.655,4.59,4.308,10.22c-1.602,2.693,2.589,5.13,4.185,2.447c2.744-4.614,3.502-9.495-0.847-13.327   c-3.335-2.938-8.015-4.387-9.974-8.283c1.374,0.099,2.747,0.193,4.123,0.271c0.12,0.007,0.228-0.007,0.339-0.015   c0.05,0.003,0.095,0.015,0.146,0.015c1.225,0,2.552-1.106,2.424-2.424c-0.256-2.641-0.724-5.155-1.676-7.59   c0.045-0.051,0.091-0.098,0.133-0.154C75.077,45.578,80.942,7.972,51.222,2.085z M49.322,68.621   c0.35-0.973,0.666-1.957,0.927-2.964c0.012-0.051,0.012-0.096,0.022-0.146c2.125,0.016,4.25,0.068,6.374,0.16   c0.497,1.137,0.835,2.331,1.068,3.55C54.916,69.034,52.12,68.817,49.322,68.621z M57.735,60.865   c-3.36-0.176-6.723-0.209-10.087-0.213c-9.561-7.678-21.213-15.983-24.645-28.364c-2.014-7.272,1.194-15.124,6.197-20.394   c5.418-5.707,13.692-6.406,20.974-4.893c0.312,0.065,0.601,0.062,0.873,0.026C75.768,12.912,68.994,44.967,57.735,60.865z"
       id="path5" /><path
       style="fill:#1E1E1C;"
       d="M44,9.25c-3.21-0.305-3.181,4.698,0,5c9.562,0.908,15.171,8.719,14.75,18   c-0.146,3.225,4.854,3.211,5,0C64.303,20.043,56.191,10.408,44,9.25z"
       id="path7" /></g><path
     style="color:#000000;clip-rule:nonzero;display:inline;overflow:visible;visibility:visible;opacity:1;isolation:auto;mix-blend-mode:normal;color-interpolation:sRGB;color-interpolation-filters:linearRGB;solid-color:#000000;solid-opacity:1;fill:#ff8080;fill-opacity:1;fill-rule:nonzero;stroke:#000000;stroke-width:0.13576293;stroke-linecap:butt;stroke-linejoin:miter;stroke-miterlimit:4;stroke-dasharray:none;stroke-dashoffset:0;stroke-opacity:1;color-rendering:auto;image-rendering:auto;shape-rendering:auto;text-rendering:auto;enable-background:accumulate"
     d="M 54.520905,60.690818 C 53.176852,60.638804 51.083703,60.58862 49.869463,60.5793 L 47.661752,60.56235 44.981997,58.433976 C 33.28488,49.143641 28.489914,44.104752 25.238678,37.686303 22.612059,32.500944 21.924151,28.398906 22.89643,23.719328 c 1.096686,-5.278352 4.964349,-11.285627 9.034079,-14.0317803 2.075395,-1.4004252 4.789486,-2.4727022 7.520712,-2.9712652 1.909827,-0.3486235 6.583082,-0.3503407 8.688827,-0.00319 0.821366,0.1354083 1.935755,0.2990208 2.47642,0.3635834 1.207958,0.1442459 3.83409,1.008516 5.507276,1.812465 6.669168,3.2044681 10.627693,9.3032731 11.510423,17.7338351 0.232564,2.22111 0.08703,7.297441 -0.278257,9.705701 -1.218804,8.035371 -4.372388,16.366668 -8.723338,23.045756 -0.835428,1.282456 -0.994219,1.456511 -1.309331,1.435207 -0.197231,-0.01334 -1.458283,-0.0668 -2.802336,-0.118819 z m 7.958112,-26.271089 c 0.197431,-0.102095 0.513726,-0.369551 0.702877,-0.594345 0.603366,-0.717059 0.684195,-1.213591 0.596753,-3.665869 C 63.650152,26.555857 62.9607,23.778817 61.434104,20.715937 58.416946,14.662471 52.624566,10.533142 45.533617,9.380639 c -2.725936,-0.4430508 -3.775359,0.062913 -3.941992,1.900574 -0.0622,0.686012 -0.01953,0.91274 0.291478,1.548406 0.548114,1.120307 0.863293,1.269959 3.609568,1.71388 5.699756,0.921338 10.356497,4.993823 12.268788,10.729492 0.570052,1.709795 0.786843,3.077883 0.885749,5.589627 0.102464,2.602093 0.153136,2.776186 0.989867,3.400898 0.685739,0.511977 2.0129,0.584928 2.841942,0.156213 z"
     id="path4141"
     inkscape:connector-curvature="0" /></svg>