<?xml version="1.0" encoding="UTF-8" standalone="no"?>
<!-- Generator: Adobe Illustrator 17.0.2, SVG Export Plug-In . SVG Version: 6.00 Build 0)  -->

<svg
   xmlns:dc="http://purl.org/dc/elements/1.1/"
   xmlns:cc="http://creativecommons.org/ns#"
   xmlns:rdf="http://www.w3.org/1999/02/22-rdf-syntax-ns#"
   xmlns:svg="http://www.w3.org/2000/svg"
   xmlns="http://www.w3.org/2000/svg"
   xmlns:sodipodi="http://sodipodi.sourceforge.net/DTD/sodipodi-0.dtd"
   xmlns:inkscape="http://www.inkscape.org/namespaces/inkscape"
   version="1.1"
   id="Capa_1"
   x="0px"
   y="0px"
   width="100px"
   height="100px"
   viewBox="0 0 100 100"
   style="enable-background:new 0 0 100 100;"
   xml:space="preserve"
   inkscape:version="0.91 r13725"
   sodipodi:docname="arroba6.svg"><metadata
     id="metadata11"><rdf:RDF><cc:Work
         rdf:about=""><dc:format>image/svg+xml</dc:format><dc:type
           rdf:resource="http://purl.org/dc/dcmitype/StillImage" /><dc:title></dc:title></cc:Work></rdf:RDF></metadata><defs
     id="defs9" /><sodipodi:namedview
     pagecolor="#ffffff"
     bordercolor="#666666"
     borderopacity="1"
     objecttolerance="10"
     gridtolerance="10"
     guidetolerance="10"
     inkscape:pageopacity="0"
     inkscape:pageshadow="2"
     inkscape:window-width="1535"
     inkscape:window-height="799"
     id="namedview7"
     showgrid="false"
     inkscape:zoom="5.9921875"
     inkscape:cx="50"
     inkscape:cy="50"
     inkscape:window-x="856"
     inkscape:window-y="248"
     inkscape:window-maximized="0"
     inkscape:current-layer="Capa_1" /><g
     id="g3"><path
       style="fill:#1D1D1B;"
       d="M93.884,62.617c-0.968,0-1.882,0.374-2.643,1.081c-9.987,9.284-23.715,20.054-41.385,20.947   c-0.795,0.04-1.599,0.06-2.402,0.06c-13.122,0.001-24.778-5.179-31.182-13.854c-5.083-6.888-6.74-15.525-4.664-24.32   c2.368-10.031,9.449-19.123,18.48-23.726c4.958-2.527,10.403-3.863,15.747-3.863c14.346,0,25.583,9.245,27.962,23.006   c0.93,5.378-0.417,18.883-5.409,24.813c-1.537,1.825-3.289,2.751-5.209,2.751c0,0-0.001,0-0.001,0   c-0.948,0-1.964-0.223-3.025-0.665c-0.511-3.729-0.205-8.061,0.118-12.634c0.722-10.208,1.468-20.762-6.632-26.834   c-0.353-0.363-0.754-0.639-1.196-0.822l-0.057-0.036c-0.251-0.16-0.502-0.319-0.771-0.468c-1.012-0.562-2.12-0.667-3.144-0.304   c-0.303,0.024-0.594,0.081-0.885,0.171c-10.664,3.313-20.903,10.213-27.39,18.459c-3.212,4.082-4.69,9.597-3.856,14.392   c0.67,3.858,2.735,6.97,5.972,8.999c1.934,1.212,4.178,1.828,6.669,1.828c7.292,0,14.746-5.195,17.612-7.429   c2.442-1.904,4.565-4.209,6.272-6.794c-0.036,0.492-0.072,0.982-0.108,1.467c-0.351,4.724-0.683,9.188-0.134,12.59   c-0.051,1.402,0.631,2.627,1.887,3.376c2.876,1.716,5.703,2.586,8.4,2.586c11.429,0,17.997-15.469,19.011-26.454   c0.966-10.469-1.912-20.262-8.105-27.574C67.9,16.379,59.247,12.134,49.452,11.415c-1.095-0.081-2.203-0.122-3.293-0.122   c-22.758,0-41.296,17.082-43.123,39.733c-0.824,10.22,2.274,19.452,8.96,26.699c8.529,9.245,22.432,14.764,37.19,14.764   c0,0,0,0,0.001,0c0.96,0,1.93-0.024,2.883-0.073c18.603-0.939,33.656-12.836,44.692-23.095c1.174-1.092,1.541-2.595,0.98-4.022   C97.121,63.72,95.535,62.617,93.884,62.617z M41.174,58.458c-2.463,2.09-7.661,5.199-11.885,5.199   c-1.509,0-2.765-0.402-3.732-1.194c-1.324-1.085-1.988-2.367-2.028-3.917c-0.101-3.826,3.706-8.693,7.301-11.972   c5.061-4.615,11.394-8.44,17.501-10.588C50.851,41.975,50.228,50.777,41.174,58.458z"
       id="path5" /></g><path
     style="color:#000000;clip-rule:nonzero;display:inline;overflow:visible;visibility:visible;opacity:1;isolation:auto;mix-blend-mode:normal;color-interpolation:sRGB;color-interpolation-filters:linearRGB;solid-color:#000000;solid-opacity:1;fill:#008080;fill-opacity:1;fill-rule:nonzero;stroke:#000000;stroke-width:0.16688396;stroke-linecap:butt;stroke-linejoin:miter;stroke-miterlimit:4;stroke-dasharray:none;stroke-dashoffset:0;stroke-opacity:1;color-rendering:auto;image-rendering:auto;shape-rendering:auto;text-rendering:auto;enable-background:accumulate"
     d="m 27.029515,63.180427 c -1.863462,-0.739041 -3.201861,-2.501212 -3.355744,-4.41826 -0.502299,-6.257589 10.478238,-16.905581 22.524152,-21.842007 2.165823,-0.887557 2.04588,-0.884195 2.35052,-0.06588 0.71164,1.911569 0.856307,2.847219 0.858516,5.552504 0.002,2.397406 -0.04453,2.840604 -0.455162,4.338983 -0.58454,2.13297 -2.135729,5.261675 -3.517195,7.094075 -2.384753,3.163181 -6.175044,6.277128 -9.626952,7.909108 -2.66574,1.260298 -3.995385,1.633379 -6.084052,1.707105 -1.556397,0.05494 -1.966332,0.013 -2.694083,-0.275624 z"
     id="path4141"
     inkscape:connector-curvature="0" /></svg>