<?xml version="1.0" encoding="UTF-8" standalone="no"?>
<!-- Generator: Adobe Illustrator 17.0.2, SVG Export Plug-In . SVG Version: 6.00 Build 0)  -->

<svg
   xmlns:dc="http://purl.org/dc/elements/1.1/"
   xmlns:cc="http://creativecommons.org/ns#"
   xmlns:rdf="http://www.w3.org/1999/02/22-rdf-syntax-ns#"
   xmlns:svg="http://www.w3.org/2000/svg"
   xmlns="http://www.w3.org/2000/svg"
   xmlns:sodipodi="http://sodipodi.sourceforge.net/DTD/sodipodi-0.dtd"
   xmlns:inkscape="http://www.inkscape.org/namespaces/inkscape"
   version="1.1"
   id="Capa_1"
   x="0px"
   y="0px"
   width="100px"
   height="100px"
   viewBox="0 0 100 100"
   enable-background="new 0 0 100 100"
   xml:space="preserve"
   inkscape:version="0.91 r13725"
   sodipodi:docname="facebook32.svg"><metadata
     id="metadata11"><rdf:RDF><cc:Work
         rdf:about=""><dc:format>image/svg+xml</dc:format><dc:type
           rdf:resource="http://purl.org/dc/dcmitype/StillImage" /><dc:title></dc:title></cc:Work></rdf:RDF></metadata><defs
     id="defs9" /><sodipodi:namedview
     pagecolor="#ffffff"
     bordercolor="#666666"
     borderopacity="1"
     objecttolerance="10"
     gridtolerance="10"
     guidetolerance="10"
     inkscape:pageopacity="0"
     inkscape:pageshadow="2"
     inkscape:window-width="1705"
     inkscape:window-height="872"
     id="namedview7"
     showgrid="false"
     inkscape:zoom="4.72"
     inkscape:cx="35.610142"
     inkscape:cy="69.0661"
     inkscape:window-x="1349"
     inkscape:window-y="68"
     inkscape:window-maximized="0"
     inkscape:current-layer="g3" /><g
     id="g3"><path
       fill="#1D1D1B"
       d="M90.547,7.903c0.678-1.44-0.025-3.607-2.12-3.659C65.039,3.655,34.777,5.469,11.39,4.572   c-0.738-0.028-1.296,0.223-1.69,0.616c-0.8,0.326-1.424,1.044-1.424,2.17c-0.011,27.813-1.186,56.299,2.71,83.92   c0.125,0.884,0.598,1.401,1.195,1.633c0.395,0.495,1.002,0.832,1.832,0.827c4.482-0.023,10.924-0.304,15.407-0.328   c0.958-0.005,1.621-0.461,2-1.089c0.646-0.375,1.114-1.048,1.114-2.025V62.432c0-0.123-0.02-0.232-0.034-0.346   c0.015-0.104,0.034-0.208,0.034-0.31c0-1.474-1.13-2.282-2.458-2.459c-1.819-0.242-4.627-0.305-6.456-0.321   c-0.099-0.58-0.21-2.141-0.313-2.72c1.67-0.406,4.364-0.549,6.113-0.564c0.28-0.002,0.525-0.054,0.755-0.126   c1.292,0.08,2.548-0.687,2.359-2.333c-0.912-7.921-0.938-14.846-0.338-22.791c3.297-7.933,11.98-10.754,20.007-9.747v3.859   c-14.401,0.533-17.163,14.665-14.008,27.038c0.079,0.31,0.207,0.565,0.357,0.788c0.174,1.059,0.954,2,2.341,2h6.065v3.943   c-2.006,1.037-4.12,0.745-6.391,1.062c-0.027,0.004-0.049,0.017-0.075,0.022c-1.278-0.063-2.529,0.712-2.385,2.349   c0.613,6.983,0.977,20.864,1.311,27.865c0.058,1.218,0.827,1.963,1.739,2.243c0.299,0.137,0.647,0.216,1.047,0.216   c15.846,0.012,29.728,0.293,45.567-0.328c0.919-0.036,1.563-0.483,1.949-1.088c0.657-0.375,1.143-1.049,1.165-2.027   c0.617-26.882-0.305-53.761-0.328-80.643C90.559,7.975,90.549,7.942,90.547,7.903z M85.998,86.912   c-14.574,0.511-27.188,0.305-41.768,0.275c-0.274-6.804-0.587-17.727-1.035-23.271c2.637-0.541,5.156-0.588,7.463-1.984   c0.789-0.477,1.129-1.177,1.161-1.888c0.037-0.175,0.057-0.363,0.057-0.563v-7.54c0-1.593-1.241-2.384-2.476-2.377   c-0.198-0.049-0.407-0.082-0.639-0.082h-6.023c-2.215-9.538-0.964-20.471,11.269-19.997c1.248,0.048,1.995-0.686,2.26-1.598   c0.506-0.395,0.854-1.005,0.854-1.844v-7.54c0-1.601-1.253-2.391-2.494-2.375c-11.395-1.928-22.762,2.075-27.25,13.195   c-0.212,0.525-0.229,0.993-0.116,1.397c-0.521,7.059-0.541,13.107,0.114,20.144c-2.212,0.138-5.407,0.502-7.46,1.328   c-1.154,0.464-1.965,1.468-1.768,2.732c-0.002,0.205,0.009,0.412,0.05,0.62c0.365,1.851,0.673,4.696,0.983,6.556   c0.193,1.158,1.454,1.855,2.563,1.792c0.046,0.002,0.087,0.013,0.136,0.013c1.587,0,4.155,0.013,5.736,0.107v24.511   c-3.359,0.062-8.683,0.213-12.042,0.27c-3.533-26.066-2.459-52.992-2.389-79.25C35.4,10.26,63.774,8.728,85.646,9.108   C85.692,35.044,86.53,60.977,85.998,86.912z"
       id="path5" /><path
       style="color:#000000;clip-rule:nonzero;display:inline;overflow:visible;visibility:visible;opacity:1;isolation:auto;mix-blend-mode:normal;color-interpolation:sRGB;color-interpolation-filters:linearRGB;solid-color:#000000;solid-opacity:1;fill:#3b5998;fill-opacity:1;fill-rule:nonzero;stroke:#000000;stroke-width:0.21186441;stroke-linecap:butt;stroke-linejoin:miter;stroke-miterlimit:4;stroke-dasharray:none;stroke-dashoffset:0;stroke-opacity:1;color-rendering:auto;image-rendering:auto;shape-rendering:auto;text-rendering:auto;enable-background:accumulate"
       d="M 15.618276,88.137953 C 15.40289,87.074138 14.663885,80.267182 14.332431,76.29407 13.886833,70.952731 13.603334,65.995457 13.363132,59.344917 13.131909,52.942993 13.077805,17.367839 13.292165,12.682065 l 0.1381,-3.0187847 7.753074,0.128794 C 25.44753,9.862911 34.418404,9.8105512 41.118616,9.6757192 47.818828,9.5408872 60.556057,9.3737453 69.423572,9.3042928 L 85.546324,9.1780155 85.684288,23.032653 c 0.275189,27.634788 0.406648,59.244347 0.25553,61.441974 l -0.154608,2.248354 -1.623551,0.13347 c -2.609392,0.214515 -33.315928,0.426163 -36.71528,0.253066 L 44.346176,86.95165 44.205451,83.423707 C 43.746394,71.915256 43.437642,65.197072 43.341536,64.625623 l -0.10957,-0.651498 1.691481,-0.258937 c 3.643127,-0.557699 5.991737,-1.45718 6.631157,-2.539629 0.321542,-0.544328 0.369097,-1.241205 0.369097,-5.408718 l 0,-4.783884 -0.582627,-0.639949 c -0.755869,-0.830237 -1.994407,-1.06165 -5.682013,-1.06165 -2.499298,0 -2.829495,-0.04181 -2.927991,-0.370763 -0.745907,-2.491097 -0.909706,-8.982063 -0.284697,-11.281779 1.423027,-5.236015 5.13811,-8.033796 10.68558,-8.047169 0.839326,-0.002 1.771992,-0.115738 2.072589,-0.2527 0.300598,-0.136962 0.877119,-0.777517 1.281155,-1.423456 l 0.734614,-1.174435 0,-4.413336 c 0,-5.93114 0.0075,-5.917737 -3.58289,-6.426624 -5.50372,-0.78008 -11.163247,-0.04526 -15.616014,2.027538 -4.532848,2.110079 -8.247609,5.823971 -10.247271,10.244872 -0.571548,1.263594 -0.600785,1.501837 -0.851365,6.937604 -0.203819,4.421373 -0.204466,6.671392 -0.003,10.487288 0.141062,2.672017 0.294847,4.920375 0.341746,4.996348 0.0469,0.07597 -0.51045,0.201332 -1.238553,0.278574 -4.159997,0.441315 -6.434971,1.102252 -7.339331,2.132262 -0.444011,0.5057 -0.658222,0.971015 -0.658222,1.429808 0,1.126612 1.066205,7.848786 1.329216,8.380398 0.462964,0.935769 1.270148,1.144913 4.860974,1.259489 l 3.343708,0.106691 0,12.152153 0,12.152152 -2.277542,6.36e-4 c -1.252648,4.23e-4 -3.911358,0.06262 -5.908244,0.138375 l -3.630702,0.137726 -0.12453,-0.615069 0,1.2e-5 z"
       id="path4159"
       inkscape:connector-curvature="0" /></g></svg>