<?xml version="1.0" encoding="UTF-8" standalone="no"?>
<!-- Generator: Adobe Illustrator 17.0.2, SVG Export Plug-In . SVG Version: 6.00 Build 0)  -->

<svg
   xmlns:dc="http://purl.org/dc/elements/1.1/"
   xmlns:cc="http://creativecommons.org/ns#"
   xmlns:rdf="http://www.w3.org/1999/02/22-rdf-syntax-ns#"
   xmlns:svg="http://www.w3.org/2000/svg"
   xmlns="http://www.w3.org/2000/svg"
   xmlns:sodipodi="http://sodipodi.sourceforge.net/DTD/sodipodi-0.dtd"
   xmlns:inkscape="http://www.inkscape.org/namespaces/inkscape"
   version="1.1"
   id="Capa_1"
   x="0px"
   y="0px"
   width="100px"
   height="100px"
   viewBox="0 0 100 100"
   enable-background="new 0 0 100 100"
   xml:space="preserve"
   inkscape:version="0.91 r13725"
   sodipodi:docname="hand131.svg"><metadata
     id="metadata15"><rdf:RDF><cc:Work
         rdf:about=""><dc:format>image/svg+xml</dc:format><dc:type
           rdf:resource="http://purl.org/dc/dcmitype/StillImage" /><dc:title></dc:title></cc:Work></rdf:RDF></metadata><defs
     id="defs13" /><sodipodi:namedview
     pagecolor="#ffffff"
     bordercolor="#666666"
     borderopacity="1"
     objecttolerance="10"
     gridtolerance="10"
     guidetolerance="10"
     inkscape:pageopacity="0"
     inkscape:pageshadow="2"
     inkscape:window-width="1697"
     inkscape:window-height="808"
     id="namedview11"
     showgrid="false"
     inkscape:zoom="6.0751562"
     inkscape:cx="50"
     inkscape:cy="50"
     inkscape:window-x="1238"
     inkscape:window-y="389"
     inkscape:window-maximized="0"
     inkscape:current-layer="Capa_1" /><g
     id="g3"><path
       fill="#1D1D1B"
       d="M58.034,29.096c-1.522-10.824-10.559-14.68-18.508-14.68c-0.942,0-1.904,0.052-2.824,0.151   c-5.284,0.185-10.39,2.587-13.658,6.426c-2.761,3.244-3.943,7.156-3.42,11.315c1.127,8.945,8.806,15.192,18.673,15.192   c0,0,0,0,0.001,0c1.079,0,2.17-0.08,3.241-0.236C50.368,45.975,59.313,38.195,58.034,29.096z M42.612,43.143   c-1.545,0.447-3.121,0.673-4.686,0.673c-5.967,0-11.229-3.323-13.731-8.672c-1.278-2.731-1.387-5.58-0.312-8.239   c1.317-3.259,4.351-6.069,8.121-7.53c0.147-0.01,0.285-0.035,0.422-0.076c1.463-0.44,2.951-0.755,4.379-0.933   c0.176-0.006,0.353-0.012,0.528-0.012l0.087,0c0.226,0,0.444-0.037,0.651-0.109c0.555-0.04,1.108-0.061,1.656-0.061   c7.692,0,12.962,3.925,14.457,10.769C55.081,33.053,52.737,40.214,42.612,43.143z"
       id="path5" /><path
       fill="#1D1D1B"
       d="M51.998,50.311c8.503-4.314,12.831-10.2,13.603-18.473c0.674-7.238-2.665-14.789-8.942-20.269   c0.84-2.049,1.424-3.92,1.782-5.709c0.123-0.615-0.023-1.214-0.412-1.688c-0.405-0.495-1.045-0.802-1.669-0.802   c-0.601,0-1.107,0.275-1.408,0.759c-1.824,1.477-3.948,2.75-6.664,3.996c-2.409-0.524-4.921-0.791-7.47-0.791   c-11.271,0-21.689,5.108-27.19,13.33c-3.466,5.177-4.009,12.25-1.419,18.46c3.835,9.197,11.535,12.755,18.562,15.021   c0.34,0.109,0.684,0.129,1.009,0.058c3.304,0.687,6.354,0.846,9.369,0.49c6.365,5.102,14.599,15.29,13.257,22.302   c-0.613,3.203-3.178,5.503-7.622,6.837c-4.812,1.444-10.726,0.727-15.135-1.821c-2.688-1.554-4.193-3.53-4.472-5.875   c-0.623-5.249,4.891-11.364,8.232-14.542c0.812-0.772,0.722-1.785,0.267-2.473c-0.273-0.7-0.857-1.149-1.614-1.237   c-2.364-0.275-4.712-0.833-7.176-1.703c-0.226-0.079-0.452-0.12-0.672-0.12c-0.982,0-1.629,0.769-1.801,1.575   c-5.952,6.997-14.285,20.209-4.105,30.846c6.431,6.72,16.359,7.724,21.705,7.725h0.001c1.486,0,2.996-0.074,4.486-0.219   c8.113-0.79,17.843-4.985,20.818-14.389C71.014,69.918,60.523,58.238,51.998,50.311z M64.024,78.084   c-0.247,7.759-8.203,12.148-15.567,13.67c-2.103,0.434-4.287,0.654-6.494,0.654c-5.792,0-11.45-1.528-15.932-4.304   c-3.156-1.955-5.448-4.91-6.454-8.32c-2.036-6.907,2.936-13.975,7.599-19.412c1.028,0.315,2.07,0.587,3.109,0.811   c-5.033,5.255-10.47,12.9-4.486,20.875c3.021,4.025,8.675,6.334,15.514,6.334c1.515,0,3.025-0.114,4.49-0.342   c6.394-0.99,12.878-5.511,12.951-13.38c0.09-9.707-9.87-18.905-15.815-23.523c-0.487-0.378-1.063-0.493-1.59-0.325   c-0.17-0.023-0.347-0.028-0.54-0.001c-2.766,0.376-5.667,0.194-8.867-0.559c-0.207-0.049-0.423-0.064-0.628-0.048   c-5.921-1.975-11.838-4.766-15.124-11.65c-2.604-5.458-2.142-11.511,1.27-16.609c4.371-6.53,13.538-10.749,23.355-10.749   c2.416,0,4.739,0.259,6.904,0.77c0.412,0.096,0.82,0.068,1.194-0.081c0.308,0.012,0.612-0.047,0.902-0.179   c1.116-0.505,2.205-1.059,3.252-1.652c-0.133,0.334-0.266,0.656-0.4,0.969c-0.097,0.224-0.15,0.453-0.159,0.684   c-0.188,0.79,0.08,1.553,0.721,2.052c5.702,4.439,8.712,10.789,8.474,17.877c-0.237,7.09-4.628,12.268-13.815,16.293   c-0.43,0.188-0.749,0.49-0.928,0.876c-0.591,0.769-0.503,1.714,0.229,2.372C53.199,56.598,64.389,66.673,64.024,78.084z"
       id="path7" /><path
       fill="#1D1D1B"
       d="M90.674,48.891c-0.344-1.055-0.587-3.15-0.605-4.262c-0.017-1.041-0.905-1.51-1.705-1.415   c-0.133-0.038-0.274-0.065-0.434-0.065c-1.735,0-3.464-0.029-5.189-0.182c-0.299-3.284-0.597-3.506-0.896-6.79   c-0.089-0.98-0.932-1.451-1.697-1.413c-0.135-0.039-0.278-0.067-0.44-0.067c-2.311,0.001-3.577,0.026-5.871,0.329   c-1.076,0.142-1.535,1.188-1.372,2c-0.095,0.25-0.127,0.538-0.056,0.861c0.566,2.57,0.053,2.087,0.571,4.667   c-2.029,0.145-3.988,0.569-5.862,1.455c-0.675,0.32-0.852,0.905-0.717,1.451c-0.005,0.052-0.016,0.101-0.016,0.156   c0.001,1.905,0.043,3.85,0.711,5.657c0.253,0.686,0.835,0.989,1.417,1.003c0.22,0.064,0.463,0.084,0.732,0.031   c1.238-0.244,2.474-0.435,3.723-0.534c0.009,2.338,0.056,4.725,0.325,7.051c0.11,0.956,0.934,1.426,1.687,1.41   c0.137,0.041,0.284,0.071,0.451,0.071h6.908c0.792,0,1.25-0.511,1.385-1.107c0.085-0.195,0.127-0.426,0.095-0.702   c-0.275-2.386-0.318-3.796-0.326-6.195c2.023-0.178,4.048-0.219,6.082-0.22c1.386,0,1.76-1.555,1.135-2.411   C90.768,49.439,90.768,49.18,90.674,48.891z M82.338,49.449c-0.089,0.01-0.17,0.033-0.25,0.055   c-0.766-0.035-1.559,0.437-1.559,1.426c0,2.47,0.015,3.954,0.227,6.415H76.12c-0.177-2.243-0.196-4.543-0.196-6.794   c0-0.144-0.021-0.273-0.053-0.395c-0.021-0.723-0.494-1.425-1.428-1.414c-1.628,0.019-3.24,0.221-4.842,0.501   c-0.2-0.98-0.243-1.977-0.252-2.988c1.624-0.611,3.357-0.786,5.094-0.803c0.083-0.001,0.159-0.014,0.234-0.025   c0.85-0.035,1.741-0.755,1.522-1.848c-0.588-2.944-0.146-2.825-0.784-5.758c1.543-0.126,2.053-0.153,3.604-0.158   c0.284,3.124,0.568,3.186,0.852,6.31c0.014,0.149,0.05,0.282,0.096,0.408c0.101,0.656,0.563,1.292,1.385,1.401   c1.955,0.26,3.916,0.315,5.882,0.324c0.094,0.674,0.249,2.375,0.435,3.03C85.888,49.162,84.112,49.241,82.338,49.449z"
       id="path9" /></g><path
     style="color:#000000;clip-rule:nonzero;display:inline;overflow:visible;visibility:visible;opacity:1;isolation:auto;mix-blend-mode:normal;color-interpolation:sRGB;color-interpolation-filters:linearRGB;solid-color:#000000;solid-opacity:1;fill:#dd4b39;fill-opacity:1;fill-rule:nonzero;stroke:#000000;stroke-width:0.16460481;stroke-linecap:butt;stroke-linejoin:miter;stroke-miterlimit:4;stroke-dasharray:none;stroke-dashoffset:0;stroke-opacity:1;color-rendering:auto;image-rendering:auto;shape-rendering:auto;text-rendering:auto;enable-background:accumulate"
     d="m 38.625807,92.161623 c -3.267254,-0.394119 -6.285529,-1.169091 -8.884831,-2.281261 -4.826798,-2.065259 -7.56359,-4.473233 -9.303185,-8.185432 -1.629963,-3.47825 -1.630658,-6.839168 -0.0023,-10.937946 1.014427,-2.553375 3.959403,-7.104399 6.189737,-9.56532 l 0.642806,-0.709264 1.449165,0.387666 1.449164,0.387664 -0.36291,0.321599 c -0.199601,0.176881 -0.905377,0.970258 -1.568391,1.763062 -4.308484,5.151897 -5.850828,9.6784 -4.809049,14.113693 0.293345,1.248896 1.560233,3.689314 2.584052,4.977683 2.229942,2.806146 6.010402,4.81476 10.640444,5.653421 2.25597,0.408635 7.10428,0.415524 9.293736,0.0132 6.39455,-1.175019 11.016211,-4.914369 12.443807,-10.068191 0.414549,-1.496579 0.494555,-4.474064 0.167079,-6.217927 C 57.60811,66.771014 54.508256,61.798078 48.81445,56.187734 46.410899,53.819415 43.319508,51.18523 42.56428,50.861943 42.165326,50.691164 41.695716,50.681164 40.342115,50.814618 37.102207,51.13405 32.459024,50.5628 29.490239,49.479515 c -1.77791,-0.648744 -5.048595,-2.255453 -6.359565,-3.124108 -4.232382,-2.804393 -7.323303,-7.31476 -8.222905,-11.999115 -0.30119,-1.568338 -0.296747,-4.635324 0.0088,-6.087937 1.784042,-8.48104 9.532931,-14.680346 20.746331,-16.597585 2.456029,-0.419926 7.993139,-0.402737 10.205499,0.03168 2.525835,0.495971 3.362513,0.415527 5.1819,-0.498224 0.835407,-0.419566 1.555616,-0.726152 1.600465,-0.681303 0.04485,0.04485 -0.0085,0.354397 -0.118564,0.687883 -0.11006,0.333485 -0.161163,0.896704 -0.113561,1.251597 0.07643,0.569833 0.35552,0.909121 2.387563,2.902544 1.443421,1.415988 2.622947,2.742361 3.164788,3.558795 1.287463,1.939922 2.41854,4.444427 2.996252,6.634499 0.486725,1.845144 0.512214,2.097661 0.51986,5.150073 0.0076,3.043091 -0.01528,3.284995 -0.440767,4.657755 -0.872123,2.813681 -2.036022,4.658182 -4.335258,6.870344 -1.802917,1.734638 -4.081056,3.26583 -7.165074,4.815821 -2.260384,1.136044 -2.377127,1.219474 -2.745577,1.962116 -0.631633,1.273113 -0.541209,1.420583 2.722783,4.440428 8.473299,7.839495 12.915796,14.428239 14.129778,20.956116 0.407614,2.19185 0.27717,5.188505 -0.296174,6.803874 -0.557831,1.57166 -1.290399,2.770778 -2.509375,4.107508 -3.051158,3.345904 -8.484862,5.845734 -14.543141,6.690718 -1.671162,0.233087 -6.244496,0.32161 -7.67851,0.148628 z m 3.47557,-44.918416 c 4.929962,-0.859713 10.06915,-3.912366 12.890924,-7.657142 3.184685,-4.226395 3.954748,-8.216111 2.539433,-13.156872 C 55.691101,20.00367 50.724562,15.886482 43.324993,14.652012 41.905711,14.415233 41.02699,14.382943 38.304546,14.467527 c -4.552485,0.141441 -6.79741,0.646768 -9.881184,2.22423 -4.680481,2.394235 -7.775774,6.30979 -8.736644,11.05188 -0.357132,1.762516 -0.250636,4.762059 0.234853,6.614861 1.265051,4.827894 4.514951,8.810461 9.074854,11.120721 1.331472,0.674585 3.742659,1.460185 5.404686,1.760924 1.75753,0.31802 5.884752,0.319663 7.700266,0.0031 l 0,2e-6 z"
     id="path4143"
     inkscape:connector-curvature="0" /><path
     style="color:#000000;clip-rule:nonzero;display:inline;overflow:visible;visibility:visible;opacity:1;isolation:auto;mix-blend-mode:normal;color-interpolation:sRGB;color-interpolation-filters:linearRGB;solid-color:#000000;solid-opacity:1;fill:#dd4b39;fill-opacity:1;fill-rule:nonzero;stroke:#000000;stroke-width:0.16460481;stroke-linecap:butt;stroke-linejoin:miter;stroke-miterlimit:4;stroke-dasharray:none;stroke-dashoffset:0;stroke-opacity:1;color-rendering:auto;image-rendering:auto;shape-rendering:auto;text-rendering:auto;enable-background:accumulate"
     d="m 76.212953,57.16854 c -0.01378,-0.02263 -0.07106,-1.707775 -0.127283,-3.74476 -0.13796,-4.998166 -0.111804,-4.964614 -3.612805,-4.634248 -1.14308,0.107865 -2.234549,0.237668 -2.425487,0.288451 -0.287513,0.07647 -0.365286,0.0017 -0.452663,-0.435187 -0.15319,-0.765951 -0.129287,-2.262895 0.03778,-2.36615 0.4171,-0.257782 2.276178,-0.605267 3.724927,-0.696236 1.794813,-0.112698 2.466653,-0.350041 2.749772,-0.97142 0.182008,-0.399464 0.04668,-2.318557 -0.381497,-5.41022 -0.12269,-0.885878 -0.110729,-1.168752 0.05383,-1.273166 0.116363,-0.07383 0.896737,-0.135375 1.734164,-0.136761 l 1.522594,-0.0025 6.59e-4,0.534966 c 3.62e-4,0.294231 0.115211,1.238651 0.255216,2.098711 0.140005,0.860061 0.32456,2.119288 0.410122,2.798282 0.197159,1.564591 0.417052,2.095634 0.990559,2.392206 0.434132,0.224498 3.090401,0.524815 5.4192,0.612694 l 1.067683,0.04029 0.175939,1.37546 c 0.123302,0.963972 0.123975,1.390734 0.0022,1.426513 -0.09552,0.02808 -1.247725,0.09453 -2.560448,0.147676 -2.658,0.107605 -3.487859,0.252958 -3.978319,0.696818 -0.317936,0.287729 -0.330377,0.459024 -0.276023,3.800588 l 0.05692,3.499279 -2.181014,-5.6e-5 c -1.199557,-3.2e-5 -2.192289,-0.01858 -2.206069,-0.04121 z"
     id="path4145"
     inkscape:connector-curvature="0" /></svg>