<?xml version="1.0" encoding="utf-8"?>
<!-- Generator: Adobe Illustrator 16.0.3, SVG Export Plug-In . SVG Version: 6.00 Build 0)  -->
<!DOCTYPE svg PUBLIC "-//W3C//DTD SVG 1.1//EN" "http://www.w3.org/Graphics/SVG/1.1/DTD/svg11.dtd">
<svg version="1.1" id="Layer_1" xmlns="http://www.w3.org/2000/svg" xmlns:xlink="http://www.w3.org/1999/xlink" x="0px" y="0px"
	 width="612px" height="792px" viewBox="0 0 612 792" enable-background="new 0 0 612 792" xml:space="preserve">
<g>
	<g id="XMLID_1_">
		<g>
			<path fill="#915E4D" d="M287.6,165.66c84.53,2,169.04,4.03,253.68,3.97c-1.04,33.24-1.971,67.56-2.79,102.45h-0.021
				c-82.779-0.1-165.55-0.82-248.29-3.17C287.72,234.52,286.48,200.14,287.6,165.66z M521.73,239.94V197.1
				c0-19.73-30.601-19.73-30.601,0v42.84C491.13,259.67,521.73,259.67,521.73,239.94z M466.58,255.39c5.45-2.42,9.88-7.8,9.25-13.92
				c-1.41-13.74-1.53-27.51-1.53-41.31c0-1.55-0.25-2.94-0.6-4.25c-0.48-7.23-5.351-14.11-14.7-14.11h-44.37
				c-5.62,0-9.59,2.52-12.01,6.08c-5.29,1.88-9.48,6.47-9.41,13.81c0.11,12.24,1.42,24.46,1.53,36.72
				c0.029,3.35,0.99,6.09,2.479,8.3c1.351,6.23,6.101,11.59,14.351,11.59h45.899C461.22,258.3,464.25,257.19,466.58,255.39z"/>
			<path fill="#3580ED" d="M257.04,164.91c-1.15,34.42,0.07,68.74,2.5,103.07c-12.53-0.43-25.06-0.91-37.59-1.42
				c1.33-34.1,1.62-68.22,2.86-102.32C235.55,164.47,246.3,164.66,257.04,164.91z"/>
			<path fill="#EDD33A" d="M194.23,163.59c-1.24,33.86-1.55,67.75-2.83,101.6c-12.24-0.57-24.54-1.25-36.78-1.91
				c2.63-33.4,2.95-66.85,2.98-100.33C169.81,163.16,182.02,163.35,194.23,163.59z"/>
			<path fill="#FC4C6A" d="M127,162.5c-0.02,33.04-0.35,66.04-2.87,99.02c-11.49-0.71-22.98-1.39-34.48-2.2
				c-0.01-3.38,0.04-6.79,0-10.16c0.11-1.25,0.11-2.51-0.05-3.77c-0.28-23.99-0.99-47.78-2.38-71.21c-0.06-0.94-0.28-1.75-0.47-2.59
				c0.29-1.14,0.47-2.31,0.47-3.52l0.01-0.03v-5.98C100.49,162.14,113.74,162.33,127,162.5z"/>
			<path fill="#1D1D1B" d="M571.61,152.47c0.409,1.48,0.689,3.06,0.63,4.86c-1.23,39.17-2.351,79.7-3.29,120.83
				c3.79,5.57,3.649,13.7-0.431,19.06c-2.27,105.02-3.359,231.7-2.399,331.339c0.04,3.7-1.01,6.7-2.73,9.021
				c-1.63,5.81-6.3,10.72-14.1,10.87c-160.65,3.13-321.36,8.899-481.95,1.53c-9-0.421-13.84-7.07-14.61-14.061
				c-0.38-1.33-0.66-2.729-0.69-4.3C49.52,489.27,65.1,316.48,56.63,174.15c-0.08-1.36,0.05-2.59,0.25-3.77
				c-0.12-0.77-0.25-1.55-0.25-2.35v-21.42c0-8.34,6.96-15.3,15.3-15.3c0.46,0,0.9,0.1,1.35,0.14c0.56-0.05,1.11-0.14,1.71-0.14
				c160.78,0.37,321.18,8.76,481.95,7.65c9.14-0.06,13.989,6.46,14.67,13.5V152.47z M541.28,169.63
				c-84.641,0.06-169.15-1.97-253.68-3.97c-1.12,34.48,0.12,68.86,2.58,103.25c82.74,2.35,165.51,3.07,248.29,3.17h0.021
				C539.31,237.19,540.24,202.87,541.28,169.63z M535.45,618.19l-0.01-0.021c-0.78-94.37,0.25-215.72,2.359-315.49
				c-149.49-0.18-299-2.21-448.17-12.75c-0.94,104.09-8.23,229.419-7.12,330.05C233.43,626.15,384.49,621.26,535.45,618.19z
				 M259.54,267.98c-2.43-34.33-3.65-68.65-2.5-103.07c-10.74-0.25-21.49-0.44-32.23-0.67c-1.24,34.1-1.53,68.22-2.86,102.32
				C234.48,267.07,247.01,267.55,259.54,267.98z M191.4,265.19c1.28-33.85,1.59-67.74,2.83-101.6c-12.21-0.24-24.42-0.43-36.63-0.64
				c-0.03,33.48-0.35,66.93-2.98,100.33C166.86,263.94,179.16,264.62,191.4,265.19z M124.13,261.52
				c2.52-32.98,2.85-65.98,2.87-99.02c-13.26-0.17-26.51-0.36-39.77-0.44v5.98l-0.01,0.03c0,1.21-0.18,2.38-0.47,3.52
				c0.19,0.84,0.41,1.65,0.47,2.59c1.39,23.43,2.1,47.22,2.38,71.21c0.16,1.26,0.16,2.52,0.05,3.77c0.04,3.37-0.01,6.78,0,10.16
				C101.15,260.13,112.64,260.81,124.13,261.52z"/>
			<path fill="#1D1D1B" d="M521.73,197.1v42.84c0,19.73-30.601,19.73-30.601,0V197.1C491.13,177.37,521.73,177.37,521.73,197.1z"/>
			<path fill="#1D1D1B" d="M475.83,241.47c0.63,6.12-3.8,11.5-9.25,13.92c-2.33,1.8-5.36,2.91-9.11,2.91H411.57
				c-8.25,0-13-5.36-14.351-11.59c-1.489-2.21-2.45-4.95-2.479-8.3c-0.11-12.26-1.42-24.48-1.53-36.72
				c-0.07-7.34,4.12-11.93,9.41-13.81c2.42-3.56,6.39-6.08,12.01-6.08H459c9.35,0,14.22,6.88,14.7,14.11c0.35,1.31,0.6,2.7,0.6,4.25
				C474.3,213.96,474.42,227.73,475.83,241.47z M424.99,227.7h19.26c-0.26-5.1-0.38-10.2-0.46-15.3h-19.6
				C424.44,217.5,424.73,222.6,424.99,227.7z"/>
			<path fill="#1D1D1B" d="M438.2,384.29c19.06,33.63,30.47,75.22,20.39,113.68c-17.05,65.15-81.68,104.87-146.67,107.95
				c-69.49,3.28-143.07-36.09-156.85-109.46c-17.69-94.27,56.56-185.41,150.87-181.78c2.11-1.05,4.64-1.61,7.71-1.3
				C363.5,318.37,412.38,338.72,438.2,384.29z M427.8,494.73c18.88-72.15-32.939-135.311-101.04-148.771
				c-2.38,0.8-5.05,1.1-8.01,0.55c-87.19-16.21-167.05,85.01-125.92,165.92c23.68,46.59,73.17,67.971,124.2,62.48
				C363.21,569.96,415.16,542.99,427.8,494.73z"/>
			<path fill="#1D1D1B" d="M388.06,413.28c7.811,13.779,19.771,41.2,12.23,70.02c-9.79,37.311-46.75,64.78-89.96,66.82
				c-1.63,0.08-3.271,0.12-4.91,0.12c-54.18,0-85.5-35.46-91.7-68.42c-5.22-27.84,2.35-56.511,20.71-78.66
				c17.87-21.54,43.47-33.78,70.59-33.27c2.12-0.65,4.3-0.89,6.76-0.63C346.89,372.77,373.97,388.4,388.06,413.28z M365.42,476.85
				c3.93-15.01,1.72-29.8-6.4-42.76c-8.85-14.109-23.619-24.31-40.76-28.2c-2.01,0.341-4.04,0.341-6.229-0.069
				c-2.87-0.54-5.8-0.811-8.7-0.811c-18.65,0-37.02,11.061-47.92,28.84c-10.22,16.67-11.5,35.25-3.49,50.99
				c9.6,18.9,29.09,30.18,52.15,30.18c2.541,0,5.13-0.14,7.69-0.42C334.18,512.19,359.46,499.59,365.42,476.85z"/>
			<path fill="#1D1D1B" d="M353.44,463.32c0.56,19.739-30.03,19.689-30.601,0c-0.09-3.021-1.25-7.69-3.49-10.23
				c-3.67-4.149-6.859-6.32-11.89-8.689c-7.54-3.551-9.42-14.23-5.49-20.931c4.49-7.67,13.39-9.04,20.93-5.489
				C340.77,426.42,352.85,443.45,353.44,463.32z"/>
		</g>
		<g>
		</g>
	</g>
</g>
</svg>
