<svg xmlns="http://www.w3.org/2000/svg" viewBox="0 0 100 100" enable-background="new 0 0 100 100"><g fill="#1e1e1c"><path d="m51.22 2.085c-.375-.074-.723-.067-1.038 0-7.752-1.367-15.481-.495-22 4.306-6.427 4.734-10.15 12.828-10.594 20.668-.92 16.288 15.761 28.26 26.911 37.24.08.065.166.109.248.163.154.245.365.451.61.622-.409 1.453-.891 2.887-1.479 4.276-.331.782-.388 1.626-.057 2.324.313.826 1.026 1.502 2.149 1.565 1.539.087 3.075.194 4.613.307.959 4.233 4.053 7.01 7.648 9.336 4.57 2.958 7.655 4.59 4.308 10.22-1.602 2.693 2.589 5.13 4.185 2.447 2.744-4.614 3.502-9.495-.847-13.327-3.335-2.938-8.02-4.387-9.974-8.283 1.374.099 2.747.193 4.123.271.12.007.228-.007.339-.015.05.003.095.015.146.015 1.225 0 2.552-1.106 2.424-2.424-.256-2.641-.724-5.155-1.676-7.59.045-.051.091-.098.133-.154 13.683-18.478 19.548-56.08-10.172-61.971m-1.9 66.54c.35-.973.666-1.957.927-2.964.012-.051.012-.096.022-.146 2.125.016 4.25.068 6.374.16.497 1.137.835 2.331 1.068 3.55-2.797-.187-5.593-.404-8.391-.6m8.413-7.756c-3.36-.176-6.723-.209-10.09-.213-9.561-7.678-21.21-15.983-24.645-28.364-2.01-7.272 1.194-15.12 6.197-20.394 5.418-5.707 13.692-6.406 20.974-4.893.312.065.601.062.873.026 24.721 5.885 17.947 37.94 6.688 53.838"/><path d="m44 9.25c-3.21-.305-3.181 4.698 0 5 9.562.908 15.171 8.719 14.75 18-.146 3.225 4.854 3.211 5 0 .553-12.207-7.559-21.842-19.75-23"/></g><path d="m54.52 60.691c-1.344-.052-3.437-.102-4.651-.112l-2.208-.017-2.68-2.128c-11.697-9.29-16.492-14.329-19.743-20.748-2.627-5.185-3.315-9.287-2.342-13.967 1.097-5.278 4.964-11.286 9.03-14.03 2.075-1.4 4.789-2.473 7.521-2.971 1.91-.349 6.583-.35 8.689-.003.821.135 1.936.299 2.476.364 1.208.144 3.834 1.01 5.507 1.812 6.669 3.204 10.628 9.303 11.51 17.734.233 2.221.087 7.297-.278 9.706-1.219 8.04-4.372 16.367-8.723 23.05-.835 1.282-.994 1.457-1.309 1.435-.197-.013-1.458-.067-2.802-.119zm7.958-26.27c.197-.102.514-.37.703-.594.603-.717.684-1.214.597-3.666-.128-3.604-.818-6.381-2.345-9.444-3.02-6.05-8.81-10.183-15.9-11.335-2.726-.443-3.775.063-3.942 1.901-.062.686-.02.913.291 1.548.548 1.12.863 1.27 3.61 1.714 5.7.921 10.356 4.994 12.269 10.729.57 1.71.787 3.078.886 5.59.102 2.602.153 2.776.99 3.401.686.512 2.01.585 2.842.156z" mix-blend-mode="normal" solid-color="#000000" color-interpolation-filters="linearRGB" color="#000" image-rendering="auto" color-rendering="auto" stroke-width=".136" isolation="auto" color-interpolation="sRGB" solid-opacity="1" fill="#ff8080" stroke="#000" shape-rendering="auto"/></svg>