<svg xmlns="http://www.w3.org/2000/svg" viewBox="0 0 100 100" enable-background="new 0 0 100 100"><path fill="#1d1d1b" d="m90.55 7.903c.678-1.44-.025-3.607-2.12-3.659-23.388-.589-53.65 1.225-77.04.328-.738-.028-1.296.223-1.69.616-.8.326-1.424 1.044-1.424 2.17-.011 27.813-1.186 56.3 2.71 83.92.125.884.598 1.401 1.195 1.633.395.495 1 .832 1.832.827 4.482-.023 10.924-.304 15.407-.328.958-.005 1.621-.461 2-1.089.646-.375 1.114-1.048 1.114-2.025v-27.864c0-.123-.02-.232-.034-.346.015-.104.034-.208.034-.31 0-1.474-1.13-2.282-2.458-2.459-1.819-.242-4.627-.305-6.456-.321-.099-.58-.21-2.141-.313-2.72 1.67-.406 4.364-.549 6.113-.564.28-.002.525-.054.755-.126 1.292.08 2.548-.687 2.359-2.333-.912-7.921-.938-14.846-.338-22.791 3.297-7.933 11.98-10.754 20.01-9.747v3.859c-14.401.533-17.16 14.665-14.01 27.04.079.31.207.565.357.788.174 1.059.954 2 2.341 2h6.06v3.943c-2.01 1.037-4.12.745-6.391 1.062-.027.004-.049.017-.075.022-1.278-.063-2.529.712-2.385 2.349.613 6.983.977 20.864 1.311 27.865.058 1.218.827 1.963 1.739 2.243.299.137.647.216 1.047.216 15.846.012 29.728.293 45.567-.328.919-.036 1.563-.483 1.949-1.088.657-.375 1.143-1.049 1.165-2.027.617-26.882-.305-53.761-.328-80.64.002-.039-.008-.072-.001-.111m-4.549 79.01c-14.574.511-27.19.305-41.768.275-.274-6.804-.587-17.727-1.035-23.271 2.637-.541 5.156-.588 7.463-1.984.789-.477 1.129-1.177 1.161-1.888.037-.175.057-.363.057-.563v-7.54c0-1.593-1.241-2.384-2.476-2.377-.198-.049-.407-.082-.639-.082h-6.02c-2.215-9.538-.964-20.471 11.269-19.997 1.248.048 1.995-.686 2.26-1.598.506-.395.854-1 .854-1.844v-7.54c0-1.601-1.253-2.391-2.494-2.375-11.395-1.928-22.762 2.075-27.25 13.195-.212.525-.229.993-.116 1.397-.521 7.06-.541 13.11.114 20.14-2.212.138-5.407.502-7.46 1.328-1.154.464-1.965 1.468-1.768 2.732-.002.205.009.412.05.62.365 1.851.673 4.696.983 6.556.193 1.158 1.454 1.855 2.563 1.792.046.002.087.013.136.013 1.587 0 4.155.013 5.736.107v24.511c-3.359.062-8.683.213-12.04.27-3.533-26.07-2.459-52.992-2.389-79.25 22.22.717 50.59-.815 72.46-.435.046 25.936.884 51.869.352 77.8"/><path d="m15.618 88.14c-.215-1.064-.954-7.871-1.286-11.844-.446-5.341-.729-10.299-.969-16.949-.231-6.402-.285-41.977-.071-46.663l.138-3.02 7.753.129c4.264.071 13.235.018 19.935-.116 6.7-.135 19.437-.302 28.3-.371l16.12-.126.138 13.855c.275 27.635.407 59.24.256 61.44l-.155 2.248-1.624.133c-2.609.215-33.32.426-36.715.253l-3.1-.158-.141-3.528c-.459-11.508-.768-18.227-.864-18.798l-.11-.651 1.691-.259c3.643-.558 5.992-1.457 6.631-2.54.322-.544.369-1.241.369-5.409v-4.784l-.583-.64c-.756-.83-1.994-1.062-5.682-1.062-2.499 0-2.829-.042-2.928-.371-.746-2.491-.91-8.982-.285-11.282 1.423-5.236 5.138-8.03 10.686-8.05.839-.002 1.772-.116 2.073-.253.301-.137.877-.778 1.281-1.423l.735-1.174v-4.413c0-5.931.008-5.918-3.583-6.427-5.504-.78-11.163-.045-15.616 2.028-4.533 2.11-8.248 5.824-10.247 10.245-.572 1.264-.601 1.502-.851 6.938-.204 4.421-.204 6.671-.003 10.487.141 2.672.295 4.92.342 4.996.047.076-.51.201-1.239.279-4.16.441-6.435 1.102-7.339 2.132-.444.506-.658.971-.658 1.43 0 1.127 1.066 7.849 1.329 8.38.463.936 1.27 1.145 4.861 1.259l3.344.107v12.152 12.152h-2.278c-1.253 0-3.911.063-5.908.138l-3.631.138-.125-.615z" mix-blend-mode="normal" solid-color="#000000" color-interpolation-filters="linearRGB" color="#000" image-rendering="auto" color-rendering="auto" stroke-width=".212" isolation="auto" color-interpolation="sRGB" solid-opacity="1" fill="#3b5998" stroke="#000" shape-rendering="auto"/></svg>