<svg xmlns="http://www.w3.org/2000/svg" viewBox="0 0 100 100" enable-background="new 0 0 100 100"><g fill="#1e1e1c"><path d="m96.29 27.16c.009-.416-.109-.752-.305-1.01-.117-.234-.289-.453-.537-.637-13.14-9.746-31.902-14.9-44.996-2.83-13.09-12.07-31.857-6.916-44.996 2.83-.248.184-.419.403-.537.637-.196.257-.314.592-.305 1.01.335 16.265-.164 32.527-.189 48.793 0 .284.059.529.16.739-.276 1.172.578 2.567 1.992 2.02 13.871-5.407 29.559-6.603 42.21 2.112.289.685.934 1.18 1.669 1.01.735.169 1.38-.326 1.668-1.01 12.648-8.715 28.336-7.519 42.21-2.112 1.414.551 2.268-.844 1.992-2.02.1-.21.16-.455.16-.739-.026-16.266-.525-32.528-.19-48.793m-45.838 50.707c-12.657-8.722-28.527-8.191-42.621-3.215.047-15.614.493-31.23.192-46.84 12.02-8.65 29.28-13.762 41.1-1.71.413.421.888.548 1.333.489.445.06.92-.068 1.333-.489 11.815-12.05 29.07-6.941 41.1 1.71-.301 15.614.146 31.23.192 46.841-14.09-4.977-29.965-5.508-42.621 3.214"/><path d="m95.09 81.27c-14.374-5.786-34.484-7.967-45.04 4.554-10.56-12.52-30.671-10.34-45.04-4.554-2.538 1.021-.347 4.466 2.168 3.454 13.01-5.236 32.416-7.568 40.969 5.532.476.729 1.202.989 1.907.94.706.049 1.431-.211 1.907-.94 8.553-13.1 27.962-10.768 40.969-5.532 2.514 1.013 4.705-2.433 2.168-3.454"/><path d="m13.698 42.36c.329.752 1.173 1.262 2.059.685 2.282-1.485 4.715-2.567 7.392-3.099.876-.174 1.17-.884 1.053-1.561.028-.119.048-.246.048-.385v-8.5c0-.998-.798-1.477-1.571-1.445-.132-.034-.271-.057-.429-.055-3.075.053-6.02.861-8.507 2.705-.488.361-.669.87-.641 1.36-.049.133-.088.275-.102.435-.239 2.829-.25 5.663-.25 8.5 0 .725.421 1.178.948 1.36m2.282-9.557c1.618-1.025 3.368-1.58 5.27-1.747v6.249c-1.925.495-3.763 1.269-5.496 2.241.009-2.25.049-4.498.226-6.743"/><path d="m30.15 31.446c3.689-1.264 7.25-.92 10.594 1.099 1.661 1 3.167-1.592 1.514-2.59-3.984-2.405-8.498-2.911-12.906-1.401-1.819.623-1.038 3.521.798 2.892"/><path d="m29.899 37.946c3.703-.779 7.167-.229 10.344 1.849 1.624 1.062 3.125-1.536 1.514-2.59-3.852-2.519-8.192-3.091-12.656-2.151-1.893.398-1.089 3.29.798 2.892"/><path d="m43.26 46.705c-10.02-5.629-21.787-3.448-31.01 2.75-1.597 1.073-.097 3.673 1.514 2.59 8.327-5.593 18.87-7.872 27.986-2.75 1.689.949 3.2-1.643 1.514-2.59"/><path d="m43.26 53.705c-10.02-5.629-21.787-3.448-31.01 2.75-1.597 1.073-.097 3.673 1.514 2.59 8.327-5.593 18.87-7.872 27.986-2.75 1.689.949 3.2-1.643 1.514-2.59"/><path d="m43.26 60.705c-10.02-5.629-21.787-3.448-31.01 2.75-1.597 1.073-.097 3.673 1.514 2.59 8.327-5.593 18.87-7.872 27.986-2.75 1.689.949 3.2-1.643 1.514-2.59"/><path d="m56.4 50.48c8.659-5.863 19.354-4.47 28.12.411 1.695.944 2.973-1.771 1.293-2.707-9.711-5.409-21.619-6.603-31.14-.159-1.603 1.084.12 3.541 1.724 2.455"/><path d="m56.978 57.45c8.659-5.863 19.354-4.47 28.12.411 1.695.944 2.973-1.771 1.292-2.707-9.711-5.409-21.619-6.603-31.14-.159-1.601 1.084.121 3.541 1.725 2.455"/><path d="m56.4 36.477c8.659-5.863 19.354-4.47 28.12.411 1.695.944 2.973-1.771 1.293-2.707-9.711-5.409-21.619-6.603-31.14-.159-1.603 1.084.12 3.541 1.724 2.455"/><path d="m55.25 40.997c-1.602 1.085.12 3.541 1.724 2.455 8.659-5.863 19.354-4.47 28.12.411 1.695.944 2.973-1.771 1.292-2.707-9.71-5.408-21.618-6.602-31.13-.159"/><path d="m86.972 62.13c-9.711-5.409-21.62-6.603-31.14-.159-1.602 1.085.121 3.541 1.724 2.455 8.659-5.863 19.355-4.47 28.12.411 1.695.945 2.973-1.771 1.293-2.707"/></g><g color-rendering="auto" color-interpolation-filters="linearRGB" shape-rendering="auto" image-rendering="auto" stroke="#000" color-interpolation="sRGB" color="#000" stroke-width=".126"><path d="m15.829 37.19c.044-1.198.113-2.672.153-3.274l.073-1.096.84-.438c1.01-.525 2.587-1.036 3.589-1.161l.728-.091-.034 3.05-.034 3.05-1.326.444c-.729.244-1.916.725-2.637 1.069-.721.344-1.338.625-1.372.625-.034 0-.025-.98.019-2.178z" mix-blend-mode="normal" solid-color="#000000" isolation="auto" solid-opacity="1" fill="#f00"/><path d="m49.19 76.99c-1.459-.962-4.399-2.457-6.304-3.206-2.738-1.076-6.193-1.949-9.551-2.412-2-.276-7.584-.384-9.879-.192-4.508.378-9.22 1.331-13.752 2.782-.878.281-1.64.51-1.694.51-.054 0-.051-4.901.006-10.892.058-5.99.112-16.489.121-23.33l.016-12.439 1.629-1.095c8.02-5.39 17.13-8.217 24.373-7.564 5.74.518 10.05 2.475 14.554 6.618l.916.842h.817.817l1.234-1.105c2.185-1.956 3.63-2.966 5.81-4.062 8.872-4.458 20.804-2.578 32.654 5.147l1.871 1.22-.087 5.367c-.075 4.666.088 29.537.251 38.35l.057 3.052-1.287-.435c-4.226-1.429-9.541-2.54-14.1-2.948-1.877-.168-6.474-.167-8.334.002-4.133.374-8.02 1.294-11.807 2.796-1.612.638-4.52 2.137-5.926 3.054-.6.391-1.132.706-1.181.701-.05-.006-.599-.346-1.221-.756zm-34.31-11.569c1.674-1.051 4.354-2.391 6.02-3.01 7.168-2.664 13.72-2.529 19.756.406 1.548.753 2.054.847 2.605.486.425-.279.811-.932.811-1.375.0001-.696-.364-1.064-1.766-1.778-3.895-1.983-7.776-2.822-12.44-2.69-3.529.1-6.412.668-9.891 1.95-2.836 1.045-7.696 3.656-8.181 4.396-.522.797-.238 1.934.593 2.369.608.319.948.216 2.493-.754zm72.05-.484c.534-.253.834-.791.834-1.492 0-.83-.399-1.229-2.07-2.068-8.09-4.061-16.626-4.924-23.928-2.417-2.609.896-5.885 2.66-6.401 3.448-.154.236-.195.487-.148.907.086.762.599 1.298 1.337 1.397.469.063.638.002 1.567-.564 3.39-2.066 6.684-3.139 10.534-3.432 1.546-.118 4.138-.029 5.451.187 3.844.632 6.659 1.548 10.289 3.347.974.483 1.852.878 1.952.878.1 0 .363-.086.584-.191zm-72.16-6.452c1.595-1 4.901-2.639 6.599-3.263 1.436-.528 3.544-1.085 5.334-1.41.976-.177 1.894-.229 4.04-.226 2.519.003 2.926.035 4.364.339 1.978.419 3.81 1.047 5.632 1.933.775.376 1.57.684 1.768.684.781-.0001 1.56-.835 1.558-1.669-.0001-.705-.446-1.098-2.183-1.93-2.03-.973-3.875-1.6-5.932-2.02-7.07-1.432-14.961.155-22.11 4.448-1.72 1.033-2.195 1.444-2.298 1.991-.18.959.554 1.956 1.439 1.956.354 0 .778-.198 1.79-.835zm71.988-.816c.385-.412.573-1.059.45-1.548-.157-.624-.622-.976-2.518-1.904-3.29-1.611-6.367-2.621-9.874-3.243-2.135-.378-6.349-.473-8.492-.19-3.807.502-7.851 1.97-10.634 3.86-.897.609-1.025.767-1.098 1.356-.118.955.791 1.892 1.703 1.754.232-.035.838-.323 1.347-.641 7.415-4.622 16.771-4.581 26.04.115 1.944.984 2.49 1.063 3.071.441zm-72.11-6.124c1.641-1.028 4.947-2.666 6.627-3.282 3.129-1.148 6.254-1.719 9.408-1.721 3.94-.002 7.136.789 10.783 2.671.409.211.855.384.991.384.861 0 1.726-1.055 1.565-1.911-.12-.641-.59-1.02-2.228-1.796-3.834-1.816-7.719-2.599-12.12-2.443-5.629.2-11.582 2.148-16.685 5.459-1.102.715-1.248.854-1.389 1.325-.13.434-.126.617.024 1.046.204.587.842 1.097 1.371 1.097.189 0 .898-.355 1.655-.829zm71.32-.63c.653-.458.856-1.561.419-2.278-.183-.3-.663-.602-2.052-1.289-5.177-2.562-9.884-3.724-15.07-3.721-3.31.002-6.178.475-9.03 1.489-2.237.796-5.733 2.731-6.07 3.36-.599 1.12.553 2.613 1.747 2.264.19-.055.828-.396 1.418-.756 7.402-4.52 16.682-4.374 26.08.408 1.473.75 2.065.871 2.561.523zm.638-7.082c.341-.22.653-.89.652-1.398-.0001-.91-.92-1.566-4.167-2.979-4.137-1.799-8.05-2.702-12.261-2.829-5.324-.161-9.589.846-13.92 3.287-1.732.976-2.221 1.398-2.315 1.995-.143.916.648 1.878 1.545 1.879.248 0 .776-.236 1.452-.65 5.309-3.25 11.1-4.196 17.671-2.885 2.949.589 5.471 1.493 8.963 3.212 1.515.746 1.742.781 2.379.369zm-70.3-1.063c2.135-1.249 3.925-1.977 6.856-2.793.403-.112.712-.296.884-.526.255-.341.266-.519.308-4.905.024-2.503.006-4.804-.041-5.113-.053-.354-.218-.711-.445-.964l-.36-.402-1.872.015c-1.57.012-2.067.066-3.081.334-2.457.65-4.872 1.954-5.322 2.873-.306.624-.477 3.174-.477 7.103v3.253l.761.768c.767.774 1.237 1.026 1.702.91.139-.035.629-.283 1.088-.552zm25.298-2.823c.44-.184.649-.462.835-1.113.267-.933-.19-1.518-1.873-2.401-2.487-1.303-4.511-1.789-7.48-1.795-2.897-.006-4.593.321-4.929.949-.352.658-.052 1.804.581 2.219.271.177.475.192 1.355.096.57-.062 1.974-.107 3.12-.101 2.627.015 3.451.217 5.809 1.425.938.48 1.806.879 1.93.886.124.007.418-.068.653-.166zm44.37-3.049c.598-.419.836-1.422.508-2.142-.449-.986-6.46-3.516-10.457-4.402-3.25-.72-7.328-.923-10.415-.518-3.78.496-8.253 2.175-10.888 4.087-1.12.813-.884 2.368.426 2.8.538.178.895.06 2.102-.691 7.248-4.514 16.522-4.442 25.847.201 1.792.892 2.364 1.024 2.877.665zm-43.473-4.516c.9-.9.677-1.951-.571-2.7-3.497-2.098-8.235-2.6-12.2-1.293-1.085.358-1.375.703-1.375 1.637 0 .649.046.788.379 1.136.345.361.435.392 1.01.344.347-.029 1.086-.184 1.642-.345.86-.249 1.301-.293 2.968-.296 2.362-.004 3.245.199 5.36 1.234 1.722.843 2.182.889 2.787.284z" mix-blend-mode="normal" solid-color="#000000" isolation="auto" solid-opacity="1" fill="#f95"/></g></svg>