<svg xmlns="http://www.w3.org/2000/svg" viewBox="0 0 100 100" enable-background="new 0 0 100 100"><path fill="#1d1d1b" d="m40.15 5.09c-14.442 6.247-21.872 21.233-18.288 36.496.238 1.015.872 1.591 1.619 1.824 1.52.987 4.256.255 4.451-2.184.661-8.257 3.784-15.984 11.438-19.934 5.708-2.945 12.774-2.436 18.658-.386 4.618 1.609 10.08 5.375 10.546 10.69.238 2.741-1.142 5.285-2.831 7.335-4.196 5.091-9.868 6.59-15.784 5.824 1.866-2.9 3.477-6.428 1.807-9.68-1.874-3.648-7.146-3.218-10.651-2.736-.742-.134-1.542.063-2.228.794-10.872 11.582-16.802 26.782-19.704 42.25-.983.315-1.779 1.139-1.772 2.483.027 5.826.394 11.631 1.088 17.416.216 1.797 1.804 2.657 3.214 2.581.006 0 .013-.0001.019-.0001.163-.001.321-.032.477-.067.02-.004.039-.001.059-.015.132-.033.258-.073.381-.124.065-.026.128-.057.192-.089.054-.028.107-.056.158-.088.519-.3.959-.774 1.208-1.473 4.583-12.844 10.301-25.21 15.859-37.653 13.662 3.715 30.13 4.881 39.808-7.183 8.495-10.585 6.313-26.18-1.919-36.22-8.999-10.98-24.513-15.61-37.805-9.86m35.05 43.27c-8.477 10.562-24.973 7.407-36.2 4.03-1.983-.596-3.284.979-3.344 2.581-4.176 9.358-8.445 18.678-12.306 28.17.059-.169.106-.35.134-.551 2.274-16.16 7.502-32.663 18.661-44.933 1.32-.177 2.653-.239 3.981-.121.141.013.853.279.874.268.025.015.052.03.071.045-.005.056-.015.155-.022.359.002-.055-.264.933-.377 1.247-.516 1.441-1.529 2.79-2.4 4.03-.018.025-.026.05-.042.075-2.647.083-3.507 4.421-.508 5.374 11.723 3.724 27.343-.659 30.07-14.224 1.583-7.887-4.462-14.345-10.992-17.643-7.511-3.794-16.979-4.437-24.759-1.103-3.939 1.688-7.01 4.231-9.351 7.316 2.516-5.458 6.979-10.02 12.938-12.933 11.428-5.599 25.447-.856 32.825 8.92 6.398 8.477 7.607 20.55.75 29.09"/><path d="m23.662 81.9c-.003-.147.138-1.132.311-2.188 2.831-17.238 8.475-30.662 17.16-40.813 1.175-1.374 1.021-1.313 3.366-1.323 1.76-.008 2.501.124 2.501.443 0 .296-.516 1.788-.843 2.435-.167.331-.683 1.165-1.148 1.854-.692 1.027-.89 1.253-1.098 1.253-.14 0-.431.09-.648.201-1.76.898-1.994 3.69-.401 4.786.922.634 3.845 1.319 6.786 1.588 1.653.152 4.894.067 6.418-.167 4.832-.744 8.761-2.451 11.987-5.209 3.466-2.963 5.811-7.702 6.01-12.14.325-7.327-6.361-14.601-16.12-17.543-3.061-.923-5.397-1.253-8.905-1.259-2.92-.005-3.723.07-6.139.576-5.133 1.076-9.967 3.799-12.982 7.312-.372.434-.695.772-.716.751-.139-.139 1.838-3.22 2.962-4.616 2.594-3.219 6.685-6.283 10.593-7.933 3.326-1.405 6.429-1.966 10.228-1.85 5.02.153 9.98 1.776 14.393 4.713 1.885 1.255 2.95 2.117 4.436 3.594 3.989 3.966 6.61 8.952 7.611 14.48.307 1.696.386 5.197.155 6.949-.785 5.974-3.972 11.281-8.578 14.284-2.49 1.624-5.617 2.708-9.304 3.227-1.594.224-6.598.256-8.388.053-4.211-.477-7.682-1.171-12.395-2.48-1.32-.366-2.587-.666-2.817-.665-.575.0001-1.409.414-1.803.891-.328.398-.647 1.154-.647 1.535 0 .111-1.249 2.999-2.776 6.416-4.144 9.276-4.69 10.517-6.7 15.227-1.015 2.378-1.992 4.676-2.172 5.106-.224.536-.328.698-.331.514z" mix-blend-mode="normal" solid-color="#000000" color-interpolation-filters="linearRGB" color="#000" image-rendering="auto" color-rendering="auto" stroke-width=".104" isolation="auto" color-interpolation="sRGB" solid-opacity="1" fill="#cb2027" stroke="#000" shape-rendering="auto"/></svg>