<svg xmlns="http://www.w3.org/2000/svg" viewBox="0 0 100 100" enable-background="new 0 0 512 512"><g transform="matrix(.19955 0 0 .20945-1.085-3.62)"><path d="m418.86 346c-3.042-23.254-16.14-42.795-35.927-55.27-20.969-13.22-46.5-22.491-71.56-21.823-24.2.645-45.32 11.953-60.875 30.342-14.887 17.598-25.359 41.599-16.607 64.4.622 1.619.47 3.057-.146 4.211.848 4.516 2.053 8.954 3.649 13.293 4.249 11.547 10.447 22.554 17.984 32.617 3.632-9.375 13.516-12.368 22.752-13.03 5.133-.367 10.288-.289 15.421-.651 4.083-.288 9.05-.51 12.506-2.995 9.792-7.03 4.617-20.733 1.062-29.602-4.398-10.975-9.574-22.473-7.323-34.574 3.417-18.367 20.738-31.05 39.19-30.31 19.709.798 35.841 19.215 33.24 39.15-1.17 8.985-6.082 16.482-10.649 24.07-4.207 6.992-10.232 17.196-6.531 25.625 1.517 3.453 6.263 3.375 9.456 3.969 5.167.959 9.917 2.535 14.179 5.707 8.318 6.188 12.814 15.297 15.77 24.924 18.251-22.293 28.04-52.26 24.399-80.07" fill="#74cccf"/><path d="m193.31 244.43c1.547-4.771-2.382-7.895-6.189-10.281-5.586-3.502-11.616-6.159-17.538-9.03-7.03-3.401-14.834-7.572-18.921-14.594-5.672-9.746-3.586-20.264.405-30.24 3.939-9.848 8.868-19.03 10.215-29.703 1.192-9.438.499-19.623-3.286-28.445-3.836-8.943-10.886-15.1-20.719-16.356-8.108-1.04-15.302 2.747-19.479 9.755-4.424 7.424-6.799 16.238-7.05 24.877-.347 12.06 3.75 23.401 6.06 35.1.238.588.381 1.264.386 2.041.125.708.121 1.349.019 1.928.11 9.299.405 18.426-4.585 26.74-3.524 5.871-8.631 9.553-14.73 12.4-9.413 4.395-24.14 7.311-22.7 20.43.063.58.042 1.113-.041 1.607 1.396 1 2.819 1.959 4.275 2.87 33.588 21.02 80.33 26.341 115.6 6.171-1.597-1.016-2.519-2.834-1.727-5.277" fill="#127274"/><path d="m237.12 168.51c-2.093-33.367-19.375-65.32-47.24-84.14-38.922-26.287-94.66-23.636-130.6 6.685-.012.011-.024.018-.037.028-15.562 25.295-19.959 57.646-16.952 86.81 1.358 13.168 3.939 27.26 10.754 38.823 3.225 5.47 7.14 10.503 11.596 15.01 2.358-10.02 11.532-15.799 21.638-20.03 4.654-1.948 10.799-3.721 14.268-7.62 6.646-7.472 5.729-16.334 5.669-25.658-1.712-9.661-5.365-19.13-6.221-28.932-.499-5.707-.333-11.557.556-17.221 1.778-11.321 6.05-22.937 14.875-30.65 14.881-13.01 39.29-6.622 49.17 9.528 10.372 16.966 10.44 39.652 3.219 57.821-3.623 9.115-11.06 20.12-9.735 30.349 1.048 8.07 8.884 12.335 15.491 15.532 10.766 5.21 32.869 13.252 31.25 28.321 22.662-17.612 34.12-45.538 32.29-74.65" fill="#74cccf"/><g fill="#127274"><path d="m383.52 427.82c-2.761-8.571-7.177-17.354-15.898-20.368-7.182-2.482-17.06-1.411-21.372-9.166-9.938-17.896 5.17-33.915 12.352-49.24 4.117-8.787 3.515-17.814-2.15-25.912-4.705-6.727-12.486-10.185-20.663-9.511-8.178.673-16.12 4.456-21 11.214-5.854 8.1-5.198 17.828-2.029 26.838 3.461 9.84 9.01 19.629 9.818 30.2.742 9.696-3.02 20.333-11.915 25.27-7.896 4.381-17.497 3.985-26.24 4.298-6.874.246-16.464-.167-19.298 7.481-.654 1.766-1.832 2.705-3.16 3.02 7.476 8.612 15.917 16.355 24.923 22.883 18.696 13.551 42.33 18.959 64.61 11.654 12.507-4.101 23.842-11.198 33.526-20.289-2.983-1.829-3.242-5.922-1.51-8.369"/><path d="m430.3 190.44c1.261-7.156-1.871-12.46-7.06-17.16-5.843-5.298-13.54-10.02-17.288-17.203-5.742-11.01-.674-19.931 5.833-29.27 3.923-5.63 6.323-12.03 4.437-19-1.377-5.089-3.772-10.257-7.814-13.801-5.9-5.175-14.13-7.143-21.426-3.638-8.02 3.855-11.801 13.682-10.09 22.12 1.838 9.06 8.06 16.621 9.39 25.836 1.537 10.633-4.833 19.51-13.272 25.336-7.578 5.232-18.667 9.479-20.356 19.571 13.597 9.507 30.06 15.11 46.58 15.6 10.68.316 21.532-1.181 31.433-5.147-.424-.911-.592-1.997-.373-3.239"/></g><path d="m454.57 81.08c-14.7-18.718-40.22-29.542-63.934-28.953-11.541.287-23.574 3.232-32.31 11.24-7.02 6.437-13.176 13.904-18.519 21.779-9.614 14.17-23.21 38.06-13.549 55.27 1.647 2.936.431 5.881-1.666 7.484.15.4.286.808.444 1.205 4.059 10.207 10.447 19.19 18.361 26.619 2.887-6.871 8.79-11.824 15.248-15.907 6.01-3.797 17.259-9.177 16.936-17.712-.34-8.967-6.799-16.528-8.863-25.11-2.396-9.964-.924-20.608 5.759-28.718 12.152-14.746 34.519-13.45 46.43.893 7.804 9.398 11.858 24.13 6.717 35.772-3.433 7.774-15.887 17.578-9.619 26.505 4.594 6.545 11.983 10.457 17.301 16.342 5.398 5.976 8.403 12.556 8.234 20.21.231-.153.468-.296.698-.452 13.798-9.436 22.816-24.13 26.21-40.42 4.74-22.746.687-47.5-13.878-66.05" fill="#74cccf"/><path d="m456.37 66.59c-16.83-17.14-42.931-25.545-66.57-25.437-12.156.056-24.21 3.624-34.26 10.47-7.633 5.2-13.92 12.815-19.504 20.06-12.06 15.664-25.741 38.648-23.6 59.75-1.601.863-2.648 2.539-2.21 4.973.374 2.076.823 4.116 1.338 6.123-9.991-.818-20.357 2.408-29.835 5.124-11.457 3.28-22.761 7.231-33.833 11.636-.203.08-.396.169-.579.264-1.687-12.924-5.473-25.593-11.04-37.2-13.158-27.426-36.04-48.633-64.48-59.47-38.812-14.793-86.71-7.893-118.65 19.05-.6.506-1.049 1.071-1.379 1.667-.748.439-1.428 1.074-1.973 1.945-12.711 20.318-17.743 44.615-19.02 68.27-1.216 22.441 1.493 46.755 11.99 66.914 19.678 37.792 69.06 54.2 109.19 52.37 14.605-.668 28.973-4.295 41.962-10.555-1.372 2.024-1.434 4.717 1.167 6.574 8.723 6.232 17.443 12.471 25.853 19.12 3.291 2.604 6.585 5.181 9.662 8.04 1.567 1.454 3.213 2.977 5.067 4.088-12.62 17.988-19.756 40.42-13.859 61.716 2.943 27.11 17.566 51.11 35.652 70.917 16.659 18.242 37.605 33.68 62.61 37.12 48.01 6.602 88.74-32.375 103.64-74.858 7.555-21.539 9.311-45.03 2.45-66.986-7.13-22.819-24.16-39.434-44.46-51.07-.522-.299-1.057-.582-1.584-.875 6.688-21.865 18.55-42.713 20.485-65.787.02-.241.024-.476.018-.705 23.23.42 46.45-7.82 61.996-25.867 28.445-33.03 23.495-87.09-6.242-117.37m-376.94 176.95c-1.456-.911-2.879-1.87-4.275-2.87.083-.494.104-1.027.041-1.607-1.442-13.12 13.287-16.03 22.7-20.43 6.099-2.848 11.206-6.529 14.73-12.4 4.99-8.314 4.696-17.441 4.585-26.74.102-.579.107-1.22-.019-1.928-.005-.777-.147-1.453-.386-2.041-2.311-11.702-6.408-23.05-6.06-35.1.248-8.639 2.623-17.453 7.05-24.877 4.176-7.01 11.37-10.795 19.479-9.755 9.833 1.261 16.883 7.413 20.719 16.356 3.785 8.822 4.479 19.01 3.286 28.445-1.348 10.668-6.276 19.855-10.215 29.703-3.991 9.979-6.077 20.496-.405 30.24 4.086 7.02 11.89 11.192 18.921 14.594 5.922 2.866 11.952 5.523 17.538 9.03 3.807 2.387 7.736 5.51 6.189 10.281-.792 2.443.13 4.262 1.726 5.275-35.27 20.17-82.01 14.85-115.6-6.169m94.14-28.7c-6.607-3.197-14.443-7.458-15.491-15.532-1.327-10.228 6.113-21.233 9.735-30.349 7.221-18.17 7.153-40.855-3.219-57.821-9.873-16.15-34.28-22.541-49.17-9.528-8.822 7.714-13.1 19.329-14.875 30.65-.889 5.664-1.055 11.514-.556 17.221.855 9.797 4.508 19.271 6.221 28.932.059 9.324.977 18.19-5.669 25.658-3.468 3.899-9.614 5.672-14.268 7.62-10.11 4.231-19.28 10.01-21.638 20.03-4.456-4.508-8.371-9.541-11.596-15.01-6.814-11.56-9.396-25.655-10.754-38.823-3.01-29.16 1.39-61.51 16.952-86.81.012-.011.024-.018.037-.028 35.94-30.32 91.67-32.972 130.6-6.685 27.863 18.818 45.15 50.775 47.24 84.14 1.826 29.11-9.631 57.04-32.29 74.65 1.616-15.07-20.487-23.11-31.25-28.321m177.93 241.64c-22.281 7.305-45.918 1.896-64.61-11.654-9.01-6.527-17.447-14.271-24.923-22.883 1.328-.314 2.505-1.254 3.16-3.02 2.834-7.648 12.424-7.235 19.298-7.481 8.74-.312 18.341.083 26.24-4.298 8.892-4.934 12.657-15.57 11.915-25.27-.81-10.575-6.356-20.364-9.818-30.2-3.169-9.01-3.825-18.738 2.029-26.838 4.883-6.758 12.824-10.541 21-11.214 8.177-.674 15.958 2.784 20.663 9.511 5.665 8.098 6.268 17.12 2.15 25.912-7.182 15.329-22.29 31.348-12.352 49.24 4.306 7.755 14.19 6.684 21.372 9.166 8.721 3.01 13.14 11.797 15.898 20.368-1.733 2.446-1.474 6.54 1.51 8.368-9.684 9.09-21.02 16.189-33.526 20.29m31.426-165.74c19.782 12.472 32.885 32.01 35.927 55.27 3.639 27.81-6.148 57.777-24.398 80.07-2.956-9.627-7.452-18.736-15.77-24.924-4.263-3.172-9.01-4.748-14.179-5.707-3.193-.594-7.939-.516-9.456-3.969-3.701-8.429 2.324-18.633 6.531-25.625 4.567-7.59 9.479-15.09 10.649-24.07 2.598-19.938-13.534-38.35-33.24-39.15-18.454-.746-35.776 11.938-39.19 30.31-2.25 12.1 2.925 23.6 7.323 34.574 3.555 8.868 8.729 22.569-1.062 29.602-3.459 2.485-8.424 2.707-12.506 2.995-5.133.362-10.288.284-15.421.651-9.236.659-19.12 3.652-22.752 13.03-7.537-10.06-13.735-21.07-17.984-32.617-1.596-4.339-2.801-8.777-3.649-13.293.617-1.154.768-2.592.146-4.211-8.752-22.804 1.72-46.805 16.607-64.4 15.557-18.389 36.672-29.697 60.875-30.342 25.06-.668 50.584 8.604 71.55 21.823m-11.626-22.614c-.961.602-1.752 1.484-2.199 2.627-18.777-8.527-39.583-13.312-60.07-12.767-24 .64-45.22 11.921-61.916 28.688-1.488 1.494-2.938 3.055-4.353 4.66-.317-.105-.652-.193-1.019-.25-2.041-.314-4.572-3.701-6.07-5.062-3.25-2.957-6.896-5.59-10.359-8.296-7.491-5.853-15.258-11.35-22.991-16.874-1-.715-2.047-1.047-3.065-1.097 16.907-9.397 31.03-23.47 39.577-41.472 7.159-15.08 10.05-31.753 9.357-48.35.972.274 2.092.236 3.316-.251 9.815-3.904 19.809-7.375 29.907-10.471 8.69-2.663 19.487-6.756 28.722-5.82 1.832.186 3.329-.422 4.419-1.426 10.188 26.358 32.953 45.558 60.6 53.896 4.753 1.434 9.637 2.488 14.574 3.153-1.883 20.655-11.679 39.621-18.433 59.11m27.925-69.3c-16.519-.489-32.983-6.093-46.58-15.6 1.689-10.09 12.778-14.339 20.356-19.571 8.439-5.826 14.81-14.703 13.272-25.336-1.333-9.215-7.552-16.781-9.39-25.836-1.712-8.436 2.067-18.262 10.09-22.12 7.291-3.505 15.526-1.537 21.426 3.638 4.04 3.544 6.438 8.712 7.814 13.801 1.886 6.974-.514 13.372-4.437 19-6.507 9.341-11.575 18.265-5.833 29.27 3.748 7.183 11.444 11.905 17.288 17.203 5.184 4.699 8.316 10 7.06 17.16-.219 1.242-.051 2.328.371 3.238-9.898 3.968-20.751 5.465-31.431 5.148m43-11.276c-.229.156-.467.299-.698.452.169-7.658-2.835-14.238-8.234-20.21-5.317-5.885-12.707-9.797-17.301-16.342-6.268-8.927 6.187-18.73 9.619-26.505 5.142-11.644 1.087-26.374-6.717-35.772-11.909-14.343-34.27-15.639-46.43-.893-6.683 8.109-8.154 18.754-5.759 28.718 2.064 8.584 8.523 16.15 8.863 25.11.323 8.535-10.93 13.915-16.936 17.712-6.458 4.083-12.361 9.04-15.248 15.907-7.914-7.428-14.302-16.412-18.361-26.619-.158-.397-.293-.805-.444-1.205 2.097-1.604 3.313-4.549 1.666-7.484-9.662-17.213 3.935-41.1 13.549-55.27 5.343-7.875 11.496-15.343 18.519-21.779 8.737-8.01 20.771-10.953 32.31-11.24 23.711-.589 49.23 10.235 63.934 28.953 14.565 18.547 18.619 43.3 13.875 66.05-3.394 16.291-12.413 30.982-26.21 40.42" fill="#010101"/><g color-rendering="auto" color-interpolation-filters="linearRGB" shape-rendering="auto" image-rendering="auto" stroke="#000" color-interpolation="sRGB" color="#000" stroke-width=".311" transform="matrix(5.0113 0 0 4.77436 5.436 17.282)"><g fill="#fff"><path d="m39.797 46.08c-.296-1.179-2.048-2.656-4.899-4.128-3.188-1.647-4.305-2.779-4.305-4.364 0-.602.589-2.513 1.308-4.247 1.295-3.122 1.308-3.192 1.32-7.04.011-3.435-.073-4.071-.724-5.511-1.382-3.057-4.525-5.02-7.407-4.623-5.04.691-7.534 7.299-5.677 15.05.775 3.232.775 5.121 0 6.827-.535 1.179-.873 1.456-2.911 2.384-2.364 1.077-4.547 2.899-4.547 3.796 0 .46-.047.461-.544.011-1.093-.991-2.568-3.87-3.22-6.288-.55-2.04-.673-3.387-.694-7.605-.028-5.786.544-8.911 2.347-12.825.873-1.895 1.195-2.259 3.179-3.585 5.968-3.992 14.214-4.567 20.802-1.45 3.627 1.716 7.04 4.976 9.281 8.853.443.769 1.26 2.726 1.814 4.349.926 2.712 1.01 3.277 1.028 6.989.017 3.437-.087 4.359-.703 6.197-.917 2.738-1.235 3.343-2.981 5.665-1.633 2.172-2.219 2.539-2.468 1.545z" mix-blend-mode="normal" solid-color="#000000" isolation="auto" solid-opacity="1"/><path d="m77.17 84.03c-.264-.803-1.069-1.988-1.999-2.941-1.298-1.33-1.841-1.656-3.255-1.952-.933-.196-1.805-.526-1.937-.733-.533-.839-.205-2.565.891-4.69 1.986-3.852 2.201-4.356 2.422-5.694.462-2.79-1.336-6.23-3.98-7.618-3.659-1.92-8.897.296-10.278 4.35-.756 2.218-.597 3.818.786 7.926 2.045 6.075 1.594 7-3.599 7.409-3.468.271-5.125.813-5.931 1.94-.469.656-.472.656-.94.037-.871-1.153-2.905-5.581-3.21-6.989-.912-4.212-1.022-5.114-.883-7.28.323-5.03 4.515-10.871 9.563-13.327 3.3-1.605 6.091-1.972 9.951-1.306 6.823 1.176 13.225 5.238 15.746 9.991 2.803 5.285 2.519 12.587-.73 18.757-.585 1.11-1.314 2.345-1.62 2.742l-.557.723-.441-1.345z" mix-blend-mode="normal" solid-color="#000000" isolation="auto" solid-opacity="1"/><path d="m86.71 33.738c-.411-1.158-1.13-2.134-2.713-3.683-2.614-2.557-2.725-3.206-1.01-5.861.935-1.445 1.17-2.131 1.279-3.724.117-1.711.014-2.197-.833-3.917-1.26-2.56-2.787-3.671-5.291-3.853-2.279-.165-4.03.664-5.227 2.479-.687 1.038-.873 1.721-.965 3.544-.097 1.915.007 2.522.683 4 1.681 3.671 1.461 4.567-1.633 6.668-1.01.685-2.247 1.746-2.751 2.357l-.916 1.111-.976-1.111c-2.07-2.358-2.565-4.095-2.612-9.17-.024-2.584.794-4.729 3.169-8.309 2.141-3.228 4.01-5.103 5.918-5.944 5.53-2.436 13.64.408 17.271 6.06 1.738 2.704 2.394 5.102 2.412 8.817.017 3.595-.527 6.01-1.882 8.348-.806 1.391-2.802 3.766-3.165 3.766-.111 0-.453-.709-.761-1.576z" mix-blend-mode="normal" solid-color="#000000" isolation="auto" solid-opacity="1"/></g><path d="m62.43 92.41c-2.719-.515-5.695-2.19-8.464-4.764-1.409-1.31-2.562-2.544-2.561-2.743.0001-.199.332-.774.735-1.278.706-.883.853-.923 3.962-1.096 4.02-.223 5.392-.823 6.406-2.808.979-1.915.904-3.899-.27-7.138-.526-1.452-1.091-3.222-1.256-3.933-.776-3.351 1.855-6.6 5.362-6.621 2.233-.014 4.313 2.105 4.556 4.643.14 1.458.005 1.885-1.627 5.155-1.931 3.867-2.26 5.586-1.441 7.527.478 1.133 1.426 1.73 3.285 2.067 2.435.442 3.964 2.3 4.276 5.196l.157 1.453-1.745 1.296c-2.333 1.732-3.676 2.389-6.01 2.939-2.182.515-3.112.533-5.368.106z" mix-blend-mode="normal" solid-color="#000000" isolation="auto" solid-opacity="1" fill="#dd4b39"/><path d="m24.847 51.14c-4.837-.728-10.782-3.426-10.964-4.976-.142-1.212 1.036-2.411 3.476-3.536 3.617-1.668 4.848-3.509 4.848-7.253 0-1.174-.293-3.52-.651-5.213-.99-4.682-.327-8.748 1.744-10.694.969-.91 3.146-1.16 4.41-.506 3.707 1.917 4.463 7.117 1.981 13.638-2.423 6.369-1.657 8.563 3.98 11.398 3.136 1.577 3.66 2.073 3.847 3.64.155 1.296.154 1.296-1.338 1.938-3.393 1.459-7.897 2.081-11.332 1.564z" mix-blend-mode="normal" solid-color="#000000" isolation="auto" solid-opacity="1" fill="#3b5598"/><path d="m75.77 37.669c-2.164-.493-6.03-2.287-6.269-2.909-.301-.783.688-2.02 2.697-3.364 3.832-2.57 4.505-4.705 2.815-8.924-.513-1.28-.931-2.863-.931-3.518.0001-1.587.996-3.139 2.383-3.718 1.022-.427 1.257-.422 2.495.051 3.03 1.158 3.954 4.727 2.028 7.847-.558.903-1.175 2.244-1.371 2.98-.317 1.184-.279 1.5.331 2.76.383.791 1.422 2.05 2.341 2.834 1.822 1.557 2.747 3.148 2.575 4.431-.087.649-.377.929-1.288 1.245-1.831.634-5.665.775-7.806.287z" mix-blend-mode="normal" solid-color="#000000" isolation="auto" solid-opacity="1" fill="#00aced"/></g></g></svg>