<svg xmlns="http://www.w3.org/2000/svg" viewBox="0 0 100 100" enable-background="new 0 0 100 100"><g fill="#1d1d1b"><path d="m95.47 31.725c-1.645-.814-3.299-1.609-4.921-2.466 1.222-1.946 2.301-3.972 3.265-6.07.546-1.187.348-2.573-.86-3.281-.815-.477-2.02-.401-2.767.216-2.746.856-5.409 1.934-8.03 3.102-.676-.955-1.456-1.865-2.366-2.711-12.345-11.483-32.412-.947-37.844 11.567-10.635-.475-19.61-5.889-26.963-12.538-.316-.286-.658-.457-1-.552-1.261-.57-2.947-.293-3.275 1.291-1.484 7.16.541 13.911 5.6 19.14-1.01-.032-2.02-.073-3.03-.137-.438-.028-.807.041-1.122.169-1.646-.335-3.622.763-2.899 2.575 1.976 4.953 5.483 8.789 10.121 11.148-.5.005-1 0-1.509-.02-.311-.012-.582.031-.831.099-1.508.245-2.793 1.662-1.738 3.162 3.274 4.654 7.794 8.099 13.297 10.26-3.237 3.237-7.825 4.403-12.902 4.03-.199-.014-.384-.009-.558.012-.381.005-.77.087-1.145.284-1.07.562-1.619 1.993-.867 2.965.097.125.204.239.304.359-2.076-.206-4.142-.511-6.209-.931-2.243-1.108-5.03 1.64-2.898 3.395 4.179 3.439 8.877 5.998 14.11 7.927.506.186.957.204 1.349.112 29.08 7.101 55.2-13.149 63.63-37.23.781-2.231 1.402-4.635 1.788-7.093 3.558-1.212 7.05-2.594 10.541-3.989 2.475-.991 1.846-4.654-.267-4.801m-18.357 18.886c-8.941 20.493-32.34 36.551-57.4 29.717-.281-.077-.541-.097-.79-.092-1.068-.417-2.112-.872-3.13-1.365 2.048.118 4.106.146 6.176.079 2.814-.091 3.079-3.646.788-4.242-.057-.031-.107-.067-.167-.092 4.873-1.027 9.07-3.624 11.856-7.793.858-1.286.058-2.499-1.112-2.991-.226-.168-.491-.311-.816-.409-4.072-1.231-7.574-3.273-10.376-6.04 2.854-.234 5.662-.771 8.444-1.487 2.804-.721 1.859-4.445-.745-4.268-.257-.105-.54-.182-.864-.206-5.956-.437-10.761-3.283-13.594-7.697 2.435.098 4.872.11 7.312.111 2.767 0 3.071-3.411.923-4.177-5.2-3.633-8.383-8.512-8.606-14.12 7.907 6.28 17.366 10.862 28.22 10.932.64.004 1.141-.181 1.518-.469.575-.22 1.062-.651 1.295-1.339 2.873-8.447 12.544-15.838 22.816-14.344 4.04.588 7.421 2.506 9.537 5.655 4.861 7.233 1.877 17.393-1.285 24.638m7.839-21.11c-.169-.684-.365-1.361-.605-2.023.752-.333 1.509-.653 2.269-.965-.403.654-.821 1.299-1.259 1.934-.249.36-.369.714-.405 1.054m.652 5.798c-.007-1.217-.079-2.429-.252-3.622.167.194.365.377.625.53 1.06.626 2.146 1.2 3.242 1.757-1.2.46-2.405.903-3.615 1.335"/><path d="m63.25 27.5c-3.225 0-3.225 5 0 5s3.225-5 0-5"/></g><path d="m26.78 81.5c-.816-.082-3.294-.575-5.508-1.097-3.995-.941-4.01-.949-1.907-1.06 3.157-.166 3.945-.433 4.704-1.592.627-.958.63-1.144.027-2.063-.658-1-.647-1.016 1.841-1.923 4.448-1.622 9.09-6.02 8.818-8.355-.12-1.033-.574-1.356-3.848-2.747-4.25-1.805-8.35-4.574-7.452-5.03.314-.161 2-.531 3.749-.823 3.923-.656 5.085-1.329 5.085-2.947 0-1.679-.778-2.172-4.429-2.806-1.743-.303-4.209-1.027-5.482-1.609-2.214-1.014-6.191-4.227-6.191-5 0-.203 1.702-.37 3.783-.37 4.189 0 5.116-.447 5.113-2.467-.0001-.872-.534-1.546-2.301-2.91-3.01-2.327-5.472-5.486-6.586-8.463-1.474-3.941-1.122-4.277 2.108-2.01 3.725 2.616 10.519 5.877 14.479 6.951 4.294 1.164 10.174 1.68 11.722 1.029.827-.348 1.588-1.346 2.598-3.409 2.74-5.597 8.989-10.641 14.858-11.993 6.259-1.442 12.565.524 15.961 4.976 6.745 8.844.221 29.32-13.436 42.16-10.65 10.02-24.24 14.905-37.706 13.559m38.21-49.57c1.727-1.563.57-4.525-1.767-4.525-1.577 0-2.542.997-2.542 2.625 0 2.253 2.636 3.414 4.31 1.899" fill="#87aade"/><g fill="#00aced"><path d="m22.86 80.65c-3.26-.705-4.054-1.408-1.589-1.408 2.064 0 3.342-1.325 3.01-3.118-.247-1.317-.193-1.371 2.787-2.759 1.962-.914 3.848-2.225 5.323-3.7 2.057-2.057 2.271-2.442 2.152-3.875-.129-1.561-.212-1.631-4.388-3.71-4.201-2.091-6.51-3.54-6.536-4.101-.007-.158 1.083-.504 2.423-.769 5.192-1.026 6.79-2.029 6.306-3.957-.292-1.165-1.353-1.669-5.462-2.594-3.466-.78-6.249-2.152-8.764-4.322l-1.882-1.623 1.67-.297c.919-.163 2.534-.308 3.589-.321 2.198-.028 3.802-.955 3.802-2.197 0-.509-1.425-2.259-3.524-4.331-3.396-3.35-5.333-6.329-6.04-9.28-.36-1.51.227-1.501 2.492.039 7.559 5.139 16.04 8.118 23.12 8.118 3.773 0 4.127-.239 6.236-4.22 2.281-4.306 7.48-8.771 12.41-10.656 2.945-1.126 8.635-1.241 11.384-.229 9.343 3.439 11.493 13.171 6.04 27.32-5.738 14.88-19.598 27.347-34.999 31.483-4.51 1.211-15.04 1.485-19.559.508m42.539-49.11c.911-1.39.399-3.066-1.212-3.971-1.051-.59-1.233-.571-2.325.241-1.495 1.112-1.739 2.785-.575 3.949 1.251 1.251 3.217 1.147 4.112-.219z"/><path d="m22.55 80.48c-2.27-.564-2.897-1.239-1.151-1.239 1.767 0 3.05-1.291 3.052-3.072.0001-1.271.221-1.49 2.86-2.853 1.572-.811 3.873-2.456 5.112-3.654 2.058-1.99 2.242-2.32 2.119-3.821-.131-1.596-.238-1.697-3.768-3.55-4.854-2.548-6.748-3.711-6.748-4.146 0-.198 1.441-.7 3.203-1.116 3.862-.91 5.529-2.128 5.124-3.741-.296-1.181-1.195-1.604-6.934-3.264-2.894-.837-8.121-3.89-8.474-4.949-.097-.292 1.063-.571 3.145-.758 3.551-.319 5.206-1.063 5.206-2.341 0-.441-1.619-2.559-3.597-4.706-3.631-3.939-5.909-7.668-5.652-9.248.131-.805.287-.764 2.47.634 7.792 4.992 15.904 7.787 22.603 7.787 3.705 0 4.483-.462 6.306-3.743 2.049-3.688 6.769-8.122 10.728-10.08 3.228-1.595 3.458-1.644 7.797-1.644 3.674 0 4.821.162 6.43.906 2.957 1.367 5.185 3.621 6.533 6.611 2.482 5.502 1.2 14.512-3.392 23.84-6.36 12.918-18.706 23.468-32.01 27.35-2.662.777-4.484.951-11.229 1.071-4.444.079-8.807-.044-9.738-.276m42.988-49.23c.583-1.046.583-1.284 0-2.325-.357-.638-1.164-1.341-1.795-1.563-.951-.334-1.327-.233-2.211.598-1.293 1.214-1.366 2.672-.193 3.844 1.25 1.25 3.349.973 4.199-.555"/></g></svg>