<?xml version="1.0" encoding="UTF-8" standalone="no"?>
<!-- Generator: Adobe Illustrator 17.0.2, SVG Export Plug-In . SVG Version: 6.00 Build 0)  -->

<svg
   xmlns:dc="http://purl.org/dc/elements/1.1/"
   xmlns:cc="http://creativecommons.org/ns#"
   xmlns:rdf="http://www.w3.org/1999/02/22-rdf-syntax-ns#"
   xmlns:svg="http://www.w3.org/2000/svg"
   xmlns="http://www.w3.org/2000/svg"
   xmlns:sodipodi="http://sodipodi.sourceforge.net/DTD/sodipodi-0.dtd"
   xmlns:inkscape="http://www.inkscape.org/namespaces/inkscape"
   version="1.1"
   id="Capa_1"
   x="0px"
   y="0px"
   width="100px"
   height="100px"
   viewBox="0 0 100 100"
   style="enable-background:new 0 0 100 100;"
   xml:space="preserve"
   inkscape:version="0.91 r13725"
   sodipodi:docname="book126.svg"><metadata
     id="metadata35"><rdf:RDF><cc:Work
         rdf:about=""><dc:format>image/svg+xml</dc:format><dc:type
           rdf:resource="http://purl.org/dc/dcmitype/StillImage" /><dc:title></dc:title></cc:Work></rdf:RDF></metadata><defs
     id="defs33" /><sodipodi:namedview
     pagecolor="#ffffff"
     bordercolor="#666666"
     borderopacity="1"
     objecttolerance="10"
     gridtolerance="10"
     guidetolerance="10"
     inkscape:pageopacity="0"
     inkscape:pageshadow="2"
     inkscape:window-width="1810"
     inkscape:window-height="1008"
     id="namedview31"
     showgrid="false"
     inkscape:zoom="7.9189062"
     inkscape:cx="50"
     inkscape:cy="50"
     inkscape:window-x="199"
     inkscape:window-y="232"
     inkscape:window-maximized="0"
     inkscape:current-layer="Capa_1" /><g
     id="g3"><path
       style="fill:#1E1E1C;"
       d="M96.287,27.163c0.009-0.416-0.109-0.752-0.305-1.009c-0.117-0.234-0.289-0.453-0.537-0.637   c-13.139-9.746-31.902-14.9-44.996-2.83c-13.094-12.07-31.857-6.916-44.996,2.83c-0.248,0.184-0.419,0.403-0.537,0.637   c-0.196,0.257-0.314,0.592-0.305,1.009C4.946,43.428,4.447,59.69,4.422,75.956c0,0.284,0.059,0.529,0.16,0.739   c-0.276,1.172,0.578,2.567,1.992,2.016c13.871-5.407,29.559-6.603,42.207,2.112c0.289,0.685,0.934,1.18,1.669,1.01   c0.735,0.169,1.38-0.326,1.668-1.01c12.648-8.715,28.336-7.519,42.207-2.112c1.414,0.551,2.268-0.844,1.992-2.016   c0.1-0.21,0.16-0.455,0.16-0.739C96.451,59.69,95.952,43.428,96.287,27.163z M50.449,77.87   c-12.657-8.722-28.527-8.191-42.621-3.215C7.875,59.041,8.321,43.429,8.02,27.815c12.022-8.65,29.28-13.762,41.096-1.71   c0.413,0.421,0.888,0.548,1.333,0.489c0.445,0.06,0.92-0.068,1.333-0.489c11.815-12.052,29.074-6.941,41.096,1.71   c-0.301,15.614,0.146,31.226,0.192,46.841C78.976,69.679,63.105,69.148,50.449,77.87z"
       id="path5" /><path
       style="fill:#1E1E1C;"
       d="M95.093,81.273c-14.374-5.786-34.484-7.967-45.044,4.554c-10.56-12.52-30.671-10.34-45.044-4.554   c-2.538,1.021-0.347,4.466,2.168,3.454c13.007-5.236,32.416-7.568,40.969,5.532c0.476,0.729,1.202,0.989,1.907,0.94   c0.706,0.049,1.431-0.211,1.907-0.94c8.553-13.101,27.962-10.768,40.969-5.532C95.439,85.74,97.63,82.294,95.093,81.273z"
       id="path7" /><path
       style="fill:#1E1E1C;"
       d="M13.698,42.36c0.329,0.752,1.173,1.262,2.059,0.685c2.282-1.485,4.715-2.567,7.392-3.099   c0.876-0.174,1.17-0.884,1.053-1.561C24.23,38.266,24.25,38.139,24.25,38v-8.5c0-0.998-0.798-1.477-1.571-1.445   c-0.132-0.034-0.271-0.057-0.429-0.055c-3.075,0.053-6.017,0.861-8.507,2.705c-0.488,0.361-0.669,0.87-0.641,1.36   C13.053,32.198,13.014,32.34,13,32.5c-0.239,2.829-0.25,5.663-0.25,8.5C12.75,41.725,13.171,42.178,13.698,42.36z M15.98,32.803   c1.618-1.025,3.368-1.58,5.27-1.747v6.249c-1.925,0.495-3.763,1.269-5.496,2.241C15.763,37.296,15.803,35.048,15.98,32.803z"
       id="path9" /><path
       style="fill:#1E1E1C;"
       d="M30.149,31.446c3.689-1.264,7.25-0.92,10.594,1.099c1.661,1.003,3.167-1.592,1.514-2.59   c-3.984-2.405-8.498-2.911-12.906-1.401C27.532,29.177,28.313,32.075,30.149,31.446z"
       id="path11" /><path
       style="fill:#1E1E1C;"
       d="M29.899,37.946c3.703-0.779,7.167-0.229,10.344,1.849c1.624,1.062,3.125-1.536,1.514-2.59   c-3.852-2.519-8.192-3.091-12.656-2.151C27.208,35.452,28.012,38.344,29.899,37.946z"
       id="path13" /><path
       style="fill:#1E1E1C;"
       d="M43.257,46.705c-10.019-5.629-21.787-3.448-31.014,2.75c-1.597,1.073-0.097,3.673,1.514,2.59   c8.327-5.593,18.87-7.872,27.986-2.75C43.432,50.244,44.943,47.652,43.257,46.705z"
       id="path15" /><path
       style="fill:#1E1E1C;"
       d="M43.257,53.705c-10.019-5.629-21.787-3.448-31.014,2.75c-1.597,1.073-0.097,3.673,1.514,2.59   c8.327-5.593,18.87-7.872,27.986-2.75C43.432,57.244,44.943,54.652,43.257,53.705z"
       id="path17" /><path
       style="fill:#1E1E1C;"
       d="M43.257,60.705c-10.019-5.629-21.787-3.448-31.014,2.75c-1.597,1.073-0.097,3.673,1.514,2.59   c8.327-5.593,18.87-7.872,27.986-2.75C43.432,64.244,44.943,61.652,43.257,60.705z"
       id="path19" /><path
       style="fill:#1E1E1C;"
       d="M56.396,50.477c8.659-5.863,19.354-4.47,28.118,0.411c1.695,0.944,2.973-1.771,1.293-2.707   c-9.711-5.409-21.619-6.603-31.135-0.159C53.069,49.106,54.792,51.563,56.396,50.477z"
       id="path21" /><path
       style="fill:#1E1E1C;"
       d="M56.978,57.453c8.659-5.863,19.354-4.47,28.118,0.411c1.695,0.944,2.973-1.771,1.292-2.707   c-9.711-5.409-21.619-6.603-31.135-0.159C53.652,56.082,55.374,58.539,56.978,57.453z"
       id="path23" /><path
       style="fill:#1E1E1C;"
       d="M56.396,36.477c8.659-5.863,19.354-4.47,28.118,0.411c1.695,0.944,2.973-1.771,1.293-2.707   c-9.711-5.409-21.619-6.603-31.135-0.159C53.069,35.106,54.792,37.563,56.396,36.477z"
       id="path25" /><path
       style="fill:#1E1E1C;"
       d="M55.254,40.997c-1.602,1.085,0.12,3.541,1.724,2.455c8.659-5.863,19.354-4.47,28.118,0.411   c1.695,0.944,2.973-1.771,1.292-2.707C76.678,35.748,64.77,34.554,55.254,40.997z"
       id="path27" /><path
       style="fill:#1E1E1C;"
       d="M86.972,62.132c-9.711-5.409-21.62-6.603-31.135-0.159c-1.602,1.085,0.121,3.541,1.724,2.455   c8.659-5.863,19.355-4.47,28.118,0.411C87.374,65.784,88.652,63.068,86.972,62.132z"
       id="path29" /></g><path
     style="color:#000000;clip-rule:nonzero;display:inline;overflow:visible;visibility:visible;opacity:1;isolation:auto;mix-blend-mode:normal;color-interpolation:sRGB;color-interpolation-filters:linearRGB;solid-color:#000000;solid-opacity:1;fill:#ff0000;fill-opacity:1;fill-rule:nonzero;stroke:#000000;stroke-width:0.12628007;stroke-linecap:butt;stroke-linejoin:miter;stroke-miterlimit:4;stroke-dasharray:none;stroke-dashoffset:0;stroke-opacity:1;color-rendering:auto;image-rendering:auto;shape-rendering:auto;text-rendering:auto;enable-background:accumulate"
     d="m 15.829263,37.188887 c 0.04405,-1.198082 0.113096,-2.671522 0.15344,-3.274311 l 0.07335,-1.09598 0.839694,-0.438151 c 1.005736,-0.524792 2.586544,-1.03604 3.588564,-1.160574 l 0.72839,-0.09053 -0.03385,3.050209 -0.03385,3.050209 -1.325941,0.443781 c -0.729267,0.24408 -1.915711,0.725007 -2.636542,1.068728 -0.72083,0.343721 -1.338219,0.624947 -1.371974,0.624947 -0.03376,0 -0.02533,-0.980249 0.01871,-2.178331 z"
     id="path4163"
     inkscape:connector-curvature="0" /><path
     style="color:#000000;clip-rule:nonzero;display:inline;overflow:visible;visibility:visible;opacity:1;isolation:auto;mix-blend-mode:normal;color-interpolation:sRGB;color-interpolation-filters:linearRGB;solid-color:#000000;solid-opacity:1;fill:#ff9955;fill-opacity:1;fill-rule:nonzero;stroke:#000000;stroke-width:0.12628007;stroke-linecap:butt;stroke-linejoin:miter;stroke-miterlimit:4;stroke-dasharray:none;stroke-dashoffset:0;stroke-opacity:1;color-rendering:auto;image-rendering:auto;shape-rendering:auto;text-rendering:auto;enable-background:accumulate"
     d="m 49.185509,76.990111 c -1.4595,-0.962072 -4.399146,-2.457089 -6.303598,-3.205824 -2.73778,-1.076357 -6.192617,-1.948722 -9.55088,-2.411646 -2.001674,-0.275925 -7.584096,-0.384182 -9.879196,-0.191583 -4.507968,0.378297 -9.219685,1.33129 -13.7521694,2.781519 -0.8775218,0.280775 -1.6398181,0.5105 -1.6939917,0.5105 -0.054174,0 -0.051323,-4.901245 0.00633,-10.891656 0.057658,-5.990411 0.1122148,-16.48902 0.1212378,-23.330242 l 0.01641,-12.438587 1.6294966,-1.095412 c 8.0179203,-5.389967 17.1275083,-8.217022 24.3727033,-7.563787 5.739811,0.517509 10.045105,2.47515 14.554301,6.617924 l 0.916055,0.841615 0.817027,0 0.817028,0 1.2345,-1.105073 c 2.185042,-1.955958 3.630204,-2.966234 5.810092,-4.061689 8.871615,-4.458231 20.803528,-2.577575 32.653964,5.146777 l 1.871139,1.219645 -0.08657,5.366903 c -0.07526,4.665969 0.08782,29.537098 0.251445,38.346858 l 0.05668,3.05158 -1.287375,-0.435415 c -4.226001,-1.429314 -9.540732,-2.540243 -14.104802,-2.948302 -1.876663,-0.167786 -6.474169,-0.166817 -8.334484,0.0018 -4.132804,0.374497 -8.016231,1.293978 -11.807186,2.795596 -1.611718,0.63841 -4.519714,2.136825 -5.926188,3.053612 -0.600076,0.391149 -1.131711,0.706398 -1.181411,0.700554 -0.0497,-0.0058 -0.59895,-0.345873 -1.220556,-0.755622 z M 14.872084,65.420976 c 1.674316,-1.051298 4.353778,-2.391141 6.020361,-3.01043 7.168078,-2.663599 13.720147,-2.528912 19.75587,0.406107 1.548188,0.752846 2.053926,0.847235 2.60496,0.486184 0.425117,-0.278548 0.810507,-0.931948 0.81109,-1.375143 8.84e-4,-0.696495 -0.364423,-1.064305 -1.765751,-1.777694 -3.894626,-1.982683 -7.775957,-2.821819 -12.440284,-2.689568 -3.528509,0.100046 -6.411813,0.668396 -9.891084,1.949706 -2.836311,1.044525 -7.696059,3.655856 -8.180997,4.395964 -0.522352,0.79721 -0.237865,1.933721 0.593001,2.369014 0.608214,0.318647 0.948015,0.215848 2.492834,-0.75414 z m 72.051299,-0.484085 c 0.533581,-0.2532 0.834357,-0.790884 0.834357,-1.491546 0,-0.830136 -0.399087,-1.228883 -2.069937,-2.068172 -8.085121,-4.06126 -16.626347,-4.924027 -23.928096,-2.417027 -2.609112,0.895819 -5.884929,2.660345 -6.400942,3.447882 -0.154342,0.235555 -0.195404,0.487118 -0.148067,0.907097 0.08594,0.762481 0.598513,1.298309 1.336668,1.397316 0.468945,0.0629 0.6375,0.0022 1.566709,-0.564098 3.389555,-2.065769 6.683643,-3.138988 10.533914,-3.431967 1.546323,-0.117664 4.138177,-0.02868 5.450656,0.187136 3.843864,0.632057 6.659065,1.547901 10.288763,3.347149 0.973833,0.48273 1.852031,0.877691 1.951552,0.877691 0.09952,0 0.362513,-0.08616 0.584423,-0.191461 z M 14.767862,58.484427 c 1.594718,-1.004215 4.900712,-2.638927 6.59929,-3.263143 1.435828,-0.527659 3.544378,-1.085021 5.334176,-1.410008 0.976083,-0.177235 1.893578,-0.228573 4.040962,-0.226109 2.518679,0.0029 2.926284,0.03455 4.364032,0.338973 1.97848,0.418917 3.809949,1.047417 5.63179,1.932645 0.77483,0.376487 1.570394,0.68431 1.767921,0.68405 0.781126,-0.001 1.559698,-0.834733 1.558332,-1.668682 -0.0011,-0.704652 -0.445633,-1.097735 -2.18254,-1.93017 -2.029505,-0.972667 -3.874903,-1.599987 -5.931931,-2.016489 -7.07162,-1.431842 -14.961254,0.154985 -22.11281,4.447504 -1.720251,1.032533 -2.195461,1.444169 -2.297961,1.990545 -0.179822,0.958533 0.553982,1.955962 1.438937,1.955887 0.353795,-3.1e-5 0.778484,-0.198163 1.789802,-0.835003 z M 86.75595,57.668783 c 0.38455,-0.411665 0.572864,-1.05926 0.450172,-1.548108 -0.156502,-0.623547 -0.622077,-0.975541 -2.518474,-1.904066 -3.289693,-1.61072 -6.367024,-2.621356 -9.873615,-3.242626 -2.135431,-0.378339 -6.349344,-0.472815 -8.491708,-0.190386 -3.807122,0.501896 -7.850793,1.969584 -10.634265,3.859804 -0.897017,0.609153 -1.024695,0.766922 -1.097578,1.356263 -0.118142,0.95532 0.791472,1.892262 1.703083,1.754249 0.231848,-0.0351 0.837972,-0.323369 1.346943,-0.640597 7.415225,-4.621707 16.770593,-4.580505 26.044106,0.1147 1.944258,0.984383 2.490317,1.062748 3.071336,0.440767 z m -72.111802,-6.12413 c 1.640729,-1.028313 4.947032,-2.665629 6.627137,-3.28183 3.129244,-1.14769 6.253817,-1.719394 9.407865,-1.721356 3.940186,-0.0024 7.135805,0.789004 10.783171,2.67066 0.409149,0.211077 0.855169,0.383777 0.991156,0.383777 0.8615,0 1.725779,-1.055282 1.565221,-1.911132 -0.120225,-0.640848 -0.590482,-1.019871 -2.227714,-1.795515 -3.833708,-1.816228 -7.71911,-2.599251 -12.122075,-2.44295 -5.628882,0.199819 -11.581562,2.147559 -16.685186,5.459456 -1.102282,0.715305 -1.247714,0.854036 -1.388745,1.324754 -0.130024,0.43398 -0.125853,0.616677 0.02389,1.046416 0.204482,0.586841 0.842035,1.097132 1.370746,1.097132 0.189424,0 0.897567,-0.354989 1.654536,-0.829412 z m 71.318294,-0.630474 c 0.653464,-0.457706 0.856379,-1.560938 0.419017,-2.278174 -0.182945,-0.300015 -0.662915,-0.601513 -2.051579,-1.288721 -5.177392,-2.562134 -9.884366,-3.724277 -15.07217,-3.721289 -3.309915,0.0019 -6.177751,0.474878 -9.029025,1.489094 -2.236556,0.795557 -5.733271,2.7311 -6.069737,3.359791 -0.599138,1.119502 0.552909,2.612559 1.747068,2.264208 0.189667,-0.05533 0.827868,-0.395524 1.418228,-0.755992 7.401915,-4.519542 16.681931,-4.374325 26.076833,0.408059 1.472733,0.749681 2.065078,0.870637 2.561365,0.523024 z m 0.637755,-7.082392 c 0.34055,-0.220375 0.652633,-0.889694 0.65195,-1.398221 -0.0013,-0.909816 -0.919583,-1.566308 -4.16677,-2.978622 -4.136845,-1.799257 -8.050459,-2.702361 -12.261332,-2.829417 -5.323805,-0.160639 -9.588548,0.846421 -13.919651,3.286931 -1.7316,0.975729 -2.221134,1.397741 -2.314537,1.995289 -0.143211,0.916201 0.647702,1.877714 1.545447,1.878801 0.247906,2.53e-4 0.775977,-0.236097 1.452221,-0.650103 5.30866,-3.250042 11.104636,-4.196339 17.670958,-2.885096 2.949315,0.588954 5.471247,1.492685 8.962663,3.21176 1.514894,0.745891 1.741798,0.781053 2.379051,0.368678 z M 16.29822,42.768812 c 2.135329,-1.248621 3.924604,-1.977459 6.855607,-2.792542 0.402815,-0.112019 0.712224,-0.296177 0.88396,-0.526126 0.254611,-0.340916 0.26581,-0.519312 0.307938,-4.905325 0.02404,-2.503348 0.0058,-4.804292 -0.04051,-5.113207 -0.05302,-0.353574 -0.217723,-0.710747 -0.444553,-0.964062 l -0.360328,-0.402397 -1.872204,0.01455 c -1.569951,0.0122 -2.067387,0.06618 -3.081182,0.334351 -2.457348,0.650032 -4.872227,1.953547 -5.322062,2.872768 -0.305577,0.624434 -0.476828,3.173572 -0.477199,7.10326 l -3.06e-4,3.253241 0.760781,0.767902 c 0.766939,0.774117 1.237499,1.02562 1.70168,0.909508 0.138908,-0.03475 0.628678,-0.28311 1.088378,-0.551916 z M 41.596267,39.94617 c 0.439551,-0.183657 0.6486,-0.462275 0.83531,-1.113297 0.267453,-0.932548 -0.18952,-1.518106 -1.873368,-2.400511 -2.487167,-1.303377 -4.510651,-1.788875 -7.479738,-1.794627 -2.896643,-0.0056 -4.593138,0.321137 -4.929381,0.949413 -0.352313,0.658302 -0.05235,1.803622 0.581072,2.218655 0.270725,0.177386 0.475039,0.191897 1.354883,0.09623 0.569847,-0.06196 1.973715,-0.10735 3.119706,-0.100864 2.627356,0.01487 3.450592,0.216863 5.808883,1.425285 0.93763,0.480454 1.806051,0.879154 1.929827,0.886 0.123775,0.0068 0.417538,-0.06798 0.652806,-0.166284 z m 44.366175,-3.049078 c 0.597904,-0.418789 0.836098,-1.422335 0.508336,-2.141695 -0.449466,-0.986469 -6.459639,-3.516418 -10.457085,-4.401851 -3.25034,-0.719949 -7.328269,-0.922869 -10.414871,-0.518251 -3.780475,0.495577 -8.252994,2.17466 -10.887743,4.0875 -1.120017,0.813139 -0.883698,2.367807 0.425605,2.799916 0.537908,0.177525 0.895266,0.05996 2.101595,-0.691405 7.247571,-4.514153 16.521843,-4.441986 25.847098,0.201126 1.792325,0.892411 2.363511,1.024368 2.877065,0.66466 z M 42.489004,32.381263 c 0.899695,-0.899696 0.677382,-1.951067 -0.570928,-2.700046 -3.496646,-2.09797 -8.234982,-2.600331 -12.199643,-1.293413 -1.085064,0.357682 -1.375464,0.70321 -1.375464,1.636571 0,0.649057 0.04621,0.787572 0.37884,1.135696 0.345235,0.361311 0.43485,0.391838 1.01024,0.344144 0.347271,-0.02879 1.086009,-0.184168 1.641641,-0.345293 0.860095,-0.249415 1.301147,-0.293441 2.967582,-0.296222 2.362238,-0.0039 3.245322,0.199366 5.360413,1.234113 1.722151,0.842513 2.182298,0.889471 2.787319,0.28445 z"
     id="path4165"
     inkscape:connector-curvature="0" /></svg>