<?xml version="1.0" encoding="UTF-8" standalone="no"?>
<!-- Generator: Adobe Illustrator 17.0.2, SVG Export Plug-In . SVG Version: 6.00 Build 0)  -->

<svg
   xmlns:dc="http://purl.org/dc/elements/1.1/"
   xmlns:cc="http://creativecommons.org/ns#"
   xmlns:rdf="http://www.w3.org/1999/02/22-rdf-syntax-ns#"
   xmlns:svg="http://www.w3.org/2000/svg"
   xmlns="http://www.w3.org/2000/svg"
   xmlns:sodipodi="http://sodipodi.sourceforge.net/DTD/sodipodi-0.dtd"
   xmlns:inkscape="http://www.inkscape.org/namespaces/inkscape"
   version="1.1"
   id="Capa_1"
   x="0px"
   y="0px"
   width="100px"
   height="100px"
   viewBox="0 0 100 100"
   enable-background="new 0 0 100 100"
   xml:space="preserve"
   inkscape:version="0.91 r13725"
   sodipodi:docname="pinterest15.svg"><metadata
     id="metadata11"><rdf:RDF><cc:Work
         rdf:about=""><dc:format>image/svg+xml</dc:format><dc:type
           rdf:resource="http://purl.org/dc/dcmitype/StillImage" /><dc:title></dc:title></cc:Work></rdf:RDF></metadata><defs
     id="defs9" /><sodipodi:namedview
     pagecolor="#ffffff"
     bordercolor="#666666"
     borderopacity="1"
     objecttolerance="10"
     gridtolerance="10"
     guidetolerance="10"
     inkscape:pageopacity="0"
     inkscape:pageshadow="2"
     inkscape:window-width="1981"
     inkscape:window-height="1190"
     id="namedview7"
     showgrid="false"
     showguides="false"
     inkscape:zoom="9.5967187"
     inkscape:cx="50"
     inkscape:cy="50"
     inkscape:window-x="0"
     inkscape:window-y="0"
     inkscape:window-maximized="0"
     inkscape:current-layer="Capa_1" /><g
     id="g3"><path
       fill="#1D1D1B"
       d="M40.148,5.09C25.706,11.337,18.276,26.323,21.86,41.586c0.238,1.015,0.872,1.591,1.619,1.824   c1.52,0.987,4.256,0.255,4.451-2.184c0.661-8.257,3.784-15.984,11.438-19.934c5.708-2.945,12.774-2.436,18.658-0.386   c4.618,1.609,10.084,5.375,10.546,10.69c0.238,2.741-1.142,5.285-2.831,7.335c-4.196,5.091-9.868,6.59-15.784,5.824   c1.866-2.9,3.477-6.428,1.807-9.68c-1.874-3.648-7.146-3.218-10.651-2.736c-0.742-0.134-1.542,0.063-2.228,0.794   C28.013,44.715,22.083,59.915,19.181,75.387c-0.983,0.315-1.779,1.139-1.772,2.483c0.027,5.826,0.394,11.631,1.088,17.416   c0.216,1.797,1.804,2.657,3.214,2.581c0.006,0,0.013-0.001,0.019-0.001c0.163-0.01,0.321-0.032,0.477-0.067   c0.02-0.004,0.039-0.01,0.059-0.015c0.132-0.033,0.258-0.073,0.381-0.124c0.065-0.026,0.128-0.057,0.192-0.089   c0.054-0.028,0.107-0.056,0.158-0.088c0.519-0.3,0.959-0.774,1.208-1.473c4.583-12.844,10.301-25.214,15.859-37.653   c13.662,3.715,30.126,4.881,39.808-7.183c8.495-10.585,6.313-26.177-1.919-36.224C68.954,3.97,53.44-0.66,40.148,5.09z    M75.194,48.358c-8.477,10.562-24.973,7.407-36.2,4.031c-1.983-0.596-3.284,0.979-3.344,2.581   c-4.176,9.358-8.445,18.678-12.306,28.167c0.059-0.169,0.106-0.35,0.134-0.551c2.274-16.161,7.502-32.663,18.661-44.933   c1.32-0.177,2.653-0.239,3.981-0.121c0.141,0.013,0.853,0.279,0.874,0.268c0.025,0.015,0.052,0.03,0.071,0.045   C47.06,37.901,47.05,38,47.043,38.204c0.002-0.055-0.264,0.933-0.377,1.247c-0.516,1.441-1.529,2.79-2.4,4.03   c-0.018,0.025-0.026,0.05-0.042,0.075c-2.647,0.083-3.507,4.421-0.508,5.374c11.723,3.724,27.343-0.659,30.067-14.224   c1.583-7.887-4.462-14.345-10.992-17.643c-7.511-3.794-16.979-4.437-24.759-1.103c-3.939,1.688-7.008,4.231-9.351,7.316   c2.516-5.458,6.979-10.015,12.938-12.933c11.428-5.599,25.447-0.856,32.825,8.92C80.842,27.74,82.051,39.813,75.194,48.358z"
       id="path5" /></g><path
     style="color:#000000;clip-rule:nonzero;display:inline;overflow:visible;visibility:visible;opacity:1;isolation:auto;mix-blend-mode:normal;color-interpolation:sRGB;color-interpolation-filters:linearRGB;solid-color:#000000;solid-opacity:1;fill:#cb2027;fill-opacity:1;fill-rule:nonzero;stroke:#000000;stroke-width:0.10420229;stroke-linecap:butt;stroke-linejoin:miter;stroke-miterlimit:4;stroke-dasharray:none;stroke-dashoffset:0;stroke-opacity:1;color-rendering:auto;image-rendering:auto;shape-rendering:auto;text-rendering:auto;enable-background:accumulate"
     d="m 23.662138,81.900185 c -0.0025,-0.146883 0.137506,-1.131594 0.311039,-2.188248 2.831042,-17.238445 8.474681,-30.661944 17.158993,-40.812982 1.175375,-1.37389 1.021006,-1.313199 3.365949,-1.323318 1.760291,-0.0076 2.500855,0.123527 2.500855,0.442798 0,0.296177 -0.516462,1.787512 -0.843148,2.434675 -0.166953,0.330732 -0.683451,1.165149 -1.147772,1.85426 -0.692076,1.027128 -0.889962,1.252929 -1.098038,1.252929 -0.139599,0 -0.43099,0.09039 -0.647532,0.200858 -1.759753,0.897759 -1.993896,3.690118 -0.401301,4.785852 0.922037,0.634378 3.845011,1.318586 6.785554,1.588358 1.653156,0.151664 4.894468,0.06714 6.417836,-0.167357 4.832472,-0.743885 8.761084,-2.4512 11.987026,-5.209385 3.465773,-2.963239 5.810624,-7.701772 6.007233,-12.139566 0.324589,-7.326529 -6.360696,-14.600902 -16.122684,-17.54337 -3.06053,-0.922507 -5.396908,-1.252931 -8.905229,-1.259426 -2.919643,-0.0054 -3.722962,0.07002 -6.139284,0.576458 -5.132671,1.07575 -9.966871,3.798705 -12.981768,7.312228 -0.372486,0.434091 -0.69455,0.771954 -0.715696,0.750807 -0.139486,-0.139486 1.837533,-3.220332 2.962247,-4.616155 2.593848,-3.219087 6.684727,-6.28296 10.592656,-7.9333928 3.325789,-1.4045786 6.429236,-1.9659466 10.228436,-1.850174 5.022752,0.1530577 9.980017,1.7762946 14.393011,4.7129348 1.885374,1.254628 2.949557,2.11701 4.435603,3.594482 3.988699,3.965685 6.609597,8.951584 7.61141,14.479665 0.30743,1.696422 0.385708,5.197281 0.155382,6.949249 -0.785366,5.973872 -3.972137,11.2806 -8.577515,14.283597 -2.490007,1.623641 -5.617058,2.708128 -9.303905,3.226674 -1.594282,0.224231 -6.597967,0.255992 -8.388284,0.05324 -4.210833,-0.476865 -7.682049,-1.171488 -12.395494,-2.480456 -1.319672,-0.366484 -2.587378,-0.665877 -2.817125,-0.665318 -0.575228,0.0014 -1.409069,0.413714 -1.80288,0.891474 -0.328463,0.398484 -0.646788,1.15414 -0.646788,1.535383 0,0.111377 -1.24913,2.998545 -2.775845,6.415928 -4.14413,9.276182 -4.6903,10.517499 -6.699726,15.226925 -1.014827,2.378417 -1.9922,4.676077 -2.17194,5.105912 -0.224216,0.536195 -0.328205,0.697686 -0.331276,0.514457 z"
     id="path4141"
     inkscape:connector-curvature="0" /></svg>