<?xml version="1.0" encoding="UTF-8" standalone="no"?>
<!-- Generator: Adobe Illustrator 16.0.3, SVG Export Plug-In . SVG Version: 6.00 Build 0)  -->

<svg
   xmlns:dc="http://purl.org/dc/elements/1.1/"
   xmlns:cc="http://creativecommons.org/ns#"
   xmlns:rdf="http://www.w3.org/1999/02/22-rdf-syntax-ns#"
   xmlns:svg="http://www.w3.org/2000/svg"
   xmlns="http://www.w3.org/2000/svg"
   xmlns:sodipodi="http://sodipodi.sourceforge.net/DTD/sodipodi-0.dtd"
   xmlns:inkscape="http://www.inkscape.org/namespaces/inkscape"
   version="1.1"
   id="Layer_1"
   x="0px"
   y="0px"
   width="100"
   height="100"
   viewBox="0 0 100 100"
   enable-background="new 0 0 512 512"
   xml:space="preserve"
   inkscape:version="0.91 r13725"
   sodipodi:docname="share1.svg"><metadata
     id="metadata51"><rdf:RDF><cc:Work
         rdf:about=""><dc:format>image/svg+xml</dc:format><dc:type
           rdf:resource="http://purl.org/dc/dcmitype/StillImage" /><dc:title></dc:title></cc:Work></rdf:RDF></metadata><defs
     id="defs49" /><sodipodi:namedview
     pagecolor="#ffffff"
     bordercolor="#666666"
     borderopacity="1"
     objecttolerance="10"
     gridtolerance="10"
     guidetolerance="10"
     inkscape:pageopacity="0"
     inkscape:pageshadow="2"
     inkscape:window-width="2263"
     inkscape:window-height="1043"
     id="namedview47"
     showgrid="false"
     inkscape:zoom="3.2193603"
     inkscape:cx="207.77125"
     inkscape:cy="17.720504"
     inkscape:window-x="639"
     inkscape:window-y="119"
     inkscape:window-maximized="0"
     inkscape:current-layer="g3" /><g
     id="g3"
     transform="matrix(0.19954957,0,0,0.20945231,-1.0847428,-3.6197982)"><g
       id="g5"><g
         id="g7"><path
           d="m 418.861,346.004 c -3.042,-23.254 -16.145,-42.795 -35.927,-55.267 -20.969,-13.22 -46.495,-22.491 -71.555,-21.823 -24.203,0.645 -45.319,11.953 -60.875,30.342 -14.887,17.598 -25.359,41.599 -16.607,64.402 0.622,1.619 0.47,3.057 -0.146,4.211 0.848,4.516 2.053,8.954 3.649,13.293 4.249,11.547 10.447,22.554 17.984,32.617 3.632,-9.375 13.516,-12.368 22.752,-13.027 5.133,-0.367 10.288,-0.289 15.421,-0.651 4.083,-0.288 9.047,-0.51 12.506,-2.995 9.792,-7.032 4.617,-20.733 1.062,-29.602 -4.398,-10.975 -9.574,-22.473 -7.323,-34.574 3.417,-18.367 20.738,-31.051 39.192,-30.305 19.709,0.798 35.841,19.215 33.243,39.152 -1.17,8.985 -6.082,16.482 -10.649,24.072 -4.207,6.992 -10.232,17.196 -6.531,25.625 1.517,3.453 6.263,3.375 9.456,3.969 5.167,0.959 9.917,2.535 14.179,5.707 8.318,6.188 12.814,15.297 15.77,24.924 18.251,-22.293 28.038,-52.261 24.399,-80.07 z"
           id="path9"
           inkscape:connector-curvature="0"
           style="fill:#74cccf" /></g></g><g
       id="g11"><g
         id="g13"><path
           d="m 193.307,244.434 c 1.547,-4.771 -2.382,-7.895 -6.189,-10.281 -5.586,-3.502 -11.616,-6.159 -17.538,-9.025 -7.031,-3.401 -14.834,-7.572 -18.921,-14.594 -5.672,-9.746 -3.586,-20.264 0.405,-30.242 3.939,-9.848 8.868,-19.035 10.215,-29.703 1.192,-9.438 0.499,-19.623 -3.286,-28.445 -3.836,-8.943 -10.886,-15.096 -20.719,-16.356 -8.108,-1.04 -15.302,2.747 -19.479,9.755 -4.424,7.424 -6.799,16.238 -7.047,24.877 -0.347,12.057 3.75,23.401 6.061,35.104 0.238,0.588 0.381,1.264 0.386,2.041 0.125,0.708 0.121,1.349 0.019,1.928 0.11,9.299 0.405,18.426 -4.585,26.74 -3.524,5.871 -8.631,9.553 -14.73,12.4 -9.413,4.395 -24.142,7.311 -22.7,20.43 0.063,0.58 0.042,1.113 -0.041,1.607 1.396,1 2.819,1.959 4.275,2.87 33.588,21.019 80.335,26.341 115.601,6.171 -1.597,-1.016 -2.519,-2.834 -1.727,-5.277 z"
           id="path15"
           inkscape:connector-curvature="0"
           style="fill:#127274" /></g></g><g
       id="g17"><g
         id="g19"><path
           d="M 237.123,168.508 C 235.03,135.141 217.748,103.184 189.885,84.365 150.963,58.078 95.229,60.729 59.289,91.05 c -0.012,0.011 -0.024,0.018 -0.037,0.028 -15.562,25.295 -19.959,57.646 -16.952,86.807 1.358,13.168 3.939,27.264 10.754,38.823 3.225,5.47 7.14,10.503 11.596,15.011 2.358,-10.021 11.532,-15.799 21.638,-20.03 4.654,-1.948 10.799,-3.721 14.268,-7.62 6.646,-7.472 5.729,-16.334 5.669,-25.658 -1.712,-9.661 -5.365,-19.135 -6.221,-28.932 -0.499,-5.707 -0.333,-11.557 0.556,-17.221 1.778,-11.321 6.052,-22.937 14.875,-30.65 14.881,-13.013 39.292,-6.622 49.166,9.528 10.372,16.966 10.44,39.652 3.219,57.821 -3.623,9.115 -11.062,20.121 -9.735,30.349 1.048,8.074 8.884,12.335 15.491,15.532 10.766,5.21 32.869,13.252 31.254,28.321 22.662,-17.612 34.119,-45.538 32.293,-74.651 z"
           id="path21"
           inkscape:connector-curvature="0"
           style="fill:#74cccf" /></g></g><g
       id="g23"><g
         id="g25"><path
           d="m 383.524,427.821 c -2.761,-8.571 -7.177,-17.354 -15.898,-20.368 -7.182,-2.482 -17.065,-1.411 -21.372,-9.166 -9.938,-17.896 5.17,-33.915 12.352,-49.244 4.117,-8.787 3.515,-17.814 -2.15,-25.912 -4.705,-6.727 -12.486,-10.185 -20.663,-9.511 -8.178,0.673 -16.118,4.456 -21.001,11.214 -5.854,8.1 -5.198,17.828 -2.029,26.838 3.461,9.84 9.008,19.629 9.818,30.204 0.742,9.696 -3.023,20.333 -11.915,25.267 -7.896,4.381 -17.497,3.985 -26.237,4.298 -6.874,0.246 -16.464,-0.167 -19.298,7.481 -0.654,1.766 -1.832,2.705 -3.16,3.02 7.476,8.612 15.917,16.355 24.923,22.883 18.696,13.551 42.333,18.959 64.614,11.654 12.507,-4.101 23.842,-11.198 33.526,-20.289 -2.983,-1.829 -3.242,-5.922 -1.51,-8.369 z"
           id="path27"
           inkscape:connector-curvature="0"
           style="fill:#127274" /></g></g><g
       id="g29"><g
         id="g31"><path
           d="m 430.295,190.436 c 1.261,-7.156 -1.871,-12.46 -7.055,-17.159 -5.843,-5.298 -13.54,-10.021 -17.288,-17.203 -5.742,-11.007 -0.674,-19.931 5.833,-29.271 3.923,-5.63 6.323,-12.028 4.437,-19.002 -1.377,-5.089 -3.772,-10.257 -7.814,-13.801 -5.9,-5.175 -14.135,-7.143 -21.426,-3.638 -8.021,3.855 -11.801,13.682 -10.089,22.117 1.838,9.055 8.057,16.621 9.39,25.836 1.537,10.633 -4.833,19.51 -13.272,25.336 -7.578,5.232 -18.667,9.479 -20.356,19.571 13.597,9.507 30.062,15.11 46.58,15.6 10.68,0.316 21.532,-1.181 31.433,-5.147 -0.424,-0.911 -0.592,-1.997 -0.373,-3.239 z"
           id="path33"
           inkscape:connector-curvature="0"
           style="fill:#127274" /></g></g><g
       id="g35"><g
         id="g37"><path
           d="M 454.574,81.078 C 439.874,62.36 414.351,51.536 390.64,52.125 c -11.541,0.287 -23.574,3.232 -32.312,11.24 -7.023,6.437 -13.176,13.904 -18.519,21.779 -9.614,14.17 -23.211,38.055 -13.549,55.268 1.647,2.936 0.431,5.881 -1.666,7.484 0.15,0.4 0.286,0.808 0.444,1.205 4.059,10.207 10.447,19.191 18.361,26.619 2.887,-6.871 8.79,-11.824 15.248,-15.907 6.006,-3.797 17.259,-9.177 16.936,-17.712 -0.34,-8.967 -6.799,-16.528 -8.863,-25.112 -2.396,-9.964 -0.924,-20.608 5.759,-28.718 12.152,-14.746 34.519,-13.45 46.428,0.893 7.804,9.398 11.858,24.129 6.717,35.772 -3.433,7.774 -15.887,17.578 -9.619,26.505 4.594,6.545 11.983,10.457 17.301,16.342 5.398,5.976 8.403,12.556 8.234,20.214 0.231,-0.153 0.468,-0.296 0.698,-0.452 13.798,-9.436 22.816,-24.127 26.214,-40.418 4.74,-22.746 0.687,-47.502 -13.878,-66.049 z"
           id="path39"
           inkscape:connector-curvature="0"
           style="fill:#74cccf" /></g></g><g
       id="g41"><g
         id="g43"><path
           d="m 456.368,66.592 c -16.83,-17.135 -42.931,-25.545 -66.575,-25.437 -12.156,0.056 -24.215,3.624 -34.264,10.47 -7.633,5.2 -13.92,12.815 -19.504,20.064 -12.065,15.664 -25.741,38.648 -23.6,59.75 -1.601,0.863 -2.648,2.539 -2.21,4.973 0.374,2.076 0.823,4.116 1.338,6.123 -9.991,-0.818 -20.357,2.408 -29.835,5.124 -11.457,3.28 -22.761,7.231 -33.833,11.636 -0.203,0.08 -0.396,0.169 -0.579,0.264 -1.687,-12.924 -5.473,-25.593 -11.044,-37.205 C 223.104,94.928 200.217,73.721 171.784,62.885 132.972,48.092 85.069,54.992 53.138,81.931 c -0.6,0.506 -1.049,1.071 -1.379,1.667 -0.748,0.439 -1.428,1.074 -1.973,1.945 -12.711,20.318 -17.743,44.615 -19.024,68.269 -1.216,22.441 1.493,46.755 11.99,66.914 19.678,37.792 69.059,54.205 109.195,52.368 14.605,-0.668 28.973,-4.295 41.962,-10.555 -1.372,2.024 -1.434,4.717 1.167,6.574 8.723,6.232 17.443,12.471 25.853,19.125 3.291,2.604 6.585,5.181 9.662,8.035 1.567,1.454 3.213,2.977 5.067,4.088 -12.62,17.988 -19.756,40.42 -13.859,61.716 2.943,27.108 17.566,51.112 35.652,70.917 16.659,18.242 37.605,33.68 62.614,37.118 48.011,6.602 88.736,-32.375 103.636,-74.858 7.555,-21.539 9.311,-45.029 2.45,-66.986 -7.13,-22.819 -24.16,-39.434 -44.456,-51.072 -0.522,-0.299 -1.057,-0.582 -1.584,-0.875 6.688,-21.865 18.55,-42.713 20.485,-65.787 0.02,-0.241 0.024,-0.476 0.018,-0.705 23.233,0.42 46.454,-7.82 61.996,-25.867 28.445,-33.034 23.495,-87.093 -6.242,-117.37 z M 79.432,243.538 c -1.456,-0.911 -2.879,-1.87 -4.275,-2.87 0.083,-0.494 0.104,-1.027 0.041,-1.607 -1.442,-13.119 13.287,-16.035 22.7,-20.43 6.099,-2.848 11.206,-6.529 14.73,-12.4 4.99,-8.314 4.696,-17.441 4.585,-26.74 0.102,-0.579 0.107,-1.22 -0.019,-1.928 -0.005,-0.777 -0.147,-1.453 -0.386,-2.041 -2.311,-11.702 -6.408,-23.047 -6.061,-35.104 0.248,-8.639 2.623,-17.453 7.047,-24.877 4.176,-7.008 11.37,-10.795 19.479,-9.755 9.833,1.261 16.883,7.413 20.719,16.356 3.785,8.822 4.479,19.007 3.286,28.445 -1.348,10.668 -6.276,19.855 -10.215,29.703 -3.991,9.979 -6.077,20.496 -0.405,30.242 4.086,7.021 11.89,11.192 18.921,14.594 5.922,2.866 11.952,5.523 17.538,9.025 3.807,2.387 7.736,5.51 6.189,10.281 -0.792,2.443 0.13,4.262 1.726,5.275 -35.265,20.172 -82.011,14.85 -115.6,-6.169 z m 94.143,-28.7 c -6.607,-3.197 -14.443,-7.458 -15.491,-15.532 -1.327,-10.228 6.113,-21.233 9.735,-30.349 7.221,-18.169 7.153,-40.855 -3.219,-57.821 -9.873,-16.15 -34.284,-22.541 -49.166,-9.528 -8.822,7.714 -13.097,19.329 -14.875,30.65 -0.889,5.664 -1.055,11.514 -0.556,17.221 0.855,9.797 4.508,19.271 6.221,28.932 0.059,9.324 0.977,18.187 -5.669,25.658 -3.468,3.899 -9.614,5.672 -14.268,7.62 -10.106,4.231 -19.28,10.01 -21.638,20.03 -4.456,-4.508 -8.371,-9.541 -11.596,-15.011 -6.814,-11.56 -9.396,-25.655 -10.754,-38.823 -3.007,-29.161 1.39,-61.512 16.952,-86.807 0.012,-0.011 0.024,-0.018 0.037,-0.028 35.94,-30.321 91.674,-32.972 130.596,-6.685 27.863,18.818 45.145,50.775 47.238,84.143 1.826,29.113 -9.631,57.039 -32.294,74.651 1.616,-15.069 -20.487,-23.111 -31.253,-28.321 z m 177.933,241.641 c -22.281,7.305 -45.918,1.896 -64.614,-11.654 -9.006,-6.527 -17.447,-14.271 -24.923,-22.883 1.328,-0.314 2.505,-1.254 3.16,-3.02 2.834,-7.648 12.424,-7.235 19.298,-7.481 8.74,-0.312 18.341,0.083 26.237,-4.298 8.892,-4.934 12.657,-15.57 11.915,-25.267 -0.81,-10.575 -6.356,-20.364 -9.818,-30.204 -3.169,-9.01 -3.825,-18.738 2.029,-26.838 4.883,-6.758 12.824,-10.541 21.001,-11.214 8.177,-0.674 15.958,2.784 20.663,9.511 5.665,8.098 6.268,17.125 2.15,25.912 -7.182,15.329 -22.29,31.348 -12.352,49.244 4.306,7.755 14.19,6.684 21.372,9.166 8.721,3.015 13.138,11.797 15.898,20.368 -1.733,2.446 -1.474,6.54 1.51,8.368 -9.684,9.091 -21.019,16.189 -33.526,20.29 z m 31.426,-165.742 c 19.782,12.472 32.885,32.013 35.927,55.267 3.639,27.81 -6.148,57.777 -24.398,80.07 -2.956,-9.627 -7.452,-18.736 -15.77,-24.924 -4.263,-3.172 -9.013,-4.748 -14.179,-5.707 -3.193,-0.594 -7.939,-0.516 -9.456,-3.969 -3.701,-8.429 2.324,-18.633 6.531,-25.625 4.567,-7.59 9.479,-15.087 10.649,-24.072 2.598,-19.938 -13.534,-38.354 -33.243,-39.152 -18.454,-0.746 -35.776,11.938 -39.192,30.305 -2.25,12.102 2.925,23.6 7.323,34.574 3.555,8.868 8.729,22.569 -1.062,29.602 -3.459,2.485 -8.424,2.707 -12.506,2.995 -5.133,0.362 -10.288,0.284 -15.421,0.651 -9.236,0.659 -19.121,3.652 -22.752,13.027 -7.537,-10.063 -13.735,-21.07 -17.984,-32.617 -1.596,-4.339 -2.801,-8.777 -3.649,-13.293 0.617,-1.154 0.768,-2.592 0.146,-4.211 -8.752,-22.804 1.72,-46.805 16.607,-64.402 15.557,-18.389 36.672,-29.697 60.875,-30.342 25.058,-0.668 50.584,8.604 71.554,21.823 z m -11.626,-22.614 c -0.961,0.602 -1.752,1.484 -2.199,2.627 -18.777,-8.527 -39.583,-13.312 -60.068,-12.767 -24.004,0.64 -45.222,11.921 -61.916,28.688 -1.488,1.494 -2.938,3.055 -4.353,4.66 -0.317,-0.105 -0.652,-0.193 -1.019,-0.25 -2.041,-0.314 -4.572,-3.701 -6.066,-5.062 -3.25,-2.957 -6.896,-5.59 -10.359,-8.296 -7.491,-5.853 -15.258,-11.35 -22.991,-16.874 -1,-0.715 -2.047,-1.047 -3.065,-1.097 16.907,-9.397 31.033,-23.47 39.577,-41.472 7.159,-15.082 10.046,-31.753 9.357,-48.353 0.972,0.274 2.092,0.236 3.316,-0.251 9.815,-3.904 19.809,-7.375 29.907,-10.471 8.69,-2.663 19.487,-6.756 28.722,-5.82 1.832,0.186 3.329,-0.422 4.419,-1.426 10.188,26.358 32.953,45.558 60.597,53.896 4.753,1.434 9.637,2.488 14.574,3.153 -1.883,20.655 -11.679,39.621 -18.433,59.115 z m 27.925,-69.302 c -16.519,-0.489 -32.983,-6.093 -46.58,-15.6 1.689,-10.093 12.778,-14.339 20.356,-19.571 8.439,-5.826 14.81,-14.703 13.272,-25.336 -1.333,-9.215 -7.552,-16.781 -9.39,-25.836 -1.712,-8.436 2.067,-18.262 10.089,-22.117 7.291,-3.505 15.526,-1.537 21.426,3.638 4.042,3.544 6.438,8.712 7.814,13.801 1.886,6.974 -0.514,13.372 -4.437,19.002 -6.507,9.341 -11.575,18.265 -5.833,29.271 3.748,7.183 11.444,11.905 17.288,17.203 5.184,4.699 8.316,10.003 7.055,17.159 -0.219,1.242 -0.051,2.328 0.371,3.238 -9.898,3.968 -20.751,5.465 -31.431,5.148 z m 43.002,-11.276 c -0.229,0.156 -0.467,0.299 -0.698,0.452 0.169,-7.658 -2.835,-14.238 -8.234,-20.214 -5.317,-5.885 -12.707,-9.797 -17.301,-16.342 -6.268,-8.927 6.187,-18.73 9.619,-26.505 5.142,-11.644 1.087,-26.374 -6.717,-35.772 -11.909,-14.343 -34.275,-15.639 -46.428,-0.893 -6.683,8.109 -8.154,18.754 -5.759,28.718 2.064,8.584 8.523,16.146 8.863,25.112 0.323,8.535 -10.93,13.915 -16.936,17.712 -6.458,4.083 -12.361,9.036 -15.248,15.907 -7.914,-7.428 -14.302,-16.412 -18.361,-26.619 -0.158,-0.397 -0.293,-0.805 -0.444,-1.205 2.097,-1.604 3.313,-4.549 1.666,-7.484 -9.662,-17.213 3.935,-41.098 13.549,-55.268 5.343,-7.875 11.496,-15.343 18.519,-21.779 8.737,-8.008 20.771,-10.953 32.312,-11.24 23.711,-0.589 49.234,10.235 63.934,28.953 14.565,18.547 18.619,43.303 13.875,66.049 -3.394,16.291 -12.413,30.982 -26.211,40.418 z"
           id="path45"
           inkscape:connector-curvature="0"
           style="fill:#010101" /></g></g><path
       style="color:#000000;clip-rule:nonzero;display:inline;overflow:visible;visibility:visible;opacity:1;isolation:auto;mix-blend-mode:normal;color-interpolation:sRGB;color-interpolation-filters:linearRGB;solid-color:#000000;solid-opacity:1;fill:#3b5998;fill-opacity:1;fill-rule:nonzero;stroke:#000000;stroke-width:0.31062073;stroke-linecap:butt;stroke-linejoin:miter;stroke-miterlimit:4;stroke-dasharray:none;stroke-dashoffset:0;stroke-opacity:1;color-rendering:auto;image-rendering:auto;shape-rendering:auto;text-rendering:auto;enable-background:accumulate"
       d="m 39.796944,46.080569 c -0.295966,-1.179215 -2.048044,-2.655636 -4.89859,-4.127888 -3.188423,-1.646755 -4.305155,-2.778775 -4.305155,-4.364092 0,-0.601819 0.588588,-2.51306 1.307973,-4.247202 1.294926,-3.121532 1.308095,-3.191716 1.320138,-7.035743 0.01076,-3.434944 -0.07272,-4.070542 -0.723865,-5.510922 -1.381935,-3.056957 -4.524546,-5.01833 -7.40749,-4.623178 -5.040984,0.690943 -7.534185,7.298892 -5.676925,15.046053 0.774702,3.231501 0.774741,5.120771 1.41e-4,6.827486 -0.534892,1.178557 -0.873368,1.455817 -2.910643,2.384233 -2.363811,1.077223 -4.546571,2.899408 -4.546571,3.795515 0,0.460346 -0.04681,0.461293 -0.543586,0.01103 C 10.318901,43.24477 8.8445065,40.365832 8.1922719,37.948222 7.6418826,35.908118 7.5189907,34.5611 7.4984925,30.343713 7.4703714,24.557962 8.0421967,21.432826 9.845177,17.51863 c 0.872706,-1.894609 1.195446,-2.258581 3.179263,-3.585439 5.968322,-3.9918576 14.213946,-4.5667362 20.80161,-1.450272 3.626946,1.71582 7.044828,4.975979 9.281079,8.852794 0.443458,0.768786 1.259617,2.725696 1.81369,4.34869 0.925932,2.712248 1.009051,3.277467 1.027757,6.988966 0.01733,3.437471 -0.0872,4.359178 -0.702767,6.197017 -0.916934,2.737618 -1.235463,3.342962 -2.980788,5.664755 -1.633088,2.172488 -2.218667,2.539157 -2.468077,1.545428 z"
       id="path4181"
       inkscape:connector-curvature="0"
       transform="matrix(5.0112862,0,0,4.7743565,5.4359566,17.282207)" /><path
       style="color:#000000;clip-rule:nonzero;display:inline;overflow:visible;visibility:visible;opacity:1;isolation:auto;mix-blend-mode:normal;color-interpolation:sRGB;color-interpolation-filters:linearRGB;solid-color:#000000;solid-opacity:1;fill:#ffffff;fill-opacity:0.94117647;fill-rule:nonzero;stroke:#000000;stroke-width:0.31062073;stroke-linecap:butt;stroke-linejoin:miter;stroke-miterlimit:4;stroke-dasharray:none;stroke-dashoffset:0;stroke-opacity:1;color-rendering:auto;image-rendering:auto;shape-rendering:auto;text-rendering:auto;enable-background:accumulate"
       d="m 24.846716,51.138636 c -4.837073,-0.728033 -10.78219,-3.42641 -10.964157,-4.976426 -0.142295,-1.212084 1.036271,-2.410909 3.476363,-3.536121 3.617466,-1.668141 4.847518,-3.508579 4.847518,-7.252987 0,-1.174163 -0.292939,-3.519956 -0.650976,-5.212874 -0.990267,-4.682319 -0.327257,-8.747891 1.743912,-10.693654 0.968547,-0.909902 3.145839,-1.159869 4.409763,-0.506268 3.707309,1.917124 4.46273,7.116912 1.981366,13.638334 -2.423365,6.368989 -1.657147,8.563215 3.980225,11.398208 3.135739,1.57694 3.65963,2.072674 3.846564,3.639827 0.154551,1.295667 0.154213,1.296158 -1.3381,1.938135 -3.392563,1.459439 -7.896561,2.080969 -11.332478,1.563826 z"
       id="path4183"
       inkscape:connector-curvature="0"
       transform="matrix(5.0112862,0,0,4.7743565,5.4359566,17.282207)" /><path
       style="color:#000000;clip-rule:nonzero;display:inline;overflow:visible;visibility:visible;opacity:1;isolation:auto;mix-blend-mode:normal;color-interpolation:sRGB;color-interpolation-filters:linearRGB;solid-color:#000000;solid-opacity:1;fill:#ffffff;fill-opacity:0.94117647;fill-rule:nonzero;stroke:#000000;stroke-width:0.31062073;stroke-linecap:butt;stroke-linejoin:miter;stroke-miterlimit:4;stroke-dasharray:none;stroke-dashoffset:0;stroke-opacity:1;color-rendering:auto;image-rendering:auto;shape-rendering:auto;text-rendering:auto;enable-background:accumulate"
       d="M 62.431822,92.414964 C 59.713051,91.90025 56.737029,90.225416 53.967408,87.651394 52.557967,86.341491 51.405481,85.10714 51.40633,84.90839 c 8.49e-4,-0.198749 0.331613,-0.773886 0.735032,-1.278081 0.706361,-0.882812 0.852915,-0.923345 3.962383,-1.095898 4.022893,-0.223241 5.391643,-0.823278 6.405733,-2.808165 0.978568,-1.915362 0.903634,-3.898748 -0.269686,-7.138116 -0.525978,-1.452152 -1.091036,-3.222045 -1.255683,-3.933095 -0.776024,-3.35136 1.854739,-6.599803 5.362192,-6.621187 2.233497,-0.01362 4.312615,2.104989 4.556489,4.64303 0.14012,1.458263 0.0054,1.885135 -1.627447,5.154916 -1.931231,3.867406 -2.260285,5.585621 -1.441489,7.526985 0.477979,1.133287 1.426209,1.730019 3.28486,2.067203 2.434599,0.441668 3.964125,2.299967 4.276446,5.195672 l 0.156757,1.453385 -1.745426,1.295737 c -2.333101,1.732004 -3.6762,2.389055 -6.006683,2.938502 -2.18233,0.514518 -3.11183,0.532819 -5.367986,0.105686 z"
       id="path4185"
       inkscape:connector-curvature="0"
       transform="matrix(5.0112862,0,0,4.7743565,5.4359566,17.282207)" /><path
       style="color:#000000;clip-rule:nonzero;display:inline;overflow:visible;visibility:visible;opacity:1;isolation:auto;mix-blend-mode:normal;color-interpolation:sRGB;color-interpolation-filters:linearRGB;solid-color:#000000;solid-opacity:1;fill:#ffffff;fill-opacity:0.94117647;fill-rule:nonzero;stroke:#000000;stroke-width:0.31062073;stroke-linecap:butt;stroke-linejoin:miter;stroke-miterlimit:4;stroke-dasharray:none;stroke-dashoffset:0;stroke-opacity:1;color-rendering:auto;image-rendering:auto;shape-rendering:auto;text-rendering:auto;enable-background:accumulate"
       d="m 75.768411,37.669181 c -2.164044,-0.493176 -6.030309,-2.287286 -6.268896,-2.909032 -0.300536,-0.783184 0.687867,-2.015894 2.697152,-3.363819 3.831553,-2.57039 4.504842,-4.704619 2.815294,-8.924065 -0.512524,-1.279968 -0.93134,-2.863047 -0.930701,-3.517953 0.0015,-1.58701 0.996105,-3.139014 2.382852,-3.718434 1.0217,-0.426893 1.256677,-0.422107 2.495017,0.05082 3.031673,1.157807 3.953997,4.726537 2.027964,7.846767 -0.557608,0.903342 -1.174782,2.244207 -1.371496,2.979699 -0.316769,1.184365 -0.27892,1.49992 0.331041,2.75993 0.382801,0.790763 1.422451,2.049532 2.340658,2.83398 1.82192,1.556515 2.747141,3.14838 2.575376,4.430994 -0.0869,0.648876 -0.376902,0.929058 -1.288194,1.244555 -1.830842,0.633854 -5.664601,0.77459 -7.806067,0.286559 z"
       id="path4187"
       inkscape:connector-curvature="0"
       transform="matrix(5.0112862,0,0,4.7743565,5.4359566,17.282207)" /><path
       style="color:#000000;clip-rule:nonzero;display:inline;overflow:visible;visibility:visible;opacity:1;isolation:auto;mix-blend-mode:normal;color-interpolation:sRGB;color-interpolation-filters:linearRGB;solid-color:#000000;solid-opacity:1;fill:#dd4b39;fill-opacity:1;fill-rule:nonzero;stroke:#000000;stroke-width:0.31062073;stroke-linecap:butt;stroke-linejoin:miter;stroke-miterlimit:4;stroke-dasharray:none;stroke-dashoffset:0;stroke-opacity:1;color-rendering:auto;image-rendering:auto;shape-rendering:auto;text-rendering:auto;enable-background:accumulate"
       d="m 77.171148,84.027974 c -0.263661,-0.803198 -1.0687,-1.987556 -1.999194,-2.941185 -1.297546,-1.329805 -1.84125,-1.655945 -3.254596,-1.952266 -0.933246,-0.195664 -1.804726,-0.525577 -1.936623,-0.733141 -0.533013,-0.838794 -0.205285,-2.564734 0.890531,-4.689874 1.986187,-3.851856 2.200546,-4.355798 2.421844,-5.693587 0.461522,-2.789979 -1.335953,-6.230329 -3.980022,-7.617725 -3.659365,-1.920143 -8.897074,0.296366 -10.278124,4.349527 -0.755763,2.218044 -0.597116,3.817736 0.786038,7.925894 2.045233,6.074621 1.593929,7.00378 -3.598664,7.409039 -3.468477,0.2707 -5.124929,0.812599 -5.930844,1.940244 -0.469083,0.656345 -0.472021,0.656461 -0.940039,0.03716 -0.871046,-1.152603 -2.904645,-5.580632 -3.209724,-6.988966 -0.912427,-4.212023 -1.021806,-5.11407 -0.882783,-7.280344 0.322747,-5.029077 4.514851,-10.871462 9.562667,-13.327146 3.299811,-1.605306 6.091441,-1.97178 9.95145,-1.306385 6.823201,1.176195 13.225378,5.238372 15.746298,9.991015 2.803069,5.284577 2.518832,12.586726 -0.730102,18.756515 -0.584759,1.110469 -1.313736,2.344578 -1.619952,2.742464 l -0.556754,0.72343 -0.441407,-1.344671 z"
       id="path4189"
       inkscape:connector-curvature="0"
       transform="matrix(5.0112862,0,0,4.7743565,5.4359566,17.282207)" /><path
       style="color:#000000;clip-rule:nonzero;display:inline;overflow:visible;visibility:visible;opacity:1;isolation:auto;mix-blend-mode:normal;color-interpolation:sRGB;color-interpolation-filters:linearRGB;solid-color:#000000;solid-opacity:1;fill:#00aced;fill-opacity:1;fill-rule:nonzero;stroke:#000000;stroke-width:0.31062073;stroke-linecap:butt;stroke-linejoin:miter;stroke-miterlimit:4;stroke-dasharray:none;stroke-dashoffset:0;stroke-opacity:1;color-rendering:auto;image-rendering:auto;shape-rendering:auto;text-rendering:auto;enable-background:accumulate"
       d="m 86.712333,33.737905 c -0.411431,-1.158409 -1.13001,-2.133787 -2.713185,-3.682795 -2.613643,-2.557238 -2.725228,-3.206271 -1.007659,-5.861077 0.934594,-1.444581 1.170494,-2.131243 1.279408,-3.724138 0.116964,-1.710619 0.01356,-2.196699 -0.833229,-3.916767 -1.260173,-2.559775 -2.787026,-3.671471 -5.291362,-3.852618 -2.279044,-0.164851 -4.026014,0.663509 -5.227158,2.478562 -0.687018,1.038153 -0.872999,1.721142 -0.965049,3.544007 -0.09672,1.915378 0.007,2.522352 0.68345,3.99994 1.680526,3.670752 1.461039,4.566891 -1.633198,6.668148 -1.009133,0.685289 -2.246938,1.74599 -2.750677,2.357113 l -0.91589,1.111133 -0.975625,-1.111176 C 64.291887,29.390329 63.797114,27.653121 63.750442,22.578195 63.726681,19.9946 64.544863,17.84928 66.91936,14.269106 69.060049,11.04146 70.926762,9.16658 72.837616,8.3249591 78.367969,5.8891582 86.477785,8.7333757 90.108211,14.38198 c 1.737789,2.703837 2.393816,5.102224 2.411825,8.817457 0.01743,3.594879 -0.527438,6.011755 -1.881942,8.34781 -0.806252,1.390507 -2.802483,3.766398 -3.16454,3.766398 -0.110862,0 -0.453412,-0.709083 -0.761221,-1.57574 z"
       id="path4191"
       inkscape:connector-curvature="0"
       transform="matrix(5.0112862,0,0,4.7743565,5.4359566,17.282207)" /></g></svg>