<?xml version="1.0" encoding="UTF-8" standalone="no"?>
<!-- Generator: Adobe Illustrator 17.0.2, SVG Export Plug-In . SVG Version: 6.00 Build 0)  -->

<svg
   xmlns:dc="http://purl.org/dc/elements/1.1/"
   xmlns:cc="http://creativecommons.org/ns#"
   xmlns:rdf="http://www.w3.org/1999/02/22-rdf-syntax-ns#"
   xmlns:svg="http://www.w3.org/2000/svg"
   xmlns="http://www.w3.org/2000/svg"
   xmlns:sodipodi="http://sodipodi.sourceforge.net/DTD/sodipodi-0.dtd"
   xmlns:inkscape="http://www.inkscape.org/namespaces/inkscape"
   version="1.1"
   id="Capa_1"
   x="0px"
   y="0px"
   width="100px"
   height="100px"
   viewBox="0 0 100 100"
   style="enable-background:new 0 0 100 100;"
   xml:space="preserve"
   inkscape:version="0.91 r13725"
   sodipodi:docname="share17.svg"><metadata
     id="metadata11"><rdf:RDF><cc:Work
         rdf:about=""><dc:format>image/svg+xml</dc:format><dc:type
           rdf:resource="http://purl.org/dc/dcmitype/StillImage" /><dc:title></dc:title></cc:Work></rdf:RDF></metadata><defs
     id="defs9" /><sodipodi:namedview
     pagecolor="#ffffff"
     bordercolor="#666666"
     borderopacity="1"
     objecttolerance="10"
     gridtolerance="10"
     guidetolerance="10"
     inkscape:pageopacity="0"
     inkscape:pageshadow="2"
     inkscape:window-width="1496"
     inkscape:window-height="964"
     id="namedview7"
     showgrid="false"
     inkscape:zoom="7.5132812"
     inkscape:cx="50"
     inkscape:cy="50"
     inkscape:window-x="226"
     inkscape:window-y="55"
     inkscape:window-maximized="0"
     inkscape:current-layer="Capa_1" /><g
     id="g3"><path
       style="fill:#1D1D1B;"
       d="M75.269,72.821c-3.293,0-6.31,0.937-8.585,2.651c-2.752-1.804-5.491-3.626-8.23-5.448   c-8.276-5.507-16.828-11.195-25.615-16.255c0.361-1.635,0.285-3.367-0.228-5.163c-0.177-0.623-0.408-1.24-0.689-1.844   c9.713-5.343,18.675-12.067,27.349-18.576c2.309-1.732,4.617-3.465,6.941-5.174c2.585,2.249,6.144,3.524,9.903,3.524l0.194-0.001   c4.659-0.055,9.217-2.169,11.614-5.385c1.894-2.541,2.405-5.603,1.477-8.853c-1.958-6.856-8.669-9.926-14.452-9.926   c-4.146,0-7.852,1.498-10.169,4.109c-2.09,2.356-2.966,5.505-2.534,9.106c0.007,0.059,0.015,0.118,0.024,0.176   c-2.479,1.819-4.939,3.667-7.399,5.514c-9.129,6.855-18.564,13.94-28.835,19.349c-2.342-1.256-5.118-1.942-7.882-1.942   c-4.144,0-7.848,1.497-10.163,4.106c-2.089,2.354-2.965,5.503-2.533,9.104c0.862,7.188,7.632,10.95,13.873,10.95l0.192-0.001   c2.96-0.035,5.976-0.922,8.378-2.448c9.019,5.144,17.804,10.99,26.305,16.646c2.78,1.85,5.561,3.7,8.354,5.531   c-0.146,1.098-0.148,2.257-0.004,3.456c0.862,7.188,7.632,10.95,13.873,10.95l0.191-0.001c4.659-0.056,9.217-2.17,11.614-5.386   c1.894-2.541,2.404-5.603,1.476-8.852C87.752,75.889,81.047,72.821,75.269,72.821z M71.462,82.078   c0.861-1.113,2.148-1.778,3.442-1.778c0.183,0,0.368,0.014,0.553,0.042l0.113,0.017l0.114-0.009   c2.514-0.199,4.581,2.14,5.845,4.087c0.742,1.143,0.431,1.762,0.329,1.965c-0.692,1.375-3.53,2.261-5.312,2.372   c-0.154,0.01-0.309,0.015-0.463,0.015c-2.065,0-4.715-0.916-5.385-3.496C70.422,84.233,70.701,83.062,71.462,82.078z    M14.364,47.943c0.861-1.113,2.148-1.778,3.442-1.778c0.183,0,0.368,0.014,0.553,0.042l0.113,0.017l0.114-0.009   c2.513-0.193,4.58,2.14,5.844,4.086c0.743,1.144,0.431,1.763,0.329,1.966c-0.692,1.375-3.53,2.261-5.313,2.372   c-0.153,0.01-0.308,0.015-0.462,0.015c-2.065,0-4.714-0.916-5.385-3.496C13.324,50.099,13.603,48.927,14.364,47.943z M81.547,15.96   c-0.692,1.375-3.53,2.261-5.312,2.372c-0.153,0.01-0.307,0.015-0.461,0.015c-2.066,0-4.717-0.916-5.387-3.496   c-0.275-1.06,0.004-2.23,0.765-3.215c0.861-1.113,2.148-1.778,3.443-1.778c0.183,0,0.368,0.014,0.553,0.042l0.113,0.017   l0.114-0.009c2.513-0.188,4.58,2.14,5.844,4.087C81.961,15.138,81.65,15.757,81.547,15.96z"
       id="path5" /></g><path
     style="color:#000000;clip-rule:nonzero;display:inline;overflow:visible;visibility:visible;opacity:1;isolation:auto;mix-blend-mode:normal;color-interpolation:sRGB;color-interpolation-filters:linearRGB;solid-color:#000000;solid-opacity:1;fill:#3b5998;fill-opacity:1;fill-rule:nonzero;stroke:#000000;stroke-width:0.13309763;stroke-linecap:butt;stroke-linejoin:miter;stroke-miterlimit:4;stroke-dasharray:none;stroke-dashoffset:0;stroke-opacity:1;color-rendering:auto;image-rendering:auto;shape-rendering:auto;text-rendering:auto;enable-background:accumulate"
     d="m 17.151503,54.334861 c -1.41391,-0.393425 -2.584495,-1.279165 -3.167189,-2.3965 -0.497595,-0.954155 -0.497947,-2.259238 -8.65e-4,-3.202789 0.471203,-0.894427 1.33878,-1.707754 2.279739,-2.137185 0.715957,-0.326747 0.88472,-0.350136 2.201247,-0.305074 1.28053,0.04383 1.513652,0.09203 2.287474,0.472984 1.476394,0.726826 3.831739,3.406552 4.059012,4.618024 0.213966,1.140538 -1.186714,2.246514 -3.654506,2.885592 -1.137358,0.294539 -3.067313,0.325837 -4.004912,0.06495 z"
     id="path4139"
     inkscape:connector-curvature="0" /><path
     style="color:#000000;clip-rule:nonzero;display:inline;overflow:visible;visibility:visible;opacity:1;isolation:auto;mix-blend-mode:normal;color-interpolation:sRGB;color-interpolation-filters:linearRGB;solid-color:#000000;solid-opacity:1;fill:#dd4b39;fill-opacity:1;fill-rule:nonzero;stroke:#000000;stroke-width:0.13309763;stroke-linecap:butt;stroke-linejoin:miter;stroke-miterlimit:4;stroke-dasharray:none;stroke-dashoffset:0;stroke-opacity:1;color-rendering:auto;image-rendering:auto;shape-rendering:auto;text-rendering:auto;enable-background:accumulate"
     d="m 74.522264,18.178883 c -1.703312,-0.300323 -3.089394,-1.258294 -3.743719,-2.587417 -0.385298,-0.78265 -0.417849,-0.944873 -0.357855,-1.783378 0.103407,-1.445242 0.973015,-2.679372 2.432175,-3.451692 0.608411,-0.322026 0.797005,-0.352237 2.198909,-0.352237 1.456079,0 1.576916,0.02145 2.395758,0.425371 1.068465,0.52705 2.160317,1.48895 3.027799,2.667431 0.879662,1.195027 1.095429,1.646295 1.095429,2.291043 0,0.448164 -0.08663,0.625631 -0.514047,1.053047 -1.250222,1.250223 -4.459393,2.103699 -6.534449,1.737832 z"
     id="path4141"
     inkscape:connector-curvature="0" /><path
     style="color:#000000;clip-rule:nonzero;display:inline;overflow:visible;visibility:visible;opacity:1;isolation:auto;mix-blend-mode:normal;color-interpolation:sRGB;color-interpolation-filters:linearRGB;solid-color:#000000;solid-opacity:1;fill:#00aced;fill-opacity:1;fill-rule:nonzero;stroke:#000000;stroke-width:0.13309763;stroke-linecap:butt;stroke-linejoin:miter;stroke-miterlimit:4;stroke-dasharray:none;stroke-dashoffset:0;stroke-opacity:1;color-rendering:auto;image-rendering:auto;shape-rendering:auto;text-rendering:auto;enable-background:accumulate"
     d="m 74.486327,88.5334 c -3.683715,-0.936221 -4.99387,-4.387323 -2.577951,-6.790626 0.373061,-0.371114 0.977763,-0.8202 1.343782,-0.99797 0.583343,-0.283322 0.848044,-0.323026 2.144441,-0.321659 1.402614,0.0015 1.524999,0.02423 2.371024,0.440725 1.104296,0.543643 2.354293,1.696307 3.259419,3.005618 1.119936,1.620045 1.171421,2.065255 0.344658,2.980383 -1.197595,1.325594 -4.814274,2.209901 -6.885373,1.683529 z"
     id="path4143"
     inkscape:connector-curvature="0" /></svg>