<?xml version="1.0" encoding="UTF-8" standalone="no"?>
<!-- Generator: Adobe Illustrator 17.0.2, SVG Export Plug-In . SVG Version: 6.00 Build 0)  -->

<svg
   xmlns:dc="http://purl.org/dc/elements/1.1/"
   xmlns:cc="http://creativecommons.org/ns#"
   xmlns:rdf="http://www.w3.org/1999/02/22-rdf-syntax-ns#"
   xmlns:svg="http://www.w3.org/2000/svg"
   xmlns="http://www.w3.org/2000/svg"
   xmlns:sodipodi="http://sodipodi.sourceforge.net/DTD/sodipodi-0.dtd"
   xmlns:inkscape="http://www.inkscape.org/namespaces/inkscape"
   version="1.1"
   id="Capa_1"
   x="0px"
   y="0px"
   width="100px"
   height="100px"
   viewBox="0 0 100 100"
   enable-background="new 0 0 100 100"
   xml:space="preserve"
   inkscape:version="0.91 r13725"
   sodipodi:docname="twitter22.svg"><metadata
     id="metadata13"><rdf:RDF><cc:Work
         rdf:about=""><dc:format>image/svg+xml</dc:format><dc:type
           rdf:resource="http://purl.org/dc/dcmitype/StillImage" /><dc:title></dc:title></cc:Work></rdf:RDF></metadata><defs
     id="defs11" /><sodipodi:namedview
     pagecolor="#ffffff"
     bordercolor="#666666"
     borderopacity="1"
     objecttolerance="10"
     gridtolerance="10"
     guidetolerance="10"
     inkscape:pageopacity="0"
     inkscape:pageshadow="2"
     inkscape:window-width="1536"
     inkscape:window-height="859"
     id="namedview9"
     showgrid="false"
     inkscape:zoom="2.36"
     inkscape:cx="-12.5"
     inkscape:cy="50"
     inkscape:window-x="1178"
     inkscape:window-y="470"
     inkscape:window-maximized="0"
     inkscape:current-layer="Capa_1" /><g
     id="g3"><path
       fill="#1D1D1B"
       d="M95.466,31.725c-1.645-0.814-3.299-1.609-4.921-2.466c1.222-1.946,2.301-3.972,3.265-6.065   c0.546-1.187,0.348-2.573-0.86-3.281c-0.815-0.477-2.016-0.401-2.767,0.216c-2.746,0.856-5.409,1.934-8.034,3.102   c-0.676-0.955-1.456-1.865-2.366-2.711C67.438,9.037,47.371,19.573,41.939,32.087c-10.635-0.475-19.61-5.889-26.963-12.538   c-0.316-0.286-0.658-0.457-1.005-0.552c-1.261-0.57-2.947-0.293-3.275,1.291c-1.484,7.16,0.541,13.911,5.6,19.136   c-1.01-0.032-2.02-0.073-3.029-0.137c-0.438-0.028-0.807,0.041-1.122,0.169c-1.646-0.335-3.622,0.763-2.899,2.575   c1.976,4.953,5.483,8.789,10.121,11.148c-0.5,0.005-1.002,0-1.509-0.02c-0.311-0.012-0.582,0.031-0.831,0.099   c-1.508,0.245-2.793,1.662-1.738,3.162c3.274,4.654,7.794,8.099,13.297,10.26c-3.237,3.237-7.825,4.403-12.902,4.035   c-0.199-0.014-0.384-0.009-0.558,0.012c-0.381,0.005-0.77,0.087-1.145,0.284c-1.07,0.562-1.619,1.993-0.867,2.965   c0.097,0.125,0.204,0.239,0.304,0.359c-2.076-0.206-4.142-0.511-6.209-0.931c-2.243-1.108-5.031,1.64-2.898,3.395   c4.179,3.439,8.877,5.998,14.114,7.927c0.506,0.186,0.957,0.204,1.349,0.112c29.076,7.101,55.197-13.149,63.63-37.23   c0.781-2.231,1.402-4.635,1.788-7.093c3.558-1.212,7.052-2.594,10.541-3.989C98.208,35.535,97.579,31.872,95.466,31.725z    M77.109,50.611c-8.941,20.493-32.341,36.551-57.4,29.717c-0.281-0.077-0.541-0.097-0.79-0.092   c-1.068-0.417-2.112-0.872-3.13-1.365c2.048,0.118,4.106,0.146,6.176,0.079c2.814-0.091,3.079-3.646,0.788-4.242   c-0.057-0.031-0.107-0.067-0.167-0.092c4.873-1.027,9.074-3.624,11.856-7.793c0.858-1.286,0.058-2.499-1.112-2.991   c-0.226-0.168-0.491-0.311-0.816-0.409c-4.072-1.231-7.574-3.273-10.376-6.037c2.854-0.234,5.662-0.771,8.444-1.487   c2.804-0.721,1.859-4.445-0.745-4.268c-0.257-0.105-0.54-0.182-0.864-0.206c-5.956-0.437-10.761-3.283-13.594-7.697   c2.435,0.098,4.872,0.11,7.312,0.111c2.767,0,3.071-3.411,0.923-4.177c-5.2-3.633-8.383-8.512-8.606-14.124   c7.907,6.28,17.366,10.862,28.22,10.932c0.64,0.004,1.141-0.181,1.518-0.469c0.575-0.22,1.062-0.651,1.295-1.339   c2.873-8.447,12.544-15.838,22.816-14.344c4.042,0.588,7.421,2.506,9.537,5.655C83.255,33.206,80.271,43.366,77.109,50.611z    M84.948,29.501c-0.169-0.684-0.365-1.361-0.605-2.023c0.752-0.333,1.509-0.653,2.269-0.965c-0.403,0.654-0.821,1.299-1.259,1.934   C85.104,28.807,84.984,29.161,84.948,29.501z M85.6,35.299c-0.007-1.217-0.079-2.429-0.252-3.622   c0.167,0.194,0.365,0.377,0.625,0.53c1.06,0.626,2.146,1.2,3.242,1.757C88.015,34.424,86.81,34.867,85.6,35.299z"
       id="path5" /><path
       fill="#1D1D1B"
       d="M63.25,27.5c-3.225,0-3.225,5,0,5S66.475,27.5,63.25,27.5z"
       id="path7" /></g><path
     style="fill:#87aade"
     d="m 26.779661,81.495763 c -0.815678,-0.08155 -3.294492,-0.575055 -5.508475,-1.09667 -3.994859,-0.941199 -4.009337,-0.949246 -1.906779,-1.059894 3.157417,-0.166165 3.944935,-0.432614 4.70439,-1.591691 0.627386,-0.957512 0.62987,-1.143885 0.0275,-2.063211 -0.658242,-1.004606 -0.647282,-1.016055 1.84087,-1.92328 4.447609,-1.621682 9.090359,-6.020424 8.818039,-8.354593 -0.120475,-1.032632 -0.573861,-1.356259 -3.847943,-2.746678 -4.250447,-1.805054 -8.349986,-4.573865 -7.452472,-5.033367 0.313846,-0.160679 2.000713,-0.531168 3.748595,-0.823306 3.923045,-0.655693 5.084746,-1.329079 5.084746,-2.947398 0,-1.67922 -0.777583,-2.171858 -4.428872,-2.805918 -1.742553,-0.302601 -4.209477,-1.02686 -5.482053,-1.609465 -2.213859,-1.013538 -6.19077,-4.227262 -6.19077,-5.002733 0,-0.203369 1.702481,-0.369762 3.783292,-0.369762 4.188647,0 5.116271,-0.447487 5.113398,-2.466708 -0.0012,-0.872307 -0.533693,-1.545907 -2.30062,-2.910489 -3.013682,-2.327439 -5.471818,-5.486422 -6.585579,-8.463214 -1.474413,-3.940722 -1.121548,-4.277006 2.108153,-2.009088 3.725023,2.615738 10.518993,5.877143 14.47897,6.950545 4.294195,1.163996 10.173632,1.680345 11.721695,1.029433 0.827,-0.347727 1.587916,-1.346187 2.597649,-3.408589 2.740006,-5.596521 8.989367,-10.641142 14.857537,-11.993328 6.25895,-1.442233 12.564958,0.523735 15.960776,4.975948 6.745356,8.843755 0.221407,29.316633 -13.436398,42.164918 -10.649646,10.018419 -24.238821,14.90494 -37.705653,13.558538 z m 38.208161,-49.56991 c 1.726949,-1.56287 0.56997,-4.524723 -1.767483,-4.524723 -1.576886,0 -2.542373,0.996981 -2.542373,2.625306 0,2.252514 2.635996,3.414237 4.309856,1.899417 z"
     id="path3341"
     inkscape:connector-curvature="0" /><path
     style="fill:#00aced;fill-opacity:1"
     d="m 22.860169,80.645771 c -3.26035,-0.704957 -4.054032,-1.408483 -1.588983,-1.408483 2.064241,0 3.341645,-1.325169 3.005358,-3.117737 -0.247089,-1.317098 -0.192515,-1.371127 2.786851,-2.759216 1.962417,-0.914288 3.847893,-2.224831 5.322757,-3.699691 2.056779,-2.05678 2.270792,-2.442076 2.152254,-3.874805 -0.129126,-1.560699 -0.212478,-1.631174 -4.38754,-3.709568 -4.20098,-2.091296 -6.509888,-3.54016 -6.535855,-4.101314 -0.0073,-0.158265 1.083082,-0.504476 2.423125,-0.769356 5.192173,-1.026313 6.78956,-2.028712 6.30561,-3.956921 -0.292469,-1.165291 -1.352614,-1.668705 -5.461938,-2.593625 -3.465978,-0.780117 -6.248693,-2.152354 -8.764093,-4.321827 l -1.882285,-1.623425 1.670421,-0.296584 c 0.918731,-0.163121 2.533713,-0.307572 3.58885,-0.321003 2.198048,-0.02798 3.801909,-0.954911 3.801909,-2.197268 0,-0.508542 -1.42467,-2.25916 -3.524284,-4.330601 -3.396052,-3.350483 -5.333213,-6.328938 -6.035921,-9.280449 -0.359544,-1.510153 0.227203,-1.500998 2.492334,0.03889 7.55895,5.138742 16.044908,8.117892 23.123406,8.117892 3.773495,0 4.127097,-0.239313 6.235891,-4.220361 2.281106,-4.306343 7.480386,-8.770872 12.409727,-10.656009 2.945436,-1.126429 8.635279,-1.241026 11.384008,-0.229282 9.342682,3.438829 11.492979,13.170651 6.036462,27.319868 C 71.679949,63.534763 57.82,76.002004 42.418827,80.137415 37.908842,81.348403 27.37589,81.622165 22.860169,80.645771 Z M 65.399462,31.534959 c 0.911008,-1.39037 0.399496,-3.06632 -1.211907,-3.970778 -1.051419,-0.590145 -1.232525,-0.571398 -2.324915,0.240662 -1.495483,1.111713 -1.738996,2.784903 -0.57475,3.94915 1.251479,1.251478 3.216652,1.146788 4.111572,-0.219034 z"
     id="path4143"
     inkscape:connector-curvature="0" /><path
     style="fill:#00aced;fill-opacity:1"
     d="m 22.549692,80.476559 c -2.270091,-0.56436 -2.89714,-1.239271 -1.151387,-1.239271 1.767435,0 3.050388,-1.291199 3.052415,-3.072034 0.0014,-1.271301 0.221222,-1.490487 2.860169,-2.852521 1.572231,-0.81147 3.872622,-2.455576 5.11198,-3.653572 2.058273,-1.98958 2.241712,-2.320428 2.118644,-3.821208 -0.130889,-1.596152 -0.238403,-1.697449 -3.767808,-3.549817 -4.854167,-2.547657 -6.748281,-3.711226 -6.748281,-4.145522 0,-0.198299 1.441481,-0.700373 3.20329,-1.11572 3.861522,-0.910355 5.529248,-2.127847 5.124383,-3.740959 -0.296333,-1.180685 -1.195004,-1.603697 -6.933748,-3.263774 -2.89365,-0.837061 -8.120998,-3.889819 -8.473987,-4.948786 -0.09724,-0.291713 1.06279,-0.571436 3.145205,-0.758418 3.550689,-0.318821 5.206043,-1.063049 5.206043,-2.340576 0,-0.441482 -1.61881,-2.559217 -3.597356,-4.706079 -3.630568,-3.939423 -5.909476,-7.668097 -5.652495,-9.248427 0.130828,-0.804543 0.2874,-0.76435 2.47019,0.634108 7.791787,4.991999 15.90412,7.786695 22.602911,7.786695 3.705073,0 4.483057,-0.461767 6.306462,-3.743165 2.049106,-3.687565 6.769278,-8.122016 10.728453,-10.079039 3.227657,-1.595433 3.457534,-1.643898 7.797327,-1.643898 3.673979,0 4.821008,0.16155 6.430271,0.905648 2.957432,1.36747 5.184703,3.621021 6.533458,6.61054 2.482398,5.502268 1.200478,14.512364 -3.391831,23.839744 -6.360267,12.918263 -18.706385,23.468187 -32.007051,27.350454 -2.662314,0.777089 -4.484285,0.950928 -11.228813,1.071373 -4.443665,0.07936 -8.806975,-0.04421 -9.738444,-0.275776 z M 65.537627,31.25 c 0.582559,-1.046265 0.582572,-1.283672 1.15e-4,-2.324914 -0.356789,-0.637813 -1.164403,-1.341022 -1.794704,-1.562687 -0.951102,-0.334485 -1.327203,-0.232797 -2.21147,0.597929 -1.292585,1.214322 -1.365754,2.671586 -0.193026,3.844316 1.250068,1.250069 3.34856,0.972886 4.199085,-0.554644 z"
     id="path4145"
     inkscape:connector-curvature="0" /></svg>