<?xml version="1.0" encoding="utf-8"?>
<!-- Generator: Adobe Illustrator 16.0.3, SVG Export Plug-In . SVG Version: 6.00 Build 0)  -->
<!DOCTYPE svg PUBLIC "-//W3C//DTD SVG 1.1//EN" "http://www.w3.org/Graphics/SVG/1.1/DTD/svg11.dtd">
<svg version="1.1" id="Capa_1" xmlns="http://www.w3.org/2000/svg" xmlns:xlink="http://www.w3.org/1999/xlink" x="0px" y="0px"
	 width="100px" height="100px" viewBox="0 0 100 100" enable-background="new 0 0 100 100" xml:space="preserve">
<g>
	<g id="XMLID_1_">
		<g>
			<path fill="#93261E" d="M24.5,51.5v1.85c-1.22,0.08-2.44,0.12-3.67,0.131V51.5H24.5z"/>
			<path fill="#1D1D1B" d="M96.17,13.33c0.271,20.01-1.25,59-0.67,79c0.05,1.64-1.22,2.439-2.5,2.41c-0.21,0.06-0.42,0.09-0.67,0.09
				c-3,0-6-0.021-9-0.33c-1.12-0.12-1.84-0.82-2.18-1.67c-0.091-0.16-0.17-0.32-0.23-0.5c-0.46-1.33-1.12-2.58-1.77-3.83H75.59
				c-0.53,1.6-1.05,3.21-1.51,4.83c-0.37,1.27-1.4,1.79-2.43,1.75c-0.2,0.05-0.41,0.09-0.65,0.09c-12.12,0-30.24-0.07-42.33-1
				c-1.21-0.09-1.96-0.86-2.26-1.77c-0.14-0.301-0.24-0.66-0.24-1.07c-0.03-1.12-0.29-2.16-0.72-3.16H20.6
				c-0.25,1.521-0.7,3.01-1.19,4.5c-0.42,1.25-1.49,1.76-2.53,1.71c-0.17,0.05-0.36,0.09-0.55,0.12c-2.43,0.32-4.88,0.33-7.33,0.33
				c-1.42,0-2.21-0.96-2.38-2.05c-0.46-0.4-0.77-0.99-0.79-1.78c-0.1-5.53-0.16-11.05-0.23-16.58C5.44,62.23,5.31,50.04,5.25,37.85
				C5.22,32.5,5.41,27.09,5.17,21.74C5.02,18.22,2.61,11.25,7.38,9.73c2.63-0.83,7.12,0.1,9.95,0.1c1.22,0,1.98,0.72,2.28,1.61
				c0.07,0.09,0.15,0.18,0.22,0.3c0.77,1.32,1.41,2.71,2.07,4.09h4.29c0.79-1.77,1.81-3.37,3.04-4.93c0.49-0.62,1.29-0.81,2.05-0.7
				c0.13-0.01,0.25-0.03,0.39-0.03H73c1.34,0,2.11,0.86,2.34,1.86c0.78,1.29,1.561,2.59,2.47,3.8h3.271
				c1.12-1.76,2.36-3.44,3.82-4.93c0.649-0.66,1.399-0.83,2.09-0.7c0.109-0.01,0.22-0.03,0.34-0.03h6.34c1.62,0,2.43,1.27,2.41,2.53
				C96.13,12.9,96.16,13.11,96.17,13.33z M90.46,89.82c-0.39-18.561,0.87-56.1,0.71-74.65h-3.4c-1.039,1.18-1.939,2.46-2.77,3.81
				c-0.23,1-1,1.85-2.33,1.85H77c-0.58,0-1.05-0.16-1.42-0.42c-0.39-0.11-0.75-0.31-1.01-0.64c-1.17-1.47-2.19-3.01-3.17-4.6H32.23
				c-0.75,1.08-1.39,2.25-1.82,3.5c-0.17,0.48-0.45,0.91-0.82,1.22c-0.4,0.56-1.03,0.94-1.92,0.94h-7c-0.09,0-0.17-0.01-0.25-0.02
				c-0.91,0.03-1.83-0.38-2.25-1.21c-0.78-1.59-1.49-3.22-2.35-4.77H9.83v0.24c0.21,0.34,0.34,0.76,0.34,1.26
				c0.01,18.17,0.31,55.33,0.64,73.5c1.45-0.021,2.89-0.061,4.33-0.2c0.36-1.18,0.66-2.38,0.69-3.63c0.01-0.25,0.05-0.47,0.11-0.68
				c0.14-1.12,0.93-2.15,2.39-2.15h8c0.19,0,0.36,0.021,0.53,0.05c0.85-0.1,1.74,0.221,2.3,1.19c0.89,1.54,1.51,3.189,1.81,4.92
				c10.93,0.74,27.89,0.83,38.839,0.84c0.471-1.51,0.95-3.01,1.45-4.5c0-0.02,0.01-0.04,0.021-0.05c0.149-1.11,0.939-2.12,2.39-2.12
				H80c0.12,0,0.22,0.02,0.33,0.03c0.979-0.12,2.04,0.3,2.5,1.21c0.82,1.63,1.68,3.229,2.39,4.91
				C86.96,89.77,88.71,89.8,90.46,89.82z"/>
			<path fill="#1D1D1B" d="M83.5,70v5.67c0,1.53-1.14,2.33-2.32,2.4c-0.17,0.04-0.34,0.08-0.51,0.1C77.79,78.5,74.89,78.5,72,78.5
				c-2.12,0-2.84-2.16-2.17-3.64v-4.53c0-0.3,0.06-0.561,0.14-0.8c-0.26-1.4,0.521-3.03,2.36-3.03H81c1.73,0,2.53,1.45,2.39,2.78
				C83.46,69.5,83.5,69.74,83.5,70z M78.5,73.35V71.5h-3.67v1.98C76.06,73.47,77.28,73.43,78.5,73.35z"/>
			<path fill="#1D1D1B" d="M83.5,50v5.67c0,1.53-1.14,2.33-2.32,2.4c-0.17,0.04-0.34,0.08-0.51,0.1C77.79,58.5,74.89,58.5,72,58.5
				c-2.12,0-2.84-2.16-2.17-3.64v-4.53c0-0.3,0.06-0.56,0.14-0.81c-0.26-1.39,0.521-3.02,2.36-3.02H81c1.73,0,2.53,1.45,2.39,2.78
				C83.46,49.5,83.5,49.74,83.5,50z M78.5,53.35V51.5h-3.67v1.98C76.06,53.47,77.28,53.43,78.5,53.35z"/>
			<path fill="#1D1D1B" d="M83.5,30v5.67c0,1.53-1.14,2.33-2.32,2.4c-0.17,0.04-0.34,0.08-0.51,0.1C77.79,38.5,74.89,38.5,72,38.5
				c-2.12,0-2.84-2.16-2.17-3.64v-4.53c0-0.3,0.06-0.56,0.14-0.81c-0.26-1.39,0.521-3.02,2.36-3.02H81c1.73,0,2.53,1.45,2.39,2.78
				C83.46,29.5,83.5,29.74,83.5,30z M78.5,33.35V31.5h-3.67v1.98C76.06,33.47,77.28,33.43,78.5,33.35z"/>
			<path fill="#93261E" d="M78.5,51.5v1.85c-1.22,0.08-2.44,0.12-3.67,0.131V51.5H78.5z"/>
			<path fill="#1D1D1B" d="M62.06,52.2c1.391,3.21-0.76,5.74-5.02,8.609c-5.2,3.5-10.61,6.671-16.11,9.681
				c-2.08,1.14-3.98-0.88-3.73-2.66c-0.01-0.05-0.03-0.1-0.03-0.16c-0.18-2.04-3.48-32.94,2.16-30.75
				c6.77,2.64,14.11,6.37,19.52,11.26C60.49,49.66,61.53,50.98,62.06,52.2z M57.87,54.17c-4.97-4.57-10.57-8.31-16.7-11.09v1.25
				c0,0.25-0.04,0.47-0.09,0.67c0.05,0.21,0.09,0.42,0.09,0.67c0.02,6.2,0.27,12.38,0.73,18.55C47.38,61.12,52.73,57.82,57.87,54.17
				z"/>
			<path fill="#93261E" d="M41.17,43.08c6.13,2.78,11.73,6.52,16.7,11.09c-5.14,3.65-10.49,6.95-15.97,10.05
				c-0.46-6.17-0.71-12.35-0.73-18.55c0-0.25-0.04-0.46-0.09-0.67c0.05-0.2,0.09-0.42,0.09-0.67V43.08z"/>
			<path fill="#1D1D1B" d="M29.5,70v5.67c0,1.53-1.14,2.33-2.32,2.4c-0.17,0.04-0.34,0.08-0.51,0.1C23.79,78.5,20.89,78.5,18,78.5
				c-2.12,0-2.84-2.16-2.17-3.64v-4.53c0-0.3,0.06-0.561,0.14-0.8c-0.26-1.4,0.52-3.03,2.36-3.03H27c1.73,0,2.53,1.45,2.4,2.78
				C29.46,69.5,29.5,69.74,29.5,70z M24.5,73.35V71.5h-3.67v1.98C22.06,73.47,23.28,73.43,24.5,73.35z"/>
			<path fill="#1D1D1B" d="M29.5,50v5.67c0,1.53-1.14,2.33-2.32,2.4c-0.17,0.04-0.34,0.08-0.51,0.1C23.79,58.5,20.89,58.5,18,58.5
				c-2.12,0-2.84-2.16-2.17-3.64v-4.53c0-0.3,0.06-0.56,0.14-0.81c-0.26-1.39,0.52-3.02,2.36-3.02H27c1.73,0,2.53,1.45,2.4,2.78
				C29.46,49.5,29.5,49.74,29.5,50z M24.5,53.35V51.5h-3.67v1.98C22.06,53.47,23.28,53.43,24.5,53.35z"/>
			<path fill="#1D1D1B" d="M29.5,30v5.67c0,1.53-1.14,2.33-2.32,2.4c-0.17,0.04-0.34,0.08-0.51,0.1C23.79,38.5,20.89,38.5,18,38.5
				c-2.12,0-2.84-2.16-2.17-3.64v-4.53c0-0.3,0.06-0.56,0.14-0.81c-0.26-1.39,0.52-3.02,2.36-3.02H27c1.73,0,2.53,1.45,2.4,2.78
				C29.46,29.5,29.5,29.74,29.5,30z M24.5,33.35V31.5h-3.67v1.98C22.06,33.47,23.28,33.43,24.5,33.35z"/>
		</g>
		<g>
		</g>
	</g>
</g>
</svg>
